<?xml version="1.0" encoding="UTF-8" standalone="no"?>
<!DOCTYPE svg PUBLIC "-//W3C//DTD SVG 1.1//EN"
 "http://www.w3.org/Graphics/SVG/1.1/DTD/svg11.dtd">
<!-- Generated by graphviz version 2.40.1 (20161225.0304)
 -->
<!-- Title: qjs::Context::Module::class_registrar::class_registrar Pages: 1 -->
<svg width="576pt" height="66pt"
 viewBox="0.00 0.00 576.00 66.00" xmlns="http://www.w3.org/2000/svg" xmlns:xlink="http://www.w3.org/1999/xlink">
<g id="graph0" class="graph" transform="scale(1 1) rotate(0) translate(4 62)">
<title>qjs::Context::Module::class_registrar::class_registrar</title>
<!-- Node0 -->
<g id="node1" class="node">
<title>Node0</title>
<polygon fill="#bfbfbf" stroke="#000000" points="0,-8.5 0,-49.5 116,-49.5 116,-8.5 0,-8.5"/>
<text text-anchor="start" x="8" y="-37.5" font-family="Helvetica,sans-Serif" font-size="10.00" fill="#000000">qjs::Context::Module</text>
<text text-anchor="start" x="8" y="-26.5" font-family="Helvetica,sans-Serif" font-size="10.00" fill="#000000">::class_registrar::class</text>
<text text-anchor="middle" x="58" y="-15.5" font-family="Helvetica,sans-Serif" font-size="10.00" fill="#000000">_registrar</text>
</g>
<!-- Node1 -->
<g id="node2" class="node">
<title>Node1</title>
<g id="a_node2"><a xlink:href="classqjs_1_1Context.html#ab84e72a846bceb8085366950bb328548" target="_top" xlink:title="returns new Object() ">
<polygon fill="none" stroke="#000000" points="152,-19.5 152,-38.5 274,-38.5 274,-19.5 152,-19.5"/>
<text text-anchor="middle" x="213" y="-26.5" font-family="Helvetica,sans-Serif" font-size="10.00" fill="#000000">qjs::Context::newObject</text>
</a>
</g>
</g>
<!-- Node0&#45;&gt;Node1 -->
<g id="edge1" class="edge">
<title>Node0&#45;&gt;Node1</title>
<path fill="none" stroke="#191970" d="M116.1573,-29C124.5542,-29 133.2748,-29 141.8893,-29"/>
<polygon fill="#191970" stroke="#191970" points="141.9277,-32.5001 151.9276,-29 141.9276,-25.5001 141.9277,-32.5001"/>
</g>
<!-- Node2 -->
<g id="node3" class="node">
<title>Node2</title>
<g id="a_node3"><a xlink:href="quickjs_8c.html#afc0d8ea75588216ec132a6e1655524a7" target="_top" xlink:title="JS_NewObject">
<polygon fill="none" stroke="#000000" points="314,-38.5 314,-57.5 397,-57.5 397,-38.5 314,-38.5"/>
<text text-anchor="middle" x="355.5" y="-45.5" font-family="Helvetica,sans-Serif" font-size="10.00" fill="#000000">JS_NewObject</text>
</a>
</g>
</g>
<!-- Node1&#45;&gt;Node2 -->
<g id="edge2" class="edge">
<title>Node1&#45;&gt;Node2</title>
<path fill="none" stroke="#191970" d="M274.2598,-37.168C284.0097,-38.468 294.0142,-39.8019 303.5235,-41.0698"/>
<polygon fill="#191970" stroke="#191970" points="303.2372,-44.5625 313.6121,-42.4149 304.1624,-37.6239 303.2372,-44.5625"/>
</g>
<!-- Node84 -->
<g id="node5" class="node">
<title>Node84</title>
<g id="a_node5"><a xlink:href="classqjs_1_1Value.html#a8e2a5be6c89f30cee044b884e30bf819" target="_top" xlink:title="Use context.newValue(val) instead. ">
<polygon fill="none" stroke="#000000" points="310,-.5 310,-19.5 401,-19.5 401,-.5 310,-.5"/>
<text text-anchor="middle" x="355.5" y="-7.5" font-family="Helvetica,sans-Serif" font-size="10.00" fill="#000000">qjs::Value::Value</text>
</a>
</g>
</g>
<!-- Node1&#45;&gt;Node84 -->
<g id="edge4" class="edge">
<title>Node1&#45;&gt;Node84</title>
<path fill="none" stroke="#191970" d="M274.2598,-20.832C282.7332,-19.7022 291.3989,-18.5468 299.7647,-17.4314"/>
<polygon fill="#191970" stroke="#191970" points="300.3376,-20.886 309.7873,-16.095 299.4124,-13.9475 300.3376,-20.886"/>
</g>
<!-- Node3 -->
<g id="node4" class="node">
<title>Node3</title>
<g id="a_node4"><a xlink:href="quickjs_8c.html#a73738c650f11459db0d7af3dcdf8316b" target="_top" xlink:title="JS_NewObjectProtoClass">
<polygon fill="none" stroke="#ff0000" points="437,-38.5 437,-57.5 568,-57.5 568,-38.5 437,-38.5"/>
<text text-anchor="middle" x="502.5" y="-45.5" font-family="Helvetica,sans-Serif" font-size="10.00" fill="#000000">JS_NewObjectProtoClass</text>
</a>
</g>
</g>
<!-- Node2&#45;&gt;Node3 -->
<g id="edge3" class="edge">
<title>Node2&#45;&gt;Node3</title>
<path fill="none" stroke="#191970" d="M397.2311,-48C406.462,-48 416.5208,-48 426.6393,-48"/>
<polygon fill="#191970" stroke="#191970" points="426.7493,-51.5001 436.7492,-48 426.7492,-44.5001 426.7493,-51.5001"/>
</g>
<!-- Node85 -->
<g id="node6" class="node">
<title>Node85</title>
<g id="a_node6"><a xlink:href="quickjs_8h.html#ad80a83d73e9b7d872b88fbf2943aebe9" target="_top" xlink:title="JS_IsException">
<polygon fill="none" stroke="#000000" points="459.5,-.5 459.5,-19.5 545.5,-19.5 545.5,-.5 459.5,-.5"/>
<text text-anchor="middle" x="502.5" y="-7.5" font-family="Helvetica,sans-Serif" font-size="10.00" fill="#000000">JS_IsException</text>
</a>
</g>
</g>
<!-- Node84&#45;&gt;Node85 -->
<g id="edge5" class="edge">
<title>Node84&#45;&gt;Node85</title>
<path fill="none" stroke="#191970" d="M401.2059,-10C416.4161,-10 433.4887,-10 449.2209,-10"/>
<polygon fill="#191970" stroke="#191970" points="449.3327,-13.5001 459.3327,-10 449.3327,-6.5001 449.3327,-13.5001"/>
</g>
</g>
</svg>
