<?xml version="1.0" encoding="UTF-8" standalone="no"?>
<!DOCTYPE svg PUBLIC "-//W3C//DTD SVG 1.1//EN"
 "http://www.w3.org/Graphics/SVG/1.1/DTD/svg11.dtd">
<!-- Generated by graphviz version 2.40.1 (20161225.0304)
 -->
<!-- Title: qjs::Context::eval Pages: 1 -->
<svg width="322pt" height="47pt"
 viewBox="0.00 0.00 322.00 47.00" xmlns="http://www.w3.org/2000/svg" xmlns:xlink="http://www.w3.org/1999/xlink">
<g id="graph0" class="graph" transform="scale(1 1) rotate(0) translate(4 43)">
<title>qjs::Context::eval</title>
<!-- Node195 -->
<g id="node1" class="node">
<title>Node195</title>
<polygon fill="#bfbfbf" stroke="#000000" points="0,-.5 0,-19.5 94,-19.5 94,-.5 0,-.5"/>
<text text-anchor="middle" x="47" y="-7.5" font-family="Helvetica,sans-Serif" font-size="10.00" fill="#000000">qjs::Context::eval</text>
</g>
<!-- Node196 -->
<g id="node2" class="node">
<title>Node196</title>
<g id="a_node2"><a xlink:href="classqjs_1_1Context.html#a003bfbb1ead4106d2f1fad18cedbdad1" target="_top" xlink:title="qjs::Context::evalFile">
<polygon fill="none" stroke="#000000" points="130,-19.5 130,-38.5 240,-38.5 240,-19.5 130,-19.5"/>
<text text-anchor="middle" x="185" y="-26.5" font-family="Helvetica,sans-Serif" font-size="10.00" fill="#000000">qjs::Context::evalFile</text>
</a>
</g>
</g>
<!-- Node195&#45;&gt;Node196 -->
<g id="edge1" class="edge">
<title>Node195&#45;&gt;Node196</title>
<path fill="none" stroke="#191970" d="M104.1799,-17.8726C112.5649,-19.0271 121.1899,-20.2146 129.5396,-21.3641"/>
<polygon fill="#191970" stroke="#191970" points="104.4898,-14.3823 94.1058,-16.4856 103.5349,-21.3169 104.4898,-14.3823"/>
</g>
<!-- Node197 -->
<g id="node3" class="node">
<title>Node197</title>
<g id="a_node3"><a xlink:href="qjs_8cpp.html#a3c04138a5bfe5d72780bb7e82a18e627" target="_top" xlink:title="main">
<polygon fill="none" stroke="#000000" points="276,-.5 276,-19.5 314,-19.5 314,-.5 276,-.5"/>
<text text-anchor="middle" x="295" y="-7.5" font-family="Helvetica,sans-Serif" font-size="10.00" fill="#000000">main</text>
</a>
</g>
</g>
<!-- Node195&#45;&gt;Node197 -->
<g id="edge3" class="edge">
<title>Node195&#45;&gt;Node197</title>
<path fill="none" stroke="#191970" d="M104.5581,-10C159.6686,-10 239.6264,-10 275.8675,-10"/>
<polygon fill="#191970" stroke="#191970" points="104.2307,-6.5001 94.2306,-10 104.2306,-13.5001 104.2307,-6.5001"/>
</g>
<!-- Node196&#45;&gt;Node197 -->
<g id="edge2" class="edge">
<title>Node196&#45;&gt;Node197</title>
<path fill="none" stroke="#191970" d="M250.2006,-17.7381C259.5833,-16.1174 268.5555,-14.5677 275.9729,-13.2865"/>
<polygon fill="#191970" stroke="#191970" points="249.5806,-14.2933 240.3223,-19.4443 250.7721,-21.1911 249.5806,-14.2933"/>
</g>
</g>
</svg>
