<?xml version="1.0" encoding="UTF-8" standalone="no"?>
<!DOCTYPE svg PUBLIC "-//W3C//DTD SVG 1.1//EN"
 "http://www.w3.org/Graphics/SVG/1.1/DTD/svg11.dtd">
<!-- Generated by graphviz version 2.40.1 (20161225.0304)
 -->
<!-- Title: ctz64 Pages: 1 -->
<svg width="471pt" height="47pt"
 viewBox="0.00 0.00 471.00 47.00" xmlns="http://www.w3.org/2000/svg" xmlns:xlink="http://www.w3.org/1999/xlink">
<g id="graph0" class="graph" transform="scale(1 1) rotate(0) translate(4 43)">
<title>ctz64</title>
<!-- Node2212 -->
<g id="node1" class="node">
<title>Node2212</title>
<polygon fill="#bfbfbf" stroke="#000000" points="0,-.5 0,-19.5 41,-19.5 41,-.5 0,-.5"/>
<text text-anchor="middle" x="20.5" y="-7.5" font-family="Helvetica,sans-Serif" font-size="10.00" fill="#000000">ctz64</text>
</g>
<!-- Node2213 -->
<g id="node2" class="node">
<title>Node2213</title>
<g id="a_node2"><a xlink:href="libbf_8c.html#afd88d8b29be2493c1e2ed530d61a45d1" target="_top" xlink:title="ctz">
<polygon fill="none" stroke="#000000" points="77,-.5 77,-19.5 107,-19.5 107,-.5 77,-.5"/>
<text text-anchor="middle" x="92" y="-7.5" font-family="Helvetica,sans-Serif" font-size="10.00" fill="#000000">ctz</text>
</a>
</g>
</g>
<!-- Node2212&#45;&gt;Node2213 -->
<g id="edge1" class="edge">
<title>Node2212&#45;&gt;Node2213</title>
<path fill="none" stroke="#191970" d="M51.244,-10C60.0934,-10 69.3602,-10 76.8176,-10"/>
<polygon fill="#191970" stroke="#191970" points="51.1808,-6.5001 41.1808,-10 51.1807,-13.5001 51.1808,-6.5001"/>
</g>
<!-- Node2214 -->
<g id="node3" class="node">
<title>Node2214</title>
<g id="a_node3"><a xlink:href="libbf_8h.html#aedb4166210550b5f012ecea90f97f9b2" target="_top" xlink:title="bf_get_exp_min">
<polygon fill="none" stroke="#000000" points="143,-.5 143,-19.5 229,-19.5 229,-.5 143,-.5"/>
<text text-anchor="middle" x="186" y="-7.5" font-family="Helvetica,sans-Serif" font-size="10.00" fill="#000000">bf_get_exp_min</text>
</a>
</g>
</g>
<!-- Node2213&#45;&gt;Node2214 -->
<g id="edge2" class="edge">
<title>Node2213&#45;&gt;Node2214</title>
<path fill="none" stroke="#191970" d="M117.149,-10C125.0893,-10 134.0998,-10 142.9246,-10"/>
<polygon fill="#191970" stroke="#191970" points="117.1028,-6.5001 107.1027,-10 117.1027,-13.5001 117.1028,-6.5001"/>
</g>
<!-- Node2215 -->
<g id="node4" class="node">
<title>Node2215</title>
<g id="a_node4"><a xlink:href="libbf_8c.html#ace5bdd7550302e2fb4b14c3a907dee7b" target="_top" xlink:title="check_exact_power2n">
<polygon fill="none" stroke="#000000" points="265,-19.5 265,-38.5 379,-38.5 379,-19.5 265,-19.5"/>
<text text-anchor="middle" x="322" y="-26.5" font-family="Helvetica,sans-Serif" font-size="10.00" fill="#000000">check_exact_power2n</text>
</a>
</g>
</g>
<!-- Node2214&#45;&gt;Node2215 -->
<g id="edge3" class="edge">
<title>Node2214&#45;&gt;Node2215</title>
<path fill="none" stroke="#191970" d="M239.1175,-17.4208C247.5473,-18.5985 256.2981,-19.8211 264.8164,-21.0111"/>
<polygon fill="#191970" stroke="#191970" points="239.4194,-13.9291 229.0313,-16.0117 238.4508,-20.8618 239.4194,-13.9291"/>
</g>
<!-- Node2216 -->
<g id="node5" class="node">
<title>Node2216</title>
<g id="a_node5"><a xlink:href="libbf_8h.html#a93fe073491f8c5f086a75e7bf8865b34" target="_top" xlink:title="bf_pow">
<polygon fill="none" stroke="#000000" points="415,-.5 415,-19.5 463,-19.5 463,-.5 415,-.5"/>
<text text-anchor="middle" x="439" y="-7.5" font-family="Helvetica,sans-Serif" font-size="10.00" fill="#000000">bf_pow</text>
</a>
</g>
</g>
<!-- Node2214&#45;&gt;Node2216 -->
<g id="edge5" class="edge">
<title>Node2214&#45;&gt;Node2216</title>
<path fill="none" stroke="#191970" d="M239.2957,-10C293.332,-10 374.5399,-10 414.7131,-10"/>
<polygon fill="#191970" stroke="#191970" points="239.2048,-6.5001 229.2048,-10 239.2047,-13.5001 239.2048,-6.5001"/>
</g>
<!-- Node2215&#45;&gt;Node2216 -->
<g id="edge4" class="edge">
<title>Node2215&#45;&gt;Node2216</title>
<path fill="none" stroke="#191970" d="M389.1797,-18.0905C398.3772,-16.5969 407.2818,-15.1508 414.9569,-13.9044"/>
<polygon fill="#191970" stroke="#191970" points="388.4387,-14.6649 379.129,-19.7226 389.5608,-21.5744 388.4387,-14.6649"/>
</g>
</g>
</svg>
