<?xml version="1.0" encoding="UTF-8" standalone="no"?>
<!DOCTYPE svg PUBLIC "-//W3C//DTD SVG 1.1//EN"
 "http://www.w3.org/Graphics/SVG/1.1/DTD/svg11.dtd">
<!-- Generated by graphviz version 2.40.1 (20161225.0304)
 -->
<!-- Title: from_hex Pages: 1 -->
<svg width="621pt" height="313pt"
 viewBox="0.00 0.00 621.00 313.00" xmlns="http://www.w3.org/2000/svg" xmlns:xlink="http://www.w3.org/1999/xlink">
<g id="graph0" class="graph" transform="scale(1 1) rotate(0) translate(4 309)">
<title>from_hex</title>
<!-- Node11026 -->
<g id="node1" class="node">
<title>Node11026</title>
<polygon fill="#bfbfbf" stroke="#000000" points="0,-85.5 0,-104.5 57,-104.5 57,-85.5 0,-85.5"/>
<text text-anchor="middle" x="28.5" y="-92.5" font-family="Helvetica,sans-Serif" font-size="10.00" fill="#000000">from_hex</text>
</g>
<!-- Node11027 -->
<g id="node2" class="node">
<title>Node11027</title>
<g id="a_node2"><a xlink:href="libregexp_8h.html#adca92c15688d39a0e06cd92f870d25d2" target="_top" xlink:title="lre_parse_escape">
<polygon fill="none" stroke="#000000" points="93,-152.5 93,-171.5 186,-171.5 186,-152.5 93,-152.5"/>
<text text-anchor="middle" x="139.5" y="-159.5" font-family="Helvetica,sans-Serif" font-size="10.00" fill="#000000">lre_parse_escape</text>
</a>
</g>
</g>
<!-- Node11026&#45;&gt;Node11027 -->
<g id="edge1" class="edge">
<title>Node11026&#45;&gt;Node11027</title>
<path fill="none" stroke="#191970" d="M53.0011,-109.789C74.5142,-122.7744 105.1755,-141.2816 123.6259,-152.4183"/>
<polygon fill="#191970" stroke="#191970" points="54.7736,-106.7707 44.4036,-104.5995 51.1562,-112.7636 54.7736,-106.7707"/>
</g>
<!-- Node11099 -->
<g id="node13" class="node">
<title>Node11099</title>
<g id="a_node13"><a xlink:href="quickjs_8c.html#a4c6ca4ab4c034e7c2423ce5b974f5a46" target="_top" xlink:title="string_get_hex">
<polygon fill="none" stroke="#000000" points="99.5,-38.5 99.5,-57.5 179.5,-57.5 179.5,-38.5 99.5,-38.5"/>
<text text-anchor="middle" x="139.5" y="-45.5" font-family="Helvetica,sans-Serif" font-size="10.00" fill="#000000">string_get_hex</text>
</a>
</g>
</g>
<!-- Node11026&#45;&gt;Node11099 -->
<g id="edge18" class="edge">
<title>Node11026&#45;&gt;Node11099</title>
<path fill="none" stroke="#191970" d="M60.471,-81.4627C78.447,-73.8513 100.4644,-64.5286 116.6899,-57.6583"/>
<polygon fill="#191970" stroke="#191970" points="58.8063,-78.3667 50.9625,-85.4888 61.5357,-84.8127 58.8063,-78.3667"/>
</g>
<!-- Node11028 -->
<g id="node3" class="node">
<title>Node11028</title>
<g id="a_node3"><a xlink:href="libregexp_8c.html#ac654c01af0eedad21af5da6e5035f37c" target="_top" xlink:title="get_class_atom">
<polygon fill="none" stroke="#000000" points="235.5,-247.5 235.5,-266.5 321.5,-266.5 321.5,-247.5 235.5,-247.5"/>
<text text-anchor="middle" x="278.5" y="-254.5" font-family="Helvetica,sans-Serif" font-size="10.00" fill="#000000">get_class_atom</text>
</a>
</g>
</g>
<!-- Node11027&#45;&gt;Node11028 -->
<g id="edge2" class="edge">
<title>Node11027&#45;&gt;Node11028</title>
<path fill="none" stroke="#191970" d="M154.0893,-179.1273C169.4386,-196.1838 195.0681,-222.0603 222,-238 228.3232,-241.7424 235.4849,-244.8704 242.5337,-247.4369"/>
<polygon fill="#191970" stroke="#191970" points="156.6521,-176.7416 147.4193,-171.5449 151.3962,-181.365 156.6521,-176.7416"/>
</g>
<!-- Node11045 -->
<g id="node6" class="node">
<title>Node11045</title>
<g id="a_node6"><a xlink:href="libregexp_8c.html#a6e0ee9170c3faaca126dbcc40c07aed7" target="_top" xlink:title="re_parse_group_name">
<polygon fill="none" stroke="#000000" points="222,-209.5 222,-228.5 335,-228.5 335,-209.5 222,-209.5"/>
<text text-anchor="middle" x="278.5" y="-216.5" font-family="Helvetica,sans-Serif" font-size="10.00" fill="#000000">re_parse_group_name</text>
</a>
</g>
</g>
<!-- Node11027&#45;&gt;Node11045 -->
<g id="edge6" class="edge">
<title>Node11027&#45;&gt;Node11045</title>
<path fill="none" stroke="#191970" d="M172.0331,-175.3409C197.5264,-185.795 232.3798,-200.0874 255.1586,-209.4284"/>
<polygon fill="#191970" stroke="#191970" points="173.3457,-172.0964 162.7655,-171.5405 170.6898,-178.573 173.3457,-172.0964"/>
</g>
<!-- Node11049 -->
<g id="node8" class="node">
<title>Node11049</title>
<g id="a_node8"><a xlink:href="quickjs_8c.html#ace438176f9f0e0fea6d6f5cdffb1577e" target="_top" xlink:title="js_parse_string">
<polygon fill="none" stroke="#000000" points="237,-95.5 237,-114.5 320,-114.5 320,-95.5 237,-95.5"/>
<text text-anchor="middle" x="278.5" y="-102.5" font-family="Helvetica,sans-Serif" font-size="10.00" fill="#000000">js_parse_string</text>
</a>
</g>
</g>
<!-- Node11027&#45;&gt;Node11049 -->
<g id="edge10" class="edge">
<title>Node11027&#45;&gt;Node11049</title>
<path fill="none" stroke="#191970" d="M168.1047,-147.9057C183.8324,-140.3903 203.7946,-131.2297 222,-124 230.3678,-120.677 239.5735,-117.4182 248.0812,-114.5638"/>
<polygon fill="#191970" stroke="#191970" points="166.3984,-144.8428 158.9127,-152.3405 169.4402,-151.1474 166.3984,-144.8428"/>
</g>
<!-- Node11050 -->
<g id="node9" class="node">
<title>Node11050</title>
<g id="a_node9"><a xlink:href="quickjs_8c.html#a75a3798e2045f6e403c1ef467126d1fb" target="_top" xlink:title="next_token">
<polygon fill="none" stroke="#ff0000" points="393.5,-133.5 393.5,-152.5 458.5,-152.5 458.5,-133.5 393.5,-133.5"/>
<text text-anchor="middle" x="426" y="-140.5" font-family="Helvetica,sans-Serif" font-size="10.00" fill="#000000">next_token</text>
</a>
</g>
</g>
<!-- Node11027&#45;&gt;Node11050 -->
<g id="edge17" class="edge">
<title>Node11027&#45;&gt;Node11050</title>
<path fill="none" stroke="#191970" d="M196.3811,-165.0762C235.4739,-166.4377 288.5122,-166.8014 335,-162 354.5858,-159.9771 376.171,-155.5672 393.4018,-151.5048"/>
<polygon fill="#191970" stroke="#191970" points="196.3756,-161.5735 186.2496,-164.6902 196.1091,-168.5684 196.3756,-161.5735"/>
</g>
<!-- Node11098 -->
<g id="node12" class="node">
<title>Node11098</title>
<g id="a_node12"><a xlink:href="quickjs_8c.html#ad91865d0889d1420e3e70d5d497a9bdb" target="_top" xlink:title="parse_ident">
<polygon fill="none" stroke="#000000" points="245,-133.5 245,-152.5 312,-152.5 312,-133.5 245,-133.5"/>
<text text-anchor="middle" x="278.5" y="-140.5" font-family="Helvetica,sans-Serif" font-size="10.00" fill="#000000">parse_ident</text>
</a>
</g>
</g>
<!-- Node11027&#45;&gt;Node11098 -->
<g id="edge15" class="edge">
<title>Node11027&#45;&gt;Node11098</title>
<path fill="none" stroke="#191970" d="M196.2923,-154.237C212.8084,-151.9794 230.3157,-149.5863 244.9101,-147.5914"/>
<polygon fill="#191970" stroke="#191970" points="195.6055,-150.7983 186.1717,-155.6204 196.5536,-157.7338 195.6055,-150.7983"/>
</g>
<!-- Node11029 -->
<g id="node4" class="node">
<title>Node11029</title>
<g id="a_node4"><a xlink:href="libregexp_8c.html#ab2f98b8a2e66fd9197d2677f47ccffa8" target="_top" xlink:title="re_parse_char_class">
<polygon fill="none" stroke="#000000" points="372.5,-285.5 372.5,-304.5 479.5,-304.5 479.5,-285.5 372.5,-285.5"/>
<text text-anchor="middle" x="426" y="-292.5" font-family="Helvetica,sans-Serif" font-size="10.00" fill="#000000">re_parse_char_class</text>
</a>
</g>
</g>
<!-- Node11028&#45;&gt;Node11029 -->
<g id="edge3" class="edge">
<title>Node11028&#45;&gt;Node11029</title>
<path fill="none" stroke="#191970" d="M325.5141,-269.1121C346.0566,-274.4044 369.7998,-280.5213 389.0472,-285.4799"/>
<polygon fill="#191970" stroke="#191970" points="326.2775,-265.6946 315.7205,-266.589 324.5311,-272.4732 326.2775,-265.6946"/>
</g>
<!-- Node11030 -->
<g id="node5" class="node">
<title>Node11030</title>
<g id="a_node5"><a xlink:href="libregexp_8c.html#acca34590a18d70f866ad56d67ce309e8" target="_top" xlink:title="re_parse_term">
<polygon fill="none" stroke="#ff0000" points="525.5,-228.5 525.5,-247.5 604.5,-247.5 604.5,-228.5 525.5,-228.5"/>
<text text-anchor="middle" x="565" y="-235.5" font-family="Helvetica,sans-Serif" font-size="10.00" fill="#000000">re_parse_term</text>
</a>
</g>
</g>
<!-- Node11028&#45;&gt;Node11030 -->
<g id="edge5" class="edge">
<title>Node11028&#45;&gt;Node11030</title>
<path fill="none" stroke="#191970" d="M331.7932,-253.4657C387.8445,-249.7485 474.7616,-243.9844 525.1475,-240.6429"/>
<polygon fill="#191970" stroke="#191970" points="331.4486,-249.9808 321.7021,-254.1349 331.9119,-256.9654 331.4486,-249.9808"/>
</g>
<!-- Node11029&#45;&gt;Node11030 -->
<g id="edge4" class="edge">
<title>Node11029&#45;&gt;Node11030</title>
<path fill="none" stroke="#191970" d="M458.5331,-281.6591C484.0264,-271.205 518.8798,-256.9126 541.6586,-247.5716"/>
<polygon fill="#191970" stroke="#191970" points="457.1898,-278.427 449.2655,-285.4595 459.8457,-284.9036 457.1898,-278.427"/>
</g>
<!-- Node11045&#45;&gt;Node11030 -->
<g id="edge9" class="edge">
<title>Node11045&#45;&gt;Node11030</title>
<path fill="none" stroke="#191970" d="M345.2439,-223.4263C400.9826,-227.1228 478.5918,-232.2696 525.1069,-235.3544"/>
<polygon fill="#191970" stroke="#191970" points="345.3129,-219.9233 335.1032,-222.7538 344.8496,-226.9079 345.3129,-219.9233"/>
</g>
<!-- Node11046 -->
<g id="node7" class="node">
<title>Node11046</title>
<g id="a_node7"><a xlink:href="libregexp_8c.html#abe49cc9b1bcf935c4c8cfcbc932cb407" target="_top" xlink:title="re_parse_captures">
<polygon fill="none" stroke="#ff0000" points="377.5,-171.5 377.5,-190.5 474.5,-190.5 474.5,-171.5 377.5,-171.5"/>
<text text-anchor="middle" x="426" y="-178.5" font-family="Helvetica,sans-Serif" font-size="10.00" fill="#000000">re_parse_captures</text>
</a>
</g>
</g>
<!-- Node11045&#45;&gt;Node11046 -->
<g id="edge7" class="edge">
<title>Node11045&#45;&gt;Node11046</title>
<path fill="none" stroke="#191970" d="M325.5141,-206.8879C346.0566,-201.5956 369.7998,-195.4787 389.0472,-190.5201"/>
<polygon fill="#191970" stroke="#191970" points="324.5311,-203.5268 315.7205,-209.411 326.2775,-210.3054 324.5311,-203.5268"/>
</g>
<!-- Node11046&#45;&gt;Node11030 -->
<g id="edge8" class="edge">
<title>Node11046&#45;&gt;Node11030</title>
<path fill="none" stroke="#191970" d="M458.5331,-194.3409C484.0264,-204.795 518.8798,-219.0874 541.6586,-228.4284"/>
<polygon fill="#191970" stroke="#191970" points="459.8457,-191.0964 449.2655,-190.5405 457.1898,-197.573 459.8457,-191.0964"/>
</g>
<!-- Node11049&#45;&gt;Node11050 -->
<g id="edge11" class="edge">
<title>Node11049&#45;&gt;Node11050</title>
<path fill="none" stroke="#191970" d="M325.5695,-117.1264C347.6448,-122.8136 373.4063,-129.4504 393.3107,-134.5784"/>
<polygon fill="#191970" stroke="#191970" points="326.2775,-113.6946 315.7205,-114.589 324.5311,-120.4732 326.2775,-113.6946"/>
</g>
<!-- Node11052 -->
<g id="node10" class="node">
<title>Node11052</title>
<g id="a_node10"><a xlink:href="quickjs_8c.html#a035daca514f14aacc1e0cff81d8e423a" target="_top" xlink:title="js_parse_template">
<polygon fill="none" stroke="#ff0000" points="517,-114.5 517,-133.5 613,-133.5 613,-114.5 517,-114.5"/>
<text text-anchor="middle" x="565" y="-121.5" font-family="Helvetica,sans-Serif" font-size="10.00" fill="#000000">js_parse_template</text>
</a>
</g>
</g>
<!-- Node11049&#45;&gt;Node11052 -->
<g id="edge14" class="edge">
<title>Node11049&#45;&gt;Node11052</title>
<path fill="none" stroke="#191970" d="M330.3532,-108.4388C383.3159,-111.9511 464.8992,-117.3616 516.5815,-120.789"/>
<polygon fill="#191970" stroke="#191970" points="330.3693,-104.9322 320.1596,-107.7628 329.906,-111.9169 330.3693,-104.9322"/>
</g>
<!-- Node11090 -->
<g id="node11" class="node">
<title>Node11090</title>
<g id="a_node11"><a xlink:href="quickjs_8c.html#a7fbd31397bde22dfa2b876b945f9afb4" target="_top" xlink:title="json_next_token">
<polygon fill="none" stroke="#ff0000" points="382,-57.5 382,-76.5 470,-76.5 470,-57.5 382,-57.5"/>
<text text-anchor="middle" x="426" y="-64.5" font-family="Helvetica,sans-Serif" font-size="10.00" fill="#000000">json_next_token</text>
</a>
</g>
</g>
<!-- Node11049&#45;&gt;Node11090 -->
<g id="edge13" class="edge">
<title>Node11049&#45;&gt;Node11090</title>
<path fill="none" stroke="#191970" d="M325.5141,-92.8879C346.0566,-87.5956 369.7998,-81.4787 389.0472,-76.5201"/>
<polygon fill="#191970" stroke="#191970" points="324.5311,-89.5268 315.7205,-95.411 326.2775,-96.3054 324.5311,-89.5268"/>
</g>
<!-- Node11050&#45;&gt;Node11052 -->
<g id="edge12" class="edge">
<title>Node11050&#45;&gt;Node11052</title>
<path fill="none" stroke="#191970" d="M468.7495,-137.1565C483.9546,-135.0781 501.1755,-132.7242 516.8051,-130.5878"/>
<polygon fill="#191970" stroke="#191970" points="468.0232,-133.7232 458.5893,-138.5453 468.9712,-140.6587 468.0232,-133.7232"/>
</g>
<!-- Node11098&#45;&gt;Node11050 -->
<g id="edge16" class="edge">
<title>Node11098&#45;&gt;Node11050</title>
<path fill="none" stroke="#191970" d="M322.4307,-143C345.1768,-143 372.4737,-143 393.3322,-143"/>
<polygon fill="#191970" stroke="#191970" points="322.3395,-139.5001 312.3395,-143 322.3394,-146.5001 322.3395,-139.5001"/>
</g>
<!-- Node11100 -->
<g id="node14" class="node">
<title>Node11100</title>
<g id="a_node14"><a xlink:href="quickjs_8c.html#a8a7c186e12bc42411f459e3ebb1ba8d4" target="_top" xlink:title="hex_decode">
<polygon fill="none" stroke="#000000" points="244,-38.5 244,-57.5 313,-57.5 313,-38.5 244,-38.5"/>
<text text-anchor="middle" x="278.5" y="-45.5" font-family="Helvetica,sans-Serif" font-size="10.00" fill="#000000">hex_decode</text>
</a>
</g>
</g>
<!-- Node11099&#45;&gt;Node11100 -->
<g id="edge19" class="edge">
<title>Node11099&#45;&gt;Node11100</title>
<path fill="none" stroke="#191970" d="M189.9367,-48C207.7364,-48 227.3442,-48 243.5758,-48"/>
<polygon fill="#191970" stroke="#191970" points="189.7046,-44.5001 179.7046,-48 189.7045,-51.5001 189.7046,-44.5001"/>
</g>
<!-- Node11102 -->
<g id="node16" class="node">
<title>Node11102</title>
<g id="a_node16"><a xlink:href="quickjs_8c.html#a8d2de44d89a149d734ef71d432d5c801" target="_top" xlink:title="js_global_unescape">
<polygon fill="none" stroke="#000000" points="227.5,-.5 227.5,-19.5 329.5,-19.5 329.5,-.5 227.5,-.5"/>
<text text-anchor="middle" x="278.5" y="-7.5" font-family="Helvetica,sans-Serif" font-size="10.00" fill="#000000">js_global_unescape</text>
</a>
</g>
</g>
<!-- Node11099&#45;&gt;Node11102 -->
<g id="edge21" class="edge">
<title>Node11099&#45;&gt;Node11102</title>
<path fill="none" stroke="#191970" d="M184.2953,-35.7538C203.4547,-30.516 225.4938,-24.4909 243.4357,-19.5859"/>
<polygon fill="#191970" stroke="#191970" points="183.2986,-32.3978 174.5756,-38.411 185.1446,-39.15 183.2986,-32.3978"/>
</g>
<!-- Node11101 -->
<g id="node15" class="node">
<title>Node11101</title>
<g id="a_node15"><a xlink:href="quickjs_8c.html#a7357f73356c16b9df497ae29e866fe6e" target="_top" xlink:title="js_global_decodeURI">
<polygon fill="none" stroke="#000000" points="371,-19.5 371,-38.5 481,-38.5 481,-19.5 371,-19.5"/>
<text text-anchor="middle" x="426" y="-26.5" font-family="Helvetica,sans-Serif" font-size="10.00" fill="#000000">js_global_decodeURI</text>
</a>
</g>
</g>
<!-- Node11100&#45;&gt;Node11101 -->
<g id="edge20" class="edge">
<title>Node11100&#45;&gt;Node11101</title>
<path fill="none" stroke="#191970" d="M323.1412,-42.2496C338.1696,-40.3137 355.119,-38.1304 370.8585,-36.103"/>
<polygon fill="#191970" stroke="#191970" points="322.5531,-38.7964 313.0822,-43.5453 323.4474,-45.739 322.5531,-38.7964"/>
</g>
</g>
</svg>
