<?xml version="1.0" encoding="UTF-8" standalone="no"?>
<!DOCTYPE svg PUBLIC "-//W3C//DTD SVG 1.1//EN"
 "http://www.w3.org/Graphics/SVG/1.1/DTD/svg11.dtd">
<!-- Generated by graphviz version 2.40.1 (20161225.0304)
 -->
<!-- Title: quickjs/cutils.h Pages: 1 -->
<svg width="655pt" height="84pt"
 viewBox="0.00 0.00 654.50 84.00" xmlns="http://www.w3.org/2000/svg" xmlns:xlink="http://www.w3.org/1999/xlink">
<g id="graph0" class="graph" transform="scale(1 1) rotate(0) translate(4 80)">
<title>quickjs/cutils.h</title>
<!-- Node3 -->
<g id="node1" class="node">
<title>Node3</title>
<polygon fill="#bfbfbf" stroke="#000000" points="263,-56.5 263,-75.5 345,-75.5 345,-56.5 263,-56.5"/>
<text text-anchor="middle" x="304" y="-63.5" font-family="Helvetica,sans-Serif" font-size="10.00" fill="#000000">quickjs/cutils.h</text>
</g>
<!-- Node4 -->
<g id="node2" class="node">
<title>Node4</title>
<g id="a_node2"><a xlink:href="cutils_8c.html" target="_top" xlink:title="quickjs/cutils.c">
<polygon fill="none" stroke="#000000" points="0,-.5 0,-19.5 82,-19.5 82,-.5 0,-.5"/>
<text text-anchor="middle" x="41" y="-7.5" font-family="Helvetica,sans-Serif" font-size="10.00" fill="#000000">quickjs/cutils.c</text>
</a>
</g>
</g>
<!-- Node3&#45;&gt;Node4 -->
<g id="edge1" class="edge">
<title>Node3&#45;&gt;Node4</title>
<path fill="none" stroke="#191970" d="M252.9892,-55.1384C203.1979,-44.5364 128.3874,-28.6072 82.2383,-18.7808"/>
<polygon fill="#191970" stroke="#191970" points="252.3966,-58.5906 262.9063,-57.25 253.8544,-51.7441 252.3966,-58.5906"/>
</g>
<!-- Node5 -->
<g id="node3" class="node">
<title>Node5</title>
<g id="a_node3"><a xlink:href="libbf_8c.html" target="_top" xlink:title="quickjs/libbf.c">
<polygon fill="none" stroke="#000000" points="100.5,-.5 100.5,-19.5 177.5,-19.5 177.5,-.5 100.5,-.5"/>
<text text-anchor="middle" x="139" y="-7.5" font-family="Helvetica,sans-Serif" font-size="10.00" fill="#000000">quickjs/libbf.c</text>
</a>
</g>
</g>
<!-- Node3&#45;&gt;Node5 -->
<g id="edge2" class="edge">
<title>Node3&#45;&gt;Node5</title>
<path fill="none" stroke="#191970" d="M265.8644,-53.057C235.6675,-42.8084 194.1837,-28.729 166.9944,-19.5011"/>
<polygon fill="#191970" stroke="#191970" points="265.0411,-56.4736 275.6355,-56.3733 267.2909,-49.845 265.0411,-56.4736"/>
</g>
<!-- Node6 -->
<g id="node4" class="node">
<title>Node6</title>
<g id="a_node4"><a xlink:href="libregexp_8c.html" target="_top" xlink:title="quickjs/libregexp.c">
<polygon fill="none" stroke="#000000" points="196,-.5 196,-19.5 294,-19.5 294,-.5 196,-.5"/>
<text text-anchor="middle" x="245" y="-7.5" font-family="Helvetica,sans-Serif" font-size="10.00" fill="#000000">quickjs/libregexp.c</text>
</a>
</g>
</g>
<!-- Node3&#45;&gt;Node6 -->
<g id="edge3" class="edge">
<title>Node3&#45;&gt;Node6</title>
<path fill="none" stroke="#191970" d="M286.4693,-49.3607C276.2623,-39.6727 263.7531,-27.7995 255.1592,-19.6427"/>
<polygon fill="#191970" stroke="#191970" points="284.0604,-51.8998 293.723,-56.2455 288.8794,-46.8227 284.0604,-51.8998"/>
</g>
<!-- Node7 -->
<g id="node5" class="node">
<title>Node7</title>
<g id="a_node5"><a xlink:href="libunicode_8c.html" target="_top" xlink:title="quickjs/libunicode.c">
<polygon fill="none" stroke="#000000" points="312,-.5 312,-19.5 414,-19.5 414,-.5 312,-.5"/>
<text text-anchor="middle" x="363" y="-7.5" font-family="Helvetica,sans-Serif" font-size="10.00" fill="#000000">quickjs/libunicode.c</text>
</a>
</g>
</g>
<!-- Node3&#45;&gt;Node7 -->
<g id="edge4" class="edge">
<title>Node3&#45;&gt;Node7</title>
<path fill="none" stroke="#191970" d="M321.5307,-49.3607C331.7377,-39.6727 344.2469,-27.7995 352.8408,-19.6427"/>
<polygon fill="#191970" stroke="#191970" points="319.1206,-46.8227 314.277,-56.2455 323.9396,-51.8998 319.1206,-46.8227"/>
</g>
<!-- Node8 -->
<g id="node6" class="node">
<title>Node8</title>
<g id="a_node6"><a xlink:href="quickjs-libc_8c.html" target="_top" xlink:title="quickjs/quickjs&#45;libc.c">
<polygon fill="none" stroke="#000000" points="432.5,-.5 432.5,-19.5 539.5,-19.5 539.5,-.5 432.5,-.5"/>
<text text-anchor="middle" x="486" y="-7.5" font-family="Helvetica,sans-Serif" font-size="10.00" fill="#000000">quickjs/quickjs&#45;libc.c</text>
</a>
</g>
</g>
<!-- Node3&#45;&gt;Node8 -->
<g id="edge5" class="edge">
<title>Node3&#45;&gt;Node8</title>
<path fill="none" stroke="#191970" d="M345.1986,-53.3235C378.5758,-43.0536 424.8699,-28.8093 455.1214,-19.5011"/>
<polygon fill="#191970" stroke="#191970" points="343.8154,-50.0871 335.2869,-56.3733 345.874,-56.7776 343.8154,-50.0871"/>
</g>
<!-- Node9 -->
<g id="node7" class="node">
<title>Node9</title>
<g id="a_node7"><a xlink:href="quickjs_8c.html" target="_top" xlink:title="quickjs/quickjs.c">
<polygon fill="none" stroke="#000000" points="557.5,-.5 557.5,-19.5 646.5,-19.5 646.5,-.5 557.5,-.5"/>
<text text-anchor="middle" x="602" y="-7.5" font-family="Helvetica,sans-Serif" font-size="10.00" fill="#000000">quickjs/quickjs.c</text>
</a>
</g>
</g>
<!-- Node3&#45;&gt;Node9 -->
<g id="edge6" class="edge">
<title>Node3&#45;&gt;Node9</title>
<path fill="none" stroke="#191970" d="M355.0184,-56.4348C404.5789,-47.1396 481.954,-32.6192 549,-20 551.7606,-19.4804 554.6021,-18.9452 557.4675,-18.4053"/>
<polygon fill="#191970" stroke="#191970" points="354.3672,-52.9958 345.1837,-58.2792 355.6575,-59.8758 354.3672,-52.9958"/>
</g>
</g>
</svg>
