<?xml version="1.0" encoding="UTF-8" standalone="no"?>
<!DOCTYPE svg PUBLIC "-//W3C//DTD SVG 1.1//EN"
 "http://www.w3.org/Graphics/SVG/1.1/DTD/svg11.dtd">
<!-- Generated by graphviz version 2.40.1 (20161225.0304)
 -->
<!-- Title: bfdec_set_zero Pages: 1 -->
<svg width="287pt" height="28pt"
 viewBox="0.00 0.00 287.00 28.00" xmlns="http://www.w3.org/2000/svg" xmlns:xlink="http://www.w3.org/1999/xlink">
<g id="graph0" class="graph" transform="scale(1 1) rotate(0) translate(4 24)">
<title>bfdec_set_zero</title>
<!-- Node5252 -->
<g id="node1" class="node">
<title>Node5252</title>
<polygon fill="#bfbfbf" stroke="#000000" points="0,-.5 0,-19.5 83,-19.5 83,-.5 0,-.5"/>
<text text-anchor="middle" x="41.5" y="-7.5" font-family="Helvetica,sans-Serif" font-size="10.00" fill="#000000">bfdec_set_zero</text>
</g>
<!-- Node5253 -->
<g id="node2" class="node">
<title>Node5253</title>
<g id="a_node2"><a xlink:href="libbf_8h.html#a66631c65c00e92a5840a5085a009602d" target="_top" xlink:title="bf_set_zero">
<polygon fill="none" stroke="#000000" points="119,-.5 119,-19.5 187,-19.5 187,-.5 119,-.5"/>
<text text-anchor="middle" x="153" y="-7.5" font-family="Helvetica,sans-Serif" font-size="10.00" fill="#000000">bf_set_zero</text>
</a>
</g>
</g>
<!-- Node5252&#45;&gt;Node5253 -->
<g id="edge1" class="edge">
<title>Node5252&#45;&gt;Node5253</title>
<path fill="none" stroke="#191970" d="M83.0185,-10C91.382,-10 100.2035,-10 108.6591,-10"/>
<polygon fill="#191970" stroke="#191970" points="108.7364,-13.5001 118.7363,-10 108.7363,-6.5001 108.7364,-13.5001"/>
</g>
<!-- Node5254 -->
<g id="node3" class="node">
<title>Node5254</title>
<g id="a_node3"><a xlink:href="libbf_8h.html#ab51c43b22c1a81c789ee0e3d53c0e585" target="_top" xlink:title="bf_resize">
<polygon fill="none" stroke="#000000" points="223,-.5 223,-19.5 279,-19.5 279,-.5 223,-.5"/>
<text text-anchor="middle" x="251" y="-7.5" font-family="Helvetica,sans-Serif" font-size="10.00" fill="#000000">bf_resize</text>
</a>
</g>
</g>
<!-- Node5253&#45;&gt;Node5254 -->
<g id="edge2" class="edge">
<title>Node5253&#45;&gt;Node5254</title>
<path fill="none" stroke="#191970" d="M187.0006,-10C195.3327,-10 204.3053,-10 212.8191,-10"/>
<polygon fill="#191970" stroke="#191970" points="212.9028,-13.5001 222.9028,-10 212.9027,-6.5001 212.9028,-13.5001"/>
</g>
</g>
</svg>
