<?xml version="1.0" encoding="UTF-8" standalone="no"?>
<!DOCTYPE svg PUBLIC "-//W3C//DTD SVG 1.1//EN"
 "http://www.w3.org/Graphics/SVG/1.1/DTD/svg11.dtd">
<!-- Generated by graphviz version 2.40.1 (20161225.0304)
 -->
<!-- Title: bf_is_nan Pages: 1 -->
<svg width="433pt" height="142pt"
 viewBox="0.00 0.00 433.00 142.00" xmlns="http://www.w3.org/2000/svg" xmlns:xlink="http://www.w3.org/1999/xlink">
<g id="graph0" class="graph" transform="scale(1 1) rotate(0) translate(4 138)">
<title>bf_is_nan</title>
<!-- Node722 -->
<g id="node1" class="node">
<title>Node722</title>
<polygon fill="#bfbfbf" stroke="#000000" points="0,-38.5 0,-57.5 59,-57.5 59,-38.5 0,-38.5"/>
<text text-anchor="middle" x="29.5" y="-45.5" font-family="Helvetica,sans-Serif" font-size="10.00" fill="#000000">bf_is_nan</text>
</g>
<!-- Node723 -->
<g id="node2" class="node">
<title>Node723</title>
<g id="a_node2"><a xlink:href="libbf_8h.html#a951ec20cd7fa3bf021d165b213e15ce4" target="_top" xlink:title="bf_divrem">
<polygon fill="none" stroke="#000000" points="108,-76.5 108,-95.5 167,-95.5 167,-76.5 108,-76.5"/>
<text text-anchor="middle" x="137.5" y="-83.5" font-family="Helvetica,sans-Serif" font-size="10.00" fill="#000000">bf_divrem</text>
</a>
</g>
</g>
<!-- Node722&#45;&gt;Node723 -->
<g id="edge1" class="edge">
<title>Node722&#45;&gt;Node723</title>
<path fill="none" stroke="#191970" d="M66.3672,-60.9718C80.7558,-66.0344 96.9548,-71.7341 110.2558,-76.4141"/>
<polygon fill="#191970" stroke="#191970" points="67.3478,-57.6065 56.753,-57.589 65.0244,-64.2097 67.3478,-57.6065"/>
</g>
<!-- Node733 -->
<g id="node6" class="node">
<title>Node733</title>
<g id="a_node6"><a xlink:href="libbf_8c.html#aa28c1603087e2aec25b9bb0dae387875" target="_top" xlink:title="bf_pow_generic">
<polygon fill="none" stroke="#000000" points="95,-38.5 95,-57.5 180,-57.5 180,-38.5 95,-38.5"/>
<text text-anchor="middle" x="137.5" y="-45.5" font-family="Helvetica,sans-Serif" font-size="10.00" fill="#000000">bf_pow_generic</text>
</a>
</g>
</g>
<!-- Node722&#45;&gt;Node733 -->
<g id="edge5" class="edge">
<title>Node722&#45;&gt;Node733</title>
<path fill="none" stroke="#191970" d="M69.1905,-48C77.4826,-48 86.2599,-48 94.6604,-48"/>
<polygon fill="#191970" stroke="#191970" points="69.0115,-44.5001 59.0115,-48 69.0114,-51.5001 69.0115,-44.5001"/>
</g>
<!-- Node735 -->
<g id="node8" class="node">
<title>Node735</title>
<g id="a_node8"><a xlink:href="libbf_8h.html#ae080fd42a2c7fc561d7084762204357e" target="_top" xlink:title="bf_sqrtrem">
<polygon fill="none" stroke="#000000" points="106,-.5 106,-19.5 169,-19.5 169,-.5 106,-.5"/>
<text text-anchor="middle" x="137.5" y="-7.5" font-family="Helvetica,sans-Serif" font-size="10.00" fill="#000000">bf_sqrtrem</text>
</a>
</g>
</g>
<!-- Node722&#45;&gt;Node735 -->
<g id="edge7" class="edge">
<title>Node722&#45;&gt;Node735</title>
<path fill="none" stroke="#191970" d="M66.3672,-35.0282C80.7558,-29.9656 96.9548,-24.2659 110.2558,-19.5859"/>
<polygon fill="#191970" stroke="#191970" points="65.0244,-31.7903 56.753,-38.411 67.3478,-38.3935 65.0244,-31.7903"/>
</g>
<!-- Node724 -->
<g id="node3" class="node">
<title>Node724</title>
<g id="a_node3"><a xlink:href="libbf_8h.html#a7244c6f44ad1f9a3b571eb8a8d7cb0d9" target="_top" xlink:title="bf_rem">
<polygon fill="none" stroke="#000000" points="249.5,-114.5 249.5,-133.5 296.5,-133.5 296.5,-114.5 249.5,-114.5"/>
<text text-anchor="middle" x="273" y="-121.5" font-family="Helvetica,sans-Serif" font-size="10.00" fill="#000000">bf_rem</text>
</a>
</g>
</g>
<!-- Node723&#45;&gt;Node724 -->
<g id="edge2" class="edge">
<title>Node723&#45;&gt;Node724</title>
<path fill="none" stroke="#191970" d="M176.8895,-97.0465C200.3003,-103.6119 229.224,-111.7233 249.1917,-117.3231"/>
<polygon fill="#191970" stroke="#191970" points="177.8097,-93.6696 167.2361,-94.3393 175.9195,-100.4096 177.8097,-93.6696"/>
</g>
<!-- Node725 -->
<g id="node4" class="node">
<title>Node725</title>
<g id="a_node4"><a xlink:href="libbf_8h.html#a7ded681bd52308690336efcfde537a54" target="_top" xlink:title="bf_remquo">
<polygon fill="none" stroke="#000000" points="242,-76.5 242,-95.5 304,-95.5 304,-76.5 242,-76.5"/>
<text text-anchor="middle" x="273" y="-83.5" font-family="Helvetica,sans-Serif" font-size="10.00" fill="#000000">bf_remquo</text>
</a>
</g>
</g>
<!-- Node723&#45;&gt;Node725 -->
<g id="edge3" class="edge">
<title>Node723&#45;&gt;Node725</title>
<path fill="none" stroke="#191970" d="M177.283,-86C197.9072,-86 222.7253,-86 241.9215,-86"/>
<polygon fill="#191970" stroke="#191970" points="177.2361,-82.5001 167.2361,-86 177.236,-89.5001 177.2361,-82.5001"/>
</g>
<!-- Node726 -->
<g id="node5" class="node">
<title>Node726</title>
<g id="a_node5"><a xlink:href="libbf_8c.html#a2b19e3958f6cf3fa0cc534681a5ff259" target="_top" xlink:title="bf_sincos">
<polygon fill="none" stroke="#ff0000" points="366,-76.5 366,-95.5 425,-95.5 425,-76.5 366,-76.5"/>
<text text-anchor="middle" x="395.5" y="-83.5" font-family="Helvetica,sans-Serif" font-size="10.00" fill="#000000">bf_sincos</text>
</a>
</g>
</g>
<!-- Node725&#45;&gt;Node726 -->
<g id="edge4" class="edge">
<title>Node725&#45;&gt;Node726</title>
<path fill="none" stroke="#191970" d="M314.3458,-86C331.1436,-86 350.1823,-86 365.5956,-86"/>
<polygon fill="#191970" stroke="#191970" points="314.2289,-82.5001 304.2289,-86 314.2288,-89.5001 314.2289,-82.5001"/>
</g>
<!-- Node734 -->
<g id="node7" class="node">
<title>Node734</title>
<g id="a_node7"><a xlink:href="libbf_8h.html#a93fe073491f8c5f086a75e7bf8865b34" target="_top" xlink:title="bf_pow">
<polygon fill="none" stroke="#000000" points="371.5,-19.5 371.5,-38.5 419.5,-38.5 419.5,-19.5 371.5,-19.5"/>
<text text-anchor="middle" x="395.5" y="-26.5" font-family="Helvetica,sans-Serif" font-size="10.00" fill="#000000">bf_pow</text>
</a>
</g>
</g>
<!-- Node733&#45;&gt;Node734 -->
<g id="edge6" class="edge">
<title>Node733&#45;&gt;Node734</title>
<path fill="none" stroke="#191970" d="M190.091,-44.127C245.5049,-40.0461 330.3294,-33.7994 371.4669,-30.7699"/>
<polygon fill="#191970" stroke="#191970" points="189.8194,-40.6375 180.1035,-44.8625 190.3335,-47.6185 189.8194,-40.6375"/>
</g>
<!-- Node736 -->
<g id="node9" class="node">
<title>Node736</title>
<g id="a_node9"><a xlink:href="libbf_8c.html#ace5bdd7550302e2fb4b14c3a907dee7b" target="_top" xlink:title="check_exact_power2n">
<polygon fill="none" stroke="#000000" points="216,-.5 216,-19.5 330,-19.5 330,-.5 216,-.5"/>
<text text-anchor="middle" x="273" y="-7.5" font-family="Helvetica,sans-Serif" font-size="10.00" fill="#000000">check_exact_power2n</text>
</a>
</g>
</g>
<!-- Node735&#45;&gt;Node736 -->
<g id="edge8" class="edge">
<title>Node735&#45;&gt;Node736</title>
<path fill="none" stroke="#191970" d="M179.4822,-10C191.0132,-10 203.7144,-10 215.9393,-10"/>
<polygon fill="#191970" stroke="#191970" points="179.2688,-6.5001 169.2687,-10 179.2687,-13.5001 179.2688,-6.5001"/>
</g>
<!-- Node736&#45;&gt;Node734 -->
<g id="edge9" class="edge">
<title>Node736&#45;&gt;Node734</title>
<path fill="none" stroke="#191970" d="M340.4692,-20.4646C351.4993,-22.1754 362.2576,-23.844 371.2934,-25.2455"/>
<polygon fill="#191970" stroke="#191970" points="340.723,-16.9622 330.3047,-18.8881 339.65,-23.8795 340.723,-16.9622"/>
</g>
</g>
</svg>
