<?xml version="1.0" encoding="UTF-8" standalone="no"?>
<!DOCTYPE svg PUBLIC "-//W3C//DTD SVG 1.1//EN"
 "http://www.w3.org/Graphics/SVG/1.1/DTD/svg11.dtd">
<!-- Generated by graphviz version 2.40.1 (20161225.0304)
 -->
<!-- Title: scan_digit_nz Pages: 1 -->
<svg width="481pt" height="78pt"
 viewBox="0.00 0.00 481.00 77.50" xmlns="http://www.w3.org/2000/svg" xmlns:xlink="http://www.w3.org/1999/xlink">
<g id="graph0" class="graph" transform="scale(1 1) rotate(0) translate(4 73.5)">
<title>scan_digit_nz</title>
<!-- Node10434 -->
<g id="node1" class="node">
<title>Node10434</title>
<polygon fill="#bfbfbf" stroke="#000000" points="0,-28 0,-47 77,-47 77,-28 0,-28"/>
<text text-anchor="middle" x="38.5" y="-35" font-family="Helvetica,sans-Serif" font-size="10.00" fill="#000000">scan_digit_nz</text>
</g>
<!-- Node10435 -->
<g id="node2" class="node">
<title>Node10435</title>
<g id="a_node2"><a xlink:href="libbf_8c.html#a17bf08f4c7268d0f16f31fbe1951bf77" target="_top" xlink:title="bfdec_get_rnd_add">
<polygon fill="none" stroke="#000000" points="113,-28 113,-47 212,-47 212,-28 113,-28"/>
<text text-anchor="middle" x="162.5" y="-35" font-family="Helvetica,sans-Serif" font-size="10.00" fill="#000000">bfdec_get_rnd_add</text>
</a>
</g>
</g>
<!-- Node10434&#45;&gt;Node10435 -->
<g id="edge1" class="edge">
<title>Node10434&#45;&gt;Node10435</title>
<path fill="none" stroke="#191970" d="M87.33,-37.5C95.6185,-37.5 104.2362,-37.5 112.553,-37.5"/>
<polygon fill="#191970" stroke="#191970" points="87.0547,-34.0001 77.0547,-37.5 87.0546,-41.0001 87.0547,-34.0001"/>
</g>
<!-- Node10436 -->
<g id="node3" class="node">
<title>Node10436</title>
<g id="a_node3"><a xlink:href="libbf_8c.html#aec64568757dfbfcb93d12168d4a9306a" target="_top" xlink:title="__bfdec_round">
<polygon fill="none" stroke="#000000" points="248,-28 248,-47 328,-47 328,-28 248,-28"/>
<text text-anchor="middle" x="288" y="-35" font-family="Helvetica,sans-Serif" font-size="10.00" fill="#000000">__bfdec_round</text>
</a>
</g>
</g>
<!-- Node10435&#45;&gt;Node10436 -->
<g id="edge2" class="edge">
<title>Node10435&#45;&gt;Node10436</title>
<path fill="none" stroke="#191970" d="M222.1585,-37.5C230.7902,-37.5 239.5,-37.5 247.6326,-37.5"/>
<polygon fill="#191970" stroke="#191970" points="222.101,-34.0001 212.1009,-37.5 222.1009,-41.0001 222.101,-34.0001"/>
</g>
<!-- Node10437 -->
<g id="node4" class="node">
<title>Node10437</title>
<g id="a_node4"><a xlink:href="libbf_8h.html#a807d4e601bf73a30844a7c84f34961f1" target="_top" xlink:title="bfdec_round">
<polygon fill="none" stroke="#ff0000" points="383.5,-50 383.5,-69 453.5,-69 453.5,-50 383.5,-50"/>
<text text-anchor="middle" x="418.5" y="-57" font-family="Helvetica,sans-Serif" font-size="10.00" fill="#000000">bfdec_round</text>
</a>
</g>
</g>
<!-- Node10436&#45;&gt;Node10437 -->
<g id="edge3" class="edge">
<title>Node10436&#45;&gt;Node10437</title>
<path fill="none" stroke="#191970" d="M338.4232,-46.0005C353.4801,-48.5388 369.6491,-51.2646 383.4882,-53.5976"/>
<polygon fill="#191970" stroke="#191970" points="338.6619,-42.4914 328.2191,-44.2802 337.4981,-49.394 338.6619,-42.4914"/>
</g>
<!-- Node10445 -->
<g id="node5" class="node">
<title>Node10445</title>
<g id="a_node5"><a xlink:href="libbf_8h.html#acd3459551d5c61344889ba07a276b0a0" target="_top" xlink:title="bfdec_normalize_and\l_round">
<polygon fill="none" stroke="#ff0000" points="364,-.5 364,-30.5 473,-30.5 473,-.5 364,-.5"/>
<text text-anchor="start" x="372" y="-18.5" font-family="Helvetica,sans-Serif" font-size="10.00" fill="#000000">bfdec_normalize_and</text>
<text text-anchor="middle" x="418.5" y="-7.5" font-family="Helvetica,sans-Serif" font-size="10.00" fill="#000000">_round</text>
</a>
</g>
</g>
<!-- Node10436&#45;&gt;Node10445 -->
<g id="edge4" class="edge">
<title>Node10436&#45;&gt;Node10445</title>
<path fill="none" stroke="#191970" d="M338.2134,-29.0349C346.5814,-27.6242 355.2984,-26.1547 363.7722,-24.7261"/>
<polygon fill="#191970" stroke="#191970" points="337.4981,-25.606 328.2191,-30.7198 338.6619,-32.5086 337.4981,-25.606"/>
</g>
</g>
</svg>
