<?xml version="1.0" encoding="UTF-8" standalone="no"?>
<!DOCTYPE svg PUBLIC "-//W3C//DTD SVG 1.1//EN"
 "http://www.w3.org/Graphics/SVG/1.1/DTD/svg11.dtd">
<!-- Generated by graphviz version 2.40.1 (20161225.0304)
 -->
<!-- Title: mp_add_ui Pages: 1 -->
<svg width="433pt" height="140pt"
 viewBox="0.00 0.00 433.00 140.00" xmlns="http://www.w3.org/2000/svg" xmlns:xlink="http://www.w3.org/1999/xlink">
<g id="graph0" class="graph" transform="scale(1 1) rotate(0) translate(4 136)">
<title>mp_add_ui</title>
<!-- Node2509 -->
<g id="node1" class="node">
<title>Node2509</title>
<polygon fill="#bfbfbf" stroke="#000000" points="0,-37.5 0,-56.5 64,-56.5 64,-37.5 0,-37.5"/>
<text text-anchor="middle" x="32" y="-44.5" font-family="Helvetica,sans-Serif" font-size="10.00" fill="#000000">mp_add_ui</text>
</g>
<!-- Node2510 -->
<g id="node2" class="node">
<title>Node2510</title>
<g id="a_node2"><a xlink:href="libbf_8c.html#ae8bc748c521cf9e366c02ba403b2d8c0" target="_top" xlink:title="mp_divnorm_large">
<polygon fill="none" stroke="#000000" points="100,-56.5 100,-75.5 196,-75.5 196,-56.5 100,-56.5"/>
<text text-anchor="middle" x="148" y="-63.5" font-family="Helvetica,sans-Serif" font-size="10.00" fill="#000000">mp_divnorm_large</text>
</a>
</g>
</g>
<!-- Node2509&#45;&gt;Node2510 -->
<g id="edge1" class="edge">
<title>Node2509&#45;&gt;Node2510</title>
<path fill="none" stroke="#191970" d="M73.8845,-53.8604C82.2228,-55.2261 91.0437,-56.671 99.58,-58.0691"/>
<polygon fill="#191970" stroke="#191970" points="74.4388,-50.4046 64.0046,-52.2421 73.3073,-57.3126 74.4388,-50.4046"/>
</g>
<!-- Node2558 -->
<g id="node6" class="node">
<title>Node2558</title>
<g id="a_node6"><a xlink:href="libbf_8c.html#ad6e0bb87edc2953629f7fc6f16e3e7d7" target="_top" xlink:title="mp_sqrtrem_rec">
<polygon fill="none" stroke="#ff0000" points="338,-.5 338,-19.5 425,-19.5 425,-.5 338,-.5"/>
<text text-anchor="middle" x="381.5" y="-7.5" font-family="Helvetica,sans-Serif" font-size="10.00" fill="#000000">mp_sqrtrem_rec</text>
</a>
</g>
</g>
<!-- Node2509&#45;&gt;Node2558 -->
<g id="edge9" class="edge">
<title>Node2509&#45;&gt;Node2558</title>
<path fill="none" stroke="#191970" d="M74.4294,-42.5082C141.2843,-35.4306 270.4643,-21.7548 337.9863,-14.6066"/>
<polygon fill="#191970" stroke="#191970" points="73.8296,-39.052 64.2537,-43.5854 74.5666,-46.0131 73.8296,-39.052"/>
</g>
<!-- Node2511 -->
<g id="node3" class="node">
<title>Node2511</title>
<g id="a_node3"><a xlink:href="libbf_8c.html#a0b14a84ecf8baf4930b1bcb8621b8e18" target="_top" xlink:title="mp_divnorm">
<polygon fill="none" stroke="#000000" points="232,-56.5 232,-75.5 302,-75.5 302,-56.5 232,-56.5"/>
<text text-anchor="middle" x="267" y="-63.5" font-family="Helvetica,sans-Serif" font-size="10.00" fill="#000000">mp_divnorm</text>
</a>
</g>
</g>
<!-- Node2510&#45;&gt;Node2511 -->
<g id="edge2" class="edge">
<title>Node2510&#45;&gt;Node2511</title>
<path fill="none" stroke="#191970" d="M206.2896,-66C215.0573,-66 223.8601,-66 231.9359,-66"/>
<polygon fill="#191970" stroke="#191970" points="206.0589,-62.5001 196.0588,-66 206.0588,-69.5001 206.0589,-62.5001"/>
</g>
<!-- Node2512 -->
<g id="node4" class="node">
<title>Node2512</title>
<g id="a_node4"><a xlink:href="libbf_8h.html#a01be6db77710375febf385d07ad4f1fe" target="_top" xlink:title="mp_recip">
<polygon fill="none" stroke="#000000" points="353.5,-94.5 353.5,-113.5 409.5,-113.5 409.5,-94.5 353.5,-94.5"/>
<text text-anchor="middle" x="381.5" y="-101.5" font-family="Helvetica,sans-Serif" font-size="10.00" fill="#000000">mp_recip</text>
</a>
</g>
</g>
<!-- Node2511&#45;&gt;Node2512 -->
<g id="edge3" class="edge">
<title>Node2511&#45;&gt;Node2512</title>
<path fill="none" stroke="#191970" d="M305.8007,-78.8771C321.4124,-84.0583 339.0734,-89.9196 353.4077,-94.6768"/>
<polygon fill="#191970" stroke="#191970" points="306.4866,-75.4171 295.8932,-75.589 304.2817,-82.0608 306.4866,-75.4171"/>
</g>
<!-- Node2513 -->
<g id="node5" class="node">
<title>Node2513</title>
<g id="a_node5"><a xlink:href="libbf_8c.html#ad7a540de8355f07757e52b48d35dd708" target="_top" xlink:title="__bf_div">
<polygon fill="none" stroke="#ff0000" points="355,-56.5 355,-75.5 408,-75.5 408,-56.5 355,-56.5"/>
<text text-anchor="middle" x="381.5" y="-63.5" font-family="Helvetica,sans-Serif" font-size="10.00" fill="#000000">__bf_div</text>
</a>
</g>
</g>
<!-- Node2511&#45;&gt;Node2513 -->
<g id="edge6" class="edge">
<title>Node2511&#45;&gt;Node2513</title>
<path fill="none" stroke="#191970" d="M312.5131,-66C326.8809,-66 342.2793,-66 354.8749,-66"/>
<polygon fill="#191970" stroke="#191970" points="312.2881,-62.5001 302.2881,-66 312.288,-69.5001 312.2881,-62.5001"/>
</g>
<!-- Node2511&#45;&gt;Node2558 -->
<g id="edge7" class="edge">
<title>Node2511&#45;&gt;Node2558</title>
<path fill="none" stroke="#191970" d="M295.678,-51.9741C316.4092,-41.8348 343.8621,-28.408 362.0736,-19.5011"/>
<polygon fill="#191970" stroke="#191970" points="294.1287,-48.8356 286.6833,-56.3733 297.2042,-55.1238 294.1287,-48.8356"/>
</g>
<!-- Node2512&#45;&gt;Node2510 -->
<g id="edge5" class="edge">
<title>Node2512&#45;&gt;Node2510</title>
<path fill="none" stroke="#191970" d="M343.1315,-100.1497C312.8413,-96.8632 269.5699,-91.6206 232,-85 217.1279,-82.3792 200.9158,-78.869 186.736,-75.579"/>
<polygon fill="#191970" stroke="#191970" points="342.9591,-103.651 353.2735,-101.2297 343.7004,-96.6904 342.9591,-103.651"/>
</g>
<!-- Node2512&#45;&gt;Node2512 -->
<g id="edge4" class="edge">
<title>Node2512&#45;&gt;Node2512</title>
<path fill="none" stroke="#191970" d="M360.3899,-123.4C361.7997,-128.3146 368.8364,-132 381.5,-132 401.7617,-132 407.6186,-122.5653 399.0707,-113.7571"/>
<polygon fill="#191970" stroke="#191970" points="363.7693,-124.3507 363.9293,-113.7571 357.1979,-121.9387 363.7693,-124.3507"/>
</g>
<!-- Node2558&#45;&gt;Node2558 -->
<g id="edge8" class="edge">
<title>Node2558&#45;&gt;Node2558</title>
<path fill="none" stroke="#191970" d="M360.3899,-29.4C361.7997,-34.3146 368.8364,-38 381.5,-38 401.7617,-38 407.6186,-28.5653 399.0707,-19.7571"/>
<polygon fill="#191970" stroke="#191970" points="363.7693,-30.3507 363.9293,-19.7571 357.1979,-27.9387 363.7693,-30.3507"/>
</g>
</g>
</svg>
