<?xml version="1.0" encoding="UTF-8" standalone="no"?>
<!DOCTYPE svg PUBLIC "-//W3C//DTD SVG 1.1//EN"
 "http://www.w3.org/Graphics/SVG/1.1/DTD/svg11.dtd">
<!-- Generated by graphviz version 2.40.1 (20161225.0304)
 -->
<!-- Title: bf_atof_internal Pages: 1 -->
<!--zoomable 940 -->
<svg id="main" version="1.1" xmlns="http://www.w3.org/2000/svg" xmlns:xlink="http://www.w3.org/1999/xlink" xml:space="preserve" onload="init(evt)">
<style type="text/css"><![CDATA[
.edge:hover path { stroke: red; }
.edge:hover polygon { stroke: red; fill: red; }
]]></style>
<script type="text/javascript"><![CDATA[
var edges = document.getElementsByTagName('g');
if (edges && edges.length) {
  for (var i=0;i<edges.length;i++) {
    if (edges[i].id.substr(0,4)=='edge') {
      edges[i].setAttribute('class','edge');
    }
  }
}
]]></script>
        <defs>
                <circle id="rim" cx="0" cy="0" r="7"/>
                <circle id="rim2" cx="0" cy="0" r="3.5"/>
                <g id="zoomPlus">
                        <use xlink:href="#rim" fill="#404040">
                                <set attributeName="fill" to="#808080" begin="zoomplus.mouseover" end="zoomplus.mouseout"/>
                        </use>
                        <path d="M-4,0h8M0,-4v8" fill="none" stroke="white" stroke-width="1.5" pointer-events="none"/>
                </g>
                <g id="zoomMin">
                        <use xlink:href="#rim" fill="#404040">
                                <set attributeName="fill" to="#808080" begin="zoomminus.mouseover" end="zoomminus.mouseout"/>
                        </use>
                        <path d="M-4,0h8" fill="none" stroke="white" stroke-width="1.5" pointer-events="none"/>
                </g>
                <g id="dirArrow">
                        <path fill="none" stroke="white" stroke-width="1.5" d="M0,-3.0v7 M-2.5,-0.5L0,-3.0L2.5,-0.5"/>
                </g>
               <g id="resetDef">
                       <use xlink:href="#rim2" fill="#404040">
                               <set attributeName="fill" to="#808080" begin="reset.mouseover" end="reset.mouseout"/>
                       </use>
               </g>
        </defs>

<script type="text/javascript">
var viewWidth = 1006;
var viewHeight = 940;
var sectionId = 'dynsection-164';
</script>
<script xlink:href="svgpan.js"/>
<svg id="graph" class="graph">
<g id="viewport">
<title>bf_atof_internal</title>
<!-- Node5898 -->
<g id="node1" class="node">
<title>Node5898</title>
<polygon fill="#bfbfbf" stroke="#000000" points="0,-266.5 0,-285.5 83,-285.5 83,-266.5 0,-266.5"/>
<text text-anchor="middle" x="41.5" y="-273.5" font-family="Helvetica,sans-Serif" font-size="10.00" fill="#000000">bf_atof_internal</text>
</g>
<!-- Node5899 -->
<g id="node2" class="node">
<title>Node5899</title>
<g id="a_node2"><a xlink:href="libbf_8c.html#a680c69ec7601c020906ba64f7ebe8818" target="_top" xlink:title="bf_add_limb">
<polygon fill="none" stroke="#000000" points="139.5,-893.5 139.5,-912.5 208.5,-912.5 208.5,-893.5 139.5,-893.5"/>
<text text-anchor="middle" x="174" y="-900.5" font-family="Helvetica,sans-Serif" font-size="10.00" fill="#000000">bf_add_limb</text>
</a>
</g>
</g>
<!-- Node5898&#45;&gt;Node5899 -->
<g id="edge1" class="edge">
<title>Node5898&#45;&gt;Node5899</title>
<path fill="none" stroke="#191970" d="M41.8023,-285.8963C44.0358,-354.209 59.5837,-756.1279 119,-860 125.5353,-871.425 136.4228,-880.8946 146.7943,-888.012"/>
<polygon fill="#191970" stroke="#191970" points="144.966,-890.9972 155.2781,-893.4286 148.733,-885.0971 144.966,-890.9972"/>
</g>
<!-- Node5901 -->
<g id="node4" class="node">
<title>Node5901</title>
<g id="a_node4"><a xlink:href="libbf_8h.html#a2b9d906b21e903f2f7f1c9044674ab7d" target="_top" xlink:title="bf_delete">
<polygon fill="none" stroke="#000000" points="608,-779.5 608,-798.5 664,-798.5 664,-779.5 608,-779.5"/>
<text text-anchor="middle" x="636" y="-786.5" font-family="Helvetica,sans-Serif" font-size="10.00" fill="#000000">bf_delete</text>
</a>
</g>
</g>
<!-- Node5898&#45;&gt;Node5901 -->
<g id="edge3" class="edge">
<title>Node5898&#45;&gt;Node5901</title>
<path fill="none" stroke="#191970" d="M42.3334,-285.8041C47.1438,-340.5663 72.7721,-608.5189 119,-675 227.4545,-830.97 497.7849,-809.4001 597.9103,-795.3021"/>
<polygon fill="#191970" stroke="#191970" points="598.4987,-798.7534 607.8862,-793.8416 597.4847,-791.8272 598.4987,-798.7534"/>
</g>
<!-- Node5903 -->
<g id="node6" class="node">
<title>Node5903</title>
<g id="a_node6"><a xlink:href="libbf_8h.html#abacc1410890af049e02ebd788364ac48" target="_top" xlink:title="bf_init">
<polygon fill="none" stroke="#000000" points="614.5,-627.5 614.5,-646.5 657.5,-646.5 657.5,-627.5 614.5,-627.5"/>
<text text-anchor="middle" x="636" y="-634.5" font-family="Helvetica,sans-Serif" font-size="10.00" fill="#000000">bf_init</text>
</a>
</g>
</g>
<!-- Node5898&#45;&gt;Node5903 -->
<g id="edge5" class="edge">
<title>Node5898&#45;&gt;Node5903</title>
<path fill="none" stroke="#191970" d="M42.7705,-285.6623C48.8736,-330.5633 76.6382,-518.2466 119,-556 165.1767,-597.1533 332.892,-589.4247 394,-599 469.4257,-610.8188 558.0682,-624.7479 604.302,-632.016"/>
<polygon fill="#191970" stroke="#191970" points="603.8856,-635.4934 614.3079,-633.589 604.9728,-628.5783 603.8856,-635.4934"/>
</g>
<!-- Node5904 -->
<g id="node7" class="node">
<title>Node5904</title>
<g id="a_node7"><a xlink:href="libbf_8c.html#ac2b674e82a4c1c10c46af348193fb9c0" target="_top" xlink:title="bf_integer_from_radix">
<polygon fill="none" stroke="#000000" points="119,-646.5 119,-665.5 229,-665.5 229,-646.5 119,-646.5"/>
<text text-anchor="middle" x="174" y="-653.5" font-family="Helvetica,sans-Serif" font-size="10.00" fill="#000000">bf_integer_from_radix</text>
</a>
</g>
</g>
<!-- Node5898&#45;&gt;Node5904 -->
<g id="edge6" class="edge">
<title>Node5898&#45;&gt;Node5904</title>
<path fill="none" stroke="#191970" d="M42.1622,-285.6943C45.2449,-325.8813 60.6162,-482.4944 119,-594 128.0886,-611.3581 143.0701,-627.7922 155.1038,-639.374"/>
<polygon fill="#191970" stroke="#191970" points="152.7875,-641.9994 162.4945,-646.2451 157.5538,-636.8728 152.7875,-641.9994"/>
</g>
<!-- Node5927 -->
<g id="node11" class="node">
<title>Node5927</title>
<g id="a_node11"><a xlink:href="libbf_8h.html#aa6282c789c16c8cf2fe6a8ebd671c6fc" target="_top" xlink:title="bf_set_nan">
<polygon fill="none" stroke="#000000" points="603.5,-184.5 603.5,-203.5 668.5,-203.5 668.5,-184.5 603.5,-184.5"/>
<text text-anchor="middle" x="636" y="-191.5" font-family="Helvetica,sans-Serif" font-size="10.00" fill="#000000">bf_set_nan</text>
</a>
</g>
</g>
<!-- Node5898&#45;&gt;Node5927 -->
<g id="edge53" class="edge">
<title>Node5898&#45;&gt;Node5927</title>
<path fill="none" stroke="#191970" d="M43.9771,-266.4651C50.9407,-241.8393 73.2365,-176.1464 119,-149 199.2811,-101.3782 451.8653,-109.5271 539,-143 558.9835,-150.6767 556.362,-164.4693 575,-175 580.7038,-178.2227 587.0226,-180.9697 593.3691,-183.289"/>
<polygon fill="#191970" stroke="#191970" points="592.687,-186.7507 603.2806,-186.5884 594.8979,-180.109 592.687,-186.7507"/>
</g>
<!-- Node5916 -->
<g id="node12" class="node">
<title>Node5916</title>
<g id="a_node12"><a xlink:href="libbf_8h.html#ab51c43b22c1a81c789ee0e3d53c0e585" target="_top" xlink:title="bf_resize">
<polygon fill="none" stroke="#000000" points="942,-337.5 942,-356.5 998,-356.5 998,-337.5 942,-337.5"/>
<text text-anchor="middle" x="970" y="-344.5" font-family="Helvetica,sans-Serif" font-size="10.00" fill="#000000">bf_resize</text>
</a>
</g>
</g>
<!-- Node5898&#45;&gt;Node5916 -->
<g id="edge50" class="edge">
<title>Node5898&#45;&gt;Node5916</title>
<path fill="none" stroke="#191970" d="M45.9502,-285.7825C68.5207,-333.7725 175.3361,-542 329.5,-542 329.5,-542 329.5,-542 765.5,-542 835.6663,-542 856.2311,-519.4607 906,-470 936.3134,-439.8744 955.3628,-392.3758 964.1921,-366.0901"/>
<polygon fill="#191970" stroke="#191970" points="967.5355,-367.1256 967.2622,-356.5343 960.871,-364.9844 967.5355,-367.1256"/>
</g>
<!-- Node5926 -->
<g id="node13" class="node">
<title>Node5926</title>
<g id="a_node13"><a xlink:href="libbf_8h.html#a88d3dcee173f1e4fd4e55000edb04595" target="_top" xlink:title="bf_set_inf">
<polygon fill="none" stroke="#000000" points="606.5,-299.5 606.5,-318.5 665.5,-318.5 665.5,-299.5 606.5,-299.5"/>
<text text-anchor="middle" x="636" y="-306.5" font-family="Helvetica,sans-Serif" font-size="10.00" fill="#000000">bf_set_inf</text>
</a>
</g>
</g>
<!-- Node5898&#45;&gt;Node5926 -->
<g id="edge52" class="edge">
<title>Node5898&#45;&gt;Node5926</title>
<path fill="none" stroke="#191970" d="M83.143,-267.8691C169.4807,-252.5211 373.7257,-224.0684 539,-262 565.9592,-268.1873 594.1244,-282.8986 613.1152,-294.2277"/>
<polygon fill="#191970" stroke="#191970" points="611.3011,-297.2209 621.6555,-299.4654 614.9608,-291.2538 611.3011,-297.2209"/>
</g>
<!-- Node5928 -->
<g id="node14" class="node">
<title>Node5928</title>
<g id="a_node14"><a xlink:href="libbf_8h.html#a66631c65c00e92a5840a5085a009602d" target="_top" xlink:title="bf_set_zero">
<polygon fill="none" stroke="#000000" points="836,-413.5 836,-432.5 904,-432.5 904,-413.5 836,-413.5"/>
<text text-anchor="middle" x="870" y="-420.5" font-family="Helvetica,sans-Serif" font-size="10.00" fill="#000000">bf_set_zero</text>
</a>
</g>
</g>
<!-- Node5898&#45;&gt;Node5928 -->
<g id="edge54" class="edge">
<title>Node5898&#45;&gt;Node5928</title>
<path fill="none" stroke="#191970" d="M60.0439,-266.4992C75.4018,-259.1474 98.0275,-249.4874 119,-245 182.5062,-231.4117 200.07,-240.3336 265,-239 383.4547,-236.567 700.5794,-184.5711 798,-252 849.1269,-287.387 864.0878,-366.632 868.3544,-403.475"/>
<polygon fill="#191970" stroke="#191970" points="864.8749,-403.8552 869.3634,-413.4522 871.8394,-403.1508 864.8749,-403.8552"/>
</g>
<!-- Node5915 -->
<g id="node15" class="node">
<title>Node5915</title>
<g id="a_node15"><a xlink:href="libbf_8h.html#ae822c0888d26739bb681dfef282b9150" target="_top" xlink:title="bf_normalize_and_round">
<polygon fill="none" stroke="#000000" points="575,-337.5 575,-356.5 697,-356.5 697,-337.5 575,-337.5"/>
<text text-anchor="middle" x="636" y="-344.5" font-family="Helvetica,sans-Serif" font-size="10.00" fill="#000000">bf_normalize_and_round</text>
</a>
</g>
</g>
<!-- Node5898&#45;&gt;Node5915 -->
<g id="edge49" class="edge">
<title>Node5898&#45;&gt;Node5915</title>
<path fill="none" stroke="#191970" d="M83.1112,-273.9508C187.3296,-269.3937 457.0594,-261.3122 539,-295 559.0747,-303.2532 556.185,-317.1785 575,-328 578.6778,-330.1153 582.6184,-332.0227 586.6611,-333.737"/>
<polygon fill="#191970" stroke="#191970" points="585.6136,-337.0837 596.2039,-337.3938 588.1184,-330.5472 585.6136,-337.0837"/>
</g>
<!-- Node5935 -->
<g id="node19" class="node">
<title>Node5935</title>
<g id="a_node19"><a xlink:href="libbf_8c.html#a6894718ef8656587ffa22bdfebf1a78f" target="_top" xlink:title="ceil_log2">
<polygon fill="none" stroke="#000000" points="457,-304.5 457,-323.5 512,-323.5 512,-304.5 457,-304.5"/>
<text text-anchor="middle" x="484.5" y="-311.5" font-family="Helvetica,sans-Serif" font-size="10.00" fill="#000000">ceil_log2</text>
</a>
</g>
</g>
<!-- Node5898&#45;&gt;Node5935 -->
<g id="edge60" class="edge">
<title>Node5898&#45;&gt;Node5935</title>
<path fill="none" stroke="#191970" d="M83.198,-284.4264C94.7535,-286.5173 107.3291,-288.5673 119,-290 237.9806,-304.6054 379.917,-310.7145 446.4894,-312.9206"/>
<polygon fill="#191970" stroke="#191970" points="446.7831,-316.4317 456.89,-313.2535 447.0071,-309.4353 446.7831,-316.4317"/>
</g>
<!-- Node5964 -->
<g id="node21" class="node">
<title>Node5964</title>
<g id="a_node21"><a xlink:href="libbf_8h.html#a0b4d56fc6808de8feed2a234525df692" target="_top" xlink:title="bf_mul_pow_radix">
<polygon fill="none" stroke="#000000" points="282,-409.5 282,-428.5 377,-428.5 377,-409.5 282,-409.5"/>
<text text-anchor="middle" x="329.5" y="-416.5" font-family="Helvetica,sans-Serif" font-size="10.00" fill="#000000">bf_mul_pow_radix</text>
</a>
</g>
</g>
<!-- Node5898&#45;&gt;Node5964 -->
<g id="edge36" class="edge">
<title>Node5898&#45;&gt;Node5964</title>
<path fill="none" stroke="#191970" d="M54.2066,-285.5871C69.1957,-296.6414 95.105,-314.9614 119,-328 178.1733,-360.2887 251.151,-389.6723 293.7902,-405.8701"/>
<polygon fill="#191970" stroke="#191970" points="292.5894,-409.1578 303.1812,-409.4103 295.0587,-402.6077 292.5894,-409.1578"/>
</g>
<!-- Node5929 -->
<g id="node22" class="node">
<title>Node5929</title>
<g id="a_node22"><a xlink:href="libbf_8h.html#ae019ee8073f4359da157d3b1e5fdba7e" target="_top" xlink:title="bf_set">
<polygon fill="none" stroke="#000000" points="462.5,-152.5 462.5,-171.5 506.5,-171.5 506.5,-152.5 462.5,-152.5"/>
<text text-anchor="middle" x="484.5" y="-159.5" font-family="Helvetica,sans-Serif" font-size="10.00" fill="#000000">bf_set</text>
</a>
</g>
</g>
<!-- Node5898&#45;&gt;Node5929 -->
<g id="edge51" class="edge">
<title>Node5898&#45;&gt;Node5929</title>
<path fill="none" stroke="#191970" d="M46.3163,-266.4589C56.6188,-247.213 82.8354,-204.0408 119,-186 230.5798,-130.3383 385.6629,-145.8647 452.1442,-156.1815"/>
<polygon fill="#191970" stroke="#191970" points="451.9697,-159.6988 462.4007,-157.8429 453.089,-152.7889 451.9697,-159.6988"/>
</g>
<!-- Node5984 -->
<g id="node26" class="node">
<title>Node5984</title>
<g id="a_node26"><a xlink:href="libbf_8h.html#acd3459551d5c61344889ba07a276b0a0" target="_top" xlink:title="bfdec_normalize_and\l_round">
<polygon fill="none" stroke="#ff0000" points="430,-65 430,-95 539,-95 539,-65 430,-65"/>
<text text-anchor="start" x="438" y="-83" font-family="Helvetica,sans-Serif" font-size="10.00" fill="#000000">bfdec_normalize_and</text>
<text text-anchor="middle" x="484.5" y="-72" font-family="Helvetica,sans-Serif" font-size="10.00" fill="#000000">_round</text>
</a>
</g>
</g>
<!-- Node5898&#45;&gt;Node5984 -->
<g id="edge55" class="edge">
<title>Node5898&#45;&gt;Node5984</title>
<path fill="none" stroke="#191970" d="M42.6764,-266.3875C46.826,-237.0804 63.6539,-148.5138 119,-110 166.0977,-77.226 328.061,-75.7311 419.7945,-77.7164"/>
<polygon fill="#191970" stroke="#191970" points="419.7254,-81.2156 429.8053,-77.9528 419.8907,-74.2175 419.7254,-81.2156"/>
</g>
<!-- Node6000 -->
<g id="node29" class="node">
<title>Node6000</title>
<g id="a_node29"><a xlink:href="libbf_8c.html#aa75d6561ab16b8ebce73805e4deafacd" target="_top" xlink:title="strcasestart">
<polygon fill="none" stroke="#ff0000" points="140,-38.5 140,-57.5 208,-57.5 208,-38.5 140,-38.5"/>
<text text-anchor="middle" x="174" y="-45.5" font-family="Helvetica,sans-Serif" font-size="10.00" fill="#000000">strcasestart</text>
</a>
</g>
</g>
<!-- Node5898&#45;&gt;Node6000 -->
<g id="edge61" class="edge">
<title>Node5898&#45;&gt;Node6000</title>
<path fill="none" stroke="#191970" d="M42.5576,-266.0688C46.4929,-233.8145 63.074,-130.7002 119,-72 122.5909,-68.231 126.8755,-65.0189 131.4461,-62.29"/>
<polygon fill="#191970" stroke="#191970" points="133.2058,-65.3203 140.4809,-57.6182 129.9906,-59.1024 133.2058,-65.3203"/>
</g>
<!-- Node6002 -->
<g id="node30" class="node">
<title>Node6002</title>
<g id="a_node30"><a xlink:href="libbf_8c.html#aee06949e4c5ec85b3da174509b93dc65" target="_top" xlink:title="to_digit">
<polygon fill="none" stroke="#000000" points="150,-.5 150,-19.5 198,-19.5 198,-.5 150,-.5"/>
<text text-anchor="middle" x="174" y="-7.5" font-family="Helvetica,sans-Serif" font-size="10.00" fill="#000000">to_digit</text>
</a>
</g>
</g>
<!-- Node5898&#45;&gt;Node6002 -->
<g id="edge62" class="edge">
<title>Node5898&#45;&gt;Node6002</title>
<path fill="none" stroke="#191970" d="M43.3439,-266.26C51.3362,-224.9695 84.154,-64.8565 119,-29 124.7425,-23.091 132.4088,-19.0186 140.1901,-16.2123"/>
<polygon fill="#191970" stroke="#191970" points="141.3911,-19.5065 149.9718,-13.2919 139.3884,-12.799 141.3911,-19.5065"/>
</g>
<!-- Node5900 -->
<g id="node3" class="node">
<title>Node5900</title>
<g id="a_node3"><a xlink:href="libbf_8h.html#a4954f3435332238433d15977d55ae566" target="_top" xlink:title="bf_max">
<polygon fill="none" stroke="#000000" points="305,-912.5 305,-931.5 354,-931.5 354,-912.5 305,-912.5"/>
<text text-anchor="middle" x="329.5" y="-919.5" font-family="Helvetica,sans-Serif" font-size="10.00" fill="#000000">bf_max</text>
</a>
</g>
</g>
<!-- Node5899&#45;&gt;Node5900 -->
<g id="edge2" class="edge">
<title>Node5899&#45;&gt;Node5900</title>
<path fill="none" stroke="#191970" d="M208.5105,-907.2167C234.1474,-910.3492 268.9809,-914.6054 294.6893,-917.7466"/>
<polygon fill="#191970" stroke="#191970" points="294.3971,-921.2368 304.7478,-918.9756 295.2461,-914.2885 294.3971,-921.2368"/>
</g>
<!-- Node5902 -->
<g id="node5" class="node">
<title>Node5902</title>
<g id="a_node5"><a xlink:href="libbf_8h.html#a524c9e60866c08c75061626a4b5e2f29" target="_top" xlink:title="bf_realloc">
<polygon fill="none" stroke="#000000" points="736,-836.5 736,-855.5 795,-855.5 795,-836.5 736,-836.5"/>
<text text-anchor="middle" x="765.5" y="-843.5" font-family="Helvetica,sans-Serif" font-size="10.00" fill="#000000">bf_realloc</text>
</a>
</g>
</g>
<!-- Node5901&#45;&gt;Node5902 -->
<g id="edge4" class="edge">
<title>Node5901&#45;&gt;Node5902</title>
<path fill="none" stroke="#191970" d="M657.6754,-798.5405C678.6856,-807.7883 710.7696,-821.9102 734.4809,-832.3468"/>
<polygon fill="#191970" stroke="#191970" points="733.1912,-835.6031 743.7539,-836.4284 736.0113,-829.1963 733.1912,-835.6031"/>
</g>
<!-- Node5904&#45;&gt;Node5901 -->
<g id="edge7" class="edge">
<title>Node5904&#45;&gt;Node5901</title>
<path fill="none" stroke="#191970" d="M182.4513,-665.6556C197.3513,-681.9976 230.0413,-714.8975 265,-731 377.9243,-783.0145 528.4928,-789.7195 597.9494,-789.7563"/>
<polygon fill="#191970" stroke="#191970" points="598.0034,-793.2562 607.9887,-789.7145 597.9742,-786.2563 598.0034,-793.2562"/>
</g>
<!-- Node5904&#45;&gt;Node5903 -->
<g id="edge10" class="edge">
<title>Node5904&#45;&gt;Node5903</title>
<path fill="none" stroke="#191970" d="M229.2691,-653.727C326.7173,-649.7194 526.1311,-641.5184 603.9193,-638.3193"/>
<polygon fill="#191970" stroke="#191970" points="604.2174,-641.8101 614.0651,-637.9021 603.9297,-634.816 604.2174,-641.8101"/>
</g>
<!-- Node5905 -->
<g id="node8" class="node">
<title>Node5905</title>
<g id="a_node8"><a xlink:href="libbf_8h.html#ab8c991bf0d1ab72d676d3c9c3d63c2a7" target="_top" xlink:title="bf_free">
<polygon fill="none" stroke="#000000" points="306,-874.5 306,-893.5 353,-893.5 353,-874.5 306,-874.5"/>
<text text-anchor="middle" x="329.5" y="-881.5" font-family="Helvetica,sans-Serif" font-size="10.00" fill="#000000">bf_free</text>
</a>
</g>
</g>
<!-- Node5904&#45;&gt;Node5905 -->
<g id="edge8" class="edge">
<title>Node5904&#45;&gt;Node5905</title>
<path fill="none" stroke="#191970" d="M178.0156,-665.5941C189.3443,-692.0576 223.4493,-767.7162 265,-822 278.1345,-839.1596 296.0427,-855.9796 309.6568,-867.7611"/>
<polygon fill="#191970" stroke="#191970" points="307.6051,-870.6101 317.4975,-874.4037 312.13,-865.2691 307.6051,-870.6101"/>
</g>
<!-- Node5906 -->
<g id="node9" class="node">
<title>Node5906</title>
<g id="a_node9"><a xlink:href="libbf_8c.html#a5d5227218ea18d8ca58be002abc729bf" target="_top" xlink:title="bf_integer_from_radix_rec">
<polygon fill="none" stroke="#ff0000" points="265,-684.5 265,-703.5 394,-703.5 394,-684.5 265,-684.5"/>
<text text-anchor="middle" x="329.5" y="-691.5" font-family="Helvetica,sans-Serif" font-size="10.00" fill="#000000">bf_integer_from_radix_rec</text>
</a>
</g>
</g>
<!-- Node5904&#45;&gt;Node5906 -->
<g id="edge11" class="edge">
<title>Node5904&#45;&gt;Node5906</title>
<path fill="none" stroke="#191970" d="M213.2392,-665.589C233.7591,-670.6035 259.067,-676.7881 280.8255,-682.1053"/>
<polygon fill="#191970" stroke="#191970" points="279.9979,-685.506 290.543,-684.4799 281.6597,-678.706 279.9979,-685.506"/>
</g>
<!-- Node5904&#45;&gt;Node5935 -->
<g id="edge33" class="edge">
<title>Node5904&#45;&gt;Node5935</title>
<path fill="none" stroke="#191970" d="M174.6571,-646.434C177.689,-609.5367 193.4242,-474.8101 265,-400 314.2933,-348.4792 398.1514,-327.2529 446.7002,-318.9488"/>
<polygon fill="#191970" stroke="#191970" points="447.4735,-322.3694 456.7891,-317.3227 446.3596,-315.4586 447.4735,-322.3694"/>
</g>
<!-- Node5963 -->
<g id="node20" class="node">
<title>Node5963</title>
<g id="a_node20"><a xlink:href="libbf_8c.html#a2d3d2afc461a8f4ebd0572911b847c0f" target="_top" xlink:title="get_limb_radix">
<polygon fill="none" stroke="#000000" points="289.5,-608.5 289.5,-627.5 369.5,-627.5 369.5,-608.5 289.5,-608.5"/>
<text text-anchor="middle" x="329.5" y="-615.5" font-family="Helvetica,sans-Serif" font-size="10.00" fill="#000000">get_limb_radix</text>
</a>
</g>
</g>
<!-- Node5904&#45;&gt;Node5963 -->
<g id="edge35" class="edge">
<title>Node5904&#45;&gt;Node5963</title>
<path fill="none" stroke="#191970" d="M213.2392,-646.411C233.7591,-641.3965 259.067,-635.2119 280.8255,-629.8947"/>
<polygon fill="#191970" stroke="#191970" points="281.6597,-633.294 290.543,-627.5201 279.9979,-626.494 281.6597,-633.294"/>
</g>
<!-- Node5905&#45;&gt;Node5902 -->
<g id="edge9" class="edge">
<title>Node5905&#45;&gt;Node5902</title>
<path fill="none" stroke="#191970" d="M353.2509,-881.93C424.458,-875.7238 636.7184,-857.2241 725.6285,-849.475"/>
<polygon fill="#191970" stroke="#191970" points="726.1837,-852.94 735.842,-848.5849 725.5758,-845.9664 726.1837,-852.94"/>
</g>
<!-- Node5906&#45;&gt;Node5901 -->
<g id="edge12" class="edge">
<title>Node5906&#45;&gt;Node5901</title>
<path fill="none" stroke="#191970" d="M353.6838,-703.5091C373.9258,-711.3218 403.6479,-722.4538 430,-731 488.1174,-749.8478 556.5696,-768.4134 598.0996,-779.2825"/>
<polygon fill="#191970" stroke="#191970" points="597.243,-782.6761 607.8024,-781.8099 599.0076,-775.9021 597.243,-782.6761"/>
</g>
<!-- Node5906&#45;&gt;Node5903 -->
<g id="edge13" class="edge">
<title>Node5906&#45;&gt;Node5903</title>
<path fill="none" stroke="#191970" d="M357.1581,-703.5943C398.0948,-716.2386 476.6862,-734.5044 539,-713 572.6473,-701.3884 603.5308,-672.7681 621.0305,-654.1523"/>
<polygon fill="#191970" stroke="#191970" points="623.7352,-656.3806 627.8858,-646.6326 618.5622,-651.6646 623.7352,-656.3806"/>
</g>
<!-- Node5906&#45;&gt;Node5906 -->
<g id="edge14" class="edge">
<title>Node5906&#45;&gt;Node5906</title>
<path fill="none" stroke="#191970" d="M305.7641,-703.7571C294.2169,-712.5653 302.1289,-722 329.5,-722 347.4623,-722 357.0442,-717.9368 358.2458,-712.6539"/>
<polygon fill="#191970" stroke="#191970" points="361.1923,-710.7532 353.2359,-703.7571 355.0928,-714.1879 361.1923,-710.7532"/>
</g>
<!-- Node5932 -->
<g id="node10" class="node">
<title>Node5932</title>
<g id="a_node10"><a xlink:href="libbf_8h.html#ac290278d0c37a0e7786873f98aadba47" target="_top" xlink:title="bf_mul">
<polygon fill="none" stroke="#ff0000" points="461.5,-456.5 461.5,-475.5 507.5,-475.5 507.5,-456.5 461.5,-456.5"/>
<text text-anchor="middle" x="484.5" y="-463.5" font-family="Helvetica,sans-Serif" font-size="10.00" fill="#000000">bf_mul</text>
</a>
</g>
</g>
<!-- Node5906&#45;&gt;Node5932 -->
<g id="edge15" class="edge">
<title>Node5906&#45;&gt;Node5932</title>
<path fill="none" stroke="#191970" d="M342.8867,-684.4758C356.9037,-674.0145 378.9328,-656.1395 394,-637 433.1826,-587.2273 463.7492,-517.9866 477.13,-484.9727"/>
<polygon fill="#191970" stroke="#191970" points="480.4153,-486.1829 480.8597,-475.5974 473.9111,-483.5954 480.4153,-486.1829"/>
</g>
<!-- Node5960 -->
<g id="node18" class="node">
<title>Node5960</title>
<g id="a_node18"><a xlink:href="libbf_8c.html#a1ffacb0aed0dec6e3375c4de055bb8b8" target="_top" xlink:title="bf_pow_ui_ui">
<polygon fill="none" stroke="#ff0000" points="447.5,-684.5 447.5,-703.5 521.5,-703.5 521.5,-684.5 447.5,-684.5"/>
<text text-anchor="middle" x="484.5" y="-691.5" font-family="Helvetica,sans-Serif" font-size="10.00" fill="#000000">bf_pow_ui_ui</text>
</a>
</g>
</g>
<!-- Node5906&#45;&gt;Node5960 -->
<g id="edge30" class="edge">
<title>Node5906&#45;&gt;Node5960</title>
<path fill="none" stroke="#191970" d="M394.3359,-694C408.7471,-694 423.7587,-694 437.3044,-694"/>
<polygon fill="#191970" stroke="#191970" points="437.3429,-697.5001 447.3428,-694 437.3428,-690.5001 437.3429,-697.5001"/>
</g>
<!-- Node5932&#45;&gt;Node5903 -->
<g id="edge22" class="edge">
<title>Node5932&#45;&gt;Node5903</title>
<path fill="none" stroke="#191970" d="M507.6194,-472.8416C517.9948,-476.7079 529.9154,-482.33 539,-490 582.2608,-526.5244 613.688,-587.1193 627.7672,-617.8548"/>
<polygon fill="#191970" stroke="#191970" points="624.7492,-619.6814 632.0146,-627.3927 631.1438,-616.8337 624.7492,-619.6814"/>
</g>
<!-- Node5932&#45;&gt;Node5927 -->
<g id="edge16" class="edge">
<title>Node5932&#45;&gt;Node5927</title>
<path fill="none" stroke="#191970" d="M496.6252,-456.3363C508.9639,-445.8929 527.8184,-428.1553 539,-409 566.8562,-361.2793 551.9698,-340.2279 575,-290 588.297,-260.9999 609.1062,-230.3679 622.6496,-211.7143"/>
<polygon fill="#191970" stroke="#191970" points="625.5308,-213.7044 628.6497,-203.579 619.8973,-209.5494 625.5308,-213.7044"/>
</g>
<!-- Node5932&#45;&gt;Node5916 -->
<g id="edge23" class="edge">
<title>Node5932&#45;&gt;Node5916</title>
<path fill="none" stroke="#191970" d="M507.9587,-471.43C575.235,-485.6655 772.5458,-517.9533 906,-442 935.3934,-425.2712 953.9781,-388.8433 963.1431,-366.2722"/>
<polygon fill="#191970" stroke="#191970" points="966.4915,-367.3148 966.7942,-356.7243 959.9533,-364.8145 966.4915,-367.3148"/>
</g>
<!-- Node5932&#45;&gt;Node5926 -->
<g id="edge18" class="edge">
<title>Node5932&#45;&gt;Node5926</title>
<path fill="none" stroke="#191970" d="M495.7125,-456.4325C507.6462,-445.7977 526.4963,-427.6503 539,-409 560.9378,-376.2779 545.5717,-354.1911 575,-328 581.1852,-322.4952 588.95,-318.5852 596.8472,-315.808"/>
<polygon fill="#191970" stroke="#191970" points="597.8619,-319.1578 606.4484,-312.9512 595.8655,-312.4485 597.8619,-319.1578"/>
</g>
<!-- Node5932&#45;&gt;Node5928 -->
<g id="edge20" class="edge">
<title>Node5932&#45;&gt;Node5928</title>
<path fill="none" stroke="#191970" d="M507.8364,-460.9663C526.052,-457.1951 552.036,-452.1611 575,-449 663.4661,-436.8222 767.6849,-429.2005 825.5573,-425.5583"/>
<polygon fill="#191970" stroke="#191970" points="826.0449,-429.035 835.8098,-424.9244 825.6128,-422.0483 826.0449,-429.035"/>
</g>
<!-- Node5932&#45;&gt;Node5915 -->
<g id="edge24" class="edge">
<title>Node5932&#45;&gt;Node5915</title>
<path fill="none" stroke="#191970" d="M493.9196,-456.4689C504.915,-445.2703 523.5618,-426.0508 539,-409 555.5013,-390.775 554.5641,-380.6681 575,-367 578.6954,-364.5284 582.7203,-362.3414 586.8823,-360.4104"/>
<polygon fill="#191970" stroke="#191970" points="588.2357,-363.6383 596.1378,-356.5808 585.5593,-357.1701 588.2357,-363.6383"/>
</g>
<!-- Node5927&#45;&gt;Node5916 -->
<g id="edge17" class="edge">
<title>Node5927&#45;&gt;Node5916</title>
<path fill="none" stroke="#191970" d="M668.6039,-194.1684C702.2407,-195.3943 755.6233,-200.3182 798,-218 862.5496,-244.9334 924.7559,-301.5528 953.4655,-329.9698"/>
<polygon fill="#191970" stroke="#191970" points="951.1144,-332.5691 960.6489,-337.1889 956.0764,-327.6316 951.1144,-332.5691"/>
</g>
<!-- Node5926&#45;&gt;Node5916 -->
<g id="edge19" class="edge">
<title>Node5926&#45;&gt;Node5916</title>
<path fill="none" stroke="#191970" d="M665.6403,-312.3722C726.2585,-319.2689 864.3491,-334.9798 931.6724,-342.6394"/>
<polygon fill="#191970" stroke="#191970" points="931.5155,-346.144 941.8471,-343.797 932.3069,-339.1889 931.5155,-346.144"/>
</g>
<!-- Node5928&#45;&gt;Node5916 -->
<g id="edge21" class="edge">
<title>Node5928&#45;&gt;Node5916</title>
<path fill="none" stroke="#191970" d="M884.9291,-413.4997C891.4906,-409.2091 899.2278,-403.9915 906,-399 921.5434,-387.5438 938.4735,-373.7251 951.0146,-363.2133"/>
<polygon fill="#191970" stroke="#191970" points="953.5423,-365.6598 958.9247,-356.5339 949.0261,-360.3115 953.5423,-365.6598"/>
</g>
<!-- Node5915&#45;&gt;Node5916 -->
<g id="edge25" class="edge">
<title>Node5915&#45;&gt;Node5916</title>
<path fill="none" stroke="#191970" d="M697.2607,-347C765.6952,-347 874.3735,-347 931.6992,-347"/>
<polygon fill="#191970" stroke="#191970" points="931.7843,-350.5001 941.7843,-347 931.7842,-343.5001 931.7843,-350.5001"/>
</g>
<!-- Node5917 -->
<g id="node16" class="node">
<title>Node5917</title>
<g id="a_node16"><a xlink:href="libbf_8c.html#a3ac3b86cc31b99a551947240e979c5d7" target="_top" xlink:title="clz">
<polygon fill="none" stroke="#ff0000" points="751,-261.5 751,-280.5 780,-280.5 780,-261.5 751,-261.5"/>
<text text-anchor="middle" x="765.5" y="-268.5" font-family="Helvetica,sans-Serif" font-size="10.00" fill="#000000">clz</text>
</a>
</g>
</g>
<!-- Node5915&#45;&gt;Node5917 -->
<g id="edge26" class="edge">
<title>Node5915&#45;&gt;Node5917</title>
<path fill="none" stroke="#191970" d="M674.6865,-337.4673C682.3079,-334.8984 690.0811,-331.7617 697,-328 716.5854,-317.3516 735.8249,-300.6318 748.9029,-288.049"/>
<polygon fill="#191970" stroke="#191970" points="751.5449,-290.3589 756.1976,-280.8403 746.6246,-285.3798 751.5449,-290.3589"/>
</g>
<!-- Node5919 -->
<g id="node17" class="node">
<title>Node5919</title>
<g id="a_node17"><a xlink:href="libbf_8c.html#a5a13527071b5331585beae41a51ed3c2" target="_top" xlink:title="__bf_round">
<polygon fill="none" stroke="#ff0000" points="733,-375.5 733,-394.5 798,-394.5 798,-375.5 733,-375.5"/>
<text text-anchor="middle" x="765.5" y="-382.5" font-family="Helvetica,sans-Serif" font-size="10.00" fill="#000000">__bf_round</text>
</a>
</g>
</g>
<!-- Node5915&#45;&gt;Node5919 -->
<g id="edge27" class="edge">
<title>Node5915&#45;&gt;Node5919</title>
<path fill="none" stroke="#191970" d="M668.6783,-356.589C685.0888,-361.4044 705.1763,-367.2988 722.7922,-372.468"/>
<polygon fill="#191970" stroke="#191970" points="722.2512,-375.9567 732.8321,-375.4141 724.2222,-369.2399 722.2512,-375.9567"/>
</g>
<!-- Node5919&#45;&gt;Node5916 -->
<g id="edge28" class="edge">
<title>Node5919&#45;&gt;Node5916</title>
<path fill="none" stroke="#191970" d="M798.2258,-379.8487C826.7508,-375.254 869.2011,-368.1639 906,-361 914.3339,-359.3776 923.2494,-357.5109 931.6986,-355.6805"/>
<polygon fill="#191970" stroke="#191970" points="932.6861,-359.0471 941.7031,-353.4845 931.1852,-352.2099 932.6861,-359.0471"/>
</g>
<!-- Node5919&#45;&gt;Node5928 -->
<g id="edge29" class="edge">
<title>Node5919&#45;&gt;Node5928</title>
<path fill="none" stroke="#191970" d="M791.8698,-394.589C804.6171,-399.2244 820.114,-404.8596 833.9347,-409.8853"/>
<polygon fill="#191970" stroke="#191970" points="833.0446,-413.2858 843.6387,-413.4141 835.4369,-406.7073 833.0446,-413.2858"/>
</g>
<!-- Node5960&#45;&gt;Node5901 -->
<g id="edge31" class="edge">
<title>Node5960&#45;&gt;Node5901</title>
<path fill="none" stroke="#191970" d="M499.8604,-703.6319C526.2888,-720.2042 580.5473,-754.2277 612,-773.9505"/>
<polygon fill="#191970" stroke="#191970" points="610.2674,-776.9953 620.599,-779.3426 613.9863,-771.0648 610.2674,-776.9953"/>
</g>
<!-- Node5960&#45;&gt;Node5903 -->
<g id="edge32" class="edge">
<title>Node5960&#45;&gt;Node5903</title>
<path fill="none" stroke="#191970" d="M509.8577,-684.4595C535.9653,-674.6368 576.6888,-659.3151 604.7658,-648.7515"/>
<polygon fill="#191970" stroke="#191970" points="606.3603,-651.8912 614.4873,-645.0939 603.8953,-645.3395 606.3603,-651.8912"/>
</g>
<!-- Node5935&#45;&gt;Node5917 -->
<g id="edge34" class="edge">
<title>Node5935&#45;&gt;Node5917</title>
<path fill="none" stroke="#191970" d="M512.3678,-305.3732C530.1315,-300.1832 553.7276,-293.8559 575,-290 633.6834,-279.3628 703.6937,-274.3027 740.3212,-272.2275"/>
<polygon fill="#191970" stroke="#191970" points="740.7695,-275.7085 750.567,-271.6764 740.3935,-268.7186 740.7695,-275.7085"/>
</g>
<!-- Node5964&#45;&gt;Node5901 -->
<g id="edge48" class="edge">
<title>Node5964&#45;&gt;Node5901</title>
<path fill="none" stroke="#191970" d="M337.3055,-428.5022C354.1875,-449.048 395.3676,-499.1331 430,-541 501.4599,-627.3875 587.208,-730.416 621.1375,-771.1581"/>
<polygon fill="#191970" stroke="#191970" points="618.6539,-773.6452 627.7431,-779.0892 624.0327,-769.1653 618.6539,-773.6452"/>
</g>
<!-- Node5964&#45;&gt;Node5903 -->
<g id="edge42" class="edge">
<title>Node5964&#45;&gt;Node5903</title>
<path fill="none" stroke="#191970" d="M343.2937,-428.5369C376.9107,-451.8103 465.6878,-513.4567 539,-566 565.1836,-584.7659 595.0577,-606.7148 614.6522,-621.1854"/>
<polygon fill="#191970" stroke="#191970" points="612.7598,-624.139 622.8816,-627.2696 616.9213,-618.5103 612.7598,-624.139"/>
</g>
<!-- Node5964&#45;&gt;Node5932 -->
<g id="edge45" class="edge">
<title>Node5964&#45;&gt;Node5932</title>
<path fill="none" stroke="#191970" d="M360.8666,-428.5112C387.2221,-436.5028 424.7691,-447.8881 451.5583,-456.0112"/>
<polygon fill="#191970" stroke="#191970" points="450.6676,-459.3985 461.253,-458.9509 452.6989,-452.6997 450.6676,-459.3985"/>
</g>
<!-- Node5964&#45;&gt;Node5960 -->
<g id="edge43" class="edge">
<title>Node5964&#45;&gt;Node5960</title>
<path fill="none" stroke="#191970" d="M335.0165,-428.7874C357.7103,-469.0505 444.0774,-622.2825 474.1229,-675.589"/>
<polygon fill="#191970" stroke="#191970" points="471.0904,-677.3369 479.0496,-684.3299 477.1884,-673.8998 471.0904,-677.3369"/>
</g>
<!-- Node5964&#45;&gt;Node5935 -->
<g id="edge46" class="edge">
<title>Node5964&#45;&gt;Node5935</title>
<path fill="none" stroke="#191970" d="M346.6106,-409.4344C360.1887,-401.4241 379.2695,-389.2062 394,-376 412.5584,-359.3621 409.494,-347.1682 430,-333 435.2478,-329.3742 441.2555,-326.3767 447.3208,-323.9194"/>
<polygon fill="#191970" stroke="#191970" points="448.5862,-327.1837 456.7984,-320.4897 446.2042,-320.6014 448.5862,-327.1837"/>
</g>
<!-- Node5964&#45;&gt;Node5929 -->
<g id="edge37" class="edge">
<title>Node5964&#45;&gt;Node5929</title>
<path fill="none" stroke="#191970" d="M335.3869,-409.2391C358.4527,-370.9946 442.9033,-230.97 473.4116,-180.3853"/>
<polygon fill="#191970" stroke="#191970" points="476.4397,-182.1414 478.6072,-171.7706 470.4455,-178.5262 476.4397,-182.1414"/>
</g>
<!-- Node5965 -->
<g id="node23" class="node">
<title>Node5965</title>
<g id="a_node23"><a xlink:href="libbf_8h.html#abd4ca8358212228a53981a32a10286b5" target="_top" xlink:title="bf_round">
<polygon fill="none" stroke="#000000" points="609,-376.5 609,-395.5 663,-395.5 663,-376.5 609,-376.5"/>
<text text-anchor="middle" x="636" y="-383.5" font-family="Helvetica,sans-Serif" font-size="10.00" fill="#000000">bf_round</text>
</a>
</g>
</g>
<!-- Node5964&#45;&gt;Node5965 -->
<g id="edge40" class="edge">
<title>Node5964&#45;&gt;Node5965</title>
<path fill="none" stroke="#191970" d="M377.1615,-419.2285C419.7777,-418.8391 483.8353,-416.7883 539,-409 559.0057,-406.1755 580.9365,-401.1443 598.8765,-396.5063"/>
<polygon fill="#191970" stroke="#191970" points="599.8931,-399.8578 608.6634,-393.9138 598.1006,-393.0912 599.8931,-399.8578"/>
</g>
<!-- Node5966 -->
<g id="node24" class="node">
<title>Node5966</title>
<g id="a_node24"><a xlink:href="libbf_8h.html#a030665e68e114717678fb0d0453bb3c6" target="_top" xlink:title="bf_div">
<polygon fill="none" stroke="#ff0000" points="463,-380.5 463,-399.5 506,-399.5 506,-380.5 463,-380.5"/>
<text text-anchor="middle" x="484.5" y="-387.5" font-family="Helvetica,sans-Serif" font-size="10.00" fill="#000000">bf_div</text>
</a>
</g>
</g>
<!-- Node5964&#45;&gt;Node5966 -->
<g id="edge44" class="edge">
<title>Node5964&#45;&gt;Node5966</title>
<path fill="none" stroke="#191970" d="M377.2699,-410.0624C401.8842,-405.4572 431.2144,-399.9696 452.973,-395.8986"/>
<polygon fill="#191970" stroke="#191970" points="453.8067,-399.3034 462.9925,-394.024 452.5193,-392.4228 453.8067,-399.3034"/>
</g>
<!-- Node5983 -->
<g id="node25" class="node">
<title>Node5983</title>
<g id="a_node25"><a xlink:href="libbf_8h.html#a40cbb5188b372acb906090d5ccf98a17" target="_top" xlink:title="bf_is_finite">
<polygon fill="none" stroke="#000000" points="452.5,-342.5 452.5,-361.5 516.5,-361.5 516.5,-342.5 452.5,-342.5"/>
<text text-anchor="middle" x="484.5" y="-349.5" font-family="Helvetica,sans-Serif" font-size="10.00" fill="#000000">bf_is_finite</text>
</a>
</g>
</g>
<!-- Node5964&#45;&gt;Node5983 -->
<g id="edge47" class="edge">
<title>Node5964&#45;&gt;Node5983</title>
<path fill="none" stroke="#191970" d="M348.1144,-409.3485C368.0809,-399.1766 400.8554,-382.9975 430,-371 435.0383,-368.9259 440.3951,-366.8758 445.7078,-364.9329"/>
<polygon fill="#191970" stroke="#191970" points="446.8999,-368.2238 455.1446,-361.5697 444.5499,-361.63 446.8999,-368.2238"/>
</g>
<!-- Node5929&#45;&gt;Node5927 -->
<g id="edge39" class="edge">
<title>Node5929&#45;&gt;Node5927</title>
<path fill="none" stroke="#191970" d="M506.5294,-166.6531C529.1875,-171.4389 565.0573,-179.0154 593.3014,-184.9811"/>
<polygon fill="#191970" stroke="#191970" points="592.816,-188.4558 603.3235,-187.098 594.2627,-181.6069 592.816,-188.4558"/>
</g>
<!-- Node5929&#45;&gt;Node5916 -->
<g id="edge38" class="edge">
<title>Node5929&#45;&gt;Node5916</title>
<path fill="none" stroke="#191970" d="M506.8351,-154.0136C524.9401,-147.9846 551.2558,-140.2193 575,-137 628.7306,-129.7151 644.0067,-125.5212 697,-137 796.722,-158.6007 830.9813,-162.8389 906,-232 935.3984,-259.1029 954.5109,-302.8906 963.6624,-327.8867"/>
<polygon fill="#191970" stroke="#191970" points="960.3664,-329.0646 966.9755,-337.3453 966.9728,-326.7505 960.3664,-329.0646"/>
</g>
<!-- Node5965&#45;&gt;Node5919 -->
<g id="edge41" class="edge">
<title>Node5965&#45;&gt;Node5919</title>
<path fill="none" stroke="#191970" d="M663.1474,-385.7904C680.3733,-385.6573 703.0329,-385.4824 722.6517,-385.3309"/>
<polygon fill="#191970" stroke="#191970" points="722.9131,-388.8291 732.8857,-385.2518 722.8589,-381.8293 722.9131,-388.8291"/>
</g>
<!-- Node5985 -->
<g id="node27" class="node">
<title>Node5985</title>
<g id="a_node27"><a xlink:href="libbf_8h.html#aa84c22d9104847e3aa0ab161a8c2af22" target="_top" xlink:title="bfdec_resize">
<polygon fill="none" stroke="#000000" points="834,-70.5 834,-89.5 906,-89.5 906,-70.5 834,-70.5"/>
<text text-anchor="middle" x="870" y="-77.5" font-family="Helvetica,sans-Serif" font-size="10.00" fill="#000000">bfdec_resize</text>
</a>
</g>
</g>
<!-- Node5984&#45;&gt;Node5985 -->
<g id="edge56" class="edge">
<title>Node5984&#45;&gt;Node5985</title>
<path fill="none" stroke="#191970" d="M539.3234,-80C615.6021,-80 752.3996,-80 823.7858,-80"/>
<polygon fill="#191970" stroke="#191970" points="823.8286,-83.5001 833.8286,-80 823.8285,-76.5001 823.8286,-83.5001"/>
</g>
<!-- Node5986 -->
<g id="node28" class="node">
<title>Node5986</title>
<g id="a_node28"><a xlink:href="libbf_8c.html#ae4e2654233077bd7073bfb8135db9d85" target="_top" xlink:title="clz_dec">
<polygon fill="none" stroke="#000000" points="611,-146.5 611,-165.5 661,-165.5 661,-146.5 611,-146.5"/>
<text text-anchor="middle" x="636" y="-153.5" font-family="Helvetica,sans-Serif" font-size="10.00" fill="#000000">clz_dec</text>
</a>
</g>
</g>
<!-- Node5984&#45;&gt;Node5986 -->
<g id="edge58" class="edge">
<title>Node5984&#45;&gt;Node5986</title>
<path fill="none" stroke="#191970" d="M514.4315,-95.0152C541.4658,-108.5769 580.9718,-128.3951 607.5408,-141.7235"/>
<polygon fill="#191970" stroke="#191970" points="606.1893,-144.9611 616.6971,-146.3167 609.3281,-138.7043 606.1893,-144.9611"/>
</g>
<!-- Node5985&#45;&gt;Node5916 -->
<g id="edge57" class="edge">
<title>Node5985&#45;&gt;Node5916</title>
<path fill="none" stroke="#191970" d="M889.6982,-89.5293C895.6989,-93.2896 901.8092,-98.1317 906,-104 932.1642,-140.6367 957.7392,-276.1446 966.6689,-327.2879"/>
<polygon fill="#191970" stroke="#191970" points="963.2577,-328.1031 968.4024,-337.365 970.1563,-326.9163 963.2577,-328.1031"/>
</g>
<!-- Node5986&#45;&gt;Node5917 -->
<g id="edge59" class="edge">
<title>Node5986&#45;&gt;Node5917</title>
<path fill="none" stroke="#191970" d="M661.1237,-159.9919C672.8419,-162.7684 686.4869,-167.391 697,-175 724.9211,-195.2082 745.7416,-230.3507 756.7266,-252.0483"/>
<polygon fill="#191970" stroke="#191970" points="753.6727,-253.7716 761.1947,-261.2328 759.9673,-250.7093 753.6727,-253.7716"/>
</g>
</g>
</svg>
        <g id="navigator" transform="translate(0 0)" fill="#404254">
                <rect fill="#f2f5e9" fill-opacity="0.5" stroke="#606060" stroke-width=".5" x="0" y="0" width="60" height="60"/>
                <use id="zoomplus" xlink:href="#zoomPlus" x="17" y="9" onmousedown="handleZoom(evt,'in')"/>
                <use id="zoomminus" xlink:href="#zoomMin" x="42" y="9" onmousedown="handleZoom(evt,'out')"/>
                <use id="reset" xlink:href="#resetDef" x="30" y="36" onmousedown="handleReset()"/>
                <g id="arrowUp" xlink:href="#dirArrow" transform="translate(30 24)" onmousedown="handlePan(0,-1)">
                  <use xlink:href="#rim" fill="#404040">
                        <set attributeName="fill" to="#808080" begin="arrowUp.mouseover" end="arrowUp.mouseout"/>
                  </use>
                  <path fill="none" stroke="white" stroke-width="1.5" d="M0,-3.0v7 M-2.5,-0.5L0,-3.0L2.5,-0.5"/>
                </g>
                <g id="arrowRight" xlink:href="#dirArrow" transform="rotate(90) translate(36 -43)" onmousedown="handlePan(1,0)">
                  <use xlink:href="#rim" fill="#404040">
                        <set attributeName="fill" to="#808080" begin="arrowRight.mouseover" end="arrowRight.mouseout"/>
                  </use>
                  <path fill="none" stroke="white" stroke-width="1.5" d="M0,-3.0v7 M-2.5,-0.5L0,-3.0L2.5,-0.5"/>
                </g>
                <g id="arrowDown" xlink:href="#dirArrow" transform="rotate(180) translate(-30 -48)" onmousedown="handlePan(0,1)">
                  <use xlink:href="#rim" fill="#404040">
                        <set attributeName="fill" to="#808080" begin="arrowDown.mouseover" end="arrowDown.mouseout"/>
                  </use>
                  <path fill="none" stroke="white" stroke-width="1.5" d="M0,-3.0v7 M-2.5,-0.5L0,-3.0L2.5,-0.5"/>
                </g>
                <g id="arrowLeft" xlink:href="#dirArrow" transform="rotate(270) translate(-36 17)" onmousedown="handlePan(-1,0)">
                  <use xlink:href="#rim" fill="#404040">
                        <set attributeName="fill" to="#808080" begin="arrowLeft.mouseover" end="arrowLeft.mouseout"/>
                  </use>
                  <path fill="none" stroke="white" stroke-width="1.5" d="M0,-3.0v7 M-2.5,-0.5L0,-3.0L2.5,-0.5"/>
                </g>
        </g>
        <svg viewBox="0 0 15 15" width="100%" height="30px" preserveAspectRatio="xMaxYMin meet">
         <g id="arrow_out" transform="scale(0.3 0.3)">
          <a xlink:href="libbf_8c_aaaeb6c790a8b174f3c5631ee33c81910_cgraph_org.svg" target="_base">
           <rect id="button" ry="5" rx="5" y="6" x="6" height="38" width="38"
                fill="#f2f5e9" fill-opacity="0.5" stroke="#606060" stroke-width="1.0"/>
           <path id="arrow"
             d="M 11.500037,31.436501 C 11.940474,20.09759 22.043105,11.32322 32.158766,21.979434 L 37.068811,17.246167 C 37.068811,17.246167 37.088388,32 37.088388,32 L 22.160133,31.978069 C 22.160133,31.978069 26.997745,27.140456 26.997745,27.140456 C 18.528582,18.264221 13.291696,25.230495 11.500037,31.436501 z"
             style="fill:#404040;"/>
          </a>
         </g>
        </svg>
</svg>
