<?xml version="1.0" encoding="UTF-8" standalone="no"?>
<!DOCTYPE svg PUBLIC "-//W3C//DTD SVG 1.1//EN"
 "http://www.w3.org/Graphics/SVG/1.1/DTD/svg11.dtd">
<!-- Generated by graphviz version 2.40.1 (20161225.0304)
 -->
<!-- Title: bf_sqrt Pages: 1 -->
<svg width="622pt" height="750pt"
 viewBox="0.00 0.00 622.00 750.00" xmlns="http://www.w3.org/2000/svg" xmlns:xlink="http://www.w3.org/1999/xlink">
<g id="graph0" class="graph" transform="scale(1 1) rotate(0) translate(4 746)">
<title>bf_sqrt</title>
<!-- Node4650 -->
<g id="node1" class="node">
<title>Node4650</title>
<polygon fill="#bfbfbf" stroke="#000000" points="0,-380.5 0,-399.5 47,-399.5 47,-380.5 0,-380.5"/>
<text text-anchor="middle" x="23.5" y="-387.5" font-family="Helvetica,sans-Serif" font-size="10.00" fill="#000000">bf_sqrt</text>
</g>
<!-- Node4651 -->
<g id="node2" class="node">
<title>Node4651</title>
<g id="a_node2"><a xlink:href="libbf_8h.html#ab8c991bf0d1ab72d676d3c9c3d63c2a7" target="_top" xlink:title="bf_free">
<polygon fill="none" stroke="#000000" points="211,-342.5 211,-361.5 258,-361.5 258,-342.5 211,-342.5"/>
<text text-anchor="middle" x="234.5" y="-349.5" font-family="Helvetica,sans-Serif" font-size="10.00" fill="#000000">bf_free</text>
</a>
</g>
</g>
<!-- Node4650&#45;&gt;Node4651 -->
<g id="edge1" class="edge">
<title>Node4650&#45;&gt;Node4651</title>
<path fill="none" stroke="#191970" d="M47.1546,-384.01C58.0322,-381.3649 71.1295,-378.3334 83,-376 123.2035,-368.097 169.8056,-361.0244 200.593,-356.6387"/>
<polygon fill="#191970" stroke="#191970" points="201.3729,-360.0635 210.7868,-355.2026 200.3963,-353.132 201.3729,-360.0635"/>
</g>
<!-- Node4653 -->
<g id="node4" class="node">
<title>Node4653</title>
<g id="a_node4"><a xlink:href="libbf_8h.html#a970a1725f8bc59eda655058c5ff6bc52" target="_top" xlink:title="bf_min">
<polygon fill="none" stroke="#000000" points="456,-304.5 456,-323.5 502,-323.5 502,-304.5 456,-304.5"/>
<text text-anchor="middle" x="479" y="-311.5" font-family="Helvetica,sans-Serif" font-size="10.00" fill="#000000">bf_min</text>
</a>
</g>
</g>
<!-- Node4650&#45;&gt;Node4653 -->
<g id="edge3" class="edge">
<title>Node4650&#45;&gt;Node4653</title>
<path fill="none" stroke="#191970" d="M47.3018,-393.3312C108.1313,-400.8963 273.411,-415.4551 400,-371 423.9658,-362.5838 447.0019,-344.4243 461.9506,-330.8504"/>
<polygon fill="#191970" stroke="#191970" points="464.4865,-333.2703 469.3779,-323.8721 459.6934,-328.1687 464.4865,-333.2703"/>
</g>
<!-- Node4654 -->
<g id="node5" class="node">
<title>Node4654</title>
<g id="a_node5"><a xlink:href="libbf_8h.html#ab51c43b22c1a81c789ee0e3d53c0e585" target="_top" xlink:title="bf_resize">
<polygon fill="none" stroke="#000000" points="558,-579.5 558,-598.5 614,-598.5 614,-579.5 558,-579.5"/>
<text text-anchor="middle" x="586" y="-586.5" font-family="Helvetica,sans-Serif" font-size="10.00" fill="#000000">bf_resize</text>
</a>
</g>
</g>
<!-- Node4650&#45;&gt;Node4654 -->
<g id="edge4" class="edge">
<title>Node4650&#45;&gt;Node4654</title>
<path fill="none" stroke="#191970" d="M43.1259,-399.6025C54.5012,-404.7354 69.2521,-410.6681 83,-414 148.7177,-429.9273 166.8798,-428 234.5,-428 234.5,-428 234.5,-428 357,-428 433.1298,-428 462.2061,-426.8784 522,-474 553.5624,-498.8733 571.9644,-543.8484 580.3917,-569.5651"/>
<polygon fill="#191970" stroke="#191970" points="577.1021,-570.7744 583.402,-579.2927 583.7892,-568.705 577.1021,-570.7744"/>
</g>
<!-- Node4655 -->
<g id="node6" class="node">
<title>Node4655</title>
<g id="a_node6"><a xlink:href="libbf_8h.html#abd4ca8358212228a53981a32a10286b5" target="_top" xlink:title="bf_round">
<polygon fill="none" stroke="#000000" points="92,-570.5 92,-589.5 146,-589.5 146,-570.5 92,-570.5"/>
<text text-anchor="middle" x="119" y="-577.5" font-family="Helvetica,sans-Serif" font-size="10.00" fill="#000000">bf_round</text>
</a>
</g>
</g>
<!-- Node4650&#45;&gt;Node4655 -->
<g id="edge5" class="edge">
<title>Node4650&#45;&gt;Node4655</title>
<path fill="none" stroke="#191970" d="M27.6826,-399.78C37.0067,-421.398 60.4548,-474.7578 83,-518 90.8097,-532.9791 100.4569,-549.5015 107.7983,-561.7209"/>
<polygon fill="#191970" stroke="#191970" points="104.9352,-563.7497 113.1125,-570.4864 110.9211,-560.1206 104.9352,-563.7497"/>
</g>
<!-- Node4665 -->
<g id="node11" class="node">
<title>Node4665</title>
<g id="a_node11"><a xlink:href="libbf_8h.html#aa6282c789c16c8cf2fe6a8ebd671c6fc" target="_top" xlink:title="bf_set_nan">
<polygon fill="none" stroke="#000000" points="446.5,-522.5 446.5,-541.5 511.5,-541.5 511.5,-522.5 446.5,-522.5"/>
<text text-anchor="middle" x="479" y="-529.5" font-family="Helvetica,sans-Serif" font-size="10.00" fill="#000000">bf_set_nan</text>
</a>
</g>
</g>
<!-- Node4650&#45;&gt;Node4665 -->
<g id="edge22" class="edge">
<title>Node4650&#45;&gt;Node4665</title>
<path fill="none" stroke="#191970" d="M27.9976,-399.5695C36.315,-416.1112 55.7685,-449.8294 83,-466 113.1396,-483.8974 340.4458,-514.4224 436.4321,-526.6771"/>
<polygon fill="#191970" stroke="#191970" points="436.024,-530.1533 446.3855,-527.9424 436.9068,-523.2092 436.024,-530.1533"/>
</g>
<!-- Node4667 -->
<g id="node14" class="node">
<title>Node4667</title>
<g id="a_node14"><a xlink:href="libbf_8h.html#ae019ee8073f4359da157d3b1e5fdba7e" target="_top" xlink:title="bf_set">
<polygon fill="none" stroke="#000000" points="335,-456.5 335,-475.5 379,-475.5 379,-456.5 335,-456.5"/>
<text text-anchor="middle" x="357" y="-463.5" font-family="Helvetica,sans-Serif" font-size="10.00" fill="#000000">bf_set</text>
</a>
</g>
</g>
<!-- Node4650&#45;&gt;Node4667 -->
<g id="edge19" class="edge">
<title>Node4650&#45;&gt;Node4667</title>
<path fill="none" stroke="#191970" d="M31.1439,-399.7076C41.4441,-411.9828 61.0397,-432.6427 83,-442 164.5804,-476.7614 271.9875,-473.7194 324.8215,-469.4279"/>
<polygon fill="#191970" stroke="#191970" points="325.2843,-472.9007 334.9379,-468.5351 324.6689,-465.9278 325.2843,-472.9007"/>
</g>
<!-- Node4668 -->
<g id="node15" class="node">
<title>Node4668</title>
<g id="a_node15"><a xlink:href="libbf_8c.html#a46c382a2c0fdce3d6a7169762670d7b9" target="_top" xlink:title="mp_scan_nz">
<polygon fill="none" stroke="#000000" points="83,-304.5 83,-323.5 155,-323.5 155,-304.5 83,-304.5"/>
<text text-anchor="middle" x="119" y="-311.5" font-family="Helvetica,sans-Serif" font-size="10.00" fill="#000000">mp_scan_nz</text>
</a>
</g>
</g>
<!-- Node4650&#45;&gt;Node4668 -->
<g id="edge23" class="edge">
<title>Node4650&#45;&gt;Node4668</title>
<path fill="none" stroke="#191970" d="M33.6849,-380.3692C45.265,-369.5947 64.9136,-351.8386 83,-338 86.7938,-335.0972 90.9242,-332.1556 94.99,-329.3736"/>
<polygon fill="#191970" stroke="#191970" points="97.2506,-332.0732 103.6313,-323.6153 93.3688,-326.248 97.2506,-332.0732"/>
</g>
<!-- Node4669 -->
<g id="node16" class="node">
<title>Node4669</title>
<g id="a_node16"><a xlink:href="libbf_8c.html#a6eda6dd86092f0d16e5f3148a2464220" target="_top" xlink:title="mp_shr">
<polygon fill="none" stroke="#000000" points="332.5,-.5 332.5,-19.5 381.5,-19.5 381.5,-.5 332.5,-.5"/>
<text text-anchor="middle" x="357" y="-7.5" font-family="Helvetica,sans-Serif" font-size="10.00" fill="#000000">mp_shr</text>
</a>
</g>
</g>
<!-- Node4650&#45;&gt;Node4669 -->
<g id="edge24" class="edge">
<title>Node4650&#45;&gt;Node4669</title>
<path fill="none" stroke="#191970" d="M26.313,-380.2588C33.273,-357.2404 52.9411,-298.3204 83,-257 158.3483,-153.4229 283.1927,-60.9337 334.2133,-25.4217"/>
<polygon fill="#191970" stroke="#191970" points="336.3342,-28.2106 342.5782,-19.6512 332.3593,-22.4486 336.3342,-28.2106"/>
</g>
<!-- Node4670 -->
<g id="node17" class="node">
<title>Node4670</title>
<g id="a_node17"><a xlink:href="libbf_8h.html#aa3d8931becde9bdbea0aab310312acd3" target="_top" xlink:title="mp_sqrtrem">
<polygon fill="none" stroke="#000000" points="85,-266.5 85,-285.5 153,-285.5 153,-266.5 85,-266.5"/>
<text text-anchor="middle" x="119" y="-273.5" font-family="Helvetica,sans-Serif" font-size="10.00" fill="#000000">mp_sqrtrem</text>
</a>
</g>
</g>
<!-- Node4650&#45;&gt;Node4670 -->
<g id="edge25" class="edge">
<title>Node4650&#45;&gt;Node4670</title>
<path fill="none" stroke="#191970" d="M27.5364,-380.2153C35.6358,-361.5754 55.4781,-320.5591 83,-295 84.4758,-293.6294 86.0693,-292.3285 87.7358,-291.0988"/>
<polygon fill="#191970" stroke="#191970" points="89.9072,-293.8659 96.4718,-285.5498 86.154,-287.9571 89.9072,-293.8659"/>
</g>
<!-- Node4652 -->
<g id="node3" class="node">
<title>Node4652</title>
<g id="a_node3"><a xlink:href="libbf_8h.html#a524c9e60866c08c75061626a4b5e2f29" target="_top" xlink:title="bf_realloc">
<polygon fill="none" stroke="#000000" points="327.5,-342.5 327.5,-361.5 386.5,-361.5 386.5,-342.5 327.5,-342.5"/>
<text text-anchor="middle" x="357" y="-349.5" font-family="Helvetica,sans-Serif" font-size="10.00" fill="#000000">bf_realloc</text>
</a>
</g>
</g>
<!-- Node4651&#45;&gt;Node4652 -->
<g id="edge2" class="edge">
<title>Node4651&#45;&gt;Node4652</title>
<path fill="none" stroke="#191970" d="M258.1192,-352C274.8564,-352 297.7144,-352 317.2372,-352"/>
<polygon fill="#191970" stroke="#191970" points="317.3853,-355.5001 327.3852,-352 317.3852,-348.5001 317.3853,-355.5001"/>
</g>
<!-- Node4656 -->
<g id="node7" class="node">
<title>Node4656</title>
<g id="a_node7"><a xlink:href="libbf_8c.html#a5a13527071b5331585beae41a51ed3c2" target="_top" xlink:title="__bf_round">
<polygon fill="none" stroke="#000000" points="202,-608.5 202,-627.5 267,-627.5 267,-608.5 202,-608.5"/>
<text text-anchor="middle" x="234.5" y="-615.5" font-family="Helvetica,sans-Serif" font-size="10.00" fill="#000000">__bf_round</text>
</a>
</g>
</g>
<!-- Node4655&#45;&gt;Node4656 -->
<g id="edge6" class="edge">
<title>Node4655&#45;&gt;Node4656</title>
<path fill="none" stroke="#191970" d="M146.0796,-588.9093C160.8776,-593.7779 179.4606,-599.8918 195.7666,-605.2566"/>
<polygon fill="#191970" stroke="#191970" points="194.9781,-608.6816 205.571,-608.4822 197.1658,-602.0322 194.9781,-608.6816"/>
</g>
<!-- Node4656&#45;&gt;Node4654 -->
<g id="edge9" class="edge">
<title>Node4656&#45;&gt;Node4654</title>
<path fill="none" stroke="#191970" d="M249.7629,-627.506C294.2219,-653.882 426.5127,-722.9665 522,-675 549.743,-661.0638 568.5053,-628.7729 578.2109,-607.9657"/>
<polygon fill="#191970" stroke="#191970" points="581.5313,-609.1097 582.3543,-598.5468 575.1239,-606.291 581.5313,-609.1097"/>
</g>
<!-- Node4657 -->
<g id="node8" class="node">
<title>Node4657</title>
<g id="a_node8"><a xlink:href="libbf_8h.html#a933c9dd8c3450f560876d02e3b36b1a5" target="_top" xlink:title="bf_get_exp_bits">
<polygon fill="none" stroke="#000000" points="436,-570.5 436,-589.5 522,-589.5 522,-570.5 436,-570.5"/>
<text text-anchor="middle" x="479" y="-577.5" font-family="Helvetica,sans-Serif" font-size="10.00" fill="#000000">bf_get_exp_bits</text>
</a>
</g>
</g>
<!-- Node4656&#45;&gt;Node4657 -->
<g id="edge7" class="edge">
<title>Node4656&#45;&gt;Node4657</title>
<path fill="none" stroke="#191970" d="M267.1927,-609.2524C281.4813,-605.6721 298.4878,-601.7366 314,-599 351.026,-592.468 393.139,-587.661 425.5518,-584.5162"/>
<polygon fill="#191970" stroke="#191970" points="426.0905,-587.981 435.7159,-583.5536 425.4304,-581.0122 426.0905,-587.981"/>
</g>
<!-- Node4658 -->
<g id="node9" class="node">
<title>Node4658</title>
<g id="a_node9"><a xlink:href="libbf_8c.html#a3d7fdccc1995b3a88b68c5e7a57dce16" target="_top" xlink:title="bf_get_rnd_add">
<polygon fill="none" stroke="#ff0000" points="315.5,-532.5 315.5,-551.5 398.5,-551.5 398.5,-532.5 315.5,-532.5"/>
<text text-anchor="middle" x="357" y="-539.5" font-family="Helvetica,sans-Serif" font-size="10.00" fill="#000000">bf_get_rnd_add</text>
</a>
</g>
</g>
<!-- Node4656&#45;&gt;Node4658 -->
<g id="edge8" class="edge">
<title>Node4656&#45;&gt;Node4658</title>
<path fill="none" stroke="#191970" d="M248.3839,-608.4932C264.1032,-597.83 290.5769,-580.1732 314,-566 319.2482,-562.8244 324.9323,-559.5435 330.3957,-556.466"/>
<polygon fill="#191970" stroke="#191970" points="332.2277,-559.452 339.266,-551.5329 328.8254,-553.3344 332.2277,-559.452"/>
</g>
<!-- Node4663 -->
<g id="node10" class="node">
<title>Node4663</title>
<g id="a_node10"><a xlink:href="libbf_8c.html#af464f3c1421a7305372819f949667273" target="_top" xlink:title="bf_set_overflow">
<polygon fill="none" stroke="#ff0000" points="314,-608.5 314,-627.5 400,-627.5 400,-608.5 314,-608.5"/>
<text text-anchor="middle" x="357" y="-615.5" font-family="Helvetica,sans-Serif" font-size="10.00" fill="#000000">bf_set_overflow</text>
</a>
</g>
</g>
<!-- Node4656&#45;&gt;Node4663 -->
<g id="edge10" class="edge">
<title>Node4656&#45;&gt;Node4663</title>
<path fill="none" stroke="#191970" d="M267.0061,-618C278.1921,-618 291.0322,-618 303.4441,-618"/>
<polygon fill="#191970" stroke="#191970" points="303.7236,-621.5001 313.7236,-618 303.7235,-614.5001 303.7236,-621.5001"/>
</g>
<!-- Node4662 -->
<g id="node12" class="node">
<title>Node4662</title>
<g id="a_node12"><a xlink:href="libbf_8c.html#a450dfcc66e1b45403f642a8499219f94" target="_top" xlink:title="limb_mask">
<polygon fill="none" stroke="#000000" points="447,-646.5 447,-665.5 511,-665.5 511,-646.5 447,-646.5"/>
<text text-anchor="middle" x="479" y="-653.5" font-family="Helvetica,sans-Serif" font-size="10.00" fill="#000000">limb_mask</text>
</a>
</g>
</g>
<!-- Node4656&#45;&gt;Node4662 -->
<g id="edge18" class="edge">
<title>Node4656&#45;&gt;Node4662</title>
<path fill="none" stroke="#191970" d="M267.1927,-626.7476C281.4813,-630.3279 298.4878,-634.2634 314,-637 355.382,-644.3005 403.1183,-649.4462 436.5648,-652.5247"/>
<polygon fill="#191970" stroke="#191970" points="436.6229,-656.0439 446.8957,-653.4517 437.2486,-649.0719 436.6229,-656.0439"/>
</g>
<!-- Node4666 -->
<g id="node13" class="node">
<title>Node4666</title>
<g id="a_node13"><a xlink:href="libbf_8h.html#a66631c65c00e92a5840a5085a009602d" target="_top" xlink:title="bf_set_zero">
<polygon fill="none" stroke="#000000" points="445,-722.5 445,-741.5 513,-741.5 513,-722.5 445,-722.5"/>
<text text-anchor="middle" x="479" y="-729.5" font-family="Helvetica,sans-Serif" font-size="10.00" fill="#000000">bf_set_zero</text>
</a>
</g>
</g>
<!-- Node4656&#45;&gt;Node4666 -->
<g id="edge16" class="edge">
<title>Node4656&#45;&gt;Node4666</title>
<path fill="none" stroke="#191970" d="M239.7997,-627.6002C250.8323,-646.5628 278.2426,-688.6577 314,-708 351.2645,-728.1575 399.8514,-733.1109 434.634,-733.6564"/>
<polygon fill="#191970" stroke="#191970" points="434.9442,-737.1575 444.9576,-733.6961 434.9712,-730.1575 434.9442,-737.1575"/>
</g>
<!-- Node4663&#45;&gt;Node4654 -->
<g id="edge12" class="edge">
<title>Node4663&#45;&gt;Node4654</title>
<path fill="none" stroke="#191970" d="M400.1387,-613.514C433.4635,-609.9322 480.7114,-604.6006 522,-599 530.398,-597.8609 539.3976,-596.5258 547.9169,-595.209"/>
<polygon fill="#191970" stroke="#191970" points="548.6617,-598.635 557.9977,-593.626 547.5758,-591.7197 548.6617,-598.635"/>
</g>
<!-- Node4663&#45;&gt;Node4657 -->
<g id="edge11" class="edge">
<title>Node4663&#45;&gt;Node4657</title>
<path fill="none" stroke="#191970" d="M387.7858,-608.411C403.1013,-603.6406 421.8166,-597.8112 438.2998,-592.6771"/>
<polygon fill="#191970" stroke="#191970" points="439.7174,-595.9015 448.2241,-589.5859 437.6356,-589.2182 439.7174,-595.9015"/>
</g>
<!-- Node4663&#45;&gt;Node4665 -->
<g id="edge13" class="edge">
<title>Node4663&#45;&gt;Node4665</title>
<path fill="none" stroke="#191970" d="M370.0488,-608.3917C385.6389,-596.9571 412.5593,-577.3548 436,-561 442.4985,-556.466 449.6103,-551.6223 456.1459,-547.2177"/>
<polygon fill="#191970" stroke="#191970" points="458.2344,-550.0313 464.5892,-541.5538 454.3348,-544.218 458.2344,-550.0313"/>
</g>
<!-- Node4663&#45;&gt;Node4662 -->
<g id="edge15" class="edge">
<title>Node4663&#45;&gt;Node4662</title>
<path fill="none" stroke="#191970" d="M387.7858,-627.589C403.1013,-632.3594 421.8166,-638.1888 438.2998,-643.3229"/>
<polygon fill="#191970" stroke="#191970" points="437.6356,-646.7818 448.2241,-646.4141 439.7174,-640.0985 437.6356,-646.7818"/>
</g>
<!-- Node4665&#45;&gt;Node4654 -->
<g id="edge14" class="edge">
<title>Node4665&#45;&gt;Node4654</title>
<path fill="none" stroke="#191970" d="M497.1511,-541.6693C514.1626,-550.7315 539.8049,-564.3914 559.1764,-574.7108"/>
<polygon fill="#191970" stroke="#191970" points="557.6456,-577.8609 568.117,-579.4735 560.9367,-571.6828 557.6456,-577.8609"/>
</g>
<!-- Node4666&#45;&gt;Node4654 -->
<g id="edge17" class="edge">
<title>Node4666&#45;&gt;Node4654</title>
<path fill="none" stroke="#191970" d="M501.6469,-722.4477C508.7557,-718.6858 516.242,-713.8487 522,-708 550.8001,-678.7461 570.1323,-633.879 579.4827,-608.4153"/>
<polygon fill="#191970" stroke="#191970" points="582.8512,-609.3871 582.8774,-598.7923 576.2499,-607.0583 582.8512,-609.3871"/>
</g>
<!-- Node4667&#45;&gt;Node4654 -->
<g id="edge20" class="edge">
<title>Node4667&#45;&gt;Node4654</title>
<path fill="none" stroke="#191970" d="M379.256,-468.1641C412.6426,-472.2845 476.6095,-483.6364 522,-513 544.9741,-527.8622 564.0495,-553.4857 575.237,-570.8284"/>
<polygon fill="#191970" stroke="#191970" points="572.3669,-572.8411 580.6155,-579.4903 578.3138,-569.1485 572.3669,-572.8411"/>
</g>
<!-- Node4667&#45;&gt;Node4665 -->
<g id="edge21" class="edge">
<title>Node4667&#45;&gt;Node4665</title>
<path fill="none" stroke="#191970" d="M374.7398,-475.597C395.0693,-486.5948 428.6059,-504.7376 452.1411,-517.4698"/>
<polygon fill="#191970" stroke="#191970" points="450.7779,-520.7116 461.2387,-522.3915 454.1087,-514.5548 450.7779,-520.7116"/>
</g>
<!-- Node4670&#45;&gt;Node4651 -->
<g id="edge41" class="edge">
<title>Node4670&#45;&gt;Node4651</title>
<path fill="none" stroke="#191970" d="M138.329,-285.5822C143.8038,-288.4619 149.7106,-291.7291 155,-295 175.8406,-307.8875 198.4424,-324.3539 214.2003,-336.2715"/>
<polygon fill="#191970" stroke="#191970" points="212.1228,-339.0888 222.1959,-342.3727 216.3693,-333.5239 212.1228,-339.0888"/>
</g>
<!-- Node4671 -->
<g id="node18" class="node">
<title>Node4671</title>
<g id="a_node18"><a xlink:href="libbf_8c.html#ad6e0bb87edc2953629f7fc6f16e3e7d7" target="_top" xlink:title="mp_sqrtrem_rec">
<polygon fill="none" stroke="#000000" points="191,-171.5 191,-190.5 278,-190.5 278,-171.5 191,-171.5"/>
<text text-anchor="middle" x="234.5" y="-178.5" font-family="Helvetica,sans-Serif" font-size="10.00" fill="#000000">mp_sqrtrem_rec</text>
</a>
</g>
</g>
<!-- Node4670&#45;&gt;Node4671 -->
<g id="edge26" class="edge">
<title>Node4670&#45;&gt;Node4671</title>
<path fill="none" stroke="#191970" d="M130.9255,-266.1911C150.8269,-249.8221 190.9918,-216.786 215.0379,-197.0078"/>
<polygon fill="#191970" stroke="#191970" points="217.3116,-199.6695 222.8114,-190.614 212.8649,-194.2633 217.3116,-199.6695"/>
</g>
<!-- Node4671&#45;&gt;Node4669 -->
<g id="edge36" class="edge">
<title>Node4671&#45;&gt;Node4669</title>
<path fill="none" stroke="#191970" d="M237.6091,-171.2363C246.1233,-145.8041 272.0192,-76.5431 314,-34 317.4228,-30.5313 321.4532,-27.4175 325.6508,-24.6724"/>
<polygon fill="#191970" stroke="#191970" points="327.5084,-27.6405 334.361,-19.5602 323.9651,-21.6035 327.5084,-27.6405"/>
</g>
<!-- Node4671&#45;&gt;Node4671 -->
<g id="edge38" class="edge">
<title>Node4671&#45;&gt;Node4671</title>
<path fill="none" stroke="#191970" d="M216.9293,-190.7571C208.3814,-199.5653 214.2383,-209 234.5,-209 247.1636,-209 254.2003,-205.3146 255.6101,-200.4"/>
<polygon fill="#191970" stroke="#191970" points="258.8021,-198.9387 252.0707,-190.7571 252.2307,-201.3507 258.8021,-198.9387"/>
</g>
<!-- Node4672 -->
<g id="node19" class="node">
<title>Node4672</title>
<g id="a_node19"><a xlink:href="libbf_8h.html#a7b30173f892a4acfda4ebd0c78edc6ac" target="_top" xlink:title="mp_add">
<polygon fill="none" stroke="#000000" points="453.5,-76.5 453.5,-95.5 504.5,-95.5 504.5,-76.5 453.5,-76.5"/>
<text text-anchor="middle" x="479" y="-83.5" font-family="Helvetica,sans-Serif" font-size="10.00" fill="#000000">mp_add</text>
</a>
</g>
</g>
<!-- Node4671&#45;&gt;Node4672 -->
<g id="edge27" class="edge">
<title>Node4671&#45;&gt;Node4672</title>
<path fill="none" stroke="#191970" d="M237.7277,-171.278C246.0294,-148.0653 270.5742,-89.6587 314,-67 356.696,-44.7221 413.9101,-59.5991 448.5269,-72.6335"/>
<polygon fill="#191970" stroke="#191970" points="447.4951,-75.9889 458.0819,-76.402 450.0635,-69.477 447.4951,-75.9889"/>
</g>
<!-- Node4673 -->
<g id="node20" class="node">
<title>Node4673</title>
<g id="a_node20"><a xlink:href="libbf_8c.html#a62a872522840725ae7ec25e32e170bf5" target="_top" xlink:title="mp_add_mul1">
<polygon fill="none" stroke="#000000" points="318.5,-114.5 318.5,-133.5 395.5,-133.5 395.5,-114.5 318.5,-114.5"/>
<text text-anchor="middle" x="357" y="-121.5" font-family="Helvetica,sans-Serif" font-size="10.00" fill="#000000">mp_add_mul1</text>
</a>
</g>
</g>
<!-- Node4671&#45;&gt;Node4673 -->
<g id="edge28" class="edge">
<title>Node4671&#45;&gt;Node4673</title>
<path fill="none" stroke="#191970" d="M254.0262,-171.467C270.0726,-163.6811 293.4296,-152.4583 314,-143 317.8374,-141.2356 321.8805,-139.4081 325.8893,-137.6151"/>
<polygon fill="#191970" stroke="#191970" points="327.3486,-140.7968 335.0682,-133.5401 324.5082,-134.3989 327.3486,-140.7968"/>
</g>
<!-- Node4674 -->
<g id="node21" class="node">
<title>Node4674</title>
<g id="a_node21"><a xlink:href="libbf_8h.html#ababed0842811906072217767078cef22" target="_top" xlink:title="mp_add_ui">
<polygon fill="none" stroke="#000000" points="325,-76.5 325,-95.5 389,-95.5 389,-76.5 325,-76.5"/>
<text text-anchor="middle" x="357" y="-83.5" font-family="Helvetica,sans-Serif" font-size="10.00" fill="#000000">mp_add_ui</text>
</a>
</g>
</g>
<!-- Node4671&#45;&gt;Node4674 -->
<g id="edge29" class="edge">
<title>Node4671&#45;&gt;Node4674</title>
<path fill="none" stroke="#191970" d="M242.4597,-171.4891C255.888,-155.9174 284.4786,-124.744 314,-105 316.5631,-103.2858 319.3063,-101.6637 322.1205,-100.1439"/>
<polygon fill="#191970" stroke="#191970" points="323.8021,-103.217 331.218,-95.6503 320.702,-96.9409 323.8021,-103.217"/>
</g>
<!-- Node4675 -->
<g id="node22" class="node">
<title>Node4675</title>
<g id="a_node22"><a xlink:href="libbf_8c.html#a0b14a84ecf8baf4930b1bcb8621b8e18" target="_top" xlink:title="mp_divnorm">
<polygon fill="none" stroke="#ff0000" points="322,-152.5 322,-171.5 392,-171.5 392,-152.5 322,-152.5"/>
<text text-anchor="middle" x="357" y="-159.5" font-family="Helvetica,sans-Serif" font-size="10.00" fill="#000000">mp_divnorm</text>
</a>
</g>
</g>
<!-- Node4671&#45;&gt;Node4675 -->
<g id="edge30" class="edge">
<title>Node4671&#45;&gt;Node4675</title>
<path fill="none" stroke="#191970" d="M278.0338,-174.2478C288.8736,-172.5665 300.5234,-170.7596 311.4571,-169.0638"/>
<polygon fill="#191970" stroke="#191970" points="312.3253,-172.4711 321.6707,-167.4797 311.2523,-165.5538 312.3253,-172.4711"/>
</g>
<!-- Node4713 -->
<g id="node23" class="node">
<title>Node4713</title>
<g id="a_node23"><a xlink:href="libbf_8c.html#a0b7f4296ac6df9322b8bc7341039d851" target="_top" xlink:title="mp_sub">
<polygon fill="none" stroke="#000000" points="453.5,-209.5 453.5,-228.5 504.5,-228.5 504.5,-209.5 453.5,-209.5"/>
<text text-anchor="middle" x="479" y="-216.5" font-family="Helvetica,sans-Serif" font-size="10.00" fill="#000000">mp_sub</text>
</a>
</g>
</g>
<!-- Node4671&#45;&gt;Node4713 -->
<g id="edge39" class="edge">
<title>Node4671&#45;&gt;Node4713</title>
<path fill="none" stroke="#191970" d="M240.7265,-190.585C252.557,-207.7998 280.1512,-243.4235 314,-257 349.4751,-271.2288 362.7341,-265.4967 400,-257 419.7841,-252.4892 440.389,-242.3696 455.5934,-233.707"/>
<polygon fill="#191970" stroke="#191970" points="457.4735,-236.6615 464.3068,-228.5648 453.9158,-230.6331 457.4735,-236.6615"/>
</g>
<!-- Node4681 -->
<g id="node24" class="node">
<title>Node4681</title>
<g id="a_node24"><a xlink:href="libbf_8h.html#a6cd295d156fefc2f73a5f9de76595262" target="_top" xlink:title="mp_mul">
<polygon fill="none" stroke="#ff0000" points="331.5,-304.5 331.5,-323.5 382.5,-323.5 382.5,-304.5 331.5,-304.5"/>
<text text-anchor="middle" x="357" y="-311.5" font-family="Helvetica,sans-Serif" font-size="10.00" fill="#000000">mp_mul</text>
</a>
</g>
</g>
<!-- Node4671&#45;&gt;Node4681 -->
<g id="edge34" class="edge">
<title>Node4671&#45;&gt;Node4681</title>
<path fill="none" stroke="#191970" d="M239.5471,-190.5148C250.7116,-210.8627 279.2831,-259.2515 314,-290 317.9,-293.4542 322.3798,-296.6238 326.9423,-299.4487"/>
<polygon fill="#191970" stroke="#191970" points="325.2676,-302.5227 335.6875,-304.44 328.7375,-296.4433 325.2676,-302.5227"/>
</g>
<!-- Node4716 -->
<g id="node25" class="node">
<title>Node4716</title>
<g id="a_node25"><a xlink:href="libbf_8c.html#af60700485398a7c6b0b5434d26350969" target="_top" xlink:title="mp_sqrtrem2">
<polygon fill="none" stroke="#ff0000" points="320,-228.5 320,-247.5 394,-247.5 394,-228.5 320,-228.5"/>
<text text-anchor="middle" x="357" y="-235.5" font-family="Helvetica,sans-Serif" font-size="10.00" fill="#000000">mp_sqrtrem2</text>
</a>
</g>
</g>
<!-- Node4671&#45;&gt;Node4716 -->
<g id="edge37" class="edge">
<title>Node4671&#45;&gt;Node4716</title>
<path fill="none" stroke="#191970" d="M254.0262,-190.533C270.0726,-198.3189 293.4296,-209.5417 314,-219 317.8374,-220.7644 321.8805,-222.5919 325.8893,-224.3849"/>
<polygon fill="#191970" stroke="#191970" points="324.5082,-227.6011 335.0682,-228.4599 327.3486,-221.2032 324.5082,-227.6011"/>
</g>
<!-- Node4712 -->
<g id="node26" class="node">
<title>Node4712</title>
<g id="a_node26"><a xlink:href="libbf_8c.html#ade2fb6b766b66cbced0bd9b472aff1fe" target="_top" xlink:title="mp_sub_ui">
<polygon fill="none" stroke="#000000" points="325,-190.5 325,-209.5 389,-209.5 389,-190.5 325,-190.5"/>
<text text-anchor="middle" x="357" y="-197.5" font-family="Helvetica,sans-Serif" font-size="10.00" fill="#000000">mp_sub_ui</text>
</a>
</g>
</g>
<!-- Node4671&#45;&gt;Node4712 -->
<g id="edge40" class="edge">
<title>Node4671&#45;&gt;Node4712</title>
<path fill="none" stroke="#191970" d="M278.0338,-187.7522C289.9482,-189.6001 302.841,-191.5998 314.686,-193.437"/>
<polygon fill="#191970" stroke="#191970" points="314.3562,-196.9276 324.7745,-195.0018 315.4292,-190.0103 314.3562,-196.9276"/>
</g>
<!-- Node4675&#45;&gt;Node4653 -->
<g id="edge31" class="edge">
<title>Node4675&#45;&gt;Node4653</title>
<path fill="none" stroke="#191970" d="M385.3436,-171.5123C390.5735,-174.0714 395.7254,-177.2096 400,-181 404.8903,-185.3364 448.0361,-260.0046 468.42,-295.5177"/>
<polygon fill="#191970" stroke="#191970" points="465.5049,-297.4702 473.515,-304.4049 471.5778,-293.9887 465.5049,-297.4702"/>
</g>
<!-- Node4675&#45;&gt;Node4672 -->
<g id="edge32" class="edge">
<title>Node4675&#45;&gt;Node4672</title>
<path fill="none" stroke="#191970" d="M381.0947,-152.4121C387.3782,-149.6274 394.0523,-146.4097 400,-143 421.4173,-130.7218 444.095,-113.9138 459.6326,-101.7335"/>
<polygon fill="#191970" stroke="#191970" points="461.8245,-104.4622 467.4767,-95.5009 457.4699,-98.9815 461.8245,-104.4622"/>
</g>
<!-- Node4675&#45;&gt;Node4713 -->
<g id="edge33" class="edge">
<title>Node4675&#45;&gt;Node4713</title>
<path fill="none" stroke="#191970" d="M378.9366,-171.5298C385.7107,-174.5164 393.1818,-177.8548 400,-181 416.7783,-188.7397 435.4102,-197.6848 450.3641,-204.9514"/>
<polygon fill="#191970" stroke="#191970" points="449.0807,-208.2194 459.6033,-209.4546 452.1477,-201.927 449.0807,-208.2194"/>
</g>
<!-- Node4681&#45;&gt;Node4653 -->
<g id="edge35" class="edge">
<title>Node4681&#45;&gt;Node4653</title>
<path fill="none" stroke="#191970" d="M382.5752,-314C400.9356,-314 425.8485,-314 445.7519,-314"/>
<polygon fill="#191970" stroke="#191970" points="445.9306,-317.5001 455.9306,-314 445.9306,-310.5001 445.9306,-317.5001"/>
</g>
</g>
</svg>
