<?xml version="1.0" encoding="UTF-8" standalone="no"?>
<!DOCTYPE svg PUBLIC "-//W3C//DTD SVG 1.1//EN"
 "http://www.w3.org/Graphics/SVG/1.1/DTD/svg11.dtd">
<!-- Generated by graphviz version 2.40.1 (20161225.0304)
 -->
<!-- Title: bfdec_divrem Pages: 1 -->
<!--zoomable 674 -->
<svg id="main" version="1.1" xmlns="http://www.w3.org/2000/svg" xmlns:xlink="http://www.w3.org/1999/xlink" xml:space="preserve" onload="init(evt)">
<style type="text/css"><![CDATA[
.edge:hover path { stroke: red; }
.edge:hover polygon { stroke: red; fill: red; }
]]></style>
<script type="text/javascript"><![CDATA[
var edges = document.getElementsByTagName('g');
if (edges && edges.length) {
  for (var i=0;i<edges.length;i++) {
    if (edges[i].id.substr(0,4)=='edge') {
      edges[i].setAttribute('class','edge');
    }
  }
}
]]></script>
        <defs>
                <circle id="rim" cx="0" cy="0" r="7"/>
                <circle id="rim2" cx="0" cy="0" r="3.5"/>
                <g id="zoomPlus">
                        <use xlink:href="#rim" fill="#404040">
                                <set attributeName="fill" to="#808080" begin="zoomplus.mouseover" end="zoomplus.mouseout"/>
                        </use>
                        <path d="M-4,0h8M0,-4v8" fill="none" stroke="white" stroke-width="1.5" pointer-events="none"/>
                </g>
                <g id="zoomMin">
                        <use xlink:href="#rim" fill="#404040">
                                <set attributeName="fill" to="#808080" begin="zoomminus.mouseover" end="zoomminus.mouseout"/>
                        </use>
                        <path d="M-4,0h8" fill="none" stroke="white" stroke-width="1.5" pointer-events="none"/>
                </g>
                <g id="dirArrow">
                        <path fill="none" stroke="white" stroke-width="1.5" d="M0,-3.0v7 M-2.5,-0.5L0,-3.0L2.5,-0.5"/>
                </g>
               <g id="resetDef">
                       <use xlink:href="#rim2" fill="#404040">
                               <set attributeName="fill" to="#808080" begin="reset.mouseover" end="reset.mouseout"/>
                       </use>
               </g>
        </defs>

<script type="text/javascript">
var viewWidth = 845;
var viewHeight = 674;
var sectionId = 'dynsection-309';
</script>
<script xlink:href="svgpan.js"/>
<svg id="graph" class="graph">
<g id="viewport">
<title>bfdec_divrem</title>
<!-- Node11180 -->
<g id="node1" class="node">
<title>Node11180</title>
<polygon fill="#bfbfbf" stroke="#000000" points="0,-266.5 0,-285.5 75,-285.5 75,-266.5 0,-266.5"/>
<text text-anchor="middle" x="37.5" y="-273.5" font-family="Helvetica,sans-Serif" font-size="10.00" fill="#000000">bfdec_divrem</text>
</g>
<!-- Node11181 -->
<g id="node2" class="node">
<title>Node11181</title>
<g id="a_node2"><a xlink:href="libbf_8h.html#a7cb137686dce1e04af24aa61a1a177a6" target="_top" xlink:title="bfdec_add_si">
<polygon fill="none" stroke="#000000" points="115.5,-570.5 115.5,-589.5 189.5,-589.5 189.5,-570.5 115.5,-570.5"/>
<text text-anchor="middle" x="152.5" y="-577.5" font-family="Helvetica,sans-Serif" font-size="10.00" fill="#000000">bfdec_add_si</text>
</a>
</g>
</g>
<!-- Node11180&#45;&gt;Node11181 -->
<g id="edge1" class="edge">
<title>Node11180&#45;&gt;Node11181</title>
<path fill="none" stroke="#191970" d="M39.0106,-285.6373C46.0555,-329.628 76.7872,-511.1436 111,-556 113.4843,-559.2572 116.5473,-562.149 119.8748,-564.6956"/>
<polygon fill="#191970" stroke="#191970" points="118.223,-567.7968 128.5115,-570.3262 122.0459,-561.9329 118.223,-567.7968"/>
</g>
<!-- Node11182 -->
<g id="node3" class="node">
<title>Node11182</title>
<g id="a_node3"><a xlink:href="libbf_8h.html#ac9371a99b2946966d278072ee4c1e779" target="_top" xlink:title="bfdec_init">
<polygon fill="none" stroke="#000000" points="368,-570.5 368,-589.5 427,-589.5 427,-570.5 368,-570.5"/>
<text text-anchor="middle" x="397.5" y="-577.5" font-family="Helvetica,sans-Serif" font-size="10.00" fill="#000000">bfdec_init</text>
</a>
</g>
</g>
<!-- Node11180&#45;&gt;Node11182 -->
<g id="edge22" class="edge">
<title>Node11180&#45;&gt;Node11182</title>
<path fill="none" stroke="#191970" d="M38.0212,-285.8972C40.2978,-318.9849 52.1205,-426.9331 111,-485 179.4247,-552.4804 296.8423,-572.0316 357.9441,-577.6937"/>
<polygon fill="#191970" stroke="#191970" points="357.7027,-581.1857 367.9628,-578.5435 358.2944,-574.2107 357.7027,-581.1857"/>
</g>
<!-- Node11204 -->
<g id="node11" class="node">
<title>Node11204</title>
<g id="a_node11"><a xlink:href="libbf_8h.html#ab992311e37e462dff2a8c330320a06c4" target="_top" xlink:title="bfdec_set_zero">
<polygon fill="none" stroke="#ff0000" points="754,-190.5 754,-209.5 837,-209.5 837,-190.5 754,-190.5"/>
<text text-anchor="middle" x="795.5" y="-197.5" font-family="Helvetica,sans-Serif" font-size="10.00" fill="#000000">bfdec_set_zero</text>
</a>
</g>
</g>
<!-- Node11180&#45;&gt;Node11204 -->
<g id="edge41" class="edge">
<title>Node11180&#45;&gt;Node11204</title>
<path fill="none" stroke="#191970" d="M40.889,-266.3136C49.301,-243.5621 73.2246,-186.1374 111,-153 167.4182,-103.5087 190.9507,-86 266,-86 266,-86 266,-86 547.5,-86 640.2093,-86 736.0612,-152.5825 776.1047,-183.978"/>
<polygon fill="#191970" stroke="#191970" points="773.9969,-186.7738 783.9947,-190.2804 778.3658,-181.3045 773.9969,-186.7738"/>
</g>
<!-- Node11209 -->
<g id="node12" class="node">
<title>Node11209</title>
<g id="a_node12"><a xlink:href="libbf_8h.html#a432cfe0b33bf61782ef53b643aeb1e0f" target="_top" xlink:title="bfdec_set_nan">
<polygon fill="none" stroke="#ff0000" points="507.5,-266.5 507.5,-285.5 587.5,-285.5 587.5,-266.5 507.5,-266.5"/>
<text text-anchor="middle" x="547.5" y="-273.5" font-family="Helvetica,sans-Serif" font-size="10.00" fill="#000000">bfdec_set_nan</text>
</a>
</g>
</g>
<!-- Node11180&#45;&gt;Node11209 -->
<g id="edge40" class="edge">
<title>Node11180&#45;&gt;Node11209</title>
<path fill="none" stroke="#191970" d="M50.6878,-266.4698C105.2778,-228.2801 317.2327,-92.5509 457,-181 488.5828,-200.9866 465.1969,-232.0215 493,-257 494.8914,-258.6993 496.9434,-260.2484 499.1054,-261.6603"/>
<polygon fill="#191970" stroke="#191970" points="497.4295,-264.733 507.8836,-266.4543 500.7847,-258.5894 497.4295,-264.733"/>
</g>
<!-- Node11226 -->
<g id="node16" class="node">
<title>Node11226</title>
<g id="a_node16"><a xlink:href="libbf_8h.html#a96772409266732dd1e61dc3727571d61" target="_top" xlink:title="bfdec_delete">
<polygon fill="none" stroke="#000000" points="230,-646.5 230,-665.5 302,-665.5 302,-646.5 230,-646.5"/>
<text text-anchor="middle" x="266" y="-653.5" font-family="Helvetica,sans-Serif" font-size="10.00" fill="#000000">bfdec_delete</text>
</a>
</g>
</g>
<!-- Node11180&#45;&gt;Node11226 -->
<g id="edge21" class="edge">
<title>Node11180&#45;&gt;Node11226</title>
<path fill="none" stroke="#191970" d="M38.4569,-285.6083C43.4458,-333.9271 67.9068,-549.9731 111,-599 138.565,-630.3606 184.9255,-644.4869 219.7783,-650.8383"/>
<polygon fill="#191970" stroke="#191970" points="219.294,-654.3059 229.7339,-652.5011 220.4471,-647.4015 219.294,-654.3059"/>
</g>
<!-- Node11218 -->
<g id="node18" class="node">
<title>Node11218</title>
<g id="a_node18"><a xlink:href="libbf_8h.html#ab76f65059ac29df0d8ed9f719db8ba06" target="_top" xlink:title="bfdec_cmpu">
<polygon fill="none" stroke="#ff0000" points="231,-266.5 231,-285.5 301,-285.5 301,-266.5 231,-266.5"/>
<text text-anchor="middle" x="266" y="-273.5" font-family="Helvetica,sans-Serif" font-size="10.00" fill="#000000">bfdec_cmpu</text>
</a>
</g>
</g>
<!-- Node11180&#45;&gt;Node11218 -->
<g id="edge20" class="edge">
<title>Node11180&#45;&gt;Node11218</title>
<path fill="none" stroke="#191970" d="M75.2321,-276C115.1643,-276 178.1771,-276 220.7509,-276"/>
<polygon fill="#191970" stroke="#191970" points="220.8406,-279.5001 230.8406,-276 220.8405,-272.5001 220.8406,-279.5001"/>
</g>
<!-- Node11228 -->
<g id="node19" class="node">
<title>Node11228</title>
<g id="a_node19"><a xlink:href="libbf_8h.html#a97b9ac0bfa60e46f0348def0decccbc8" target="_top" xlink:title="bfdec_is_nan">
<polygon fill="none" stroke="#000000" points="115.5,-38.5 115.5,-57.5 189.5,-57.5 189.5,-38.5 115.5,-38.5"/>
<text text-anchor="middle" x="152.5" y="-45.5" font-family="Helvetica,sans-Serif" font-size="10.00" fill="#000000">bfdec_is_nan</text>
</a>
</g>
</g>
<!-- Node11180&#45;&gt;Node11228 -->
<g id="edge23" class="edge">
<title>Node11180&#45;&gt;Node11228</title>
<path fill="none" stroke="#191970" d="M38.6143,-266.3204C42.6876,-234.8368 59.3391,-133.816 111,-72 113.762,-68.6951 117.1032,-65.7456 120.6765,-63.1429"/>
<polygon fill="#191970" stroke="#191970" points="122.6994,-66.0046 129.2724,-57.6952 118.9522,-60.092 122.6994,-66.0046"/>
</g>
<!-- Node11229 -->
<g id="node20" class="node">
<title>Node11229</title>
<g id="a_node20"><a xlink:href="libbf_8h.html#ae5aa2c2f63fe392a1ab15f1012c512e8" target="_top" xlink:title="bfdec_mul_si">
<polygon fill="none" stroke="#000000" points="115.5,-456.5 115.5,-475.5 189.5,-475.5 189.5,-456.5 115.5,-456.5"/>
<text text-anchor="middle" x="152.5" y="-463.5" font-family="Helvetica,sans-Serif" font-size="10.00" fill="#000000">bfdec_mul_si</text>
</a>
</g>
</g>
<!-- Node11180&#45;&gt;Node11229 -->
<g id="edge24" class="edge">
<title>Node11180&#45;&gt;Node11229</title>
<path fill="none" stroke="#191970" d="M43.361,-285.6833C61.5049,-315.6602 116.9752,-407.3069 141.0974,-447.1609"/>
<polygon fill="#191970" stroke="#191970" points="138.3406,-449.3656 146.5129,-456.1083 144.3291,-445.741 138.3406,-449.3656"/>
</g>
<!-- Node11235 -->
<g id="node24" class="node">
<title>Node11235</title>
<g id="a_node24"><a xlink:href="libbf_8h.html#a807d4e601bf73a30844a7c84f34961f1" target="_top" xlink:title="bfdec_round">
<polygon fill="none" stroke="#000000" points="512.5,-228.5 512.5,-247.5 582.5,-247.5 582.5,-228.5 512.5,-228.5"/>
<text text-anchor="middle" x="547.5" y="-235.5" font-family="Helvetica,sans-Serif" font-size="10.00" fill="#000000">bfdec_round</text>
</a>
</g>
</g>
<!-- Node11180&#45;&gt;Node11235 -->
<g id="edge37" class="edge">
<title>Node11180&#45;&gt;Node11235</title>
<path fill="none" stroke="#191970" d="M42.5065,-266.2479C52.7184,-247.3569 77.819,-205.7252 111,-184 156.82,-153.9994 175.8461,-160.1766 230,-152 329.7737,-136.9353 363.723,-109.5147 457,-148 492.1293,-162.4941 520.8068,-197.9599 535.911,-219.7938"/>
<polygon fill="#191970" stroke="#191970" points="533.0697,-221.8414 541.5325,-228.2157 538.8918,-217.9552 533.0697,-221.8414"/>
</g>
<!-- Node11221 -->
<g id="node25" class="node">
<title>Node11221</title>
<g id="a_node25"><a xlink:href="libbf_8h.html#ae69271a2b54f2ce850db0c96c3b20a82" target="_top" xlink:title="bfdec_set">
<polygon fill="none" stroke="#ff0000" points="236.5,-228.5 236.5,-247.5 295.5,-247.5 295.5,-228.5 236.5,-228.5"/>
<text text-anchor="middle" x="266" y="-235.5" font-family="Helvetica,sans-Serif" font-size="10.00" fill="#000000">bfdec_set</text>
</a>
</g>
</g>
<!-- Node11180&#45;&gt;Node11221 -->
<g id="edge39" class="edge">
<title>Node11180&#45;&gt;Node11221</title>
<path fill="none" stroke="#191970" d="M75.2321,-269.7251C116.9209,-262.7922 183.7654,-251.6758 226.2468,-244.611"/>
<polygon fill="#191970" stroke="#191970" points="226.9399,-248.0439 236.2302,-242.9508 225.7915,-241.1388 226.9399,-248.0439"/>
</g>
<!-- Node11236 -->
<g id="node26" class="node">
<title>Node11236</title>
<g id="a_node26"><a xlink:href="libbf_8h.html#ac3255e37957d4be7117b1d9bfc4fcf11" target="_top" xlink:title="bfdec_sub">
<polygon fill="none" stroke="#000000" points="235,-304.5 235,-323.5 297,-323.5 297,-304.5 235,-304.5"/>
<text text-anchor="middle" x="266" y="-311.5" font-family="Helvetica,sans-Serif" font-size="10.00" fill="#000000">bfdec_sub</text>
</a>
</g>
</g>
<!-- Node11180&#45;&gt;Node11236 -->
<g id="edge42" class="edge">
<title>Node11180&#45;&gt;Node11236</title>
<path fill="none" stroke="#191970" d="M75.2237,-283.4449C86.697,-285.6392 99.3515,-287.9894 111,-290 149.4528,-296.6371 193.4241,-303.3639 224.6869,-308.0003"/>
<polygon fill="#191970" stroke="#191970" points="224.3716,-311.4916 234.7755,-309.4894 225.3938,-304.5666 224.3716,-311.4916"/>
</g>
<!-- Node11238 -->
<g id="node28" class="node">
<title>Node11238</title>
<g id="a_node28"><a xlink:href="libbf_8c.html#a4fe4f91a21701a55cffbc44f1eb141b6" target="_top" xlink:title="bfdec_tdivremu">
<polygon fill="none" stroke="#000000" points="111,-342.5 111,-361.5 194,-361.5 194,-342.5 111,-342.5"/>
<text text-anchor="middle" x="152.5" y="-349.5" font-family="Helvetica,sans-Serif" font-size="10.00" fill="#000000">bfdec_tdivremu</text>
</a>
</g>
</g>
<!-- Node11180&#45;&gt;Node11238 -->
<g id="edge45" class="edge">
<title>Node11180&#45;&gt;Node11238</title>
<path fill="none" stroke="#191970" d="M50.2657,-285.57C64.7357,-296.2899 89.1551,-313.9973 111,-328 115.8173,-331.0879 121.0402,-334.2482 126.1035,-337.2193"/>
<polygon fill="#191970" stroke="#191970" points="124.5117,-340.3416 134.9228,-342.3064 128.0093,-334.278 124.5117,-340.3416"/>
</g>
<!-- Node11197 -->
<g id="node30" class="node">
<title>Node11197</title>
<g id="a_node30"><a xlink:href="libbf_8c.html#a4ae6bd03b3af1b742666f50df5a52cb9" target="_top" xlink:title="get_digit">
<polygon fill="none" stroke="#ff0000" points="126,-.5 126,-19.5 179,-19.5 179,-.5 126,-.5"/>
<text text-anchor="middle" x="152.5" y="-7.5" font-family="Helvetica,sans-Serif" font-size="10.00" fill="#000000">get_digit</text>
</a>
</g>
</g>
<!-- Node11180&#45;&gt;Node11197 -->
<g id="edge53" class="edge">
<title>Node11180&#45;&gt;Node11197</title>
<path fill="none" stroke="#191970" d="M39.2694,-266.3482C46.9339,-225.4186 78.3549,-66.5726 111,-29 112.7281,-27.0111 114.7073,-25.2183 116.8434,-23.6043"/>
<polygon fill="#191970" stroke="#191970" points="118.9439,-26.4228 125.6593,-18.2281 115.2993,-20.4464 118.9439,-26.4228"/>
</g>
<!-- Node11181&#45;&gt;Node11182 -->
<g id="edge2" class="edge">
<title>Node11181&#45;&gt;Node11182</title>
<path fill="none" stroke="#191970" d="M189.7102,-580C235.0104,-580 311.2022,-580 357.6604,-580"/>
<polygon fill="#191970" stroke="#191970" points="357.6649,-583.5001 367.6649,-580 357.6649,-576.5001 357.6649,-583.5001"/>
</g>
<!-- Node11184 -->
<g id="node5" class="node">
<title>Node11184</title>
<g id="a_node5"><a xlink:href="libbf_8h.html#a4c3b1cee330551b12fd6ae2fe5421031" target="_top" xlink:title="bfdec_set_si">
<polygon fill="none" stroke="#000000" points="230,-456.5 230,-475.5 302,-475.5 302,-456.5 230,-456.5"/>
<text text-anchor="middle" x="266" y="-463.5" font-family="Helvetica,sans-Serif" font-size="10.00" fill="#000000">bfdec_set_si</text>
</a>
</g>
</g>
<!-- Node11181&#45;&gt;Node11184 -->
<g id="edge4" class="edge">
<title>Node11181&#45;&gt;Node11184</title>
<path fill="none" stroke="#191970" d="M162.1769,-570.2804C181.5262,-550.8459 225.1909,-506.9888 249.2726,-482.8011"/>
<polygon fill="#191970" stroke="#191970" points="251.7723,-485.251 256.3475,-475.695 246.8117,-480.3122 251.7723,-485.251"/>
</g>
<!-- Node11211 -->
<g id="node13" class="node">
<title>Node11211</title>
<g id="a_node13"><a xlink:href="libbf_8h.html#a2ab5a868db6e2d3d41c9b95e561054d3" target="_top" xlink:title="bfdec_add">
<polygon fill="none" stroke="#000000" points="235,-608.5 235,-627.5 297,-627.5 297,-608.5 235,-608.5"/>
<text text-anchor="middle" x="266" y="-615.5" font-family="Helvetica,sans-Serif" font-size="10.00" fill="#000000">bfdec_add</text>
</a>
</g>
</g>
<!-- Node11181&#45;&gt;Node11211 -->
<g id="edge14" class="edge">
<title>Node11181&#45;&gt;Node11211</title>
<path fill="none" stroke="#191970" d="M181.1408,-589.589C195.2549,-594.3144 212.4724,-600.0789 227.7009,-605.1774"/>
<polygon fill="#191970" stroke="#191970" points="226.7745,-608.5581 237.3683,-608.4141 228.9969,-601.9203 226.7745,-608.5581"/>
</g>
<!-- Node11181&#45;&gt;Node11226 -->
<g id="edge18" class="edge">
<title>Node11181&#45;&gt;Node11226</title>
<path fill="none" stroke="#191970" d="M164.4544,-589.6623C179.3506,-601.495 205.8001,-621.8318 230,-637 232.4701,-638.5482 235.0788,-640.0908 237.7174,-641.5894"/>
<polygon fill="#191970" stroke="#191970" points="236.1903,-644.7432 246.6453,-646.4591 239.5423,-638.5979 236.1903,-644.7432"/>
</g>
<!-- Node11183 -->
<g id="node4" class="node">
<title>Node11183</title>
<g id="a_node4"><a xlink:href="libbf_8h.html#abacc1410890af049e02ebd788364ac48" target="_top" xlink:title="bf_init">
<polygon fill="none" stroke="#000000" points="526,-551.5 526,-570.5 569,-570.5 569,-551.5 526,-551.5"/>
<text text-anchor="middle" x="547.5" y="-558.5" font-family="Helvetica,sans-Serif" font-size="10.00" fill="#000000">bf_init</text>
</a>
</g>
</g>
<!-- Node11182&#45;&gt;Node11183 -->
<g id="edge3" class="edge">
<title>Node11182&#45;&gt;Node11183</title>
<path fill="none" stroke="#191970" d="M427.1352,-576.2462C452.6491,-573.0144 489.3825,-568.3616 515.5476,-565.0473"/>
<polygon fill="#191970" stroke="#191970" points="516.2229,-568.4898 525.7037,-563.7609 515.3432,-561.5453 516.2229,-568.4898"/>
</g>
<!-- Node11185 -->
<g id="node6" class="node">
<title>Node11185</title>
<g id="a_node6"><a xlink:href="libbf_8h.html#a3a0734cc58dd4feba2c300d053f53e36" target="_top" xlink:title="bfdec_set_ui">
<polygon fill="none" stroke="#000000" points="361.5,-456.5 361.5,-475.5 433.5,-475.5 433.5,-456.5 361.5,-456.5"/>
<text text-anchor="middle" x="397.5" y="-463.5" font-family="Helvetica,sans-Serif" font-size="10.00" fill="#000000">bfdec_set_ui</text>
</a>
</g>
</g>
<!-- Node11184&#45;&gt;Node11185 -->
<g id="edge5" class="edge">
<title>Node11184&#45;&gt;Node11185</title>
<path fill="none" stroke="#191970" d="M302.2811,-466C317.3726,-466 335.0758,-466 351.0966,-466"/>
<polygon fill="#191970" stroke="#191970" points="351.3374,-469.5001 361.3374,-466 351.3373,-462.5001 351.3374,-469.5001"/>
</g>
<!-- Node11186 -->
<g id="node7" class="node">
<title>Node11186</title>
<g id="a_node7"><a xlink:href="libbf_8h.html#aa84c22d9104847e3aa0ab161a8c2af22" target="_top" xlink:title="bfdec_resize">
<polygon fill="none" stroke="#ff0000" points="759.5,-421.5 759.5,-440.5 831.5,-440.5 831.5,-421.5 759.5,-421.5"/>
<text text-anchor="middle" x="795.5" y="-428.5" font-family="Helvetica,sans-Serif" font-size="10.00" fill="#000000">bfdec_resize</text>
</a>
</g>
</g>
<!-- Node11185&#45;&gt;Node11186 -->
<g id="edge6" class="edge">
<title>Node11185&#45;&gt;Node11186</title>
<path fill="none" stroke="#191970" d="M433.5218,-462.8323C505.8574,-456.4711 668.7053,-442.1503 748.9759,-435.0913"/>
<polygon fill="#191970" stroke="#191970" points="749.6179,-438.5485 759.2728,-434.1858 749.0046,-431.5754 749.6179,-438.5485"/>
</g>
<!-- Node11188 -->
<g id="node8" class="node">
<title>Node11188</title>
<g id="a_node8"><a xlink:href="libbf_8h.html#acd3459551d5c61344889ba07a276b0a0" target="_top" xlink:title="bfdec_normalize_and\l_round">
<polygon fill="none" stroke="#ff0000" points="493,-375 493,-405 602,-405 602,-375 493,-375"/>
<text text-anchor="start" x="501" y="-393" font-family="Helvetica,sans-Serif" font-size="10.00" fill="#000000">bfdec_normalize_and</text>
<text text-anchor="middle" x="547.5" y="-382" font-family="Helvetica,sans-Serif" font-size="10.00" fill="#000000">_round</text>
</a>
</g>
</g>
<!-- Node11185&#45;&gt;Node11188 -->
<g id="edge7" class="edge">
<title>Node11185&#45;&gt;Node11188</title>
<path fill="none" stroke="#191970" d="M432.3601,-456.4951C440.594,-453.8076 449.2333,-450.6145 457,-447 478.5036,-436.9924 501.0795,-422.7807 518.3039,-411.0518"/>
<polygon fill="#191970" stroke="#191970" points="520.5577,-413.7485 526.7893,-405.1801 516.5745,-407.9923 520.5577,-413.7485"/>
</g>
<!-- Node11185&#45;&gt;Node11209 -->
<g id="edge13" class="edge">
<title>Node11185&#45;&gt;Node11209</title>
<path fill="none" stroke="#191970" d="M433.7491,-459.7426C442.1196,-456.938 450.473,-452.8777 457,-447 486.577,-420.3655 474.5647,-400.2752 493,-365 506.1701,-339.7996 523.6745,-312.0493 535.2496,-294.3461"/>
<polygon fill="#191970" stroke="#191970" points="538.4183,-295.8989 541.005,-285.6246 532.5758,-292.0433 538.4183,-295.8989"/>
</g>
<!-- Node11188&#45;&gt;Node11186 -->
<g id="edge8" class="edge">
<title>Node11188&#45;&gt;Node11186</title>
<path fill="none" stroke="#191970" d="M602.2317,-399.0484C646.3773,-406.3466 707.7689,-416.4961 749.4281,-423.3833"/>
<polygon fill="#191970" stroke="#191970" points="748.8726,-426.8389 759.3096,-425.0169 750.0144,-419.9326 748.8726,-426.8389"/>
</g>
<!-- Node11193 -->
<g id="node9" class="node">
<title>Node11193</title>
<g id="a_node9"><a xlink:href="libbf_8c.html#aec64568757dfbfcb93d12168d4a9306a" target="_top" xlink:title="__bfdec_round">
<polygon fill="none" stroke="#ff0000" points="638,-266.5 638,-285.5 718,-285.5 718,-266.5 638,-266.5"/>
<text text-anchor="middle" x="678" y="-273.5" font-family="Helvetica,sans-Serif" font-size="10.00" fill="#000000">__bfdec_round</text>
</a>
</g>
</g>
<!-- Node11188&#45;&gt;Node11193 -->
<g id="edge9" class="edge">
<title>Node11188&#45;&gt;Node11193</title>
<path fill="none" stroke="#191970" d="M564.8294,-374.8617C589.3722,-353.422 634.074,-314.3721 659.3285,-292.3108"/>
<polygon fill="#191970" stroke="#191970" points="661.8617,-294.7452 667.0902,-285.5304 657.2565,-289.4734 661.8617,-294.7452"/>
</g>
<!-- Node11193&#45;&gt;Node11186 -->
<g id="edge10" class="edge">
<title>Node11193&#45;&gt;Node11186</title>
<path fill="none" stroke="#191970" d="M685.3502,-285.6959C704.6382,-311.1397 756.9303,-380.1208 781.8882,-413.044"/>
<polygon fill="#191970" stroke="#191970" points="779.3224,-415.453 788.1526,-421.3077 784.9007,-411.2243 779.3224,-415.453"/>
</g>
<!-- Node11202 -->
<g id="node10" class="node">
<title>Node11202</title>
<g id="a_node10"><a xlink:href="libbf_8h.html#a51327c40664840e14a608d3694536840" target="_top" xlink:title="bfdec_set_inf">
<polygon fill="none" stroke="#ff0000" points="758,-285.5 758,-304.5 833,-304.5 833,-285.5 758,-285.5"/>
<text text-anchor="middle" x="795.5" y="-292.5" font-family="Helvetica,sans-Serif" font-size="10.00" fill="#000000">bfdec_set_inf</text>
</a>
</g>
</g>
<!-- Node11193&#45;&gt;Node11202 -->
<g id="edge11" class="edge">
<title>Node11193&#45;&gt;Node11202</title>
<path fill="none" stroke="#191970" d="M718.1082,-282.4856C727.6806,-284.0335 737.9896,-285.7004 747.8638,-287.2971"/>
<polygon fill="#191970" stroke="#191970" points="747.5169,-290.7864 757.9474,-288.9277 748.6344,-283.8762 747.5169,-290.7864"/>
</g>
<!-- Node11193&#45;&gt;Node11204 -->
<g id="edge12" class="edge">
<title>Node11193&#45;&gt;Node11204</title>
<path fill="none" stroke="#191970" d="M692.8815,-266.3745C712.8345,-253.4688 748.472,-230.4181 772.0516,-215.1666"/>
<polygon fill="#191970" stroke="#191970" points="774.2436,-217.9172 780.7394,-209.5473 770.4418,-212.0395 774.2436,-217.9172"/>
</g>
<!-- Node11212 -->
<g id="node14" class="node">
<title>Node11212</title>
<g id="a_node14"><a xlink:href="libbf_8c.html#a3ebbc1c7473b2ad84ced2b263bf38bae" target="_top" xlink:title="bf_op2">
<polygon fill="none" stroke="#ff0000" points="374.5,-532.5 374.5,-551.5 420.5,-551.5 420.5,-532.5 374.5,-532.5"/>
<text text-anchor="middle" x="397.5" y="-539.5" font-family="Helvetica,sans-Serif" font-size="10.00" fill="#000000">bf_op2</text>
</a>
</g>
</g>
<!-- Node11211&#45;&gt;Node11212 -->
<g id="edge15" class="edge">
<title>Node11211&#45;&gt;Node11212</title>
<path fill="none" stroke="#191970" d="M275.8928,-608.2156C289.0522,-595.6863 313.5152,-574.04 338,-561 346.2752,-556.5928 355.7477,-552.9953 364.6648,-550.1633"/>
<polygon fill="#191970" stroke="#191970" points="365.8031,-553.4767 374.4031,-547.2887 363.8213,-546.7631 365.8031,-553.4767"/>
</g>
<!-- Node11216 -->
<g id="node15" class="node">
<title>Node11216</title>
<g id="a_node15"><a xlink:href="libbf_8c.html#aa5c7e54724217d71eb29c55c98e2413f" target="_top" xlink:title="__bfdec_add">
<polygon fill="none" stroke="#ff0000" points="361.5,-608.5 361.5,-627.5 433.5,-627.5 433.5,-608.5 361.5,-608.5"/>
<text text-anchor="middle" x="397.5" y="-615.5" font-family="Helvetica,sans-Serif" font-size="10.00" fill="#000000">__bfdec_add</text>
</a>
</g>
</g>
<!-- Node11211&#45;&gt;Node11216 -->
<g id="edge17" class="edge">
<title>Node11211&#45;&gt;Node11216</title>
<path fill="none" stroke="#191970" d="M297.1637,-618C313.29,-618 333.2967,-618 351.1921,-618"/>
<polygon fill="#191970" stroke="#191970" points="351.4394,-621.5001 361.4393,-618 351.4393,-614.5001 351.4394,-621.5001"/>
</g>
<!-- Node11212&#45;&gt;Node11183 -->
<g id="edge16" class="edge">
<title>Node11212&#45;&gt;Node11183</title>
<path fill="none" stroke="#191970" d="M420.6088,-544.9271C445.9677,-548.1392 486.8511,-553.3178 515.3346,-556.9257"/>
<polygon fill="#191970" stroke="#191970" points="515.2253,-560.4398 525.5859,-558.2242 516.105,-553.4952 515.2253,-560.4398"/>
</g>
<!-- Node11227 -->
<g id="node17" class="node">
<title>Node11227</title>
<g id="a_node17"><a xlink:href="libbf_8h.html#a2b9d906b21e903f2f7f1c9044674ab7d" target="_top" xlink:title="bf_delete">
<polygon fill="none" stroke="#ff0000" points="369.5,-646.5 369.5,-665.5 425.5,-665.5 425.5,-646.5 369.5,-646.5"/>
<text text-anchor="middle" x="397.5" y="-653.5" font-family="Helvetica,sans-Serif" font-size="10.00" fill="#000000">bf_delete</text>
</a>
</g>
</g>
<!-- Node11226&#45;&gt;Node11227 -->
<g id="edge19" class="edge">
<title>Node11226&#45;&gt;Node11227</title>
<path fill="none" stroke="#191970" d="M302.2811,-656C319.9478,-656 341.1936,-656 359.1298,-656"/>
<polygon fill="#191970" stroke="#191970" points="359.2559,-659.5001 369.2559,-656 359.2559,-652.5001 359.2559,-659.5001"/>
</g>
<!-- Node11229&#45;&gt;Node11182 -->
<g id="edge25" class="edge">
<title>Node11229&#45;&gt;Node11182</title>
<path fill="none" stroke="#191970" d="M184.1043,-475.5179C215.4753,-485.7696 264.2092,-503.9084 302,-528 320.3023,-539.6677 319.2237,-550.1114 338,-561 344.1765,-564.5818 351.1119,-567.5781 358.0072,-570.053"/>
<polygon fill="#191970" stroke="#191970" points="357.3953,-573.5351 367.9878,-573.3135 359.5691,-566.8811 357.3953,-573.5351"/>
</g>
<!-- Node11229&#45;&gt;Node11184 -->
<g id="edge26" class="edge">
<title>Node11229&#45;&gt;Node11184</title>
<path fill="none" stroke="#191970" d="M189.6641,-466C199.2608,-466 209.7092,-466 219.7088,-466"/>
<polygon fill="#191970" stroke="#191970" points="219.9125,-469.5001 229.9124,-466 219.9124,-462.5001 219.9125,-469.5001"/>
</g>
<!-- Node11229&#45;&gt;Node11226 -->
<g id="edge36" class="edge">
<title>Node11229&#45;&gt;Node11226</title>
<path fill="none" stroke="#191970" d="M156.7134,-475.7573C171.9925,-511.0782 223.9111,-630.5337 230,-637 231.1991,-638.2734 232.5028,-639.4782 233.8797,-640.6157"/>
<polygon fill="#191970" stroke="#191970" points="232.1167,-643.6501 242.3473,-646.4045 236.0673,-637.8715 232.1167,-643.6501"/>
</g>
<!-- Node11230 -->
<g id="node21" class="node">
<title>Node11230</title>
<g id="a_node21"><a xlink:href="libbf_8h.html#a2afc9f7c942c27cc609877c776dd9a69" target="_top" xlink:title="bfdec_mul">
<polygon fill="none" stroke="#000000" points="235,-342.5 235,-361.5 297,-361.5 297,-342.5 235,-342.5"/>
<text text-anchor="middle" x="266" y="-349.5" font-family="Helvetica,sans-Serif" font-size="10.00" fill="#000000">bfdec_mul</text>
</a>
</g>
</g>
<!-- Node11229&#45;&gt;Node11230 -->
<g id="edge27" class="edge">
<title>Node11229&#45;&gt;Node11230</title>
<path fill="none" stroke="#191970" d="M162.1769,-456.2804C181.5262,-436.8459 225.1909,-392.9888 249.2726,-368.8011"/>
<polygon fill="#191970" stroke="#191970" points="251.7723,-371.251 256.3475,-361.695 246.8117,-366.3122 251.7723,-371.251"/>
</g>
<!-- Node11230&#45;&gt;Node11182 -->
<g id="edge31" class="edge">
<title>Node11230&#45;&gt;Node11182</title>
<path fill="none" stroke="#191970" d="M273.4282,-361.5403C281.5691,-372.4395 294.4709,-391.089 302,-409 328.9032,-472.9998 290.8236,-510.0673 338,-561 343.4402,-566.8733 350.6912,-570.9393 358.256,-573.7518"/>
<polygon fill="#191970" stroke="#191970" points="357.3075,-577.1216 367.8934,-576.6856 359.3462,-570.425 357.3075,-577.1216"/>
</g>
<!-- Node11230&#45;&gt;Node11186 -->
<g id="edge32" class="edge">
<title>Node11230&#45;&gt;Node11186</title>
<path fill="none" stroke="#191970" d="M272.7481,-361.8691C280.2795,-373.0631 292.6367,-391.9759 302,-409 320.0121,-441.7491 306.4172,-465.0134 338,-485 478.6762,-574.0243 693.0537,-482.5755 768.273,-445.2827"/>
<polygon fill="#191970" stroke="#191970" points="770.1903,-448.2358 777.5437,-440.6083 767.0388,-441.9853 770.1903,-448.2358"/>
</g>
<!-- Node11230&#45;&gt;Node11188 -->
<g id="edge34" class="edge">
<title>Node11230&#45;&gt;Node11188</title>
<path fill="none" stroke="#191970" d="M297.2277,-354.0682C335.1563,-356.819 401.0124,-362.3639 457,-371 465.3251,-372.2841 474.0392,-373.84 482.6332,-375.5023"/>
<polygon fill="#191970" stroke="#191970" points="482.1454,-378.9738 492.6362,-377.4927 483.5115,-372.1084 482.1454,-378.9738"/>
</g>
<!-- Node11230&#45;&gt;Node11202 -->
<g id="edge29" class="edge">
<title>Node11230&#45;&gt;Node11202</title>
<path fill="none" stroke="#191970" d="M297.1458,-348.6472C385.9648,-339.0859 640.9489,-311.6372 747.6485,-300.1512"/>
<polygon fill="#191970" stroke="#191970" points="748.2349,-303.6083 757.8028,-299.0581 747.4856,-296.6486 748.2349,-303.6083"/>
</g>
<!-- Node11230&#45;&gt;Node11204 -->
<g id="edge30" class="edge">
<title>Node11230&#45;&gt;Node11204</title>
<path fill="none" stroke="#191970" d="M288.9955,-342.3375C293.6287,-339.7381 298.2281,-336.6224 302,-333 324.9822,-310.929 313.308,-291.1399 338,-271 394.3075,-225.0732 421.6897,-232.9516 493,-219 579.8953,-201.9992 683.2484,-199.1387 743.8831,-199.1749"/>
<polygon fill="#191970" stroke="#191970" points="743.9546,-202.675 753.9661,-199.208 743.9777,-195.675 743.9546,-202.675"/>
</g>
<!-- Node11230&#45;&gt;Node11209 -->
<g id="edge28" class="edge">
<title>Node11230&#45;&gt;Node11209</title>
<path fill="none" stroke="#191970" d="M286.3438,-342.4248C291.6031,-339.6401 297.1472,-336.4191 302,-333 319.7434,-320.4986 318.2528,-309.0088 338,-300 388.7237,-276.8595 453.2377,-272.7575 497.184,-273.2318"/>
<polygon fill="#191970" stroke="#191970" points="497.2738,-276.7341 507.3391,-273.4267 497.4082,-269.7354 497.2738,-276.7341"/>
</g>
<!-- Node11231 -->
<g id="node22" class="node">
<title>Node11231</title>
<g id="a_node22"><a xlink:href="libbf_8c.html#a6706f2e3c674b947985821ba58c687cb" target="_top" xlink:title="mp_mul_basecase_dec">
<polygon fill="none" stroke="#ff0000" points="338,-380.5 338,-399.5 457,-399.5 457,-380.5 338,-380.5"/>
<text text-anchor="middle" x="397.5" y="-387.5" font-family="Helvetica,sans-Serif" font-size="10.00" fill="#000000">mp_mul_basecase_dec</text>
</a>
</g>
</g>
<!-- Node11230&#45;&gt;Node11231 -->
<g id="edge33" class="edge">
<title>Node11230&#45;&gt;Node11231</title>
<path fill="none" stroke="#191970" d="M297.1637,-361.0055C314.2886,-365.9541 335.7894,-372.1673 354.4909,-377.5715"/>
<polygon fill="#191970" stroke="#191970" points="353.6826,-380.9811 364.2612,-380.3949 355.626,-374.2562 353.6826,-380.9811"/>
</g>
<!-- Node11234 -->
<g id="node23" class="node">
<title>Node11234</title>
<g id="a_node23"><a xlink:href="libbf_8h.html#a61eaacce56ae40e8efdf0db48f86b28b" target="_top" xlink:title="bfdec_move">
<polygon fill="none" stroke="#ff0000" points="362.5,-418.5 362.5,-437.5 432.5,-437.5 432.5,-418.5 362.5,-418.5"/>
<text text-anchor="middle" x="397.5" y="-425.5" font-family="Helvetica,sans-Serif" font-size="10.00" fill="#000000">bfdec_move</text>
</a>
</g>
</g>
<!-- Node11230&#45;&gt;Node11234 -->
<g id="edge35" class="edge">
<title>Node11230&#45;&gt;Node11234</title>
<path fill="none" stroke="#191970" d="M281.4272,-361.5397C287.9367,-365.7535 295.4978,-370.9016 302,-376 319.0804,-389.3929 319.2237,-398.1114 338,-409 342.6903,-411.72 347.8181,-414.1022 353.0338,-416.1749"/>
<polygon fill="#191970" stroke="#191970" points="351.8468,-419.4675 362.4411,-419.5776 354.2278,-412.8849 351.8468,-419.4675"/>
</g>
<!-- Node11235&#45;&gt;Node11193 -->
<g id="edge38" class="edge">
<title>Node11235&#45;&gt;Node11193</title>
<path fill="none" stroke="#191970" d="M580.4307,-247.589C597.1224,-252.4494 617.5892,-258.4091 635.4595,-263.6127"/>
<polygon fill="#191970" stroke="#191970" points="634.5001,-266.9787 645.0799,-266.4141 636.4572,-260.2578 634.5001,-266.9787"/>
</g>
<!-- Node11236&#45;&gt;Node11212 -->
<g id="edge43" class="edge">
<title>Node11236&#45;&gt;Node11212</title>
<path fill="none" stroke="#191970" d="M290.9692,-323.5428C295.1388,-326.0786 299.0579,-329.2003 302,-333 344.5031,-387.893 303.5221,-424.742 338,-485 347.3243,-501.2963 362.7275,-515.8654 375.5254,-526.1947"/>
<polygon fill="#191970" stroke="#191970" points="373.4196,-528.9907 383.4692,-532.3458 377.7053,-523.456 373.4196,-528.9907"/>
</g>
<!-- Node11237 -->
<g id="node27" class="node">
<title>Node11237</title>
<g id="a_node27"><a xlink:href="libbf_8c.html#ac10038dd7f04c765ddc8fdb12e3257a2" target="_top" xlink:title="__bfdec_sub">
<polygon fill="none" stroke="#ff0000" points="361.5,-190.5 361.5,-209.5 433.5,-209.5 433.5,-190.5 361.5,-190.5"/>
<text text-anchor="middle" x="397.5" y="-197.5" font-family="Helvetica,sans-Serif" font-size="10.00" fill="#000000">__bfdec_sub</text>
</a>
</g>
</g>
<!-- Node11236&#45;&gt;Node11237 -->
<g id="edge44" class="edge">
<title>Node11236&#45;&gt;Node11237</title>
<path fill="none" stroke="#191970" d="M289.1538,-304.4977C293.7772,-301.8884 298.3325,-298.728 302,-295 326.8121,-269.7787 311.9318,-247.9207 338,-224 342.3638,-219.9957 347.4817,-216.6195 352.8522,-213.7831"/>
<polygon fill="#191970" stroke="#191970" points="354.4529,-216.8986 362.0402,-209.5038 351.4975,-210.5531 354.4529,-216.8986"/>
</g>
<!-- Node11238&#45;&gt;Node11185 -->
<g id="edge51" class="edge">
<title>Node11238&#45;&gt;Node11185</title>
<path fill="none" stroke="#191970" d="M190.9753,-361.511C222.5745,-370.4895 267.5706,-386.0304 302,-409 321.3529,-421.9113 318.2984,-434.6274 338,-447 342.3089,-449.706 347.0371,-452.0583 351.8862,-454.0957"/>
<polygon fill="#191970" stroke="#191970" points="350.6899,-457.3851 361.2817,-457.6358 353.158,-450.8347 350.6899,-457.3851"/>
</g>
<!-- Node11238&#45;&gt;Node11218 -->
<g id="edge46" class="edge">
<title>Node11238&#45;&gt;Node11218</title>
<path fill="none" stroke="#191970" d="M164.4544,-342.3377C179.3506,-330.505 205.8001,-310.1682 230,-295 232.4701,-293.4518 235.0788,-291.9092 237.7174,-290.4106"/>
<polygon fill="#191970" stroke="#191970" points="239.5423,-293.4021 246.6453,-285.5409 236.1903,-287.2568 239.5423,-293.4021"/>
</g>
<!-- Node11238&#45;&gt;Node11230 -->
<g id="edge49" class="edge">
<title>Node11238&#45;&gt;Node11230</title>
<path fill="none" stroke="#191970" d="M194.1187,-352C204.0734,-352 214.6983,-352 224.6412,-352"/>
<polygon fill="#191970" stroke="#191970" points="224.6993,-355.5001 234.6993,-352 224.6992,-348.5001 224.6993,-355.5001"/>
</g>
<!-- Node11238&#45;&gt;Node11221 -->
<g id="edge50" class="edge">
<title>Node11238&#45;&gt;Node11221</title>
<path fill="none" stroke="#191970" d="M158.4956,-342.2998C170.3065,-323.8043 198.2143,-283.0241 230,-257 231.7771,-255.545 233.6833,-254.1532 235.657,-252.832"/>
<polygon fill="#191970" stroke="#191970" points="237.7648,-255.6497 244.5525,-247.5147 234.1733,-249.6413 237.7648,-255.6497"/>
</g>
<!-- Node11238&#45;&gt;Node11236 -->
<g id="edge52" class="edge">
<title>Node11238&#45;&gt;Node11236</title>
<path fill="none" stroke="#191970" d="M181.1408,-342.411C195.2549,-337.6856 212.4724,-331.9211 227.7009,-326.8226"/>
<polygon fill="#191970" stroke="#191970" points="228.9969,-330.0797 237.3683,-323.5859 226.7745,-323.4419 228.9969,-330.0797"/>
</g>
<!-- Node11239 -->
<g id="node29" class="node">
<title>Node11239</title>
<g id="a_node29"><a xlink:href="libbf_8h.html#a10de87f3c9d3dc623ca131eaa468dd1b" target="_top" xlink:title="bfdec_div">
<polygon fill="none" stroke="#ff0000" points="236.5,-418.5 236.5,-437.5 295.5,-437.5 295.5,-418.5 236.5,-418.5"/>
<text text-anchor="middle" x="266" y="-425.5" font-family="Helvetica,sans-Serif" font-size="10.00" fill="#000000">bfdec_div</text>
</a>
</g>
</g>
<!-- Node11238&#45;&gt;Node11239 -->
<g id="edge47" class="edge">
<title>Node11238&#45;&gt;Node11239</title>
<path fill="none" stroke="#191970" d="M166.7754,-361.5967C182.3183,-372.0413 207.9121,-389.2272 230,-404 234.2263,-406.8266 238.7344,-409.8363 243.0799,-412.7347"/>
<polygon fill="#191970" stroke="#191970" points="241.3666,-415.7989 251.6288,-418.4333 245.2493,-409.9744 241.3666,-415.7989"/>
</g>
<!-- Node11239&#45;&gt;Node11212 -->
<g id="edge48" class="edge">
<title>Node11239&#45;&gt;Node11212</title>
<path fill="none" stroke="#191970" d="M289.1538,-437.5023C293.7772,-440.1116 298.3325,-443.272 302,-447 326.8121,-472.2213 311.9318,-494.0793 338,-518 345.5529,-524.9307 355.365,-529.98 364.8358,-533.6049"/>
<polygon fill="#191970" stroke="#191970" points="363.8784,-536.9762 374.4728,-536.8859 366.1345,-530.3497 363.8784,-536.9762"/>
</g>
</g>
</svg>
        <g id="navigator" transform="translate(0 0)" fill="#404254">
                <rect fill="#f2f5e9" fill-opacity="0.5" stroke="#606060" stroke-width=".5" x="0" y="0" width="60" height="60"/>
                <use id="zoomplus" xlink:href="#zoomPlus" x="17" y="9" onmousedown="handleZoom(evt,'in')"/>
                <use id="zoomminus" xlink:href="#zoomMin" x="42" y="9" onmousedown="handleZoom(evt,'out')"/>
                <use id="reset" xlink:href="#resetDef" x="30" y="36" onmousedown="handleReset()"/>
                <g id="arrowUp" xlink:href="#dirArrow" transform="translate(30 24)" onmousedown="handlePan(0,-1)">
                  <use xlink:href="#rim" fill="#404040">
                        <set attributeName="fill" to="#808080" begin="arrowUp.mouseover" end="arrowUp.mouseout"/>
                  </use>
                  <path fill="none" stroke="white" stroke-width="1.5" d="M0,-3.0v7 M-2.5,-0.5L0,-3.0L2.5,-0.5"/>
                </g>
                <g id="arrowRight" xlink:href="#dirArrow" transform="rotate(90) translate(36 -43)" onmousedown="handlePan(1,0)">
                  <use xlink:href="#rim" fill="#404040">
                        <set attributeName="fill" to="#808080" begin="arrowRight.mouseover" end="arrowRight.mouseout"/>
                  </use>
                  <path fill="none" stroke="white" stroke-width="1.5" d="M0,-3.0v7 M-2.5,-0.5L0,-3.0L2.5,-0.5"/>
                </g>
                <g id="arrowDown" xlink:href="#dirArrow" transform="rotate(180) translate(-30 -48)" onmousedown="handlePan(0,1)">
                  <use xlink:href="#rim" fill="#404040">
                        <set attributeName="fill" to="#808080" begin="arrowDown.mouseover" end="arrowDown.mouseout"/>
                  </use>
                  <path fill="none" stroke="white" stroke-width="1.5" d="M0,-3.0v7 M-2.5,-0.5L0,-3.0L2.5,-0.5"/>
                </g>
                <g id="arrowLeft" xlink:href="#dirArrow" transform="rotate(270) translate(-36 17)" onmousedown="handlePan(-1,0)">
                  <use xlink:href="#rim" fill="#404040">
                        <set attributeName="fill" to="#808080" begin="arrowLeft.mouseover" end="arrowLeft.mouseout"/>
                  </use>
                  <path fill="none" stroke="white" stroke-width="1.5" d="M0,-3.0v7 M-2.5,-0.5L0,-3.0L2.5,-0.5"/>
                </g>
        </g>
        <svg viewBox="0 0 15 15" width="100%" height="30px" preserveAspectRatio="xMaxYMin meet">
         <g id="arrow_out" transform="scale(0.3 0.3)">
          <a xlink:href="libbf_8c_a318508be097917ddd5d1ce187edea68b_cgraph_org.svg" target="_base">
           <rect id="button" ry="5" rx="5" y="6" x="6" height="38" width="38"
                fill="#f2f5e9" fill-opacity="0.5" stroke="#606060" stroke-width="1.0"/>
           <path id="arrow"
             d="M 11.500037,31.436501 C 11.940474,20.09759 22.043105,11.32322 32.158766,21.979434 L 37.068811,17.246167 C 37.068811,17.246167 37.088388,32 37.088388,32 L 22.160133,31.978069 C 22.160133,31.978069 26.997745,27.140456 26.997745,27.140456 C 18.528582,18.264221 13.291696,25.230495 11.500037,31.436501 z"
             style="fill:#404040;"/>
          </a>
         </g>
        </svg>
</svg>
