<?xml version="1.0" encoding="UTF-8" standalone="no"?>
<!DOCTYPE svg PUBLIC "-//W3C//DTD SVG 1.1//EN"
 "http://www.w3.org/Graphics/SVG/1.1/DTD/svg11.dtd">
<!-- Generated by graphviz version 2.40.1 (20161225.0304)
 -->
<!-- Title: bf_mul_log2_radix Pages: 1 -->
<svg width="335pt" height="28pt"
 viewBox="0.00 0.00 335.00 28.00" xmlns="http://www.w3.org/2000/svg" xmlns:xlink="http://www.w3.org/1999/xlink">
<g id="graph0" class="graph" transform="scale(1 1) rotate(0) translate(4 24)">
<title>bf_mul_log2_radix</title>
<!-- Node3467 -->
<g id="node1" class="node">
<title>Node3467</title>
<polygon fill="#bfbfbf" stroke="#000000" points="0,-.5 0,-19.5 95,-19.5 95,-.5 0,-.5"/>
<text text-anchor="middle" x="47.5" y="-7.5" font-family="Helvetica,sans-Serif" font-size="10.00" fill="#000000">bf_mul_log2_radix</text>
</g>
<!-- Node3468 -->
<g id="node2" class="node">
<title>Node3468</title>
<g id="a_node2"><a xlink:href="libbf_8c.html#a6894718ef8656587ffa22bdfebf1a78f" target="_top" xlink:title="ceil_log2">
<polygon fill="none" stroke="#000000" points="131,-.5 131,-19.5 186,-19.5 186,-.5 131,-.5"/>
<text text-anchor="middle" x="158.5" y="-7.5" font-family="Helvetica,sans-Serif" font-size="10.00" fill="#000000">ceil_log2</text>
</a>
</g>
</g>
<!-- Node3467&#45;&gt;Node3468 -->
<g id="edge1" class="edge">
<title>Node3467&#45;&gt;Node3468</title>
<path fill="none" stroke="#191970" d="M95.2182,-10C103.8117,-10 112.6592,-10 120.9144,-10"/>
<polygon fill="#191970" stroke="#191970" points="120.9905,-13.5001 130.9905,-10 120.9905,-6.5001 120.9905,-13.5001"/>
</g>
<!-- Node3469 -->
<g id="node3" class="node">
<title>Node3469</title>
<g id="a_node3"><a xlink:href="libbf_8c.html#a3ac3b86cc31b99a551947240e979c5d7" target="_top" xlink:title="clz">
<polygon fill="none" stroke="#000000" points="222,-.5 222,-19.5 251,-19.5 251,-.5 222,-.5"/>
<text text-anchor="middle" x="236.5" y="-7.5" font-family="Helvetica,sans-Serif" font-size="10.00" fill="#000000">clz</text>
</a>
</g>
</g>
<!-- Node3468&#45;&gt;Node3469 -->
<g id="edge2" class="edge">
<title>Node3468&#45;&gt;Node3469</title>
<path fill="none" stroke="#191970" d="M186.2195,-10C194.4079,-10 203.3221,-10 211.3397,-10"/>
<polygon fill="#191970" stroke="#191970" points="211.5647,-13.5001 221.5646,-10 211.5646,-6.5001 211.5647,-13.5001"/>
</g>
<!-- Node3470 -->
<g id="node4" class="node">
<title>Node3470</title>
<g id="a_node4"><a xlink:href="cutils_8h.html#a28eb00e6774a2dd724b86fb6f83c1bf6" target="_top" xlink:title="clz64">
<polygon fill="none" stroke="#000000" points="287,-.5 287,-19.5 327,-19.5 327,-.5 287,-.5"/>
<text text-anchor="middle" x="307" y="-7.5" font-family="Helvetica,sans-Serif" font-size="10.00" fill="#000000">clz64</text>
</a>
</g>
</g>
<!-- Node3469&#45;&gt;Node3470 -->
<g id="edge3" class="edge">
<title>Node3469&#45;&gt;Node3470</title>
<path fill="none" stroke="#191970" d="M251.1076,-10C258.5287,-10 267.8344,-10 276.7117,-10"/>
<polygon fill="#191970" stroke="#191970" points="276.7976,-13.5001 286.7975,-10 276.7975,-6.5001 276.7976,-13.5001"/>
</g>
</g>
</svg>
