<?xml version="1.0" encoding="UTF-8" standalone="no"?>
<!DOCTYPE svg PUBLIC "-//W3C//DTD SVG 1.1//EN"
 "http://www.w3.org/Graphics/SVG/1.1/DTD/svg11.dtd">
<!-- Generated by graphviz version 2.40.1 (20161225.0304)
 -->
<!-- Title: get_trig Pages: 1 -->
<svg width="335pt" height="46pt"
 viewBox="0.00 0.00 335.00 46.00" xmlns="http://www.w3.org/2000/svg" xmlns:xlink="http://www.w3.org/1999/xlink">
<g id="graph0" class="graph" transform="scale(1 1) rotate(0) translate(4 42)">
<title>get_trig</title>
<!-- Node11728 -->
<g id="node1" class="node">
<title>Node11728</title>
<polygon fill="#bfbfbf" stroke="#000000" points="0,-.5 0,-19.5 49,-19.5 49,-.5 0,-.5"/>
<text text-anchor="middle" x="24.5" y="-7.5" font-family="Helvetica,sans-Serif" font-size="10.00" fill="#000000">get_trig</text>
</g>
<!-- Node11729 -->
<g id="node2" class="node">
<title>Node11729</title>
<g id="a_node2"><a xlink:href="libbf_8c.html#ab3fb41bbc385686962ae17d42f66d2ab" target="_top" xlink:title="ntt_fft">
<polygon fill="none" stroke="#000000" points="85,-.5 85,-19.5 127,-19.5 127,-.5 85,-.5"/>
<text text-anchor="middle" x="106" y="-7.5" font-family="Helvetica,sans-Serif" font-size="10.00" fill="#000000">ntt_fft</text>
</a>
</g>
</g>
<!-- Node11728&#45;&gt;Node11729 -->
<g id="edge1" class="edge">
<title>Node11728&#45;&gt;Node11729</title>
<path fill="none" stroke="#191970" d="M59.5996,-10C68.1903,-10 77.1227,-10 84.8295,-10"/>
<polygon fill="#191970" stroke="#191970" points="59.3956,-6.5001 49.3955,-10 59.3955,-13.5001 59.3956,-6.5001"/>
</g>
<!-- Node11730 -->
<g id="node3" class="node">
<title>Node11730</title>
<g id="a_node3"><a xlink:href="libbf_8c.html#a53010343d7669bc13648ab1a56ea8563" target="_top" xlink:title="ntt_fft_partial">
<polygon fill="none" stroke="#000000" points="163,-.5 163,-19.5 237,-19.5 237,-.5 163,-.5"/>
<text text-anchor="middle" x="200" y="-7.5" font-family="Helvetica,sans-Serif" font-size="10.00" fill="#000000">ntt_fft_partial</text>
</a>
</g>
</g>
<!-- Node11729&#45;&gt;Node11730 -->
<g id="edge2" class="edge">
<title>Node11729&#45;&gt;Node11730</title>
<path fill="none" stroke="#191970" d="M137.5277,-10C145.6627,-10 154.4938,-10 162.8846,-10"/>
<polygon fill="#191970" stroke="#191970" points="137.3301,-6.5001 127.3301,-10 137.33,-13.5001 137.3301,-6.5001"/>
</g>
<!-- Node11731 -->
<g id="node4" class="node">
<title>Node11731</title>
<g id="a_node4"><a xlink:href="libbf_8c.html#a6ae58e818e85536ef032aeac42aaa3e0" target="_top" xlink:title="ntt_conv">
<polygon fill="none" stroke="#ff0000" points="273,-.5 273,-19.5 327,-19.5 327,-.5 273,-.5"/>
<text text-anchor="middle" x="300" y="-7.5" font-family="Helvetica,sans-Serif" font-size="10.00" fill="#000000">ntt_conv</text>
</a>
</g>
</g>
<!-- Node11730&#45;&gt;Node11731 -->
<g id="edge3" class="edge">
<title>Node11730&#45;&gt;Node11731</title>
<path fill="none" stroke="#191970" d="M247.3458,-10C256.0538,-10 264.8695,-10 272.7324,-10"/>
<polygon fill="#191970" stroke="#191970" points="247.2363,-6.5001 237.2363,-10 247.2363,-13.5001 247.2363,-6.5001"/>
</g>
<!-- Node11731&#45;&gt;Node11731 -->
<g id="edge4" class="edge">
<title>Node11731&#45;&gt;Node11731</title>
<path fill="none" stroke="#191970" d="M281.4824,-29.4C282.7191,-34.3146 288.8916,-38 300,-38 317.7734,-38 322.9111,-28.5653 315.4129,-19.7571"/>
<polygon fill="#191970" stroke="#191970" points="284.8539,-30.3485 284.5871,-19.7571 278.1907,-28.2032 284.8539,-30.3485"/>
</g>
</g>
</svg>
