<?xml version="1.0" encoding="UTF-8" standalone="no"?>
<!DOCTYPE svg PUBLIC "-//W3C//DTD SVG 1.1//EN"
 "http://www.w3.org/Graphics/SVG/1.1/DTD/svg11.dtd">
<!-- Generated by graphviz version 2.40.1 (20161225.0304)
 -->
<!-- Title: __bf_round Pages: 1 -->
<svg width="417pt" height="344pt"
 viewBox="0.00 0.00 417.00 344.25" xmlns="http://www.w3.org/2000/svg" xmlns:xlink="http://www.w3.org/1999/xlink">
<g id="graph0" class="graph" transform="scale(1 1) rotate(0) translate(4 340.2527)">
<title>__bf_round</title>
<!-- Node1829 -->
<g id="node1" class="node">
<title>Node1829</title>
<polygon fill="#bfbfbf" stroke="#000000" points="0,-185.2931 0,-204.2931 65,-204.2931 65,-185.2931 0,-185.2931"/>
<text text-anchor="middle" x="32.5" y="-192.2931" font-family="Helvetica,sans-Serif" font-size="10.00" fill="#000000">__bf_round</text>
</g>
<!-- Node1830 -->
<g id="node2" class="node">
<title>Node1830</title>
<g id="a_node2"><a xlink:href="libbf_8h.html#a933c9dd8c3450f560876d02e3b36b1a5" target="_top" xlink:title="bf_get_exp_bits">
<polygon fill="none" stroke="#000000" points="223,-299.2931 223,-318.2931 309,-318.2931 309,-299.2931 223,-299.2931"/>
<text text-anchor="middle" x="266" y="-306.2931" font-family="Helvetica,sans-Serif" font-size="10.00" fill="#000000">bf_get_exp_bits</text>
</a>
</g>
</g>
<!-- Node1829&#45;&gt;Node1830 -->
<g id="edge1" class="edge">
<title>Node1829&#45;&gt;Node1830</title>
<path fill="none" stroke="#191970" d="M48.9239,-204.3585C62.6854,-212.2629 82.925,-223.633 101,-232.7931 146.8323,-256.0201 201.1549,-280.4641 234.5991,-295.169"/>
<polygon fill="#191970" stroke="#191970" points="233.3006,-298.4212 243.8646,-299.2285 236.1097,-292.0096 233.3006,-298.4212"/>
</g>
<!-- Node1831 -->
<g id="node3" class="node">
<title>Node1831</title>
<g id="a_node3"><a xlink:href="libbf_8c.html#a3d7fdccc1995b3a88b68c5e7a57dce16" target="_top" xlink:title="bf_get_rnd_add">
<polygon fill="none" stroke="#000000" points="102.5,-109.2931 102.5,-128.2931 185.5,-128.2931 185.5,-109.2931 102.5,-109.2931"/>
<text text-anchor="middle" x="144" y="-116.2931" font-family="Helvetica,sans-Serif" font-size="10.00" fill="#000000">bf_get_rnd_add</text>
</a>
</g>
</g>
<!-- Node1829&#45;&gt;Node1831 -->
<g id="edge2" class="edge">
<title>Node1829&#45;&gt;Node1831</title>
<path fill="none" stroke="#191970" d="M46.6216,-185.1676C65.4719,-172.3189 99.0745,-149.415 121.4513,-134.1626"/>
<polygon fill="#191970" stroke="#191970" points="123.7013,-136.8647 129.9931,-128.3404 119.7587,-131.0806 123.7013,-136.8647"/>
</g>
<!-- Node1835 -->
<g id="node7" class="node">
<title>Node1835</title>
<g id="a_node7"><a xlink:href="libbf_8c.html#a450dfcc66e1b45403f642a8499219f94" target="_top" xlink:title="limb_mask">
<polygon fill="none" stroke="#000000" points="345,-261.2931 345,-280.2931 409,-280.2931 409,-261.2931 345,-261.2931"/>
<text text-anchor="middle" x="377" y="-268.2931" font-family="Helvetica,sans-Serif" font-size="10.00" fill="#000000">limb_mask</text>
</a>
</g>
</g>
<!-- Node1829&#45;&gt;Node1835 -->
<g id="edge18" class="edge">
<title>Node1829&#45;&gt;Node1835</title>
<path fill="none" stroke="#191970" d="M40.0342,-204.6817C51.7841,-219.6047 75.7567,-248.1167 101,-266.7931 149.7341,-302.8492 163.9994,-313.8649 223,-327.7931 260.1997,-336.5747 273.0795,-340.8567 309,-327.7931 330.5795,-319.945 350.0836,-301.9108 362.6128,-288.2137"/>
<polygon fill="#191970" stroke="#191970" points="365.5195,-290.2068 369.4689,-280.3756 360.2506,-285.5981 365.5195,-290.2068"/>
</g>
<!-- Node1836 -->
<g id="node8" class="node">
<title>Node1836</title>
<g id="a_node8"><a xlink:href="libbf_8h.html#ab51c43b22c1a81c789ee0e3d53c0e585" target="_top" xlink:title="bf_resize">
<polygon fill="none" stroke="#000000" points="349,-109.2931 349,-128.2931 405,-128.2931 405,-109.2931 349,-109.2931"/>
<text text-anchor="middle" x="377" y="-116.2931" font-family="Helvetica,sans-Serif" font-size="10.00" fill="#000000">bf_resize</text>
</a>
</g>
</g>
<!-- Node1829&#45;&gt;Node1836 -->
<g id="edge7" class="edge">
<title>Node1829&#45;&gt;Node1836</title>
<path fill="none" stroke="#191970" d="M33.9231,-185.2719C38.4371,-158.5119 54.9573,-82.0317 101,-42.7931 143.7518,-6.359 167.3185,-17.1908 223,-9.7931 260.8893,-4.7592 275.5769,8.7497 309,-9.7931 343.4727,-28.9181 362.7586,-73.5937 371.3956,-99.4214"/>
<polygon fill="#191970" stroke="#191970" points="368.1311,-100.709 374.4585,-109.207 374.8116,-98.618 368.1311,-100.709"/>
</g>
<!-- Node1837 -->
<g id="node9" class="node">
<title>Node1837</title>
<g id="a_node9"><a xlink:href="libbf_8c.html#af464f3c1421a7305372819f949667273" target="_top" xlink:title="bf_set_overflow">
<polygon fill="none" stroke="#000000" points="101,-204.2931 101,-223.2931 187,-223.2931 187,-204.2931 101,-204.2931"/>
<text text-anchor="middle" x="144" y="-211.2931" font-family="Helvetica,sans-Serif" font-size="10.00" fill="#000000">bf_set_overflow</text>
</a>
</g>
</g>
<!-- Node1829&#45;&gt;Node1837 -->
<g id="edge8" class="edge">
<title>Node1829&#45;&gt;Node1837</title>
<path fill="none" stroke="#191970" d="M65.0502,-200.3397C73.1764,-201.7245 82.1031,-203.2456 90.9394,-204.7514"/>
<polygon fill="#191970" stroke="#191970" points="90.3842,-208.2071 100.8301,-206.4368 91.5602,-201.3066 90.3842,-208.2071"/>
</g>
<!-- Node1840 -->
<g id="node12" class="node">
<title>Node1840</title>
<g id="a_node12"><a xlink:href="libbf_8h.html#a66631c65c00e92a5840a5085a009602d" target="_top" xlink:title="bf_set_zero">
<polygon fill="none" stroke="#000000" points="110,-52.2931 110,-71.2931 178,-71.2931 178,-52.2931 110,-52.2931"/>
<text text-anchor="middle" x="144" y="-59.2931" font-family="Helvetica,sans-Serif" font-size="10.00" fill="#000000">bf_set_zero</text>
</a>
</g>
</g>
<!-- Node1829&#45;&gt;Node1840 -->
<g id="edge16" class="edge">
<title>Node1829&#45;&gt;Node1840</title>
<path fill="none" stroke="#191970" d="M38.4638,-185.0973C49.6309,-167.294 74.9311,-128.5805 101,-99.7931 107.9736,-92.0922 116.401,-84.3598 123.9405,-77.8993"/>
<polygon fill="#191970" stroke="#191970" points="126.2309,-80.5466 131.6625,-71.4499 121.7437,-75.1739 126.2309,-80.5466"/>
</g>
<!-- Node1832 -->
<g id="node4" class="node">
<title>Node1832</title>
<g id="a_node4"><a xlink:href="libbf_8h.html#a4954f3435332238433d15977d55ae566" target="_top" xlink:title="bf_max">
<polygon fill="none" stroke="#000000" points="241.5,-33.2931 241.5,-52.2931 290.5,-52.2931 290.5,-33.2931 241.5,-33.2931"/>
<text text-anchor="middle" x="266" y="-40.2931" font-family="Helvetica,sans-Serif" font-size="10.00" fill="#000000">bf_max</text>
</a>
</g>
</g>
<!-- Node1831&#45;&gt;Node1832 -->
<g id="edge3" class="edge">
<title>Node1831&#45;&gt;Node1832</title>
<path fill="none" stroke="#191970" d="M155.5233,-109.2922C170.4627,-97.2599 197.6165,-76.345 223,-61.7931 226.0668,-60.0349 229.3267,-58.3279 232.6266,-56.7049"/>
<polygon fill="#191970" stroke="#191970" points="234.3196,-59.7774 241.9053,-52.381 231.3628,-53.4325 234.3196,-59.7774"/>
</g>
<!-- Node1833 -->
<g id="node5" class="node">
<title>Node1833</title>
<g id="a_node5"><a xlink:href="libbf_8c.html#a7e1a60c84d638cde1ac9aabd01d266e1" target="_top" xlink:title="get_bit">
<polygon fill="none" stroke="#000000" points="243,-71.2931 243,-90.2931 289,-90.2931 289,-71.2931 243,-71.2931"/>
<text text-anchor="middle" x="266" y="-78.2931" font-family="Helvetica,sans-Serif" font-size="10.00" fill="#000000">get_bit</text>
</a>
</g>
</g>
<!-- Node1831&#45;&gt;Node1833 -->
<g id="edge4" class="edge">
<title>Node1831&#45;&gt;Node1833</title>
<path fill="none" stroke="#191970" d="M174.7858,-109.2041C192.6536,-103.6387 215.1485,-96.6321 233.3282,-90.9695"/>
<polygon fill="#191970" stroke="#191970" points="234.4205,-94.2952 242.9273,-87.9797 232.3388,-87.6119 234.4205,-94.2952"/>
</g>
<!-- Node1834 -->
<g id="node6" class="node">
<title>Node1834</title>
<g id="a_node6"><a xlink:href="libbf_8c.html#ad3d895c95a9ac95ae5fe9ea75ce7291f" target="_top" xlink:title="scan_bit_nz">
<polygon fill="none" stroke="#000000" points="231.5,-185.2931 231.5,-204.2931 300.5,-204.2931 300.5,-185.2931 231.5,-185.2931"/>
<text text-anchor="middle" x="266" y="-192.2931" font-family="Helvetica,sans-Serif" font-size="10.00" fill="#000000">scan_bit_nz</text>
</a>
</g>
</g>
<!-- Node1831&#45;&gt;Node1834 -->
<g id="edge5" class="edge">
<title>Node1831&#45;&gt;Node1834</title>
<path fill="none" stroke="#191970" d="M155.5233,-128.294C170.4627,-140.3263 197.6165,-161.2411 223,-175.7931 226.0668,-177.5512 229.3267,-179.2583 232.6266,-180.8813"/>
<polygon fill="#191970" stroke="#191970" points="231.3628,-184.1537 241.9053,-185.2052 234.3196,-177.8088 231.3628,-184.1537"/>
</g>
<!-- Node1834&#45;&gt;Node1835 -->
<g id="edge6" class="edge">
<title>Node1834&#45;&gt;Node1835</title>
<path fill="none" stroke="#191970" d="M280.0582,-204.4185C298.8241,-217.2672 332.2759,-240.1712 354.5524,-255.4235"/>
<polygon fill="#191970" stroke="#191970" points="352.8273,-258.4842 363.0559,-261.2458 356.782,-252.7083 352.8273,-258.4842"/>
</g>
<!-- Node1837&#45;&gt;Node1830 -->
<g id="edge9" class="edge">
<title>Node1837&#45;&gt;Node1830</title>
<path fill="none" stroke="#191970" d="M153.6141,-223.7468C167.9103,-238.2311 195.9966,-265.4909 223,-284.7931 227.6078,-288.0868 232.7105,-291.283 237.7434,-294.2117"/>
<polygon fill="#191970" stroke="#191970" points="236.1672,-297.3402 246.6051,-299.1576 239.5787,-291.2278 236.1672,-297.3402"/>
</g>
<!-- Node1837&#45;&gt;Node1835 -->
<g id="edge15" class="edge">
<title>Node1837&#45;&gt;Node1835</title>
<path fill="none" stroke="#191970" d="M163.3332,-223.4177C179.045,-230.857 201.9721,-240.8568 223,-246.7931 260.0831,-257.2618 303.5619,-263.5101 334.8466,-266.9939"/>
<polygon fill="#191970" stroke="#191970" points="334.6474,-270.4924 344.9619,-268.0715 335.389,-263.5318 334.6474,-270.4924"/>
</g>
<!-- Node1837&#45;&gt;Node1836 -->
<g id="edge10" class="edge">
<title>Node1837&#45;&gt;Node1836</title>
<path fill="none" stroke="#191970" d="M182.6825,-223.3345C217.6885,-229.8364 269.6373,-234.025 309,-213.7931 339.9743,-197.8726 359.9891,-160.5718 369.8118,-137.7328"/>
<polygon fill="#191970" stroke="#191970" points="373.0879,-138.9675 373.6105,-128.3856 366.603,-136.332 373.0879,-138.9675"/>
</g>
<!-- Node1838 -->
<g id="node10" class="node">
<title>Node1838</title>
<g id="a_node10"><a xlink:href="libbf_8h.html#a88d3dcee173f1e4fd4e55000edb04595" target="_top" xlink:title="bf_set_inf">
<polygon fill="none" stroke="#000000" points="236.5,-147.2931 236.5,-166.2931 295.5,-166.2931 295.5,-147.2931 236.5,-147.2931"/>
<text text-anchor="middle" x="266" y="-154.2931" font-family="Helvetica,sans-Serif" font-size="10.00" fill="#000000">bf_set_inf</text>
</a>
</g>
</g>
<!-- Node1837&#45;&gt;Node1838 -->
<g id="edge11" class="edge">
<title>Node1837&#45;&gt;Node1838</title>
<path fill="none" stroke="#191970" d="M163.3967,-204.2477C179.3383,-196.4546 202.5465,-185.2281 223,-175.7931 226.8352,-174.0239 230.877,-172.1936 234.8852,-170.3992"/>
<polygon fill="#191970" stroke="#191970" points="236.3449,-173.5806 244.0634,-166.3229 233.5035,-167.1832 236.3449,-173.5806"/>
</g>
<!-- Node1839 -->
<g id="node11" class="node">
<title>Node1839</title>
<g id="a_node11"><a xlink:href="libbf_8h.html#aa6282c789c16c8cf2fe6a8ebd671c6fc" target="_top" xlink:title="bf_set_nan">
<polygon fill="none" stroke="#000000" points="233.5,-109.2931 233.5,-128.2931 298.5,-128.2931 298.5,-109.2931 233.5,-109.2931"/>
<text text-anchor="middle" x="266" y="-116.2931" font-family="Helvetica,sans-Serif" font-size="10.00" fill="#000000">bf_set_nan</text>
</a>
</g>
</g>
<!-- Node1837&#45;&gt;Node1839 -->
<g id="edge13" class="edge">
<title>Node1837&#45;&gt;Node1839</title>
<path fill="none" stroke="#191970" d="M151.8967,-204.278C165.2219,-188.7003 193.6065,-157.5186 223,-137.7931 225.5604,-136.0748 228.3017,-134.4499 231.1146,-132.9282"/>
<polygon fill="#191970" stroke="#191970" points="232.7969,-136.0009 240.2099,-128.4313 229.6944,-129.726 232.7969,-136.0009"/>
</g>
<!-- Node1838&#45;&gt;Node1836 -->
<g id="edge12" class="edge">
<title>Node1838&#45;&gt;Node1836</title>
<path fill="none" stroke="#191970" d="M294.01,-147.2041C307.6817,-142.5236 324.331,-136.8239 339.1184,-131.7615"/>
<polygon fill="#191970" stroke="#191970" points="340.6716,-134.9293 348.999,-128.379 338.4044,-128.3066 340.6716,-134.9293"/>
</g>
<!-- Node1839&#45;&gt;Node1836 -->
<g id="edge14" class="edge">
<title>Node1839&#45;&gt;Node1836</title>
<path fill="none" stroke="#191970" d="M298.7033,-118.7931C311.2175,-118.7931 325.6032,-118.7931 338.6018,-118.7931"/>
<polygon fill="#191970" stroke="#191970" points="338.6669,-122.2932 348.6668,-118.7931 338.6668,-115.2932 338.6669,-122.2932"/>
</g>
<!-- Node1840&#45;&gt;Node1836 -->
<g id="edge17" class="edge">
<title>Node1840&#45;&gt;Node1836</title>
<path fill="none" stroke="#191970" d="M158.498,-52.1689C188.2599,-33.7219 257.757,2.5453 309,-23.7931 339.9743,-39.7135 359.9891,-77.0144 369.8118,-99.8534"/>
<polygon fill="#191970" stroke="#191970" points="366.603,-101.2541 373.6105,-109.2006 373.0879,-98.6186 366.603,-101.2541"/>
</g>
</g>
</svg>
