<?xml version="1.0" encoding="UTF-8" standalone="no"?>
<!DOCTYPE svg PUBLIC "-//W3C//DTD SVG 1.1//EN"
 "http://www.w3.org/Graphics/SVG/1.1/DTD/svg11.dtd">
<!-- Generated by graphviz version 2.40.1 (20161225.0304)
 -->
<!-- Title: bf_mul_ui Pages: 1 -->
<svg width="689pt" height="183pt"
 viewBox="0.00 0.00 689.00 183.00" xmlns="http://www.w3.org/2000/svg" xmlns:xlink="http://www.w3.org/1999/xlink">
<g id="graph0" class="graph" transform="scale(1 1) rotate(0) translate(4 179)">
<title>bf_mul_ui</title>
<!-- Node5110 -->
<g id="node1" class="node">
<title>Node5110</title>
<polygon fill="#bfbfbf" stroke="#000000" points="0,-98.5 0,-117.5 59,-117.5 59,-98.5 0,-98.5"/>
<text text-anchor="middle" x="29.5" y="-105.5" font-family="Helvetica,sans-Serif" font-size="10.00" fill="#000000">bf_mul_ui</text>
</g>
<!-- Node5111 -->
<g id="node2" class="node">
<title>Node5111</title>
<g id="a_node2"><a xlink:href="libbf_8c.html#a11d2dea6becda91c288fd883eefc8e5c" target="_top" xlink:title="bf_const_pi_internal">
<polygon fill="none" stroke="#000000" points="242,-136.5 242,-155.5 346,-155.5 346,-136.5 242,-136.5"/>
<text text-anchor="middle" x="294" y="-143.5" font-family="Helvetica,sans-Serif" font-size="10.00" fill="#000000">bf_const_pi_internal</text>
</a>
</g>
</g>
<!-- Node5110&#45;&gt;Node5111 -->
<g id="edge1" class="edge">
<title>Node5110&#45;&gt;Node5111</title>
<path fill="none" stroke="#191970" d="M43.691,-125.5577C55.7315,-138.9528 74.3115,-156.3616 95,-164 153.5765,-185.6269 228.1623,-167.9421 267.2851,-155.5356"/>
<polygon fill="#191970" stroke="#191970" points="46.2496,-123.1649 37.0789,-117.8594 40.9394,-127.7259 46.2496,-123.1649"/>
</g>
<!-- Node5114 -->
<g id="node5" class="node">
<title>Node5114</title>
<g id="a_node5"><a xlink:href="libbf_8c.html#a2b19e3958f6cf3fa0cc534681a5ff259" target="_top" xlink:title="bf_sincos">
<polygon fill="none" stroke="#ff0000" points="622,-117.5 622,-136.5 681,-136.5 681,-117.5 622,-117.5"/>
<text text-anchor="middle" x="651.5" y="-124.5" font-family="Helvetica,sans-Serif" font-size="10.00" fill="#000000">bf_sincos</text>
</a>
</g>
</g>
<!-- Node5110&#45;&gt;Node5114 -->
<g id="edge6" class="edge">
<title>Node5110&#45;&gt;Node5114</title>
<path fill="none" stroke="#191970" d="M69.2779,-103.3564C120.9786,-97.7316 214.103,-89 294,-89 294,-89 294,-89 432.5,-89 501.2429,-89 518.6651,-94.1584 586,-108 598.0617,-110.4795 611.1333,-114.0801 622.4037,-117.4817"/>
<polygon fill="#191970" stroke="#191970" points="68.7547,-99.8928 59.2,-104.4708 69.5242,-106.8504 68.7547,-99.8928"/>
</g>
<!-- Node5128 -->
<g id="node7" class="node">
<title>Node5128</title>
<g id="a_node7"><a xlink:href="libbf_8c.html#aa6e77d8d722e3fd0540ede79a63e352e" target="_top" xlink:title="check_exp_underflow\l_overflow">
<polygon fill="none" stroke="#000000" points="95,-30 95,-60 206,-60 206,-30 95,-30"/>
<text text-anchor="start" x="103" y="-48" font-family="Helvetica,sans-Serif" font-size="10.00" fill="#000000">check_exp_underflow</text>
<text text-anchor="middle" x="150.5" y="-37" font-family="Helvetica,sans-Serif" font-size="10.00" fill="#000000">_overflow</text>
</a>
</g>
</g>
<!-- Node5110&#45;&gt;Node5128 -->
<g id="edge7" class="edge">
<title>Node5110&#45;&gt;Node5128</title>
<path fill="none" stroke="#191970" d="M56.7698,-93.8017C76.0678,-83.754 101.9053,-70.3014 121.5656,-60.065"/>
<polygon fill="#191970" stroke="#191970" points="55.1307,-90.709 47.8773,-98.4317 58.3634,-96.9179 55.1307,-90.709"/>
</g>
<!-- Node5131 -->
<g id="node10" class="node">
<title>Node5131</title>
<g id="a_node10"><a xlink:href="libbf_8c.html#a81e50b3d7e7a931a93d6ea7e1d630631" target="_top" xlink:title="chud_bs">
<polygon fill="none" stroke="#000000" points="124,-117.5 124,-136.5 177,-136.5 177,-117.5 124,-117.5"/>
<text text-anchor="middle" x="150.5" y="-124.5" font-family="Helvetica,sans-Serif" font-size="10.00" fill="#000000">chud_bs</text>
</a>
</g>
</g>
<!-- Node5110&#45;&gt;Node5131 -->
<g id="edge10" class="edge">
<title>Node5110&#45;&gt;Node5131</title>
<path fill="none" stroke="#191970" d="M68.9891,-114.2008C86.9003,-117.0133 107.6169,-120.2663 123.6825,-122.789"/>
<polygon fill="#191970" stroke="#191970" points="69.5218,-110.7416 59.0999,-112.6479 68.4359,-117.6569 69.5218,-110.7416"/>
</g>
<!-- Node5112 -->
<g id="node3" class="node">
<title>Node5112</title>
<g id="a_node3"><a xlink:href="libbf_8c.html#a25b9653cbfca557499e786f8d2a7eb2e" target="_top" xlink:title="bf_const_pi_signed">
<polygon fill="none" stroke="#000000" points="382,-136.5 382,-155.5 483,-155.5 483,-136.5 382,-136.5"/>
<text text-anchor="middle" x="432.5" y="-143.5" font-family="Helvetica,sans-Serif" font-size="10.00" fill="#000000">bf_const_pi_signed</text>
</a>
</g>
</g>
<!-- Node5111&#45;&gt;Node5112 -->
<g id="edge2" class="edge">
<title>Node5111&#45;&gt;Node5112</title>
<path fill="none" stroke="#191970" d="M356.5937,-146C365.0656,-146 373.6716,-146 381.8982,-146"/>
<polygon fill="#191970" stroke="#191970" points="356.3609,-142.5001 346.3609,-146 356.3609,-149.5001 356.3609,-142.5001"/>
</g>
<!-- Node5113 -->
<g id="node4" class="node">
<title>Node5113</title>
<g id="a_node4"><a xlink:href="libbf_8h.html#aff86bca731f3c8ffe45f0f1129175961" target="_top" xlink:title="bf_const_pi">
<polygon fill="none" stroke="#ff0000" points="519,-155.5 519,-174.5 586,-174.5 586,-155.5 519,-155.5"/>
<text text-anchor="middle" x="552.5" y="-162.5" font-family="Helvetica,sans-Serif" font-size="10.00" fill="#000000">bf_const_pi</text>
</a>
</g>
</g>
<!-- Node5112&#45;&gt;Node5113 -->
<g id="edge3" class="edge">
<title>Node5112&#45;&gt;Node5113</title>
<path fill="none" stroke="#191970" d="M492.9971,-155.5787C501.8445,-156.9795 510.6775,-158.3781 518.7265,-159.6525"/>
<polygon fill="#191970" stroke="#191970" points="493.4673,-152.1096 483.043,-154.0026 492.3726,-159.0235 493.4673,-152.1096"/>
</g>
<!-- Node5122 -->
<g id="node6" class="node">
<title>Node5122</title>
<g id="a_node6"><a xlink:href="libbf_8h.html#a0bb2c5b98e3f978b84df9849c7ec50d6" target="_top" xlink:title="bf_atan">
<polygon fill="none" stroke="#ff0000" points="528,-117.5 528,-136.5 577,-136.5 577,-117.5 528,-117.5"/>
<text text-anchor="middle" x="552.5" y="-124.5" font-family="Helvetica,sans-Serif" font-size="10.00" fill="#000000">bf_atan</text>
</a>
</g>
</g>
<!-- Node5112&#45;&gt;Node5122 -->
<g id="edge5" class="edge">
<title>Node5112&#45;&gt;Node5122</title>
<path fill="none" stroke="#191970" d="M492.9273,-136.4323C505.2957,-134.474 517.6399,-132.5195 527.8575,-130.9017"/>
<polygon fill="#191970" stroke="#191970" points="492.3726,-132.9765 483.043,-137.9974 493.4673,-139.8904 492.3726,-132.9765"/>
</g>
<!-- Node5113&#45;&gt;Node5114 -->
<g id="edge4" class="edge">
<title>Node5113&#45;&gt;Node5114</title>
<path fill="none" stroke="#191970" d="M587.0577,-151.7354C600.0546,-146.7467 614.568,-141.1759 626.5261,-136.5859"/>
<polygon fill="#191970" stroke="#191970" points="585.5635,-148.5599 577.4819,-155.411 588.072,-155.095 585.5635,-148.5599"/>
</g>
<!-- Node5129 -->
<g id="node8" class="node">
<title>Node5129</title>
<g id="a_node8"><a xlink:href="libbf_8h.html#a36f22f93ba4258209be035a63b80b87f" target="_top" xlink:title="bf_exp">
<polygon fill="none" stroke="#000000" points="271,-38.5 271,-57.5 317,-57.5 317,-38.5 271,-38.5"/>
<text text-anchor="middle" x="294" y="-45.5" font-family="Helvetica,sans-Serif" font-size="10.00" fill="#000000">bf_exp</text>
</a>
</g>
</g>
<!-- Node5128&#45;&gt;Node5129 -->
<g id="edge8" class="edge">
<title>Node5128&#45;&gt;Node5129</title>
<path fill="none" stroke="#191970" d="M216.4569,-46.3789C235.8613,-46.7846 255.8346,-47.2021 270.6499,-47.5118"/>
<polygon fill="#191970" stroke="#191970" points="216.4628,-42.8783 206.3917,-46.1685 216.3164,-49.8768 216.4628,-42.8783"/>
</g>
<!-- Node5130 -->
<g id="node9" class="node">
<title>Node5130</title>
<g id="a_node9"><a xlink:href="libbf_8h.html#a93fe073491f8c5f086a75e7bf8865b34" target="_top" xlink:title="bf_pow">
<polygon fill="none" stroke="#000000" points="270,-.5 270,-19.5 318,-19.5 318,-.5 270,-.5"/>
<text text-anchor="middle" x="294" y="-7.5" font-family="Helvetica,sans-Serif" font-size="10.00" fill="#000000">bf_pow</text>
</a>
</g>
</g>
<!-- Node5128&#45;&gt;Node5130 -->
<g id="edge9" class="edge">
<title>Node5128&#45;&gt;Node5130</title>
<path fill="none" stroke="#191970" d="M216.3139,-28.9478C235.4423,-24.2824 255.1372,-19.4787 269.9106,-15.8755"/>
<polygon fill="#191970" stroke="#191970" points="215.2776,-25.5979 206.3917,-31.3679 216.9363,-32.3986 215.2776,-25.5979"/>
</g>
<!-- Node5131&#45;&gt;Node5111 -->
<g id="edge12" class="edge">
<title>Node5131&#45;&gt;Node5111</title>
<path fill="none" stroke="#191970" d="M187.5166,-131.9011C204.0777,-134.0939 223.8927,-136.7175 241.9142,-139.1036"/>
<polygon fill="#191970" stroke="#191970" points="187.5279,-128.3722 177.1549,-130.5292 186.609,-135.3116 187.5279,-128.3722"/>
</g>
<!-- Node5131&#45;&gt;Node5131 -->
<g id="edge11" class="edge">
<title>Node5131&#45;&gt;Node5131</title>
<path fill="none" stroke="#191970" d="M128.1787,-146.0292C129.3962,-151.128 136.8367,-155 150.5,-155 171.8281,-155 177.9933,-145.5653 168.9955,-136.7571"/>
<polygon fill="#191970" stroke="#191970" points="131.4256,-147.3361 132.0045,-136.7571 124.9548,-144.6661 131.4256,-147.3361"/>
</g>
</g>
</svg>
