<?xml version="1.0" encoding="UTF-8" standalone="no"?>
<!DOCTYPE svg PUBLIC "-//W3C//DTD SVG 1.1//EN"
 "http://www.w3.org/Graphics/SVG/1.1/DTD/svg11.dtd">
<!-- Generated by graphviz version 2.40.1 (20161225.0304)
 -->
<!-- Title: bf_get_limb Pages: 1 -->
<svg width="434pt" height="180pt"
 viewBox="0.00 0.00 434.00 180.00" xmlns="http://www.w3.org/2000/svg" xmlns:xlink="http://www.w3.org/1999/xlink">
<g id="graph0" class="graph" transform="scale(1 1) rotate(0) translate(4 176)">
<title>bf_get_limb</title>
<!-- Node4195 -->
<g id="node1" class="node">
<title>Node4195</title>
<polygon fill="#bfbfbf" stroke="#000000" points="0,-76.5 0,-95.5 67,-95.5 67,-76.5 0,-76.5"/>
<text text-anchor="middle" x="33.5" y="-83.5" font-family="Helvetica,sans-Serif" font-size="10.00" fill="#000000">bf_get_limb</text>
</g>
<!-- Node4196 -->
<g id="node2" class="node">
<title>Node4196</title>
<g id="a_node2"><a xlink:href="libbf_8c.html#a157194b3c7faaa17e39ae78cd98c4385" target="_top" xlink:title="bf_exp_internal">
<polygon fill="none" stroke="#000000" points="103,-114.5 103,-133.5 186,-133.5 186,-114.5 103,-114.5"/>
<text text-anchor="middle" x="144.5" y="-121.5" font-family="Helvetica,sans-Serif" font-size="10.00" fill="#000000">bf_exp_internal</text>
</a>
</g>
</g>
<!-- Node4195&#45;&gt;Node4196 -->
<g id="edge1" class="edge">
<title>Node4195&#45;&gt;Node4196</title>
<path fill="none" stroke="#191970" d="M71.3913,-98.9718C86.1795,-104.0344 102.8285,-109.7341 116.499,-114.4141"/>
<polygon fill="#191970" stroke="#191970" points="72.1046,-95.5166 61.51,-95.589 69.8373,-102.1393 72.1046,-95.5166"/>
</g>
<!-- Node4199 -->
<g id="node5" class="node">
<title>Node4199</title>
<g id="a_node5"><a xlink:href="libbf_8h.html#a93fe073491f8c5f086a75e7bf8865b34" target="_top" xlink:title="bf_pow">
<polygon fill="none" stroke="#000000" points="360.5,-114.5 360.5,-133.5 408.5,-133.5 408.5,-114.5 360.5,-114.5"/>
<text text-anchor="middle" x="384.5" y="-121.5" font-family="Helvetica,sans-Serif" font-size="10.00" fill="#000000">bf_pow</text>
</a>
</g>
</g>
<!-- Node4195&#45;&gt;Node4199 -->
<g id="edge5" class="edge">
<title>Node4195&#45;&gt;Node4199</title>
<path fill="none" stroke="#191970" d="M77.6939,-86.7497C131.9841,-88.2031 226.7597,-92.4713 307,-105 325.0675,-107.821 345.1077,-112.7844 360.2827,-116.9308"/>
<polygon fill="#191970" stroke="#191970" points="77.4754,-83.2434 67.3919,-86.495 77.3023,-90.2412 77.4754,-83.2434"/>
</g>
<!-- Node4200 -->
<g id="node6" class="node">
<title>Node4200</title>
<g id="a_node6"><a xlink:href="libbf_8h.html#a7ded681bd52308690336efcfde537a54" target="_top" xlink:title="bf_remquo">
<polygon fill="none" stroke="#000000" points="113.5,-38.5 113.5,-57.5 175.5,-57.5 175.5,-38.5 113.5,-38.5"/>
<text text-anchor="middle" x="144.5" y="-45.5" font-family="Helvetica,sans-Serif" font-size="10.00" fill="#000000">bf_remquo</text>
</a>
</g>
</g>
<!-- Node4195&#45;&gt;Node4200 -->
<g id="edge6" class="edge">
<title>Node4195&#45;&gt;Node4200</title>
<path fill="none" stroke="#191970" d="M71.3913,-73.0282C86.1795,-67.9656 102.8285,-62.2659 116.499,-57.5859"/>
<polygon fill="#191970" stroke="#191970" points="69.8373,-69.8607 61.51,-76.411 72.1046,-76.4834 69.8373,-69.8607"/>
</g>
<!-- Node4197 -->
<g id="node3" class="node">
<title>Node4197</title>
<g id="a_node3"><a xlink:href="libbf_8h.html#a36f22f93ba4258209be035a63b80b87f" target="_top" xlink:title="bf_exp">
<polygon fill="none" stroke="#000000" points="241.5,-152.5 241.5,-171.5 287.5,-171.5 287.5,-152.5 241.5,-152.5"/>
<text text-anchor="middle" x="264.5" y="-159.5" font-family="Helvetica,sans-Serif" font-size="10.00" fill="#000000">bf_exp</text>
</a>
</g>
</g>
<!-- Node4196&#45;&gt;Node4197 -->
<g id="edge2" class="edge">
<title>Node4196&#45;&gt;Node4197</title>
<path fill="none" stroke="#191970" d="M184.3649,-136.6239C203.3097,-142.6231 225.2839,-149.5816 241.4249,-154.6929"/>
<polygon fill="#191970" stroke="#191970" points="185.3711,-133.2713 174.7811,-133.589 183.2578,-139.9447 185.3711,-133.2713"/>
</g>
<!-- Node4198 -->
<g id="node4" class="node">
<title>Node4198</title>
<g id="a_node4"><a xlink:href="libbf_8c.html#aa28c1603087e2aec25b9bb0dae387875" target="_top" xlink:title="bf_pow_generic">
<polygon fill="none" stroke="#000000" points="222,-114.5 222,-133.5 307,-133.5 307,-114.5 222,-114.5"/>
<text text-anchor="middle" x="264.5" y="-121.5" font-family="Helvetica,sans-Serif" font-size="10.00" fill="#000000">bf_pow_generic</text>
</a>
</g>
</g>
<!-- Node4196&#45;&gt;Node4198 -->
<g id="edge3" class="edge">
<title>Node4196&#45;&gt;Node4198</title>
<path fill="none" stroke="#191970" d="M196.3163,-124C204.7929,-124 213.4916,-124 221.7185,-124"/>
<polygon fill="#191970" stroke="#191970" points="196.1334,-120.5001 186.1334,-124 196.1334,-127.5001 196.1334,-120.5001"/>
</g>
<!-- Node4198&#45;&gt;Node4199 -->
<g id="edge4" class="edge">
<title>Node4198&#45;&gt;Node4199</title>
<path fill="none" stroke="#191970" d="M317.416,-124C332.4588,-124 348.1039,-124 360.4979,-124"/>
<polygon fill="#191970" stroke="#191970" points="317.1454,-120.5001 307.1454,-124 317.1454,-127.5001 317.1454,-120.5001"/>
</g>
<!-- Node4201 -->
<g id="node7" class="node">
<title>Node4201</title>
<g id="a_node7"><a xlink:href="libbf_8c.html#a2b19e3958f6cf3fa0cc534681a5ff259" target="_top" xlink:title="bf_sincos">
<polygon fill="none" stroke="#000000" points="235,-38.5 235,-57.5 294,-57.5 294,-38.5 235,-38.5"/>
<text text-anchor="middle" x="264.5" y="-45.5" font-family="Helvetica,sans-Serif" font-size="10.00" fill="#000000">bf_sincos</text>
</a>
</g>
</g>
<!-- Node4200&#45;&gt;Node4201 -->
<g id="edge7" class="edge">
<title>Node4200&#45;&gt;Node4201</title>
<path fill="none" stroke="#191970" d="M185.9164,-48C201.9542,-48 219.9574,-48 234.6817,-48"/>
<polygon fill="#191970" stroke="#191970" points="185.7154,-44.5001 175.7153,-48 185.7153,-51.5001 185.7154,-44.5001"/>
</g>
<!-- Node4202 -->
<g id="node8" class="node">
<title>Node4202</title>
<g id="a_node8"><a xlink:href="libbf_8c.html#a525aef36dca12b641b625b99bb853dc4" target="_top" xlink:title="bf_cos_internal">
<polygon fill="none" stroke="#ff0000" points="343,-76.5 343,-95.5 426,-95.5 426,-76.5 343,-76.5"/>
<text text-anchor="middle" x="384.5" y="-83.5" font-family="Helvetica,sans-Serif" font-size="10.00" fill="#000000">bf_cos_internal</text>
</a>
</g>
</g>
<!-- Node4201&#45;&gt;Node4202 -->
<g id="edge8" class="edge">
<title>Node4201&#45;&gt;Node4202</title>
<path fill="none" stroke="#191970" d="M304.0131,-60.5125C320.3966,-65.7006 339.096,-71.6221 354.3448,-76.4509"/>
<polygon fill="#191970" stroke="#191970" points="304.753,-57.0755 294.1629,-57.3933 302.6397,-63.7489 304.753,-57.0755"/>
</g>
<!-- Node4204 -->
<g id="node9" class="node">
<title>Node4204</title>
<g id="a_node9"><a xlink:href="libbf_8c.html#a988e995c3b0dbcc6a26b8eea2891b2e2" target="_top" xlink:title="bf_sin_internal">
<polygon fill="none" stroke="#ff0000" points="344.5,-38.5 344.5,-57.5 424.5,-57.5 424.5,-38.5 344.5,-38.5"/>
<text text-anchor="middle" x="384.5" y="-45.5" font-family="Helvetica,sans-Serif" font-size="10.00" fill="#000000">bf_sin_internal</text>
</a>
</g>
</g>
<!-- Node4201&#45;&gt;Node4204 -->
<g id="edge9" class="edge">
<title>Node4201&#45;&gt;Node4204</title>
<path fill="none" stroke="#191970" d="M304.5338,-48C317.3344,-48 331.5035,-48 344.3149,-48"/>
<polygon fill="#191970" stroke="#191970" points="304.163,-44.5001 294.1629,-48 304.1629,-51.5001 304.163,-44.5001"/>
</g>
<!-- Node4206 -->
<g id="node10" class="node">
<title>Node4206</title>
<g id="a_node10"><a xlink:href="libbf_8c.html#a524a1cfe269d6d10ba833368695f8699" target="_top" xlink:title="bf_tan_internal">
<polygon fill="none" stroke="#ff0000" points="344.5,-.5 344.5,-19.5 424.5,-19.5 424.5,-.5 344.5,-.5"/>
<text text-anchor="middle" x="384.5" y="-7.5" font-family="Helvetica,sans-Serif" font-size="10.00" fill="#000000">bf_tan_internal</text>
</a>
</g>
</g>
<!-- Node4201&#45;&gt;Node4206 -->
<g id="edge10" class="edge">
<title>Node4201&#45;&gt;Node4206</title>
<path fill="none" stroke="#191970" d="M304.0131,-35.4875C320.3966,-30.2994 339.096,-24.3779 354.3448,-19.5491"/>
<polygon fill="#191970" stroke="#191970" points="302.6397,-32.2511 294.1629,-38.6067 304.753,-38.9245 302.6397,-32.2511"/>
</g>
</g>
</svg>
