<?xml version="1.0" encoding="UTF-8" standalone="no"?>
<!DOCTYPE svg PUBLIC "-//W3C//DTD SVG 1.1//EN"
 "http://www.w3.org/Graphics/SVG/1.1/DTD/svg11.dtd">
<!-- Generated by graphviz version 2.40.1 (20161225.0304)
 -->
<!-- Title: ntt_limb_to_int Pages: 1 -->
<svg width="359pt" height="66pt"
 viewBox="0.00 0.00 359.00 66.00" xmlns="http://www.w3.org/2000/svg" xmlns:xlink="http://www.w3.org/1999/xlink">
<g id="graph0" class="graph" transform="scale(1 1) rotate(0) translate(4 62)">
<title>ntt_limb_to_int</title>
<!-- Node12448 -->
<g id="node1" class="node">
<title>Node12448</title>
<polygon fill="#bfbfbf" stroke="#000000" points="0,-19.5 0,-38.5 80,-38.5 80,-19.5 0,-19.5"/>
<text text-anchor="middle" x="40" y="-26.5" font-family="Helvetica,sans-Serif" font-size="10.00" fill="#000000">ntt_limb_to_int</text>
</g>
<!-- Node12449 -->
<g id="node2" class="node">
<title>Node12449</title>
<g id="a_node2"><a xlink:href="libbf_8c.html#a4807fe371a7663e3e75a1cf8e07b69eb" target="_top" xlink:title="ntt_to_limb">
<polygon fill="none" stroke="#000000" points="116,-19.5 116,-38.5 181,-38.5 181,-19.5 116,-19.5"/>
<text text-anchor="middle" x="148.5" y="-26.5" font-family="Helvetica,sans-Serif" font-size="10.00" fill="#000000">ntt_to_limb</text>
</a>
</g>
</g>
<!-- Node12448&#45;&gt;Node12449 -->
<g id="edge1" class="edge">
<title>Node12448&#45;&gt;Node12449</title>
<path fill="none" stroke="#191970" d="M90.1456,-29C98.8092,-29 107.6131,-29 115.6669,-29"/>
<polygon fill="#191970" stroke="#191970" points="90.0932,-25.5001 80.0931,-29 90.0931,-32.5001 90.0932,-25.5001"/>
</g>
<!-- Node12450 -->
<g id="node3" class="node">
<title>Node12450</title>
<g id="a_node3"><a xlink:href="libbf_8c.html#aced93436f1e8ca41feb00d8070cfcbde" target="_top" xlink:title="fft_mul">
<polygon fill="none" stroke="#000000" points="217,-19.5 217,-38.5 264,-38.5 264,-19.5 217,-19.5"/>
<text text-anchor="middle" x="240.5" y="-26.5" font-family="Helvetica,sans-Serif" font-size="10.00" fill="#000000">fft_mul</text>
</a>
</g>
</g>
<!-- Node12449&#45;&gt;Node12450 -->
<g id="edge2" class="edge">
<title>Node12449&#45;&gt;Node12450</title>
<path fill="none" stroke="#191970" d="M191.3553,-29C200.1364,-29 209.071,-29 216.8712,-29"/>
<polygon fill="#191970" stroke="#191970" points="191.1948,-25.5001 181.1948,-29 191.1948,-32.5001 191.1948,-25.5001"/>
</g>
<!-- Node12451 -->
<g id="node4" class="node">
<title>Node12451</title>
<g id="a_node4"><a xlink:href="libbf_8h.html#ac290278d0c37a0e7786873f98aadba47" target="_top" xlink:title="bf_mul">
<polygon fill="none" stroke="#ff0000" points="302.5,-38.5 302.5,-57.5 348.5,-57.5 348.5,-38.5 302.5,-38.5"/>
<text text-anchor="middle" x="325.5" y="-45.5" font-family="Helvetica,sans-Serif" font-size="10.00" fill="#000000">bf_mul</text>
</a>
</g>
</g>
<!-- Node12450&#45;&gt;Node12451 -->
<g id="edge3" class="edge">
<title>Node12450&#45;&gt;Node12451</title>
<path fill="none" stroke="#191970" d="M274.078,-36.5057C283.5104,-38.6141 293.5568,-40.8598 302.2435,-42.8015"/>
<polygon fill="#191970" stroke="#191970" points="274.6999,-33.0584 264.1772,-34.2926 273.1729,-39.8898 274.6999,-33.0584"/>
</g>
<!-- Node12506 -->
<g id="node5" class="node">
<title>Node12506</title>
<g id="a_node5"><a xlink:href="libbf_8h.html#a6cd295d156fefc2f73a5f9de76595262" target="_top" xlink:title="mp_mul">
<polygon fill="none" stroke="#ff0000" points="300,-.5 300,-19.5 351,-19.5 351,-.5 300,-.5"/>
<text text-anchor="middle" x="325.5" y="-7.5" font-family="Helvetica,sans-Serif" font-size="10.00" fill="#000000">mp_mul</text>
</a>
</g>
</g>
<!-- Node12450&#45;&gt;Node12506 -->
<g id="edge4" class="edge">
<title>Node12450&#45;&gt;Node12506</title>
<path fill="none" stroke="#191970" d="M273.9636,-21.5199C282.5804,-19.5938 291.7168,-17.5515 299.8657,-15.73"/>
<polygon fill="#191970" stroke="#191970" points="273.1729,-18.1102 264.1772,-23.7074 274.6999,-24.9416 273.1729,-18.1102"/>
</g>
</g>
</svg>
