<?xml version="1.0" encoding="UTF-8" standalone="no"?>
<!DOCTYPE svg PUBLIC "-//W3C//DTD SVG 1.1//EN"
 "http://www.w3.org/Graphics/SVG/1.1/DTD/svg11.dtd">
<!-- Generated by graphviz version 2.40.1 (20161225.0304)
 -->
<!-- Title: bfdec_set_si Pages: 1 -->
<svg width="557pt" height="199pt"
 viewBox="0.00 0.00 557.00 199.00" xmlns="http://www.w3.org/2000/svg" xmlns:xlink="http://www.w3.org/1999/xlink">
<g id="graph0" class="graph" transform="scale(1 1) rotate(0) translate(4 195.0033)">
<title>bfdec_set_si</title>
<!-- Node5199 -->
<g id="node1" class="node">
<title>Node5199</title>
<polygon fill="#bfbfbf" stroke="#000000" points="0,-38.5 0,-57.5 72,-57.5 72,-38.5 0,-38.5"/>
<text text-anchor="middle" x="36" y="-45.5" font-family="Helvetica,sans-Serif" font-size="10.00" fill="#000000">bfdec_set_si</text>
</g>
<!-- Node5200 -->
<g id="node2" class="node">
<title>Node5200</title>
<g id="a_node2"><a xlink:href="libbf_8h.html#a3a0734cc58dd4feba2c300d053f53e36" target="_top" xlink:title="bfdec_set_ui">
<polygon fill="none" stroke="#000000" points="108,-38.5 108,-57.5 180,-57.5 180,-38.5 108,-38.5"/>
<text text-anchor="middle" x="144" y="-45.5" font-family="Helvetica,sans-Serif" font-size="10.00" fill="#000000">bfdec_set_ui</text>
</a>
</g>
</g>
<!-- Node5199&#45;&gt;Node5200 -->
<g id="edge1" class="edge">
<title>Node5199&#45;&gt;Node5200</title>
<path fill="none" stroke="#191970" d="M72.2629,-48C80.3661,-48 89.0689,-48 97.5209,-48"/>
<polygon fill="#191970" stroke="#191970" points="97.649,-51.5001 107.649,-48 97.649,-44.5001 97.649,-51.5001"/>
</g>
<!-- Node5201 -->
<g id="node3" class="node">
<title>Node5201</title>
<g id="a_node3"><a xlink:href="libbf_8h.html#acd3459551d5c61344889ba07a276b0a0" target="_top" xlink:title="bfdec_normalize_and\l_round">
<polygon fill="none" stroke="#000000" points="216,-109 216,-139 325,-139 325,-109 216,-109"/>
<text text-anchor="start" x="224" y="-127" font-family="Helvetica,sans-Serif" font-size="10.00" fill="#000000">bfdec_normalize_and</text>
<text text-anchor="middle" x="270.5" y="-116" font-family="Helvetica,sans-Serif" font-size="10.00" fill="#000000">_round</text>
</a>
</g>
</g>
<!-- Node5200&#45;&gt;Node5201 -->
<g id="edge2" class="edge">
<title>Node5200&#45;&gt;Node5201</title>
<path fill="none" stroke="#191970" d="M160.0213,-57.6255C179.2059,-69.1513 211.8585,-88.7687 236.7041,-103.6958"/>
<polygon fill="#191970" stroke="#191970" points="235.0907,-106.8095 245.4652,-108.9593 238.6957,-100.8091 235.0907,-106.8095"/>
</g>
<!-- Node5202 -->
<g id="node4" class="node">
<title>Node5202</title>
<g id="a_node4"><a xlink:href="libbf_8h.html#aa84c22d9104847e3aa0ab161a8c2af22" target="_top" xlink:title="bfdec_resize">
<polygon fill="none" stroke="#ff0000" points="477,-76.5 477,-95.5 549,-95.5 549,-76.5 477,-76.5"/>
<text text-anchor="middle" x="513" y="-83.5" font-family="Helvetica,sans-Serif" font-size="10.00" fill="#000000">bfdec_resize</text>
</a>
</g>
</g>
<!-- Node5200&#45;&gt;Node5202 -->
<g id="edge8" class="edge">
<title>Node5200&#45;&gt;Node5202</title>
<path fill="none" stroke="#191970" d="M180.3715,-48.0624C236.6152,-48.667 347.9247,-51.8891 441,-67 451.2406,-68.6626 462.136,-71.1499 472.2695,-73.7814"/>
<polygon fill="#191970" stroke="#191970" points="471.5298,-77.207 482.0965,-76.4359 473.3552,-70.4492 471.5298,-77.207"/>
</g>
<!-- Node5224 -->
<g id="node8" class="node">
<title>Node5224</title>
<g id="a_node8"><a xlink:href="libbf_8h.html#a432cfe0b33bf61782ef53b643aeb1e0f" target="_top" xlink:title="bfdec_set_nan">
<polygon fill="none" stroke="#000000" points="230.5,-.5 230.5,-19.5 310.5,-19.5 310.5,-.5 230.5,-.5"/>
<text text-anchor="middle" x="270.5" y="-7.5" font-family="Helvetica,sans-Serif" font-size="10.00" fill="#000000">bfdec_set_nan</text>
</a>
</g>
</g>
<!-- Node5200&#45;&gt;Node5224 -->
<g id="edge9" class="edge">
<title>Node5200&#45;&gt;Node5224</title>
<path fill="none" stroke="#191970" d="M175.9213,-38.411C191.9516,-33.5956 211.5738,-27.7012 228.7816,-22.532"/>
<polygon fill="#191970" stroke="#191970" points="230.0187,-25.815 238.5889,-19.5859 228.0047,-19.1109 230.0187,-25.815"/>
</g>
<!-- Node5201&#45;&gt;Node5202 -->
<g id="edge3" class="edge">
<title>Node5201&#45;&gt;Node5202</title>
<path fill="none" stroke="#191970" d="M287.741,-139.0866C304.9459,-153.0577 332.8128,-172.8631 361,-181 395.1607,-190.8613 409.1582,-196.8208 441,-181 472.822,-165.189 494.3468,-127.8507 505.072,-104.9753"/>
<polygon fill="#191970" stroke="#191970" points="508.3707,-106.1712 509.2381,-95.6119 501.9752,-103.3256 508.3707,-106.1712"/>
</g>
<!-- Node5204 -->
<g id="node5" class="node">
<title>Node5204</title>
<g id="a_node5"><a xlink:href="libbf_8c.html#ae4e2654233077bd7073bfb8135db9d85" target="_top" xlink:title="clz_dec">
<polygon fill="none" stroke="#ff0000" points="376,-152.5 376,-171.5 426,-171.5 426,-152.5 376,-152.5"/>
<text text-anchor="middle" x="401" y="-159.5" font-family="Helvetica,sans-Serif" font-size="10.00" fill="#000000">clz_dec</text>
</a>
</g>
</g>
<!-- Node5201&#45;&gt;Node5204 -->
<g id="edge4" class="edge">
<title>Node5201&#45;&gt;Node5204</title>
<path fill="none" stroke="#191970" d="M322.0771,-139.0186C336.8379,-143.3168 352.5763,-147.8996 366.0838,-151.8328"/>
<polygon fill="#191970" stroke="#191970" points="365.3454,-155.2631 375.9252,-154.6985 367.3025,-148.5423 365.3454,-155.2631"/>
</g>
<!-- Node5207 -->
<g id="node6" class="node">
<title>Node5207</title>
<g id="a_node6"><a xlink:href="libbf_8c.html#a2db7e367914c68f1ac3e36c0ecc05979" target="_top" xlink:title="mp_shl_dec">
<polygon fill="none" stroke="#000000" points="366.5,-114.5 366.5,-133.5 435.5,-133.5 435.5,-114.5 366.5,-114.5"/>
<text text-anchor="middle" x="401" y="-121.5" font-family="Helvetica,sans-Serif" font-size="10.00" fill="#000000">mp_shl_dec</text>
</a>
</g>
</g>
<!-- Node5201&#45;&gt;Node5207 -->
<g id="edge5" class="edge">
<title>Node5201&#45;&gt;Node5207</title>
<path fill="none" stroke="#191970" d="M325.0876,-124C335.4552,-124 346.1918,-124 356.2122,-124"/>
<polygon fill="#191970" stroke="#191970" points="356.3497,-127.5001 366.3496,-124 356.3496,-120.5001 356.3497,-127.5001"/>
</g>
<!-- Node5208 -->
<g id="node7" class="node">
<title>Node5208</title>
<g id="a_node7"><a xlink:href="libbf_8c.html#aec64568757dfbfcb93d12168d4a9306a" target="_top" xlink:title="__bfdec_round">
<polygon fill="none" stroke="#ff0000" points="361,-76.5 361,-95.5 441,-95.5 441,-76.5 361,-76.5"/>
<text text-anchor="middle" x="401" y="-83.5" font-family="Helvetica,sans-Serif" font-size="10.00" fill="#000000">__bfdec_round</text>
</a>
</g>
</g>
<!-- Node5201&#45;&gt;Node5208 -->
<g id="edge6" class="edge">
<title>Node5201&#45;&gt;Node5208</title>
<path fill="none" stroke="#191970" d="M322.0771,-108.9814C334.0895,-105.4835 346.7492,-101.7972 358.3272,-98.4258"/>
<polygon fill="#191970" stroke="#191970" points="359.5572,-101.7131 368.1799,-95.5568 357.6001,-94.9922 359.5572,-101.7131"/>
</g>
<!-- Node5208&#45;&gt;Node5202 -->
<g id="edge7" class="edge">
<title>Node5208&#45;&gt;Node5202</title>
<path fill="none" stroke="#191970" d="M441.1182,-86C449.4183,-86 458.2258,-86 466.725,-86"/>
<polygon fill="#191970" stroke="#191970" points="466.8845,-89.5001 476.8845,-86 466.8844,-82.5001 466.8845,-89.5001"/>
</g>
<!-- Node5225 -->
<g id="node9" class="node">
<title>Node5225</title>
<g id="a_node9"><a xlink:href="libbf_8h.html#aa6282c789c16c8cf2fe6a8ebd671c6fc" target="_top" xlink:title="bf_set_nan">
<polygon fill="none" stroke="#ff0000" points="368.5,-.5 368.5,-19.5 433.5,-19.5 433.5,-.5 368.5,-.5"/>
<text text-anchor="middle" x="401" y="-7.5" font-family="Helvetica,sans-Serif" font-size="10.00" fill="#000000">bf_set_nan</text>
</a>
</g>
</g>
<!-- Node5224&#45;&gt;Node5225 -->
<g id="edge10" class="edge">
<title>Node5224&#45;&gt;Node5225</title>
<path fill="none" stroke="#191970" d="M310.7191,-10C325.6879,-10 342.7282,-10 357.9414,-10"/>
<polygon fill="#191970" stroke="#191970" points="358.1339,-13.5001 368.1339,-10 358.1338,-6.5001 358.1339,-13.5001"/>
</g>
</g>
</svg>
