<?xml version="1.0" encoding="UTF-8" standalone="no"?>
<!DOCTYPE svg PUBLIC "-//W3C//DTD SVG 1.1//EN"
 "http://www.w3.org/Graphics/SVG/1.1/DTD/svg11.dtd">
<!-- Generated by graphviz version 2.40.1 (20161225.0304)
 -->
<!-- Title: bf_get_rnd_add Pages: 1 -->
<svg width="803pt" height="623pt"
 viewBox="0.00 0.00 803.00 623.21" xmlns="http://www.w3.org/2000/svg" xmlns:xlink="http://www.w3.org/1999/xlink">
<g id="graph0" class="graph" transform="scale(1 1) rotate(0) translate(4 619.2059)">
<title>bf_get_rnd_add</title>
<!-- Node1667 -->
<g id="node1" class="node">
<title>Node1667</title>
<polygon fill="#bfbfbf" stroke="#000000" points="0,-261.1025 0,-280.1025 83,-280.1025 83,-261.1025 0,-261.1025"/>
<text text-anchor="middle" x="41.5" y="-268.1025" font-family="Helvetica,sans-Serif" font-size="10.00" fill="#000000">bf_get_rnd_add</text>
</g>
<!-- Node1668 -->
<g id="node2" class="node">
<title>Node1668</title>
<g id="a_node2"><a xlink:href="libbf_8c.html#a5a13527071b5331585beae41a51ed3c2" target="_top" xlink:title="__bf_round">
<polygon fill="none" stroke="#000000" points="119,-261.1025 119,-280.1025 184,-280.1025 184,-261.1025 119,-261.1025"/>
<text text-anchor="middle" x="151.5" y="-268.1025" font-family="Helvetica,sans-Serif" font-size="10.00" fill="#000000">__bf_round</text>
</a>
</g>
</g>
<!-- Node1667&#45;&gt;Node1668 -->
<g id="edge1" class="edge">
<title>Node1667&#45;&gt;Node1668</title>
<path fill="none" stroke="#191970" d="M93.2008,-270.6025C101.9049,-270.6025 110.7196,-270.6025 118.7686,-270.6025"/>
<polygon fill="#191970" stroke="#191970" points="93.0863,-267.1026 83.0863,-270.6025 93.0862,-274.1026 93.0863,-267.1026"/>
</g>
<!-- Node1669 -->
<g id="node3" class="node">
<title>Node1669</title>
<g id="a_node3"><a xlink:href="libbf_8h.html#ae822c0888d26739bb681dfef282b9150" target="_top" xlink:title="bf_normalize_and_round">
<polygon fill="none" stroke="#000000" points="220,-518.1025 220,-537.1025 342,-537.1025 342,-518.1025 220,-518.1025"/>
<text text-anchor="middle" x="281" y="-525.1025" font-family="Helvetica,sans-Serif" font-size="10.00" fill="#000000">bf_normalize_and_round</text>
</a>
</g>
</g>
<!-- Node1668&#45;&gt;Node1669 -->
<g id="edge2" class="edge">
<title>Node1668&#45;&gt;Node1669</title>
<path fill="none" stroke="#191970" d="M161.0779,-289.6103C186.8251,-340.7071 256.8771,-479.7291 276.0767,-517.8318"/>
<polygon fill="#191970" stroke="#191970" points="164.044,-287.7187 156.4184,-280.3633 157.7928,-290.8687 164.044,-287.7187"/>
</g>
<!-- Node1738 -->
<g id="node20" class="node">
<title>Node1738</title>
<g id="a_node20"><a xlink:href="libbf_8h.html#abd4ca8358212228a53981a32a10286b5" target="_top" xlink:title="bf_round">
<polygon fill="none" stroke="#000000" points="254,-290.1025 254,-309.1025 308,-309.1025 308,-290.1025 254,-290.1025"/>
<text text-anchor="middle" x="281" y="-297.1025" font-family="Helvetica,sans-Serif" font-size="10.00" fill="#000000">bf_round</text>
</a>
</g>
</g>
<!-- Node1668&#45;&gt;Node1738 -->
<g id="edge22" class="edge">
<title>Node1668&#45;&gt;Node1738</title>
<path fill="none" stroke="#191970" d="M194.0908,-280.1402C213.6677,-284.5242 236.3176,-289.5964 253.5859,-293.4634"/>
<polygon fill="#191970" stroke="#191970" points="194.7015,-276.6903 184.1783,-277.9204 193.1718,-283.5211 194.7015,-276.6903"/>
</g>
<!-- Node1743 -->
<g id="node26" class="node">
<title>Node1743</title>
<g id="a_node26"><a xlink:href="libbf_8h.html#ae1d5fe9356228cc3a566786637f26680" target="_top" xlink:title="bf_mul_2exp">
<polygon fill="none" stroke="#000000" points="383.5,-157.1025 383.5,-176.1025 455.5,-176.1025 455.5,-157.1025 383.5,-157.1025"/>
<text text-anchor="middle" x="419.5" y="-164.1025" font-family="Helvetica,sans-Serif" font-size="10.00" fill="#000000">bf_mul_2exp</text>
</a>
</g>
</g>
<!-- Node1668&#45;&gt;Node1743 -->
<g id="edge33" class="edge">
<title>Node1668&#45;&gt;Node1743</title>
<path fill="none" stroke="#191970" d="M185.855,-257.2707C240.7191,-235.9801 346.8119,-194.8098 394.8274,-176.1769"/>
<polygon fill="#191970" stroke="#191970" points="184.2889,-254.1241 176.2324,-261.0048 186.8213,-260.6499 184.2889,-254.1241"/>
</g>
<!-- Node1744 -->
<g id="node28" class="node">
<title>Node1744</title>
<g id="a_node28"><a xlink:href="libbf_8c.html#a39e7dd6286a6f0541a12366ebd93dbfd" target="_top" xlink:title="bf_ziv_rounding">
<polygon fill="none" stroke="#ff0000" points="502,-81.1025 502,-100.1025 587,-100.1025 587,-81.1025 502,-81.1025"/>
<text text-anchor="middle" x="544.5" y="-88.1025" font-family="Helvetica,sans-Serif" font-size="10.00" fill="#000000">bf_ziv_rounding</text>
</a>
</g>
</g>
<!-- Node1668&#45;&gt;Node1744 -->
<g id="edge42" class="edge">
<title>Node1668&#45;&gt;Node1744</title>
<path fill="none" stroke="#191970" d="M162.9592,-252.5936C175.0966,-234.9064 195.8241,-208.3505 220,-192.6025 310.3052,-133.7785 436.7701,-106.9869 501.9446,-96.4516"/>
<polygon fill="#191970" stroke="#191970" points="160.0394,-250.6638 157.4225,-260.9303 165.8705,-254.5365 160.0394,-250.6638"/>
</g>
<!-- Node1670 -->
<g id="node4" class="node">
<title>Node1670</title>
<g id="a_node4"><a xlink:href="libbf_8c.html#aaebd1df91497246cd81f23918af58d33" target="_top" xlink:title="bf_add_internal">
<polygon fill="none" stroke="#ff0000" points="378,-499.1025 378,-518.1025 461,-518.1025 461,-499.1025 378,-499.1025"/>
<text text-anchor="middle" x="419.5" y="-506.1025" font-family="Helvetica,sans-Serif" font-size="10.00" fill="#000000">bf_add_internal</text>
</a>
</g>
</g>
<!-- Node1669&#45;&gt;Node1670 -->
<g id="edge3" class="edge">
<title>Node1669&#45;&gt;Node1670</title>
<path fill="none" stroke="#191970" d="M352.0629,-517.8538C360.8539,-516.6478 369.6059,-515.4471 377.7517,-514.3297"/>
<polygon fill="#191970" stroke="#191970" points="351.5828,-514.3868 342.1513,-519.2135 352.5342,-521.3218 351.5828,-514.3868"/>
</g>
<!-- Node1728 -->
<g id="node5" class="node">
<title>Node1728</title>
<g id="a_node5"><a xlink:href="libbf_8h.html#ac290278d0c37a0e7786873f98aadba47" target="_top" xlink:title="bf_mul">
<polygon fill="none" stroke="#ff0000" points="396.5,-385.1025 396.5,-404.1025 442.5,-404.1025 442.5,-385.1025 396.5,-385.1025"/>
<text text-anchor="middle" x="419.5" y="-392.1025" font-family="Helvetica,sans-Serif" font-size="10.00" fill="#000000">bf_mul</text>
</a>
</g>
</g>
<!-- Node1669&#45;&gt;Node1728 -->
<g id="edge4" class="edge">
<title>Node1669&#45;&gt;Node1728</title>
<path fill="none" stroke="#191970" d="M298.3879,-510.905C327.6228,-482.8311 385.7307,-427.0307 409.256,-404.4397"/>
<polygon fill="#191970" stroke="#191970" points="295.7492,-508.5865 290.9606,-518.0374 300.5977,-513.6355 295.7492,-508.5865"/>
</g>
<!-- Node1711 -->
<g id="node7" class="node">
<title>Node1711</title>
<g id="a_node7"><a xlink:href="libbf_8c.html#aaaeb6c790a8b174f3c5631ee33c81910" target="_top" xlink:title="bf_atof_internal">
<polygon fill="none" stroke="#ff0000" points="628,-546.1025 628,-565.1025 711,-565.1025 711,-546.1025 628,-546.1025"/>
<text text-anchor="middle" x="669.5" y="-553.1025" font-family="Helvetica,sans-Serif" font-size="10.00" fill="#000000">bf_atof_internal</text>
</a>
</g>
</g>
<!-- Node1669&#45;&gt;Node1711 -->
<g id="edge21" class="edge">
<title>Node1669&#45;&gt;Node1711</title>
<path fill="none" stroke="#191970" d="M295.9695,-544.7547C313.4692,-563.3706 344.3527,-591.9909 378,-603.6025 476.6636,-637.6511 602.6666,-587.2365 650.198,-565.1266"/>
<polygon fill="#191970" stroke="#191970" points="298.4378,-542.2671 289.1142,-537.2351 293.2648,-546.9831 298.4378,-542.2671"/>
</g>
<!-- Node1736 -->
<g id="node18" class="node">
<title>Node1736</title>
<g id="a_node18"><a xlink:href="libbf_8c.html#ad7a540de8355f07757e52b48d35dd708" target="_top" xlink:title="__bf_div">
<polygon fill="none" stroke="#ff0000" points="393,-575.1025 393,-594.1025 446,-594.1025 446,-575.1025 393,-575.1025"/>
<text text-anchor="middle" x="419.5" y="-582.1025" font-family="Helvetica,sans-Serif" font-size="10.00" fill="#000000">__bf_div</text>
</a>
</g>
</g>
<!-- Node1669&#45;&gt;Node1736 -->
<g id="edge19" class="edge">
<title>Node1669&#45;&gt;Node1736</title>
<path fill="none" stroke="#191970" d="M313.7523,-541.0817C339.1234,-551.5233 373.6457,-565.731 396.2426,-575.0308"/>
<polygon fill="#191970" stroke="#191970" points="314.7613,-537.7122 304.1818,-537.143 312.0972,-544.1855 314.7613,-537.7122"/>
</g>
<!-- Node1687 -->
<g id="node19" class="node">
<title>Node1687</title>
<g id="a_node19"><a xlink:href="libbf_8c.html#ad7d8e39c51ec431bcd496bb37382ae94" target="_top" xlink:title="bf_logic_op">
<polygon fill="none" stroke="#ff0000" points="386.5,-537.1025 386.5,-556.1025 452.5,-556.1025 452.5,-537.1025 386.5,-537.1025"/>
<text text-anchor="middle" x="419.5" y="-544.1025" font-family="Helvetica,sans-Serif" font-size="10.00" fill="#000000">bf_logic_op</text>
</a>
</g>
</g>
<!-- Node1669&#45;&gt;Node1687 -->
<g id="edge20" class="edge">
<title>Node1669&#45;&gt;Node1687</title>
<path fill="none" stroke="#191970" d="M352.1825,-537.3676C364.1402,-539.008 376.021,-540.6378 386.3973,-542.0613"/>
<polygon fill="#191970" stroke="#191970" points="352.5342,-533.8831 342.1513,-535.9914 351.5828,-540.8182 352.5342,-533.8831"/>
</g>
<!-- Node1733 -->
<g id="node6" class="node">
<title>Node1733</title>
<g id="a_node6"><a xlink:href="libbf_8h.html#a0b4d56fc6808de8feed2a234525df692" target="_top" xlink:title="bf_mul_pow_radix">
<polygon fill="none" stroke="#000000" points="497,-461.1025 497,-480.1025 592,-480.1025 592,-461.1025 497,-461.1025"/>
<text text-anchor="middle" x="544.5" y="-468.1025" font-family="Helvetica,sans-Serif" font-size="10.00" fill="#000000">bf_mul_pow_radix</text>
</a>
</g>
</g>
<!-- Node1728&#45;&gt;Node1733 -->
<g id="edge5" class="edge">
<title>Node1728&#45;&gt;Node1733</title>
<path fill="none" stroke="#191970" d="M443.9331,-409.4578C469.0616,-424.7359 507.4509,-448.0766 528.7972,-461.0552"/>
<polygon fill="#191970" stroke="#191970" points="445.6943,-406.4325 435.3313,-404.2279 442.0577,-412.4137 445.6943,-406.4325"/>
</g>
<!-- Node1697 -->
<g id="node9" class="node">
<title>Node1697</title>
<g id="a_node9"><a xlink:href="libbf_8c.html#a157194b3c7faaa17e39ae78cd98c4385" target="_top" xlink:title="bf_exp_internal">
<polygon fill="none" stroke="#ff0000" points="503,-233.1025 503,-252.1025 586,-252.1025 586,-233.1025 503,-233.1025"/>
<text text-anchor="middle" x="544.5" y="-240.1025" font-family="Helvetica,sans-Serif" font-size="10.00" fill="#000000">bf_exp_internal</text>
</a>
</g>
</g>
<!-- Node1728&#45;&gt;Node1697 -->
<g id="edge8" class="edge">
<title>Node1728&#45;&gt;Node1697</title>
<path fill="none" stroke="#191970" d="M451.7088,-383.3017C455.1551,-381.1373 458.3602,-378.5901 461,-375.6025 496.1812,-335.7854 460.8571,-300.5486 497,-261.6025 500.5042,-257.8265 504.8587,-254.7862 509.4985,-252.3421"/>
<polygon fill="#191970" stroke="#191970" points="450.0821,-380.2027 442.83,-387.9265 453.3159,-386.4109 450.0821,-380.2027"/>
</g>
<!-- Node1700 -->
<g id="node11" class="node">
<title>Node1700</title>
<g id="a_node11"><a xlink:href="libbf_8c.html#aab7bc918fdd8dbef25c31c6881c73fdd" target="_top" xlink:title="bf_log_internal">
<polygon fill="none" stroke="#000000" points="504.5,-271.1025 504.5,-290.1025 584.5,-290.1025 584.5,-271.1025 504.5,-271.1025"/>
<text text-anchor="middle" x="544.5" y="-278.1025" font-family="Helvetica,sans-Serif" font-size="10.00" fill="#000000">bf_log_internal</text>
</a>
</g>
</g>
<!-- Node1728&#45;&gt;Node1700 -->
<g id="edge10" class="edge">
<title>Node1728&#45;&gt;Node1700</title>
<path fill="none" stroke="#191970" d="M451.8481,-382.6237C455.1668,-380.5941 458.3036,-378.264 461,-375.6025 487.6001,-349.3466 469.7667,-325.201 497,-299.6025 501.0124,-295.8309 505.8674,-292.7718 510.9215,-290.3012"/>
<polygon fill="#191970" stroke="#191970" points="450.0768,-379.5998 442.8164,-387.3158 453.3039,-385.8115 450.0768,-379.5998"/>
</g>
<!-- Node1675 -->
<g id="node13" class="node">
<title>Node1675</title>
<g id="a_node13"><a xlink:href="libbf_8h.html#a93fe073491f8c5f086a75e7bf8865b34" target="_top" xlink:title="bf_pow">
<polygon fill="none" stroke="#000000" points="747,-176.1025 747,-195.1025 795,-195.1025 795,-176.1025 747,-176.1025"/>
<text text-anchor="middle" x="771" y="-183.1025" font-family="Helvetica,sans-Serif" font-size="10.00" fill="#000000">bf_pow</text>
</a>
</g>
</g>
<!-- Node1728&#45;&gt;Node1675 -->
<g id="edge13" class="edge">
<title>Node1728&#45;&gt;Node1675</title>
<path fill="none" stroke="#191970" d="M452.5867,-398.2172C512.1373,-402.7878 637.952,-403.3271 711,-337.6025 754.8677,-298.1327 767.0598,-222.4576 770.0896,-195.467"/>
<polygon fill="#191970" stroke="#191970" points="452.8644,-394.7282 442.6026,-397.3638 452.2681,-401.7028 452.8644,-394.7282"/>
</g>
<!-- Node1724 -->
<g id="node14" class="node">
<title>Node1724</title>
<g id="a_node14"><a xlink:href="libbf_8c.html#a15b40c4ae7e9b401fd0c6dc398eacef7" target="_top" xlink:title="bf_sqrt_sin">
<polygon fill="none" stroke="#000000" points="512,-309.1025 512,-328.1025 577,-328.1025 577,-309.1025 512,-309.1025"/>
<text text-anchor="middle" x="544.5" y="-316.1025" font-family="Helvetica,sans-Serif" font-size="10.00" fill="#000000">bf_sqrt_sin</text>
</a>
</g>
</g>
<!-- Node1728&#45;&gt;Node1724 -->
<g id="edge14" class="edge">
<title>Node1728&#45;&gt;Node1724</title>
<path fill="none" stroke="#191970" d="M451.6908,-381.0982C454.9127,-379.3841 458.0717,-377.5447 461,-375.6025 479.088,-363.6052 479.1463,-354.9457 497,-342.6025 504.904,-337.138 514.2253,-332.1525 522.5079,-328.1587"/>
<polygon fill="#191970" stroke="#191970" points="450.0119,-378.0234 442.5833,-385.5777 453.1014,-384.3048 450.0119,-378.0234"/>
</g>
<!-- Node1680 -->
<g id="node15" class="node">
<title>Node1680</title>
<g id="a_node15"><a xlink:href="libbf_8c.html#a2b19e3958f6cf3fa0cc534681a5ff259" target="_top" xlink:title="bf_sincos">
<polygon fill="none" stroke="#ff0000" points="640,-309.1025 640,-328.1025 699,-328.1025 699,-309.1025 640,-309.1025"/>
<text text-anchor="middle" x="669.5" y="-316.1025" font-family="Helvetica,sans-Serif" font-size="10.00" fill="#000000">bf_sincos</text>
</a>
</g>
</g>
<!-- Node1728&#45;&gt;Node1680 -->
<g id="edge16" class="edge">
<title>Node1728&#45;&gt;Node1680</title>
<path fill="none" stroke="#191970" d="M452.3584,-384.6135C501.3969,-369.7058 592.9828,-341.8637 639.9943,-327.5722"/>
<polygon fill="#191970" stroke="#191970" points="451.1209,-381.3315 442.5713,-387.5888 453.157,-388.0288 451.1209,-381.3315"/>
</g>
<!-- Node1702 -->
<g id="node16" class="node">
<title>Node1702</title>
<g id="a_node16"><a xlink:href="libbf_8c.html#aa4b535a5b33344704c576607ab4f0463" target="_top" xlink:title="bf_atan_internal">
<polygon fill="none" stroke="#ff0000" points="501.5,-195.1025 501.5,-214.1025 587.5,-214.1025 587.5,-195.1025 501.5,-195.1025"/>
<text text-anchor="middle" x="544.5" y="-202.1025" font-family="Helvetica,sans-Serif" font-size="10.00" fill="#000000">bf_atan_internal</text>
</a>
</g>
</g>
<!-- Node1728&#45;&gt;Node1702 -->
<g id="edge17" class="edge">
<title>Node1728&#45;&gt;Node1702</title>
<path fill="none" stroke="#191970" d="M451.7015,-383.6279C455.1972,-381.4026 458.4165,-378.7519 461,-375.6025 505.0306,-321.9269 451.6719,-276.1868 497,-223.6025 500.3634,-219.7006 504.641,-216.5915 509.2459,-214.1162"/>
<polygon fill="#191970" stroke="#191970" points="449.9126,-380.6129 442.6478,-388.3248 453.1362,-386.8265 449.9126,-380.6129"/>
</g>
<!-- Node1733&#45;&gt;Node1711 -->
<g id="edge6" class="edge">
<title>Node1733&#45;&gt;Node1711</title>
<path fill="none" stroke="#191970" d="M567.221,-486.0527C592.8846,-503.504 633.86,-531.3672 655.3281,-545.9656"/>
<polygon fill="#191970" stroke="#191970" points="569.0765,-483.0819 558.8391,-480.353 565.1403,-488.8704 569.0765,-483.0819"/>
</g>
<!-- Node1694 -->
<g id="node8" class="node">
<title>Node1694</title>
<g id="a_node8"><a xlink:href="libbf_8c.html#ad79aefc435021a0743c89cb4aec7fa56" target="_top" xlink:title="bf_ftoa_internal">
<polygon fill="none" stroke="#ff0000" points="628,-442.1025 628,-461.1025 711,-461.1025 711,-442.1025 628,-442.1025"/>
<text text-anchor="middle" x="669.5" y="-449.1025" font-family="Helvetica,sans-Serif" font-size="10.00" fill="#000000">bf_ftoa_internal</text>
</a>
</g>
</g>
<!-- Node1733&#45;&gt;Node1694 -->
<g id="edge7" class="edge">
<title>Node1733&#45;&gt;Node1694</title>
<path fill="none" stroke="#191970" d="M602.1466,-461.8402C610.7755,-460.5286 619.5285,-459.1981 627.7424,-457.9496"/>
<polygon fill="#191970" stroke="#191970" points="601.4742,-458.4021 592.1137,-463.3652 602.5262,-465.3226 601.4742,-458.4021"/>
</g>
<!-- Node1698 -->
<g id="node10" class="node">
<title>Node1698</title>
<g id="a_node10"><a xlink:href="libbf_8h.html#a36f22f93ba4258209be035a63b80b87f" target="_top" xlink:title="bf_exp">
<polygon fill="none" stroke="#000000" points="646.5,-233.1025 646.5,-252.1025 692.5,-252.1025 692.5,-233.1025 646.5,-233.1025"/>
<text text-anchor="middle" x="669.5" y="-240.1025" font-family="Helvetica,sans-Serif" font-size="10.00" fill="#000000">bf_exp</text>
</a>
</g>
</g>
<!-- Node1697&#45;&gt;Node1698 -->
<g id="edge9" class="edge">
<title>Node1697&#45;&gt;Node1698</title>
<path fill="none" stroke="#191970" d="M596.199,-242.6025C613.6105,-242.6025 632.1754,-242.6025 646.2654,-242.6025"/>
<polygon fill="#191970" stroke="#191970" points="596.1232,-239.1026 586.1232,-242.6025 596.1232,-246.1026 596.1232,-239.1026"/>
</g>
<!-- Node1701 -->
<g id="node12" class="node">
<title>Node1701</title>
<g id="a_node12"><a xlink:href="libbf_8h.html#a4137b2308536cbc92addaeb3f0c79d35" target="_top" xlink:title="bf_log">
<polygon fill="none" stroke="#ff0000" points="648,-271.1025 648,-290.1025 691,-290.1025 691,-271.1025 648,-271.1025"/>
<text text-anchor="middle" x="669.5" y="-278.1025" font-family="Helvetica,sans-Serif" font-size="10.00" fill="#000000">bf_log</text>
</a>
</g>
</g>
<!-- Node1700&#45;&gt;Node1701 -->
<g id="edge11" class="edge">
<title>Node1700&#45;&gt;Node1701</title>
<path fill="none" stroke="#191970" d="M594.8133,-280.6025C613.2992,-280.6025 633.2649,-280.6025 647.8983,-280.6025"/>
<polygon fill="#191970" stroke="#191970" points="594.7389,-277.1026 584.7388,-280.6025 594.7388,-284.1026 594.7389,-277.1026"/>
</g>
<!-- Node1701&#45;&gt;Node1675 -->
<g id="edge12" class="edge">
<title>Node1701&#45;&gt;Node1675</title>
<path fill="none" stroke="#191970" d="M700.5142,-268.4152C704.2067,-266.391 707.7969,-264.119 711,-261.6025 735.5874,-242.2855 756.1198,-210.9186 765.5101,-195.2092"/>
<polygon fill="#191970" stroke="#191970" points="698.7278,-265.3928 691.2866,-272.9346 701.8068,-271.6793 698.7278,-265.3928"/>
</g>
<!-- Node1724&#45;&gt;Node1680 -->
<g id="edge15" class="edge">
<title>Node1724&#45;&gt;Node1680</title>
<path fill="none" stroke="#191970" d="M587.4054,-318.6025C604.6366,-318.6025 624.0786,-318.6025 639.7157,-318.6025"/>
<polygon fill="#191970" stroke="#191970" points="587.016,-315.1026 577.016,-318.6025 587.0159,-322.1026 587.016,-315.1026"/>
</g>
<!-- Node1703 -->
<g id="node17" class="node">
<title>Node1703</title>
<g id="a_node17"><a xlink:href="libbf_8h.html#a0bb2c5b98e3f978b84df9849c7ec50d6" target="_top" xlink:title="bf_atan">
<polygon fill="none" stroke="#ff0000" points="645,-195.1025 645,-214.1025 694,-214.1025 694,-195.1025 645,-195.1025"/>
<text text-anchor="middle" x="669.5" y="-202.1025" font-family="Helvetica,sans-Serif" font-size="10.00" fill="#000000">bf_atan</text>
</a>
</g>
</g>
<!-- Node1702&#45;&gt;Node1703 -->
<g id="edge18" class="edge">
<title>Node1702&#45;&gt;Node1703</title>
<path fill="none" stroke="#191970" d="M597.5466,-204.6025C613.9032,-204.6025 631.144,-204.6025 644.6476,-204.6025"/>
<polygon fill="#191970" stroke="#191970" points="597.5179,-201.1026 587.5179,-204.6025 597.5179,-208.1026 597.5179,-201.1026"/>
</g>
<!-- Node1738&#45;&gt;Node1733 -->
<g id="edge30" class="edge">
<title>Node1738&#45;&gt;Node1733</title>
<path fill="none" stroke="#191970" d="M287.6662,-318.8066C299.972,-351.1214 329.5191,-415.8457 378,-446.6025 413.3884,-469.0533 461.4195,-473.8757 496.8002,-473.7785"/>
<polygon fill="#191970" stroke="#191970" points="290.8706,-317.3778 284.1515,-309.186 284.2956,-319.7799 290.8706,-317.3778"/>
</g>
<!-- Node1738&#45;&gt;Node1694 -->
<g id="edge31" class="edge">
<title>Node1738&#45;&gt;Node1694</title>
<path fill="none" stroke="#191970" d="M290.9249,-318.26C305.9478,-344.4465 337.1006,-391.3804 378,-413.6025 420.2095,-436.5363 557.9676,-446.2895 627.9263,-449.8455"/>
<polygon fill="#191970" stroke="#191970" points="293.8839,-316.379 285.9703,-309.3345 287.7636,-319.7764 293.8839,-316.379"/>
</g>
<!-- Node1677 -->
<g id="node21" class="node">
<title>Node1677</title>
<g id="a_node21"><a xlink:href="libbf_8h.html#a951ec20cd7fa3bf021d165b213e15ce4" target="_top" xlink:title="bf_divrem">
<polygon fill="none" stroke="#ff0000" points="390,-347.1025 390,-366.1025 449,-366.1025 449,-347.1025 390,-347.1025"/>
<text text-anchor="middle" x="419.5" y="-354.1025" font-family="Helvetica,sans-Serif" font-size="10.00" fill="#000000">bf_divrem</text>
</a>
</g>
</g>
<!-- Node1738&#45;&gt;Node1677 -->
<g id="edge23" class="edge">
<title>Node1738&#45;&gt;Node1677</title>
<path fill="none" stroke="#191970" d="M313.7523,-313.0817C339.1234,-323.5233 373.6457,-337.731 396.2426,-347.0308"/>
<polygon fill="#191970" stroke="#191970" points="314.7613,-309.7122 304.1818,-309.143 312.0972,-316.1855 314.7613,-309.7122"/>
</g>
<!-- Node1739 -->
<g id="node22" class="node">
<title>Node1739</title>
<g id="a_node22"><a xlink:href="libbf_8h.html#a1a8b9ac1fea38b97fc6be8663ce9e867" target="_top" xlink:title="bf_sqrt">
<polygon fill="none" stroke="#ff0000" points="396,-309.1025 396,-328.1025 443,-328.1025 443,-309.1025 396,-309.1025"/>
<text text-anchor="middle" x="419.5" y="-316.1025" font-family="Helvetica,sans-Serif" font-size="10.00" fill="#000000">bf_sqrt</text>
</a>
</g>
</g>
<!-- Node1738&#45;&gt;Node1739 -->
<g id="edge24" class="edge">
<title>Node1738&#45;&gt;Node1739</title>
<path fill="none" stroke="#191970" d="M318.1265,-304.6956C342.7938,-308.0796 374.447,-312.4219 395.7673,-315.3467"/>
<polygon fill="#191970" stroke="#191970" points="318.4159,-301.2026 308.033,-303.311 317.4645,-308.1377 318.4159,-301.2026"/>
</g>
<!-- Node1740 -->
<g id="node23" class="node">
<title>Node1740</title>
<g id="a_node23"><a xlink:href="libbf_8h.html#aaf7d6961c71cf6614ec51fd78755a031" target="_top" xlink:title="bf_rint">
<polygon fill="none" stroke="#ff0000" points="397.5,-271.1025 397.5,-290.1025 441.5,-290.1025 441.5,-271.1025 397.5,-271.1025"/>
<text text-anchor="middle" x="419.5" y="-278.1025" font-family="Helvetica,sans-Serif" font-size="10.00" fill="#000000">bf_rint</text>
</a>
</g>
</g>
<!-- Node1738&#45;&gt;Node1740 -->
<g id="edge28" class="edge">
<title>Node1738&#45;&gt;Node1740</title>
<path fill="none" stroke="#191970" d="M317.9858,-294.5286C343.1949,-291.0703 375.7502,-286.6042 397.1069,-283.6744"/>
<polygon fill="#191970" stroke="#191970" points="317.4645,-291.0672 308.033,-295.894 318.4159,-298.0023 317.4645,-291.0672"/>
</g>
<!-- Node1741 -->
<g id="node24" class="node">
<title>Node1741</title>
<g id="a_node24"><a xlink:href="libbf_8h.html#a74f8125e45e931d1ecec220cea9c952e" target="_top" xlink:title="bf_get_float64">
<polygon fill="none" stroke="#000000" points="380.5,-233.1025 380.5,-252.1025 458.5,-252.1025 458.5,-233.1025 380.5,-233.1025"/>
<text text-anchor="middle" x="419.5" y="-240.1025" font-family="Helvetica,sans-Serif" font-size="10.00" fill="#000000">bf_get_float64</text>
</a>
</g>
</g>
<!-- Node1738&#45;&gt;Node1741 -->
<g id="edge29" class="edge">
<title>Node1738&#45;&gt;Node1741</title>
<path fill="none" stroke="#191970" d="M313.7523,-286.1232C339.1234,-275.6816 373.6457,-261.4739 396.2426,-252.1741"/>
<polygon fill="#191970" stroke="#191970" points="312.0972,-283.0194 304.1818,-290.0619 314.7613,-289.4927 312.0972,-283.0194"/>
</g>
<!-- Node1742 -->
<g id="node25" class="node">
<title>Node1742</title>
<g id="a_node25"><a xlink:href="libbf_8c.html#afad3b4ae5f29e7af0b533bb452a4f36a" target="_top" xlink:title="bf_const_get">
<polygon fill="none" stroke="#ff0000" points="383,-195.1025 383,-214.1025 456,-214.1025 456,-195.1025 383,-195.1025"/>
<text text-anchor="middle" x="419.5" y="-202.1025" font-family="Helvetica,sans-Serif" font-size="10.00" fill="#000000">bf_const_get</text>
</a>
</g>
</g>
<!-- Node1738&#45;&gt;Node1742 -->
<g id="edge32" class="edge">
<title>Node1738&#45;&gt;Node1742</title>
<path fill="none" stroke="#191970" d="M298.9527,-283.4198C317.742,-267.0062 348.5537,-241.5338 378,-223.6025 383.6851,-220.1405 390.1075,-216.9048 396.1712,-214.1196"/>
<polygon fill="#191970" stroke="#191970" points="296.6182,-280.8119 291.4444,-290.0576 301.2547,-286.0563 296.6182,-280.8119"/>
</g>
<!-- Node1739&#45;&gt;Node1700 -->
<g id="edge25" class="edge">
<title>Node1739&#45;&gt;Node1700</title>
<path fill="none" stroke="#191970" d="M452.6125,-308.5363C471.3396,-302.8432 494.6243,-295.7647 513.0682,-290.1577"/>
<polygon fill="#191970" stroke="#191970" points="451.5612,-305.1976 443.0115,-311.455 453.5972,-311.895 451.5612,-305.1976"/>
</g>
<!-- Node1739&#45;&gt;Node1724 -->
<g id="edge26" class="edge">
<title>Node1739&#45;&gt;Node1724</title>
<path fill="none" stroke="#191970" d="M453.1574,-318.6025C471.3142,-318.6025 493.6308,-318.6025 511.6603,-318.6025"/>
<polygon fill="#191970" stroke="#191970" points="453.0116,-315.1026 443.0115,-318.6025 453.0115,-322.1026 453.0116,-315.1026"/>
</g>
<!-- Node1739&#45;&gt;Node1702 -->
<g id="edge27" class="edge">
<title>Node1739&#45;&gt;Node1702</title>
<path fill="none" stroke="#191970" d="M452.3542,-306.311C455.4855,-304.3556 458.4411,-302.1283 461,-299.6025 487.6001,-273.3466 469.7667,-249.201 497,-223.6025 501.0124,-219.8309 505.8674,-216.7718 510.9215,-214.3012"/>
<polygon fill="#191970" stroke="#191970" points="450.4541,-303.3564 443.2481,-311.1232 453.7247,-309.5453 450.4541,-303.3564"/>
</g>
<!-- Node1743&#45;&gt;Node1697 -->
<g id="edge34" class="edge">
<title>Node1743&#45;&gt;Node1697</title>
<path fill="none" stroke="#191970" d="M453.5079,-180.8352C456.1136,-182.3254 458.6435,-183.917 461,-185.6025 479.9225,-199.1366 477.7527,-210.5344 497,-223.6025 502.4376,-227.2944 508.7006,-230.4395 514.8574,-233.0454"/>
<polygon fill="#191970" stroke="#191970" points="454.988,-177.6603 444.4984,-176.1706 451.7695,-183.8766 454.988,-177.6603"/>
</g>
<!-- Node1743&#45;&gt;Node1700 -->
<g id="edge35" class="edge">
<title>Node1743&#45;&gt;Node1700</title>
<path fill="none" stroke="#191970" d="M456.3492,-181.6222C457.9986,-182.8578 459.5619,-184.183 461,-185.6025 487.6001,-211.8583 469.7667,-236.0039 497,-261.6025 501.0124,-265.374 505.8674,-268.4331 510.9215,-270.9037"/>
<polygon fill="#191970" stroke="#191970" points="457.9085,-178.4706 447.5667,-176.1687 454.2158,-184.4174 457.9085,-178.4706"/>
</g>
<!-- Node1743&#45;&gt;Node1675 -->
<g id="edge36" class="edge">
<title>Node1743&#45;&gt;Node1675</title>
<path fill="none" stroke="#191970" d="M425.7749,-147.1526C435.8797,-119.3255 458.6106,-68.941 497,-45.6025 578.3986,3.8833 632.2395,19.9825 711,-33.6025 736.0983,-50.6782 761.1629,-145.4217 768.7116,-176.0499"/>
<polygon fill="#191970" stroke="#191970" points="422.3563,-146.331 422.4113,-156.9256 428.9752,-148.6091 422.3563,-146.331"/>
</g>
<!-- Node1743&#45;&gt;Node1724 -->
<g id="edge37" class="edge">
<title>Node1743&#45;&gt;Node1724</title>
<path fill="none" stroke="#191970" d="M457.2399,-181.9311C458.5833,-183.0739 459.8457,-184.2961 461,-185.6025 496.1812,-225.4195 460.8571,-260.6564 497,-299.6025 501.1084,-304.0295 506.3856,-307.4452 511.9209,-310.0745"/>
<polygon fill="#191970" stroke="#191970" points="459.0854,-178.9534 448.8491,-176.2205 455.1469,-184.7404 459.0854,-178.9534"/>
</g>
<!-- Node1743&#45;&gt;Node1680 -->
<g id="edge38" class="edge">
<title>Node1743&#45;&gt;Node1680</title>
<path fill="none" stroke="#191970" d="M465.8367,-158.9226C503.9148,-155.3361 557.0892,-156.9469 592,-185.6025 633.0694,-219.3132 592.8188,-259.7854 628,-299.6025 631.358,-303.4029 635.6307,-306.4906 640.1509,-308.9844"/>
<polygon fill="#191970" stroke="#191970" points="465.0834,-155.4841 455.5248,-160.0538 465.8468,-162.4424 465.0834,-155.4841"/>
</g>
<!-- Node1743&#45;&gt;Node1702 -->
<g id="edge39" class="edge">
<title>Node1743&#45;&gt;Node1702</title>
<path fill="none" stroke="#191970" d="M460.7345,-179.1378C477.7393,-184.3072 497.1286,-190.2016 512.9673,-195.0165"/>
<polygon fill="#191970" stroke="#191970" points="461.6285,-175.7514 451.0428,-176.1915 459.5924,-182.4488 461.6285,-175.7514"/>
</g>
<!-- Node1743&#45;&gt;Node1703 -->
<g id="edge40" class="edge">
<title>Node1743&#45;&gt;Node1703</title>
<path fill="none" stroke="#191970" d="M457.5267,-154.1848C493.434,-144.5888 548.163,-135.5506 592,-152.6025 612.2286,-160.4711 609.912,-173.6052 628,-185.6025 633.2828,-189.1064 639.3166,-192.2759 645.1162,-194.9777"/>
<polygon fill="#191970" stroke="#191970" points="456.1478,-150.937 447.4721,-157.0183 458.0466,-157.6746 456.1478,-150.937"/>
</g>
<!-- Node1708 -->
<g id="node27" class="node">
<title>Node1708</title>
<g id="a_node27"><a xlink:href="libbf_8h.html#a45cd74dd3a694c26e716762b7fd36955" target="_top" xlink:title="bf_acos">
<polygon fill="none" stroke="#000000" points="644,-43.1025 644,-62.1025 695,-62.1025 695,-43.1025 644,-43.1025"/>
<text text-anchor="middle" x="669.5" y="-50.1025" font-family="Helvetica,sans-Serif" font-size="10.00" fill="#000000">bf_acos</text>
</a>
</g>
</g>
<!-- Node1743&#45;&gt;Node1708 -->
<g id="edge41" class="edge">
<title>Node1743&#45;&gt;Node1708</title>
<path fill="none" stroke="#191970" d="M428.7527,-148.1257C441.0189,-125.7963 464.9119,-89.0533 497,-71.6025 543.8485,-46.1243 608.3767,-46.7949 643.7412,-49.635"/>
<polygon fill="#191970" stroke="#191970" points="425.6508,-146.5045 424.0822,-156.9826 431.8427,-149.7697 425.6508,-146.5045"/>
</g>
<!-- Node1744&#45;&gt;Node1698 -->
<g id="edge43" class="edge">
<title>Node1744&#45;&gt;Node1698</title>
<path fill="none" stroke="#191970" d="M559.3811,-108.1989C569.2387,-120.2767 582.1232,-136.9013 592,-152.6025 610.8385,-182.5501 602.4882,-199.0892 628,-223.6025 633.1425,-228.5437 639.7984,-232.3589 646.268,-235.2292"/>
<polygon fill="#191970" stroke="#191970" points="561.9,-105.7531 552.8245,-100.2862 556.5099,-110.2194 561.9,-105.7531"/>
</g>
<!-- Node1744&#45;&gt;Node1701 -->
<g id="edge44" class="edge">
<title>Node1744&#45;&gt;Node1701</title>
<path fill="none" stroke="#191970" d="M560.5269,-108.1668C570.6668,-120.0175 583.4317,-136.3971 592,-152.6025 615.847,-197.7044 593.969,-223.5925 628,-261.6025 633.2856,-267.5061 640.7743,-271.6967 647.9383,-274.6117"/>
<polygon fill="#191970" stroke="#191970" points="562.9357,-105.6057 553.705,-100.4052 557.6779,-110.227 562.9357,-105.6057"/>
</g>
<!-- Node1744&#45;&gt;Node1675 -->
<g id="edge45" class="edge">
<title>Node1744&#45;&gt;Node1675</title>
<path fill="none" stroke="#191970" d="M597.5599,-86.5208C631.9399,-86.2258 676.5613,-90.4263 711,-109.6025 738.759,-125.0593 758.2337,-159.1176 766.526,-175.8863"/>
<polygon fill="#191970" stroke="#191970" points="597.1632,-83.0285 587.2416,-86.745 597.3153,-90.0268 597.1632,-83.0285"/>
</g>
<!-- Node1744&#45;&gt;Node1703 -->
<g id="edge48" class="edge">
<title>Node1744&#45;&gt;Node1703</title>
<path fill="none" stroke="#191970" d="M579.4565,-104.9559C583.9968,-107.7343 588.3347,-110.9424 592,-114.6025 617.0352,-139.6023 602.4882,-161.0892 628,-185.6025 632.7997,-190.2142 638.9177,-193.8452 644.9721,-196.6425"/>
<polygon fill="#191970" stroke="#191970" points="581.0566,-101.842 570.5999,-100.1365 577.7107,-107.9906 581.0566,-101.842"/>
</g>
<!-- Node1744&#45;&gt;Node1708 -->
<g id="edge49" class="edge">
<title>Node1744&#45;&gt;Node1708</title>
<path fill="none" stroke="#191970" d="M585.7491,-78.0627C604.9245,-72.2334 627.1294,-65.4831 643.8555,-60.3984"/>
<polygon fill="#191970" stroke="#191970" points="584.5924,-74.7561 576.0428,-81.0135 586.6285,-81.4535 584.5924,-74.7561"/>
</g>
<!-- Node1682 -->
<g id="node29" class="node">
<title>Node1682</title>
<g id="a_node29"><a xlink:href="libbf_8h.html#a69ea68a6b21d496bd89afeaa9c067ebe" target="_top" xlink:title="bf_cos">
<polygon fill="none" stroke="#000000" points="646.5,-157.1025 646.5,-176.1025 692.5,-176.1025 692.5,-157.1025 646.5,-157.1025"/>
<text text-anchor="middle" x="669.5" y="-164.1025" font-family="Helvetica,sans-Serif" font-size="10.00" fill="#000000">bf_cos</text>
</a>
</g>
</g>
<!-- Node1744&#45;&gt;Node1682 -->
<g id="edge46" class="edge">
<title>Node1744&#45;&gt;Node1682</title>
<path fill="none" stroke="#191970" d="M575.7102,-104.825C581.2914,-107.7977 586.9365,-111.1018 592,-114.6025 609.8537,-126.9457 609.912,-135.6052 628,-147.6025 633.6791,-151.3692 640.2259,-154.7494 646.4167,-157.5777"/>
<polygon fill="#191970" stroke="#191970" points="576.9948,-101.5524 566.4921,-100.1587 573.8333,-107.7978 576.9948,-101.5524"/>
</g>
<!-- Node1684 -->
<g id="node30" class="node">
<title>Node1684</title>
<g id="a_node30"><a xlink:href="libbf_8h.html#a9a518cd74072443dc50e179d2a9ea610" target="_top" xlink:title="bf_sin">
<polygon fill="none" stroke="#000000" points="648,-119.1025 648,-138.1025 691,-138.1025 691,-119.1025 648,-119.1025"/>
<text text-anchor="middle" x="669.5" y="-126.1025" font-family="Helvetica,sans-Serif" font-size="10.00" fill="#000000">bf_sin</text>
</a>
</g>
</g>
<!-- Node1744&#45;&gt;Node1684 -->
<g id="edge47" class="edge">
<title>Node1744&#45;&gt;Node1684</title>
<path fill="none" stroke="#191970" d="M585.8765,-103.1809C606.5769,-109.4738 630.7809,-116.8318 647.807,-122.0078"/>
<polygon fill="#191970" stroke="#191970" points="586.6285,-99.7514 576.0428,-100.1915 584.5924,-106.4488 586.6285,-99.7514"/>
</g>
</g>
</svg>
