<?xml version="1.0" encoding="UTF-8" standalone="no"?>
<!DOCTYPE svg PUBLIC "-//W3C//DTD SVG 1.1//EN"
 "http://www.w3.org/Graphics/SVG/1.1/DTD/svg11.dtd">
<!-- Generated by graphviz version 2.40.1 (20161225.0304)
 -->
<!-- Title: get_limbz Pages: 1 -->
<!--zoomable 522 -->
<svg id="main" version="1.1" xmlns="http://www.w3.org/2000/svg" xmlns:xlink="http://www.w3.org/1999/xlink" xml:space="preserve" onload="init(evt)">
<style type="text/css"><![CDATA[
.edge:hover path { stroke: red; }
.edge:hover polygon { stroke: red; fill: red; }
]]></style>
<script type="text/javascript"><![CDATA[
var edges = document.getElementsByTagName('g');
if (edges && edges.length) {
  for (var i=0;i<edges.length;i++) {
    if (edges[i].id.substr(0,4)=='edge') {
      edges[i].setAttribute('class','edge');
    }
  }
}
]]></script>
        <defs>
                <circle id="rim" cx="0" cy="0" r="7"/>
                <circle id="rim2" cx="0" cy="0" r="3.5"/>
                <g id="zoomPlus">
                        <use xlink:href="#rim" fill="#404040">
                                <set attributeName="fill" to="#808080" begin="zoomplus.mouseover" end="zoomplus.mouseout"/>
                        </use>
                        <path d="M-4,0h8M0,-4v8" fill="none" stroke="white" stroke-width="1.5" pointer-events="none"/>
                </g>
                <g id="zoomMin">
                        <use xlink:href="#rim" fill="#404040">
                                <set attributeName="fill" to="#808080" begin="zoomminus.mouseover" end="zoomminus.mouseout"/>
                        </use>
                        <path d="M-4,0h8" fill="none" stroke="white" stroke-width="1.5" pointer-events="none"/>
                </g>
                <g id="dirArrow">
                        <path fill="none" stroke="white" stroke-width="1.5" d="M0,-3.0v7 M-2.5,-0.5L0,-3.0L2.5,-0.5"/>
                </g>
               <g id="resetDef">
                       <use xlink:href="#rim2" fill="#404040">
                               <set attributeName="fill" to="#808080" begin="reset.mouseover" end="reset.mouseout"/>
                       </use>
               </g>
        </defs>

<script type="text/javascript">
var viewWidth = 843;
var viewHeight = 522;
var sectionId = 'dynsection-33';
</script>
<script xlink:href="svgpan.js"/>
<svg id="graph" class="graph">
<g id="viewport">
<title>get_limbz</title>
<!-- Node1195 -->
<g id="node1" class="node">
<title>Node1195</title>
<polygon fill="#bfbfbf" stroke="#000000" points="0,-342.5 0,-361.5 59,-361.5 59,-342.5 0,-342.5"/>
<text text-anchor="middle" x="29.5" y="-349.5" font-family="Helvetica,sans-Serif" font-size="10.00" fill="#000000">get_limbz</text>
</g>
<!-- Node1196 -->
<g id="node2" class="node">
<title>Node1196</title>
<g id="a_node2"><a xlink:href="libbf_8c.html#aaebd1df91497246cd81f23918af58d33" target="_top" xlink:title="bf_add_internal">
<polygon fill="none" stroke="#000000" points="248.5,-494.5 248.5,-513.5 331.5,-513.5 331.5,-494.5 248.5,-494.5"/>
<text text-anchor="middle" x="290" y="-501.5" font-family="Helvetica,sans-Serif" font-size="10.00" fill="#000000">bf_add_internal</text>
</a>
</g>
</g>
<!-- Node1195&#45;&gt;Node1196 -->
<g id="edge1" class="edge">
<title>Node1195&#45;&gt;Node1196</title>
<path fill="none" stroke="#191970" d="M41.326,-370.2163C53.1433,-387.1768 72.7229,-412.157 95,-428 142.8203,-462.0087 207.9116,-483.3547 249.4511,-494.4799"/>
<polygon fill="#191970" stroke="#191970" points="44.0897,-368.0549 35.5915,-361.7278 38.2892,-371.9735 44.0897,-368.0549"/>
</g>
<!-- Node1254 -->
<g id="node10" class="node">
<title>Node1254</title>
<g id="a_node10"><a xlink:href="libbf_8h.html#a165ae2c6d3fee618014b7c9ea4f944dc" target="_top" xlink:title="bf_cmpu">
<polygon fill="none" stroke="#000000" points="122,-285.5 122,-304.5 176,-304.5 176,-285.5 122,-285.5"/>
<text text-anchor="middle" x="149" y="-292.5" font-family="Helvetica,sans-Serif" font-size="10.00" fill="#000000">bf_cmpu</text>
</a>
</g>
</g>
<!-- Node1195&#45;&gt;Node1254 -->
<g id="edge12" class="edge">
<title>Node1195&#45;&gt;Node1254</title>
<path fill="none" stroke="#191970" d="M58.6351,-338.1029C80.4388,-327.7028 109.695,-313.748 128.9331,-304.5716"/>
<polygon fill="#191970" stroke="#191970" points="57.0206,-334.9952 49.5016,-342.4595 60.0343,-341.3133 57.0206,-334.9952"/>
</g>
<!-- Node1276 -->
<g id="node28" class="node">
<title>Node1276</title>
<g id="a_node28"><a xlink:href="libbf_8c.html#ad6bddd5fff6d7452fe82c4a9e3a49cfa" target="_top" xlink:title="count_cancelled_bits">
<polygon fill="none" stroke="#000000" points="95,-399.5 95,-418.5 203,-418.5 203,-399.5 95,-399.5"/>
<text text-anchor="middle" x="149" y="-406.5" font-family="Helvetica,sans-Serif" font-size="10.00" fill="#000000">count_cancelled_bits</text>
</a>
</g>
</g>
<!-- Node1195&#45;&gt;Node1276 -->
<g id="edge36" class="edge">
<title>Node1195&#45;&gt;Node1276</title>
<path fill="none" stroke="#191970" d="M58.6351,-365.8971C80.4388,-376.2972 109.695,-390.252 128.9331,-399.4284"/>
<polygon fill="#191970" stroke="#191970" points="60.0343,-362.6867 49.5016,-361.5405 57.0206,-369.0048 60.0343,-362.6867"/>
</g>
<!-- Node1219 -->
<g id="node29" class="node">
<title>Node1219</title>
<g id="a_node29"><a xlink:href="libbf_8c.html#ae598665f1f567f67350a972a972ef86a" target="_top" xlink:title="output_digits">
<polygon fill="none" stroke="#000000" points="113,-152.5 113,-171.5 185,-171.5 185,-152.5 113,-152.5"/>
<text text-anchor="middle" x="149" y="-159.5" font-family="Helvetica,sans-Serif" font-size="10.00" fill="#000000">output_digits</text>
</a>
</g>
</g>
<!-- Node1195&#45;&gt;Node1219 -->
<g id="edge38" class="edge">
<title>Node1195&#45;&gt;Node1219</title>
<path fill="none" stroke="#191970" d="M41.1759,-333.4358C66.0914,-293.8212 123.7463,-202.1524 142.7787,-171.8917"/>
<polygon fill="#191970" stroke="#191970" points="37.9516,-331.9883 35.5903,-342.3167 43.8771,-335.7151 37.9516,-331.9883"/>
</g>
<!-- Node1197 -->
<g id="node3" class="node">
<title>Node1197</title>
<g id="a_node3"><a xlink:href="libbf_8c.html#a951a1d3ebb338129d86e00f51b47f2ee" target="_top" xlink:title="__bf_add">
<polygon fill="none" stroke="#000000" points="398,-494.5 398,-513.5 454,-513.5 454,-494.5 398,-494.5"/>
<text text-anchor="middle" x="426" y="-501.5" font-family="Helvetica,sans-Serif" font-size="10.00" fill="#000000">__bf_add</text>
</a>
</g>
</g>
<!-- Node1196&#45;&gt;Node1197 -->
<g id="edge2" class="edge">
<title>Node1196&#45;&gt;Node1197</title>
<path fill="none" stroke="#191970" d="M341.5767,-504C360.5818,-504 381.4074,-504 397.6193,-504"/>
<polygon fill="#191970" stroke="#191970" points="341.5435,-500.5001 331.5435,-504 341.5434,-507.5001 341.5435,-500.5001"/>
</g>
<!-- Node1251 -->
<g id="node6" class="node">
<title>Node1251</title>
<g id="a_node6"><a xlink:href="libbf_8c.html#aa3b3bc85aee9c531439d5fbc92986dfe" target="_top" xlink:title="__bf_sub">
<polygon fill="none" stroke="#000000" points="398,-456.5 398,-475.5 454,-475.5 454,-456.5 398,-456.5"/>
<text text-anchor="middle" x="426" y="-463.5" font-family="Helvetica,sans-Serif" font-size="10.00" fill="#000000">__bf_sub</text>
</a>
</g>
</g>
<!-- Node1196&#45;&gt;Node1251 -->
<g id="edge6" class="edge">
<title>Node1196&#45;&gt;Node1251</title>
<path fill="none" stroke="#191970" d="M333.9506,-491.7197C354.854,-485.879 379.2377,-479.0659 397.6555,-473.9198"/>
<polygon fill="#191970" stroke="#191970" points="333.0078,-488.349 324.3185,-494.411 334.8915,-495.0908 333.0078,-488.349"/>
</g>
<!-- Node1198 -->
<g id="node4" class="node">
<title>Node1198</title>
<g id="a_node4"><a xlink:href="libbf_8h.html#a17dc09166f82ffa408f54a2edc4d7855" target="_top" xlink:title="bf_add">
<polygon fill="none" stroke="#ff0000" points="525.5,-475.5 525.5,-494.5 571.5,-494.5 571.5,-475.5 525.5,-475.5"/>
<text text-anchor="middle" x="548.5" y="-482.5" font-family="Helvetica,sans-Serif" font-size="10.00" fill="#000000">bf_add</text>
</a>
</g>
</g>
<!-- Node1197&#45;&gt;Node1198 -->
<g id="edge3" class="edge">
<title>Node1197&#45;&gt;Node1198</title>
<path fill="none" stroke="#191970" d="M464.1943,-498.076C484.2715,-494.962 508.2186,-491.2477 525.4508,-488.575"/>
<polygon fill="#191970" stroke="#191970" points="463.4493,-494.6496 454.104,-499.641 464.5223,-501.5669 463.4493,-494.6496"/>
</g>
<!-- Node1217 -->
<g id="node5" class="node">
<title>Node1217</title>
<g id="a_node5"><a xlink:href="libbf_8c.html#aa94726eca10adb51bd141319fdfdb20c" target="_top" xlink:title="bf_integer_to_radix_rec">
<polygon fill="none" stroke="#ff0000" points="622,-418.5 622,-437.5 740,-437.5 740,-418.5 622,-418.5"/>
<text text-anchor="middle" x="681" y="-425.5" font-family="Helvetica,sans-Serif" font-size="10.00" fill="#000000">bf_integer_to_radix_rec</text>
</a>
</g>
</g>
<!-- Node1198&#45;&gt;Node1217 -->
<g id="edge4" class="edge">
<title>Node1198&#45;&gt;Node1217</title>
<path fill="none" stroke="#191970" d="M580.1561,-471.3819C604.3975,-460.9535 637.2278,-446.8303 658.7501,-437.5716"/>
<polygon fill="#191970" stroke="#191970" points="578.4805,-468.2926 570.6775,-475.4595 581.2467,-474.7228 578.4805,-468.2926"/>
</g>
<!-- Node1217&#45;&gt;Node1217 -->
<g id="edge5" class="edge">
<title>Node1217&#45;&gt;Node1217</title>
<path fill="none" stroke="#191970" d="M657.9346,-447.0292C659.1928,-452.128 666.8812,-456 681,-456 703.0391,-456 709.4097,-446.5653 700.112,-437.7571"/>
<polygon fill="#191970" stroke="#191970" points="661.1854,-448.3286 661.888,-437.7571 654.7463,-445.5831 661.1854,-448.3286"/>
</g>
<!-- Node1252 -->
<g id="node7" class="node">
<title>Node1252</title>
<g id="a_node7"><a xlink:href="libbf_8h.html#abf69a9bc02b7c299bb75d172fa102d84" target="_top" xlink:title="bf_sub">
<polygon fill="none" stroke="#ff0000" points="525.5,-361.5 525.5,-380.5 571.5,-380.5 571.5,-361.5 525.5,-361.5"/>
<text text-anchor="middle" x="548.5" y="-368.5" font-family="Helvetica,sans-Serif" font-size="10.00" fill="#000000">bf_sub</text>
</a>
</g>
</g>
<!-- Node1251&#45;&gt;Node1252 -->
<g id="edge7" class="edge">
<title>Node1251&#45;&gt;Node1252</title>
<path fill="none" stroke="#191970" d="M446.6124,-450.0149C472.214,-430.1606 515.0759,-396.9207 536.103,-380.614"/>
<polygon fill="#191970" stroke="#191970" points="444.4056,-447.2971 438.6483,-456.1911 448.6954,-452.8286 444.4056,-447.2971"/>
</g>
<!-- Node1252&#45;&gt;Node1217 -->
<g id="edge11" class="edge">
<title>Node1252&#45;&gt;Node1217</title>
<path fill="none" stroke="#191970" d="M580.1561,-384.6181C604.3975,-395.0465 637.2278,-409.1697 658.7501,-418.4284"/>
<polygon fill="#191970" stroke="#191970" points="581.2467,-381.2772 570.6775,-380.5405 578.4805,-387.7074 581.2467,-381.2772"/>
</g>
<!-- Node1253 -->
<g id="node8" class="node">
<title>Node1253</title>
<g id="a_node8"><a xlink:href="libbf_8c.html#a4f1865c8160fb851cce8015c3edb4d4f" target="_top" xlink:title="bf_tdivremu">
<polygon fill="none" stroke="#000000" points="647,-294.5 647,-313.5 715,-313.5 715,-294.5 647,-294.5"/>
<text text-anchor="middle" x="681" y="-301.5" font-family="Helvetica,sans-Serif" font-size="10.00" fill="#000000">bf_tdivremu</text>
</a>
</g>
</g>
<!-- Node1252&#45;&gt;Node1253 -->
<g id="edge8" class="edge">
<title>Node1252&#45;&gt;Node1253</title>
<path fill="none" stroke="#191970" d="M576.721,-356.7298C602.4439,-343.7227 639.732,-324.8676 662.0512,-313.5817"/>
<polygon fill="#191970" stroke="#191970" points="574.8286,-353.7646 567.484,-361.4005 577.9874,-360.0114 574.8286,-353.7646"/>
</g>
<!-- Node1203 -->
<g id="node9" class="node">
<title>Node1203</title>
<g id="a_node9"><a xlink:href="libbf_8h.html#a951ec20cd7fa3bf021d165b213e15ce4" target="_top" xlink:title="bf_divrem">
<polygon fill="none" stroke="#ff0000" points="776,-294.5 776,-313.5 835,-313.5 835,-294.5 776,-294.5"/>
<text text-anchor="middle" x="805.5" y="-301.5" font-family="Helvetica,sans-Serif" font-size="10.00" fill="#000000">bf_divrem</text>
</a>
</g>
</g>
<!-- Node1252&#45;&gt;Node1203 -->
<g id="edge10" class="edge">
<title>Node1252&#45;&gt;Node1203</title>
<path fill="none" stroke="#191970" d="M581.6198,-363.0896C619.8743,-353.8623 684.6528,-337.9585 740,-323 751.7731,-319.8181 764.6757,-316.1209 775.8931,-312.8382"/>
<polygon fill="#191970" stroke="#191970" points="580.4673,-359.7669 571.5633,-365.5088 582.1046,-366.5728 580.4673,-359.7669"/>
</g>
<!-- Node1253&#45;&gt;Node1203 -->
<g id="edge9" class="edge">
<title>Node1253&#45;&gt;Node1203</title>
<path fill="none" stroke="#191970" d="M725.1665,-304C741.9388,-304 760.6291,-304 775.7583,-304"/>
<polygon fill="#191970" stroke="#191970" points="725.0202,-300.5001 715.0202,-304 725.0201,-307.5001 725.0202,-300.5001"/>
</g>
<!-- Node1254&#45;&gt;Node1196 -->
<g id="edge21" class="edge">
<title>Node1254&#45;&gt;Node1196</title>
<path fill="none" stroke="#191970" d="M160.6164,-313.4371C172.1978,-332.2536 190.0757,-362.5152 203,-390 222.2138,-430.8601 206.9832,-453.1622 239,-485 242.8859,-488.8642 247.6289,-491.9528 252.6411,-494.4187"/>
<polygon fill="#191970" stroke="#191970" points="163.4463,-311.36 155.1935,-304.7159 157.5017,-315.0563 163.4463,-311.36"/>
</g>
<!-- Node1254&#45;&gt;Node1217 -->
<g id="edge24" class="edge">
<title>Node1254&#45;&gt;Node1217</title>
<path fill="none" stroke="#191970" d="M163.695,-312.0951C180.1134,-329.9568 208.4302,-357.2532 239,-371 366.5464,-428.3558 534.3262,-433.1342 621.9418,-430.9876"/>
<polygon fill="#191970" stroke="#191970" points="166.2985,-309.7558 157.0234,-304.6349 161.0806,-314.4221 166.2985,-309.7558"/>
</g>
<!-- Node1254&#45;&gt;Node1253 -->
<g id="edge22" class="edge">
<title>Node1254&#45;&gt;Node1253</title>
<path fill="none" stroke="#191970" d="M186.262,-294.4714C246.8235,-293.7311 370.3776,-292.7156 475,-295 535.4842,-296.3206 605.8865,-299.8199 646.7524,-302.0457"/>
<polygon fill="#191970" stroke="#191970" points="186.0072,-290.9742 176.0525,-294.6009 186.0961,-297.9736 186.0072,-290.9742"/>
</g>
<!-- Node1254&#45;&gt;Node1203 -->
<g id="edge23" class="edge">
<title>Node1254&#45;&gt;Node1203</title>
<path fill="none" stroke="#191970" d="M185.6962,-282.49C238.2696,-265.711 338.3622,-238 426,-238 426,-238 426,-238 548.5,-238 638.0981,-238 739.9008,-276.0981 783.6428,-294.403"/>
<polygon fill="#191970" stroke="#191970" points="184.5731,-279.1747 176.1395,-285.5876 186.7315,-285.8337 184.5731,-279.1747"/>
</g>
<!-- Node1255 -->
<g id="node11" class="node">
<title>Node1255</title>
<g id="a_node11"><a xlink:href="libbf_8h.html#a8e4b224e136c1b2f7785a8cdf6fe9d06" target="_top" xlink:title="bf_cmp_full">
<polygon fill="none" stroke="#000000" points="256.5,-190.5 256.5,-209.5 323.5,-209.5 323.5,-190.5 256.5,-190.5"/>
<text text-anchor="middle" x="290" y="-197.5" font-family="Helvetica,sans-Serif" font-size="10.00" fill="#000000">bf_cmp_full</text>
</a>
</g>
</g>
<!-- Node1254&#45;&gt;Node1255 -->
<g id="edge13" class="edge">
<title>Node1254&#45;&gt;Node1255</title>
<path fill="none" stroke="#191970" d="M167.2457,-278.5576C184.8068,-263.2419 212.5264,-240.373 239,-224 247.7386,-218.5955 257.8885,-213.5869 266.8218,-209.5586"/>
<polygon fill="#191970" stroke="#191970" points="164.6683,-276.1643 159.4907,-285.4079 169.3026,-281.4106 164.6683,-276.1643"/>
</g>
<!-- Node1257 -->
<g id="node13" class="node">
<title>Node1257</title>
<g id="a_node13"><a xlink:href="libbf_8h.html#a9508b6f4e9f4be88f4b5b0352217e9c5" target="_top" xlink:title="bf_cmp">
<polygon fill="none" stroke="#000000" points="265.5,-114.5 265.5,-133.5 314.5,-133.5 314.5,-114.5 265.5,-114.5"/>
<text text-anchor="middle" x="290" y="-121.5" font-family="Helvetica,sans-Serif" font-size="10.00" fill="#000000">bf_cmp</text>
</a>
</g>
</g>
<!-- Node1254&#45;&gt;Node1257 -->
<g id="edge15" class="edge">
<title>Node1254&#45;&gt;Node1257</title>
<path fill="none" stroke="#191970" d="M156.3797,-275.9588C169.0778,-245.3699 197.7333,-184.9773 239,-148 246.5793,-141.2085 256.4175,-135.9741 265.4282,-132.1526"/>
<polygon fill="#191970" stroke="#191970" points="153.0472,-274.8647 152.5592,-285.4483 159.5407,-277.4791 153.0472,-274.8647"/>
</g>
<!-- Node1201 -->
<g id="node15" class="node">
<title>Node1201</title>
<g id="a_node15"><a xlink:href="libbf_8h.html#a93fe073491f8c5f086a75e7bf8865b34" target="_top" xlink:title="bf_pow">
<polygon fill="none" stroke="#000000" points="524.5,-114.5 524.5,-133.5 572.5,-133.5 572.5,-114.5 524.5,-114.5"/>
<text text-anchor="middle" x="548.5" y="-121.5" font-family="Helvetica,sans-Serif" font-size="10.00" fill="#000000">bf_pow</text>
</a>
</g>
</g>
<!-- Node1254&#45;&gt;Node1201 -->
<g id="edge27" class="edge">
<title>Node1254&#45;&gt;Node1201</title>
<path fill="none" stroke="#191970" d="M158.1195,-276.1747C171.7998,-250.1374 200.2263,-203.7743 239,-181 330.6066,-127.1935 371.013,-164.7628 475,-143 491.6415,-139.5172 510.1747,-134.7199 524.4675,-130.8172"/>
<polygon fill="#191970" stroke="#191970" points="154.8599,-274.8641 153.4615,-285.3663 161.1039,-278.0285 154.8599,-274.8641"/>
</g>
<!-- Node1265 -->
<g id="node19" class="node">
<title>Node1265</title>
<g id="a_node19"><a xlink:href="libbf_8c.html#a13930fbd670b65bf9f8c07a0fbcfc63b" target="_top" xlink:title="bf_convert_to_radix">
<polygon fill="none" stroke="#000000" points="239,-76.5 239,-95.5 341,-95.5 341,-76.5 239,-76.5"/>
<text text-anchor="middle" x="290" y="-83.5" font-family="Helvetica,sans-Serif" font-size="10.00" fill="#000000">bf_convert_to_radix</text>
</a>
</g>
</g>
<!-- Node1254&#45;&gt;Node1265 -->
<g id="edge25" class="edge">
<title>Node1254&#45;&gt;Node1265</title>
<path fill="none" stroke="#191970" d="M157.9942,-276.0122C180.7838,-227.9009 239,-105 239,-105 243.1769,-101.1668 248.1973,-98.0867 253.4365,-95.6173"/>
<polygon fill="#191970" stroke="#191970" points="154.7047,-274.7809 153.5868,-285.3167 161.0309,-277.7776 154.7047,-274.7809"/>
</g>
<!-- Node1220 -->
<g id="node20" class="node">
<title>Node1220</title>
<g id="a_node20"><a xlink:href="libbf_8c.html#ad79aefc435021a0743c89cb4aec7fa56" target="_top" xlink:title="bf_ftoa_internal">
<polygon fill="none" stroke="#ff0000" points="248.5,-38.5 248.5,-57.5 331.5,-57.5 331.5,-38.5 248.5,-38.5"/>
<text text-anchor="middle" x="290" y="-45.5" font-family="Helvetica,sans-Serif" font-size="10.00" fill="#000000">bf_ftoa_internal</text>
</a>
</g>
</g>
<!-- Node1254&#45;&gt;Node1220 -->
<g id="edge26" class="edge">
<title>Node1254&#45;&gt;Node1220</title>
<path fill="none" stroke="#191970" d="M158.7638,-276.4267C170.25,-254.1439 189.466,-215.4712 203,-181 222.418,-131.5424 202.3945,-105.5117 239,-67 242.7105,-63.0963 247.297,-59.9891 252.1855,-57.5171"/>
<polygon fill="#191970" stroke="#191970" points="155.5866,-274.9505 154.0785,-285.4375 161.7972,-278.1798 155.5866,-274.9505"/>
</g>
<!-- Node1229 -->
<g id="node21" class="node">
<title>Node1229</title>
<g id="a_node21"><a xlink:href="libbf_8h.html#a0bb2c5b98e3f978b84df9849c7ec50d6" target="_top" xlink:title="bf_atan">
<polygon fill="none" stroke="#ff0000" points="265.5,-456.5 265.5,-475.5 314.5,-475.5 314.5,-456.5 265.5,-456.5"/>
<text text-anchor="middle" x="290" y="-463.5" font-family="Helvetica,sans-Serif" font-size="10.00" fill="#000000">bf_atan</text>
</a>
</g>
</g>
<!-- Node1254&#45;&gt;Node1229 -->
<g id="edge28" class="edge">
<title>Node1254&#45;&gt;Node1229</title>
<path fill="none" stroke="#191970" d="M159.4858,-313.4488C181.9459,-352.8608 233.144,-442.1034 239,-447 246.5385,-453.3035 256.3689,-457.6211 265.385,-460.5261"/>
<polygon fill="#191970" stroke="#191970" points="162.4286,-311.5434 154.4399,-304.5841 156.3451,-315.0063 162.4286,-311.5434"/>
</g>
<!-- Node1233 -->
<g id="node22" class="node">
<title>Node1233</title>
<g id="a_node22"><a xlink:href="libbf_8h.html#a8ee86879e3da22442956f47356855edd" target="_top" xlink:title="bf_asin">
<polygon fill="none" stroke="#000000" points="266,-418.5 266,-437.5 314,-437.5 314,-418.5 266,-418.5"/>
<text text-anchor="middle" x="290" y="-425.5" font-family="Helvetica,sans-Serif" font-size="10.00" fill="#000000">bf_asin</text>
</a>
</g>
</g>
<!-- Node1254&#45;&gt;Node1233 -->
<g id="edge29" class="edge">
<title>Node1254&#45;&gt;Node1233</title>
<path fill="none" stroke="#191970" d="M160.3989,-313.3157C175.8075,-336.8571 205.2678,-377.8087 239,-404 247.0384,-410.2414 256.9626,-415.3726 265.9137,-419.2656"/>
<polygon fill="#191970" stroke="#191970" points="163.1965,-311.1942 154.8558,-304.6609 157.3018,-314.9695 163.1965,-311.1942"/>
</g>
<!-- Node1234 -->
<g id="node23" class="node">
<title>Node1234</title>
<g id="a_node23"><a xlink:href="libbf_8h.html#a45cd74dd3a694c26e716762b7fd36955" target="_top" xlink:title="bf_acos">
<polygon fill="none" stroke="#000000" points="264.5,-342.5 264.5,-361.5 315.5,-361.5 315.5,-342.5 264.5,-342.5"/>
<text text-anchor="middle" x="290" y="-349.5" font-family="Helvetica,sans-Serif" font-size="10.00" fill="#000000">bf_acos</text>
</a>
</g>
</g>
<!-- Node1254&#45;&gt;Node1234 -->
<g id="edge30" class="edge">
<title>Node1254&#45;&gt;Node1234</title>
<path fill="none" stroke="#191970" d="M180.6358,-308.7486C197.826,-316.1203 219.4983,-325.2545 239,-333 247.2545,-336.2785 256.3233,-339.711 264.4954,-342.7425"/>
<polygon fill="#191970" stroke="#191970" points="181.6517,-305.3755 171.0827,-304.6358 178.8837,-311.8049 181.6517,-305.3755"/>
</g>
<!-- Node1266 -->
<g id="node24" class="node">
<title>Node1266</title>
<g id="a_node24"><a xlink:href="libbf_8h.html#ab76f65059ac29df0d8ed9f719db8ba06" target="_top" xlink:title="bfdec_cmpu">
<polygon fill="none" stroke="#000000" points="255,-304.5 255,-323.5 325,-323.5 325,-304.5 255,-304.5"/>
<text text-anchor="middle" x="290" y="-311.5" font-family="Helvetica,sans-Serif" font-size="10.00" fill="#000000">bfdec_cmpu</text>
</a>
</g>
</g>
<!-- Node1254&#45;&gt;Node1266 -->
<g id="edge31" class="edge">
<title>Node1254&#45;&gt;Node1266</title>
<path fill="none" stroke="#191970" d="M186.157,-300.007C207.4256,-302.873 233.9544,-306.4478 254.8742,-309.2667"/>
<polygon fill="#191970" stroke="#191970" points="186.5641,-296.5303 176.1862,-298.6634 185.6292,-303.4676 186.5641,-296.5303"/>
</g>
<!-- Node1256 -->
<g id="node12" class="node">
<title>Node1256</title>
<g id="a_node12"><a xlink:href="libbf_8h.html#a8718d978bcf4aad8ca92abd7e897257e" target="_top" xlink:title="bfdec_cmp_full">
<polygon fill="none" stroke="#000000" points="384.5,-190.5 384.5,-209.5 467.5,-209.5 467.5,-190.5 384.5,-190.5"/>
<text text-anchor="middle" x="426" y="-197.5" font-family="Helvetica,sans-Serif" font-size="10.00" fill="#000000">bfdec_cmp_full</text>
</a>
</g>
</g>
<!-- Node1255&#45;&gt;Node1256 -->
<g id="edge14" class="edge">
<title>Node1255&#45;&gt;Node1256</title>
<path fill="none" stroke="#191970" d="M333.8442,-200C349.9289,-200 368.086,-200 384.0046,-200"/>
<polygon fill="#191970" stroke="#191970" points="333.618,-196.5001 323.618,-200 333.618,-203.5001 333.618,-196.5001"/>
</g>
<!-- Node1258 -->
<g id="node14" class="node">
<title>Node1258</title>
<g id="a_node14"><a xlink:href="libbf_8h.html#a78ee01fc94a63c4dc6cf252275f21a77" target="_top" xlink:title="bf_cmp_eq">
<polygon fill="none" stroke="#ff0000" points="393.5,-76.5 393.5,-95.5 458.5,-95.5 458.5,-76.5 393.5,-76.5"/>
<text text-anchor="middle" x="426" y="-83.5" font-family="Helvetica,sans-Serif" font-size="10.00" fill="#000000">bf_cmp_eq</text>
</a>
</g>
</g>
<!-- Node1257&#45;&gt;Node1258 -->
<g id="edge16" class="edge">
<title>Node1257&#45;&gt;Node1258</title>
<path fill="none" stroke="#191970" d="M324.4961,-114.3614C345.6459,-108.4519 372.5603,-100.9317 393.3597,-95.1201"/>
<polygon fill="#191970" stroke="#191970" points="323.3178,-111.0565 314.6286,-117.1185 325.2016,-117.7983 323.3178,-111.0565"/>
</g>
<!-- Node1259 -->
<g id="node16" class="node">
<title>Node1259</title>
<g id="a_node16"><a xlink:href="libbf_8h.html#adfeab40ffdf60f75a5ed33aab5e4a2fd" target="_top" xlink:title="bf_cmp_le">
<polygon fill="none" stroke="#000000" points="395,-38.5 395,-57.5 457,-57.5 457,-38.5 395,-38.5"/>
<text text-anchor="middle" x="426" y="-45.5" font-family="Helvetica,sans-Serif" font-size="10.00" fill="#000000">bf_cmp_le</text>
</a>
</g>
</g>
<!-- Node1257&#45;&gt;Node1259 -->
<g id="edge18" class="edge">
<title>Node1257&#45;&gt;Node1259</title>
<path fill="none" stroke="#191970" d="M324.3321,-113.6788C330.1222,-111.2554 335.9014,-108.3735 341,-105 360.402,-92.1627 357.6837,-79.9659 377,-67 382.5302,-63.2879 388.8909,-60.1479 395.1587,-57.5555"/>
<polygon fill="#191970" stroke="#191970" points="322.8069,-110.5138 314.6958,-117.33 325.2872,-117.0597 322.8069,-110.5138"/>
</g>
<!-- Node1260 -->
<g id="node17" class="node">
<title>Node1260</title>
<g id="a_node17"><a xlink:href="libbf_8h.html#a1605a1fe6f0294e38b4da16867bf162f" target="_top" xlink:title="bf_cmp_lt">
<polygon fill="none" stroke="#ff0000" points="396.5,-.5 396.5,-19.5 455.5,-19.5 455.5,-.5 396.5,-.5"/>
<text text-anchor="middle" x="426" y="-7.5" font-family="Helvetica,sans-Serif" font-size="10.00" fill="#000000">bf_cmp_lt</text>
</a>
</g>
</g>
<!-- Node1257&#45;&gt;Node1260 -->
<g id="edge19" class="edge">
<title>Node1257&#45;&gt;Node1260</title>
<path fill="none" stroke="#191970" d="M324.218,-115.4425C330.2936,-112.8111 336.2031,-109.4022 341,-105 368.5371,-79.7286 349.6314,-54.4538 377,-29 382.4786,-23.9047 389.4748,-20.1242 396.4544,-17.339"/>
<polygon fill="#191970" stroke="#191970" points="322.8381,-112.221 314.6698,-118.9686 325.2631,-118.7875 322.8381,-112.221"/>
</g>
<!-- Node1261 -->
<g id="node18" class="node">
<title>Node1261</title>
<g id="a_node18"><a xlink:href="libbf_8h.html#af89ce1e4918c3773780556b2b2e1c24f" target="_top" xlink:title="bfdec_cmp">
<polygon fill="none" stroke="#ff0000" points="393.5,-114.5 393.5,-133.5 458.5,-133.5 458.5,-114.5 393.5,-114.5"/>
<text text-anchor="middle" x="426" y="-121.5" font-family="Helvetica,sans-Serif" font-size="10.00" fill="#000000">bfdec_cmp</text>
</a>
</g>
</g>
<!-- Node1257&#45;&gt;Node1261 -->
<g id="edge20" class="edge">
<title>Node1257&#45;&gt;Node1261</title>
<path fill="none" stroke="#191970" d="M324.7848,-124C345.8904,-124 372.6548,-124 393.3597,-124"/>
<polygon fill="#191970" stroke="#191970" points="324.6286,-120.5001 314.6286,-124 324.6285,-127.5001 324.6286,-120.5001"/>
</g>
<!-- Node1258&#45;&gt;Node1201 -->
<g id="edge17" class="edge">
<title>Node1258&#45;&gt;Node1201</title>
<path fill="none" stroke="#191970" d="M466.5597,-98.5818C485.6253,-104.496 507.7215,-111.3504 524.1606,-116.4498"/>
<polygon fill="#191970" stroke="#191970" points="467.4999,-95.209 456.9119,-95.589 465.426,-101.8947 467.4999,-95.209"/>
</g>
<!-- Node1267 -->
<g id="node25" class="node">
<title>Node1267</title>
<g id="a_node25"><a xlink:href="libbf_8c.html#adab81046eaf5fc5a75e1bae96b75be66" target="_top" xlink:title="bfdec_add_internal">
<polygon fill="none" stroke="#ff0000" points="377,-342.5 377,-361.5 475,-361.5 475,-342.5 377,-342.5"/>
<text text-anchor="middle" x="426" y="-349.5" font-family="Helvetica,sans-Serif" font-size="10.00" fill="#000000">bfdec_add_internal</text>
</a>
</g>
</g>
<!-- Node1266&#45;&gt;Node1267 -->
<g id="edge32" class="edge">
<title>Node1266&#45;&gt;Node1267</title>
<path fill="none" stroke="#191970" d="M334.0866,-326.3183C352.7722,-331.5393 374.2183,-337.5316 391.6924,-342.4141"/>
<polygon fill="#191970" stroke="#191970" points="334.8915,-322.9092 324.3185,-323.589 333.0078,-329.651 334.8915,-322.9092"/>
</g>
<!-- Node1275 -->
<g id="node26" class="node">
<title>Node1275</title>
<g id="a_node26"><a xlink:href="libbf_8c.html#a4fe4f91a21701a55cffbc44f1eb141b6" target="_top" xlink:title="bfdec_tdivremu">
<polygon fill="none" stroke="#000000" points="384.5,-304.5 384.5,-323.5 467.5,-323.5 467.5,-304.5 384.5,-304.5"/>
<text text-anchor="middle" x="426" y="-311.5" font-family="Helvetica,sans-Serif" font-size="10.00" fill="#000000">bfdec_tdivremu</text>
</a>
</g>
</g>
<!-- Node1266&#45;&gt;Node1275 -->
<g id="edge33" class="edge">
<title>Node1266&#45;&gt;Node1275</title>
<path fill="none" stroke="#191970" d="M335.1371,-314C351.0042,-314 368.7508,-314 384.3205,-314"/>
<polygon fill="#191970" stroke="#191970" points="335.0234,-310.5001 325.0234,-314 335.0233,-317.5001 335.0234,-310.5001"/>
</g>
<!-- Node1271 -->
<g id="node27" class="node">
<title>Node1271</title>
<g id="a_node27"><a xlink:href="libbf_8h.html#a318508be097917ddd5d1ce187edea68b" target="_top" xlink:title="bfdec_divrem">
<polygon fill="none" stroke="#ff0000" points="511,-313.5 511,-332.5 586,-332.5 586,-313.5 511,-313.5"/>
<text text-anchor="middle" x="548.5" y="-320.5" font-family="Helvetica,sans-Serif" font-size="10.00" fill="#000000">bfdec_divrem</text>
</a>
</g>
</g>
<!-- Node1266&#45;&gt;Node1271 -->
<g id="edge35" class="edge">
<title>Node1266&#45;&gt;Node1271</title>
<path fill="none" stroke="#191970" d="M331.678,-327.6724C334.9251,-329.2906 338.0746,-331.0644 341,-333 360.402,-345.8373 355.6287,-361.8075 377,-371 417.0112,-388.2101 433.254,-383.424 475,-371 488.0005,-367.1309 518.4565,-345.4362 535.8087,-332.5752"/>
<polygon fill="#191970" stroke="#191970" points="332.9319,-324.3993 322.3738,-323.5188 330.0784,-330.7913 332.9319,-324.3993"/>
</g>
<!-- Node1275&#45;&gt;Node1271 -->
<g id="edge34" class="edge">
<title>Node1275&#45;&gt;Node1271</title>
<path fill="none" stroke="#191970" d="M477.865,-317.8105C488.985,-318.6275 500.5278,-319.4755 510.98,-320.2434"/>
<polygon fill="#191970" stroke="#191970" points="478.0445,-314.3143 467.8149,-317.0721 477.5316,-321.2955 478.0445,-314.3143"/>
</g>
<!-- Node1276&#45;&gt;Node1196 -->
<g id="edge37" class="edge">
<title>Node1276&#45;&gt;Node1196</title>
<path fill="none" stroke="#191970" d="M165.6089,-426.1304C182.7114,-442.9786 210.778,-468.5044 239,-485 245.1996,-488.6237 252.2131,-491.7703 259.0108,-494.4039"/>
<polygon fill="#191970" stroke="#191970" points="167.6784,-423.2485 158.1412,-418.6341 162.7191,-428.1888 167.6784,-423.2485"/>
</g>
<!-- Node1219&#45;&gt;Node1220 -->
<g id="edge39" class="edge">
<title>Node1219&#45;&gt;Node1220</title>
<path fill="none" stroke="#191970" d="M161.8116,-144.1623C177.7562,-123.1093 206.837,-88.2806 239,-67 244.6736,-63.2461 251.1899,-60.1008 257.6262,-57.5188"/>
<polygon fill="#191970" stroke="#191970" points="158.9517,-142.1431 155.8118,-152.262 164.5766,-146.3098 158.9517,-142.1431"/>
</g>
</g>
</svg>
        <g id="navigator" transform="translate(0 0)" fill="#404254">
                <rect fill="#f2f5e9" fill-opacity="0.5" stroke="#606060" stroke-width=".5" x="0" y="0" width="60" height="60"/>
                <use id="zoomplus" xlink:href="#zoomPlus" x="17" y="9" onmousedown="handleZoom(evt,'in')"/>
                <use id="zoomminus" xlink:href="#zoomMin" x="42" y="9" onmousedown="handleZoom(evt,'out')"/>
                <use id="reset" xlink:href="#resetDef" x="30" y="36" onmousedown="handleReset()"/>
                <g id="arrowUp" xlink:href="#dirArrow" transform="translate(30 24)" onmousedown="handlePan(0,-1)">
                  <use xlink:href="#rim" fill="#404040">
                        <set attributeName="fill" to="#808080" begin="arrowUp.mouseover" end="arrowUp.mouseout"/>
                  </use>
                  <path fill="none" stroke="white" stroke-width="1.5" d="M0,-3.0v7 M-2.5,-0.5L0,-3.0L2.5,-0.5"/>
                </g>
                <g id="arrowRight" xlink:href="#dirArrow" transform="rotate(90) translate(36 -43)" onmousedown="handlePan(1,0)">
                  <use xlink:href="#rim" fill="#404040">
                        <set attributeName="fill" to="#808080" begin="arrowRight.mouseover" end="arrowRight.mouseout"/>
                  </use>
                  <path fill="none" stroke="white" stroke-width="1.5" d="M0,-3.0v7 M-2.5,-0.5L0,-3.0L2.5,-0.5"/>
                </g>
                <g id="arrowDown" xlink:href="#dirArrow" transform="rotate(180) translate(-30 -48)" onmousedown="handlePan(0,1)">
                  <use xlink:href="#rim" fill="#404040">
                        <set attributeName="fill" to="#808080" begin="arrowDown.mouseover" end="arrowDown.mouseout"/>
                  </use>
                  <path fill="none" stroke="white" stroke-width="1.5" d="M0,-3.0v7 M-2.5,-0.5L0,-3.0L2.5,-0.5"/>
                </g>
                <g id="arrowLeft" xlink:href="#dirArrow" transform="rotate(270) translate(-36 17)" onmousedown="handlePan(-1,0)">
                  <use xlink:href="#rim" fill="#404040">
                        <set attributeName="fill" to="#808080" begin="arrowLeft.mouseover" end="arrowLeft.mouseout"/>
                  </use>
                  <path fill="none" stroke="white" stroke-width="1.5" d="M0,-3.0v7 M-2.5,-0.5L0,-3.0L2.5,-0.5"/>
                </g>
        </g>
        <svg viewBox="0 0 15 15" width="100%" height="30px" preserveAspectRatio="xMaxYMin meet">
         <g id="arrow_out" transform="scale(0.3 0.3)">
          <a xlink:href="libbf_8c_a42c793dff09c27760634ad51e7184413_icgraph_org.svg" target="_base">
           <rect id="button" ry="5" rx="5" y="6" x="6" height="38" width="38"
                fill="#f2f5e9" fill-opacity="0.5" stroke="#606060" stroke-width="1.0"/>
           <path id="arrow"
             d="M 11.500037,31.436501 C 11.940474,20.09759 22.043105,11.32322 32.158766,21.979434 L 37.068811,17.246167 C 37.068811,17.246167 37.088388,32 37.088388,32 L 22.160133,31.978069 C 22.160133,31.978069 26.997745,27.140456 26.997745,27.140456 C 18.528582,18.264221 13.291696,25.230495 11.500037,31.436501 z"
             style="fill:#404040;"/>
          </a>
         </g>
        </svg>
</svg>
