<?xml version="1.0" encoding="UTF-8" standalone="no"?>
<!DOCTYPE svg PUBLIC "-//W3C//DTD SVG 1.1//EN"
 "http://www.w3.org/Graphics/SVG/1.1/DTD/svg11.dtd">
<!-- Generated by graphviz version 2.40.1 (20161225.0304)
 -->
<!-- Title: bf_add Pages: 1 -->
<svg width="722pt" height="690pt"
 viewBox="0.00 0.00 722.00 690.00" xmlns="http://www.w3.org/2000/svg" xmlns:xlink="http://www.w3.org/1999/xlink">
<g id="graph0" class="graph" transform="scale(1 1) rotate(0) translate(4 686)">
<title>bf_add</title>
<!-- Node4844 -->
<g id="node1" class="node">
<title>Node4844</title>
<polygon fill="#bfbfbf" stroke="#000000" points="0,-282.5 0,-301.5 46,-301.5 46,-282.5 0,-282.5"/>
<text text-anchor="middle" x="23" y="-289.5" font-family="Helvetica,sans-Serif" font-size="10.00" fill="#000000">bf_add</text>
</g>
<!-- Node4845 -->
<g id="node2" class="node">
<title>Node4845</title>
<g id="a_node2"><a xlink:href="libbf_8c.html#a740cb7dc32453bf521083b7616b7f120" target="_top" xlink:title="bf_add_epsilon">
<polygon fill="none" stroke="#000000" points="265,-548.5 265,-567.5 347,-567.5 347,-548.5 265,-548.5"/>
<text text-anchor="middle" x="306" y="-555.5" font-family="Helvetica,sans-Serif" font-size="10.00" fill="#000000">bf_add_epsilon</text>
</a>
</g>
</g>
<!-- Node4844&#45;&gt;Node4845 -->
<g id="edge1" class="edge">
<title>Node4844&#45;&gt;Node4845</title>
<path fill="none" stroke="#191970" d="M24.6505,-311.7757C28.5647,-346.6446 41.3772,-419.4784 82,-463 131.2879,-515.805 214.675,-540.4532 264.6156,-550.9996"/>
<polygon fill="#191970" stroke="#191970" points="28.102,-311.1112 23.6369,-301.5033 21.1359,-311.7986 28.102,-311.1112"/>
</g>
<!-- Node4851 -->
<g id="node8" class="node">
<title>Node4851</title>
<g id="a_node8"><a xlink:href="libbf_8c.html#af760cf2a93bf130e8e44a62c7e7d0adf" target="_top" xlink:title="bf_atan2_internal">
<polygon fill="none" stroke="#ff0000" points="623,-216.5 623,-235.5 714,-235.5 714,-216.5 623,-216.5"/>
<text text-anchor="middle" x="668.5" y="-223.5" font-family="Helvetica,sans-Serif" font-size="10.00" fill="#000000">bf_atan2_internal</text>
</a>
</g>
</g>
<!-- Node4844&#45;&gt;Node4851 -->
<g id="edge25" class="edge">
<title>Node4844&#45;&gt;Node4851</title>
<path fill="none" stroke="#191970" d="M27.0989,-272.4471C33.7119,-246.2826 49.4335,-200.6691 82,-179 165.182,-123.6522 206.087,-160 306,-160 306,-160 306,-160 451.5,-160 528.0894,-160 613.5607,-198.0981 650.2068,-216.403"/>
<polygon fill="#191970" stroke="#191970" points="23.6537,-271.8105 24.7999,-282.3432 30.4721,-273.3946 23.6537,-271.8105"/>
</g>
<!-- Node4854 -->
<g id="node10" class="node">
<title>Node4854</title>
<g id="a_node10"><a xlink:href="libbf_8h.html#a50a5aa2767f2389a32daf115aaef07af" target="_top" xlink:title="bf_add_si">
<polygon fill="none" stroke="#000000" points="117,-434.5 117,-453.5 176,-453.5 176,-434.5 117,-434.5"/>
<text text-anchor="middle" x="146.5" y="-441.5" font-family="Helvetica,sans-Serif" font-size="10.00" fill="#000000">bf_add_si</text>
</a>
</g>
</g>
<!-- Node4844&#45;&gt;Node4854 -->
<g id="edge9" class="edge">
<title>Node4844&#45;&gt;Node4854</title>
<path fill="none" stroke="#191970" d="M27.1503,-311.9643C33.9362,-339.8366 49.9834,-390.3195 82,-420 91.6383,-428.9351 104.9024,-434.6227 116.8969,-438.204"/>
<polygon fill="#191970" stroke="#191970" points="30.4805,-310.8232 24.8554,-301.845 23.6538,-312.3715 30.4805,-310.8232"/>
</g>
<!-- Node4866 -->
<g id="node13" class="node">
<title>Node4866</title>
<g id="a_node13"><a xlink:href="libbf_8c.html#aa94726eca10adb51bd141319fdfdb20c" target="_top" xlink:title="bf_integer_to_radix_rec">
<polygon fill="none" stroke="#000000" points="247,-586.5 247,-605.5 365,-605.5 365,-586.5 247,-586.5"/>
<text text-anchor="middle" x="306" y="-593.5" font-family="Helvetica,sans-Serif" font-size="10.00" fill="#000000">bf_integer_to_radix_rec</text>
</a>
</g>
</g>
<!-- Node4844&#45;&gt;Node4866 -->
<g id="edge36" class="edge">
<title>Node4844&#45;&gt;Node4866</title>
<path fill="none" stroke="#191970" d="M25.9524,-311.8215C33.5222,-360.2479 54.9447,-482.8185 82,-513 124.3544,-560.2485 196.0933,-580.6673 246.9643,-589.4494"/>
<polygon fill="#191970" stroke="#191970" points="29.3745,-311.046 24.4031,-301.69 22.455,-312.1042 29.3745,-311.046"/>
</g>
<!-- Node4875 -->
<g id="node16" class="node">
<title>Node4875</title>
<g id="a_node16"><a xlink:href="libbf_8c.html#aab7bc918fdd8dbef25c31c6881c73fdd" target="_top" xlink:title="bf_log_internal">
<polygon fill="none" stroke="#000000" points="266,-282.5 266,-301.5 346,-301.5 346,-282.5 266,-282.5"/>
<text text-anchor="middle" x="306" y="-289.5" font-family="Helvetica,sans-Serif" font-size="10.00" fill="#000000">bf_log_internal</text>
</a>
</g>
</g>
<!-- Node4844&#45;&gt;Node4875 -->
<g id="edge37" class="edge">
<title>Node4844&#45;&gt;Node4875</title>
<path fill="none" stroke="#191970" d="M56.2346,-292C108.5067,-292 209.7535,-292 265.9573,-292"/>
<polygon fill="#191970" stroke="#191970" points="56.1591,-288.5001 46.1591,-292 56.159,-295.5001 56.1591,-288.5001"/>
</g>
<!-- Node4858 -->
<g id="node18" class="node">
<title>Node4858</title>
<g id="a_node18"><a xlink:href="libbf_8c.html#a2b19e3958f6cf3fa0cc534681a5ff259" target="_top" xlink:title="bf_sincos">
<polygon fill="none" stroke="#ff0000" points="276.5,-320.5 276.5,-339.5 335.5,-339.5 335.5,-320.5 276.5,-320.5"/>
<text text-anchor="middle" x="306" y="-327.5" font-family="Helvetica,sans-Serif" font-size="10.00" fill="#000000">bf_sincos</text>
</a>
</g>
</g>
<!-- Node4844&#45;&gt;Node4858 -->
<g id="edge38" class="edge">
<title>Node4844&#45;&gt;Node4858</title>
<path fill="none" stroke="#191970" d="M35.2813,-309.7525C45.8684,-323.3674 62.5023,-341.12 82,-349 135.1562,-370.4831 153.9457,-354.6495 211,-349 233.0939,-346.8123 257.6611,-341.8291 276.2768,-337.515"/>
<polygon fill="#191970" stroke="#191970" points="37.9815,-307.517 29.2278,-301.5483 32.3488,-311.6731 37.9815,-307.517"/>
</g>
<!-- Node4877 -->
<g id="node19" class="node">
<title>Node4877</title>
<g id="a_node19"><a xlink:href="libbf_8c.html#aa4b535a5b33344704c576607ab4f0463" target="_top" xlink:title="bf_atan_internal">
<polygon fill="none" stroke="#000000" points="263,-358.5 263,-377.5 349,-377.5 349,-358.5 263,-358.5"/>
<text text-anchor="middle" x="306" y="-365.5" font-family="Helvetica,sans-Serif" font-size="10.00" fill="#000000">bf_atan_internal</text>
</a>
</g>
</g>
<!-- Node4844&#45;&gt;Node4877 -->
<g id="edge26" class="edge">
<title>Node4844&#45;&gt;Node4877</title>
<path fill="none" stroke="#191970" d="M31.4867,-310.9808C40.8844,-329.3932 57.9502,-356.224 82,-368 142.0739,-397.4151 222.5407,-387.3037 268.8791,-377.501"/>
<polygon fill="#191970" stroke="#191970" points="34.545,-309.2642 27.059,-301.7669 28.2357,-312.2962 34.545,-309.2642"/>
</g>
<!-- Node4880 -->
<g id="node21" class="node">
<title>Node4880</title>
<g id="a_node21"><a xlink:href="libbf_8c.html#a829c2ed2112548096d41c6ceb017e542" target="_top" xlink:title="bf_const_log2_rec">
<polygon fill="none" stroke="#000000" points="98.5,-94.5 98.5,-113.5 194.5,-113.5 194.5,-94.5 98.5,-94.5"/>
<text text-anchor="middle" x="146.5" y="-101.5" font-family="Helvetica,sans-Serif" font-size="10.00" fill="#000000">bf_const_log2_rec</text>
</a>
</g>
</g>
<!-- Node4844&#45;&gt;Node4880 -->
<g id="edge27" class="edge">
<title>Node4844&#45;&gt;Node4880</title>
<path fill="none" stroke="#191970" d="M26.9367,-272.4116C33.7753,-242.4203 50.258,-184.5518 82,-146 93.6364,-131.8672 111.2905,-120.8324 125.1889,-113.6274"/>
<polygon fill="#191970" stroke="#191970" points="23.4602,-271.9299 24.7762,-282.4427 30.3033,-273.4038 23.4602,-271.9299"/>
</g>
<!-- Node4884 -->
<g id="node23" class="node">
<title>Node4884</title>
<g id="a_node23"><a xlink:href="libbf_8c.html#a11d2dea6becda91c288fd883eefc8e5c" target="_top" xlink:title="bf_const_pi_internal">
<polygon fill="none" stroke="#000000" points="254,-244.5 254,-263.5 358,-263.5 358,-244.5 254,-244.5"/>
<text text-anchor="middle" x="306" y="-251.5" font-family="Helvetica,sans-Serif" font-size="10.00" fill="#000000">bf_const_pi_internal</text>
</a>
</g>
</g>
<!-- Node4844&#45;&gt;Node4884 -->
<g id="edge30" class="edge">
<title>Node4844&#45;&gt;Node4884</title>
<path fill="none" stroke="#191970" d="M56.1517,-287.5485C104.8058,-281.0155 196.0172,-268.768 253.7443,-261.0167"/>
<polygon fill="#191970" stroke="#191970" points="55.6043,-284.0905 46.1591,-288.8903 56.5359,-291.0283 55.6043,-284.0905"/>
</g>
<!-- Node4887 -->
<g id="node25" class="node">
<title>Node4887</title>
<g id="a_node25"><a xlink:href="libbf_8c.html#a5d5227218ea18d8ca58be002abc729bf" target="_top" xlink:title="bf_integer_from_radix_rec">
<polygon fill="none" stroke="#000000" points="82,-38.5 82,-57.5 211,-57.5 211,-38.5 82,-38.5"/>
<text text-anchor="middle" x="146.5" y="-45.5" font-family="Helvetica,sans-Serif" font-size="10.00" fill="#000000">bf_integer_from_radix_rec</text>
</a>
</g>
</g>
<!-- Node4844&#45;&gt;Node4887 -->
<g id="edge33" class="edge">
<title>Node4844&#45;&gt;Node4887</title>
<path fill="none" stroke="#191970" d="M23.8148,-271.9798C26.3961,-232.2476 37.1552,-142.3282 82,-85 91.7038,-72.5949 106.8074,-63.6103 119.9603,-57.6033"/>
<polygon fill="#191970" stroke="#191970" points="20.3073,-272.0255 23.2645,-282.1993 27.2972,-272.4019 20.3073,-272.0255"/>
</g>
<!-- Node4893 -->
<g id="node27" class="node">
<title>Node4893</title>
<g id="a_node27"><a xlink:href="libbf_8c.html#a15b40c4ae7e9b401fd0c6dc398eacef7" target="_top" xlink:title="bf_sqrt_sin">
<polygon fill="none" stroke="#000000" points="114,-320.5 114,-339.5 179,-339.5 179,-320.5 114,-320.5"/>
<text text-anchor="middle" x="146.5" y="-327.5" font-family="Helvetica,sans-Serif" font-size="10.00" fill="#000000">bf_sqrt_sin</text>
</a>
</g>
</g>
<!-- Node4844&#45;&gt;Node4893 -->
<g id="edge39" class="edge">
<title>Node4844&#45;&gt;Node4893</title>
<path fill="none" stroke="#191970" d="M55.9712,-302.145C74.4294,-307.8244 97.3068,-314.8636 115.4454,-320.4447"/>
<polygon fill="#191970" stroke="#191970" points="56.8165,-298.7432 46.2294,-299.1475 54.7579,-305.4337 56.8165,-298.7432"/>
</g>
<!-- Node4894 -->
<g id="node28" class="node">
<title>Node4894</title>
<g id="a_node28"><a xlink:href="libbf_8h.html#ae080fd42a2c7fc561d7084762204357e" target="_top" xlink:title="bf_sqrtrem">
<polygon fill="none" stroke="#000000" points="115,-.5 115,-19.5 178,-19.5 178,-.5 115,-.5"/>
<text text-anchor="middle" x="146.5" y="-7.5" font-family="Helvetica,sans-Serif" font-size="10.00" fill="#000000">bf_sqrtrem</text>
</a>
</g>
</g>
<!-- Node4844&#45;&gt;Node4894 -->
<g id="edge41" class="edge">
<title>Node4844&#45;&gt;Node4894</title>
<path fill="none" stroke="#191970" d="M24.8463,-272.3685C30.3816,-217.5845 48.5582,-64.7176 82,-29 90.4573,-19.9672 102.9693,-15.1571 114.7282,-12.6216"/>
<polygon fill="#191970" stroke="#191970" points="21.3462,-272.1993 23.8561,-282.4926 28.313,-272.8808 21.3462,-272.1993"/>
</g>
<!-- Node4896 -->
<g id="node30" class="node">
<title>Node4896</title>
<g id="a_node30"><a xlink:href="libbf_8c.html#a81e50b3d7e7a931a93d6ea7e1d630631" target="_top" xlink:title="chud_bs">
<polygon fill="none" stroke="#000000" points="120,-188.5 120,-207.5 173,-207.5 173,-188.5 120,-188.5"/>
<text text-anchor="middle" x="146.5" y="-195.5" font-family="Helvetica,sans-Serif" font-size="10.00" fill="#000000">chud_bs</text>
</a>
</g>
</g>
<!-- Node4844&#45;&gt;Node4896 -->
<g id="edge43" class="edge">
<title>Node4844&#45;&gt;Node4896</title>
<path fill="none" stroke="#191970" d="M40.6104,-275.2689C52.0479,-264.7116 67.4787,-251.0347 82,-240 97.8527,-227.9536 117.1019,-215.702 130.4236,-207.5649"/>
<polygon fill="#191970" stroke="#191970" points="37.9773,-272.939 33.058,-282.3226 42.7553,-278.0548 37.9773,-272.939"/>
</g>
<!-- Node4846 -->
<g id="node3" class="node">
<title>Node4846</title>
<g id="a_node3"><a xlink:href="libbf_8h.html#a36f22f93ba4258209be035a63b80b87f" target="_top" xlink:title="bf_exp">
<polygon fill="none" stroke="#000000" points="428.5,-434.5 428.5,-453.5 474.5,-453.5 474.5,-434.5 428.5,-434.5"/>
<text text-anchor="middle" x="451.5" y="-441.5" font-family="Helvetica,sans-Serif" font-size="10.00" fill="#000000">bf_exp</text>
</a>
</g>
</g>
<!-- Node4845&#45;&gt;Node4846 -->
<g id="edge2" class="edge">
<title>Node4845&#45;&gt;Node4846</title>
<path fill="none" stroke="#191970" d="M349.9689,-544.1524C355.3818,-541.321 360.5614,-537.9634 365,-534 389.9233,-511.7453 376.7246,-490.9597 401,-468 408.6871,-460.7295 418.9833,-455.2994 428.2732,-451.4604"/>
<polygon fill="#191970" stroke="#191970" points="348.3301,-541.0542 340.7287,-548.4346 351.2735,-547.4053 348.3301,-541.0542"/>
</g>
<!-- Node4847 -->
<g id="node4" class="node">
<title>Node4847</title>
<g id="a_node4"><a xlink:href="libbf_8h.html#a69ea68a6b21d496bd89afeaa9c067ebe" target="_top" xlink:title="bf_cos">
<polygon fill="none" stroke="#000000" points="428.5,-548.5 428.5,-567.5 474.5,-567.5 474.5,-548.5 428.5,-548.5"/>
<text text-anchor="middle" x="451.5" y="-555.5" font-family="Helvetica,sans-Serif" font-size="10.00" fill="#000000">bf_cos</text>
</a>
</g>
</g>
<!-- Node4845&#45;&gt;Node4847 -->
<g id="edge3" class="edge">
<title>Node4845&#45;&gt;Node4847</title>
<path fill="none" stroke="#191970" d="M357.4162,-558C381.5824,-558 409.1941,-558 428.2238,-558"/>
<polygon fill="#191970" stroke="#191970" points="357.3053,-554.5001 347.3053,-558 357.3052,-561.5001 357.3053,-554.5001"/>
</g>
<!-- Node4848 -->
<g id="node5" class="node">
<title>Node4848</title>
<g id="a_node5"><a xlink:href="libbf_8h.html#a9a518cd74072443dc50e179d2a9ea610" target="_top" xlink:title="bf_sin">
<polygon fill="none" stroke="#000000" points="430,-510.5 430,-529.5 473,-529.5 473,-510.5 430,-510.5"/>
<text text-anchor="middle" x="451.5" y="-517.5" font-family="Helvetica,sans-Serif" font-size="10.00" fill="#000000">bf_sin</text>
</a>
</g>
</g>
<!-- Node4845&#45;&gt;Node4848 -->
<g id="edge4" class="edge">
<title>Node4845&#45;&gt;Node4848</title>
<path fill="none" stroke="#191970" d="M352.7047,-545.8022C378.5509,-539.052 409.4499,-530.9821 429.727,-525.6864"/>
<polygon fill="#191970" stroke="#191970" points="351.5068,-542.4976 342.7158,-548.411 353.2757,-549.2704 351.5068,-542.4976"/>
</g>
<!-- Node4849 -->
<g id="node6" class="node">
<title>Node4849</title>
<g id="a_node6"><a xlink:href="libbf_8h.html#a3291f57ed40cdf116203afa57f73e91e" target="_top" xlink:title="bf_tan">
<polygon fill="none" stroke="#000000" points="429.5,-624.5 429.5,-643.5 473.5,-643.5 473.5,-624.5 429.5,-624.5"/>
<text text-anchor="middle" x="451.5" y="-631.5" font-family="Helvetica,sans-Serif" font-size="10.00" fill="#000000">bf_tan</text>
</a>
</g>
</g>
<!-- Node4845&#45;&gt;Node4849 -->
<g id="edge5" class="edge">
<title>Node4845&#45;&gt;Node4849</title>
<path fill="none" stroke="#191970" d="M353.3739,-571.214C357.4053,-572.9455 361.3372,-574.8699 365,-577 383.7629,-587.9117 382.9982,-597.8737 401,-610 409.7755,-615.9113 420.2332,-621.1397 429.3497,-625.1951"/>
<polygon fill="#191970" stroke="#191970" points="354.4548,-567.8791 343.8661,-567.5179 351.9184,-574.4035 354.4548,-567.8791"/>
</g>
<!-- Node4850 -->
<g id="node7" class="node">
<title>Node4850</title>
<g id="a_node7"><a xlink:href="libbf_8h.html#a0bb2c5b98e3f978b84df9849c7ec50d6" target="_top" xlink:title="bf_atan">
<polygon fill="none" stroke="#000000" points="538,-282.5 538,-301.5 587,-301.5 587,-282.5 538,-282.5"/>
<text text-anchor="middle" x="562.5" y="-289.5" font-family="Helvetica,sans-Serif" font-size="10.00" fill="#000000">bf_atan</text>
</a>
</g>
</g>
<!-- Node4845&#45;&gt;Node4850 -->
<g id="edge6" class="edge">
<title>Node4845&#45;&gt;Node4850</title>
<path fill="none" stroke="#191970" d="M330.464,-543.0087C356.1583,-527.3139 393.8279,-504.4657 401,-501 444.1834,-480.1327 468.4239,-497.2475 502,-463 548.5167,-415.5531 559.4534,-330.1529 561.861,-301.5955"/>
<polygon fill="#191970" stroke="#191970" points="328.3234,-540.2151 321.6182,-548.4182 331.9754,-546.187 328.3234,-540.2151"/>
</g>
<!-- Node4853 -->
<g id="node9" class="node">
<title>Node4853</title>
<g id="a_node9"><a xlink:href="libbf_8h.html#a8ee86879e3da22442956f47356855edd" target="_top" xlink:title="bf_asin">
<polygon fill="none" stroke="#000000" points="538.5,-491.5 538.5,-510.5 586.5,-510.5 586.5,-491.5 538.5,-491.5"/>
<text text-anchor="middle" x="562.5" y="-498.5" font-family="Helvetica,sans-Serif" font-size="10.00" fill="#000000">bf_asin</text>
</a>
</g>
</g>
<!-- Node4845&#45;&gt;Node4853 -->
<g id="edge8" class="edge">
<title>Node4845&#45;&gt;Node4853</title>
<path fill="none" stroke="#191970" d="M354.5397,-569.6248C369.3617,-572.655 385.7686,-575.4918 401,-577 445.6704,-581.4232 461.565,-596.4941 502,-577 531.0155,-563.0114 550.4121,-527.5905 558.3914,-510.5052"/>
<polygon fill="#191970" stroke="#191970" points="355.074,-566.1603 344.5655,-567.51 353.622,-573.0081 355.074,-566.1603"/>
</g>
<!-- Node4850&#45;&gt;Node4851 -->
<g id="edge7" class="edge">
<title>Node4850&#45;&gt;Node4851</title>
<path fill="none" stroke="#191970" d="M586.8788,-276.8208C607.2858,-264.1145 635.7795,-246.3731 653.1398,-235.5639"/>
<polygon fill="#191970" stroke="#191970" points="584.7797,-274.0047 578.1407,-282.2615 588.4796,-279.947 584.7797,-274.0047"/>
</g>
<!-- Node4855 -->
<g id="node11" class="node">
<title>Node4855</title>
<g id="a_node11"><a xlink:href="libbf_8h.html#a951ec20cd7fa3bf021d165b213e15ce4" target="_top" xlink:title="bf_divrem">
<polygon fill="none" stroke="#ff0000" points="276.5,-396.5 276.5,-415.5 335.5,-415.5 335.5,-396.5 276.5,-396.5"/>
<text text-anchor="middle" x="306" y="-403.5" font-family="Helvetica,sans-Serif" font-size="10.00" fill="#000000">bf_divrem</text>
</a>
</g>
</g>
<!-- Node4854&#45;&gt;Node4855 -->
<g id="edge10" class="edge">
<title>Node4854&#45;&gt;Node4855</title>
<path fill="none" stroke="#191970" d="M185.9776,-434.5947C213.9153,-427.9387 250.7932,-419.1527 276.2615,-413.085"/>
<polygon fill="#191970" stroke="#191970" points="185.0435,-431.2192 176.1269,-436.9415 186.6658,-438.0286 185.0435,-431.2192"/>
</g>
<!-- Node4862 -->
<g id="node12" class="node">
<title>Node4862</title>
<g id="a_node12"><a xlink:href="libbf_8c.html#ad7d8e39c51ec431bcd496bb37382ae94" target="_top" xlink:title="bf_logic_op">
<polygon fill="none" stroke="#ff0000" points="273,-472.5 273,-491.5 339,-491.5 339,-472.5 273,-472.5"/>
<text text-anchor="middle" x="306" y="-479.5" font-family="Helvetica,sans-Serif" font-size="10.00" fill="#000000">bf_logic_op</text>
</a>
</g>
</g>
<!-- Node4854&#45;&gt;Node4862 -->
<g id="edge11" class="edge">
<title>Node4854&#45;&gt;Node4862</title>
<path fill="none" stroke="#191970" d="M185.9416,-453.3968C212.6966,-459.771 247.6631,-468.1016 272.9538,-474.1269"/>
<polygon fill="#191970" stroke="#191970" points="186.6658,-449.9714 176.1269,-451.0585 185.0435,-456.7808 186.6658,-449.9714"/>
</g>
<!-- Node4854&#45;&gt;Node4866 -->
<g id="edge12" class="edge">
<title>Node4854&#45;&gt;Node4866</title>
<path fill="none" stroke="#191970" d="M155.7285,-462.6165C170.8836,-491.3181 203.7326,-546.2661 247,-577 252.4393,-580.8637 258.7046,-583.9703 265.0767,-586.46"/>
<polygon fill="#191970" stroke="#191970" points="158.8006,-460.9371 151.1177,-453.6416 152.5742,-464.1359 158.8006,-460.9371"/>
</g>
<!-- Node4872 -->
<g id="node15" class="node">
<title>Node4872</title>
<g id="a_node15"><a xlink:href="libbf_8c.html#a157194b3c7faaa17e39ae78cd98c4385" target="_top" xlink:title="bf_exp_internal">
<polygon fill="none" stroke="#ff0000" points="264.5,-434.5 264.5,-453.5 347.5,-453.5 347.5,-434.5 264.5,-434.5"/>
<text text-anchor="middle" x="306" y="-441.5" font-family="Helvetica,sans-Serif" font-size="10.00" fill="#000000">bf_exp_internal</text>
</a>
</g>
</g>
<!-- Node4854&#45;&gt;Node4872 -->
<g id="edge15" class="edge">
<title>Node4854&#45;&gt;Node4872</title>
<path fill="none" stroke="#191970" d="M186.2086,-444C209.9549,-444 240.0971,-444 264.2048,-444"/>
<polygon fill="#191970" stroke="#191970" points="186.127,-440.5001 176.1269,-444 186.1269,-447.5001 186.127,-440.5001"/>
</g>
<!-- Node4854&#45;&gt;Node4875 -->
<g id="edge17" class="edge">
<title>Node4854&#45;&gt;Node4875</title>
<path fill="none" stroke="#191970" d="M158.2447,-425.7947C179.5513,-393.2551 224.4516,-327.0167 247,-311 252.6148,-307.0117 259.1096,-303.83 265.6937,-301.301"/>
<polygon fill="#191970" stroke="#191970" points="155.1885,-424.0742 152.6689,-434.3651 161.056,-427.8916 155.1885,-424.0742"/>
</g>
<!-- Node4854&#45;&gt;Node4858 -->
<g id="edge19" class="edge">
<title>Node4854&#45;&gt;Node4858</title>
<path fill="none" stroke="#191970" d="M164.0013,-427.0728C191.499,-400.5325 242.2046,-351.8382 247,-349 255.9828,-343.6835 266.629,-339.668 276.3883,-336.731"/>
<polygon fill="#191970" stroke="#191970" points="161.3638,-424.7543 156.6031,-434.2193 166.2272,-429.7889 161.3638,-424.7543"/>
</g>
<!-- Node4854&#45;&gt;Node4877 -->
<g id="edge20" class="edge">
<title>Node4854&#45;&gt;Node4877</title>
<path fill="none" stroke="#191970" d="M185.7352,-432.1567C194.3558,-428.8104 203.2249,-424.7572 211,-420 229.5145,-408.672 228.2371,-397.9117 247,-387 253.5117,-383.2131 260.8736,-380.0766 268.1339,-377.5179"/>
<polygon fill="#191970" stroke="#191970" points="184.3795,-428.9255 176.1794,-435.6344 186.7735,-435.5034 184.3795,-428.9255"/>
</g>
<!-- Node4878 -->
<g id="node20" class="node">
<title>Node4878</title>
<g id="a_node20"><a xlink:href="libbf_8c.html#a4a0919b7e170befaf75d114d48d350cc" target="_top" xlink:title="bf_asin_internal">
<polygon fill="none" stroke="#ff0000" points="409,-396.5 409,-415.5 494,-415.5 494,-396.5 409,-396.5"/>
<text text-anchor="middle" x="451.5" y="-403.5" font-family="Helvetica,sans-Serif" font-size="10.00" fill="#000000">bf_asin_internal</text>
</a>
</g>
</g>
<!-- Node4854&#45;&gt;Node4878 -->
<g id="edge24" class="edge">
<title>Node4854&#45;&gt;Node4878</title>
<path fill="none" stroke="#191970" d="M167.5704,-459.6632C208.5987,-488.0867 300.8053,-541.6244 365,-501 396.5828,-481.0134 373.5038,-450.316 401,-425 405.2037,-421.1296 410.2714,-418.0249 415.5526,-415.5408"/>
<polygon fill="#191970" stroke="#191970" points="169.5769,-456.7953 159.397,-453.8592 165.524,-462.5028 169.5769,-456.7953"/>
</g>
<!-- Node4866&#45;&gt;Node4866 -->
<g id="edge13" class="edge">
<title>Node4866&#45;&gt;Node4866</title>
<path fill="none" stroke="#191970" d="M279.1208,-614.6539C280.2444,-619.9368 289.2041,-624 306,-624 331.5938,-624 338.9919,-614.5653 328.1946,-605.7571"/>
<polygon fill="#191970" stroke="#191970" points="282.2433,-616.2361 283.8054,-605.7571 276.0494,-612.9747 282.2433,-616.2361"/>
</g>
<!-- Node4867 -->
<g id="node14" class="node">
<title>Node4867</title>
<g id="a_node14"><a xlink:href="libbf_8c.html#a1b9b6240cdee780a8968560c8655d9f2" target="_top" xlink:title="bf_integer_to_radix">
<polygon fill="none" stroke="#ff0000" points="402,-662.5 402,-681.5 501,-681.5 501,-662.5 402,-662.5"/>
<text text-anchor="middle" x="451.5" y="-669.5" font-family="Helvetica,sans-Serif" font-size="10.00" fill="#000000">bf_integer_to_radix</text>
</a>
</g>
</g>
<!-- Node4866&#45;&gt;Node4867 -->
<g id="edge14" class="edge">
<title>Node4866&#45;&gt;Node4867</title>
<path fill="none" stroke="#191970" d="M328.5164,-611.0953C347.3704,-623.3433 375.2529,-640.5584 401,-653 408.0848,-656.4235 415.9573,-659.646 423.3378,-662.4308"/>
<polygon fill="#191970" stroke="#191970" points="330.3148,-608.0891 320.0351,-605.5243 326.4717,-613.9398 330.3148,-608.0891"/>
</g>
<!-- Node4872&#45;&gt;Node4846 -->
<g id="edge16" class="edge">
<title>Node4872&#45;&gt;Node4846</title>
<path fill="none" stroke="#191970" d="M357.7948,-444C381.9238,-444 409.4151,-444 428.3496,-444"/>
<polygon fill="#191970" stroke="#191970" points="357.6945,-440.5001 347.6945,-444 357.6944,-447.5001 357.6945,-440.5001"/>
</g>
<!-- Node4876 -->
<g id="node17" class="node">
<title>Node4876</title>
<g id="a_node17"><a xlink:href="libbf_8h.html#a4137b2308536cbc92addaeb3f0c79d35" target="_top" xlink:title="bf_log">
<polygon fill="none" stroke="#ff0000" points="430,-282.5 430,-301.5 473,-301.5 473,-282.5 430,-282.5"/>
<text text-anchor="middle" x="451.5" y="-289.5" font-family="Helvetica,sans-Serif" font-size="10.00" fill="#000000">bf_log</text>
</a>
</g>
</g>
<!-- Node4875&#45;&gt;Node4876 -->
<g id="edge18" class="edge">
<title>Node4875&#45;&gt;Node4876</title>
<path fill="none" stroke="#191970" d="M356.2817,-292C381.444,-292 410.5827,-292 429.9319,-292"/>
<polygon fill="#191970" stroke="#191970" points="356.1437,-288.5001 346.1437,-292 356.1436,-295.5001 356.1437,-288.5001"/>
</g>
<!-- Node4877&#45;&gt;Node4850 -->
<g id="edge21" class="edge">
<title>Node4877&#45;&gt;Node4850</title>
<path fill="none" stroke="#191970" d="M349.3524,-355.6789C389.1208,-344.3085 449.6219,-326.8389 502,-311 513.8025,-307.431 526.8579,-303.3481 537.8109,-299.8842"/>
<polygon fill="#191970" stroke="#191970" points="348.3606,-352.3222 339.706,-358.4336 350.2827,-359.0531 348.3606,-352.3222"/>
</g>
<!-- Node4877&#45;&gt;Node4878 -->
<g id="edge22" class="edge">
<title>Node4877&#45;&gt;Node4878</title>
<path fill="none" stroke="#191970" d="M352.6532,-380.1843C372.8534,-385.46 396.1481,-391.5438 415.0482,-396.4799"/>
<polygon fill="#191970" stroke="#191970" points="353.2757,-376.7296 342.7158,-377.589 351.5068,-383.5024 353.2757,-376.7296"/>
</g>
<!-- Node4878&#45;&gt;Node4853 -->
<g id="edge23" class="edge">
<title>Node4878&#45;&gt;Node4853</title>
<path fill="none" stroke="#191970" d="M493.9021,-419.935C496.7376,-421.4725 499.4687,-423.1577 502,-425 527.4983,-443.5584 548.027,-475.5566 557.2409,-491.4574"/>
<polygon fill="#191970" stroke="#191970" points="495.1403,-416.6482 484.6063,-415.5146 492.1342,-422.9699 495.1403,-416.6482"/>
</g>
<!-- Node4880&#45;&gt;Node4880 -->
<g id="edge28" class="edge">
<title>Node4880&#45;&gt;Node4880</title>
<path fill="none" stroke="#191970" d="M123.8066,-123.0292C125.0445,-128.128 132.6089,-132 146.5,-132 168.1836,-132 174.4515,-122.5653 165.3037,-113.7571"/>
<polygon fill="#191970" stroke="#191970" points="127.0553,-124.3325 127.6963,-113.7571 120.6003,-121.6246 127.0553,-124.3325"/>
</g>
<!-- Node4881 -->
<g id="node22" class="node">
<title>Node4881</title>
<g id="a_node22"><a xlink:href="libbf_8c.html#ae2d577a0090338aba89d1bfa786d6a7a" target="_top" xlink:title="bf_const_log2_internal">
<polygon fill="none" stroke="#ff0000" points="249,-94.5 249,-113.5 363,-113.5 363,-94.5 249,-94.5"/>
<text text-anchor="middle" x="306" y="-101.5" font-family="Helvetica,sans-Serif" font-size="10.00" fill="#000000">bf_const_log2_internal</text>
</a>
</g>
</g>
<!-- Node4880&#45;&gt;Node4881 -->
<g id="edge29" class="edge">
<title>Node4880&#45;&gt;Node4881</title>
<path fill="none" stroke="#191970" d="M205.0133,-104C219.3351,-104 234.6425,-104 248.8972,-104"/>
<polygon fill="#191970" stroke="#191970" points="204.7881,-100.5001 194.7881,-104 204.7881,-107.5001 204.7881,-100.5001"/>
</g>
<!-- Node4885 -->
<g id="node24" class="node">
<title>Node4885</title>
<g id="a_node24"><a xlink:href="libbf_8c.html#a25b9653cbfca557499e786f8d2a7eb2e" target="_top" xlink:title="bf_const_pi_signed">
<polygon fill="none" stroke="#ff0000" points="401,-244.5 401,-263.5 502,-263.5 502,-244.5 401,-244.5"/>
<text text-anchor="middle" x="451.5" y="-251.5" font-family="Helvetica,sans-Serif" font-size="10.00" fill="#000000">bf_const_pi_signed</text>
</a>
</g>
</g>
<!-- Node4884&#45;&gt;Node4885 -->
<g id="edge31" class="edge">
<title>Node4884&#45;&gt;Node4885</title>
<path fill="none" stroke="#191970" d="M368.3494,-254C379.1541,-254 390.2714,-254 400.7213,-254"/>
<polygon fill="#191970" stroke="#191970" points="368.1179,-250.5001 358.1179,-254 368.1178,-257.5001 368.1179,-250.5001"/>
</g>
<!-- Node4885&#45;&gt;Node4850 -->
<g id="edge32" class="edge">
<title>Node4885&#45;&gt;Node4850</title>
<path fill="none" stroke="#191970" d="M489.183,-266.9005C505.272,-272.4084 523.5957,-278.6814 537.8999,-283.5784"/>
<polygon fill="#191970" stroke="#191970" points="490.1046,-263.5166 479.51,-263.589 487.8373,-270.1393 490.1046,-263.5166"/>
</g>
<!-- Node4887&#45;&gt;Node4887 -->
<g id="edge34" class="edge">
<title>Node4887&#45;&gt;Node4887</title>
<path fill="none" stroke="#191970" d="M123.8066,-67.0292C125.0445,-72.128 132.6089,-76 146.5,-76 168.1836,-76 174.4515,-66.5653 165.3037,-57.7571"/>
<polygon fill="#191970" stroke="#191970" points="127.0553,-68.3325 127.6963,-57.7571 120.6003,-65.6246 127.0553,-68.3325"/>
</g>
<!-- Node4888 -->
<g id="node26" class="node">
<title>Node4888</title>
<g id="a_node26"><a xlink:href="libbf_8c.html#ac2b674e82a4c1c10c46af348193fb9c0" target="_top" xlink:title="bf_integer_from_radix">
<polygon fill="none" stroke="#ff0000" points="251,-38.5 251,-57.5 361,-57.5 361,-38.5 251,-38.5"/>
<text text-anchor="middle" x="306" y="-45.5" font-family="Helvetica,sans-Serif" font-size="10.00" fill="#000000">bf_integer_from_radix</text>
</a>
</g>
</g>
<!-- Node4887&#45;&gt;Node4888 -->
<g id="edge35" class="edge">
<title>Node4887&#45;&gt;Node4888</title>
<path fill="none" stroke="#191970" d="M221.5996,-48C231.4688,-48 241.4333,-48 250.8858,-48"/>
<polygon fill="#191970" stroke="#191970" points="221.3748,-44.5001 211.3748,-48 221.3747,-51.5001 221.3748,-44.5001"/>
</g>
<!-- Node4893&#45;&gt;Node4858 -->
<g id="edge40" class="edge">
<title>Node4893&#45;&gt;Node4858</title>
<path fill="none" stroke="#191970" d="M189.3012,-330C216.8169,-330 251.8661,-330 276.3403,-330"/>
<polygon fill="#191970" stroke="#191970" points="189.1621,-326.5001 179.1621,-330 189.1621,-333.5001 189.1621,-326.5001"/>
</g>
<!-- Node4895 -->
<g id="node29" class="node">
<title>Node4895</title>
<g id="a_node29"><a xlink:href="libbf_8c.html#ace5bdd7550302e2fb4b14c3a907dee7b" target="_top" xlink:title="check_exact_power2n">
<polygon fill="none" stroke="#ff0000" points="249,-.5 249,-19.5 363,-19.5 363,-.5 249,-.5"/>
<text text-anchor="middle" x="306" y="-7.5" font-family="Helvetica,sans-Serif" font-size="10.00" fill="#000000">check_exact_power2n</text>
</a>
</g>
</g>
<!-- Node4894&#45;&gt;Node4895 -->
<g id="edge42" class="edge">
<title>Node4894&#45;&gt;Node4895</title>
<path fill="none" stroke="#191970" d="M188.1635,-10C206.657,-10 228.7215,-10 248.7302,-10"/>
<polygon fill="#191970" stroke="#191970" points="188.0121,-6.5001 178.0121,-10 188.012,-13.5001 188.0121,-6.5001"/>
</g>
<!-- Node4896&#45;&gt;Node4884 -->
<g id="edge45" class="edge">
<title>Node4896&#45;&gt;Node4884</title>
<path fill="none" stroke="#191970" d="M182.998,-210.8143C212.1236,-221.0403 252.2842,-235.1405 278.6816,-244.4086"/>
<polygon fill="#191970" stroke="#191970" points="183.7915,-207.3836 173.1967,-207.3731 181.4726,-213.9883 183.7915,-207.3836"/>
</g>
<!-- Node4896&#45;&gt;Node4896 -->
<g id="edge44" class="edge">
<title>Node4896&#45;&gt;Node4896</title>
<path fill="none" stroke="#191970" d="M123.8066,-217.0292C125.0445,-222.128 132.6089,-226 146.5,-226 168.1836,-226 174.4515,-216.5653 165.3037,-207.7571"/>
<polygon fill="#191970" stroke="#191970" points="127.0553,-218.3325 127.6963,-207.7571 120.6003,-215.6246 127.0553,-218.3325"/>
</g>
</g>
</svg>
