<?xml version="1.0" encoding="UTF-8" standalone="no"?>
<!DOCTYPE svg PUBLIC "-//W3C//DTD SVG 1.1//EN"
 "http://www.w3.org/Graphics/SVG/1.1/DTD/svg11.dtd">
<!-- Generated by graphviz version 2.40.1 (20161225.0304)
 -->
<!-- Title: bf_asin_internal Pages: 1 -->
<svg width="634pt" height="592pt"
 viewBox="0.00 0.00 634.00 592.16" xmlns="http://www.w3.org/2000/svg" xmlns:xlink="http://www.w3.org/1999/xlink">
<g id="graph0" class="graph" transform="scale(1 1) rotate(0) translate(4 588.1601)">
<title>bf_asin_internal</title>
<!-- Node9753 -->
<g id="node1" class="node">
<title>Node9753</title>
<polygon fill="#bfbfbf" stroke="#000000" points="0,-342.5 0,-361.5 85,-361.5 85,-342.5 0,-342.5"/>
<text text-anchor="middle" x="42.5" y="-349.5" font-family="Helvetica,sans-Serif" font-size="10.00" fill="#000000">bf_asin_internal</text>
</g>
<!-- Node9754 -->
<g id="node2" class="node">
<title>Node9754</title>
<g id="a_node2"><a xlink:href="libbf_8h.html#a50a5aa2767f2389a32daf115aaef07af" target="_top" xlink:title="bf_add_si">
<polygon fill="none" stroke="#000000" points="249.5,-418.5 249.5,-437.5 308.5,-437.5 308.5,-418.5 249.5,-418.5"/>
<text text-anchor="middle" x="279" y="-425.5" font-family="Helvetica,sans-Serif" font-size="10.00" fill="#000000">bf_add_si</text>
</a>
</g>
</g>
<!-- Node9753&#45;&gt;Node9754 -->
<g id="edge1" class="edge">
<title>Node9753&#45;&gt;Node9754</title>
<path fill="none" stroke="#191970" d="M72.4529,-361.6255C114.9238,-375.2736 192.7003,-400.2673 239.7423,-415.3844"/>
<polygon fill="#191970" stroke="#191970" points="238.699,-418.7254 249.2903,-418.4527 240.8406,-412.061 238.699,-418.7254"/>
</g>
<!-- Node9755 -->
<g id="node3" class="node">
<title>Node9755</title>
<g id="a_node3"><a xlink:href="libbf_8h.html#abacc1410890af049e02ebd788364ac48" target="_top" xlink:title="bf_init">
<polygon fill="none" stroke="#000000" points="583,-456.5 583,-475.5 626,-475.5 626,-456.5 583,-456.5"/>
<text text-anchor="middle" x="604.5" y="-463.5" font-family="Helvetica,sans-Serif" font-size="10.00" fill="#000000">bf_init</text>
</a>
</g>
</g>
<!-- Node9753&#45;&gt;Node9755 -->
<g id="edge40" class="edge">
<title>Node9753&#45;&gt;Node9755</title>
<path fill="none" stroke="#191970" d="M45.789,-361.6526C54.5447,-386.1538 80.5491,-451.6646 121,-492 177.918,-548.7555 198.6207,-580 279,-580 279,-580 279,-580 401.5,-580 466.7157,-580 492.3846,-596.6406 547,-561 574.3333,-543.163 590.6617,-507.3706 598.5867,-485.172"/>
<polygon fill="#191970" stroke="#191970" points="601.9672,-486.0985 601.8135,-475.5047 595.3274,-483.8821 601.9672,-486.0985"/>
</g>
<!-- Node9786 -->
<g id="node10" class="node">
<title>Node9786</title>
<g id="a_node10"><a xlink:href="libbf_8h.html#a2b9d906b21e903f2f7f1c9044674ab7d" target="_top" xlink:title="bf_delete">
<polygon fill="none" stroke="#000000" points="373.5,-494.5 373.5,-513.5 429.5,-513.5 429.5,-494.5 373.5,-494.5"/>
<text text-anchor="middle" x="401.5" y="-501.5" font-family="Helvetica,sans-Serif" font-size="10.00" fill="#000000">bf_delete</text>
</a>
</g>
</g>
<!-- Node9753&#45;&gt;Node9786 -->
<g id="edge38" class="edge">
<title>Node9753&#45;&gt;Node9786</title>
<path fill="none" stroke="#191970" d="M49.0102,-361.6509C71.3136,-393.6348 148.5102,-495.6751 243,-523 283.7199,-534.7755 332.3596,-525.6985 364.921,-516.4824"/>
<polygon fill="#191970" stroke="#191970" points="366.3123,-519.72 374.8974,-513.5115 364.3144,-513.0112 366.3123,-519.72"/>
</g>
<!-- Node9787 -->
<g id="node12" class="node">
<title>Node9787</title>
<g id="a_node12"><a xlink:href="libbf_8c.html#aa4b535a5b33344704c576607ab4f0463" target="_top" xlink:title="bf_atan_internal">
<polygon fill="none" stroke="#000000" points="121,-266.5 121,-285.5 207,-285.5 207,-266.5 121,-266.5"/>
<text text-anchor="middle" x="164" y="-273.5" font-family="Helvetica,sans-Serif" font-size="10.00" fill="#000000">bf_atan_internal</text>
</a>
</g>
</g>
<!-- Node9753&#45;&gt;Node9787 -->
<g id="edge12" class="edge">
<title>Node9753&#45;&gt;Node9787</title>
<path fill="none" stroke="#191970" d="M57.8881,-342.3745C78.6116,-329.4117 115.6975,-306.2139 140.0763,-290.9646"/>
<polygon fill="#191970" stroke="#191970" points="142.115,-293.8178 148.7369,-285.5473 138.4027,-287.8832 142.115,-293.8178"/>
</g>
<!-- Node9793 -->
<g id="node15" class="node">
<title>Node9793</title>
<g id="a_node15"><a xlink:href="libbf_8h.html#a030665e68e114717678fb0d0453bb3c6" target="_top" xlink:title="bf_div">
<polygon fill="none" stroke="#ff0000" points="257.5,-494.5 257.5,-513.5 300.5,-513.5 300.5,-494.5 257.5,-494.5"/>
<text text-anchor="middle" x="279" y="-501.5" font-family="Helvetica,sans-Serif" font-size="10.00" fill="#000000">bf_div</text>
</a>
</g>
</g>
<!-- Node9753&#45;&gt;Node9793 -->
<g id="edge39" class="edge">
<title>Node9753&#45;&gt;Node9793</title>
<path fill="none" stroke="#191970" d="M56.3011,-361.5263C71.9051,-372.2482 98.1194,-390.1139 121,-405 167.7202,-435.3962 223.071,-469.6907 254.3062,-488.8881"/>
<polygon fill="#191970" stroke="#191970" points="252.8357,-492.0923 263.1893,-494.3402 256.4974,-486.1263 252.8357,-492.0923"/>
</g>
<!-- Node9837 -->
<g id="node18" class="node">
<title>Node9837</title>
<g id="a_node18"><a xlink:href="libbf_8h.html#ac290278d0c37a0e7786873f98aadba47" target="_top" xlink:title="bf_mul">
<polygon fill="none" stroke="#ff0000" points="256,-38.5 256,-57.5 302,-57.5 302,-38.5 256,-38.5"/>
<text text-anchor="middle" x="279" y="-45.5" font-family="Helvetica,sans-Serif" font-size="10.00" fill="#000000">bf_mul</text>
</a>
</g>
</g>
<!-- Node9753&#45;&gt;Node9837 -->
<g id="edge41" class="edge">
<title>Node9753&#45;&gt;Node9837</title>
<path fill="none" stroke="#191970" d="M43.4177,-342.0673C46.9913,-308.8243 62.8078,-200.0709 121,-138 149.5802,-107.5148 172.0238,-122.8656 207,-100 225.1673,-88.1231 225.2566,-79.5014 243,-67 245.1231,-65.5041 247.3785,-64.0462 249.6845,-62.6461"/>
<polygon fill="#191970" stroke="#191970" points="251.6728,-65.5428 258.6562,-57.5752 248.2284,-59.4488 251.6728,-65.5428"/>
</g>
<!-- Node9848 -->
<g id="node23" class="node">
<title>Node9848</title>
<g id="a_node23"><a xlink:href="libbf_8h.html#aa561bc5220ec0489f4d3e59789d43d26" target="_top" xlink:title="bf_neg">
<polygon fill="none" stroke="#000000" points="256,-.5 256,-19.5 302,-19.5 302,-.5 256,-.5"/>
<text text-anchor="middle" x="279" y="-7.5" font-family="Helvetica,sans-Serif" font-size="10.00" fill="#000000">bf_neg</text>
</a>
</g>
</g>
<!-- Node9753&#45;&gt;Node9848 -->
<g id="edge42" class="edge">
<title>Node9753&#45;&gt;Node9848</title>
<path fill="none" stroke="#191970" d="M43.0602,-342.1549C45.5924,-305.9326 58.7426,-178.1223 121,-100 153.6402,-59.0421 210.3314,-33.3723 246.1926,-20.3769"/>
<polygon fill="#191970" stroke="#191970" points="247.4339,-23.6508 255.7177,-17.0455 245.1228,-17.0432 247.4339,-23.6508"/>
</g>
<!-- Node9839 -->
<g id="node25" class="node">
<title>Node9839</title>
<g id="a_node25"><a xlink:href="libbf_8h.html#a1a8b9ac1fea38b97fc6be8663ce9e867" target="_top" xlink:title="bf_sqrt">
<polygon fill="none" stroke="#ff0000" points="255.5,-76.5 255.5,-95.5 302.5,-95.5 302.5,-76.5 255.5,-76.5"/>
<text text-anchor="middle" x="279" y="-83.5" font-family="Helvetica,sans-Serif" font-size="10.00" fill="#000000">bf_sqrt</text>
</a>
</g>
</g>
<!-- Node9753&#45;&gt;Node9839 -->
<g id="edge43" class="edge">
<title>Node9753&#45;&gt;Node9839</title>
<path fill="none" stroke="#191970" d="M49.7365,-342.4418C82.7191,-298.9522 218.2652,-121.0596 243,-102 244.0361,-101.2016 245.1184,-100.4332 246.234,-99.6948"/>
<polygon fill="#191970" stroke="#191970" points="248.2405,-102.5814 255.2311,-94.6201 244.8016,-96.4844 248.2405,-102.5814"/>
</g>
<!-- Node9754&#45;&gt;Node9755 -->
<g id="edge2" class="edge">
<title>Node9754&#45;&gt;Node9755</title>
<path fill="none" stroke="#191970" d="M308.5094,-437.0937C321.4325,-440.7353 336.8483,-444.623 351,-447 430.1069,-460.287 524.6666,-464.2843 572.8617,-465.4854"/>
<polygon fill="#191970" stroke="#191970" points="572.8982,-468.987 582.9743,-465.7127 573.0556,-461.9888 572.8982,-468.987"/>
</g>
<!-- Node9756 -->
<g id="node4" class="node">
<title>Node9756</title>
<g id="a_node4"><a xlink:href="libbf_8h.html#a60ee3eaad83309aaf8a8b8fb81d8b44d" target="_top" xlink:title="bf_set_si">
<polygon fill="none" stroke="#000000" points="373.5,-342.5 373.5,-361.5 429.5,-361.5 429.5,-342.5 373.5,-342.5"/>
<text text-anchor="middle" x="401.5" y="-349.5" font-family="Helvetica,sans-Serif" font-size="10.00" fill="#000000">bf_set_si</text>
</a>
</g>
</g>
<!-- Node9754&#45;&gt;Node9756 -->
<g id="edge3" class="edge">
<title>Node9754&#45;&gt;Node9756</title>
<path fill="none" stroke="#191970" d="M294.5147,-418.3745C315.4088,-405.4117 352.8,-382.2139 377.3794,-366.9646"/>
<polygon fill="#191970" stroke="#191970" points="379.459,-369.7934 386.1113,-361.5473 375.7686,-363.8451 379.459,-369.7934"/>
</g>
<!-- Node9762 -->
<g id="node7" class="node">
<title>Node9762</title>
<g id="a_node7"><a xlink:href="libbf_8h.html#a17dc09166f82ffa408f54a2edc4d7855" target="_top" xlink:title="bf_add">
<polygon fill="none" stroke="#000000" points="378.5,-418.5 378.5,-437.5 424.5,-437.5 424.5,-418.5 378.5,-418.5"/>
<text text-anchor="middle" x="401.5" y="-425.5" font-family="Helvetica,sans-Serif" font-size="10.00" fill="#000000">bf_add</text>
</a>
</g>
</g>
<!-- Node9754&#45;&gt;Node9762 -->
<g id="edge6" class="edge">
<title>Node9754&#45;&gt;Node9762</title>
<path fill="none" stroke="#191970" d="M308.6538,-428C326.6133,-428 349.5637,-428 368.1529,-428"/>
<polygon fill="#191970" stroke="#191970" points="368.2471,-431.5001 378.2471,-428 368.247,-424.5001 368.2471,-431.5001"/>
</g>
<!-- Node9754&#45;&gt;Node9786 -->
<g id="edge10" class="edge">
<title>Node9754&#45;&gt;Node9786</title>
<path fill="none" stroke="#191970" d="M293.8791,-437.5689C300.4313,-441.8722 308.1751,-447.0809 315,-452 331.4437,-463.852 333.7444,-469.3647 351,-480 356.8852,-483.6273 363.4044,-487.0938 369.7492,-490.2083"/>
<polygon fill="#191970" stroke="#191970" points="368.2895,-493.3896 378.8263,-494.4973 371.28,-487.0606 368.2895,-493.3896"/>
</g>
<!-- Node9757 -->
<g id="node5" class="node">
<title>Node9757</title>
<g id="a_node5"><a xlink:href="libbf_8h.html#a2378f025beace5741c19bf995c2971d3" target="_top" xlink:title="bf_set_ui">
<polygon fill="none" stroke="#ff0000" points="489.5,-190.5 489.5,-209.5 545.5,-209.5 545.5,-190.5 489.5,-190.5"/>
<text text-anchor="middle" x="517.5" y="-197.5" font-family="Helvetica,sans-Serif" font-size="10.00" fill="#000000">bf_set_ui</text>
</a>
</g>
</g>
<!-- Node9756&#45;&gt;Node9757 -->
<g id="edge4" class="edge">
<title>Node9756&#45;&gt;Node9757</title>
<path fill="none" stroke="#191970" d="M429.5233,-345.6315C437.4786,-342.7818 445.6851,-338.7259 452,-333 486.5075,-301.7111 504.9601,-248.1924 512.8119,-219.5111"/>
<polygon fill="#191970" stroke="#191970" points="516.2823,-220.0698 515.3911,-209.5125 509.5042,-218.3213 516.2823,-220.0698"/>
</g>
<!-- Node9759 -->
<g id="node6" class="node">
<title>Node9759</title>
<g id="a_node6"><a xlink:href="libbf_8c.html#a3ac3b86cc31b99a551947240e979c5d7" target="_top" xlink:title="clz">
<polygon fill="none" stroke="#ff0000" points="590,-152.5 590,-171.5 619,-171.5 619,-152.5 590,-152.5"/>
<text text-anchor="middle" x="604.5" y="-159.5" font-family="Helvetica,sans-Serif" font-size="10.00" fill="#000000">clz</text>
</a>
</g>
</g>
<!-- Node9757&#45;&gt;Node9759 -->
<g id="edge5" class="edge">
<title>Node9757&#45;&gt;Node9759</title>
<path fill="none" stroke="#191970" d="M539.4538,-190.411C552.0493,-184.9095 567.8691,-177.9997 580.7535,-172.372"/>
<polygon fill="#191970" stroke="#191970" points="582.169,-175.5731 589.932,-168.363 579.3671,-169.1583 582.169,-175.5731"/>
</g>
<!-- Node9763 -->
<g id="node8" class="node">
<title>Node9763</title>
<g id="a_node8"><a xlink:href="libbf_8c.html#a3ebbc1c7473b2ad84ced2b263bf38bae" target="_top" xlink:title="bf_op2">
<polygon fill="none" stroke="#ff0000" points="494.5,-532.5 494.5,-551.5 540.5,-551.5 540.5,-532.5 494.5,-532.5"/>
<text text-anchor="middle" x="517.5" y="-539.5" font-family="Helvetica,sans-Serif" font-size="10.00" fill="#000000">bf_op2</text>
</a>
</g>
</g>
<!-- Node9762&#45;&gt;Node9763 -->
<g id="edge7" class="edge">
<title>Node9762&#45;&gt;Node9763</title>
<path fill="none" stroke="#191970" d="M409.9763,-437.5895C430.0305,-460.2366 479.3579,-515.6884 488,-523 489.4998,-524.2689 491.09,-525.5197 492.7238,-526.7367"/>
<polygon fill="#191970" stroke="#191970" points="490.8217,-529.6765 501.042,-532.4686 494.7936,-523.9124 490.8217,-529.6765"/>
</g>
<!-- Node9767 -->
<g id="node9" class="node">
<title>Node9767</title>
<g id="a_node9"><a xlink:href="libbf_8c.html#a951a1d3ebb338129d86e00f51b47f2ee" target="_top" xlink:title="__bf_add">
<polygon fill="none" stroke="#ff0000" points="489.5,-418.5 489.5,-437.5 545.5,-437.5 545.5,-418.5 489.5,-418.5"/>
<text text-anchor="middle" x="517.5" y="-425.5" font-family="Helvetica,sans-Serif" font-size="10.00" fill="#000000">__bf_add</text>
</a>
</g>
</g>
<!-- Node9762&#45;&gt;Node9767 -->
<g id="edge9" class="edge">
<title>Node9762&#45;&gt;Node9767</title>
<path fill="none" stroke="#191970" d="M424.6955,-428C440.2815,-428 461.1885,-428 479.2128,-428"/>
<polygon fill="#191970" stroke="#191970" points="479.4301,-431.5001 489.43,-428 479.43,-424.5001 479.4301,-431.5001"/>
</g>
<!-- Node9763&#45;&gt;Node9755 -->
<g id="edge8" class="edge">
<title>Node9763&#45;&gt;Node9755</title>
<path fill="none" stroke="#191970" d="M533.8452,-532.3318C538.2456,-529.5011 542.9152,-526.2804 547,-523 562.1381,-510.843 577.6798,-495.2111 588.7826,-483.3931"/>
<polygon fill="#191970" stroke="#191970" points="591.4819,-485.6291 595.7005,-475.9104 586.342,-480.8772 591.4819,-485.6291"/>
</g>
<!-- Node9766 -->
<g id="node11" class="node">
<title>Node9766</title>
<g id="a_node11"><a xlink:href="libbf_8h.html#a524c9e60866c08c75061626a4b5e2f29" target="_top" xlink:title="bf_realloc">
<polygon fill="none" stroke="#000000" points="488,-494.5 488,-513.5 547,-513.5 547,-494.5 488,-494.5"/>
<text text-anchor="middle" x="517.5" y="-501.5" font-family="Helvetica,sans-Serif" font-size="10.00" fill="#000000">bf_realloc</text>
</a>
</g>
</g>
<!-- Node9786&#45;&gt;Node9766 -->
<g id="edge11" class="edge">
<title>Node9786&#45;&gt;Node9766</title>
<path fill="none" stroke="#191970" d="M429.5804,-504C443.9913,-504 461.7956,-504 477.6053,-504"/>
<polygon fill="#191970" stroke="#191970" points="477.6507,-507.5001 487.6507,-504 477.6506,-500.5001 477.6507,-507.5001"/>
</g>
<!-- Node9787&#45;&gt;Node9754 -->
<g id="edge14" class="edge">
<title>Node9787&#45;&gt;Node9754</title>
<path fill="none" stroke="#191970" d="M168.1714,-285.6178C178.3552,-308.2955 206.3593,-366.0523 243,-404 245.9936,-407.1004 249.4536,-410.0166 253.0207,-412.6754"/>
<polygon fill="#191970" stroke="#191970" points="251.1371,-415.6274 261.3687,-418.3778 255.0855,-409.8472 251.1371,-415.6274"/>
</g>
<!-- Node9787&#45;&gt;Node9755 -->
<g id="edge20" class="edge">
<title>Node9787&#45;&gt;Node9755</title>
<path fill="none" stroke="#191970" d="M177.5631,-285.585C192.9744,-296.2359 219.0947,-313.5689 243,-326 289.135,-349.9908 301.2184,-355.9738 351,-371 435.9478,-396.6409 468.5524,-367.5325 547,-409 564.7706,-418.3936 580.6296,-435.0783 591.1678,-447.9775"/>
<polygon fill="#191970" stroke="#191970" points="588.6544,-450.4453 597.5715,-456.1669 594.1687,-446.1333 588.6544,-450.4453"/>
</g>
<!-- Node9787&#45;&gt;Node9756 -->
<g id="edge33" class="edge">
<title>Node9787&#45;&gt;Node9756</title>
<path fill="none" stroke="#191970" d="M194.0795,-285.6255C237.1961,-299.4228 316.5468,-324.815 363.6141,-339.8765"/>
<polygon fill="#191970" stroke="#191970" points="362.552,-343.2114 373.143,-342.9258 364.6855,-336.5445 362.552,-343.2114"/>
</g>
<!-- Node9787&#45;&gt;Node9757 -->
<g id="edge34" class="edge">
<title>Node9787&#45;&gt;Node9757</title>
<path fill="none" stroke="#191970" d="M173.6484,-266.2016C187.5556,-252.797 214.6905,-229.2397 243,-219 323.0173,-190.0573 424.5785,-192.1927 478.9636,-196.1701"/>
<polygon fill="#191970" stroke="#191970" points="478.9457,-199.6796 489.1912,-196.9815 479.4994,-192.7015 478.9457,-199.6796"/>
</g>
<!-- Node9787&#45;&gt;Node9762 -->
<g id="edge13" class="edge">
<title>Node9787&#45;&gt;Node9762</title>
<path fill="none" stroke="#191970" d="M170.216,-285.7648C182.2218,-303.9145 210.3187,-343.0789 243,-366 282.0232,-393.369 334.8013,-410.8638 368.505,-420.0613"/>
<polygon fill="#191970" stroke="#191970" points="367.754,-423.4829 378.3161,-422.6511 369.5406,-416.7147 367.754,-423.4829"/>
</g>
<!-- Node9787&#45;&gt;Node9786 -->
<g id="edge17" class="edge">
<title>Node9787&#45;&gt;Node9786</title>
<path fill="none" stroke="#191970" d="M165.7484,-285.673C171.4447,-314.4472 192.1193,-400.3901 243,-447 260.9781,-463.4691 322.7844,-482.6674 363.6943,-494.0519"/>
<polygon fill="#191970" stroke="#191970" points="362.7814,-497.4307 373.3512,-496.7027 364.6343,-490.6804 362.7814,-497.4307"/>
</g>
<!-- Node9788 -->
<g id="node13" class="node">
<title>Node9788</title>
<g id="a_node13"><a xlink:href="libbf_8h.html#aff86bca731f3c8ffe45f0f1129175961" target="_top" xlink:title="bf_const_pi">
<polygon fill="none" stroke="#000000" points="245.5,-266.5 245.5,-285.5 312.5,-285.5 312.5,-266.5 245.5,-266.5"/>
<text text-anchor="middle" x="279" y="-273.5" font-family="Helvetica,sans-Serif" font-size="10.00" fill="#000000">bf_const_pi</text>
</a>
</g>
</g>
<!-- Node9787&#45;&gt;Node9788 -->
<g id="edge15" class="edge">
<title>Node9787&#45;&gt;Node9788</title>
<path fill="none" stroke="#191970" d="M207.1489,-276C216.3176,-276 226.0064,-276 235.1992,-276"/>
<polygon fill="#191970" stroke="#191970" points="235.3132,-279.5001 245.3132,-276 235.3131,-272.5001 235.3132,-279.5001"/>
</g>
<!-- Node9787&#45;&gt;Node9793 -->
<g id="edge18" class="edge">
<title>Node9787&#45;&gt;Node9793</title>
<path fill="none" stroke="#191970" d="M165.5745,-285.552C171.1066,-316.6449 192.1388,-416.6046 243,-480 245.5192,-483.1401 248.5614,-486.0172 251.7973,-488.604"/>
<polygon fill="#191970" stroke="#191970" points="249.8613,-491.5215 260.052,-494.42 253.8931,-485.7991 249.8613,-491.5215"/>
</g>
<!-- Node9846 -->
<g id="node16" class="node">
<title>Node9846</title>
<g id="a_node16"><a xlink:href="libbf_8h.html#adeb14e044b992b09438bbd872831103b" target="_top" xlink:title="bf_isqrt">
<polygon fill="none" stroke="#000000" points="254.5,-152.5 254.5,-171.5 303.5,-171.5 303.5,-152.5 254.5,-152.5"/>
<text text-anchor="middle" x="279" y="-159.5" font-family="Helvetica,sans-Serif" font-size="10.00" fill="#000000">bf_isqrt</text>
</a>
</g>
</g>
<!-- Node9787&#45;&gt;Node9846 -->
<g id="edge21" class="edge">
<title>Node9787&#45;&gt;Node9846</title>
<path fill="none" stroke="#191970" d="M171.1193,-266.3274C184.1597,-248.9941 213.2812,-212.0233 243,-186 246.4631,-182.9675 250.3311,-180.0116 254.2118,-177.2693"/>
<polygon fill="#191970" stroke="#191970" points="256.2191,-180.1374 262.5749,-171.6607 252.3202,-174.3237 256.2191,-180.1374"/>
</g>
<!-- Node9787&#45;&gt;Node9837 -->
<g id="edge24" class="edge">
<title>Node9787&#45;&gt;Node9837</title>
<path fill="none" stroke="#191970" d="M166.6416,-266.4118C176.8867,-229.7514 214.8235,-98.9139 243,-67 244.333,-65.4901 245.8154,-64.081 247.3975,-62.7688"/>
<polygon fill="#191970" stroke="#191970" points="249.5944,-65.5079 255.9069,-56.999 245.6659,-59.7142 249.5944,-65.5079"/>
</g>
<!-- Node9847 -->
<g id="node20" class="node">
<title>Node9847</title>
<g id="a_node20"><a xlink:href="libbf_8h.html#ae1d5fe9356228cc3a566786637f26680" target="_top" xlink:title="bf_mul_2exp">
<polygon fill="none" stroke="#000000" points="243,-228.5 243,-247.5 315,-247.5 315,-228.5 243,-228.5"/>
<text text-anchor="middle" x="279" y="-235.5" font-family="Helvetica,sans-Serif" font-size="10.00" fill="#000000">bf_mul_2exp</text>
</a>
</g>
</g>
<!-- Node9787&#45;&gt;Node9847 -->
<g id="edge27" class="edge">
<title>Node9787&#45;&gt;Node9847</title>
<path fill="none" stroke="#191970" d="M193.0194,-266.411C207.32,-261.6856 224.765,-255.9211 240.1947,-250.8226"/>
<polygon fill="#191970" stroke="#191970" points="241.593,-254.0468 249.9899,-247.5859 239.3967,-247.4002 241.593,-254.0468"/>
</g>
<!-- Node9787&#45;&gt;Node9848 -->
<g id="edge31" class="edge">
<title>Node9787&#45;&gt;Node9848</title>
<path fill="none" stroke="#191970" d="M166.0519,-266.3903C174.9046,-225.6334 210.8342,-67.3934 243,-29 244.2935,-27.4561 245.7451,-26.0205 247.3037,-24.6882"/>
<polygon fill="#191970" stroke="#191970" points="249.5043,-27.4222 255.7504,-18.8644 245.5309,-21.6592 249.5043,-27.4222"/>
</g>
<!-- Node9783 -->
<g id="node24" class="node">
<title>Node9783</title>
<g id="a_node24"><a xlink:href="libbf_8h.html#ae019ee8073f4359da157d3b1e5fdba7e" target="_top" xlink:title="bf_set">
<polygon fill="none" stroke="#ff0000" points="379.5,-76.5 379.5,-95.5 423.5,-95.5 423.5,-76.5 379.5,-76.5"/>
<text text-anchor="middle" x="401.5" y="-83.5" font-family="Helvetica,sans-Serif" font-size="10.00" fill="#000000">bf_set</text>
</a>
</g>
</g>
<!-- Node9787&#45;&gt;Node9783 -->
<g id="edge32" class="edge">
<title>Node9787&#45;&gt;Node9783</title>
<path fill="none" stroke="#191970" d="M167.1012,-266.4403C175.4232,-242.2499 200.539,-178.0457 243,-143 280.0961,-112.3822 334.9557,-97.5781 369.4378,-90.9065"/>
<polygon fill="#191970" stroke="#191970" points="370.2296,-94.32 379.4427,-89.0885 368.9781,-87.4328 370.2296,-94.32"/>
</g>
<!-- Node9787&#45;&gt;Node9839 -->
<g id="edge35" class="edge">
<title>Node9787&#45;&gt;Node9839</title>
<path fill="none" stroke="#191970" d="M168.3572,-266.0627C183.2338,-232.2499 231.7201,-123.0311 243,-110 245.6885,-106.8941 248.8712,-104.0199 252.2143,-101.4203"/>
<polygon fill="#191970" stroke="#191970" points="254.4502,-104.1287 260.6646,-95.5478 250.4554,-98.3804 254.4502,-104.1287"/>
</g>
<!-- Node9789 -->
<g id="node14" class="node">
<title>Node9789</title>
<g id="a_node14"><a xlink:href="libbf_8c.html#a25b9653cbfca557499e786f8d2a7eb2e" target="_top" xlink:title="bf_const_pi_signed">
<polygon fill="none" stroke="#ff0000" points="351,-304.5 351,-323.5 452,-323.5 452,-304.5 351,-304.5"/>
<text text-anchor="middle" x="401.5" y="-311.5" font-family="Helvetica,sans-Serif" font-size="10.00" fill="#000000">bf_const_pi_signed</text>
</a>
</g>
</g>
<!-- Node9788&#45;&gt;Node9789 -->
<g id="edge16" class="edge">
<title>Node9788&#45;&gt;Node9789</title>
<path fill="none" stroke="#191970" d="M309.9119,-285.589C325.2903,-290.3594 344.0822,-296.1888 360.633,-301.3229"/>
<polygon fill="#191970" stroke="#191970" points="360.0099,-304.7941 370.598,-304.4141 362.0839,-298.1084 360.0099,-304.7941"/>
</g>
<!-- Node9793&#45;&gt;Node9763 -->
<g id="edge19" class="edge">
<title>Node9793&#45;&gt;Node9763</title>
<path fill="none" stroke="#191970" d="M300.5542,-510.5605C314.7632,-514.6683 333.8478,-519.7757 351,-523 396.7963,-531.6089 450.4619,-536.8828 484.2237,-539.625"/>
<polygon fill="#191970" stroke="#191970" points="484.2076,-543.1344 494.4507,-540.4273 484.7551,-536.1558 484.2076,-543.1344"/>
</g>
<!-- Node9846&#45;&gt;Node9759 -->
<g id="edge22" class="edge">
<title>Node9846&#45;&gt;Node9759</title>
<path fill="none" stroke="#191970" d="M303.6762,-153.7992C317.4327,-149.6576 334.9744,-145.0789 351,-143 434.4948,-132.1687 534.3228,-148.0314 579.7748,-156.8183"/>
<polygon fill="#191970" stroke="#191970" points="579.378,-160.3079 589.869,-158.8286 580.7453,-153.4427 579.378,-160.3079"/>
</g>
<!-- Node9844 -->
<g id="node17" class="node">
<title>Node9844</title>
<g id="a_node17"><a xlink:href="libbf_8c.html#a330a55c024556edc2d372f8b49c18499" target="_top" xlink:title="mp_sqrtrem1">
<polygon fill="none" stroke="#000000" points="364.5,-152.5 364.5,-171.5 438.5,-171.5 438.5,-152.5 364.5,-152.5"/>
<text text-anchor="middle" x="401.5" y="-159.5" font-family="Helvetica,sans-Serif" font-size="10.00" fill="#000000">mp_sqrtrem1</text>
</a>
</g>
</g>
<!-- Node9846&#45;&gt;Node9844 -->
<g id="edge23" class="edge">
<title>Node9846&#45;&gt;Node9844</title>
<path fill="none" stroke="#191970" d="M303.7897,-162C318.1478,-162 336.7088,-162 353.7906,-162"/>
<polygon fill="#191970" stroke="#191970" points="354.1846,-165.5001 364.1845,-162 354.1845,-158.5001 354.1846,-165.5001"/>
</g>
<!-- Node9837&#45;&gt;Node9755 -->
<g id="edge26" class="edge">
<title>Node9837&#45;&gt;Node9755</title>
<path fill="none" stroke="#191970" d="M299.7051,-38.4041C333.7927,-24.1308 402.8447,-1.7558 452,-29 521.6782,-67.619 517.5365,-106.984 547,-181 584.7693,-275.8814 598.7536,-398.7985 602.9576,-446.1763"/>
<polygon fill="#191970" stroke="#191970" points="599.4828,-446.6242 603.8059,-456.2969 606.4583,-446.0394 599.4828,-446.6242"/>
</g>
<!-- Node9772 -->
<g id="node19" class="node">
<title>Node9772</title>
<g id="a_node19"><a xlink:href="libbf_8h.html#a970a1725f8bc59eda655058c5ff6bc52" target="_top" xlink:title="bf_min">
<polygon fill="none" stroke="#000000" points="378.5,-38.5 378.5,-57.5 424.5,-57.5 424.5,-38.5 378.5,-38.5"/>
<text text-anchor="middle" x="401.5" y="-45.5" font-family="Helvetica,sans-Serif" font-size="10.00" fill="#000000">bf_min</text>
</a>
</g>
</g>
<!-- Node9837&#45;&gt;Node9772 -->
<g id="edge25" class="edge">
<title>Node9837&#45;&gt;Node9772</title>
<path fill="none" stroke="#191970" d="M302.0413,-48C320.6584,-48 347.1169,-48 368.0645,-48"/>
<polygon fill="#191970" stroke="#191970" points="368.1455,-51.5001 378.1455,-48 368.1455,-44.5001 368.1455,-51.5001"/>
</g>
<!-- Node9847&#45;&gt;Node9772 -->
<g id="edge29" class="edge">
<title>Node9847&#45;&gt;Node9772</title>
<path fill="none" stroke="#191970" d="M286.1866,-228.3529C294.1111,-217.358 306.8195,-198.623 315,-181 337.3714,-132.8063 314.4568,-105.5708 351,-67 355.848,-61.883 362.2094,-58.1325 368.7754,-55.3874"/>
<polygon fill="#191970" stroke="#191970" points="370.0948,-58.6342 378.3895,-52.0427 367.7947,-52.0228 370.0948,-58.6342"/>
</g>
<!-- Node9770 -->
<g id="node21" class="node">
<title>Node9770</title>
<g id="a_node21"><a xlink:href="libbf_8h.html#a4954f3435332238433d15977d55ae566" target="_top" xlink:title="bf_max">
<polygon fill="none" stroke="#000000" points="377,-266.5 377,-285.5 426,-285.5 426,-266.5 377,-266.5"/>
<text text-anchor="middle" x="401.5" y="-273.5" font-family="Helvetica,sans-Serif" font-size="10.00" fill="#000000">bf_max</text>
</a>
</g>
</g>
<!-- Node9847&#45;&gt;Node9770 -->
<g id="edge28" class="edge">
<title>Node9847&#45;&gt;Node9770</title>
<path fill="none" stroke="#191970" d="M309.9119,-247.589C327.2937,-252.9809 349.0364,-259.7256 366.9748,-265.2901"/>
<polygon fill="#191970" stroke="#191970" points="366.1776,-268.7073 376.7656,-268.3273 368.2516,-262.0216 366.1776,-268.7073"/>
</g>
<!-- Node9774 -->
<g id="node22" class="node">
<title>Node9774</title>
<g id="a_node22"><a xlink:href="libbf_8c.html#a5a13527071b5331585beae41a51ed3c2" target="_top" xlink:title="__bf_round">
<polygon fill="none" stroke="#ff0000" points="369,-228.5 369,-247.5 434,-247.5 434,-228.5 369,-228.5"/>
<text text-anchor="middle" x="401.5" y="-235.5" font-family="Helvetica,sans-Serif" font-size="10.00" fill="#000000">__bf_round</text>
</a>
</g>
</g>
<!-- Node9847&#45;&gt;Node9774 -->
<g id="edge30" class="edge">
<title>Node9847&#45;&gt;Node9774</title>
<path fill="none" stroke="#191970" d="M315.0915,-238C328.7213,-238 344.3629,-238 358.5593,-238"/>
<polygon fill="#191970" stroke="#191970" points="358.5917,-241.5001 368.5917,-238 358.5917,-234.5001 358.5917,-241.5001"/>
</g>
<!-- Node9839&#45;&gt;Node9772 -->
<g id="edge37" class="edge">
<title>Node9839&#45;&gt;Node9772</title>
<path fill="none" stroke="#191970" d="M302.6192,-78.6732C321.3803,-72.8535 347.8318,-64.6481 368.6562,-58.1883"/>
<polygon fill="#191970" stroke="#191970" points="369.8547,-61.4811 378.3687,-55.1754 367.7807,-54.7954 369.8547,-61.4811"/>
</g>
<!-- Node9839&#45;&gt;Node9783 -->
<g id="edge36" class="edge">
<title>Node9839&#45;&gt;Node9783</title>
<path fill="none" stroke="#191970" d="M302.6192,-86C321.5329,-86 348.2627,-86 369.1633,-86"/>
<polygon fill="#191970" stroke="#191970" points="369.1919,-89.5001 379.1918,-86 369.1918,-82.5001 369.1919,-89.5001"/>
</g>
</g>
</svg>
