<?xml version="1.0" encoding="UTF-8" standalone="no"?>
<!DOCTYPE svg PUBLIC "-//W3C//DTD SVG 1.1//EN"
 "http://www.w3.org/Graphics/SVG/1.1/DTD/svg11.dtd">
<!-- Generated by graphviz version 2.40.1 (20161225.0304)
 -->
<!-- Title: bf_add_limb Pages: 1 -->
<svg width="294pt" height="104pt"
 viewBox="0.00 0.00 294.00 104.00" xmlns="http://www.w3.org/2000/svg" xmlns:xlink="http://www.w3.org/1999/xlink">
<g id="graph0" class="graph" transform="scale(1 1) rotate(0) translate(4 100)">
<title>bf_add_limb</title>
<!-- Node5879 -->
<g id="node1" class="node">
<title>Node5879</title>
<polygon fill="#bfbfbf" stroke="#000000" points="0,-38.5 0,-57.5 69,-57.5 69,-38.5 0,-38.5"/>
<text text-anchor="middle" x="34.5" y="-45.5" font-family="Helvetica,sans-Serif" font-size="10.00" fill="#000000">bf_add_limb</text>
</g>
<!-- Node5880 -->
<g id="node2" class="node">
<title>Node5880</title>
<g id="a_node2"><a xlink:href="libbf_8c.html#aaaeb6c790a8b174f3c5631ee33c81910" target="_top" xlink:title="bf_atof_internal">
<polygon fill="none" stroke="#000000" points="105,-38.5 105,-57.5 188,-57.5 188,-38.5 105,-38.5"/>
<text text-anchor="middle" x="146.5" y="-45.5" font-family="Helvetica,sans-Serif" font-size="10.00" fill="#000000">bf_atof_internal</text>
</a>
</g>
</g>
<!-- Node5879&#45;&gt;Node5880 -->
<g id="edge1" class="edge">
<title>Node5879&#45;&gt;Node5880</title>
<path fill="none" stroke="#191970" d="M79.1178,-48C87.5909,-48 96.427,-48 104.8053,-48"/>
<polygon fill="#191970" stroke="#191970" points="79.0176,-44.5001 69.0176,-48 79.0175,-51.5001 79.0176,-44.5001"/>
</g>
<!-- Node5881 -->
<g id="node3" class="node">
<title>Node5881</title>
<g id="a_node3"><a xlink:href="libbf_8h.html#ac6017f5cde57dab006383297ea94ef40" target="_top" xlink:title="bf_atof2">
<polygon fill="none" stroke="#000000" points="229,-76.5 229,-95.5 281,-95.5 281,-76.5 229,-76.5"/>
<text text-anchor="middle" x="255" y="-83.5" font-family="Helvetica,sans-Serif" font-size="10.00" fill="#000000">bf_atof2</text>
</a>
</g>
</g>
<!-- Node5880&#45;&gt;Node5881 -->
<g id="edge2" class="edge">
<title>Node5880&#45;&gt;Node5881</title>
<path fill="none" stroke="#191970" d="M183.3406,-60.9027C198.2518,-66.1251 215.1259,-72.0349 228.7525,-76.8073"/>
<polygon fill="#191970" stroke="#191970" points="184.474,-57.5912 173.8791,-57.589 182.1601,-64.1978 184.474,-57.5912"/>
</g>
<!-- Node5882 -->
<g id="node4" class="node">
<title>Node5882</title>
<g id="a_node4"><a xlink:href="libbf_8h.html#a85c6215e124f35f5dcadac77990a61c9" target="_top" xlink:title="bf_atof">
<polygon fill="none" stroke="#000000" points="231.5,-38.5 231.5,-57.5 278.5,-57.5 278.5,-38.5 231.5,-38.5"/>
<text text-anchor="middle" x="255" y="-45.5" font-family="Helvetica,sans-Serif" font-size="10.00" fill="#000000">bf_atof</text>
</a>
</g>
</g>
<!-- Node5880&#45;&gt;Node5882 -->
<g id="edge3" class="edge">
<title>Node5880&#45;&gt;Node5882</title>
<path fill="none" stroke="#191970" d="M198.195,-48C209.7438,-48 221.4474,-48 231.206,-48"/>
<polygon fill="#191970" stroke="#191970" points="198.1387,-44.5001 188.1386,-48 198.1386,-51.5001 198.1387,-44.5001"/>
</g>
<!-- Node5883 -->
<g id="node5" class="node">
<title>Node5883</title>
<g id="a_node5"><a xlink:href="libbf_8h.html#a221eaf9914ba5bcb299c897b62939a2e" target="_top" xlink:title="bfdec_atof">
<polygon fill="none" stroke="#000000" points="224,-.5 224,-19.5 286,-19.5 286,-.5 224,-.5"/>
<text text-anchor="middle" x="255" y="-7.5" font-family="Helvetica,sans-Serif" font-size="10.00" fill="#000000">bfdec_atof</text>
</a>
</g>
</g>
<!-- Node5880&#45;&gt;Node5883 -->
<g id="edge4" class="edge">
<title>Node5880&#45;&gt;Node5883</title>
<path fill="none" stroke="#191970" d="M183.5379,-35.0282C197.9931,-29.9656 214.2671,-24.2659 227.6296,-19.5859"/>
<polygon fill="#191970" stroke="#191970" points="182.1601,-31.8022 173.8791,-38.411 184.474,-38.4088 182.1601,-31.8022"/>
</g>
</g>
</svg>
