<?xml version="1.0" encoding="UTF-8" standalone="no"?>
<!DOCTYPE svg PUBLIC "-//W3C//DTD SVG 1.1//EN"
 "http://www.w3.org/Graphics/SVG/1.1/DTD/svg11.dtd">
<!-- Generated by graphviz version 2.40.1 (20161225.0304)
 -->
<!-- Title: bf_mul_ui Pages: 1 -->
<svg width="689pt" height="183pt"
 viewBox="0.00 0.00 689.00 183.00" xmlns="http://www.w3.org/2000/svg" xmlns:xlink="http://www.w3.org/1999/xlink">
<g id="graph0" class="graph" transform="scale(1 1) rotate(0) translate(4 179)">
<title>bf_mul_ui</title>
<!-- Node1842 -->
<g id="node1" class="node">
<title>Node1842</title>
<polygon fill="#bfbfbf" stroke="#000000" points="0,-98.5 0,-117.5 59,-117.5 59,-98.5 0,-98.5"/>
<text text-anchor="middle" x="29.5" y="-105.5" font-family="Helvetica,sans-Serif" font-size="10.00" fill="#000000">bf_mul_ui</text>
</g>
<!-- Node1843 -->
<g id="node2" class="node">
<title>Node1843</title>
<g id="a_node2"><a xlink:href="libbf_8c.html#a11d2dea6becda91c288fd883eefc8e5c" target="_top" xlink:title="bf_const_pi_internal">
<polygon fill="none" stroke="#000000" points="242,-136.5 242,-155.5 346,-155.5 346,-136.5 242,-136.5"/>
<text text-anchor="middle" x="294" y="-143.5" font-family="Helvetica,sans-Serif" font-size="10.00" fill="#000000">bf_const_pi_internal</text>
</a>
</g>
</g>
<!-- Node1842&#45;&gt;Node1843 -->
<g id="edge1" class="edge">
<title>Node1842&#45;&gt;Node1843</title>
<path fill="none" stroke="#191970" d="M43.691,-125.5577C55.7315,-138.9528 74.3115,-156.3616 95,-164 153.5765,-185.6269 228.1623,-167.9421 267.2851,-155.5356"/>
<polygon fill="#191970" stroke="#191970" points="46.2496,-123.1649 37.0789,-117.8594 40.9394,-127.7259 46.2496,-123.1649"/>
</g>
<!-- Node1849 -->
<g id="node6" class="node">
<title>Node1849</title>
<g id="a_node6"><a xlink:href="libbf_8c.html#a2b19e3958f6cf3fa0cc534681a5ff259" target="_top" xlink:title="bf_sincos">
<polygon fill="none" stroke="#ff0000" points="622,-98.5 622,-117.5 681,-117.5 681,-98.5 622,-98.5"/>
<text text-anchor="middle" x="651.5" y="-105.5" font-family="Helvetica,sans-Serif" font-size="10.00" fill="#000000">bf_sincos</text>
</a>
</g>
</g>
<!-- Node1842&#45;&gt;Node1849 -->
<g id="edge6" class="edge">
<title>Node1842&#45;&gt;Node1849</title>
<path fill="none" stroke="#191970" d="M69.2779,-103.3564C120.9786,-97.7316 214.103,-89 294,-89 294,-89 294,-89 432.5,-89 500.4313,-89 579.7733,-98.1857 621.8159,-103.7833"/>
<polygon fill="#191970" stroke="#191970" points="68.7547,-99.8928 59.2,-104.4708 69.5242,-106.8504 68.7547,-99.8928"/>
</g>
<!-- Node1860 -->
<g id="node7" class="node">
<title>Node1860</title>
<g id="a_node7"><a xlink:href="libbf_8c.html#aa6e77d8d722e3fd0540ede79a63e352e" target="_top" xlink:title="check_exp_underflow\l_overflow">
<polygon fill="none" stroke="#000000" points="95,-30 95,-60 206,-60 206,-30 95,-30"/>
<text text-anchor="start" x="103" y="-48" font-family="Helvetica,sans-Serif" font-size="10.00" fill="#000000">check_exp_underflow</text>
<text text-anchor="middle" x="150.5" y="-37" font-family="Helvetica,sans-Serif" font-size="10.00" fill="#000000">_overflow</text>
</a>
</g>
</g>
<!-- Node1842&#45;&gt;Node1860 -->
<g id="edge7" class="edge">
<title>Node1842&#45;&gt;Node1860</title>
<path fill="none" stroke="#191970" d="M56.7698,-93.8017C76.0678,-83.754 101.9053,-70.3014 121.5656,-60.065"/>
<polygon fill="#191970" stroke="#191970" points="55.1307,-90.709 47.8773,-98.4317 58.3634,-96.9179 55.1307,-90.709"/>
</g>
<!-- Node1863 -->
<g id="node10" class="node">
<title>Node1863</title>
<g id="a_node10"><a xlink:href="libbf_8c.html#a81e50b3d7e7a931a93d6ea7e1d630631" target="_top" xlink:title="chud_bs">
<polygon fill="none" stroke="#000000" points="124,-117.5 124,-136.5 177,-136.5 177,-117.5 124,-117.5"/>
<text text-anchor="middle" x="150.5" y="-124.5" font-family="Helvetica,sans-Serif" font-size="10.00" fill="#000000">chud_bs</text>
</a>
</g>
</g>
<!-- Node1842&#45;&gt;Node1863 -->
<g id="edge10" class="edge">
<title>Node1842&#45;&gt;Node1863</title>
<path fill="none" stroke="#191970" d="M68.9891,-114.2008C86.9003,-117.0133 107.6169,-120.2663 123.6825,-122.789"/>
<polygon fill="#191970" stroke="#191970" points="69.5218,-110.7416 59.0999,-112.6479 68.4359,-117.6569 69.5218,-110.7416"/>
</g>
<!-- Node1844 -->
<g id="node3" class="node">
<title>Node1844</title>
<g id="a_node3"><a xlink:href="libbf_8c.html#a25b9653cbfca557499e786f8d2a7eb2e" target="_top" xlink:title="bf_const_pi_signed">
<polygon fill="none" stroke="#000000" points="382,-136.5 382,-155.5 483,-155.5 483,-136.5 382,-136.5"/>
<text text-anchor="middle" x="432.5" y="-143.5" font-family="Helvetica,sans-Serif" font-size="10.00" fill="#000000">bf_const_pi_signed</text>
</a>
</g>
</g>
<!-- Node1843&#45;&gt;Node1844 -->
<g id="edge2" class="edge">
<title>Node1843&#45;&gt;Node1844</title>
<path fill="none" stroke="#191970" d="M356.5937,-146C365.0656,-146 373.6716,-146 381.8982,-146"/>
<polygon fill="#191970" stroke="#191970" points="356.3609,-142.5001 346.3609,-146 356.3609,-149.5001 356.3609,-142.5001"/>
</g>
<!-- Node1845 -->
<g id="node4" class="node">
<title>Node1845</title>
<g id="a_node4"><a xlink:href="libbf_8h.html#a0bb2c5b98e3f978b84df9849c7ec50d6" target="_top" xlink:title="bf_atan">
<polygon fill="none" stroke="#ff0000" points="528,-155.5 528,-174.5 577,-174.5 577,-155.5 528,-155.5"/>
<text text-anchor="middle" x="552.5" y="-162.5" font-family="Helvetica,sans-Serif" font-size="10.00" fill="#000000">bf_atan</text>
</a>
</g>
</g>
<!-- Node1844&#45;&gt;Node1845 -->
<g id="edge3" class="edge">
<title>Node1844&#45;&gt;Node1845</title>
<path fill="none" stroke="#191970" d="M492.9273,-155.5677C505.2957,-157.526 517.6399,-159.4805 527.8575,-161.0983"/>
<polygon fill="#191970" stroke="#191970" points="493.4673,-152.1096 483.043,-154.0026 492.3726,-159.0235 493.4673,-152.1096"/>
</g>
<!-- Node1848 -->
<g id="node5" class="node">
<title>Node1848</title>
<g id="a_node5"><a xlink:href="libbf_8h.html#aff86bca731f3c8ffe45f0f1129175961" target="_top" xlink:title="bf_const_pi">
<polygon fill="none" stroke="#ff0000" points="519,-117.5 519,-136.5 586,-136.5 586,-117.5 519,-117.5"/>
<text text-anchor="middle" x="552.5" y="-124.5" font-family="Helvetica,sans-Serif" font-size="10.00" fill="#000000">bf_const_pi</text>
</a>
</g>
</g>
<!-- Node1844&#45;&gt;Node1848 -->
<g id="edge4" class="edge">
<title>Node1844&#45;&gt;Node1848</title>
<path fill="none" stroke="#191970" d="M492.9971,-136.4213C501.8445,-135.0205 510.6775,-133.6219 518.7265,-132.3475"/>
<polygon fill="#191970" stroke="#191970" points="492.3726,-132.9765 483.043,-137.9974 493.4673,-139.8904 492.3726,-132.9765"/>
</g>
<!-- Node1848&#45;&gt;Node1849 -->
<g id="edge5" class="edge">
<title>Node1848&#45;&gt;Node1849</title>
<path fill="none" stroke="#191970" d="M596.1097,-118.6305C604.8617,-116.9508 613.8629,-115.2233 621.9978,-113.662"/>
<polygon fill="#191970" stroke="#191970" points="595.178,-115.2453 586.0169,-120.5675 596.4974,-122.1199 595.178,-115.2453"/>
</g>
<!-- Node1861 -->
<g id="node8" class="node">
<title>Node1861</title>
<g id="a_node8"><a xlink:href="libbf_8h.html#a36f22f93ba4258209be035a63b80b87f" target="_top" xlink:title="bf_exp">
<polygon fill="none" stroke="#000000" points="271,-38.5 271,-57.5 317,-57.5 317,-38.5 271,-38.5"/>
<text text-anchor="middle" x="294" y="-45.5" font-family="Helvetica,sans-Serif" font-size="10.00" fill="#000000">bf_exp</text>
</a>
</g>
</g>
<!-- Node1860&#45;&gt;Node1861 -->
<g id="edge8" class="edge">
<title>Node1860&#45;&gt;Node1861</title>
<path fill="none" stroke="#191970" d="M216.4569,-46.3789C235.8613,-46.7846 255.8346,-47.2021 270.6499,-47.5118"/>
<polygon fill="#191970" stroke="#191970" points="216.4628,-42.8783 206.3917,-46.1685 216.3164,-49.8768 216.4628,-42.8783"/>
</g>
<!-- Node1862 -->
<g id="node9" class="node">
<title>Node1862</title>
<g id="a_node9"><a xlink:href="libbf_8h.html#a93fe073491f8c5f086a75e7bf8865b34" target="_top" xlink:title="bf_pow">
<polygon fill="none" stroke="#000000" points="270,-.5 270,-19.5 318,-19.5 318,-.5 270,-.5"/>
<text text-anchor="middle" x="294" y="-7.5" font-family="Helvetica,sans-Serif" font-size="10.00" fill="#000000">bf_pow</text>
</a>
</g>
</g>
<!-- Node1860&#45;&gt;Node1862 -->
<g id="edge9" class="edge">
<title>Node1860&#45;&gt;Node1862</title>
<path fill="none" stroke="#191970" d="M216.3139,-28.9478C235.4423,-24.2824 255.1372,-19.4787 269.9106,-15.8755"/>
<polygon fill="#191970" stroke="#191970" points="215.2776,-25.5979 206.3917,-31.3679 216.9363,-32.3986 215.2776,-25.5979"/>
</g>
<!-- Node1863&#45;&gt;Node1843 -->
<g id="edge11" class="edge">
<title>Node1863&#45;&gt;Node1843</title>
<path fill="none" stroke="#191970" d="M187.5166,-131.9011C204.0777,-134.0939 223.8927,-136.7175 241.9142,-139.1036"/>
<polygon fill="#191970" stroke="#191970" points="187.5279,-128.3722 177.1549,-130.5292 186.609,-135.3116 187.5279,-128.3722"/>
</g>
<!-- Node1863&#45;&gt;Node1863 -->
<g id="edge12" class="edge">
<title>Node1863&#45;&gt;Node1863</title>
<path fill="none" stroke="#191970" d="M128.1787,-146.0292C129.3962,-151.128 136.8367,-155 150.5,-155 171.8281,-155 177.9933,-145.5653 168.9955,-136.7571"/>
<polygon fill="#191970" stroke="#191970" points="131.4256,-147.3361 132.0045,-136.7571 124.9548,-144.6661 131.4256,-147.3361"/>
</g>
</g>
</svg>
