<?xml version="1.0" encoding="UTF-8" standalone="no"?>
<!DOCTYPE svg PUBLIC "-//W3C//DTD SVG 1.1//EN"
 "http://www.w3.org/Graphics/SVG/1.1/DTD/svg11.dtd">
<!-- Generated by graphviz version 2.40.1 (20161225.0304)
 -->
<!-- Title: bf_const_get Pages: 1 -->
<!--zoomable 275 -->
<svg id="main" version="1.1" xmlns="http://www.w3.org/2000/svg" xmlns:xlink="http://www.w3.org/1999/xlink" xml:space="preserve" onload="init(evt)">
<style type="text/css"><![CDATA[
.edge:hover path { stroke: red; }
.edge:hover polygon { stroke: red; fill: red; }
]]></style>
<script type="text/javascript"><![CDATA[
var edges = document.getElementsByTagName('g');
if (edges && edges.length) {
  for (var i=0;i<edges.length;i++) {
    if (edges[i].id.substr(0,4)=='edge') {
      edges[i].setAttribute('class','edge');
    }
  }
}
]]></script>
        <defs>
                <circle id="rim" cx="0" cy="0" r="7"/>
                <circle id="rim2" cx="0" cy="0" r="3.5"/>
                <g id="zoomPlus">
                        <use xlink:href="#rim" fill="#404040">
                                <set attributeName="fill" to="#808080" begin="zoomplus.mouseover" end="zoomplus.mouseout"/>
                        </use>
                        <path d="M-4,0h8M0,-4v8" fill="none" stroke="white" stroke-width="1.5" pointer-events="none"/>
                </g>
                <g id="zoomMin">
                        <use xlink:href="#rim" fill="#404040">
                                <set attributeName="fill" to="#808080" begin="zoomminus.mouseover" end="zoomminus.mouseout"/>
                        </use>
                        <path d="M-4,0h8" fill="none" stroke="white" stroke-width="1.5" pointer-events="none"/>
                </g>
                <g id="dirArrow">
                        <path fill="none" stroke="white" stroke-width="1.5" d="M0,-3.0v7 M-2.5,-0.5L0,-3.0L2.5,-0.5"/>
                </g>
               <g id="resetDef">
                       <use xlink:href="#rim2" fill="#404040">
                               <set attributeName="fill" to="#808080" begin="reset.mouseover" end="reset.mouseout"/>
                       </use>
               </g>
        </defs>

<script type="text/javascript">
var viewWidth = 608;
var viewHeight = 275;
var sectionId = 'dynsection-191';
</script>
<script xlink:href="svgpan.js"/>
<svg id="graph" class="graph">
<g id="viewport">
<title>bf_const_get</title>
<!-- Node7190 -->
<g id="node1" class="node">
<title>Node7190</title>
<polygon fill="#bfbfbf" stroke="#000000" points="0,-209.5 0,-228.5 73,-228.5 73,-209.5 0,-209.5"/>
<text text-anchor="middle" x="36.5" y="-216.5" font-family="Helvetica,sans-Serif" font-size="10.00" fill="#000000">bf_const_get</text>
</g>
<!-- Node7191 -->
<g id="node2" class="node">
<title>Node7191</title>
<g id="a_node2"><a xlink:href="libbf_8h.html#abacc1410890af049e02ebd788364ac48" target="_top" xlink:title="bf_init">
<polygon fill="none" stroke="#000000" points="114.5,-247.5 114.5,-266.5 157.5,-266.5 157.5,-247.5 114.5,-247.5"/>
<text text-anchor="middle" x="136" y="-254.5" font-family="Helvetica,sans-Serif" font-size="10.00" fill="#000000">bf_init</text>
</a>
</g>
</g>
<!-- Node7190&#45;&gt;Node7191 -->
<g id="edge1" class="edge">
<title>Node7190&#45;&gt;Node7191</title>
<path fill="none" stroke="#191970" d="M61.6081,-228.589C74.672,-233.5783 90.7689,-239.7258 104.6441,-245.0249"/>
<polygon fill="#191970" stroke="#191970" points="103.6889,-248.4066 114.2796,-248.7048 106.1864,-241.8673 103.6889,-248.4066"/>
</g>
<!-- Node7192 -->
<g id="node3" class="node">
<title>Node7192</title>
<g id="a_node3"><a xlink:href="libbf_8h.html#abd4ca8358212228a53981a32a10286b5" target="_top" xlink:title="bf_round">
<polygon fill="none" stroke="#000000" points="109,-152.5 109,-171.5 163,-171.5 163,-152.5 109,-152.5"/>
<text text-anchor="middle" x="136" y="-159.5" font-family="Helvetica,sans-Serif" font-size="10.00" fill="#000000">bf_round</text>
</a>
</g>
</g>
<!-- Node7190&#45;&gt;Node7192 -->
<g id="edge2" class="edge">
<title>Node7190&#45;&gt;Node7192</title>
<path fill="none" stroke="#191970" d="M53.3788,-209.3307C69.0541,-200.3509 92.61,-186.8566 110.5638,-176.5715"/>
<polygon fill="#191970" stroke="#191970" points="112.4332,-179.5343 119.3705,-171.5265 108.9536,-173.4603 112.4332,-179.5343"/>
</g>
<!-- Node7205 -->
<g id="node12" class="node">
<title>Node7205</title>
<g id="a_node12"><a xlink:href="libbf_8h.html#ae019ee8073f4359da157d3b1e5fdba7e" target="_top" xlink:title="bf_set">
<polygon fill="none" stroke="#000000" points="321,-228.5 321,-247.5 365,-247.5 365,-228.5 321,-228.5"/>
<text text-anchor="middle" x="343" y="-235.5" font-family="Helvetica,sans-Serif" font-size="10.00" fill="#000000">bf_set</text>
</a>
</g>
</g>
<!-- Node7190&#45;&gt;Node7205 -->
<g id="edge16" class="edge">
<title>Node7190&#45;&gt;Node7205</title>
<path fill="none" stroke="#191970" d="M73.1666,-221.273C133.5994,-225.0192 253.1422,-232.4297 310.6314,-235.9935"/>
<polygon fill="#191970" stroke="#191970" points="310.4181,-239.4869 320.6156,-236.6124 310.8513,-232.5003 310.4181,-239.4869"/>
</g>
<!-- Node7193 -->
<g id="node4" class="node">
<title>Node7193</title>
<g id="a_node4"><a xlink:href="libbf_8c.html#a5a13527071b5331585beae41a51ed3c2" target="_top" xlink:title="__bf_round">
<polygon fill="none" stroke="#000000" points="199,-114.5 199,-133.5 264,-133.5 264,-114.5 199,-114.5"/>
<text text-anchor="middle" x="231.5" y="-121.5" font-family="Helvetica,sans-Serif" font-size="10.00" fill="#000000">__bf_round</text>
</a>
</g>
</g>
<!-- Node7192&#45;&gt;Node7193 -->
<g id="edge3" class="edge">
<title>Node7192&#45;&gt;Node7193</title>
<path fill="none" stroke="#191970" d="M160.0987,-152.411C171.522,-147.8656 185.3614,-142.3588 197.8033,-137.4081"/>
<polygon fill="#191970" stroke="#191970" points="199.4116,-140.5351 207.409,-133.5859 196.8235,-134.0311 199.4116,-140.5351"/>
</g>
<!-- Node7194 -->
<g id="node5" class="node">
<title>Node7194</title>
<g id="a_node5"><a xlink:href="libbf_8h.html#a933c9dd8c3450f560876d02e3b36b1a5" target="_top" xlink:title="bf_get_exp_bits">
<polygon fill="none" stroke="#000000" points="422,-76.5 422,-95.5 508,-95.5 508,-76.5 422,-76.5"/>
<text text-anchor="middle" x="465" y="-83.5" font-family="Helvetica,sans-Serif" font-size="10.00" fill="#000000">bf_get_exp_bits</text>
</a>
</g>
</g>
<!-- Node7193&#45;&gt;Node7194 -->
<g id="edge4" class="edge">
<title>Node7193&#45;&gt;Node7194</title>
<path fill="none" stroke="#191970" d="M261.9464,-114.4579C273.7351,-111.0533 287.4023,-107.4569 300,-105 337.0302,-97.7781 379.3093,-92.9753 411.7991,-90.0052"/>
<polygon fill="#191970" stroke="#191970" points="412.3318,-93.4718 421.9847,-89.1045 411.7152,-86.499 412.3318,-93.4718"/>
</g>
<!-- Node7195 -->
<g id="node6" class="node">
<title>Node7195</title>
<g id="a_node6"><a xlink:href="libbf_8c.html#a3d7fdccc1995b3a88b68c5e7a57dce16" target="_top" xlink:title="bf_get_rnd_add">
<polygon fill="none" stroke="#ff0000" points="301.5,-114.5 301.5,-133.5 384.5,-133.5 384.5,-114.5 301.5,-114.5"/>
<text text-anchor="middle" x="343" y="-121.5" font-family="Helvetica,sans-Serif" font-size="10.00" fill="#000000">bf_get_rnd_add</text>
</a>
</g>
</g>
<!-- Node7193&#45;&gt;Node7195 -->
<g id="edge5" class="edge">
<title>Node7193&#45;&gt;Node7195</title>
<path fill="none" stroke="#191970" d="M264.0502,-124C272.6414,-124 282.1273,-124 291.4553,-124"/>
<polygon fill="#191970" stroke="#191970" points="291.4655,-127.5001 301.4654,-124 291.4654,-120.5001 291.4655,-127.5001"/>
</g>
<!-- Node7200 -->
<g id="node7" class="node">
<title>Node7200</title>
<g id="a_node7"><a xlink:href="libbf_8h.html#ab51c43b22c1a81c789ee0e3d53c0e585" target="_top" xlink:title="bf_resize">
<polygon fill="none" stroke="#000000" points="544,-114.5 544,-133.5 600,-133.5 600,-114.5 544,-114.5"/>
<text text-anchor="middle" x="572" y="-121.5" font-family="Helvetica,sans-Serif" font-size="10.00" fill="#000000">bf_resize</text>
</a>
</g>
</g>
<!-- Node7193&#45;&gt;Node7200 -->
<g id="edge6" class="edge">
<title>Node7193&#45;&gt;Node7200</title>
<path fill="none" stroke="#191970" d="M246.3905,-114.4144C259.8692,-106.1744 280.5353,-94.6056 300,-88 387.9859,-58.1408 421.1669,-33.938 508,-67 528.7274,-74.892 547.0155,-92.9189 558.6775,-106.6024"/>
<polygon fill="#191970" stroke="#191970" points="556.02,-108.8819 565.0451,-114.4315 561.4507,-104.465 556.02,-108.8819"/>
</g>
<!-- Node7201 -->
<g id="node8" class="node">
<title>Node7201</title>
<g id="a_node8"><a xlink:href="libbf_8c.html#af464f3c1421a7305372819f949667273" target="_top" xlink:title="bf_set_overflow">
<polygon fill="none" stroke="#ff0000" points="300,-152.5 300,-171.5 386,-171.5 386,-152.5 300,-152.5"/>
<text text-anchor="middle" x="343" y="-159.5" font-family="Helvetica,sans-Serif" font-size="10.00" fill="#000000">bf_set_overflow</text>
</a>
</g>
</g>
<!-- Node7193&#45;&gt;Node7201 -->
<g id="edge7" class="edge">
<title>Node7193&#45;&gt;Node7201</title>
<path fill="none" stroke="#191970" d="M259.6362,-133.589C273.5015,-138.3144 290.4156,-144.0789 305.3758,-149.1774"/>
<polygon fill="#191970" stroke="#191970" points="304.2784,-152.501 314.8728,-152.4141 306.5365,-145.8752 304.2784,-152.501"/>
</g>
<!-- Node7199 -->
<g id="node10" class="node">
<title>Node7199</title>
<g id="a_node10"><a xlink:href="libbf_8c.html#a450dfcc66e1b45403f642a8499219f94" target="_top" xlink:title="limb_mask">
<polygon fill="none" stroke="#000000" points="433,-152.5 433,-171.5 497,-171.5 497,-152.5 433,-152.5"/>
<text text-anchor="middle" x="465" y="-159.5" font-family="Helvetica,sans-Serif" font-size="10.00" fill="#000000">limb_mask</text>
</a>
</g>
</g>
<!-- Node7193&#45;&gt;Node7199 -->
<g id="edge15" class="edge">
<title>Node7193&#45;&gt;Node7199</title>
<path fill="none" stroke="#191970" d="M239.1028,-133.5841C250.5855,-147.1968 273.8119,-171.5292 300,-181 343.3136,-196.6641 396.8135,-185.3838 430.9253,-174.6848"/>
<polygon fill="#191970" stroke="#191970" points="432.0248,-178.0077 440.4318,-171.56 429.8389,-171.3578 432.0248,-178.0077"/>
</g>
<!-- Node7204 -->
<g id="node11" class="node">
<title>Node7204</title>
<g id="a_node11"><a xlink:href="libbf_8h.html#a66631c65c00e92a5840a5085a009602d" target="_top" xlink:title="bf_set_zero">
<polygon fill="none" stroke="#000000" points="431,-.5 431,-19.5 499,-19.5 499,-.5 431,-.5"/>
<text text-anchor="middle" x="465" y="-7.5" font-family="Helvetica,sans-Serif" font-size="10.00" fill="#000000">bf_set_zero</text>
</a>
</g>
</g>
<!-- Node7193&#45;&gt;Node7204 -->
<g id="edge13" class="edge">
<title>Node7193&#45;&gt;Node7204</title>
<path fill="none" stroke="#191970" d="M235.6948,-114.4154C244.5326,-95.4808 267.0083,-53.4339 300,-34 336.6176,-12.4303 385.5021,-7.7072 420.5406,-7.602"/>
<polygon fill="#191970" stroke="#191970" points="420.9073,-11.1057 430.9413,-7.7041 420.9761,-4.1061 420.9073,-11.1057"/>
</g>
<!-- Node7201&#45;&gt;Node7194 -->
<g id="edge8" class="edge">
<title>Node7201&#45;&gt;Node7194</title>
<path fill="none" stroke="#191970" d="M368.2776,-152.4728C374.2864,-149.768 380.535,-146.5728 386,-143 404.1673,-131.1231 404.4044,-122.7086 422,-110 426.5916,-106.6837 431.6864,-103.4765 436.7166,-100.5441"/>
<polygon fill="#191970" stroke="#191970" points="438.552,-103.528 445.5783,-95.5982 435.1405,-97.4156 438.552,-103.528"/>
</g>
<!-- Node7201&#45;&gt;Node7200 -->
<g id="edge9" class="edge">
<title>Node7201&#45;&gt;Node7200</title>
<path fill="none" stroke="#191970" d="M379.0042,-152.4573C392.4302,-149.1327 407.8466,-145.5903 422,-143 459.7646,-136.0886 503.338,-130.8728 533.7568,-127.671"/>
<polygon fill="#191970" stroke="#191970" points="534.3476,-131.1288 543.9365,-126.623 533.6307,-124.1656 534.3476,-131.1288"/>
</g>
<!-- Node7203 -->
<g id="node9" class="node">
<title>Node7203</title>
<g id="a_node9"><a xlink:href="libbf_8h.html#aa6282c789c16c8cf2fe6a8ebd671c6fc" target="_top" xlink:title="bf_set_nan">
<polygon fill="none" stroke="#000000" points="432.5,-190.5 432.5,-209.5 497.5,-209.5 497.5,-190.5 432.5,-190.5"/>
<text text-anchor="middle" x="465" y="-197.5" font-family="Helvetica,sans-Serif" font-size="10.00" fill="#000000">bf_set_nan</text>
</a>
</g>
</g>
<!-- Node7201&#45;&gt;Node7203 -->
<g id="edge10" class="edge">
<title>Node7201&#45;&gt;Node7203</title>
<path fill="none" stroke="#191970" d="M373.7858,-171.589C389.1013,-176.3594 407.8166,-182.1888 424.2998,-187.3229"/>
<polygon fill="#191970" stroke="#191970" points="423.6356,-190.7818 434.2241,-190.4141 425.7174,-184.0985 423.6356,-190.7818"/>
</g>
<!-- Node7201&#45;&gt;Node7199 -->
<g id="edge12" class="edge">
<title>Node7201&#45;&gt;Node7199</title>
<path fill="none" stroke="#191970" d="M386.0126,-162C397.898,-162 410.784,-162 422.6324,-162"/>
<polygon fill="#191970" stroke="#191970" points="422.7265,-165.5001 432.7264,-162 422.7264,-158.5001 422.7265,-165.5001"/>
</g>
<!-- Node7203&#45;&gt;Node7200 -->
<g id="edge11" class="edge">
<title>Node7203&#45;&gt;Node7200</title>
<path fill="none" stroke="#191970" d="M490.2415,-190.4171C496.2513,-187.714 502.5095,-184.5335 508,-181 525.6534,-169.6389 543.2885,-153.4865 555.5629,-141.2754"/>
<polygon fill="#191970" stroke="#191970" points="558.2882,-143.4957 562.8011,-133.9101 553.2955,-138.5892 558.2882,-143.4957"/>
</g>
<!-- Node7204&#45;&gt;Node7200 -->
<g id="edge14" class="edge">
<title>Node7204&#45;&gt;Node7200</title>
<path fill="none" stroke="#191970" d="M486.3505,-19.5173C493.6803,-23.3827 501.6342,-28.2932 508,-34 531.3263,-54.9114 550.9482,-85.7928 562.0918,-105.3985"/>
<polygon fill="#191970" stroke="#191970" points="559.092,-107.2066 566.9909,-114.2676 565.2194,-103.8219 559.092,-107.2066"/>
</g>
<!-- Node7205&#45;&gt;Node7200 -->
<g id="edge17" class="edge">
<title>Node7205&#45;&gt;Node7200</title>
<path fill="none" stroke="#191970" d="M365.1497,-240.9896C398.6796,-244.3657 463.1584,-246.2648 508,-219 536.898,-201.4293 555.6456,-165.2781 564.9756,-142.9876"/>
<polygon fill="#191970" stroke="#191970" points="568.2776,-144.1552 568.7028,-133.5689 561.7687,-141.5794 568.2776,-144.1552"/>
</g>
<!-- Node7205&#45;&gt;Node7203 -->
<g id="edge18" class="edge">
<title>Node7205&#45;&gt;Node7203</title>
<path fill="none" stroke="#191970" d="M365.0933,-231.1185C381.6584,-225.9588 404.7934,-218.7529 424.6295,-212.5744"/>
<polygon fill="#191970" stroke="#191970" points="425.8466,-215.8613 434.3533,-209.5457 423.7648,-209.178 425.8466,-215.8613"/>
</g>
</g>
</svg>
        <g id="navigator" transform="translate(0 0)" fill="#404254">
                <rect fill="#f2f5e9" fill-opacity="0.5" stroke="#606060" stroke-width=".5" x="0" y="0" width="60" height="60"/>
                <use id="zoomplus" xlink:href="#zoomPlus" x="17" y="9" onmousedown="handleZoom(evt,'in')"/>
                <use id="zoomminus" xlink:href="#zoomMin" x="42" y="9" onmousedown="handleZoom(evt,'out')"/>
                <use id="reset" xlink:href="#resetDef" x="30" y="36" onmousedown="handleReset()"/>
                <g id="arrowUp" xlink:href="#dirArrow" transform="translate(30 24)" onmousedown="handlePan(0,-1)">
                  <use xlink:href="#rim" fill="#404040">
                        <set attributeName="fill" to="#808080" begin="arrowUp.mouseover" end="arrowUp.mouseout"/>
                  </use>
                  <path fill="none" stroke="white" stroke-width="1.5" d="M0,-3.0v7 M-2.5,-0.5L0,-3.0L2.5,-0.5"/>
                </g>
                <g id="arrowRight" xlink:href="#dirArrow" transform="rotate(90) translate(36 -43)" onmousedown="handlePan(1,0)">
                  <use xlink:href="#rim" fill="#404040">
                        <set attributeName="fill" to="#808080" begin="arrowRight.mouseover" end="arrowRight.mouseout"/>
                  </use>
                  <path fill="none" stroke="white" stroke-width="1.5" d="M0,-3.0v7 M-2.5,-0.5L0,-3.0L2.5,-0.5"/>
                </g>
                <g id="arrowDown" xlink:href="#dirArrow" transform="rotate(180) translate(-30 -48)" onmousedown="handlePan(0,1)">
                  <use xlink:href="#rim" fill="#404040">
                        <set attributeName="fill" to="#808080" begin="arrowDown.mouseover" end="arrowDown.mouseout"/>
                  </use>
                  <path fill="none" stroke="white" stroke-width="1.5" d="M0,-3.0v7 M-2.5,-0.5L0,-3.0L2.5,-0.5"/>
                </g>
                <g id="arrowLeft" xlink:href="#dirArrow" transform="rotate(270) translate(-36 17)" onmousedown="handlePan(-1,0)">
                  <use xlink:href="#rim" fill="#404040">
                        <set attributeName="fill" to="#808080" begin="arrowLeft.mouseover" end="arrowLeft.mouseout"/>
                  </use>
                  <path fill="none" stroke="white" stroke-width="1.5" d="M0,-3.0v7 M-2.5,-0.5L0,-3.0L2.5,-0.5"/>
                </g>
        </g>
        <svg viewBox="0 0 15 15" width="100%" height="30px" preserveAspectRatio="xMaxYMin meet">
         <g id="arrow_out" transform="scale(0.3 0.3)">
          <a xlink:href="libbf_8c_afad3b4ae5f29e7af0b533bb452a4f36a_cgraph_org.svg" target="_base">
           <rect id="button" ry="5" rx="5" y="6" x="6" height="38" width="38"
                fill="#f2f5e9" fill-opacity="0.5" stroke="#606060" stroke-width="1.0"/>
           <path id="arrow"
             d="M 11.500037,31.436501 C 11.940474,20.09759 22.043105,11.32322 32.158766,21.979434 L 37.068811,17.246167 C 37.068811,17.246167 37.088388,32 37.088388,32 L 22.160133,31.978069 C 22.160133,31.978069 26.997745,27.140456 26.997745,27.140456 C 18.528582,18.264221 13.291696,25.230495 11.500037,31.436501 z"
             style="fill:#404040;"/>
          </a>
         </g>
        </svg>
</svg>
