<?xml version="1.0" encoding="UTF-8" standalone="no"?>
<!DOCTYPE svg PUBLIC "-//W3C//DTD SVG 1.1//EN"
 "http://www.w3.org/Graphics/SVG/1.1/DTD/svg11.dtd">
<!-- Generated by graphviz version 2.40.1 (20161225.0304)
 -->
<!-- Title: bf_cmp_eq Pages: 1 -->
<svg width="357pt" height="85pt"
 viewBox="0.00 0.00 357.00 85.00" xmlns="http://www.w3.org/2000/svg" xmlns:xlink="http://www.w3.org/1999/xlink">
<g id="graph0" class="graph" transform="scale(1 1) rotate(0) translate(4 81)">
<title>bf_cmp_eq</title>
<!-- Node1464 -->
<g id="node1" class="node">
<title>Node1464</title>
<polygon fill="#bfbfbf" stroke="#000000" points="0,-.5 0,-19.5 65,-19.5 65,-.5 0,-.5"/>
<text text-anchor="middle" x="32.5" y="-7.5" font-family="Helvetica,sans-Serif" font-size="10.00" fill="#000000">bf_cmp_eq</text>
</g>
<!-- Node1465 -->
<g id="node2" class="node">
<title>Node1465</title>
<g id="a_node2"><a xlink:href="libbf_8h.html#a4137b2308536cbc92addaeb3f0c79d35" target="_top" xlink:title="bf_log">
<polygon fill="none" stroke="#000000" points="101,-19.5 101,-38.5 144,-38.5 144,-19.5 101,-19.5"/>
<text text-anchor="middle" x="122.5" y="-26.5" font-family="Helvetica,sans-Serif" font-size="10.00" fill="#000000">bf_log</text>
</a>
</g>
</g>
<!-- Node1464&#45;&gt;Node1465 -->
<g id="edge1" class="edge">
<title>Node1464&#45;&gt;Node1465</title>
<path fill="none" stroke="#191970" d="M75.1778,-19.0098C84.0859,-20.8904 93.1157,-22.7966 100.8658,-24.4328"/>
<polygon fill="#191970" stroke="#191970" points="75.754,-15.5543 65.2467,-16.9132 74.308,-22.4034 75.754,-15.5543"/>
</g>
<!-- Node1467 -->
<g id="node4" class="node">
<title>Node1467</title>
<g id="a_node4"><a xlink:href="libbf_8h.html#a93fe073491f8c5f086a75e7bf8865b34" target="_top" xlink:title="bf_pow">
<polygon fill="none" stroke="#000000" points="301,-19.5 301,-38.5 349,-38.5 349,-19.5 301,-19.5"/>
<text text-anchor="middle" x="325" y="-26.5" font-family="Helvetica,sans-Serif" font-size="10.00" fill="#000000">bf_pow</text>
</a>
</g>
</g>
<!-- Node1464&#45;&gt;Node1467 -->
<g id="edge5" class="edge">
<title>Node1464&#45;&gt;Node1467</title>
<path fill="none" stroke="#191970" d="M75.309,-8.9542C96.063,-8.7141 121.344,-8.8141 144,-10 200.3222,-12.948 266.0998,-21.0224 300.7643,-25.6409"/>
<polygon fill="#191970" stroke="#191970" points="75.1599,-5.4559 65.212,-9.1014 75.262,-12.4551 75.1599,-5.4559"/>
</g>
<!-- Node1466 -->
<g id="node3" class="node">
<title>Node1466</title>
<g id="a_node3"><a xlink:href="libbf_8c.html#aa28c1603087e2aec25b9bb0dae387875" target="_top" xlink:title="bf_pow_generic">
<polygon fill="none" stroke="#000000" points="180,-57.5 180,-76.5 265,-76.5 265,-57.5 180,-57.5"/>
<text text-anchor="middle" x="222.5" y="-64.5" font-family="Helvetica,sans-Serif" font-size="10.00" fill="#000000">bf_pow_generic</text>
</a>
</g>
</g>
<!-- Node1465&#45;&gt;Node1466 -->
<g id="edge2" class="edge">
<title>Node1465&#45;&gt;Node1466</title>
<path fill="none" stroke="#191970" d="M153.9063,-40.9344C167.8925,-46.2492 184.1423,-52.4241 197.3142,-57.4294"/>
<polygon fill="#191970" stroke="#191970" points="154.7896,-37.5259 144.1985,-37.2454 152.3031,-44.0694 154.7896,-37.5259"/>
</g>
<!-- Node1465&#45;&gt;Node1467 -->
<g id="edge4" class="edge">
<title>Node1465&#45;&gt;Node1467</title>
<path fill="none" stroke="#191970" d="M154.3401,-29C195.0113,-29 264.4903,-29 300.9879,-29"/>
<polygon fill="#191970" stroke="#191970" points="154.1711,-25.5001 144.171,-29 154.171,-32.5001 154.1711,-25.5001"/>
</g>
<!-- Node1466&#45;&gt;Node1467 -->
<g id="edge3" class="edge">
<title>Node1466&#45;&gt;Node1467</title>
<path fill="none" stroke="#191970" d="M257.8509,-53.8943C272.059,-48.6269 288.0766,-42.6887 300.9035,-37.9333"/>
<polygon fill="#191970" stroke="#191970" points="256.5248,-50.6531 248.3651,-57.411 258.9581,-57.2165 256.5248,-50.6531"/>
</g>
</g>
</svg>
