<?xml version="1.0" encoding="UTF-8" standalone="no"?>
<!DOCTYPE svg PUBLIC "-//W3C//DTD SVG 1.1//EN"
 "http://www.w3.org/Graphics/SVG/1.1/DTD/svg11.dtd">
<!-- Generated by graphviz version 2.40.1 (20161225.0304)
 -->
<!-- Title: bf_set_ui Pages: 1 -->
<!--zoomable 1044 -->
<svg id="main" version="1.1" xmlns="http://www.w3.org/2000/svg" xmlns:xlink="http://www.w3.org/1999/xlink" xml:space="preserve" onload="init(evt)">
<style type="text/css"><![CDATA[
.edge:hover path { stroke: red; }
.edge:hover polygon { stroke: red; fill: red; }
]]></style>
<script type="text/javascript"><![CDATA[
var edges = document.getElementsByTagName('g');
if (edges && edges.length) {
  for (var i=0;i<edges.length;i++) {
    if (edges[i].id.substr(0,4)=='edge') {
      edges[i].setAttribute('class','edge');
    }
  }
}
]]></script>
        <defs>
                <circle id="rim" cx="0" cy="0" r="7"/>
                <circle id="rim2" cx="0" cy="0" r="3.5"/>
                <g id="zoomPlus">
                        <use xlink:href="#rim" fill="#404040">
                                <set attributeName="fill" to="#808080" begin="zoomplus.mouseover" end="zoomplus.mouseout"/>
                        </use>
                        <path d="M-4,0h8M0,-4v8" fill="none" stroke="white" stroke-width="1.5" pointer-events="none"/>
                </g>
                <g id="zoomMin">
                        <use xlink:href="#rim" fill="#404040">
                                <set attributeName="fill" to="#808080" begin="zoomminus.mouseover" end="zoomminus.mouseout"/>
                        </use>
                        <path d="M-4,0h8" fill="none" stroke="white" stroke-width="1.5" pointer-events="none"/>
                </g>
                <g id="dirArrow">
                        <path fill="none" stroke="white" stroke-width="1.5" d="M0,-3.0v7 M-2.5,-0.5L0,-3.0L2.5,-0.5"/>
                </g>
               <g id="resetDef">
                       <use xlink:href="#rim2" fill="#404040">
                               <set attributeName="fill" to="#808080" begin="reset.mouseover" end="reset.mouseout"/>
                       </use>
               </g>
        </defs>

<script type="text/javascript">
var viewWidth = 635;
var viewHeight = 1044;
var sectionId = 'dynsection-20';
</script>
<script xlink:href="svgpan.js"/>
<svg id="graph" class="graph">
<g id="viewport">
<title>bf_set_ui</title>
<!-- Node617 -->
<g id="node1" class="node">
<title>Node617</title>
<polygon fill="#bfbfbf" stroke="#000000" points="0,-511.5 0,-530.5 56,-530.5 56,-511.5 0,-511.5"/>
<text text-anchor="middle" x="28" y="-518.5" font-family="Helvetica,sans-Serif" font-size="10.00" fill="#000000">bf_set_ui</text>
</g>
<!-- Node618 -->
<g id="node2" class="node">
<title>Node618</title>
<g id="a_node2"><a xlink:href="libbf_8h.html#a45cd74dd3a694c26e716762b7fd36955" target="_top" xlink:title="bf_acos">
<polygon fill="none" stroke="#000000" points="556,-967.5 556,-986.5 607,-986.5 607,-967.5 556,-967.5"/>
<text text-anchor="middle" x="581.5" y="-974.5" font-family="Helvetica,sans-Serif" font-size="10.00" fill="#000000">bf_acos</text>
</a>
</g>
</g>
<!-- Node617&#45;&gt;Node618 -->
<g id="edge1" class="edge">
<title>Node617&#45;&gt;Node618</title>
<path fill="none" stroke="#191970" d="M29.4196,-540.8231C35.5127,-623.2755 60.5725,-936.171 92,-966 223.6325,-1090.9369 476.168,-1015.1338 556.3897,-986.5214"/>
<polygon fill="#191970" stroke="#191970" points="32.9048,-540.4907 28.687,-530.7716 25.9233,-540.9996 32.9048,-540.4907"/>
</g>
<!-- Node619 -->
<g id="node3" class="node">
<title>Node619</title>
<g id="a_node3"><a xlink:href="libbf_8c.html#a740cb7dc32453bf521083b7616b7f120" target="_top" xlink:title="bf_add_epsilon">
<polygon fill="none" stroke="#000000" points="238.5,-796.5 238.5,-815.5 320.5,-815.5 320.5,-796.5 238.5,-796.5"/>
<text text-anchor="middle" x="279.5" y="-803.5" font-family="Helvetica,sans-Serif" font-size="10.00" fill="#000000">bf_add_epsilon</text>
</a>
</g>
</g>
<!-- Node617&#45;&gt;Node619 -->
<g id="edge2" class="edge">
<title>Node617&#45;&gt;Node619</title>
<path fill="none" stroke="#191970" d="M29.9912,-540.7797C35.9651,-595.9324 55.6094,-749.5107 92,-782 131.6588,-817.4071 196.2091,-817.6129 238.2662,-812.9902"/>
<polygon fill="#191970" stroke="#191970" points="33.446,-540.1644 28.9229,-530.5836 26.4841,-540.8939 33.446,-540.1644"/>
</g>
<!-- Node620 -->
<g id="node4" class="node">
<title>Node620</title>
<g id="a_node4"><a xlink:href="libbf_8h.html#a36f22f93ba4258209be035a63b80b87f" target="_top" xlink:title="bf_exp">
<polygon fill="none" stroke="#000000" points="412.5,-682.5 412.5,-701.5 458.5,-701.5 458.5,-682.5 412.5,-682.5"/>
<text text-anchor="middle" x="435.5" y="-689.5" font-family="Helvetica,sans-Serif" font-size="10.00" fill="#000000">bf_exp</text>
</a>
</g>
</g>
<!-- Node617&#45;&gt;Node620 -->
<g id="edge22" class="edge">
<title>Node617&#45;&gt;Node620</title>
<path fill="none" stroke="#191970" d="M31.6629,-540.7362C40.3455,-585.1339 63.5939,-690.5941 92,-711 143.1757,-747.7628 343.3435,-711.017 412.1338,-696.9627"/>
<polygon fill="#191970" stroke="#191970" points="35.0893,-540.0189 29.775,-530.8532 28.2136,-541.3323 35.0893,-540.0189"/>
</g>
<!-- Node621 -->
<g id="node5" class="node">
<title>Node621</title>
<g id="a_node5"><a xlink:href="libbf_8h.html#a69ea68a6b21d496bd89afeaa9c067ebe" target="_top" xlink:title="bf_cos">
<polygon fill="none" stroke="#000000" points="412.5,-720.5 412.5,-739.5 458.5,-739.5 458.5,-720.5 412.5,-720.5"/>
<text text-anchor="middle" x="435.5" y="-727.5" font-family="Helvetica,sans-Serif" font-size="10.00" fill="#000000">bf_cos</text>
</a>
</g>
</g>
<!-- Node617&#45;&gt;Node621 -->
<g id="edge21" class="edge">
<title>Node617&#45;&gt;Node621</title>
<path fill="none" stroke="#191970" d="M30.9372,-540.6984C38.5407,-588.7197 60.497,-709.6031 92,-733 190.3886,-806.072 352.1628,-759.896 412.1591,-738.8347"/>
<polygon fill="#191970" stroke="#191970" points="34.3697,-539.992 29.3877,-530.6416 27.4514,-541.058 34.3697,-539.992"/>
</g>
<!-- Node624 -->
<g id="node8" class="node">
<title>Node624</title>
<g id="a_node8"><a xlink:href="libbf_8h.html#a0bb2c5b98e3f978b84df9849c7ec50d6" target="_top" xlink:title="bf_atan">
<polygon fill="none" stroke="#000000" points="411,-872.5 411,-891.5 460,-891.5 460,-872.5 411,-872.5"/>
<text text-anchor="middle" x="435.5" y="-879.5" font-family="Helvetica,sans-Serif" font-size="10.00" fill="#000000">bf_atan</text>
</a>
</g>
</g>
<!-- Node617&#45;&gt;Node624 -->
<g id="edge11" class="edge">
<title>Node617&#45;&gt;Node624</title>
<path fill="none" stroke="#191970" d="M29.5875,-540.9942C34.7229,-600.4741 52.8713,-774.5513 92,-813 137.6099,-857.8172 339.9981,-875.5602 410.8794,-880.4706"/>
<polygon fill="#191970" stroke="#191970" points="33.0482,-540.3759 28.7316,-530.7003 26.0723,-540.956 33.0482,-540.3759"/>
</g>
<!-- Node625 -->
<g id="node9" class="node">
<title>Node625</title>
<g id="a_node9"><a xlink:href="libbf_8c.html#af760cf2a93bf130e8e44a62c7e7d0adf" target="_top" xlink:title="bf_atan2_internal">
<polygon fill="none" stroke="#ff0000" points="536,-502.5 536,-521.5 627,-521.5 627,-502.5 536,-502.5"/>
<text text-anchor="middle" x="581.5" y="-509.5" font-family="Helvetica,sans-Serif" font-size="10.00" fill="#000000">bf_atan2_internal</text>
</a>
</g>
</g>
<!-- Node617&#45;&gt;Node625 -->
<g id="edge12" class="edge">
<title>Node617&#45;&gt;Node625</title>
<path fill="none" stroke="#191970" d="M28.6704,-501.1469C31.3603,-434.3926 43.6869,-219.7185 92,-175 135.2958,-134.9255 165.0866,-164.1155 224,-161 348.9915,-154.3902 414.0816,-125.9802 500,-217 541.1232,-260.5649 573.0358,-456.2751 580.0563,-502.2908"/>
<polygon fill="#191970" stroke="#191970" points="25.1712,-501.0619 28.2952,-511.1857 32.1663,-501.3234 25.1712,-501.0619"/>
</g>
<!-- Node627 -->
<g id="node10" class="node">
<title>Node627</title>
<g id="a_node10"><a xlink:href="libbf_8h.html#a8ee86879e3da22442956f47356855edd" target="_top" xlink:title="bf_asin">
<polygon fill="none" stroke="#000000" points="557.5,-910.5 557.5,-929.5 605.5,-929.5 605.5,-910.5 557.5,-910.5"/>
<text text-anchor="middle" x="581.5" y="-917.5" font-family="Helvetica,sans-Serif" font-size="10.00" fill="#000000">bf_asin</text>
</a>
</g>
</g>
<!-- Node617&#45;&gt;Node627 -->
<g id="edge10" class="edge">
<title>Node617&#45;&gt;Node627</title>
<path fill="none" stroke="#191970" d="M29.5252,-540.6871C35.8599,-619.928 61.207,-912.5629 92,-939 160.7916,-998.0606 409.9272,-949.3604 500,-939 519.4853,-936.7588 541.0841,-931.5976 557.1487,-927.2194"/>
<polygon fill="#191970" stroke="#191970" points="33.0053,-540.2953 28.7302,-530.6013 26.0269,-540.8454 33.0053,-540.2953"/>
</g>
<!-- Node628 -->
<g id="node11" class="node">
<title>Node628</title>
<g id="a_node11"><a xlink:href="libbf_8c.html#aa4b535a5b33344704c576607ab4f0463" target="_top" xlink:title="bf_atan_internal">
<polygon fill="none" stroke="#000000" points="236.5,-891.5 236.5,-910.5 322.5,-910.5 322.5,-891.5 236.5,-891.5"/>
<text text-anchor="middle" x="279.5" y="-898.5" font-family="Helvetica,sans-Serif" font-size="10.00" fill="#000000">bf_atan_internal</text>
</a>
</g>
</g>
<!-- Node617&#45;&gt;Node628 -->
<g id="edge13" class="edge">
<title>Node617&#45;&gt;Node628</title>
<path fill="none" stroke="#191970" d="M29.0017,-540.9656C32.6885,-606.27 47.674,-811.9679 92,-858 129.1803,-896.6114 193.4407,-903.7097 236.2108,-903.6325"/>
<polygon fill="#191970" stroke="#191970" points="32.4864,-540.5842 28.4559,-530.786 25.4964,-540.9591 32.4864,-540.5842"/>
</g>
<!-- Node630 -->
<g id="node13" class="node">
<title>Node630</title>
<g id="a_node13"><a xlink:href="libbf_8c.html#a829c2ed2112548096d41c6ceb017e542" target="_top" xlink:title="bf_const_log2_rec">
<polygon fill="none" stroke="#ff0000" points="92,-76.5 92,-95.5 188,-95.5 188,-76.5 92,-76.5"/>
<text text-anchor="middle" x="140" y="-83.5" font-family="Helvetica,sans-Serif" font-size="10.00" fill="#000000">bf_const_log2_rec</text>
</a>
</g>
</g>
<!-- Node617&#45;&gt;Node630 -->
<g id="edge18" class="edge">
<title>Node617&#45;&gt;Node630</title>
<path fill="none" stroke="#191970" d="M29.4394,-501.3685C34.8487,-431.2281 55.5344,-193.6998 92,-128 99.5232,-114.4456 113.1733,-103.1552 123.9991,-95.7064"/>
<polygon fill="#191970" stroke="#191970" points="25.9397,-501.233 28.6779,-511.4679 32.9199,-501.7594 25.9397,-501.233"/>
</g>
<!-- Node639 -->
<g id="node14" class="node">
<title>Node639</title>
<g id="a_node14"><a xlink:href="libbf_8c.html#a11d2dea6becda91c288fd883eefc8e5c" target="_top" xlink:title="bf_const_pi_internal">
<polygon fill="none" stroke="#ff0000" points="383.5,-226.5 383.5,-245.5 487.5,-245.5 487.5,-226.5 383.5,-226.5"/>
<text text-anchor="middle" x="435.5" y="-233.5" font-family="Helvetica,sans-Serif" font-size="10.00" fill="#000000">bf_const_pi_internal</text>
</a>
</g>
</g>
<!-- Node617&#45;&gt;Node639 -->
<g id="edge20" class="edge">
<title>Node617&#45;&gt;Node639</title>
<path fill="none" stroke="#191970" d="M29.114,-501.1313C32.3046,-464.24 44.6105,-385.1761 92,-344 175.3009,-271.6209 231.7755,-332.019 335,-293 368.0231,-280.5172 403.1414,-258.2569 421.8654,-245.5632"/>
<polygon fill="#191970" stroke="#191970" points="25.6209,-500.9106 28.3877,-511.1378 32.6025,-501.4174 25.6209,-500.9106"/>
</g>
<!-- Node633 -->
<g id="node15" class="node">
<title>Node633</title>
<g id="a_node15"><a xlink:href="libbf_8c.html#a157194b3c7faaa17e39ae78cd98c4385" target="_top" xlink:title="bf_exp_internal">
<polygon fill="none" stroke="#ff0000" points="98.5,-682.5 98.5,-701.5 181.5,-701.5 181.5,-682.5 98.5,-682.5"/>
<text text-anchor="middle" x="140" y="-689.5" font-family="Helvetica,sans-Serif" font-size="10.00" fill="#000000">bf_exp_internal</text>
</a>
</g>
</g>
<!-- Node617&#45;&gt;Node633 -->
<g id="edge23" class="edge">
<title>Node617&#45;&gt;Node633</title>
<path fill="none" stroke="#191970" d="M31.1947,-540.4919C37.388,-572.3471 53.9242,-635.7384 92,-673 95.9714,-676.8865 100.8346,-680.0049 105.9247,-682.4993"/>
<polygon fill="#191970" stroke="#191970" points="34.6362,-539.8541 29.417,-530.6341 27.7473,-541.0965 34.6362,-539.8541"/>
</g>
<!-- Node646 -->
<g id="node16" class="node">
<title>Node646</title>
<g id="a_node16"><a xlink:href="libbf_8c.html#a5d5227218ea18d8ca58be002abc729bf" target="_top" xlink:title="bf_integer_from_radix_rec">
<polygon fill="none" stroke="#ff0000" points="371,-406.5 371,-425.5 500,-425.5 500,-406.5 371,-406.5"/>
<text text-anchor="middle" x="435.5" y="-413.5" font-family="Helvetica,sans-Serif" font-size="10.00" fill="#000000">bf_integer_from_radix_rec</text>
</a>
</g>
</g>
<!-- Node617&#45;&gt;Node646 -->
<g id="edge25" class="edge">
<title>Node617&#45;&gt;Node646</title>
<path fill="none" stroke="#191970" d="M34.5332,-501.8899C43.5402,-478.7316 62.1341,-440.5183 92,-422 190.8473,-360.7099 338.4109,-389.3101 403.1219,-406.4199"/>
<polygon fill="#191970" stroke="#191970" points="31.2225,-500.7522 31.0634,-511.3459 37.7941,-503.1637 31.2225,-500.7522"/>
</g>
<!-- Node652 -->
<g id="node17" class="node">
<title>Node652</title>
<g id="a_node17"><a xlink:href="libbf_8c.html#aa94726eca10adb51bd141319fdfdb20c" target="_top" xlink:title="bf_integer_to_radix_rec">
<polygon fill="none" stroke="#ff0000" points="376.5,-345.5 376.5,-364.5 494.5,-364.5 494.5,-345.5 376.5,-345.5"/>
<text text-anchor="middle" x="435.5" y="-352.5" font-family="Helvetica,sans-Serif" font-size="10.00" fill="#000000">bf_integer_to_radix_rec</text>
</a>
</g>
</g>
<!-- Node617&#45;&gt;Node652 -->
<g id="edge27" class="edge">
<title>Node617&#45;&gt;Node652</title>
<path fill="none" stroke="#191970" d="M31.0939,-501.2271C36.9969,-470.8174 52.9514,-413.2368 92,-386 180.8912,-323.9974 315.798,-334.1737 387.2153,-345.458"/>
<polygon fill="#191970" stroke="#191970" points="27.5843,-500.9761 29.2965,-511.4316 34.4782,-502.1904 27.5843,-500.9761"/>
</g>
<!-- Node638 -->
<g id="node18" class="node">
<title>Node638</title>
<g id="a_node18"><a xlink:href="libbf_8h.html#a4137b2308536cbc92addaeb3f0c79d35" target="_top" xlink:title="bf_log">
<polygon fill="none" stroke="#ff0000" points="258,-618.5 258,-637.5 301,-637.5 301,-618.5 258,-618.5"/>
<text text-anchor="middle" x="279.5" y="-625.5" font-family="Helvetica,sans-Serif" font-size="10.00" fill="#000000">bf_log</text>
</a>
</g>
</g>
<!-- Node617&#45;&gt;Node638 -->
<g id="edge29" class="edge">
<title>Node617&#45;&gt;Node638</title>
<path fill="none" stroke="#191970" d="M45.7227,-537.3336C57.9597,-547.8862 75.0282,-561.2351 92,-570 148.3114,-599.0814 221.7753,-616.5217 257.7405,-623.885"/>
<polygon fill="#191970" stroke="#191970" points="47.8895,-534.5771 38.0835,-530.5654 43.2474,-539.8166 47.8895,-534.5771"/>
</g>
<!-- Node635 -->
<g id="node19" class="node">
<title>Node635</title>
<g id="a_node19"><a xlink:href="libbf_8h.html#a93fe073491f8c5f086a75e7bf8865b34" target="_top" xlink:title="bf_pow">
<polygon fill="none" stroke="#000000" points="411.5,-530.5 411.5,-549.5 459.5,-549.5 459.5,-530.5 411.5,-530.5"/>
<text text-anchor="middle" x="435.5" y="-537.5" font-family="Helvetica,sans-Serif" font-size="10.00" fill="#000000">bf_pow</text>
</a>
</g>
</g>
<!-- Node617&#45;&gt;Node635 -->
<g id="edge42" class="edge">
<title>Node617&#45;&gt;Node635</title>
<path fill="none" stroke="#191970" d="M48.1783,-505.1853C60.1748,-496.8043 76.1121,-487.3613 92,-483 211.7951,-450.1157 360.6083,-506.7559 414.6581,-530.3819"/>
<polygon fill="#191970" stroke="#191970" points="45.8435,-502.5566 39.8387,-511.2855 49.9763,-508.2064 45.8435,-502.5566"/>
</g>
<!-- Node637 -->
<g id="node20" class="node">
<title>Node637</title>
<g id="a_node20"><a xlink:href="libbf_8c.html#aab7bc918fdd8dbef25c31c6881c73fdd" target="_top" xlink:title="bf_log_internal">
<polygon fill="none" stroke="#000000" points="100,-644.5 100,-663.5 180,-663.5 180,-644.5 100,-644.5"/>
<text text-anchor="middle" x="140" y="-651.5" font-family="Helvetica,sans-Serif" font-size="10.00" fill="#000000">bf_log_internal</text>
</a>
</g>
</g>
<!-- Node617&#45;&gt;Node637 -->
<g id="edge31" class="edge">
<title>Node617&#45;&gt;Node637</title>
<path fill="none" stroke="#191970" d="M35.1632,-539.9829C44.9078,-563.656 64.3517,-604.1519 92,-630 98.2614,-635.8538 106.2217,-640.5997 113.8511,-644.2781"/>
<polygon fill="#191970" stroke="#191970" points="38.4154,-538.6891 31.4792,-530.6804 31.9072,-541.2666 38.4154,-538.6891"/>
</g>
<!-- Node658 -->
<g id="node21" class="node">
<title>Node658</title>
<g id="a_node21"><a xlink:href="libbf_8h.html#acee0d550162528b5ca5513d4479549c2" target="_top" xlink:title="bf_mul_ui">
<polygon fill="none" stroke="#000000" points="110.5,-226.5 110.5,-245.5 169.5,-245.5 169.5,-226.5 110.5,-226.5"/>
<text text-anchor="middle" x="140" y="-233.5" font-family="Helvetica,sans-Serif" font-size="10.00" fill="#000000">bf_mul_ui</text>
</a>
</g>
</g>
<!-- Node617&#45;&gt;Node658 -->
<g id="edge33" class="edge">
<title>Node617&#45;&gt;Node658</title>
<path fill="none" stroke="#191970" d="M30.6407,-501.4262C38.2491,-447.4612 61.6287,-298.0369 92,-260 96.8833,-253.8842 103.7299,-249.1979 110.7256,-245.6614"/>
<polygon fill="#191970" stroke="#191970" points="27.1618,-501.0333 29.2596,-511.4183 34.0959,-501.9917 27.1618,-501.0333"/>
</g>
<!-- Node659 -->
<g id="node22" class="node">
<title>Node659</title>
<g id="a_node22"><a xlink:href="libbf_8c.html#a81e50b3d7e7a931a93d6ea7e1d630631" target="_top" xlink:title="chud_bs">
<polygon fill="none" stroke="#000000" points="253,-170.5 253,-189.5 306,-189.5 306,-170.5 253,-170.5"/>
<text text-anchor="middle" x="279.5" y="-177.5" font-family="Helvetica,sans-Serif" font-size="10.00" fill="#000000">chud_bs</text>
</a>
</g>
</g>
<!-- Node617&#45;&gt;Node659 -->
<g id="edge58" class="edge">
<title>Node617&#45;&gt;Node659</title>
<path fill="none" stroke="#191970" d="M29.3957,-500.9797C34.074,-439.8325 51.2582,-257.229 92,-217 135.2059,-174.3379 212.4537,-173.7622 252.9958,-176.9029"/>
<polygon fill="#191970" stroke="#191970" points="25.8857,-500.9888 28.644,-511.2183 32.8669,-501.5014 25.8857,-500.9888"/>
</g>
<!-- Node636 -->
<g id="node23" class="node">
<title>Node636</title>
<g id="a_node23"><a xlink:href="libbf_8c.html#aa6e77d8d722e3fd0540ede79a63e352e" target="_top" xlink:title="check_exp_underflow\l_overflow">
<polygon fill="none" stroke="#000000" points="224,-569 224,-599 335,-599 335,-569 224,-569"/>
<text text-anchor="start" x="232" y="-587" font-family="Helvetica,sans-Serif" font-size="10.00" fill="#000000">check_exp_underflow</text>
<text text-anchor="middle" x="279.5" y="-576" font-family="Helvetica,sans-Serif" font-size="10.00" fill="#000000">_overflow</text>
</a>
</g>
</g>
<!-- Node617&#45;&gt;Node636 -->
<g id="edge57" class="edge">
<title>Node617&#45;&gt;Node636</title>
<path fill="none" stroke="#191970" d="M61.7417,-534.0869C71.4251,-537.5797 82.0556,-541.1664 92,-544 135.6942,-556.4506 186.0999,-566.9961 223.6374,-574.1282"/>
<polygon fill="#191970" stroke="#191970" points="62.6552,-530.6935 52.0618,-530.5166 60.2327,-537.2609 62.6552,-530.6935"/>
</g>
<!-- Node642 -->
<g id="node24" class="node">
<title>Node642</title>
<g id="a_node24"><a xlink:href="libbf_8c.html#a2b19e3958f6cf3fa0cc534681a5ff259" target="_top" xlink:title="bf_sincos">
<polygon fill="none" stroke="#ff0000" points="250,-264.5 250,-283.5 309,-283.5 309,-264.5 250,-264.5"/>
<text text-anchor="middle" x="279.5" y="-271.5" font-family="Helvetica,sans-Serif" font-size="10.00" fill="#000000">bf_sincos</text>
</a>
</g>
</g>
<!-- Node617&#45;&gt;Node642 -->
<g id="edge54" class="edge">
<title>Node617&#45;&gt;Node642</title>
<path fill="none" stroke="#191970" d="M30.8748,-501.1978C38.4715,-451.7489 60.6679,-324.8933 92,-298 136.2018,-260.0603 209.2482,-263.1943 249.89,-268.6838"/>
<polygon fill="#191970" stroke="#191970" points="27.3876,-500.8522 29.3679,-511.2604 34.3104,-501.889 27.3876,-500.8522"/>
</g>
<!-- Node660 -->
<g id="node25" class="node">
<title>Node660</title>
<g id="a_node25"><a xlink:href="libbf_8c.html#afb959ebe491ad24167b5eff3b811f211" target="_top" xlink:title="bf_pow_int">
<polygon fill="none" stroke="#000000" points="247.5,-530.5 247.5,-549.5 311.5,-549.5 311.5,-530.5 247.5,-530.5"/>
<text text-anchor="middle" x="279.5" y="-537.5" font-family="Helvetica,sans-Serif" font-size="10.00" fill="#000000">bf_pow_int</text>
</a>
</g>
</g>
<!-- Node617&#45;&gt;Node660 -->
<g id="edge43" class="edge">
<title>Node617&#45;&gt;Node660</title>
<path fill="none" stroke="#191970" d="M66.3495,-523.8972C115.8226,-527.6347 201.0057,-534.07 247.2909,-537.5667"/>
<polygon fill="#191970" stroke="#191970" points="66.5966,-520.406 56.3614,-523.1426 66.0693,-527.3861 66.5966,-520.406"/>
</g>
<!-- Node661 -->
<g id="node26" class="node">
<title>Node661</title>
<g id="a_node26"><a xlink:href="libbf_8c.html#a3ae2be576639444cdfcb0a232471e77d" target="_top" xlink:title="bf_pow_ui">
<polygon fill="none" stroke="#000000" points="109.5,-492.5 109.5,-511.5 170.5,-511.5 170.5,-492.5 109.5,-492.5"/>
<text text-anchor="middle" x="140" y="-499.5" font-family="Helvetica,sans-Serif" font-size="10.00" fill="#000000">bf_pow_ui</text>
</a>
</g>
</g>
<!-- Node617&#45;&gt;Node661 -->
<g id="edge45" class="edge">
<title>Node617&#45;&gt;Node661</title>
<path fill="none" stroke="#191970" d="M66.1702,-514.5247C80.2664,-512.1334 96.0454,-509.4566 109.3863,-507.1934"/>
<polygon fill="#191970" stroke="#191970" points="65.5361,-511.0822 56.2623,-516.2055 66.7069,-517.9836 65.5361,-511.0822"/>
</g>
<!-- Node662 -->
<g id="node27" class="node">
<title>Node662</title>
<g id="a_node27"><a xlink:href="libbf_8c.html#a1ffacb0aed0dec6e3375c4de055bb8b8" target="_top" xlink:title="bf_pow_ui_ui">
<polygon fill="none" stroke="#ff0000" points="242.5,-416.5 242.5,-435.5 316.5,-435.5 316.5,-416.5 242.5,-416.5"/>
<text text-anchor="middle" x="279.5" y="-423.5" font-family="Helvetica,sans-Serif" font-size="10.00" fill="#000000">bf_pow_ui_ui</text>
</a>
</g>
</g>
<!-- Node617&#45;&gt;Node662 -->
<g id="edge51" class="edge">
<title>Node617&#45;&gt;Node662</title>
<path fill="none" stroke="#191970" d="M39.0997,-502.5616C50.2388,-485.8426 69.0171,-462.0311 92,-450 139.5374,-425.1151 202.8348,-422.2271 242.3706,-423.389"/>
<polygon fill="#191970" stroke="#191970" points="35.8641,-501.1272 33.4499,-511.4433 41.7704,-504.8843 35.8641,-501.1272"/>
</g>
<!-- Node665 -->
<g id="node28" class="node">
<title>Node665</title>
<g id="a_node28"><a xlink:href="libbf_8h.html#a60ee3eaad83309aaf8a8b8fb81d8b44d" target="_top" xlink:title="bf_set_si">
<polygon fill="none" stroke="#ff0000" points="112,-910.5 112,-929.5 168,-929.5 168,-910.5 112,-910.5"/>
<text text-anchor="middle" x="140" y="-917.5" font-family="Helvetica,sans-Serif" font-size="10.00" fill="#000000">bf_set_si</text>
</a>
</g>
</g>
<!-- Node617&#45;&gt;Node665 -->
<g id="edge52" class="edge">
<title>Node617&#45;&gt;Node665</title>
<path fill="none" stroke="#191970" d="M29.0605,-540.9493C33.0879,-610.1228 49.418,-838.5797 92,-896 96.9948,-902.7353 104.4103,-907.7012 111.927,-911.3093"/>
<polygon fill="#191970" stroke="#191970" points="32.5351,-540.3962 28.4824,-530.6072 25.5461,-540.787 32.5351,-540.3962"/>
</g>
<!-- Node675 -->
<g id="node29" class="node">
<title>Node675</title>
<g id="a_node29"><a xlink:href="libbf_8h.html#ae080fd42a2c7fc561d7084762204357e" target="_top" xlink:title="bf_sqrtrem">
<polygon fill="none" stroke="#ff0000" points="108.5,-38.5 108.5,-57.5 171.5,-57.5 171.5,-38.5 108.5,-38.5"/>
<text text-anchor="middle" x="140" y="-45.5" font-family="Helvetica,sans-Serif" font-size="10.00" fill="#000000">bf_sqrtrem</text>
</a>
</g>
</g>
<!-- Node617&#45;&gt;Node675 -->
<g id="edge55" class="edge">
<title>Node617&#45;&gt;Node675</title>
<path fill="none" stroke="#191970" d="M28.2242,-500.8834C29.4858,-422.1494 37.7874,-135.8563 92,-67 96.2136,-61.6482 102.1558,-57.7995 108.429,-55.0331"/>
<polygon fill="#191970" stroke="#191970" points="24.7187,-501.263 28.0803,-511.3103 31.718,-501.3596 24.7187,-501.263"/>
</g>
<!-- Node677 -->
<g id="node30" class="node">
<title>Node677</title>
<g id="a_node30"><a xlink:href="libbf_8c.html#a4f1865c8160fb851cce8015c3edb4d4f" target="_top" xlink:title="bf_tdivremu">
<polygon fill="none" stroke="#ff0000" points="106,-.5 106,-19.5 174,-19.5 174,-.5 106,-.5"/>
<text text-anchor="middle" x="140" y="-7.5" font-family="Helvetica,sans-Serif" font-size="10.00" fill="#000000">bf_tdivremu</text>
</a>
</g>
</g>
<!-- Node617&#45;&gt;Node677 -->
<g id="edge56" class="edge">
<title>Node617&#45;&gt;Node677</title>
<path fill="none" stroke="#191970" d="M29.4056,-501.0216C35.7184,-413.5464 62.4343,-66.9677 92,-29 95.6343,-24.3329 100.5851,-20.8094 105.932,-18.1501"/>
<polygon fill="#191970" stroke="#191970" points="25.9011,-500.9619 28.6803,-511.1857 32.8833,-501.4602 25.9011,-500.9619"/>
</g>
<!-- Node619&#45;&gt;Node620 -->
<g id="edge3" class="edge">
<title>Node619&#45;&gt;Node620</title>
<path fill="none" stroke="#191970" d="M295.3241,-788.6312C319.0527,-762.733 362.0345,-716.4392 371,-711 383.5755,-703.3707 399.397,-698.6488 412.2229,-695.8205"/>
<polygon fill="#191970" stroke="#191970" points="292.5276,-786.503 288.3641,-796.2455 297.6944,-791.2258 292.5276,-786.503"/>
</g>
<!-- Node619&#45;&gt;Node621 -->
<g id="edge4" class="edge">
<title>Node619&#45;&gt;Node621</title>
<path fill="none" stroke="#191970" d="M314.568,-792.4389C321.4992,-789.3159 328.6035,-785.7874 335,-782 352.4416,-771.6727 353.2961,-763.871 371,-754 384.0444,-746.7269 399.7281,-740.8344 412.3637,-736.7083"/>
<polygon fill="#191970" stroke="#191970" points="313.1034,-789.2588 305.3065,-796.4324 315.8751,-795.6867 313.1034,-789.2588"/>
</g>
<!-- Node622 -->
<g id="node6" class="node">
<title>Node622</title>
<g id="a_node6"><a xlink:href="libbf_8h.html#a9a518cd74072443dc50e179d2a9ea610" target="_top" xlink:title="bf_sin">
<polygon fill="none" stroke="#000000" points="414,-796.5 414,-815.5 457,-815.5 457,-796.5 414,-796.5"/>
<text text-anchor="middle" x="435.5" y="-803.5" font-family="Helvetica,sans-Serif" font-size="10.00" fill="#000000">bf_sin</text>
</a>
</g>
</g>
<!-- Node619&#45;&gt;Node622 -->
<g id="edge5" class="edge">
<title>Node619&#45;&gt;Node622</title>
<path fill="none" stroke="#191970" d="M330.9684,-806C359.0341,-806 392.3025,-806 413.6433,-806"/>
<polygon fill="#191970" stroke="#191970" points="330.8956,-802.5001 320.8956,-806 330.8955,-809.5001 330.8956,-802.5001"/>
</g>
<!-- Node623 -->
<g id="node7" class="node">
<title>Node623</title>
<g id="a_node7"><a xlink:href="libbf_8h.html#a3291f57ed40cdf116203afa57f73e91e" target="_top" xlink:title="bf_tan">
<polygon fill="none" stroke="#000000" points="413.5,-834.5 413.5,-853.5 457.5,-853.5 457.5,-834.5 413.5,-834.5"/>
<text text-anchor="middle" x="435.5" y="-841.5" font-family="Helvetica,sans-Serif" font-size="10.00" fill="#000000">bf_tan</text>
</a>
</g>
</g>
<!-- Node619&#45;&gt;Node623 -->
<g id="edge6" class="edge">
<title>Node619&#45;&gt;Node623</title>
<path fill="none" stroke="#191970" d="M328.5958,-817.9592C356.8858,-824.8504 391.0844,-833.1808 413.0556,-838.5328"/>
<polygon fill="#191970" stroke="#191970" points="329.4097,-814.5552 318.8654,-815.589 327.7529,-821.3563 329.4097,-814.5552"/>
</g>
<!-- Node619&#45;&gt;Node624 -->
<g id="edge7" class="edge">
<title>Node619&#45;&gt;Node624</title>
<path fill="none" stroke="#191970" d="M315.879,-819.6482C322.4464,-822.6883 329.0812,-826.164 335,-830 353.2142,-841.8049 352.1018,-852.3244 371,-863 383.2985,-869.9474 398.3806,-874.572 410.8674,-877.5175"/>
<polygon fill="#191970" stroke="#191970" points="316.962,-816.3022 306.3965,-815.5143 314.1646,-822.719 316.962,-816.3022"/>
</g>
<!-- Node619&#45;&gt;Node627 -->
<g id="edge9" class="edge">
<title>Node619&#45;&gt;Node627</title>
<path fill="none" stroke="#191970" d="M311.0852,-792.7464C356.1306,-776.0639 440.004,-753.4001 500,-787 548.9093,-814.391 572.0098,-884.4442 579.061,-910.2579"/>
<polygon fill="#191970" stroke="#191970" points="309.6407,-789.5518 301.5582,-796.4019 312.1484,-796.0872 309.6407,-789.5518"/>
</g>
<!-- Node624&#45;&gt;Node625 -->
<g id="edge8" class="edge">
<title>Node624&#45;&gt;Node625</title>
<path fill="none" stroke="#191970" d="M469.9095,-878.7312C480.8578,-876.0566 492.1499,-871.3218 500,-863 548.9369,-811.1225 575.3518,-573.2341 580.5446,-521.8166"/>
<polygon fill="#191970" stroke="#191970" points="469.2052,-875.3025 460.0601,-880.652 470.5451,-882.1731 469.2052,-875.3025"/>
</g>
<!-- Node628&#45;&gt;Node624 -->
<g id="edge14" class="edge">
<title>Node628&#45;&gt;Node624</title>
<path fill="none" stroke="#191970" d="M332.7832,-894.5104C359.1424,-891.3 389.7016,-887.578 410.5913,-885.0338"/>
<polygon fill="#191970" stroke="#191970" points="332.0441,-891.0744 322.5406,-895.7579 332.8905,-898.0231 332.0441,-891.0744"/>
</g>
<!-- Node629 -->
<g id="node12" class="node">
<title>Node629</title>
<g id="a_node12"><a xlink:href="libbf_8c.html#a4a0919b7e170befaf75d114d48d350cc" target="_top" xlink:title="bf_asin_internal">
<polygon fill="none" stroke="#000000" points="393,-910.5 393,-929.5 478,-929.5 478,-910.5 393,-910.5"/>
<text text-anchor="middle" x="435.5" y="-917.5" font-family="Helvetica,sans-Serif" font-size="10.00" fill="#000000">bf_asin_internal</text>
</a>
</g>
</g>
<!-- Node628&#45;&gt;Node629 -->
<g id="edge15" class="edge">
<title>Node628&#45;&gt;Node629</title>
<path fill="none" stroke="#191970" d="M332.576,-907.4644C352.2364,-909.8589 374.2575,-912.541 392.8699,-914.8079"/>
<polygon fill="#191970" stroke="#191970" points="332.8905,-903.9769 322.5406,-906.2421 332.0441,-910.9256 332.8905,-903.9769"/>
</g>
<!-- Node629&#45;&gt;Node618 -->
<g id="edge17" class="edge">
<title>Node629&#45;&gt;Node618</title>
<path fill="none" stroke="#191970" d="M469.3181,-933.203C496.1258,-943.669 532.9518,-958.0462 556.9832,-967.4284"/>
<polygon fill="#191970" stroke="#191970" points="470.5253,-929.917 459.9371,-929.5405 467.9795,-936.4377 470.5253,-929.917"/>
</g>
<!-- Node629&#45;&gt;Node627 -->
<g id="edge16" class="edge">
<title>Node629&#45;&gt;Node627</title>
<path fill="none" stroke="#191970" d="M488.3525,-920C511.9274,-920 538.5438,-920 557.2695,-920"/>
<polygon fill="#191970" stroke="#191970" points="488.1218,-916.5001 478.1217,-920 488.1217,-923.5001 488.1218,-916.5001"/>
</g>
<!-- Node630&#45;&gt;Node630 -->
<g id="edge19" class="edge">
<title>Node630&#45;&gt;Node630</title>
<path fill="none" stroke="#191970" d="M119.2603,-105.4C120.6454,-110.3146 127.5586,-114 140,-114 159.9063,-114 165.6604,-104.5653 157.2625,-95.7571"/>
<polygon fill="#191970" stroke="#191970" points="122.6378,-106.3514 122.7375,-95.7571 116.0528,-103.9768 122.6378,-106.3514"/>
</g>
<!-- Node633&#45;&gt;Node620 -->
<g id="edge24" class="edge">
<title>Node633&#45;&gt;Node620</title>
<path fill="none" stroke="#191970" d="M191.7397,-692C256.6589,-692 365.1945,-692 412.4001,-692"/>
<polygon fill="#191970" stroke="#191970" points="191.7112,-688.5001 181.7112,-692 191.7112,-695.5001 191.7112,-688.5001"/>
</g>
<!-- Node646&#45;&gt;Node646 -->
<g id="edge26" class="edge">
<title>Node646&#45;&gt;Node646</title>
<path fill="none" stroke="#191970" d="M408.2475,-434.6539C409.3867,-439.9368 418.4708,-444 435.5,-444 461.4492,-444 468.9502,-434.5653 458.0028,-425.7571"/>
<polygon fill="#191970" stroke="#191970" points="411.3752,-436.227 412.9972,-425.7571 405.2001,-432.9303 411.3752,-436.227"/>
</g>
<!-- Node652&#45;&gt;Node652 -->
<g id="edge28" class="edge">
<title>Node652&#45;&gt;Node652</title>
<path fill="none" stroke="#191970" d="M408.2475,-373.6539C409.3867,-378.9368 418.4708,-383 435.5,-383 461.4492,-383 468.9502,-373.5653 458.0028,-364.7571"/>
<polygon fill="#191970" stroke="#191970" points="411.3752,-375.227 412.9972,-364.7571 405.2001,-371.9303 411.3752,-375.227"/>
</g>
<!-- Node638&#45;&gt;Node635 -->
<g id="edge30" class="edge">
<title>Node638&#45;&gt;Node635</title>
<path fill="none" stroke="#191970" d="M310.641,-618.3157C318.7418,-615.3836 327.341,-611.894 335,-608 368.9896,-590.7187 405.1551,-563.8815 423.4284,-549.6399"/>
<polygon fill="#191970" stroke="#191970" points="309.4159,-615.0359 301.1038,-621.6054 311.6985,-621.6533 309.4159,-615.0359"/>
</g>
<!-- Node637&#45;&gt;Node638 -->
<g id="edge32" class="edge">
<title>Node637&#45;&gt;Node638</title>
<path fill="none" stroke="#191970" d="M190.3976,-644.6069C213.573,-640.2875 239.8438,-635.3911 257.8203,-632.0407"/>
<polygon fill="#191970" stroke="#191970" points="189.5386,-641.2066 180.3492,-646.4797 190.8212,-648.0881 189.5386,-641.2066"/>
</g>
<!-- Node658&#45;&gt;Node639 -->
<g id="edge37" class="edge">
<title>Node658&#45;&gt;Node639</title>
<path fill="none" stroke="#191970" d="M179.9694,-236C232.5956,-236 325.2319,-236 383.3285,-236"/>
<polygon fill="#191970" stroke="#191970" points="179.6867,-232.5001 169.6866,-236 179.6866,-239.5001 179.6867,-232.5001"/>
</g>
<!-- Node658&#45;&gt;Node659 -->
<g id="edge34" class="edge">
<title>Node658&#45;&gt;Node659</title>
<path fill="none" stroke="#191970" d="M173.5824,-222.5189C198.9883,-212.3201 233.2445,-198.5685 255.832,-189.5011"/>
<polygon fill="#191970" stroke="#191970" points="171.9572,-219.3998 163.9809,-226.3733 174.565,-225.8959 171.9572,-219.3998"/>
</g>
<!-- Node658&#45;&gt;Node636 -->
<g id="edge38" class="edge">
<title>Node658&#45;&gt;Node636</title>
<path fill="none" stroke="#191970" d="M142.8518,-255.6672C152.2702,-318.289 184.069,-511.6881 224,-559 227.2717,-562.8765 231.2677,-566.1781 235.6013,-568.9843"/>
<polygon fill="#191970" stroke="#191970" points="146.2825,-254.9411 141.3567,-245.561 139.3579,-255.9655 146.2825,-254.9411"/>
</g>
<!-- Node658&#45;&gt;Node642 -->
<g id="edge41" class="edge">
<title>Node658&#45;&gt;Node642</title>
<path fill="none" stroke="#191970" d="M179.4685,-246.7513C201.8683,-252.853 229.4386,-260.3632 249.9583,-265.9528"/>
<polygon fill="#191970" stroke="#191970" points="180.1527,-243.3102 169.5844,-244.0588 178.3129,-250.0641 180.1527,-243.3102"/>
</g>
<!-- Node659&#45;&gt;Node639 -->
<g id="edge36" class="edge">
<title>Node659&#45;&gt;Node639</title>
<path fill="none" stroke="#191970" d="M315.9284,-193.0769C344.4461,-203.314 383.4381,-217.3111 409.0326,-226.4989"/>
<polygon fill="#191970" stroke="#191970" points="316.9119,-189.7113 306.3174,-189.6267 314.5468,-196.2996 316.9119,-189.7113"/>
</g>
<!-- Node659&#45;&gt;Node659 -->
<g id="edge35" class="edge">
<title>Node659&#45;&gt;Node659</title>
<path fill="none" stroke="#191970" d="M253.8305,-199.0292C255.2307,-204.128 263.7872,-208 279.5,-208 304.0273,-208 311.1173,-198.5653 300.7698,-189.7571"/>
<polygon fill="#191970" stroke="#191970" points="257.1052,-200.292 258.2302,-189.7571 250.7811,-197.2911 257.1052,-200.292"/>
</g>
<!-- Node636&#45;&gt;Node620 -->
<g id="edge39" class="edge">
<title>Node636&#45;&gt;Node620</title>
<path fill="none" stroke="#191970" d="M325.7314,-603.6656C328.9197,-605.3739 332.0393,-607.1571 335,-609 371.117,-631.4815 408.3875,-665.7058 425.6391,-682.3012"/>
<polygon fill="#191970" stroke="#191970" points="327.1414,-600.4565 316.6387,-599.0624 323.9797,-606.7018 327.1414,-600.4565"/>
</g>
<!-- Node636&#45;&gt;Node635 -->
<g id="edge40" class="edge">
<title>Node636&#45;&gt;Node635</title>
<path fill="none" stroke="#191970" d="M342.5975,-566.2033C366.7567,-559.3891 392.897,-552.0162 411.2761,-546.8324"/>
<polygon fill="#191970" stroke="#191970" points="341.4244,-562.8975 332.75,-568.9808 343.3247,-569.6347 341.4244,-562.8975"/>
</g>
<!-- Node660&#45;&gt;Node635 -->
<g id="edge44" class="edge">
<title>Node660&#45;&gt;Node635</title>
<path fill="none" stroke="#191970" d="M321.9933,-540C350.7067,-540 387.5811,-540 411.3762,-540"/>
<polygon fill="#191970" stroke="#191970" points="321.8233,-536.5001 311.8233,-540 321.8233,-543.5001 321.8233,-536.5001"/>
</g>
<!-- Node661&#45;&gt;Node635 -->
<g id="edge50" class="edge">
<title>Node661&#45;&gt;Node635</title>
<path fill="none" stroke="#191970" d="M180.8882,-504.9109C220.4323,-507.979 281.9893,-513.4221 335,-521 361.1917,-524.7441 390.94,-530.5663 411.2321,-534.7792"/>
<polygon fill="#191970" stroke="#191970" points="181.0731,-501.4149 170.8361,-504.1454 180.5415,-508.3947 181.0731,-501.4149"/>
</g>
<!-- Node661&#45;&gt;Node660 -->
<g id="edge49" class="edge">
<title>Node661&#45;&gt;Node660</title>
<path fill="none" stroke="#191970" d="M180.3053,-512.9792C201.4915,-518.7504 227.1171,-525.7308 247.0148,-531.151"/>
<polygon fill="#191970" stroke="#191970" points="181.1822,-509.5906 170.6139,-510.3393 179.3424,-516.3445 181.1822,-509.5906"/>
</g>
<!-- Node661&#45;&gt;Node662 -->
<g id="edge46" class="edge">
<title>Node661&#45;&gt;Node662</title>
<path fill="none" stroke="#191970" d="M166.5328,-487.5449C194.5577,-472.2768 237.9443,-448.6397 261.9757,-435.5473"/>
<polygon fill="#191970" stroke="#191970" points="164.7747,-484.5169 157.6678,-492.3745 168.1236,-490.6639 164.7747,-484.5169"/>
</g>
<!-- Node662&#45;&gt;Node646 -->
<g id="edge47" class="edge">
<title>Node662&#45;&gt;Node646</title>
<path fill="none" stroke="#191970" d="M327.0611,-422.9512C340.8216,-422.0691 356.0813,-421.0909 370.7034,-420.1536"/>
<polygon fill="#191970" stroke="#191970" points="326.6215,-419.4721 316.8659,-423.6048 327.0693,-426.4578 326.6215,-419.4721"/>
</g>
<!-- Node662&#45;&gt;Node652 -->
<g id="edge48" class="edge">
<title>Node662&#45;&gt;Node652</title>
<path fill="none" stroke="#191970" d="M309.9408,-412.1455C340.775,-398.112 387.6467,-376.7794 414.5459,-364.5368"/>
<polygon fill="#191970" stroke="#191970" points="308.1907,-409.0966 300.5389,-416.4246 311.0904,-415.4677 308.1907,-409.0966"/>
</g>
<!-- Node665&#45;&gt;Node628 -->
<g id="edge53" class="edge">
<title>Node665&#45;&gt;Node628</title>
<path fill="none" stroke="#191970" d="M178.3748,-914.7733C196.3799,-912.321 217.9087,-909.3888 236.4655,-906.8613"/>
<polygon fill="#191970" stroke="#191970" points="177.6661,-911.3375 168.2299,-916.1551 178.6108,-918.2734 177.6661,-911.3375"/>
</g>
</g>
</svg>
        <g id="navigator" transform="translate(0 0)" fill="#404254">
                <rect fill="#f2f5e9" fill-opacity="0.5" stroke="#606060" stroke-width=".5" x="0" y="0" width="60" height="60"/>
                <use id="zoomplus" xlink:href="#zoomPlus" x="17" y="9" onmousedown="handleZoom(evt,'in')"/>
                <use id="zoomminus" xlink:href="#zoomMin" x="42" y="9" onmousedown="handleZoom(evt,'out')"/>
                <use id="reset" xlink:href="#resetDef" x="30" y="36" onmousedown="handleReset()"/>
                <g id="arrowUp" xlink:href="#dirArrow" transform="translate(30 24)" onmousedown="handlePan(0,-1)">
                  <use xlink:href="#rim" fill="#404040">
                        <set attributeName="fill" to="#808080" begin="arrowUp.mouseover" end="arrowUp.mouseout"/>
                  </use>
                  <path fill="none" stroke="white" stroke-width="1.5" d="M0,-3.0v7 M-2.5,-0.5L0,-3.0L2.5,-0.5"/>
                </g>
                <g id="arrowRight" xlink:href="#dirArrow" transform="rotate(90) translate(36 -43)" onmousedown="handlePan(1,0)">
                  <use xlink:href="#rim" fill="#404040">
                        <set attributeName="fill" to="#808080" begin="arrowRight.mouseover" end="arrowRight.mouseout"/>
                  </use>
                  <path fill="none" stroke="white" stroke-width="1.5" d="M0,-3.0v7 M-2.5,-0.5L0,-3.0L2.5,-0.5"/>
                </g>
                <g id="arrowDown" xlink:href="#dirArrow" transform="rotate(180) translate(-30 -48)" onmousedown="handlePan(0,1)">
                  <use xlink:href="#rim" fill="#404040">
                        <set attributeName="fill" to="#808080" begin="arrowDown.mouseover" end="arrowDown.mouseout"/>
                  </use>
                  <path fill="none" stroke="white" stroke-width="1.5" d="M0,-3.0v7 M-2.5,-0.5L0,-3.0L2.5,-0.5"/>
                </g>
                <g id="arrowLeft" xlink:href="#dirArrow" transform="rotate(270) translate(-36 17)" onmousedown="handlePan(-1,0)">
                  <use xlink:href="#rim" fill="#404040">
                        <set attributeName="fill" to="#808080" begin="arrowLeft.mouseover" end="arrowLeft.mouseout"/>
                  </use>
                  <path fill="none" stroke="white" stroke-width="1.5" d="M0,-3.0v7 M-2.5,-0.5L0,-3.0L2.5,-0.5"/>
                </g>
        </g>
        <svg viewBox="0 0 15 15" width="100%" height="30px" preserveAspectRatio="xMaxYMin meet">
         <g id="arrow_out" transform="scale(0.3 0.3)">
          <a xlink:href="libbf_8c_a2378f025beace5741c19bf995c2971d3_icgraph_org.svg" target="_base">
           <rect id="button" ry="5" rx="5" y="6" x="6" height="38" width="38"
                fill="#f2f5e9" fill-opacity="0.5" stroke="#606060" stroke-width="1.0"/>
           <path id="arrow"
             d="M 11.500037,31.436501 C 11.940474,20.09759 22.043105,11.32322 32.158766,21.979434 L 37.068811,17.246167 C 37.068811,17.246167 37.088388,32 37.088388,32 L 22.160133,31.978069 C 22.160133,31.978069 26.997745,27.140456 26.997745,27.140456 C 18.528582,18.264221 13.291696,25.230495 11.500037,31.436501 z"
             style="fill:#404040;"/>
          </a>
         </g>
        </svg>
</svg>
