<?xml version="1.0" encoding="UTF-8" standalone="no"?>
<!DOCTYPE svg PUBLIC "-//W3C//DTD SVG 1.1//EN"
 "http://www.w3.org/Graphics/SVG/1.1/DTD/svg11.dtd">
<!-- Generated by graphviz version 2.40.1 (20161225.0304)
 -->
<!-- Title: bf_sqrtrem Pages: 1 -->
<!--zoomable 861 -->
<svg id="main" version="1.1" xmlns="http://www.w3.org/2000/svg" xmlns:xlink="http://www.w3.org/1999/xlink" xml:space="preserve" onload="init(evt)">
<style type="text/css"><![CDATA[
.edge:hover path { stroke: red; }
.edge:hover polygon { stroke: red; fill: red; }
]]></style>
<script type="text/javascript"><![CDATA[
var edges = document.getElementsByTagName('g');
if (edges && edges.length) {
  for (var i=0;i<edges.length;i++) {
    if (edges[i].id.substr(0,4)=='edge') {
      edges[i].setAttribute('class','edge');
    }
  }
}
]]></script>
        <defs>
                <circle id="rim" cx="0" cy="0" r="7"/>
                <circle id="rim2" cx="0" cy="0" r="3.5"/>
                <g id="zoomPlus">
                        <use xlink:href="#rim" fill="#404040">
                                <set attributeName="fill" to="#808080" begin="zoomplus.mouseover" end="zoomplus.mouseout"/>
                        </use>
                        <path d="M-4,0h8M0,-4v8" fill="none" stroke="white" stroke-width="1.5" pointer-events="none"/>
                </g>
                <g id="zoomMin">
                        <use xlink:href="#rim" fill="#404040">
                                <set attributeName="fill" to="#808080" begin="zoomminus.mouseover" end="zoomminus.mouseout"/>
                        </use>
                        <path d="M-4,0h8" fill="none" stroke="white" stroke-width="1.5" pointer-events="none"/>
                </g>
                <g id="dirArrow">
                        <path fill="none" stroke="white" stroke-width="1.5" d="M0,-3.0v7 M-2.5,-0.5L0,-3.0L2.5,-0.5"/>
                </g>
               <g id="resetDef">
                       <use xlink:href="#rim2" fill="#404040">
                               <set attributeName="fill" to="#808080" begin="reset.mouseover" end="reset.mouseout"/>
                       </use>
               </g>
        </defs>

<script type="text/javascript">
var viewWidth = 731;
var viewHeight = 861;
var sectionId = 'dynsection-116';
</script>
<script xlink:href="svgpan.js"/>
<svg id="graph" class="graph">
<g id="viewport">
<title>bf_sqrtrem</title>
<!-- Node4562 -->
<g id="node1" class="node">
<title>Node4562</title>
<polygon fill="#bfbfbf" stroke="#000000" points="0,-355.4709 0,-374.4709 63,-374.4709 63,-355.4709 0,-355.4709"/>
<text text-anchor="middle" x="31.5" y="-362.4709" font-family="Helvetica,sans-Serif" font-size="10.00" fill="#000000">bf_sqrtrem</text>
</g>
<!-- Node4563 -->
<g id="node2" class="node">
<title>Node4563</title>
<g id="a_node2"><a xlink:href="libbf_8h.html#a17dc09166f82ffa408f54a2edc4d7855" target="_top" xlink:title="bf_add">
<polygon fill="none" stroke="#000000" points="105.5,-431.4709 105.5,-450.4709 151.5,-450.4709 151.5,-431.4709 105.5,-431.4709"/>
<text text-anchor="middle" x="128.5" y="-438.4709" font-family="Helvetica,sans-Serif" font-size="10.00" fill="#000000">bf_add</text>
</a>
</g>
</g>
<!-- Node4562&#45;&gt;Node4563 -->
<g id="edge1" class="edge">
<title>Node4562&#45;&gt;Node4563</title>
<path fill="none" stroke="#191970" d="M43.7851,-374.5963C60.0383,-387.3308 88.8981,-409.9426 108.3622,-425.1928"/>
<polygon fill="#191970" stroke="#191970" points="106.2844,-428.0111 116.3146,-431.4236 110.6016,-422.501 106.2844,-428.0111"/>
</g>
<!-- Node4565 -->
<g id="node4" class="node">
<title>Node4565</title>
<g id="a_node4"><a xlink:href="libbf_8h.html#abacc1410890af049e02ebd788364ac48" target="_top" xlink:title="bf_init">
<polygon fill="none" stroke="#000000" points="444.5,-735.4709 444.5,-754.4709 487.5,-754.4709 487.5,-735.4709 444.5,-735.4709"/>
<text text-anchor="middle" x="466" y="-742.4709" font-family="Helvetica,sans-Serif" font-size="10.00" fill="#000000">bf_init</text>
</a>
</g>
</g>
<!-- Node4562&#45;&gt;Node4565 -->
<g id="edge25" class="edge">
<title>Node4562&#45;&gt;Node4565</title>
<path fill="none" stroke="#191970" d="M37.0934,-374.4747C47.822,-392.2936 72.5814,-431.4913 99,-459.9709 219.203,-589.5515 257.3018,-616.8877 405,-713.9709 414.4786,-720.2012 425.3727,-726.0966 435.3077,-731.0401"/>
<polygon fill="#191970" stroke="#191970" points="433.9353,-734.2642 444.4616,-735.4679 436.9835,-727.9627 433.9353,-734.2642"/>
</g>
<!-- Node4589 -->
<g id="node14" class="node">
<title>Node4589</title>
<g id="a_node14"><a xlink:href="libbf_8h.html#ae019ee8073f4359da157d3b1e5fdba7e" target="_top" xlink:title="bf_set">
<polygon fill="none" stroke="#000000" points="444,-279.4709 444,-298.4709 488,-298.4709 488,-279.4709 444,-279.4709"/>
<text text-anchor="middle" x="466" y="-286.4709" font-family="Helvetica,sans-Serif" font-size="10.00" fill="#000000">bf_set</text>
</a>
</g>
</g>
<!-- Node4562&#45;&gt;Node4589 -->
<g id="edge42" class="edge">
<title>Node4562&#45;&gt;Node4589</title>
<path fill="none" stroke="#191970" d="M63.0982,-359.4439C143.0887,-345.4525 352.9604,-308.743 433.7024,-294.6201"/>
<polygon fill="#191970" stroke="#191970" points="434.5261,-298.0293 443.7735,-292.8586 433.32,-291.134 434.5261,-298.0293"/>
</g>
<!-- Node4587 -->
<g id="node15" class="node">
<title>Node4587</title>
<g id="a_node15"><a xlink:href="libbf_8h.html#aa6282c789c16c8cf2fe6a8ebd671c6fc" target="_top" xlink:title="bf_set_nan">
<polygon fill="none" stroke="#000000" points="563,-431.4709 563,-450.4709 628,-450.4709 628,-431.4709 563,-431.4709"/>
<text text-anchor="middle" x="595.5" y="-438.4709" font-family="Helvetica,sans-Serif" font-size="10.00" fill="#000000">bf_set_nan</text>
</a>
</g>
</g>
<!-- Node4562&#45;&gt;Node4587 -->
<g id="edge43" class="edge">
<title>Node4562&#45;&gt;Node4587</title>
<path fill="none" stroke="#191970" d="M33.5869,-374.4867C47.4981,-436.7062 129.0907,-782.9709 222,-782.9709 222,-782.9709 222,-782.9709 327.5,-782.9709 416.5679,-782.9709 462.1083,-824.9804 527,-763.9709 564.3712,-728.8354 550.6521,-585.7568 563,-535.9709 569.6607,-509.1154 580.5562,-479.0401 587.8743,-460.0624"/>
<polygon fill="#191970" stroke="#191970" points="591.2257,-461.103 591.6165,-450.5154 584.7084,-458.5484 591.2257,-461.103"/>
</g>
<!-- Node4592 -->
<g id="node18" class="node">
<title>Node4592</title>
<g id="a_node18"><a xlink:href="libbf_8h.html#a2b9d906b21e903f2f7f1c9044674ab7d" target="_top" xlink:title="bf_delete">
<polygon fill="none" stroke="#000000" points="194,-13.4709 194,-32.4709 250,-32.4709 250,-13.4709 194,-13.4709"/>
<text text-anchor="middle" x="222" y="-20.4709" font-family="Helvetica,sans-Serif" font-size="10.00" fill="#000000">bf_delete</text>
</a>
</g>
</g>
<!-- Node4562&#45;&gt;Node4592 -->
<g id="edge23" class="edge">
<title>Node4562&#45;&gt;Node4592</title>
<path fill="none" stroke="#191970" d="M36.0499,-355.3525C45.5072,-336.1678 68.9342,-292.6177 99,-264.9709 121.1162,-244.634 139.1314,-255.3523 158,-231.9709 161.0875,-228.1449 201.137,-93.4825 216.2659,-42.3757"/>
<polygon fill="#191970" stroke="#191970" points="219.6891,-43.1421 219.1692,-32.5601 212.9765,-41.1566 219.6891,-43.1421"/>
</g>
<!-- Node4593 -->
<g id="node19" class="node">
<title>Node4593</title>
<g id="a_node19"><a xlink:href="libbf_8h.html#a3d010062b7a451656d79e48df9c0639e" target="_top" xlink:title="bf_is_nan">
<polygon fill="none" stroke="#000000" points="99,-203.4709 99,-222.4709 158,-222.4709 158,-203.4709 99,-203.4709"/>
<text text-anchor="middle" x="128.5" y="-210.4709" font-family="Helvetica,sans-Serif" font-size="10.00" fill="#000000">bf_is_nan</text>
</a>
</g>
</g>
<!-- Node4562&#45;&gt;Node4593 -->
<g id="edge26" class="edge">
<title>Node4562&#45;&gt;Node4593</title>
<path fill="none" stroke="#191970" d="M35.0758,-355.1931C43.6344,-332.6608 66.9909,-276.0266 99,-236.9709 101.1763,-234.3155 103.6856,-231.7486 106.3029,-229.3439"/>
<polygon fill="#191970" stroke="#191970" points="108.8313,-231.7918 114.2535,-222.6896 104.3385,-226.4238 108.8313,-231.7918"/>
</g>
<!-- Node4594 -->
<g id="node20" class="node">
<title>Node4594</title>
<g id="a_node20"><a xlink:href="libbf_8h.html#ac290278d0c37a0e7786873f98aadba47" target="_top" xlink:title="bf_mul">
<polygon fill="none" stroke="#000000" points="304.5,-526.4709 304.5,-545.4709 350.5,-545.4709 350.5,-526.4709 304.5,-526.4709"/>
<text text-anchor="middle" x="327.5" y="-533.4709" font-family="Helvetica,sans-Serif" font-size="10.00" fill="#000000">bf_mul</text>
</a>
</g>
</g>
<!-- Node4562&#45;&gt;Node4594 -->
<g id="edge27" class="edge">
<title>Node4562&#45;&gt;Node4594</title>
<path fill="none" stroke="#191970" d="M63.2014,-371.942C120.0053,-384.6226 234.6644,-411.1504 250,-421.9709 284.545,-446.3451 308.3186,-491.3669 319.7365,-516.9321"/>
<polygon fill="#191970" stroke="#191970" points="316.5899,-518.4751 323.748,-526.2861 323.0232,-515.7161 316.5899,-518.4751"/>
</g>
<!-- Node4622 -->
<g id="node23" class="node">
<title>Node4622</title>
<g id="a_node23"><a xlink:href="libbf_8h.html#aa561bc5220ec0489f4d3e59789d43d26" target="_top" xlink:title="bf_neg">
<polygon fill="none" stroke="#000000" points="105.5,-165.4709 105.5,-184.4709 151.5,-184.4709 151.5,-165.4709 105.5,-165.4709"/>
<text text-anchor="middle" x="128.5" y="-172.4709" font-family="Helvetica,sans-Serif" font-size="10.00" fill="#000000">bf_neg</text>
</a>
</g>
</g>
<!-- Node4562&#45;&gt;Node4622 -->
<g id="edge39" class="edge">
<title>Node4562&#45;&gt;Node4622</title>
<path fill="none" stroke="#191970" d="M33.1361,-355.4098C38.2966,-327.6576 56.4767,-245.7795 99,-193.9709 99.8261,-192.9643 100.72,-191.9934 101.6644,-191.0592"/>
<polygon fill="#191970" stroke="#191970" points="104.0365,-193.6423 109.6127,-184.6336 99.6357,-188.1987 104.0365,-193.6423"/>
</g>
<!-- Node4623 -->
<g id="node24" class="node">
<title>Node4623</title>
<g id="a_node24"><a xlink:href="libbf_8h.html#aaf7d6961c71cf6614ec51fd78755a031" target="_top" xlink:title="bf_rint">
<polygon fill="none" stroke="#000000" points="200,-127.4709 200,-146.4709 244,-146.4709 244,-127.4709 200,-127.4709"/>
<text text-anchor="middle" x="222" y="-134.4709" font-family="Helvetica,sans-Serif" font-size="10.00" fill="#000000">bf_rint</text>
</a>
</g>
</g>
<!-- Node4562&#45;&gt;Node4623 -->
<g id="edge40" class="edge">
<title>Node4562&#45;&gt;Node4623</title>
<path fill="none" stroke="#191970" d="M44.0224,-355.3084C75.0784,-331.3135 153.4738,-270.5365 158,-264.9709 185.6927,-230.9182 205.6425,-182.9089 215.3483,-156.4214"/>
<polygon fill="#191970" stroke="#191970" points="218.7197,-157.3864 218.7701,-146.7917 212.1237,-155.0426 218.7197,-157.3864"/>
</g>
<!-- Node4625 -->
<g id="node26" class="node">
<title>Node4625</title>
<g id="a_node26"><a xlink:href="libbf_8h.html#a2378f025beace5741c19bf995c2971d3" target="_top" xlink:title="bf_set_ui">
<polygon fill="none" stroke="#000000" points="438,-811.4709 438,-830.4709 494,-830.4709 494,-811.4709 438,-811.4709"/>
<text text-anchor="middle" x="466" y="-818.4709" font-family="Helvetica,sans-Serif" font-size="10.00" fill="#000000">bf_set_ui</text>
</a>
</g>
</g>
<!-- Node4562&#45;&gt;Node4625 -->
<g id="edge44" class="edge">
<title>Node4562&#45;&gt;Node4625</title>
<path fill="none" stroke="#191970" d="M32.2787,-374.4709C37.3447,-435.1776 66.4332,-767.2015 99,-796.9709 190.4857,-880.5979 354.2486,-851.1993 428.0728,-832.1006"/>
<polygon fill="#191970" stroke="#191970" points="429.1151,-835.445 437.8759,-829.4868 427.3117,-828.6813 429.1151,-835.445"/>
</g>
<!-- Node4626 -->
<g id="node27" class="node">
<title>Node4626</title>
<g id="a_node27"><a xlink:href="libbf_8h.html#a1a8b9ac1fea38b97fc6be8663ce9e867" target="_top" xlink:title="bf_sqrt">
<polygon fill="none" stroke="#000000" points="304,-184.4709 304,-203.4709 351,-203.4709 351,-184.4709 304,-184.4709"/>
<text text-anchor="middle" x="327.5" y="-191.4709" font-family="Helvetica,sans-Serif" font-size="10.00" fill="#000000">bf_sqrt</text>
</a>
</g>
</g>
<!-- Node4562&#45;&gt;Node4626 -->
<g id="edge48" class="edge">
<title>Node4562&#45;&gt;Node4626</title>
<path fill="none" stroke="#191970" d="M52.4447,-355.3696C77.8234,-343.5472 121.6945,-322.5025 158,-301.9709 211.9052,-271.4862 272.536,-231.3612 304.6578,-209.6151"/>
<polygon fill="#191970" stroke="#191970" points="306.9998,-212.2553 313.303,-203.7395 303.065,-206.4659 306.9998,-212.2553"/>
</g>
<!-- Node4564 -->
<g id="node3" class="node">
<title>Node4564</title>
<g id="a_node3"><a xlink:href="libbf_8c.html#a3ebbc1c7473b2ad84ced2b263bf38bae" target="_top" xlink:title="bf_op2">
<polygon fill="none" stroke="#000000" points="304.5,-564.4709 304.5,-583.4709 350.5,-583.4709 350.5,-564.4709 304.5,-564.4709"/>
<text text-anchor="middle" x="327.5" y="-571.4709" font-family="Helvetica,sans-Serif" font-size="10.00" fill="#000000">bf_op2</text>
</a>
</g>
</g>
<!-- Node4563&#45;&gt;Node4564 -->
<g id="edge2" class="edge">
<title>Node4563&#45;&gt;Node4564</title>
<path fill="none" stroke="#191970" d="M140.1997,-450.6898C165.6215,-471.5196 228.265,-521.3027 286,-554.9709 288.875,-556.6474 291.9236,-558.2852 295.0116,-559.8519"/>
<polygon fill="#191970" stroke="#191970" points="293.7309,-563.1199 304.2591,-564.3063 296.7686,-556.8133 293.7309,-563.1199"/>
</g>
<!-- Node4569 -->
<g id="node8" class="node">
<title>Node4569</title>
<g id="a_node8"><a xlink:href="libbf_8c.html#a951a1d3ebb338129d86e00f51b47f2ee" target="_top" xlink:title="__bf_add">
<polygon fill="none" stroke="#000000" points="194,-431.4709 194,-450.4709 250,-450.4709 250,-431.4709 194,-431.4709"/>
<text text-anchor="middle" x="222" y="-438.4709" font-family="Helvetica,sans-Serif" font-size="10.00" fill="#000000">__bf_add</text>
</a>
</g>
</g>
<!-- Node4563&#45;&gt;Node4569 -->
<g id="edge7" class="edge">
<title>Node4563&#45;&gt;Node4569</title>
<path fill="none" stroke="#191970" d="M151.6124,-440.9709C161.2839,-440.9709 172.7871,-440.9709 183.6622,-440.9709"/>
<polygon fill="#191970" stroke="#191970" points="183.8162,-444.471 193.8162,-440.9709 183.8161,-437.471 183.8162,-444.471"/>
</g>
<!-- Node4564&#45;&gt;Node4565 -->
<g id="edge3" class="edge">
<title>Node4564&#45;&gt;Node4565</title>
<path fill="none" stroke="#191970" d="M331.5621,-583.6979C344.0193,-613.1474 382.2162,-700.5718 405,-720.9709 413.3528,-728.4494 424.3105,-733.7263 434.6311,-737.3885"/>
<polygon fill="#191970" stroke="#191970" points="433.6352,-740.7443 444.2252,-740.424 435.7469,-734.0704 433.6352,-740.7443"/>
</g>
<!-- Node4566 -->
<g id="node5" class="node">
<title>Node4566</title>
<g id="a_node5"><a xlink:href="libbf_8h.html#ad7ab5aff92f4e7e10b2a30e0e6b9226d" target="_top" xlink:title="bf_move">
<polygon fill="none" stroke="#000000" points="439,-545.4709 439,-564.4709 493,-564.4709 493,-545.4709 439,-545.4709"/>
<text text-anchor="middle" x="466" y="-552.4709" font-family="Helvetica,sans-Serif" font-size="10.00" fill="#000000">bf_move</text>
</a>
</g>
</g>
<!-- Node4564&#45;&gt;Node4566 -->
<g id="edge4" class="edge">
<title>Node4564&#45;&gt;Node4566</title>
<path fill="none" stroke="#191970" d="M350.6818,-570.7907C371.9742,-567.8697 403.9008,-563.4899 428.7661,-560.0788"/>
<polygon fill="#191970" stroke="#191970" points="429.5072,-563.51 438.9387,-558.6832 428.5558,-556.5749 429.5072,-563.51"/>
</g>
<!-- Node4567 -->
<g id="node6" class="node">
<title>Node4567</title>
<g id="a_node6"><a xlink:href="libbf_8h.html#ab8c991bf0d1ab72d676d3c9c3d63c2a7" target="_top" xlink:title="bf_free">
<polygon fill="none" stroke="#000000" points="572,-70.4709 572,-89.4709 619,-89.4709 619,-70.4709 572,-70.4709"/>
<text text-anchor="middle" x="595.5" y="-77.4709" font-family="Helvetica,sans-Serif" font-size="10.00" fill="#000000">bf_free</text>
</a>
</g>
</g>
<!-- Node4566&#45;&gt;Node4567 -->
<g id="edge5" class="edge">
<title>Node4566&#45;&gt;Node4567</title>
<path fill="none" stroke="#191970" d="M493.2605,-552.9013C505.313,-550.5539 518.623,-545.7372 527,-535.9709 555.9962,-502.1658 586.342,-182.5645 593.7807,-99.5795"/>
<polygon fill="#191970" stroke="#191970" points="597.2779,-99.765 594.6758,-89.4947 590.3053,-99.1461 597.2779,-99.765"/>
</g>
<!-- Node4568 -->
<g id="node7" class="node">
<title>Node4568</title>
<g id="a_node7"><a xlink:href="libbf_8h.html#a524c9e60866c08c75061626a4b5e2f29" target="_top" xlink:title="bf_realloc">
<polygon fill="none" stroke="#000000" points="664,-32.4709 664,-51.4709 723,-51.4709 723,-32.4709 664,-32.4709"/>
<text text-anchor="middle" x="693.5" y="-39.4709" font-family="Helvetica,sans-Serif" font-size="10.00" fill="#000000">bf_realloc</text>
</a>
</g>
</g>
<!-- Node4567&#45;&gt;Node4568 -->
<g id="edge6" class="edge">
<title>Node4567&#45;&gt;Node4568</title>
<path fill="none" stroke="#191970" d="M619.2231,-70.7721C631.3482,-66.0705 646.317,-60.2663 659.6326,-55.1031"/>
<polygon fill="#191970" stroke="#191970" points="660.9137,-58.3603 668.972,-51.4817 658.383,-51.8338 660.9137,-58.3603"/>
</g>
<!-- Node4570 -->
<g id="node9" class="node">
<title>Node4570</title>
<g id="a_node9"><a xlink:href="libbf_8c.html#aaebd1df91497246cd81f23918af58d33" target="_top" xlink:title="bf_add_internal">
<polygon fill="none" stroke="#ff0000" points="286,-412.4709 286,-431.4709 369,-431.4709 369,-412.4709 286,-412.4709"/>
<text text-anchor="middle" x="327.5" y="-419.4709" font-family="Helvetica,sans-Serif" font-size="10.00" fill="#000000">bf_add_internal</text>
</a>
</g>
</g>
<!-- Node4569&#45;&gt;Node4570 -->
<g id="edge8" class="edge">
<title>Node4569&#45;&gt;Node4570</title>
<path fill="none" stroke="#191970" d="M250.2721,-435.8792C258.1657,-434.4576 266.999,-432.8668 275.7936,-431.2829"/>
<polygon fill="#191970" stroke="#191970" points="276.4332,-434.7241 285.6544,-429.507 275.1924,-427.8349 276.4332,-434.7241"/>
</g>
<!-- Node4574 -->
<g id="node10" class="node">
<title>Node4574</title>
<g id="a_node10"><a xlink:href="libbf_8h.html#a970a1725f8bc59eda655058c5ff6bc52" target="_top" xlink:title="bf_min">
<polygon fill="none" stroke="#000000" points="443,-355.4709 443,-374.4709 489,-374.4709 489,-355.4709 443,-355.4709"/>
<text text-anchor="middle" x="466" y="-362.4709" font-family="Helvetica,sans-Serif" font-size="10.00" fill="#000000">bf_min</text>
</a>
</g>
</g>
<!-- Node4570&#45;&gt;Node4574 -->
<g id="edge9" class="edge">
<title>Node4570&#45;&gt;Node4574</title>
<path fill="none" stroke="#191970" d="M349.4797,-412.4199C364.9576,-405.7414 386.1892,-396.6745 405,-388.9709 414.1262,-385.2334 424.0635,-381.2762 433.2171,-377.6763"/>
<polygon fill="#191970" stroke="#191970" points="434.7309,-380.8424 442.7667,-373.9375 432.1789,-374.3241 434.7309,-380.8424"/>
</g>
<!-- Node4575 -->
<g id="node11" class="node">
<title>Node4575</title>
<g id="a_node11"><a xlink:href="libbf_8h.html#ae822c0888d26739bb681dfef282b9150" target="_top" xlink:title="bf_normalize_and_round">
<polygon fill="none" stroke="#ff0000" points="405,-507.4709 405,-526.4709 527,-526.4709 527,-507.4709 405,-507.4709"/>
<text text-anchor="middle" x="466" y="-514.4709" font-family="Helvetica,sans-Serif" font-size="10.00" fill="#000000">bf_normalize_and_round</text>
</a>
</g>
</g>
<!-- Node4570&#45;&gt;Node4575 -->
<g id="edge10" class="edge">
<title>Node4570&#45;&gt;Node4575</title>
<path fill="none" stroke="#191970" d="M334.7633,-431.6174C347.342,-447.6714 374.7526,-479.8894 405,-497.9709 408.5881,-500.1158 412.4418,-502.0409 416.4051,-503.7646"/>
<polygon fill="#191970" stroke="#191970" points="415.1904,-507.0476 425.7784,-507.4292 417.7393,-500.5281 415.1904,-507.0476"/>
</g>
<!-- Node4576 -->
<g id="node12" class="node">
<title>Node4576</title>
<g id="a_node12"><a xlink:href="libbf_8h.html#ab51c43b22c1a81c789ee0e3d53c0e585" target="_top" xlink:title="bf_resize">
<polygon fill="none" stroke="#000000" points="665.5,-450.4709 665.5,-469.4709 721.5,-469.4709 721.5,-450.4709 665.5,-450.4709"/>
<text text-anchor="middle" x="693.5" y="-457.4709" font-family="Helvetica,sans-Serif" font-size="10.00" fill="#000000">bf_resize</text>
</a>
</g>
</g>
<!-- Node4570&#45;&gt;Node4576 -->
<g id="edge13" class="edge">
<title>Node4570&#45;&gt;Node4576</title>
<path fill="none" stroke="#191970" d="M336.9669,-412.3068C356.6826,-392.2337 400.6823,-347.7346 405,-345.9709 455.1956,-325.4659 475.0327,-330.4969 527,-345.9709 589.3407,-364.5336 648.8367,-416.1376 676.8212,-443.0899"/>
<polygon fill="#191970" stroke="#191970" points="674.5721,-445.7867 684.1598,-450.2954 679.4764,-440.7918 674.5721,-445.7867"/>
</g>
<!-- Node4570&#45;&gt;Node4589 -->
<g id="edge14" class="edge">
<title>Node4570&#45;&gt;Node4589</title>
<path fill="none" stroke="#191970" d="M338.2147,-412.4105C347.123,-404.1207 359.7875,-391.5136 369,-378.9709 388.7795,-352.0411 379.9492,-335.0819 405,-312.9709 413.3409,-305.6087 424.2068,-300.3696 434.4529,-296.7056"/>
<polygon fill="#191970" stroke="#191970" points="435.5253,-300.0373 443.9839,-293.6574 433.393,-293.37 435.5253,-300.0373"/>
</g>
<!-- Node4570&#45;&gt;Node4587 -->
<g id="edge20" class="edge">
<title>Node4570&#45;&gt;Node4587</title>
<path fill="none" stroke="#191970" d="M369.3702,-418.7032C409.8916,-416.3091 472.9477,-414.6134 527,-421.9709 537.272,-423.369 548.1781,-425.8953 558.1963,-428.6589"/>
<polygon fill="#191970" stroke="#191970" points="557.2826,-432.0381 567.8621,-431.4685 559.2365,-425.3163 557.2826,-432.0381"/>
</g>
<!-- Node4586 -->
<g id="node16" class="node">
<title>Node4586</title>
<g id="a_node16"><a xlink:href="libbf_8h.html#a88d3dcee173f1e4fd4e55000edb04595" target="_top" xlink:title="bf_set_inf">
<polygon fill="none" stroke="#000000" points="436.5,-469.4709 436.5,-488.4709 495.5,-488.4709 495.5,-469.4709 436.5,-469.4709"/>
<text text-anchor="middle" x="466" y="-476.4709" font-family="Helvetica,sans-Serif" font-size="10.00" fill="#000000">bf_set_inf</text>
</a>
</g>
</g>
<!-- Node4570&#45;&gt;Node4586 -->
<g id="edge18" class="edge">
<title>Node4570&#45;&gt;Node4586</title>
<path fill="none" stroke="#191970" d="M345.0017,-431.518C360.4842,-439.7285 383.8382,-451.5452 405,-459.9709 411.8724,-462.7071 419.3037,-465.3071 426.5363,-467.6562"/>
<polygon fill="#191970" stroke="#191970" points="425.6155,-471.0355 436.2048,-470.6931 427.7133,-464.3572 425.6155,-471.0355"/>
</g>
<!-- Node4588 -->
<g id="node17" class="node">
<title>Node4588</title>
<g id="a_node17"><a xlink:href="libbf_8h.html#a66631c65c00e92a5840a5085a009602d" target="_top" xlink:title="bf_set_zero">
<polygon fill="none" stroke="#000000" points="432,-431.4709 432,-450.4709 500,-450.4709 500,-431.4709 432,-431.4709"/>
<text text-anchor="middle" x="466" y="-438.4709" font-family="Helvetica,sans-Serif" font-size="10.00" fill="#000000">bf_set_zero</text>
</a>
</g>
</g>
<!-- Node4570&#45;&gt;Node4588 -->
<g id="edge21" class="edge">
<title>Node4570&#45;&gt;Node4588</title>
<path fill="none" stroke="#191970" d="M369.0546,-427.6715C385.6827,-429.9526 404.8616,-432.5836 421.7494,-434.9004"/>
<polygon fill="#191970" stroke="#191970" points="421.5421,-438.4046 431.9251,-436.2963 422.4936,-431.4696 421.5421,-438.4046"/>
</g>
<!-- Node4575&#45;&gt;Node4576 -->
<g id="edge11" class="edge">
<title>Node4575&#45;&gt;Node4576</title>
<path fill="none" stroke="#191970" d="M517.0645,-507.4526C549.1343,-501.1022 591.2397,-492.0816 628,-481.9709 637.7003,-479.3028 648.0747,-476.0217 657.6404,-472.8156"/>
<polygon fill="#191970" stroke="#191970" points="658.923,-476.0762 667.254,-469.5305 656.6595,-469.4522 658.923,-476.0762"/>
</g>
<!-- Node4577 -->
<g id="node13" class="node">
<title>Node4577</title>
<g id="a_node13"><a xlink:href="libbf_8c.html#a3ac3b86cc31b99a551947240e979c5d7" target="_top" xlink:title="clz">
<polygon fill="none" stroke="#ff0000" points="581,-545.4709 581,-564.4709 610,-564.4709 610,-545.4709 581,-545.4709"/>
<text text-anchor="middle" x="595.5" y="-552.4709" font-family="Helvetica,sans-Serif" font-size="10.00" fill="#000000">clz</text>
</a>
</g>
</g>
<!-- Node4575&#45;&gt;Node4577 -->
<g id="edge12" class="edge">
<title>Node4575&#45;&gt;Node4577</title>
<path fill="none" stroke="#191970" d="M498.6783,-526.5599C521.1381,-533.1504 550.4855,-541.762 570.9576,-547.7692"/>
<polygon fill="#191970" stroke="#191970" points="570.1899,-551.1915 580.7708,-550.6488 572.1609,-544.4747 570.1899,-551.1915"/>
</g>
<!-- Node4589&#45;&gt;Node4576 -->
<g id="edge15" class="edge">
<title>Node4589&#45;&gt;Node4576</title>
<path fill="none" stroke="#191970" d="M488.1736,-286.011C521.9383,-282.7574 586.6722,-281.5955 628,-312.9709 669.405,-344.4048 685.2234,-407.7984 690.7761,-440.0897"/>
<polygon fill="#191970" stroke="#191970" points="687.3396,-440.769 692.3371,-450.1111 694.2562,-439.6915 687.3396,-440.769"/>
</g>
<!-- Node4589&#45;&gt;Node4587 -->
<g id="edge16" class="edge">
<title>Node4589&#45;&gt;Node4587</title>
<path fill="none" stroke="#191970" d="M477.8854,-298.8525C490.6743,-309.756 511.2904,-328.1315 527,-345.9709 549.0574,-371.0186 570.9902,-403.0014 583.8903,-422.7288"/>
<polygon fill="#191970" stroke="#191970" points="581.0909,-424.8456 589.4584,-431.3445 586.97,-421.0461 581.0909,-424.8456"/>
</g>
<!-- Node4587&#45;&gt;Node4576 -->
<g id="edge17" class="edge">
<title>Node4587&#45;&gt;Node4576</title>
<path fill="none" stroke="#191970" d="M628.1326,-447.2976C636.8709,-448.9917 646.3938,-450.838 655.3993,-452.584"/>
<polygon fill="#191970" stroke="#191970" points="654.7942,-456.0318 665.2776,-454.4992 656.1266,-449.1597 654.7942,-456.0318"/>
</g>
<!-- Node4586&#45;&gt;Node4576 -->
<g id="edge19" class="edge">
<title>Node4586&#45;&gt;Node4576</title>
<path fill="none" stroke="#191970" d="M495.7417,-476.4869C536.5519,-473.0786 609.9578,-466.948 654.943,-463.191"/>
<polygon fill="#191970" stroke="#191970" points="655.5088,-466.656 665.1828,-462.3358 654.9261,-459.6803 655.5088,-466.656"/>
</g>
<!-- Node4588&#45;&gt;Node4576 -->
<g id="edge22" class="edge">
<title>Node4588&#45;&gt;Node4576</title>
<path fill="none" stroke="#191970" d="M493.9819,-431.3971C526.6488,-421.6551 582.0601,-409.6096 628,-421.9709 644.345,-426.3689 660.8167,-435.9548 673.1533,-444.3978"/>
<polygon fill="#191970" stroke="#191970" points="671.174,-447.2852 681.3446,-450.2532 675.2447,-441.5905 671.174,-447.2852"/>
</g>
<!-- Node4592&#45;&gt;Node4568 -->
<g id="edge24" class="edge">
<title>Node4592&#45;&gt;Node4568</title>
<path fill="none" stroke="#191970" d="M250.2552,-17.9332C304.1957,-9.0417 425.5131,7.4632 527,-3.9709 571.0566,-8.9345 620.4522,-21.0644 653.9185,-30.2954"/>
<polygon fill="#191970" stroke="#191970" points="653.1962,-33.7277 663.7697,-33.0559 655.085,-26.9873 653.1962,-33.7277"/>
</g>
<!-- Node4594&#45;&gt;Node4565 -->
<g id="edge34" class="edge">
<title>Node4594&#45;&gt;Node4565</title>
<path fill="none" stroke="#191970" d="M350.7138,-542.1949C357.4953,-545.0641 364.3308,-549.1673 369,-554.9709 416.3227,-613.7903 356.092,-663.4628 405,-720.9709 412.5641,-729.865 423.8624,-735.4849 434.6871,-739.0265"/>
<polygon fill="#191970" stroke="#191970" points="433.8016,-742.413 444.3743,-741.7289 435.6826,-735.6705 433.8016,-742.413"/>
</g>
<!-- Node4594&#45;&gt;Node4566 -->
<g id="edge38" class="edge">
<title>Node4594&#45;&gt;Node4566</title>
<path fill="none" stroke="#191970" d="M350.6818,-539.151C371.9742,-542.072 403.9008,-546.4518 428.7661,-549.863"/>
<polygon fill="#191970" stroke="#191970" points="428.5558,-553.3668 438.9387,-551.2585 429.5072,-546.4318 428.5558,-553.3668"/>
</g>
<!-- Node4594&#45;&gt;Node4574 -->
<g id="edge31" class="edge">
<title>Node4594&#45;&gt;Node4574</title>
<path fill="none" stroke="#191970" d="M333.0654,-526.3025C344.9711,-505.9854 374.334,-457.7809 405,-421.9709 417.6832,-407.1602 433.882,-392.1746 446.3988,-381.2881"/>
<polygon fill="#191970" stroke="#191970" points="448.6952,-383.9295 454.0184,-374.769 444.1445,-378.6105 448.6952,-383.9295"/>
</g>
<!-- Node4594&#45;&gt;Node4575 -->
<g id="edge37" class="edge">
<title>Node4594&#45;&gt;Node4575</title>
<path fill="none" stroke="#191970" d="M350.6818,-532.7907C362.9897,-531.1022 378.8507,-528.9263 394.8473,-526.7319"/>
<polygon fill="#191970" stroke="#191970" points="395.3629,-530.194 404.7944,-525.3673 394.4114,-523.259 395.3629,-530.194"/>
</g>
<!-- Node4594&#45;&gt;Node4576 -->
<g id="edge35" class="edge">
<title>Node4594&#45;&gt;Node4576</title>
<path fill="none" stroke="#191970" d="M350.8963,-544.5533C357.0882,-547.3798 363.5575,-550.8697 369,-554.9709 388.635,-569.7665 383.1748,-585.6525 405,-596.9709 493.1825,-642.7017 545.0168,-666.5717 628,-611.9709 673.29,-582.1712 687.4001,-513.7346 691.6894,-479.7982"/>
<polygon fill="#191970" stroke="#191970" points="695.1837,-480.0403 692.7983,-469.7175 688.2257,-479.2748 695.1837,-480.0403"/>
</g>
<!-- Node4594&#45;&gt;Node4587 -->
<g id="edge28" class="edge">
<title>Node4594&#45;&gt;Node4587</title>
<path fill="none" stroke="#191970" d="M350.5386,-542.3396C357.3107,-545.2165 364.185,-549.2878 369,-554.9709 408.5862,-601.694 356.3691,-650.7532 405,-687.9709 448.0593,-720.9245 484.4698,-721.6047 527,-687.9709 581.4543,-644.9072 543.7414,-602.6706 563,-535.9709 570.6755,-509.3877 581.3274,-479.247 588.3139,-460.1803"/>
<polygon fill="#191970" stroke="#191970" points="591.6776,-461.1752 591.8648,-450.582 585.1125,-458.7464 591.6776,-461.1752"/>
</g>
<!-- Node4594&#45;&gt;Node4586 -->
<g id="edge29" class="edge">
<title>Node4594&#45;&gt;Node4586</title>
<path fill="none" stroke="#191970" d="M345.0017,-526.4237C360.4842,-518.2132 383.8382,-506.3965 405,-497.9709 411.8724,-495.2346 419.3037,-492.6346 426.5363,-490.2855"/>
<polygon fill="#191970" stroke="#191970" points="427.7133,-493.5845 436.2048,-487.2486 425.6155,-486.9062 427.7133,-493.5845"/>
</g>
<!-- Node4594&#45;&gt;Node4588 -->
<g id="edge30" class="edge">
<title>Node4594&#45;&gt;Node4588</title>
<path fill="none" stroke="#191970" d="M334.7633,-526.3243C347.342,-510.2703 374.7526,-478.0523 405,-459.9709 410.3732,-456.7588 416.3421,-454.0396 422.3827,-451.752"/>
<polygon fill="#191970" stroke="#191970" points="423.5342,-455.0572 431.859,-448.5037 421.2644,-448.4355 423.5342,-455.0572"/>
</g>
<!-- Node4595 -->
<g id="node21" class="node">
<title>Node4595</title>
<g id="a_node21"><a xlink:href="libbf_8c.html#aced93436f1e8ca41feb00d8070cfcbde" target="_top" xlink:title="fft_mul">
<polygon fill="none" stroke="#ff0000" points="572,-583.4709 572,-602.4709 619,-602.4709 619,-583.4709 572,-583.4709"/>
<text text-anchor="middle" x="595.5" y="-590.4709" font-family="Helvetica,sans-Serif" font-size="10.00" fill="#000000">fft_mul</text>
</a>
</g>
</g>
<!-- Node4594&#45;&gt;Node4595 -->
<g id="edge32" class="edge">
<title>Node4594&#45;&gt;Node4595</title>
<path fill="none" stroke="#191970" d="M349.1479,-545.6036C355.573,-548.5374 362.6017,-551.8208 369,-554.9709 385.2312,-562.9618 387.6768,-568.7539 405,-573.9709 458.0896,-589.959 522.8796,-593.1783 561.5786,-593.4809"/>
<polygon fill="#191970" stroke="#191970" points="561.7649,-596.9811 571.7705,-593.4971 561.7761,-589.9811 561.7649,-596.9811"/>
</g>
<!-- Node4619 -->
<g id="node22" class="node">
<title>Node4619</title>
<g id="a_node22"><a xlink:href="libbf_8c.html#a76a4161d6e245f8cb27f556b6b76a29b" target="_top" xlink:title="mp_mul_basecase">
<polygon fill="none" stroke="#ff0000" points="417,-659.4709 417,-678.4709 515,-678.4709 515,-659.4709 417,-659.4709"/>
<text text-anchor="middle" x="466" y="-666.4709" font-family="Helvetica,sans-Serif" font-size="10.00" fill="#000000">mp_mul_basecase</text>
</a>
</g>
</g>
<!-- Node4594&#45;&gt;Node4619 -->
<g id="edge36" class="edge">
<title>Node4594&#45;&gt;Node4619</title>
<path fill="none" stroke="#191970" d="M350.5832,-542.8732C357.1988,-545.753 363.9725,-549.6916 369,-554.9709 398.7102,-586.1687 374.4507,-614.5942 405,-644.9709 408.9341,-648.8827 413.582,-652.1751 418.529,-654.9419"/>
<polygon fill="#191970" stroke="#191970" points="417.1425,-658.1594 427.6674,-659.3752 420.1979,-651.8614 417.1425,-658.1594"/>
</g>
<!-- Node4595&#45;&gt;Node4576 -->
<g id="edge33" class="edge">
<title>Node4595&#45;&gt;Node4576</title>
<path fill="none" stroke="#191970" d="M615.5786,-583.4355C619.9889,-580.7665 624.4088,-577.5892 628,-573.9709 655.8734,-545.8869 676.0314,-503.5654 686.1423,-479.165"/>
<polygon fill="#191970" stroke="#191970" points="689.4984,-480.1987 689.9634,-469.6141 682.9992,-477.5985 689.4984,-480.1987"/>
</g>
<!-- Node4624 -->
<g id="node25" class="node">
<title>Node4624</title>
<g id="a_node25"><a xlink:href="libbf_8h.html#abd4ca8358212228a53981a32a10286b5" target="_top" xlink:title="bf_round">
<polygon fill="none" stroke="#ff0000" points="439,-13.4709 439,-32.4709 493,-32.4709 493,-13.4709 439,-13.4709"/>
<text text-anchor="middle" x="466" y="-20.4709" font-family="Helvetica,sans-Serif" font-size="10.00" fill="#000000">bf_round</text>
</a>
</g>
</g>
<!-- Node4623&#45;&gt;Node4624 -->
<g id="edge41" class="edge">
<title>Node4623&#45;&gt;Node4624</title>
<path fill="none" stroke="#191970" d="M240.2063,-127.3948C272.8411,-110.3704 343.6281,-74.0806 405,-46.9709 413.3199,-43.2957 422.3904,-39.5761 430.9318,-36.198"/>
<polygon fill="#191970" stroke="#191970" points="432.2386,-39.4452 440.2824,-32.5497 429.6942,-32.924 432.2386,-39.4452"/>
</g>
<!-- Node4625&#45;&gt;Node4576 -->
<g id="edge45" class="edge">
<title>Node4625&#45;&gt;Node4576</title>
<path fill="none" stroke="#191970" d="M494.0042,-813.9264C505.0892,-810.1737 517.4397,-804.6952 527,-796.9709 634.0726,-710.4602 677.7375,-537.7139 689.7922,-479.579"/>
<polygon fill="#191970" stroke="#191970" points="693.2709,-480.0306 691.791,-469.5396 686.4056,-478.6636 693.2709,-480.0306"/>
</g>
<!-- Node4625&#45;&gt;Node4577 -->
<g id="edge46" class="edge">
<title>Node4625&#45;&gt;Node4577</title>
<path fill="none" stroke="#191970" d="M494.2861,-816.2466C506.1033,-812.8364 518.9337,-806.9865 527,-796.9709 589.9714,-718.7812 506.2377,-656.7782 563,-573.9709 565.3442,-570.551 568.5223,-567.6593 571.9771,-565.2441"/>
<polygon fill="#191970" stroke="#191970" points="573.8717,-568.1926 580.8175,-560.1922 570.3986,-562.115 573.8717,-568.1926"/>
</g>
<!-- Node4625&#45;&gt;Node4587 -->
<g id="edge47" class="edge">
<title>Node4625&#45;&gt;Node4587</title>
<path fill="none" stroke="#191970" d="M494.0803,-816.4223C506.0052,-813.0426 518.979,-807.168 527,-796.9709 563.1978,-750.9522 549.4615,-592.9332 563,-535.9709 569.398,-509.0516 580.3566,-478.9916 587.7606,-460.0348"/>
<polygon fill="#191970" stroke="#191970" points="591.1093,-461.0854 591.5523,-450.4998 584.6048,-458.4987 591.1093,-461.0854"/>
</g>
<!-- Node4626&#45;&gt;Node4567 -->
<g id="edge56" class="edge">
<title>Node4626&#45;&gt;Node4567</title>
<path fill="none" stroke="#191970" d="M330.5689,-184.258C338.4895,-161.0655 362.0631,-102.7005 405,-79.9709 454.6106,-53.7083 522.174,-62.2694 562.0785,-71.0225"/>
<polygon fill="#191970" stroke="#191970" points="561.3079,-74.4366 571.8405,-73.2899 562.8917,-67.6181 561.3079,-74.4366"/>
</g>
<!-- Node4626&#45;&gt;Node4574 -->
<g id="edge52" class="edge">
<title>Node4626&#45;&gt;Node4574</title>
<path fill="none" stroke="#191970" d="M333.0654,-203.6392C344.9711,-223.9563 374.334,-272.1608 405,-307.9709 417.6832,-322.7815 433.882,-337.7672 446.3988,-348.6537"/>
<polygon fill="#191970" stroke="#191970" points="444.1445,-351.3312 454.0184,-355.1727 448.6952,-346.0122 444.1445,-351.3312"/>
</g>
<!-- Node4626&#45;&gt;Node4576 -->
<g id="edge51" class="edge">
<title>Node4626&#45;&gt;Node4576</title>
<path fill="none" stroke="#191970" d="M351.13,-193.0656C408.5289,-192.2758 555.8692,-198.9642 628,-282.9709 668.6397,-330.3016 685.0597,-405.1343 690.8067,-440.3808"/>
<polygon fill="#191970" stroke="#191970" points="687.3581,-440.9846 692.3147,-450.3485 694.2794,-439.9374 687.3581,-440.9846"/>
</g>
<!-- Node4626&#45;&gt;Node4589 -->
<g id="edge50" class="edge">
<title>Node4626&#45;&gt;Node4589</title>
<path fill="none" stroke="#191970" d="M336.1222,-203.929C349.544,-218.915 376.8313,-247.3792 405,-264.9709 414.0494,-270.6223 424.6516,-275.3532 434.4556,-279.0798"/>
<polygon fill="#191970" stroke="#191970" points="433.312,-282.3879 443.9065,-282.4686 435.6747,-275.7986 433.312,-282.3879"/>
</g>
<!-- Node4626&#45;&gt;Node4587 -->
<g id="edge49" class="edge">
<title>Node4626&#45;&gt;Node4587</title>
<path fill="none" stroke="#191970" d="M349.0625,-203.5887C364.5283,-210.3798 385.9174,-219.5538 405,-226.9709 458.5862,-247.7987 485.4997,-230.1838 527,-269.9709 570.9533,-312.1096 587.4175,-386.1544 592.9695,-421.338"/>
<polygon fill="#191970" stroke="#191970" points="589.5156,-421.9094 594.4096,-431.3061 596.4437,-420.9083 589.5156,-421.9094"/>
</g>
<!-- Node4626&#45;&gt;Node4624 -->
<g id="edge58" class="edge">
<title>Node4626&#45;&gt;Node4624</title>
<path fill="none" stroke="#191970" d="M339.1379,-184.4565C348.3528,-176.3848 360.9683,-164.0578 369,-150.9709 394.5849,-109.2826 371.14,-82.2695 405,-46.9709 411.5955,-40.0952 420.4009,-35.1499 429.2654,-31.6076"/>
<polygon fill="#191970" stroke="#191970" points="430.5104,-34.8804 438.8059,-28.2897 428.211,-28.2688 430.5104,-34.8804"/>
</g>
<!-- Node4627 -->
<g id="node28" class="node">
<title>Node4627</title>
<g id="a_node28"><a xlink:href="libbf_8c.html#a6eda6dd86092f0d16e5f3148a2464220" target="_top" xlink:title="mp_shr">
<polygon fill="none" stroke="#000000" points="441.5,-165.4709 441.5,-184.4709 490.5,-184.4709 490.5,-165.4709 441.5,-165.4709"/>
<text text-anchor="middle" x="466" y="-172.4709" font-family="Helvetica,sans-Serif" font-size="10.00" fill="#000000">mp_shr</text>
</a>
</g>
</g>
<!-- Node4626&#45;&gt;Node4627 -->
<g id="edge53" class="edge">
<title>Node4626&#45;&gt;Node4627</title>
<path fill="none" stroke="#191970" d="M351.309,-190.7046C373.2355,-187.6967 406.0439,-183.1959 430.9608,-179.7777"/>
<polygon fill="#191970" stroke="#191970" points="431.67,-183.2132 441.1015,-178.3865 430.7186,-176.2782 431.67,-183.2132"/>
</g>
<!-- Node4628 -->
<g id="node29" class="node">
<title>Node4628</title>
<g id="a_node29"><a xlink:href="libbf_8h.html#aa3d8931becde9bdbea0aab310312acd3" target="_top" xlink:title="mp_sqrtrem">
<polygon fill="none" stroke="#ff0000" points="432,-89.4709 432,-108.4709 500,-108.4709 500,-89.4709 432,-89.4709"/>
<text text-anchor="middle" x="466" y="-96.4709" font-family="Helvetica,sans-Serif" font-size="10.00" fill="#000000">mp_sqrtrem</text>
</a>
</g>
</g>
<!-- Node4626&#45;&gt;Node4628 -->
<g id="edge54" class="edge">
<title>Node4626&#45;&gt;Node4628</title>
<path fill="none" stroke="#191970" d="M336.9699,-184.1842C355.8557,-164.7416 397.0742,-122.7088 405,-117.9709 410.3732,-114.7588 416.3421,-112.0396 422.3827,-109.752"/>
<polygon fill="#191970" stroke="#191970" points="423.5342,-113.0572 431.859,-106.5037 421.2644,-106.4355 423.5342,-113.0572"/>
</g>
<!-- Node4640 -->
<g id="node30" class="node">
<title>Node4640</title>
<g id="a_node30"><a xlink:href="libbf_8c.html#a46c382a2c0fdce3d6a7169762670d7b9" target="_top" xlink:title="mp_scan_nz">
<polygon fill="none" stroke="#000000" points="430,-127.4709 430,-146.4709 502,-146.4709 502,-127.4709 430,-127.4709"/>
<text text-anchor="middle" x="466" y="-134.4709" font-family="Helvetica,sans-Serif" font-size="10.00" fill="#000000">mp_scan_nz</text>
</a>
</g>
</g>
<!-- Node4626&#45;&gt;Node4640 -->
<g id="edge57" class="edge">
<title>Node4626&#45;&gt;Node4640</title>
<path fill="none" stroke="#191970" d="M345.0017,-184.4237C360.4842,-176.2132 383.8382,-164.3965 405,-155.9709 410.5455,-153.7629 416.455,-151.6436 422.3304,-149.6733"/>
<polygon fill="#191970" stroke="#191970" points="423.678,-152.9161 432.1159,-146.5088 421.5241,-146.2557 423.678,-152.9161"/>
</g>
<!-- Node4628&#45;&gt;Node4567 -->
<g id="edge55" class="edge">
<title>Node4628&#45;&gt;Node4567</title>
<path fill="none" stroke="#191970" d="M500.0246,-93.9788C519.1199,-91.1772 542.8564,-87.6946 561.8848,-84.9028"/>
<polygon fill="#191970" stroke="#191970" points="562.5264,-88.3462 571.9124,-83.4316 561.5102,-81.4204 562.5264,-88.3462"/>
</g>
</g>
</svg>
        <g id="navigator" transform="translate(0 0)" fill="#404254">
                <rect fill="#f2f5e9" fill-opacity="0.5" stroke="#606060" stroke-width=".5" x="0" y="0" width="60" height="60"/>
                <use id="zoomplus" xlink:href="#zoomPlus" x="17" y="9" onmousedown="handleZoom(evt,'in')"/>
                <use id="zoomminus" xlink:href="#zoomMin" x="42" y="9" onmousedown="handleZoom(evt,'out')"/>
                <use id="reset" xlink:href="#resetDef" x="30" y="36" onmousedown="handleReset()"/>
                <g id="arrowUp" xlink:href="#dirArrow" transform="translate(30 24)" onmousedown="handlePan(0,-1)">
                  <use xlink:href="#rim" fill="#404040">
                        <set attributeName="fill" to="#808080" begin="arrowUp.mouseover" end="arrowUp.mouseout"/>
                  </use>
                  <path fill="none" stroke="white" stroke-width="1.5" d="M0,-3.0v7 M-2.5,-0.5L0,-3.0L2.5,-0.5"/>
                </g>
                <g id="arrowRight" xlink:href="#dirArrow" transform="rotate(90) translate(36 -43)" onmousedown="handlePan(1,0)">
                  <use xlink:href="#rim" fill="#404040">
                        <set attributeName="fill" to="#808080" begin="arrowRight.mouseover" end="arrowRight.mouseout"/>
                  </use>
                  <path fill="none" stroke="white" stroke-width="1.5" d="M0,-3.0v7 M-2.5,-0.5L0,-3.0L2.5,-0.5"/>
                </g>
                <g id="arrowDown" xlink:href="#dirArrow" transform="rotate(180) translate(-30 -48)" onmousedown="handlePan(0,1)">
                  <use xlink:href="#rim" fill="#404040">
                        <set attributeName="fill" to="#808080" begin="arrowDown.mouseover" end="arrowDown.mouseout"/>
                  </use>
                  <path fill="none" stroke="white" stroke-width="1.5" d="M0,-3.0v7 M-2.5,-0.5L0,-3.0L2.5,-0.5"/>
                </g>
                <g id="arrowLeft" xlink:href="#dirArrow" transform="rotate(270) translate(-36 17)" onmousedown="handlePan(-1,0)">
                  <use xlink:href="#rim" fill="#404040">
                        <set attributeName="fill" to="#808080" begin="arrowLeft.mouseover" end="arrowLeft.mouseout"/>
                  </use>
                  <path fill="none" stroke="white" stroke-width="1.5" d="M0,-3.0v7 M-2.5,-0.5L0,-3.0L2.5,-0.5"/>
                </g>
        </g>
        <svg viewBox="0 0 15 15" width="100%" height="30px" preserveAspectRatio="xMaxYMin meet">
         <g id="arrow_out" transform="scale(0.3 0.3)">
          <a xlink:href="libbf_8c_ae080fd42a2c7fc561d7084762204357e_cgraph_org.svg" target="_base">
           <rect id="button" ry="5" rx="5" y="6" x="6" height="38" width="38"
                fill="#f2f5e9" fill-opacity="0.5" stroke="#606060" stroke-width="1.0"/>
           <path id="arrow"
             d="M 11.500037,31.436501 C 11.940474,20.09759 22.043105,11.32322 32.158766,21.979434 L 37.068811,17.246167 C 37.068811,17.246167 37.088388,32 37.088388,32 L 22.160133,31.978069 C 22.160133,31.978069 26.997745,27.140456 26.997745,27.140456 C 18.528582,18.264221 13.291696,25.230495 11.500037,31.436501 z"
             style="fill:#404040;"/>
          </a>
         </g>
        </svg>
</svg>
