<?xml version="1.0" encoding="UTF-8" standalone="no"?>
<!DOCTYPE svg PUBLIC "-//W3C//DTD SVG 1.1//EN"
 "http://www.w3.org/Graphics/SVG/1.1/DTD/svg11.dtd">
<!-- Generated by graphviz version 2.40.1 (20161225.0304)
 -->
<!-- Title: re_parse_captures Pages: 1 -->
<!--zoomable 85 -->
<svg id="main" version="1.1" xmlns="http://www.w3.org/2000/svg" xmlns:xlink="http://www.w3.org/1999/xlink" xml:space="preserve" onload="init(evt)">
<style type="text/css"><![CDATA[
.edge:hover path { stroke: red; }
.edge:hover polygon { stroke: red; fill: red; }
]]></style>
<script type="text/javascript"><![CDATA[
var edges = document.getElementsByTagName('g');
if (edges && edges.length) {
  for (var i=0;i<edges.length;i++) {
    if (edges[i].id.substr(0,4)=='edge') {
      edges[i].setAttribute('class','edge');
    }
  }
}
]]></script>
        <defs>
                <circle id="rim" cx="0" cy="0" r="7"/>
                <circle id="rim2" cx="0" cy="0" r="3.5"/>
                <g id="zoomPlus">
                        <use xlink:href="#rim" fill="#404040">
                                <set attributeName="fill" to="#808080" begin="zoomplus.mouseover" end="zoomplus.mouseout"/>
                        </use>
                        <path d="M-4,0h8M0,-4v8" fill="none" stroke="white" stroke-width="1.5" pointer-events="none"/>
                </g>
                <g id="zoomMin">
                        <use xlink:href="#rim" fill="#404040">
                                <set attributeName="fill" to="#808080" begin="zoomminus.mouseover" end="zoomminus.mouseout"/>
                        </use>
                        <path d="M-4,0h8" fill="none" stroke="white" stroke-width="1.5" pointer-events="none"/>
                </g>
                <g id="dirArrow">
                        <path fill="none" stroke="white" stroke-width="1.5" d="M0,-3.0v7 M-2.5,-0.5L0,-3.0L2.5,-0.5"/>
                </g>
               <g id="resetDef">
                       <use xlink:href="#rim2" fill="#404040">
                               <set attributeName="fill" to="#808080" begin="reset.mouseover" end="reset.mouseout"/>
                       </use>
               </g>
        </defs>

<script type="text/javascript">
var viewWidth = 512;
var viewHeight = 85;
var sectionId = 'dynsection-45';
</script>
<script xlink:href="svgpan.js"/>
<svg id="graph" class="graph">
<g id="viewport">
<title>re_parse_captures</title>
<!-- Node1329 -->
<g id="node1" class="node">
<title>Node1329</title>
<polygon fill="#bfbfbf" stroke="#000000" points="0,-.5 0,-19.5 97,-19.5 97,-.5 0,-.5"/>
<text text-anchor="middle" x="48.5" y="-7.5" font-family="Helvetica,sans-Serif" font-size="10.00" fill="#000000">re_parse_captures</text>
</g>
<!-- Node1330 -->
<g id="node2" class="node">
<title>Node1330</title>
<g id="a_node2"><a xlink:href="libregexp_8c.html#a88ae24975d089263922d36934da51581" target="_top" xlink:title="re_count_captures">
<polygon fill="none" stroke="#000000" points="133,-19.5 133,-38.5 230,-38.5 230,-19.5 133,-19.5"/>
<text text-anchor="middle" x="181.5" y="-26.5" font-family="Helvetica,sans-Serif" font-size="10.00" fill="#000000">re_count_captures</text>
</a>
</g>
</g>
<!-- Node1329&#45;&gt;Node1330 -->
<g id="edge1" class="edge">
<title>Node1329&#45;&gt;Node1330</title>
<path fill="none" stroke="#191970" d="M107.1762,-18.3823C115.7131,-19.6019 124.4244,-20.8463 132.7368,-22.0338"/>
<polygon fill="#191970" stroke="#191970" points="107.6636,-14.9165 97.2691,-16.967 106.6736,-21.8461 107.6636,-14.9165"/>
</g>
<!-- Node1332 -->
<g id="node4" class="node">
<title>Node1332</title>
<g id="a_node4"><a xlink:href="libregexp_8c.html#acca34590a18d70f866ad56d67ce309e8" target="_top" xlink:title="re_parse_term">
<polygon fill="none" stroke="#ff0000" points="425,-19.5 425,-38.5 504,-38.5 504,-19.5 425,-19.5"/>
<text text-anchor="middle" x="464.5" y="-26.5" font-family="Helvetica,sans-Serif" font-size="10.00" fill="#000000">re_parse_term</text>
</a>
</g>
</g>
<!-- Node1329&#45;&gt;Node1332 -->
<g id="edge5" class="edge">
<title>Node1329&#45;&gt;Node1332</title>
<path fill="none" stroke="#191970" d="M107.2526,-8.7984C142.7972,-8.3705 189.022,-8.3426 230,-10 298.5639,-12.7731 378.1284,-20.0891 424.7272,-24.7912"/>
<polygon fill="#191970" stroke="#191970" points="107.006,-5.3013 97.0541,-8.9356 107.1003,-12.3007 107.006,-5.3013"/>
</g>
<!-- Node1331 -->
<g id="node3" class="node">
<title>Node1331</title>
<g id="a_node3"><a xlink:href="libregexp_8c.html#adc25d27f1e668598f417fb0f07f3281f" target="_top" xlink:title="re_has_named_captures">
<polygon fill="none" stroke="#000000" points="266,-57.5 266,-76.5 389,-76.5 389,-57.5 266,-57.5"/>
<text text-anchor="middle" x="327.5" y="-64.5" font-family="Helvetica,sans-Serif" font-size="10.00" fill="#000000">re_has_named_captures</text>
</a>
</g>
</g>
<!-- Node1330&#45;&gt;Node1331 -->
<g id="edge2" class="edge">
<title>Node1330&#45;&gt;Node1331</title>
<path fill="none" stroke="#191970" d="M228.036,-41.1121C248.3696,-46.4044 271.8713,-52.5213 290.923,-57.4799"/>
<polygon fill="#191970" stroke="#191970" points="228.9012,-37.7207 218.342,-38.589 227.1379,-44.4951 228.9012,-37.7207"/>
</g>
<!-- Node1330&#45;&gt;Node1332 -->
<g id="edge4" class="edge">
<title>Node1330&#45;&gt;Node1332</title>
<path fill="none" stroke="#191970" d="M240.4917,-29C295.7251,-29 376.7365,-29 424.6981,-29"/>
<polygon fill="#191970" stroke="#191970" points="240.1495,-25.5001 230.1494,-29 240.1494,-32.5001 240.1495,-25.5001"/>
</g>
<!-- Node1331&#45;&gt;Node1332 -->
<g id="edge3" class="edge">
<title>Node1331&#45;&gt;Node1332</title>
<path fill="none" stroke="#191970" d="M371.9108,-54.6817C390.7337,-49.4607 412.3376,-43.4684 429.9402,-38.5859"/>
<polygon fill="#191970" stroke="#191970" points="370.7716,-51.3654 362.0709,-57.411 372.6426,-58.1108 370.7716,-51.3654"/>
</g>
</g>
</svg>
        <g id="navigator" transform="translate(0 0)" fill="#404254">
                <rect fill="#f2f5e9" fill-opacity="0.5" stroke="#606060" stroke-width=".5" x="0" y="0" width="60" height="60"/>
                <use id="zoomplus" xlink:href="#zoomPlus" x="17" y="9" onmousedown="handleZoom(evt,'in')"/>
                <use id="zoomminus" xlink:href="#zoomMin" x="42" y="9" onmousedown="handleZoom(evt,'out')"/>
                <use id="reset" xlink:href="#resetDef" x="30" y="36" onmousedown="handleReset()"/>
                <g id="arrowUp" xlink:href="#dirArrow" transform="translate(30 24)" onmousedown="handlePan(0,-1)">
                  <use xlink:href="#rim" fill="#404040">
                        <set attributeName="fill" to="#808080" begin="arrowUp.mouseover" end="arrowUp.mouseout"/>
                  </use>
                  <path fill="none" stroke="white" stroke-width="1.5" d="M0,-3.0v7 M-2.5,-0.5L0,-3.0L2.5,-0.5"/>
                </g>
                <g id="arrowRight" xlink:href="#dirArrow" transform="rotate(90) translate(36 -43)" onmousedown="handlePan(1,0)">
                  <use xlink:href="#rim" fill="#404040">
                        <set attributeName="fill" to="#808080" begin="arrowRight.mouseover" end="arrowRight.mouseout"/>
                  </use>
                  <path fill="none" stroke="white" stroke-width="1.5" d="M0,-3.0v7 M-2.5,-0.5L0,-3.0L2.5,-0.5"/>
                </g>
                <g id="arrowDown" xlink:href="#dirArrow" transform="rotate(180) translate(-30 -48)" onmousedown="handlePan(0,1)">
                  <use xlink:href="#rim" fill="#404040">
                        <set attributeName="fill" to="#808080" begin="arrowDown.mouseover" end="arrowDown.mouseout"/>
                  </use>
                  <path fill="none" stroke="white" stroke-width="1.5" d="M0,-3.0v7 M-2.5,-0.5L0,-3.0L2.5,-0.5"/>
                </g>
                <g id="arrowLeft" xlink:href="#dirArrow" transform="rotate(270) translate(-36 17)" onmousedown="handlePan(-1,0)">
                  <use xlink:href="#rim" fill="#404040">
                        <set attributeName="fill" to="#808080" begin="arrowLeft.mouseover" end="arrowLeft.mouseout"/>
                  </use>
                  <path fill="none" stroke="white" stroke-width="1.5" d="M0,-3.0v7 M-2.5,-0.5L0,-3.0L2.5,-0.5"/>
                </g>
        </g>
        <svg viewBox="0 0 15 15" width="100%" height="30px" preserveAspectRatio="xMaxYMin meet">
         <g id="arrow_out" transform="scale(0.3 0.3)">
          <a xlink:href="libregexp_8c_abe49cc9b1bcf935c4c8cfcbc932cb407_icgraph_org.svg" target="_base">
           <rect id="button" ry="5" rx="5" y="6" x="6" height="38" width="38"
                fill="#f2f5e9" fill-opacity="0.5" stroke="#606060" stroke-width="1.0"/>
           <path id="arrow"
             d="M 11.500037,31.436501 C 11.940474,20.09759 22.043105,11.32322 32.158766,21.979434 L 37.068811,17.246167 C 37.068811,17.246167 37.088388,32 37.088388,32 L 22.160133,31.978069 C 22.160133,31.978069 26.997745,27.140456 26.997745,27.140456 C 18.528582,18.264221 13.291696,25.230495 11.500037,31.436501 z"
             style="fill:#404040;"/>
          </a>
         </g>
        </svg>
</svg>
