<?xml version="1.0" encoding="UTF-8" standalone="no"?>
<!DOCTYPE svg PUBLIC "-//W3C//DTD SVG 1.1//EN"
 "http://www.w3.org/Graphics/SVG/1.1/DTD/svg11.dtd">
<!-- Generated by graphviz version 2.40.1 (20161225.0304)
 -->
<!-- Title: lre_parse_escape Pages: 1 -->
<!--zoomable 1157 -->
<svg id="main" version="1.1" xmlns="http://www.w3.org/2000/svg" xmlns:xlink="http://www.w3.org/1999/xlink" xml:space="preserve" onload="init(evt)">
<style type="text/css"><![CDATA[
.edge:hover path { stroke: red; }
.edge:hover polygon { stroke: red; fill: red; }
]]></style>
<script type="text/javascript"><![CDATA[
var edges = document.getElementsByTagName('g');
if (edges && edges.length) {
  for (var i=0;i<edges.length;i++) {
    if (edges[i].id.substr(0,4)=='edge') {
      edges[i].setAttribute('class','edge');
    }
  }
}
]]></script>
        <defs>
                <circle id="rim" cx="0" cy="0" r="7"/>
                <circle id="rim2" cx="0" cy="0" r="3.5"/>
                <g id="zoomPlus">
                        <use xlink:href="#rim" fill="#404040">
                                <set attributeName="fill" to="#808080" begin="zoomplus.mouseover" end="zoomplus.mouseout"/>
                        </use>
                        <path d="M-4,0h8M0,-4v8" fill="none" stroke="white" stroke-width="1.5" pointer-events="none"/>
                </g>
                <g id="zoomMin">
                        <use xlink:href="#rim" fill="#404040">
                                <set attributeName="fill" to="#808080" begin="zoomminus.mouseover" end="zoomminus.mouseout"/>
                        </use>
                        <path d="M-4,0h8" fill="none" stroke="white" stroke-width="1.5" pointer-events="none"/>
                </g>
                <g id="dirArrow">
                        <path fill="none" stroke="white" stroke-width="1.5" d="M0,-3.0v7 M-2.5,-0.5L0,-3.0L2.5,-0.5"/>
                </g>
               <g id="resetDef">
                       <use xlink:href="#rim2" fill="#404040">
                               <set attributeName="fill" to="#808080" begin="reset.mouseover" end="reset.mouseout"/>
                       </use>
               </g>
        </defs>

<script type="text/javascript">
var viewWidth = 1921;
var viewHeight = 1157;
var sectionId = 'dynsection-9';
</script>
<script xlink:href="svgpan.js"/>
<svg id="graph" class="graph">
<g id="viewport">
<title>lre_parse_escape</title>
<!-- Node139 -->
<g id="node1" class="node">
<title>Node139</title>
<polygon fill="#bfbfbf" stroke="#000000" points="0,-768.555 0,-787.555 93,-787.555 93,-768.555 0,-768.555"/>
<text text-anchor="middle" x="46.5" y="-775.555" font-family="Helvetica,sans-Serif" font-size="10.00" fill="#000000">lre_parse_escape</text>
</g>
<!-- Node140 -->
<g id="node2" class="node">
<title>Node140</title>
<g id="a_node2"><a xlink:href="libregexp_8c.html#ac654c01af0eedad21af5da6e5035f37c" target="_top" xlink:title="get_class_atom">
<polygon fill="none" stroke="#000000" points="129,-1091.555 129,-1110.555 215,-1110.555 215,-1091.555 129,-1091.555"/>
<text text-anchor="middle" x="172" y="-1098.555" font-family="Helvetica,sans-Serif" font-size="10.00" fill="#000000">get_class_atom</text>
</a>
</g>
</g>
<!-- Node139&#45;&gt;Node140 -->
<g id="edge1" class="edge">
<title>Node139&#45;&gt;Node140</title>
<path fill="none" stroke="#191970" d="M53.9752,-797.2939C77.7158,-858.3953 150.861,-1046.6495 168.2587,-1091.426"/>
<polygon fill="#191970" stroke="#191970" points="57.1401,-795.7753 50.256,-787.7218 50.6153,-798.3105 57.1401,-795.7753"/>
</g>
<!-- Node157 -->
<g id="node5" class="node">
<title>Node157</title>
<g id="a_node5"><a xlink:href="quickjs_8c.html#ace438176f9f0e0fea6d6f5cdffb1577e" target="_top" xlink:title="js_parse_string">
<polygon fill="none" stroke="#000000" points="130.5,-692.555 130.5,-711.555 213.5,-711.555 213.5,-692.555 130.5,-692.555"/>
<text text-anchor="middle" x="172" y="-699.555" font-family="Helvetica,sans-Serif" font-size="10.00" fill="#000000">js_parse_string</text>
</a>
</g>
</g>
<!-- Node139&#45;&gt;Node157 -->
<g id="edge5" class="edge">
<title>Node139&#45;&gt;Node157</title>
<path fill="none" stroke="#191970" d="M69.6875,-762.9761C86.1094,-752.4114 108.7318,-738.0873 129,-726.055 137.2337,-721.1671 146.4934,-715.9624 154.3053,-711.6536"/>
<polygon fill="#191970" stroke="#191970" points="67.7587,-760.0553 61.2565,-768.4202 71.5559,-765.9359 67.7587,-760.0553"/>
</g>
<!-- Node158 -->
<g id="node6" class="node">
<title>Node158</title>
<g id="a_node6"><a xlink:href="quickjs_8c.html#a75a3798e2045f6e403c1ef467126d1fb" target="_top" xlink:title="next_token">
<polygon fill="none" stroke="#ff0000" points="275,-730.555 275,-749.555 340,-749.555 340,-730.555 275,-730.555"/>
<text text-anchor="middle" x="307.5" y="-737.555" font-family="Helvetica,sans-Serif" font-size="10.00" fill="#000000">next_token</text>
</a>
</g>
</g>
<!-- Node139&#45;&gt;Node158 -->
<g id="edge77" class="edge">
<title>Node139&#45;&gt;Node158</title>
<path fill="none" stroke="#191970" d="M93.5682,-766.1869C105.1027,-763.5635 117.4524,-760.9921 129,-759.055 179.5594,-750.5738 238.8459,-745.1471 274.7675,-742.3513"/>
<polygon fill="#191970" stroke="#191970" points="92.6269,-762.8124 83.6824,-768.491 94.2159,-769.6297 92.6269,-762.8124"/>
</g>
<!-- Node206 -->
<g id="node29" class="node">
<title>Node206</title>
<g id="a_node29"><a xlink:href="quickjs_8c.html#ad91865d0889d1420e3e70d5d497a9bdb" target="_top" xlink:title="parse_ident">
<polygon fill="none" stroke="#000000" points="138.5,-768.555 138.5,-787.555 205.5,-787.555 205.5,-768.555 138.5,-768.555"/>
<text text-anchor="middle" x="172" y="-775.555" font-family="Helvetica,sans-Serif" font-size="10.00" fill="#000000">parse_ident</text>
</a>
</g>
</g>
<!-- Node139&#45;&gt;Node206 -->
<g id="edge78" class="edge">
<title>Node139&#45;&gt;Node206</title>
<path fill="none" stroke="#191970" d="M103.5246,-778.055C115.3665,-778.055 127.4826,-778.055 138.1671,-778.055"/>
<polygon fill="#191970" stroke="#191970" points="103.2316,-774.5551 93.2316,-778.055 103.2315,-781.5551 103.2316,-774.5551"/>
</g>
<!-- Node207 -->
<g id="node30" class="node">
<title>Node207</title>
<g id="a_node30"><a xlink:href="libregexp_8c.html#a6e0ee9170c3faaca126dbcc40c07aed7" target="_top" xlink:title="re_parse_group_name">
<polygon fill="none" stroke="#ff0000" points="251,-996.555 251,-1015.555 364,-1015.555 364,-996.555 251,-996.555"/>
<text text-anchor="middle" x="307.5" y="-1003.555" font-family="Helvetica,sans-Serif" font-size="10.00" fill="#000000">re_parse_group_name</text>
</a>
</g>
</g>
<!-- Node139&#45;&gt;Node207 -->
<g id="edge80" class="edge">
<title>Node139&#45;&gt;Node207</title>
<path fill="none" stroke="#191970" d="M64.9979,-794.2141C115.7859,-838.5807 256.2825,-961.3133 296.571,-996.5079"/>
<polygon fill="#191970" stroke="#191970" points="67.2163,-791.5047 57.3826,-787.5616 62.6111,-796.7765 67.2163,-791.5047"/>
</g>
<!-- Node141 -->
<g id="node3" class="node">
<title>Node141</title>
<g id="a_node3"><a xlink:href="libregexp_8c.html#ab2f98b8a2e66fd9197d2677f47ccffa8" target="_top" xlink:title="re_parse_char_class">
<polygon fill="none" stroke="#000000" points="254,-1091.555 254,-1110.555 361,-1110.555 361,-1091.555 254,-1091.555"/>
<text text-anchor="middle" x="307.5" y="-1098.555" font-family="Helvetica,sans-Serif" font-size="10.00" fill="#000000">re_parse_char_class</text>
</a>
</g>
</g>
<!-- Node140&#45;&gt;Node141 -->
<g id="edge2" class="edge">
<title>Node140&#45;&gt;Node141</title>
<path fill="none" stroke="#191970" d="M225.5211,-1101.055C234.7974,-1101.055 244.4464,-1101.055 253.7294,-1101.055"/>
<polygon fill="#191970" stroke="#191970" points="225.2456,-1097.5551 215.2456,-1101.055 225.2456,-1104.5551 225.2456,-1097.5551"/>
</g>
<!-- Node142 -->
<g id="node4" class="node">
<title>Node142</title>
<g id="a_node4"><a xlink:href="libregexp_8c.html#acca34590a18d70f866ad56d67ce309e8" target="_top" xlink:title="re_parse_term">
<polygon fill="none" stroke="#ff0000" points="415,-1129.555 415,-1148.555 494,-1148.555 494,-1129.555 415,-1129.555"/>
<text text-anchor="middle" x="454.5" y="-1136.555" font-family="Helvetica,sans-Serif" font-size="10.00" fill="#000000">re_parse_term</text>
</a>
</g>
</g>
<!-- Node140&#45;&gt;Node142 -->
<g id="edge4" class="edge">
<title>Node140&#45;&gt;Node142</title>
<path fill="none" stroke="#191970" d="M216.7292,-1112.9884C227.8616,-1115.6327 239.813,-1118.1973 251,-1120.055 307.5317,-1129.4428 373.726,-1134.5475 414.8926,-1137.037"/>
<polygon fill="#191970" stroke="#191970" points="217.3263,-1109.5313 206.7811,-1110.5555 215.6633,-1116.3309 217.3263,-1109.5313"/>
</g>
<!-- Node141&#45;&gt;Node142 -->
<g id="edge3" class="edge">
<title>Node141&#45;&gt;Node142</title>
<path fill="none" stroke="#191970" d="M354.3548,-1113.1672C374.8276,-1118.4595 398.4903,-1124.5763 417.6724,-1129.535"/>
<polygon fill="#191970" stroke="#191970" points="355.152,-1109.7583 344.5943,-1110.644 353.4001,-1116.5355 355.152,-1109.7583"/>
</g>
<!-- Node157&#45;&gt;Node158 -->
<g id="edge6" class="edge">
<title>Node157&#45;&gt;Node158</title>
<path fill="none" stroke="#191970" d="M215.8912,-714.364C235.0187,-719.7282 257.055,-725.9081 274.7208,-730.8624"/>
<polygon fill="#191970" stroke="#191970" points="216.766,-710.9744 206.1924,-711.644 214.8758,-717.7144 216.766,-710.9744"/>
</g>
<!-- Node160 -->
<g id="node8" class="node">
<title>Node160</title>
<g id="a_node8"><a xlink:href="quickjs_8c.html#a035daca514f14aacc1e0cff81d8e423a" target="_top" xlink:title="js_parse_template">
<polygon fill="none" stroke="#000000" points="566,-559.555 566,-578.555 662,-578.555 662,-559.555 566,-559.555"/>
<text text-anchor="middle" x="614" y="-566.555" font-family="Helvetica,sans-Serif" font-size="10.00" fill="#000000">js_parse_template</text>
</a>
</g>
</g>
<!-- Node157&#45;&gt;Node160 -->
<g id="edge76" class="edge">
<title>Node157&#45;&gt;Node160</title>
<path fill="none" stroke="#191970" d="M189.9632,-685.0028C226.1781,-651.9448 312.0285,-580.1038 400,-554.055 461.602,-535.8144 537.3511,-548.9666 580.2119,-559.4868"/>
<polygon fill="#191970" stroke="#191970" points="187.1923,-682.7986 182.2349,-692.1621 191.9494,-687.9338 187.1923,-682.7986"/>
</g>
<!-- Node198 -->
<g id="node28" class="node">
<title>Node198</title>
<g id="a_node28"><a xlink:href="quickjs_8c.html#a7fbd31397bde22dfa2b876b945f9afb4" target="_top" xlink:title="json_next_token">
<polygon fill="none" stroke="#ff0000" points="263.5,-692.555 263.5,-711.555 351.5,-711.555 351.5,-692.555 263.5,-692.555"/>
<text text-anchor="middle" x="307.5" y="-699.555" font-family="Helvetica,sans-Serif" font-size="10.00" fill="#000000">json_next_token</text>
</a>
</g>
</g>
<!-- Node157&#45;&gt;Node198 -->
<g id="edge75" class="edge">
<title>Node157&#45;&gt;Node198</title>
<path fill="none" stroke="#191970" d="M223.954,-702.055C236.9329,-702.055 250.7307,-702.055 263.2948,-702.055"/>
<polygon fill="#191970" stroke="#191970" points="223.7601,-698.5551 213.7601,-702.055 223.7601,-705.5551 223.7601,-698.5551"/>
</g>
<!-- Node159 -->
<g id="node7" class="node">
<title>Node159</title>
<g id="a_node7"><a xlink:href="quickjs_8c.html#aeca8ed71e1eef8ec809afab744958c28" target="_top" xlink:title="js_parse_expect">
<polygon fill="none" stroke="#ff0000" points="410.5,-445.555 410.5,-464.555 498.5,-464.555 498.5,-445.555 410.5,-445.555"/>
<text text-anchor="middle" x="454.5" y="-452.555" font-family="Helvetica,sans-Serif" font-size="10.00" fill="#000000">js_parse_expect</text>
</a>
</g>
</g>
<!-- Node158&#45;&gt;Node159 -->
<g id="edge7" class="edge">
<title>Node158&#45;&gt;Node159</title>
<path fill="none" stroke="#191970" d="M349.5277,-731.5194C354.9685,-728.9087 360.0211,-725.5014 364,-721.055 414.3425,-664.7986 373.669,-625.807 400,-555.055 413.0339,-520.0326 436.5282,-482.2171 447.9332,-464.8219"/>
<polygon fill="#191970" stroke="#191970" points="348.1594,-728.2964 340.1258,-735.2039 350.7135,-734.8138 348.1594,-728.2964"/>
</g>
<!-- Node158&#45;&gt;Node160 -->
<g id="edge50" class="edge">
<title>Node158&#45;&gt;Node160</title>
<path fill="none" stroke="#191970" d="M349.4708,-731.2124C354.8764,-728.6444 359.9339,-725.3308 364,-721.055 404.7246,-678.2315 354.9594,-631.3133 400,-593.055 445.7326,-554.209 518.2378,-554.6386 565.9692,-560.365"/>
<polygon fill="#191970" stroke="#191970" points="348.1877,-727.9559 340.1585,-734.8684 350.7459,-734.4718 348.1877,-727.9559"/>
</g>
<!-- Node161 -->
<g id="node9" class="node">
<title>Node161</title>
<g id="a_node9"><a xlink:href="quickjs_8c.html#acdcc62310b4f6f73fa7bc7267b18b1d4" target="_top" xlink:title="js_parse_postfix_expr">
<polygon fill="none" stroke="#ff0000" points="730,-474.555 730,-493.555 842,-493.555 842,-474.555 730,-474.555"/>
<text text-anchor="middle" x="786" y="-481.555" font-family="Helvetica,sans-Serif" font-size="10.00" fill="#000000">js_parse_postfix_expr</text>
</a>
</g>
</g>
<!-- Node158&#45;&gt;Node161 -->
<g id="edge66" class="edge">
<title>Node158&#45;&gt;Node161</title>
<path fill="none" stroke="#191970" d="M349.6476,-730.5409C354.8972,-728.0724 359.864,-724.9653 364,-721.055 395.3055,-691.4584 366.2464,-657.8262 400,-631.055 499.6762,-551.9985 569.6028,-645.7297 683,-588.055 728.0747,-565.1297 765.3115,-515.0027 779.6588,-493.8171"/>
<polygon fill="#191970" stroke="#191970" points="348.0367,-727.4134 340.0111,-734.3301 350.5983,-733.9279 348.0367,-727.4134"/>
</g>
<!-- Node162 -->
<g id="node10" class="node">
<title>Node162</title>
<g id="a_node10"><a xlink:href="quickjs_8c.html#a00eb789430243c24dab4a63ad6a79653" target="_top" xlink:title="js_parse_class">
<polygon fill="none" stroke="#ff0000" points="1814.5,-540.555 1814.5,-559.555 1896.5,-559.555 1896.5,-540.555 1814.5,-540.555"/>
<text text-anchor="middle" x="1855.5" y="-547.555" font-family="Helvetica,sans-Serif" font-size="10.00" fill="#000000">js_parse_class</text>
</a>
</g>
</g>
<!-- Node158&#45;&gt;Node162 -->
<g id="edge61" class="edge">
<title>Node158&#45;&gt;Node162</title>
<path fill="none" stroke="#191970" d="M311.9415,-759.6472C324.5659,-813.5685 362.1948,-962.2101 400,-993.055 474.5139,-1053.8504 517.8314,-1025.055 614,-1025.055 614,-1025.055 614,-1025.055 1551,-1025.055 1646.8868,-1025.055 1694.0628,-1047.7219 1762,-980.055 1769.8825,-972.2039 1840.8703,-622.439 1853.5623,-559.654"/>
<polygon fill="#191970" stroke="#191970" points="315.2947,-758.6122 309.636,-749.6551 308.4739,-760.186 315.2947,-758.6122"/>
</g>
<!-- Node176 -->
<g id="node11" class="node">
<title>Node176</title>
<g id="a_node11"><a xlink:href="quickjs_8c.html#a26be546cf89c4580ba9020e8fc43a759" target="_top" xlink:title="js_parse_destructuring\l_element">
<polygon fill="none" stroke="#ff0000" points="1798,-389.055 1798,-419.055 1913,-419.055 1913,-389.055 1798,-389.055"/>
<text text-anchor="start" x="1806" y="-407.055" font-family="Helvetica,sans-Serif" font-size="10.00" fill="#000000">js_parse_destructuring</text>
<text text-anchor="middle" x="1855.5" y="-396.055" font-family="Helvetica,sans-Serif" font-size="10.00" fill="#000000">_element</text>
</a>
</g>
</g>
<!-- Node158&#45;&gt;Node176 -->
<g id="edge65" class="edge">
<title>Node158&#45;&gt;Node176</title>
<path fill="none" stroke="#191970" d="M349.7063,-732.1463C355.2127,-729.4528 360.2375,-725.8556 364,-721.055 423.4254,-645.2353 335.1681,-360.3069 400,-289.055 652.6848,-11.3481 869.0393,-267.055 1244.5,-267.055 1244.5,-267.055 1244.5,-267.055 1551,-267.055 1648.1393,-267.055 1676.0993,-278.6996 1762,-324.055 1794.1161,-341.0123 1824.8096,-370.7265 1841.8073,-388.7771"/>
<polygon fill="#191970" stroke="#191970" points="348.1705,-728.9883 340.1226,-735.8789 350.7111,-735.511 348.1705,-728.9883"/>
</g>
<!-- Node178 -->
<g id="node12" class="node">
<title>Node178</title>
<g id="a_node12"><a xlink:href="quickjs_8c.html#af99673e7430294cf15dc24dc5dac227f" target="_top" xlink:title="js_parse_unary">
<polygon fill="none" stroke="#000000" points="904.5,-711.555 904.5,-730.555 987.5,-730.555 987.5,-711.555 904.5,-711.555"/>
<text text-anchor="middle" x="946" y="-718.555" font-family="Helvetica,sans-Serif" font-size="10.00" fill="#000000">js_parse_unary</text>
</a>
</g>
</g>
<!-- Node158&#45;&gt;Node178 -->
<g id="edge68" class="edge">
<title>Node158&#45;&gt;Node178</title>
<path fill="none" stroke="#191970" d="M350.3488,-738.78C466.9539,-735.3101 788.9479,-725.7285 904.2506,-722.2974"/>
<polygon fill="#191970" stroke="#191970" points="349.9326,-735.2907 340.0411,-739.0867 350.1408,-742.2876 349.9326,-735.2907"/>
</g>
<!-- Node179 -->
<g id="node13" class="node">
<title>Node179</title>
<g id="a_node13"><a xlink:href="quickjs_8c.html#a2ecfb6abb190101748202a8aa5821fba" target="_top" xlink:title="js_parse_delete">
<polygon fill="none" stroke="#000000" points="1051,-729.555 1051,-748.555 1136,-748.555 1136,-729.555 1051,-729.555"/>
<text text-anchor="middle" x="1093.5" y="-736.555" font-family="Helvetica,sans-Serif" font-size="10.00" fill="#000000">js_parse_delete</text>
</a>
</g>
</g>
<!-- Node158&#45;&gt;Node179 -->
<g id="edge67" class="edge">
<title>Node158&#45;&gt;Node179</title>
<path fill="none" stroke="#191970" d="M350.4333,-742.6212C366.0365,-743.489 383.8101,-744.4024 400,-745.055 617.2337,-753.8121 671.6091,-755.1659 889,-758.055 939.6622,-758.7283 952.6043,-763.2882 1003,-758.055 1020.8847,-756.1979 1040.4425,-752.329 1056.7863,-748.5642"/>
<polygon fill="#191970" stroke="#191970" points="350.2061,-739.1028 340.0241,-742.0315 349.8101,-746.0916 350.2061,-739.1028"/>
</g>
<!-- Node180 -->
<g id="node14" class="node">
<title>Node180</title>
<g id="a_node14"><a xlink:href="quickjs_8c.html#ab1c84e1eb8a5f06b9257c3c9b5a6f024" target="_top" xlink:title="js_parse_expr_binary">
<polygon fill="none" stroke="#000000" points="1039,-673.555 1039,-692.555 1148,-692.555 1148,-673.555 1039,-673.555"/>
<text text-anchor="middle" x="1093.5" y="-680.555" font-family="Helvetica,sans-Serif" font-size="10.00" fill="#000000">js_parse_expr_binary</text>
</a>
</g>
</g>
<!-- Node158&#45;&gt;Node180 -->
<g id="edge69" class="edge">
<title>Node158&#45;&gt;Node180</title>
<path fill="none" stroke="#191970" d="M347.9391,-727.6213C406.1594,-710.8501 517.2441,-683.055 614,-683.055 614,-683.055 614,-683.055 786,-683.055 874.4863,-683.055 977.2955,-683.055 1038.7866,-683.055"/>
<polygon fill="#191970" stroke="#191970" points="346.6552,-724.35 338.0385,-730.5145 348.6188,-731.069 346.6552,-724.35"/>
</g>
<!-- Node181 -->
<g id="node15" class="node">
<title>Node181</title>
<g id="a_node15"><a xlink:href="quickjs_8c.html#a2af8c0e05d949d0ae23d94c8e73e5494" target="_top" xlink:title="js_parse_logical_and_or">
<polygon fill="none" stroke="#000000" points="1184,-635.555 1184,-654.555 1305,-654.555 1305,-635.555 1184,-635.555"/>
<text text-anchor="middle" x="1244.5" y="-642.555" font-family="Helvetica,sans-Serif" font-size="10.00" fill="#000000">js_parse_logical_and_or</text>
</a>
</g>
</g>
<!-- Node158&#45;&gt;Node181 -->
<g id="edge70" class="edge">
<title>Node158&#45;&gt;Node181</title>
<path fill="none" stroke="#191970" d="M349.69,-727.985C354.6469,-725.9546 359.5266,-723.6492 364,-721.055 382.5186,-710.3158 380.8629,-698.649 400,-689.055 486.8032,-645.5379 516.8993,-645.055 614,-645.055 614,-645.055 614,-645.055 946,-645.055 1028.3984,-645.055 1123.5912,-645.055 1183.8995,-645.055"/>
<polygon fill="#191970" stroke="#191970" points="348.2886,-724.7724 340.1489,-731.5545 350.7414,-731.3286 348.2886,-724.7724"/>
</g>
<!-- Node182 -->
<g id="node16" class="node">
<title>Node182</title>
<g id="a_node16"><a xlink:href="quickjs_8c.html#a2a6a8f6738ae03f046617522b9781245" target="_top" xlink:title="js_parse_coalesce_expr">
<polygon fill="none" stroke="#000000" points="1341,-663.555 1341,-682.555 1463,-682.555 1463,-663.555 1341,-663.555"/>
<text text-anchor="middle" x="1402" y="-670.555" font-family="Helvetica,sans-Serif" font-size="10.00" fill="#000000">js_parse_coalesce_expr</text>
</a>
</g>
</g>
<!-- Node158&#45;&gt;Node182 -->
<g id="edge71" class="edge">
<title>Node158&#45;&gt;Node182</title>
<path fill="none" stroke="#191970" d="M350.0736,-751.4888C365.6641,-755.2057 383.5221,-758.9199 400,-761.055 463.9482,-769.3411 480.5439,-764.2029 545,-766.055 812.913,-773.7534 886.0338,-814.715 1148,-758.055 1235.4912,-739.1318 1335.0239,-700.6055 1379.0184,-682.6571"/>
<polygon fill="#191970" stroke="#191970" points="350.7393,-748.0483 340.1931,-749.0624 349.0698,-754.8463 350.7393,-748.0483"/>
</g>
<!-- Node183 -->
<g id="node17" class="node">
<title>Node183</title>
<g id="a_node17"><a xlink:href="quickjs_8c.html#abd2cbff624ea609dbf883fb1a2f048cd" target="_top" xlink:title="js_parse_cond_expr">
<polygon fill="none" stroke="#000000" points="1499,-597.555 1499,-616.555 1603,-616.555 1603,-597.555 1499,-597.555"/>
<text text-anchor="middle" x="1551" y="-604.555" font-family="Helvetica,sans-Serif" font-size="10.00" fill="#000000">js_parse_cond_expr</text>
</a>
</g>
</g>
<!-- Node158&#45;&gt;Node183 -->
<g id="edge72" class="edge">
<title>Node158&#45;&gt;Node183</title>
<path fill="none" stroke="#191970" d="M336.1455,-753.8618C354.0851,-761.9117 377.9129,-771.5368 400,-777.055 700.8209,-852.2127 783.4325,-853.055 1093.5,-853.055 1093.5,-853.055 1093.5,-853.055 1244.5,-853.055 1398.3614,-853.055 1518.9797,-662.1804 1545.5368,-616.6985"/>
<polygon fill="#191970" stroke="#191970" points="337.3817,-750.5782 326.8333,-749.5877 334.4617,-756.9401 337.3817,-750.5782"/>
</g>
<!-- Node184 -->
<g id="node18" class="node">
<title>Node184</title>
<g id="a_node18"><a xlink:href="quickjs_8c.html#a4fa2fc1719feb03edf64eaf034103fd2" target="_top" xlink:title="js_parse_assign_expr">
<polygon fill="none" stroke="#ff0000" points="1645,-559.555 1645,-578.555 1756,-578.555 1756,-559.555 1645,-559.555"/>
<text text-anchor="middle" x="1700.5" y="-566.555" font-family="Helvetica,sans-Serif" font-size="10.00" fill="#000000">js_parse_assign_expr</text>
</a>
</g>
</g>
<!-- Node158&#45;&gt;Node184 -->
<g id="edge73" class="edge">
<title>Node158&#45;&gt;Node184</title>
<path fill="none" stroke="#191970" d="M310.5908,-759.689C317.9948,-799.4662 340.7487,-889.2452 400,-930.055 478.6376,-984.2174 518.5148,-949.055 614,-949.055 614,-949.055 614,-949.055 1093.5,-949.055 1271.244,-949.055 1319.1863,-900.5087 1463,-796.055 1557.1939,-727.6408 1547.2635,-673.7307 1639,-602.055 1651.0308,-592.6552 1666.117,-584.5141 1678.3366,-578.6698"/>
<polygon fill="#191970" stroke="#191970" points="314.0115,-758.9292 308.8592,-749.6716 307.1138,-760.1217 314.0115,-758.9292"/>
</g>
<!-- Node172 -->
<g id="node19" class="node">
<title>Node172</title>
<g id="a_node19"><a xlink:href="quickjs_8c.html#aee6d0acd87f136d43f157ae1426436e6" target="_top" xlink:title="js_parse_object_literal">
<polygon fill="none" stroke="#000000" points="1799,-181.555 1799,-200.555 1912,-200.555 1912,-181.555 1799,-181.555"/>
<text text-anchor="middle" x="1855.5" y="-188.555" font-family="Helvetica,sans-Serif" font-size="10.00" fill="#000000">js_parse_object_literal</text>
</a>
</g>
</g>
<!-- Node158&#45;&gt;Node172 -->
<g id="edge59" class="edge">
<title>Node158&#45;&gt;Node172</title>
<path fill="none" stroke="#191970" d="M349.8084,-732.2253C355.3011,-729.5212 360.2949,-725.9 364,-721.055 445.9494,-613.8944 310.3187,-215.8339 400,-115.055 464.2169,-42.8917 517.401,-77.055 614,-77.055 614,-77.055 614,-77.055 1244.5,-77.055 1477.0321,-77.055 1537.4191,-93.7677 1762,-154.055 1787.9651,-161.0252 1816.5265,-172.9989 1835.1643,-181.4338"/>
<polygon fill="#191970" stroke="#191970" points="348.2748,-729.0667 340.2329,-735.9644 350.8211,-735.5872 348.2748,-729.0667"/>
</g>
<!-- Node185 -->
<g id="node20" class="node">
<title>Node185</title>
<g id="a_node20"><a xlink:href="quickjs_8c.html#a253917187cfb6b3db09d355b31edb3d5" target="_top" xlink:title="js_parse_array_literal">
<polygon fill="none" stroke="#000000" points="1801,-48.555 1801,-67.555 1910,-67.555 1910,-48.555 1801,-48.555"/>
<text text-anchor="middle" x="1855.5" y="-55.555" font-family="Helvetica,sans-Serif" font-size="10.00" fill="#000000">js_parse_array_literal</text>
</a>
</g>
</g>
<!-- Node158&#45;&gt;Node185 -->
<g id="edge62" class="edge">
<title>Node158&#45;&gt;Node185</title>
<path fill="none" stroke="#191970" d="M349.8278,-732.2401C355.3179,-729.5341 360.3058,-725.9084 364,-721.055 452.4261,-604.8829 309.623,-179.7161 400,-65.055 461.4535,12.9109 514.7266,-1.055 614,-1.055 614,-1.055 614,-1.055 1551,-1.055 1652.9184,-1.055 1770.7997,-32.288 1825.1654,-48.5145"/>
<polygon fill="#191970" stroke="#191970" points="348.2947,-729.0814 340.254,-735.9804 350.842,-735.6015 348.2947,-729.0814"/>
</g>
<!-- Node186 -->
<g id="node21" class="node">
<title>Node186</title>
<g id="a_node21"><a xlink:href="quickjs_8c.html#a1cef6995e7ec0c736babe92589cf441f" target="_top" xlink:title="js_parse_expr2">
<polygon fill="none" stroke="#ff0000" points="1814,-844.555 1814,-863.555 1897,-863.555 1897,-844.555 1814,-844.555"/>
<text text-anchor="middle" x="1855.5" y="-851.555" font-family="Helvetica,sans-Serif" font-size="10.00" fill="#000000">js_parse_expr2</text>
</a>
</g>
</g>
<!-- Node158&#45;&gt;Node186 -->
<g id="edge74" class="edge">
<title>Node158&#45;&gt;Node186</title>
<path fill="none" stroke="#191970" d="M311.7167,-759.6658C326.4319,-827.2975 375.9168,-1047.8225 400,-1069.055 472.1366,-1132.6531 517.8314,-1101.055 614,-1101.055 614,-1101.055 614,-1101.055 1551,-1101.055 1645.7209,-1101.055 1686.7433,-1128.5744 1762,-1071.055 1832.7254,-1016.999 1850.7309,-898.6658 1854.5755,-863.8657"/>
<polygon fill="#191970" stroke="#191970" points="315.1291,-758.8861 309.5927,-749.8529 308.2875,-760.367 315.1291,-758.8861"/>
</g>
<!-- Node188 -->
<g id="node22" class="node">
<title>Node188</title>
<g id="a_node22"><a xlink:href="quickjs_8c.html#a42234753f3193f37ce45b3c0ca4c25cd" target="_top" xlink:title="js_parse_property_name">
<polygon fill="none" stroke="#000000" points="1639,-333.555 1639,-352.555 1762,-352.555 1762,-333.555 1639,-333.555"/>
<text text-anchor="middle" x="1700.5" y="-340.555" font-family="Helvetica,sans-Serif" font-size="10.00" fill="#000000">js_parse_property_name</text>
</a>
</g>
</g>
<!-- Node158&#45;&gt;Node188 -->
<g id="edge51" class="edge">
<title>Node158&#45;&gt;Node188</title>
<path fill="none" stroke="#191970" d="M349.7066,-731.9147C355.1672,-729.2506 360.1783,-725.7232 364,-721.055 444.8764,-622.2651 342.419,-550.0062 400,-436.055 454.6586,-327.8874 492.8068,-267.055 614,-267.055 614,-267.055 614,-267.055 786,-267.055 990.4764,-267.055 1040.0236,-305.055 1244.5,-305.055 1244.5,-305.055 1244.5,-305.055 1402,-305.055 1491.9854,-305.055 1596.0168,-322.2588 1654.4535,-333.5151"/>
<polygon fill="#191970" stroke="#191970" points="348.2561,-728.7239 340.2232,-735.6321 350.8108,-735.2411 348.2561,-728.7239"/>
</g>
<!-- Node191 -->
<g id="node23" class="node">
<title>Node191</title>
<g id="a_node23"><a xlink:href="quickjs_8c.html#a02cbd69384985a4e904190810cf45641" target="_top" xlink:title="js_parse_expect_semi">
<polygon fill="none" stroke="#ff0000" points="889,-1053.555 889,-1072.555 1003,-1072.555 1003,-1053.555 889,-1053.555"/>
<text text-anchor="middle" x="946" y="-1060.555" font-family="Helvetica,sans-Serif" font-size="10.00" fill="#000000">js_parse_expect_semi</text>
</a>
</g>
</g>
<!-- Node158&#45;&gt;Node191 -->
<g id="edge48" class="edge">
<title>Node158&#45;&gt;Node191</title>
<path fill="none" stroke="#191970" d="M310.6094,-759.7432C320.6517,-820.6032 354.2422,-1003.7361 400,-1039.055 474.9232,-1096.8857 764.6593,-1079.1571 888.9012,-1068.5147"/>
<polygon fill="#191970" stroke="#191970" points="314.0635,-759.1777 309.0107,-749.8654 307.1534,-760.2962 314.0635,-759.1777"/>
</g>
<!-- Node192 -->
<g id="node24" class="node">
<title>Node192</title>
<g id="a_node24"><a xlink:href="quickjs_8c.html#aba7eb7aae2eb61bfccb4565ee626cd18" target="_top" xlink:title="js_parse_seek_token">
<polygon fill="none" stroke="#ff0000" points="400,-901.555 400,-920.555 509,-920.555 509,-901.555 400,-901.555"/>
<text text-anchor="middle" x="454.5" y="-908.555" font-family="Helvetica,sans-Serif" font-size="10.00" fill="#000000">js_parse_seek_token</text>
</a>
</g>
</g>
<!-- Node158&#45;&gt;Node192 -->
<g id="edge52" class="edge">
<title>Node158&#45;&gt;Node192</title>
<path fill="none" stroke="#191970" d="M315.1175,-759.2109C328.2146,-789.9614 357.7299,-850.577 400,-887.055 407.0443,-893.1342 415.8716,-897.9052 424.3576,-901.5366"/>
<polygon fill="#191970" stroke="#191970" points="318.2284,-757.5743 311.1757,-749.668 311.7587,-760.2468 318.2284,-757.5743"/>
</g>
<!-- Node193 -->
<g id="node25" class="node">
<title>Node193</title>
<g id="a_node25"><a xlink:href="quickjs_8c.html#ac00298085baf11a4a7bd600cf5de2e6d" target="_top" xlink:title="js_parse_skip_parens\l_token">
<polygon fill="none" stroke="#ff0000" points="558.5,-886.055 558.5,-916.055 669.5,-916.055 669.5,-886.055 558.5,-886.055"/>
<text text-anchor="start" x="566.5" y="-904.055" font-family="Helvetica,sans-Serif" font-size="10.00" fill="#000000">js_parse_skip_parens</text>
<text text-anchor="middle" x="614" y="-893.055" font-family="Helvetica,sans-Serif" font-size="10.00" fill="#000000">_token</text>
</a>
</g>
</g>
<!-- Node158&#45;&gt;Node193 -->
<g id="edge58" class="edge">
<title>Node158&#45;&gt;Node193</title>
<path fill="none" stroke="#191970" d="M317.9189,-758.3818C332.8532,-782.9274 362.7039,-826.048 400,-849.055 448.3227,-878.8642 512.5925,-891.5876 558.0481,-897.0168"/>
<polygon fill="#191970" stroke="#191970" points="320.8776,-756.5088 312.7776,-749.6794 314.8508,-760.0694 320.8776,-756.5088"/>
</g>
<!-- Node169 -->
<g id="node26" class="node">
<title>Node169</title>
<g id="a_node26"><a xlink:href="quickjs_8c.html#adf95ddf430ef93fd9efea1cc2f8a2fbe" target="_top" xlink:title="js_parse_class_default_ctor">
<polygon fill="none" stroke="#000000" points="545,-977.555 545,-996.555 683,-996.555 683,-977.555 545,-977.555"/>
<text text-anchor="middle" x="614" y="-984.555" font-family="Helvetica,sans-Serif" font-size="10.00" fill="#000000">js_parse_class_default_ctor</text>
</a>
</g>
</g>
<!-- Node158&#45;&gt;Node169 -->
<g id="edge60" class="edge">
<title>Node158&#45;&gt;Node169</title>
<path fill="none" stroke="#191970" d="M309.183,-759.805C314.1264,-804.3229 332.8134,-912.5454 400,-963.055 440.9397,-993.8328 499.349,-998.5421 544.8053,-996.2699"/>
<polygon fill="#191970" stroke="#191970" points="312.6515,-759.3132 308.1816,-749.7075 305.6857,-760.0041 312.6515,-759.3132"/>
</g>
<!-- Node196 -->
<g id="node27" class="node">
<title>Node196</title>
<g id="a_node27"><a xlink:href="quickjs_8c.html#ab10609a91c359ea5d3051f7bb646af83" target="_top" xlink:title="js_parse_destructuring_var">
<polygon fill="none" stroke="#000000" points="719,-124.555 719,-143.555 853,-143.555 853,-124.555 719,-124.555"/>
<text text-anchor="middle" x="786" y="-131.555" font-family="Helvetica,sans-Serif" font-size="10.00" fill="#000000">js_parse_destructuring_var</text>
</a>
</g>
</g>
<!-- Node158&#45;&gt;Node196 -->
<g id="edge63" class="edge">
<title>Node158&#45;&gt;Node196</title>
<path fill="none" stroke="#191970" d="M349.7794,-732.203C355.276,-729.5019 360.2786,-725.8875 364,-721.055 437.9204,-625.066 316.2747,-264.6233 400,-177.055 491.681,-81.166 670.4393,-107.2698 748.2738,-124.4895"/>
<polygon fill="#191970" stroke="#191970" points="348.2452,-729.0446 340.2016,-735.9403 350.7898,-735.5657 348.2452,-729.0446"/>
</g>
<!-- Node159&#45;&gt;Node160 -->
<g id="edge8" class="edge">
<title>Node159&#45;&gt;Node160</title>
<path fill="none" stroke="#191970" d="M468.0043,-472.6095C484.2811,-492.6821 513.411,-525.3083 545,-545.055 554.6792,-551.1057 566.0809,-555.8683 576.7976,-559.5006"/>
<polygon fill="#191970" stroke="#191970" points="470.6126,-470.2656 461.6564,-464.6055 465.1281,-474.6154 470.6126,-470.2656"/>
</g>
<!-- Node159&#45;&gt;Node161 -->
<g id="edge46" class="edge">
<title>Node159&#45;&gt;Node161</title>
<path fill="none" stroke="#191970" d="M508.7074,-459.7972C569.6572,-465.1291 668.1524,-473.7456 729.8762,-479.1453"/>
<polygon fill="#191970" stroke="#191970" points="508.7876,-456.2909 498.5206,-458.906 508.1775,-463.2643 508.7876,-456.2909"/>
</g>
<!-- Node159&#45;&gt;Node162 -->
<g id="edge43" class="edge">
<title>Node159&#45;&gt;Node162</title>
<path fill="none" stroke="#191970" d="M498.6163,-467.313C513.3229,-471.2499 529.825,-475.5066 545,-479.055 605.9393,-493.3045 622.9509,-489.4271 683,-507.055 699.4722,-511.8906 702.3629,-516.8214 719,-521.055 881.6232,-562.4382 925.694,-569.055 1093.5,-569.055 1093.5,-569.055 1093.5,-569.055 1244.5,-569.055 1420.0366,-569.055 1463.5142,-554.2785 1639,-550.055 1700.0609,-548.5855 1770.8368,-548.9816 1814.3912,-549.4669"/>
<polygon fill="#191970" stroke="#191970" points="499.3267,-463.8795 488.76,-464.6512 497.5016,-470.6374 499.3267,-463.8795"/>
</g>
<!-- Node159&#45;&gt;Node176 -->
<g id="edge45" class="edge">
<title>Node159&#45;&gt;Node176</title>
<path fill="none" stroke="#191970" d="M508.8484,-446.4337C636.7397,-426.9202 966.8695,-381.055 1244.5,-381.055 1244.5,-381.055 1244.5,-381.055 1551,-381.055 1637.1497,-381.055 1736.621,-390.3224 1797.7897,-397.0919"/>
<polygon fill="#191970" stroke="#191970" points="508.2612,-442.9827 498.9081,-447.9596 509.3234,-449.9017 508.2612,-442.9827"/>
</g>
<!-- Node159&#45;&gt;Node183 -->
<g id="edge47" class="edge">
<title>Node159&#45;&gt;Node183</title>
<path fill="none" stroke="#191970" d="M477.6108,-470.2284C495.4723,-481.4814 521.1017,-496.6172 545,-507.055 603.8716,-532.7679 623.6764,-525.403 683,-550.055 699.7066,-556.9975 701.6813,-563.8233 719,-569.055 879.1511,-617.4349 926.2009,-607.055 1093.5,-607.055 1093.5,-607.055 1093.5,-607.055 1244.5,-607.055 1333.8958,-607.055 1437.9582,-607.055 1498.9377,-607.055"/>
<polygon fill="#191970" stroke="#191970" points="479.3396,-467.1795 469.0287,-464.7432 475.5697,-473.0777 479.3396,-467.1795"/>
</g>
<!-- Node159&#45;&gt;Node172 -->
<g id="edge42" class="edge">
<title>Node159&#45;&gt;Node172</title>
<path fill="none" stroke="#191970" d="M459.7411,-435.6642C469.9854,-401.7636 496.0587,-332.0971 545,-298.055 862.1297,-77.4691 1015.6977,-153.055 1402,-153.055 1402,-153.055 1402,-153.055 1551,-153.055 1642.7656,-153.055 1748.898,-170.2588 1808.5188,-181.5151"/>
<polygon fill="#191970" stroke="#191970" points="456.3635,-434.7457 456.9623,-445.3236 463.0906,-436.681 456.3635,-434.7457"/>
</g>
<!-- Node159&#45;&gt;Node185 -->
<g id="edge44" class="edge">
<title>Node159&#45;&gt;Node185</title>
<path fill="none" stroke="#191970" d="M457.1221,-435.4292C463.985,-390.8561 486.1946,-280.5575 545,-212.055 671.4293,-64.7774 751.8994,-39.055 946,-39.055 946,-39.055 946,-39.055 1551,-39.055 1638.5286,-39.055 1739.9356,-46.972 1800.8323,-52.5849"/>
<polygon fill="#191970" stroke="#191970" points="453.6324,-435.1062 455.6647,-445.5043 460.5603,-436.1084 453.6324,-435.1062"/>
</g>
<!-- Node159&#45;&gt;Node188 -->
<g id="edge38" class="edge">
<title>Node159&#45;&gt;Node188</title>
<path fill="none" stroke="#191970" d="M461.5897,-435.8743C473.6036,-406.5512 501.0337,-351.608 545,-329.055 683.337,-258.0936 1089.0244,-343.055 1244.5,-343.055 1244.5,-343.055 1244.5,-343.055 1402,-343.055 1483.8802,-343.055 1578.3943,-343.055 1638.7574,-343.055"/>
<polygon fill="#191970" stroke="#191970" points="458.2427,-434.8231 457.8589,-445.411 464.7616,-437.3734 458.2427,-434.8231"/>
</g>
<!-- Node160&#45;&gt;Node161 -->
<g id="edge9" class="edge">
<title>Node160&#45;&gt;Node161</title>
<path fill="none" stroke="#191970" d="M642.6448,-554.8992C677.7968,-537.5275 736.4436,-508.5451 766.6746,-493.6054"/>
<polygon fill="#191970" stroke="#191970" points="640.8106,-551.9015 633.3962,-559.4697 643.9119,-558.177 640.8106,-551.9015"/>
</g>
<!-- Node161&#45;&gt;Node161 -->
<g id="edge15" class="edge">
<title>Node161&#45;&gt;Node161</title>
<path fill="none" stroke="#191970" d="M756.0599,-502.3296C756.9135,-507.7961 766.8936,-512.055 786,-512.055 814.4375,-512.055 822.6577,-502.6203 810.6606,-493.8121"/>
<polygon fill="#191970" stroke="#191970" points="759.0458,-504.1557 761.3394,-493.8121 753.096,-500.4678 759.0458,-504.1557"/>
</g>
<!-- Node161&#45;&gt;Node162 -->
<g id="edge10" class="edge">
<title>Node161&#45;&gt;Node162</title>
<path fill="none" stroke="#191970" d="M852.1918,-477.0848C914.4652,-475.055 1010.3121,-475.055 1093.5,-475.055 1093.5,-475.055 1093.5,-475.055 1551,-475.055 1645.9178,-475.055 1669.968,-484.828 1762,-508.055 1793.3784,-515.9743 1829.095,-530.0593 1845.8554,-540.5476"/>
<polygon fill="#191970" stroke="#191970" points="851.981,-473.5899 842.1116,-477.443 852.2296,-480.5855 851.981,-473.5899"/>
</g>
<!-- Node161&#45;&gt;Node176 -->
<g id="edge12" class="edge">
<title>Node161&#45;&gt;Node176</title>
<path fill="none" stroke="#191970" d="M812.7974,-470.7277C865.8395,-451.2354 988.195,-419.055 1093.5,-419.055 1093.5,-419.055 1093.5,-419.055 1551,-419.055 1637.1714,-419.055 1736.6369,-409.3848 1797.7984,-404.6228"/>
<polygon fill="#191970" stroke="#191970" points="811.2151,-467.5862 803.1388,-474.4436 813.7287,-474.1194 811.2151,-467.5862"/>
</g>
<!-- Node161&#45;&gt;Node178 -->
<g id="edge16" class="edge">
<title>Node161&#45;&gt;Node178</title>
<path fill="none" stroke="#191970" d="M798.085,-501.9559C829.8907,-549.0682 915.1429,-675.348 939.4491,-711.3516"/>
<polygon fill="#191970" stroke="#191970" points="800.9666,-499.969 792.4704,-493.6393 795.1649,-503.8857 800.9666,-499.969"/>
</g>
<!-- Node162&#45;&gt;Node161 -->
<g id="edge11" class="edge">
<title>Node162&#45;&gt;Node161</title>
<path fill="none" stroke="#191970" d="M1804.4281,-538.8061C1790.7956,-534.3273 1775.968,-529.5803 1762,-526.055 1669.968,-502.828 1645.9178,-493.055 1551,-493.055 1093.5,-493.055 1093.5,-493.055 1093.5,-493.055 1005.681,-493.055 903.7543,-493.055 842.1116,-490.6671"/>
<polygon fill="#191970" stroke="#191970" points="1803.521,-542.1923 1814.1141,-541.9987 1805.7123,-535.5441 1803.521,-542.1923"/>
</g>
<!-- Node176&#45;&gt;Node161 -->
<g id="edge14" class="edge">
<title>Node176&#45;&gt;Node161</title>
<path fill="none" stroke="#191970" d="M1787.8105,-419.5018C1726.1833,-428.3778 1632.6272,-437.055 1551,-437.055 1093.5,-437.055 1093.5,-437.055 1093.5,-437.055 1003.8296,-437.055 901.7959,-460.3891 840.724,-474.5119"/>
<polygon fill="#191970" stroke="#191970" points="1788.4208,-422.9497 1797.7984,-418.0191 1787.3928,-416.0256 1788.4208,-422.9497"/>
</g>
<!-- Node176&#45;&gt;Node176 -->
<g id="edge13" class="edge">
<title>Node176&#45;&gt;Node176</title>
<path fill="none" stroke="#191970" d="M1828.1361,-429.5129C1831.5323,-434.234 1840.6536,-437.555 1855.5,-437.555 1879.8633,-437.555 1888.8092,-428.6116 1882.3377,-419.214"/>
<polygon fill="#191970" stroke="#191970" points="1831.6473,-429.3797 1828.6623,-419.214 1824.6565,-429.0224 1831.6473,-429.3797"/>
</g>
<!-- Node178&#45;&gt;Node178 -->
<g id="edge19" class="edge">
<title>Node178&#45;&gt;Node178</title>
<path fill="none" stroke="#191970" d="M918.7475,-739.709C919.8867,-744.9918 928.9708,-749.055 946,-749.055 971.9492,-749.055 979.4502,-739.6203 968.5028,-730.8121"/>
<polygon fill="#191970" stroke="#191970" points="921.8752,-741.2821 923.4972,-730.8121 915.7001,-737.9854 921.8752,-741.2821"/>
</g>
<!-- Node178&#45;&gt;Node179 -->
<g id="edge17" class="edge">
<title>Node178&#45;&gt;Node179</title>
<path fill="none" stroke="#191970" d="M998.0725,-720.9258C1019.353,-722.9859 1043.2764,-726.1807 1061.8462,-729.5342"/>
<polygon fill="#191970" stroke="#191970" points="998.146,-717.4184 987.873,-720.0099 997.5199,-724.3903 998.146,-717.4184"/>
</g>
<!-- Node178&#45;&gt;Node180 -->
<g id="edge20" class="edge">
<title>Node178&#45;&gt;Node180</title>
<path fill="none" stroke="#191970" d="M993.0141,-708.9429C1013.5566,-703.6506 1037.2998,-697.5337 1056.5472,-692.5751"/>
<polygon fill="#191970" stroke="#191970" points="992.0311,-705.5818 983.2205,-711.466 993.7775,-712.3605 992.0311,-705.5818"/>
</g>
<!-- Node179&#45;&gt;Node178 -->
<g id="edge18" class="edge">
<title>Node179&#45;&gt;Node178</title>
<path fill="none" stroke="#191970" d="M1040.853,-739.1285C1019.713,-737.0663 996.047,-733.898 977.6425,-730.5738"/>
<polygon fill="#191970" stroke="#191970" points="1040.7186,-742.6306 1050.9938,-740.0478 1041.3507,-735.6591 1040.7186,-742.6306"/>
</g>
<!-- Node180&#45;&gt;Node180 -->
<g id="edge21" class="edge">
<title>Node180&#45;&gt;Node180</title>
<path fill="none" stroke="#191970" d="M1066.2475,-701.709C1067.3867,-706.9918 1076.4708,-711.055 1093.5,-711.055 1119.4492,-711.055 1126.9502,-701.6203 1116.0028,-692.8121"/>
<polygon fill="#191970" stroke="#191970" points="1069.3752,-703.2821 1070.9972,-692.8121 1063.2001,-699.9854 1069.3752,-703.2821"/>
</g>
<!-- Node180&#45;&gt;Node181 -->
<g id="edge22" class="edge">
<title>Node180&#45;&gt;Node181</title>
<path fill="none" stroke="#191970" d="M1141.3431,-671.015C1162.4386,-665.7063 1186.8766,-659.5563 1206.6703,-654.5751"/>
<polygon fill="#191970" stroke="#191970" points="1140.4471,-667.6313 1131.6037,-673.466 1142.1555,-674.4197 1140.4471,-667.6313"/>
</g>
<!-- Node180&#45;&gt;Node182 -->
<g id="edge37" class="edge">
<title>Node180&#45;&gt;Node182</title>
<path fill="none" stroke="#191970" d="M1158.3774,-684.22C1200.2473,-684.6083 1255.871,-684.4457 1305,-682.055 1316.6559,-681.4878 1329.0753,-680.5726 1340.9999,-679.5381"/>
<polygon fill="#191970" stroke="#191970" points="1158.3489,-680.7196 1148.3125,-684.1136 1158.2749,-687.7192 1158.3489,-680.7196"/>
</g>
<!-- Node181&#45;&gt;Node181 -->
<g id="edge23" class="edge">
<title>Node181&#45;&gt;Node181</title>
<path fill="none" stroke="#191970" d="M1216.5009,-663.709C1217.6712,-668.9918 1227.0043,-673.055 1244.5,-673.055 1271.1602,-673.055 1278.8666,-663.6203 1267.6194,-654.8121"/>
<polygon fill="#191970" stroke="#191970" points="1219.6403,-665.263 1221.3806,-654.8121 1213.5029,-661.8967 1219.6403,-665.263"/>
</g>
<!-- Node181&#45;&gt;Node182 -->
<g id="edge24" class="edge">
<title>Node181&#45;&gt;Node182</title>
<path fill="none" stroke="#191970" d="M1308.3141,-656.3998C1321.6449,-658.7697 1335.5685,-661.245 1348.4802,-663.5404"/>
<polygon fill="#191970" stroke="#191970" points="1308.7203,-652.9172 1298.2621,-654.6127 1307.495,-659.8091 1308.7203,-652.9172"/>
</g>
<!-- Node182&#45;&gt;Node183 -->
<g id="edge25" class="edge">
<title>Node182&#45;&gt;Node183</title>
<path fill="none" stroke="#191970" d="M1432.8755,-659.3786C1461.6796,-646.6198 1503.9161,-627.911 1529.308,-616.6636"/>
<polygon fill="#191970" stroke="#191970" points="1431.3915,-656.2079 1423.6659,-663.4581 1434.2266,-662.6081 1431.3915,-656.2079"/>
</g>
<!-- Node183&#45;&gt;Node184 -->
<g id="edge26" class="edge">
<title>Node183&#45;&gt;Node184</title>
<path fill="none" stroke="#191970" d="M1579.8095,-594.2752C1598.2649,-588.3813 1622.8229,-581.7755 1644.967,-576.6227"/>
<polygon fill="#191970" stroke="#191970" points="1578.6202,-590.9822 1570.2385,-597.4627 1580.8321,-597.6236 1578.6202,-590.9822"/>
</g>
<!-- Node184&#45;&gt;Node161 -->
<g id="edge33" class="edge">
<title>Node184&#45;&gt;Node161</title>
<path fill="none" stroke="#191970" d="M1634.6565,-560.109C1546.1358,-548.8752 1383.7672,-531.055 1244.5,-531.055 1093.5,-531.055 1093.5,-531.055 1093.5,-531.055 995.2102,-531.055 881.2558,-507.2997 823.5888,-493.5662"/>
<polygon fill="#191970" stroke="#191970" points="1634.4541,-563.6116 1644.8179,-561.4109 1635.3438,-556.6684 1634.4541,-563.6116"/>
</g>
<!-- Node184&#45;&gt;Node162 -->
<g id="edge29" class="edge">
<title>Node184&#45;&gt;Node162</title>
<path fill="none" stroke="#191970" d="M1766.1125,-561.0122C1782.5151,-559.0016 1799.6455,-556.9017 1814.4698,-555.0846"/>
<polygon fill="#191970" stroke="#191970" points="1765.5206,-557.5585 1756.0208,-562.2493 1766.3723,-564.5065 1765.5206,-557.5585"/>
</g>
<!-- Node184&#45;&gt;Node176 -->
<g id="edge32" class="edge">
<title>Node184&#45;&gt;Node176</title>
<path fill="none" stroke="#191970" d="M1716.6815,-551.8296C1747.1486,-519.3969 1812.5492,-449.7768 1841.3683,-419.0984"/>
<polygon fill="#191970" stroke="#191970" points="1714.0276,-549.5428 1709.7318,-559.2277 1719.1295,-554.3355 1714.0276,-549.5428"/>
</g>
<!-- Node184&#45;&gt;Node183 -->
<g id="edge34" class="edge">
<title>Node184&#45;&gt;Node183</title>
<path fill="none" stroke="#191970" d="M1671.7435,-581.8179C1652.376,-588.0057 1626.2704,-594.9805 1603.2878,-600.236"/>
<polygon fill="#191970" stroke="#191970" points="1673.0964,-585.0563 1681.4756,-578.5725 1670.8819,-578.4158 1673.0964,-585.0563"/>
</g>
<!-- Node184&#45;&gt;Node184 -->
<g id="edge35" class="edge">
<title>Node184&#45;&gt;Node184</title>
<path fill="none" stroke="#191970" d="M1672.8742,-587.709C1674.0289,-592.9918 1683.2375,-597.055 1700.5,-597.055 1726.8047,-597.055 1734.4084,-587.6203 1723.3111,-578.8121"/>
<polygon fill="#191970" stroke="#191970" points="1676.0076,-589.2727 1677.6889,-578.8121 1669.8512,-585.941 1676.0076,-589.2727"/>
</g>
<!-- Node184&#45;&gt;Node172 -->
<g id="edge27" class="edge">
<title>Node184&#45;&gt;Node172</title>
<path fill="none" stroke="#191970" d="M1708.4064,-549.7736C1736.5113,-481.2339 1831.0021,-250.7984 1851.5391,-200.7145"/>
<polygon fill="#191970" stroke="#191970" points="1705.0429,-548.7511 1704.4872,-559.3313 1711.5196,-551.4069 1705.0429,-548.7511"/>
</g>
<!-- Node184&#45;&gt;Node185 -->
<g id="edge30" class="edge">
<title>Node184&#45;&gt;Node185</title>
<path fill="none" stroke="#191970" d="M1707.0742,-549.3811C1719.1326,-512.8055 1745.0972,-431.7219 1762,-362.055 1782.2649,-278.5314 1770.3771,-253.442 1798,-172.055 1811.8211,-131.3332 1837.7157,-86.8625 1849.4477,-67.7105"/>
<polygon fill="#191970" stroke="#191970" points="1703.63,-548.6479 1703.8039,-559.2413 1710.2741,-550.8516 1703.63,-548.6479"/>
</g>
<!-- Node184&#45;&gt;Node186 -->
<g id="edge36" class="edge">
<title>Node184&#45;&gt;Node186</title>
<path fill="none" stroke="#191970" d="M1710.7486,-587.8992C1740.7656,-643.0918 1827.7791,-803.0844 1850.187,-844.286"/>
<polygon fill="#191970" stroke="#191970" points="1713.6879,-585.978 1705.8355,-578.8654 1707.5385,-589.3225 1713.6879,-585.978"/>
</g>
<!-- Node172&#45;&gt;Node161 -->
<g id="edge28" class="edge">
<title>Node172&#45;&gt;Node161</title>
<path fill="none" stroke="#191970" d="M1788.4437,-191.055C1726.746,-191.055 1632.7068,-191.055 1551,-191.055 1402,-191.055 1402,-191.055 1402,-191.055 1131.9891,-191.055 854.316,-423.4664 796.8051,-474.3064"/>
<polygon fill="#191970" stroke="#191970" points="1788.8182,-194.5551 1798.8182,-191.055 1788.8182,-187.5551 1788.8182,-194.5551"/>
</g>
<!-- Node185&#45;&gt;Node161 -->
<g id="edge31" class="edge">
<title>Node185&#45;&gt;Node161</title>
<path fill="none" stroke="#191970" d="M1790.7568,-65.3429C1649.5132,-82.873 1305.0561,-134.5464 1039,-247.055 969.9802,-276.2418 944.5133,-273.7173 889,-324.055 837.8518,-370.4347 801.5675,-447.7281 789.9685,-474.546"/>
<polygon fill="#191970" stroke="#191970" points="1791.4746,-68.7812 1800.9745,-64.0906 1790.623,-61.8332 1791.4746,-68.7812"/>
</g>
<!-- Node188&#45;&gt;Node162 -->
<g id="edge40" class="edge">
<title>Node188&#45;&gt;Node162</title>
<path fill="none" stroke="#191970" d="M1713.9263,-360.9856C1745.4979,-403.149 1823.6245,-507.4859 1848.0673,-540.1288"/>
<polygon fill="#191970" stroke="#191970" points="1716.5636,-358.6682 1707.7681,-352.7614 1710.9603,-362.8639 1716.5636,-358.6682"/>
</g>
<!-- Node188&#45;&gt;Node176 -->
<g id="edge41" class="edge">
<title>Node188&#45;&gt;Node176</title>
<path fill="none" stroke="#191970" d="M1734.4367,-356.2654C1743.4029,-359.7648 1753.0696,-363.5456 1762,-367.055 1780.1976,-374.2063 1800.3688,-382.1823 1817.3035,-388.8925"/>
<polygon fill="#191970" stroke="#191970" points="1735.6385,-352.9774 1725.0502,-352.6049 1733.0951,-359.499 1735.6385,-352.9774"/>
</g>
<!-- Node188&#45;&gt;Node172 -->
<g id="edge39" class="edge">
<title>Node188&#45;&gt;Node172</title>
<path fill="none" stroke="#191970" d="M1717.6244,-326.2621C1750.2051,-294.312 1820.1507,-225.7201 1845.8077,-200.5597"/>
<polygon fill="#191970" stroke="#191970" points="1714.8852,-324.0461 1710.1959,-333.5468 1719.7864,-329.044 1714.8852,-324.0461"/>
</g>
<!-- Node191&#45;&gt;Node162 -->
<g id="edge49" class="edge">
<title>Node191&#45;&gt;Node162</title>
<path fill="none" stroke="#191970" d="M1013.4076,-1063.055C1073.9074,-1063.055 1165.1381,-1063.055 1244.5,-1063.055 1244.5,-1063.055 1244.5,-1063.055 1551,-1063.055 1645.3825,-1063.055 1693.2439,-1103.713 1762,-1039.055 1795.5349,-1007.519 1789.4473,-880.2874 1798,-835.055 1818.4441,-726.9329 1845.766,-596.2861 1853.4267,-559.8826"/>
<polygon fill="#191970" stroke="#191970" points="1013.2245,-1059.5551 1003.2244,-1063.055 1013.2244,-1066.5551 1013.2245,-1059.5551"/>
</g>
<!-- Node192&#45;&gt;Node193 -->
<g id="edge53" class="edge">
<title>Node192&#45;&gt;Node193</title>
<path fill="none" stroke="#191970" d="M519.5947,-906.9739C532.4933,-906.1652 545.9215,-905.3233 558.4665,-904.5368"/>
<polygon fill="#191970" stroke="#191970" points="519.1522,-903.4946 509.3909,-907.6136 519.5903,-910.4809 519.1522,-903.4946"/>
</g>
<!-- Node192&#45;&gt;Node169 -->
<g id="edge56" class="edge">
<title>Node192&#45;&gt;Node169</title>
<path fill="none" stroke="#191970" d="M484.0049,-925.1138C516.0152,-940.3664 566.2475,-964.3015 593.9632,-977.5077"/>
<polygon fill="#191970" stroke="#191970" points="485.2339,-921.8224 474.7008,-920.6805 482.2228,-928.1417 485.2339,-921.8224"/>
</g>
<!-- Node193&#45;&gt;Node161 -->
<g id="edge55" class="edge">
<title>Node193&#45;&gt;Node161</title>
<path fill="none" stroke="#191970" d="M624.157,-876.4302C657.1086,-796.5417 760.166,-546.6875 781.936,-493.9079"/>
<polygon fill="#191970" stroke="#191970" points="620.9031,-875.1402 620.3256,-885.7192 627.3743,-877.8093 620.9031,-875.1402"/>
</g>
<!-- Node193&#45;&gt;Node176 -->
<g id="edge54" class="edge">
<title>Node193&#45;&gt;Node176</title>
<path fill="none" stroke="#191970" d="M679.7811,-904.2041C746.7513,-907.1355 853.5788,-911.055 946,-911.055 946,-911.055 946,-911.055 1093.5,-911.055 1420.0736,-911.055 1546.8806,-851.7662 1762,-606.055 1765.3808,-602.1935 1827.5732,-465.5587 1848.6113,-419.2357"/>
<polygon fill="#191970" stroke="#191970" points="679.9351,-900.7076 669.7898,-903.7612 679.625,-907.7008 679.9351,-900.7076"/>
</g>
<!-- Node169&#45;&gt;Node162 -->
<g id="edge57" class="edge">
<title>Node169&#45;&gt;Node162</title>
<path fill="none" stroke="#191970" d="M693.4116,-987.055C760.6702,-987.055 859.6514,-987.055 946,-987.055 946,-987.055 946,-987.055 1551,-987.055 1646.795,-987.055 1693.3215,-1009.8379 1762,-943.055 1776.5501,-928.9066 1841.2449,-618.9701 1853.4946,-559.7759"/>
<polygon fill="#191970" stroke="#191970" points="693.3103,-983.5551 683.3103,-987.055 693.3103,-990.5551 693.3103,-983.5551"/>
</g>
<!-- Node196&#45;&gt;Node176 -->
<g id="edge64" class="edge">
<title>Node196&#45;&gt;Node176</title>
<path fill="none" stroke="#191970" d="M832.1159,-146.1183C934.0894,-171.6971 1186.7528,-229.055 1402,-229.055 1402,-229.055 1402,-229.055 1551,-229.055 1645.3825,-229.055 1682.2764,-202.5358 1762,-253.055 1813.3089,-285.5684 1841.0189,-357.4606 1851.0661,-388.8714"/>
<polygon fill="#191970" stroke="#191970" points="832.7032,-142.6567 822.1503,-143.599 830.9875,-149.4432 832.7032,-142.6567"/>
</g>
<!-- Node206&#45;&gt;Node158 -->
<g id="edge79" class="edge">
<title>Node206&#45;&gt;Node158</title>
<path fill="none" stroke="#191970" d="M215.5463,-765.8428C234.6941,-760.4729 256.8116,-754.2702 274.556,-749.294"/>
<polygon fill="#191970" stroke="#191970" points="214.5263,-762.4937 205.8428,-768.5641 216.4165,-769.2337 214.5263,-762.4937"/>
</g>
<!-- Node207&#45;&gt;Node142 -->
<g id="edge81" class="edge">
<title>Node207&#45;&gt;Node142</title>
<path fill="none" stroke="#191970" d="M319.0205,-1024.1684C334.8152,-1047.7801 365.2273,-1089.1134 400,-1115.055 407.8723,-1120.928 417.4071,-1125.7472 426.2864,-1129.486"/>
<polygon fill="#191970" stroke="#191970" points="321.9337,-1022.2283 313.5272,-1015.7798 316.0776,-1026.0631 321.9337,-1022.2283"/>
</g>
</g>
</svg>
        <g id="navigator" transform="translate(0 0)" fill="#404254">
                <rect fill="#f2f5e9" fill-opacity="0.5" stroke="#606060" stroke-width=".5" x="0" y="0" width="60" height="60"/>
                <use id="zoomplus" xlink:href="#zoomPlus" x="17" y="9" onmousedown="handleZoom(evt,'in')"/>
                <use id="zoomminus" xlink:href="#zoomMin" x="42" y="9" onmousedown="handleZoom(evt,'out')"/>
                <use id="reset" xlink:href="#resetDef" x="30" y="36" onmousedown="handleReset()"/>
                <g id="arrowUp" xlink:href="#dirArrow" transform="translate(30 24)" onmousedown="handlePan(0,-1)">
                  <use xlink:href="#rim" fill="#404040">
                        <set attributeName="fill" to="#808080" begin="arrowUp.mouseover" end="arrowUp.mouseout"/>
                  </use>
                  <path fill="none" stroke="white" stroke-width="1.5" d="M0,-3.0v7 M-2.5,-0.5L0,-3.0L2.5,-0.5"/>
                </g>
                <g id="arrowRight" xlink:href="#dirArrow" transform="rotate(90) translate(36 -43)" onmousedown="handlePan(1,0)">
                  <use xlink:href="#rim" fill="#404040">
                        <set attributeName="fill" to="#808080" begin="arrowRight.mouseover" end="arrowRight.mouseout"/>
                  </use>
                  <path fill="none" stroke="white" stroke-width="1.5" d="M0,-3.0v7 M-2.5,-0.5L0,-3.0L2.5,-0.5"/>
                </g>
                <g id="arrowDown" xlink:href="#dirArrow" transform="rotate(180) translate(-30 -48)" onmousedown="handlePan(0,1)">
                  <use xlink:href="#rim" fill="#404040">
                        <set attributeName="fill" to="#808080" begin="arrowDown.mouseover" end="arrowDown.mouseout"/>
                  </use>
                  <path fill="none" stroke="white" stroke-width="1.5" d="M0,-3.0v7 M-2.5,-0.5L0,-3.0L2.5,-0.5"/>
                </g>
                <g id="arrowLeft" xlink:href="#dirArrow" transform="rotate(270) translate(-36 17)" onmousedown="handlePan(-1,0)">
                  <use xlink:href="#rim" fill="#404040">
                        <set attributeName="fill" to="#808080" begin="arrowLeft.mouseover" end="arrowLeft.mouseout"/>
                  </use>
                  <path fill="none" stroke="white" stroke-width="1.5" d="M0,-3.0v7 M-2.5,-0.5L0,-3.0L2.5,-0.5"/>
                </g>
        </g>
        <svg viewBox="0 0 15 15" width="100%" height="30px" preserveAspectRatio="xMaxYMin meet">
         <g id="arrow_out" transform="scale(0.3 0.3)">
          <a xlink:href="libregexp_8h_adca92c15688d39a0e06cd92f870d25d2_icgraph_org.svg" target="_base">
           <rect id="button" ry="5" rx="5" y="6" x="6" height="38" width="38"
                fill="#f2f5e9" fill-opacity="0.5" stroke="#606060" stroke-width="1.0"/>
           <path id="arrow"
             d="M 11.500037,31.436501 C 11.940474,20.09759 22.043105,11.32322 32.158766,21.979434 L 37.068811,17.246167 C 37.068811,17.246167 37.088388,32 37.088388,32 L 22.160133,31.978069 C 22.160133,31.978069 26.997745,27.140456 26.997745,27.140456 C 18.528582,18.264221 13.291696,25.230495 11.500037,31.436501 z"
             style="fill:#404040;"/>
          </a>
         </g>
        </svg>
</svg>
