<?xml version="1.0" encoding="UTF-8" standalone="no"?>
<!DOCTYPE svg PUBLIC "-//W3C//DTD SVG 1.1//EN"
 "http://www.w3.org/Graphics/SVG/1.1/DTD/svg11.dtd">
<!-- Generated by graphviz version 2.40.1 (20161225.0304)
 -->
<!-- Title: lre_compile Pages: 1 -->
<svg width="941pt" height="782pt"
 viewBox="0.00 0.00 941.00 782.04" xmlns="http://www.w3.org/2000/svg" xmlns:xlink="http://www.w3.org/1999/xlink">
<g id="graph0" class="graph" transform="scale(1 1) rotate(0) translate(4 778.0442)">
<title>lre_compile</title>
<!-- Node0 -->
<g id="node1" class="node">
<title>Node0</title>
<polygon fill="#bfbfbf" stroke="#000000" points="0,-285.5 0,-304.5 66,-304.5 66,-285.5 0,-285.5"/>
<text text-anchor="middle" x="33" y="-292.5" font-family="Helvetica,sans-Serif" font-size="10.00" fill="#000000">lre_compile</text>
</g>
<!-- Node1 -->
<g id="node2" class="node">
<title>Node1</title>
<g id="a_node2"><a xlink:href="libregexp_8c.html#a0a619a0b3bf0d0ec3aa0a9a59d610e1c" target="_top" xlink:title="__attribute__">
<polygon fill="none" stroke="#000000" points="664,-532.5 664,-551.5 737,-551.5 737,-532.5 664,-532.5"/>
<text text-anchor="middle" x="700.5" y="-539.5" font-family="Helvetica,sans-Serif" font-size="10.00" fill="#000000">__attribute__</text>
</a>
</g>
</g>
<!-- Node0&#45;&gt;Node1 -->
<g id="edge1" class="edge">
<title>Node0&#45;&gt;Node1</title>
<path fill="none" stroke="#191970" d="M33.6313,-304.6046C37.2461,-357.101 56.7683,-609.18 102,-670 160.1232,-748.1544 199.6017,-770 297,-770 297,-770 297,-770 424.5,-770 516.0709,-770 556.586,-790.5415 627,-732 679.9717,-687.9598 694.8849,-600.9492 698.9883,-561.8484"/>
<polygon fill="#191970" stroke="#191970" points="702.4858,-562.0349 699.9137,-551.7571 695.5151,-561.3956 702.4858,-562.0349"/>
</g>
<!-- Node2 -->
<g id="node3" class="node">
<title>Node2</title>
<g id="a_node3"><a xlink:href="libregexp_8c.html#a09c49010ae229bc3a53575addc5f7c40" target="_top" xlink:title="compute_stack_size">
<polygon fill="none" stroke="#000000" points="102,-152.5 102,-171.5 209,-171.5 209,-152.5 102,-152.5"/>
<text text-anchor="middle" x="155.5" y="-159.5" font-family="Helvetica,sans-Serif" font-size="10.00" fill="#000000">compute_stack_size</text>
</a>
</g>
</g>
<!-- Node0&#45;&gt;Node2 -->
<g id="edge2" class="edge">
<title>Node0&#45;&gt;Node2</title>
<path fill="none" stroke="#191970" d="M36.86,-285.2224C45.5388,-264.3641 68.4882,-215.0421 102,-186 106.4355,-182.1561 111.5868,-178.8262 116.9065,-175.9739"/>
<polygon fill="#191970" stroke="#191970" points="118.4403,-179.12 125.9216,-171.6179 115.3948,-172.8172 118.4403,-179.12"/>
</g>
<!-- Node4 -->
<g id="node5" class="node">
<title>Node4</title>
<g id="a_node5"><a xlink:href="cutils_8h.html#a1fed0a329cb7bb0e04283285037921a4" target="_top" xlink:title="dbuf_error">
<polygon fill="none" stroke="#000000" points="533.5,-703.5 533.5,-722.5 593.5,-722.5 593.5,-703.5 533.5,-703.5"/>
<text text-anchor="middle" x="563.5" y="-710.5" font-family="Helvetica,sans-Serif" font-size="10.00" fill="#000000">dbuf_error</text>
</a>
</g>
</g>
<!-- Node0&#45;&gt;Node4 -->
<g id="edge4" class="edge">
<title>Node0&#45;&gt;Node4</title>
<path fill="none" stroke="#191970" d="M33.8529,-304.5959C38.3145,-352.8583 60.3654,-568.7263 102,-619 206.8297,-745.5816 431.5519,-731.3373 523.2682,-719.3751"/>
<polygon fill="#191970" stroke="#191970" points="523.8305,-722.8309 533.2651,-718.0104 522.8836,-715.8952 523.8305,-722.8309"/>
</g>
<!-- Node5 -->
<g id="node6" class="node">
<title>Node5</title>
<g id="a_node6"><a xlink:href="cutils_8h.html#a8a3b715fc2146312b777c4e3db546b55" target="_top" xlink:title="dbuf_free">
<polygon fill="none" stroke="#000000" points="127,-114.5 127,-133.5 184,-133.5 184,-114.5 127,-114.5"/>
<text text-anchor="middle" x="155.5" y="-121.5" font-family="Helvetica,sans-Serif" font-size="10.00" fill="#000000">dbuf_free</text>
</a>
</g>
</g>
<!-- Node0&#45;&gt;Node5 -->
<g id="edge5" class="edge">
<title>Node0&#45;&gt;Node5</title>
<path fill="none" stroke="#191970" d="M34.6855,-285.2734C39.8014,-258.6352 57.6057,-183.7772 102,-143 106.4178,-138.9421 111.7588,-135.7398 117.3342,-133.2156"/>
<polygon fill="#191970" stroke="#191970" points="118.7351,-136.427 126.8172,-129.5764 116.227,-129.8917 118.7351,-136.427"/>
</g>
<!-- Node6 -->
<g id="node7" class="node">
<title>Node6</title>
<g id="a_node7"><a xlink:href="cutils_8h.html#a04e3983476063eb6fbab2fd74fc49fc6" target="_top" xlink:title="dbuf_init2">
<polygon fill="none" stroke="#000000" points="126,-76.5 126,-95.5 185,-95.5 185,-76.5 126,-76.5"/>
<text text-anchor="middle" x="155.5" y="-83.5" font-family="Helvetica,sans-Serif" font-size="10.00" fill="#000000">dbuf_init2</text>
</a>
</g>
</g>
<!-- Node0&#45;&gt;Node6 -->
<g id="edge6" class="edge">
<title>Node0&#45;&gt;Node6</title>
<path fill="none" stroke="#191970" d="M33.6966,-285.177C36.4136,-254.2257 48.9564,-157.6683 102,-105 106.0655,-100.9633 111.0428,-97.7802 116.3084,-95.2712"/>
<polygon fill="#191970" stroke="#191970" points="117.9565,-98.3829 125.963,-91.4441 115.377,-91.8755 117.9565,-98.3829"/>
</g>
<!-- Node8 -->
<g id="node9" class="node">
<title>Node8</title>
<g id="a_node9"><a xlink:href="cutils_8h.html#ad1cfaae47347ae771136b5a9bbda49aa" target="_top" xlink:title="dbuf_put">
<polygon fill="none" stroke="#000000" points="774,-342.5 774,-361.5 828,-361.5 828,-342.5 774,-342.5"/>
<text text-anchor="middle" x="801" y="-349.5" font-family="Helvetica,sans-Serif" font-size="10.00" fill="#000000">dbuf_put</text>
</a>
</g>
</g>
<!-- Node0&#45;&gt;Node8 -->
<g id="edge8" class="edge">
<title>Node0&#45;&gt;Node8</title>
<path fill="none" stroke="#191970" d="M60.521,-285.4043C73.0222,-281.4677 88.0955,-277.3012 102,-275 332.2358,-236.8958 395.917,-233.4254 627,-266 677.49,-273.1173 693.1431,-270.7563 738,-295 756.7339,-305.1251 774.3749,-321.959 786.1972,-334.7143"/>
<polygon fill="#191970" stroke="#191970" points="783.7993,-337.2831 793.0789,-342.3959 789.0131,-332.6122 783.7993,-337.2831"/>
</g>
<!-- Node10 -->
<g id="node11" class="node">
<title>Node10</title>
<g id="a_node11"><a xlink:href="cutils_8h.html#a8ba08f82c43549fcb3c939229498354d" target="_top" xlink:title="dbuf_put_u32">
<polygon fill="none" stroke="#000000" points="663,-304.5 663,-323.5 738,-323.5 738,-304.5 663,-304.5"/>
<text text-anchor="middle" x="700.5" y="-311.5" font-family="Helvetica,sans-Serif" font-size="10.00" fill="#000000">dbuf_put_u32</text>
</a>
</g>
</g>
<!-- Node0&#45;&gt;Node10 -->
<g id="edge10" class="edge">
<title>Node0&#45;&gt;Node10</title>
<path fill="none" stroke="#191970" d="M38.7185,-285.2953C48.975,-268.9734 72.2347,-236.579 102,-224 145.8045,-205.4879 161.4933,-221.845 209,-224 395.3523,-232.4531 451.971,-197.4749 627,-262 648.133,-269.7908 668.7621,-285.2858 682.7591,-297.3438"/>
<polygon fill="#191970" stroke="#191970" points="680.7711,-300.2608 690.5625,-304.3079 685.4321,-295.0381 680.7711,-300.2608"/>
</g>
<!-- Node11 -->
<g id="node12" class="node">
<title>Node11</title>
<g id="a_node12"><a xlink:href="cutils_8h.html#aeed81d4787ccdbd55baa9b5fd6717e88" target="_top" xlink:title="dbuf_putc">
<polygon fill="none" stroke="#000000" points="671,-342.5 671,-361.5 730,-361.5 730,-342.5 671,-342.5"/>
<text text-anchor="middle" x="700.5" y="-349.5" font-family="Helvetica,sans-Serif" font-size="10.00" fill="#000000">dbuf_putc</text>
</a>
</g>
</g>
<!-- Node0&#45;&gt;Node11 -->
<g id="edge12" class="edge">
<title>Node0&#45;&gt;Node11</title>
<path fill="none" stroke="#191970" d="M66.2846,-291.0632C116.2941,-285.498 213.8271,-276 297,-276 297,-276 297,-276 424.5,-276 514.8953,-276 545.7216,-255.4383 627,-295 647.9181,-305.1817 644.3493,-319.0937 663,-333 665.0478,-334.5269 667.2367,-335.9915 669.4897,-337.3822"/>
<polygon fill="#191970" stroke="#191970" points="667.9027,-340.5051 678.3347,-342.3556 671.3336,-334.4035 667.9027,-340.5051"/>
</g>
<!-- Node12 -->
<g id="node13" class="node">
<title>Node12</title>
<g id="a_node13"><a xlink:href="quickjs_8c.html#a770bcb52221b07905a94fcb36ac192cd" target="_top" xlink:title="lre_realloc">
<polygon fill="none" stroke="#000000" points="125,-38.5 125,-57.5 186,-57.5 186,-38.5 125,-38.5"/>
<text text-anchor="middle" x="155.5" y="-45.5" font-family="Helvetica,sans-Serif" font-size="10.00" fill="#000000">lre_realloc</text>
</a>
</g>
</g>
<!-- Node0&#45;&gt;Node12 -->
<g id="edge14" class="edge">
<title>Node0&#45;&gt;Node12</title>
<path fill="none" stroke="#191970" d="M34.6994,-285.4994C41.8244,-246.6214 70.3893,-100.145 102,-67 105.8265,-62.9878 110.5543,-59.8215 115.6028,-57.323"/>
<polygon fill="#191970" stroke="#191970" points="116.9847,-60.5392 124.9106,-53.5086 114.3303,-54.062 116.9847,-60.5392"/>
</g>
<!-- Node13 -->
<g id="node14" class="node">
<title>Node13</title>
<g id="a_node14"><a xlink:href="cutils_8h.html#adbfc0638ae78ec4076886d7cbc03d0e4" target="_top" xlink:title="pstrcpy">
<polygon fill="none" stroke="#000000" points="131,-.5 131,-19.5 180,-19.5 180,-.5 131,-.5"/>
<text text-anchor="middle" x="155.5" y="-7.5" font-family="Helvetica,sans-Serif" font-size="10.00" fill="#000000">pstrcpy</text>
</a>
</g>
</g>
<!-- Node0&#45;&gt;Node13 -->
<g id="edge15" class="edge">
<title>Node0&#45;&gt;Node13</title>
<path fill="none" stroke="#191970" d="M34.2728,-285.4171C40.1479,-242.506 65.904,-68.3989 102,-29 107.1269,-23.404 114.0098,-19.4554 121.1285,-16.6695"/>
<polygon fill="#191970" stroke="#191970" points="122.3914,-19.9399 130.8391,-13.5456 120.2477,-13.2762 122.3914,-19.9399"/>
</g>
<!-- Node14 -->
<g id="node15" class="node">
<title>Node14</title>
<g id="a_node15"><a xlink:href="cutils_8h.html#a3b6aba81e32ed70a2a851744e5a9cc9c" target="_top" xlink:title="put_u32">
<polygon fill="none" stroke="#000000" points="538,-646.5 538,-665.5 589,-665.5 589,-646.5 538,-646.5"/>
<text text-anchor="middle" x="563.5" y="-653.5" font-family="Helvetica,sans-Serif" font-size="10.00" fill="#000000">put_u32</text>
</a>
</g>
</g>
<!-- Node0&#45;&gt;Node14 -->
<g id="edge16" class="edge">
<title>Node0&#45;&gt;Node14</title>
<path fill="none" stroke="#191970" d="M34.5322,-304.6921C41.4166,-347.3251 70.5282,-517.9652 102,-561 181.8499,-670.1873 250.1409,-662.4686 385,-673 420.0045,-675.7336 429.0145,-675.9672 464,-673 485.3636,-671.1881 509.0328,-667.2253 527.9245,-663.5814"/>
<polygon fill="#191970" stroke="#191970" points="528.7559,-666.9847 537.8835,-661.6054 527.3935,-660.1186 528.7559,-666.9847"/>
</g>
<!-- Node15 -->
<g id="node16" class="node">
<title>Node15</title>
<g id="a_node16"><a xlink:href="libregexp_8c.html#a9cfa82248f8e07e4f79304fb3c51b6ab" target="_top" xlink:title="re_emit_op">
<polygon fill="none" stroke="#000000" points="531,-342.5 531,-361.5 596,-361.5 596,-342.5 531,-342.5"/>
<text text-anchor="middle" x="563.5" y="-349.5" font-family="Helvetica,sans-Serif" font-size="10.00" fill="#000000">re_emit_op</text>
</a>
</g>
</g>
<!-- Node0&#45;&gt;Node15 -->
<g id="edge17" class="edge">
<title>Node0&#45;&gt;Node15</title>
<path fill="none" stroke="#191970" d="M65.0464,-304.5762C76.6001,-307.7046 89.7979,-310.9086 102,-313 254.6063,-339.1558 438.7451,-348.0291 520.6377,-350.8207"/>
<polygon fill="#191970" stroke="#191970" points="520.6966,-354.3244 530.8058,-351.1537 520.9258,-347.3282 520.6966,-354.3244"/>
</g>
<!-- Node16 -->
<g id="node17" class="node">
<title>Node16</title>
<g id="a_node17"><a xlink:href="libregexp_8c.html#ac72424cc4c3614e12582bb5684d5971e" target="_top" xlink:title="re_emit_op_u32">
<polygon fill="none" stroke="#000000" points="520.5,-304.5 520.5,-323.5 606.5,-323.5 606.5,-304.5 520.5,-304.5"/>
<text text-anchor="middle" x="563.5" y="-311.5" font-family="Helvetica,sans-Serif" font-size="10.00" fill="#000000">re_emit_op_u32</text>
</a>
</g>
</g>
<!-- Node0&#45;&gt;Node16 -->
<g id="edge19" class="edge">
<title>Node0&#45;&gt;Node16</title>
<path fill="none" stroke="#191970" d="M66.1852,-296.1885C155.4021,-299.3839 401.0204,-308.1807 510.1005,-312.0875"/>
<polygon fill="#191970" stroke="#191970" points="510.1017,-315.5897 520.2206,-312.4499 510.3523,-308.5942 510.1017,-315.5897"/>
</g>
<!-- Node17 -->
<g id="node18" class="node">
<title>Node17</title>
<g id="a_node18"><a xlink:href="libregexp_8c.html#a108e0185eb65a399b93d273b6b609da5" target="_top" xlink:title="re_emit_op_u8">
<polygon fill="none" stroke="#000000" points="523.5,-380.5 523.5,-399.5 603.5,-399.5 603.5,-380.5 523.5,-380.5"/>
<text text-anchor="middle" x="563.5" y="-387.5" font-family="Helvetica,sans-Serif" font-size="10.00" fill="#000000">re_emit_op_u8</text>
</a>
</g>
</g>
<!-- Node0&#45;&gt;Node17 -->
<g id="edge22" class="edge">
<title>Node0&#45;&gt;Node17</title>
<path fill="none" stroke="#191970" d="M46.2597,-304.6117C59.6319,-313.7777 81.2154,-327.1675 102,-334 246.0399,-381.3503 427.2032,-389.3627 513.4358,-390.2735"/>
<polygon fill="#191970" stroke="#191970" points="513.4456,-393.7736 523.4725,-390.3515 513.5001,-386.7738 513.4456,-393.7736"/>
</g>
<!-- Node18 -->
<g id="node19" class="node">
<title>Node18</title>
<g id="a_node19"><a xlink:href="libregexp_8c.html#af445f369f2ccbbc81596e0fbed929b7e" target="_top" xlink:title="re_parse_disjunction">
<polygon fill="none" stroke="#000000" points="102.5,-532.5 102.5,-551.5 208.5,-551.5 208.5,-532.5 102.5,-532.5"/>
<text text-anchor="middle" x="155.5" y="-539.5" font-family="Helvetica,sans-Serif" font-size="10.00" fill="#000000">re_parse_disjunction</text>
</a>
</g>
</g>
<!-- Node0&#45;&gt;Node18 -->
<g id="edge24" class="edge">
<title>Node0&#45;&gt;Node18</title>
<path fill="none" stroke="#191970" d="M37.3475,-304.7157C47.9853,-328.3861 76.3336,-390.8475 102,-442 116.4281,-470.7549 134.2331,-503.5412 145.2266,-523.4986"/>
<polygon fill="#191970" stroke="#191970" points="142.265,-525.3758 150.1662,-532.4342 148.3913,-521.9891 142.265,-525.3758"/>
</g>
<!-- Node39 -->
<g id="node23" class="node">
<title>Node39</title>
<g id="a_node23"><a xlink:href="libregexp_8c.html#a93c827426ec4f4fcca04dd8c040c3250" target="_top" xlink:title="re_parse_out_of_memory">
<polygon fill="none" stroke="#000000" points="500,-532.5 500,-551.5 627,-551.5 627,-532.5 500,-532.5"/>
<text text-anchor="middle" x="563.5" y="-539.5" font-family="Helvetica,sans-Serif" font-size="10.00" fill="#000000">re_parse_out_of_memory</text>
</a>
</g>
</g>
<!-- Node0&#45;&gt;Node39 -->
<g id="edge45" class="edge">
<title>Node0&#45;&gt;Node39</title>
<path fill="none" stroke="#191970" d="M41.069,-304.6202C53.1471,-318.5422 77.1741,-344.4469 102,-361 237.6561,-451.4512 425.2726,-507.1532 513.6524,-530.0015"/>
<polygon fill="#191970" stroke="#191970" points="512.8648,-533.4126 523.42,-532.4969 514.5975,-526.6305 512.8648,-533.4126"/>
</g>
<!-- Node3 -->
<g id="node4" class="node">
<title>Node3</title>
<g id="a_node4"><a xlink:href="cutils_8h.html#ad587834d17e95461893d59661e5e9676" target="_top" xlink:title="get_u16">
<polygon fill="none" stroke="#000000" points="271.5,-152.5 271.5,-171.5 322.5,-171.5 322.5,-152.5 271.5,-152.5"/>
<text text-anchor="middle" x="297" y="-159.5" font-family="Helvetica,sans-Serif" font-size="10.00" fill="#000000">get_u16</text>
</a>
</g>
</g>
<!-- Node2&#45;&gt;Node3 -->
<g id="edge3" class="edge">
<title>Node2&#45;&gt;Node3</title>
<path fill="none" stroke="#191970" d="M209.3987,-162C226.6591,-162 245.3402,-162 260.9998,-162"/>
<polygon fill="#191970" stroke="#191970" points="261.3037,-165.5001 271.3036,-162 261.3036,-158.5001 261.3037,-165.5001"/>
</g>
<!-- Node7 -->
<g id="node8" class="node">
<title>Node7</title>
<g id="a_node8"><a xlink:href="cutils_8c.html#abb5d9de84cd0caedf89814f555ab5d1a" target="_top" xlink:title="dbuf_default_realloc">
<polygon fill="none" stroke="#000000" points="245,-76.5 245,-95.5 349,-95.5 349,-76.5 245,-76.5"/>
<text text-anchor="middle" x="297" y="-83.5" font-family="Helvetica,sans-Serif" font-size="10.00" fill="#000000">dbuf_default_realloc</text>
</a>
</g>
</g>
<!-- Node6&#45;&gt;Node7 -->
<g id="edge7" class="edge">
<title>Node6&#45;&gt;Node7</title>
<path fill="none" stroke="#191970" d="M185.163,-86C199.5925,-86 217.5114,-86 234.7476,-86"/>
<polygon fill="#191970" stroke="#191970" points="234.7856,-89.5001 244.7856,-86 234.7856,-82.5001 234.7856,-89.5001"/>
</g>
<!-- Node9 -->
<g id="node10" class="node">
<title>Node9</title>
<g id="a_node10"><a xlink:href="cutils_8h.html#ac0b9ce26415947e972d6781d9f2fb11b" target="_top" xlink:title="dbuf_realloc">
<polygon fill="none" stroke="#000000" points="864,-570.5 864,-589.5 933,-589.5 933,-570.5 864,-570.5"/>
<text text-anchor="middle" x="898.5" y="-577.5" font-family="Helvetica,sans-Serif" font-size="10.00" fill="#000000">dbuf_realloc</text>
</a>
</g>
</g>
<!-- Node8&#45;&gt;Node9 -->
<g id="edge9" class="edge">
<title>Node8&#45;&gt;Node9</title>
<path fill="none" stroke="#191970" d="M805.0653,-361.5066C819.808,-395.9819 870.6347,-514.8381 890.4762,-561.2366"/>
<polygon fill="#191970" stroke="#191970" points="887.2673,-562.6344 894.4173,-570.4528 893.7035,-559.8821 887.2673,-562.6344"/>
</g>
<!-- Node10&#45;&gt;Node8 -->
<g id="edge11" class="edge">
<title>Node10&#45;&gt;Node8</title>
<path fill="none" stroke="#191970" d="M725.8604,-323.589C738.0008,-328.1794 752.7344,-333.7503 765.9276,-338.7388"/>
<polygon fill="#191970" stroke="#191970" points="765.0561,-342.1511 775.6477,-342.4141 767.5319,-335.6035 765.0561,-342.1511"/>
</g>
<!-- Node11&#45;&gt;Node8 -->
<g id="edge13" class="edge">
<title>Node11&#45;&gt;Node8</title>
<path fill="none" stroke="#191970" d="M730.1097,-352C740.5526,-352 752.435,-352 763.4468,-352"/>
<polygon fill="#191970" stroke="#191970" points="763.6624,-355.5001 773.6624,-352 763.6624,-348.5001 763.6624,-355.5001"/>
</g>
<!-- Node15&#45;&gt;Node11 -->
<g id="edge18" class="edge">
<title>Node15&#45;&gt;Node11</title>
<path fill="none" stroke="#191970" d="M596.3149,-352C615.5942,-352 640.1059,-352 660.5099,-352"/>
<polygon fill="#191970" stroke="#191970" points="660.7559,-355.5001 670.7559,-352 660.7559,-348.5001 660.7559,-355.5001"/>
</g>
<!-- Node16&#45;&gt;Node10 -->
<g id="edge20" class="edge">
<title>Node16&#45;&gt;Node10</title>
<path fill="none" stroke="#191970" d="M606.8477,-314C621.4972,-314 637.929,-314 652.8905,-314"/>
<polygon fill="#191970" stroke="#191970" points="652.9736,-317.5001 662.9736,-314 652.9735,-310.5001 652.9736,-317.5001"/>
</g>
<!-- Node16&#45;&gt;Node11 -->
<g id="edge21" class="edge">
<title>Node16&#45;&gt;Node11</title>
<path fill="none" stroke="#191970" d="M598.0709,-323.589C617.1936,-328.8931 641.036,-335.5063 660.905,-341.0175"/>
<polygon fill="#191970" stroke="#191970" points="660.0218,-344.4045 670.5935,-343.7048 661.8928,-337.6592 660.0218,-344.4045"/>
</g>
<!-- Node17&#45;&gt;Node11 -->
<g id="edge23" class="edge">
<title>Node17&#45;&gt;Node11</title>
<path fill="none" stroke="#191970" d="M598.0709,-380.411C617.1936,-375.1069 641.036,-368.4937 660.905,-362.9825"/>
<polygon fill="#191970" stroke="#191970" points="661.8928,-366.3408 670.5935,-360.2952 660.0218,-359.5955 661.8928,-366.3408"/>
</g>
<!-- Node18&#45;&gt;Node14 -->
<g id="edge27" class="edge">
<title>Node18&#45;&gt;Node14</title>
<path fill="none" stroke="#191970" d="M162.5992,-551.5719C176.2957,-569.2126 208.279,-606.5502 245,-623 340.0016,-665.5575 466.435,-663.5124 527.4865,-659.3454"/>
<polygon fill="#191970" stroke="#191970" points="528.0427,-662.8138 537.7553,-658.5811 527.5231,-655.8331 528.0427,-662.8138"/>
</g>
<!-- Node18&#45;&gt;Node16 -->
<g id="edge28" class="edge">
<title>Node18&#45;&gt;Node16</title>
<path fill="none" stroke="#191970" d="M169.9568,-532.375C187.5563,-520.7175 218.245,-500.5815 245,-484 356.9558,-414.6153 379.3445,-385.826 500,-333 505.1388,-330.7501 510.6232,-328.6681 516.1352,-326.7716"/>
<polygon fill="#191970" stroke="#191970" points="517.5879,-329.9798 526.0179,-323.5621 515.4258,-323.3221 517.5879,-329.9798"/>
</g>
<!-- Node19 -->
<g id="node20" class="node">
<title>Node19</title>
<g id="a_node20"><a xlink:href="libregexp_8c.html#a44b4fc8b2dc5c233dff873025438c86d" target="_top" xlink:title="dbuf_insert">
<polygon fill="none" stroke="#000000" points="531,-608.5 531,-627.5 596,-627.5 596,-608.5 531,-608.5"/>
<text text-anchor="middle" x="563.5" y="-615.5" font-family="Helvetica,sans-Serif" font-size="10.00" fill="#000000">dbuf_insert</text>
</a>
</g>
</g>
<!-- Node18&#45;&gt;Node19 -->
<g id="edge25" class="edge">
<title>Node18&#45;&gt;Node19</title>
<path fill="none" stroke="#191970" d="M166.4062,-551.6095C182.3721,-565.018 213.6305,-588.8359 245,-599 339.6476,-629.6669 458.2647,-626.6546 520.6279,-622.1262"/>
<polygon fill="#191970" stroke="#191970" points="521.1717,-625.5947 530.8709,-621.3313 520.6301,-618.6156 521.1717,-625.5947"/>
</g>
<!-- Node20 -->
<g id="node21" class="node">
<title>Node20</title>
<g id="a_node21"><a xlink:href="libregexp_8c.html#a87dce3150c68b8a079854274dd39243c" target="_top" xlink:title="re_parse_alternative">
<polygon fill="none" stroke="#000000" points="245,-570.5 245,-589.5 349,-589.5 349,-570.5 245,-570.5"/>
<text text-anchor="middle" x="297" y="-577.5" font-family="Helvetica,sans-Serif" font-size="10.00" fill="#000000">re_parse_alternative</text>
</a>
</g>
</g>
<!-- Node18&#45;&gt;Node20 -->
<g id="edge29" class="edge">
<title>Node18&#45;&gt;Node20</title>
<path fill="none" stroke="#191970" d="M191.2064,-551.589C209.4727,-556.4944 231.9084,-562.5196 251.4112,-567.7571"/>
<polygon fill="#191970" stroke="#191970" points="250.7394,-571.2006 261.305,-570.4141 252.555,-564.4401 250.7394,-571.2006"/>
</g>
<!-- Node18&#45;&gt;Node39 -->
<g id="edge44" class="edge">
<title>Node18&#45;&gt;Node39</title>
<path fill="none" stroke="#191970" d="M208.8389,-542C280.6139,-542 408.6086,-542 489.6181,-542"/>
<polygon fill="#191970" stroke="#191970" points="489.7465,-545.5001 499.7465,-542 489.7465,-538.5001 489.7465,-545.5001"/>
</g>
<!-- Node19&#45;&gt;Node9 -->
<g id="edge26" class="edge">
<title>Node19&#45;&gt;Node9</title>
<path fill="none" stroke="#191970" d="M596.2052,-616.1465C646.2951,-613.0569 744.9417,-605.981 828,-594 836.4332,-592.7835 845.3833,-591.22 853.9745,-589.5811"/>
<polygon fill="#191970" stroke="#191970" points="854.7067,-593.0042 863.8425,-587.6388 853.3548,-586.136 854.7067,-593.0042"/>
</g>
<!-- Node20&#45;&gt;Node9 -->
<g id="edge30" class="edge">
<title>Node20&#45;&gt;Node9</title>
<path fill="none" stroke="#191970" d="M349.0871,-580C402.8072,-580 489.0095,-580 563.5,-580 563.5,-580 563.5,-580 700.5,-580 753.0394,-580 813.4207,-580 853.5523,-580"/>
<polygon fill="#191970" stroke="#191970" points="853.8058,-583.5001 863.8058,-580 853.8057,-576.5001 853.8058,-583.5001"/>
</g>
<!-- Node21 -->
<g id="node22" class="node">
<title>Node21</title>
<g id="a_node22"><a xlink:href="libregexp_8c.html#acca34590a18d70f866ad56d67ce309e8" target="_top" xlink:title="re_parse_term">
<polygon fill="none" stroke="#ff0000" points="385,-456.5 385,-475.5 464,-475.5 464,-456.5 385,-456.5"/>
<text text-anchor="middle" x="424.5" y="-463.5" font-family="Helvetica,sans-Serif" font-size="10.00" fill="#000000">re_parse_term</text>
</a>
</g>
</g>
<!-- Node20&#45;&gt;Node21 -->
<g id="edge31" class="edge">
<title>Node20&#45;&gt;Node21</title>
<path fill="none" stroke="#191970" d="M307.8706,-570.2804C329.7006,-550.7618 379.0824,-506.6087 406.0594,-482.4881"/>
<polygon fill="#191970" stroke="#191970" points="408.5351,-484.9695 413.6569,-475.695 403.8693,-479.7512 408.5351,-484.9695"/>
</g>
<!-- Node21&#45;&gt;Node1 -->
<g id="edge32" class="edge">
<title>Node21&#45;&gt;Node1</title>
<path fill="none" stroke="#191970" d="M459.1761,-475.5485C509.0611,-489.2849 601.0941,-514.6274 655.9559,-529.7342"/>
<polygon fill="#191970" stroke="#191970" points="655.1783,-533.1503 665.7486,-532.4308 657.0367,-526.4015 655.1783,-533.1503"/>
</g>
<!-- Node21&#45;&gt;Node4 -->
<g id="edge33" class="edge">
<title>Node21&#45;&gt;Node4</title>
<path fill="none" stroke="#191970" d="M425.6908,-475.8852C430.0162,-508.0438 447.5048,-611.2781 500,-675 508.1051,-684.8385 519.4661,-692.7588 530.3417,-698.77"/>
<polygon fill="#191970" stroke="#191970" points="528.7877,-701.9065 539.2809,-703.3705 531.991,-695.6824 528.7877,-701.9065"/>
</g>
<!-- Node21&#45;&gt;Node8 -->
<g id="edge35" class="edge">
<title>Node21&#45;&gt;Node8</title>
<path fill="none" stroke="#191970" d="M464.1675,-465.1743C505.6212,-463.3774 572.1407,-457.8389 627,-441 684.2741,-423.4199 745.3172,-387.7513 777.6834,-367.3098"/>
<polygon fill="#191970" stroke="#191970" points="779.8617,-370.0712 786.3987,-361.7334 776.089,-364.1748 779.8617,-370.0712"/>
</g>
<!-- Node21&#45;&gt;Node11 -->
<g id="edge36" class="edge">
<title>Node21&#45;&gt;Node11</title>
<path fill="none" stroke="#191970" d="M464.3522,-456.7092C514.7946,-444.6188 598.5463,-423.3465 627,-409 647.9726,-398.4255 668.8405,-381.4664 682.9523,-368.7915"/>
<polygon fill="#191970" stroke="#191970" points="685.4455,-371.2536 690.43,-361.9045 680.7033,-366.1046 685.4455,-371.2536"/>
</g>
<!-- Node21&#45;&gt;Node14 -->
<g id="edge37" class="edge">
<title>Node21&#45;&gt;Node14</title>
<path fill="none" stroke="#191970" d="M425.9185,-475.7946C430.6575,-504.9081 448.6505,-591.7011 500,-637 507.8311,-643.9084 518.0898,-648.3064 528.0709,-651.1058"/>
<polygon fill="#191970" stroke="#191970" points="527.3237,-654.5255 537.8592,-653.4061 528.9251,-647.7112 527.3237,-654.5255"/>
</g>
<!-- Node21&#45;&gt;Node15 -->
<g id="edge38" class="edge">
<title>Node21&#45;&gt;Node15</title>
<path fill="none" stroke="#191970" d="M429.5223,-456.311C439.9805,-437.094 465.9787,-394.0265 500,-371 506.2896,-366.743 513.5568,-363.4182 520.8794,-360.8278"/>
<polygon fill="#191970" stroke="#191970" points="522.307,-364.049 530.8127,-357.7321 520.2242,-357.366 522.307,-364.049"/>
</g>
<!-- Node21&#45;&gt;Node16 -->
<g id="edge39" class="edge">
<title>Node21&#45;&gt;Node16</title>
<path fill="none" stroke="#191970" d="M431.2393,-456.0913C439.3601,-444.0039 453.2521,-422.8476 464,-404 481.5262,-373.2659 472.8518,-355.6877 500,-333 503.3277,-330.219 507.0519,-327.8451 510.9836,-325.8186"/>
<polygon fill="#191970" stroke="#191970" points="512.6781,-328.898 520.4456,-321.6926 509.8801,-322.4815 512.6781,-328.898"/>
</g>
<!-- Node21&#45;&gt;Node17 -->
<g id="edge40" class="edge">
<title>Node21&#45;&gt;Node17</title>
<path fill="none" stroke="#191970" d="M441.2973,-456.3735C448.4177,-452.1451 456.7326,-447.0095 464,-442 480.6891,-430.4961 482.3215,-423.9165 500,-414 507.2345,-409.9419 515.2908,-406.3011 523.1702,-403.1549"/>
<polygon fill="#191970" stroke="#191970" points="524.5181,-406.3871 532.6266,-399.5677 522.0353,-399.8421 524.5181,-406.3871"/>
</g>
<!-- Node21&#45;&gt;Node18 -->
<g id="edge41" class="edge">
<title>Node21&#45;&gt;Node18</title>
<path fill="none" stroke="#191970" d="M390.63,-475.5692C342.0699,-489.2888 252.6397,-514.5553 199.1669,-529.6629"/>
<polygon fill="#191970" stroke="#191970" points="197.9683,-526.3644 189.2967,-532.4515 199.8716,-533.1007 197.9683,-526.3644"/>
</g>
<!-- Node21&#45;&gt;Node19 -->
<g id="edge34" class="edge">
<title>Node21&#45;&gt;Node19</title>
<path fill="none" stroke="#191970" d="M431.2949,-475.5979C443.9635,-493.2421 472.4131,-531.7066 500,-561 513.8302,-575.6857 530.914,-590.8757 543.8769,-601.8784"/>
<polygon fill="#191970" stroke="#191970" points="541.8125,-604.715 551.7247,-608.4566 546.3093,-599.3503 541.8125,-604.715"/>
</g>
<!-- Node21&#45;&gt;Node39 -->
<g id="edge42" class="edge">
<title>Node21&#45;&gt;Node39</title>
<path fill="none" stroke="#191970" d="M441.2973,-475.6265C448.4177,-479.8549 456.7326,-484.9905 464,-490 480.6891,-501.5039 482.3215,-508.0835 500,-518 507.2345,-522.0581 515.2908,-525.6989 523.1702,-528.8451"/>
<polygon fill="#191970" stroke="#191970" points="522.0353,-532.1579 532.6266,-532.4323 524.5181,-525.6129 522.0353,-532.1579"/>
</g>
<!-- Node39&#45;&gt;Node1 -->
<g id="edge43" class="edge">
<title>Node39&#45;&gt;Node1</title>
<path fill="none" stroke="#191970" d="M627.1871,-542C636.1291,-542 645.181,-542 653.7293,-542"/>
<polygon fill="#191970" stroke="#191970" points="653.8653,-545.5001 663.8653,-542 653.8652,-538.5001 653.8653,-545.5001"/>
</g>
</g>
</svg>
