<?xml version="1.0" encoding="UTF-8" standalone="no"?>
<!DOCTYPE svg PUBLIC "-//W3C//DTD SVG 1.1//EN"
 "http://www.w3.org/Graphics/SVG/1.1/DTD/svg11.dtd">
<!-- Generated by graphviz version 2.40.1 (20161225.0304)
 -->
<!-- Title: re_parse_out_of_memory Pages: 1 -->
<!--zoomable 203 -->
<svg id="main" version="1.1" xmlns="http://www.w3.org/2000/svg" xmlns:xlink="http://www.w3.org/1999/xlink" xml:space="preserve" onload="init(evt)">
<style type="text/css"><![CDATA[
.edge:hover path { stroke: red; }
.edge:hover polygon { stroke: red; fill: red; }
]]></style>
<script type="text/javascript"><![CDATA[
var edges = document.getElementsByTagName('g');
if (edges && edges.length) {
  for (var i=0;i<edges.length;i++) {
    if (edges[i].id.substr(0,4)=='edge') {
      edges[i].setAttribute('class','edge');
    }
  }
}
]]></script>
        <defs>
                <circle id="rim" cx="0" cy="0" r="7"/>
                <circle id="rim2" cx="0" cy="0" r="3.5"/>
                <g id="zoomPlus">
                        <use xlink:href="#rim" fill="#404040">
                                <set attributeName="fill" to="#808080" begin="zoomplus.mouseover" end="zoomplus.mouseout"/>
                        </use>
                        <path d="M-4,0h8M0,-4v8" fill="none" stroke="white" stroke-width="1.5" pointer-events="none"/>
                </g>
                <g id="zoomMin">
                        <use xlink:href="#rim" fill="#404040">
                                <set attributeName="fill" to="#808080" begin="zoomminus.mouseover" end="zoomminus.mouseout"/>
                        </use>
                        <path d="M-4,0h8" fill="none" stroke="white" stroke-width="1.5" pointer-events="none"/>
                </g>
                <g id="dirArrow">
                        <path fill="none" stroke="white" stroke-width="1.5" d="M0,-3.0v7 M-2.5,-0.5L0,-3.0L2.5,-0.5"/>
                </g>
               <g id="resetDef">
                       <use xlink:href="#rim2" fill="#404040">
                               <set attributeName="fill" to="#808080" begin="reset.mouseover" end="reset.mouseout"/>
                       </use>
               </g>
        </defs>

<script type="text/javascript">
var viewWidth = 752;
var viewHeight = 203;
var sectionId = 'dynsection-23';
</script>
<script xlink:href="svgpan.js"/>
<svg id="graph" class="graph">
<g id="viewport">
<title>re_parse_out_of_memory</title>
<!-- Node925 -->
<g id="node1" class="node">
<title>Node925</title>
<polygon fill="#bfbfbf" stroke="#000000" points="0,-61.5114 0,-80.5114 127,-80.5114 127,-61.5114 0,-61.5114"/>
<text text-anchor="middle" x="63.5" y="-68.5114" font-family="Helvetica,sans-Serif" font-size="10.00" fill="#000000">re_parse_out_of_memory</text>
</g>
<!-- Node926 -->
<g id="node2" class="node">
<title>Node926</title>
<g id="a_node2"><a xlink:href="libregexp_8h.html#a9f2d004d841acbf42a7cf0490258b5ab" target="_top" xlink:title="lre_compile">
<polygon fill="none" stroke="#000000" points="329,-137.5114 329,-156.5114 395,-156.5114 395,-137.5114 329,-137.5114"/>
<text text-anchor="middle" x="362" y="-144.5114" font-family="Helvetica,sans-Serif" font-size="10.00" fill="#000000">lre_compile</text>
</a>
</g>
</g>
<!-- Node925&#45;&gt;Node926 -->
<g id="edge1" class="edge">
<title>Node925&#45;&gt;Node926</title>
<path fill="none" stroke="#191970" d="M84.5114,-86.613C103.841,-100.0666 133.8454,-118.746 163,-128.0114 219.2285,-145.8809 288.5334,-148.3961 328.7519,-148.0693"/>
<polygon fill="#191970" stroke="#191970" points="86.3514,-83.6264 76.1767,-80.6724 82.2885,-89.3267 86.3514,-83.6264"/>
</g>
<!-- Node938 -->
<g id="node7" class="node">
<title>Node938</title>
<g id="a_node7"><a xlink:href="libregexp_8c.html#a24c5604c81a33e66906a1f43227221e8" target="_top" xlink:title="parse_unicode_property">
<polygon fill="none" stroke="#000000" points="163,-61.5114 163,-80.5114 283,-80.5114 283,-61.5114 163,-61.5114"/>
<text text-anchor="middle" x="223" y="-68.5114" font-family="Helvetica,sans-Serif" font-size="10.00" fill="#000000">parse_unicode_property</text>
</a>
</g>
</g>
<!-- Node925&#45;&gt;Node938 -->
<g id="edge6" class="edge">
<title>Node925&#45;&gt;Node938</title>
<path fill="none" stroke="#191970" d="M137.6948,-71.0114C146.144,-71.0114 154.6767,-71.0114 162.9112,-71.0114"/>
<polygon fill="#191970" stroke="#191970" points="137.4558,-67.5115 127.4557,-71.0114 137.4557,-74.5115 137.4558,-67.5115"/>
</g>
<!-- Node940 -->
<g id="node9" class="node">
<title>Node940</title>
<g id="a_node9"><a xlink:href="libregexp_8c.html#ab2f98b8a2e66fd9197d2677f47ccffa8" target="_top" xlink:title="re_parse_char_class">
<polygon fill="none" stroke="#000000" points="441,-23.5114 441,-42.5114 548,-42.5114 548,-23.5114 441,-23.5114"/>
<text text-anchor="middle" x="494.5" y="-30.5114" font-family="Helvetica,sans-Serif" font-size="10.00" fill="#000000">re_parse_char_class</text>
</a>
</g>
</g>
<!-- Node925&#45;&gt;Node940 -->
<g id="edge11" class="edge">
<title>Node925&#45;&gt;Node940</title>
<path fill="none" stroke="#191970" d="M116.9354,-59.47C131.7887,-56.6274 147.9681,-53.8692 163,-52.0114 260.5452,-39.9556 375.2028,-35.5305 440.9098,-33.9195"/>
<polygon fill="#191970" stroke="#191970" points="116.0329,-56.0803 106.8946,-61.4413 117.3816,-62.9491 116.0329,-56.0803"/>
</g>
<!-- Node941 -->
<g id="node10" class="node">
<title>Node941</title>
<g id="a_node10"><a xlink:href="libregexp_8c.html#acca34590a18d70f866ad56d67ce309e8" target="_top" xlink:title="re_parse_term">
<polygon fill="none" stroke="#ff0000" points="624.5,-42.5114 624.5,-61.5114 703.5,-61.5114 703.5,-42.5114 624.5,-42.5114"/>
<text text-anchor="middle" x="664" y="-49.5114" font-family="Helvetica,sans-Serif" font-size="10.00" fill="#000000">re_parse_term</text>
</a>
</g>
</g>
<!-- Node925&#45;&gt;Node941 -->
<g id="edge15" class="edge">
<title>Node925&#45;&gt;Node941</title>
<path fill="none" stroke="#191970" d="M95.8327,-57.6947C115.0244,-50.3666 140.0225,-41.8106 163,-37.0114 330.7952,-1.9644 378.7267,13.008 548,-14.0114 581.6925,-19.3894 618.8868,-33.0327 641.8522,-42.418"/>
<polygon fill="#191970" stroke="#191970" points="94.4108,-54.4924 86.3674,-61.3884 96.9556,-61.0135 94.4108,-54.4924"/>
</g>
<!-- Node943 -->
<g id="node11" class="node">
<title>Node943</title>
<g id="a_node11"><a xlink:href="libregexp_8c.html#af445f369f2ccbbc81596e0fbed929b7e" target="_top" xlink:title="re_parse_disjunction">
<polygon fill="none" stroke="#000000" points="170,-99.5114 170,-118.5114 276,-118.5114 276,-99.5114 170,-99.5114"/>
<text text-anchor="middle" x="223" y="-106.5114" font-family="Helvetica,sans-Serif" font-size="10.00" fill="#000000">re_parse_disjunction</text>
</a>
</g>
</g>
<!-- Node925&#45;&gt;Node943 -->
<g id="edge12" class="edge">
<title>Node925&#45;&gt;Node943</title>
<path fill="none" stroke="#191970" d="M113.734,-82.9793C136.0855,-88.3045 162.0383,-94.4876 183.0408,-99.4913"/>
<polygon fill="#191970" stroke="#191970" points="114.2875,-79.5133 103.7486,-80.6004 112.6651,-86.3227 114.2875,-79.5133"/>
</g>
<!-- Node927 -->
<g id="node3" class="node">
<title>Node927</title>
<g id="a_node3"><a xlink:href="quickjs_8c.html#ab0bd3fbfe9b7f004c067b103a6d60d03" target="_top" xlink:title="js_compile_regexp">
<polygon fill="none" stroke="#000000" points="445.5,-137.5114 445.5,-156.5114 543.5,-156.5114 543.5,-137.5114 445.5,-137.5114"/>
<text text-anchor="middle" x="494.5" y="-144.5114" font-family="Helvetica,sans-Serif" font-size="10.00" fill="#000000">js_compile_regexp</text>
</a>
</g>
</g>
<!-- Node926&#45;&gt;Node927 -->
<g id="edge2" class="edge">
<title>Node926&#45;&gt;Node927</title>
<path fill="none" stroke="#191970" d="M405.4534,-147.0114C418.2043,-147.0114 432.2382,-147.0114 445.3193,-147.0114"/>
<polygon fill="#191970" stroke="#191970" points="405.0936,-143.5115 395.0936,-147.0114 405.0935,-150.5115 405.0936,-143.5115"/>
</g>
<!-- Node928 -->
<g id="node4" class="node">
<title>Node928</title>
<g id="a_node4"><a xlink:href="quickjs_8c.html#a233052710c228313122c39c231a23ddf" target="_top" xlink:title="js_regexp_constructor">
<polygon fill="none" stroke="#ff0000" points="607.5,-137.5114 607.5,-156.5114 720.5,-156.5114 720.5,-137.5114 607.5,-137.5114"/>
<text text-anchor="middle" x="664" y="-144.5114" font-family="Helvetica,sans-Serif" font-size="10.00" fill="#000000">js_regexp_constructor</text>
</a>
</g>
</g>
<!-- Node927&#45;&gt;Node928 -->
<g id="edge3" class="edge">
<title>Node927&#45;&gt;Node928</title>
<path fill="none" stroke="#191970" d="M553.579,-147.0114C571.0095,-147.0114 590.0397,-147.0114 607.3159,-147.0114"/>
<polygon fill="#191970" stroke="#191970" points="553.5265,-143.5115 543.5264,-147.0114 553.5264,-150.5115 553.5265,-143.5115"/>
</g>
<!-- Node936 -->
<g id="node5" class="node">
<title>Node936</title>
<g id="a_node5"><a xlink:href="quickjs_8c.html#af55de7fe1d3513a7230dfbfc1cbeec62" target="_top" xlink:title="js_regexp_compile">
<polygon fill="none" stroke="#000000" points="615,-99.5114 615,-118.5114 713,-118.5114 713,-99.5114 615,-99.5114"/>
<text text-anchor="middle" x="664" y="-106.5114" font-family="Helvetica,sans-Serif" font-size="10.00" fill="#000000">js_regexp_compile</text>
</a>
</g>
</g>
<!-- Node927&#45;&gt;Node936 -->
<g id="edge4" class="edge">
<title>Node927&#45;&gt;Node936</title>
<path fill="none" stroke="#191970" d="M547.2425,-135.1871C571.139,-129.8298 599.0152,-123.5802 621.5356,-118.5314"/>
<polygon fill="#191970" stroke="#191970" points="546.2641,-131.8195 537.272,-137.4224 547.7955,-138.6499 546.2641,-131.8195"/>
</g>
<!-- Node937 -->
<g id="node6" class="node">
<title>Node937</title>
<g id="a_node6"><a xlink:href="quickjs_8c.html#aa24c64e9ce871601a39b40dbfee0deb4" target="_top" xlink:title="JS_AddIntrinsicRegExpCompiler">
<polygon fill="none" stroke="#ff0000" points="584,-175.5114 584,-194.5114 744,-194.5114 744,-175.5114 584,-175.5114"/>
<text text-anchor="middle" x="664" y="-182.5114" font-family="Helvetica,sans-Serif" font-size="10.00" fill="#000000">JS_AddIntrinsicRegExpCompiler</text>
</a>
</g>
</g>
<!-- Node927&#45;&gt;Node937 -->
<g id="edge5" class="edge">
<title>Node927&#45;&gt;Node937</title>
<path fill="none" stroke="#191970" d="M547.2425,-158.8356C571.139,-164.193 599.0152,-170.4425 621.5356,-175.4913"/>
<polygon fill="#191970" stroke="#191970" points="547.7955,-155.3728 537.272,-156.6004 546.2641,-162.2033 547.7955,-155.3728"/>
</g>
<!-- Node939 -->
<g id="node8" class="node">
<title>Node939</title>
<g id="a_node8"><a xlink:href="libregexp_8c.html#ac654c01af0eedad21af5da6e5035f37c" target="_top" xlink:title="get_class_atom">
<polygon fill="none" stroke="#000000" points="319,-61.5114 319,-80.5114 405,-80.5114 405,-61.5114 319,-61.5114"/>
<text text-anchor="middle" x="362" y="-68.5114" font-family="Helvetica,sans-Serif" font-size="10.00" fill="#000000">get_class_atom</text>
</a>
</g>
</g>
<!-- Node938&#45;&gt;Node939 -->
<g id="edge7" class="edge">
<title>Node938&#45;&gt;Node939</title>
<path fill="none" stroke="#191970" d="M293.3692,-71.0114C302.0877,-71.0114 310.7879,-71.0114 318.921,-71.0114"/>
<polygon fill="#191970" stroke="#191970" points="293.159,-67.5115 283.159,-71.0114 293.159,-74.5115 293.159,-67.5115"/>
</g>
<!-- Node939&#45;&gt;Node940 -->
<g id="edge8" class="edge">
<title>Node939&#45;&gt;Node940</title>
<path fill="none" stroke="#191970" d="M405.2039,-58.6208C423.3492,-53.4169 444.1294,-47.4573 461.0754,-42.5973"/>
<polygon fill="#191970" stroke="#191970" points="404.0829,-55.3011 395.4353,-61.4224 406.0127,-62.0299 404.0829,-55.3011"/>
</g>
<!-- Node939&#45;&gt;Node941 -->
<g id="edge10" class="edge">
<title>Node939&#45;&gt;Node941</title>
<path fill="none" stroke="#191970" d="M415.2649,-67.6603C475.0169,-63.901 570.5676,-57.8896 624.1815,-54.5165"/>
<polygon fill="#191970" stroke="#191970" points="415.0297,-64.168 405.2692,-68.2891 415.4693,-71.1542 415.0297,-64.168"/>
</g>
<!-- Node940&#45;&gt;Node941 -->
<g id="edge9" class="edge">
<title>Node940&#45;&gt;Node941</title>
<path fill="none" stroke="#191970" d="M558.1784,-40.1494C580.4151,-42.642 604.7184,-45.3662 624.4203,-47.5747"/>
<polygon fill="#191970" stroke="#191970" points="558.4585,-36.6589 548.1309,-39.0231 557.6787,-43.6154 558.4585,-36.6589"/>
</g>
<!-- Node943&#45;&gt;Node926 -->
<g id="edge14" class="edge">
<title>Node943&#45;&gt;Node926</title>
<path fill="none" stroke="#191970" d="M267.8295,-121.2669C287.6681,-126.6904 310.5885,-132.9564 328.8495,-137.9486"/>
<polygon fill="#191970" stroke="#191970" points="268.6446,-117.8614 258.0756,-118.6004 266.7986,-124.6136 268.6446,-117.8614"/>
</g>
<!-- Node943&#45;&gt;Node941 -->
<g id="edge13" class="edge">
<title>Node943&#45;&gt;Node941</title>
<path fill="none" stroke="#191970" d="M286.3173,-104.5202C351.9938,-99.4085 457.5462,-89.9232 548,-76.0114 573.6113,-72.0723 602.1123,-66.1968 624.4541,-61.2453"/>
<polygon fill="#191970" stroke="#191970" points="285.8299,-101.0472 276.1274,-105.303 286.3661,-108.0266 285.8299,-101.0472"/>
</g>
</g>
</svg>
        <g id="navigator" transform="translate(0 0)" fill="#404254">
                <rect fill="#f2f5e9" fill-opacity="0.5" stroke="#606060" stroke-width=".5" x="0" y="0" width="60" height="60"/>
                <use id="zoomplus" xlink:href="#zoomPlus" x="17" y="9" onmousedown="handleZoom(evt,'in')"/>
                <use id="zoomminus" xlink:href="#zoomMin" x="42" y="9" onmousedown="handleZoom(evt,'out')"/>
                <use id="reset" xlink:href="#resetDef" x="30" y="36" onmousedown="handleReset()"/>
                <g id="arrowUp" xlink:href="#dirArrow" transform="translate(30 24)" onmousedown="handlePan(0,-1)">
                  <use xlink:href="#rim" fill="#404040">
                        <set attributeName="fill" to="#808080" begin="arrowUp.mouseover" end="arrowUp.mouseout"/>
                  </use>
                  <path fill="none" stroke="white" stroke-width="1.5" d="M0,-3.0v7 M-2.5,-0.5L0,-3.0L2.5,-0.5"/>
                </g>
                <g id="arrowRight" xlink:href="#dirArrow" transform="rotate(90) translate(36 -43)" onmousedown="handlePan(1,0)">
                  <use xlink:href="#rim" fill="#404040">
                        <set attributeName="fill" to="#808080" begin="arrowRight.mouseover" end="arrowRight.mouseout"/>
                  </use>
                  <path fill="none" stroke="white" stroke-width="1.5" d="M0,-3.0v7 M-2.5,-0.5L0,-3.0L2.5,-0.5"/>
                </g>
                <g id="arrowDown" xlink:href="#dirArrow" transform="rotate(180) translate(-30 -48)" onmousedown="handlePan(0,1)">
                  <use xlink:href="#rim" fill="#404040">
                        <set attributeName="fill" to="#808080" begin="arrowDown.mouseover" end="arrowDown.mouseout"/>
                  </use>
                  <path fill="none" stroke="white" stroke-width="1.5" d="M0,-3.0v7 M-2.5,-0.5L0,-3.0L2.5,-0.5"/>
                </g>
                <g id="arrowLeft" xlink:href="#dirArrow" transform="rotate(270) translate(-36 17)" onmousedown="handlePan(-1,0)">
                  <use xlink:href="#rim" fill="#404040">
                        <set attributeName="fill" to="#808080" begin="arrowLeft.mouseover" end="arrowLeft.mouseout"/>
                  </use>
                  <path fill="none" stroke="white" stroke-width="1.5" d="M0,-3.0v7 M-2.5,-0.5L0,-3.0L2.5,-0.5"/>
                </g>
        </g>
        <svg viewBox="0 0 15 15" width="100%" height="30px" preserveAspectRatio="xMaxYMin meet">
         <g id="arrow_out" transform="scale(0.3 0.3)">
          <a xlink:href="libregexp_8c_a93c827426ec4f4fcca04dd8c040c3250_icgraph_org.svg" target="_base">
           <rect id="button" ry="5" rx="5" y="6" x="6" height="38" width="38"
                fill="#f2f5e9" fill-opacity="0.5" stroke="#606060" stroke-width="1.0"/>
           <path id="arrow"
             d="M 11.500037,31.436501 C 11.940474,20.09759 22.043105,11.32322 32.158766,21.979434 L 37.068811,17.246167 C 37.068811,17.246167 37.088388,32 37.088388,32 L 22.160133,31.978069 C 22.160133,31.978069 26.997745,27.140456 26.997745,27.140456 C 18.528582,18.264221 13.291696,25.230495 11.500037,31.436501 z"
             style="fill:#404040;"/>
          </a>
         </g>
        </svg>
</svg>
