<?xml version="1.0" encoding="UTF-8" standalone="no"?>
<!DOCTYPE svg PUBLIC "-//W3C//DTD SVG 1.1//EN"
 "http://www.w3.org/Graphics/SVG/1.1/DTD/svg11.dtd">
<!-- Generated by graphviz version 2.40.1 (20161225.0304)
 -->
<!-- Title: compose_pair Pages: 1 -->
<!--zoomable 104 -->
<svg id="main" version="1.1" xmlns="http://www.w3.org/2000/svg" xmlns:xlink="http://www.w3.org/1999/xlink" xml:space="preserve" onload="init(evt)">
<style type="text/css"><![CDATA[
.edge:hover path { stroke: red; }
.edge:hover polygon { stroke: red; fill: red; }
]]></style>
<script type="text/javascript"><![CDATA[
var edges = document.getElementsByTagName('g');
if (edges && edges.length) {
  for (var i=0;i<edges.length;i++) {
    if (edges[i].id.substr(0,4)=='edge') {
      edges[i].setAttribute('class','edge');
    }
  }
}
]]></script>
        <defs>
                <circle id="rim" cx="0" cy="0" r="7"/>
                <circle id="rim2" cx="0" cy="0" r="3.5"/>
                <g id="zoomPlus">
                        <use xlink:href="#rim" fill="#404040">
                                <set attributeName="fill" to="#808080" begin="zoomplus.mouseover" end="zoomplus.mouseout"/>
                        </use>
                        <path d="M-4,0h8M0,-4v8" fill="none" stroke="white" stroke-width="1.5" pointer-events="none"/>
                </g>
                <g id="zoomMin">
                        <use xlink:href="#rim" fill="#404040">
                                <set attributeName="fill" to="#808080" begin="zoomminus.mouseover" end="zoomminus.mouseout"/>
                        </use>
                        <path d="M-4,0h8" fill="none" stroke="white" stroke-width="1.5" pointer-events="none"/>
                </g>
                <g id="dirArrow">
                        <path fill="none" stroke="white" stroke-width="1.5" d="M0,-3.0v7 M-2.5,-0.5L0,-3.0L2.5,-0.5"/>
                </g>
               <g id="resetDef">
                       <use xlink:href="#rim2" fill="#404040">
                               <set attributeName="fill" to="#808080" begin="reset.mouseover" end="reset.mouseout"/>
                       </use>
               </g>
        </defs>

<script type="text/javascript">
var viewWidth = 557;
var viewHeight = 104;
var sectionId = 'dynsection-45';
</script>
<script xlink:href="svgpan.js"/>
<svg id="graph" class="graph">
<g id="viewport">
<title>compose_pair</title>
<!-- Node765 -->
<g id="node1" class="node">
<title>Node765</title>
<polygon fill="#bfbfbf" stroke="#000000" points="0,-38.5 0,-57.5 77,-57.5 77,-38.5 0,-38.5"/>
<text text-anchor="middle" x="38.5" y="-45.5" font-family="Helvetica,sans-Serif" font-size="10.00" fill="#000000">compose_pair</text>
</g>
<!-- Node766 -->
<g id="node2" class="node">
<title>Node766</title>
<g id="a_node2"><a xlink:href="libunicode_8c.html#a85e9b528eac63b7a68aec567939e4c2c" target="_top" xlink:title="unicode_compose_pair">
<polygon fill="none" stroke="#000000" points="113,-38.5 113,-57.5 229,-57.5 229,-38.5 113,-38.5"/>
<text text-anchor="middle" x="171" y="-45.5" font-family="Helvetica,sans-Serif" font-size="10.00" fill="#000000">unicode_compose_pair</text>
</a>
</g>
</g>
<!-- Node765&#45;&gt;Node766 -->
<g id="edge1" class="edge">
<title>Node765&#45;&gt;Node766</title>
<path fill="none" stroke="#191970" d="M77.1807,-48C85.1963,-48 93.8674,-48 102.5884,-48"/>
<polygon fill="#191970" stroke="#191970" points="102.8128,-51.5001 112.8128,-48 102.8127,-44.5001 102.8128,-51.5001"/>
</g>
<!-- Node767 -->
<g id="node3" class="node">
<title>Node767</title>
<g id="a_node3"><a xlink:href="libunicode_8c.html#a9eadbbe61e5372257d1e58decec38d9a" target="_top" xlink:title="unicode_decomp_entry">
<polygon fill="none" stroke="#000000" points="265,-38.5 265,-57.5 382,-57.5 382,-38.5 265,-38.5"/>
<text text-anchor="middle" x="323.5" y="-45.5" font-family="Helvetica,sans-Serif" font-size="10.00" fill="#000000">unicode_decomp_entry</text>
</a>
</g>
</g>
<!-- Node766&#45;&gt;Node767 -->
<g id="edge2" class="edge">
<title>Node766&#45;&gt;Node767</title>
<path fill="none" stroke="#191970" d="M229.0887,-48C237.4981,-48 246.2204,-48 254.8133,-48"/>
<polygon fill="#191970" stroke="#191970" points="254.8148,-51.5001 264.8147,-48 254.8147,-44.5001 254.8148,-51.5001"/>
</g>
<!-- Node768 -->
<g id="node4" class="node">
<title>Node768</title>
<g id="a_node4"><a xlink:href="libunicode_8c.html#a35fc9c35c7d215bc1b1dc6e4e9b17f10" target="_top" xlink:title="unicode_get16">
<polygon fill="none" stroke="#000000" points="443.5,-76.5 443.5,-95.5 523.5,-95.5 523.5,-76.5 443.5,-76.5"/>
<text text-anchor="middle" x="483.5" y="-83.5" font-family="Helvetica,sans-Serif" font-size="10.00" fill="#000000">unicode_get16</text>
</a>
</g>
</g>
<!-- Node767&#45;&gt;Node768 -->
<g id="edge3" class="edge">
<title>Node767&#45;&gt;Node768</title>
<path fill="none" stroke="#191970" d="M363.8748,-57.589C384.9885,-62.6035 411.0287,-68.7881 433.4169,-74.1053"/>
<polygon fill="#191970" stroke="#191970" points="432.8774,-77.5744 443.4156,-76.4799 434.495,-70.7639 432.8774,-77.5744"/>
</g>
<!-- Node769 -->
<g id="node5" class="node">
<title>Node769</title>
<g id="a_node5"><a xlink:href="libunicode_8c.html#af09155cdf943c7902609d8d26a581406" target="_top" xlink:title="unicode_get_lower_simple">
<polygon fill="none" stroke="#000000" points="418,-38.5 418,-57.5 549,-57.5 549,-38.5 418,-38.5"/>
<text text-anchor="middle" x="483.5" y="-45.5" font-family="Helvetica,sans-Serif" font-size="10.00" fill="#000000">unicode_get_lower_simple</text>
</a>
</g>
</g>
<!-- Node767&#45;&gt;Node769 -->
<g id="edge4" class="edge">
<title>Node767&#45;&gt;Node769</title>
<path fill="none" stroke="#191970" d="M382.1696,-48C390.503,-48 399.1696,-48 407.7702,-48"/>
<polygon fill="#191970" stroke="#191970" points="407.8123,-51.5001 417.8123,-48 407.8122,-44.5001 407.8123,-51.5001"/>
</g>
<!-- Node770 -->
<g id="node6" class="node">
<title>Node770</title>
<g id="a_node6"><a xlink:href="libunicode_8c.html#a0b4f3e8a46c1fadf9672d615be54c997" target="_top" xlink:title="unicode_get_short_code">
<polygon fill="none" stroke="#000000" points="422.5,-.5 422.5,-19.5 544.5,-19.5 544.5,-.5 422.5,-.5"/>
<text text-anchor="middle" x="483.5" y="-7.5" font-family="Helvetica,sans-Serif" font-size="10.00" fill="#000000">unicode_get_short_code</text>
</a>
</g>
</g>
<!-- Node767&#45;&gt;Node770 -->
<g id="edge5" class="edge">
<title>Node767&#45;&gt;Node770</title>
<path fill="none" stroke="#191970" d="M363.8748,-38.411C384.9885,-33.3965 411.0287,-27.2119 433.4169,-21.8947"/>
<polygon fill="#191970" stroke="#191970" points="434.495,-25.2361 443.4156,-19.5201 432.8774,-18.4256 434.495,-25.2361"/>
</g>
</g>
</svg>
        <g id="navigator" transform="translate(0 0)" fill="#404254">
                <rect fill="#f2f5e9" fill-opacity="0.5" stroke="#606060" stroke-width=".5" x="0" y="0" width="60" height="60"/>
                <use id="zoomplus" xlink:href="#zoomPlus" x="17" y="9" onmousedown="handleZoom(evt,'in')"/>
                <use id="zoomminus" xlink:href="#zoomMin" x="42" y="9" onmousedown="handleZoom(evt,'out')"/>
                <use id="reset" xlink:href="#resetDef" x="30" y="36" onmousedown="handleReset()"/>
                <g id="arrowUp" xlink:href="#dirArrow" transform="translate(30 24)" onmousedown="handlePan(0,-1)">
                  <use xlink:href="#rim" fill="#404040">
                        <set attributeName="fill" to="#808080" begin="arrowUp.mouseover" end="arrowUp.mouseout"/>
                  </use>
                  <path fill="none" stroke="white" stroke-width="1.5" d="M0,-3.0v7 M-2.5,-0.5L0,-3.0L2.5,-0.5"/>
                </g>
                <g id="arrowRight" xlink:href="#dirArrow" transform="rotate(90) translate(36 -43)" onmousedown="handlePan(1,0)">
                  <use xlink:href="#rim" fill="#404040">
                        <set attributeName="fill" to="#808080" begin="arrowRight.mouseover" end="arrowRight.mouseout"/>
                  </use>
                  <path fill="none" stroke="white" stroke-width="1.5" d="M0,-3.0v7 M-2.5,-0.5L0,-3.0L2.5,-0.5"/>
                </g>
                <g id="arrowDown" xlink:href="#dirArrow" transform="rotate(180) translate(-30 -48)" onmousedown="handlePan(0,1)">
                  <use xlink:href="#rim" fill="#404040">
                        <set attributeName="fill" to="#808080" begin="arrowDown.mouseover" end="arrowDown.mouseout"/>
                  </use>
                  <path fill="none" stroke="white" stroke-width="1.5" d="M0,-3.0v7 M-2.5,-0.5L0,-3.0L2.5,-0.5"/>
                </g>
                <g id="arrowLeft" xlink:href="#dirArrow" transform="rotate(270) translate(-36 17)" onmousedown="handlePan(-1,0)">
                  <use xlink:href="#rim" fill="#404040">
                        <set attributeName="fill" to="#808080" begin="arrowLeft.mouseover" end="arrowLeft.mouseout"/>
                  </use>
                  <path fill="none" stroke="white" stroke-width="1.5" d="M0,-3.0v7 M-2.5,-0.5L0,-3.0L2.5,-0.5"/>
                </g>
        </g>
        <svg viewBox="0 0 15 15" width="100%" height="30px" preserveAspectRatio="xMaxYMin meet">
         <g id="arrow_out" transform="scale(0.3 0.3)">
          <a xlink:href="libunicode_8c_aa4fcf940cdf5a415e60372353f9d25d7_cgraph_org.svg" target="_base">
           <rect id="button" ry="5" rx="5" y="6" x="6" height="38" width="38"
                fill="#f2f5e9" fill-opacity="0.5" stroke="#606060" stroke-width="1.0"/>
           <path id="arrow"
             d="M 11.500037,31.436501 C 11.940474,20.09759 22.043105,11.32322 32.158766,21.979434 L 37.068811,17.246167 C 37.068811,17.246167 37.088388,32 37.088388,32 L 22.160133,31.978069 C 22.160133,31.978069 26.997745,27.140456 26.997745,27.140456 C 18.528582,18.264221 13.291696,25.230495 11.500037,31.436501 z"
             style="fill:#404040;"/>
          </a>
         </g>
        </svg>
</svg>
