<?xml version="1.0" encoding="UTF-8" standalone="no"?>
<!DOCTYPE svg PUBLIC "-//W3C//DTD SVG 1.1//EN"
 "http://www.w3.org/Graphics/SVG/1.1/DTD/svg11.dtd">
<!-- Generated by graphviz version 2.40.1 (20161225.0304)
 -->
<!-- Title: unicode_get16 Pages: 1 -->
<!--zoomable 84 -->
<svg id="main" version="1.1" xmlns="http://www.w3.org/2000/svg" xmlns:xlink="http://www.w3.org/1999/xlink" xml:space="preserve" onload="init(evt)">
<style type="text/css"><![CDATA[
.edge:hover path { stroke: red; }
.edge:hover polygon { stroke: red; fill: red; }
]]></style>
<script type="text/javascript"><![CDATA[
var edges = document.getElementsByTagName('g');
if (edges && edges.length) {
  for (var i=0;i<edges.length;i++) {
    if (edges[i].id.substr(0,4)=='edge') {
      edges[i].setAttribute('class','edge');
    }
  }
}
]]></script>
        <defs>
                <circle id="rim" cx="0" cy="0" r="7"/>
                <circle id="rim2" cx="0" cy="0" r="3.5"/>
                <g id="zoomPlus">
                        <use xlink:href="#rim" fill="#404040">
                                <set attributeName="fill" to="#808080" begin="zoomplus.mouseover" end="zoomplus.mouseout"/>
                        </use>
                        <path d="M-4,0h8M0,-4v8" fill="none" stroke="white" stroke-width="1.5" pointer-events="none"/>
                </g>
                <g id="zoomMin">
                        <use xlink:href="#rim" fill="#404040">
                                <set attributeName="fill" to="#808080" begin="zoomminus.mouseover" end="zoomminus.mouseout"/>
                        </use>
                        <path d="M-4,0h8" fill="none" stroke="white" stroke-width="1.5" pointer-events="none"/>
                </g>
                <g id="dirArrow">
                        <path fill="none" stroke="white" stroke-width="1.5" d="M0,-3.0v7 M-2.5,-0.5L0,-3.0L2.5,-0.5"/>
                </g>
               <g id="resetDef">
                       <use xlink:href="#rim2" fill="#404040">
                               <set attributeName="fill" to="#808080" begin="reset.mouseover" end="reset.mouseout"/>
                       </use>
               </g>
        </defs>

<script type="text/javascript">
var viewWidth = 506;
var viewHeight = 84;
var sectionId = 'dynsection-32';
</script>
<script xlink:href="svgpan.js"/>
<svg id="graph" class="graph">
<g id="viewport">
<title>unicode_get16</title>
<!-- Node702 -->
<g id="node1" class="node">
<title>Node702</title>
<polygon fill="#bfbfbf" stroke="#000000" points="0,-19.5 0,-38.5 80,-38.5 80,-19.5 0,-19.5"/>
<text text-anchor="middle" x="40" y="-26.5" font-family="Helvetica,sans-Serif" font-size="10.00" fill="#000000">unicode_get16</text>
</g>
<!-- Node703 -->
<g id="node2" class="node">
<title>Node703</title>
<g id="a_node2"><a xlink:href="libunicode_8c.html#a9eadbbe61e5372257d1e58decec38d9a" target="_top" xlink:title="unicode_decomp_entry">
<polygon fill="none" stroke="#000000" points="116,-19.5 116,-38.5 233,-38.5 233,-19.5 116,-19.5"/>
<text text-anchor="middle" x="174.5" y="-26.5" font-family="Helvetica,sans-Serif" font-size="10.00" fill="#000000">unicode_decomp_entry</text>
</a>
</g>
</g>
<!-- Node702&#45;&gt;Node703 -->
<g id="edge1" class="edge">
<title>Node702&#45;&gt;Node703</title>
<path fill="none" stroke="#191970" d="M90.5497,-29C98.7809,-29 107.3684,-29 115.7754,-29"/>
<polygon fill="#191970" stroke="#191970" points="90.3545,-25.5001 80.3544,-29 90.3544,-32.5001 90.3545,-25.5001"/>
</g>
<!-- Node704 -->
<g id="node3" class="node">
<title>Node704</title>
<g id="a_node3"><a xlink:href="libunicode_8c.html#aaa47a99ea5633bf86fb1dce6b38248a6" target="_top" xlink:title="unicode_decomp_char">
<polygon fill="none" stroke="#000000" points="270,-38.5 270,-57.5 384,-57.5 384,-38.5 270,-38.5"/>
<text text-anchor="middle" x="327" y="-45.5" font-family="Helvetica,sans-Serif" font-size="10.00" fill="#000000">unicode_decomp_char</text>
</a>
</g>
</g>
<!-- Node703&#45;&gt;Node704 -->
<g id="edge2" class="edge">
<title>Node703&#45;&gt;Node704</title>
<path fill="none" stroke="#191970" d="M243.0608,-37.542C252.028,-38.6592 261.1384,-39.7943 269.8893,-40.8846"/>
<polygon fill="#191970" stroke="#191970" points="243.3804,-34.0548 233.0243,-36.2916 242.5149,-41.0011 243.3804,-34.0548"/>
</g>
<!-- Node708 -->
<g id="node5" class="node">
<title>Node708</title>
<g id="a_node5"><a xlink:href="libunicode_8c.html#a85e9b528eac63b7a68aec567939e4c2c" target="_top" xlink:title="unicode_compose_pair">
<polygon fill="none" stroke="#000000" points="269,-.5 269,-19.5 385,-19.5 385,-.5 269,-.5"/>
<text text-anchor="middle" x="327" y="-7.5" font-family="Helvetica,sans-Serif" font-size="10.00" fill="#000000">unicode_compose_pair</text>
</a>
</g>
</g>
<!-- Node703&#45;&gt;Node708 -->
<g id="edge5" class="edge">
<title>Node703&#45;&gt;Node708</title>
<path fill="none" stroke="#191970" d="M243.0608,-20.458C251.6851,-19.3835 260.442,-18.2925 268.884,-17.2407"/>
<polygon fill="#191970" stroke="#191970" points="242.5149,-16.9989 233.0243,-21.7084 243.3804,-23.9452 242.5149,-16.9989"/>
</g>
<!-- Node705 -->
<g id="node4" class="node">
<title>Node705</title>
<g id="a_node4"><a xlink:href="libunicode_8c.html#ab30f4b72bed0cefc5b1ceeb8caef2afc" target="_top" xlink:title="to_nfd_rec">
<polygon fill="none" stroke="#ff0000" points="428.5,-38.5 428.5,-57.5 490.5,-57.5 490.5,-38.5 428.5,-38.5"/>
<text text-anchor="middle" x="459.5" y="-45.5" font-family="Helvetica,sans-Serif" font-size="10.00" fill="#000000">to_nfd_rec</text>
</a>
</g>
</g>
<!-- Node704&#45;&gt;Node705 -->
<g id="edge3" class="edge">
<title>Node704&#45;&gt;Node705</title>
<path fill="none" stroke="#191970" d="M394.6734,-48C406.4506,-48 418.1677,-48 428.3352,-48"/>
<polygon fill="#191970" stroke="#191970" points="394.3458,-44.5001 384.3458,-48 394.3458,-51.5001 394.3458,-44.5001"/>
</g>
<!-- Node705&#45;&gt;Node705 -->
<g id="edge4" class="edge">
<title>Node705&#45;&gt;Node705</title>
<path fill="none" stroke="#191970" d="M434.9465,-67.0292C436.2858,-72.128 444.4703,-76 459.5,-76 482.9609,-76 489.7426,-66.5653 479.845,-57.7571"/>
<polygon fill="#191970" stroke="#191970" points="438.209,-68.3096 439.155,-57.7571 431.8348,-65.4164 438.209,-68.3096"/>
</g>
<!-- Node709 -->
<g id="node6" class="node">
<title>Node709</title>
<g id="a_node6"><a xlink:href="libunicode_8c.html#aa4fcf940cdf5a415e60372353f9d25d7" target="_top" xlink:title="compose_pair">
<polygon fill="none" stroke="#ff0000" points="421,-.5 421,-19.5 498,-19.5 498,-.5 421,-.5"/>
<text text-anchor="middle" x="459.5" y="-7.5" font-family="Helvetica,sans-Serif" font-size="10.00" fill="#000000">compose_pair</text>
</a>
</g>
</g>
<!-- Node708&#45;&gt;Node709 -->
<g id="edge6" class="edge">
<title>Node708&#45;&gt;Node709</title>
<path fill="none" stroke="#191970" d="M395.3754,-10C404.1263,-10 412.8277,-10 420.8681,-10"/>
<polygon fill="#191970" stroke="#191970" points="395.1165,-6.5001 385.1164,-10 395.1164,-13.5001 395.1165,-6.5001"/>
</g>
</g>
</svg>
        <g id="navigator" transform="translate(0 0)" fill="#404254">
                <rect fill="#f2f5e9" fill-opacity="0.5" stroke="#606060" stroke-width=".5" x="0" y="0" width="60" height="60"/>
                <use id="zoomplus" xlink:href="#zoomPlus" x="17" y="9" onmousedown="handleZoom(evt,'in')"/>
                <use id="zoomminus" xlink:href="#zoomMin" x="42" y="9" onmousedown="handleZoom(evt,'out')"/>
                <use id="reset" xlink:href="#resetDef" x="30" y="36" onmousedown="handleReset()"/>
                <g id="arrowUp" xlink:href="#dirArrow" transform="translate(30 24)" onmousedown="handlePan(0,-1)">
                  <use xlink:href="#rim" fill="#404040">
                        <set attributeName="fill" to="#808080" begin="arrowUp.mouseover" end="arrowUp.mouseout"/>
                  </use>
                  <path fill="none" stroke="white" stroke-width="1.5" d="M0,-3.0v7 M-2.5,-0.5L0,-3.0L2.5,-0.5"/>
                </g>
                <g id="arrowRight" xlink:href="#dirArrow" transform="rotate(90) translate(36 -43)" onmousedown="handlePan(1,0)">
                  <use xlink:href="#rim" fill="#404040">
                        <set attributeName="fill" to="#808080" begin="arrowRight.mouseover" end="arrowRight.mouseout"/>
                  </use>
                  <path fill="none" stroke="white" stroke-width="1.5" d="M0,-3.0v7 M-2.5,-0.5L0,-3.0L2.5,-0.5"/>
                </g>
                <g id="arrowDown" xlink:href="#dirArrow" transform="rotate(180) translate(-30 -48)" onmousedown="handlePan(0,1)">
                  <use xlink:href="#rim" fill="#404040">
                        <set attributeName="fill" to="#808080" begin="arrowDown.mouseover" end="arrowDown.mouseout"/>
                  </use>
                  <path fill="none" stroke="white" stroke-width="1.5" d="M0,-3.0v7 M-2.5,-0.5L0,-3.0L2.5,-0.5"/>
                </g>
                <g id="arrowLeft" xlink:href="#dirArrow" transform="rotate(270) translate(-36 17)" onmousedown="handlePan(-1,0)">
                  <use xlink:href="#rim" fill="#404040">
                        <set attributeName="fill" to="#808080" begin="arrowLeft.mouseover" end="arrowLeft.mouseout"/>
                  </use>
                  <path fill="none" stroke="white" stroke-width="1.5" d="M0,-3.0v7 M-2.5,-0.5L0,-3.0L2.5,-0.5"/>
                </g>
        </g>
        <svg viewBox="0 0 15 15" width="100%" height="30px" preserveAspectRatio="xMaxYMin meet">
         <g id="arrow_out" transform="scale(0.3 0.3)">
          <a xlink:href="libunicode_8c_a35fc9c35c7d215bc1b1dc6e4e9b17f10_icgraph_org.svg" target="_base">
           <rect id="button" ry="5" rx="5" y="6" x="6" height="38" width="38"
                fill="#f2f5e9" fill-opacity="0.5" stroke="#606060" stroke-width="1.0"/>
           <path id="arrow"
             d="M 11.500037,31.436501 C 11.940474,20.09759 22.043105,11.32322 32.158766,21.979434 L 37.068811,17.246167 C 37.068811,17.246167 37.088388,32 37.088388,32 L 22.160133,31.978069 C 22.160133,31.978069 26.997745,27.140456 26.997745,27.140456 C 18.528582,18.264221 13.291696,25.230495 11.500037,31.436501 z"
             style="fill:#404040;"/>
          </a>
         </g>
        </svg>
</svg>
