<?xml version="1.0" encoding="UTF-8" standalone="no"?>
<!DOCTYPE svg PUBLIC "-//W3C//DTD SVG 1.1//EN"
 "http://www.w3.org/Graphics/SVG/1.1/DTD/svg11.dtd">
<!-- Generated by graphviz version 2.40.1 (20161225.0304)
 -->
<!-- Title: unicode_case1 Pages: 1 -->
<svg width="391pt" height="28pt"
 viewBox="0.00 0.00 391.00 28.00" xmlns="http://www.w3.org/2000/svg" xmlns:xlink="http://www.w3.org/1999/xlink">
<g id="graph0" class="graph" transform="scale(1 1) rotate(0) translate(4 24)">
<title>unicode_case1</title>
<!-- Node900 -->
<g id="node1" class="node">
<title>Node900</title>
<polygon fill="#bfbfbf" stroke="#000000" points="0,-.5 0,-19.5 82,-19.5 82,-.5 0,-.5"/>
<text text-anchor="middle" x="41" y="-7.5" font-family="Helvetica,sans-Serif" font-size="10.00" fill="#000000">unicode_case1</text>
</g>
<!-- Node901 -->
<g id="node2" class="node">
<title>Node901</title>
<g id="a_node2"><a xlink:href="libunicode_8h.html#aeade60962a424d84bc260a72311a0745" target="_top" xlink:title="cr_add_interval">
<polygon fill="none" stroke="#000000" points="118,-.5 118,-19.5 201,-19.5 201,-.5 118,-.5"/>
<text text-anchor="middle" x="159.5" y="-7.5" font-family="Helvetica,sans-Serif" font-size="10.00" fill="#000000">cr_add_interval</text>
</a>
</g>
</g>
<!-- Node900&#45;&gt;Node901 -->
<g id="edge1" class="edge">
<title>Node900&#45;&gt;Node901</title>
<path fill="none" stroke="#191970" d="M82.113,-10C90.2871,-10 98.9709,-10 107.4547,-10"/>
<polygon fill="#191970" stroke="#191970" points="107.6562,-13.5001 117.6562,-10 107.6562,-6.5001 107.6562,-13.5001"/>
</g>
<!-- Node902 -->
<g id="node3" class="node">
<title>Node902</title>
<g id="a_node3"><a xlink:href="libunicode_8c.html#a7b73e29a0e2b936a11426d602faac462" target="_top" xlink:title="cr_realloc">
<polygon fill="none" stroke="#000000" points="237,-.5 237,-19.5 296,-19.5 296,-.5 237,-.5"/>
<text text-anchor="middle" x="266.5" y="-7.5" font-family="Helvetica,sans-Serif" font-size="10.00" fill="#000000">cr_realloc</text>
</a>
</g>
</g>
<!-- Node901&#45;&gt;Node902 -->
<g id="edge2" class="edge">
<title>Node901&#45;&gt;Node902</title>
<path fill="none" stroke="#191970" d="M201.1754,-10C209.5097,-10 218.247,-10 226.5223,-10"/>
<polygon fill="#191970" stroke="#191970" points="226.6923,-13.5001 236.6923,-10 226.6923,-6.5001 226.6923,-13.5001"/>
</g>
<!-- Node903 -->
<g id="node4" class="node">
<title>Node903</title>
<g id="a_node4"><a xlink:href="cutils_8h.html#a94f155fcce337a2b9d4719ed8042cbbe" target="_top" xlink:title="max_int">
<polygon fill="none" stroke="#000000" points="332,-.5 332,-19.5 383,-19.5 383,-.5 332,-.5"/>
<text text-anchor="middle" x="357.5" y="-7.5" font-family="Helvetica,sans-Serif" font-size="10.00" fill="#000000">max_int</text>
</a>
</g>
</g>
<!-- Node902&#45;&gt;Node903 -->
<g id="edge3" class="edge">
<title>Node902&#45;&gt;Node903</title>
<path fill="none" stroke="#191970" d="M296.0451,-10C304.2359,-10 313.2166,-10 321.7219,-10"/>
<polygon fill="#191970" stroke="#191970" points="321.7756,-13.5001 331.7756,-10 321.7756,-6.5001 321.7756,-13.5001"/>
</g>
</g>
</svg>
