<?xml version="1.0" encoding="UTF-8" standalone="no"?>
<!DOCTYPE svg PUBLIC "-//W3C//DTD SVG 1.1//EN"
 "http://www.w3.org/Graphics/SVG/1.1/DTD/svg11.dtd">
<!-- Generated by graphviz version 2.40.1 (20161225.0304)
 -->
<!-- Title: unicode_prop1 Pages: 1 -->
<!--zoomable 47 -->
<svg id="main" version="1.1" xmlns="http://www.w3.org/2000/svg" xmlns:xlink="http://www.w3.org/1999/xlink" xml:space="preserve" onload="init(evt)">
<style type="text/css"><![CDATA[
.edge:hover path { stroke: red; }
.edge:hover polygon { stroke: red; fill: red; }
]]></style>
<script type="text/javascript"><![CDATA[
var edges = document.getElementsByTagName('g');
if (edges && edges.length) {
  for (var i=0;i<edges.length;i++) {
    if (edges[i].id.substr(0,4)=='edge') {
      edges[i].setAttribute('class','edge');
    }
  }
}
]]></script>
        <defs>
                <circle id="rim" cx="0" cy="0" r="7"/>
                <circle id="rim2" cx="0" cy="0" r="3.5"/>
                <g id="zoomPlus">
                        <use xlink:href="#rim" fill="#404040">
                                <set attributeName="fill" to="#808080" begin="zoomplus.mouseover" end="zoomplus.mouseout"/>
                        </use>
                        <path d="M-4,0h8M0,-4v8" fill="none" stroke="white" stroke-width="1.5" pointer-events="none"/>
                </g>
                <g id="zoomMin">
                        <use xlink:href="#rim" fill="#404040">
                                <set attributeName="fill" to="#808080" begin="zoomminus.mouseover" end="zoomminus.mouseout"/>
                        </use>
                        <path d="M-4,0h8" fill="none" stroke="white" stroke-width="1.5" pointer-events="none"/>
                </g>
                <g id="dirArrow">
                        <path fill="none" stroke="white" stroke-width="1.5" d="M0,-3.0v7 M-2.5,-0.5L0,-3.0L2.5,-0.5"/>
                </g>
               <g id="resetDef">
                       <use xlink:href="#rim2" fill="#404040">
                               <set attributeName="fill" to="#808080" begin="reset.mouseover" end="reset.mouseout"/>
                       </use>
               </g>
        </defs>

<script type="text/javascript">
var viewWidth = 607;
var viewHeight = 47;
var sectionId = 'dynsection-55';
</script>
<script xlink:href="svgpan.js"/>
<svg id="graph" class="graph">
<g id="viewport">
<title>unicode_prop1</title>
<!-- Node879 -->
<g id="node1" class="node">
<title>Node879</title>
<polygon fill="#bfbfbf" stroke="#000000" points="0,-19.5 0,-38.5 80,-38.5 80,-19.5 0,-19.5"/>
<text text-anchor="middle" x="40" y="-26.5" font-family="Helvetica,sans-Serif" font-size="10.00" fill="#000000">unicode_prop1</text>
</g>
<!-- Node880 -->
<g id="node2" class="node">
<title>Node880</title>
<g id="a_node2"><a xlink:href="libunicode_8c.html#a042c7e38726f6727a9826c4dd2c45832" target="_top" xlink:title="unicode_prop">
<polygon fill="none" stroke="#000000" points="247,-19.5 247,-38.5 321,-38.5 321,-19.5 247,-19.5"/>
<text text-anchor="middle" x="284" y="-26.5" font-family="Helvetica,sans-Serif" font-size="10.00" fill="#000000">unicode_prop</text>
</a>
</g>
</g>
<!-- Node879&#45;&gt;Node880 -->
<g id="edge1" class="edge">
<title>Node879&#45;&gt;Node880</title>
<path fill="none" stroke="#191970" d="M90.1847,-29C136.7204,-29 204.9023,-29 246.7622,-29"/>
<polygon fill="#191970" stroke="#191970" points="90.0184,-25.5001 80.0184,-29 90.0184,-32.5001 90.0184,-25.5001"/>
</g>
<!-- Node899 -->
<g id="node5" class="node">
<title>Node899</title>
<g id="a_node5"><a xlink:href="libunicode_8c.html#a58dbb07f758bbf3de6c87a0647ec72e3" target="_top" xlink:title="unicode_prop_ops">
<polygon fill="none" stroke="#000000" points="116,-.5 116,-19.5 211,-19.5 211,-.5 116,-.5"/>
<text text-anchor="middle" x="163.5" y="-7.5" font-family="Helvetica,sans-Serif" font-size="10.00" fill="#000000">unicode_prop_ops</text>
</a>
</g>
</g>
<!-- Node879&#45;&gt;Node899 -->
<g id="edge4" class="edge">
<title>Node879&#45;&gt;Node899</title>
<path fill="none" stroke="#191970" d="M90.2298,-21.2723C98.6954,-19.9699 107.4606,-18.6215 115.858,-17.3295"/>
<polygon fill="#191970" stroke="#191970" points="89.4484,-17.8513 80.0969,-22.8312 90.5129,-24.7699 89.4484,-17.8513"/>
</g>
<!-- Node881 -->
<g id="node3" class="node">
<title>Node881</title>
<g id="a_node3"><a xlink:href="libregexp_8c.html#a24c5604c81a33e66906a1f43227221e8" target="_top" xlink:title="parse_unicode_property">
<polygon fill="none" stroke="#000000" points="357,-19.5 357,-38.5 477,-38.5 477,-19.5 357,-19.5"/>
<text text-anchor="middle" x="417" y="-26.5" font-family="Helvetica,sans-Serif" font-size="10.00" fill="#000000">parse_unicode_property</text>
</a>
</g>
</g>
<!-- Node880&#45;&gt;Node881 -->
<g id="edge2" class="edge">
<title>Node880&#45;&gt;Node881</title>
<path fill="none" stroke="#191970" d="M331.2958,-29C339.6057,-29 348.3531,-29 356.9552,-29"/>
<polygon fill="#191970" stroke="#191970" points="331.0479,-25.5001 321.0479,-29 331.0479,-32.5001 331.0479,-25.5001"/>
</g>
<!-- Node882 -->
<g id="node4" class="node">
<title>Node882</title>
<g id="a_node4"><a xlink:href="libregexp_8c.html#ac654c01af0eedad21af5da6e5035f37c" target="_top" xlink:title="get_class_atom">
<polygon fill="none" stroke="#ff0000" points="513,-19.5 513,-38.5 599,-38.5 599,-19.5 513,-19.5"/>
<text text-anchor="middle" x="556" y="-26.5" font-family="Helvetica,sans-Serif" font-size="10.00" fill="#000000">get_class_atom</text>
</a>
</g>
</g>
<!-- Node881&#45;&gt;Node882 -->
<g id="edge3" class="edge">
<title>Node881&#45;&gt;Node882</title>
<path fill="none" stroke="#191970" d="M487.3692,-29C496.0877,-29 504.7879,-29 512.921,-29"/>
<polygon fill="#191970" stroke="#191970" points="487.159,-25.5001 477.159,-29 487.159,-32.5001 487.159,-25.5001"/>
</g>
<!-- Node899&#45;&gt;Node880 -->
<g id="edge5" class="edge">
<title>Node899&#45;&gt;Node880</title>
<path fill="none" stroke="#191970" d="M221.2343,-19.1033C229.9102,-20.4713 238.6557,-21.8503 246.7497,-23.1265"/>
<polygon fill="#191970" stroke="#191970" points="221.5479,-15.6096 211.1248,-17.5093 220.4576,-22.5242 221.5479,-15.6096"/>
</g>
</g>
</svg>
        <g id="navigator" transform="translate(0 0)" fill="#404254">
                <rect fill="#f2f5e9" fill-opacity="0.5" stroke="#606060" stroke-width=".5" x="0" y="0" width="60" height="60"/>
                <use id="zoomplus" xlink:href="#zoomPlus" x="17" y="9" onmousedown="handleZoom(evt,'in')"/>
                <use id="zoomminus" xlink:href="#zoomMin" x="42" y="9" onmousedown="handleZoom(evt,'out')"/>
                <use id="reset" xlink:href="#resetDef" x="30" y="36" onmousedown="handleReset()"/>
                <g id="arrowUp" xlink:href="#dirArrow" transform="translate(30 24)" onmousedown="handlePan(0,-1)">
                  <use xlink:href="#rim" fill="#404040">
                        <set attributeName="fill" to="#808080" begin="arrowUp.mouseover" end="arrowUp.mouseout"/>
                  </use>
                  <path fill="none" stroke="white" stroke-width="1.5" d="M0,-3.0v7 M-2.5,-0.5L0,-3.0L2.5,-0.5"/>
                </g>
                <g id="arrowRight" xlink:href="#dirArrow" transform="rotate(90) translate(36 -43)" onmousedown="handlePan(1,0)">
                  <use xlink:href="#rim" fill="#404040">
                        <set attributeName="fill" to="#808080" begin="arrowRight.mouseover" end="arrowRight.mouseout"/>
                  </use>
                  <path fill="none" stroke="white" stroke-width="1.5" d="M0,-3.0v7 M-2.5,-0.5L0,-3.0L2.5,-0.5"/>
                </g>
                <g id="arrowDown" xlink:href="#dirArrow" transform="rotate(180) translate(-30 -48)" onmousedown="handlePan(0,1)">
                  <use xlink:href="#rim" fill="#404040">
                        <set attributeName="fill" to="#808080" begin="arrowDown.mouseover" end="arrowDown.mouseout"/>
                  </use>
                  <path fill="none" stroke="white" stroke-width="1.5" d="M0,-3.0v7 M-2.5,-0.5L0,-3.0L2.5,-0.5"/>
                </g>
                <g id="arrowLeft" xlink:href="#dirArrow" transform="rotate(270) translate(-36 17)" onmousedown="handlePan(-1,0)">
                  <use xlink:href="#rim" fill="#404040">
                        <set attributeName="fill" to="#808080" begin="arrowLeft.mouseover" end="arrowLeft.mouseout"/>
                  </use>
                  <path fill="none" stroke="white" stroke-width="1.5" d="M0,-3.0v7 M-2.5,-0.5L0,-3.0L2.5,-0.5"/>
                </g>
        </g>
        <svg viewBox="0 0 15 15" width="100%" height="30px" preserveAspectRatio="xMaxYMin meet">
         <g id="arrow_out" transform="scale(0.3 0.3)">
          <a xlink:href="libunicode_8c_a91155ef56a166c73950e8c0954813fa3_icgraph_org.svg" target="_base">
           <rect id="button" ry="5" rx="5" y="6" x="6" height="38" width="38"
                fill="#f2f5e9" fill-opacity="0.5" stroke="#606060" stroke-width="1.0"/>
           <path id="arrow"
             d="M 11.500037,31.436501 C 11.940474,20.09759 22.043105,11.32322 32.158766,21.979434 L 37.068811,17.246167 C 37.068811,17.246167 37.088388,32 37.088388,32 L 22.160133,31.978069 C 22.160133,31.978069 26.997745,27.140456 26.997745,27.140456 C 18.528582,18.264221 13.291696,25.230495 11.500037,31.436501 z"
             style="fill:#404040;"/>
          </a>
         </g>
        </svg>
</svg>
