<?xml version="1.0" encoding="UTF-8" standalone="no"?>
<!DOCTYPE svg PUBLIC "-//W3C//DTD SVG 1.1//EN"
 "http://www.w3.org/Graphics/SVG/1.1/DTD/svg11.dtd">
<!-- Generated by graphviz version 2.40.1 (20161225.0304)
 -->
<!-- Title: unicode_general_category1 Pages: 1 -->
<svg width="444pt" height="28pt"
 viewBox="0.00 0.00 444.00 28.00" xmlns="http://www.w3.org/2000/svg" xmlns:xlink="http://www.w3.org/1999/xlink">
<g id="graph0" class="graph" transform="scale(1 1) rotate(0) translate(4 24)">
<title>unicode_general_category1</title>
<!-- Node849 -->
<g id="node1" class="node">
<title>Node849</title>
<polygon fill="#bfbfbf" stroke="#000000" points="0,-.5 0,-19.5 135,-19.5 135,-.5 0,-.5"/>
<text text-anchor="middle" x="67.5" y="-7.5" font-family="Helvetica,sans-Serif" font-size="10.00" fill="#000000">unicode_general_category1</text>
</g>
<!-- Node850 -->
<g id="node2" class="node">
<title>Node850</title>
<g id="a_node2"><a xlink:href="libunicode_8h.html#aeade60962a424d84bc260a72311a0745" target="_top" xlink:title="cr_add_interval">
<polygon fill="none" stroke="#000000" points="171,-.5 171,-19.5 254,-19.5 254,-.5 171,-.5"/>
<text text-anchor="middle" x="212.5" y="-7.5" font-family="Helvetica,sans-Serif" font-size="10.00" fill="#000000">cr_add_interval</text>
</a>
</g>
</g>
<!-- Node849&#45;&gt;Node850 -->
<g id="edge1" class="edge">
<title>Node849&#45;&gt;Node850</title>
<path fill="none" stroke="#191970" d="M135.33,-10C143.8293,-10 152.4146,-10 160.6159,-10"/>
<polygon fill="#191970" stroke="#191970" points="160.7637,-13.5001 170.7636,-10 160.7636,-6.5001 160.7637,-13.5001"/>
</g>
<!-- Node851 -->
<g id="node3" class="node">
<title>Node851</title>
<g id="a_node3"><a xlink:href="libunicode_8c.html#a7b73e29a0e2b936a11426d602faac462" target="_top" xlink:title="cr_realloc">
<polygon fill="none" stroke="#000000" points="290,-.5 290,-19.5 349,-19.5 349,-.5 290,-.5"/>
<text text-anchor="middle" x="319.5" y="-7.5" font-family="Helvetica,sans-Serif" font-size="10.00" fill="#000000">cr_realloc</text>
</a>
</g>
</g>
<!-- Node850&#45;&gt;Node851 -->
<g id="edge2" class="edge">
<title>Node850&#45;&gt;Node851</title>
<path fill="none" stroke="#191970" d="M254.1754,-10C262.5097,-10 271.247,-10 279.5223,-10"/>
<polygon fill="#191970" stroke="#191970" points="279.6923,-13.5001 289.6923,-10 279.6923,-6.5001 279.6923,-13.5001"/>
</g>
<!-- Node852 -->
<g id="node4" class="node">
<title>Node852</title>
<g id="a_node4"><a xlink:href="cutils_8h.html#a94f155fcce337a2b9d4719ed8042cbbe" target="_top" xlink:title="max_int">
<polygon fill="none" stroke="#000000" points="385,-.5 385,-19.5 436,-19.5 436,-.5 385,-.5"/>
<text text-anchor="middle" x="410.5" y="-7.5" font-family="Helvetica,sans-Serif" font-size="10.00" fill="#000000">max_int</text>
</a>
</g>
</g>
<!-- Node851&#45;&gt;Node852 -->
<g id="edge3" class="edge">
<title>Node851&#45;&gt;Node852</title>
<path fill="none" stroke="#191970" d="M349.0451,-10C357.2359,-10 366.2166,-10 374.7219,-10"/>
<polygon fill="#191970" stroke="#191970" points="374.7756,-13.5001 384.7756,-10 374.7756,-6.5001 374.7756,-13.5001"/>
</g>
</g>
</svg>
