<?xml version="1.0" encoding="UTF-8" standalone="no"?>
<!DOCTYPE svg PUBLIC "-//W3C//DTD SVG 1.1//EN"
 "http://www.w3.org/Graphics/SVG/1.1/DTD/svg11.dtd">
<!-- Generated by graphviz version 2.40.1 (20161225.0304)
 -->
<!-- Title: JS_ToInt64Sat Pages: 1 -->
<svg width="573pt" height="454pt"
 viewBox="0.00 0.00 573.00 454.00" xmlns="http://www.w3.org/2000/svg" xmlns:xlink="http://www.w3.org/1999/xlink">
<g id="graph0" class="graph" transform="scale(1 1) rotate(0) translate(4 450)">
<title>JS_ToInt64Sat</title>
<!-- Node238935 -->
<g id="node1" class="node">
<title>Node238935</title>
<polygon fill="#bfbfbf" stroke="#000000" points="0,-224.5 0,-243.5 82,-243.5 82,-224.5 0,-224.5"/>
<text text-anchor="middle" x="41" y="-231.5" font-family="Helvetica,sans-Serif" font-size="10.00" fill="#000000">JS_ToInt64Sat</text>
</g>
<!-- Node238936 -->
<g id="node2" class="node">
<title>Node238936</title>
<g id="a_node2"><a xlink:href="quickjs_8c.html#a0f6f437eaf0cabf7d3e31f8306ed7e02" target="_top" xlink:title="js_string_repeat">
<polygon fill="none" stroke="#000000" points="124.5,-262.5 124.5,-281.5 210.5,-281.5 210.5,-262.5 124.5,-262.5"/>
<text text-anchor="middle" x="167.5" y="-269.5" font-family="Helvetica,sans-Serif" font-size="10.00" fill="#000000">js_string_repeat</text>
</a>
</g>
</g>
<!-- Node238935&#45;&gt;Node238936 -->
<g id="edge1" class="edge">
<title>Node238935&#45;&gt;Node238936</title>
<path fill="none" stroke="#191970" d="M82.7294,-246.5353C99.9382,-251.7048 119.5601,-257.5991 135.5889,-262.4141"/>
<polygon fill="#191970" stroke="#191970" points="83.5055,-243.114 72.9213,-243.589 81.4916,-249.8181 83.5055,-243.114"/>
</g>
<!-- Node238937 -->
<g id="node3" class="node">
<title>Node238937</title>
<g id="a_node3"><a xlink:href="quickjs_8c.html#ad52f50dfe0e0e4aeae7003b97c4c0765" target="_top" xlink:title="JS_ToIndex">
<polygon fill="none" stroke="#000000" points="133,-224.5 133,-243.5 202,-243.5 202,-224.5 133,-224.5"/>
<text text-anchor="middle" x="167.5" y="-231.5" font-family="Helvetica,sans-Serif" font-size="10.00" fill="#000000">JS_ToIndex</text>
</a>
</g>
</g>
<!-- Node238935&#45;&gt;Node238937 -->
<g id="edge2" class="edge">
<title>Node238935&#45;&gt;Node238937</title>
<path fill="none" stroke="#191970" d="M92.3335,-234C106.0084,-234 120.4543,-234 132.9882,-234"/>
<polygon fill="#191970" stroke="#191970" points="92.071,-230.5001 82.0709,-234 92.0709,-237.5001 92.071,-230.5001"/>
</g>
<!-- Node238974 -->
<g id="node21" class="node">
<title>Node238974</title>
<g id="a_node21"><a xlink:href="quickjs_8c.html#a28f4d08e4321e751cebe37ea7259fe3c" target="_top" xlink:title="js_typed_array_set\l_internal">
<polygon fill="none" stroke="#000000" points="118,-102 118,-132 217,-132 217,-102 118,-102"/>
<text text-anchor="start" x="126" y="-120" font-family="Helvetica,sans-Serif" font-size="10.00" fill="#000000">js_typed_array_set</text>
<text text-anchor="middle" x="167.5" y="-109" font-family="Helvetica,sans-Serif" font-size="10.00" fill="#000000">_internal</text>
</a>
</g>
</g>
<!-- Node238935&#45;&gt;Node238974 -->
<g id="edge23" class="edge">
<title>Node238935&#45;&gt;Node238974</title>
<path fill="none" stroke="#191970" d="M58.8935,-217.4502C83.4798,-194.7104 127.3565,-154.1288 151.1203,-132.1496"/>
<polygon fill="#191970" stroke="#191970" points="56.3169,-215.0659 51.352,-224.4254 61.0699,-220.2048 56.3169,-215.0659"/>
</g>
<!-- Node238938 -->
<g id="node4" class="node">
<title>Node238938</title>
<g id="a_node4"><a xlink:href="quickjs-libc_8c.html#a075659fd6c4054c89c99093d1bcb4d37" target="_top" xlink:title="js_std_file_read_write">
<polygon fill="none" stroke="#000000" points="265,-426.5 265,-445.5 376,-445.5 376,-426.5 265,-426.5"/>
<text text-anchor="middle" x="320.5" y="-433.5" font-family="Helvetica,sans-Serif" font-size="10.00" fill="#000000">js_std_file_read_write</text>
</a>
</g>
</g>
<!-- Node238937&#45;&gt;Node238938 -->
<g id="edge3" class="edge">
<title>Node238937&#45;&gt;Node238938</title>
<path fill="none" stroke="#191970" d="M211.0635,-247.4971C213.2355,-249.1276 215.2408,-250.9541 217,-253 265.6535,-309.5829 201.7929,-362.7172 253,-417 256.5922,-420.8079 260.882,-423.8727 265.5338,-426.3365"/>
<polygon fill="#191970" stroke="#191970" points="212.413,-244.2279 202.0279,-242.1303 208.8383,-250.2463 212.413,-244.2279"/>
</g>
<!-- Node238939 -->
<g id="node5" class="node">
<title>Node238939</title>
<g id="a_node5"><a xlink:href="quickjs-libc_8c.html#ae8abf0c32bf9b0acd85adffaf8345dfe" target="_top" xlink:title="js_std_file_readAsString">
<polygon fill="none" stroke="#000000" points="259.5,-388.5 259.5,-407.5 381.5,-407.5 381.5,-388.5 259.5,-388.5"/>
<text text-anchor="middle" x="320.5" y="-395.5" font-family="Helvetica,sans-Serif" font-size="10.00" fill="#000000">js_std_file_readAsString</text>
</a>
</g>
</g>
<!-- Node238937&#45;&gt;Node238939 -->
<g id="edge4" class="edge">
<title>Node238937&#45;&gt;Node238939</title>
<path fill="none" stroke="#191970" d="M211.0146,-247.6998C213.1856,-249.2796 215.2052,-251.0395 217,-253 256.327,-295.958 211.7369,-337.8982 253,-379 256.8814,-382.8662 261.4839,-385.9603 266.4341,-388.4342"/>
<polygon fill="#191970" stroke="#191970" points="212.4463,-244.4826 202.0468,-242.4574 208.9135,-250.5258 212.4463,-244.4826"/>
</g>
<!-- Node238940 -->
<g id="node6" class="node">
<title>Node238940</title>
<g id="a_node6"><a xlink:href="quickjs-libc_8c.html#a70dbcae0637863811297360f2773c3ba" target="_top" xlink:title="js_os_read_write">
<polygon fill="none" stroke="#000000" points="275.5,-350.5 275.5,-369.5 365.5,-369.5 365.5,-350.5 275.5,-350.5"/>
<text text-anchor="middle" x="320.5" y="-357.5" font-family="Helvetica,sans-Serif" font-size="10.00" fill="#000000">js_os_read_write</text>
</a>
</g>
</g>
<!-- Node238937&#45;&gt;Node238940 -->
<g id="edge5" class="edge">
<title>Node238937&#45;&gt;Node238940</title>
<path fill="none" stroke="#191970" d="M210.9691,-248.0785C213.1263,-249.562 215.1577,-251.1975 217,-253 247.2047,-282.5526 221.4667,-312.8694 253,-341 259.3592,-346.673 267.2876,-350.6642 275.4515,-353.4691"/>
<polygon fill="#191970" stroke="#191970" points="212.5842,-244.9708 202.1597,-243.0787 209.129,-251.0586 212.5842,-244.9708"/>
</g>
<!-- Node238941 -->
<g id="node7" class="node">
<title>Node238941</title>
<g id="a_node7"><a xlink:href="quickjs_8c.html#a79fd9f97cb3db574f9c2b78492723681" target="_top" xlink:title="js_array_buffer_constructor">
<polygon fill="none" stroke="#000000" points="253,-312.5 253,-331.5 388,-331.5 388,-312.5 253,-312.5"/>
<text text-anchor="middle" x="320.5" y="-319.5" font-family="Helvetica,sans-Serif" font-size="10.00" fill="#000000">js_array_buffer_constructor</text>
</a>
</g>
</g>
<!-- Node238937&#45;&gt;Node238941 -->
<g id="edge6" class="edge">
<title>Node238937&#45;&gt;Node238941</title>
<path fill="none" stroke="#191970" d="M209.5451,-248.071C212.1634,-249.5692 214.676,-251.2089 217,-253 238.6887,-269.7161 230.5647,-287.3002 253,-303 258.5857,-306.9088 264.9577,-310.0166 271.5046,-312.4869"/>
<polygon fill="#191970" stroke="#191970" points="210.8696,-244.821 200.3564,-243.5082 207.7563,-251.0906 210.8696,-244.821"/>
</g>
<!-- Node238949 -->
<g id="node9" class="node">
<title>Node238949</title>
<g id="a_node9"><a xlink:href="quickjs_8c.html#a4033d30f8e082770b4bb91138fec9ccc" target="_top" xlink:title="js_shared_array_buffer\l_constructor">
<polygon fill="none" stroke="#000000" points="262.5,-263 262.5,-293 378.5,-293 378.5,-263 262.5,-263"/>
<text text-anchor="start" x="270.5" y="-281" font-family="Helvetica,sans-Serif" font-size="10.00" fill="#000000">js_shared_array_buffer</text>
<text text-anchor="middle" x="320.5" y="-270" font-family="Helvetica,sans-Serif" font-size="10.00" fill="#000000">_constructor</text>
</a>
</g>
</g>
<!-- Node238937&#45;&gt;Node238949 -->
<g id="edge8" class="edge">
<title>Node238937&#45;&gt;Node238949</title>
<path fill="none" stroke="#191970" d="M210.3113,-246.3118C228.2459,-251.4694 249.2672,-257.5148 268.1136,-262.9346"/>
<polygon fill="#191970" stroke="#191970" points="211.2766,-242.9475 200.6987,-243.5473 209.3419,-249.6749 211.2766,-242.9475"/>
</g>
<!-- Node238950 -->
<g id="node10" class="node">
<title>Node238950</title>
<g id="a_node10"><a xlink:href="quickjs_8c.html#a3be661c1eaa7a31184410667862635a2" target="_top" xlink:title="js_typed_array_constructor">
<polygon fill="none" stroke="#000000" points="253.5,-186.5 253.5,-205.5 387.5,-205.5 387.5,-186.5 253.5,-186.5"/>
<text text-anchor="middle" x="320.5" y="-193.5" font-family="Helvetica,sans-Serif" font-size="10.00" fill="#000000">js_typed_array_constructor</text>
</a>
</g>
</g>
<!-- Node238937&#45;&gt;Node238950 -->
<g id="edge10" class="edge">
<title>Node238937&#45;&gt;Node238950</title>
<path fill="none" stroke="#191970" d="M212.0802,-222.9278C234.2903,-217.4116 260.8744,-210.809 282.16,-205.5223"/>
<polygon fill="#191970" stroke="#191970" points="211.0795,-219.5699 202.2181,-225.3772 212.7669,-226.3635 211.0795,-219.5699"/>
</g>
<!-- Node238966 -->
<g id="node13" class="node">
<title>Node238966</title>
<g id="a_node13"><a xlink:href="quickjs_8c.html#a67fcc1a61d5e110579fdaf06d051b6e9" target="_top" xlink:title="js_dataview_constructor">
<polygon fill="none" stroke="#000000" points="259.5,-224.5 259.5,-243.5 381.5,-243.5 381.5,-224.5 259.5,-224.5"/>
<text text-anchor="middle" x="320.5" y="-231.5" font-family="Helvetica,sans-Serif" font-size="10.00" fill="#000000">js_dataview_constructor</text>
</a>
</g>
</g>
<!-- Node238937&#45;&gt;Node238966 -->
<g id="edge14" class="edge">
<title>Node238937&#45;&gt;Node238966</title>
<path fill="none" stroke="#191970" d="M212.5477,-234C227.2434,-234 243.8141,-234 259.4807,-234"/>
<polygon fill="#191970" stroke="#191970" points="212.2181,-230.5001 202.2181,-234 212.218,-237.5001 212.2181,-230.5001"/>
</g>
<!-- Node238967 -->
<g id="node14" class="node">
<title>Node238967</title>
<g id="a_node14"><a xlink:href="quickjs_8c.html#a351e921aea7f22e239884fdc941a8e52" target="_top" xlink:title="js_dataview_getValue">
<polygon fill="none" stroke="#000000" points="264.5,-148.5 264.5,-167.5 376.5,-167.5 376.5,-148.5 264.5,-148.5"/>
<text text-anchor="middle" x="320.5" y="-155.5" font-family="Helvetica,sans-Serif" font-size="10.00" fill="#000000">js_dataview_getValue</text>
</a>
</g>
</g>
<!-- Node238937&#45;&gt;Node238967 -->
<g id="edge16" class="edge">
<title>Node238937&#45;&gt;Node238967</title>
<path fill="none" stroke="#191970" d="M187.1599,-218.2793C203.8415,-205.602 228.8477,-188.1116 253,-177 261.0737,-173.2856 270.0315,-170.1446 278.7128,-167.552"/>
<polygon fill="#191970" stroke="#191970" points="185.0066,-215.5201 179.244,-224.4108 189.2931,-221.0542 185.0066,-215.5201"/>
</g>
<!-- Node238968 -->
<g id="node15" class="node">
<title>Node238968</title>
<g id="a_node15"><a xlink:href="quickjs_8c.html#a77e9c7ebb882b521133545bc59d15a4a" target="_top" xlink:title="js_dataview_setValue">
<polygon fill="none" stroke="#000000" points="264.5,-110.5 264.5,-129.5 376.5,-129.5 376.5,-110.5 264.5,-110.5"/>
<text text-anchor="middle" x="320.5" y="-117.5" font-family="Helvetica,sans-Serif" font-size="10.00" fill="#000000">js_dataview_setValue</text>
</a>
</g>
</g>
<!-- Node238937&#45;&gt;Node238968 -->
<g id="edge17" class="edge">
<title>Node238937&#45;&gt;Node238968</title>
<path fill="none" stroke="#191970" d="M179.1533,-215.7304C193.8158,-194.2165 220.9897,-158.899 253,-139 259.2035,-135.1436 266.2071,-132.0512 273.2948,-129.5765"/>
<polygon fill="#191970" stroke="#191970" points="176.0947,-214.01 173.4908,-224.2799 181.9308,-217.8754 176.0947,-214.01"/>
</g>
<!-- Node238969 -->
<g id="node16" class="node">
<title>Node238969</title>
<g id="a_node16"><a xlink:href="quickjs_8c.html#ab81c18658906074980c65ae90e2ca5f0" target="_top" xlink:title="js_atomics_get_ptr">
<polygon fill="none" stroke="#000000" points="271,-72.5 271,-91.5 370,-91.5 370,-72.5 271,-72.5"/>
<text text-anchor="middle" x="320.5" y="-79.5" font-family="Helvetica,sans-Serif" font-size="10.00" fill="#000000">js_atomics_get_ptr</text>
</a>
</g>
</g>
<!-- Node238937&#45;&gt;Node238969 -->
<g id="edge18" class="edge">
<title>Node238937&#45;&gt;Node238969</title>
<path fill="none" stroke="#191970" d="M177.3513,-215.2922C194.9716,-182.4752 232.0011,-116.5343 253,-101 258.3829,-97.0179 264.5686,-93.8698 270.9635,-91.3812"/>
<polygon fill="#191970" stroke="#191970" points="174.1546,-213.8489 172.5453,-224.3209 180.3337,-217.1382 174.1546,-213.8489"/>
</g>
<!-- Node238942 -->
<g id="node8" class="node">
<title>Node238942</title>
<g id="a_node8"><a xlink:href="quickjs_8c.html#a177d09828596bfe6df4bd90b2e93989d" target="_top" xlink:title="JS_AddIntrinsicTypedArrays">
<polygon fill="none" stroke="#ff0000" points="424,-264.5 424,-283.5 565,-283.5 565,-264.5 424,-264.5"/>
<text text-anchor="middle" x="494.5" y="-271.5" font-family="Helvetica,sans-Serif" font-size="10.00" fill="#000000">JS_AddIntrinsicTypedArrays</text>
</a>
</g>
</g>
<!-- Node238941&#45;&gt;Node238942 -->
<g id="edge7" class="edge">
<title>Node238941&#45;&gt;Node238942</title>
<path fill="none" stroke="#191970" d="M365.3127,-309.6379C394.7294,-301.5229 432.6361,-291.0659 459.767,-283.5815"/>
<polygon fill="#191970" stroke="#191970" points="364.0025,-306.3685 355.2933,-312.4018 365.864,-313.1165 364.0025,-306.3685"/>
</g>
<!-- Node238949&#45;&gt;Node238942 -->
<g id="edge9" class="edge">
<title>Node238949&#45;&gt;Node238942</title>
<path fill="none" stroke="#191970" d="M389.2289,-276.42C400.6098,-276.1584 412.4276,-275.8867 423.8549,-275.624"/>
<polygon fill="#191970" stroke="#191970" points="388.8404,-272.9279 378.9235,-276.6569 389.0014,-279.9261 388.8404,-272.9279"/>
</g>
<!-- Node238950&#45;&gt;Node238942 -->
<g id="edge11" class="edge">
<title>Node238950&#45;&gt;Node238942</title>
<path fill="none" stroke="#191970" d="M375.2982,-209.0976C379.6966,-210.8444 383.9863,-212.8047 388,-215 406.7814,-225.2728 405.7073,-235.8802 424,-247 435.8716,-254.2165 449.9991,-260.0859 462.4789,-264.4866"/>
<polygon fill="#191970" stroke="#191970" points="376.1557,-205.6869 365.5611,-205.6059 373.7928,-212.276 376.1557,-205.6869"/>
</g>
<!-- Node238951 -->
<g id="node11" class="node">
<title>Node238951</title>
<g id="a_node11"><a xlink:href="quickjs_8c.html#a00910faacc776e3c2c225aa117aab450" target="_top" xlink:title="JS_ReadTypedArray">
<polygon fill="none" stroke="#ff0000" points="441,-218.5 441,-237.5 548,-237.5 548,-218.5 441,-218.5"/>
<text text-anchor="middle" x="494.5" y="-225.5" font-family="Helvetica,sans-Serif" font-size="10.00" fill="#000000">JS_ReadTypedArray</text>
</a>
</g>
</g>
<!-- Node238950&#45;&gt;Node238951 -->
<g id="edge12" class="edge">
<title>Node238950&#45;&gt;Node238951</title>
<path fill="none" stroke="#191970" d="M382.087,-207.3263C401.8951,-210.9692 423.6297,-214.9664 442.6642,-218.467"/>
<polygon fill="#191970" stroke="#191970" points="382.7028,-203.881 372.2346,-205.5144 381.4366,-210.7655 382.7028,-203.881"/>
</g>
<!-- Node238962 -->
<g id="node12" class="node">
<title>Node238962</title>
<g id="a_node12"><a xlink:href="quickjs_8c.html#ae5a8e884ec4a3364f63ebfeae6b08bdc" target="_top" xlink:title="js_typed_array___species\lCreate">
<polygon fill="none" stroke="#ff0000" points="429.5,-169 429.5,-199 559.5,-199 559.5,-169 429.5,-169"/>
<text text-anchor="start" x="437.5" y="-187" font-family="Helvetica,sans-Serif" font-size="10.00" fill="#000000">js_typed_array___species</text>
<text text-anchor="middle" x="494.5" y="-176" font-family="Helvetica,sans-Serif" font-size="10.00" fill="#000000">Create</text>
</a>
</g>
</g>
<!-- Node238950&#45;&gt;Node238962 -->
<g id="edge13" class="edge">
<title>Node238950&#45;&gt;Node238962</title>
<path fill="none" stroke="#191970" d="M397.8091,-190.6683C408.36,-189.9407 419.1034,-189.1998 429.4082,-188.4891"/>
<polygon fill="#191970" stroke="#191970" points="397.5084,-187.1807 387.7729,-191.3605 397.9901,-194.1641 397.5084,-187.1807"/>
</g>
<!-- Node238966&#45;&gt;Node238942 -->
<g id="edge15" class="edge">
<title>Node238966&#45;&gt;Node238942</title>
<path fill="none" stroke="#191970" d="M372.1815,-245.8808C398.0367,-251.8245 428.9046,-258.9206 453.1627,-264.4972"/>
<polygon fill="#191970" stroke="#191970" points="372.7073,-242.4105 362.1773,-243.581 371.139,-249.2325 372.7073,-242.4105"/>
</g>
<!-- Node238970 -->
<g id="node17" class="node">
<title>Node238970</title>
<g id="a_node17"><a xlink:href="quickjs_8c.html#adbeea736a6232c3a784b39a2dfb6a510" target="_top" xlink:title="js_atomics_op">
<polygon fill="none" stroke="#000000" points="454.5,-114.5 454.5,-133.5 534.5,-133.5 534.5,-114.5 454.5,-114.5"/>
<text text-anchor="middle" x="494.5" y="-121.5" font-family="Helvetica,sans-Serif" font-size="10.00" fill="#000000">js_atomics_op</text>
</a>
</g>
</g>
<!-- Node238969&#45;&gt;Node238970 -->
<g id="edge19" class="edge">
<title>Node238969&#45;&gt;Node238970</title>
<path fill="none" stroke="#191970" d="M369.9729,-93.9417C396.8677,-100.4336 429.6815,-108.3542 454.8722,-114.4347"/>
<polygon fill="#191970" stroke="#191970" points="370.5254,-90.4746 359.9833,-91.5305 368.8829,-97.2792 370.5254,-90.4746"/>
</g>
<!-- Node238971 -->
<g id="node18" class="node">
<title>Node238971</title>
<g id="a_node18"><a xlink:href="quickjs_8c.html#a0586dbbd419acfaca58bb867e3a39ed3" target="_top" xlink:title="js_atomics_store">
<polygon fill="none" stroke="#000000" points="449,-76.5 449,-95.5 540,-95.5 540,-76.5 449,-76.5"/>
<text text-anchor="middle" x="494.5" y="-83.5" font-family="Helvetica,sans-Serif" font-size="10.00" fill="#000000">js_atomics_store</text>
</a>
</g>
</g>
<!-- Node238969&#45;&gt;Node238971 -->
<g id="edge20" class="edge">
<title>Node238969&#45;&gt;Node238971</title>
<path fill="none" stroke="#191970" d="M380.4403,-83.3779C402.8368,-83.8928 427.8903,-84.4687 448.7995,-84.9494"/>
<polygon fill="#191970" stroke="#191970" points="380.4392,-79.8771 370.3614,-83.1462 380.2783,-86.8752 380.4392,-79.8771"/>
</g>
<!-- Node238972 -->
<g id="node19" class="node">
<title>Node238972</title>
<g id="a_node19"><a xlink:href="quickjs_8c.html#a5da0aed88a968e1b5d841cec3b582b2c" target="_top" xlink:title="js_atomics_wait">
<polygon fill="none" stroke="#000000" points="451,-38.5 451,-57.5 538,-57.5 538,-38.5 451,-38.5"/>
<text text-anchor="middle" x="494.5" y="-45.5" font-family="Helvetica,sans-Serif" font-size="10.00" fill="#000000">js_atomics_wait</text>
</a>
</g>
</g>
<!-- Node238969&#45;&gt;Node238972 -->
<g id="edge21" class="edge">
<title>Node238969&#45;&gt;Node238972</title>
<path fill="none" stroke="#191970" d="M379.278,-70.5146C402.7455,-65.929 429.2854,-60.7431 450.9739,-56.5051"/>
<polygon fill="#191970" stroke="#191970" points="378.5749,-67.0858 369.4317,-72.4386 379.9174,-73.9558 378.5749,-67.0858"/>
</g>
<!-- Node238973 -->
<g id="node20" class="node">
<title>Node238973</title>
<g id="a_node20"><a xlink:href="quickjs_8c.html#a10203c5ecfd1db25342e97b0342ba514" target="_top" xlink:title="js_atomics_notify">
<polygon fill="none" stroke="#000000" points="448,-.5 448,-19.5 541,-19.5 541,-.5 448,-.5"/>
<text text-anchor="middle" x="494.5" y="-7.5" font-family="Helvetica,sans-Serif" font-size="10.00" fill="#000000">js_atomics_notify</text>
</a>
</g>
</g>
<!-- Node238969&#45;&gt;Node238973 -->
<g id="edge22" class="edge">
<title>Node238969&#45;&gt;Node238973</title>
<path fill="none" stroke="#191970" d="M375.5738,-68.9521C379.8851,-67.1968 384.0812,-65.221 388,-63 407.1467,-52.1487 404.7932,-39.7445 424,-29 431.3015,-24.9154 439.5241,-21.6741 447.7076,-19.1127"/>
<polygon fill="#191970" stroke="#191970" points="374.2017,-65.7271 366.0144,-72.4516 376.6081,-72.3005 374.2017,-65.7271"/>
</g>
<!-- Node238975 -->
<g id="node22" class="node">
<title>Node238975</title>
<g id="a_node22"><a xlink:href="quickjs_8c.html#af7649a967804b86dcc5e5e66df32769e" target="_top" xlink:title="js_typed_array_set">
<polygon fill="none" stroke="#000000" points="271,-34.5 271,-53.5 370,-53.5 370,-34.5 271,-34.5"/>
<text text-anchor="middle" x="320.5" y="-41.5" font-family="Helvetica,sans-Serif" font-size="10.00" fill="#000000">js_typed_array_set</text>
</a>
</g>
</g>
<!-- Node238974&#45;&gt;Node238975 -->
<g id="edge24" class="edge">
<title>Node238974&#45;&gt;Node238975</title>
<path fill="none" stroke="#191970" d="M196.0515,-96.0293C212.1385,-84.9831 232.9716,-71.9165 253,-63 261.2301,-59.336 270.3423,-56.2027 279.1389,-53.5994"/>
<polygon fill="#191970" stroke="#191970" points="193.8229,-93.317 187.6378,-101.9191 197.8372,-99.0516 193.8229,-93.317"/>
</g>
</g>
</svg>
