<?xml version="1.0" encoding="UTF-8" standalone="no"?>
<!DOCTYPE svg PUBLIC "-//W3C//DTD SVG 1.1//EN"
 "http://www.w3.org/Graphics/SVG/1.1/DTD/svg11.dtd">
<!-- Generated by graphviz version 2.40.1 (20161225.0304)
 -->
<!-- Title: JS_AutoInitProperty Pages: 1 -->
<svg width="257pt" height="66pt"
 viewBox="0.00 0.00 257.00 66.00" xmlns="http://www.w3.org/2000/svg" xmlns:xlink="http://www.w3.org/1999/xlink">
<g id="graph0" class="graph" transform="scale(1 1) rotate(0) translate(4 62)">
<title>JS_AutoInitProperty</title>
<!-- Node178379 -->
<g id="node1" class="node">
<title>Node178379</title>
<polygon fill="#bfbfbf" stroke="#000000" points="0,-19.5 0,-38.5 104,-38.5 104,-19.5 0,-19.5"/>
<text text-anchor="middle" x="52" y="-26.5" font-family="Helvetica,sans-Serif" font-size="10.00" fill="#000000">JS_AutoInitProperty</text>
</g>
<!-- Node178380 -->
<g id="node2" class="node">
<title>Node178380</title>
<g id="a_node2"><a xlink:href="quickjs_8c.html#a822a6c16ff56aeab5fa7e87a076c6b06" target="_top" xlink:title="js_autoinit_get_id">
<polygon fill="none" stroke="#000000" points="148.5,-38.5 148.5,-57.5 240.5,-57.5 240.5,-38.5 148.5,-38.5"/>
<text text-anchor="middle" x="194.5" y="-45.5" font-family="Helvetica,sans-Serif" font-size="10.00" fill="#000000">js_autoinit_get_id</text>
</a>
</g>
</g>
<!-- Node178379&#45;&gt;Node178380 -->
<g id="edge1" class="edge">
<title>Node178379&#45;&gt;Node178380</title>
<path fill="none" stroke="#191970" d="M104.2526,-35.967C115.321,-37.4428 127.0493,-39.0066 138.2584,-40.5011"/>
<polygon fill="#191970" stroke="#191970" points="137.9978,-43.9973 148.3727,-41.8497 138.923,-37.0587 137.9978,-43.9973"/>
</g>
<!-- Node178381 -->
<g id="node3" class="node">
<title>Node178381</title>
<g id="a_node3"><a xlink:href="quickjs_8c.html#ab47c18f4aa00970629cc8e69fe2fdb51" target="_top" xlink:title="js_autoinit_get_realm">
<polygon fill="none" stroke="#000000" points="140,-.5 140,-19.5 249,-19.5 249,-.5 140,-.5"/>
<text text-anchor="middle" x="194.5" y="-7.5" font-family="Helvetica,sans-Serif" font-size="10.00" fill="#000000">js_autoinit_get_realm</text>
</a>
</g>
</g>
<!-- Node178379&#45;&gt;Node178381 -->
<g id="edge2" class="edge">
<title>Node178379&#45;&gt;Node178381</title>
<path fill="none" stroke="#191970" d="M104.2526,-22.033C112.588,-20.9216 121.2977,-19.7603 129.878,-18.6163"/>
<polygon fill="#191970" stroke="#191970" points="130.4114,-22.0762 139.861,-17.2852 129.4862,-15.1376 130.4114,-22.0762"/>
</g>
</g>
</svg>
