<?xml version="1.0" encoding="UTF-8" standalone="no"?>
<!DOCTYPE svg PUBLIC "-//W3C//DTD SVG 1.1//EN"
 "http://www.w3.org/Graphics/SVG/1.1/DTD/svg11.dtd">
<!-- Generated by graphviz version 2.40.1 (20161225.0304)
 -->
<!-- Title: JS_RegExpExec Pages: 1 -->
<svg width="283pt" height="218pt"
 viewBox="0.00 0.00 283.00 218.00" xmlns="http://www.w3.org/2000/svg" xmlns:xlink="http://www.w3.org/1999/xlink">
<g id="graph0" class="graph" transform="scale(1 1) rotate(0) translate(4 214)">
<title>JS_RegExpExec</title>
<!-- Node425862 -->
<g id="node1" class="node">
<title>Node425862</title>
<polygon fill="#bfbfbf" stroke="#000000" points="0,-95.5 0,-114.5 92,-114.5 92,-95.5 0,-95.5"/>
<text text-anchor="middle" x="46" y="-102.5" font-family="Helvetica,sans-Serif" font-size="10.00" fill="#000000">JS_RegExpExec</text>
</g>
<!-- Node425863 -->
<g id="node2" class="node">
<title>Node425863</title>
<g id="a_node2"><a xlink:href="quickjs_8c.html#aeb6df5fcffc6fecfac1e9b0d709e99c5" target="_top" xlink:title="js_regexp_string_iterator_next">
<polygon fill="none" stroke="#000000" points="128,-190.5 128,-209.5 275,-209.5 275,-190.5 128,-190.5"/>
<text text-anchor="middle" x="201.5" y="-197.5" font-family="Helvetica,sans-Serif" font-size="10.00" fill="#000000">js_regexp_string_iterator_next</text>
</a>
</g>
</g>
<!-- Node425862&#45;&gt;Node425863 -->
<g id="edge1" class="edge">
<title>Node425862&#45;&gt;Node425863</title>
<path fill="none" stroke="#191970" d="M60.0096,-122.2565C75.0377,-139.6332 100.4823,-165.9597 128,-181 135.0547,-184.8559 142.9206,-187.953 150.8106,-190.434"/>
<polygon fill="#191970" stroke="#191970" points="62.6244,-119.9278 53.5055,-114.5337 57.2702,-124.4371 62.6244,-119.9278"/>
</g>
<!-- Node425864 -->
<g id="node3" class="node">
<title>Node425864</title>
<g id="a_node3"><a xlink:href="quickjs_8c.html#a41fc4304b39616e7be3500fe6ec881c2" target="_top" xlink:title="js_regexp_Symbol_match">
<polygon fill="none" stroke="#000000" points="137,-152.5 137,-171.5 266,-171.5 266,-152.5 137,-152.5"/>
<text text-anchor="middle" x="201.5" y="-159.5" font-family="Helvetica,sans-Serif" font-size="10.00" fill="#000000">js_regexp_Symbol_match</text>
</a>
</g>
</g>
<!-- Node425862&#45;&gt;Node425864 -->
<g id="edge2" class="edge">
<title>Node425862&#45;&gt;Node425864</title>
<path fill="none" stroke="#191970" d="M73.2978,-119.1655C89.0045,-126.9291 109.2808,-136.3054 128,-143 137.9281,-146.5506 148.8289,-149.7376 159.1248,-152.4414"/>
<polygon fill="#191970" stroke="#191970" points="74.6706,-115.9384 64.1634,-114.5784 71.5292,-122.194 74.6706,-115.9384"/>
</g>
<!-- Node425865 -->
<g id="node4" class="node">
<title>Node425865</title>
<g id="a_node4"><a xlink:href="quickjs_8c.html#a6a77bcdb9f7f18c13c108c99a198708b" target="_top" xlink:title="js_regexp_Symbol_replace">
<polygon fill="none" stroke="#000000" points="134.5,-114.5 134.5,-133.5 268.5,-133.5 268.5,-114.5 134.5,-114.5"/>
<text text-anchor="middle" x="201.5" y="-121.5" font-family="Helvetica,sans-Serif" font-size="10.00" fill="#000000">js_regexp_Symbol_replace</text>
</a>
</g>
</g>
<!-- Node425862&#45;&gt;Node425865 -->
<g id="edge3" class="edge">
<title>Node425862&#45;&gt;Node425865</title>
<path fill="none" stroke="#191970" d="M102.4165,-111.8933C112.8133,-113.1637 123.7618,-114.5014 134.4363,-115.8057"/>
<polygon fill="#191970" stroke="#191970" points="102.5848,-108.388 92.2341,-110.6492 101.7358,-115.3363 102.5848,-108.388"/>
</g>
<!-- Node425866 -->
<g id="node5" class="node">
<title>Node425866</title>
<g id="a_node5"><a xlink:href="quickjs_8c.html#af315d0f35b4b11e5957b904c98bf1c0d" target="_top" xlink:title="js_regexp_Symbol_search">
<polygon fill="none" stroke="#000000" points="136,-76.5 136,-95.5 267,-95.5 267,-76.5 136,-76.5"/>
<text text-anchor="middle" x="201.5" y="-83.5" font-family="Helvetica,sans-Serif" font-size="10.00" fill="#000000">js_regexp_Symbol_search</text>
</a>
</g>
</g>
<!-- Node425862&#45;&gt;Node425866 -->
<g id="edge4" class="edge">
<title>Node425862&#45;&gt;Node425866</title>
<path fill="none" stroke="#191970" d="M102.4319,-98.1048C113.2925,-96.7778 124.7545,-95.3773 135.8771,-94.0182"/>
<polygon fill="#191970" stroke="#191970" points="101.7358,-94.6637 92.2341,-99.3508 102.5848,-101.612 101.7358,-94.6637"/>
</g>
<!-- Node425867 -->
<g id="node6" class="node">
<title>Node425867</title>
<g id="a_node6"><a xlink:href="quickjs_8c.html#a79872a6d9d139e36d5d1894d16132024" target="_top" xlink:title="js_regexp_Symbol_split">
<polygon fill="none" stroke="#000000" points="141.5,-38.5 141.5,-57.5 261.5,-57.5 261.5,-38.5 141.5,-38.5"/>
<text text-anchor="middle" x="201.5" y="-45.5" font-family="Helvetica,sans-Serif" font-size="10.00" fill="#000000">js_regexp_Symbol_split</text>
</a>
</g>
</g>
<!-- Node425862&#45;&gt;Node425867 -->
<g id="edge5" class="edge">
<title>Node425862&#45;&gt;Node425867</title>
<path fill="none" stroke="#191970" d="M73.2978,-90.8345C89.0045,-83.0709 109.2808,-73.6946 128,-67 137.9281,-63.4494 148.8289,-60.2624 159.1248,-57.5586"/>
<polygon fill="#191970" stroke="#191970" points="71.5292,-87.806 64.1634,-95.4216 74.6706,-94.0616 71.5292,-87.806"/>
</g>
<!-- Node425868 -->
<g id="node7" class="node">
<title>Node425868</title>
<g id="a_node7"><a xlink:href="quickjs_8c.html#acda1b1a97bfde7e280456c5969b7a2a3" target="_top" xlink:title="js_regexp_test">
<polygon fill="none" stroke="#000000" points="161.5,-.5 161.5,-19.5 241.5,-19.5 241.5,-.5 161.5,-.5"/>
<text text-anchor="middle" x="201.5" y="-7.5" font-family="Helvetica,sans-Serif" font-size="10.00" fill="#000000">js_regexp_test</text>
</a>
</g>
</g>
<!-- Node425862&#45;&gt;Node425868 -->
<g id="edge6" class="edge">
<title>Node425862&#45;&gt;Node425868</title>
<path fill="none" stroke="#191970" d="M60.0096,-87.7435C75.0377,-70.3668 100.4823,-44.0403 128,-29 138.1773,-23.4374 150.0428,-19.454 161.2332,-16.6213"/>
<polygon fill="#191970" stroke="#191970" points="57.2702,-85.5629 53.5055,-95.4663 62.6244,-90.0722 57.2702,-85.5629"/>
</g>
</g>
</svg>
