<?xml version="1.0" encoding="UTF-8" standalone="no"?>
<!DOCTYPE svg PUBLIC "-//W3C//DTD SVG 1.1//EN"
 "http://www.w3.org/Graphics/SVG/1.1/DTD/svg11.dtd">
<!-- Generated by graphviz version 2.40.1 (20161225.0304)
 -->
<!-- Title: JS_ReadDate Pages: 1 -->
<svg width="534pt" height="256pt"
 viewBox="0.00 0.00 534.00 256.00" xmlns="http://www.w3.org/2000/svg" xmlns:xlink="http://www.w3.org/1999/xlink">
<g id="graph0" class="graph" transform="scale(1 1) rotate(0) translate(4 252)">
<title>JS_ReadDate</title>
<!-- Node361744 -->
<g id="node1" class="node">
<title>Node361744</title>
<polygon fill="#bfbfbf" stroke="#000000" points="0,-114.5 0,-133.5 78,-133.5 78,-114.5 0,-114.5"/>
<text text-anchor="middle" x="39" y="-121.5" font-family="Helvetica,sans-Serif" font-size="10.00" fill="#000000">JS_ReadDate</text>
</g>
<!-- Node361745 -->
<g id="node2" class="node">
<title>Node361745</title>
<g id="a_node2"><a xlink:href="quickjs_8c.html#a4b8ef2bb3b35e4a5f6ed8bd837a50e7c" target="_top" xlink:title="JS_ReadObjectRec">
<polygon fill="none" stroke="#000000" points="114,-114.5 114,-133.5 218,-133.5 218,-114.5 114,-114.5"/>
<text text-anchor="middle" x="166" y="-121.5" font-family="Helvetica,sans-Serif" font-size="10.00" fill="#000000">JS_ReadObjectRec</text>
</a>
</g>
</g>
<!-- Node361744&#45;&gt;Node361745 -->
<g id="edge1" class="edge">
<title>Node361744&#45;&gt;Node361745</title>
<path fill="none" stroke="#191970" d="M88.4077,-117.4C96.6916,-117.221 105.3124,-117.2022 113.6669,-117.3436"/>
<polygon fill="#191970" stroke="#191970" points="88.0294,-113.9098 78.1405,-117.7124 88.2423,-120.9065 88.0294,-113.9098"/>
</g>
<!-- Node361745&#45;&gt;Node361744 -->
<g id="edge4" class="edge">
<title>Node361745&#45;&gt;Node361744</title>
<path fill="none" stroke="#191970" d="M103.5523,-130.7492C94.893,-130.7627 86.2076,-130.6089 78.1405,-130.2876"/>
<polygon fill="#191970" stroke="#191970" points="103.6995,-134.2481 113.6669,-130.6564 103.6352,-127.2484 103.6995,-134.2481"/>
</g>
<!-- Node361746 -->
<g id="node3" class="node">
<title>Node361746</title>
<g id="a_node3"><a xlink:href="quickjs_8c.html#a18da561cb430d36d47200cd3ab394984" target="_top" xlink:title="JS_ReadArray">
<polygon fill="none" stroke="#000000" points="269.5,-228.5 269.5,-247.5 349.5,-247.5 349.5,-228.5 269.5,-228.5"/>
<text text-anchor="middle" x="309.5" y="-235.5" font-family="Helvetica,sans-Serif" font-size="10.00" fill="#000000">JS_ReadArray</text>
</a>
</g>
</g>
<!-- Node361745&#45;&gt;Node361746 -->
<g id="edge2" class="edge">
<title>Node361745&#45;&gt;Node361746</title>
<path fill="none" stroke="#191970" d="M183.1721,-141.4546C199.2598,-160.8499 225.1078,-191.2053 254,-210 267.1471,-218.5523 284.5608,-223.6908 296.3502,-228.387"/>
<polygon fill="#191970" stroke="#191970" points="185.7691,-139.1031 176.693,-133.6372 180.3795,-143.57 185.7691,-139.1031"/>
</g>
<!-- Node361747 -->
<g id="node4" class="node">
<title>Node361747</title>
<g id="a_node4"><a xlink:href="quickjs_8c.html#a367627778ac537f4bb1f0fd07a2dee1b" target="_top" xlink:title="JS_ReadFunctionTag">
<polygon fill="none" stroke="#000000" points="254,-190.5 254,-209.5 365,-209.5 365,-190.5 254,-190.5"/>
<text text-anchor="middle" x="309.5" y="-197.5" font-family="Helvetica,sans-Serif" font-size="10.00" fill="#000000">JS_ReadFunctionTag</text>
</a>
</g>
</g>
<!-- Node361745&#45;&gt;Node361747 -->
<g id="edge5" class="edge">
<title>Node361745&#45;&gt;Node361747</title>
<path fill="none" stroke="#191970" d="M197.5616,-139.061C213.8537,-149.3735 234.384,-162.4685 254,-172 268.8396,-179.2106 287.1229,-184.9039 298.5489,-190.3934"/>
<polygon fill="#191970" stroke="#191970" points="199.3066,-136.0238 188.9792,-133.6584 195.5775,-141.9478 199.3066,-136.0238"/>
</g>
<!-- Node361748 -->
<g id="node5" class="node">
<title>Node361748</title>
<g id="a_node5"><a xlink:href="quickjs_8c.html#a21c7b14be807f7ce7f71c19e2e80380c" target="_top" xlink:title="JS_ReadModule">
<polygon fill="none" stroke="#000000" points="265,-152.5 265,-171.5 354,-171.5 354,-152.5 265,-152.5"/>
<text text-anchor="middle" x="309.5" y="-159.5" font-family="Helvetica,sans-Serif" font-size="10.00" fill="#000000">JS_ReadModule</text>
</a>
</g>
</g>
<!-- Node361745&#45;&gt;Node361748 -->
<g id="edge7" class="edge">
<title>Node361745&#45;&gt;Node361748</title>
<path fill="none" stroke="#191970" d="M228.2146,-133.7782C251.0063,-139.5577 275.1047,-146.6058 291.0897,-152.428"/>
<polygon fill="#191970" stroke="#191970" points="228.7606,-130.3078 218.2127,-131.3039 227.0796,-137.103 228.7606,-130.3078"/>
</g>
<!-- Node361749 -->
<g id="node6" class="node">
<title>Node361749</title>
<g id="a_node6"><a xlink:href="quickjs_8c.html#a12be2ea9c010752715072489497594e9" target="_top" xlink:title="JS_ReadObject">
<polygon fill="none" stroke="#000000" points="266.5,-114.5 266.5,-133.5 352.5,-133.5 352.5,-114.5 266.5,-114.5"/>
<text text-anchor="middle" x="309.5" y="-121.5" font-family="Helvetica,sans-Serif" font-size="10.00" fill="#000000">JS_ReadObject</text>
</a>
</g>
</g>
<!-- Node361745&#45;&gt;Node361749 -->
<g id="edge9" class="edge">
<title>Node361745&#45;&gt;Node361749</title>
<path fill="none" stroke="#191970" d="M228.3014,-124C241.0281,-124 254.1583,-124 266.0528,-124"/>
<polygon fill="#191970" stroke="#191970" points="228.2128,-120.5001 218.2127,-124 228.2127,-127.5001 228.2128,-120.5001"/>
</g>
<!-- Node361752 -->
<g id="node9" class="node">
<title>Node361752</title>
<g id="a_node9"><a xlink:href="quickjs_8c.html#ad0e3230c3896c2048283a9302f184fb4" target="_top" xlink:title="JS_ReadObjectTag">
<polygon fill="none" stroke="#000000" points="258.5,-76.5 258.5,-95.5 360.5,-95.5 360.5,-76.5 258.5,-76.5"/>
<text text-anchor="middle" x="309.5" y="-83.5" font-family="Helvetica,sans-Serif" font-size="10.00" fill="#000000">JS_ReadObjectTag</text>
</a>
</g>
</g>
<!-- Node361745&#45;&gt;Node361752 -->
<g id="edge12" class="edge">
<title>Node361745&#45;&gt;Node361752</title>
<path fill="none" stroke="#191970" d="M193.942,-111.1242C212.2407,-105.0497 236.6983,-98.2336 258.4005,-93.0365"/>
<polygon fill="#191970" stroke="#191970" points="192.7692,-107.8264 184.4663,-114.4076 195.0611,-114.4406 192.7692,-107.8264"/>
</g>
<!-- Node361753 -->
<g id="node10" class="node">
<title>Node361753</title>
<g id="a_node10"><a xlink:href="quickjs_8c.html#aa329df3dbab623ec017b77cb77bcce2f" target="_top" xlink:title="JS_ReadObjectValue">
<polygon fill="none" stroke="#000000" points="254.5,-38.5 254.5,-57.5 364.5,-57.5 364.5,-38.5 254.5,-38.5"/>
<text text-anchor="middle" x="309.5" y="-45.5" font-family="Helvetica,sans-Serif" font-size="10.00" fill="#000000">JS_ReadObjectValue</text>
</a>
</g>
</g>
<!-- Node361745&#45;&gt;Node361753 -->
<g id="edge14" class="edge">
<title>Node361745&#45;&gt;Node361753</title>
<path fill="none" stroke="#191970" d="M180.1126,-106.8686C196.979,-91.8841 226.3948,-71.4134 254,-58 254.2748,-57.8665 254.5508,-57.7335 254.8279,-57.601"/>
<polygon fill="#191970" stroke="#191970" points="177.3198,-104.6965 172.5125,-114.1379 182.1583,-109.7551 177.3198,-104.6965"/>
</g>
<!-- Node361754 -->
<g id="node11" class="node">
<title>Node361754</title>
<g id="a_node11"><a xlink:href="quickjs_8c.html#a00910faacc776e3c2c225aa117aab450" target="_top" xlink:title="JS_ReadTypedArray">
<polygon fill="none" stroke="#000000" points="256,-.5 256,-19.5 363,-19.5 363,-.5 256,-.5"/>
<text text-anchor="middle" x="309.5" y="-7.5" font-family="Helvetica,sans-Serif" font-size="10.00" fill="#000000">JS_ReadTypedArray</text>
</a>
</g>
</g>
<!-- Node361745&#45;&gt;Node361754 -->
<g id="edge16" class="edge">
<title>Node361745&#45;&gt;Node361754</title>
<path fill="none" stroke="#191970" d="M174.6062,-105.5967C188.8464,-82.0085 219.2171,-42.6266 254,-20 254.5976,-19.6113 255.204,-19.2296 255.8183,-18.855"/>
<polygon fill="#191970" stroke="#191970" points="171.5273,-103.9313 169.6695,-114.362 177.6264,-107.3665 171.5273,-103.9313"/>
</g>
<!-- Node361746&#45;&gt;Node361745 -->
<g id="edge3" class="edge">
<title>Node361746&#45;&gt;Node361745</title>
<path fill="none" stroke="#191970" d="M259.9617,-231.5041C257.9048,-230.4098 255.9075,-229.2408 254,-228 214.4248,-202.2559 180.5614,-154.8215 169.6695,-133.638"/>
<polygon fill="#191970" stroke="#191970" points="258.7232,-234.7875 269.2682,-235.8137 261.6647,-228.4356 258.7232,-234.7875"/>
</g>
<!-- Node361747&#45;&gt;Node361745 -->
<g id="edge6" class="edge">
<title>Node361747&#45;&gt;Node361745</title>
<path fill="none" stroke="#191970" d="M245.8432,-185.8344C215.4769,-169.7548 185.3971,-147.4259 172.5125,-133.8621"/>
<polygon fill="#191970" stroke="#191970" points="244.3272,-188.9899 254.8279,-190.399 247.4978,-182.7491 244.3272,-188.9899"/>
</g>
<!-- Node361748&#45;&gt;Node361745 -->
<g id="edge8" class="edge">
<title>Node361748&#45;&gt;Node361745</title>
<path fill="none" stroke="#191970" d="M255.1539,-154.179C230.2232,-148.1013 202.309,-140.0868 184.4663,-133.5924"/>
<polygon fill="#191970" stroke="#191970" points="254.356,-157.5868 264.8938,-156.4889 255.9713,-150.7757 254.356,-157.5868"/>
</g>
<!-- Node361750 -->
<g id="node7" class="node">
<title>Node361750</title>
<g id="a_node7"><a xlink:href="quickjs-libc_8c.html#a9fa4c190ba56314c7ed9b00bbc7ad0f9" target="_top" xlink:title="handle_posted_message">
<polygon fill="none" stroke="#000000" points="401,-133.5 401,-152.5 526,-152.5 526,-133.5 401,-133.5"/>
<text text-anchor="middle" x="463.5" y="-140.5" font-family="Helvetica,sans-Serif" font-size="10.00" fill="#000000">handle_posted_message</text>
</a>
</g>
</g>
<!-- Node361749&#45;&gt;Node361750 -->
<g id="edge10" class="edge">
<title>Node361749&#45;&gt;Node361750</title>
<path fill="none" stroke="#191970" d="M362.8872,-130.5867C375.1728,-132.1025 388.3463,-133.7278 400.9803,-135.2865"/>
<polygon fill="#191970" stroke="#191970" points="363.1608,-127.094 352.8074,-129.3431 362.3036,-134.0414 363.1608,-127.094"/>
</g>
<!-- Node361751 -->
<g id="node8" class="node">
<title>Node361751</title>
<g id="a_node8"><a xlink:href="quickjs-libc_8c.html#ab1b439d304c2125490b47ef262b5df67" target="_top" xlink:title="js_std_eval_binary">
<polygon fill="none" stroke="#000000" points="414.5,-95.5 414.5,-114.5 512.5,-114.5 512.5,-95.5 414.5,-95.5"/>
<text text-anchor="middle" x="463.5" y="-102.5" font-family="Helvetica,sans-Serif" font-size="10.00" fill="#000000">js_std_eval_binary</text>
</a>
</g>
</g>
<!-- Node361749&#45;&gt;Node361751 -->
<g id="edge11" class="edge">
<title>Node361749&#45;&gt;Node361751</title>
<path fill="none" stroke="#191970" d="M362.9442,-117.4062C379.6139,-115.3496 397.9136,-113.0918 414.2796,-111.0726"/>
<polygon fill="#191970" stroke="#191970" points="362.3036,-113.9586 352.8074,-118.6569 363.1608,-120.906 362.3036,-113.9586"/>
</g>
<!-- Node361752&#45;&gt;Node361745 -->
<g id="edge13" class="edge">
<title>Node361752&#45;&gt;Node361745</title>
<path fill="none" stroke="#191970" d="M281.5086,-98.8921C263.5277,-104.8588 239.615,-111.5387 218.2127,-116.6961"/>
<polygon fill="#191970" stroke="#191970" points="282.787,-102.1534 291.0897,-95.572 280.4949,-95.5393 282.787,-102.1534"/>
</g>
<!-- Node361753&#45;&gt;Node361745 -->
<g id="edge15" class="edge">
<title>Node361753&#45;&gt;Node361745</title>
<path fill="none" stroke="#191970" d="M289.1869,-61.6496C278.469,-65.9428 265.2457,-70.5357 254,-76 230.7514,-87.2966 206.2185,-103.5987 188.9792,-114.3416"/>
<polygon fill="#191970" stroke="#191970" points="290.756,-64.7845 298.5489,-57.6066 287.9808,-58.3581 290.756,-64.7845"/>
</g>
<!-- Node361754&#45;&gt;Node361745 -->
<g id="edge17" class="edge">
<title>Node361754&#45;&gt;Node361745</title>
<path fill="none" stroke="#191970" d="M286.9353,-23.1451C276.3763,-26.9984 263.963,-31.519 254,-38 220.8322,-59.576 191.6764,-96.3873 176.693,-114.3628"/>
<polygon fill="#191970" stroke="#191970" points="288.2168,-26.4026 296.3502,-19.613 285.758,-19.8486 288.2168,-26.4026"/>
</g>
</g>
</svg>
