<?xml version="1.0" encoding="UTF-8" standalone="no"?>
<!DOCTYPE svg PUBLIC "-//W3C//DTD SVG 1.1//EN"
 "http://www.w3.org/Graphics/SVG/1.1/DTD/svg11.dtd">
<!-- Generated by graphviz version 2.40.1 (20161225.0304)
 -->
<!-- Title: js_operator_in Pages: 1 -->
<!--zoomable 327 -->
<svg id="main" version="1.1" xmlns="http://www.w3.org/2000/svg" xmlns:xlink="http://www.w3.org/1999/xlink" xml:space="preserve" onload="init(evt)">
<style type="text/css"><![CDATA[
.edge:hover path { stroke: red; }
.edge:hover polygon { stroke: red; fill: red; }
]]></style>
<script type="text/javascript"><![CDATA[
var edges = document.getElementsByTagName('g');
if (edges && edges.length) {
  for (var i=0;i<edges.length;i++) {
    if (edges[i].id.substr(0,4)=='edge') {
      edges[i].setAttribute('class','edge');
    }
  }
}
]]></script>
        <defs>
                <circle id="rim" cx="0" cy="0" r="7"/>
                <circle id="rim2" cx="0" cy="0" r="3.5"/>
                <g id="zoomPlus">
                        <use xlink:href="#rim" fill="#404040">
                                <set attributeName="fill" to="#808080" begin="zoomplus.mouseover" end="zoomplus.mouseout"/>
                        </use>
                        <path d="M-4,0h8M0,-4v8" fill="none" stroke="white" stroke-width="1.5" pointer-events="none"/>
                </g>
                <g id="zoomMin">
                        <use xlink:href="#rim" fill="#404040">
                                <set attributeName="fill" to="#808080" begin="zoomminus.mouseover" end="zoomminus.mouseout"/>
                        </use>
                        <path d="M-4,0h8" fill="none" stroke="white" stroke-width="1.5" pointer-events="none"/>
                </g>
                <g id="dirArrow">
                        <path fill="none" stroke="white" stroke-width="1.5" d="M0,-3.0v7 M-2.5,-0.5L0,-3.0L2.5,-0.5"/>
                </g>
               <g id="resetDef">
                       <use xlink:href="#rim2" fill="#404040">
                               <set attributeName="fill" to="#808080" begin="reset.mouseover" end="reset.mouseout"/>
                       </use>
               </g>
        </defs>

<script type="text/javascript">
var viewWidth = 1238;
var viewHeight = 327;
var sectionId = 'dynsection-773';
</script>
<script xlink:href="svgpan.js"/>
<svg id="graph" class="graph">
<g id="viewport">
<title>js_operator_in</title>
<!-- Node265013 -->
<g id="node1" class="node">
<title>Node265013</title>
<polygon fill="#bfbfbf" stroke="#000000" points="0,-147.841 0,-166.841 77,-166.841 77,-147.841 0,-147.841"/>
<text text-anchor="middle" x="38.5" y="-154.841" font-family="Helvetica,sans-Serif" font-size="10.00" fill="#000000">js_operator_in</text>
</g>
<!-- Node265014 -->
<g id="node2" class="node">
<title>Node265014</title>
<g id="a_node2"><a xlink:href="quickjs_8c.html#ab7fc45a99935a1c0ba50b0216d9401a9" target="_top" xlink:title="JS_FreeAtom">
<polygon fill="none" stroke="#000000" points="119,-261.841 119,-280.841 196,-280.841 196,-261.841 119,-261.841"/>
<text text-anchor="middle" x="157.5" y="-268.841" font-family="Helvetica,sans-Serif" font-size="10.00" fill="#000000">JS_FreeAtom</text>
</a>
</g>
</g>
<!-- Node265013&#45;&gt;Node265014 -->
<g id="edge1" class="edge">
<title>Node265013&#45;&gt;Node265014</title>
<path fill="none" stroke="#191970" d="M44.6765,-167.0491C56.3182,-184.7649 83.0461,-222.7708 113,-247.341 117.1356,-250.7333 121.8238,-253.8705 126.5671,-256.6818"/>
<polygon fill="#191970" stroke="#191970" points="125.1777,-259.9122 135.626,-261.6679 128.553,-253.7797 125.1777,-259.9122"/>
</g>
<!-- Node265020 -->
<g id="node6" class="node">
<title>Node265020</title>
<g id="a_node6"><a xlink:href="quickjs_8h.html#afaa20c47565bc704c6c85f3d77254e7d" target="_top" xlink:title="JS_FreeValue">
<polygon fill="none" stroke="#000000" points="746,-185.841 746,-204.841 824,-204.841 824,-185.841 746,-185.841"/>
<text text-anchor="middle" x="785" y="-192.841" font-family="Helvetica,sans-Serif" font-size="10.00" fill="#000000">JS_FreeValue</text>
</a>
</g>
</g>
<!-- Node265013&#45;&gt;Node265020 -->
<g id="edge5" class="edge">
<title>Node265013&#45;&gt;Node265020</title>
<path fill="none" stroke="#191970" d="M58.2059,-166.9665C101.9477,-187.417 210.9263,-233.341 307.5,-233.341 307.5,-233.341 307.5,-233.341 476,-233.341 568.2249,-233.341 674.783,-216.4596 735.5969,-205.2004"/>
<polygon fill="#191970" stroke="#191970" points="736.4981,-208.5924 745.6805,-203.3071 735.2064,-201.7126 736.4981,-208.5924"/>
</g>
<!-- Node265051 -->
<g id="node9" class="node">
<title>Node265051</title>
<g id="a_node9"><a xlink:href="quickjs_8c.html#a9d6d0a9704951d01c128975e0d2213f8" target="_top" xlink:title="JS_HasProperty">
<polygon fill="none" stroke="#000000" points="113,-147.841 113,-166.841 202,-166.841 202,-147.841 113,-147.841"/>
<text text-anchor="middle" x="157.5" y="-154.841" font-family="Helvetica,sans-Serif" font-size="10.00" fill="#000000">JS_HasProperty</text>
</a>
</g>
</g>
<!-- Node265013&#45;&gt;Node265051 -->
<g id="edge9" class="edge">
<title>Node265013&#45;&gt;Node265051</title>
<path fill="none" stroke="#191970" d="M77.1359,-157.341C85.3307,-157.341 94.13,-157.341 102.793,-157.341"/>
<polygon fill="#191970" stroke="#191970" points="102.8556,-160.8411 112.8555,-157.341 102.8555,-153.8411 102.8556,-160.8411"/>
</g>
<!-- Node265393 -->
<g id="node16" class="node">
<title>Node265393</title>
<g id="a_node16"><a xlink:href="quickjs_8h.html#a93abffa925714e249a6aa2f4ae7900f6" target="_top" xlink:title="JS_NewBool">
<polygon fill="none" stroke="#000000" points="120.5,-109.841 120.5,-128.841 194.5,-128.841 194.5,-109.841 120.5,-109.841"/>
<text text-anchor="middle" x="157.5" y="-116.841" font-family="Helvetica,sans-Serif" font-size="10.00" fill="#000000">JS_NewBool</text>
</a>
</g>
</g>
<!-- Node265013&#45;&gt;Node265393 -->
<g id="edge22" class="edge">
<title>Node265013&#45;&gt;Node265393</title>
<path fill="none" stroke="#191970" d="M68.5287,-147.752C83.4677,-142.9816 101.7227,-137.1523 117.8006,-132.0182"/>
<polygon fill="#191970" stroke="#191970" points="119.0195,-135.3031 127.4809,-128.927 116.8901,-128.6349 119.0195,-135.3031"/>
</g>
<!-- Node265140 -->
<g id="node17" class="node">
<title>Node265140</title>
<g id="a_node17"><a xlink:href="quickjs_8c.html#a859d5c989a2aaecef1653b3ac279e108" target="_top" xlink:title="JS_ValueToAtom">
<polygon fill="none" stroke="#ff0000" points="261,-14.841 261,-33.841 354,-33.841 354,-14.841 261,-14.841"/>
<text text-anchor="middle" x="307.5" y="-21.841" font-family="Helvetica,sans-Serif" font-size="10.00" fill="#000000">JS_ValueToAtom</text>
</a>
</g>
</g>
<!-- Node265013&#45;&gt;Node265140 -->
<g id="edge23" class="edge">
<title>Node265013&#45;&gt;Node265140</title>
<path fill="none" stroke="#191970" d="M48.9342,-147.8221C62.7646,-135.5799 88.3081,-114.2436 113,-100.341 162.905,-72.2425 225.2836,-49.8819 265.7375,-36.8774"/>
<polygon fill="#191970" stroke="#191970" points="266.8026,-40.2115 275.2776,-33.8536 264.6875,-33.5387 266.8026,-40.2115"/>
</g>
<!-- Node265015 -->
<g id="node3" class="node">
<title>Node265015</title>
<g id="a_node3"><a xlink:href="quickjs_8c.html#a7f6796ee7a195631366f57c713a33f65" target="_top" xlink:title="__JS_AtomIsConst">
<polygon fill="none" stroke="#000000" points="256.5,-299.841 256.5,-318.841 358.5,-318.841 358.5,-299.841 256.5,-299.841"/>
<text text-anchor="middle" x="307.5" y="-306.841" font-family="Helvetica,sans-Serif" font-size="10.00" fill="#000000">__JS_AtomIsConst</text>
</a>
</g>
</g>
<!-- Node265014&#45;&gt;Node265015 -->
<g id="edge2" class="edge">
<title>Node265014&#45;&gt;Node265015</title>
<path fill="none" stroke="#191970" d="M195.3513,-280.93C214.9671,-285.8994 239.1187,-292.0178 259.979,-297.3024"/>
<polygon fill="#191970" stroke="#191970" points="259.3675,-300.758 269.9209,-299.821 261.0866,-293.9723 259.3675,-300.758"/>
</g>
<!-- Node265016 -->
<g id="node4" class="node">
<title>Node265016</title>
<g id="a_node4"><a xlink:href="quickjs_8c.html#a0bbd9e3ecd55e3ea6c9d44bfda382095" target="_top" xlink:title="__JS_FreeAtom">
<polygon fill="none" stroke="#000000" points="865,-259.841 865,-278.841 952,-278.841 952,-259.841 865,-259.841"/>
<text text-anchor="middle" x="908.5" y="-266.841" font-family="Helvetica,sans-Serif" font-size="10.00" fill="#000000">__JS_FreeAtom</text>
</a>
</g>
</g>
<!-- Node265014&#45;&gt;Node265016 -->
<g id="edge3" class="edge">
<title>Node265014&#45;&gt;Node265016</title>
<path fill="none" stroke="#191970" d="M196.2323,-271.341C256.1876,-271.341 375.0864,-271.341 476,-271.341 476,-271.341 476,-271.341 640.5,-271.341 714.8102,-271.341 800.7072,-270.5626 854.8128,-269.9771"/>
<polygon fill="#191970" stroke="#191970" points="854.9053,-273.4764 864.8662,-269.8665 854.8283,-266.4768 854.9053,-273.4764"/>
</g>
<!-- Node265017 -->
<g id="node5" class="node">
<title>Node265017</title>
<g id="a_node5"><a xlink:href="quickjs_8c.html#a58c8965dad50b15b75918a09f3d9dc7c" target="_top" xlink:title="JS_FreeAtomStruct">
<polygon fill="none" stroke="#ff0000" points="1127,-226.841 1127,-245.841 1230,-245.841 1230,-226.841 1127,-226.841"/>
<text text-anchor="middle" x="1178.5" y="-233.841" font-family="Helvetica,sans-Serif" font-size="10.00" fill="#000000">JS_FreeAtomStruct</text>
</a>
</g>
</g>
<!-- Node265016&#45;&gt;Node265017 -->
<g id="edge4" class="edge">
<title>Node265016&#45;&gt;Node265017</title>
<path fill="none" stroke="#191970" d="M952.1802,-264.0023C996.7223,-258.5583 1066.2326,-250.0626 1116.4701,-243.9225"/>
<polygon fill="#191970" stroke="#191970" points="1117.0628,-247.3762 1126.5643,-242.6887 1116.2135,-240.4279 1117.0628,-247.3762"/>
</g>
<!-- Node265021 -->
<g id="node7" class="node">
<title>Node265021</title>
<g id="a_node7"><a xlink:href="quickjs_8c.html#aa059f309c30fd5166d16c82a97973146" target="_top" xlink:title="__JS_FreeValue">
<polygon fill="none" stroke="#000000" points="864,-188.841 864,-207.841 953,-207.841 953,-188.841 864,-188.841"/>
<text text-anchor="middle" x="908.5" y="-195.841" font-family="Helvetica,sans-Serif" font-size="10.00" fill="#000000">__JS_FreeValue</text>
</a>
</g>
</g>
<!-- Node265020&#45;&gt;Node265021 -->
<g id="edge6" class="edge">
<title>Node265020&#45;&gt;Node265021</title>
<path fill="none" stroke="#191970" d="M824.0762,-196.2903C833.412,-196.517 843.5507,-196.7633 853.4566,-197.004"/>
<polygon fill="#191970" stroke="#191970" points="853.5696,-200.5076 863.6517,-197.2516 853.7397,-193.5097 853.5696,-200.5076"/>
</g>
<!-- Node265022 -->
<g id="node8" class="node">
<title>Node265022</title>
<g id="a_node8"><a xlink:href="quickjs_8c.html#ab1ea3fad7d138be12144a38be4d36423" target="_top" xlink:title="__JS_FreeValueRT">
<polygon fill="none" stroke="#ff0000" points="989,-207.841 989,-226.841 1091,-226.841 1091,-207.841 989,-207.841"/>
<text text-anchor="middle" x="1040" y="-214.841" font-family="Helvetica,sans-Serif" font-size="10.00" fill="#000000">__JS_FreeValueRT</text>
</a>
</g>
</g>
<!-- Node265021&#45;&gt;Node265022 -->
<g id="edge7" class="edge">
<title>Node265021&#45;&gt;Node265022</title>
<path fill="none" stroke="#191970" d="M953.0199,-204.7736C961.2672,-205.9652 970.0138,-207.229 978.6583,-208.478"/>
<polygon fill="#191970" stroke="#191970" points="978.3255,-211.9662 988.7233,-209.9322 979.3266,-205.0381 978.3255,-211.9662"/>
</g>
<!-- Node265022&#45;&gt;Node265017 -->
<g id="edge8" class="edge">
<title>Node265022&#45;&gt;Node265017</title>
<path fill="none" stroke="#191970" d="M1091.1788,-224.362C1099.4866,-225.5016 1108.1674,-226.6925 1116.6959,-227.8625"/>
<polygon fill="#191970" stroke="#191970" points="1116.2231,-231.3303 1126.6061,-229.222 1117.1746,-224.3953 1116.2231,-231.3303"/>
</g>
<!-- Node265051&#45;&gt;Node265020 -->
<g id="edge18" class="edge">
<title>Node265051&#45;&gt;Node265020</title>
<path fill="none" stroke="#191970" d="M202.1252,-160.0434C316.0065,-166.9398 616.7776,-185.1539 735.6497,-192.3525"/>
<polygon fill="#191970" stroke="#191970" points="735.7122,-195.8626 745.9055,-192.9736 736.1354,-188.8754 735.7122,-195.8626"/>
</g>
<!-- Node265052 -->
<g id="node10" class="node">
<title>Node265052</title>
<g id="a_node10"><a xlink:href="quickjs_8c.html#add3eea1f6d626963ade3c28a1fd563d1" target="_top" xlink:title="JS_AtomIsNumericIndex">
<polygon fill="none" stroke="#000000" points="413,-109.841 413,-128.841 539,-128.841 539,-109.841 413,-109.841"/>
<text text-anchor="middle" x="476" y="-116.841" font-family="Helvetica,sans-Serif" font-size="10.00" fill="#000000">JS_AtomIsNumericIndex</text>
</a>
</g>
</g>
<!-- Node265051&#45;&gt;Node265052 -->
<g id="edge10" class="edge">
<title>Node265051&#45;&gt;Node265052</title>
<path fill="none" stroke="#191970" d="M202.2136,-154.8276C246.6758,-152.0095 316.7603,-146.706 377,-138.341 391.3676,-136.3459 406.8092,-133.6511 421.1232,-130.9188"/>
<polygon fill="#191970" stroke="#191970" points="422.1698,-134.2807 431.3154,-128.932 420.8304,-127.41 422.1698,-134.2807"/>
</g>
<!-- Node265066 -->
<g id="node14" class="node">
<title>Node265066</title>
<g id="a_node14"><a xlink:href="quickjs_8h.html#a775522f2d084fc8fa0fcb33f390006b4" target="_top" xlink:title="JS_DupValue">
<polygon fill="none" stroke="#000000" points="437.5,-71.841 437.5,-90.841 514.5,-90.841 514.5,-71.841 437.5,-71.841"/>
<text text-anchor="middle" x="476" y="-78.841" font-family="Helvetica,sans-Serif" font-size="10.00" fill="#000000">JS_DupValue</text>
</a>
</g>
</g>
<!-- Node265051&#45;&gt;Node265066 -->
<g id="edge17" class="edge">
<title>Node265051&#45;&gt;Node265066</title>
<path fill="none" stroke="#191970" d="M184.7905,-147.7792C190.7088,-145.1439 196.7597,-141.9878 202,-138.341 221.0956,-125.0522 217.0117,-110.3773 238,-100.341 298.2235,-71.5433 376.863,-71.4587 426.9151,-75.3579"/>
<polygon fill="#191970" stroke="#191970" points="426.8807,-78.8679 437.1449,-76.2416 427.4832,-71.8939 426.8807,-78.8679"/>
</g>
<!-- Node265332 -->
<g id="node15" class="node">
<title>Node265332</title>
<g id="a_node15"><a xlink:href="quickjs_8c.html#ad13892c0a0f11781b566808876658099" target="_top" xlink:title="JS_GetOwnPropertyInternal">
<polygon fill="none" stroke="#ff0000" points="238,-109.841 238,-128.841 377,-128.841 377,-109.841 238,-109.841"/>
<text text-anchor="middle" x="307.5" y="-116.841" font-family="Helvetica,sans-Serif" font-size="10.00" fill="#000000">JS_GetOwnPropertyInternal</text>
</a>
</g>
</g>
<!-- Node265051&#45;&gt;Node265332 -->
<g id="edge19" class="edge">
<title>Node265051&#45;&gt;Node265332</title>
<path fill="none" stroke="#191970" d="M195.3513,-147.752C214.9671,-142.7827 239.1187,-136.6643 259.979,-131.3797"/>
<polygon fill="#191970" stroke="#191970" points="261.0866,-134.7097 269.9209,-128.8611 259.3675,-127.9241 261.0866,-134.7097"/>
</g>
<!-- Node265052&#45;&gt;Node265020 -->
<g id="edge14" class="edge">
<title>Node265052&#45;&gt;Node265020</title>
<path fill="none" stroke="#191970" d="M514.8222,-128.8895C571.0193,-142.7115 674.9931,-168.2843 736.2719,-183.3561"/>
<polygon fill="#191970" stroke="#191970" points="735.547,-186.7821 746.0936,-185.7718 737.2189,-179.9847 735.547,-186.7821"/>
</g>
<!-- Node265053 -->
<g id="node11" class="node">
<title>Node265053</title>
<g id="a_node11"><a xlink:href="quickjs_8c.html#ab4e100a9cde5f7ec87c92f5e766dbbab" target="_top" xlink:title="JS_AtomIsNumericIndex1">
<polygon fill="none" stroke="#ff0000" points="575,-109.841 575,-128.841 706,-128.841 706,-109.841 575,-109.841"/>
<text text-anchor="middle" x="640.5" y="-116.841" font-family="Helvetica,sans-Serif" font-size="10.00" fill="#000000">JS_AtomIsNumericIndex1</text>
</a>
</g>
</g>
<!-- Node265052&#45;&gt;Node265053 -->
<g id="edge11" class="edge">
<title>Node265052&#45;&gt;Node265053</title>
<path fill="none" stroke="#191970" d="M539.1295,-119.341C547.5303,-119.341 556.2129,-119.341 564.7996,-119.341"/>
<polygon fill="#191970" stroke="#191970" points="564.8131,-122.8411 574.813,-119.341 564.813,-115.8411 564.8131,-122.8411"/>
</g>
<!-- Node265058 -->
<g id="node12" class="node">
<title>Node265058</title>
<g id="a_node12"><a xlink:href="quickjs_8h.html#ad80a83d73e9b7d872b88fbf2943aebe9" target="_top" xlink:title="JS_IsException">
<polygon fill="none" stroke="#000000" points="742,-71.841 742,-90.841 828,-90.841 828,-71.841 742,-71.841"/>
<text text-anchor="middle" x="785" y="-78.841" font-family="Helvetica,sans-Serif" font-size="10.00" fill="#000000">JS_IsException</text>
</a>
</g>
</g>
<!-- Node265052&#45;&gt;Node265058 -->
<g id="edge15" class="edge">
<title>Node265052&#45;&gt;Node265058</title>
<path fill="none" stroke="#191970" d="M520.6898,-109.7872C537.6375,-106.4218 557.15,-102.8551 575,-100.341 628.0789,-92.8653 689.1415,-87.7254 731.6894,-84.6951"/>
<polygon fill="#191970" stroke="#191970" points="732.0892,-88.1758 741.8214,-83.9884 731.6021,-81.1927 732.0892,-88.1758"/>
</g>
<!-- Node265232 -->
<g id="node13" class="node">
<title>Node265232</title>
<g id="a_node13"><a xlink:href="quickjs_8h.html#a4e407128a9605afb77523e49e9a627fd" target="_top" xlink:title="JS_IsUndefined">
<polygon fill="none" stroke="#000000" points="597.5,-33.841 597.5,-52.841 683.5,-52.841 683.5,-33.841 597.5,-33.841"/>
<text text-anchor="middle" x="640.5" y="-40.841" font-family="Helvetica,sans-Serif" font-size="10.00" fill="#000000">JS_IsUndefined</text>
</a>
</g>
</g>
<!-- Node265052&#45;&gt;Node265232 -->
<g id="edge16" class="edge">
<title>Node265052&#45;&gt;Node265232</title>
<path fill="none" stroke="#191970" d="M517.4354,-109.7551C524.8624,-107.2329 532.3478,-104.1271 539,-100.341 557.8638,-89.6047 556.4572,-78.6227 575,-67.341 581.8383,-63.1805 589.5116,-59.5686 597.1329,-56.4992"/>
<polygon fill="#191970" stroke="#191970" points="598.5659,-59.6996 606.6919,-52.9012 596.1,-53.1483 598.5659,-59.6996"/>
</g>
<!-- Node265053&#45;&gt;Node265020 -->
<g id="edge12" class="edge">
<title>Node265053&#45;&gt;Node265020</title>
<path fill="none" stroke="#191970" d="M671.1144,-128.9131C682.3287,-132.8441 694.9679,-137.7831 706,-143.341 726.7163,-153.7778 748.6265,-168.5315 764.1041,-179.6591"/>
<polygon fill="#191970" stroke="#191970" points="762.2767,-182.6586 772.416,-185.7319 766.4062,-177.0064 762.2767,-182.6586"/>
</g>
<!-- Node265053&#45;&gt;Node265058 -->
<g id="edge13" class="edge">
<title>Node265053&#45;&gt;Node265058</title>
<path fill="none" stroke="#191970" d="M676.9635,-109.752C695.7741,-104.8053 718.9146,-98.7199 738.9472,-93.4518"/>
<polygon fill="#191970" stroke="#191970" points="740.0177,-96.7894 748.7988,-90.8611 738.2374,-90.0195 740.0177,-96.7894"/>
</g>
<!-- Node265332&#45;&gt;Node265052 -->
<g id="edge20" class="edge">
<title>Node265332&#45;&gt;Node265052</title>
<path fill="none" stroke="#191970" d="M377.0082,-119.341C385.4512,-119.341 394.0979,-119.341 402.5951,-119.341"/>
<polygon fill="#191970" stroke="#191970" points="402.8618,-122.8411 412.8617,-119.341 402.8617,-115.8411 402.8618,-122.8411"/>
</g>
<!-- Node265332&#45;&gt;Node265066 -->
<g id="edge21" class="edge">
<title>Node265332&#45;&gt;Node265066</title>
<path fill="none" stroke="#191970" d="M350.0197,-109.752C373.5838,-104.4379 402.9747,-97.8096 427.4399,-92.2923"/>
<polygon fill="#191970" stroke="#191970" points="428.2586,-95.6956 437.2436,-90.0814 426.7185,-88.8671 428.2586,-95.6956"/>
</g>
<!-- Node265140&#45;&gt;Node265058 -->
<g id="edge24" class="edge">
<title>Node265140&#45;&gt;Node265058</title>
<path fill="none" stroke="#191970" d="M354.0428,-15.3122C429.9186,-2.5612 584.0443,15.0627 706,-24.341 730.4419,-32.2382 753.6877,-50.8269 768.5541,-64.6419"/>
<polygon fill="#191970" stroke="#191970" points="766.2765,-67.3078 775.9054,-71.7275 771.1343,-62.2677 766.2765,-67.3078"/>
</g>
</g>
</svg>
        <g id="navigator" transform="translate(0 0)" fill="#404254">
                <rect fill="#f2f5e9" fill-opacity="0.5" stroke="#606060" stroke-width=".5" x="0" y="0" width="60" height="60"/>
                <use id="zoomplus" xlink:href="#zoomPlus" x="17" y="9" onmousedown="handleZoom(evt,'in')"/>
                <use id="zoomminus" xlink:href="#zoomMin" x="42" y="9" onmousedown="handleZoom(evt,'out')"/>
                <use id="reset" xlink:href="#resetDef" x="30" y="36" onmousedown="handleReset()"/>
                <g id="arrowUp" xlink:href="#dirArrow" transform="translate(30 24)" onmousedown="handlePan(0,-1)">
                  <use xlink:href="#rim" fill="#404040">
                        <set attributeName="fill" to="#808080" begin="arrowUp.mouseover" end="arrowUp.mouseout"/>
                  </use>
                  <path fill="none" stroke="white" stroke-width="1.5" d="M0,-3.0v7 M-2.5,-0.5L0,-3.0L2.5,-0.5"/>
                </g>
                <g id="arrowRight" xlink:href="#dirArrow" transform="rotate(90) translate(36 -43)" onmousedown="handlePan(1,0)">
                  <use xlink:href="#rim" fill="#404040">
                        <set attributeName="fill" to="#808080" begin="arrowRight.mouseover" end="arrowRight.mouseout"/>
                  </use>
                  <path fill="none" stroke="white" stroke-width="1.5" d="M0,-3.0v7 M-2.5,-0.5L0,-3.0L2.5,-0.5"/>
                </g>
                <g id="arrowDown" xlink:href="#dirArrow" transform="rotate(180) translate(-30 -48)" onmousedown="handlePan(0,1)">
                  <use xlink:href="#rim" fill="#404040">
                        <set attributeName="fill" to="#808080" begin="arrowDown.mouseover" end="arrowDown.mouseout"/>
                  </use>
                  <path fill="none" stroke="white" stroke-width="1.5" d="M0,-3.0v7 M-2.5,-0.5L0,-3.0L2.5,-0.5"/>
                </g>
                <g id="arrowLeft" xlink:href="#dirArrow" transform="rotate(270) translate(-36 17)" onmousedown="handlePan(-1,0)">
                  <use xlink:href="#rim" fill="#404040">
                        <set attributeName="fill" to="#808080" begin="arrowLeft.mouseover" end="arrowLeft.mouseout"/>
                  </use>
                  <path fill="none" stroke="white" stroke-width="1.5" d="M0,-3.0v7 M-2.5,-0.5L0,-3.0L2.5,-0.5"/>
                </g>
        </g>
        <svg viewBox="0 0 15 15" width="100%" height="30px" preserveAspectRatio="xMaxYMin meet">
         <g id="arrow_out" transform="scale(0.3 0.3)">
          <a xlink:href="quickjs_8c_a3756e0f1dc63bd8e463e6d4febc6e503_cgraph_org.svg" target="_base">
           <rect id="button" ry="5" rx="5" y="6" x="6" height="38" width="38"
                fill="#f2f5e9" fill-opacity="0.5" stroke="#606060" stroke-width="1.0"/>
           <path id="arrow"
             d="M 11.500037,31.436501 C 11.940474,20.09759 22.043105,11.32322 32.158766,21.979434 L 37.068811,17.246167 C 37.068811,17.246167 37.088388,32 37.088388,32 L 22.160133,31.978069 C 22.160133,31.978069 26.997745,27.140456 26.997745,27.140456 C 18.528582,18.264221 13.291696,25.230495 11.500037,31.436501 z"
             style="fill:#404040;"/>
          </a>
         </g>
        </svg>
</svg>
