<?xml version="1.0" encoding="UTF-8" standalone="no"?>
<!DOCTYPE svg PUBLIC "-//W3C//DTD SVG 1.1//EN"
 "http://www.w3.org/Graphics/SVG/1.1/DTD/svg11.dtd">
<!-- Generated by graphviz version 2.40.1 (20161225.0304)
 -->
<!-- Title: js_new_string_char Pages: 1 -->
<svg width="520pt" height="104pt"
 viewBox="0.00 0.00 520.00 104.00" xmlns="http://www.w3.org/2000/svg" xmlns:xlink="http://www.w3.org/1999/xlink">
<g id="graph0" class="graph" transform="scale(1 1) rotate(0) translate(4 100)">
<title>js_new_string_char</title>
<!-- Node99022 -->
<g id="node1" class="node">
<title>Node99022</title>
<polygon fill="#bfbfbf" stroke="#000000" points="0,-19.5 0,-38.5 101,-38.5 101,-19.5 0,-19.5"/>
<text text-anchor="middle" x="50.5" y="-26.5" font-family="Helvetica,sans-Serif" font-size="10.00" fill="#000000">js_new_string_char</text>
</g>
<!-- Node99023 -->
<g id="node2" class="node">
<title>Node99023</title>
<g id="a_node2"><a xlink:href="quickjs_8c.html#a960b48be1175b0982ecc03505711fc56" target="_top" xlink:title="js_new_string16">
<polygon fill="none" stroke="#000000" points="137,-38.5 137,-57.5 224,-57.5 224,-38.5 137,-38.5"/>
<text text-anchor="middle" x="180.5" y="-45.5" font-family="Helvetica,sans-Serif" font-size="10.00" fill="#000000">js_new_string16</text>
</a>
</g>
</g>
<!-- Node99022&#45;&gt;Node99023 -->
<g id="edge1" class="edge">
<title>Node99022&#45;&gt;Node99023</title>
<path fill="none" stroke="#191970" d="M101.1336,-36.4003C109.6397,-37.6435 118.4914,-38.9372 127.0656,-40.1904"/>
<polygon fill="#191970" stroke="#191970" points="126.5651,-43.6543 136.9661,-41.6374 127.5775,-36.7279 126.5651,-43.6543"/>
</g>
<!-- Node99028 -->
<g id="node6" class="node">
<title>Node99028</title>
<g id="a_node6"><a xlink:href="quickjs_8c.html#aa923510185fe24e3083baf7405b09f51" target="_top" xlink:title="js_new_string8">
<polygon fill="none" stroke="#000000" points="139.5,-.5 139.5,-19.5 221.5,-19.5 221.5,-.5 139.5,-.5"/>
<text text-anchor="middle" x="180.5" y="-7.5" font-family="Helvetica,sans-Serif" font-size="10.00" fill="#000000">js_new_string8</text>
</a>
</g>
</g>
<!-- Node99022&#45;&gt;Node99028 -->
<g id="edge5" class="edge">
<title>Node99022&#45;&gt;Node99028</title>
<path fill="none" stroke="#191970" d="M101.1336,-21.5997C110.4529,-20.2376 120.1869,-18.815 129.5165,-17.4514"/>
<polygon fill="#191970" stroke="#191970" points="130.0538,-20.9102 139.4425,-16.0007 129.0414,-13.9838 130.0538,-20.9102"/>
</g>
<!-- Node99024 -->
<g id="node3" class="node">
<title>Node99024</title>
<g id="a_node3"><a xlink:href="quickjs_8c.html#ad303a9bc56766627b5fca41574933930" target="_top" xlink:title="js_alloc_string">
<polygon fill="none" stroke="#000000" points="267.5,-38.5 267.5,-57.5 346.5,-57.5 346.5,-38.5 267.5,-38.5"/>
<text text-anchor="middle" x="307" y="-45.5" font-family="Helvetica,sans-Serif" font-size="10.00" fill="#000000">js_alloc_string</text>
</a>
</g>
</g>
<!-- Node99023&#45;&gt;Node99024 -->
<g id="edge2" class="edge">
<title>Node99023&#45;&gt;Node99024</title>
<path fill="none" stroke="#191970" d="M224.0341,-48C234.6494,-48 246.088,-48 256.9788,-48"/>
<polygon fill="#191970" stroke="#191970" points="257.2079,-51.5001 267.2079,-48 257.2078,-44.5001 257.2079,-51.5001"/>
</g>
<!-- Node99025 -->
<g id="node4" class="node">
<title>Node99025</title>
<g id="a_node4"><a xlink:href="quickjs_8c.html#a5837dfc67b8f09e0579a28c827b39d93" target="_top" xlink:title="js_alloc_string_rt">
<polygon fill="none" stroke="#000000" points="406,-76.5 406,-95.5 496,-95.5 496,-76.5 406,-76.5"/>
<text text-anchor="middle" x="451" y="-83.5" font-family="Helvetica,sans-Serif" font-size="10.00" fill="#000000">js_alloc_string_rt</text>
</a>
</g>
</g>
<!-- Node99024&#45;&gt;Node99025 -->
<g id="edge3" class="edge">
<title>Node99024&#45;&gt;Node99025</title>
<path fill="none" stroke="#191970" d="M343.3373,-57.589C362.0829,-62.5358 385.1432,-68.6211 405.1066,-73.8892"/>
<polygon fill="#191970" stroke="#191970" points="404.3619,-77.3125 414.924,-76.4799 406.1481,-70.5442 404.3619,-77.3125"/>
</g>
<!-- Node99026 -->
<g id="node5" class="node">
<title>Node99026</title>
<g id="a_node5"><a xlink:href="quickjs_8c.html#a344d6c0e45d9bf3861fd9269724045a2" target="_top" xlink:title="JS_ThrowOutOfMemory">
<polygon fill="none" stroke="#ff0000" points="390,-38.5 390,-57.5 512,-57.5 512,-38.5 390,-38.5"/>
<text text-anchor="middle" x="451" y="-45.5" font-family="Helvetica,sans-Serif" font-size="10.00" fill="#000000">JS_ThrowOutOfMemory</text>
</a>
</g>
</g>
<!-- Node99024&#45;&gt;Node99026 -->
<g id="edge4" class="edge">
<title>Node99024&#45;&gt;Node99026</title>
<path fill="none" stroke="#191970" d="M346.7298,-48C356.9277,-48 368.2147,-48 379.4857,-48"/>
<polygon fill="#191970" stroke="#191970" points="379.8006,-51.5001 389.8005,-48 379.8005,-44.5001 379.8006,-51.5001"/>
</g>
<!-- Node99028&#45;&gt;Node99024 -->
<g id="edge6" class="edge">
<title>Node99028&#45;&gt;Node99024</title>
<path fill="none" stroke="#191970" d="M212.4213,-19.589C228.4516,-24.4044 248.0738,-30.2988 265.2816,-35.468"/>
<polygon fill="#191970" stroke="#191970" points="264.5047,-38.8891 275.0889,-38.4141 266.5187,-32.185 264.5047,-38.8891"/>
</g>
<!-- Node99029 -->
<g id="node7" class="node">
<title>Node99029</title>
<g id="a_node7"><a xlink:href="quickjs_8c.html#a260bfa297ff6cb5bd18e229afaa54663" target="_top" xlink:title="JS_AtomToString">
<polygon fill="none" stroke="#000000" points="260,-.5 260,-19.5 354,-19.5 354,-.5 260,-.5"/>
<text text-anchor="middle" x="307" y="-7.5" font-family="Helvetica,sans-Serif" font-size="10.00" fill="#000000">JS_AtomToString</text>
</a>
</g>
</g>
<!-- Node99028&#45;&gt;Node99029 -->
<g id="edge7" class="edge">
<title>Node99028&#45;&gt;Node99029</title>
<path fill="none" stroke="#191970" d="M221.5709,-10C230.5775,-10 240.2711,-10 249.7812,-10"/>
<polygon fill="#191970" stroke="#191970" points="249.9874,-13.5001 259.9874,-10 249.9873,-6.5001 249.9874,-13.5001"/>
</g>
<!-- Node99030 -->
<g id="node8" class="node">
<title>Node99030</title>
<g id="a_node8"><a xlink:href="quickjs_8c.html#a06ff303a11e6641cbf1f6634e6a61811" target="_top" xlink:title="__JS_AtomToValue">
<polygon fill="none" stroke="#ff0000" points="399,-.5 399,-19.5 503,-19.5 503,-.5 399,-.5"/>
<text text-anchor="middle" x="451" y="-7.5" font-family="Helvetica,sans-Serif" font-size="10.00" fill="#000000">__JS_AtomToValue</text>
</a>
</g>
</g>
<!-- Node99029&#45;&gt;Node99030 -->
<g id="edge8" class="edge">
<title>Node99029&#45;&gt;Node99030</title>
<path fill="none" stroke="#191970" d="M354.151,-10C365.1897,-10 377.1166,-10 388.7021,-10"/>
<polygon fill="#191970" stroke="#191970" points="388.7646,-13.5001 398.7645,-10 388.7645,-6.5001 388.7646,-13.5001"/>
</g>
</g>
</svg>
