<?xml version="1.0" encoding="UTF-8" standalone="no"?>
<!DOCTYPE svg PUBLIC "-//W3C//DTD SVG 1.1//EN"
 "http://www.w3.org/Graphics/SVG/1.1/DTD/svg11.dtd">
<!-- Generated by graphviz version 2.40.1 (20161225.0304)
 -->
<!-- Title: js_object_constructor Pages: 1 -->
<svg width="527pt" height="28pt"
 viewBox="0.00 0.00 527.00 28.00" xmlns="http://www.w3.org/2000/svg" xmlns:xlink="http://www.w3.org/1999/xlink">
<g id="graph0" class="graph" transform="scale(1 1) rotate(0) translate(4 24)">
<title>js_object_constructor</title>
<!-- Node371096 -->
<g id="node1" class="node">
<title>Node371096</title>
<polygon fill="#bfbfbf" stroke="#000000" points="0,-.5 0,-19.5 110,-19.5 110,-.5 0,-.5"/>
<text text-anchor="middle" x="55" y="-7.5" font-family="Helvetica,sans-Serif" font-size="10.00" fill="#000000">js_object_constructor</text>
</g>
<!-- Node371097 -->
<g id="node2" class="node">
<title>Node371097</title>
<g id="a_node2"><a xlink:href="quickjs_8c.html#a4c9489297c684663f30e517204a9ec14" target="_top" xlink:title="JS_AddIntrinsicBaseObjects">
<polygon fill="none" stroke="#000000" points="146,-.5 146,-19.5 288,-19.5 288,-.5 146,-.5"/>
<text text-anchor="middle" x="217" y="-7.5" font-family="Helvetica,sans-Serif" font-size="10.00" fill="#000000">JS_AddIntrinsicBaseObjects</text>
</a>
</g>
</g>
<!-- Node371096&#45;&gt;Node371097 -->
<g id="edge1" class="edge">
<title>Node371096&#45;&gt;Node371097</title>
<path fill="none" stroke="#191970" d="M120.4003,-10C128.7977,-10 137.4277,-10 145.9104,-10"/>
<polygon fill="#191970" stroke="#191970" points="120.2981,-6.5001 110.2981,-10 120.2981,-13.5001 120.2981,-6.5001"/>
</g>
<!-- Node371098 -->
<g id="node3" class="node">
<title>Node371098</title>
<g id="a_node3"><a xlink:href="quickjs_8c.html#ad8aedb643b8753b7a15f6cb2df61945e" target="_top" xlink:title="JS_NewContext">
<polygon fill="none" stroke="#000000" points="324,-.5 324,-19.5 413,-19.5 413,-.5 324,-.5"/>
<text text-anchor="middle" x="368.5" y="-7.5" font-family="Helvetica,sans-Serif" font-size="10.00" fill="#000000">JS_NewContext</text>
</a>
</g>
</g>
<!-- Node371097&#45;&gt;Node371098 -->
<g id="edge2" class="edge">
<title>Node371097&#45;&gt;Node371098</title>
<path fill="none" stroke="#191970" d="M298.5534,-10C307.2595,-10 315.8628,-10 323.8995,-10"/>
<polygon fill="#191970" stroke="#191970" points="298.3138,-6.5001 288.3138,-10 298.3137,-13.5001 298.3138,-6.5001"/>
</g>
<!-- Node371099 -->
<g id="node4" class="node">
<title>Node371099</title>
<g id="a_node4"><a xlink:href="quickjs-libc_8c.html#a1fbb3adc15e7b967479fc1940e99b67a" target="_top" xlink:title="worker_func">
<polygon fill="none" stroke="#ff0000" points="449,-.5 449,-19.5 519,-19.5 519,-.5 449,-.5"/>
<text text-anchor="middle" x="484" y="-7.5" font-family="Helvetica,sans-Serif" font-size="10.00" fill="#000000">worker_func</text>
</a>
</g>
</g>
<!-- Node371098&#45;&gt;Node371099 -->
<g id="edge3" class="edge">
<title>Node371098&#45;&gt;Node371099</title>
<path fill="none" stroke="#191970" d="M423.2535,-10C431.9312,-10 440.6994,-10 448.7714,-10"/>
<polygon fill="#191970" stroke="#191970" points="423.1554,-6.5001 413.1553,-10 423.1553,-13.5001 423.1554,-6.5001"/>
</g>
</g>
</svg>
