<?xml version="1.0" encoding="UTF-8" standalone="no"?>
<!DOCTYPE svg PUBLIC "-//W3C//DTD SVG 1.1//EN"
 "http://www.w3.org/Graphics/SVG/1.1/DTD/svg11.dtd">
<!-- Generated by graphviz version 2.40.1 (20161225.0304)
 -->
<!-- Title: js_object_defineProperties Pages: 1 -->
<svg width="847pt" height="416pt"
 viewBox="0.00 0.00 847.00 415.97" xmlns="http://www.w3.org/2000/svg" xmlns:xlink="http://www.w3.org/1999/xlink">
<g id="graph0" class="graph" transform="scale(1 1) rotate(0) translate(4 411.9653)">
<title>js_object_defineProperties</title>
<!-- Node372841 -->
<g id="node1" class="node">
<title>Node372841</title>
<polygon fill="#bfbfbf" stroke="#000000" points="0,-301.3349 0,-320.3349 131,-320.3349 131,-301.3349 0,-301.3349"/>
<text text-anchor="middle" x="65.5" y="-308.3349" font-family="Helvetica,sans-Serif" font-size="10.00" fill="#000000">js_object_defineProperties</text>
</g>
<!-- Node372842 -->
<g id="node2" class="node">
<title>Node372842</title>
<g id="a_node2"><a xlink:href="quickjs_8h.html#a775522f2d084fc8fa0fcb33f390006b4" target="_top" xlink:title="JS_DupValue">
<polygon fill="none" stroke="#000000" points="720.5,-377.3349 720.5,-396.3349 797.5,-396.3349 797.5,-377.3349 720.5,-377.3349"/>
<text text-anchor="middle" x="759" y="-384.3349" font-family="Helvetica,sans-Serif" font-size="10.00" fill="#000000">JS_DupValue</text>
</a>
</g>
</g>
<!-- Node372841&#45;&gt;Node372842 -->
<g id="edge1" class="edge">
<title>Node372841&#45;&gt;Node372842</title>
<path fill="none" stroke="#191970" d="M90.2028,-320.3653C137.4816,-338.1312 244.3932,-376.0274 338,-392.8349 428.2937,-409.0474 452.3079,-402.9445 544,-405.8349 587.9782,-407.2211 599.1449,-409.4027 643,-405.8349 665.1853,-404.03 689.5235,-400.314 710.1526,-396.6431"/>
<polygon fill="#191970" stroke="#191970" points="711.0546,-400.0363 720.2626,-394.7958 709.7963,-393.1503 711.0546,-400.0363"/>
</g>
<!-- Node372843 -->
<g id="node3" class="node">
<title>Node372843</title>
<g id="a_node3"><a xlink:href="quickjs_8c.html#ab2de4cc7a9e58c7a6220acf9e4769d62" target="_top" xlink:title="JS_ObjectDefineProperties">
<polygon fill="none" stroke="#000000" points="167,-206.3349 167,-225.3349 302,-225.3349 302,-206.3349 167,-206.3349"/>
<text text-anchor="middle" x="234.5" y="-213.3349" font-family="Helvetica,sans-Serif" font-size="10.00" fill="#000000">JS_ObjectDefineProperties</text>
</a>
</g>
</g>
<!-- Node372841&#45;&gt;Node372843 -->
<g id="edge2" class="edge">
<title>Node372841&#45;&gt;Node372843</title>
<path fill="none" stroke="#191970" d="M82.6347,-301.2029C112.3191,-284.5164 173.4778,-250.1373 208.4497,-230.4785"/>
<polygon fill="#191970" stroke="#191970" points="210.5692,-233.3022 217.5713,-225.351 207.139,-227.2002 210.5692,-233.3022"/>
</g>
<!-- Node372844 -->
<g id="node4" class="node">
<title>Node372844</title>
<g id="a_node4"><a xlink:href="quickjs_8c.html#af40540b5f7e973f44e4e89d87938bfc6" target="_top" xlink:title="JS_DefinePropertyDesc">
<polygon fill="none" stroke="#000000" points="362,-225.3349 362,-244.3349 484,-244.3349 484,-225.3349 362,-225.3349"/>
<text text-anchor="middle" x="423" y="-232.3349" font-family="Helvetica,sans-Serif" font-size="10.00" fill="#000000">JS_DefinePropertyDesc</text>
</a>
</g>
</g>
<!-- Node372843&#45;&gt;Node372844 -->
<g id="edge3" class="edge">
<title>Node372843&#45;&gt;Node372844</title>
<path fill="none" stroke="#191970" d="M302.0204,-222.6406C318.2049,-224.272 335.5358,-226.0188 351.8779,-227.666"/>
<polygon fill="#191970" stroke="#191970" points="351.6056,-231.1563 361.9063,-228.6769 352.3077,-224.1915 351.6056,-231.1563"/>
</g>
<!-- Node372871 -->
<g id="node6" class="node">
<title>Node372871</title>
<g id="a_node6"><a xlink:href="quickjs_8h.html#afaa20c47565bc704c6c85f3d77254e7d" target="_top" xlink:title="JS_FreeValue">
<polygon fill="none" stroke="#ff0000" points="720,-216.3349 720,-235.3349 798,-235.3349 798,-216.3349 720,-216.3349"/>
<text text-anchor="middle" x="759" y="-223.3349" font-family="Helvetica,sans-Serif" font-size="10.00" fill="#000000">JS_FreeValue</text>
</a>
</g>
</g>
<!-- Node372843&#45;&gt;Node372871 -->
<g id="edge18" class="edge">
<title>Node372843&#45;&gt;Node372871</title>
<path fill="none" stroke="#191970" d="M302.1218,-214.0575C383.1712,-212.3381 523.0786,-210.6754 643,-215.8349 664.9407,-216.7788 689.1511,-218.7227 709.753,-220.6477"/>
<polygon fill="#191970" stroke="#191970" points="709.5692,-224.146 719.8577,-221.6168 710.2376,-217.178 709.5692,-224.146"/>
</g>
<!-- Node372907 -->
<g id="node7" class="node">
<title>Node372907</title>
<g id="a_node7"><a xlink:href="quickjs_8h.html#ad80a83d73e9b7d872b88fbf2943aebe9" target="_top" xlink:title="JS_IsException">
<polygon fill="none" stroke="#000000" points="716,-320.3349 716,-339.3349 802,-339.3349 802,-320.3349 716,-320.3349"/>
<text text-anchor="middle" x="759" y="-327.3349" font-family="Helvetica,sans-Serif" font-size="10.00" fill="#000000">JS_IsException</text>
</a>
</g>
</g>
<!-- Node372843&#45;&gt;Node372907 -->
<g id="edge23" class="edge">
<title>Node372843&#45;&gt;Node372907</title>
<path fill="none" stroke="#191970" d="M244.6662,-225.4704C262.1516,-241.387 299.744,-272.8042 338,-286.8349 463.8477,-332.9902 624.1494,-335.1977 705.8753,-332.6561"/>
<polygon fill="#191970" stroke="#191970" points="706.0491,-336.1522 715.9215,-332.307 705.806,-329.1565 706.0491,-336.1522"/>
</g>
<!-- Node373040 -->
<g id="node8" class="node">
<title>Node373040</title>
<g id="a_node8"><a xlink:href="quickjs_8c.html#a726b00d108e0a0f4d958c36c2e426a64" target="_top" xlink:title="JS_ThrowTypeErrorNotAnObject">
<polygon fill="none" stroke="#000000" points="679,-263.3349 679,-282.3349 839,-282.3349 839,-263.3349 679,-263.3349"/>
<text text-anchor="middle" x="759" y="-270.3349" font-family="Helvetica,sans-Serif" font-size="10.00" fill="#000000">JS_ThrowTypeErrorNotAnObject</text>
</a>
</g>
</g>
<!-- Node372843&#45;&gt;Node373040 -->
<g id="edge25" class="edge">
<title>Node372843&#45;&gt;Node373040</title>
<path fill="none" stroke="#191970" d="M257.1581,-225.4194C277.8886,-233.8826 309.5676,-246.0533 338,-253.8349 469.7581,-289.895 506.8462,-302.9116 643,-291.8349 662.2213,-290.2711 683.0586,-287.2728 701.6997,-284.1122"/>
<polygon fill="#191970" stroke="#191970" points="702.5567,-287.5156 711.8057,-282.3476 701.3526,-280.6199 702.5567,-287.5156"/>
</g>
<!-- Node372962 -->
<g id="node11" class="node">
<title>Node372962</title>
<g id="a_node11"><a xlink:href="quickjs_8h.html#a89b7c8686c7eee70b86be722ee4730ad" target="_top" xlink:title="JS_GetProperty">
<polygon fill="none" stroke="#ff0000" points="716,-159.3349 716,-178.3349 802,-178.3349 802,-159.3349 716,-159.3349"/>
<text text-anchor="middle" x="759" y="-166.3349" font-family="Helvetica,sans-Serif" font-size="10.00" fill="#000000">JS_GetProperty</text>
</a>
</g>
</g>
<!-- Node372843&#45;&gt;Node372962 -->
<g id="edge22" class="edge">
<title>Node372843&#45;&gt;Node372962</title>
<path fill="none" stroke="#191970" d="M258.2832,-206.192C320.8744,-181.9541 495.511,-121.6781 643,-139.8349 668.9069,-143.0241 697.3498,-150.0769 719.5872,-156.4283"/>
<polygon fill="#191970" stroke="#191970" points="718.7558,-159.8318 729.3363,-159.2808 720.7216,-153.1134 718.7558,-159.8318"/>
</g>
<!-- Node373087 -->
<g id="node12" class="node">
<title>Node373087</title>
<g id="a_node12"><a xlink:href="quickjs_8h.html#a3d68fe446df2d9c7d1900b16371bff5b" target="_top" xlink:title="JS_IsObject">
<polygon fill="none" stroke="#000000" points="723.5,-83.3349 723.5,-102.3349 794.5,-102.3349 794.5,-83.3349 723.5,-83.3349"/>
<text text-anchor="middle" x="759" y="-90.3349" font-family="Helvetica,sans-Serif" font-size="10.00" fill="#000000">JS_IsObject</text>
</a>
</g>
</g>
<!-- Node372843&#45;&gt;Node373087 -->
<g id="edge24" class="edge">
<title>Node372843&#45;&gt;Node373087</title>
<path fill="none" stroke="#191970" d="M243.3683,-206.2243C260.0092,-188.9032 297.8732,-152.771 338,-136.8349 466.6048,-85.7602 633.7874,-86.0153 713.2215,-89.7225"/>
<polygon fill="#191970" stroke="#191970" points="713.214,-93.2266 723.3787,-90.2384 713.5692,-86.2356 713.214,-93.2266"/>
</g>
<!-- Node373147 -->
<g id="node13" class="node">
<title>Node373147</title>
<g id="a_node13"><a xlink:href="quickjs_8c.html#a6b42cd922447e1eb6bfc52761895a174" target="_top" xlink:title="js_free_prop_enum">
<polygon fill="none" stroke="#ff0000" points="544,-16.3349 544,-35.3349 643,-35.3349 643,-16.3349 544,-16.3349"/>
<text text-anchor="middle" x="593.5" y="-23.3349" font-family="Helvetica,sans-Serif" font-size="10.00" fill="#000000">js_free_prop_enum</text>
</a>
</g>
</g>
<!-- Node372843&#45;&gt;Node373147 -->
<g id="edge17" class="edge">
<title>Node372843&#45;&gt;Node373147</title>
<path fill="none" stroke="#191970" d="M236.271,-205.9491C242.757,-173.06 268.5661,-67.0791 338,-25.8349 404.4605,13.6432 498.8361,-.6271 552.3232,-13.763"/>
<polygon fill="#191970" stroke="#191970" points="551.5813,-17.1858 562.1368,-16.2739 553.3165,-10.4043 551.5813,-17.1858"/>
</g>
<!-- Node373148 -->
<g id="node14" class="node">
<title>Node373148</title>
<g id="a_node14"><a xlink:href="quickjs_8c.html#a176ac5ff56a118a0b1b2566798d28823" target="_top" xlink:title="JS_GetOwnPropertyNamesInternal">
<polygon fill="none" stroke="#ff0000" points="338,-35.3349 338,-54.3349 508,-54.3349 508,-35.3349 338,-35.3349"/>
<text text-anchor="middle" x="423" y="-42.3349" font-family="Helvetica,sans-Serif" font-size="10.00" fill="#000000">JS_GetOwnPropertyNamesInternal</text>
</a>
</g>
</g>
<!-- Node372843&#45;&gt;Node373148 -->
<g id="edge19" class="edge">
<title>Node372843&#45;&gt;Node373148</title>
<path fill="none" stroke="#191970" d="M238.464,-206.2265C249.8069,-179.9492 285.0216,-106.3585 338,-68.8349 344.108,-64.5087 350.977,-60.9597 358.0948,-58.0489"/>
<polygon fill="#191970" stroke="#191970" points="359.7164,-61.1827 367.9069,-54.462 357.3131,-54.6082 359.7164,-61.1827"/>
</g>
<!-- Node373074 -->
<g id="node15" class="node">
<title>Node373074</title>
<g id="a_node15"><a xlink:href="quickjs_8c.html#a710289a14c2810467e5b448d3c28bd55" target="_top" xlink:title="JS_ToObject">
<polygon fill="none" stroke="#ff0000" points="556.5,-377.3349 556.5,-396.3349 630.5,-396.3349 630.5,-377.3349 556.5,-377.3349"/>
<text text-anchor="middle" x="593.5" y="-384.3349" font-family="Helvetica,sans-Serif" font-size="10.00" fill="#000000">JS_ToObject</text>
</a>
</g>
</g>
<!-- Node372843&#45;&gt;Node373074 -->
<g id="edge26" class="edge">
<title>Node372843&#45;&gt;Node373074</title>
<path fill="none" stroke="#191970" d="M237.9786,-225.5711C248.2943,-252.8408 281.5685,-330.1111 338,-362.8349 402.6313,-400.3135 492.2214,-398.9896 546.3394,-393.6166"/>
<polygon fill="#191970" stroke="#191970" points="546.7781,-397.0897 556.3447,-392.5366 546.0268,-390.1301 546.7781,-397.0897"/>
</g>
<!-- Node372845 -->
<g id="node5" class="node">
<title>Node372845</title>
<g id="a_node5"><a xlink:href="quickjs_8c.html#ab50618f1bf78e444caa6da0e3e2785d7" target="_top" xlink:title="JS_DefineProperty">
<polygon fill="none" stroke="#ff0000" points="544,-263.3349 544,-282.3349 643,-282.3349 643,-263.3349 544,-263.3349"/>
<text text-anchor="middle" x="593.5" y="-270.3349" font-family="Helvetica,sans-Serif" font-size="10.00" fill="#000000">JS_DefineProperty</text>
</a>
</g>
</g>
<!-- Node372844&#45;&gt;Node372845 -->
<g id="edge4" class="edge">
<title>Node372844&#45;&gt;Node372845</title>
<path fill="none" stroke="#191970" d="M466.0243,-244.4239C488.7264,-249.4835 516.7732,-255.7345 540.774,-261.0836"/>
<polygon fill="#191970" stroke="#191970" points="540.2631,-264.5555 550.785,-263.3148 541.7859,-257.7232 540.2631,-264.5555"/>
</g>
<!-- Node373150 -->
<g id="node9" class="node">
<title>Node373150</title>
<g id="a_node9"><a xlink:href="quickjs_8c.html#adfe21c674d998ca6586b7f7400352dc4" target="_top" xlink:title="js_free_desc">
<polygon fill="none" stroke="#000000" points="557.5,-149.3349 557.5,-168.3349 629.5,-168.3349 629.5,-149.3349 557.5,-149.3349"/>
<text text-anchor="middle" x="593.5" y="-156.3349" font-family="Helvetica,sans-Serif" font-size="10.00" fill="#000000">js_free_desc</text>
</a>
</g>
</g>
<!-- Node372844&#45;&gt;Node373150 -->
<g id="edge9" class="edge">
<title>Node372844&#45;&gt;Node373150</title>
<path fill="none" stroke="#191970" d="M444.5939,-225.2094C474.4438,-211.9039 528.4847,-187.8153 562.6026,-172.6073"/>
<polygon fill="#191970" stroke="#191970" points="564.3727,-175.6503 572.0814,-168.3822 561.5227,-169.2567 564.3727,-175.6503"/>
</g>
<!-- Node373275 -->
<g id="node10" class="node">
<title>Node373275</title>
<g id="a_node10"><a xlink:href="quickjs_8c.html#a26ceb6b90296d2572803b252df73cded" target="_top" xlink:title="js_obj_to_desc">
<polygon fill="none" stroke="#ff0000" points="552.5,-225.3349 552.5,-244.3349 634.5,-244.3349 634.5,-225.3349 552.5,-225.3349"/>
<text text-anchor="middle" x="593.5" y="-232.3349" font-family="Helvetica,sans-Serif" font-size="10.00" fill="#000000">js_obj_to_desc</text>
</a>
</g>
</g>
<!-- Node372844&#45;&gt;Node373275 -->
<g id="edge11" class="edge">
<title>Node372844&#45;&gt;Node373275</title>
<path fill="none" stroke="#191970" d="M484.0728,-234.8349C503.092,-234.8349 523.8614,-234.8349 542.1458,-234.8349"/>
<polygon fill="#191970" stroke="#191970" points="542.3057,-238.335 552.3057,-234.8349 542.3057,-231.335 542.3057,-238.335"/>
</g>
<!-- Node372845&#45;&gt;Node372842 -->
<g id="edge5" class="edge">
<title>Node372845&#45;&gt;Node372842</title>
<path fill="none" stroke="#191970" d="M602.7557,-282.6995C617.6938,-298.2217 648.5347,-328.6545 679,-348.8349 693.301,-358.3079 710.3307,-366.7411 724.9947,-373.2418"/>
<polygon fill="#191970" stroke="#191970" points="723.6684,-376.4813 734.237,-377.2261 726.4395,-370.0532 723.6684,-376.4813"/>
</g>
<!-- Node372845&#45;&gt;Node372871 -->
<g id="edge6" class="edge">
<title>Node372845&#45;&gt;Node372871</title>
<path fill="none" stroke="#191970" d="M626.9914,-263.3237C652.4802,-256.0852 687.7726,-246.0626 715.4533,-238.2016"/>
<polygon fill="#191970" stroke="#191970" points="716.6114,-241.5112 725.2748,-235.4124 714.699,-234.7775 716.6114,-241.5112"/>
</g>
<!-- Node372845&#45;&gt;Node372907 -->
<g id="edge7" class="edge">
<title>Node372845&#45;&gt;Node372907</title>
<path fill="none" stroke="#191970" d="M621.201,-282.3754C648.6486,-291.8286 690.8843,-306.3751 721.3619,-316.8719"/>
<polygon fill="#191970" stroke="#191970" points="720.6139,-320.316 731.2086,-320.2632 722.8935,-313.6975 720.6139,-320.316"/>
</g>
<!-- Node372845&#45;&gt;Node373040 -->
<g id="edge8" class="edge">
<title>Node372845&#45;&gt;Node373040</title>
<path fill="none" stroke="#191970" d="M643.1555,-272.8349C651.2307,-272.8349 659.8094,-272.8349 668.5031,-272.8349"/>
<polygon fill="#191970" stroke="#191970" points="668.7384,-276.335 678.7384,-272.8349 668.7383,-269.335 668.7384,-276.335"/>
</g>
<!-- Node373150&#45;&gt;Node372871 -->
<g id="edge10" class="edge">
<title>Node373150&#45;&gt;Node372871</title>
<path fill="none" stroke="#191970" d="M617.2121,-168.4343C645.7241,-179.9769 693.7478,-199.4185 725.9017,-212.4355"/>
<polygon fill="#191970" stroke="#191970" points="724.7492,-215.7449 735.3319,-216.2532 727.376,-209.2564 724.7492,-215.7449"/>
</g>
<!-- Node373275&#45;&gt;Node372871 -->
<g id="edge12" class="edge">
<title>Node373275&#45;&gt;Node372871</title>
<path fill="none" stroke="#191970" d="M634.8357,-232.587C657.5206,-231.3534 685.8002,-229.8155 709.6382,-228.5192"/>
<polygon fill="#191970" stroke="#191970" points="710.1016,-231.9992 719.8967,-227.9613 709.7214,-225.0096 710.1016,-231.9992"/>
</g>
<!-- Node373275&#45;&gt;Node372907 -->
<g id="edge14" class="edge">
<title>Node373275&#45;&gt;Node372907</title>
<path fill="none" stroke="#191970" d="M624.6575,-244.3544C630.9891,-246.9492 637.4143,-250.0993 643,-253.8349 662.3384,-266.7678 660.1734,-278.1676 679,-291.8349 692.4462,-301.5962 708.7954,-309.8877 723.2008,-316.2108"/>
<polygon fill="#191970" stroke="#191970" points="722.2299,-319.6002 732.8037,-320.2678 724.9542,-313.152 722.2299,-319.6002"/>
</g>
<!-- Node373275&#45;&gt;Node373040 -->
<g id="edge16" class="edge">
<title>Node373275&#45;&gt;Node373040</title>
<path fill="none" stroke="#191970" d="M634.8357,-244.3258C656.9521,-249.4039 684.3863,-255.703 707.8379,-261.0877"/>
<polygon fill="#191970" stroke="#191970" points="707.088,-264.5065 717.6176,-263.3332 708.6545,-257.684 707.088,-264.5065"/>
</g>
<!-- Node373275&#45;&gt;Node372962 -->
<g id="edge13" class="edge">
<title>Node373275&#45;&gt;Node372962</title>
<path fill="none" stroke="#191970" d="M617.5651,-225.2379C646.0824,-213.8654 693.7571,-194.8532 725.7779,-182.0835"/>
<polygon fill="#191970" stroke="#191970" points="727.1822,-185.2916 735.1743,-178.3363 724.5892,-178.7896 727.1822,-185.2916"/>
</g>
<!-- Node373275&#45;&gt;Node373087 -->
<g id="edge15" class="edge">
<title>Node373275&#45;&gt;Node373087</title>
<path fill="none" stroke="#191970" d="M602.2655,-225.139C617.2512,-208.7945 649.0827,-175.073 679,-149.8349 697.1471,-134.526 719.2161,-119.0103 735.5744,-108.0403"/>
<polygon fill="#191970" stroke="#191970" points="737.6141,-110.8874 744.0137,-102.4437 733.7453,-105.0537 737.6141,-110.8874"/>
</g>
<!-- Node373148&#45;&gt;Node373150 -->
<g id="edge20" class="edge">
<title>Node373148&#45;&gt;Node373150</title>
<path fill="none" stroke="#191970" d="M437.2435,-54.3583C466.7564,-74.0913 534.8098,-119.5933 570.5801,-143.5101"/>
<polygon fill="#191970" stroke="#191970" points="568.6772,-146.4481 578.9356,-149.0968 572.568,-140.629 568.6772,-146.4481"/>
</g>
<!-- Node373148&#45;&gt;Node373147 -->
<g id="edge21" class="edge">
<title>Node373148&#45;&gt;Node373147</title>
<path fill="none" stroke="#191970" d="M508.25,-35.3349C516.7963,-34.3825 525.3427,-33.4301 533.5454,-32.516"/>
<polygon fill="#191970" stroke="#191970" points="534.1752,-35.9676 543.726,-31.3815 533.3999,-29.0106 534.1752,-35.9676"/>
</g>
<!-- Node373074&#45;&gt;Node372842 -->
<g id="edge27" class="edge">
<title>Node373074&#45;&gt;Node372842</title>
<path fill="none" stroke="#191970" d="M630.6414,-386.8349C654.0948,-386.8349 684.6565,-386.8349 710.075,-386.8349"/>
<polygon fill="#191970" stroke="#191970" points="710.2564,-390.335 720.2564,-386.8349 710.2563,-383.335 710.2564,-390.335"/>
</g>
<!-- Node373074&#45;&gt;Node372907 -->
<g id="edge28" class="edge">
<title>Node373074&#45;&gt;Node372907</title>
<path fill="none" stroke="#191970" d="M621.201,-377.2943C648.6486,-367.8411 690.8843,-353.2946 721.3619,-342.7978"/>
<polygon fill="#191970" stroke="#191970" points="722.8935,-345.9722 731.2086,-339.4065 720.6139,-339.3537 722.8935,-345.9722"/>
</g>
</g>
</svg>
