<?xml version="1.0" encoding="UTF-8" standalone="no"?>
<!DOCTYPE svg PUBLIC "-//W3C//DTD SVG 1.1//EN"
 "http://www.w3.org/Graphics/SVG/1.1/DTD/svg11.dtd">
<!-- Generated by graphviz version 2.40.1 (20161225.0304)
 -->
<!-- Title: make_string_error Pages: 1 -->
<svg width="219pt" height="104pt"
 viewBox="0.00 0.00 219.00 104.00" xmlns="http://www.w3.org/2000/svg" xmlns:xlink="http://www.w3.org/1999/xlink">
<g id="graph0" class="graph" transform="scale(1 1) rotate(0) translate(4 100)">
<title>make_string_error</title>
<!-- Node19380 -->
<g id="node1" class="node">
<title>Node19380</title>
<polygon fill="#bfbfbf" stroke="#000000" points="0,-38.5 0,-57.5 95,-57.5 95,-38.5 0,-38.5"/>
<text text-anchor="middle" x="47.5" y="-45.5" font-family="Helvetica,sans-Serif" font-size="10.00" fill="#000000">make_string_error</text>
</g>
<!-- Node19381 -->
<g id="node2" class="node">
<title>Node19381</title>
<g id="a_node2"><a xlink:href="quickjs-libc_8c.html#ae652036c9a8e00ce0926d51f67628174" target="_top" xlink:title="js_os_getcwd">
<polygon fill="none" stroke="#000000" points="132.5,-76.5 132.5,-95.5 209.5,-95.5 209.5,-76.5 132.5,-76.5"/>
<text text-anchor="middle" x="171" y="-83.5" font-family="Helvetica,sans-Serif" font-size="10.00" fill="#000000">js_os_getcwd</text>
</a>
</g>
</g>
<!-- Node19380&#45;&gt;Node19381 -->
<g id="edge1" class="edge">
<title>Node19380&#45;&gt;Node19381</title>
<path fill="none" stroke="#191970" d="M88.2397,-60.5353C105.0405,-65.7048 124.197,-71.5991 139.8457,-76.4141"/>
<polygon fill="#191970" stroke="#191970" points="89.2514,-57.1847 78.6643,-57.589 87.1927,-63.8752 89.2514,-57.1847"/>
</g>
<!-- Node19382 -->
<g id="node3" class="node">
<title>Node19382</title>
<g id="a_node3"><a xlink:href="quickjs-libc_8c.html#a2173b95ca89b7de47e5bf9d5866877b9" target="_top" xlink:title="js_os_readlink">
<polygon fill="none" stroke="#000000" points="131.5,-38.5 131.5,-57.5 210.5,-57.5 210.5,-38.5 131.5,-38.5"/>
<text text-anchor="middle" x="171" y="-45.5" font-family="Helvetica,sans-Serif" font-size="10.00" fill="#000000">js_os_readlink</text>
</a>
</g>
</g>
<!-- Node19380&#45;&gt;Node19382 -->
<g id="edge2" class="edge">
<title>Node19380&#45;&gt;Node19382</title>
<path fill="none" stroke="#191970" d="M105.4605,-48C114.2362,-48 123.1143,-48 131.3823,-48"/>
<polygon fill="#191970" stroke="#191970" points="105.2484,-44.5001 95.2483,-48 105.2483,-51.5001 105.2484,-44.5001"/>
</g>
<!-- Node19383 -->
<g id="node4" class="node">
<title>Node19383</title>
<g id="a_node4"><a xlink:href="quickjs-libc_8c.html#a02dc6b1cce70abfcd4bd5c862584e0a4" target="_top" xlink:title="js_os_realpath">
<polygon fill="none" stroke="#000000" points="131,-.5 131,-19.5 211,-19.5 211,-.5 131,-.5"/>
<text text-anchor="middle" x="171" y="-7.5" font-family="Helvetica,sans-Serif" font-size="10.00" fill="#000000">js_os_realpath</text>
</a>
</g>
</g>
<!-- Node19380&#45;&gt;Node19383 -->
<g id="edge3" class="edge">
<title>Node19380&#45;&gt;Node19383</title>
<path fill="none" stroke="#191970" d="M88.2397,-35.4647C105.0405,-30.2952 124.197,-24.4009 139.8457,-19.5859"/>
<polygon fill="#191970" stroke="#191970" points="87.1927,-32.1248 78.6643,-38.411 89.2514,-38.8153 87.1927,-32.1248"/>
</g>
</g>
</svg>
