<?xml version="1.0" encoding="UTF-8" standalone="no"?>
<!DOCTYPE svg PUBLIC "-//W3C//DTD SVG 1.1//EN"
 "http://www.w3.org/Graphics/SVG/1.1/DTD/svg11.dtd">
<!-- Generated by graphviz version 2.40.1 (20161225.0304)
 -->
<!-- Title: js_resolve_module Pages: 1 -->
<!--zoomable 84 -->
<svg id="main" version="1.1" xmlns="http://www.w3.org/2000/svg" xmlns:xlink="http://www.w3.org/1999/xlink" xml:space="preserve" onload="init(evt)">
<style type="text/css"><![CDATA[
.edge:hover path { stroke: red; }
.edge:hover polygon { stroke: red; fill: red; }
]]></style>
<script type="text/javascript"><![CDATA[
var edges = document.getElementsByTagName('g');
if (edges && edges.length) {
  for (var i=0;i<edges.length;i++) {
    if (edges[i].id.substr(0,4)=='edge') {
      edges[i].setAttribute('class','edge');
    }
  }
}
]]></script>
        <defs>
                <circle id="rim" cx="0" cy="0" r="7"/>
                <circle id="rim2" cx="0" cy="0" r="3.5"/>
                <g id="zoomPlus">
                        <use xlink:href="#rim" fill="#404040">
                                <set attributeName="fill" to="#808080" begin="zoomplus.mouseover" end="zoomplus.mouseout"/>
                        </use>
                        <path d="M-4,0h8M0,-4v8" fill="none" stroke="white" stroke-width="1.5" pointer-events="none"/>
                </g>
                <g id="zoomMin">
                        <use xlink:href="#rim" fill="#404040">
                                <set attributeName="fill" to="#808080" begin="zoomminus.mouseover" end="zoomminus.mouseout"/>
                        </use>
                        <path d="M-4,0h8" fill="none" stroke="white" stroke-width="1.5" pointer-events="none"/>
                </g>
                <g id="dirArrow">
                        <path fill="none" stroke="white" stroke-width="1.5" d="M0,-3.0v7 M-2.5,-0.5L0,-3.0L2.5,-0.5"/>
                </g>
               <g id="resetDef">
                       <use xlink:href="#rim2" fill="#404040">
                               <set attributeName="fill" to="#808080" begin="reset.mouseover" end="reset.mouseout"/>
                       </use>
               </g>
        </defs>

<script type="text/javascript">
var viewWidth = 524;
var viewHeight = 84;
var sectionId = 'dynsection-1129';
</script>
<script xlink:href="svgpan.js"/>
<svg id="graph" class="graph">
<g id="viewport">
<title>js_resolve_module</title>
<!-- Node338328 -->
<g id="node1" class="node">
<title>Node338328</title>
<polygon fill="#bfbfbf" stroke="#000000" points="0,-32.5 0,-51.5 98,-51.5 98,-32.5 0,-32.5"/>
<text text-anchor="middle" x="49" y="-39.5" font-family="Helvetica,sans-Serif" font-size="10.00" fill="#000000">js_resolve_module</text>
</g>
<!-- Node338328&#45;&gt;Node338328 -->
<g id="edge8" class="edge">
<title>Node338328&#45;&gt;Node338328</title>
<path fill="none" stroke="#191970" d="M22.4941,-60.6539C23.6021,-65.9368 32.4374,-70 49,-70 74.2383,-70 81.5337,-60.5653 70.8863,-51.7571"/>
<polygon fill="#191970" stroke="#191970" points="25.6117,-62.2449 27.1137,-51.7571 19.3992,-59.0192 25.6117,-62.2449"/>
</g>
<!-- Node338329 -->
<g id="node2" class="node">
<title>Node338329</title>
<g id="a_node2"><a xlink:href="quickjs_8c.html#a46a8a7e155cfd0af984f6725f060f0d6" target="_top" xlink:title="__JS_EvalInternal">
<polygon fill="none" stroke="#000000" points="144,-53.5 144,-72.5 240,-72.5 240,-53.5 144,-53.5"/>
<text text-anchor="middle" x="192" y="-60.5" font-family="Helvetica,sans-Serif" font-size="10.00" fill="#000000">__JS_EvalInternal</text>
</a>
</g>
</g>
<!-- Node338328&#45;&gt;Node338329 -->
<g id="edge1" class="edge">
<title>Node338328&#45;&gt;Node338329</title>
<path fill="none" stroke="#191970" d="M108.3885,-50.7214C120.1376,-52.4468 132.336,-54.2382 143.6646,-55.9018"/>
<polygon fill="#191970" stroke="#191970" points="108.6149,-47.2172 98.2125,-49.227 107.5978,-54.1429 108.6149,-47.2172"/>
</g>
<!-- Node338337 -->
<g id="node5" class="node">
<title>Node338337</title>
<g id="a_node5"><a xlink:href="quickjs_8c.html#a6357b7fdae71c70c140e78e6c20cb5c2" target="_top" xlink:title="js_dynamic_import_job">
<polygon fill="none" stroke="#000000" points="134,-13.5 134,-32.5 250,-32.5 250,-13.5 134,-13.5"/>
<text text-anchor="middle" x="192" y="-20.5" font-family="Helvetica,sans-Serif" font-size="10.00" fill="#000000">js_dynamic_import_job</text>
</a>
</g>
</g>
<!-- Node338328&#45;&gt;Node338337 -->
<g id="edge4" class="edge">
<title>Node338328&#45;&gt;Node338337</title>
<path fill="none" stroke="#191970" d="M108.3416,-34.1155C116.7668,-32.996 125.4241,-31.8458 133.8268,-30.7293"/>
<polygon fill="#191970" stroke="#191970" points="107.6644,-30.6746 98.2125,-35.4613 108.5864,-37.6136 107.6644,-30.6746"/>
</g>
<!-- Node338330 -->
<g id="node3" class="node">
<title>Node338330</title>
<g id="a_node3"><a xlink:href="quickjs_8c.html#acbcccb7ec58fd4a024ea1d01e5d04561" target="_top" xlink:title="JS_AddIntrinsicEval">
<polygon fill="none" stroke="#000000" points="286,-54.5 286,-73.5 391,-73.5 391,-54.5 286,-54.5"/>
<text text-anchor="middle" x="338.5" y="-61.5" font-family="Helvetica,sans-Serif" font-size="10.00" fill="#000000">JS_AddIntrinsicEval</text>
</a>
</g>
</g>
<!-- Node338329&#45;&gt;Node338330 -->
<g id="edge2" class="edge">
<title>Node338329&#45;&gt;Node338330</title>
<path fill="none" stroke="#191970" d="M250.4872,-63.3992C262.1831,-63.4791 274.4028,-63.5625 285.8858,-63.6409"/>
<polygon fill="#191970" stroke="#191970" points="250.3993,-59.8986 240.3756,-63.3302 250.3514,-66.8985 250.3993,-59.8986"/>
</g>
<!-- Node338331 -->
<g id="node4" class="node">
<title>Node338331</title>
<g id="a_node4"><a xlink:href="quickjs_8c.html#ad8aedb643b8753b7a15f6cb2df61945e" target="_top" xlink:title="JS_NewContext">
<polygon fill="none" stroke="#ff0000" points="427,-56.5 427,-75.5 516,-75.5 516,-56.5 427,-56.5"/>
<text text-anchor="middle" x="471.5" y="-63.5" font-family="Helvetica,sans-Serif" font-size="10.00" fill="#000000">JS_NewContext</text>
</a>
</g>
</g>
<!-- Node338330&#45;&gt;Node338331 -->
<g id="edge3" class="edge">
<title>Node338330&#45;&gt;Node338331</title>
<path fill="none" stroke="#191970" d="M401.0996,-64.9413C409.7114,-65.0708 418.4107,-65.2017 426.6171,-65.3251"/>
<polygon fill="#191970" stroke="#191970" points="401.1167,-61.4413 391.0651,-64.7905 401.0113,-68.4405 401.1167,-61.4413"/>
</g>
<!-- Node338338 -->
<g id="node6" class="node">
<title>Node338338</title>
<g id="a_node6"><a xlink:href="quickjs_8c.html#a50e94675d1c4cf67c88e72169ea3c21a" target="_top" xlink:title="js_dynamic_import">
<polygon fill="none" stroke="#000000" points="289.5,-9.5 289.5,-28.5 387.5,-28.5 387.5,-9.5 289.5,-9.5"/>
<text text-anchor="middle" x="338.5" y="-16.5" font-family="Helvetica,sans-Serif" font-size="10.00" fill="#000000">js_dynamic_import</text>
</a>
</g>
</g>
<!-- Node338337&#45;&gt;Node338338 -->
<g id="edge5" class="edge">
<title>Node338337&#45;&gt;Node338338</title>
<path fill="none" stroke="#191970" d="M260.4194,-21.1319C270.1771,-20.8655 280.0497,-20.5959 289.3403,-20.3422"/>
<polygon fill="#191970" stroke="#191970" points="260.2223,-17.6359 250.3216,-21.4076 260.4135,-24.6333 260.2223,-17.6359"/>
</g>
<!-- Node338339 -->
<g id="node7" class="node">
<title>Node338339</title>
<g id="a_node7"><a xlink:href="quickjs_8c.html#ac2894ff4edcdb4e6841bcce9c76081e3" target="_top" xlink:title="JS_CallInternal">
<polygon fill="none" stroke="#ff0000" points="430,-.5 430,-19.5 513,-19.5 513,-.5 430,-.5"/>
<text text-anchor="middle" x="471.5" y="-7.5" font-family="Helvetica,sans-Serif" font-size="10.00" fill="#000000">JS_CallInternal</text>
</a>
</g>
</g>
<!-- Node338338&#45;&gt;Node338339 -->
<g id="edge6" class="edge">
<title>Node338338&#45;&gt;Node338339</title>
<path fill="none" stroke="#191970" d="M397.9077,-14.9799C408.731,-14.2475 419.8078,-13.498 429.9736,-12.8101"/>
<polygon fill="#191970" stroke="#191970" points="397.3873,-11.5071 387.6464,-15.6743 397.8599,-18.4911 397.3873,-11.5071"/>
</g>
<!-- Node338339&#45;&gt;Node338339 -->
<g id="edge7" class="edge">
<title>Node338339&#45;&gt;Node338339</title>
<path fill="none" stroke="#191970" d="M446.9465,-29.0292C448.2858,-34.128 456.4703,-38 471.5,-38 494.9609,-38 501.7426,-28.5653 491.845,-19.7571"/>
<polygon fill="#191970" stroke="#191970" points="450.209,-30.3096 451.155,-19.7571 443.8348,-27.4164 450.209,-30.3096"/>
</g>
</g>
</svg>
        <g id="navigator" transform="translate(0 0)" fill="#404254">
                <rect fill="#f2f5e9" fill-opacity="0.5" stroke="#606060" stroke-width=".5" x="0" y="0" width="60" height="60"/>
                <use id="zoomplus" xlink:href="#zoomPlus" x="17" y="9" onmousedown="handleZoom(evt,'in')"/>
                <use id="zoomminus" xlink:href="#zoomMin" x="42" y="9" onmousedown="handleZoom(evt,'out')"/>
                <use id="reset" xlink:href="#resetDef" x="30" y="36" onmousedown="handleReset()"/>
                <g id="arrowUp" xlink:href="#dirArrow" transform="translate(30 24)" onmousedown="handlePan(0,-1)">
                  <use xlink:href="#rim" fill="#404040">
                        <set attributeName="fill" to="#808080" begin="arrowUp.mouseover" end="arrowUp.mouseout"/>
                  </use>
                  <path fill="none" stroke="white" stroke-width="1.5" d="M0,-3.0v7 M-2.5,-0.5L0,-3.0L2.5,-0.5"/>
                </g>
                <g id="arrowRight" xlink:href="#dirArrow" transform="rotate(90) translate(36 -43)" onmousedown="handlePan(1,0)">
                  <use xlink:href="#rim" fill="#404040">
                        <set attributeName="fill" to="#808080" begin="arrowRight.mouseover" end="arrowRight.mouseout"/>
                  </use>
                  <path fill="none" stroke="white" stroke-width="1.5" d="M0,-3.0v7 M-2.5,-0.5L0,-3.0L2.5,-0.5"/>
                </g>
                <g id="arrowDown" xlink:href="#dirArrow" transform="rotate(180) translate(-30 -48)" onmousedown="handlePan(0,1)">
                  <use xlink:href="#rim" fill="#404040">
                        <set attributeName="fill" to="#808080" begin="arrowDown.mouseover" end="arrowDown.mouseout"/>
                  </use>
                  <path fill="none" stroke="white" stroke-width="1.5" d="M0,-3.0v7 M-2.5,-0.5L0,-3.0L2.5,-0.5"/>
                </g>
                <g id="arrowLeft" xlink:href="#dirArrow" transform="rotate(270) translate(-36 17)" onmousedown="handlePan(-1,0)">
                  <use xlink:href="#rim" fill="#404040">
                        <set attributeName="fill" to="#808080" begin="arrowLeft.mouseover" end="arrowLeft.mouseout"/>
                  </use>
                  <path fill="none" stroke="white" stroke-width="1.5" d="M0,-3.0v7 M-2.5,-0.5L0,-3.0L2.5,-0.5"/>
                </g>
        </g>
        <svg viewBox="0 0 15 15" width="100%" height="30px" preserveAspectRatio="xMaxYMin meet">
         <g id="arrow_out" transform="scale(0.3 0.3)">
          <a xlink:href="quickjs_8c_a041f16b68daf31525cd76aa4794073ef_icgraph_org.svg" target="_base">
           <rect id="button" ry="5" rx="5" y="6" x="6" height="38" width="38"
                fill="#f2f5e9" fill-opacity="0.5" stroke="#606060" stroke-width="1.0"/>
           <path id="arrow"
             d="M 11.500037,31.436501 C 11.940474,20.09759 22.043105,11.32322 32.158766,21.979434 L 37.068811,17.246167 C 37.068811,17.246167 37.088388,32 37.088388,32 L 22.160133,31.978069 C 22.160133,31.978069 26.997745,27.140456 26.997745,27.140456 C 18.528582,18.264221 13.291696,25.230495 11.500037,31.436501 z"
             style="fill:#404040;"/>
          </a>
         </g>
        </svg>
</svg>
