<?xml version="1.0" encoding="UTF-8" standalone="no"?>
<!DOCTYPE svg PUBLIC "-//W3C//DTD SVG 1.1//EN"
 "http://www.w3.org/Graphics/SVG/1.1/DTD/svg11.dtd">
<!-- Generated by graphviz version 2.40.1 (20161225.0304)
 -->
<!-- Title: js_string_constructor Pages: 1 -->
<svg width="880pt" height="540pt"
 viewBox="0.00 0.00 880.00 540.00" xmlns="http://www.w3.org/2000/svg" xmlns:xlink="http://www.w3.org/1999/xlink">
<g id="graph0" class="graph" transform="scale(1 1) rotate(0) translate(4 536)">
<title>js_string_constructor</title>
<!-- Node362774 -->
<g id="node1" class="node">
<title>Node362774</title>
<polygon fill="#bfbfbf" stroke="#000000" points="0,-152.5 0,-171.5 107,-171.5 107,-152.5 0,-152.5"/>
<text text-anchor="middle" x="53.5" y="-159.5" font-family="Helvetica,sans-Serif" font-size="10.00" fill="#000000">js_string_constructor</text>
</g>
<!-- Node362775 -->
<g id="node2" class="node">
<title>Node362775</title>
<g id="a_node2"><a xlink:href="quickjs_8c.html#a260bfa297ff6cb5bd18e229afaa54663" target="_top" xlink:title="JS_AtomToString">
<polygon fill="none" stroke="#000000" points="147.5,-474.5 147.5,-493.5 241.5,-493.5 241.5,-474.5 147.5,-474.5"/>
<text text-anchor="middle" x="194.5" y="-481.5" font-family="Helvetica,sans-Serif" font-size="10.00" fill="#000000">JS_AtomToString</text>
</a>
</g>
</g>
<!-- Node362774&#45;&gt;Node362775 -->
<g id="edge1" class="edge">
<title>Node362774&#45;&gt;Node362775</title>
<path fill="none" stroke="#191970" d="M55.3116,-171.7205C64.0603,-217.8025 103.15,-413.9394 143,-460 146.1806,-463.6763 150.0451,-466.8266 154.2124,-469.5171"/>
<polygon fill="#191970" stroke="#191970" points="152.6246,-472.6385 163.0694,-474.4154 156.0123,-466.5129 152.6246,-472.6385"/>
</g>
<!-- Node362803 -->
<g id="node8" class="node">
<title>Node362803</title>
<g id="a_node8"><a xlink:href="quickjs_8c.html#a93dbf502b17d1328c524401335f60499" target="_top" xlink:title="js_create_from_ctor">
<polygon fill="none" stroke="#000000" points="143,-228.5 143,-247.5 246,-247.5 246,-228.5 143,-228.5"/>
<text text-anchor="middle" x="194.5" y="-235.5" font-family="Helvetica,sans-Serif" font-size="10.00" fill="#000000">js_create_from_ctor</text>
</a>
</g>
</g>
<!-- Node362774&#45;&gt;Node362803 -->
<g id="edge7" class="edge">
<title>Node362774&#45;&gt;Node362803</title>
<path fill="none" stroke="#191970" d="M69.1029,-171.6424C86.775,-182.4271 116.5569,-200.1925 143,-214 149.4623,-217.3743 156.4856,-220.8007 163.2074,-223.9677"/>
<polygon fill="#191970" stroke="#191970" points="162.1948,-227.356 172.7394,-228.386 165.1386,-221.0051 162.1948,-227.356"/>
</g>
<!-- Node362849 -->
<g id="node15" class="node">
<title>Node362849</title>
<g id="a_node15"><a xlink:href="quickjs_8h.html#a2050bc428da1c65ac7eb87c3fa3b0392" target="_top" xlink:title="JS_NewInt32">
<polygon fill="none" stroke="#000000" points="649.5,-398.5 649.5,-417.5 725.5,-417.5 725.5,-398.5 649.5,-398.5"/>
<text text-anchor="middle" x="687.5" y="-405.5" font-family="Helvetica,sans-Serif" font-size="10.00" fill="#000000">JS_NewInt32</text>
</a>
</g>
</g>
<!-- Node362774&#45;&gt;Node362849 -->
<g id="edge30" class="edge">
<title>Node362774&#45;&gt;Node362849</title>
<path fill="none" stroke="#191970" d="M57.9018,-171.5339C77.2293,-212.0831 159.1178,-370.7012 282,-427 407.2575,-484.387 454.8859,-440.5073 592,-427 607.446,-425.4784 624.0964,-422.6044 639.1006,-419.5437"/>
<polygon fill="#191970" stroke="#191970" points="640.1311,-422.9032 649.1902,-417.4092 638.6823,-416.0548 640.1311,-422.9032"/>
</g>
<!-- Node362848 -->
<g id="node16" class="node">
<title>Node362848</title>
<g id="a_node16"><a xlink:href="quickjs_8h.html#ad80a83d73e9b7d872b88fbf2943aebe9" target="_top" xlink:title="JS_IsException">
<polygon fill="none" stroke="#000000" points="304.5,-114.5 304.5,-133.5 390.5,-133.5 390.5,-114.5 304.5,-114.5"/>
<text text-anchor="middle" x="347.5" y="-121.5" font-family="Helvetica,sans-Serif" font-size="10.00" fill="#000000">JS_IsException</text>
</a>
</g>
</g>
<!-- Node362774&#45;&gt;Node362848 -->
<g id="edge27" class="edge">
<title>Node362774&#45;&gt;Node362848</title>
<path fill="none" stroke="#191970" d="M107.1711,-157.9569C145.8678,-154.7365 199.2896,-149.6643 246,-143 261.7235,-140.7567 278.7202,-137.7905 294.2258,-134.8705"/>
<polygon fill="#191970" stroke="#191970" points="295.008,-138.2844 304.1715,-132.9664 293.6917,-131.4093 295.008,-138.2844"/>
</g>
<!-- Node362980 -->
<g id="node18" class="node">
<title>Node362980</title>
<g id="a_node18"><a xlink:href="quickjs_8h.html#a4e407128a9605afb77523e49e9a627fd" target="_top" xlink:title="JS_IsUndefined">
<polygon fill="none" stroke="#000000" points="304.5,-152.5 304.5,-171.5 390.5,-171.5 390.5,-152.5 304.5,-152.5"/>
<text text-anchor="middle" x="347.5" y="-159.5" font-family="Helvetica,sans-Serif" font-size="10.00" fill="#000000">JS_IsUndefined</text>
</a>
</g>
</g>
<!-- Node362774&#45;&gt;Node362980 -->
<g id="edge29" class="edge">
<title>Node362774&#45;&gt;Node362980</title>
<path fill="none" stroke="#191970" d="M105.3985,-171.514C117.6836,-173.3781 130.7697,-175.0492 143,-176 188.6401,-179.548 200.3297,-179.1348 246,-176 261.7224,-174.9208 278.7187,-172.9119 294.2243,-170.7459"/>
<polygon fill="#191970" stroke="#191970" points="294.7738,-174.203 304.1701,-169.3082 293.7722,-167.275 294.7738,-174.203"/>
</g>
<!-- Node362934 -->
<g id="node20" class="node">
<title>Node362934</title>
<g id="a_node20"><a xlink:href="quickjs_8c.html#a0a8765bd4012467d9139bc24aabcb3ca" target="_top" xlink:title="JS_DefinePropertyValue">
<polygon fill="none" stroke="#ff0000" points="458.5,-38.5 458.5,-57.5 582.5,-57.5 582.5,-38.5 458.5,-38.5"/>
<text text-anchor="middle" x="520.5" y="-45.5" font-family="Helvetica,sans-Serif" font-size="10.00" fill="#000000">JS_DefinePropertyValue</text>
</a>
</g>
</g>
<!-- Node362774&#45;&gt;Node362934 -->
<g id="edge25" class="edge">
<title>Node362774&#45;&gt;Node362934</title>
<path fill="none" stroke="#191970" d="M58.9285,-152.4778C71.0048,-132.3551 102.2699,-85.8151 143,-67 244.1969,-20.2524 377.3131,-27.179 455.4283,-37.1309"/>
<polygon fill="#191970" stroke="#191970" points="455.2353,-40.636 465.6095,-38.4851 456.1583,-33.6971 455.2353,-40.636"/>
</g>
<!-- Node363206 -->
<g id="node21" class="node">
<title>Node363206</title>
<g id="a_node21"><a xlink:href="quickjs_8h.html#a167c05ce136ce5f098b405563e3660b8" target="_top" xlink:title="JS_IsSymbol">
<polygon fill="none" stroke="#000000" points="157,-76.5 157,-95.5 232,-95.5 232,-76.5 157,-76.5"/>
<text text-anchor="middle" x="194.5" y="-83.5" font-family="Helvetica,sans-Serif" font-size="10.00" fill="#000000">JS_IsSymbol</text>
</a>
</g>
</g>
<!-- Node362774&#45;&gt;Node363206 -->
<g id="edge28" class="edge">
<title>Node362774&#45;&gt;Node363206</title>
<path fill="none" stroke="#191970" d="M66.6193,-152.3743C83.6122,-140.2101 114.4468,-119.1561 143,-105 147.0477,-102.9932 151.3623,-101.0782 155.7062,-99.2896"/>
<polygon fill="#191970" stroke="#191970" points="157.1309,-102.4907 165.1701,-95.5899 154.5822,-95.9711 157.1309,-102.4907"/>
</g>
<!-- Node363046 -->
<g id="node22" class="node">
<title>Node363046</title>
<g id="a_node22"><a xlink:href="quickjs_8c.html#a5cfd8b63940fcb5151b4df41e32dc68c" target="_top" xlink:title="JS_SetObjectData">
<polygon fill="none" stroke="#000000" points="145.5,-114.5 145.5,-133.5 243.5,-133.5 243.5,-114.5 145.5,-114.5"/>
<text text-anchor="middle" x="194.5" y="-121.5" font-family="Helvetica,sans-Serif" font-size="10.00" fill="#000000">JS_SetObjectData</text>
</a>
</g>
</g>
<!-- Node362774&#45;&gt;Node363046 -->
<g id="edge31" class="edge">
<title>Node362774&#45;&gt;Node363046</title>
<path fill="none" stroke="#191970" d="M89.0803,-152.411C107.282,-147.5056 129.6384,-141.4804 149.0723,-136.2429"/>
<polygon fill="#191970" stroke="#191970" points="150.1864,-139.5676 158.9311,-133.5859 148.3648,-132.8088 150.1864,-139.5676"/>
</g>
<!-- Node362866 -->
<g id="node23" class="node">
<title>Node362866</title>
<g id="a_node23"><a xlink:href="quickjs_8c.html#a7bcb8e1a20cbc8374a5f9ba4a2088cec" target="_top" xlink:title="JS_ToString">
<polygon fill="none" stroke="#ff0000" points="159,-.5 159,-19.5 230,-19.5 230,-.5 159,-.5"/>
<text text-anchor="middle" x="194.5" y="-7.5" font-family="Helvetica,sans-Serif" font-size="10.00" fill="#000000">JS_ToString</text>
</a>
</g>
</g>
<!-- Node362774&#45;&gt;Node362866 -->
<g id="edge34" class="edge">
<title>Node362774&#45;&gt;Node362866</title>
<path fill="none" stroke="#191970" d="M57.9989,-152.3635C69.2659,-129.1405 100.8407,-69.3912 143,-34 147.5496,-30.1808 152.8084,-26.8304 158.191,-23.9396"/>
<polygon fill="#191970" stroke="#191970" points="159.815,-27.0416 167.2632,-19.5067 156.7419,-20.7522 159.815,-27.0416"/>
</g>
<!-- Node362776 -->
<g id="node3" class="node">
<title>Node362776</title>
<g id="a_node3"><a xlink:href="quickjs_8c.html#a06ff303a11e6641cbf1f6634e6a61811" target="_top" xlink:title="__JS_AtomToValue">
<polygon fill="none" stroke="#000000" points="468.5,-474.5 468.5,-493.5 572.5,-493.5 572.5,-474.5 468.5,-474.5"/>
<text text-anchor="middle" x="520.5" y="-481.5" font-family="Helvetica,sans-Serif" font-size="10.00" fill="#000000">__JS_AtomToValue</text>
</a>
</g>
</g>
<!-- Node362775&#45;&gt;Node362776 -->
<g id="edge2" class="edge">
<title>Node362775&#45;&gt;Node362776</title>
<path fill="none" stroke="#191970" d="M241.555,-484C298.5953,-484 394.9107,-484 458.1016,-484"/>
<polygon fill="#191970" stroke="#191970" points="458.3347,-487.5001 468.3347,-484 458.3346,-480.5001 458.3347,-487.5001"/>
</g>
<!-- Node362777 -->
<g id="node4" class="node">
<title>Node362777</title>
<g id="a_node4"><a xlink:href="quickjs_8c.html#a288254c06a39c9fca740a7abdad2834e" target="_top" xlink:title="__JS_AtomIsTaggedInt">
<polygon fill="none" stroke="#000000" points="628,-474.5 628,-493.5 747,-493.5 747,-474.5 628,-474.5"/>
<text text-anchor="middle" x="687.5" y="-481.5" font-family="Helvetica,sans-Serif" font-size="10.00" fill="#000000">__JS_AtomIsTaggedInt</text>
</a>
</g>
</g>
<!-- Node362776&#45;&gt;Node362777 -->
<g id="edge3" class="edge">
<title>Node362776&#45;&gt;Node362777</title>
<path fill="none" stroke="#191970" d="M572.8816,-484C587.0267,-484 602.5621,-484 617.5047,-484"/>
<polygon fill="#191970" stroke="#191970" points="617.7306,-487.5001 627.7306,-484 617.7305,-480.5001 617.7306,-487.5001"/>
</g>
<!-- Node362778 -->
<g id="node5" class="node">
<title>Node362778</title>
<g id="a_node5"><a xlink:href="quickjs_8c.html#a89f38938cee8077ce1fbba07946ed185" target="_top" xlink:title="__JS_AtomToUInt32">
<polygon fill="none" stroke="#000000" points="633.5,-436.5 633.5,-455.5 741.5,-455.5 741.5,-436.5 633.5,-436.5"/>
<text text-anchor="middle" x="687.5" y="-443.5" font-family="Helvetica,sans-Serif" font-size="10.00" fill="#000000">__JS_AtomToUInt32</text>
</a>
</g>
</g>
<!-- Node362776&#45;&gt;Node362778 -->
<g id="edge4" class="edge">
<title>Node362776&#45;&gt;Node362778</title>
<path fill="none" stroke="#191970" d="M562.6412,-474.411C584.8771,-469.3513 612.3482,-463.1004 635.8564,-457.7512"/>
<polygon fill="#191970" stroke="#191970" points="636.6877,-461.1516 645.6619,-455.5201 635.1345,-454.3261 636.6877,-461.1516"/>
</g>
<!-- Node362779 -->
<g id="node6" class="node">
<title>Node362779</title>
<g id="a_node6"><a xlink:href="quickjs_8h.html#a775522f2d084fc8fa0fcb33f390006b4" target="_top" xlink:title="JS_DupValue">
<polygon fill="none" stroke="#000000" points="649,-360.5 649,-379.5 726,-379.5 726,-360.5 649,-360.5"/>
<text text-anchor="middle" x="687.5" y="-367.5" font-family="Helvetica,sans-Serif" font-size="10.00" fill="#000000">JS_DupValue</text>
</a>
</g>
</g>
<!-- Node362776&#45;&gt;Node362779 -->
<g id="edge5" class="edge">
<title>Node362776&#45;&gt;Node362779</title>
<path fill="none" stroke="#191970" d="M533.6,-474.4268C548.2873,-463.498 572.588,-444.8221 592,-427 609.1372,-411.2663 608.2984,-401.3726 628,-389 631.5642,-386.7617 635.4153,-384.7653 639.3844,-382.9891"/>
<polygon fill="#191970" stroke="#191970" points="640.7937,-386.1951 648.7803,-379.2334 638.1955,-379.6951 640.7937,-386.1951"/>
</g>
<!-- Node362780 -->
<g id="node7" class="node">
<title>Node362780</title>
<g id="a_node7"><a xlink:href="quickjs_8c.html#a0ee6a3654a6016393fac5e1c108f403a" target="_top" xlink:title="JS_NewString">
<polygon fill="none" stroke="#ff0000" points="647.5,-512.5 647.5,-531.5 727.5,-531.5 727.5,-512.5 647.5,-512.5"/>
<text text-anchor="middle" x="687.5" y="-519.5" font-family="Helvetica,sans-Serif" font-size="10.00" fill="#000000">JS_NewString</text>
</a>
</g>
</g>
<!-- Node362776&#45;&gt;Node362780 -->
<g id="edge6" class="edge">
<title>Node362776&#45;&gt;Node362780</title>
<path fill="none" stroke="#191970" d="M562.6412,-493.589C585.3844,-498.7641 613.6044,-505.1854 637.459,-510.6134"/>
<polygon fill="#191970" stroke="#191970" points="636.8591,-514.0663 647.3865,-512.8724 638.4123,-507.2408 636.8591,-514.0663"/>
</g>
<!-- Node362803&#45;&gt;Node362779 -->
<g id="edge8" class="edge">
<title>Node362803&#45;&gt;Node362779</title>
<path fill="none" stroke="#191970" d="M198.4517,-247.5376C208.4751,-270.3268 237.3087,-327.7695 282,-351 342.7257,-382.5652 544.7071,-377.1713 638.6591,-372.7295"/>
<polygon fill="#191970" stroke="#191970" points="638.9394,-376.2201 648.7566,-372.236 638.5976,-369.2284 638.9394,-376.2201"/>
</g>
<!-- Node362804 -->
<g id="node9" class="node">
<title>Node362804</title>
<g id="a_node9"><a xlink:href="quickjs_8h.html#afaa20c47565bc704c6c85f3d77254e7d" target="_top" xlink:title="JS_FreeValue">
<polygon fill="none" stroke="#000000" points="648.5,-133.5 648.5,-152.5 726.5,-152.5 726.5,-133.5 648.5,-133.5"/>
<text text-anchor="middle" x="687.5" y="-140.5" font-family="Helvetica,sans-Serif" font-size="10.00" fill="#000000">JS_FreeValue</text>
</a>
</g>
</g>
<!-- Node362803&#45;&gt;Node362804 -->
<g id="edge9" class="edge">
<title>Node362803&#45;&gt;Node362804</title>
<path fill="none" stroke="#191970" d="M237.1734,-228.4783C251.4115,-225.3696 267.3729,-221.9582 282,-219 410.0657,-193.1 561.5174,-165.5212 637.9989,-151.8074"/>
<polygon fill="#191970" stroke="#191970" points="639.0564,-155.1738 648.283,-149.9659 637.8226,-148.2833 639.0564,-155.1738"/>
</g>
<!-- Node362839 -->
<g id="node11" class="node">
<title>Node362839</title>
<g id="a_node11"><a xlink:href="quickjs_8c.html#a83e9d1851a3e2cd176944272b583143c" target="_top" xlink:title="JS_GetFunctionRealm">
<polygon fill="none" stroke="#000000" points="289.5,-304.5 289.5,-323.5 405.5,-323.5 405.5,-304.5 289.5,-304.5"/>
<text text-anchor="middle" x="347.5" y="-311.5" font-family="Helvetica,sans-Serif" font-size="10.00" fill="#000000">JS_GetFunctionRealm</text>
</a>
</g>
</g>
<!-- Node362803&#45;&gt;Node362839 -->
<g id="edge11" class="edge">
<title>Node362803&#45;&gt;Node362839</title>
<path fill="none" stroke="#191970" d="M206.5742,-247.5371C222.8603,-259.9969 253.159,-281.778 282,-295 287.0452,-297.3129 292.4389,-299.4159 297.8842,-301.3082"/>
<polygon fill="#191970" stroke="#191970" points="297.0855,-304.7286 307.6776,-304.4867 299.2465,-298.0705 297.0855,-304.7286"/>
</g>
<!-- Node362841 -->
<g id="node13" class="node">
<title>Node362841</title>
<g id="a_node13"><a xlink:href="quickjs_8h.html#a89b7c8686c7eee70b86be722ee4730ad" target="_top" xlink:title="JS_GetProperty">
<polygon fill="none" stroke="#000000" points="304.5,-398.5 304.5,-417.5 390.5,-417.5 390.5,-398.5 304.5,-398.5"/>
<text text-anchor="middle" x="347.5" y="-405.5" font-family="Helvetica,sans-Serif" font-size="10.00" fill="#000000">JS_GetProperty</text>
</a>
</g>
</g>
<!-- Node362803&#45;&gt;Node362841 -->
<g id="edge14" class="edge">
<title>Node362803&#45;&gt;Node362841</title>
<path fill="none" stroke="#191970" d="M199.2268,-247.6871C213.6961,-277.0118 257.8626,-364.0359 282,-384 286.9607,-388.103 292.6854,-391.5369 298.6428,-394.4026"/>
<polygon fill="#191970" stroke="#191970" points="297.5489,-397.7413 308.1198,-398.4527 300.2998,-391.3044 297.5489,-397.7413"/>
</g>
<!-- Node362803&#45;&gt;Node362848 -->
<g id="edge21" class="edge">
<title>Node362803&#45;&gt;Node362848</title>
<path fill="none" stroke="#191970" d="M202.2279,-228.3719C219.8262,-206.6621 262.8404,-154.8632 282,-143 286.0645,-140.4834 290.4761,-138.288 295.0244,-136.3751"/>
<polygon fill="#191970" stroke="#191970" points="296.3469,-139.6173 304.4846,-132.8329 293.8922,-133.0617 296.3469,-139.6173"/>
</g>
<!-- Node363058 -->
<g id="node17" class="node">
<title>Node363058</title>
<g id="a_node17"><a xlink:href="quickjs_8h.html#a3d68fe446df2d9c7d1900b16371bff5b" target="_top" xlink:title="JS_IsObject">
<polygon fill="none" stroke="#000000" points="312,-266.5 312,-285.5 383,-285.5 383,-266.5 312,-266.5"/>
<text text-anchor="middle" x="347.5" y="-273.5" font-family="Helvetica,sans-Serif" font-size="10.00" fill="#000000">JS_IsObject</text>
</a>
</g>
</g>
<!-- Node362803&#45;&gt;Node363058 -->
<g id="edge22" class="edge">
<title>Node362803&#45;&gt;Node363058</title>
<path fill="none" stroke="#191970" d="M233.1084,-247.589C254.066,-252.7942 280.0997,-259.2601 302.0345,-264.7079"/>
<polygon fill="#191970" stroke="#191970" points="301.2424,-268.1175 311.7912,-267.1312 302.9298,-261.3239 301.2424,-268.1175"/>
</g>
<!-- Node362803&#45;&gt;Node362980 -->
<g id="edge23" class="edge">
<title>Node362803&#45;&gt;Node362980</title>
<path fill="none" stroke="#191970" d="M217.8914,-228.4378C226.9106,-224.409 237.1623,-219.401 246,-214 263.2956,-203.43 264.2715,-195.8267 282,-186 289.4611,-181.8644 297.7751,-178.1876 305.9078,-175.0303"/>
<polygon fill="#191970" stroke="#191970" points="307.1365,-178.3077 315.3097,-171.5662 304.7163,-171.7394 307.1365,-178.3077"/>
</g>
<!-- Node362941 -->
<g id="node19" class="node">
<title>Node362941</title>
<g id="a_node19"><a xlink:href="quickjs_8c.html#a73738c650f11459db0d7af3dcdf8316b" target="_top" xlink:title="JS_NewObjectProtoClass">
<polygon fill="none" stroke="#ff0000" points="282,-228.5 282,-247.5 413,-247.5 413,-228.5 282,-228.5"/>
<text text-anchor="middle" x="347.5" y="-235.5" font-family="Helvetica,sans-Serif" font-size="10.00" fill="#000000">JS_NewObjectProtoClass</text>
</a>
</g>
</g>
<!-- Node362803&#45;&gt;Node362941 -->
<g id="edge24" class="edge">
<title>Node362803&#45;&gt;Node362941</title>
<path fill="none" stroke="#191970" d="M246.2988,-238C254.5238,-238 263.1754,-238 271.8133,-238"/>
<polygon fill="#191970" stroke="#191970" points="271.9207,-241.5001 281.9206,-238 271.9206,-234.5001 271.9207,-241.5001"/>
</g>
<!-- Node362805 -->
<g id="node10" class="node">
<title>Node362805</title>
<g id="a_node10"><a xlink:href="quickjs_8c.html#aa059f309c30fd5166d16c82a97973146" target="_top" xlink:title="__JS_FreeValue">
<polygon fill="none" stroke="#ff0000" points="783,-133.5 783,-152.5 872,-152.5 872,-133.5 783,-133.5"/>
<text text-anchor="middle" x="827.5" y="-140.5" font-family="Helvetica,sans-Serif" font-size="10.00" fill="#000000">__JS_FreeValue</text>
</a>
</g>
</g>
<!-- Node362804&#45;&gt;Node362805 -->
<g id="edge10" class="edge">
<title>Node362804&#45;&gt;Node362805</title>
<path fill="none" stroke="#191970" d="M726.8704,-143C740.9984,-143 757.2,-143 772.4155,-143"/>
<polygon fill="#191970" stroke="#191970" points="772.7543,-146.5001 782.7542,-143 772.7542,-139.5001 772.7543,-146.5001"/>
</g>
<!-- Node362839&#45;&gt;Node362839 -->
<g id="edge12" class="edge">
<title>Node362839&#45;&gt;Node362839</title>
<path fill="none" stroke="#191970" d="M324.0724,-323.7571C312.6752,-332.5653 320.4844,-342 347.5,-342 365.229,-342 374.6865,-337.9368 375.8725,-332.6539"/>
<polygon fill="#191970" stroke="#191970" points="378.8449,-330.7974 370.9276,-323.7571 372.7265,-334.1981 378.8449,-330.7974"/>
</g>
<!-- Node362840 -->
<g id="node12" class="node">
<title>Node362840</title>
<g id="a_node12"><a xlink:href="quickjs_8c.html#a199d64ccbee0a90d93e1ad12745417f6" target="_top" xlink:title="JS_ThrowTypeErrorRevoked\lProxy">
<polygon fill="none" stroke="#000000" points="449,-299 449,-329 592,-329 592,-299 449,-299"/>
<text text-anchor="start" x="457" y="-317" font-family="Helvetica,sans-Serif" font-size="10.00" fill="#000000">JS_ThrowTypeErrorRevoked</text>
<text text-anchor="middle" x="520.5" y="-306" font-family="Helvetica,sans-Serif" font-size="10.00" fill="#000000">Proxy</text>
</a>
</g>
</g>
<!-- Node362839&#45;&gt;Node362840 -->
<g id="edge13" class="edge">
<title>Node362839&#45;&gt;Node362840</title>
<path fill="none" stroke="#191970" d="M405.5878,-314C416.1845,-314 427.4213,-314 438.557,-314"/>
<polygon fill="#191970" stroke="#191970" points="438.7341,-317.5001 448.7341,-314 438.734,-310.5001 438.7341,-317.5001"/>
</g>
<!-- Node362842 -->
<g id="node14" class="node">
<title>Node362842</title>
<g id="a_node14"><a xlink:href="quickjs_8c.html#a5762c57ae0c9937e986040c01222833a" target="_top" xlink:title="JS_GetPropertyInternal">
<polygon fill="none" stroke="#ff0000" points="461,-398.5 461,-417.5 580,-417.5 580,-398.5 461,-398.5"/>
<text text-anchor="middle" x="520.5" y="-405.5" font-family="Helvetica,sans-Serif" font-size="10.00" fill="#000000">JS_GetPropertyInternal</text>
</a>
</g>
</g>
<!-- Node362841&#45;&gt;Node362842 -->
<g id="edge15" class="edge">
<title>Node362841&#45;&gt;Node362842</title>
<path fill="none" stroke="#191970" d="M390.7089,-408C408.8595,-408 430.4365,-408 450.7351,-408"/>
<polygon fill="#191970" stroke="#191970" points="450.8914,-411.5001 460.8913,-408 450.8913,-404.5001 450.8914,-411.5001"/>
</g>
<!-- Node362842&#45;&gt;Node362777 -->
<g id="edge16" class="edge">
<title>Node362842&#45;&gt;Node362777</title>
<path fill="none" stroke="#191970" d="M536.4506,-417.6198C557.0647,-429.7778 594.3156,-450.8253 628,-465 633.1848,-467.1818 638.7115,-469.2596 644.2287,-471.1859"/>
<polygon fill="#191970" stroke="#191970" points="643.4795,-474.6259 654.0733,-474.4793 645.7004,-467.9875 643.4795,-474.6259"/>
</g>
<!-- Node362842&#45;&gt;Node362778 -->
<g id="edge17" class="edge">
<title>Node362842&#45;&gt;Node362778</title>
<path fill="none" stroke="#191970" d="M562.6412,-417.589C584.8771,-422.6487 612.3482,-428.8996 635.8564,-434.2488"/>
<polygon fill="#191970" stroke="#191970" points="635.1345,-437.6739 645.6619,-436.4799 636.6877,-430.8484 635.1345,-437.6739"/>
</g>
<!-- Node362842&#45;&gt;Node362779 -->
<g id="edge18" class="edge">
<title>Node362842&#45;&gt;Node362779</title>
<path fill="none" stroke="#191970" d="M562.6412,-398.411C585.8072,-393.1397 614.6553,-386.5754 638.7846,-381.0849"/>
<polygon fill="#191970" stroke="#191970" points="639.8323,-384.4361 648.8065,-378.8045 638.2792,-377.6106 639.8323,-384.4361"/>
</g>
<!-- Node362842&#45;&gt;Node362804 -->
<g id="edge19" class="edge">
<title>Node362842&#45;&gt;Node362804</title>
<path fill="none" stroke="#191970" d="M532.6236,-398.3785C547.9341,-385.7633 574.3989,-362.3596 592,-338 634.4162,-279.2969 666.9554,-198.8754 680.5526,-162.3978"/>
<polygon fill="#191970" stroke="#191970" points="684.0027,-163.1544 684.1542,-152.5607 677.4294,-160.7477 684.0027,-163.1544"/>
</g>
<!-- Node362842&#45;&gt;Node362849 -->
<g id="edge20" class="edge">
<title>Node362842&#45;&gt;Node362849</title>
<path fill="none" stroke="#191970" d="M580.3191,-408C599.6553,-408 620.8384,-408 639.2295,-408"/>
<polygon fill="#191970" stroke="#191970" points="639.4142,-411.5001 649.4141,-408 639.4141,-404.5001 639.4142,-411.5001"/>
</g>
<!-- Node362934&#45;&gt;Node362804 -->
<g id="edge26" class="edge">
<title>Node362934&#45;&gt;Node362804</title>
<path fill="none" stroke="#191970" d="M556.3217,-57.5834C568.0197,-61.3473 580.8595,-66.1779 592,-72 621.2162,-87.2687 651.113,-111.0867 669.4917,-126.8647"/>
<polygon fill="#191970" stroke="#191970" points="667.246,-129.5503 677.0816,-133.4888 671.8488,-124.2764 667.246,-129.5503"/>
</g>
<!-- Node363046&#45;&gt;Node362804 -->
<g id="edge32" class="edge">
<title>Node363046&#45;&gt;Node362804</title>
<path fill="none" stroke="#191970" d="M229.9785,-114.4915C245.7771,-110.7268 264.689,-106.8578 282,-105 410.5108,-91.2081 562.2418,-116.4861 638.5121,-132.0713"/>
<polygon fill="#191970" stroke="#191970" points="637.8173,-135.5016 648.32,-134.1075 639.2403,-128.6477 637.8173,-135.5016"/>
</g>
<!-- Node363046&#45;&gt;Node362848 -->
<g id="edge33" class="edge">
<title>Node363046&#45;&gt;Node362848</title>
<path fill="none" stroke="#191970" d="M243.7523,-124C259.7325,-124 277.5374,-124 293.8232,-124"/>
<polygon fill="#191970" stroke="#191970" points="294.2715,-127.5001 304.2714,-124 294.2714,-120.5001 294.2715,-127.5001"/>
</g>
</g>
</svg>
