<?xml version="1.0" encoding="UTF-8" standalone="no"?>
<!DOCTYPE svg PUBLIC "-//W3C//DTD SVG 1.1//EN"
 "http://www.w3.org/Graphics/SVG/1.1/DTD/svg11.dtd">
<!-- Generated by graphviz version 2.40.1 (20161225.0304)
 -->
<!-- Title: js_mark_module_def Pages: 1 -->
<svg width="449pt" height="66pt"
 viewBox="0.00 0.00 449.00 66.00" xmlns="http://www.w3.org/2000/svg" xmlns:xlink="http://www.w3.org/1999/xlink">
<g id="graph0" class="graph" transform="scale(1 1) rotate(0) translate(4 62)">
<title>js_mark_module_def</title>
<!-- Node26304 -->
<g id="node1" class="node">
<title>Node26304</title>
<polygon fill="#bfbfbf" stroke="#000000" points="0,-19.5 0,-38.5 107,-38.5 107,-19.5 0,-19.5"/>
<text text-anchor="middle" x="53.5" y="-26.5" font-family="Helvetica,sans-Serif" font-size="10.00" fill="#000000">js_mark_module_def</text>
</g>
<!-- Node26305 -->
<g id="node2" class="node">
<title>Node26305</title>
<g id="a_node2"><a xlink:href="quickjs_8c.html#a7b4ca0877b507766c40c28209ecef13a" target="_top" xlink:title="JS_MarkContext">
<polygon fill="none" stroke="#000000" points="143,-19.5 143,-38.5 233,-38.5 233,-19.5 143,-19.5"/>
<text text-anchor="middle" x="188" y="-26.5" font-family="Helvetica,sans-Serif" font-size="10.00" fill="#000000">JS_MarkContext</text>
</a>
</g>
</g>
<!-- Node26304&#45;&gt;Node26305 -->
<g id="edge1" class="edge">
<title>Node26304&#45;&gt;Node26305</title>
<path fill="none" stroke="#191970" d="M117.1641,-29C125.8455,-29 134.6068,-29 142.8671,-29"/>
<polygon fill="#191970" stroke="#191970" points="117.0445,-25.5001 107.0444,-29 117.0444,-32.5001 117.0445,-25.5001"/>
</g>
<!-- Node26306 -->
<g id="node3" class="node">
<title>Node26306</title>
<g id="a_node3"><a xlink:href="quickjs_8c.html#aa863a9d565bac49a2a76d10009eabd5c" target="_top" xlink:title="mark_children">
<polygon fill="none" stroke="#000000" points="269,-19.5 269,-38.5 346,-38.5 346,-19.5 269,-19.5"/>
<text text-anchor="middle" x="307.5" y="-26.5" font-family="Helvetica,sans-Serif" font-size="10.00" fill="#000000">mark_children</text>
</a>
</g>
</g>
<!-- Node26305&#45;&gt;Node26306 -->
<g id="edge2" class="edge">
<title>Node26305&#45;&gt;Node26306</title>
<path fill="none" stroke="#191970" d="M243.2508,-29C251.9187,-29 260.7136,-29 268.9003,-29"/>
<polygon fill="#191970" stroke="#191970" points="243.1779,-25.5001 233.1778,-29 243.1778,-32.5001 243.1779,-25.5001"/>
</g>
<!-- Node26307 -->
<g id="node4" class="node">
<title>Node26307</title>
<g id="a_node4"><a xlink:href="quickjs_8c.html#ae09ca4f159971d3c1f1dafc8682ba04b" target="_top" xlink:title="gc_decref">
<polygon fill="none" stroke="#ff0000" points="382,-38.5 382,-57.5 441,-57.5 441,-38.5 382,-38.5"/>
<text text-anchor="middle" x="411.5" y="-45.5" font-family="Helvetica,sans-Serif" font-size="10.00" fill="#000000">gc_decref</text>
</a>
</g>
</g>
<!-- Node26306&#45;&gt;Node26307 -->
<g id="edge3" class="edge">
<title>Node26306&#45;&gt;Node26307</title>
<path fill="none" stroke="#191970" d="M356.3385,-37.9224C365.0497,-39.5139 373.8797,-41.1271 381.8456,-42.5824"/>
<polygon fill="#191970" stroke="#191970" points="356.692,-34.4291 346.2258,-36.0749 355.4339,-41.3152 356.692,-34.4291"/>
</g>
<!-- Node26937 -->
<g id="node5" class="node">
<title>Node26937</title>
<g id="a_node5"><a xlink:href="quickjs_8c.html#adee2db09b659dd2c1a1a3c408658a753" target="_top" xlink:title="gc_scan">
<polygon fill="none" stroke="#ff0000" points="385,-.5 385,-19.5 438,-19.5 438,-.5 385,-.5"/>
<text text-anchor="middle" x="411.5" y="-7.5" font-family="Helvetica,sans-Serif" font-size="10.00" fill="#000000">gc_scan</text>
</a>
</g>
</g>
<!-- Node26306&#45;&gt;Node26937 -->
<g id="edge4" class="edge">
<title>Node26306&#45;&gt;Node26937</title>
<path fill="none" stroke="#191970" d="M356.3135,-20.0822C366.1022,-18.2938 376.042,-16.4779 384.7385,-14.8891"/>
<polygon fill="#191970" stroke="#191970" points="355.4339,-16.6848 346.2258,-21.9251 356.692,-23.5709 355.4339,-16.6848"/>
</g>
</g>
</svg>
