<?xml version="1.0" encoding="UTF-8" standalone="no"?>
<!DOCTYPE svg PUBLIC "-//W3C//DTD SVG 1.1//EN"
 "http://www.w3.org/Graphics/SVG/1.1/DTD/svg11.dtd">
<!-- Generated by graphviz version 2.40.1 (20161225.0304)
 -->
<!-- Title: js_dump_obj Pages: 1 -->
<!--zoomable 180 -->
<svg id="main" version="1.1" xmlns="http://www.w3.org/2000/svg" xmlns:xlink="http://www.w3.org/1999/xlink" xml:space="preserve" onload="init(evt)">
<style type="text/css"><![CDATA[
.edge:hover path { stroke: red; }
.edge:hover polygon { stroke: red; fill: red; }
]]></style>
<script type="text/javascript"><![CDATA[
var edges = document.getElementsByTagName('g');
if (edges && edges.length) {
  for (var i=0;i<edges.length;i++) {
    if (edges[i].id.substr(0,4)=='edge') {
      edges[i].setAttribute('class','edge');
    }
  }
}
]]></script>
        <defs>
                <circle id="rim" cx="0" cy="0" r="7"/>
                <circle id="rim2" cx="0" cy="0" r="3.5"/>
                <g id="zoomPlus">
                        <use xlink:href="#rim" fill="#404040">
                                <set attributeName="fill" to="#808080" begin="zoomplus.mouseover" end="zoomplus.mouseout"/>
                        </use>
                        <path d="M-4,0h8M0,-4v8" fill="none" stroke="white" stroke-width="1.5" pointer-events="none"/>
                </g>
                <g id="zoomMin">
                        <use xlink:href="#rim" fill="#404040">
                                <set attributeName="fill" to="#808080" begin="zoomminus.mouseover" end="zoomminus.mouseout"/>
                        </use>
                        <path d="M-4,0h8" fill="none" stroke="white" stroke-width="1.5" pointer-events="none"/>
                </g>
                <g id="dirArrow">
                        <path fill="none" stroke="white" stroke-width="1.5" d="M0,-3.0v7 M-2.5,-0.5L0,-3.0L2.5,-0.5"/>
                </g>
               <g id="resetDef">
                       <use xlink:href="#rim2" fill="#404040">
                               <set attributeName="fill" to="#808080" begin="reset.mouseover" end="reset.mouseout"/>
                       </use>
               </g>
        </defs>

<script type="text/javascript">
var viewWidth = 645;
var viewHeight = 180;
var sectionId = 'dynsection-149';
</script>
<script xlink:href="svgpan.js"/>
<svg id="graph" class="graph">
<g id="viewport">
<title>js_dump_obj</title>
<!-- Node32642 -->
<g id="node1" class="node">
<title>Node32642</title>
<polygon fill="#bfbfbf" stroke="#000000" points="0,-54.5 0,-73.5 71,-73.5 71,-54.5 0,-54.5"/>
<text text-anchor="middle" x="35.5" y="-61.5" font-family="Helvetica,sans-Serif" font-size="10.00" fill="#000000">js_dump_obj</text>
</g>
<!-- Node32643 -->
<g id="node2" class="node">
<title>Node32643</title>
<g id="a_node2"><a xlink:href="quickjs-libc_8c.html#a410cd5dce0fb0e6a978ed313963f3962" target="_top" xlink:title="js_std_dump_error1">
<polygon fill="none" stroke="#000000" points="107,-54.5 107,-73.5 209,-73.5 209,-54.5 107,-54.5"/>
<text text-anchor="middle" x="158" y="-61.5" font-family="Helvetica,sans-Serif" font-size="10.00" fill="#000000">js_std_dump_error1</text>
</a>
</g>
</g>
<!-- Node32642&#45;&gt;Node32643 -->
<g id="edge1" class="edge">
<title>Node32642&#45;&gt;Node32643</title>
<path fill="none" stroke="#191970" d="M81.5122,-64C89.8127,-64 98.5119,-64 106.9457,-64"/>
<polygon fill="#191970" stroke="#191970" points="81.2614,-60.5001 71.2614,-64 81.2613,-67.5001 81.2614,-60.5001"/>
</g>
<!-- Node32644 -->
<g id="node3" class="node">
<title>Node32644</title>
<g id="a_node3"><a xlink:href="quickjs-libc_8c.html#a82bb7888d024e97e430d98653e97a7bc" target="_top" xlink:title="js_std_dump_error">
<polygon fill="none" stroke="#000000" points="259,-76.5 259,-95.5 356,-95.5 356,-76.5 259,-76.5"/>
<text text-anchor="middle" x="307.5" y="-83.5" font-family="Helvetica,sans-Serif" font-size="10.00" fill="#000000">js_std_dump_error</text>
</a>
</g>
</g>
<!-- Node32643&#45;&gt;Node32644 -->
<g id="edge2" class="edge">
<title>Node32643&#45;&gt;Node32644</title>
<path fill="none" stroke="#191970" d="M219.0515,-72.9842C232.3456,-74.9405 246.2381,-76.9849 258.9689,-78.8583"/>
<polygon fill="#191970" stroke="#191970" points="219.4343,-69.5029 209.0313,-71.5096 218.4151,-76.4283 219.4343,-69.5029"/>
</g>
<!-- Node32654 -->
<g id="node9" class="node">
<title>Node32654</title>
<g id="a_node9"><a xlink:href="quickjs-libc_8c.html#aecbca056dde897142bf11bb90347c524" target="_top" xlink:title="js_std_promise_rejection\l_tracker">
<polygon fill="none" stroke="#000000" points="245,-27 245,-57 370,-57 370,-27 245,-27"/>
<text text-anchor="start" x="253" y="-45" font-family="Helvetica,sans-Serif" font-size="10.00" fill="#000000">js_std_promise_rejection</text>
<text text-anchor="middle" x="307.5" y="-34" font-family="Helvetica,sans-Serif" font-size="10.00" fill="#000000">_tracker</text>
</a>
</g>
</g>
<!-- Node32643&#45;&gt;Node32654 -->
<g id="edge9" class="edge">
<title>Node32643&#45;&gt;Node32654</title>
<path fill="none" stroke="#191970" d="M219.1866,-54.9959C227.6343,-53.7528 236.3211,-52.4745 244.7957,-51.2274"/>
<polygon fill="#191970" stroke="#191970" points="218.4151,-51.5717 209.0313,-56.4904 219.4343,-58.4971 218.4151,-51.5717"/>
</g>
<!-- Node32645 -->
<g id="node4" class="node">
<title>Node32645</title>
<g id="a_node4"><a xlink:href="quickjs-libc_8c.html#abb1cbe3fdf905e81f603a3a0bfce475a" target="_top" xlink:title="call_handler">
<polygon fill="none" stroke="#000000" points="434.5,-152.5 434.5,-171.5 502.5,-171.5 502.5,-152.5 434.5,-152.5"/>
<text text-anchor="middle" x="468.5" y="-159.5" font-family="Helvetica,sans-Serif" font-size="10.00" fill="#000000">call_handler</text>
</a>
</g>
</g>
<!-- Node32644&#45;&gt;Node32645 -->
<g id="edge3" class="edge">
<title>Node32644&#45;&gt;Node32645</title>
<path fill="none" stroke="#191970" d="M330.1149,-101.0979C349.5908,-113.6015 378.78,-131.1739 406,-143 414.9455,-146.8865 424.9341,-150.306 434.2554,-153.1336"/>
<polygon fill="#191970" stroke="#191970" points="331.9294,-98.1028 321.6389,-95.5816 328.1111,-103.9697 331.9294,-98.1028"/>
</g>
<!-- Node32646 -->
<g id="node5" class="node">
<title>Node32646</title>
<g id="a_node5"><a xlink:href="quickjs-libc_8c.html#a9fa4c190ba56314c7ed9b00bbc7ad0f9" target="_top" xlink:title="handle_posted_message">
<polygon fill="none" stroke="#000000" points="406,-114.5 406,-133.5 531,-133.5 531,-114.5 406,-114.5"/>
<text text-anchor="middle" x="468.5" y="-121.5" font-family="Helvetica,sans-Serif" font-size="10.00" fill="#000000">handle_posted_message</text>
</a>
</g>
</g>
<!-- Node32644&#45;&gt;Node32646 -->
<g id="edge4" class="edge">
<title>Node32644&#45;&gt;Node32646</title>
<path fill="none" stroke="#191970" d="M357.9018,-97.8961C380.532,-103.2374 406.8695,-109.4537 428.165,-114.4799"/>
<polygon fill="#191970" stroke="#191970" points="358.6637,-94.4798 348.1271,-95.589 357.0557,-101.2926 358.6637,-94.4798"/>
</g>
<!-- Node32647 -->
<g id="node6" class="node">
<title>Node32647</title>
<g id="a_node6"><a xlink:href="quickjs-libc_8c.html#a1fbb3adc15e7b967479fc1940e99b67a" target="_top" xlink:title="worker_func">
<polygon fill="none" stroke="#ff0000" points="567,-57.5 567,-76.5 637,-76.5 637,-57.5 567,-57.5"/>
<text text-anchor="middle" x="602" y="-64.5" font-family="Helvetica,sans-Serif" font-size="10.00" fill="#000000">worker_func</text>
</a>
</g>
</g>
<!-- Node32644&#45;&gt;Node32647 -->
<g id="edge5" class="edge">
<title>Node32644&#45;&gt;Node32647</title>
<path fill="none" stroke="#191970" d="M366.2006,-82.2129C426.1024,-78.3482 517.106,-72.477 566.7187,-69.2762"/>
<polygon fill="#191970" stroke="#191970" points="365.8846,-78.7259 356.1307,-82.8625 366.3353,-85.7114 365.8846,-78.7259"/>
</g>
<!-- Node32652 -->
<g id="node7" class="node">
<title>Node32652</title>
<g id="a_node7"><a xlink:href="quickjs-libc_8c.html#af7480dad10e937004e36b2b409b084a4" target="_top" xlink:title="js_std_loop">
<polygon fill="none" stroke="#ff0000" points="435.5,-38.5 435.5,-57.5 501.5,-57.5 501.5,-38.5 435.5,-38.5"/>
<text text-anchor="middle" x="468.5" y="-45.5" font-family="Helvetica,sans-Serif" font-size="10.00" fill="#000000">js_std_loop</text>
</a>
</g>
</g>
<!-- Node32644&#45;&gt;Node32652 -->
<g id="edge6" class="edge">
<title>Node32644&#45;&gt;Node32652</title>
<path fill="none" stroke="#191970" d="M357.9261,-74.0982C383.2182,-68.1286 413.1361,-61.0672 435.4699,-55.7959"/>
<polygon fill="#191970" stroke="#191970" points="357.0557,-70.7074 348.1271,-76.411 358.6637,-77.5202 357.0557,-70.7074"/>
</g>
<!-- Node32653 -->
<g id="node8" class="node">
<title>Node32653</title>
<g id="a_node8"><a xlink:href="quickjs-libc_8c.html#ab1b439d304c2125490b47ef262b5df67" target="_top" xlink:title="js_std_eval_binary">
<polygon fill="none" stroke="#000000" points="419.5,-.5 419.5,-19.5 517.5,-19.5 517.5,-.5 419.5,-.5"/>
<text text-anchor="middle" x="468.5" y="-7.5" font-family="Helvetica,sans-Serif" font-size="10.00" fill="#000000">js_std_eval_binary</text>
</a>
</g>
</g>
<!-- Node32644&#45;&gt;Node32653 -->
<g id="edge8" class="edge">
<title>Node32644&#45;&gt;Node32653</title>
<path fill="none" stroke="#191970" d="M359.2665,-72.6354C363.0027,-70.9593 366.6239,-69.0875 370,-67 389.7875,-54.7653 386.2125,-41.2347 406,-29 412.1735,-25.1829 419.1665,-22.0869 426.1834,-19.5899"/>
<polygon fill="#191970" stroke="#191970" points="357.8049,-69.4503 349.8166,-76.4101 360.4015,-75.9509 357.8049,-69.4503"/>
</g>
<!-- Node32652&#45;&gt;Node32647 -->
<g id="edge7" class="edge">
<title>Node32652&#45;&gt;Node32647</title>
<path fill="none" stroke="#191970" d="M511.6161,-54.1364C529.3777,-56.6642 549.7029,-59.557 566.5749,-61.9582"/>
<polygon fill="#191970" stroke="#191970" points="511.8934,-50.6407 501.5,-52.6966 510.9071,-57.5708 511.8934,-50.6407"/>
</g>
</g>
</svg>
        <g id="navigator" transform="translate(0 0)" fill="#404254">
                <rect fill="#f2f5e9" fill-opacity="0.5" stroke="#606060" stroke-width=".5" x="0" y="0" width="60" height="60"/>
                <use id="zoomplus" xlink:href="#zoomPlus" x="17" y="9" onmousedown="handleZoom(evt,'in')"/>
                <use id="zoomminus" xlink:href="#zoomMin" x="42" y="9" onmousedown="handleZoom(evt,'out')"/>
                <use id="reset" xlink:href="#resetDef" x="30" y="36" onmousedown="handleReset()"/>
                <g id="arrowUp" xlink:href="#dirArrow" transform="translate(30 24)" onmousedown="handlePan(0,-1)">
                  <use xlink:href="#rim" fill="#404040">
                        <set attributeName="fill" to="#808080" begin="arrowUp.mouseover" end="arrowUp.mouseout"/>
                  </use>
                  <path fill="none" stroke="white" stroke-width="1.5" d="M0,-3.0v7 M-2.5,-0.5L0,-3.0L2.5,-0.5"/>
                </g>
                <g id="arrowRight" xlink:href="#dirArrow" transform="rotate(90) translate(36 -43)" onmousedown="handlePan(1,0)">
                  <use xlink:href="#rim" fill="#404040">
                        <set attributeName="fill" to="#808080" begin="arrowRight.mouseover" end="arrowRight.mouseout"/>
                  </use>
                  <path fill="none" stroke="white" stroke-width="1.5" d="M0,-3.0v7 M-2.5,-0.5L0,-3.0L2.5,-0.5"/>
                </g>
                <g id="arrowDown" xlink:href="#dirArrow" transform="rotate(180) translate(-30 -48)" onmousedown="handlePan(0,1)">
                  <use xlink:href="#rim" fill="#404040">
                        <set attributeName="fill" to="#808080" begin="arrowDown.mouseover" end="arrowDown.mouseout"/>
                  </use>
                  <path fill="none" stroke="white" stroke-width="1.5" d="M0,-3.0v7 M-2.5,-0.5L0,-3.0L2.5,-0.5"/>
                </g>
                <g id="arrowLeft" xlink:href="#dirArrow" transform="rotate(270) translate(-36 17)" onmousedown="handlePan(-1,0)">
                  <use xlink:href="#rim" fill="#404040">
                        <set attributeName="fill" to="#808080" begin="arrowLeft.mouseover" end="arrowLeft.mouseout"/>
                  </use>
                  <path fill="none" stroke="white" stroke-width="1.5" d="M0,-3.0v7 M-2.5,-0.5L0,-3.0L2.5,-0.5"/>
                </g>
        </g>
        <svg viewBox="0 0 15 15" width="100%" height="30px" preserveAspectRatio="xMaxYMin meet">
         <g id="arrow_out" transform="scale(0.3 0.3)">
          <a xlink:href="quickjs-libc_8c_a2e5a713d49edeef87d8ed87471679f39_icgraph_org.svg" target="_base">
           <rect id="button" ry="5" rx="5" y="6" x="6" height="38" width="38"
                fill="#f2f5e9" fill-opacity="0.5" stroke="#606060" stroke-width="1.0"/>
           <path id="arrow"
             d="M 11.500037,31.436501 C 11.940474,20.09759 22.043105,11.32322 32.158766,21.979434 L 37.068811,17.246167 C 37.068811,17.246167 37.088388,32 37.088388,32 L 22.160133,31.978069 C 22.160133,31.978069 26.997745,27.140456 26.997745,27.140456 C 18.528582,18.264221 13.291696,25.230495 11.500037,31.436501 z"
             style="fill:#404040;"/>
          </a>
         </g>
        </svg>
</svg>
