<?xml version="1.0" encoding="UTF-8" standalone="no"?>
<!DOCTYPE svg PUBLIC "-//W3C//DTD SVG 1.1//EN"
 "http://www.w3.org/Graphics/SVG/1.1/DTD/svg11.dtd">
<!-- Generated by graphviz version 2.40.1 (20161225.0304)
 -->
<!-- Title: js_date_setYear Pages: 1 -->
<svg width="749pt" height="465pt"
 viewBox="0.00 0.00 749.00 465.30" xmlns="http://www.w3.org/2000/svg" xmlns:xlink="http://www.w3.org/1999/xlink">
<g id="graph0" class="graph" transform="scale(1 1) rotate(0) translate(4 461.3008)">
<title>js_date_setYear</title>
<!-- Node468223 -->
<g id="node1" class="node">
<title>Node468223</title>
<polygon fill="#bfbfbf" stroke="#000000" points="0,-324.3017 0,-343.3017 87,-343.3017 87,-324.3017 0,-324.3017"/>
<text text-anchor="middle" x="43.5" y="-331.3017" font-family="Helvetica,sans-Serif" font-size="10.00" fill="#000000">js_date_setYear</text>
</g>
<!-- Node468224 -->
<g id="node2" class="node">
<title>Node468224</title>
<g id="a_node2"><a xlink:href="quickjs_8h.html#a9bf98b18de88b4199910a43e933eb97d" target="_top" xlink:title="__JS_NewFloat64">
<polygon fill="none" stroke="#000000" points="387.5,-400.3017 387.5,-419.3017 484.5,-419.3017 484.5,-400.3017 387.5,-400.3017"/>
<text text-anchor="middle" x="436" y="-407.3017" font-family="Helvetica,sans-Serif" font-size="10.00" fill="#000000">__JS_NewFloat64</text>
</a>
</g>
</g>
<!-- Node468223&#45;&gt;Node468224 -->
<g id="edge1" class="edge">
<title>Node468223&#45;&gt;Node468224</title>
<path fill="none" stroke="#191970" d="M87.0608,-342.4928C126.0657,-350.2529 184.8315,-361.8905 236,-371.8017 283.5606,-381.0142 337.5267,-391.2553 377.4044,-398.7825"/>
<polygon fill="#191970" stroke="#191970" points="377.0091,-402.2695 387.4846,-400.684 378.3067,-395.3909 377.0091,-402.2695"/>
</g>
<!-- Node468225 -->
<g id="node3" class="node">
<title>Node468225</title>
<g id="a_node3"><a xlink:href="quickjs_8c.html#a5ec6b290012ff91cab9950078724eea2" target="_top" xlink:title="JS_ThisTimeValue">
<polygon fill="none" stroke="#000000" points="386.5,-248.3017 386.5,-267.3017 485.5,-267.3017 485.5,-248.3017 386.5,-248.3017"/>
<text text-anchor="middle" x="436" y="-255.3017" font-family="Helvetica,sans-Serif" font-size="10.00" fill="#000000">JS_ThisTimeValue</text>
</a>
</g>
</g>
<!-- Node468223&#45;&gt;Node468225 -->
<g id="edge2" class="edge">
<title>Node468223&#45;&gt;Node468225</title>
<path fill="none" stroke="#191970" d="M53.2102,-323.9698C67.2064,-310.5253 94.5141,-286.9209 123,-276.8017 207.1199,-246.9194 311.8961,-247.5231 376.3529,-251.8183"/>
<polygon fill="#191970" stroke="#191970" points="376.1174,-255.3103 386.3423,-252.5353 376.6186,-248.3283 376.1174,-255.3103"/>
</g>
<!-- Node468227 -->
<g id="node5" class="node">
<title>Node468227</title>
<g id="a_node5"><a xlink:href="quickjs_8c.html#a8cc9386cd04cfa067d0c6bf588c6bb58" target="_top" xlink:title="JS_ToFloat64">
<polygon fill="none" stroke="#000000" points="526.5,-286.3017 526.5,-305.3017 603.5,-305.3017 603.5,-286.3017 526.5,-286.3017"/>
<text text-anchor="middle" x="565" y="-293.3017" font-family="Helvetica,sans-Serif" font-size="10.00" fill="#000000">JS_ToFloat64</text>
</a>
</g>
</g>
<!-- Node468223&#45;&gt;Node468227 -->
<g id="edge7" class="edge">
<title>Node468223&#45;&gt;Node468227</title>
<path fill="none" stroke="#191970" d="M57.5891,-343.4598C114.9583,-381.4883 335.0823,-514.6924 486,-428.8017 529.0315,-404.3115 551.0555,-346.1181 560.0122,-315.4656"/>
<polygon fill="#191970" stroke="#191970" points="563.4669,-316.1016 562.7355,-305.5321 556.716,-314.2508 563.4669,-316.1016"/>
</g>
<!-- Node468656 -->
<g id="node8" class="node">
<title>Node468656</title>
<g id="a_node8"><a xlink:href="quickjs_8c.html#a12803d7cccf6345067677bd4d25287ed" target="_top" xlink:title="set_date_field">
<polygon fill="none" stroke="#000000" points="123,-286.3017 123,-305.3017 200,-305.3017 200,-286.3017 123,-286.3017"/>
<text text-anchor="middle" x="161.5" y="-293.3017" font-family="Helvetica,sans-Serif" font-size="10.00" fill="#000000">set_date_field</text>
</a>
</g>
</g>
<!-- Node468223&#45;&gt;Node468656 -->
<g id="edge8" class="edge">
<title>Node468223&#45;&gt;Node468656</title>
<path fill="none" stroke="#191970" d="M73.2764,-324.2127C88.0898,-319.4423 106.1914,-313.613 122.1342,-308.4788"/>
<polygon fill="#191970" stroke="#191970" points="123.2874,-311.7846 131.7331,-305.3877 121.1416,-305.1215 123.2874,-311.7846"/>
</g>
<!-- Node468226 -->
<g id="node4" class="node">
<title>Node468226</title>
<g id="a_node4"><a xlink:href="quickjs_8h.html#ab995df176086f2a2a06ab777d4c4ef28" target="_top" xlink:title="JS_IsNumber">
<polygon fill="none" stroke="#000000" points="526.5,-248.3017 526.5,-267.3017 603.5,-267.3017 603.5,-248.3017 526.5,-248.3017"/>
<text text-anchor="middle" x="565" y="-255.3017" font-family="Helvetica,sans-Serif" font-size="10.00" fill="#000000">JS_IsNumber</text>
</a>
</g>
</g>
<!-- Node468225&#45;&gt;Node468226 -->
<g id="edge3" class="edge">
<title>Node468225&#45;&gt;Node468226</title>
<path fill="none" stroke="#191970" d="M485.5058,-257.8017C495.5253,-257.8017 506.0558,-257.8017 516.0558,-257.8017"/>
<polygon fill="#191970" stroke="#191970" points="516.2411,-261.3018 526.2411,-257.8017 516.2411,-254.3018 516.2411,-261.3018"/>
</g>
<!-- Node468225&#45;&gt;Node468227 -->
<g id="edge4" class="edge">
<title>Node468225&#45;&gt;Node468227</title>
<path fill="none" stroke="#191970" d="M468.5521,-267.3907C484.8993,-272.2062 504.9092,-278.1006 522.4571,-283.2697"/>
<polygon fill="#191970" stroke="#191970" points="521.8768,-286.7474 532.4583,-286.2158 523.8548,-280.0327 521.8768,-286.7474"/>
</g>
<!-- Node468228 -->
<g id="node6" class="node">
<title>Node468228</title>
<g id="a_node6"><a xlink:href="quickjs_8h.html#a775522f2d084fc8fa0fcb33f390006b4" target="_top" xlink:title="JS_DupValue">
<polygon fill="none" stroke="#000000" points="654,-324.3017 654,-343.3017 731,-343.3017 731,-324.3017 654,-324.3017"/>
<text text-anchor="middle" x="692.5" y="-331.3017" font-family="Helvetica,sans-Serif" font-size="10.00" fill="#000000">JS_DupValue</text>
</a>
</g>
</g>
<!-- Node468227&#45;&gt;Node468228 -->
<g id="edge5" class="edge">
<title>Node468227&#45;&gt;Node468228</title>
<path fill="none" stroke="#191970" d="M597.1736,-305.3907C613.3307,-310.2062 633.108,-316.1006 650.4518,-321.2697"/>
<polygon fill="#191970" stroke="#191970" points="649.7535,-324.7137 660.3367,-324.2158 651.7529,-318.0053 649.7535,-324.7137"/>
</g>
<!-- Node468229 -->
<g id="node7" class="node">
<title>Node468229</title>
<g id="a_node7"><a xlink:href="quickjs_8c.html#ab1b614ef35f1cea05da0ad4927c53118" target="_top" xlink:title="JS_ToFloat64Free">
<polygon fill="none" stroke="#ff0000" points="644,-286.3017 644,-305.3017 741,-305.3017 741,-286.3017 644,-286.3017"/>
<text text-anchor="middle" x="692.5" y="-293.3017" font-family="Helvetica,sans-Serif" font-size="10.00" fill="#000000">JS_ToFloat64Free</text>
</a>
</g>
</g>
<!-- Node468227&#45;&gt;Node468229 -->
<g id="edge6" class="edge">
<title>Node468227&#45;&gt;Node468229</title>
<path fill="none" stroke="#191970" d="M603.6002,-295.8017C613.0551,-295.8017 623.3891,-295.8017 633.5588,-295.8017"/>
<polygon fill="#191970" stroke="#191970" points="633.6353,-299.3018 643.6353,-295.8017 633.6353,-292.3018 633.6353,-299.3018"/>
</g>
<!-- Node468656&#45;&gt;Node468227 -->
<g id="edge21" class="edge">
<title>Node468656&#45;&gt;Node468227</title>
<path fill="none" stroke="#191970" d="M200.1893,-295.8017C274.0007,-295.8017 434.7856,-295.8017 515.9869,-295.8017"/>
<polygon fill="#191970" stroke="#191970" points="516.4279,-299.3018 526.4279,-295.8017 516.4278,-292.3018 516.4279,-299.3018"/>
</g>
<!-- Node468657 -->
<g id="node9" class="node">
<title>Node468657</title>
<g id="a_node9"><a xlink:href="quickjs_8c.html#af947cce291c0879ea04c45f257d7e540" target="_top" xlink:title="get_date_fields">
<polygon fill="none" stroke="#000000" points="251.5,-191.3017 251.5,-210.3017 334.5,-210.3017 334.5,-191.3017 251.5,-191.3017"/>
<text text-anchor="middle" x="293" y="-198.3017" font-family="Helvetica,sans-Serif" font-size="10.00" fill="#000000">get_date_fields</text>
</a>
</g>
</g>
<!-- Node468656&#45;&gt;Node468657 -->
<g id="edge9" class="edge">
<title>Node468656&#45;&gt;Node468657</title>
<path fill="none" stroke="#191970" d="M175.0775,-285.9929C197.9337,-269.4808 244.2652,-236.0094 271.5549,-216.2944"/>
<polygon fill="#191970" stroke="#191970" points="273.6358,-219.1089 279.6922,-210.4157 269.5366,-213.4347 273.6358,-219.1089"/>
</g>
<!-- Node468664 -->
<g id="node15" class="node">
<title>Node468664</title>
<g id="a_node15"><a xlink:href="quickjs_8c.html#a2b22b8155292ba44fdc8e130bc59ea05" target="_top" xlink:title="JS_SetThisTimeValue">
<polygon fill="none" stroke="#000000" points="236,-343.3017 236,-362.3017 350,-362.3017 350,-343.3017 236,-343.3017"/>
<text text-anchor="middle" x="293" y="-350.3017" font-family="Helvetica,sans-Serif" font-size="10.00" fill="#000000">JS_SetThisTimeValue</text>
</a>
</g>
</g>
<!-- Node468656&#45;&gt;Node468664 -->
<g id="edge17" class="edge">
<title>Node468656&#45;&gt;Node468664</title>
<path fill="none" stroke="#191970" d="M183.5101,-305.3422C204.8448,-314.59 237.4243,-328.7119 261.5018,-339.1485"/>
<polygon fill="#191970" stroke="#191970" points="260.3509,-342.4643 270.918,-343.2301 263.1349,-336.0417 260.3509,-342.4643"/>
</g>
<!-- Node468665 -->
<g id="node17" class="node">
<title>Node468665</title>
<g id="a_node17"><a xlink:href="quickjs_8c.html#acbfcb88375d84711233f4daf89b0c587" target="_top" xlink:title="set_date_fields">
<polygon fill="none" stroke="#000000" points="251.5,-77.3017 251.5,-96.3017 334.5,-96.3017 334.5,-77.3017 251.5,-77.3017"/>
<text text-anchor="middle" x="293" y="-84.3017" font-family="Helvetica,sans-Serif" font-size="10.00" fill="#000000">set_date_fields</text>
</a>
</g>
</g>
<!-- Node468656&#45;&gt;Node468665 -->
<g id="edge22" class="edge">
<title>Node468656&#45;&gt;Node468665</title>
<path fill="none" stroke="#191970" d="M167.492,-286.2783C187.8583,-253.909 254.6416,-147.7668 281.5814,-104.9499"/>
<polygon fill="#191970" stroke="#191970" points="284.6097,-106.709 286.9728,-96.381 278.6849,-102.9812 284.6097,-106.709"/>
</g>
<!-- Node468657&#45;&gt;Node468225 -->
<g id="edge12" class="edge">
<title>Node468657&#45;&gt;Node468225</title>
<path fill="none" stroke="#191970" d="M316.935,-210.3422C340.3417,-219.6722 376.1949,-233.9633 402.4432,-244.426"/>
<polygon fill="#191970" stroke="#191970" points="401.4017,-247.7786 411.9869,-248.2301 403.9936,-241.2761 401.4017,-247.7786"/>
</g>
<!-- Node468658 -->
<g id="node10" class="node">
<title>Node468658</title>
<g id="a_node10"><a xlink:href="quickjs_8c.html#a021e07d41b6d7239b3b44e7cbdff7a15" target="_top" xlink:title="days_in_year">
<polygon fill="none" stroke="#000000" points="528,-172.3017 528,-191.3017 602,-191.3017 602,-172.3017 528,-172.3017"/>
<text text-anchor="middle" x="565" y="-179.3017" font-family="Helvetica,sans-Serif" font-size="10.00" fill="#000000">days_in_year</text>
</a>
</g>
</g>
<!-- Node468657&#45;&gt;Node468658 -->
<g id="edge10" class="edge">
<title>Node468657&#45;&gt;Node468658</title>
<path fill="none" stroke="#191970" d="M334.5797,-203.6189C373.7792,-205.6097 434.0927,-206.956 486,-200.8017 498.2572,-199.3485 511.3647,-196.669 523.3092,-193.7713"/>
<polygon fill="#191970" stroke="#191970" points="524.1917,-197.1583 533.0249,-191.308 522.4714,-190.373 524.1917,-197.1583"/>
</g>
<!-- Node468659 -->
<g id="node11" class="node">
<title>Node468659</title>
<g id="a_node11"><a xlink:href="quickjs_8c.html#adecade3bf915770c66e0a27bc3458343" target="_top" xlink:title="getTimezoneOffset">
<polygon fill="none" stroke="#000000" points="386,-96.3017 386,-115.3017 486,-115.3017 486,-96.3017 386,-96.3017"/>
<text text-anchor="middle" x="436" y="-103.3017" font-family="Helvetica,sans-Serif" font-size="10.00" fill="#000000">getTimezoneOffset</text>
</a>
</g>
</g>
<!-- Node468657&#45;&gt;Node468659 -->
<g id="edge11" class="edge">
<title>Node468657&#45;&gt;Node468659</title>
<path fill="none" stroke="#191970" d="M302.5262,-191.2159C318.5435,-175.5365 352.423,-144.2119 386,-124.8017 389.4294,-122.8193 393.1041,-120.97 396.8472,-119.2645"/>
<polygon fill="#191970" stroke="#191970" points="398.3352,-122.4356 406.1917,-115.3273 395.6173,-115.9848 398.3352,-122.4356"/>
</g>
<!-- Node468660 -->
<g id="node12" class="node">
<title>Node468660</title>
<g id="a_node12"><a xlink:href="quickjs_8c.html#a5fe9e1898e97028fbd772ebc1e914ba8" target="_top" xlink:title="math_mod">
<polygon fill="none" stroke="#000000" points="405,-134.3017 405,-153.3017 467,-153.3017 467,-134.3017 405,-134.3017"/>
<text text-anchor="middle" x="436" y="-141.3017" font-family="Helvetica,sans-Serif" font-size="10.00" fill="#000000">math_mod</text>
</a>
</g>
</g>
<!-- Node468657&#45;&gt;Node468660 -->
<g id="edge13" class="edge">
<title>Node468657&#45;&gt;Node468660</title>
<path fill="none" stroke="#191970" d="M315.8679,-191.2736C334.6542,-183.4905 361.9852,-172.2691 386,-162.8017 390.8433,-160.8924 395.9632,-158.9081 401.0063,-156.9732"/>
<polygon fill="#191970" stroke="#191970" points="402.4204,-160.1799 410.5167,-153.3461 399.926,-153.6394 402.4204,-160.1799"/>
</g>
<!-- Node468661 -->
<g id="node13" class="node">
<title>Node468661</title>
<g id="a_node13"><a xlink:href="quickjs_8c.html#ad184eda067dc335c96fe9074d2da9a3d" target="_top" xlink:title="year_from_days">
<polygon fill="none" stroke="#ff0000" points="393,-172.3017 393,-191.3017 479,-191.3017 479,-172.3017 393,-172.3017"/>
<text text-anchor="middle" x="436" y="-179.3017" font-family="Helvetica,sans-Serif" font-size="10.00" fill="#000000">year_from_days</text>
</a>
</g>
</g>
<!-- Node468657&#45;&gt;Node468661 -->
<g id="edge14" class="edge">
<title>Node468657&#45;&gt;Node468661</title>
<path fill="none" stroke="#191970" d="M334.7459,-195.2551C349.7587,-193.2604 366.9016,-190.9826 382.76,-188.8756"/>
<polygon fill="#191970" stroke="#191970" points="383.5086,-192.307 392.9605,-187.5203 382.5866,-185.3679 383.5086,-192.307"/>
</g>
<!-- Node468661&#45;&gt;Node468658 -->
<g id="edge16" class="edge">
<title>Node468661&#45;&gt;Node468658</title>
<path fill="none" stroke="#191970" d="M479.314,-181.8017C491.5513,-181.8017 504.9332,-181.8017 517.4073,-181.8017"/>
<polygon fill="#191970" stroke="#191970" points="517.627,-185.3018 527.627,-181.8017 517.6269,-178.3018 517.627,-185.3018"/>
</g>
<!-- Node468662 -->
<g id="node14" class="node">
<title>Node468662</title>
<g id="a_node14"><a xlink:href="quickjs_8c.html#a3f5def6f020bd1c429735f0b1d079b5e" target="_top" xlink:title="days_from_year">
<polygon fill="none" stroke="#ff0000" points="522,-58.3017 522,-77.3017 608,-77.3017 608,-58.3017 522,-58.3017"/>
<text text-anchor="middle" x="565" y="-65.3017" font-family="Helvetica,sans-Serif" font-size="10.00" fill="#000000">days_from_year</text>
</a>
</g>
</g>
<!-- Node468661&#45;&gt;Node468662 -->
<g id="edge15" class="edge">
<title>Node468661&#45;&gt;Node468662</title>
<path fill="none" stroke="#191970" d="M468.4515,-172.269C474.5745,-169.7116 480.71,-166.5793 486,-162.8017 515.3682,-141.8302 540.2543,-107.3949 553.8661,-86.2485"/>
<polygon fill="#191970" stroke="#191970" points="556.9632,-87.8973 559.3025,-77.5639 551.0298,-84.1831 556.9632,-87.8973"/>
</g>
<!-- Node468664&#45;&gt;Node468224 -->
<g id="edge18" class="edge">
<title>Node468664&#45;&gt;Node468224</title>
<path fill="none" stroke="#191970" d="M315.8679,-362.3299C334.6542,-370.1129 361.9852,-381.3343 386,-390.8017 390.8433,-392.7111 395.9632,-394.6954 401.0063,-396.6302"/>
<polygon fill="#191970" stroke="#191970" points="399.926,-399.9641 410.5167,-400.2573 402.4204,-393.4236 399.926,-399.9641"/>
</g>
<!-- Node468664&#45;&gt;Node468228 -->
<g id="edge19" class="edge">
<title>Node468664&#45;&gt;Node468228</title>
<path fill="none" stroke="#191970" d="M350.2386,-350.0795C429.0568,-346.3309 569.6441,-339.6447 643.7286,-336.1213"/>
<polygon fill="#191970" stroke="#191970" points="643.9051,-339.6169 653.7275,-335.6457 643.5725,-332.6248 643.9051,-339.6169"/>
</g>
<!-- Node468244 -->
<g id="node16" class="node">
<title>Node468244</title>
<g id="a_node16"><a xlink:href="quickjs_8h.html#afaa20c47565bc704c6c85f3d77254e7d" target="_top" xlink:title="JS_FreeValue">
<polygon fill="none" stroke="#ff0000" points="397,-362.3017 397,-381.3017 475,-381.3017 475,-362.3017 397,-362.3017"/>
<text text-anchor="middle" x="436" y="-369.3017" font-family="Helvetica,sans-Serif" font-size="10.00" fill="#000000">JS_FreeValue</text>
</a>
</g>
</g>
<!-- Node468664&#45;&gt;Node468244 -->
<g id="edge20" class="edge">
<title>Node468664&#45;&gt;Node468244</title>
<path fill="none" stroke="#191970" d="M350.3396,-360.4203C362.3592,-362.0173 374.935,-363.6882 386.6337,-365.2426"/>
<polygon fill="#191970" stroke="#191970" points="386.2787,-368.7261 396.6526,-366.5738 387.2008,-361.7871 386.2787,-368.7261"/>
</g>
<!-- Node468665&#45;&gt;Node468658 -->
<g id="edge24" class="edge">
<title>Node468665&#45;&gt;Node468658</title>
<path fill="none" stroke="#191970" d="M333.2094,-77.268C373.8105,-69.7641 437.3105,-63.966 486,-86.8017 519.4962,-102.5117 543.717,-140.1754 555.956,-163.0797"/>
<polygon fill="#191970" stroke="#191970" points="552.9279,-164.8458 560.5936,-172.1593 559.1618,-161.6617 552.9279,-164.8458"/>
</g>
<!-- Node468665&#45;&gt;Node468659 -->
<g id="edge25" class="edge">
<title>Node468665&#45;&gt;Node468659</title>
<path fill="none" stroke="#191970" d="M334.7459,-92.3484C347.6153,-94.0583 362.05,-95.9762 375.899,-97.8163"/>
<polygon fill="#191970" stroke="#191970" points="375.4751,-101.2906 385.849,-99.1383 376.3971,-94.3516 375.4751,-101.2906"/>
</g>
<!-- Node468665&#45;&gt;Node468660 -->
<g id="edge26" class="edge">
<title>Node468665&#45;&gt;Node468660</title>
<path fill="none" stroke="#191970" d="M315.8679,-96.3299C334.6542,-104.1129 361.9852,-115.3343 386,-124.8017 390.8433,-126.7111 395.9632,-128.6954 401.0063,-130.6302"/>
<polygon fill="#191970" stroke="#191970" points="399.926,-133.9641 410.5167,-134.2573 402.4204,-127.4236 399.926,-133.9641"/>
</g>
<!-- Node468665&#45;&gt;Node468662 -->
<g id="edge23" class="edge">
<title>Node468665&#45;&gt;Node468662</title>
<path fill="none" stroke="#191970" d="M300.687,-77.1784C315.1819,-59.9011 348.488,-24.1798 386,-10.8017 427.8619,4.1276 443.7082,2.8627 486,-10.8017 510.4419,-18.6989 533.6877,-37.2876 548.5541,-51.1025"/>
<polygon fill="#191970" stroke="#191970" points="546.2765,-53.7684 555.9054,-58.1882 551.1343,-48.7284 546.2765,-53.7684"/>
</g>
<!-- Node468666 -->
<g id="node18" class="node">
<title>Node468666</title>
<g id="a_node18"><a xlink:href="quickjs_8c.html#a478ea24cf629522a55e209b2619334c7" target="_top" xlink:title="time_clip">
<polygon fill="none" stroke="#000000" points="408,-20.3017 408,-39.3017 464,-39.3017 464,-20.3017 408,-20.3017"/>
<text text-anchor="middle" x="436" y="-27.3017" font-family="Helvetica,sans-Serif" font-size="10.00" fill="#000000">time_clip</text>
</a>
</g>
</g>
<!-- Node468665&#45;&gt;Node468666 -->
<g id="edge27" class="edge">
<title>Node468665&#45;&gt;Node468666</title>
<path fill="none" stroke="#191970" d="M316.935,-77.2612C340.3417,-67.9313 376.1949,-53.6401 402.4432,-43.1775"/>
<polygon fill="#191970" stroke="#191970" points="403.9936,-46.3274 411.9869,-39.3734 401.4017,-39.8249 403.9936,-46.3274"/>
</g>
</g>
</svg>
