<?xml version="1.0" encoding="UTF-8" standalone="no"?>
<!DOCTYPE svg PUBLIC "-//W3C//DTD SVG 1.1//EN"
 "http://www.w3.org/Graphics/SVG/1.1/DTD/svg11.dtd">
<!-- Generated by graphviz version 2.40.1 (20161225.0304)
 -->
<!-- Title: js_std_fdopen Pages: 1 -->
<!--zoomable 237 -->
<svg id="main" version="1.1" xmlns="http://www.w3.org/2000/svg" xmlns:xlink="http://www.w3.org/1999/xlink" xml:space="preserve" onload="init(evt)">
<style type="text/css"><![CDATA[
.edge:hover path { stroke: red; }
.edge:hover polygon { stroke: red; fill: red; }
]]></style>
<script type="text/javascript"><![CDATA[
var edges = document.getElementsByTagName('g');
if (edges && edges.length) {
  for (var i=0;i<edges.length;i++) {
    if (edges[i].id.substr(0,4)=='edge') {
      edges[i].setAttribute('class','edge');
    }
  }
}
]]></script>
        <defs>
                <circle id="rim" cx="0" cy="0" r="7"/>
                <circle id="rim2" cx="0" cy="0" r="3.5"/>
                <g id="zoomPlus">
                        <use xlink:href="#rim" fill="#404040">
                                <set attributeName="fill" to="#808080" begin="zoomplus.mouseover" end="zoomplus.mouseout"/>
                        </use>
                        <path d="M-4,0h8M0,-4v8" fill="none" stroke="white" stroke-width="1.5" pointer-events="none"/>
                </g>
                <g id="zoomMin">
                        <use xlink:href="#rim" fill="#404040">
                                <set attributeName="fill" to="#808080" begin="zoomminus.mouseover" end="zoomminus.mouseout"/>
                        </use>
                        <path d="M-4,0h8" fill="none" stroke="white" stroke-width="1.5" pointer-events="none"/>
                </g>
                <g id="dirArrow">
                        <path fill="none" stroke="white" stroke-width="1.5" d="M0,-3.0v7 M-2.5,-0.5L0,-3.0L2.5,-0.5"/>
                </g>
               <g id="resetDef">
                       <use xlink:href="#rim2" fill="#404040">
                               <set attributeName="fill" to="#808080" begin="reset.mouseover" end="reset.mouseout"/>
                       </use>
               </g>
        </defs>

<script type="text/javascript">
var viewWidth = 819;
var viewHeight = 237;
var sectionId = 'dynsection-33';
</script>
<script xlink:href="svgpan.js"/>
<svg id="graph" class="graph">
<g id="viewport">
<title>js_std_fdopen</title>
<!-- Node6347 -->
<g id="node1" class="node">
<title>Node6347</title>
<polygon fill="#bfbfbf" stroke="#000000" points="0,-95.5 0,-114.5 77,-114.5 77,-95.5 0,-95.5"/>
<text text-anchor="middle" x="38.5" y="-102.5" font-family="Helvetica,sans-Serif" font-size="10.00" fill="#000000">js_std_fdopen</text>
</g>
<!-- Node6348 -->
<g id="node2" class="node">
<title>Node6348</title>
<g id="a_node2"><a xlink:href="quickjs_8c.html#ae0bc4f65da64810facb2cb9e476eda2e" target="_top" xlink:title="JS_FreeCString">
<polygon fill="none" stroke="#000000" points="254,-199.5 254,-218.5 340,-218.5 340,-199.5 254,-199.5"/>
<text text-anchor="middle" x="297" y="-206.5" font-family="Helvetica,sans-Serif" font-size="10.00" fill="#000000">JS_FreeCString</text>
</a>
</g>
</g>
<!-- Node6347&#45;&gt;Node6348 -->
<g id="edge1" class="edge">
<title>Node6347&#45;&gt;Node6348</title>
<path fill="none" stroke="#191970" d="M45.5165,-114.6505C57.4636,-130.2985 83.3619,-160.9671 113,-176 153.743,-196.6655 205.3124,-204.5821 243.4834,-207.522"/>
<polygon fill="#191970" stroke="#191970" points="243.6605,-211.0419 253.8742,-208.2256 244.1335,-204.0579 243.6605,-211.0419"/>
</g>
<!-- Node6386 -->
<g id="node5" class="node">
<title>Node6386</title>
<g id="a_node5"><a xlink:href="quickjs-libc_8c.html#a4f611dfcb682754b3f25bb3e06f61ab5" target="_top" xlink:title="js_new_std_file">
<polygon fill="none" stroke="#000000" points="399,-171.5 399,-190.5 483,-190.5 483,-171.5 399,-171.5"/>
<text text-anchor="middle" x="441" y="-178.5" font-family="Helvetica,sans-Serif" font-size="10.00" fill="#000000">js_new_std_file</text>
</a>
</g>
</g>
<!-- Node6347&#45;&gt;Node6386 -->
<g id="edge4" class="edge">
<title>Node6347&#45;&gt;Node6386</title>
<path fill="none" stroke="#191970" d="M73.6124,-114.5521C86.009,-117.7657 100.0782,-121.2338 113,-124 209.8336,-144.7291 323.9709,-163.2432 388.8757,-173.222"/>
<polygon fill="#191970" stroke="#191970" points="388.4453,-176.6968 398.8596,-174.7493 389.5039,-169.7773 388.4453,-176.6968"/>
</g>
<!-- Node6434 -->
<g id="node10" class="node">
<title>Node6434</title>
<g id="a_node10"><a xlink:href="quickjs-libc_8c.html#a5802fe689f97b693173247111a01a76a" target="_top" xlink:title="js_set_error_object">
<polygon fill="none" stroke="#000000" points="113,-95.5 113,-114.5 212,-114.5 212,-95.5 113,-95.5"/>
<text text-anchor="middle" x="162.5" y="-102.5" font-family="Helvetica,sans-Serif" font-size="10.00" fill="#000000">js_set_error_object</text>
</a>
</g>
</g>
<!-- Node6347&#45;&gt;Node6434 -->
<g id="edge10" class="edge">
<title>Node6347&#45;&gt;Node6434</title>
<path fill="none" stroke="#191970" d="M77.0547,-105C85.1283,-105 93.8241,-105 102.4688,-105"/>
<polygon fill="#191970" stroke="#191970" points="102.5531,-108.5001 112.553,-105 102.553,-101.5001 102.5531,-108.5001"/>
</g>
<!-- Node6524 -->
<g id="node17" class="node">
<title>Node6524</title>
<g id="a_node17"><a xlink:href="quickjs_8h.html#af931f06630ab719b5f82a16eb27effd1" target="_top" xlink:title="JS_ToCString">
<polygon fill="none" stroke="#ff0000" points="123.5,-57.5 123.5,-76.5 201.5,-76.5 201.5,-57.5 123.5,-57.5"/>
<text text-anchor="middle" x="162.5" y="-64.5" font-family="Helvetica,sans-Serif" font-size="10.00" fill="#000000">JS_ToCString</text>
</a>
</g>
</g>
<!-- Node6347&#45;&gt;Node6524 -->
<g id="edge21" class="edge">
<title>Node6347&#45;&gt;Node6524</title>
<path fill="none" stroke="#191970" d="M69.7904,-95.411C85.5039,-90.5956 104.7383,-84.7012 121.6061,-79.532"/>
<polygon fill="#191970" stroke="#191970" points="122.684,-82.8624 131.2196,-76.5859 120.6329,-76.1696 122.684,-82.8624"/>
</g>
<!-- Node6575 -->
<g id="node18" class="node">
<title>Node6575</title>
<g id="a_node18"><a xlink:href="quickjs_8c.html#a4073bd2b4f247bf6077cd956759193b9" target="_top" xlink:title="JS_ToInt32">
<polygon fill="none" stroke="#ff0000" points="129,-19.5 129,-38.5 196,-38.5 196,-19.5 129,-19.5"/>
<text text-anchor="middle" x="162.5" y="-26.5" font-family="Helvetica,sans-Serif" font-size="10.00" fill="#000000">JS_ToInt32</text>
</a>
</g>
</g>
<!-- Node6347&#45;&gt;Node6575 -->
<g id="edge22" class="edge">
<title>Node6347&#45;&gt;Node6575</title>
<path fill="none" stroke="#191970" d="M48.9214,-95.4582C62.7379,-83.1913 88.2665,-61.8283 113,-48 116.4712,-46.0593 120.1806,-44.2325 123.9489,-42.5364"/>
<polygon fill="#191970" stroke="#191970" points="125.4674,-45.6949 133.3352,-38.5993 122.7597,-39.2398 125.4674,-45.6949"/>
</g>
<!-- Node6349 -->
<g id="node3" class="node">
<title>Node6349</title>
<g id="a_node3"><a xlink:href="quickjs_8h.html#afaa20c47565bc704c6c85f3d77254e7d" target="_top" xlink:title="JS_FreeValue">
<polygon fill="none" stroke="#000000" points="551,-209.5 551,-228.5 629,-228.5 629,-209.5 551,-209.5"/>
<text text-anchor="middle" x="590" y="-216.5" font-family="Helvetica,sans-Serif" font-size="10.00" fill="#000000">JS_FreeValue</text>
</a>
</g>
</g>
<!-- Node6348&#45;&gt;Node6349 -->
<g id="edge2" class="edge">
<title>Node6348&#45;&gt;Node6349</title>
<path fill="none" stroke="#191970" d="M340.2332,-210.4755C393.7325,-212.3014 484.6149,-215.4032 540.7517,-217.3192"/>
<polygon fill="#191970" stroke="#191970" points="540.6989,-220.8193 550.8125,-217.6625 540.9377,-213.8234 540.6989,-220.8193"/>
</g>
<!-- Node6350 -->
<g id="node4" class="node">
<title>Node6350</title>
<g id="a_node4"><a xlink:href="quickjs_8c.html#aa059f309c30fd5166d16c82a97973146" target="_top" xlink:title="__JS_FreeValue">
<polygon fill="none" stroke="#ff0000" points="701,-209.5 701,-228.5 790,-228.5 790,-209.5 701,-209.5"/>
<text text-anchor="middle" x="745.5" y="-216.5" font-family="Helvetica,sans-Serif" font-size="10.00" fill="#000000">__JS_FreeValue</text>
</a>
</g>
</g>
<!-- Node6349&#45;&gt;Node6350 -->
<g id="edge3" class="edge">
<title>Node6349&#45;&gt;Node6350</title>
<path fill="none" stroke="#191970" d="M629.2392,-219C647.8655,-219 670.4368,-219 690.7176,-219"/>
<polygon fill="#191970" stroke="#191970" points="690.7707,-222.5001 700.7707,-219 690.7706,-215.5001 690.7707,-222.5001"/>
</g>
<!-- Node6386&#45;&gt;Node6349 -->
<g id="edge5" class="edge">
<title>Node6386&#45;&gt;Node6349</title>
<path fill="none" stroke="#191970" d="M478.599,-190.589C498.084,-195.5583 522.0745,-201.6767 542.7958,-206.9613"/>
<polygon fill="#191970" stroke="#191970" points="542.1166,-210.4001 552.6714,-209.4799 543.8465,-203.6172 542.1166,-210.4001"/>
</g>
<!-- Node6387 -->
<g id="node6" class="node">
<title>Node6387</title>
<g id="a_node6"><a xlink:href="quickjs_8h.html#ad80a83d73e9b7d872b88fbf2943aebe9" target="_top" xlink:title="JS_IsException">
<polygon fill="none" stroke="#000000" points="547,-95.5 547,-114.5 633,-114.5 633,-95.5 547,-95.5"/>
<text text-anchor="middle" x="590" y="-102.5" font-family="Helvetica,sans-Serif" font-size="10.00" fill="#000000">JS_IsException</text>
</a>
</g>
</g>
<!-- Node6386&#45;&gt;Node6387 -->
<g id="edge6" class="edge">
<title>Node6386&#45;&gt;Node6387</title>
<path fill="none" stroke="#191970" d="M480.3257,-171.3916C487.1574,-168.8806 493.99,-165.7846 500,-162 519.6864,-149.6032 516.4814,-136.6593 536,-124 539.1008,-121.9889 542.4402,-120.1612 545.8834,-118.506"/>
<polygon fill="#191970" stroke="#191970" points="547.3453,-121.6873 555.148,-114.52 544.5788,-115.2571 547.3453,-121.6873"/>
</g>
<!-- Node6388 -->
<g id="node7" class="node">
<title>Node6388</title>
<g id="a_node7"><a xlink:href="quickjs_8c.html#a659dc0db7e440fd6eb012d613627faa3" target="_top" xlink:title="JS_NewObjectClass">
<polygon fill="none" stroke="#000000" points="536,-171.5 536,-190.5 644,-190.5 644,-171.5 536,-171.5"/>
<text text-anchor="middle" x="590" y="-178.5" font-family="Helvetica,sans-Serif" font-size="10.00" fill="#000000">JS_NewObjectClass</text>
</a>
</g>
</g>
<!-- Node6386&#45;&gt;Node6388 -->
<g id="edge7" class="edge">
<title>Node6386&#45;&gt;Node6388</title>
<path fill="none" stroke="#191970" d="M483.2989,-181C496.4531,-181 511.2659,-181 525.5736,-181"/>
<polygon fill="#191970" stroke="#191970" points="525.8718,-184.5001 535.8718,-181 525.8717,-177.5001 525.8718,-184.5001"/>
</g>
<!-- Node6433 -->
<g id="node9" class="node">
<title>Node6433</title>
<g id="a_node9"><a xlink:href="quickjs_8c.html#a0ddf716409e51648f0d59e7521150d19" target="_top" xlink:title="JS_SetOpaque">
<polygon fill="none" stroke="#000000" points="548.5,-133.5 548.5,-152.5 631.5,-152.5 631.5,-133.5 548.5,-133.5"/>
<text text-anchor="middle" x="590" y="-140.5" font-family="Helvetica,sans-Serif" font-size="10.00" fill="#000000">JS_SetOpaque</text>
</a>
</g>
</g>
<!-- Node6386&#45;&gt;Node6433 -->
<g id="edge9" class="edge">
<title>Node6386&#45;&gt;Node6433</title>
<path fill="none" stroke="#191970" d="M478.599,-171.411C498.084,-166.4417 522.0745,-160.3233 542.7958,-155.0387"/>
<polygon fill="#191970" stroke="#191970" points="543.8465,-158.3828 552.6714,-152.5201 542.1166,-151.5999 543.8465,-158.3828"/>
</g>
<!-- Node6389 -->
<g id="node8" class="node">
<title>Node6389</title>
<g id="a_node8"><a xlink:href="quickjs_8c.html#a73738c650f11459db0d7af3dcdf8316b" target="_top" xlink:title="JS_NewObjectProtoClass">
<polygon fill="none" stroke="#ff0000" points="680,-171.5 680,-190.5 811,-190.5 811,-171.5 680,-171.5"/>
<text text-anchor="middle" x="745.5" y="-178.5" font-family="Helvetica,sans-Serif" font-size="10.00" fill="#000000">JS_NewObjectProtoClass</text>
</a>
</g>
</g>
<!-- Node6388&#45;&gt;Node6389 -->
<g id="edge8" class="edge">
<title>Node6388&#45;&gt;Node6389</title>
<path fill="none" stroke="#191970" d="M644.3864,-181C652.6327,-181 661.2656,-181 669.864,-181"/>
<polygon fill="#191970" stroke="#191970" points="669.9167,-184.5001 679.9167,-181 669.9167,-177.5001 669.9167,-184.5001"/>
</g>
<!-- Node6435 -->
<g id="node11" class="node">
<title>Node6435</title>
<g id="a_node11"><a xlink:href="quickjs_8h.html#a4e407128a9605afb77523e49e9a627fd" target="_top" xlink:title="JS_IsUndefined">
<polygon fill="none" stroke="#000000" points="547,-38.5 547,-57.5 633,-57.5 633,-38.5 547,-38.5"/>
<text text-anchor="middle" x="590" y="-45.5" font-family="Helvetica,sans-Serif" font-size="10.00" fill="#000000">JS_IsUndefined</text>
</a>
</g>
</g>
<!-- Node6434&#45;&gt;Node6435 -->
<g id="edge11" class="edge">
<title>Node6434&#45;&gt;Node6435</title>
<path fill="none" stroke="#191970" d="M190.1202,-95.4003C231.299,-81.6474 311.507,-57.0035 382,-48 434.2848,-41.3221 494.5673,-42.2593 536.7296,-44.2988"/>
<polygon fill="#191970" stroke="#191970" points="536.606,-47.797 546.7746,-44.8221 536.9702,-40.8065 536.606,-47.797"/>
</g>
<!-- Node6432 -->
<g id="node12" class="node">
<title>Node6432</title>
<g id="a_node12"><a xlink:href="quickjs_8h.html#a2050bc428da1c65ac7eb87c3fa3b0392" target="_top" xlink:title="JS_NewInt32">
<polygon fill="none" stroke="#000000" points="552,-.5 552,-19.5 628,-19.5 628,-.5 552,-.5"/>
<text text-anchor="middle" x="590" y="-7.5" font-family="Helvetica,sans-Serif" font-size="10.00" fill="#000000">JS_NewInt32</text>
</a>
</g>
</g>
<!-- Node6434&#45;&gt;Node6432 -->
<g id="edge12" class="edge">
<title>Node6434&#45;&gt;Node6432</title>
<path fill="none" stroke="#191970" d="M193.2812,-95.4091C199.704,-92.8052 206.2612,-89.6696 212,-86 230.8005,-73.9785 227.8609,-60.6121 248,-51 344.506,-4.9388 473.0605,-3.2217 541.8029,-6.3729"/>
<polygon fill="#191970" stroke="#191970" points="541.7379,-9.8741 551.9042,-6.8914 542.0968,-2.8833 541.7379,-9.8741"/>
</g>
<!-- Node6436 -->
<g id="node13" class="node">
<title>Node6436</title>
<g id="a_node13"><a xlink:href="quickjs_8c.html#a62617fe11025d2e5a545db069fc28e64" target="_top" xlink:title="JS_SetPropertyStr">
<polygon fill="none" stroke="#000000" points="248,-95.5 248,-114.5 346,-114.5 346,-95.5 248,-95.5"/>
<text text-anchor="middle" x="297" y="-102.5" font-family="Helvetica,sans-Serif" font-size="10.00" fill="#000000">JS_SetPropertyStr</text>
</a>
</g>
</g>
<!-- Node6434&#45;&gt;Node6436 -->
<g id="edge13" class="edge">
<title>Node6434&#45;&gt;Node6436</title>
<path fill="none" stroke="#191970" d="M212.2007,-105C220.5,-105 229.1828,-105 237.6934,-105"/>
<polygon fill="#191970" stroke="#191970" points="237.9519,-108.5001 247.9518,-105 237.9518,-101.5001 237.9519,-108.5001"/>
</g>
<!-- Node6437 -->
<g id="node14" class="node">
<title>Node6437</title>
<g id="a_node14"><a xlink:href="quickjs_8c.html#aa2ef5af1544a3012f91a80c98c326b8f" target="_top" xlink:title="JS_NewAtom">
<polygon fill="none" stroke="#ff0000" points="402.5,-133.5 402.5,-152.5 479.5,-152.5 479.5,-133.5 402.5,-133.5"/>
<text text-anchor="middle" x="441" y="-140.5" font-family="Helvetica,sans-Serif" font-size="10.00" fill="#000000">JS_NewAtom</text>
</a>
</g>
</g>
<!-- Node6436&#45;&gt;Node6437 -->
<g id="edge14" class="edge">
<title>Node6436&#45;&gt;Node6437</title>
<path fill="none" stroke="#191970" d="M333.3373,-114.589C352.0829,-119.5358 375.1432,-125.6211 395.1066,-130.8892"/>
<polygon fill="#191970" stroke="#191970" points="394.3619,-134.3125 404.924,-133.4799 396.1481,-127.5442 394.3619,-134.3125"/>
</g>
<!-- Node6477 -->
<g id="node15" class="node">
<title>Node6477</title>
<g id="a_node15"><a xlink:href="quickjs_8c.html#ad7f03358a8088ca920ab308225c6b2e6" target="_top" xlink:title="JS_SetPropertyInternal">
<polygon fill="none" stroke="#ff0000" points="382,-95.5 382,-114.5 500,-114.5 500,-95.5 382,-95.5"/>
<text text-anchor="middle" x="441" y="-102.5" font-family="Helvetica,sans-Serif" font-size="10.00" fill="#000000">JS_SetPropertyInternal</text>
</a>
</g>
</g>
<!-- Node6436&#45;&gt;Node6477 -->
<g id="edge15" class="edge">
<title>Node6436&#45;&gt;Node6477</title>
<path fill="none" stroke="#191970" d="M346.1539,-105C354.411,-105 363.1153,-105 371.7662,-105"/>
<polygon fill="#191970" stroke="#191970" points="371.8673,-108.5001 381.8672,-105 371.8672,-101.5001 371.8673,-108.5001"/>
</g>
<!-- Node6368 -->
<g id="node16" class="node">
<title>Node6368</title>
<g id="a_node16"><a xlink:href="quickjs_8c.html#ab7fc45a99935a1c0ba50b0216d9401a9" target="_top" xlink:title="JS_FreeAtom">
<polygon fill="none" stroke="#ff0000" points="402.5,-57.5 402.5,-76.5 479.5,-76.5 479.5,-57.5 402.5,-57.5"/>
<text text-anchor="middle" x="441" y="-64.5" font-family="Helvetica,sans-Serif" font-size="10.00" fill="#000000">JS_FreeAtom</text>
</a>
</g>
</g>
<!-- Node6436&#45;&gt;Node6368 -->
<g id="edge20" class="edge">
<title>Node6436&#45;&gt;Node6368</title>
<path fill="none" stroke="#191970" d="M333.3373,-95.411C352.0829,-90.4642 375.1432,-84.3789 395.1066,-79.1108"/>
<polygon fill="#191970" stroke="#191970" points="396.1481,-82.4558 404.924,-76.5201 394.3619,-75.6875 396.1481,-82.4558"/>
</g>
<!-- Node6477&#45;&gt;Node6349 -->
<g id="edge16" class="edge">
<title>Node6477&#45;&gt;Node6349</title>
<path fill="none" stroke="#191970" d="M484.7709,-114.5284C490.2893,-116.9948 495.5503,-120.0974 500,-124 528.0996,-148.6445 508.2329,-174.9815 536,-200 537.7397,-201.5675 539.6167,-203.0074 541.5908,-204.33"/>
<polygon fill="#191970" stroke="#191970" points="540.3024,-207.6177 550.7448,-209.4084 543.6983,-201.4966 540.3024,-207.6177"/>
</g>
<!-- Node6477&#45;&gt;Node6387 -->
<g id="edge18" class="edge">
<title>Node6477&#45;&gt;Node6387</title>
<path fill="none" stroke="#191970" d="M500.3169,-105C512.3684,-105 524.9734,-105 536.7972,-105"/>
<polygon fill="#191970" stroke="#191970" points="536.9531,-108.5001 546.953,-105 536.953,-101.5001 536.9531,-108.5001"/>
</g>
<!-- Node6477&#45;&gt;Node6435 -->
<g id="edge19" class="edge">
<title>Node6477&#45;&gt;Node6435</title>
<path fill="none" stroke="#191970" d="M472.4083,-95.4506C481.3766,-92.5715 491.1225,-89.2963 500,-86 519.9371,-78.5972 541.9355,-69.3296 559.1928,-61.8001"/>
<polygon fill="#191970" stroke="#191970" points="561.0096,-64.8247 568.7544,-57.5949 558.1915,-58.417 561.0096,-64.8247"/>
</g>
<!-- Node6477&#45;&gt;Node6432 -->
<g id="edge17" class="edge">
<title>Node6477&#45;&gt;Node6432</title>
<path fill="none" stroke="#191970" d="M483.1291,-95.4736C489.1438,-92.9966 494.9824,-89.8903 500,-86 523.6794,-67.6407 512.5685,-47.6746 536,-29 538.2587,-27.1998 540.7006,-25.5635 543.2548,-24.077"/>
<polygon fill="#191970" stroke="#191970" points="544.8835,-27.1759 552.2696,-19.5801 541.7588,-20.912 544.8835,-27.1759"/>
</g>
</g>
</svg>
        <g id="navigator" transform="translate(0 0)" fill="#404254">
                <rect fill="#f2f5e9" fill-opacity="0.5" stroke="#606060" stroke-width=".5" x="0" y="0" width="60" height="60"/>
                <use id="zoomplus" xlink:href="#zoomPlus" x="17" y="9" onmousedown="handleZoom(evt,'in')"/>
                <use id="zoomminus" xlink:href="#zoomMin" x="42" y="9" onmousedown="handleZoom(evt,'out')"/>
                <use id="reset" xlink:href="#resetDef" x="30" y="36" onmousedown="handleReset()"/>
                <g id="arrowUp" xlink:href="#dirArrow" transform="translate(30 24)" onmousedown="handlePan(0,-1)">
                  <use xlink:href="#rim" fill="#404040">
                        <set attributeName="fill" to="#808080" begin="arrowUp.mouseover" end="arrowUp.mouseout"/>
                  </use>
                  <path fill="none" stroke="white" stroke-width="1.5" d="M0,-3.0v7 M-2.5,-0.5L0,-3.0L2.5,-0.5"/>
                </g>
                <g id="arrowRight" xlink:href="#dirArrow" transform="rotate(90) translate(36 -43)" onmousedown="handlePan(1,0)">
                  <use xlink:href="#rim" fill="#404040">
                        <set attributeName="fill" to="#808080" begin="arrowRight.mouseover" end="arrowRight.mouseout"/>
                  </use>
                  <path fill="none" stroke="white" stroke-width="1.5" d="M0,-3.0v7 M-2.5,-0.5L0,-3.0L2.5,-0.5"/>
                </g>
                <g id="arrowDown" xlink:href="#dirArrow" transform="rotate(180) translate(-30 -48)" onmousedown="handlePan(0,1)">
                  <use xlink:href="#rim" fill="#404040">
                        <set attributeName="fill" to="#808080" begin="arrowDown.mouseover" end="arrowDown.mouseout"/>
                  </use>
                  <path fill="none" stroke="white" stroke-width="1.5" d="M0,-3.0v7 M-2.5,-0.5L0,-3.0L2.5,-0.5"/>
                </g>
                <g id="arrowLeft" xlink:href="#dirArrow" transform="rotate(270) translate(-36 17)" onmousedown="handlePan(-1,0)">
                  <use xlink:href="#rim" fill="#404040">
                        <set attributeName="fill" to="#808080" begin="arrowLeft.mouseover" end="arrowLeft.mouseout"/>
                  </use>
                  <path fill="none" stroke="white" stroke-width="1.5" d="M0,-3.0v7 M-2.5,-0.5L0,-3.0L2.5,-0.5"/>
                </g>
        </g>
        <svg viewBox="0 0 15 15" width="100%" height="30px" preserveAspectRatio="xMaxYMin meet">
         <g id="arrow_out" transform="scale(0.3 0.3)">
          <a xlink:href="quickjs-libc_8c_a51bfedac363e39a4273635aa7810425a_cgraph_org.svg" target="_base">
           <rect id="button" ry="5" rx="5" y="6" x="6" height="38" width="38"
                fill="#f2f5e9" fill-opacity="0.5" stroke="#606060" stroke-width="1.0"/>
           <path id="arrow"
             d="M 11.500037,31.436501 C 11.940474,20.09759 22.043105,11.32322 32.158766,21.979434 L 37.068811,17.246167 C 37.068811,17.246167 37.088388,32 37.088388,32 L 22.160133,31.978069 C 22.160133,31.978069 26.997745,27.140456 26.997745,27.140456 C 18.528582,18.264221 13.291696,25.230495 11.500037,31.436501 z"
             style="fill:#404040;"/>
          </a>
         </g>
        </svg>
</svg>
