<?xml version="1.0" encoding="UTF-8" standalone="no"?>
<!DOCTYPE svg PUBLIC "-//W3C//DTD SVG 1.1//EN"
 "http://www.w3.org/Graphics/SVG/1.1/DTD/svg11.dtd">
<!-- Generated by graphviz version 2.40.1 (20161225.0304)
 -->
<!-- Title: JS_IteratorNext2 Pages: 1 -->
<!--zoomable 370 -->
<svg id="main" version="1.1" xmlns="http://www.w3.org/2000/svg" xmlns:xlink="http://www.w3.org/1999/xlink" xml:space="preserve" onload="init(evt)">
<style type="text/css"><![CDATA[
.edge:hover path { stroke: red; }
.edge:hover polygon { stroke: red; fill: red; }
]]></style>
<script type="text/javascript"><![CDATA[
var edges = document.getElementsByTagName('g');
if (edges && edges.length) {
  for (var i=0;i<edges.length;i++) {
    if (edges[i].id.substr(0,4)=='edge') {
      edges[i].setAttribute('class','edge');
    }
  }
}
]]></script>
        <defs>
                <circle id="rim" cx="0" cy="0" r="7"/>
                <circle id="rim2" cx="0" cy="0" r="3.5"/>
                <g id="zoomPlus">
                        <use xlink:href="#rim" fill="#404040">
                                <set attributeName="fill" to="#808080" begin="zoomplus.mouseover" end="zoomplus.mouseout"/>
                        </use>
                        <path d="M-4,0h8M0,-4v8" fill="none" stroke="white" stroke-width="1.5" pointer-events="none"/>
                </g>
                <g id="zoomMin">
                        <use xlink:href="#rim" fill="#404040">
                                <set attributeName="fill" to="#808080" begin="zoomminus.mouseover" end="zoomminus.mouseout"/>
                        </use>
                        <path d="M-4,0h8" fill="none" stroke="white" stroke-width="1.5" pointer-events="none"/>
                </g>
                <g id="dirArrow">
                        <path fill="none" stroke="white" stroke-width="1.5" d="M0,-3.0v7 M-2.5,-0.5L0,-3.0L2.5,-0.5"/>
                </g>
               <g id="resetDef">
                       <use xlink:href="#rim2" fill="#404040">
                               <set attributeName="fill" to="#808080" begin="reset.mouseover" end="reset.mouseout"/>
                       </use>
               </g>
        </defs>

<script type="text/javascript">
var viewWidth = 509;
var viewHeight = 370;
var sectionId = 'dynsection-806';
</script>
<script xlink:href="svgpan.js"/>
<svg id="graph" class="graph">
<g id="viewport">
<title>JS_IteratorNext2</title>
<!-- Node278963 -->
<g id="node1" class="node">
<title>Node278963</title>
<polygon fill="#bfbfbf" stroke="#000000" points="0,-193.5 0,-212.5 91,-212.5 91,-193.5 0,-193.5"/>
<text text-anchor="middle" x="45.5" y="-200.5" font-family="Helvetica,sans-Serif" font-size="10.00" fill="#000000">JS_IteratorNext2</text>
</g>
<!-- Node278964 -->
<g id="node2" class="node">
<title>Node278964</title>
<g id="a_node2"><a xlink:href="quickjs_8c.html#aa45afa6d2861615f29444c9614ce766a" target="_top" xlink:title="js_async_from_sync\l_iterator_next">
<polygon fill="none" stroke="#000000" points="127,-210 127,-240 234,-240 234,-210 127,-210"/>
<text text-anchor="start" x="135" y="-228" font-family="Helvetica,sans-Serif" font-size="10.00" fill="#000000">js_async_from_sync</text>
<text text-anchor="middle" x="180.5" y="-217" font-family="Helvetica,sans-Serif" font-size="10.00" fill="#000000">_iterator_next</text>
</a>
</g>
</g>
<!-- Node278963&#45;&gt;Node278964 -->
<g id="edge1" class="edge">
<title>Node278963&#45;&gt;Node278964</title>
<path fill="none" stroke="#191970" d="M101.0752,-212.0567C109.6153,-213.4484 118.4185,-214.883 126.9142,-216.2675"/>
<polygon fill="#191970" stroke="#191970" points="101.6376,-208.6023 91.2048,-210.4482 100.5117,-215.5111 101.6376,-208.6023"/>
</g>
<!-- Node278965 -->
<g id="node3" class="node">
<title>Node278965</title>
<g id="a_node3"><a xlink:href="quickjs_8c.html#a44f6eee98516c994a594533cfa8618ed" target="_top" xlink:title="JS_IteratorNext">
<polygon fill="none" stroke="#000000" points="137.5,-171.5 137.5,-190.5 223.5,-190.5 223.5,-171.5 137.5,-171.5"/>
<text text-anchor="middle" x="180.5" y="-178.5" font-family="Helvetica,sans-Serif" font-size="10.00" fill="#000000">JS_IteratorNext</text>
</a>
</g>
</g>
<!-- Node278963&#45;&gt;Node278965 -->
<g id="edge2" class="edge">
<title>Node278963&#45;&gt;Node278965</title>
<path fill="none" stroke="#191970" d="M101.1346,-193.9336C113.142,-191.9769 125.6666,-189.9358 137.1235,-188.0688"/>
<polygon fill="#191970" stroke="#191970" points="100.5117,-190.4889 91.2048,-195.5518 101.6376,-197.3977 100.5117,-190.4889"/>
</g>
<!-- Node278966 -->
<g id="node4" class="node">
<title>Node278966</title>
<g id="a_node4"><a xlink:href="quickjs_8c.html#ab75e30a0aee430042ee90fa8458a81ee" target="_top" xlink:title="js_for_of_next">
<polygon fill="none" stroke="#000000" points="287,-342.5 287,-361.5 365,-361.5 365,-342.5 287,-342.5"/>
<text text-anchor="middle" x="326" y="-349.5" font-family="Helvetica,sans-Serif" font-size="10.00" fill="#000000">js_for_of_next</text>
</a>
</g>
</g>
<!-- Node278965&#45;&gt;Node278966 -->
<g id="edge3" class="edge">
<title>Node278965&#45;&gt;Node278966</title>
<path fill="none" stroke="#191970" d="M228.7327,-196.1799C230.627,-197.642 232.398,-199.2443 234,-201 274.9873,-245.9201 228.3291,-288.7132 270,-333 274.6433,-337.9348 280.6146,-341.588 286.9205,-344.2924"/>
<polygon fill="#191970" stroke="#191970" points="230.1219,-192.9229 219.7792,-190.625 226.4315,-198.8711 230.1219,-192.9229"/>
</g>
<!-- Node279012 -->
<g id="node6" class="node">
<title>Node279012</title>
<g id="a_node6"><a xlink:href="quickjs_8c.html#a43208b0746998d2b6b9b8bd1ef8b5f99" target="_top" xlink:title="js_append_enumerate">
<polygon fill="none" stroke="#000000" points="270,-304.5 270,-323.5 382,-323.5 382,-304.5 270,-304.5"/>
<text text-anchor="middle" x="326" y="-311.5" font-family="Helvetica,sans-Serif" font-size="10.00" fill="#000000">js_append_enumerate</text>
</a>
</g>
</g>
<!-- Node278965&#45;&gt;Node279012 -->
<g id="edge6" class="edge">
<title>Node278965&#45;&gt;Node279012</title>
<path fill="none" stroke="#191970" d="M227.7465,-195.8316C229.985,-197.3883 232.0905,-199.1057 234,-201 265.76,-232.5069 237.7609,-263.9835 270,-295 274.0692,-298.9149 278.9747,-302.0246 284.1694,-304.4943"/>
<polygon fill="#191970" stroke="#191970" points="229.0041,-192.5187 218.5864,-190.5894 225.5272,-198.5942 229.0041,-192.5187"/>
</g>
<!-- Node279018 -->
<g id="node7" class="node">
<title>Node279018</title>
<g id="a_node7"><a xlink:href="quickjs_8c.html#ad6908ae6db4e80d175180b55e19b203e" target="_top" xlink:title="js_object_fromEntries">
<polygon fill="none" stroke="#000000" points="270.5,-266.5 270.5,-285.5 381.5,-285.5 381.5,-266.5 270.5,-266.5"/>
<text text-anchor="middle" x="326" y="-273.5" font-family="Helvetica,sans-Serif" font-size="10.00" fill="#000000">js_object_fromEntries</text>
</a>
</g>
</g>
<!-- Node278965&#45;&gt;Node279018 -->
<g id="edge8" class="edge">
<title>Node278965&#45;&gt;Node279018</title>
<path fill="none" stroke="#191970" d="M225.0792,-195.0233C228.2374,-196.8002 231.2537,-198.7855 234,-201 257.0329,-219.5726 246.6852,-238.7825 270,-257 274.9348,-260.8559 280.6974,-263.953 286.6132,-266.434"/>
<polygon fill="#191970" stroke="#191970" points="226.4315,-191.7887 215.9094,-190.5495 223.3621,-198.0799 226.4315,-191.7887"/>
</g>
<!-- Node279009 -->
<g id="node8" class="node">
<title>Node279009</title>
<g id="a_node8"><a xlink:href="quickjs_8c.html#a9f70dbefcf33550d6f9e588c05c9ffef" target="_top" xlink:title="iterator_to_array">
<polygon fill="none" stroke="#ff0000" points="282.5,-228.5 282.5,-247.5 369.5,-247.5 369.5,-228.5 282.5,-228.5"/>
<text text-anchor="middle" x="326" y="-235.5" font-family="Helvetica,sans-Serif" font-size="10.00" fill="#000000">iterator_to_array</text>
</a>
</g>
</g>
<!-- Node278965&#45;&gt;Node279009 -->
<g id="edge9" class="edge">
<title>Node278965&#45;&gt;Node279009</title>
<path fill="none" stroke="#191970" d="M217.0896,-194.0888C222.7905,-196.2973 228.5835,-198.6413 234,-201 250.401,-208.142 253.4915,-212.1102 270,-219 278.1481,-222.4006 287.1415,-225.6607 295.4928,-228.4908"/>
<polygon fill="#191970" stroke="#191970" points="218.2565,-190.7882 207.665,-190.5214 215.7784,-197.3349 218.2565,-190.7882"/>
</g>
<!-- Node279014 -->
<g id="node9" class="node">
<title>Node279014</title>
<g id="a_node9"><a xlink:href="quickjs_8c.html#a5e32da9a43002cb96dcbd62a1a340144" target="_top" xlink:title="js_array_from">
<polygon fill="none" stroke="#000000" points="288,-190.5 288,-209.5 364,-209.5 364,-190.5 288,-190.5"/>
<text text-anchor="middle" x="326" y="-197.5" font-family="Helvetica,sans-Serif" font-size="10.00" fill="#000000">js_array_from</text>
</a>
</g>
</g>
<!-- Node278965&#45;&gt;Node279014 -->
<g id="edge10" class="edge">
<title>Node278965&#45;&gt;Node279014</title>
<path fill="none" stroke="#191970" d="M234.0001,-187.9863C251.7747,-190.3073 271.2012,-192.8441 287.6036,-194.986"/>
<polygon fill="#191970" stroke="#191970" points="234.1299,-184.4736 223.7609,-186.6492 233.2234,-191.4147 234.1299,-184.4736"/>
</g>
<!-- Node279016 -->
<g id="node10" class="node">
<title>Node279016</title>
<g id="a_node10"><a xlink:href="quickjs_8c.html#a27dcb5e2923cd6c0201c70546d704748" target="_top" xlink:title="js_map_constructor">
<polygon fill="none" stroke="#ff0000" points="275,-152.5 275,-171.5 377,-171.5 377,-152.5 275,-152.5"/>
<text text-anchor="middle" x="326" y="-159.5" font-family="Helvetica,sans-Serif" font-size="10.00" fill="#000000">js_map_constructor</text>
</a>
</g>
</g>
<!-- Node278965&#45;&gt;Node279016 -->
<g id="edge11" class="edge">
<title>Node278965&#45;&gt;Node279016</title>
<path fill="none" stroke="#191970" d="M233.8148,-174.0379C247.2492,-172.2836 261.6379,-170.4047 274.9579,-168.6653"/>
<polygon fill="#191970" stroke="#191970" points="233.2234,-170.5853 223.7609,-175.3508 234.1299,-177.5264 233.2234,-170.5853"/>
</g>
<!-- Node279019 -->
<g id="node11" class="node">
<title>Node279019</title>
<g id="a_node11"><a xlink:href="quickjs_8c.html#a7a5c4f3ad3260974d9a0c75120ce5647" target="_top" xlink:title="js_promise_all">
<polygon fill="none" stroke="#000000" points="286.5,-114.5 286.5,-133.5 365.5,-133.5 365.5,-114.5 286.5,-114.5"/>
<text text-anchor="middle" x="326" y="-121.5" font-family="Helvetica,sans-Serif" font-size="10.00" fill="#000000">js_promise_all</text>
</a>
</g>
</g>
<!-- Node278965&#45;&gt;Node279019 -->
<g id="edge12" class="edge">
<title>Node278965&#45;&gt;Node279019</title>
<path fill="none" stroke="#191970" d="M211.174,-167.3084C228.3471,-159.8121 250.2223,-150.5418 270,-143 278.5376,-139.7444 287.9073,-136.456 296.4987,-133.5511"/>
<polygon fill="#191970" stroke="#191970" points="209.4043,-164.263 201.6575,-171.4906 212.2206,-170.6715 209.4043,-164.263"/>
</g>
<!-- Node279020 -->
<g id="node12" class="node">
<title>Node279020</title>
<g id="a_node12"><a xlink:href="quickjs_8c.html#a44e36674957b179c1963f7046c049d14" target="_top" xlink:title="js_promise_race">
<polygon fill="none" stroke="#000000" points="282,-76.5 282,-95.5 370,-95.5 370,-76.5 282,-76.5"/>
<text text-anchor="middle" x="326" y="-83.5" font-family="Helvetica,sans-Serif" font-size="10.00" fill="#000000">js_promise_race</text>
</a>
</g>
</g>
<!-- Node278965&#45;&gt;Node279020 -->
<g id="edge13" class="edge">
<title>Node278965&#45;&gt;Node279020</title>
<path fill="none" stroke="#191970" d="M196.8968,-163.687C213.8115,-146.6972 241.6518,-121.0641 270,-105 276.5205,-101.305 283.8758,-98.1724 291.0597,-95.5818"/>
<polygon fill="#191970" stroke="#191970" points="193.9936,-161.6509 189.5166,-171.2533 199.0046,-166.5387 193.9936,-161.6509"/>
</g>
<!-- Node279015 -->
<g id="node13" class="node">
<title>Node279015</title>
<g id="a_node13"><a xlink:href="quickjs_8c.html#a5f46f50deddd4e3a23da24e8173db28e" target="_top" xlink:title="js_typed_array_from">
<polygon fill="none" stroke="#000000" points="273.5,-38.5 273.5,-57.5 378.5,-57.5 378.5,-38.5 273.5,-38.5"/>
<text text-anchor="middle" x="326" y="-45.5" font-family="Helvetica,sans-Serif" font-size="10.00" fill="#000000">js_typed_array_from</text>
</a>
</g>
</g>
<!-- Node278965&#45;&gt;Node279015 -->
<g id="edge14" class="edge">
<title>Node278965&#45;&gt;Node279015</title>
<path fill="none" stroke="#191970" d="M190.5316,-162.2983C204.9249,-137.1616 233.7426,-92.6747 270,-67 275.4461,-63.1435 281.7368,-60.0205 288.0922,-57.5071"/>
<polygon fill="#191970" stroke="#191970" points="187.3842,-160.7565 185.5786,-171.1963 193.5005,-164.1611 187.3842,-160.7565"/>
</g>
<!-- Node278990 -->
<g id="node14" class="node">
<title>Node278990</title>
<g id="a_node14"><a xlink:href="quickjs_8c.html#a54596af885c45bf0281d53985349e9ef" target="_top" xlink:title="js_array_from_iterator">
<polygon fill="none" stroke="#ff0000" points="270.5,-.5 270.5,-19.5 381.5,-19.5 381.5,-.5 270.5,-.5"/>
<text text-anchor="middle" x="326" y="-7.5" font-family="Helvetica,sans-Serif" font-size="10.00" fill="#000000">js_array_from_iterator</text>
</a>
</g>
</g>
<!-- Node278965&#45;&gt;Node278990 -->
<g id="edge15" class="edge">
<title>Node278965&#45;&gt;Node278990</title>
<path fill="none" stroke="#191970" d="M186.8418,-161.6366C198.3327,-129.4984 225.6045,-65.1121 270,-29 274.7787,-25.1129 280.3935,-22.0042 286.1901,-19.5226"/>
<polygon fill="#191970" stroke="#191970" points="183.4912,-160.6172 183.5479,-171.2119 190.1105,-162.8943 183.4912,-160.6172"/>
</g>
<!-- Node278967 -->
<g id="node5" class="node">
<title>Node278967</title>
<g id="a_node5"><a xlink:href="quickjs_8c.html#ac2894ff4edcdb4e6841bcce9c76081e3" target="_top" xlink:title="JS_CallInternal">
<polygon fill="none" stroke="#ff0000" points="418,-323.5 418,-342.5 501,-342.5 501,-323.5 418,-323.5"/>
<text text-anchor="middle" x="459.5" y="-330.5" font-family="Helvetica,sans-Serif" font-size="10.00" fill="#000000">JS_CallInternal</text>
</a>
</g>
</g>
<!-- Node278966&#45;&gt;Node278967 -->
<g id="edge4" class="edge">
<title>Node278966&#45;&gt;Node278967</title>
<path fill="none" stroke="#191970" d="M375.2463,-344.9912C389.1797,-343.0081 404.208,-340.8693 417.6603,-338.9547"/>
<polygon fill="#191970" stroke="#191970" points="374.7394,-341.5279 365.3323,-346.4021 375.7258,-348.4581 374.7394,-341.5279"/>
</g>
<!-- Node278967&#45;&gt;Node278967 -->
<g id="edge5" class="edge">
<title>Node278967&#45;&gt;Node278967</title>
<path fill="none" stroke="#191970" d="M434.9465,-352.0292C436.2858,-357.128 444.4703,-361 459.5,-361 482.9609,-361 489.7426,-351.5653 479.845,-342.7571"/>
<polygon fill="#191970" stroke="#191970" points="438.209,-353.3096 439.155,-342.7571 431.8348,-350.4164 438.209,-353.3096"/>
</g>
<!-- Node279012&#45;&gt;Node278967 -->
<g id="edge7" class="edge">
<title>Node279012&#45;&gt;Node278967</title>
<path fill="none" stroke="#191970" d="M392.4045,-323.4508C401.1057,-324.6892 409.8148,-325.9287 417.9402,-327.0851"/>
<polygon fill="#191970" stroke="#191970" points="392.6225,-319.9467 382.2291,-322.0026 391.6361,-326.8768 392.6225,-319.9467"/>
</g>
</g>
</svg>
        <g id="navigator" transform="translate(0 0)" fill="#404254">
                <rect fill="#f2f5e9" fill-opacity="0.5" stroke="#606060" stroke-width=".5" x="0" y="0" width="60" height="60"/>
                <use id="zoomplus" xlink:href="#zoomPlus" x="17" y="9" onmousedown="handleZoom(evt,'in')"/>
                <use id="zoomminus" xlink:href="#zoomMin" x="42" y="9" onmousedown="handleZoom(evt,'out')"/>
                <use id="reset" xlink:href="#resetDef" x="30" y="36" onmousedown="handleReset()"/>
                <g id="arrowUp" xlink:href="#dirArrow" transform="translate(30 24)" onmousedown="handlePan(0,-1)">
                  <use xlink:href="#rim" fill="#404040">
                        <set attributeName="fill" to="#808080" begin="arrowUp.mouseover" end="arrowUp.mouseout"/>
                  </use>
                  <path fill="none" stroke="white" stroke-width="1.5" d="M0,-3.0v7 M-2.5,-0.5L0,-3.0L2.5,-0.5"/>
                </g>
                <g id="arrowRight" xlink:href="#dirArrow" transform="rotate(90) translate(36 -43)" onmousedown="handlePan(1,0)">
                  <use xlink:href="#rim" fill="#404040">
                        <set attributeName="fill" to="#808080" begin="arrowRight.mouseover" end="arrowRight.mouseout"/>
                  </use>
                  <path fill="none" stroke="white" stroke-width="1.5" d="M0,-3.0v7 M-2.5,-0.5L0,-3.0L2.5,-0.5"/>
                </g>
                <g id="arrowDown" xlink:href="#dirArrow" transform="rotate(180) translate(-30 -48)" onmousedown="handlePan(0,1)">
                  <use xlink:href="#rim" fill="#404040">
                        <set attributeName="fill" to="#808080" begin="arrowDown.mouseover" end="arrowDown.mouseout"/>
                  </use>
                  <path fill="none" stroke="white" stroke-width="1.5" d="M0,-3.0v7 M-2.5,-0.5L0,-3.0L2.5,-0.5"/>
                </g>
                <g id="arrowLeft" xlink:href="#dirArrow" transform="rotate(270) translate(-36 17)" onmousedown="handlePan(-1,0)">
                  <use xlink:href="#rim" fill="#404040">
                        <set attributeName="fill" to="#808080" begin="arrowLeft.mouseover" end="arrowLeft.mouseout"/>
                  </use>
                  <path fill="none" stroke="white" stroke-width="1.5" d="M0,-3.0v7 M-2.5,-0.5L0,-3.0L2.5,-0.5"/>
                </g>
        </g>
        <svg viewBox="0 0 15 15" width="100%" height="30px" preserveAspectRatio="xMaxYMin meet">
         <g id="arrow_out" transform="scale(0.3 0.3)">
          <a xlink:href="quickjs_8c_ad6303fbd3add4afa0cb64b0aa6d431ce_icgraph_org.svg" target="_base">
           <rect id="button" ry="5" rx="5" y="6" x="6" height="38" width="38"
                fill="#f2f5e9" fill-opacity="0.5" stroke="#606060" stroke-width="1.0"/>
           <path id="arrow"
             d="M 11.500037,31.436501 C 11.940474,20.09759 22.043105,11.32322 32.158766,21.979434 L 37.068811,17.246167 C 37.068811,17.246167 37.088388,32 37.088388,32 L 22.160133,31.978069 C 22.160133,31.978069 26.997745,27.140456 26.997745,27.140456 C 18.528582,18.264221 13.291696,25.230495 11.500037,31.436501 z"
             style="fill:#404040;"/>
          </a>
         </g>
        </svg>
</svg>
