<?xml version="1.0" encoding="UTF-8" standalone="no"?>
<!DOCTYPE svg PUBLIC "-//W3C//DTD SVG 1.1//EN"
 "http://www.w3.org/Graphics/SVG/1.1/DTD/svg11.dtd">
<!-- Generated by graphviz version 2.40.1 (20161225.0304)
 -->
<!-- Title: find_atom Pages: 1 -->
<!--zoomable 518 -->
<svg id="main" version="1.1" xmlns="http://www.w3.org/2000/svg" xmlns:xlink="http://www.w3.org/1999/xlink" xml:space="preserve" onload="init(evt)">
<style type="text/css"><![CDATA[
.edge:hover path { stroke: red; }
.edge:hover polygon { stroke: red; fill: red; }
]]></style>
<script type="text/javascript"><![CDATA[
var edges = document.getElementsByTagName('g');
if (edges && edges.length) {
  for (var i=0;i<edges.length;i++) {
    if (edges[i].id.substr(0,4)=='edge') {
      edges[i].setAttribute('class','edge');
    }
  }
}
]]></script>
        <defs>
                <circle id="rim" cx="0" cy="0" r="7"/>
                <circle id="rim2" cx="0" cy="0" r="3.5"/>
                <g id="zoomPlus">
                        <use xlink:href="#rim" fill="#404040">
                                <set attributeName="fill" to="#808080" begin="zoomplus.mouseover" end="zoomplus.mouseout"/>
                        </use>
                        <path d="M-4,0h8M0,-4v8" fill="none" stroke="white" stroke-width="1.5" pointer-events="none"/>
                </g>
                <g id="zoomMin">
                        <use xlink:href="#rim" fill="#404040">
                                <set attributeName="fill" to="#808080" begin="zoomminus.mouseover" end="zoomminus.mouseout"/>
                        </use>
                        <path d="M-4,0h8" fill="none" stroke="white" stroke-width="1.5" pointer-events="none"/>
                </g>
                <g id="dirArrow">
                        <path fill="none" stroke="white" stroke-width="1.5" d="M0,-3.0v7 M-2.5,-0.5L0,-3.0L2.5,-0.5"/>
                </g>
               <g id="resetDef">
                       <use xlink:href="#rim2" fill="#404040">
                               <set attributeName="fill" to="#808080" begin="reset.mouseover" end="reset.mouseout"/>
                       </use>
               </g>
        </defs>

<script type="text/javascript">
var viewWidth = 747;
var viewHeight = 518;
var sectionId = 'dynsection-1364';
</script>
<script xlink:href="svgpan.js"/>
<svg id="graph" class="graph">
<g id="viewport">
<title>find_atom</title>
<!-- Node364806 -->
<g id="node1" class="node">
<title>Node364806</title>
<polygon fill="#bfbfbf" stroke="#000000" points="0,-241.9555 0,-260.9555 59,-260.9555 59,-241.9555 0,-241.9555"/>
<text text-anchor="middle" x="29.5" y="-248.9555" font-family="Helvetica,sans-Serif" font-size="10.00" fill="#000000">find_atom</text>
</g>
<!-- Node364807 -->
<g id="node2" class="node">
<title>Node364807</title>
<g id="a_node2"><a xlink:href="quickjs_8c.html#ac00854b7f1f0f8567af964a2f8f2adb0" target="_top" xlink:title="JS_SetPropertyFunctionList">
<polygon fill="none" stroke="#000000" points="95,-241.9555 95,-260.9555 234,-260.9555 234,-241.9555 95,-241.9555"/>
<text text-anchor="middle" x="164.5" y="-248.9555" font-family="Helvetica,sans-Serif" font-size="10.00" fill="#000000">JS_SetPropertyFunctionList</text>
</a>
</g>
</g>
<!-- Node364806&#45;&gt;Node364807 -->
<g id="edge1" class="edge">
<title>Node364806&#45;&gt;Node364807</title>
<path fill="none" stroke="#191970" d="M69.3127,-251.4555C77.3786,-251.4555 86.0825,-251.4555 94.8351,-251.4555"/>
<polygon fill="#191970" stroke="#191970" points="69.1264,-247.9556 59.1263,-251.4555 69.1263,-254.9556 69.1264,-247.9556"/>
</g>
<!-- Node364808 -->
<g id="node3" class="node">
<title>Node364808</title>
<g id="a_node3"><a xlink:href="quickjs-libc_8c.html#a08cea1a0226b7603e6969e2208d99d55" target="_top" xlink:title="js_std_init">
<polygon fill="none" stroke="#000000" points="497,-478.9555 497,-497.9555 558,-497.9555 558,-478.9555 497,-478.9555"/>
<text text-anchor="middle" x="527.5" y="-485.9555" font-family="Helvetica,sans-Serif" font-size="10.00" fill="#000000">js_std_init</text>
</a>
</g>
</g>
<!-- Node364807&#45;&gt;Node364808 -->
<g id="edge2" class="edge">
<title>Node364807&#45;&gt;Node364808</title>
<path fill="none" stroke="#191970" d="M166.8157,-271.1789C173.3751,-317.0605 196.6442,-430.7449 270,-479.4555 339.6849,-525.7285 444.9626,-509.2018 496.6514,-496.9313"/>
<polygon fill="#191970" stroke="#191970" points="170.2588,-270.5156 165.4878,-261.0558 163.3182,-271.4261 170.2588,-270.5156"/>
</g>
<!-- Node364813 -->
<g id="node5" class="node">
<title>Node364813</title>
<g id="a_node5"><a xlink:href="quickjs-libc_8c.html#a066e7962ce24f22d5df20968a8baa346" target="_top" xlink:title="js_os_init">
<polygon fill="none" stroke="#ff0000" points="498.5,-431.9555 498.5,-450.9555 556.5,-450.9555 556.5,-431.9555 498.5,-431.9555"/>
<text text-anchor="middle" x="527.5" y="-438.9555" font-family="Helvetica,sans-Serif" font-size="10.00" fill="#000000">js_os_init</text>
</a>
</g>
</g>
<!-- Node364807&#45;&gt;Node364813 -->
<g id="edge4" class="edge">
<title>Node364807&#45;&gt;Node364813</title>
<path fill="none" stroke="#191970" d="M176.9042,-269.4248C194.7343,-293.9379 229.9088,-337.641 270,-362.4555 344.7513,-408.723 448.5831,-429.6403 498.4695,-437.4882"/>
<polygon fill="#191970" stroke="#191970" points="179.5945,-267.1687 170.9458,-261.0489 173.8906,-271.2264 179.5945,-267.1687"/>
</g>
<!-- Node364815 -->
<g id="node6" class="node">
<title>Node364815</title>
<g id="a_node6"><a xlink:href="quickjs_8c.html#a04f1ec3f8d1f5c012280eb23e64a7b58" target="_top" xlink:title="JS_SetModuleExportList">
<polygon fill="none" stroke="#000000" points="279.5,-450.9555 279.5,-469.9555 404.5,-469.9555 404.5,-450.9555 279.5,-450.9555"/>
<text text-anchor="middle" x="342" y="-457.9555" font-family="Helvetica,sans-Serif" font-size="10.00" fill="#000000">JS_SetModuleExportList</text>
</a>
</g>
</g>
<!-- Node364807&#45;&gt;Node364815 -->
<g id="edge5" class="edge">
<title>Node364807&#45;&gt;Node364815</title>
<path fill="none" stroke="#191970" d="M170.3354,-270.8258C182.5995,-308.2916 214.5881,-390.9881 270,-436.4555 277.6395,-442.724 286.9826,-447.3795 296.3753,-450.829"/>
<polygon fill="#191970" stroke="#191970" points="173.6237,-269.6155 167.2766,-261.1323 166.9482,-271.7221 173.6237,-269.6155"/>
</g>
<!-- Node364816 -->
<g id="node7" class="node">
<title>Node364816</title>
<g id="a_node7"><a xlink:href="quickjs_8c.html#abd9525850b564b2c2d2cb6ddfd89b1c6" target="_top" xlink:title="JS_AddIntrinsicStringNormalize">
<polygon fill="none" stroke="#000000" points="450,-374.9555 450,-393.9555 605,-393.9555 605,-374.9555 450,-374.9555"/>
<text text-anchor="middle" x="527.5" y="-381.9555" font-family="Helvetica,sans-Serif" font-size="10.00" fill="#000000">JS_AddIntrinsicStringNormalize</text>
</a>
</g>
</g>
<!-- Node364807&#45;&gt;Node364816 -->
<g id="edge8" class="edge">
<title>Node364807&#45;&gt;Node364816</title>
<path fill="none" stroke="#191970" d="M182.3101,-267.8253C202.2121,-285.225 236.1098,-312.278 270,-327.4555 327.4583,-353.1878 397.479,-367.7217 449.9915,-375.6634"/>
<polygon fill="#191970" stroke="#191970" points="184.472,-265.0638 174.6784,-261.0221 179.814,-270.289 184.472,-265.0638"/>
</g>
<!-- Node364818 -->
<g id="node9" class="node">
<title>Node364818</title>
<g id="a_node9"><a xlink:href="quickjs_8c.html#aafc8241682ce24b6d72e0f237ee85a51" target="_top" xlink:title="JS_AddIntrinsicRegExp">
<polygon fill="none" stroke="#000000" points="467,-336.9555 467,-355.9555 588,-355.9555 588,-336.9555 467,-336.9555"/>
<text text-anchor="middle" x="527.5" y="-343.9555" font-family="Helvetica,sans-Serif" font-size="10.00" fill="#000000">JS_AddIntrinsicRegExp</text>
</a>
</g>
</g>
<!-- Node364807&#45;&gt;Node364818 -->
<g id="edge10" class="edge">
<title>Node364807&#45;&gt;Node364818</title>
<path fill="none" stroke="#191970" d="M191.6002,-265.6558C212.5151,-276.0862 242.4392,-289.8786 270,-298.4555 335.8913,-318.9607 414.1458,-332.0223 466.9535,-339.2599"/>
<polygon fill="#191970" stroke="#191970" points="193.168,-262.5266 182.6655,-261.1308 190.0053,-268.7714 193.168,-262.5266"/>
</g>
<!-- Node364819 -->
<g id="node10" class="node">
<title>Node364819</title>
<g id="a_node10"><a xlink:href="quickjs_8c.html#ac43d15fc0b5d1b90ae3c92779ab12725" target="_top" xlink:title="JS_AddIntrinsicJSON">
<polygon fill="none" stroke="#000000" points="471,-298.9555 471,-317.9555 584,-317.9555 584,-298.9555 471,-298.9555"/>
<text text-anchor="middle" x="527.5" y="-305.9555" font-family="Helvetica,sans-Serif" font-size="10.00" fill="#000000">JS_AddIntrinsicJSON</text>
</a>
</g>
</g>
<!-- Node364807&#45;&gt;Node364819 -->
<g id="edge12" class="edge">
<title>Node364807&#45;&gt;Node364819</title>
<path fill="none" stroke="#191970" d="M214.4332,-263.2354C231.9432,-267.1284 251.7846,-271.2731 270,-274.4555 338.74,-286.4651 418.4677,-296.3793 470.7808,-302.3429"/>
<polygon fill="#191970" stroke="#191970" points="214.9475,-259.7637 204.4229,-260.9816 213.4099,-266.5927 214.9475,-259.7637"/>
</g>
<!-- Node364820 -->
<g id="node11" class="node">
<title>Node364820</title>
<g id="a_node11"><a xlink:href="quickjs_8c.html#a3afdbdd7b58ef7e1dcc178c362071b3d" target="_top" xlink:title="JS_AddIntrinsicProxy">
<polygon fill="none" stroke="#000000" points="472,-260.9555 472,-279.9555 583,-279.9555 583,-260.9555 472,-260.9555"/>
<text text-anchor="middle" x="527.5" y="-267.9555" font-family="Helvetica,sans-Serif" font-size="10.00" fill="#000000">JS_AddIntrinsicProxy</text>
</a>
</g>
</g>
<!-- Node364807&#45;&gt;Node364820 -->
<g id="edge14" class="edge">
<title>Node364807&#45;&gt;Node364820</title>
<path fill="none" stroke="#191970" d="M244.4386,-255.6396C313.3641,-259.2473 411.1069,-264.3633 471.8369,-267.542"/>
<polygon fill="#191970" stroke="#191970" points="244.2299,-252.124 234.0605,-255.0964 243.8639,-259.1144 244.2299,-252.124"/>
</g>
<!-- Node364821 -->
<g id="node12" class="node">
<title>Node364821</title>
<g id="a_node12"><a xlink:href="quickjs_8c.html#a4497f8c7cf2ec38da989910ae8b1f042" target="_top" xlink:title="JS_AddIntrinsicMapSet">
<polygon fill="none" stroke="#000000" points="282.5,-222.9555 282.5,-241.9555 401.5,-241.9555 401.5,-222.9555 282.5,-222.9555"/>
<text text-anchor="middle" x="342" y="-229.9555" font-family="Helvetica,sans-Serif" font-size="10.00" fill="#000000">JS_AddIntrinsicMapSet</text>
</a>
</g>
</g>
<!-- Node364807&#45;&gt;Node364821 -->
<g id="edge16" class="edge">
<title>Node364807&#45;&gt;Node364821</title>
<path fill="none" stroke="#191970" d="M244.3175,-242.9117C257.0961,-241.5438 270.1244,-240.1492 282.3279,-238.8429"/>
<polygon fill="#191970" stroke="#191970" points="243.7139,-239.4562 234.1433,-244.0007 244.459,-246.4164 243.7139,-239.4562"/>
</g>
<!-- Node364822 -->
<g id="node13" class="node">
<title>Node364822</title>
<g id="a_node13"><a xlink:href="quickjs_8c.html#a2e66fcf1bc1d19f346317f10ee590621" target="_top" xlink:title="JS_AddIntrinsicPromise">
<polygon fill="none" stroke="#000000" points="281,-184.9555 281,-203.9555 403,-203.9555 403,-184.9555 281,-184.9555"/>
<text text-anchor="middle" x="342" y="-191.9555" font-family="Helvetica,sans-Serif" font-size="10.00" fill="#000000">JS_AddIntrinsicPromise</text>
</a>
</g>
</g>
<!-- Node364807&#45;&gt;Node364822 -->
<g id="edge18" class="edge">
<title>Node364807&#45;&gt;Node364822</title>
<path fill="none" stroke="#191970" d="M198.564,-238.3272C219.1047,-230.6264 245.8797,-220.9661 270,-213.4555 280.7387,-210.1117 292.494,-206.8462 303.3347,-203.9921"/>
<polygon fill="#191970" stroke="#191970" points="197.1382,-235.1244 189.0201,-241.9322 199.6118,-241.6728 197.1382,-235.1244"/>
</g>
<!-- Node364823 -->
<g id="node14" class="node">
<title>Node364823</title>
<g id="a_node14"><a xlink:href="quickjs_8c.html#a8ecbf5799518b7bfc3fefd47c7a0dd4e" target="_top" xlink:title="JS_AddIntrinsicDate">
<polygon fill="none" stroke="#000000" points="288.5,-146.9555 288.5,-165.9555 395.5,-165.9555 395.5,-146.9555 288.5,-146.9555"/>
<text text-anchor="middle" x="342" y="-153.9555" font-family="Helvetica,sans-Serif" font-size="10.00" fill="#000000">JS_AddIntrinsicDate</text>
</a>
</g>
</g>
<!-- Node364807&#45;&gt;Node364823 -->
<g id="edge20" class="edge">
<title>Node364807&#45;&gt;Node364823</title>
<path fill="none" stroke="#191970" d="M182.7499,-235.0704C202.7964,-217.8848 236.6,-191.2261 270,-175.4555 278.0663,-171.6468 287.0149,-168.511 295.7843,-165.9619"/>
<polygon fill="#191970" stroke="#191970" points="180.2756,-232.5843 175.0421,-241.7963 184.8781,-237.8586 180.2756,-232.5843"/>
</g>
<!-- Node364824 -->
<g id="node15" class="node">
<title>Node364824</title>
<g id="a_node15"><a xlink:href="quickjs_8c.html#a7efb53c2f76fd5cc0e584449437ec09c" target="_top" xlink:title="JS_AddIntrinsicBasicObjects">
<polygon fill="none" stroke="#000000" points="270,-108.9555 270,-127.9555 414,-127.9555 414,-108.9555 270,-108.9555"/>
<text text-anchor="middle" x="342" y="-115.9555" font-family="Helvetica,sans-Serif" font-size="10.00" fill="#000000">JS_AddIntrinsicBasicObjects</text>
</a>
</g>
</g>
<!-- Node364807&#45;&gt;Node364824 -->
<g id="edge22" class="edge">
<title>Node364807&#45;&gt;Node364824</title>
<path fill="none" stroke="#191970" d="M176.1578,-233.4733C193.5244,-208.1543 228.6212,-162.3186 270,-137.4555 276.4272,-133.5936 283.6379,-130.5064 290.9471,-128.041"/>
<polygon fill="#191970" stroke="#191970" points="173.2402,-231.54 170.583,-241.7962 179.0561,-235.4356 173.2402,-231.54"/>
</g>
<!-- Node364826 -->
<g id="node17" class="node">
<title>Node364826</title>
<g id="a_node17"><a xlink:href="quickjs_8c.html#a4c9489297c684663f30e517204a9ec14" target="_top" xlink:title="JS_AddIntrinsicBaseObjects">
<polygon fill="none" stroke="#000000" points="271,-70.9555 271,-89.9555 413,-89.9555 413,-70.9555 271,-70.9555"/>
<text text-anchor="middle" x="342" y="-77.9555" font-family="Helvetica,sans-Serif" font-size="10.00" fill="#000000">JS_AddIntrinsicBaseObjects</text>
</a>
</g>
</g>
<!-- Node364807&#45;&gt;Node364826 -->
<g id="edge25" class="edge">
<title>Node364807&#45;&gt;Node364826</title>
<path fill="none" stroke="#191970" d="M172.2717,-232.6175C186.6146,-200.2489 220.3819,-134.2108 270,-99.4555 275.5061,-95.5987 281.7461,-92.5248 288.1946,-90.0749"/>
<polygon fill="#191970" stroke="#191970" points="169.032,-231.2917 168.302,-241.8613 175.464,-234.0539 169.032,-231.2917"/>
</g>
<!-- Node364827 -->
<g id="node18" class="node">
<title>Node364827</title>
<g id="a_node18"><a xlink:href="quickjs_8c.html#ae022a327d9fa7079ad2f1d179ba5bdf0" target="_top" xlink:title="JS_AddIntrinsicAtomics">
<polygon fill="none" stroke="#000000" points="281,-32.9555 281,-51.9555 403,-51.9555 403,-32.9555 281,-32.9555"/>
<text text-anchor="middle" x="342" y="-39.9555" font-family="Helvetica,sans-Serif" font-size="10.00" fill="#000000">JS_AddIntrinsicAtomics</text>
</a>
</g>
</g>
<!-- Node364807&#45;&gt;Node364827 -->
<g id="edge27" class="edge">
<title>Node364807&#45;&gt;Node364827</title>
<path fill="none" stroke="#191970" d="M169.7625,-231.7912C181.1806,-193.0193 211.9884,-106.5683 270,-61.4555 275.0006,-57.5668 280.7247,-54.4706 286.7122,-52.0061"/>
<polygon fill="#191970" stroke="#191970" points="166.2874,-231.2189 166.9405,-241.7936 173.0244,-233.1197 166.2874,-231.2189"/>
</g>
<!-- Node364828 -->
<g id="node19" class="node">
<title>Node364828</title>
<g id="a_node19"><a xlink:href="quickjs_8c.html#a177d09828596bfe6df4bd90b2e93989d" target="_top" xlink:title="JS_AddIntrinsicTypedArrays">
<polygon fill="none" stroke="#000000" points="457,-32.9555 457,-51.9555 598,-51.9555 598,-32.9555 457,-32.9555"/>
<text text-anchor="middle" x="527.5" y="-39.9555" font-family="Helvetica,sans-Serif" font-size="10.00" fill="#000000">JS_AddIntrinsicTypedArrays</text>
</a>
</g>
</g>
<!-- Node364807&#45;&gt;Node364828 -->
<g id="edge30" class="edge">
<title>Node364807&#45;&gt;Node364828</title>
<path fill="none" stroke="#191970" d="M166.7032,-231.5594C173.0201,-185.3057 195.8045,-70.8773 270,-23.4555 345.1635,24.585 459.0691,-13.5435 506.0663,-32.9042"/>
<polygon fill="#191970" stroke="#191970" points="163.1946,-231.4115 165.4307,-241.7676 170.1408,-232.2774 163.1946,-231.4115"/>
</g>
<!-- Node364809 -->
<g id="node4" class="node">
<title>Node364809</title>
<g id="a_node4"><a xlink:href="quickjs-libc_8c.html#a0e65c67dfff872a664f8d29e7eae5a61" target="_top" xlink:title="js_init_module_std">
<polygon fill="none" stroke="#ff0000" points="641,-478.9555 641,-497.9555 739,-497.9555 739,-478.9555 641,-478.9555"/>
<text text-anchor="middle" x="690" y="-485.9555" font-family="Helvetica,sans-Serif" font-size="10.00" fill="#000000">js_init_module_std</text>
</a>
</g>
</g>
<!-- Node364808&#45;&gt;Node364809 -->
<g id="edge3" class="edge">
<title>Node364808&#45;&gt;Node364809</title>
<path fill="none" stroke="#191970" d="M568.085,-488.4555C590.1046,-488.4555 617.4931,-488.4555 640.7295,-488.4555"/>
<polygon fill="#191970" stroke="#191970" points="568.065,-484.9556 558.065,-488.4555 568.065,-491.9556 568.065,-484.9556"/>
</g>
<!-- Node364815&#45;&gt;Node364808 -->
<g id="edge6" class="edge">
<title>Node364815&#45;&gt;Node364808</title>
<path fill="none" stroke="#191970" d="M414.5451,-471.4057C443.1947,-475.7302 474.5476,-480.4627 496.9367,-483.8422"/>
<polygon fill="#191970" stroke="#191970" points="414.9536,-467.9278 404.5432,-469.896 413.9088,-474.8494 414.9536,-467.9278"/>
</g>
<!-- Node364815&#45;&gt;Node364813 -->
<g id="edge7" class="edge">
<title>Node364815&#45;&gt;Node364813</title>
<path fill="none" stroke="#191970" d="M414.7505,-453.004C443.994,-450.0087 476.0224,-446.7281 498.4447,-444.4315"/>
<polygon fill="#191970" stroke="#191970" points="414.1345,-449.5487 404.5432,-454.0495 414.8478,-456.5122 414.1345,-449.5487"/>
</g>
<!-- Node364817 -->
<g id="node8" class="node">
<title>Node364817</title>
<g id="a_node8"><a xlink:href="quickjs_8c.html#ad8aedb643b8753b7a15f6cb2df61945e" target="_top" xlink:title="JS_NewContext">
<polygon fill="none" stroke="#ff0000" points="645.5,-203.9555 645.5,-222.9555 734.5,-222.9555 734.5,-203.9555 645.5,-203.9555"/>
<text text-anchor="middle" x="690" y="-210.9555" font-family="Helvetica,sans-Serif" font-size="10.00" fill="#000000">JS_NewContext</text>
</a>
</g>
</g>
<!-- Node364816&#45;&gt;Node364817 -->
<g id="edge9" class="edge">
<title>Node364816&#45;&gt;Node364817</title>
<path fill="none" stroke="#191970" d="M597.1996,-370.5373C599.9284,-369.0133 602.544,-367.3252 605,-365.4555 655.2796,-327.18 680.1162,-250.0903 687.5411,-223.0741"/>
<polygon fill="#191970" stroke="#191970" points="595.6641,-367.392 588.1564,-374.8676 598.6873,-373.7055 595.6641,-367.392"/>
</g>
<!-- Node364818&#45;&gt;Node364817 -->
<g id="edge11" class="edge">
<title>Node364818&#45;&gt;Node364817</title>
<path fill="none" stroke="#191970" d="M595.075,-333.0223C598.5368,-331.3763 601.8713,-329.5289 605,-327.4555 646.3633,-300.0433 675.1733,-245.3992 685.6433,-223.1846"/>
<polygon fill="#191970" stroke="#191970" points="593.5634,-329.8601 585.6685,-336.9256 596.2463,-336.3255 593.5634,-329.8601"/>
</g>
<!-- Node364819&#45;&gt;Node364817 -->
<g id="edge13" class="edge">
<title>Node364819&#45;&gt;Node364817</title>
<path fill="none" stroke="#191970" d="M590.8317,-295.7125C595.7371,-293.8913 600.519,-291.8168 605,-289.4555 637.9238,-272.1057 668.3318,-239.2511 682.1631,-223.0213"/>
<polygon fill="#191970" stroke="#191970" points="589.6606,-292.4136 581.2926,-298.9118 591.8865,-299.0503 589.6606,-292.4136"/>
</g>
<!-- Node364820&#45;&gt;Node364817 -->
<g id="edge15" class="edge">
<title>Node364820&#45;&gt;Node364817</title>
<path fill="none" stroke="#191970" d="M569.8771,-257.9194C581.3297,-254.372 593.6839,-250.3989 605,-246.4555 626.0773,-239.1106 649.7222,-229.8457 666.7124,-223.0039"/>
<polygon fill="#191970" stroke="#191970" points="568.6302,-254.6408 560.0936,-260.9159 570.6802,-261.3339 568.6302,-254.6408"/>
</g>
<!-- Node364821&#45;&gt;Node364817 -->
<g id="edge17" class="edge">
<title>Node364821&#45;&gt;Node364817</title>
<path fill="none" stroke="#191970" d="M411.8267,-228.6431C481.4231,-224.8433 586.2098,-219.1222 645.3118,-215.8954"/>
<polygon fill="#191970" stroke="#191970" points="411.6176,-225.1492 401.8233,-229.1893 411.9993,-232.1388 411.6176,-225.1492"/>
</g>
<!-- Node364822&#45;&gt;Node364817 -->
<g id="edge19" class="edge">
<title>Node364822&#45;&gt;Node364817</title>
<path fill="none" stroke="#191970" d="M413.0285,-198.3335C482.6497,-202.1347 586.6246,-207.8114 645.3759,-211.0191"/>
<polygon fill="#191970" stroke="#191970" points="413.1912,-194.8373 403.0152,-197.7868 412.8095,-201.8268 413.1912,-194.8373"/>
</g>
<!-- Node364823&#45;&gt;Node364817 -->
<g id="edge21" class="edge">
<title>Node364823&#45;&gt;Node364817</title>
<path fill="none" stroke="#191970" d="M405.5088,-165.271C458.8604,-172.8787 537.056,-184.5009 605,-196.4555 618.0429,-198.7504 632.1628,-201.4763 645.078,-204.0658"/>
<polygon fill="#191970" stroke="#191970" points="405.9052,-161.7923 395.5123,-163.8511 404.9207,-168.7227 405.9052,-161.7923"/>
</g>
<!-- Node364825 -->
<g id="node16" class="node">
<title>Node364825</title>
<g id="a_node16"><a xlink:href="quickjs_8c.html#a442ff496ba00319ad39eb0a129b9eb8b" target="_top" xlink:title="JS_NewContextRaw">
<polygon fill="none" stroke="#000000" points="473,-108.9555 473,-127.9555 582,-127.9555 582,-108.9555 473,-108.9555"/>
<text text-anchor="middle" x="527.5" y="-115.9555" font-family="Helvetica,sans-Serif" font-size="10.00" fill="#000000">JS_NewContextRaw</text>
</a>
</g>
</g>
<!-- Node364824&#45;&gt;Node364825 -->
<g id="edge23" class="edge">
<title>Node364824&#45;&gt;Node364825</title>
<path fill="none" stroke="#191970" d="M424.4158,-118.4555C440.8636,-118.4555 457.7503,-118.4555 472.9723,-118.4555"/>
<polygon fill="#191970" stroke="#191970" points="424.2503,-114.9556 414.2503,-118.4555 424.2503,-121.9556 424.2503,-114.9556"/>
</g>
<!-- Node364825&#45;&gt;Node364817 -->
<g id="edge24" class="edge">
<title>Node364825&#45;&gt;Node364817</title>
<path fill="none" stroke="#191970" d="M578.6684,-131.1396C587.7005,-134.257 596.8217,-138.0078 605,-142.4555 636.0802,-159.3582 666.3937,-188.642 680.9866,-203.7771"/>
<polygon fill="#191970" stroke="#191970" points="579.543,-127.7442 568.9513,-128.0026 577.3924,-134.4056 579.543,-127.7442"/>
</g>
<!-- Node364826&#45;&gt;Node364817 -->
<g id="edge26" class="edge">
<title>Node364826&#45;&gt;Node364817</title>
<path fill="none" stroke="#191970" d="M414.9188,-70.0651C470.4132,-65.7133 546.8862,-67.6237 605,-99.4555 648.954,-123.5313 676.6477,-181.1075 686.2306,-203.9157"/>
<polygon fill="#191970" stroke="#191970" points="414.469,-66.5909 404.8101,-70.9448 415.0759,-73.5646 414.469,-66.5909"/>
</g>
<!-- Node364827&#45;&gt;Node364828 -->
<g id="edge28" class="edge">
<title>Node364827&#45;&gt;Node364828</title>
<path fill="none" stroke="#191970" d="M413.4997,-42.4555C427.7716,-42.4555 442.7529,-42.4555 456.9912,-42.4555"/>
<polygon fill="#191970" stroke="#191970" points="413.2538,-38.9556 403.2537,-42.4555 413.2537,-45.9556 413.2538,-38.9556"/>
</g>
<!-- Node364828&#45;&gt;Node364817 -->
<g id="edge29" class="edge">
<title>Node364828&#45;&gt;Node364817</title>
<path fill="none" stroke="#191970" d="M587.2334,-55.8227C593.5931,-58.7055 599.6738,-62.206 605,-66.4555 652.9323,-104.6979 679.0879,-177.8394 687.2111,-203.923"/>
<polygon fill="#191970" stroke="#191970" points="588.3554,-52.5018 577.7713,-52.0258 585.7485,-58.9982 588.3554,-52.5018"/>
</g>
</g>
</svg>
        <g id="navigator" transform="translate(0 0)" fill="#404254">
                <rect fill="#f2f5e9" fill-opacity="0.5" stroke="#606060" stroke-width=".5" x="0" y="0" width="60" height="60"/>
                <use id="zoomplus" xlink:href="#zoomPlus" x="17" y="9" onmousedown="handleZoom(evt,'in')"/>
                <use id="zoomminus" xlink:href="#zoomMin" x="42" y="9" onmousedown="handleZoom(evt,'out')"/>
                <use id="reset" xlink:href="#resetDef" x="30" y="36" onmousedown="handleReset()"/>
                <g id="arrowUp" xlink:href="#dirArrow" transform="translate(30 24)" onmousedown="handlePan(0,-1)">
                  <use xlink:href="#rim" fill="#404040">
                        <set attributeName="fill" to="#808080" begin="arrowUp.mouseover" end="arrowUp.mouseout"/>
                  </use>
                  <path fill="none" stroke="white" stroke-width="1.5" d="M0,-3.0v7 M-2.5,-0.5L0,-3.0L2.5,-0.5"/>
                </g>
                <g id="arrowRight" xlink:href="#dirArrow" transform="rotate(90) translate(36 -43)" onmousedown="handlePan(1,0)">
                  <use xlink:href="#rim" fill="#404040">
                        <set attributeName="fill" to="#808080" begin="arrowRight.mouseover" end="arrowRight.mouseout"/>
                  </use>
                  <path fill="none" stroke="white" stroke-width="1.5" d="M0,-3.0v7 M-2.5,-0.5L0,-3.0L2.5,-0.5"/>
                </g>
                <g id="arrowDown" xlink:href="#dirArrow" transform="rotate(180) translate(-30 -48)" onmousedown="handlePan(0,1)">
                  <use xlink:href="#rim" fill="#404040">
                        <set attributeName="fill" to="#808080" begin="arrowDown.mouseover" end="arrowDown.mouseout"/>
                  </use>
                  <path fill="none" stroke="white" stroke-width="1.5" d="M0,-3.0v7 M-2.5,-0.5L0,-3.0L2.5,-0.5"/>
                </g>
                <g id="arrowLeft" xlink:href="#dirArrow" transform="rotate(270) translate(-36 17)" onmousedown="handlePan(-1,0)">
                  <use xlink:href="#rim" fill="#404040">
                        <set attributeName="fill" to="#808080" begin="arrowLeft.mouseover" end="arrowLeft.mouseout"/>
                  </use>
                  <path fill="none" stroke="white" stroke-width="1.5" d="M0,-3.0v7 M-2.5,-0.5L0,-3.0L2.5,-0.5"/>
                </g>
        </g>
        <svg viewBox="0 0 15 15" width="100%" height="30px" preserveAspectRatio="xMaxYMin meet">
         <g id="arrow_out" transform="scale(0.3 0.3)">
          <a xlink:href="quickjs_8c_ae8e62d181b34d2e7bdda0b099c0880f5_icgraph_org.svg" target="_base">
           <rect id="button" ry="5" rx="5" y="6" x="6" height="38" width="38"
                fill="#f2f5e9" fill-opacity="0.5" stroke="#606060" stroke-width="1.0"/>
           <path id="arrow"
             d="M 11.500037,31.436501 C 11.940474,20.09759 22.043105,11.32322 32.158766,21.979434 L 37.068811,17.246167 C 37.068811,17.246167 37.088388,32 37.088388,32 L 22.160133,31.978069 C 22.160133,31.978069 26.997745,27.140456 26.997745,27.140456 C 18.528582,18.264221 13.291696,25.230495 11.500037,31.436501 z"
             style="fill:#404040;"/>
          </a>
         </g>
        </svg>
</svg>
