<?xml version="1.0" encoding="UTF-8" standalone="no"?>
<!DOCTYPE svg PUBLIC "-//W3C//DTD SVG 1.1//EN"
 "http://www.w3.org/Graphics/SVG/1.1/DTD/svg11.dtd">
<!-- Generated by graphviz version 2.40.1 (20161225.0304)
 -->
<!-- Title: JS_Invoke Pages: 1 -->
<!--zoomable 313 -->
<svg id="main" version="1.1" xmlns="http://www.w3.org/2000/svg" xmlns:xlink="http://www.w3.org/1999/xlink" xml:space="preserve" onload="init(evt)">
<style type="text/css"><![CDATA[
.edge:hover path { stroke: red; }
.edge:hover polygon { stroke: red; fill: red; }
]]></style>
<script type="text/javascript"><![CDATA[
var edges = document.getElementsByTagName('g');
if (edges && edges.length) {
  for (var i=0;i<edges.length;i++) {
    if (edges[i].id.substr(0,4)=='edge') {
      edges[i].setAttribute('class','edge');
    }
  }
}
]]></script>
        <defs>
                <circle id="rim" cx="0" cy="0" r="7"/>
                <circle id="rim2" cx="0" cy="0" r="3.5"/>
                <g id="zoomPlus">
                        <use xlink:href="#rim" fill="#404040">
                                <set attributeName="fill" to="#808080" begin="zoomplus.mouseover" end="zoomplus.mouseout"/>
                        </use>
                        <path d="M-4,0h8M0,-4v8" fill="none" stroke="white" stroke-width="1.5" pointer-events="none"/>
                </g>
                <g id="zoomMin">
                        <use xlink:href="#rim" fill="#404040">
                                <set attributeName="fill" to="#808080" begin="zoomminus.mouseover" end="zoomminus.mouseout"/>
                        </use>
                        <path d="M-4,0h8" fill="none" stroke="white" stroke-width="1.5" pointer-events="none"/>
                </g>
                <g id="dirArrow">
                        <path fill="none" stroke="white" stroke-width="1.5" d="M0,-3.0v7 M-2.5,-0.5L0,-3.0L2.5,-0.5"/>
                </g>
               <g id="resetDef">
                       <use xlink:href="#rim2" fill="#404040">
                               <set attributeName="fill" to="#808080" begin="reset.mouseover" end="reset.mouseout"/>
                       </use>
               </g>
        </defs>

<script type="text/javascript">
var viewWidth = 546;
var viewHeight = 313;
var sectionId = 'dynsection-199';
</script>
<script xlink:href="svgpan.js"/>
<svg id="graph" class="graph">
<g id="viewport">
<title>JS_Invoke</title>
<!-- Node69255 -->
<g id="node1" class="node">
<title>Node69255</title>
<polygon fill="#bfbfbf" stroke="#000000" points="0,-76.5 0,-95.5 63,-95.5 63,-76.5 0,-76.5"/>
<text text-anchor="middle" x="31.5" y="-83.5" font-family="Helvetica,sans-Serif" font-size="10.00" fill="#000000">JS_Invoke</text>
</g>
<!-- Node69256 -->
<g id="node2" class="node">
<title>Node69256</title>
<g id="a_node2"><a xlink:href="quickjs_8c.html#aa0bbf08a7e91459c68a312fba7016c6d" target="_top" xlink:title="js_array_every">
<polygon fill="none" stroke="#000000" points="120.5,-190.5 120.5,-209.5 200.5,-209.5 200.5,-190.5 120.5,-190.5"/>
<text text-anchor="middle" x="160.5" y="-197.5" font-family="Helvetica,sans-Serif" font-size="10.00" fill="#000000">js_array_every</text>
</a>
</g>
</g>
<!-- Node69255&#45;&gt;Node69256 -->
<g id="edge1" class="edge">
<title>Node69255&#45;&gt;Node69256</title>
<path fill="none" stroke="#191970" d="M40.117,-104.7658C50.9148,-126.2483 71.406,-161.035 99,-181 105.3376,-185.5854 112.8076,-189.0838 120.3168,-191.7467"/>
<polygon fill="#191970" stroke="#191970" points="43.2263,-103.1555 35.7265,-95.6719 36.9225,-106.199 43.2263,-103.1555"/>
</g>
<!-- Node69257 -->
<g id="node3" class="node">
<title>Node69257</title>
<g id="a_node3"><a xlink:href="quickjs_8c.html#ad31f7a1d61971bfacede26cef8204a91" target="_top" xlink:title="JS_InvokeFree">
<polygon fill="none" stroke="#000000" points="119,-152.5 119,-171.5 202,-171.5 202,-152.5 119,-152.5"/>
<text text-anchor="middle" x="160.5" y="-159.5" font-family="Helvetica,sans-Serif" font-size="10.00" fill="#000000">JS_InvokeFree</text>
</a>
</g>
</g>
<!-- Node69255&#45;&gt;Node69257 -->
<g id="edge2" class="edge">
<title>Node69255&#45;&gt;Node69257</title>
<path fill="none" stroke="#191970" d="M56.715,-100.8553C82.6476,-116.1335 122.2654,-139.4742 144.2947,-152.4527"/>
<polygon fill="#191970" stroke="#191970" points="58.2305,-97.686 47.8379,-95.6255 54.6772,-103.7171 58.2305,-97.686"/>
</g>
<!-- Node69261 -->
<g id="node7" class="node">
<title>Node69261</title>
<g id="a_node7"><a xlink:href="quickjs_8c.html#a7f42cf22a3fab5aa419eb5122569576c" target="_top" xlink:title="js_promise_finally">
<polygon fill="none" stroke="#000000" points="440,-114.5 440,-133.5 535,-133.5 535,-114.5 440,-114.5"/>
<text text-anchor="middle" x="487.5" y="-121.5" font-family="Helvetica,sans-Serif" font-size="10.00" fill="#000000">js_promise_finally</text>
</a>
</g>
</g>
<!-- Node69255&#45;&gt;Node69261 -->
<g id="edge13" class="edge">
<title>Node69255&#45;&gt;Node69261</title>
<path fill="none" stroke="#191970" d="M73.7144,-85.9151C142.5608,-86.2816 283.1669,-89.1395 401,-105 417.3046,-107.1946 435.0909,-110.8739 450.272,-114.4134"/>
<polygon fill="#191970" stroke="#191970" points="73.3087,-82.4137 63.2956,-85.8761 73.2824,-89.4136 73.3087,-82.4137"/>
</g>
<!-- Node69266 -->
<g id="node12" class="node">
<title>Node69266</title>
<g id="a_node12"><a xlink:href="quickjs_8c.html#addcfb5738ddcdefabc1f93182b7d7571" target="_top" xlink:title="js_object_toLocaleString">
<polygon fill="none" stroke="#000000" points="99,-38.5 99,-57.5 222,-57.5 222,-38.5 99,-38.5"/>
<text text-anchor="middle" x="160.5" y="-45.5" font-family="Helvetica,sans-Serif" font-size="10.00" fill="#000000">js_object_toLocaleString</text>
</a>
</g>
</g>
<!-- Node69255&#45;&gt;Node69266 -->
<g id="edge11" class="edge">
<title>Node69255&#45;&gt;Node69266</title>
<path fill="none" stroke="#191970" d="M72.6557,-73.8766C90.5204,-68.6142 111.147,-62.5381 127.9218,-57.5967"/>
<polygon fill="#191970" stroke="#191970" points="71.6604,-70.521 63.057,-76.7042 73.6384,-77.2358 71.6604,-70.521"/>
</g>
<!-- Node69267 -->
<g id="node13" class="node">
<title>Node69267</title>
<g id="a_node13"><a xlink:href="quickjs_8c.html#a5607ddb6e8f8514007d3ad2cecb47169" target="_top" xlink:title="js_promise_catch">
<polygon fill="none" stroke="#000000" points="114,-.5 114,-19.5 207,-19.5 207,-.5 114,-.5"/>
<text text-anchor="middle" x="160.5" y="-7.5" font-family="Helvetica,sans-Serif" font-size="10.00" fill="#000000">js_promise_catch</text>
</a>
</g>
</g>
<!-- Node69255&#45;&gt;Node69267 -->
<g id="edge12" class="edge">
<title>Node69255&#45;&gt;Node69267</title>
<path fill="none" stroke="#191970" d="M47.8024,-68.9259C60.662,-56.3299 79.6091,-39.6046 99,-29 105.8632,-25.2466 113.5713,-22.1252 121.1492,-19.5709"/>
<polygon fill="#191970" stroke="#191970" points="45.1971,-66.5823 40.6326,-76.1435 50.1633,-71.5156 45.1971,-66.5823"/>
</g>
<!-- Node69258 -->
<g id="node4" class="node">
<title>Node69258</title>
<g id="a_node4"><a xlink:href="quickjs_8c.html#a7a5c4f3ad3260974d9a0c75120ce5647" target="_top" xlink:title="js_promise_all">
<polygon fill="none" stroke="#000000" points="290,-228.5 290,-247.5 369,-247.5 369,-228.5 290,-228.5"/>
<text text-anchor="middle" x="329.5" y="-235.5" font-family="Helvetica,sans-Serif" font-size="10.00" fill="#000000">js_promise_all</text>
</a>
</g>
</g>
<!-- Node69257&#45;&gt;Node69258 -->
<g id="edge3" class="edge">
<title>Node69257&#45;&gt;Node69258</title>
<path fill="none" stroke="#191970" d="M211.2659,-175.3382C215.0033,-177.0226 218.626,-178.9033 222,-181 241.7598,-193.2794 237.9991,-207.1173 258,-219 267.6067,-224.7074 278.9417,-228.73 289.7207,-231.5537"/>
<polygon fill="#191970" stroke="#191970" points="212.4001,-172.0221 201.8161,-171.5448 209.7924,-178.5182 212.4001,-172.0221"/>
</g>
<!-- Node69259 -->
<g id="node5" class="node">
<title>Node69259</title>
<g id="a_node5"><a xlink:href="quickjs_8c.html#a44e36674957b179c1963f7046c049d14" target="_top" xlink:title="js_promise_race">
<polygon fill="none" stroke="#000000" points="285.5,-190.5 285.5,-209.5 373.5,-209.5 373.5,-190.5 285.5,-190.5"/>
<text text-anchor="middle" x="329.5" y="-197.5" font-family="Helvetica,sans-Serif" font-size="10.00" fill="#000000">js_promise_race</text>
</a>
</g>
</g>
<!-- Node69257&#45;&gt;Node69259 -->
<g id="edge4" class="edge">
<title>Node69257&#45;&gt;Node69259</title>
<path fill="none" stroke="#191970" d="M212.2623,-173.6389C236.2241,-179.0267 264.3404,-185.3487 287.0314,-190.4509"/>
<polygon fill="#191970" stroke="#191970" points="212.7995,-170.1723 202.2753,-171.3933 211.2639,-177.0018 212.7995,-170.1723"/>
</g>
<!-- Node69260 -->
<g id="node6" class="node">
<title>Node69260</title>
<g id="a_node6"><a xlink:href="quickjs_8c.html#a976c7217666ebb9ef04fd8cba9ba2dd2" target="_top" xlink:title="js_promise_then_finally_func">
<polygon fill="none" stroke="#000000" points="258,-152.5 258,-171.5 401,-171.5 401,-152.5 258,-152.5"/>
<text text-anchor="middle" x="329.5" y="-159.5" font-family="Helvetica,sans-Serif" font-size="10.00" fill="#000000">js_promise_then_finally_func</text>
</a>
</g>
</g>
<!-- Node69257&#45;&gt;Node69260 -->
<g id="edge5" class="edge">
<title>Node69257&#45;&gt;Node69260</title>
<path fill="none" stroke="#191970" d="M212.4472,-162C226.8169,-162 242.6692,-162 257.9436,-162"/>
<polygon fill="#191970" stroke="#191970" points="212.2753,-158.5001 202.2753,-162 212.2753,-165.5001 212.2753,-158.5001"/>
</g>
<!-- Node69262 -->
<g id="node8" class="node">
<title>Node69262</title>
<g id="a_node8"><a xlink:href="quickjs_8c.html#a48c74f10715547bf679361ae42e2a97f" target="_top" xlink:title="js_string_match">
<polygon fill="none" stroke="#000000" points="286.5,-114.5 286.5,-133.5 372.5,-133.5 372.5,-114.5 286.5,-114.5"/>
<text text-anchor="middle" x="329.5" y="-121.5" font-family="Helvetica,sans-Serif" font-size="10.00" fill="#000000">js_string_match</text>
</a>
</g>
</g>
<!-- Node69257&#45;&gt;Node69262 -->
<g id="edge7" class="edge">
<title>Node69257&#45;&gt;Node69262</title>
<path fill="none" stroke="#191970" d="M212.2623,-150.3611C236.2241,-144.9733 264.3404,-138.6513 287.0314,-133.5491"/>
<polygon fill="#191970" stroke="#191970" points="211.2639,-146.9982 202.2753,-152.6067 212.7995,-153.8277 211.2639,-146.9982"/>
</g>
<!-- Node69263 -->
<g id="node9" class="node">
<title>Node69263</title>
<g id="a_node9"><a xlink:href="quickjs_8c.html#aec0d90811584e89016b62543155169d8" target="_top" xlink:title="JS_ToLocaleStringFree">
<polygon fill="none" stroke="#000000" points="270,-266.5 270,-285.5 389,-285.5 389,-266.5 270,-266.5"/>
<text text-anchor="middle" x="329.5" y="-273.5" font-family="Helvetica,sans-Serif" font-size="10.00" fill="#000000">JS_ToLocaleStringFree</text>
</a>
</g>
</g>
<!-- Node69257&#45;&gt;Node69263 -->
<g id="edge8" class="edge">
<title>Node69257&#45;&gt;Node69263</title>
<path fill="none" stroke="#191970" d="M211.4498,-173.8685C215.2386,-175.8841 218.8172,-178.2419 222,-181 250.2458,-205.4768 229.2714,-233.0917 258,-257 262.6401,-260.8615 267.9864,-263.9456 273.6232,-266.4075"/>
<polygon fill="#191970" stroke="#191970" points="212.8706,-170.6698 202.315,-169.7591 209.9988,-177.0536 212.8706,-170.6698"/>
</g>
<!-- Node69260&#45;&gt;Node69261 -->
<g id="edge6" class="edge">
<title>Node69260&#45;&gt;Node69261</title>
<path fill="none" stroke="#191970" d="M379.2616,-150.032C401.4029,-144.7069 427.1116,-138.5238 447.9166,-133.5201"/>
<polygon fill="#191970" stroke="#191970" points="378.2744,-146.6696 369.3701,-152.411 379.9113,-153.4755 378.2744,-146.6696"/>
</g>
<!-- Node69264 -->
<g id="node10" class="node">
<title>Node69264</title>
<g id="a_node10"><a xlink:href="quickjs_8c.html#a4f8035820871c730dd7e98d46e137bc1" target="_top" xlink:title="js_array_join">
<polygon fill="none" stroke="#000000" points="452,-247.5 452,-266.5 523,-266.5 523,-247.5 452,-247.5"/>
<text text-anchor="middle" x="487.5" y="-254.5" font-family="Helvetica,sans-Serif" font-size="10.00" fill="#000000">js_array_join</text>
</a>
</g>
</g>
<!-- Node69263&#45;&gt;Node69264 -->
<g id="edge9" class="edge">
<title>Node69263&#45;&gt;Node69264</title>
<path fill="none" stroke="#191970" d="M399.2647,-267.6106C417.4901,-265.4189 436.3802,-263.1473 451.9833,-261.271"/>
<polygon fill="#191970" stroke="#191970" points="398.7436,-264.1479 389.233,-268.8169 399.5794,-271.0979 398.7436,-264.1479"/>
</g>
<!-- Node69265 -->
<g id="node11" class="node">
<title>Node69265</title>
<g id="a_node11"><a xlink:href="quickjs_8c.html#aa04ea5aa5c3614856e8cd9843f1ebaa1" target="_top" xlink:title="js_typed_array_join">
<polygon fill="none" stroke="#000000" points="437,-285.5 437,-304.5 538,-304.5 538,-285.5 437,-285.5"/>
<text text-anchor="middle" x="487.5" y="-292.5" font-family="Helvetica,sans-Serif" font-size="10.00" fill="#000000">js_typed_array_join</text>
</a>
</g>
</g>
<!-- Node69263&#45;&gt;Node69265 -->
<g id="edge10" class="edge">
<title>Node69263&#45;&gt;Node69265</title>
<path fill="none" stroke="#191970" d="M399.3066,-284.3945C411.9847,-285.919 424.983,-287.4821 436.9715,-288.9238"/>
<polygon fill="#191970" stroke="#191970" points="399.5794,-280.9021 389.233,-283.1831 398.7436,-287.8521 399.5794,-280.9021"/>
</g>
</g>
</svg>
        <g id="navigator" transform="translate(0 0)" fill="#404254">
                <rect fill="#f2f5e9" fill-opacity="0.5" stroke="#606060" stroke-width=".5" x="0" y="0" width="60" height="60"/>
                <use id="zoomplus" xlink:href="#zoomPlus" x="17" y="9" onmousedown="handleZoom(evt,'in')"/>
                <use id="zoomminus" xlink:href="#zoomMin" x="42" y="9" onmousedown="handleZoom(evt,'out')"/>
                <use id="reset" xlink:href="#resetDef" x="30" y="36" onmousedown="handleReset()"/>
                <g id="arrowUp" xlink:href="#dirArrow" transform="translate(30 24)" onmousedown="handlePan(0,-1)">
                  <use xlink:href="#rim" fill="#404040">
                        <set attributeName="fill" to="#808080" begin="arrowUp.mouseover" end="arrowUp.mouseout"/>
                  </use>
                  <path fill="none" stroke="white" stroke-width="1.5" d="M0,-3.0v7 M-2.5,-0.5L0,-3.0L2.5,-0.5"/>
                </g>
                <g id="arrowRight" xlink:href="#dirArrow" transform="rotate(90) translate(36 -43)" onmousedown="handlePan(1,0)">
                  <use xlink:href="#rim" fill="#404040">
                        <set attributeName="fill" to="#808080" begin="arrowRight.mouseover" end="arrowRight.mouseout"/>
                  </use>
                  <path fill="none" stroke="white" stroke-width="1.5" d="M0,-3.0v7 M-2.5,-0.5L0,-3.0L2.5,-0.5"/>
                </g>
                <g id="arrowDown" xlink:href="#dirArrow" transform="rotate(180) translate(-30 -48)" onmousedown="handlePan(0,1)">
                  <use xlink:href="#rim" fill="#404040">
                        <set attributeName="fill" to="#808080" begin="arrowDown.mouseover" end="arrowDown.mouseout"/>
                  </use>
                  <path fill="none" stroke="white" stroke-width="1.5" d="M0,-3.0v7 M-2.5,-0.5L0,-3.0L2.5,-0.5"/>
                </g>
                <g id="arrowLeft" xlink:href="#dirArrow" transform="rotate(270) translate(-36 17)" onmousedown="handlePan(-1,0)">
                  <use xlink:href="#rim" fill="#404040">
                        <set attributeName="fill" to="#808080" begin="arrowLeft.mouseover" end="arrowLeft.mouseout"/>
                  </use>
                  <path fill="none" stroke="white" stroke-width="1.5" d="M0,-3.0v7 M-2.5,-0.5L0,-3.0L2.5,-0.5"/>
                </g>
        </g>
        <svg viewBox="0 0 15 15" width="100%" height="30px" preserveAspectRatio="xMaxYMin meet">
         <g id="arrow_out" transform="scale(0.3 0.3)">
          <a xlink:href="quickjs_8h_ad09ec172570d05d2166ed3069f85c7b5_icgraph_org.svg" target="_base">
           <rect id="button" ry="5" rx="5" y="6" x="6" height="38" width="38"
                fill="#f2f5e9" fill-opacity="0.5" stroke="#606060" stroke-width="1.0"/>
           <path id="arrow"
             d="M 11.500037,31.436501 C 11.940474,20.09759 22.043105,11.32322 32.158766,21.979434 L 37.068811,17.246167 C 37.068811,17.246167 37.088388,32 37.088388,32 L 22.160133,31.978069 C 22.160133,31.978069 26.997745,27.140456 26.997745,27.140456 C 18.528582,18.264221 13.291696,25.230495 11.500037,31.436501 z"
             style="fill:#404040;"/>
          </a>
         </g>
        </svg>
</svg>
