<?xml version="1.0" encoding="UTF-8" standalone="no"?>
<!DOCTYPE svg PUBLIC "-//W3C//DTD SVG 1.1//EN"
 "http://www.w3.org/Graphics/SVG/1.1/DTD/svg11.dtd">
<!-- Generated by graphviz version 2.40.1 (20161225.0304)
 -->
<!-- Title: peek_token Pages: 1 -->
<!--zoomable 277 -->
<svg id="main" version="1.1" xmlns="http://www.w3.org/2000/svg" xmlns:xlink="http://www.w3.org/1999/xlink" xml:space="preserve" onload="init(evt)">
<style type="text/css"><![CDATA[
.edge:hover path { stroke: red; }
.edge:hover polygon { stroke: red; fill: red; }
]]></style>
<script type="text/javascript"><![CDATA[
var edges = document.getElementsByTagName('g');
if (edges && edges.length) {
  for (var i=0;i<edges.length;i++) {
    if (edges[i].id.substr(0,4)=='edge') {
      edges[i].setAttribute('class','edge');
    }
  }
}
]]></script>
        <defs>
                <circle id="rim" cx="0" cy="0" r="7"/>
                <circle id="rim2" cx="0" cy="0" r="3.5"/>
                <g id="zoomPlus">
                        <use xlink:href="#rim" fill="#404040">
                                <set attributeName="fill" to="#808080" begin="zoomplus.mouseover" end="zoomplus.mouseout"/>
                        </use>
                        <path d="M-4,0h8M0,-4v8" fill="none" stroke="white" stroke-width="1.5" pointer-events="none"/>
                </g>
                <g id="zoomMin">
                        <use xlink:href="#rim" fill="#404040">
                                <set attributeName="fill" to="#808080" begin="zoomminus.mouseover" end="zoomminus.mouseout"/>
                        </use>
                        <path d="M-4,0h8" fill="none" stroke="white" stroke-width="1.5" pointer-events="none"/>
                </g>
                <g id="dirArrow">
                        <path fill="none" stroke="white" stroke-width="1.5" d="M0,-3.0v7 M-2.5,-0.5L0,-3.0L2.5,-0.5"/>
                </g>
               <g id="resetDef">
                       <use xlink:href="#rim2" fill="#404040">
                               <set attributeName="fill" to="#808080" begin="reset.mouseover" end="reset.mouseout"/>
                       </use>
               </g>
        </defs>

<script type="text/javascript">
var viewWidth = 816;
var viewHeight = 277;
var sectionId = 'dynsection-925';
</script>
<script xlink:href="svgpan.js"/>
<svg id="graph" class="graph">
<g id="viewport">
<title>peek_token</title>
<!-- Node308547 -->
<g id="node1" class="node">
<title>Node308547</title>
<polygon fill="#bfbfbf" stroke="#000000" points="0,-132.5 0,-151.5 67,-151.5 67,-132.5 0,-132.5"/>
<text text-anchor="middle" x="33.5" y="-139.5" font-family="Helvetica,sans-Serif" font-size="10.00" fill="#000000">peek_token</text>
</g>
<!-- Node308548 -->
<g id="node2" class="node">
<title>Node308548</title>
<g id="a_node2"><a xlink:href="quickjs_8c.html#a48aae2fff87c2c80a0fe495d4dd4d9ab" target="_top" xlink:title="is_label">
<polygon fill="none" stroke="#000000" points="139.5,-246.5 139.5,-265.5 189.5,-265.5 189.5,-246.5 139.5,-246.5"/>
<text text-anchor="middle" x="164.5" y="-253.5" font-family="Helvetica,sans-Serif" font-size="10.00" fill="#000000">is_label</text>
</a>
</g>
</g>
<!-- Node308547&#45;&gt;Node308548 -->
<g id="edge1" class="edge">
<title>Node308547&#45;&gt;Node308548</title>
<path fill="none" stroke="#191970" d="M43.533,-160.3184C55.3681,-180.4023 76.7887,-212.3765 103,-232 113.7346,-240.0366 127.5031,-245.7404 139.2901,-249.5649"/>
<polygon fill="#191970" stroke="#191970" points="46.5093,-158.4721 38.514,-151.5203 40.429,-161.9407 46.5093,-158.4721"/>
</g>
<!-- Node308549 -->
<g id="node3" class="node">
<title>Node308549</title>
<g id="a_node3"><a xlink:href="quickjs_8c.html#a9d844c16dcc71701436848074337d32c" target="_top" xlink:title="js_parse_statement\l_or_decl">
<polygon fill="none" stroke="#000000" points="262,-209 262,-239 364,-239 364,-209 262,-209"/>
<text text-anchor="start" x="270" y="-227" font-family="Helvetica,sans-Serif" font-size="10.00" fill="#000000">js_parse_statement</text>
<text text-anchor="middle" x="313" y="-216" font-family="Helvetica,sans-Serif" font-size="10.00" fill="#000000">_or_decl</text>
</a>
</g>
</g>
<!-- Node308547&#45;&gt;Node308549 -->
<g id="edge18" class="edge">
<title>Node308547&#45;&gt;Node308549</title>
<path fill="none" stroke="#191970" d="M50.2277,-158.3653C63.438,-170.2707 82.934,-185.7019 103,-194 154.3901,-215.2518 218.2182,-221.8706 261.932,-223.7249"/>
<polygon fill="#191970" stroke="#191970" points="52.5674,-155.7615 42.8658,-151.5035 47.7946,-160.8821 52.5674,-155.7615"/>
</g>
<!-- Node308553 -->
<g id="node6" class="node">
<title>Node308553</title>
<g id="a_node6"><a xlink:href="quickjs_8c.html#ab59a3267a100decc9d2d81eb3297794a" target="_top" xlink:title="js_parse_source_element">
<polygon fill="none" stroke="#ff0000" points="400,-170.5 400,-189.5 528,-189.5 528,-170.5 400,-170.5"/>
<text text-anchor="middle" x="464" y="-177.5" font-family="Helvetica,sans-Serif" font-size="10.00" fill="#000000">js_parse_source_element</text>
</a>
</g>
</g>
<!-- Node308547&#45;&gt;Node308553 -->
<g id="edge17" class="edge">
<title>Node308547&#45;&gt;Node308553</title>
<path fill="none" stroke="#191970" d="M77.0993,-151.6999C85.6525,-153.3428 94.5818,-154.8773 103,-156 206.3528,-169.7835 327.46,-175.7828 399.8396,-178.2975"/>
<polygon fill="#191970" stroke="#191970" points="77.7762,-148.2661 67.2844,-149.7398 76.4053,-155.1305 77.7762,-148.2661"/>
</g>
<!-- Node308554 -->
<g id="node7" class="node">
<title>Node308554</title>
<g id="a_node7"><a xlink:href="quickjs_8c.html#acc9eb677cab8dfcf45f59381f8a19601" target="_top" xlink:title="js_parse_function_decl2">
<polygon fill="none" stroke="#ff0000" points="564,-132.5 564,-151.5 686,-151.5 686,-132.5 564,-132.5"/>
<text text-anchor="middle" x="625" y="-139.5" font-family="Helvetica,sans-Serif" font-size="10.00" fill="#000000">js_parse_function_decl2</text>
</a>
</g>
</g>
<!-- Node308547&#45;&gt;Node308554 -->
<g id="edge13" class="edge">
<title>Node308547&#45;&gt;Node308554</title>
<path fill="none" stroke="#191970" d="M77.6066,-142C181.957,-142 444.1845,-142 563.8033,-142"/>
<polygon fill="#191970" stroke="#191970" points="77.4261,-138.5001 67.4261,-142 77.4261,-145.5001 77.4261,-138.5001"/>
</g>
<!-- Node308560 -->
<g id="node8" class="node">
<title>Node308560</title>
<g id="a_node8"><a xlink:href="quickjs_8c.html#a498e1d5c7de1b59c1630e9847cde1e41" target="_top" xlink:title="js_parse_export">
<polygon fill="none" stroke="#000000" points="722,-132.5 722,-151.5 808,-151.5 808,-132.5 722,-132.5"/>
<text text-anchor="middle" x="765" y="-139.5" font-family="Helvetica,sans-Serif" font-size="10.00" fill="#000000">js_parse_export</text>
</a>
</g>
</g>
<!-- Node308547&#45;&gt;Node308560 -->
<g id="edge12" class="edge">
<title>Node308547&#45;&gt;Node308560</title>
<path fill="none" stroke="#191970" d="M77.3498,-132.3029C132.1749,-121.0443 229.0396,-104 313,-104 313,-104 313,-104 464,-104 563.0274,-104 588.2486,-107.1546 686,-123 700.6208,-125.37 716.5381,-128.9922 730.2286,-132.4407"/>
<polygon fill="#191970" stroke="#191970" points="76.3627,-128.9333 67.2881,-134.4015 77.7921,-135.7859 76.3627,-128.9333"/>
</g>
<!-- Node308557 -->
<g id="node9" class="node">
<title>Node308557</title>
<g id="a_node9"><a xlink:href="quickjs_8c.html#acdcc62310b4f6f73fa7bc7267b18b1d4" target="_top" xlink:title="js_parse_postfix_expr">
<polygon fill="none" stroke="#ff0000" points="108.5,-38.5 108.5,-57.5 220.5,-57.5 220.5,-38.5 108.5,-38.5"/>
<text text-anchor="middle" x="164.5" y="-45.5" font-family="Helvetica,sans-Serif" font-size="10.00" fill="#000000">js_parse_postfix_expr</text>
</a>
</g>
</g>
<!-- Node308547&#45;&gt;Node308557 -->
<g id="edge14" class="edge">
<title>Node308547&#45;&gt;Node308557</title>
<path fill="none" stroke="#191970" d="M54.2043,-126.1426C67.9333,-115.7187 86.4086,-101.8639 103,-90 118.9861,-78.5689 137.6699,-65.9056 150.2121,-57.5032"/>
<polygon fill="#191970" stroke="#191970" points="51.7691,-123.5978 45.9352,-132.4419 56.011,-129.1662 51.7691,-123.5978"/>
</g>
<!-- Node308573 -->
<g id="node10" class="node">
<title>Node308573</title>
<g id="a_node10"><a xlink:href="quickjs_8c.html#a42234753f3193f37ce45b3c0ca4c25cd" target="_top" xlink:title="js_parse_property_name">
<polygon fill="none" stroke="#ff0000" points="103,-.5 103,-19.5 226,-19.5 226,-.5 103,-.5"/>
<text text-anchor="middle" x="164.5" y="-7.5" font-family="Helvetica,sans-Serif" font-size="10.00" fill="#000000">js_parse_property_name</text>
</a>
</g>
</g>
<!-- Node308547&#45;&gt;Node308573 -->
<g id="edge16" class="edge">
<title>Node308547&#45;&gt;Node308573</title>
<path fill="none" stroke="#191970" d="M40.4039,-122.6379C50.3657,-97.4332 71.1471,-53.6964 103,-29 108.034,-25.097 113.8751,-21.9902 119.9145,-19.5184"/>
<polygon fill="#191970" stroke="#191970" points="37.0531,-121.604 36.7962,-132.1957 43.6021,-124.076 37.0531,-121.604"/>
</g>
<!-- Node308548&#45;&gt;Node308549 -->
<g id="edge2" class="edge">
<title>Node308548&#45;&gt;Node308549</title>
<path fill="none" stroke="#191970" d="M199.4874,-248.4606C218.0549,-244.4595 241.2209,-239.4675 261.7745,-235.0385"/>
<polygon fill="#191970" stroke="#191970" points="198.7293,-245.0436 189.691,-250.5716 200.2039,-251.8865 198.7293,-245.0436"/>
</g>
<!-- Node308549&#45;&gt;Node308549 -->
<g id="edge7" class="edge">
<title>Node308549&#45;&gt;Node308549</title>
<path fill="none" stroke="#191970" d="M286.7022,-249.4579C289.9661,-254.179 298.7321,-257.5 313,-257.5 336.4141,-257.5 345.0114,-248.5566 338.7921,-239.159"/>
<polygon fill="#191970" stroke="#191970" points="290.2132,-249.3187 287.2079,-239.159 283.2216,-248.9753 290.2132,-249.3187"/>
</g>
<!-- Node308550 -->
<g id="node4" class="node">
<title>Node308550</title>
<g id="a_node4"><a xlink:href="quickjs_8c.html#a729d43e44d20f1ed655cd9f4843995d3" target="_top" xlink:title="js_parse_statement">
<polygon fill="none" stroke="#ff0000" points="413,-249.5 413,-268.5 515,-268.5 515,-249.5 413,-249.5"/>
<text text-anchor="middle" x="464" y="-256.5" font-family="Helvetica,sans-Serif" font-size="10.00" fill="#000000">js_parse_statement</text>
</a>
</g>
</g>
<!-- Node308549&#45;&gt;Node308550 -->
<g id="edge3" class="edge">
<title>Node308549&#45;&gt;Node308550</title>
<path fill="none" stroke="#191970" d="M374.1849,-231.5409C398.8941,-236.8878 425.7269,-243.7227 443.5668,-249.4691"/>
<polygon fill="#191970" stroke="#191970" points="374.6283,-228.0576 364.1217,-229.4224 373.1862,-234.9075 374.6283,-228.0576"/>
</g>
<!-- Node308552 -->
<g id="node5" class="node">
<title>Node308552</title>
<g id="a_node5"><a xlink:href="quickjs_8c.html#acc0cac53be5317d9cab6a79afcd7da48" target="_top" xlink:title="js_parse_block">
<polygon fill="none" stroke="#000000" points="423,-211.5 423,-230.5 505,-230.5 505,-211.5 423,-211.5"/>
<text text-anchor="middle" x="464" y="-218.5" font-family="Helvetica,sans-Serif" font-size="10.00" fill="#000000">js_parse_block</text>
</a>
</g>
</g>
<!-- Node308549&#45;&gt;Node308552 -->
<g id="edge5" class="edge">
<title>Node308549&#45;&gt;Node308552</title>
<path fill="none" stroke="#191970" d="M374.1828,-216.1435C390.5823,-215.5651 407.9174,-215.4068 422.938,-215.7332"/>
<polygon fill="#191970" stroke="#191970" points="373.9694,-212.6492 364.1217,-216.5573 374.2571,-219.6433 373.9694,-212.6492"/>
</g>
<!-- Node308549&#45;&gt;Node308553 -->
<g id="edge8" class="edge">
<title>Node308549&#45;&gt;Node308553</title>
<path fill="none" stroke="#191970" d="M373.8618,-206.2654C393.3595,-200.584 414.2117,-194.5079 430.9441,-189.6322"/>
<polygon fill="#191970" stroke="#191970" points="372.7433,-202.9457 364.1217,-209.1036 374.7016,-209.6662 372.7433,-202.9457"/>
</g>
<!-- Node308550&#45;&gt;Node308549 -->
<g id="edge4" class="edge">
<title>Node308550&#45;&gt;Node308549</title>
<path fill="none" stroke="#191970" d="M402.9895,-251.4968C385.7415,-247.7679 367.4453,-243.3103 351.8863,-239.0016"/>
<polygon fill="#191970" stroke="#191970" points="402.4887,-254.968 412.9951,-253.6015 403.9297,-248.1179 402.4887,-254.968"/>
</g>
<!-- Node308552&#45;&gt;Node308549 -->
<g id="edge6" class="edge">
<title>Node308552&#45;&gt;Node308549</title>
<path fill="none" stroke="#191970" d="M412.8668,-228.4432C397.1445,-229.1859 379.8432,-229.5296 364.1217,-229.4113"/>
<polygon fill="#191970" stroke="#191970" points="413.1417,-231.9335 422.938,-227.8984 412.7635,-224.9438 413.1417,-231.9335"/>
</g>
<!-- Node308553&#45;&gt;Node308554 -->
<g id="edge9" class="edge">
<title>Node308553&#45;&gt;Node308554</title>
<path fill="none" stroke="#191970" d="M514.4018,-168.1039C537.032,-162.7626 563.3695,-156.5463 584.665,-151.5201"/>
<polygon fill="#191970" stroke="#191970" points="513.5557,-164.7074 504.6271,-170.411 515.1637,-171.5202 513.5557,-164.7074"/>
</g>
<!-- Node308554&#45;&gt;Node308560 -->
<g id="edge10" class="edge">
<title>Node308554&#45;&gt;Node308560</title>
<path fill="none" stroke="#191970" d="M696.497,-142C705.1078,-142 713.6883,-142 721.7172,-142"/>
<polygon fill="#191970" stroke="#191970" points="696.4061,-138.5001 686.406,-142 696.406,-145.5001 696.4061,-138.5001"/>
</g>
<!-- Node308560&#45;&gt;Node308553 -->
<g id="edge11" class="edge">
<title>Node308560&#45;&gt;Node308553</title>
<path fill="none" stroke="#191970" d="M720.2808,-153.9943C709.1481,-156.6369 697.1941,-159.1855 686,-161 633.3059,-169.5416 572.912,-174.3955 528.4319,-177.0554"/>
<polygon fill="#191970" stroke="#191970" points="721.3475,-157.3366 730.2286,-151.5593 719.6831,-150.5373 721.3475,-157.3366"/>
</g>
<!-- Node308557&#45;&gt;Node308557 -->
<g id="edge15" class="edge">
<title>Node308557&#45;&gt;Node308557</title>
<path fill="none" stroke="#191970" d="M140.3186,-67.0292C141.6376,-72.128 149.6981,-76 164.5,-76 187.6055,-76 194.2844,-66.5653 184.5368,-57.7571"/>
<polygon fill="#191970" stroke="#191970" points="143.5776,-68.3148 144.4632,-57.7571 137.187,-65.4582 143.5776,-68.3148"/>
</g>
</g>
</svg>
        <g id="navigator" transform="translate(0 0)" fill="#404254">
                <rect fill="#f2f5e9" fill-opacity="0.5" stroke="#606060" stroke-width=".5" x="0" y="0" width="60" height="60"/>
                <use id="zoomplus" xlink:href="#zoomPlus" x="17" y="9" onmousedown="handleZoom(evt,'in')"/>
                <use id="zoomminus" xlink:href="#zoomMin" x="42" y="9" onmousedown="handleZoom(evt,'out')"/>
                <use id="reset" xlink:href="#resetDef" x="30" y="36" onmousedown="handleReset()"/>
                <g id="arrowUp" xlink:href="#dirArrow" transform="translate(30 24)" onmousedown="handlePan(0,-1)">
                  <use xlink:href="#rim" fill="#404040">
                        <set attributeName="fill" to="#808080" begin="arrowUp.mouseover" end="arrowUp.mouseout"/>
                  </use>
                  <path fill="none" stroke="white" stroke-width="1.5" d="M0,-3.0v7 M-2.5,-0.5L0,-3.0L2.5,-0.5"/>
                </g>
                <g id="arrowRight" xlink:href="#dirArrow" transform="rotate(90) translate(36 -43)" onmousedown="handlePan(1,0)">
                  <use xlink:href="#rim" fill="#404040">
                        <set attributeName="fill" to="#808080" begin="arrowRight.mouseover" end="arrowRight.mouseout"/>
                  </use>
                  <path fill="none" stroke="white" stroke-width="1.5" d="M0,-3.0v7 M-2.5,-0.5L0,-3.0L2.5,-0.5"/>
                </g>
                <g id="arrowDown" xlink:href="#dirArrow" transform="rotate(180) translate(-30 -48)" onmousedown="handlePan(0,1)">
                  <use xlink:href="#rim" fill="#404040">
                        <set attributeName="fill" to="#808080" begin="arrowDown.mouseover" end="arrowDown.mouseout"/>
                  </use>
                  <path fill="none" stroke="white" stroke-width="1.5" d="M0,-3.0v7 M-2.5,-0.5L0,-3.0L2.5,-0.5"/>
                </g>
                <g id="arrowLeft" xlink:href="#dirArrow" transform="rotate(270) translate(-36 17)" onmousedown="handlePan(-1,0)">
                  <use xlink:href="#rim" fill="#404040">
                        <set attributeName="fill" to="#808080" begin="arrowLeft.mouseover" end="arrowLeft.mouseout"/>
                  </use>
                  <path fill="none" stroke="white" stroke-width="1.5" d="M0,-3.0v7 M-2.5,-0.5L0,-3.0L2.5,-0.5"/>
                </g>
        </g>
        <svg viewBox="0 0 15 15" width="100%" height="30px" preserveAspectRatio="xMaxYMin meet">
         <g id="arrow_out" transform="scale(0.3 0.3)">
          <a xlink:href="quickjs_8c_a2738f70401d666222802576640dd5781_icgraph_org.svg" target="_base">
           <rect id="button" ry="5" rx="5" y="6" x="6" height="38" width="38"
                fill="#f2f5e9" fill-opacity="0.5" stroke="#606060" stroke-width="1.0"/>
           <path id="arrow"
             d="M 11.500037,31.436501 C 11.940474,20.09759 22.043105,11.32322 32.158766,21.979434 L 37.068811,17.246167 C 37.068811,17.246167 37.088388,32 37.088388,32 L 22.160133,31.978069 C 22.160133,31.978069 26.997745,27.140456 26.997745,27.140456 C 18.528582,18.264221 13.291696,25.230495 11.500037,31.436501 z"
             style="fill:#404040;"/>
          </a>
         </g>
        </svg>
</svg>
