<?xml version="1.0" encoding="UTF-8" standalone="no"?>
<!DOCTYPE svg PUBLIC "-//W3C//DTD SVG 1.1//EN"
 "http://www.w3.org/Graphics/SVG/1.1/DTD/svg11.dtd">
<!-- Generated by graphviz version 2.40.1 (20161225.0304)
 -->
<!-- Title: json_parse_ident Pages: 1 -->
<!--zoomable 636 -->
<svg id="main" version="1.1" xmlns="http://www.w3.org/2000/svg" xmlns:xlink="http://www.w3.org/1999/xlink" xml:space="preserve" onload="init(evt)">
<style type="text/css"><![CDATA[
.edge:hover path { stroke: red; }
.edge:hover polygon { stroke: red; fill: red; }
]]></style>
<script type="text/javascript"><![CDATA[
var edges = document.getElementsByTagName('g');
if (edges && edges.length) {
  for (var i=0;i<edges.length;i++) {
    if (edges[i].id.substr(0,4)=='edge') {
      edges[i].setAttribute('class','edge');
    }
  }
}
]]></script>
        <defs>
                <circle id="rim" cx="0" cy="0" r="7"/>
                <circle id="rim2" cx="0" cy="0" r="3.5"/>
                <g id="zoomPlus">
                        <use xlink:href="#rim" fill="#404040">
                                <set attributeName="fill" to="#808080" begin="zoomplus.mouseover" end="zoomplus.mouseout"/>
                        </use>
                        <path d="M-4,0h8M0,-4v8" fill="none" stroke="white" stroke-width="1.5" pointer-events="none"/>
                </g>
                <g id="zoomMin">
                        <use xlink:href="#rim" fill="#404040">
                                <set attributeName="fill" to="#808080" begin="zoomminus.mouseover" end="zoomminus.mouseout"/>
                        </use>
                        <path d="M-4,0h8" fill="none" stroke="white" stroke-width="1.5" pointer-events="none"/>
                </g>
                <g id="dirArrow">
                        <path fill="none" stroke="white" stroke-width="1.5" d="M0,-3.0v7 M-2.5,-0.5L0,-3.0L2.5,-0.5"/>
                </g>
               <g id="resetDef">
                       <use xlink:href="#rim2" fill="#404040">
                               <set attributeName="fill" to="#808080" begin="reset.mouseover" end="reset.mouseout"/>
                       </use>
               </g>
        </defs>

<script type="text/javascript">
var viewWidth = 744;
var viewHeight = 636;
var sectionId = 'dynsection-918';
</script>
<script xlink:href="svgpan.js"/>
<svg id="graph" class="graph">
<g id="viewport">
<title>json_parse_ident</title>
<!-- Node308322 -->
<g id="node1" class="node">
<title>Node308322</title>
<polygon fill="#bfbfbf" stroke="#000000" points="0,-570.5 0,-589.5 90,-589.5 90,-570.5 0,-570.5"/>
<text text-anchor="middle" x="45" y="-577.5" font-family="Helvetica,sans-Serif" font-size="10.00" fill="#000000">json_parse_ident</text>
</g>
<!-- Node308323 -->
<g id="node2" class="node">
<title>Node308323</title>
<g id="a_node2"><a xlink:href="quickjs_8c.html#a7130fb8523c8b77f6b13f192bfd0fdd5" target="_top" xlink:title="ident_realloc">
<polygon fill="none" stroke="#000000" points="137,-608.5 137,-627.5 208,-627.5 208,-608.5 137,-608.5"/>
<text text-anchor="middle" x="172.5" y="-615.5" font-family="Helvetica,sans-Serif" font-size="10.00" fill="#000000">ident_realloc</text>
</a>
</g>
</g>
<!-- Node308322&#45;&gt;Node308323 -->
<g id="edge1" class="edge">
<title>Node308322&#45;&gt;Node308323</title>
<path fill="none" stroke="#191970" d="M77.1736,-589.589C93.3307,-594.4044 113.108,-600.2988 130.4518,-605.468"/>
<polygon fill="#191970" stroke="#191970" points="129.7535,-608.912 140.3367,-608.4141 131.7529,-602.2036 129.7535,-608.912"/>
</g>
<!-- Node308324 -->
<g id="node3" class="node">
<title>Node308324</title>
<g id="a_node3"><a xlink:href="quickjs_8c.html#a80e54dcf9ac687d4ccc2f90273565f30" target="_top" xlink:title="js_free">
<polygon fill="none" stroke="#000000" points="569,-513.5 569,-532.5 615,-532.5 615,-513.5 569,-513.5"/>
<text text-anchor="middle" x="592" y="-520.5" font-family="Helvetica,sans-Serif" font-size="10.00" fill="#000000">js_free</text>
</a>
</g>
</g>
<!-- Node308322&#45;&gt;Node308324 -->
<g id="edge2" class="edge">
<title>Node308322&#45;&gt;Node308324</title>
<path fill="none" stroke="#191970" d="M90.1352,-583.5792C173.3941,-588.9895 356.236,-595.2902 505,-561 526.4815,-556.0485 549.2645,-545.8982 566.1253,-537.3331"/>
<polygon fill="#191970" stroke="#191970" points="568.0766,-540.2623 575.3138,-532.5245 564.8308,-534.0603 568.0766,-540.2623"/>
</g>
<!-- Node308326 -->
<g id="node5" class="node">
<title>Node308326</title>
<g id="a_node5"><a xlink:href="quickjs_8c.html#a522741f41afb1d0da0aa55968cd8579e" target="_top" xlink:title="JS_NewAtomLen">
<polygon fill="none" stroke="#000000" points="126,-171.5 126,-190.5 219,-190.5 219,-171.5 126,-171.5"/>
<text text-anchor="middle" x="172.5" y="-178.5" font-family="Helvetica,sans-Serif" font-size="10.00" fill="#000000">JS_NewAtomLen</text>
</a>
</g>
</g>
<!-- Node308322&#45;&gt;Node308326 -->
<g id="edge4" class="edge">
<title>Node308322&#45;&gt;Node308326</title>
<path fill="none" stroke="#191970" d="M48.1517,-570.137C64.8958,-517.7379 143.5181,-271.6962 166.2996,-200.4034"/>
<polygon fill="#191970" stroke="#191970" points="169.7485,-201.1091 169.4585,-190.5182 163.0806,-198.9783 169.7485,-201.1091"/>
</g>
<!-- Node308325 -->
<g id="node4" class="node">
<title>Node308325</title>
<g id="a_node4"><a xlink:href="quickjs_8c.html#a69e19dda8a93d613203e0baa06f0ed8d" target="_top" xlink:title="js_free_rt">
<polygon fill="none" stroke="#000000" points="679,-114.5 679,-133.5 736,-133.5 736,-114.5 679,-114.5"/>
<text text-anchor="middle" x="707.5" y="-121.5" font-family="Helvetica,sans-Serif" font-size="10.00" fill="#000000">js_free_rt</text>
</a>
</g>
</g>
<!-- Node308324&#45;&gt;Node308325 -->
<g id="edge3" class="edge">
<title>Node308324&#45;&gt;Node308325</title>
<path fill="none" stroke="#191970" d="M594.8551,-513.137C610.0233,-460.7379 681.2458,-214.6962 701.8832,-143.4034"/>
<polygon fill="#191970" stroke="#191970" points="705.3261,-144.0971 704.7447,-133.5182 698.6021,-142.1506 705.3261,-144.0971"/>
</g>
<!-- Node308327 -->
<g id="node6" class="node">
<title>Node308327</title>
<g id="a_node6"><a xlink:href="quickjs_8c.html#ac8c91ebeea0cf07e3079c49a16de739f" target="_top" xlink:title="__JS_FindAtom">
<polygon fill="none" stroke="#000000" points="259.5,-190.5 259.5,-209.5 345.5,-209.5 345.5,-190.5 259.5,-190.5"/>
<text text-anchor="middle" x="302.5" y="-197.5" font-family="Helvetica,sans-Serif" font-size="10.00" fill="#000000">__JS_FindAtom</text>
</a>
</g>
</g>
<!-- Node308326&#45;&gt;Node308327 -->
<g id="edge5" class="edge">
<title>Node308326&#45;&gt;Node308327</title>
<path fill="none" stroke="#191970" d="M219.0658,-187.8058C228.7989,-189.2283 239.1331,-190.7387 249.0921,-192.1942"/>
<polygon fill="#191970" stroke="#191970" points="248.8927,-195.7022 259.2937,-193.6852 249.905,-188.7758 248.8927,-195.7022"/>
</g>
<!-- Node308330 -->
<g id="node9" class="node">
<title>Node308330</title>
<g id="a_node9"><a xlink:href="quickjs_8c.html#ab3ca6381d29dea396b12acd7f755c51a" target="_top" xlink:title="is_digit">
<polygon fill="none" stroke="#000000" points="279,-152.5 279,-171.5 326,-171.5 326,-152.5 279,-152.5"/>
<text text-anchor="middle" x="302.5" y="-159.5" font-family="Helvetica,sans-Serif" font-size="10.00" fill="#000000">is_digit</text>
</a>
</g>
</g>
<!-- Node308326&#45;&gt;Node308330 -->
<g id="edge8" class="edge">
<title>Node308326&#45;&gt;Node308330</title>
<path fill="none" stroke="#191970" d="M219.0658,-174.1942C235.5221,-171.7891 253.6969,-169.1328 268.8711,-166.915"/>
<polygon fill="#191970" stroke="#191970" points="269.4503,-170.3676 278.839,-165.4581 268.4379,-163.4412 269.4503,-170.3676"/>
</g>
<!-- Node308331 -->
<g id="node10" class="node">
<title>Node308331</title>
<g id="a_node10"><a xlink:href="quickjs_8h.html#ad80a83d73e9b7d872b88fbf2943aebe9" target="_top" xlink:title="JS_IsException">
<polygon fill="none" stroke="#000000" points="259.5,-114.5 259.5,-133.5 345.5,-133.5 345.5,-114.5 259.5,-114.5"/>
<text text-anchor="middle" x="302.5" y="-121.5" font-family="Helvetica,sans-Serif" font-size="10.00" fill="#000000">JS_IsException</text>
</a>
</g>
</g>
<!-- Node308326&#45;&gt;Node308331 -->
<g id="edge9" class="edge">
<title>Node308326&#45;&gt;Node308331</title>
<path fill="none" stroke="#191970" d="M192.3769,-171.498C209.0082,-163.6313 233.4145,-152.2811 255,-143 259.2455,-141.1746 263.7274,-139.3063 268.1743,-137.488"/>
<polygon fill="#191970" stroke="#191970" points="269.7851,-140.6122 277.7478,-133.6233 267.1647,-134.1212 269.7851,-140.6122"/>
</g>
<!-- Node308332 -->
<g id="node11" class="node">
<title>Node308332</title>
<g id="a_node11"><a xlink:href="quickjs_8c.html#a33fd643aff7f70e649d246385cd99b00" target="_top" xlink:title="JS_NewAtomStr">
<polygon fill="none" stroke="#000000" points="257.5,-76.5 257.5,-95.5 347.5,-95.5 347.5,-76.5 257.5,-76.5"/>
<text text-anchor="middle" x="302.5" y="-83.5" font-family="Helvetica,sans-Serif" font-size="10.00" fill="#000000">JS_NewAtomStr</text>
</a>
</g>
</g>
<!-- Node308326&#45;&gt;Node308332 -->
<g id="edge10" class="edge">
<title>Node308326&#45;&gt;Node308332</title>
<path fill="none" stroke="#191970" d="M180.7587,-171.3931C194.6917,-155.6833 224.3583,-124.3159 255,-105 257.9444,-103.1439 261.1003,-101.4109 264.3341,-99.8067"/>
<polygon fill="#191970" stroke="#191970" points="265.8803,-102.9487 273.5427,-95.6318 262.9898,-96.5733 265.8803,-102.9487"/>
</g>
<!-- Node308349 -->
<g id="node16" class="node">
<title>Node308349</title>
<g id="a_node16"><a xlink:href="quickjs_8c.html#ac34cc554aab1e98c45a7f845fff64385" target="_top" xlink:title="JS_NewStringLen">
<polygon fill="none" stroke="#000000" points="255,-361.5 255,-380.5 350,-380.5 350,-361.5 255,-361.5"/>
<text text-anchor="middle" x="302.5" y="-368.5" font-family="Helvetica,sans-Serif" font-size="10.00" fill="#000000">JS_NewStringLen</text>
</a>
</g>
</g>
<!-- Node308326&#45;&gt;Node308349 -->
<g id="edge19" class="edge">
<title>Node308326&#45;&gt;Node308349</title>
<path fill="none" stroke="#191970" d="M179.1254,-190.6833C199.7229,-220.7873 262.8737,-313.0847 289.9548,-352.6647"/>
<polygon fill="#191970" stroke="#191970" points="287.1965,-354.8316 295.732,-361.1083 292.9737,-350.8788 287.1965,-354.8316"/>
</g>
<!-- Node308328 -->
<g id="node7" class="node">
<title>Node308328</title>
<g id="a_node7"><a xlink:href="quickjs_8c.html#a7f6796ee7a195631366f57c713a33f65" target="_top" xlink:title="__JS_AtomIsConst">
<polygon fill="none" stroke="#000000" points="541,-152.5 541,-171.5 643,-171.5 643,-152.5 541,-152.5"/>
<text text-anchor="middle" x="592" y="-159.5" font-family="Helvetica,sans-Serif" font-size="10.00" fill="#000000">__JS_AtomIsConst</text>
</a>
</g>
</g>
<!-- Node308327&#45;&gt;Node308328 -->
<g id="edge6" class="edge">
<title>Node308327&#45;&gt;Node308328</title>
<path fill="none" stroke="#191970" d="M339.7053,-190.4301C354.0867,-187.0221 370.7305,-183.4306 386,-181 434.3932,-173.2968 489.7166,-168.4078 530.8372,-165.5212"/>
<polygon fill="#191970" stroke="#191970" points="531.2341,-169.0024 540.9728,-164.83 530.7578,-162.0186 531.2341,-169.0024"/>
</g>
<!-- Node308329 -->
<g id="node8" class="node">
<title>Node308329</title>
<g id="a_node8"><a xlink:href="quickjs_8c.html#a7f3a538c8f7ee373cfe88625181739ad" target="_top" xlink:title="hash_string8">
<polygon fill="none" stroke="#000000" points="409.5,-190.5 409.5,-209.5 481.5,-209.5 481.5,-190.5 409.5,-190.5"/>
<text text-anchor="middle" x="445.5" y="-197.5" font-family="Helvetica,sans-Serif" font-size="10.00" fill="#000000">hash_string8</text>
</a>
</g>
</g>
<!-- Node308327&#45;&gt;Node308329 -->
<g id="edge7" class="edge">
<title>Node308327&#45;&gt;Node308329</title>
<path fill="none" stroke="#191970" d="M345.7928,-200C362.5393,-200 381.7445,-200 398.8006,-200"/>
<polygon fill="#191970" stroke="#191970" points="399.1015,-203.5001 409.1015,-200 399.1015,-196.5001 399.1015,-203.5001"/>
</g>
<!-- Node308333 -->
<g id="node12" class="node">
<title>Node308333</title>
<g id="a_node12"><a xlink:href="quickjs_8c.html#a877fcb7651d95b411ce70e62b7f4a1f0" target="_top" xlink:title="__JS_AtomFromUInt32">
<polygon fill="none" stroke="#000000" points="386,-.5 386,-19.5 505,-19.5 505,-.5 386,-.5"/>
<text text-anchor="middle" x="445.5" y="-7.5" font-family="Helvetica,sans-Serif" font-size="10.00" fill="#000000">__JS_AtomFromUInt32</text>
</a>
</g>
</g>
<!-- Node308332&#45;&gt;Node308333 -->
<g id="edge11" class="edge">
<title>Node308332&#45;&gt;Node308333</title>
<path fill="none" stroke="#191970" d="M314.265,-76.3249C329.8422,-63.9137 358.5535,-42.395 386,-29 390.5726,-26.7684 395.4679,-24.7165 400.4139,-22.8535"/>
<polygon fill="#191970" stroke="#191970" points="401.6476,-26.1298 409.9165,-19.506 399.3217,-19.5275 401.6476,-26.1298"/>
</g>
<!-- Node308334 -->
<g id="node13" class="node">
<title>Node308334</title>
<g id="a_node13"><a xlink:href="quickjs_8c.html#acd08798ec15cc37c60d2e7d70007c6a8" target="_top" xlink:title="__JS_NewAtom">
<polygon fill="none" stroke="#ff0000" points="401.5,-114.5 401.5,-133.5 489.5,-133.5 489.5,-114.5 401.5,-114.5"/>
<text text-anchor="middle" x="445.5" y="-121.5" font-family="Helvetica,sans-Serif" font-size="10.00" fill="#000000">__JS_NewAtom</text>
</a>
</g>
</g>
<!-- Node308332&#45;&gt;Node308334 -->
<g id="edge12" class="edge">
<title>Node308332&#45;&gt;Node308334</title>
<path fill="none" stroke="#191970" d="M338.5849,-95.589C357.1296,-100.5169 379.9265,-106.5749 399.699,-111.8291"/>
<polygon fill="#191970" stroke="#191970" points="398.8631,-115.2284 409.4266,-114.4141 400.6609,-108.4632 398.8631,-115.2284"/>
</g>
<!-- Node308339 -->
<g id="node14" class="node">
<title>Node308339</title>
<g id="a_node14"><a xlink:href="quickjs_8c.html#aa506aaf9df272c0e9e541bbf0138b483" target="_top" xlink:title="js_free_string">
<polygon fill="none" stroke="#ff0000" points="554.5,-76.5 554.5,-95.5 629.5,-95.5 629.5,-76.5 554.5,-76.5"/>
<text text-anchor="middle" x="592" y="-83.5" font-family="Helvetica,sans-Serif" font-size="10.00" fill="#000000">js_free_string</text>
</a>
</g>
</g>
<!-- Node308332&#45;&gt;Node308339 -->
<g id="edge18" class="edge">
<title>Node308332&#45;&gt;Node308339</title>
<path fill="none" stroke="#191970" d="M347.7344,-86C401.219,-86 489.8369,-86 544.3527,-86"/>
<polygon fill="#191970" stroke="#191970" points="544.4498,-89.5001 554.4497,-86 544.4497,-82.5001 544.4498,-89.5001"/>
</g>
<!-- Node308347 -->
<g id="node15" class="node">
<title>Node308347</title>
<g id="a_node15"><a xlink:href="quickjs_8c.html#a1eaea8fa2599700598076ea84f1afcf3" target="_top" xlink:title="is_num_string">
<polygon fill="none" stroke="#ff0000" points="407,-38.5 407,-57.5 484,-57.5 484,-38.5 407,-38.5"/>
<text text-anchor="middle" x="445.5" y="-45.5" font-family="Helvetica,sans-Serif" font-size="10.00" fill="#000000">is_num_string</text>
</a>
</g>
</g>
<!-- Node308332&#45;&gt;Node308347 -->
<g id="edge17" class="edge">
<title>Node308332&#45;&gt;Node308347</title>
<path fill="none" stroke="#191970" d="M338.5849,-76.411C357.1296,-71.4831 379.9265,-65.4251 399.699,-60.1709"/>
<polygon fill="#191970" stroke="#191970" points="400.6609,-63.5368 409.4266,-57.5859 398.8631,-56.7716 400.6609,-63.5368"/>
</g>
<!-- Node308334&#45;&gt;Node308325 -->
<g id="edge14" class="edge">
<title>Node308334&#45;&gt;Node308325</title>
<path fill="none" stroke="#191970" d="M489.6485,-124C539.8137,-124 620.9052,-124 668.7244,-124"/>
<polygon fill="#191970" stroke="#191970" points="668.9754,-127.5001 678.9754,-124 668.9753,-120.5001 668.9754,-127.5001"/>
</g>
<!-- Node308334&#45;&gt;Node308328 -->
<g id="edge13" class="edge">
<title>Node308334&#45;&gt;Node308328</title>
<path fill="none" stroke="#191970" d="M482.4681,-133.589C501.6262,-138.5583 525.2142,-144.6767 545.5878,-149.9613"/>
<polygon fill="#191970" stroke="#191970" points="544.7392,-153.357 555.2977,-152.4799 546.4968,-146.5812 544.7392,-153.357"/>
</g>
<!-- Node308334&#45;&gt;Node308339 -->
<g id="edge15" class="edge">
<title>Node308334&#45;&gt;Node308339</title>
<path fill="none" stroke="#191970" d="M482.4681,-114.411C501.6262,-109.4417 525.2142,-103.3233 545.5878,-98.0387"/>
<polygon fill="#191970" stroke="#191970" points="546.4968,-101.4188 555.2977,-95.5201 544.7392,-94.643 546.4968,-101.4188"/>
</g>
<!-- Node308339&#45;&gt;Node308325 -->
<g id="edge16" class="edge">
<title>Node308339&#45;&gt;Node308325</title>
<path fill="none" stroke="#191970" d="M621.1455,-95.589C635.618,-100.3505 653.2969,-106.1669 668.8805,-111.294"/>
<polygon fill="#191970" stroke="#191970" points="668.1709,-114.7451 678.7639,-114.5457 670.3587,-108.0957 668.1709,-114.7451"/>
</g>
<!-- Node308350 -->
<g id="node17" class="node">
<title>Node308350</title>
<g id="a_node17"><a xlink:href="quickjs_8c.html#a853f0924d441ea4225488f37c8b69f9a" target="_top" xlink:title="__attribute__">
<polygon fill="none" stroke="#000000" points="409,-266.5 409,-285.5 482,-285.5 482,-266.5 409,-266.5"/>
<text text-anchor="middle" x="445.5" y="-273.5" font-family="Helvetica,sans-Serif" font-size="10.00" fill="#000000">__attribute__</text>
</a>
</g>
</g>
<!-- Node308349&#45;&gt;Node308350 -->
<g id="edge20" class="edge">
<title>Node308349&#45;&gt;Node308350</title>
<path fill="none" stroke="#191970" d="M310.5102,-361.4082C324.3347,-345.435 354.2578,-313.3328 386,-295 390.1815,-292.5849 394.7087,-290.4352 399.3347,-288.5314"/>
<polygon fill="#191970" stroke="#191970" points="400.7464,-291.7405 408.8901,-284.9633 398.2975,-285.1828 400.7464,-291.7405"/>
</g>
<!-- Node308351 -->
<g id="node18" class="node">
<title>Node308351</title>
<g id="a_node18"><a xlink:href="quickjs_8c.html#aa923510185fe24e3083baf7405b09f51" target="_top" xlink:title="js_new_string8">
<polygon fill="none" stroke="#ff0000" points="404.5,-228.5 404.5,-247.5 486.5,-247.5 486.5,-228.5 404.5,-228.5"/>
<text text-anchor="middle" x="445.5" y="-235.5" font-family="Helvetica,sans-Serif" font-size="10.00" fill="#000000">js_new_string8</text>
</a>
</g>
</g>
<!-- Node308349&#45;&gt;Node308351 -->
<g id="edge21" class="edge">
<title>Node308349&#45;&gt;Node308351</title>
<path fill="none" stroke="#191970" d="M306.8644,-361.4639C317.3276,-339.6552 345.9776,-285.8059 386,-257 388.859,-254.9423 391.9505,-253.1008 395.1694,-251.4539"/>
<polygon fill="#191970" stroke="#191970" points="396.7754,-254.5702 404.4912,-247.3095 393.9317,-248.1739 396.7754,-254.5702"/>
</g>
<!-- Node308361 -->
<g id="node19" class="node">
<title>Node308361</title>
<g id="a_node19"><a xlink:href="quickjs_8c.html#accfc3d1dcaa88c88402cb245ccaf4fdb" target="_top" xlink:title="string_buffer_end">
<polygon fill="none" stroke="#ff0000" points="399.5,-532.5 399.5,-551.5 491.5,-551.5 491.5,-532.5 399.5,-532.5"/>
<text text-anchor="middle" x="445.5" y="-539.5" font-family="Helvetica,sans-Serif" font-size="10.00" fill="#000000">string_buffer_end</text>
</a>
</g>
</g>
<!-- Node308349&#45;&gt;Node308361 -->
<g id="edge22" class="edge">
<title>Node308349&#45;&gt;Node308361</title>
<path fill="none" stroke="#191970" d="M305.1065,-380.8292C312.7462,-407.7296 337.6514,-483.1956 386,-523 388.0511,-524.6886 390.2545,-526.228 392.5623,-527.6313"/>
<polygon fill="#191970" stroke="#191970" points="391.3832,-530.9594 401.8801,-532.397 394.5708,-524.7272 391.3832,-530.9594"/>
</g>
<!-- Node308362 -->
<g id="node20" class="node">
<title>Node308362</title>
<g id="a_node20"><a xlink:href="quickjs_8c.html#a266b4993a59d9e34537386e62b9f3d4f" target="_top" xlink:title="string_buffer_free">
<polygon fill="none" stroke="#000000" points="399.5,-494.5 399.5,-513.5 491.5,-513.5 491.5,-494.5 399.5,-494.5"/>
<text text-anchor="middle" x="445.5" y="-501.5" font-family="Helvetica,sans-Serif" font-size="10.00" fill="#000000">string_buffer_free</text>
</a>
</g>
</g>
<!-- Node308349&#45;&gt;Node308362 -->
<g id="edge24" class="edge">
<title>Node308349&#45;&gt;Node308362</title>
<path fill="none" stroke="#191970" d="M306.8644,-380.5361C317.3276,-402.3448 345.9776,-456.1941 386,-485 388.6843,-486.932 391.5736,-488.6734 394.5809,-490.2421"/>
<polygon fill="#191970" stroke="#191970" points="393.3165,-493.5116 403.8699,-494.4483 396.204,-487.1349 393.3165,-493.5116"/>
</g>
<!-- Node308363 -->
<g id="node21" class="node">
<title>Node308363</title>
<g id="a_node21"><a xlink:href="quickjs_8c.html#a9c11961b0adafedd064b294612d0c2f3" target="_top" xlink:title="string_buffer_init">
<polygon fill="none" stroke="#ff0000" points="401,-456.5 401,-475.5 490,-475.5 490,-456.5 401,-456.5"/>
<text text-anchor="middle" x="445.5" y="-463.5" font-family="Helvetica,sans-Serif" font-size="10.00" fill="#000000">string_buffer_init</text>
</a>
</g>
</g>
<!-- Node308349&#45;&gt;Node308363 -->
<g id="edge26" class="edge">
<title>Node308349&#45;&gt;Node308363</title>
<path fill="none" stroke="#191970" d="M310.5102,-380.5918C324.3347,-396.565 354.2578,-428.6672 386,-447 389.6974,-449.1354 393.665,-451.0634 397.7322,-452.7973"/>
<polygon fill="#191970" stroke="#191970" points="396.7333,-456.1634 407.3229,-456.497 399.2527,-449.6324 396.7333,-456.1634"/>
</g>
<!-- Node308365 -->
<g id="node22" class="node">
<title>Node308365</title>
<g id="a_node22"><a xlink:href="quickjs_8c.html#a9b8fb6b5ce638616691f7bf7881fa57d" target="_top" xlink:title="string_buffer_putc16">
<polygon fill="none" stroke="#ff0000" points="393,-418.5 393,-437.5 498,-437.5 498,-418.5 393,-418.5"/>
<text text-anchor="middle" x="445.5" y="-425.5" font-family="Helvetica,sans-Serif" font-size="10.00" fill="#000000">string_buffer_putc16</text>
</a>
</g>
</g>
<!-- Node308349&#45;&gt;Node308365 -->
<g id="edge27" class="edge">
<title>Node308349&#45;&gt;Node308365</title>
<path fill="none" stroke="#191970" d="M321.7936,-380.5665C338.542,-388.6803 363.561,-400.3461 386,-409 391.5741,-411.1497 397.5047,-413.2541 403.3803,-415.2332"/>
<polygon fill="#191970" stroke="#191970" points="402.5511,-418.6445 413.1438,-418.4313 404.7301,-411.9923 402.5511,-418.6445"/>
</g>
<!-- Node308371 -->
<g id="node23" class="node">
<title>Node308371</title>
<g id="a_node23"><a xlink:href="quickjs_8c.html#a874fcee73f61cc997ec1d10cc6711554" target="_top" xlink:title="string_buffer_putc8">
<polygon fill="none" stroke="#ff0000" points="395.5,-380.5 395.5,-399.5 495.5,-399.5 495.5,-380.5 395.5,-380.5"/>
<text text-anchor="middle" x="445.5" y="-387.5" font-family="Helvetica,sans-Serif" font-size="10.00" fill="#000000">string_buffer_putc8</text>
</a>
</g>
</g>
<!-- Node308349&#45;&gt;Node308371 -->
<g id="edge28" class="edge">
<title>Node308349&#45;&gt;Node308371</title>
<path fill="none" stroke="#191970" d="M350.1169,-377.3267C361.3024,-378.8129 373.369,-380.4162 385.034,-381.9661"/>
<polygon fill="#191970" stroke="#191970" points="384.7756,-385.4624 395.1495,-383.3101 385.6977,-378.5234 384.7756,-385.4624"/>
</g>
<!-- Node308372 -->
<g id="node24" class="node">
<title>Node308372</title>
<g id="a_node24"><a xlink:href="quickjs_8c.html#a0b130652cf11eb0eb9f7e3ee6c5d7c6a" target="_top" xlink:title="string_buffer_write8">
<polygon fill="none" stroke="#ff0000" points="394.5,-342.5 394.5,-361.5 496.5,-361.5 496.5,-342.5 394.5,-342.5"/>
<text text-anchor="middle" x="445.5" y="-349.5" font-family="Helvetica,sans-Serif" font-size="10.00" fill="#000000">string_buffer_write8</text>
</a>
</g>
</g>
<!-- Node308349&#45;&gt;Node308372 -->
<g id="edge29" class="edge">
<title>Node308349&#45;&gt;Node308372</title>
<path fill="none" stroke="#191970" d="M350.1169,-364.6733C361.0511,-363.2205 372.8271,-361.6558 384.247,-360.1385"/>
<polygon fill="#191970" stroke="#191970" points="384.7091,-363.608 394.1609,-358.8213 383.787,-356.6689 384.7091,-363.608"/>
</g>
<!-- Node308373 -->
<g id="node25" class="node">
<title>Node308373</title>
<g id="a_node25"><a xlink:href="cutils_8h.html#a69529af6d6911dd0ead90eef221b2e10" target="_top" xlink:title="unicode_from_utf8">
<polygon fill="none" stroke="#000000" points="397,-304.5 397,-323.5 494,-323.5 494,-304.5 397,-304.5"/>
<text text-anchor="middle" x="445.5" y="-311.5" font-family="Helvetica,sans-Serif" font-size="10.00" fill="#000000">unicode_from_utf8</text>
</a>
</g>
</g>
<!-- Node308349&#45;&gt;Node308373 -->
<g id="edge30" class="edge">
<title>Node308349&#45;&gt;Node308373</title>
<path fill="none" stroke="#191970" d="M321.7936,-361.4335C338.542,-353.3197 363.561,-341.6539 386,-333 391.5741,-330.8503 397.5047,-328.7459 403.3803,-326.7668"/>
<polygon fill="#191970" stroke="#191970" points="404.7301,-330.0077 413.1438,-323.5687 402.5511,-323.3555 404.7301,-330.0077"/>
</g>
<!-- Node308361&#45;&gt;Node308324 -->
<g id="edge23" class="edge">
<title>Node308361&#45;&gt;Node308324</title>
<path fill="none" stroke="#191970" d="M491.8535,-535.9883C513.5971,-533.1683 539.0124,-529.8721 558.7987,-527.306"/>
<polygon fill="#191970" stroke="#191970" points="559.4007,-530.7573 568.8675,-526.0001 558.5003,-523.8154 559.4007,-530.7573"/>
</g>
<!-- Node308362&#45;&gt;Node308324 -->
<g id="edge25" class="edge">
<title>Node308362&#45;&gt;Node308324</title>
<path fill="none" stroke="#191970" d="M491.8535,-510.0117C513.5971,-512.8317 539.0124,-516.1279 558.7987,-518.694"/>
<polygon fill="#191970" stroke="#191970" points="558.5003,-522.1846 568.8675,-519.9999 559.4007,-515.2427 558.5003,-522.1846"/>
</g>
</g>
</svg>
        <g id="navigator" transform="translate(0 0)" fill="#404254">
                <rect fill="#f2f5e9" fill-opacity="0.5" stroke="#606060" stroke-width=".5" x="0" y="0" width="60" height="60"/>
                <use id="zoomplus" xlink:href="#zoomPlus" x="17" y="9" onmousedown="handleZoom(evt,'in')"/>
                <use id="zoomminus" xlink:href="#zoomMin" x="42" y="9" onmousedown="handleZoom(evt,'out')"/>
                <use id="reset" xlink:href="#resetDef" x="30" y="36" onmousedown="handleReset()"/>
                <g id="arrowUp" xlink:href="#dirArrow" transform="translate(30 24)" onmousedown="handlePan(0,-1)">
                  <use xlink:href="#rim" fill="#404040">
                        <set attributeName="fill" to="#808080" begin="arrowUp.mouseover" end="arrowUp.mouseout"/>
                  </use>
                  <path fill="none" stroke="white" stroke-width="1.5" d="M0,-3.0v7 M-2.5,-0.5L0,-3.0L2.5,-0.5"/>
                </g>
                <g id="arrowRight" xlink:href="#dirArrow" transform="rotate(90) translate(36 -43)" onmousedown="handlePan(1,0)">
                  <use xlink:href="#rim" fill="#404040">
                        <set attributeName="fill" to="#808080" begin="arrowRight.mouseover" end="arrowRight.mouseout"/>
                  </use>
                  <path fill="none" stroke="white" stroke-width="1.5" d="M0,-3.0v7 M-2.5,-0.5L0,-3.0L2.5,-0.5"/>
                </g>
                <g id="arrowDown" xlink:href="#dirArrow" transform="rotate(180) translate(-30 -48)" onmousedown="handlePan(0,1)">
                  <use xlink:href="#rim" fill="#404040">
                        <set attributeName="fill" to="#808080" begin="arrowDown.mouseover" end="arrowDown.mouseout"/>
                  </use>
                  <path fill="none" stroke="white" stroke-width="1.5" d="M0,-3.0v7 M-2.5,-0.5L0,-3.0L2.5,-0.5"/>
                </g>
                <g id="arrowLeft" xlink:href="#dirArrow" transform="rotate(270) translate(-36 17)" onmousedown="handlePan(-1,0)">
                  <use xlink:href="#rim" fill="#404040">
                        <set attributeName="fill" to="#808080" begin="arrowLeft.mouseover" end="arrowLeft.mouseout"/>
                  </use>
                  <path fill="none" stroke="white" stroke-width="1.5" d="M0,-3.0v7 M-2.5,-0.5L0,-3.0L2.5,-0.5"/>
                </g>
        </g>
        <svg viewBox="0 0 15 15" width="100%" height="30px" preserveAspectRatio="xMaxYMin meet">
         <g id="arrow_out" transform="scale(0.3 0.3)">
          <a xlink:href="quickjs_8c_adab89942b11c3b3cbf3ecb9e763b0ab6_cgraph_org.svg" target="_base">
           <rect id="button" ry="5" rx="5" y="6" x="6" height="38" width="38"
                fill="#f2f5e9" fill-opacity="0.5" stroke="#606060" stroke-width="1.0"/>
           <path id="arrow"
             d="M 11.500037,31.436501 C 11.940474,20.09759 22.043105,11.32322 32.158766,21.979434 L 37.068811,17.246167 C 37.068811,17.246167 37.088388,32 37.088388,32 L 22.160133,31.978069 C 22.160133,31.978069 26.997745,27.140456 26.997745,27.140456 C 18.528582,18.264221 13.291696,25.230495 11.500037,31.436501 z"
             style="fill:#404040;"/>
          </a>
         </g>
        </svg>
</svg>
