<?xml version="1.0" encoding="UTF-8" standalone="no"?>
<!DOCTYPE svg PUBLIC "-//W3C//DTD SVG 1.1//EN"
 "http://www.w3.org/Graphics/SVG/1.1/DTD/svg11.dtd">
<!-- Generated by graphviz version 2.40.1 (20161225.0304)
 -->
<!-- Title: js_os_chdir Pages: 1 -->
<!--zoomable 218 -->
<svg id="main" version="1.1" xmlns="http://www.w3.org/2000/svg" xmlns:xlink="http://www.w3.org/1999/xlink" xml:space="preserve" onload="init(evt)">
<style type="text/css"><![CDATA[
.edge:hover path { stroke: red; }
.edge:hover polygon { stroke: red; fill: red; }
]]></style>
<script type="text/javascript"><![CDATA[
var edges = document.getElementsByTagName('g');
if (edges && edges.length) {
  for (var i=0;i<edges.length;i++) {
    if (edges[i].id.substr(0,4)=='edge') {
      edges[i].setAttribute('class','edge');
    }
  }
}
]]></script>
        <defs>
                <circle id="rim" cx="0" cy="0" r="7"/>
                <circle id="rim2" cx="0" cy="0" r="3.5"/>
                <g id="zoomPlus">
                        <use xlink:href="#rim" fill="#404040">
                                <set attributeName="fill" to="#808080" begin="zoomplus.mouseover" end="zoomplus.mouseout"/>
                        </use>
                        <path d="M-4,0h8M0,-4v8" fill="none" stroke="white" stroke-width="1.5" pointer-events="none"/>
                </g>
                <g id="zoomMin">
                        <use xlink:href="#rim" fill="#404040">
                                <set attributeName="fill" to="#808080" begin="zoomminus.mouseover" end="zoomminus.mouseout"/>
                        </use>
                        <path d="M-4,0h8" fill="none" stroke="white" stroke-width="1.5" pointer-events="none"/>
                </g>
                <g id="dirArrow">
                        <path fill="none" stroke="white" stroke-width="1.5" d="M0,-3.0v7 M-2.5,-0.5L0,-3.0L2.5,-0.5"/>
                </g>
               <g id="resetDef">
                       <use xlink:href="#rim2" fill="#404040">
                               <set attributeName="fill" to="#808080" begin="reset.mouseover" end="reset.mouseout"/>
                       </use>
               </g>
        </defs>

<script type="text/javascript">
var viewWidth = 570;
var viewHeight = 218;
var sectionId = 'dynsection-93';
</script>
<script xlink:href="svgpan.js"/>
<svg id="graph" class="graph">
<g id="viewport">
<title>js_os_chdir</title>
<!-- Node19819 -->
<g id="node1" class="node">
<title>Node19819</title>
<polygon fill="#bfbfbf" stroke="#000000" points="0,-133.5 0,-152.5 66,-152.5 66,-133.5 0,-133.5"/>
<text text-anchor="middle" x="33" y="-140.5" font-family="Helvetica,sans-Serif" font-size="10.00" fill="#000000">js_os_chdir</text>
</g>
<!-- Node19820 -->
<g id="node2" class="node">
<title>Node19820</title>
<g id="a_node2"><a xlink:href="quickjs_8c.html#ae0bc4f65da64810facb2cb9e476eda2e" target="_top" xlink:title="JS_FreeCString">
<polygon fill="none" stroke="#000000" points="222.5,-190.5 222.5,-209.5 308.5,-209.5 308.5,-190.5 222.5,-190.5"/>
<text text-anchor="middle" x="265.5" y="-197.5" font-family="Helvetica,sans-Serif" font-size="10.00" fill="#000000">JS_FreeCString</text>
</a>
</g>
</g>
<!-- Node19819&#45;&gt;Node19820 -->
<g id="edge1" class="edge">
<title>Node19819&#45;&gt;Node19820</title>
<path fill="none" stroke="#191970" d="M46.5452,-152.5489C59.9595,-161.4855 81.4194,-174.4178 102,-181 137.6123,-192.3897 179.5311,-197.1001 212.0074,-198.9836"/>
<polygon fill="#191970" stroke="#191970" points="212.0354,-202.4894 222.1999,-199.5006 212.3901,-195.4984 212.0354,-202.4894"/>
</g>
<!-- Node19858 -->
<g id="node5" class="node">
<title>Node19858</title>
<g id="a_node5"><a xlink:href="quickjs-libc_8c.html#ad2d02a2bee77d81e6e3aa114751f3ace" target="_top" xlink:title="js_get_errno">
<polygon fill="none" stroke="#000000" points="106,-152.5 106,-171.5 176,-171.5 176,-152.5 106,-152.5"/>
<text text-anchor="middle" x="141" y="-159.5" font-family="Helvetica,sans-Serif" font-size="10.00" fill="#000000">js_get_errno</text>
</a>
</g>
</g>
<!-- Node19819&#45;&gt;Node19858 -->
<g id="edge4" class="edge">
<title>Node19819&#45;&gt;Node19858</title>
<path fill="none" stroke="#191970" d="M66.2848,-148.8557C75.5767,-150.4904 85.8332,-152.2947 95.6926,-154.0293"/>
<polygon fill="#191970" stroke="#191970" points="95.3112,-157.5158 105.7664,-155.8015 96.5241,-150.6217 95.3112,-157.5158"/>
</g>
<!-- Node19859 -->
<g id="node6" class="node">
<title>Node19859</title>
<g id="a_node6"><a xlink:href="quickjs_8h.html#a2050bc428da1c65ac7eb87c3fa3b0392" target="_top" xlink:title="JS_NewInt32">
<polygon fill="none" stroke="#000000" points="103,-114.5 103,-133.5 179,-133.5 179,-114.5 103,-114.5"/>
<text text-anchor="middle" x="141" y="-121.5" font-family="Helvetica,sans-Serif" font-size="10.00" fill="#000000">JS_NewInt32</text>
</a>
</g>
</g>
<!-- Node19819&#45;&gt;Node19859 -->
<g id="edge5" class="edge">
<title>Node19819&#45;&gt;Node19859</title>
<path fill="none" stroke="#191970" d="M66.2848,-137.1443C74.6606,-135.6708 83.8201,-134.0594 92.7661,-132.4856"/>
<polygon fill="#191970" stroke="#191970" points="93.4802,-135.9138 102.7225,-130.734 92.2673,-129.0197 93.4802,-135.9138"/>
</g>
<!-- Node19860 -->
<g id="node7" class="node">
<title>Node19860</title>
<g id="a_node7"><a xlink:href="quickjs_8h.html#af931f06630ab719b5f82a16eb27effd1" target="_top" xlink:title="JS_ToCString">
<polygon fill="none" stroke="#000000" points="102,-76.5 102,-95.5 180,-95.5 180,-76.5 102,-76.5"/>
<text text-anchor="middle" x="141" y="-83.5" font-family="Helvetica,sans-Serif" font-size="10.00" fill="#000000">JS_ToCString</text>
</a>
</g>
</g>
<!-- Node19819&#45;&gt;Node19860 -->
<g id="edge6" class="edge">
<title>Node19819&#45;&gt;Node19860</title>
<path fill="none" stroke="#191970" d="M49.8861,-133.3916C63.7777,-125.562 84.032,-114.3171 102,-105 105.1028,-103.3911 108.3622,-101.7411 111.6196,-100.1179"/>
<polygon fill="#191970" stroke="#191970" points="113.2336,-103.2245 120.6621,-95.6702 110.144,-96.9432 113.2336,-103.2245"/>
</g>
<!-- Node19821 -->
<g id="node3" class="node">
<title>Node19821</title>
<g id="a_node3"><a xlink:href="quickjs_8h.html#afaa20c47565bc704c6c85f3d77254e7d" target="_top" xlink:title="JS_FreeValue">
<polygon fill="none" stroke="#000000" points="355,-190.5 355,-209.5 433,-209.5 433,-190.5 355,-190.5"/>
<text text-anchor="middle" x="394" y="-197.5" font-family="Helvetica,sans-Serif" font-size="10.00" fill="#000000">JS_FreeValue</text>
</a>
</g>
</g>
<!-- Node19820&#45;&gt;Node19821 -->
<g id="edge2" class="edge">
<title>Node19820&#45;&gt;Node19821</title>
<path fill="none" stroke="#191970" d="M308.6461,-200C320.1502,-200 332.6696,-200 344.4862,-200"/>
<polygon fill="#191970" stroke="#191970" points="344.6464,-203.5001 354.6464,-200 344.6463,-196.5001 344.6464,-203.5001"/>
</g>
<!-- Node19822 -->
<g id="node4" class="node">
<title>Node19822</title>
<g id="a_node4"><a xlink:href="quickjs_8c.html#aa059f309c30fd5166d16c82a97973146" target="_top" xlink:title="__JS_FreeValue">
<polygon fill="none" stroke="#ff0000" points="473,-190.5 473,-209.5 562,-209.5 562,-190.5 473,-190.5"/>
<text text-anchor="middle" x="517.5" y="-197.5" font-family="Helvetica,sans-Serif" font-size="10.00" fill="#000000">__JS_FreeValue</text>
</a>
</g>
</g>
<!-- Node19821&#45;&gt;Node19822 -->
<g id="edge3" class="edge">
<title>Node19821&#45;&gt;Node19822</title>
<path fill="none" stroke="#191970" d="M433.0762,-200C442.412,-200 452.5507,-200 462.4566,-200"/>
<polygon fill="#191970" stroke="#191970" points="462.6517,-203.5001 472.6517,-200 462.6517,-196.5001 462.6517,-203.5001"/>
</g>
<!-- Node19861 -->
<g id="node8" class="node">
<title>Node19861</title>
<g id="a_node8"><a xlink:href="quickjs_8c.html#af49e67b73f845dc1f9c3ee648dd9f95c" target="_top" xlink:title="JS_ToCStringLen2">
<polygon fill="none" stroke="#000000" points="216,-76.5 216,-95.5 315,-95.5 315,-76.5 216,-76.5"/>
<text text-anchor="middle" x="265.5" y="-83.5" font-family="Helvetica,sans-Serif" font-size="10.00" fill="#000000">JS_ToCStringLen2</text>
</a>
</g>
</g>
<!-- Node19860&#45;&gt;Node19861 -->
<g id="edge7" class="edge">
<title>Node19860&#45;&gt;Node19861</title>
<path fill="none" stroke="#191970" d="M180.051,-86C188.1494,-86 196.859,-86 205.5104,-86"/>
<polygon fill="#191970" stroke="#191970" points="205.5995,-89.5001 215.5994,-86 205.5994,-82.5001 205.5995,-89.5001"/>
</g>
<!-- Node19861&#45;&gt;Node19821 -->
<g id="edge13" class="edge">
<title>Node19861&#45;&gt;Node19821</title>
<path fill="none" stroke="#191970" d="M271.982,-95.5732C285.0145,-114.2095 316.1416,-155.7428 351,-181 353.3545,-182.706 355.8864,-184.3051 358.5007,-185.794"/>
<polygon fill="#191970" stroke="#191970" points="357.0714,-188.9941 367.5689,-190.4272 360.2563,-182.7606 357.0714,-188.9941"/>
</g>
<!-- Node19862 -->
<g id="node9" class="node">
<title>Node19862</title>
<g id="a_node9"><a xlink:href="quickjs_8c.html#a7bcb8e1a20cbc8374a5f9ba4a2088cec" target="_top" xlink:title="JS_ToString">
<polygon fill="none" stroke="#ff0000" points="358.5,-152.5 358.5,-171.5 429.5,-171.5 429.5,-152.5 358.5,-152.5"/>
<text text-anchor="middle" x="394" y="-159.5" font-family="Helvetica,sans-Serif" font-size="10.00" fill="#000000">JS_ToString</text>
</a>
</g>
</g>
<!-- Node19861&#45;&gt;Node19862 -->
<g id="edge8" class="edge">
<title>Node19861&#45;&gt;Node19862</title>
<path fill="none" stroke="#191970" d="M278.3871,-95.6142C294.7518,-107.5792 324.1016,-128.2342 351,-143 354.2687,-144.7943 357.7403,-146.5534 361.2382,-148.2326"/>
<polygon fill="#191970" stroke="#191970" points="359.8896,-151.4647 370.4376,-152.4604 362.8128,-145.1042 359.8896,-151.4647"/>
</g>
<!-- Node19948 -->
<g id="node10" class="node">
<title>Node19948</title>
<g id="a_node10"><a xlink:href="quickjs_8h.html#ad80a83d73e9b7d872b88fbf2943aebe9" target="_top" xlink:title="JS_IsException">
<polygon fill="none" stroke="#000000" points="351,-114.5 351,-133.5 437,-133.5 437,-114.5 351,-114.5"/>
<text text-anchor="middle" x="394" y="-121.5" font-family="Helvetica,sans-Serif" font-size="10.00" fill="#000000">JS_IsException</text>
</a>
</g>
</g>
<!-- Node19861&#45;&gt;Node19948 -->
<g id="edge9" class="edge">
<title>Node19861&#45;&gt;Node19948</title>
<path fill="none" stroke="#191970" d="M297.926,-95.589C314.2097,-100.4044 334.1421,-106.2988 351.622,-111.468"/>
<polygon fill="#191970" stroke="#191970" points="351.0024,-114.9345 361.5844,-114.4141 352.9875,-108.2219 351.0024,-114.9345"/>
</g>
<!-- Node19864 -->
<g id="node11" class="node">
<title>Node19864</title>
<g id="a_node11"><a xlink:href="quickjs_8h.html#a775522f2d084fc8fa0fcb33f390006b4" target="_top" xlink:title="JS_DupValue">
<polygon fill="none" stroke="#000000" points="355.5,-76.5 355.5,-95.5 432.5,-95.5 432.5,-76.5 355.5,-76.5"/>
<text text-anchor="middle" x="394" y="-83.5" font-family="Helvetica,sans-Serif" font-size="10.00" fill="#000000">JS_DupValue</text>
</a>
</g>
</g>
<!-- Node19861&#45;&gt;Node19864 -->
<g id="edge10" class="edge">
<title>Node19861&#45;&gt;Node19864</title>
<path fill="none" stroke="#191970" d="M315.1815,-86C325.0358,-86 335.3728,-86 345.1976,-86"/>
<polygon fill="#191970" stroke="#191970" points="345.2089,-89.5001 355.2088,-86 345.2088,-82.5001 345.2089,-89.5001"/>
</g>
<!-- Node19873 -->
<g id="node12" class="node">
<title>Node19873</title>
<g id="a_node12"><a xlink:href="quickjs_8c.html#ad303a9bc56766627b5fca41574933930" target="_top" xlink:title="js_alloc_string">
<polygon fill="none" stroke="#ff0000" points="354.5,-38.5 354.5,-57.5 433.5,-57.5 433.5,-38.5 354.5,-38.5"/>
<text text-anchor="middle" x="394" y="-45.5" font-family="Helvetica,sans-Serif" font-size="10.00" fill="#000000">js_alloc_string</text>
</a>
</g>
</g>
<!-- Node19861&#45;&gt;Node19873 -->
<g id="edge11" class="edge">
<title>Node19861&#45;&gt;Node19873</title>
<path fill="none" stroke="#191970" d="M297.926,-76.411C314.2097,-71.5956 334.1421,-65.7012 351.622,-60.532"/>
<polygon fill="#191970" stroke="#191970" points="352.9875,-63.7781 361.5844,-57.5859 351.0024,-57.0655 352.9875,-63.7781"/>
</g>
<!-- Node20053 -->
<g id="node13" class="node">
<title>Node20053</title>
<g id="a_node13"><a xlink:href="cutils_8h.html#aad4e0decb15ab19e9f45b0ee69542a28" target="_top" xlink:title="unicode_to_utf8">
<polygon fill="none" stroke="#000000" points="351,-.5 351,-19.5 437,-19.5 437,-.5 351,-.5"/>
<text text-anchor="middle" x="394" y="-7.5" font-family="Helvetica,sans-Serif" font-size="10.00" fill="#000000">unicode_to_utf8</text>
</a>
</g>
</g>
<!-- Node19861&#45;&gt;Node20053 -->
<g id="edge12" class="edge">
<title>Node19861&#45;&gt;Node20053</title>
<path fill="none" stroke="#191970" d="M278.3871,-76.3858C294.7518,-64.4208 324.1016,-43.7658 351,-29 354.2687,-27.2057 357.7403,-25.4466 361.2382,-23.7674"/>
<polygon fill="#191970" stroke="#191970" points="362.8128,-26.8958 370.4376,-19.5396 359.8896,-20.5353 362.8128,-26.8958"/>
</g>
</g>
</svg>
        <g id="navigator" transform="translate(0 0)" fill="#404254">
                <rect fill="#f2f5e9" fill-opacity="0.5" stroke="#606060" stroke-width=".5" x="0" y="0" width="60" height="60"/>
                <use id="zoomplus" xlink:href="#zoomPlus" x="17" y="9" onmousedown="handleZoom(evt,'in')"/>
                <use id="zoomminus" xlink:href="#zoomMin" x="42" y="9" onmousedown="handleZoom(evt,'out')"/>
                <use id="reset" xlink:href="#resetDef" x="30" y="36" onmousedown="handleReset()"/>
                <g id="arrowUp" xlink:href="#dirArrow" transform="translate(30 24)" onmousedown="handlePan(0,-1)">
                  <use xlink:href="#rim" fill="#404040">
                        <set attributeName="fill" to="#808080" begin="arrowUp.mouseover" end="arrowUp.mouseout"/>
                  </use>
                  <path fill="none" stroke="white" stroke-width="1.5" d="M0,-3.0v7 M-2.5,-0.5L0,-3.0L2.5,-0.5"/>
                </g>
                <g id="arrowRight" xlink:href="#dirArrow" transform="rotate(90) translate(36 -43)" onmousedown="handlePan(1,0)">
                  <use xlink:href="#rim" fill="#404040">
                        <set attributeName="fill" to="#808080" begin="arrowRight.mouseover" end="arrowRight.mouseout"/>
                  </use>
                  <path fill="none" stroke="white" stroke-width="1.5" d="M0,-3.0v7 M-2.5,-0.5L0,-3.0L2.5,-0.5"/>
                </g>
                <g id="arrowDown" xlink:href="#dirArrow" transform="rotate(180) translate(-30 -48)" onmousedown="handlePan(0,1)">
                  <use xlink:href="#rim" fill="#404040">
                        <set attributeName="fill" to="#808080" begin="arrowDown.mouseover" end="arrowDown.mouseout"/>
                  </use>
                  <path fill="none" stroke="white" stroke-width="1.5" d="M0,-3.0v7 M-2.5,-0.5L0,-3.0L2.5,-0.5"/>
                </g>
                <g id="arrowLeft" xlink:href="#dirArrow" transform="rotate(270) translate(-36 17)" onmousedown="handlePan(-1,0)">
                  <use xlink:href="#rim" fill="#404040">
                        <set attributeName="fill" to="#808080" begin="arrowLeft.mouseover" end="arrowLeft.mouseout"/>
                  </use>
                  <path fill="none" stroke="white" stroke-width="1.5" d="M0,-3.0v7 M-2.5,-0.5L0,-3.0L2.5,-0.5"/>
                </g>
        </g>
        <svg viewBox="0 0 15 15" width="100%" height="30px" preserveAspectRatio="xMaxYMin meet">
         <g id="arrow_out" transform="scale(0.3 0.3)">
          <a xlink:href="quickjs-libc_8c_ac1ad39478b2076e2113aff65595b0686_cgraph_org.svg" target="_base">
           <rect id="button" ry="5" rx="5" y="6" x="6" height="38" width="38"
                fill="#f2f5e9" fill-opacity="0.5" stroke="#606060" stroke-width="1.0"/>
           <path id="arrow"
             d="M 11.500037,31.436501 C 11.940474,20.09759 22.043105,11.32322 32.158766,21.979434 L 37.068811,17.246167 C 37.068811,17.246167 37.088388,32 37.088388,32 L 22.160133,31.978069 C 22.160133,31.978069 26.997745,27.140456 26.997745,27.140456 C 18.528582,18.264221 13.291696,25.230495 11.500037,31.436501 z"
             style="fill:#404040;"/>
          </a>
         </g>
        </svg>
</svg>
