<?xml version="1.0" encoding="UTF-8" standalone="no"?>
<!DOCTYPE svg PUBLIC "-//W3C//DTD SVG 1.1//EN"
 "http://www.w3.org/Graphics/SVG/1.1/DTD/svg11.dtd">
<!-- Generated by graphviz version 2.40.1 (20161225.0304)
 -->
<!-- Title: JS_GetImportMeta Pages: 1 -->
<svg width="571pt" height="142pt"
 viewBox="0.00 0.00 571.00 142.00" xmlns="http://www.w3.org/2000/svg" xmlns:xlink="http://www.w3.org/1999/xlink">
<g id="graph0" class="graph" transform="scale(1 1) rotate(0) translate(4 138)">
<title>JS_GetImportMeta</title>
<!-- Node342659 -->
<g id="node1" class="node">
<title>Node342659</title>
<polygon fill="#bfbfbf" stroke="#000000" points="0,-19.5 0,-38.5 99,-38.5 99,-19.5 0,-19.5"/>
<text text-anchor="middle" x="49.5" y="-26.5" font-family="Helvetica,sans-Serif" font-size="10.00" fill="#000000">JS_GetImportMeta</text>
</g>
<!-- Node342660 -->
<g id="node2" class="node">
<title>Node342660</title>
<g id="a_node2"><a xlink:href="quickjs_8c.html#a2c15f4e9fa1344bb2d7caca8e21b34f4" target="_top" xlink:title="js_import_meta">
<polygon fill="none" stroke="#000000" points="163,-38.5 163,-57.5 246,-57.5 246,-38.5 163,-38.5"/>
<text text-anchor="middle" x="204.5" y="-45.5" font-family="Helvetica,sans-Serif" font-size="10.00" fill="#000000">js_import_meta</text>
</a>
</g>
</g>
<!-- Node342659&#45;&gt;Node342660 -->
<g id="edge1" class="edge">
<title>Node342659&#45;&gt;Node342660</title>
<path fill="none" stroke="#191970" d="M109.666,-36.3752C127.4103,-38.5503 146.4324,-40.882 162.7478,-42.882"/>
<polygon fill="#191970" stroke="#191970" points="109.7477,-32.8591 99.3962,-35.1163 108.896,-39.8071 109.7477,-32.8591"/>
</g>
<!-- Node342881 -->
<g id="node8" class="node">
<title>Node342881</title>
<g id="a_node8"><a xlink:href="quickjs-libc_8c.html#a5cc3e22713f1916d49867f60a7375505" target="_top" xlink:title="js_module_set_import_meta">
<polygon fill="none" stroke="#ff0000" points="135,-.5 135,-19.5 274,-19.5 274,-.5 135,-.5"/>
<text text-anchor="middle" x="204.5" y="-7.5" font-family="Helvetica,sans-Serif" font-size="10.00" fill="#000000">js_module_set_import_meta</text>
</a>
</g>
</g>
<!-- Node342659&#45;&gt;Node342881 -->
<g id="edge11" class="edge">
<title>Node342659&#45;&gt;Node342881</title>
<path fill="none" stroke="#191970" d="M109.4184,-21.6552C117.7748,-20.6308 126.4192,-19.5712 134.9344,-18.5274"/>
<polygon fill="#191970" stroke="#191970" points="108.896,-18.1929 99.3962,-22.8837 109.7477,-25.1409 108.896,-18.1929"/>
</g>
<!-- Node342661 -->
<g id="node3" class="node">
<title>Node342661</title>
<g id="a_node3"><a xlink:href="quickjs_8c.html#ac2894ff4edcdb4e6841bcce9c76081e3" target="_top" xlink:title="JS_CallInternal">
<polygon fill="none" stroke="#000000" points="310,-38.5 310,-57.5 393,-57.5 393,-38.5 310,-38.5"/>
<text text-anchor="middle" x="351.5" y="-45.5" font-family="Helvetica,sans-Serif" font-size="10.00" fill="#000000">JS_CallInternal</text>
</a>
</g>
</g>
<!-- Node342660&#45;&gt;Node342661 -->
<g id="edge2" class="edge">
<title>Node342660&#45;&gt;Node342661</title>
<path fill="none" stroke="#191970" d="M256.3268,-48C273.8874,-48 293.2607,-48 309.9192,-48"/>
<polygon fill="#191970" stroke="#191970" points="256.2311,-44.5001 246.2311,-48 256.2311,-51.5001 256.2311,-44.5001"/>
</g>
<!-- Node342661&#45;&gt;Node342661 -->
<g id="edge10" class="edge">
<title>Node342661&#45;&gt;Node342661</title>
<path fill="none" stroke="#191970" d="M324.6208,-66.6539C325.7444,-71.9368 334.7041,-76 351.5,-76 377.0938,-76 384.4919,-66.5653 373.6946,-57.7571"/>
<polygon fill="#191970" stroke="#191970" points="327.7433,-68.2361 329.3054,-57.7571 321.5494,-64.9747 327.7433,-68.2361"/>
</g>
<!-- Node342662 -->
<g id="node4" class="node">
<title>Node342662</title>
<g id="a_node4"><a xlink:href="quickjs_8c.html#ade71a22dc56e7371392393df663b28b3" target="_top" xlink:title="async_func_resume">
<polygon fill="none" stroke="#ff0000" points="444,-114.5 444,-133.5 548,-133.5 548,-114.5 444,-114.5"/>
<text text-anchor="middle" x="496" y="-121.5" font-family="Helvetica,sans-Serif" font-size="10.00" fill="#000000">async_func_resume</text>
</a>
</g>
</g>
<!-- Node342661&#45;&gt;Node342662 -->
<g id="edge3" class="edge">
<title>Node342661&#45;&gt;Node342662</title>
<path fill="none" stroke="#191970" d="M370.1674,-64.7317C385.1367,-77.3741 407.1804,-94.3186 429,-105 436.7101,-108.7743 445.2971,-111.9165 453.6815,-114.487"/>
<polygon fill="#191970" stroke="#191970" points="372.08,-61.7585 362.2264,-57.8651 367.5014,-67.0535 372.08,-61.7585"/>
</g>
<!-- Node342679 -->
<g id="node5" class="node">
<title>Node342679</title>
<g id="a_node5"><a xlink:href="quickjs_8c.html#a1a4c02a29525d5cb2085dd8bca3af350" target="_top" xlink:title="JS_Call">
<polygon fill="none" stroke="#ff0000" points="470.5,-76.5 470.5,-95.5 521.5,-95.5 521.5,-76.5 470.5,-76.5"/>
<text text-anchor="middle" x="496" y="-83.5" font-family="Helvetica,sans-Serif" font-size="10.00" fill="#000000">JS_Call</text>
</a>
</g>
</g>
<!-- Node342661&#45;&gt;Node342679 -->
<g id="edge4" class="edge">
<title>Node342661&#45;&gt;Node342679</title>
<path fill="none" stroke="#191970" d="M403.3524,-55.1309C429.197,-61.291 458.8346,-69.6885 477.4855,-76.4368"/>
<polygon fill="#191970" stroke="#191970" points="403.8269,-51.6484 393.2954,-52.8052 402.2497,-58.4684 403.8269,-51.6484"/>
</g>
<!-- Node342760 -->
<g id="node6" class="node">
<title>Node342760</title>
<g id="a_node6"><a xlink:href="quickjs_8c.html#ad35594576a14c10812efaf958c99af8a" target="_top" xlink:title="JS_CallConstructorInternal">
<polygon fill="none" stroke="#ff0000" points="429,-38.5 429,-57.5 563,-57.5 563,-38.5 429,-38.5"/>
<text text-anchor="middle" x="496" y="-45.5" font-family="Helvetica,sans-Serif" font-size="10.00" fill="#000000">JS_CallConstructorInternal</text>
</a>
</g>
</g>
<!-- Node342661&#45;&gt;Node342760 -->
<g id="edge6" class="edge">
<title>Node342661&#45;&gt;Node342760</title>
<path fill="none" stroke="#191970" d="M403.5209,-41.4909C411.7845,-41.2892 420.4321,-41.2142 428.9815,-41.2658"/>
<polygon fill="#191970" stroke="#191970" points="403.1798,-37.9998 393.2954,-41.814 403.401,-44.9963 403.1798,-37.9998"/>
</g>
<!-- Node342774 -->
<g id="node7" class="node">
<title>Node342774</title>
<g id="a_node7"><a xlink:href="quickjs_8c.html#a75f6ee5e4235a7dc99889f3d2eb2c147" target="_top" xlink:title="JS_CallFree">
<polygon fill="none" stroke="#ff0000" points="460.5,-.5 460.5,-19.5 531.5,-19.5 531.5,-.5 460.5,-.5"/>
<text text-anchor="middle" x="496" y="-7.5" font-family="Helvetica,sans-Serif" font-size="10.00" fill="#000000">JS_CallFree</text>
</a>
</g>
</g>
<!-- Node342661&#45;&gt;Node342774 -->
<g id="edge8" class="edge">
<title>Node342661&#45;&gt;Node342774</title>
<path fill="none" stroke="#191970" d="M379.6305,-35.1263C402.6733,-27.5295 435.4179,-18.7723 460.3055,-13.4723"/>
<polygon fill="#191970" stroke="#191970" points="378.4119,-31.8441 370.095,-38.4076 380.6897,-38.4632 378.4119,-31.8441"/>
</g>
<!-- Node342679&#45;&gt;Node342661 -->
<g id="edge5" class="edge">
<title>Node342679&#45;&gt;Node342661</title>
<path fill="none" stroke="#191970" d="M460.4088,-82.5497C431.8289,-76.469 392.8374,-65.8129 370.095,-57.5924"/>
<polygon fill="#191970" stroke="#191970" points="459.923,-86.0222 470.4179,-84.57 461.3081,-79.1605 459.923,-86.0222"/>
</g>
<!-- Node342760&#45;&gt;Node342661 -->
<g id="edge7" class="edge">
<title>Node342760&#45;&gt;Node342661</title>
<path fill="none" stroke="#191970" d="M418.7059,-54.7354C409.9651,-54.6845 401.3232,-54.5014 393.2954,-54.186"/>
<polygon fill="#191970" stroke="#191970" points="418.9819,-58.2354 428.9815,-54.7342 418.981,-51.2354 418.9819,-58.2354"/>
</g>
<!-- Node342774&#45;&gt;Node342661 -->
<g id="edge9" class="edge">
<title>Node342774&#45;&gt;Node342661</title>
<path fill="none" stroke="#191970" d="M467.7961,-22.8979C446.5982,-29.8825 417.2201,-37.8432 393.2954,-43.1948"/>
<polygon fill="#191970" stroke="#191970" points="469.1689,-26.127 477.4855,-19.5632 466.8909,-19.508 469.1689,-26.127"/>
</g>
</g>
</svg>
