<?xml version="1.0" encoding="UTF-8" standalone="no"?>
<!DOCTYPE svg PUBLIC "-//W3C//DTD SVG 1.1//EN"
 "http://www.w3.org/Graphics/SVG/1.1/DTD/svg11.dtd">
<!-- Generated by graphviz version 2.40.1 (20161225.0304)
 -->
<!-- Title: js_math_imul Pages: 1 -->
<svg width="451pt" height="104pt"
 viewBox="0.00 0.00 451.00 104.00" xmlns="http://www.w3.org/2000/svg" xmlns:xlink="http://www.w3.org/1999/xlink">
<g id="graph0" class="graph" transform="scale(1 1) rotate(0) translate(4 100)">
<title>js_math_imul</title>
<!-- Node419948 -->
<g id="node1" class="node">
<title>Node419948</title>
<polygon fill="#bfbfbf" stroke="#000000" points="0,-57.5 0,-76.5 74,-76.5 74,-57.5 0,-57.5"/>
<text text-anchor="middle" x="37" y="-64.5" font-family="Helvetica,sans-Serif" font-size="10.00" fill="#000000">js_math_imul</text>
</g>
<!-- Node419949 -->
<g id="node2" class="node">
<title>Node419949</title>
<g id="a_node2"><a xlink:href="quickjs_8h.html#a2050bc428da1c65ac7eb87c3fa3b0392" target="_top" xlink:title="JS_NewInt32">
<polygon fill="none" stroke="#000000" points="110,-76.5 110,-95.5 186,-95.5 186,-76.5 110,-76.5"/>
<text text-anchor="middle" x="148" y="-83.5" font-family="Helvetica,sans-Serif" font-size="10.00" fill="#000000">JS_NewInt32</text>
</a>
</g>
</g>
<!-- Node419948&#45;&gt;Node419949 -->
<g id="edge1" class="edge">
<title>Node419948&#45;&gt;Node419949</title>
<path fill="none" stroke="#191970" d="M74.2702,-73.3796C82.509,-74.7898 91.3507,-76.3033 99.9495,-77.7751"/>
<polygon fill="#191970" stroke="#191970" points="99.4342,-81.2378 109.8814,-79.4752 100.6153,-74.3381 99.4342,-81.2378"/>
</g>
<!-- Node419950 -->
<g id="node3" class="node">
<title>Node419950</title>
<g id="a_node3"><a xlink:href="quickjs_8c.html#a4073bd2b4f247bf6077cd956759193b9" target="_top" xlink:title="JS_ToInt32">
<polygon fill="none" stroke="#000000" points="114.5,-38.5 114.5,-57.5 181.5,-57.5 181.5,-38.5 114.5,-38.5"/>
<text text-anchor="middle" x="148" y="-45.5" font-family="Helvetica,sans-Serif" font-size="10.00" fill="#000000">JS_ToInt32</text>
</a>
</g>
</g>
<!-- Node419948&#45;&gt;Node419950 -->
<g id="edge2" class="edge">
<title>Node419948&#45;&gt;Node419950</title>
<path fill="none" stroke="#191970" d="M74.2702,-60.6204C83.8995,-58.9722 94.3524,-57.1829 104.2785,-55.4839"/>
<polygon fill="#191970" stroke="#191970" points="105.109,-58.8927 114.3751,-53.7556 103.9279,-51.993 105.109,-58.8927"/>
</g>
<!-- Node419951 -->
<g id="node4" class="node">
<title>Node419951</title>
<g id="a_node4"><a xlink:href="quickjs_8h.html#a775522f2d084fc8fa0fcb33f390006b4" target="_top" xlink:title="JS_DupValue">
<polygon fill="none" stroke="#000000" points="226.5,-57.5 226.5,-76.5 303.5,-76.5 303.5,-57.5 226.5,-57.5"/>
<text text-anchor="middle" x="265" y="-64.5" font-family="Helvetica,sans-Serif" font-size="10.00" fill="#000000">JS_DupValue</text>
</a>
</g>
</g>
<!-- Node419950&#45;&gt;Node419951 -->
<g id="edge3" class="edge">
<title>Node419950&#45;&gt;Node419951</title>
<path fill="none" stroke="#191970" d="M181.5275,-53.4446C192.2863,-55.1918 204.4324,-57.1642 216.0604,-59.0526"/>
<polygon fill="#191970" stroke="#191970" points="215.6661,-62.5343 226.0978,-60.6826 216.7882,-55.6248 215.6661,-62.5343"/>
</g>
<!-- Node419952 -->
<g id="node5" class="node">
<title>Node419952</title>
<g id="a_node5"><a xlink:href="quickjs_8c.html#a643088ab23784b7f3c6ff94c37228256" target="_top" xlink:title="JS_ToInt32Free">
<polygon fill="none" stroke="#000000" points="222,-19.5 222,-38.5 308,-38.5 308,-19.5 222,-19.5"/>
<text text-anchor="middle" x="265" y="-26.5" font-family="Helvetica,sans-Serif" font-size="10.00" fill="#000000">JS_ToInt32Free</text>
</a>
</g>
</g>
<!-- Node419950&#45;&gt;Node419952 -->
<g id="edge4" class="edge">
<title>Node419950&#45;&gt;Node419952</title>
<path fill="none" stroke="#191970" d="M181.5275,-42.5554C190.9474,-41.0256 201.4307,-39.3232 211.6988,-37.6558"/>
<polygon fill="#191970" stroke="#191970" points="212.538,-41.0654 221.8477,-36.0076 211.4159,-34.1559 212.538,-41.0654"/>
</g>
<!-- Node419953 -->
<g id="node6" class="node">
<title>Node419953</title>
<g id="a_node6"><a xlink:href="quickjs_8h.html#ad80a83d73e9b7d872b88fbf2943aebe9" target="_top" xlink:title="JS_IsException">
<polygon fill="none" stroke="#000000" points="350.5,-38.5 350.5,-57.5 436.5,-57.5 436.5,-38.5 350.5,-38.5"/>
<text text-anchor="middle" x="393.5" y="-45.5" font-family="Helvetica,sans-Serif" font-size="10.00" fill="#000000">JS_IsException</text>
</a>
</g>
</g>
<!-- Node419952&#45;&gt;Node419953 -->
<g id="edge5" class="edge">
<title>Node419952&#45;&gt;Node419953</title>
<path fill="none" stroke="#191970" d="M308.1461,-35.3796C318.4232,-36.8991 329.5107,-38.5385 340.1834,-40.1166"/>
<polygon fill="#191970" stroke="#191970" points="339.8446,-43.6045 350.249,-41.6049 340.8686,-36.6798 339.8446,-43.6045"/>
</g>
<!-- Node419954 -->
<g id="node7" class="node">
<title>Node419954</title>
<g id="a_node7"><a xlink:href="quickjs_8c.html#ae738291483438efefca5c9fa4d269504" target="_top" xlink:title="JS_ToNumberFree">
<polygon fill="none" stroke="#ff0000" points="344,-.5 344,-19.5 443,-19.5 443,-.5 344,-.5"/>
<text text-anchor="middle" x="393.5" y="-7.5" font-family="Helvetica,sans-Serif" font-size="10.00" fill="#000000">JS_ToNumberFree</text>
</a>
</g>
</g>
<!-- Node419952&#45;&gt;Node419954 -->
<g id="edge6" class="edge">
<title>Node419952&#45;&gt;Node419954</title>
<path fill="none" stroke="#191970" d="M308.1461,-22.6204C316.3213,-21.4116 325.0093,-20.127 333.5934,-18.8578"/>
<polygon fill="#191970" stroke="#191970" points="334.2053,-22.3055 343.5858,-17.3803 333.1813,-15.3807 334.2053,-22.3055"/>
</g>
</g>
</svg>
