<?xml version="1.0" encoding="UTF-8" standalone="no"?>
<!DOCTYPE svg PUBLIC "-//W3C//DTD SVG 1.1//EN"
 "http://www.w3.org/Graphics/SVG/1.1/DTD/svg11.dtd">
<!-- Generated by graphviz version 2.40.1 (20161225.0304)
 -->
<!-- Title: JS_TryGetPropertyInt64 Pages: 1 -->
<svg width="1174pt" height="1030pt"
 viewBox="0.00 0.00 1174.00 1030.00" xmlns="http://www.w3.org/2000/svg" xmlns:xlink="http://www.w3.org/1999/xlink">
<g id="graph0" class="graph" transform="scale(1 1) rotate(0) translate(4 1026)">
<title>JS_TryGetPropertyInt64</title>
<!-- Node192602 -->
<g id="node1" class="node">
<title>Node192602</title>
<polygon fill="#bfbfbf" stroke="#000000" points="0,-679.5 0,-698.5 122,-698.5 122,-679.5 0,-679.5"/>
<text text-anchor="middle" x="61" y="-686.5" font-family="Helvetica,sans-Serif" font-size="10.00" fill="#000000">JS_TryGetPropertyInt64</text>
</g>
<!-- Node192603 -->
<g id="node2" class="node">
<title>Node192603</title>
<g id="a_node2"><a xlink:href="quickjs_8c.html#a877fcb7651d95b411ce70e62b7f4a1f0" target="_top" xlink:title="__JS_AtomFromUInt32">
<polygon fill="none" stroke="#000000" points="293,-1002.5 293,-1021.5 412,-1021.5 412,-1002.5 293,-1002.5"/>
<text text-anchor="middle" x="352.5" y="-1009.5" font-family="Helvetica,sans-Serif" font-size="10.00" fill="#000000">__JS_AtomFromUInt32</text>
</a>
</g>
</g>
<!-- Node192602&#45;&gt;Node192603 -->
<g id="edge1" class="edge">
<title>Node192602&#45;&gt;Node192603</title>
<path fill="none" stroke="#191970" d="M61.5167,-698.6505C64.1057,-737.0998 78.9235,-880.8736 158,-955 191.6773,-986.5691 241.9135,-1000.7516 282.8946,-1007.0768"/>
<polygon fill="#191970" stroke="#191970" points="282.4357,-1010.5466 292.8283,-1008.4864 283.4193,-1003.6161 282.4357,-1010.5466"/>
</g>
<!-- Node192604 -->
<g id="node3" class="node">
<title>Node192604</title>
<g id="a_node3"><a xlink:href="quickjs_8c.html#ab7fc45a99935a1c0ba50b0216d9401a9" target="_top" xlink:title="JS_FreeAtom">
<polygon fill="none" stroke="#000000" points="811.5,-129.5 811.5,-148.5 888.5,-148.5 888.5,-129.5 811.5,-129.5"/>
<text text-anchor="middle" x="850" y="-136.5" font-family="Helvetica,sans-Serif" font-size="10.00" fill="#000000">JS_FreeAtom</text>
</a>
</g>
</g>
<!-- Node192602&#45;&gt;Node192604 -->
<g id="edge2" class="edge">
<title>Node192602&#45;&gt;Node192604</title>
<path fill="none" stroke="#191970" d="M61.5491,-679.1751C65.4985,-611.3694 91.3409,-212.6672 158,-115 214.6118,-32.0537 252.076,0 352.5,0 352.5,0 352.5,0 538,0 646.878,0 680.9062,-7.2206 775,-62 800.819,-77.0312 823.6765,-103.3758 837.1793,-121.0053"/>
<polygon fill="#191970" stroke="#191970" points="834.5832,-123.3801 843.3537,-129.3239 840.204,-119.208 834.5832,-123.3801"/>
</g>
<!-- Node192610 -->
<g id="node7" class="node">
<title>Node192610</title>
<g id="a_node7"><a xlink:href="quickjs_8h.html#a89b7c8686c7eee70b86be722ee4730ad" target="_top" xlink:title="JS_GetProperty">
<polygon fill="none" stroke="#000000" points="164.5,-413.5 164.5,-432.5 250.5,-432.5 250.5,-413.5 164.5,-413.5"/>
<text text-anchor="middle" x="207.5" y="-420.5" font-family="Helvetica,sans-Serif" font-size="10.00" fill="#000000">JS_GetProperty</text>
</a>
</g>
</g>
<!-- Node192602&#45;&gt;Node192610 -->
<g id="edge6" class="edge">
<title>Node192602&#45;&gt;Node192610</title>
<path fill="none" stroke="#191970" d="M66.3878,-679.2175C88.0172,-639.9448 168.7485,-493.3611 197.3642,-441.4036"/>
<polygon fill="#191970" stroke="#191970" points="200.4592,-443.0389 202.2177,-432.591 194.3277,-439.6619 200.4592,-443.0389"/>
</g>
<!-- Node192650 -->
<g id="node14" class="node">
<title>Node192650</title>
<g id="a_node14"><a xlink:href="quickjs_8h.html#ad80a83d73e9b7d872b88fbf2943aebe9" target="_top" xlink:title="JS_IsException">
<polygon fill="none" stroke="#000000" points="676.5,-850.5 676.5,-869.5 762.5,-869.5 762.5,-850.5 676.5,-850.5"/>
<text text-anchor="middle" x="719.5" y="-857.5" font-family="Helvetica,sans-Serif" font-size="10.00" fill="#000000">JS_IsException</text>
</a>
</g>
</g>
<!-- Node192602&#45;&gt;Node192650 -->
<g id="edge38" class="edge">
<title>Node192602&#45;&gt;Node192650</title>
<path fill="none" stroke="#191970" d="M76.69,-698.5757C95.5131,-709.7864 128.2603,-728.4183 158,-741 169.0666,-745.6818 441.8952,-831.7456 448,-833 522.7556,-848.3604 610.9544,-855.0809 666.0649,-857.9526"/>
<polygon fill="#191970" stroke="#191970" points="666.1341,-861.4602 676.2956,-858.4611 666.4817,-854.4689 666.1341,-861.4602"/>
</g>
<!-- Node192709 -->
<g id="node19" class="node">
<title>Node192709</title>
<g id="a_node19"><a xlink:href="quickjs_8c.html#a90d6e607f6917d817c1e997bd2e6ed07" target="_top" xlink:title="JS_GetPropertyValue">
<polygon fill="none" stroke="#ff0000" points="664,-268.5 664,-287.5 775,-287.5 775,-268.5 664,-268.5"/>
<text text-anchor="middle" x="719.5" y="-275.5" font-family="Helvetica,sans-Serif" font-size="10.00" fill="#000000">JS_GetPropertyValue</text>
</a>
</g>
</g>
<!-- Node192602&#45;&gt;Node192709 -->
<g id="edge33" class="edge">
<title>Node192602&#45;&gt;Node192709</title>
<path fill="none" stroke="#191970" d="M122.3356,-695.3991C236.9235,-703.7748 484.825,-704.4711 628,-575 670.4827,-536.5835 705.4358,-357.6009 716.1274,-297.6367"/>
<polygon fill="#191970" stroke="#191970" points="719.6084,-298.0496 717.8879,-287.5954 712.7135,-296.8407 719.6084,-298.0496"/>
</g>
<!-- Node192651 -->
<g id="node20" class="node">
<title>Node192651</title>
<g id="a_node20"><a xlink:href="quickjs_8h.html#a2050bc428da1c65ac7eb87c3fa3b0392" target="_top" xlink:title="JS_NewInt32">
<polygon fill="none" stroke="#000000" points="812,-167.5 812,-186.5 888,-186.5 888,-167.5 812,-167.5"/>
<text text-anchor="middle" x="850" y="-174.5" font-family="Helvetica,sans-Serif" font-size="10.00" fill="#000000">JS_NewInt32</text>
</a>
</g>
</g>
<!-- Node192602&#45;&gt;Node192651 -->
<g id="edge45" class="edge">
<title>Node192602&#45;&gt;Node192651</title>
<path fill="none" stroke="#191970" d="M63.043,-679.2922C80.3548,-598.3099 205.4472,-38 352.5,-38 352.5,-38 352.5,-38 538,-38 650.9912,-38 676.7014,-74.2828 775,-130 792.634,-139.9952 793.7961,-147.2813 811,-158 813.6009,-159.6205 816.3602,-161.2058 819.1619,-162.7262"/>
<polygon fill="#191970" stroke="#191970" points="817.6189,-165.8684 828.1131,-167.3251 820.8179,-159.642 817.6189,-165.8684"/>
</g>
<!-- Node192898 -->
<g id="node27" class="node">
<title>Node192898</title>
<g id="a_node27"><a xlink:href="quickjs_8c.html#a9d6d0a9704951d01c128975e0d2213f8" target="_top" xlink:title="JS_HasProperty">
<polygon fill="none" stroke="#ff0000" points="308,-755.5 308,-774.5 397,-774.5 397,-755.5 308,-755.5"/>
<text text-anchor="middle" x="352.5" y="-762.5" font-family="Helvetica,sans-Serif" font-size="10.00" fill="#000000">JS_HasProperty</text>
</a>
</g>
</g>
<!-- Node192602&#45;&gt;Node192898 -->
<g id="edge34" class="edge">
<title>Node192602&#45;&gt;Node192898</title>
<path fill="none" stroke="#191970" d="M97.6235,-698.5485C150.4193,-712.3134 247.9151,-737.7326 305.8144,-752.8281"/>
<polygon fill="#191970" stroke="#191970" points="305.2375,-756.2946 315.797,-755.4308 307.0035,-749.5211 305.2375,-756.2946"/>
</g>
<!-- Node193034 -->
<g id="node28" class="node">
<title>Node193034</title>
<g id="a_node28"><a xlink:href="quickjs_8c.html#aa641af3a921335927dab07dc83285917" target="_top" xlink:title="JS_NewAtomInt64">
<polygon fill="none" stroke="#000000" points="158,-926.5 158,-945.5 257,-945.5 257,-926.5 158,-926.5"/>
<text text-anchor="middle" x="207.5" y="-933.5" font-family="Helvetica,sans-Serif" font-size="10.00" fill="#000000">JS_NewAtomInt64</text>
</a>
</g>
</g>
<!-- Node192602&#45;&gt;Node193034 -->
<g id="edge39" class="edge">
<title>Node192602&#45;&gt;Node193034</title>
<path fill="none" stroke="#191970" d="M65.2378,-698.5959C77.7668,-726.5932 116.3702,-810.2283 158,-874 168.2996,-889.7777 181.7262,-906.3971 191.9968,-918.4534"/>
<polygon fill="#191970" stroke="#191970" points="189.638,-921.0763 198.8279,-926.3485 194.9316,-916.4961 189.638,-921.0763"/>
</g>
<!-- Node192605 -->
<g id="node4" class="node">
<title>Node192605</title>
<g id="a_node4"><a xlink:href="quickjs_8c.html#a7f6796ee7a195631366f57c713a33f65" target="_top" xlink:title="__JS_AtomIsConst">
<polygon fill="none" stroke="#000000" points="925,-401.5 925,-420.5 1027,-420.5 1027,-401.5 925,-401.5"/>
<text text-anchor="middle" x="976" y="-408.5" font-family="Helvetica,sans-Serif" font-size="10.00" fill="#000000">__JS_AtomIsConst</text>
</a>
</g>
</g>
<!-- Node192604&#45;&gt;Node192605 -->
<g id="edge3" class="edge">
<title>Node192604&#45;&gt;Node192605</title>
<path fill="none" stroke="#191970" d="M877.1167,-148.7104C881.5184,-151.211 885.7061,-154.2771 889,-158 951.1381,-228.2315 969.3769,-345.0411 974.3109,-391.2824"/>
<polygon fill="#191970" stroke="#191970" points="970.8477,-391.8318 975.2973,-401.447 977.815,-391.1556 970.8477,-391.8318"/>
</g>
<!-- Node192606 -->
<g id="node5" class="node">
<title>Node192606</title>
<g id="a_node5"><a xlink:href="quickjs_8c.html#a0bbd9e3ecd55e3ea6c9d44bfda382095" target="_top" xlink:title="__JS_FreeAtom">
<polygon fill="none" stroke="#000000" points="932.5,-129.5 932.5,-148.5 1019.5,-148.5 1019.5,-129.5 932.5,-129.5"/>
<text text-anchor="middle" x="976" y="-136.5" font-family="Helvetica,sans-Serif" font-size="10.00" fill="#000000">__JS_FreeAtom</text>
</a>
</g>
</g>
<!-- Node192604&#45;&gt;Node192606 -->
<g id="edge4" class="edge">
<title>Node192604&#45;&gt;Node192606</title>
<path fill="none" stroke="#191970" d="M888.8323,-139C899.3509,-139 910.9289,-139 922.1152,-139"/>
<polygon fill="#191970" stroke="#191970" points="922.2367,-142.5001 932.2366,-139 922.2366,-135.5001 922.2367,-142.5001"/>
</g>
<!-- Node192607 -->
<g id="node6" class="node">
<title>Node192607</title>
<g id="a_node6"><a xlink:href="quickjs_8c.html#a58c8965dad50b15b75918a09f3d9dc7c" target="_top" xlink:title="JS_FreeAtomStruct">
<polygon fill="none" stroke="#ff0000" points="1063,-129.5 1063,-148.5 1166,-148.5 1166,-129.5 1063,-129.5"/>
<text text-anchor="middle" x="1114.5" y="-136.5" font-family="Helvetica,sans-Serif" font-size="10.00" fill="#000000">JS_FreeAtomStruct</text>
</a>
</g>
</g>
<!-- Node192606&#45;&gt;Node192607 -->
<g id="edge5" class="edge">
<title>Node192606&#45;&gt;Node192607</title>
<path fill="none" stroke="#191970" d="M1019.8223,-139C1030.2585,-139 1041.5896,-139 1052.6647,-139"/>
<polygon fill="#191970" stroke="#191970" points="1052.7308,-142.5001 1062.7308,-139 1052.7307,-135.5001 1052.7308,-142.5001"/>
</g>
<!-- Node192611 -->
<g id="node8" class="node">
<title>Node192611</title>
<g id="a_node8"><a xlink:href="quickjs_8c.html#a5762c57ae0c9937e986040c01222833a" target="_top" xlink:title="JS_GetPropertyInternal">
<polygon fill="none" stroke="#ff0000" points="293,-413.5 293,-432.5 412,-432.5 412,-413.5 293,-413.5"/>
<text text-anchor="middle" x="352.5" y="-420.5" font-family="Helvetica,sans-Serif" font-size="10.00" fill="#000000">JS_GetPropertyInternal</text>
</a>
</g>
</g>
<!-- Node192610&#45;&gt;Node192611 -->
<g id="edge7" class="edge">
<title>Node192610&#45;&gt;Node192611</title>
<path fill="none" stroke="#191970" d="M250.6122,-423C260.7746,-423 271.8644,-423 282.8661,-423"/>
<polygon fill="#191970" stroke="#191970" points="282.9157,-426.5001 292.9157,-423 282.9157,-419.5001 282.9157,-426.5001"/>
</g>
<!-- Node192612 -->
<g id="node9" class="node">
<title>Node192612</title>
<g id="a_node9"><a xlink:href="quickjs_8c.html#a288254c06a39c9fca740a7abdad2834e" target="_top" xlink:title="__JS_AtomIsTaggedInt">
<polygon fill="none" stroke="#000000" points="478.5,-546.5 478.5,-565.5 597.5,-565.5 597.5,-546.5 478.5,-546.5"/>
<text text-anchor="middle" x="538" y="-553.5" font-family="Helvetica,sans-Serif" font-size="10.00" fill="#000000">__JS_AtomIsTaggedInt</text>
</a>
</g>
</g>
<!-- Node192611&#45;&gt;Node192612 -->
<g id="edge8" class="edge">
<title>Node192611&#45;&gt;Node192612</title>
<path fill="none" stroke="#191970" d="M357.6693,-432.8256C370.01,-455.2431 403.5093,-510.2846 448,-537 454.3063,-540.7868 461.257,-543.8259 468.416,-546.264"/>
<polygon fill="#191970" stroke="#191970" points="467.682,-549.6981 478.2665,-549.2297 469.7001,-542.9953 467.682,-549.6981"/>
</g>
<!-- Node192613 -->
<g id="node10" class="node">
<title>Node192613</title>
<g id="a_node10"><a xlink:href="quickjs_8c.html#a89f38938cee8077ce1fbba07946ed185" target="_top" xlink:title="__JS_AtomToUInt32">
<polygon fill="none" stroke="#000000" points="484,-508.5 484,-527.5 592,-527.5 592,-508.5 484,-508.5"/>
<text text-anchor="middle" x="538" y="-515.5" font-family="Helvetica,sans-Serif" font-size="10.00" fill="#000000">__JS_AtomToUInt32</text>
</a>
</g>
</g>
<!-- Node192611&#45;&gt;Node192613 -->
<g id="edge9" class="edge">
<title>Node192611&#45;&gt;Node192613</title>
<path fill="none" stroke="#191970" d="M361.5063,-432.6457C377.3502,-448.9964 411.9605,-482.0281 448,-499 456.1696,-502.8473 465.1213,-505.922 474.1109,-508.3777"/>
<polygon fill="#191970" stroke="#191970" points="473.2954,-511.7814 483.8453,-510.8067 474.9902,-504.9897 473.2954,-511.7814"/>
</g>
<!-- Node192614 -->
<g id="node11" class="node">
<title>Node192614</title>
<g id="a_node11"><a xlink:href="quickjs_8c.html#a06b76f5124fd985e35f4c652fd018d6d" target="_top" xlink:title="find_own_property">
<polygon fill="none" stroke="#ff0000" points="490,-470.5 490,-489.5 586,-489.5 586,-470.5 490,-470.5"/>
<text text-anchor="middle" x="538" y="-477.5" font-family="Helvetica,sans-Serif" font-size="10.00" fill="#000000">find_own_property</text>
</a>
</g>
</g>
<!-- Node192611&#45;&gt;Node192614 -->
<g id="edge10" class="edge">
<title>Node192611&#45;&gt;Node192614</title>
<path fill="none" stroke="#191970" d="M373.3729,-432.5058C392.4782,-440.916 421.6941,-453.0531 448,-461 458.2997,-464.1115 469.4118,-466.9012 480.1954,-469.3231"/>
<polygon fill="#191970" stroke="#191970" points="479.4591,-472.7447 489.9736,-471.4425 480.9419,-465.9035 479.4591,-472.7447"/>
</g>
<!-- Node192616 -->
<g id="node12" class="node">
<title>Node192616</title>
<g id="a_node12"><a xlink:href="quickjs_8c.html#add3eea1f6d626963ade3c28a1fd563d1" target="_top" xlink:title="JS_AtomIsNumericIndex">
<polygon fill="none" stroke="#ff0000" points="475,-736.5 475,-755.5 601,-755.5 601,-736.5 475,-736.5"/>
<text text-anchor="middle" x="538" y="-743.5" font-family="Helvetica,sans-Serif" font-size="10.00" fill="#000000">JS_AtomIsNumericIndex</text>
</a>
</g>
</g>
<!-- Node192611&#45;&gt;Node192616 -->
<g id="edge11" class="edge">
<title>Node192611&#45;&gt;Node192616</title>
<path fill="none" stroke="#191970" d="M354.2902,-432.6063C363.1215,-479.0176 403.4141,-679.528 448,-722 453.0348,-726.7961 458.9174,-730.6581 465.221,-733.7645"/>
<polygon fill="#191970" stroke="#191970" points="464.1357,-737.1062 474.708,-737.796 466.8734,-730.6637 464.1357,-737.1062"/>
</g>
<!-- Node192620 -->
<g id="node13" class="node">
<title>Node192620</title>
<g id="a_node13"><a xlink:href="quickjs_8h.html#afaa20c47565bc704c6c85f3d77254e7d" target="_top" xlink:title="JS_FreeValue">
<polygon fill="none" stroke="#ff0000" points="811,-660.5 811,-679.5 889,-679.5 889,-660.5 811,-660.5"/>
<text text-anchor="middle" x="850" y="-667.5" font-family="Helvetica,sans-Serif" font-size="10.00" fill="#000000">JS_FreeValue</text>
</a>
</g>
</g>
<!-- Node192611&#45;&gt;Node192620 -->
<g id="edge18" class="edge">
<title>Node192611&#45;&gt;Node192620</title>
<path fill="none" stroke="#191970" d="M355.5226,-432.7941C364.5485,-460.2721 394.0795,-538.4601 448,-575 515.3297,-620.6269 548.7501,-589.709 628,-608 692.0275,-622.7777 765.2564,-644.107 809.5386,-657.5028"/>
<polygon fill="#191970" stroke="#191970" points="808.756,-660.923 819.3416,-660.4819 810.7914,-654.2254 808.756,-660.923"/>
</g>
<!-- Node192816 -->
<g id="node15" class="node">
<title>Node192816</title>
<g id="a_node15"><a xlink:href="quickjs_8c.html#a23b7fe57d08a1b3b39ba556f9cbb6c76" target="_top" xlink:title="JS_AutoInitProperty">
<polygon fill="none" stroke="#ff0000" points="486,-432.5 486,-451.5 590,-451.5 590,-432.5 486,-432.5"/>
<text text-anchor="middle" x="538" y="-439.5" font-family="Helvetica,sans-Serif" font-size="10.00" fill="#000000">JS_AutoInitProperty</text>
</a>
</g>
</g>
<!-- Node192611&#45;&gt;Node192816 -->
<g id="edge14" class="edge">
<title>Node192611&#45;&gt;Node192816</title>
<path fill="none" stroke="#191970" d="M412.2144,-429.1163C432.5101,-431.1951 455.2333,-433.5225 475.724,-435.6213"/>
<polygon fill="#191970" stroke="#191970" points="475.5914,-439.126 485.896,-436.6632 476.3047,-432.1624 475.5914,-439.126"/>
</g>
<!-- Node192686 -->
<g id="node16" class="node">
<title>Node192686</title>
<g id="a_node16"><a xlink:href="quickjs_8c.html#a75f6ee5e4235a7dc99889f3d2eb2c147" target="_top" xlink:title="JS_CallFree">
<polygon fill="none" stroke="#ff0000" points="684,-660.5 684,-679.5 755,-679.5 755,-660.5 684,-660.5"/>
<text text-anchor="middle" x="719.5" y="-667.5" font-family="Helvetica,sans-Serif" font-size="10.00" fill="#000000">JS_CallFree</text>
</a>
</g>
</g>
<!-- Node192611&#45;&gt;Node192686 -->
<g id="edge15" class="edge">
<title>Node192611&#45;&gt;Node192686</title>
<path fill="none" stroke="#191970" d="M354.5277,-432.9129C361.446,-464.0842 387.1504,-560.8342 448,-608 514.3301,-659.4139 615.5301,-669.6102 673.8192,-670.8463"/>
<polygon fill="#191970" stroke="#191970" points="673.7921,-674.3462 683.8376,-670.9791 673.8849,-667.3468 673.7921,-674.3462"/>
</g>
<!-- Node192658 -->
<g id="node17" class="node">
<title>Node192658</title>
<g id="a_node17"><a xlink:href="quickjs_8h.html#a775522f2d084fc8fa0fcb33f390006b4" target="_top" xlink:title="JS_DupValue">
<polygon fill="none" stroke="#000000" points="811.5,-698.5 811.5,-717.5 888.5,-717.5 888.5,-698.5 811.5,-698.5"/>
<text text-anchor="middle" x="850" y="-705.5" font-family="Helvetica,sans-Serif" font-size="10.00" fill="#000000">JS_DupValue</text>
</a>
</g>
</g>
<!-- Node192611&#45;&gt;Node192658 -->
<g id="edge17" class="edge">
<title>Node192611&#45;&gt;Node192658</title>
<path fill="none" stroke="#191970" d="M353.3091,-432.824C356.8354,-468.8111 374.1915,-594.3812 448,-653 551.4177,-735.1344 718.9665,-726.4651 801.2471,-715.9406"/>
<polygon fill="#191970" stroke="#191970" points="801.8798,-719.3871 811.3249,-714.5869 800.9479,-712.4494 801.8798,-719.3871"/>
</g>
<!-- Node192708 -->
<g id="node18" class="node">
<title>Node192708</title>
<g id="a_node18"><a xlink:href="quickjs_8c.html#aeb97957655d979e9fe56c955da2b2d4b" target="_top" xlink:title="JS_GetPropertyUint32">
<polygon fill="none" stroke="#ff0000" points="480.5,-268.5 480.5,-287.5 595.5,-287.5 595.5,-268.5 480.5,-268.5"/>
<text text-anchor="middle" x="538" y="-275.5" font-family="Helvetica,sans-Serif" font-size="10.00" fill="#000000">JS_GetPropertyUint32</text>
</a>
</g>
</g>
<!-- Node192611&#45;&gt;Node192708 -->
<g id="edge19" class="edge">
<title>Node192611&#45;&gt;Node192708</title>
<path fill="none" stroke="#191970" d="M356.8669,-413.2276C368.1458,-389.1935 400.7121,-326.9872 448,-297 454.9033,-292.6223 462.6442,-289.2357 470.6118,-286.6187"/>
<polygon fill="#191970" stroke="#191970" points="471.7643,-289.929 480.4017,-283.7935 469.8233,-283.2035 471.7643,-289.929"/>
</g>
<!-- Node192611&#45;&gt;Node192651 -->
<g id="edge29" class="edge">
<title>Node192611&#45;&gt;Node192651</title>
<path fill="none" stroke="#191970" d="M354.1278,-413.4323C362.1975,-367.2429 399.4719,-168.1109 448,-133 504.1969,-92.3406 713.1335,-140.6597 805.5473,-164.8246"/>
<polygon fill="#191970" stroke="#191970" points="804.8728,-168.2663 815.4349,-167.4344 806.6593,-161.4981 804.8728,-168.2663"/>
</g>
<!-- Node192814 -->
<g id="node21" class="node">
<title>Node192814</title>
<g id="a_node21"><a xlink:href="quickjs_8c.html#a93550bf785e919d0881399712c54cb34" target="_top" xlink:title="JS_GetPrototypePrimitive">
<polygon fill="none" stroke="#000000" points="473,-306.5 473,-325.5 603,-325.5 603,-306.5 473,-306.5"/>
<text text-anchor="middle" x="538" y="-313.5" font-family="Helvetica,sans-Serif" font-size="10.00" fill="#000000">JS_GetPrototypePrimitive</text>
</a>
</g>
</g>
<!-- Node192611&#45;&gt;Node192814 -->
<g id="edge26" class="edge">
<title>Node192611&#45;&gt;Node192814</title>
<path fill="none" stroke="#191970" d="M359.9786,-413.2594C374.6874,-394.8364 409.3302,-354.9505 448,-335 452.7898,-332.5289 457.8809,-330.379 463.1106,-328.5088"/>
<polygon fill="#191970" stroke="#191970" points="464.1962,-331.8363 472.6388,-325.4353 462.0471,-325.1743 464.1962,-331.8363"/>
</g>
<!-- Node192900 -->
<g id="node22" class="node">
<title>Node192900</title>
<g id="a_node22"><a xlink:href="quickjs_8h.html#aaab426b47c95d00479b7355b1cf7f56c" target="_top" xlink:title="JS_IsUninitialized">
<polygon fill="none" stroke="#000000" points="490.5,-230.5 490.5,-249.5 585.5,-249.5 585.5,-230.5 490.5,-230.5"/>
<text text-anchor="middle" x="538" y="-237.5" font-family="Helvetica,sans-Serif" font-size="10.00" fill="#000000">JS_IsUninitialized</text>
</a>
</g>
</g>
<!-- Node192611&#45;&gt;Node192900 -->
<g id="edge27" class="edge">
<title>Node192611&#45;&gt;Node192900</title>
<path fill="none" stroke="#191970" d="M355.092,-413.3537C363.3139,-384.7265 391.6532,-299.7192 448,-259 457.4103,-252.1996 468.7344,-247.7294 480.1264,-244.8143"/>
<polygon fill="#191970" stroke="#191970" points="481.0862,-248.1873 490.1086,-242.6334 479.592,-241.3486 481.0862,-248.1873"/>
</g>
<!-- Node193032 -->
<g id="node23" class="node">
<title>Node193032</title>
<g id="a_node23"><a xlink:href="quickjs_8c.html#a077ffa6455c0d7831bd4547542b5f2f7" target="_top" xlink:title="js_new_string_char">
<polygon fill="none" stroke="#ff0000" points="487.5,-192.5 487.5,-211.5 588.5,-211.5 588.5,-192.5 487.5,-192.5"/>
<text text-anchor="middle" x="538" y="-199.5" font-family="Helvetica,sans-Serif" font-size="10.00" fill="#000000">js_new_string_char</text>
</a>
</g>
</g>
<!-- Node192611&#45;&gt;Node193032 -->
<g id="edge28" class="edge">
<title>Node192611&#45;&gt;Node193032</title>
<path fill="none" stroke="#191970" d="M354.0282,-413.094C359.6779,-380.0384 382.5566,-272.7001 448,-221 456.5386,-214.2545 466.9081,-209.7538 477.5289,-206.7809"/>
<polygon fill="#191970" stroke="#191970" points="478.3867,-210.1746 487.3079,-204.4595 476.7699,-203.3638 478.3867,-210.1746"/>
</g>
<!-- Node192820 -->
<g id="node24" class="node">
<title>Node192820</title>
<g id="a_node24"><a xlink:href="quickjs_8c.html#ab8d0b87c9eed4eb6c054b6f4e1731554" target="_top" xlink:title="JS_ThrowReferenceErrorNot\lDefined">
<polygon fill="none" stroke="#ff0000" points="466.5,-143 466.5,-173 609.5,-173 609.5,-143 466.5,-143"/>
<text text-anchor="start" x="474.5" y="-161" font-family="Helvetica,sans-Serif" font-size="10.00" fill="#000000">JS_ThrowReferenceErrorNot</text>
<text text-anchor="middle" x="538" y="-150" font-family="Helvetica,sans-Serif" font-size="10.00" fill="#000000">Defined</text>
</a>
</g>
</g>
<!-- Node192611&#45;&gt;Node192820 -->
<g id="edge30" class="edge">
<title>Node192611&#45;&gt;Node192820</title>
<path fill="none" stroke="#191970" d="M353.3791,-413.0223C357.1498,-376.4252 375.2505,-248.3039 448,-183 450.9698,-180.3341 454.2003,-177.9498 457.614,-175.8175"/>
<polygon fill="#191970" stroke="#191970" points="459.3213,-178.8732 466.4325,-171.0194 455.9757,-172.7244 459.3213,-178.8732"/>
</g>
<!-- Node192901 -->
<g id="node25" class="node">
<title>Node192901</title>
<g id="a_node25"><a xlink:href="quickjs_8c.html#a75ac132a3af4de01e1fadeb0bede6ee7" target="_top" xlink:title="JS_ThrowReferenceErrorUninitialized">
<polygon fill="none" stroke="#ff0000" points="448,-394.5 448,-413.5 628,-413.5 628,-394.5 448,-394.5"/>
<text text-anchor="middle" x="538" y="-401.5" font-family="Helvetica,sans-Serif" font-size="10.00" fill="#000000">JS_ThrowReferenceErrorUninitialized</text>
</a>
</g>
</g>
<!-- Node192611&#45;&gt;Node192901 -->
<g id="edge31" class="edge">
<title>Node192611&#45;&gt;Node192901</title>
<path fill="none" stroke="#191970" d="M412.2144,-416.8837C420.3598,-416.0494 428.8962,-415.175 437.5224,-414.2915"/>
<polygon fill="#191970" stroke="#191970" points="438.0807,-417.7527 447.672,-413.2519 437.3674,-410.7892 438.0807,-417.7527"/>
</g>
<!-- Node192819 -->
<g id="node26" class="node">
<title>Node192819</title>
<g id="a_node26"><a xlink:href="quickjs_8c.html#a033dd3ebd29c4eb9f0baff1dd0fec0b1" target="_top" xlink:title="JS_ThrowTypeErrorDetached\lArrayBuffer">
<polygon fill="none" stroke="#000000" points="465,-345 465,-375 611,-375 611,-345 465,-345"/>
<text text-anchor="start" x="473" y="-363" font-family="Helvetica,sans-Serif" font-size="10.00" fill="#000000">JS_ThrowTypeErrorDetached</text>
<text text-anchor="middle" x="538" y="-352" font-family="Helvetica,sans-Serif" font-size="10.00" fill="#000000">ArrayBuffer</text>
</a>
</g>
</g>
<!-- Node192611&#45;&gt;Node192819 -->
<g id="edge32" class="edge">
<title>Node192611&#45;&gt;Node192819</title>
<path fill="none" stroke="#191970" d="M374.6309,-413.4058C393.8268,-405.2748 422.4643,-393.5992 448,-385 455.2401,-382.5619 462.8632,-380.1745 470.4833,-377.9018"/>
<polygon fill="#191970" stroke="#191970" points="471.4885,-381.2545 480.1046,-375.0891 469.5243,-374.5357 471.4885,-381.2545"/>
</g>
<!-- Node192616&#45;&gt;Node192620 -->
<g id="edge12" class="edge">
<title>Node192616&#45;&gt;Node192620</title>
<path fill="none" stroke="#191970" d="M578.2931,-736.4659C625.4791,-725.2646 705.9768,-706.0425 775,-689 784.002,-686.7773 793.6027,-684.3718 802.8246,-682.0436"/>
<polygon fill="#191970" stroke="#191970" points="803.8009,-685.407 812.6363,-679.5601 802.0832,-678.621 803.8009,-685.407"/>
</g>
<!-- Node192616&#45;&gt;Node192650 -->
<g id="edge13" class="edge">
<title>Node192616&#45;&gt;Node192650</title>
<path fill="none" stroke="#191970" d="M553.1624,-755.5235C584.6579,-775.3058 657.3858,-820.9861 695.3864,-844.8543"/>
<polygon fill="#191970" stroke="#191970" points="693.9233,-848.0684 704.2531,-850.4234 697.6465,-842.1407 693.9233,-848.0684"/>
</g>
<!-- Node192686&#45;&gt;Node192620 -->
<g id="edge16" class="edge">
<title>Node192686&#45;&gt;Node192620</title>
<path fill="none" stroke="#191970" d="M755.1597,-670C769.1398,-670 785.4191,-670 800.5036,-670"/>
<polygon fill="#191970" stroke="#191970" points="800.713,-673.5001 810.713,-670 800.713,-666.5001 800.713,-673.5001"/>
</g>
<!-- Node192708&#45;&gt;Node192709 -->
<g id="edge20" class="edge">
<title>Node192708&#45;&gt;Node192709</title>
<path fill="none" stroke="#191970" d="M595.6771,-278C614.1544,-278 634.7508,-278 653.7593,-278"/>
<polygon fill="#191970" stroke="#191970" points="653.8328,-281.5001 663.8328,-278 653.8327,-274.5001 653.8328,-281.5001"/>
</g>
<!-- Node192709&#45;&gt;Node192604 -->
<g id="edge22" class="edge">
<title>Node192709&#45;&gt;Node192604</title>
<path fill="none" stroke="#191970" d="M724.7147,-268.3842C737.0893,-246.3155 770.2642,-191.3709 811,-158 812.7988,-156.5264 814.7311,-155.1318 816.7383,-153.8188"/>
<polygon fill="#191970" stroke="#191970" points="818.9109,-156.6071 825.8382,-148.5906 815.4238,-150.5375 818.9109,-156.6071"/>
</g>
<!-- Node192709&#45;&gt;Node192610 -->
<g id="edge24" class="edge">
<title>Node192709&#45;&gt;Node192610</title>
<path fill="none" stroke="#191970" d="M716.8889,-268.1699C708.9904,-240.6759 682.4788,-163.0408 628,-133 557.9448,-94.37 520.4067,-98.9814 448,-133 323.4217,-191.5302 241.145,-349.7928 215.8042,-404.2735"/>
<polygon fill="#191970" stroke="#191970" points="212.58,-402.9084 211.618,-413.4595 218.9498,-405.8112 212.58,-402.9084"/>
</g>
<!-- Node192709&#45;&gt;Node192620 -->
<g id="edge23" class="edge">
<title>Node192709&#45;&gt;Node192620</title>
<path fill="none" stroke="#191970" d="M722.7259,-287.6899C739.8267,-339.0579 819.9866,-579.8449 843.5009,-650.4777"/>
<polygon fill="#191970" stroke="#191970" points="840.2905,-651.9154 846.7701,-660.2979 846.9322,-649.7043 840.2905,-651.9154"/>
</g>
<!-- Node192709&#45;&gt;Node192658 -->
<g id="edge21" class="edge">
<title>Node192709&#45;&gt;Node192658</title>
<path fill="none" stroke="#191970" d="M720.5279,-287.8153C726.5615,-343.842 758.911,-623.0162 811,-689 811.9333,-690.1823 812.9589,-691.2959 814.0565,-692.3442"/>
<polygon fill="#191970" stroke="#191970" points="812.0214,-695.1925 822.1338,-698.3533 816.1997,-689.5762 812.0214,-695.1925"/>
</g>
<!-- Node192709&#45;&gt;Node192651 -->
<g id="edge25" class="edge">
<title>Node192709&#45;&gt;Node192651</title>
<path fill="none" stroke="#191970" d="M732.0129,-268.3157C754.5784,-250.8512 802.2781,-213.9342 829.6136,-192.778"/>
<polygon fill="#191970" stroke="#191970" points="831.9495,-195.3959 837.7155,-186.5075 827.6651,-189.8602 831.9495,-195.3959"/>
</g>
<!-- Node192898&#45;&gt;Node192616 -->
<g id="edge35" class="edge">
<title>Node192898&#45;&gt;Node192616</title>
<path fill="none" stroke="#191970" d="M397.4044,-760.4006C417.6728,-758.3246 442.1391,-755.8186 464.9409,-753.4831"/>
<polygon fill="#191970" stroke="#191970" points="465.344,-756.9603 474.9353,-752.4595 464.6307,-749.9967 465.344,-756.9603"/>
</g>
<!-- Node192898&#45;&gt;Node192620 -->
<g id="edge37" class="edge">
<title>Node192898&#45;&gt;Node192620</title>
<path fill="none" stroke="#191970" d="M397.228,-769.3713C452.0252,-773.7256 547.5031,-778.0628 628,-765 695.9781,-753.9687 713.9987,-747.9618 775,-716 792.7156,-706.7179 793.933,-699.4268 811,-689 813.6773,-687.3644 816.5159,-685.7579 819.3925,-684.2145"/>
<polygon fill="#191970" stroke="#191970" points="821.2401,-687.2012 828.5591,-679.5407 818.0604,-680.9651 821.2401,-687.2012"/>
</g>
<!-- Node192898&#45;&gt;Node192658 -->
<g id="edge36" class="edge">
<title>Node192898&#45;&gt;Node192658</title>
<path fill="none" stroke="#191970" d="M373.0295,-774.5446C437.9549,-803.1926 642.3608,-881.4611 775,-798 803.8497,-779.8468 787.0087,-752.7336 811.366,-724.725"/>
<polygon fill="#191970" stroke="#191970" points="813.9043,-727.1364 818.499,-717.5898 808.9538,-722.1874 813.9043,-727.1364"/>
</g>
<!-- Node193034&#45;&gt;Node192603 -->
<g id="edge40" class="edge">
<title>Node193034&#45;&gt;Node192603</title>
<path fill="none" stroke="#191970" d="M221.6147,-945.5704C238.2417,-956.6089 266.9104,-974.9141 293,-988 300.503,-991.7634 308.7447,-995.3908 316.6399,-998.6362"/>
<polygon fill="#191970" stroke="#191970" points="315.4409,-1001.9261 326.0256,-1002.3889 318.0397,-995.4264 315.4409,-1001.9261"/>
</g>
<!-- Node193034&#45;&gt;Node192650 -->
<g id="edge43" class="edge">
<title>Node193034&#45;&gt;Node192650</title>
<path fill="none" stroke="#191970" d="M246.9381,-926.4489C261.3722,-923.1618 277.8718,-919.6462 293,-917 440.8654,-891.1359 479.3529,-894.9088 628,-874 640.3082,-872.2687 653.5312,-870.3057 665.9928,-868.4089"/>
<polygon fill="#191970" stroke="#191970" points="666.8903,-871.8123 676.2446,-866.8378 665.8298,-864.8931 666.8903,-871.8123"/>
</g>
<!-- Node192713 -->
<g id="node29" class="node">
<title>Node192713</title>
<g id="a_node29"><a xlink:href="quickjs_8c.html#acd08798ec15cc37c60d2e7d70007c6a8" target="_top" xlink:title="__JS_NewAtom">
<polygon fill="none" stroke="#ff0000" points="675.5,-926.5 675.5,-945.5 763.5,-945.5 763.5,-926.5 675.5,-926.5"/>
<text text-anchor="middle" x="719.5" y="-933.5" font-family="Helvetica,sans-Serif" font-size="10.00" fill="#000000">__JS_NewAtom</text>
</a>
</g>
</g>
<!-- Node193034&#45;&gt;Node192713 -->
<g id="edge41" class="edge">
<title>Node193034&#45;&gt;Node192713</title>
<path fill="none" stroke="#191970" d="M242.1547,-945.508C257.5898,-949.2727 276.0711,-953.1417 293,-955 426.3597,-969.6392 584.3558,-954.0779 665.4776,-943.7047"/>
<polygon fill="#191970" stroke="#191970" points="665.9923,-947.1673 675.4565,-942.405 665.0881,-940.2259 665.9923,-947.1673"/>
</g>
<!-- Node192666 -->
<g id="node30" class="node">
<title>Node192666</title>
<g id="a_node30"><a xlink:href="quickjs_8c.html#a0ee6a3654a6016393fac5e1c108f403a" target="_top" xlink:title="JS_NewString">
<polygon fill="none" stroke="#ff0000" points="312.5,-926.5 312.5,-945.5 392.5,-945.5 392.5,-926.5 312.5,-926.5"/>
<text text-anchor="middle" x="352.5" y="-933.5" font-family="Helvetica,sans-Serif" font-size="10.00" fill="#000000">JS_NewString</text>
</a>
</g>
</g>
<!-- Node193034&#45;&gt;Node192666 -->
<g id="edge44" class="edge">
<title>Node193034&#45;&gt;Node192666</title>
<path fill="none" stroke="#191970" d="M257.4008,-936C271.7714,-936 287.4583,-936 301.8726,-936"/>
<polygon fill="#191970" stroke="#191970" points="302.1064,-939.5001 312.1064,-936 302.1064,-932.5001 302.1064,-939.5001"/>
</g>
<!-- Node192713&#45;&gt;Node192605 -->
<g id="edge42" class="edge">
<title>Node192713&#45;&gt;Node192605</title>
<path fill="none" stroke="#191970" d="M730.1935,-926.3168C760.2346,-898.49 845.9962,-814.6596 889,-727 940.6084,-621.8005 965.4833,-481.3759 973.2399,-430.4661"/>
<polygon fill="#191970" stroke="#191970" points="976.7124,-430.9091 974.7102,-420.5052 969.7874,-429.8869 976.7124,-430.9091"/>
</g>
</g>
</svg>
