<?xml version="1.0" encoding="UTF-8" standalone="no"?>
<!DOCTYPE svg PUBLIC "-//W3C//DTD SVG 1.1//EN"
 "http://www.w3.org/Graphics/SVG/1.1/DTD/svg11.dtd">
<!-- Generated by graphviz version 2.40.1 (20161225.0304)
 -->
<!-- Title: JS_ToObjectFree Pages: 1 -->
<svg width="471pt" height="84pt"
 viewBox="0.00 0.00 471.00 84.00" xmlns="http://www.w3.org/2000/svg" xmlns:xlink="http://www.w3.org/1999/xlink">
<g id="graph0" class="graph" transform="scale(1 1) rotate(0) translate(4 80)">
<title>JS_ToObjectFree</title>
<!-- Node12349 -->
<g id="node1" class="node">
<title>Node12349</title>
<polygon fill="#bfbfbf" stroke="#000000" points="0,-19.5 0,-38.5 93,-38.5 93,-19.5 0,-19.5"/>
<text text-anchor="middle" x="46.5" y="-26.5" font-family="Helvetica,sans-Serif" font-size="10.00" fill="#000000">JS_ToObjectFree</text>
</g>
<!-- Node12350 -->
<g id="node2" class="node">
<title>Node12350</title>
<g id="a_node2"><a xlink:href="quickjs_8c.html#aa40a5354bee3b56e05a71244910bcc78" target="_top" xlink:title="build_for_in_iterator">
<polygon fill="none" stroke="#000000" points="129,-38.5 129,-57.5 230,-57.5 230,-38.5 129,-38.5"/>
<text text-anchor="middle" x="179.5" y="-45.5" font-family="Helvetica,sans-Serif" font-size="10.00" fill="#000000">build_for_in_iterator</text>
</a>
</g>
</g>
<!-- Node12349&#45;&gt;Node12350 -->
<g id="edge1" class="edge">
<title>Node12349&#45;&gt;Node12350</title>
<path fill="none" stroke="#191970" d="M102.9253,-37.0608C111.4847,-38.2835 120.2722,-39.5389 128.7025,-40.7432"/>
<polygon fill="#191970" stroke="#191970" points="103.4114,-33.5948 93.0169,-35.6453 102.4214,-40.5244 103.4114,-33.5948"/>
</g>
<!-- Node12646 -->
<g id="node5" class="node">
<title>Node12646</title>
<g id="a_node5"><a xlink:href="quickjs_8c.html#a80bed67de3ceaf66888093b5fc84972a" target="_top" xlink:title="js_string_raw">
<polygon fill="none" stroke="#000000" points="142.5,-.5 142.5,-19.5 216.5,-19.5 216.5,-.5 142.5,-.5"/>
<text text-anchor="middle" x="179.5" y="-7.5" font-family="Helvetica,sans-Serif" font-size="10.00" fill="#000000">js_string_raw</text>
</a>
</g>
</g>
<!-- Node12349&#45;&gt;Node12646 -->
<g id="edge5" class="edge">
<title>Node12349&#45;&gt;Node12646</title>
<path fill="none" stroke="#191970" d="M103.0558,-20.9206C116.3698,-19.0186 130.2279,-17.0389 142.43,-15.2957"/>
<polygon fill="#191970" stroke="#191970" points="102.4214,-17.4756 93.0169,-22.3547 103.4114,-24.4052 102.4214,-17.4756"/>
</g>
<!-- Node12351 -->
<g id="node3" class="node">
<title>Node12351</title>
<g id="a_node3"><a xlink:href="quickjs_8c.html#a3472bcc4762be7f7de1dcf4c1e0c5ff1" target="_top" xlink:title="js_for_in_start">
<polygon fill="none" stroke="#000000" points="266,-38.5 266,-57.5 344,-57.5 344,-38.5 266,-38.5"/>
<text text-anchor="middle" x="305" y="-45.5" font-family="Helvetica,sans-Serif" font-size="10.00" fill="#000000">js_for_in_start</text>
</a>
</g>
</g>
<!-- Node12350&#45;&gt;Node12351 -->
<g id="edge2" class="edge">
<title>Node12350&#45;&gt;Node12351</title>
<path fill="none" stroke="#191970" d="M240.2733,-48C248.9211,-48 257.619,-48 265.7092,-48"/>
<polygon fill="#191970" stroke="#191970" points="240.1839,-44.5001 230.1839,-48 240.1839,-51.5001 240.1839,-44.5001"/>
</g>
<!-- Node12352 -->
<g id="node4" class="node">
<title>Node12352</title>
<g id="a_node4"><a xlink:href="quickjs_8c.html#ac2894ff4edcdb4e6841bcce9c76081e3" target="_top" xlink:title="JS_CallInternal">
<polygon fill="none" stroke="#ff0000" points="380,-38.5 380,-57.5 463,-57.5 463,-38.5 380,-38.5"/>
<text text-anchor="middle" x="421.5" y="-45.5" font-family="Helvetica,sans-Serif" font-size="10.00" fill="#000000">JS_CallInternal</text>
</a>
</g>
</g>
<!-- Node12351&#45;&gt;Node12352 -->
<g id="edge3" class="edge">
<title>Node12351&#45;&gt;Node12352</title>
<path fill="none" stroke="#191970" d="M354.3213,-48C362.8345,-48 371.6082,-48 379.8919,-48"/>
<polygon fill="#191970" stroke="#191970" points="354.1169,-44.5001 344.1169,-48 354.1169,-51.5001 354.1169,-44.5001"/>
</g>
<!-- Node12352&#45;&gt;Node12352 -->
<g id="edge4" class="edge">
<title>Node12352&#45;&gt;Node12352</title>
<path fill="none" stroke="#191970" d="M400.0196,-67.4C401.4541,-72.3146 408.6143,-76 421.5,-76 442.1172,-76 448.0768,-66.5653 439.379,-57.7571"/>
<polygon fill="#191970" stroke="#191970" points="403.401,-68.3496 403.621,-57.7571 396.8434,-65.9004 403.401,-68.3496"/>
</g>
</g>
</svg>
