<?xml version="1.0" encoding="UTF-8" standalone="no"?>
<!DOCTYPE svg PUBLIC "-//W3C//DTD SVG 1.1//EN"
 "http://www.w3.org/Graphics/SVG/1.1/DTD/svg11.dtd">
<!-- Generated by graphviz version 2.40.1 (20161225.0304)
 -->
<!-- Title: JS_GetPrototype Pages: 1 -->
<svg width="602pt" height="872pt"
 viewBox="0.00 0.00 602.00 872.00" xmlns="http://www.w3.org/2000/svg" xmlns:xlink="http://www.w3.org/1999/xlink">
<g id="graph0" class="graph" transform="scale(1 1) rotate(0) translate(4 868)">
<title>JS_GetPrototype</title>
<!-- Node66313 -->
<g id="node1" class="node">
<title>Node66313</title>
<polygon fill="#bfbfbf" stroke="#000000" points="0,-695.5 0,-714.5 92,-714.5 92,-695.5 0,-695.5"/>
<text text-anchor="middle" x="46" y="-702.5" font-family="Helvetica,sans-Serif" font-size="10.00" fill="#000000">JS_GetPrototype</text>
</g>
<!-- Node66314 -->
<g id="node2" class="node">
<title>Node66314</title>
<g id="a_node2"><a xlink:href="quickjs_8c.html#ac2894ff4edcdb4e6841bcce9c76081e3" target="_top" xlink:title="JS_CallInternal">
<polygon fill="none" stroke="#000000" points="150,-714.5 150,-733.5 233,-733.5 233,-714.5 150,-714.5"/>
<text text-anchor="middle" x="191.5" y="-721.5" font-family="Helvetica,sans-Serif" font-size="10.00" fill="#000000">JS_CallInternal</text>
</a>
</g>
</g>
<!-- Node66313&#45;&gt;Node66314 -->
<g id="edge1" class="edge">
<title>Node66313&#45;&gt;Node66314</title>
<path fill="none" stroke="#191970" d="M102.2256,-712.3422C118.0214,-714.4049 134.9145,-716.6108 149.7081,-718.5426"/>
<polygon fill="#191970" stroke="#191970" points="102.4062,-708.8361 92.0371,-711.0117 101.4997,-715.7772 102.4062,-708.8361"/>
</g>
<!-- Node66902 -->
<g id="node26" class="node">
<title>Node66902</title>
<g id="a_node26"><a xlink:href="quickjs_8c.html#adda8732f2afb3bb7bd7e5f59e3ba022d" target="_top" xlink:title="js_proxy_getPrototypeOf">
<polygon fill="none" stroke="#ff0000" points="465,-844.5 465,-863.5 590,-863.5 590,-844.5 465,-844.5"/>
<text text-anchor="middle" x="527.5" y="-851.5" font-family="Helvetica,sans-Serif" font-size="10.00" fill="#000000">js_proxy_getPrototypeOf</text>
</a>
</g>
</g>
<!-- Node66313&#45;&gt;Node66902 -->
<g id="edge39" class="edge">
<title>Node66313&#45;&gt;Node66902</title>
<path fill="none" stroke="#191970" d="M57.7097,-723.0921C71.824,-743.3135 97.4892,-775.3915 128,-792 235.7269,-850.641 382.5349,-858.1132 464.8719,-856.9493"/>
<polygon fill="#191970" stroke="#191970" points="60.5606,-721.0598 52.0616,-714.7337 54.7606,-724.979 60.5606,-721.0598"/>
</g>
<!-- Node66906 -->
<g id="node27" class="node">
<title>Node66906</title>
<g id="a_node27"><a xlink:href="quickjs_8c.html#ae8b32777df50bb192c19840adc4d32a1" target="_top" xlink:title="js_proxy_setPrototypeOf">
<polygon fill="none" stroke="#ff0000" points="465,-806.5 465,-825.5 590,-825.5 590,-806.5 465,-806.5"/>
<text text-anchor="middle" x="527.5" y="-813.5" font-family="Helvetica,sans-Serif" font-size="10.00" fill="#000000">js_proxy_setPrototypeOf</text>
</a>
</g>
</g>
<!-- Node66313&#45;&gt;Node66906 -->
<g id="edge40" class="edge">
<title>Node66313&#45;&gt;Node66906</title>
<path fill="none" stroke="#191970" d="M64.5987,-721.4591C80.3471,-734.422 104.1138,-751.7905 128,-761 241.1749,-804.6354 384.1373,-814.3996 464.7351,-816.1528"/>
<polygon fill="#191970" stroke="#191970" points="66.6177,-718.5825 56.7247,-714.7905 62.0938,-723.9242 66.6177,-718.5825"/>
</g>
<!-- Node66904 -->
<g id="node28" class="node">
<title>Node66904</title>
<g id="a_node28"><a xlink:href="quickjs_8c.html#a7f82fd53b039b4e12f1addfa15d750ae" target="_top" xlink:title="JS_GetPrototypeFree">
<polygon fill="none" stroke="#ff0000" points="136,-676.5 136,-695.5 247,-695.5 247,-676.5 136,-676.5"/>
<text text-anchor="middle" x="191.5" y="-683.5" font-family="Helvetica,sans-Serif" font-size="10.00" fill="#000000">JS_GetPrototypeFree</text>
</a>
</g>
</g>
<!-- Node66313&#45;&gt;Node66904 -->
<g id="edge36" class="edge">
<title>Node66313&#45;&gt;Node66904</title>
<path fill="none" stroke="#191970" d="M102.0305,-697.6833C113.1144,-696.2359 124.7457,-694.7171 135.8179,-693.2712"/>
<polygon fill="#191970" stroke="#191970" points="101.4997,-694.2228 92.0371,-698.9883 102.4062,-701.1639 101.4997,-694.2228"/>
</g>
<!-- Node66619 -->
<g id="node29" class="node">
<title>Node66619</title>
<g id="a_node29"><a xlink:href="quickjs_8c.html#a0b46bf41453514070c7c0d722b107546" target="_top" xlink:title="js_object_get___proto__">
<polygon fill="none" stroke="#000000" points="130.5,-638.5 130.5,-657.5 252.5,-657.5 252.5,-638.5 130.5,-638.5"/>
<text text-anchor="middle" x="191.5" y="-645.5" font-family="Helvetica,sans-Serif" font-size="10.00" fill="#000000">js_object_get___proto__</text>
</a>
</g>
</g>
<!-- Node66313&#45;&gt;Node66619 -->
<g id="edge37" class="edge">
<title>Node66313&#45;&gt;Node66619</title>
<path fill="none" stroke="#191970" d="M73.7062,-690.9533C89.4005,-683.3043 109.5321,-674.0008 128,-667 137.0384,-663.5737 146.9822,-660.3503 156.264,-657.5654"/>
<polygon fill="#191970" stroke="#191970" points="71.9803,-687.902 64.5623,-695.4668 75.0786,-694.179 71.9803,-687.902"/>
</g>
<!-- Node66905 -->
<g id="node30" class="node">
<title>Node66905</title>
<g id="a_node30"><a xlink:href="quickjs_8c.html#ad3ae6750957868bc31ebfcb116b4df9c" target="_top" xlink:title="js_object_getPrototypeOf">
<polygon fill="none" stroke="#000000" points="128,-600.5 128,-619.5 255,-619.5 255,-600.5 128,-600.5"/>
<text text-anchor="middle" x="191.5" y="-607.5" font-family="Helvetica,sans-Serif" font-size="10.00" fill="#000000">js_object_getPrototypeOf</text>
</a>
</g>
</g>
<!-- Node66313&#45;&gt;Node66905 -->
<g id="edge38" class="edge">
<title>Node66313&#45;&gt;Node66905</title>
<path fill="none" stroke="#191970" d="M60.3698,-687.6792C75.5224,-670.4699 100.916,-644.4745 128,-629 134.6942,-625.1752 142.234,-622.0511 149.7182,-619.5227"/>
<polygon fill="#191970" stroke="#191970" points="57.6527,-685.471 53.7913,-695.3371 62.9625,-690.0323 57.6527,-685.471"/>
</g>
<!-- Node66314&#45;&gt;Node66314 -->
<g id="edge35" class="edge">
<title>Node66314&#45;&gt;Node66314</title>
<path fill="none" stroke="#191970" d="M164.6208,-742.6539C165.7444,-747.9368 174.7041,-752 191.5,-752 217.0938,-752 224.4919,-742.5653 213.6946,-733.7571"/>
<polygon fill="#191970" stroke="#191970" points="167.7433,-744.2361 169.3054,-733.7571 161.5494,-740.9747 167.7433,-744.2361"/>
</g>
<!-- Node66315 -->
<g id="node3" class="node">
<title>Node66315</title>
<g id="a_node3"><a xlink:href="quickjs_8c.html#ade71a22dc56e7371392393df663b28b3" target="_top" xlink:title="async_func_resume">
<polygon fill="none" stroke="#000000" points="306,-676.5 306,-695.5 410,-695.5 410,-676.5 306,-676.5"/>
<text text-anchor="middle" x="358" y="-683.5" font-family="Helvetica,sans-Serif" font-size="10.00" fill="#000000">async_func_resume</text>
</a>
</g>
</g>
<!-- Node66314&#45;&gt;Node66315 -->
<g id="edge2" class="edge">
<title>Node66314&#45;&gt;Node66315</title>
<path fill="none" stroke="#191970" d="M242.9215,-712.2642C266.5091,-706.8808 294.11,-700.5815 316.3676,-695.5017"/>
<polygon fill="#191970" stroke="#191970" points="242.056,-708.8716 233.0855,-714.509 243.6136,-715.6961 242.056,-708.8716"/>
</g>
<!-- Node66332 -->
<g id="node8" class="node">
<title>Node66332</title>
<g id="a_node8"><a xlink:href="quickjs_8c.html#a1a4c02a29525d5cb2085dd8bca3af350" target="_top" xlink:title="JS_Call">
<polygon fill="none" stroke="#ff0000" points="332.5,-365.5 332.5,-384.5 383.5,-384.5 383.5,-365.5 332.5,-365.5"/>
<text text-anchor="middle" x="358" y="-372.5" font-family="Helvetica,sans-Serif" font-size="10.00" fill="#000000">JS_Call</text>
</a>
</g>
</g>
<!-- Node66314&#45;&gt;Node66332 -->
<g id="edge7" class="edge">
<title>Node66314&#45;&gt;Node66332</title>
<path fill="none" stroke="#191970" d="M224.7897,-711.8599C235.6184,-708.6415 246.9163,-703.9888 255,-696 267.0328,-684.1084 337.7863,-437.1151 354.4747,-384.5812"/>
<polygon fill="#191970" stroke="#191970" points="223.8324,-708.4928 215.0825,-714.4669 225.6481,-715.2533 223.8324,-708.4928"/>
</g>
<!-- Node66413 -->
<g id="node24" class="node">
<title>Node66413</title>
<g id="a_node24"><a xlink:href="quickjs_8c.html#ad35594576a14c10812efaf958c99af8a" target="_top" xlink:title="JS_CallConstructorInternal">
<polygon fill="none" stroke="#ff0000" points="291,-752.5 291,-771.5 425,-771.5 425,-752.5 291,-752.5"/>
<text text-anchor="middle" x="358" y="-759.5" font-family="Helvetica,sans-Serif" font-size="10.00" fill="#000000">JS_CallConstructorInternal</text>
</a>
</g>
</g>
<!-- Node66314&#45;&gt;Node66413 -->
<g id="edge29" class="edge">
<title>Node66314&#45;&gt;Node66413</title>
<path fill="none" stroke="#191970" d="M243.0436,-729.4691C274.5737,-735.7157 313.2375,-745.075 336.7263,-752.4555"/>
<polygon fill="#191970" stroke="#191970" points="243.5661,-726.0056 233.0855,-727.5568 242.246,-732.88 243.5661,-726.0056"/>
</g>
<!-- Node66427 -->
<g id="node25" class="node">
<title>Node66427</title>
<g id="a_node25"><a xlink:href="quickjs_8c.html#a75f6ee5e4235a7dc99889f3d2eb2c147" target="_top" xlink:title="JS_CallFree">
<polygon fill="none" stroke="#ff0000" points="322.5,-714.5 322.5,-733.5 393.5,-733.5 393.5,-714.5 322.5,-714.5"/>
<text text-anchor="middle" x="358" y="-721.5" font-family="Helvetica,sans-Serif" font-size="10.00" fill="#000000">JS_CallFree</text>
</a>
</g>
</g>
<!-- Node66314&#45;&gt;Node66427 -->
<g id="edge31" class="edge">
<title>Node66314&#45;&gt;Node66427</title>
<path fill="none" stroke="#191970" d="M243.3851,-717.6952C269.0192,-716.9332 299.3003,-717.1494 322.2983,-718.3436"/>
<polygon fill="#191970" stroke="#191970" points="242.9531,-714.2084 233.0855,-718.0658 243.2049,-721.2039 242.9531,-714.2084"/>
</g>
<!-- Node66316 -->
<g id="node4" class="node">
<title>Node66316</title>
<g id="a_node4"><a xlink:href="quickjs_8c.html#a1bf6b62983e8fff99c0a5d5a9f486115" target="_top" xlink:title="js_async_function_resume">
<polygon fill="none" stroke="#ff0000" points="461,-630.5 461,-649.5 594,-649.5 594,-630.5 461,-630.5"/>
<text text-anchor="middle" x="527.5" y="-637.5" font-family="Helvetica,sans-Serif" font-size="10.00" fill="#000000">js_async_function_resume</text>
</a>
</g>
</g>
<!-- Node66315&#45;&gt;Node66316 -->
<g id="edge3" class="edge">
<title>Node66315&#45;&gt;Node66316</title>
<path fill="none" stroke="#191970" d="M403.0665,-673.7696C431.0651,-666.1711 466.5269,-656.5473 492.4245,-649.519"/>
<polygon fill="#191970" stroke="#191970" points="401.8547,-670.4717 393.1205,-676.4688 403.6881,-677.2274 401.8547,-670.4717"/>
</g>
<!-- Node66326 -->
<g id="node5" class="node">
<title>Node66326</title>
<g id="a_node5"><a xlink:href="quickjs_8c.html#ae19867da709929c072f05e90301835a4" target="_top" xlink:title="js_async_generator\l_function_call">
<polygon fill="none" stroke="#ff0000" points="477,-669 477,-699 578,-699 578,-669 477,-669"/>
<text text-anchor="start" x="485" y="-687" font-family="Helvetica,sans-Serif" font-size="10.00" fill="#000000">js_async_generator</text>
<text text-anchor="middle" x="527.5" y="-676" font-family="Helvetica,sans-Serif" font-size="10.00" fill="#000000">_function_call</text>
</a>
</g>
</g>
<!-- Node66315&#45;&gt;Node66326 -->
<g id="edge4" class="edge">
<title>Node66315&#45;&gt;Node66326</title>
<path fill="none" stroke="#191970" d="M420.388,-685.2639C438.9885,-685.0444 459.1368,-684.8066 476.8866,-684.5972"/>
<polygon fill="#191970" stroke="#191970" points="420.1966,-681.7658 410.2387,-685.3836 420.2793,-688.7653 420.1966,-681.7658"/>
</g>
<!-- Node66327 -->
<g id="node6" class="node">
<title>Node66327</title>
<g id="a_node6"><a xlink:href="quickjs_8c.html#a89b019c704a2d2914bc30b30a72040b3" target="_top" xlink:title="js_async_generator\l_resume_next">
<polygon fill="none" stroke="#000000" points="477,-757 477,-787 578,-787 578,-757 477,-757"/>
<text text-anchor="start" x="485" y="-775" font-family="Helvetica,sans-Serif" font-size="10.00" fill="#000000">js_async_generator</text>
<text text-anchor="middle" x="527.5" y="-764" font-family="Helvetica,sans-Serif" font-size="10.00" fill="#000000">_resume_next</text>
</a>
</g>
</g>
<!-- Node66315&#45;&gt;Node66327 -->
<g id="edge5" class="edge">
<title>Node66315&#45;&gt;Node66327</title>
<path fill="none" stroke="#191970" d="M414.8581,-699.4961C418.3932,-701.1301 421.808,-702.9574 425,-705 445.7085,-718.2515 440.861,-732.898 461,-747 466.3548,-750.7496 472.3426,-754.0181 478.472,-756.8442"/>
<polygon fill="#191970" stroke="#191970" points="415.8716,-696.13 405.2897,-695.6069 413.2357,-702.6148 415.8716,-696.13"/>
</g>
<!-- Node66328 -->
<g id="node7" class="node">
<title>Node66328</title>
<g id="a_node7"><a xlink:href="quickjs_8c.html#ac90552b1f1659acb3dae9a4c62479a30" target="_top" xlink:title="js_generator_function_call">
<polygon fill="none" stroke="#ff0000" points="462.5,-718.5 462.5,-737.5 592.5,-737.5 592.5,-718.5 462.5,-718.5"/>
<text text-anchor="middle" x="527.5" y="-725.5" font-family="Helvetica,sans-Serif" font-size="10.00" fill="#000000">js_generator_function_call</text>
</a>
</g>
</g>
<!-- Node66315&#45;&gt;Node66328 -->
<g id="edge6" class="edge">
<title>Node66315&#45;&gt;Node66328</title>
<path fill="none" stroke="#191970" d="M406.1935,-697.9417C432.3927,-704.4336 464.3579,-712.3542 488.897,-718.4347"/>
<polygon fill="#191970" stroke="#191970" points="407.0105,-694.5384 396.4622,-695.5305 405.3268,-701.3329 407.0105,-694.5384"/>
</g>
<!-- Node66332&#45;&gt;Node66314 -->
<g id="edge21" class="edge">
<title>Node66332&#45;&gt;Node66314</title>
<path fill="none" stroke="#191970" d="M353.3349,-394.6691C334.7967,-465.5378 266.7763,-702.3619 255,-714 249.0252,-719.9047 241.2944,-723.9869 233.295,-726.5971"/>
<polygon fill="#191970" stroke="#191970" points="356.7771,-395.3357 355.8691,-384.7799 349.9962,-393.598 356.7771,-395.3357"/>
</g>
<!-- Node66332&#45;&gt;Node66316 -->
<g id="edge17" class="edge">
<title>Node66332&#45;&gt;Node66316</title>
<path fill="none" stroke="#191970" d="M360.449,-394.7081C367.2958,-441.2625 390.9643,-558.7906 461,-621 465.3988,-624.9072 470.5499,-628.0148 476.0044,-630.4857"/>
<polygon fill="#191970" stroke="#191970" points="363.9046,-394.1445 359.082,-384.7109 356.9692,-395.0929 363.9046,-394.1445"/>
</g>
<!-- Node66333 -->
<g id="node9" class="node">
<title>Node66333</title>
<g id="a_node9"><a xlink:href="quickjs-libc_8c.html#abb1cbe3fdf905e81f603a3a0bfce475a" target="_top" xlink:title="call_handler">
<polygon fill="none" stroke="#000000" points="493.5,-38.5 493.5,-57.5 561.5,-57.5 561.5,-38.5 493.5,-38.5"/>
<text text-anchor="middle" x="527.5" y="-45.5" font-family="Helvetica,sans-Serif" font-size="10.00" fill="#000000">call_handler</text>
</a>
</g>
</g>
<!-- Node66332&#45;&gt;Node66333 -->
<g id="edge8" class="edge">
<title>Node66332&#45;&gt;Node66333</title>
<path fill="none" stroke="#191970" d="M365.8344,-355.9069C378.9711,-323.5339 405.8782,-255.6675 425,-197 443.5786,-139.9991 418.7804,-109.565 461,-67 469.5402,-58.3899 481.6927,-53.6163 493.2779,-50.9921"/>
<polygon fill="#191970" stroke="#191970" points="362.4738,-354.879 361.9384,-365.4603 368.9555,-357.5224 362.4738,-354.879"/>
</g>
<!-- Node66334 -->
<g id="node10" class="node">
<title>Node66334</title>
<g id="a_node10"><a xlink:href="quickjs-libc_8c.html#a9fa4c190ba56314c7ed9b00bbc7ad0f9" target="_top" xlink:title="handle_posted_message">
<polygon fill="none" stroke="#000000" points="465,-554.5 465,-573.5 590,-573.5 590,-554.5 465,-554.5"/>
<text text-anchor="middle" x="527.5" y="-561.5" font-family="Helvetica,sans-Serif" font-size="10.00" fill="#000000">handle_posted_message</text>
</a>
</g>
</g>
<!-- Node66332&#45;&gt;Node66334 -->
<g id="edge9" class="edge">
<title>Node66332&#45;&gt;Node66334</title>
<path fill="none" stroke="#191970" d="M364.3741,-394.4549C376.9911,-429.8828 408.5563,-504.9513 461,-545 466.0577,-548.8623 471.8715,-551.9398 477.9116,-554.3918"/>
<polygon fill="#191970" stroke="#191970" points="367.6222,-393.137 361.0646,-384.8154 361.0015,-395.41 367.6222,-393.137"/>
</g>
<!-- Node66335 -->
<g id="node11" class="node">
<title>Node66335</title>
<g id="a_node11"><a xlink:href="quickjs_8c.html#a624282391413d4c5a030adbd8b77aa80" target="_top" xlink:title="internalize_json_property">
<polygon fill="none" stroke="#ff0000" points="465,-498.5 465,-517.5 590,-517.5 590,-498.5 465,-498.5"/>
<text text-anchor="middle" x="527.5" y="-505.5" font-family="Helvetica,sans-Serif" font-size="10.00" fill="#000000">internalize_json_property</text>
</a>
</g>
</g>
<!-- Node66332&#45;&gt;Node66335 -->
<g id="edge10" class="edge">
<title>Node66332&#45;&gt;Node66335</title>
<path fill="none" stroke="#191970" d="M369.57,-393.21C386.559,-418.4691 420.65,-463.8612 461,-489 467.2166,-492.873 474.2463,-495.9791 481.3487,-498.4638"/>
<polygon fill="#191970" stroke="#191970" points="372.3317,-391.0391 363.9187,-384.5992 366.4795,-394.8799 372.3317,-391.0391"/>
</g>
<!-- Node66337 -->
<g id="node12" class="node">
<title>Node66337</title>
<g id="a_node12"><a xlink:href="quickjs_8c.html#aa0bbf08a7e91459c68a312fba7016c6d" target="_top" xlink:title="js_array_every">
<polygon fill="none" stroke="#000000" points="487.5,-460.5 487.5,-479.5 567.5,-479.5 567.5,-460.5 487.5,-460.5"/>
<text text-anchor="middle" x="527.5" y="-467.5" font-family="Helvetica,sans-Serif" font-size="10.00" fill="#000000">js_array_every</text>
</a>
</g>
</g>
<!-- Node66332&#45;&gt;Node66337 -->
<g id="edge12" class="edge">
<title>Node66332&#45;&gt;Node66337</title>
<path fill="none" stroke="#191970" d="M375.8088,-391.278C395.3728,-408.3727 428.3692,-434.9551 461,-451 469.189,-455.0266 478.3767,-458.337 487.2485,-461.0015"/>
<polygon fill="#191970" stroke="#191970" points="378.0859,-388.6192 368.2868,-384.5909 373.435,-393.8508 378.0859,-388.6192"/>
</g>
<!-- Node66338 -->
<g id="node13" class="node">
<title>Node66338</title>
<g id="a_node13"><a xlink:href="quickjs_8c.html#a9dd41b086da4e13b3487cc9c6e2af2b8" target="_top" xlink:title="js_array_find">
<polygon fill="none" stroke="#000000" points="491.5,-422.5 491.5,-441.5 563.5,-441.5 563.5,-422.5 491.5,-422.5"/>
<text text-anchor="middle" x="527.5" y="-429.5" font-family="Helvetica,sans-Serif" font-size="10.00" fill="#000000">js_array_find</text>
</a>
</g>
</g>
<!-- Node66332&#45;&gt;Node66338 -->
<g id="edge13" class="edge">
<title>Node66332&#45;&gt;Node66338</title>
<path fill="none" stroke="#191970" d="M391.9579,-388.2589C411.9312,-395.8737 437.752,-405.4023 461,-413 471.0435,-416.2823 482.04,-419.5532 492.1476,-422.4326"/>
<polygon fill="#191970" stroke="#191970" points="392.9659,-384.8969 382.3758,-384.5817 390.4579,-391.4322 392.9659,-384.8969"/>
</g>
<!-- Node66339 -->
<g id="node14" class="node">
<title>Node66339</title>
<g id="a_node14"><a xlink:href="quickjs_8c.html#a5e32da9a43002cb96dcbd62a1a340144" target="_top" xlink:title="js_array_from">
<polygon fill="none" stroke="#000000" points="489.5,-384.5 489.5,-403.5 565.5,-403.5 565.5,-384.5 489.5,-384.5"/>
<text text-anchor="middle" x="527.5" y="-391.5" font-family="Helvetica,sans-Serif" font-size="10.00" fill="#000000">js_array_from</text>
</a>
</g>
</g>
<!-- Node66332&#45;&gt;Node66339 -->
<g id="edge14" class="edge">
<title>Node66332&#45;&gt;Node66339</title>
<path fill="none" stroke="#191970" d="M393.8957,-379.0237C421.8777,-382.1603 460.6499,-386.5065 489.2214,-389.7092"/>
<polygon fill="#191970" stroke="#191970" points="394.0711,-375.5215 383.7434,-377.8857 393.2912,-382.478 394.0711,-375.5215"/>
</g>
<!-- Node66340 -->
<g id="node15" class="node">
<title>Node66340</title>
<g id="a_node15"><a xlink:href="quickjs_8c.html#a36c1692489542a86dd79a7d39ab8ff95" target="_top" xlink:title="js_array_reduce">
<polygon fill="none" stroke="#000000" points="484.5,-346.5 484.5,-365.5 570.5,-365.5 570.5,-346.5 484.5,-346.5"/>
<text text-anchor="middle" x="527.5" y="-353.5" font-family="Helvetica,sans-Serif" font-size="10.00" fill="#000000">js_array_reduce</text>
</a>
</g>
</g>
<!-- Node66332&#45;&gt;Node66340 -->
<g id="edge15" class="edge">
<title>Node66332&#45;&gt;Node66340</title>
<path fill="none" stroke="#191970" d="M393.7164,-370.9964C420.1523,-368.0331 456.2909,-363.9821 484.3443,-360.8375"/>
<polygon fill="#191970" stroke="#191970" points="393.2912,-367.522 383.7434,-372.1143 394.0711,-374.4785 393.2912,-367.522"/>
</g>
<!-- Node66341 -->
<g id="node16" class="node">
<title>Node66341</title>
<g id="a_node16"><a xlink:href="quickjs_8c.html#aa45afa6d2861615f29444c9614ce766a" target="_top" xlink:title="js_async_from_sync\l_iterator_next">
<polygon fill="none" stroke="#000000" points="474,-297 474,-327 581,-327 581,-297 474,-297"/>
<text text-anchor="start" x="482" y="-315" font-family="Helvetica,sans-Serif" font-size="10.00" fill="#000000">js_async_from_sync</text>
<text text-anchor="middle" x="527.5" y="-304" font-family="Helvetica,sans-Serif" font-size="10.00" fill="#000000">_iterator_next</text>
</a>
</g>
</g>
<!-- Node66332&#45;&gt;Node66341 -->
<g id="edge16" class="edge">
<title>Node66332&#45;&gt;Node66341</title>
<path fill="none" stroke="#191970" d="M393.2884,-361.884C420.5897,-351.7366 458.4258,-337.6736 486.9679,-327.065"/>
<polygon fill="#191970" stroke="#191970" points="391.8975,-358.6669 383.7434,-365.4317 394.3363,-365.2284 391.8975,-358.6669"/>
</g>
<!-- Node66342 -->
<g id="node17" class="node">
<title>Node66342</title>
<g id="a_node17"><a xlink:href="quickjs_8c.html#a2355fabf91f59212ea65baba1b0b7c1b" target="_top" xlink:title="js_async_generator_next">
<polygon fill="none" stroke="#000000" points="465,-258.5 465,-277.5 590,-277.5 590,-258.5 465,-258.5"/>
<text text-anchor="middle" x="527.5" y="-265.5" font-family="Helvetica,sans-Serif" font-size="10.00" fill="#000000">js_async_generator_next</text>
</a>
</g>
</g>
<!-- Node66332&#45;&gt;Node66342 -->
<g id="edge18" class="edge">
<title>Node66332&#45;&gt;Node66342</title>
<path fill="none" stroke="#191970" d="M373.5516,-357.8434C392.4081,-338.0334 426.0306,-305.772 461,-287 468.0881,-283.195 476.021,-280.0803 483.8711,-277.5551"/>
<polygon fill="#191970" stroke="#191970" points="370.8987,-355.5563 366.6336,-365.2547 376.0158,-360.3328 370.8987,-355.5563"/>
</g>
<!-- Node66343 -->
<g id="node18" class="node">
<title>Node66343</title>
<g id="a_node18"><a xlink:href="quickjs_8c.html#a3e852026d167fa03c673f86697dd3e67" target="_top" xlink:title="js_async_generator\l_resolve_or_reject">
<polygon fill="none" stroke="#ff0000" points="477,-209 477,-239 578,-239 578,-209 477,-209"/>
<text text-anchor="start" x="485" y="-227" font-family="Helvetica,sans-Serif" font-size="10.00" fill="#000000">js_async_generator</text>
<text text-anchor="middle" x="527.5" y="-216" font-family="Helvetica,sans-Serif" font-size="10.00" fill="#000000">_resolve_or_reject</text>
</a>
</g>
</g>
<!-- Node66332&#45;&gt;Node66343 -->
<g id="edge19" class="edge">
<title>Node66332&#45;&gt;Node66343</title>
<path fill="none" stroke="#191970" d="M368.6997,-356.4797C385.2449,-329.3454 419.5011,-278.7863 461,-249 466.3107,-245.1882 472.2727,-241.8832 478.3888,-239.0385"/>
<polygon fill="#191970" stroke="#191970" points="365.5356,-354.9524 363.4249,-365.3348 371.5495,-358.5348 365.5356,-354.9524"/>
</g>
<!-- Node66346 -->
<g id="node19" class="node">
<title>Node66346</title>
<g id="a_node19"><a xlink:href="quickjs_8c.html#afd4ef2d701fa0702f321925b61c57bbf" target="_top" xlink:title="js_call_bound_function">
<polygon fill="none" stroke="#ff0000" points="469.5,-170.5 469.5,-189.5 585.5,-189.5 585.5,-170.5 469.5,-170.5"/>
<text text-anchor="middle" x="527.5" y="-177.5" font-family="Helvetica,sans-Serif" font-size="10.00" fill="#000000">js_call_bound_function</text>
</a>
</g>
</g>
<!-- Node66332&#45;&gt;Node66346 -->
<g id="edge20" class="edge">
<title>Node66332&#45;&gt;Node66346</title>
<path fill="none" stroke="#191970" d="M363.9998,-355.3836C376.1682,-318.9348 407.2574,-240.6931 461,-199 466.0281,-195.0992 471.8246,-191.9993 477.8557,-189.5357"/>
<polygon fill="#191970" stroke="#191970" points="360.5512,-354.6755 360.8267,-365.2668 367.2161,-356.8154 360.5512,-354.6755"/>
</g>
<!-- Node66347 -->
<g id="node20" class="node">
<title>Node66347</title>
<g id="a_node20"><a xlink:href="quickjs_8c.html#a6357b7fdae71c70c140e78e6c20cb5c2" target="_top" xlink:title="js_dynamic_import_job">
<polygon fill="none" stroke="#ff0000" points="469.5,-132.5 469.5,-151.5 585.5,-151.5 585.5,-132.5 469.5,-132.5"/>
<text text-anchor="middle" x="527.5" y="-139.5" font-family="Helvetica,sans-Serif" font-size="10.00" fill="#000000">js_dynamic_import_job</text>
</a>
</g>
</g>
<!-- Node66332&#45;&gt;Node66347 -->
<g id="edge22" class="edge">
<title>Node66332&#45;&gt;Node66347</title>
<path fill="none" stroke="#191970" d="M361.8128,-355.3045C371.0192,-313.1368 398.4833,-213.6845 461,-161 465.5908,-157.1312 470.9251,-154.0489 476.5373,-151.5934"/>
<polygon fill="#191970" stroke="#191970" points="358.372,-354.6602 359.7701,-365.1624 365.2264,-356.0806 358.372,-354.6602"/>
</g>
<!-- Node66349 -->
<g id="node21" class="node">
<title>Node66349</title>
<g id="a_node21"><a xlink:href="quickjs_8c.html#ad90c33b4aae1181151bda4a98ac2ef23" target="_top" xlink:title="JS_FlattenIntoArray">
<polygon fill="none" stroke="#ff0000" points="475.5,-76.5 475.5,-95.5 579.5,-95.5 579.5,-76.5 475.5,-76.5"/>
<text text-anchor="middle" x="527.5" y="-83.5" font-family="Helvetica,sans-Serif" font-size="10.00" fill="#000000">JS_FlattenIntoArray</text>
</a>
</g>
</g>
<!-- Node66332&#45;&gt;Node66349 -->
<g id="edge23" class="edge">
<title>Node66332&#45;&gt;Node66349</title>
<path fill="none" stroke="#191970" d="M365.0496,-355.6867C385.5105,-299.95 444.4988,-141.6054 461,-123 471.8705,-110.7434 487.8124,-101.6794 501.3623,-95.5909"/>
<polygon fill="#191970" stroke="#191970" points="361.647,-354.8004 361.4952,-365.3941 368.2202,-357.2073 361.647,-354.8004"/>
</g>
<!-- Node66351 -->
<g id="node22" class="node">
<title>Node66351</title>
<g id="a_node22"><a xlink:href="quickjs_8c.html#a62424fefab7bcc97f49c978205c7a1c1" target="_top" xlink:title="js_for_await_of_next">
<polygon fill="none" stroke="#000000" points="474,-.5 474,-19.5 581,-19.5 581,-.5 474,-.5"/>
<text text-anchor="middle" x="527.5" y="-7.5" font-family="Helvetica,sans-Serif" font-size="10.00" fill="#000000">js_for_await_of_next</text>
</a>
</g>
</g>
<!-- Node66332&#45;&gt;Node66351 -->
<g id="edge25" class="edge">
<title>Node66332&#45;&gt;Node66351</title>
<path fill="none" stroke="#191970" d="M366.4136,-355.5579C380.1772,-323.175 407.7023,-255.9219 425,-197 446.5098,-123.7304 408.8487,-84.7795 461,-29 464.6901,-25.0532 469.1377,-21.9068 473.9625,-19.4014"/>
<polygon fill="#191970" stroke="#191970" points="363.029,-354.5704 362.3082,-365.1407 369.4634,-357.3271 363.029,-354.5704"/>
</g>
<!-- Node66352 -->
<g id="node23" class="node">
<title>Node66352</title>
<g id="a_node23"><a xlink:href="quickjs_8c.html#a8d4b24969540aff427939eeda47f451d" target="_top" xlink:title="js_function_apply">
<polygon fill="none" stroke="#ff0000" points="481.5,-592.5 481.5,-611.5 573.5,-611.5 573.5,-592.5 481.5,-592.5"/>
<text text-anchor="middle" x="527.5" y="-599.5" font-family="Helvetica,sans-Serif" font-size="10.00" fill="#000000">js_function_apply</text>
</a>
</g>
</g>
<!-- Node66332&#45;&gt;Node66352 -->
<g id="edge27" class="edge">
<title>Node66332&#45;&gt;Node66352</title>
<path fill="none" stroke="#191970" d="M362.0465,-394.4153C371.6491,-435.568 399.7455,-531.9637 461,-583 466.9039,-587.919 474.0121,-591.566 481.3534,-594.2696"/>
<polygon fill="#191970" stroke="#191970" points="365.4443,-393.5706 359.8604,-384.5667 358.6106,-395.0876 365.4443,-393.5706"/>
</g>
<!-- Node66335&#45;&gt;Node66335 -->
<g id="edge11" class="edge">
<title>Node66335&#45;&gt;Node66335</title>
<path fill="none" stroke="#191970" d="M496.0629,-526.2746C496.9592,-531.741 507.4382,-536 527.5,-536 557.3594,-536 565.9906,-526.5653 553.3937,-517.7571"/>
<polygon fill="#191970" stroke="#191970" points="499.085,-528.0475 501.6063,-517.7571 493.2181,-524.2291 499.085,-528.0475"/>
</g>
<!-- Node66349&#45;&gt;Node66349 -->
<g id="edge24" class="edge">
<title>Node66349&#45;&gt;Node66349</title>
<path fill="none" stroke="#191970" d="M496.0629,-104.2746C496.9592,-109.741 507.4382,-114 527.5,-114 557.3594,-114 565.9906,-104.5653 553.3937,-95.7571"/>
<polygon fill="#191970" stroke="#191970" points="499.085,-106.0475 501.6063,-95.7571 493.2181,-102.2291 499.085,-106.0475"/>
</g>
<!-- Node66351&#45;&gt;Node66314 -->
<g id="edge26" class="edge">
<title>Node66351&#45;&gt;Node66314</title>
<path fill="none" stroke="#191970" d="M467.6147,-24.3558C465.2935,-25.7618 463.075,-27.3054 461,-29 334.1333,-132.6111 338.0125,-199.0916 291,-356 268.6226,-430.6868 304.7146,-644.939 255,-705 249.4236,-711.737 241.5616,-716.1484 233.2626,-719.0214"/>
<polygon fill="#191970" stroke="#191970" points="469.6641,-27.2402 476.9903,-19.5866 466.4903,-21.001 469.6641,-27.2402"/>
</g>
<!-- Node66352&#45;&gt;Node66314 -->
<g id="edge28" class="edge">
<title>Node66352&#45;&gt;Node66314</title>
<path fill="none" stroke="#191970" d="M471.4654,-608.6843C421.2967,-616.6194 347.1966,-633.2898 291,-667 271.0497,-678.9674 274.8143,-692.8087 255,-705 248.3355,-709.1005 240.7312,-712.3632 233.1566,-714.9438"/>
<polygon fill="#191970" stroke="#191970" points="472.1175,-612.1255 481.4798,-607.1659 471.0681,-605.2046 472.1175,-612.1255"/>
</g>
<!-- Node66413&#45;&gt;Node66314 -->
<g id="edge30" class="edge">
<title>Node66413&#45;&gt;Node66314</title>
<path fill="none" stroke="#191970" d="M281.0946,-751.1806C256.1164,-745.6175 230.372,-739.0652 212.9261,-733.5924"/>
<polygon fill="#191970" stroke="#191970" points="280.4635,-754.6252 290.98,-753.3388 281.9567,-747.7863 280.4635,-754.6252"/>
</g>
<!-- Node66427&#45;&gt;Node66314 -->
<g id="edge32" class="edge">
<title>Node66427&#45;&gt;Node66314</title>
<path fill="none" stroke="#191970" d="M312.0782,-730.1066C287.3603,-731.0185 257.1054,-730.9611 233.0855,-729.9342"/>
<polygon fill="#191970" stroke="#191970" points="312.4621,-733.5932 322.2983,-729.6564 312.154,-726.6 312.4621,-733.5932"/>
</g>
<!-- Node66427&#45;&gt;Node66902 -->
<g id="edge33" class="edge">
<title>Node66427&#45;&gt;Node66902</title>
<path fill="none" stroke="#191970" d="M403.3936,-730.7192C411.2757,-733.5144 418.89,-737.4538 425,-743 457.5113,-772.5113 428.5179,-805.4566 461,-835 465.2637,-838.8779 470.2663,-841.9696 475.581,-844.4335"/>
<polygon fill="#191970" stroke="#191970" points="404.3121,-727.3409 393.7293,-727.8461 402.3173,-734.0507 404.3121,-727.3409"/>
</g>
<!-- Node66427&#45;&gt;Node66906 -->
<g id="edge34" class="edge">
<title>Node66427&#45;&gt;Node66906</title>
<path fill="none" stroke="#191970" d="M403.4573,-732.2184C411.0824,-734.8696 418.5895,-738.3727 425,-743 448.0889,-759.6664 438.0437,-779.1515 461,-796 466.9287,-800.3513 473.8078,-803.7645 480.8476,-806.4396"/>
<polygon fill="#191970" stroke="#191970" points="404.3945,-728.8453 393.8092,-729.2952 402.3647,-735.5445 404.3945,-728.8453"/>
</g>
</g>
</svg>
