<?xml version="1.0" encoding="UTF-8" standalone="no"?>
<!DOCTYPE svg PUBLIC "-//W3C//DTD SVG 1.1//EN"
 "http://www.w3.org/Graphics/SVG/1.1/DTD/svg11.dtd">
<!-- Generated by graphviz version 2.40.1 (20161225.0304)
 -->
<!-- Title: js_create_function Pages: 1 -->
<svg width="552pt" height="672pt"
 viewBox="0.00 0.00 552.00 672.00" xmlns="http://www.w3.org/2000/svg" xmlns:xlink="http://www.w3.org/1999/xlink">
<g id="graph0" class="graph" transform="scale(1 1) rotate(0) translate(4 668)">
<title>js_create_function</title>
<!-- Node350018 -->
<g id="node1" class="node">
<title>Node350018</title>
<polygon fill="#bfbfbf" stroke="#000000" points="0,-228.5 0,-247.5 96,-247.5 96,-228.5 0,-228.5"/>
<text text-anchor="middle" x="48" y="-235.5" font-family="Helvetica,sans-Serif" font-size="10.00" fill="#000000">js_create_function</text>
</g>
<!-- Node350018&#45;&gt;Node350018 -->
<g id="edge20" class="edge">
<title>Node350018&#45;&gt;Node350018</title>
<path fill="none" stroke="#191970" d="M26.4219,-247.7571C15.9245,-256.5653 23.1172,-266 48,-266 63.9406,-266 72.6211,-262.128 74.0416,-257.0292"/>
<polygon fill="#191970" stroke="#191970" points="77.0692,-255.2493 69.5781,-247.7571 70.762,-258.2855 77.0692,-255.2493"/>
</g>
<!-- Node350019 -->
<g id="node2" class="node">
<title>Node350019</title>
<g id="a_node2"><a xlink:href="quickjs_8c.html#a3d84c0bab25b37dbac0b6f3aa7b93e59" target="_top" xlink:title="add_eval_variables">
<polygon fill="none" stroke="#000000" points="138.5,-549.5 138.5,-568.5 238.5,-568.5 238.5,-549.5 138.5,-549.5"/>
<text text-anchor="middle" x="188.5" y="-556.5" font-family="Helvetica,sans-Serif" font-size="10.00" fill="#000000">add_eval_variables</text>
</a>
</g>
</g>
<!-- Node350018&#45;&gt;Node350019 -->
<g id="edge1" class="edge">
<title>Node350018&#45;&gt;Node350019</title>
<path fill="none" stroke="#191970" d="M50.3047,-247.5794C58.5171,-280.8332 88.2171,-393.8945 132,-479 143.8136,-501.9634 161.4958,-525.837 173.9255,-541.4585"/>
<polygon fill="#191970" stroke="#191970" points="171.2061,-543.662 180.2198,-549.2301 176.6457,-539.2562 171.2061,-543.662"/>
</g>
<!-- Node350031 -->
<g id="node8" class="node">
<title>Node350031</title>
<g id="a_node8"><a xlink:href="quickjs_8c.html#a9780456a71703c53244b88831bc8fb7a" target="_top" xlink:title="add_gc_object">
<polygon fill="none" stroke="#000000" points="148.5,-450.5 148.5,-469.5 228.5,-469.5 228.5,-450.5 148.5,-450.5"/>
<text text-anchor="middle" x="188.5" y="-457.5" font-family="Helvetica,sans-Serif" font-size="10.00" fill="#000000">add_gc_object</text>
</a>
</g>
</g>
<!-- Node350018&#45;&gt;Node350031 -->
<g id="edge10" class="edge">
<title>Node350018&#45;&gt;Node350031</title>
<path fill="none" stroke="#191970" d="M49.7568,-247.7838C55.7628,-278.6565 78.1625,-375.3169 132,-432 137.2351,-437.5118 143.787,-442.0935 150.5562,-445.8442"/>
<polygon fill="#191970" stroke="#191970" points="149.3064,-449.1316 159.8185,-450.453 152.4248,-442.8646 149.3064,-449.1316"/>
</g>
<!-- Node350034 -->
<g id="node10" class="node">
<title>Node350034</title>
<g id="a_node10"><a xlink:href="quickjs_8c.html#ac8353dd499e0a2adbe6bd0943979aca4" target="_top" xlink:title="add_module_variables">
<polygon fill="none" stroke="#000000" points="132,-403.5 132,-422.5 245,-422.5 245,-403.5 132,-403.5"/>
<text text-anchor="middle" x="188.5" y="-410.5" font-family="Helvetica,sans-Serif" font-size="10.00" fill="#000000">add_module_variables</text>
</a>
</g>
</g>
<!-- Node350018&#45;&gt;Node350034 -->
<g id="edge12" class="edge">
<title>Node350018&#45;&gt;Node350034</title>
<path fill="none" stroke="#191970" d="M50.8586,-247.5346C59.1483,-273.6704 85.6037,-347.2774 132,-389 136.3659,-392.9261 141.4694,-396.2738 146.7908,-399.1104"/>
<polygon fill="#191970" stroke="#191970" points="145.3255,-402.2891 155.8605,-403.4133 148.326,-395.9647 145.3255,-402.2891"/>
</g>
<!-- Node350036 -->
<g id="node12" class="node">
<title>Node350036</title>
<g id="a_node12"><a xlink:href="quickjs_8c.html#a8cdae63a2cea1f6df8105adc6e2d03d0" target="_top" xlink:title="compute_stack_size">
<polygon fill="none" stroke="#000000" points="135,-360.5 135,-379.5 242,-379.5 242,-360.5 135,-360.5"/>
<text text-anchor="middle" x="188.5" y="-367.5" font-family="Helvetica,sans-Serif" font-size="10.00" fill="#000000">compute_stack_size</text>
</a>
</g>
</g>
<!-- Node350018&#45;&gt;Node350036 -->
<g id="edge14" class="edge">
<title>Node350018&#45;&gt;Node350036</title>
<path fill="none" stroke="#191970" d="M53.241,-247.7031C64.859,-268.3996 94.7218,-317.3231 132,-346 137.0999,-349.9232 142.9369,-353.3308 148.8796,-356.2478"/>
<polygon fill="#191970" stroke="#191970" points="147.6574,-359.5355 158.2143,-360.4314 150.5203,-353.1476 147.6574,-359.5355"/>
</g>
<!-- Node350040 -->
<g id="node14" class="node">
<title>Node350040</title>
<g id="a_node14"><a xlink:href="quickjs_8c.html#a80e54dcf9ac687d4ccc2f90273565f30" target="_top" xlink:title="js_free">
<polygon fill="none" stroke="#000000" points="320.5,-322.5 320.5,-341.5 366.5,-341.5 366.5,-322.5 320.5,-322.5"/>
<text text-anchor="middle" x="343.5" y="-329.5" font-family="Helvetica,sans-Serif" font-size="10.00" fill="#000000">js_free</text>
</a>
</g>
</g>
<!-- Node350018&#45;&gt;Node350040 -->
<g id="edge22" class="edge">
<title>Node350018&#45;&gt;Node350040</title>
<path fill="none" stroke="#191970" d="M55.2835,-247.7015C68.4709,-264.4248 98.1008,-298.2976 132,-313 190.7746,-338.4911 267.2099,-338.13 310.248,-335.2682"/>
<polygon fill="#191970" stroke="#191970" points="310.7302,-338.7419 320.4392,-334.501 310.2047,-331.7617 310.7302,-338.7419"/>
</g>
<!-- Node350042 -->
<g id="node16" class="node">
<title>Node350042</title>
<g id="a_node16"><a xlink:href="cutils_8h.html#a8a3b715fc2146312b777c4e3db546b55" target="_top" xlink:title="dbuf_free">
<polygon fill="none" stroke="#000000" points="315,-170.5 315,-189.5 372,-189.5 372,-170.5 315,-170.5"/>
<text text-anchor="middle" x="343.5" y="-177.5" font-family="Helvetica,sans-Serif" font-size="10.00" fill="#000000">dbuf_free</text>
</a>
</g>
</g>
<!-- Node350018&#45;&gt;Node350042 -->
<g id="edge19" class="edge">
<title>Node350018&#45;&gt;Node350042</title>
<path fill="none" stroke="#191970" d="M94.6391,-228.4903C106.7971,-226.0307 119.8859,-223.4 132,-221 192.3323,-209.0473 262.4233,-195.5331 304.8422,-187.3953"/>
<polygon fill="#191970" stroke="#191970" points="305.5874,-190.8163 314.7495,-185.4959 304.2693,-183.9415 305.5874,-190.8163"/>
</g>
<!-- Node350043 -->
<g id="node17" class="node">
<title>Node350043</title>
<g id="a_node17"><a xlink:href="quickjs_8c.html#a2814982d965920b44b14bef36ba18bba" target="_top" xlink:title="JS_DupContext">
<polygon fill="none" stroke="#000000" points="145.5,-38.5 145.5,-57.5 231.5,-57.5 231.5,-38.5 145.5,-38.5"/>
<text text-anchor="middle" x="188.5" y="-45.5" font-family="Helvetica,sans-Serif" font-size="10.00" fill="#000000">JS_DupContext</text>
</a>
</g>
</g>
<!-- Node350018&#45;&gt;Node350043 -->
<g id="edge21" class="edge">
<title>Node350018&#45;&gt;Node350043</title>
<path fill="none" stroke="#191970" d="M50.0074,-228.2687C56.4783,-199.332 79.4989,-112.9818 132,-67 133.9414,-65.2997 136.0407,-63.7503 138.2487,-62.3386"/>
<polygon fill="#191970" stroke="#191970" points="140.0346,-65.3526 147.2,-57.5483 136.7317,-59.1808 140.0346,-65.3526"/>
</g>
<!-- Node350044 -->
<g id="node18" class="node">
<title>Node350044</title>
<g id="a_node18"><a xlink:href="quickjs_8c.html#a1b660b405f6a69b35dd871279c780ef7" target="_top" xlink:title="js_free_function_def">
<polygon fill="none" stroke="#000000" points="136.5,-266.5 136.5,-285.5 240.5,-285.5 240.5,-266.5 136.5,-266.5"/>
<text text-anchor="middle" x="188.5" y="-273.5" font-family="Helvetica,sans-Serif" font-size="10.00" fill="#000000">js_free_function_def</text>
</a>
</g>
</g>
<!-- Node350018&#45;&gt;Node350044 -->
<g id="edge23" class="edge">
<title>Node350018&#45;&gt;Node350044</title>
<path fill="none" stroke="#191970" d="M83.4541,-247.589C101.5913,-252.4944 123.8684,-258.5196 143.2334,-263.7571"/>
<polygon fill="#191970" stroke="#191970" points="142.4903,-267.1818 153.0573,-266.4141 144.3179,-260.4246 142.4903,-267.1818"/>
</g>
<!-- Node350050 -->
<g id="node20" class="node">
<title>Node350050</title>
<g id="a_node20"><a xlink:href="quickjs_8c.html#ab7fc45a99935a1c0ba50b0216d9401a9" target="_top" xlink:title="JS_FreeAtom">
<polygon fill="none" stroke="#000000" points="305,-132.5 305,-151.5 382,-151.5 382,-132.5 305,-132.5"/>
<text text-anchor="middle" x="343.5" y="-139.5" font-family="Helvetica,sans-Serif" font-size="10.00" fill="#000000">JS_FreeAtom</text>
</a>
</g>
</g>
<!-- Node350018&#45;&gt;Node350050 -->
<g id="edge33" class="edge">
<title>Node350018&#45;&gt;Node350050</title>
<path fill="none" stroke="#191970" d="M52.8681,-228.3528C63.7618,-207.9873 92.3002,-161.0034 132,-143 183.811,-119.5043 250.3757,-124.0816 294.8594,-131.358"/>
<polygon fill="#191970" stroke="#191970" points="294.3829,-134.8276 304.8352,-133.0955 295.5841,-127.9315 294.3829,-134.8276"/>
</g>
<!-- Node350062 -->
<g id="node24" class="node">
<title>Node350062</title>
<g id="a_node24"><a xlink:href="list_8h.html#ab60d5d18869ebeb5d6ab694289576fa7" target="_top" xlink:title="list_del">
<polygon fill="none" stroke="#000000" points="320,-208.5 320,-227.5 367,-227.5 367,-208.5 320,-208.5"/>
<text text-anchor="middle" x="343.5" y="-215.5" font-family="Helvetica,sans-Serif" font-size="10.00" fill="#000000">list_del</text>
</a>
</g>
</g>
<!-- Node350018&#45;&gt;Node350062 -->
<g id="edge35" class="edge">
<title>Node350018&#45;&gt;Node350062</title>
<path fill="none" stroke="#191970" d="M96.1348,-234.7421C156.1113,-230.6828 257.0798,-223.8491 309.5459,-220.2981"/>
<polygon fill="#191970" stroke="#191970" points="309.9289,-223.7803 319.6697,-219.6129 309.4561,-216.7962 309.9289,-223.7803"/>
</g>
<!-- Node350076 -->
<g id="node25" class="node">
<title>Node350076</title>
<g id="a_node25"><a xlink:href="quickjs_8h.html#ad80a83d73e9b7d872b88fbf2943aebe9" target="_top" xlink:title="JS_IsException">
<polygon fill="none" stroke="#000000" points="145.5,-.5 145.5,-19.5 231.5,-19.5 231.5,-.5 145.5,-.5"/>
<text text-anchor="middle" x="188.5" y="-7.5" font-family="Helvetica,sans-Serif" font-size="10.00" fill="#000000">JS_IsException</text>
</a>
</g>
</g>
<!-- Node350018&#45;&gt;Node350076 -->
<g id="edge34" class="edge">
<title>Node350018&#45;&gt;Node350076</title>
<path fill="none" stroke="#191970" d="M49.0687,-228.0754C53.1667,-194.9009 70.8567,-86.7103 132,-29 133.6816,-27.4128 135.5,-25.958 137.4186,-24.6245"/>
<polygon fill="#191970" stroke="#191970" points="139.4095,-27.5182 146.3584,-19.5204 135.9387,-21.4392 139.4095,-27.5182"/>
</g>
<!-- Node350077 -->
<g id="node26" class="node">
<title>Node350077</title>
<g id="a_node26"><a xlink:href="quickjs_8c.html#ad0d311d4ce409584384f835f1a3e185a" target="_top" xlink:title="resolve_labels">
<polygon fill="none" stroke="#ff0000" points="149,-76.5 149,-95.5 228,-95.5 228,-76.5 149,-76.5"/>
<text text-anchor="middle" x="188.5" y="-83.5" font-family="Helvetica,sans-Serif" font-size="10.00" fill="#000000">resolve_labels</text>
</a>
</g>
</g>
<!-- Node350018&#45;&gt;Node350077 -->
<g id="edge36" class="edge">
<title>Node350018&#45;&gt;Node350077</title>
<path fill="none" stroke="#191970" d="M51.9854,-228.2604C62.0335,-204.8085 90.5875,-144.5893 132,-110 136.6636,-106.1048 142.0524,-102.7542 147.6121,-99.8988"/>
<polygon fill="#191970" stroke="#191970" points="149.4186,-102.9199 157.0321,-95.5522 146.4857,-96.5639 149.4186,-102.9199"/>
</g>
<!-- Node350106 -->
<g id="node30" class="node">
<title>Node350106</title>
<g id="a_node30"><a xlink:href="quickjs_8c.html#a7a4eedc4cc552a71e165f4d28ad43985" target="_top" xlink:title="resolve_variables">
<polygon fill="none" stroke="#ff0000" points="142.5,-152.5 142.5,-171.5 234.5,-171.5 234.5,-152.5 142.5,-152.5"/>
<text text-anchor="middle" x="188.5" y="-159.5" font-family="Helvetica,sans-Serif" font-size="10.00" fill="#000000">resolve_variables</text>
</a>
</g>
</g>
<!-- Node350018&#45;&gt;Node350106 -->
<g id="edge43" class="edge">
<title>Node350018&#45;&gt;Node350106</title>
<path fill="none" stroke="#191970" d="M61.8837,-228.4895C78.2345,-217.5071 106.415,-199.2547 132,-186 139.1193,-182.3117 146.9339,-178.7185 154.4202,-175.483"/>
<polygon fill="#191970" stroke="#191970" points="155.7927,-178.7027 163.6503,-171.5957 153.0758,-172.2515 155.7927,-178.7027"/>
</g>
<!-- Node350020 -->
<g id="node3" class="node">
<title>Node350020</title>
<g id="a_node3"><a xlink:href="quickjs_8c.html#a07c499a02fee3c2a738f301111f16c2c" target="_top" xlink:title="add_arguments_var">
<polygon fill="none" stroke="#000000" points="292.5,-606.5 292.5,-625.5 394.5,-625.5 394.5,-606.5 292.5,-606.5"/>
<text text-anchor="middle" x="343.5" y="-613.5" font-family="Helvetica,sans-Serif" font-size="10.00" fill="#000000">add_arguments_var</text>
</a>
</g>
</g>
<!-- Node350019&#45;&gt;Node350020 -->
<g id="edge2" class="edge">
<title>Node350019&#45;&gt;Node350020</title>
<path fill="none" stroke="#191970" d="M210.3268,-568.6519C228.9289,-576.7118 256.4702,-588.255 281,-597 287.099,-599.1743 293.5863,-601.3238 299.9853,-603.3515"/>
<polygon fill="#191970" stroke="#191970" points="299.3118,-606.8069 309.8997,-606.4235 301.3836,-600.1205 299.3118,-606.8069"/>
</g>
<!-- Node350021 -->
<g id="node4" class="node">
<title>Node350021</title>
<g id="a_node4"><a xlink:href="quickjs_8c.html#ab2e0855c4317f8e3b05c0a091bc43a29" target="_top" xlink:title="add_var">
<polygon fill="none" stroke="#ff0000" points="467.5,-549.5 467.5,-568.5 518.5,-568.5 518.5,-549.5 467.5,-549.5"/>
<text text-anchor="middle" x="493" y="-556.5" font-family="Helvetica,sans-Serif" font-size="10.00" fill="#000000">add_var</text>
</a>
</g>
</g>
<!-- Node350019&#45;&gt;Node350021 -->
<g id="edge6" class="edge">
<title>Node350019&#45;&gt;Node350021</title>
<path fill="none" stroke="#191970" d="M205.9314,-549.4212C224.0614,-540.0475 253.5774,-526.4132 281,-521 335.5038,-510.2409 351.618,-509.6416 406,-521 427.714,-525.5353 450.6425,-535.8047 467.5071,-544.5255"/>
<polygon fill="#191970" stroke="#191970" points="466.2114,-547.8014 476.6809,-549.4263 469.5097,-541.6272 466.2114,-547.8014"/>
</g>
<!-- Node350026 -->
<g id="node5" class="node">
<title>Node350026</title>
<g id="a_node5"><a xlink:href="quickjs_8c.html#afe834031fad358f2fbd7d71cfe8ac19c" target="_top" xlink:title="add_func_var">
<polygon fill="none" stroke="#000000" points="306,-568.5 306,-587.5 381,-587.5 381,-568.5 306,-568.5"/>
<text text-anchor="middle" x="343.5" y="-575.5" font-family="Helvetica,sans-Serif" font-size="10.00" fill="#000000">add_func_var</text>
</a>
</g>
</g>
<!-- Node350019&#45;&gt;Node350026 -->
<g id="edge4" class="edge">
<title>Node350019&#45;&gt;Node350026</title>
<path fill="none" stroke="#191970" d="M238.8241,-565.1688C257.0869,-567.4074 277.6551,-569.9287 295.6944,-572.14"/>
<polygon fill="#191970" stroke="#191970" points="295.3535,-575.6243 305.7051,-573.3671 296.2053,-568.6763 295.3535,-575.6243"/>
</g>
<!-- Node350027 -->
<g id="node6" class="node">
<title>Node350027</title>
<g id="a_node6"><a xlink:href="quickjs_8c.html#a237c9785e84b9382c476ee0868edb117" target="_top" xlink:title="add_var_this">
<polygon fill="none" stroke="#000000" points="307.5,-530.5 307.5,-549.5 379.5,-549.5 379.5,-530.5 307.5,-530.5"/>
<text text-anchor="middle" x="343.5" y="-537.5" font-family="Helvetica,sans-Serif" font-size="10.00" fill="#000000">add_var_this</text>
</a>
</g>
</g>
<!-- Node350019&#45;&gt;Node350027 -->
<g id="edge7" class="edge">
<title>Node350019&#45;&gt;Node350027</title>
<path fill="none" stroke="#191970" d="M238.8241,-552.8312C257.5323,-550.538 278.6598,-547.9482 297.0097,-545.6988"/>
<polygon fill="#191970" stroke="#191970" points="297.6687,-549.1443 307.1686,-544.4535 296.817,-542.1963 297.6687,-549.1443"/>
</g>
<!-- Node350028 -->
<g id="node7" class="node">
<title>Node350028</title>
<g id="a_node7"><a xlink:href="quickjs_8c.html#a5067e8cf3633f10ec12c2f3ee9134c85" target="_top" xlink:title="get_closure_var">
<polygon fill="none" stroke="#ff0000" points="300.5,-644.5 300.5,-663.5 386.5,-663.5 386.5,-644.5 300.5,-644.5"/>
<text text-anchor="middle" x="343.5" y="-651.5" font-family="Helvetica,sans-Serif" font-size="10.00" fill="#000000">get_closure_var</text>
</a>
</g>
</g>
<!-- Node350019&#45;&gt;Node350028 -->
<g id="edge9" class="edge">
<title>Node350019&#45;&gt;Node350028</title>
<path fill="none" stroke="#191970" d="M197.569,-568.5899C213.1716,-584.5604 246.7334,-616.6585 281,-635 285.0464,-637.1659 289.3753,-639.1218 293.7963,-640.8799"/>
<polygon fill="#191970" stroke="#191970" points="292.9537,-644.2974 303.5479,-644.4179 295.3411,-637.7171 292.9537,-644.2974"/>
</g>
<!-- Node350020&#45;&gt;Node350021 -->
<g id="edge3" class="edge">
<title>Node350020&#45;&gt;Node350021</title>
<path fill="none" stroke="#191970" d="M377.4736,-606.4584C386.7939,-603.6281 396.8497,-600.3761 406,-597 425.5186,-589.7984 446.9405,-580.4601 463.6434,-572.843"/>
<polygon fill="#191970" stroke="#191970" points="465.2647,-575.9496 472.8825,-568.5862 462.3355,-569.592 465.2647,-575.9496"/>
</g>
<!-- Node350026&#45;&gt;Node350021 -->
<g id="edge5" class="edge">
<title>Node350026&#45;&gt;Node350021</title>
<path fill="none" stroke="#191970" d="M381.2252,-573.2055C404.4789,-570.2502 434.128,-566.4821 457.046,-563.5694"/>
<polygon fill="#191970" stroke="#191970" points="457.5762,-567.0303 467.0551,-562.2973 456.6936,-560.0861 457.5762,-567.0303"/>
</g>
<!-- Node350027&#45;&gt;Node350021 -->
<g id="edge8" class="edge">
<title>Node350027&#45;&gt;Node350021</title>
<path fill="none" stroke="#191970" d="M379.6898,-544.5994C403.2206,-547.5899 433.7716,-551.4726 457.2202,-554.4527"/>
<polygon fill="#191970" stroke="#191970" points="457.0819,-557.9632 467.4434,-555.752 457.9645,-551.0191 457.0819,-557.9632"/>
</g>
<!-- Node350032 -->
<g id="node9" class="node">
<title>Node350032</title>
<g id="a_node9"><a xlink:href="list_8h.html#a3a5d0733570b2fafc18f4c71a2968ea5" target="_top" xlink:title="list_add_tail">
<polygon fill="none" stroke="#ff0000" points="309.5,-454.5 309.5,-473.5 377.5,-473.5 377.5,-454.5 309.5,-454.5"/>
<text text-anchor="middle" x="343.5" y="-461.5" font-family="Helvetica,sans-Serif" font-size="10.00" fill="#000000">list_add_tail</text>
</a>
</g>
</g>
<!-- Node350031&#45;&gt;Node350032 -->
<g id="edge11" class="edge">
<title>Node350031&#45;&gt;Node350032</title>
<path fill="none" stroke="#191970" d="M228.8198,-461.0405C250.4243,-461.598 277.0806,-462.286 299.2548,-462.8582"/>
<polygon fill="#191970" stroke="#191970" points="299.3279,-466.3611 309.4149,-463.1204 299.5086,-459.3635 299.3279,-466.3611"/>
</g>
<!-- Node350035 -->
<g id="node11" class="node">
<title>Node350035</title>
<g id="a_node11"><a xlink:href="quickjs_8c.html#a2090315d1fa1b5132f07c7ce76ab1d8d" target="_top" xlink:title="find_closure_var">
<polygon fill="none" stroke="#000000" points="299.5,-416.5 299.5,-435.5 387.5,-435.5 387.5,-416.5 299.5,-416.5"/>
<text text-anchor="middle" x="343.5" y="-423.5" font-family="Helvetica,sans-Serif" font-size="10.00" fill="#000000">find_closure_var</text>
</a>
</g>
</g>
<!-- Node350034&#45;&gt;Node350035 -->
<g id="edge13" class="edge">
<title>Node350034&#45;&gt;Node350035</title>
<path fill="none" stroke="#191970" d="M245.3361,-417.7669C259.6583,-418.9681 274.9962,-420.2545 289.1909,-421.445"/>
<polygon fill="#191970" stroke="#191970" points="289.0363,-424.9443 299.2939,-422.2924 289.6214,-417.9688 289.0363,-424.9443"/>
</g>
<!-- Node350037 -->
<g id="node13" class="node">
<title>Node350037</title>
<g id="a_node13"><a xlink:href="quickjs_8c.html#aa042996addea7da32807474636362082" target="_top" xlink:title="compute_stack_size_rec">
<polygon fill="none" stroke="#ff0000" points="281,-360.5 281,-379.5 406,-379.5 406,-360.5 281,-360.5"/>
<text text-anchor="middle" x="343.5" y="-367.5" font-family="Helvetica,sans-Serif" font-size="10.00" fill="#000000">compute_stack_size_rec</text>
</a>
</g>
</g>
<!-- Node350036&#45;&gt;Node350037 -->
<g id="edge15" class="edge">
<title>Node350036&#45;&gt;Node350037</title>
<path fill="none" stroke="#191970" d="M242.2765,-370C251.3945,-370 260.9974,-370 270.5094,-370"/>
<polygon fill="#191970" stroke="#191970" points="270.768,-373.5001 280.768,-370 270.768,-366.5001 270.768,-373.5001"/>
</g>
<!-- Node350036&#45;&gt;Node350040 -->
<g id="edge17" class="edge">
<title>Node350036&#45;&gt;Node350040</title>
<path fill="none" stroke="#191970" d="M227.613,-360.411C253.195,-354.1393 286.2425,-346.0373 310.4966,-340.0912"/>
<polygon fill="#191970" stroke="#191970" points="311.4264,-343.4669 320.3054,-337.6864 309.7596,-336.6683 311.4264,-343.4669"/>
</g>
<!-- Node350037&#45;&gt;Node350037 -->
<g id="edge16" class="edge">
<title>Node350037&#45;&gt;Node350037</title>
<path fill="none" stroke="#191970" d="M320.6889,-379.7571C309.5916,-388.5653 317.1953,-398 343.5,-398 360.7625,-398 369.9711,-393.9368 371.1258,-388.6539"/>
<polygon fill="#191970" stroke="#191970" points="374.1488,-386.886 366.3111,-379.7571 367.9924,-390.2176 374.1488,-386.886"/>
</g>
<!-- Node350041 -->
<g id="node15" class="node">
<title>Node350041</title>
<g id="a_node15"><a xlink:href="quickjs_8c.html#a69e19dda8a93d613203e0baa06f0ed8d" target="_top" xlink:title="js_free_rt">
<polygon fill="none" stroke="#000000" points="464.5,-322.5 464.5,-341.5 521.5,-341.5 521.5,-322.5 464.5,-322.5"/>
<text text-anchor="middle" x="493" y="-329.5" font-family="Helvetica,sans-Serif" font-size="10.00" fill="#000000">js_free_rt</text>
</a>
</g>
</g>
<!-- Node350040&#45;&gt;Node350041 -->
<g id="edge18" class="edge">
<title>Node350040&#45;&gt;Node350041</title>
<path fill="none" stroke="#191970" d="M366.5317,-332C389.8452,-332 426.3235,-332 454.1239,-332"/>
<polygon fill="#191970" stroke="#191970" points="454.3083,-335.5001 464.3083,-332 454.3083,-328.5001 454.3083,-335.5001"/>
</g>
<!-- Node350044&#45;&gt;Node350040 -->
<g id="edge26" class="edge">
<title>Node350044&#45;&gt;Node350040</title>
<path fill="none" stroke="#191970" d="M210.7271,-285.5117C229.3391,-293.3259 256.6854,-304.4588 281,-313 290.6091,-316.3755 301.1678,-319.7209 310.8272,-322.6419"/>
<polygon fill="#191970" stroke="#191970" points="309.9076,-326.0199 320.4905,-325.5158 311.9031,-319.3103 309.9076,-326.0199"/>
</g>
<!-- Node350044&#45;&gt;Node350042 -->
<g id="edge24" class="edge">
<title>Node350044&#45;&gt;Node350042</title>
<path fill="none" stroke="#191970" d="M197.5422,-266.2767C213.1052,-250.0854 246.6103,-217.5496 281,-199 288.4511,-194.9809 296.871,-191.6902 305.0612,-189.0448"/>
<polygon fill="#191970" stroke="#191970" points="306.269,-192.3372 314.8569,-186.1325 304.2741,-185.6275 306.269,-192.3372"/>
</g>
<!-- Node350044&#45;&gt;Node350044 -->
<g id="edge27" class="edge">
<title>Node350044&#45;&gt;Node350044</title>
<path fill="none" stroke="#191970" d="M166.9219,-285.7571C156.4245,-294.5653 163.6172,-304 188.5,-304 204.4406,-304 213.1211,-300.128 214.5416,-295.0292"/>
<polygon fill="#191970" stroke="#191970" points="217.5692,-293.2493 210.0781,-285.7571 211.262,-296.2855 217.5692,-293.2493"/>
</g>
<!-- Node350045 -->
<g id="node19" class="node">
<title>Node350045</title>
<g id="a_node19"><a xlink:href="quickjs_8c.html#a3242b1f6e8d8ecc3c27ee7c2caa647a3" target="_top" xlink:title="free_bytecode_atoms">
<polygon fill="none" stroke="#ff0000" points="288.5,-246.5 288.5,-265.5 398.5,-265.5 398.5,-246.5 288.5,-246.5"/>
<text text-anchor="middle" x="343.5" y="-253.5" font-family="Helvetica,sans-Serif" font-size="10.00" fill="#000000">free_bytecode_atoms</text>
</a>
</g>
</g>
<!-- Node350044&#45;&gt;Node350045 -->
<g id="edge25" class="edge">
<title>Node350044&#45;&gt;Node350045</title>
<path fill="none" stroke="#191970" d="M240.5439,-269.2847C252.6883,-267.7176 265.7707,-266.0296 278.402,-264.3997"/>
<polygon fill="#191970" stroke="#191970" points="278.9388,-267.8596 288.4087,-263.1086 278.043,-260.9171 278.9388,-267.8596"/>
</g>
<!-- Node350044&#45;&gt;Node350050 -->
<g id="edge28" class="edge">
<title>Node350044&#45;&gt;Node350050</title>
<path fill="none" stroke="#191970" d="M193.5653,-266.3493C205.641,-244.2843 238.3284,-189.8354 281,-161 285.3518,-158.0592 290.1746,-155.5607 295.1555,-153.4405"/>
<polygon fill="#191970" stroke="#191970" points="296.7081,-156.5966 304.8466,-149.8131 294.2542,-150.0408 296.7081,-156.5966"/>
</g>
<!-- Node350051 -->
<g id="node23" class="node">
<title>Node350051</title>
<g id="a_node23"><a xlink:href="quickjs_8h.html#afaa20c47565bc704c6c85f3d77254e7d" target="_top" xlink:title="JS_FreeValue">
<polygon fill="none" stroke="#ff0000" points="304.5,-284.5 304.5,-303.5 382.5,-303.5 382.5,-284.5 304.5,-284.5"/>
<text text-anchor="middle" x="343.5" y="-291.5" font-family="Helvetica,sans-Serif" font-size="10.00" fill="#000000">JS_FreeValue</text>
</a>
</g>
</g>
<!-- Node350044&#45;&gt;Node350051 -->
<g id="edge31" class="edge">
<title>Node350044&#45;&gt;Node350051</title>
<path fill="none" stroke="#191970" d="M240.5439,-282.0438C257.7322,-284.0399 276.7997,-286.2542 293.8074,-288.2292"/>
<polygon fill="#191970" stroke="#191970" points="293.7587,-291.747 304.0957,-289.424 294.5662,-284.7938 293.7587,-291.747"/>
</g>
<!-- Node350044&#45;&gt;Node350062 -->
<g id="edge32" class="edge">
<title>Node350044&#45;&gt;Node350062</title>
<path fill="none" stroke="#191970" d="M211.1624,-266.3756C237.4018,-255.2425 277.4969,-238.2671 281,-237 290.32,-233.6289 300.5602,-230.3452 310.0063,-227.4822"/>
<polygon fill="#191970" stroke="#191970" points="311.2728,-230.7573 319.8634,-224.5563 309.2809,-224.0466 311.2728,-230.7573"/>
</g>
<!-- Node350024 -->
<g id="node21" class="node">
<title>Node350024</title>
<g id="a_node21"><a xlink:href="quickjs_8c.html#a7f6796ee7a195631366f57c713a33f65" target="_top" xlink:title="__JS_AtomIsConst">
<polygon fill="none" stroke="#000000" points="442,-151.5 442,-170.5 544,-170.5 544,-151.5 442,-151.5"/>
<text text-anchor="middle" x="493" y="-158.5" font-family="Helvetica,sans-Serif" font-size="10.00" fill="#000000">__JS_AtomIsConst</text>
</a>
</g>
</g>
<!-- Node350050&#45;&gt;Node350024 -->
<g id="edge29" class="edge">
<title>Node350050&#45;&gt;Node350024</title>
<path fill="none" stroke="#191970" d="M382.3891,-146.9424C397.4348,-148.8546 415.0207,-151.0896 431.6854,-153.2075"/>
<polygon fill="#191970" stroke="#191970" points="431.5501,-156.7184 441.9116,-154.5072 432.4327,-149.7742 431.5501,-156.7184"/>
</g>
<!-- Node350047 -->
<g id="node22" class="node">
<title>Node350047</title>
<g id="a_node22"><a xlink:href="quickjs_8c.html#a0bbd9e3ecd55e3ea6c9d44bfda382095" target="_top" xlink:title="__JS_FreeAtom">
<polygon fill="none" stroke="#ff0000" points="449.5,-113.5 449.5,-132.5 536.5,-132.5 536.5,-113.5 449.5,-113.5"/>
<text text-anchor="middle" x="493" y="-120.5" font-family="Helvetica,sans-Serif" font-size="10.00" fill="#000000">__JS_FreeAtom</text>
</a>
</g>
</g>
<!-- Node350050&#45;&gt;Node350047 -->
<g id="edge30" class="edge">
<title>Node350050&#45;&gt;Node350047</title>
<path fill="none" stroke="#191970" d="M382.3891,-137.0576C399.7697,-134.8487 420.5401,-132.2089 439.3645,-129.8166"/>
<polygon fill="#191970" stroke="#191970" points="439.8155,-133.2875 449.2944,-128.5546 438.9329,-126.3433 439.8155,-133.2875"/>
</g>
<!-- Node350077&#45;&gt;Node350040 -->
<g id="edge41" class="edge">
<title>Node350077&#45;&gt;Node350040</title>
<path fill="none" stroke="#191970" d="M201.9105,-95.7582C214.9894,-106.0197 234.413,-123.3805 245,-143 281.6762,-210.9669 228.7999,-256.0808 281,-313 288.5515,-321.2342 299.5467,-325.9447 310.2168,-328.6241"/>
<polygon fill="#191970" stroke="#191970" points="309.733,-332.0964 320.2243,-330.6193 311.1017,-325.2315 309.733,-332.0964"/>
</g>
<!-- Node350077&#45;&gt;Node350042 -->
<g id="edge40" class="edge">
<title>Node350077&#45;&gt;Node350042</title>
<path fill="none" stroke="#191970" d="M197.8481,-95.7104C213.5969,-111.5441 247.038,-142.963 281,-161 288.4768,-164.9709 296.9075,-168.2415 305.1,-170.8826"/>
<polygon fill="#191970" stroke="#191970" points="304.3119,-174.2997 314.8948,-173.7968 306.3081,-167.5904 304.3119,-174.2997"/>
</g>
<!-- Node350077&#45;&gt;Node350050 -->
<g id="edge42" class="edge">
<title>Node350077&#45;&gt;Node350050</title>
<path fill="none" stroke="#191970" d="M210.7271,-95.5117C229.3391,-103.3259 256.6854,-114.4588 281,-123 287.3264,-125.2223 294.0644,-127.4316 300.6863,-129.5153"/>
<polygon fill="#191970" stroke="#191970" points="299.6564,-132.8603 310.2438,-132.4653 301.7209,-126.1717 299.6564,-132.8603"/>
</g>
<!-- Node350078 -->
<g id="node27" class="node">
<title>Node350078</title>
<g id="a_node27"><a xlink:href="quickjs_8c.html#ac8a27f8dd2ff2019a9ec4f34e83e94c7" target="_top" xlink:title="add_pc2line_info">
<polygon fill="none" stroke="#000000" points="299,-18.5 299,-37.5 388,-37.5 388,-18.5 299,-18.5"/>
<text text-anchor="middle" x="343.5" y="-25.5" font-family="Helvetica,sans-Serif" font-size="10.00" fill="#000000">add_pc2line_info</text>
</a>
</g>
</g>
<!-- Node350077&#45;&gt;Node350078 -->
<g id="edge37" class="edge">
<title>Node350077&#45;&gt;Node350078</title>
<path fill="none" stroke="#191970" d="M220.2682,-76.4494C228.4405,-73.686 237.1422,-70.4691 245,-67 261.7441,-59.6077 264.1494,-54.1464 281,-47 286.3509,-44.7307 292.0643,-42.6084 297.7805,-40.6654"/>
<polygon fill="#191970" stroke="#191970" points="298.9041,-43.9806 307.3397,-37.5703 296.7478,-37.321 298.9041,-43.9806"/>
</g>
<!-- Node350079 -->
<g id="node28" class="node">
<title>Node350079</title>
<g id="a_node28"><a xlink:href="quickjs_8c.html#afbe4bea7afe68f26bf6ecd3cfa9ce90d" target="_top" xlink:title="add_reloc">
<polygon fill="none" stroke="#000000" points="314,-94.5 314,-113.5 373,-113.5 373,-94.5 314,-94.5"/>
<text text-anchor="middle" x="343.5" y="-101.5" font-family="Helvetica,sans-Serif" font-size="10.00" fill="#000000">add_reloc</text>
</a>
</g>
</g>
<!-- Node350077&#45;&gt;Node350079 -->
<g id="edge38" class="edge">
<title>Node350077&#45;&gt;Node350079</title>
<path fill="none" stroke="#191970" d="M228.0141,-90.5887C251.1926,-93.2804 280.3937,-96.6715 303.633,-99.3703"/>
<polygon fill="#191970" stroke="#191970" points="303.5109,-102.8795 313.8479,-100.5565 304.3184,-95.9263 303.5109,-102.8795"/>
</g>
<!-- Node350080 -->
<g id="node29" class="node">
<title>Node350080</title>
<g id="a_node29"><a xlink:href="quickjs_8c.html#aeadae49bd7257eafa54d0a991a624ca0" target="_top" xlink:title="code_has_label">
<polygon fill="none" stroke="#ff0000" points="301.5,-56.5 301.5,-75.5 385.5,-75.5 385.5,-56.5 301.5,-56.5"/>
<text text-anchor="middle" x="343.5" y="-63.5" font-family="Helvetica,sans-Serif" font-size="10.00" fill="#000000">code_has_label</text>
</a>
</g>
</g>
<!-- Node350077&#45;&gt;Node350080 -->
<g id="edge39" class="edge">
<title>Node350077&#45;&gt;Node350080</title>
<path fill="none" stroke="#191970" d="M228.0141,-80.9014C247.1964,-78.4263 270.5036,-75.4189 291.1426,-72.7558"/>
<polygon fill="#191970" stroke="#191970" points="291.8725,-76.1907 301.3423,-71.4397 290.9766,-69.2483 291.8725,-76.1907"/>
</g>
<!-- Node350106&#45;&gt;Node350042 -->
<g id="edge44" class="edge">
<title>Node350106&#45;&gt;Node350042</title>
<path fill="none" stroke="#191970" d="M234.5854,-167.3519C256.9786,-169.9524 283.5838,-173.042 304.8932,-175.5166"/>
<polygon fill="#191970" stroke="#191970" points="304.5501,-179.0002 314.8872,-176.6772 305.3577,-172.047 304.5501,-179.0002"/>
</g>
<!-- Node350106&#45;&gt;Node350050 -->
<g id="edge45" class="edge">
<title>Node350106&#45;&gt;Node350050</title>
<path fill="none" stroke="#191970" d="M234.5854,-156.0535C253.5718,-153.6036 275.5862,-150.7631 294.8334,-148.2796"/>
<polygon fill="#191970" stroke="#191970" points="295.4393,-151.7305 304.9091,-146.9795 294.5434,-144.788 295.4393,-151.7305"/>
</g>
</g>
</svg>
