<?xml version="1.0" encoding="UTF-8" standalone="no"?>
<!DOCTYPE svg PUBLIC "-//W3C//DTD SVG 1.1//EN"
 "http://www.w3.org/Graphics/SVG/1.1/DTD/svg11.dtd">
<!-- Generated by graphviz version 2.40.1 (20161225.0304)
 -->
<!-- Title: js_free_prop_enum Pages: 1 -->
<!--zoomable 374 -->
<svg id="main" version="1.1" xmlns="http://www.w3.org/2000/svg" xmlns:xlink="http://www.w3.org/1999/xlink" xml:space="preserve" onload="init(evt)">
<style type="text/css"><![CDATA[
.edge:hover path { stroke: red; }
.edge:hover polygon { stroke: red; fill: red; }
]]></style>
<script type="text/javascript"><![CDATA[
var edges = document.getElementsByTagName('g');
if (edges && edges.length) {
  for (var i=0;i<edges.length;i++) {
    if (edges[i].id.substr(0,4)=='edge') {
      edges[i].setAttribute('class','edge');
    }
  }
}
]]></script>
        <defs>
                <circle id="rim" cx="0" cy="0" r="7"/>
                <circle id="rim2" cx="0" cy="0" r="3.5"/>
                <g id="zoomPlus">
                        <use xlink:href="#rim" fill="#404040">
                                <set attributeName="fill" to="#808080" begin="zoomplus.mouseover" end="zoomplus.mouseout"/>
                        </use>
                        <path d="M-4,0h8M0,-4v8" fill="none" stroke="white" stroke-width="1.5" pointer-events="none"/>
                </g>
                <g id="zoomMin">
                        <use xlink:href="#rim" fill="#404040">
                                <set attributeName="fill" to="#808080" begin="zoomminus.mouseover" end="zoomminus.mouseout"/>
                        </use>
                        <path d="M-4,0h8" fill="none" stroke="white" stroke-width="1.5" pointer-events="none"/>
                </g>
                <g id="dirArrow">
                        <path fill="none" stroke="white" stroke-width="1.5" d="M0,-3.0v7 M-2.5,-0.5L0,-3.0L2.5,-0.5"/>
                </g>
               <g id="resetDef">
                       <use xlink:href="#rim2" fill="#404040">
                               <set attributeName="fill" to="#808080" begin="reset.mouseover" end="reset.mouseout"/>
                       </use>
               </g>
        </defs>

<script type="text/javascript">
var viewWidth = 725;
var viewHeight = 374;
var sectionId = 'dynsection-556';
</script>
<script xlink:href="svgpan.js"/>
<svg id="graph" class="graph">
<g id="viewport">
<title>js_free_prop_enum</title>
<!-- Node184464 -->
<g id="node1" class="node">
<title>Node184464</title>
<polygon fill="#bfbfbf" stroke="#000000" points="0,-176 0,-195 99,-195 99,-176 0,-176"/>
<text text-anchor="middle" x="49.5" y="-183" font-family="Helvetica,sans-Serif" font-size="10.00" fill="#000000">js_free_prop_enum</text>
</g>
<!-- Node184465 -->
<g id="node2" class="node">
<title>Node184465</title>
<g id="a_node2"><a xlink:href="quickjs_8c.html#aa40a5354bee3b56e05a71244910bcc78" target="_top" xlink:title="build_for_in_iterator">
<polygon fill="none" stroke="#000000" points="362,-346 362,-365 463,-365 463,-346 362,-346"/>
<text text-anchor="middle" x="412.5" y="-353" font-family="Helvetica,sans-Serif" font-size="10.00" fill="#000000">build_for_in_iterator</text>
</a>
</g>
</g>
<!-- Node184464&#45;&gt;Node184465 -->
<g id="edge1" class="edge">
<title>Node184464&#45;&gt;Node184465</title>
<path fill="none" stroke="#191970" d="M57.5685,-204.6113C69.9968,-231.5446 96.4893,-280.0995 135,-304.5 204.7211,-348.6756 302.8826,-356.793 361.84,-357.1811"/>
<polygon fill="#191970" stroke="#191970" points="60.6202,-202.8589 53.3674,-195.1357 54.2209,-205.6961 60.6202,-202.8589"/>
</g>
<!-- Node184542 -->
<g id="node5" class="node">
<title>Node184542</title>
<g id="a_node5"><a xlink:href="quickjs_8c.html#a624282391413d4c5a030adbd8b77aa80" target="_top" xlink:title="internalize_json_property">
<polygon fill="none" stroke="#ff0000" points="350,-252 350,-271 475,-271 475,-252 350,-252"/>
<text text-anchor="middle" x="412.5" y="-259" font-family="Helvetica,sans-Serif" font-size="10.00" fill="#000000">internalize_json_property</text>
</a>
</g>
</g>
<!-- Node184464&#45;&gt;Node184542 -->
<g id="edge5" class="edge">
<title>Node184464&#45;&gt;Node184542</title>
<path fill="none" stroke="#191970" d="M67.5197,-201.636C83.8582,-215.1993 109.2579,-233.7349 135,-242.5 205.7403,-266.5867 292.3582,-268.4958 349.8086,-266.2381"/>
<polygon fill="#191970" stroke="#191970" points="69.7223,-198.9144 59.8478,-195.0746 65.1726,-204.2341 69.7223,-198.9144"/>
</g>
<!-- Node184596 -->
<g id="node6" class="node">
<title>Node184596</title>
<g id="a_node6"><a xlink:href="quickjs_8c.html#a3b754d750c7f3123e85f4a2e748de023" target="_top" xlink:title="JS_CopyDataProperties">
<polygon fill="none" stroke="#ff0000" points="351.5,-308 351.5,-327 473.5,-327 473.5,-308 351.5,-308"/>
<text text-anchor="middle" x="412.5" y="-315" font-family="Helvetica,sans-Serif" font-size="10.00" fill="#000000">JS_CopyDataProperties</text>
</a>
</g>
</g>
<!-- Node184464&#45;&gt;Node184596 -->
<g id="edge7" class="edge">
<title>Node184464&#45;&gt;Node184596</title>
<path fill="none" stroke="#191970" d="M62.2986,-203.0909C77.389,-222.4255 104.3318,-252.8185 135,-268.5 203.6044,-303.5793 292.8307,-314.0418 351.3366,-316.8997"/>
<polygon fill="#191970" stroke="#191970" points="65.0568,-200.9356 56.2284,-195.0782 59.4772,-205.1626 65.0568,-200.9356"/>
</g>
<!-- Node184691 -->
<g id="node7" class="node">
<title>Node184691</title>
<g id="a_node7"><a xlink:href="quickjs_8c.html#a79c9d633e8f9d5fd70546406b9e6f176" target="_top" xlink:title="JS_GetOwnPropertyNames2">
<polygon fill="none" stroke="#ff0000" points="341,-214 341,-233 484,-233 484,-214 341,-214"/>
<text text-anchor="middle" x="412.5" y="-221" font-family="Helvetica,sans-Serif" font-size="10.00" fill="#000000">JS_GetOwnPropertyNames2</text>
</a>
</g>
</g>
<!-- Node184464&#45;&gt;Node184691 -->
<g id="edge9" class="edge">
<title>Node184464&#45;&gt;Node184691</title>
<path fill="none" stroke="#191970" d="M74.5224,-199.9724C91.0836,-208.6924 113.6144,-218.9617 135,-223.5 203.8063,-238.1017 284.389,-236.0483 340.936,-231.5878"/>
<polygon fill="#191970" stroke="#191970" points="75.9719,-196.7766 65.515,-195.0722 72.6267,-202.9256 75.9719,-196.7766"/>
</g>
<!-- Node184800 -->
<g id="node8" class="node">
<title>Node184800</title>
<g id="a_node8"><a xlink:href="quickjs_8c.html#a176ac5ff56a118a0b1b2566798d28823" target="_top" xlink:title="JS_GetOwnPropertyNamesInternal">
<polygon fill="none" stroke="#ff0000" points="135,-195 135,-214 305,-214 305,-195 135,-195"/>
<text text-anchor="middle" x="220" y="-202" font-family="Helvetica,sans-Serif" font-size="10.00" fill="#000000">JS_GetOwnPropertyNamesInternal</text>
</a>
</g>
</g>
<!-- Node184464&#45;&gt;Node184800 -->
<g id="edge10" class="edge">
<title>Node184464&#45;&gt;Node184800</title>
<path fill="none" stroke="#191970" d="M109.2164,-192.1546C117.5324,-193.0813 126.2055,-194.0478 134.8768,-195.0141"/>
<polygon fill="#191970" stroke="#191970" points="109.6001,-188.6758 99.274,-191.0467 108.8248,-195.6327 109.6001,-188.6758"/>
</g>
<!-- Node184752 -->
<g id="node9" class="node">
<title>Node184752</title>
<g id="a_node9"><a xlink:href="quickjs_8c.html#ab2de4cc7a9e58c7a6220acf9e4769d62" target="_top" xlink:title="JS_ObjectDefineProperties">
<polygon fill="none" stroke="#ff0000" points="345,-176 345,-195 480,-195 480,-176 345,-176"/>
<text text-anchor="middle" x="412.5" y="-183" font-family="Helvetica,sans-Serif" font-size="10.00" fill="#000000">JS_ObjectDefineProperties</text>
</a>
</g>
</g>
<!-- Node184464&#45;&gt;Node184752 -->
<g id="edge23" class="edge">
<title>Node184464&#45;&gt;Node184752</title>
<path fill="none" stroke="#191970" d="M109.2671,-185.5C174.0387,-185.5 277.1834,-185.5 344.8742,-185.5"/>
<polygon fill="#191970" stroke="#191970" points="109.2125,-182.0001 99.2125,-185.5 109.2124,-189.0001 109.2125,-182.0001"/>
</g>
<!-- Node184746 -->
<g id="node10" class="node">
<title>Node184746</title>
<g id="a_node10"><a xlink:href="quickjs_8c.html#ad4eec5e88dc04d884c28e0f09d9a81f5" target="_top" xlink:title="js_object_getOwnProperty\lDescriptors">
<polygon fill="none" stroke="#000000" points="347,-126.5 347,-156.5 478,-156.5 478,-126.5 347,-126.5"/>
<text text-anchor="start" x="355" y="-144.5" font-family="Helvetica,sans-Serif" font-size="10.00" fill="#000000">js_object_getOwnProperty</text>
<text text-anchor="middle" x="412.5" y="-133.5" font-family="Helvetica,sans-Serif" font-size="10.00" fill="#000000">Descriptors</text>
</a>
</g>
</g>
<!-- Node184464&#45;&gt;Node184746 -->
<g id="edge20" class="edge">
<title>Node184464&#45;&gt;Node184746</title>
<path fill="none" stroke="#191970" d="M109.3622,-178.244C174.7641,-170.3165 279.2075,-157.6567 346.8209,-149.4611"/>
<polygon fill="#191970" stroke="#191970" points="108.7186,-174.7963 99.2125,-179.4742 109.561,-181.7454 108.7186,-174.7963"/>
</g>
<!-- Node184772 -->
<g id="node11" class="node">
<title>Node184772</title>
<g id="a_node11"><a xlink:href="quickjs_8c.html#a3b1f61e0c2e39eb52d8b1c5c8713873e" target="_top" xlink:title="js_object_seal">
<polygon fill="none" stroke="#ff0000" points="373,-88 373,-107 452,-107 452,-88 373,-88"/>
<text text-anchor="middle" x="412.5" y="-95" font-family="Helvetica,sans-Serif" font-size="10.00" fill="#000000">js_object_seal</text>
</a>
</g>
</g>
<!-- Node184464&#45;&gt;Node184772 -->
<g id="edge22" class="edge">
<title>Node184464&#45;&gt;Node184772</title>
<path fill="none" stroke="#191970" d="M79.9878,-171.7699C96.093,-164.93 116.34,-156.9738 135,-151.5 218.1248,-127.1157 318.5367,-110.6864 372.8854,-102.8339"/>
<polygon fill="#191970" stroke="#191970" points="78.3361,-168.6708 70.5465,-175.8523 81.1143,-175.0959 78.3361,-168.6708"/>
</g>
<!-- Node184802 -->
<g id="node12" class="node">
<title>Node184802</title>
<g id="a_node12"><a xlink:href="quickjs_8c.html#a43a4ecde0329def8ff22e9341c7b109d" target="_top" xlink:title="js_object_isSealed">
<polygon fill="none" stroke="#000000" points="363.5,-50 363.5,-69 461.5,-69 461.5,-50 363.5,-50"/>
<text text-anchor="middle" x="412.5" y="-57" font-family="Helvetica,sans-Serif" font-size="10.00" fill="#000000">js_object_isSealed</text>
</a>
</g>
</g>
<!-- Node184464&#45;&gt;Node184802 -->
<g id="edge21" class="edge">
<title>Node184464&#45;&gt;Node184802</title>
<path fill="none" stroke="#191970" d="M64.0993,-168.0867C79.7621,-150.6287 106.2874,-124.4021 135,-110.5 209.2883,-74.531 306.0047,-63.817 363.4407,-60.6951"/>
<polygon fill="#191970" stroke="#191970" points="61.2552,-166.0229 57.3209,-175.8602 66.5311,-170.6235 61.2552,-166.0229"/>
</g>
<!-- Node184803 -->
<g id="node13" class="node">
<title>Node184803</title>
<g id="a_node13"><a xlink:href="quickjs_8c.html#a438b354d69a8f0674195b0cdc19dd686" target="_top" xlink:title="js_proxy_get_own_property\l_names">
<polygon fill="none" stroke="#000000" points="344.5,-.5 344.5,-30.5 480.5,-30.5 480.5,-.5 344.5,-.5"/>
<text text-anchor="start" x="352.5" y="-18.5" font-family="Helvetica,sans-Serif" font-size="10.00" fill="#000000">js_proxy_get_own_property</text>
<text text-anchor="middle" x="412.5" y="-7.5" font-family="Helvetica,sans-Serif" font-size="10.00" fill="#000000">_names</text>
</a>
</g>
</g>
<!-- Node184464&#45;&gt;Node184803 -->
<g id="edge24" class="edge">
<title>Node184464&#45;&gt;Node184803</title>
<path fill="none" stroke="#191970" d="M56.9488,-166.2888C68.8788,-138.2895 95.0676,-86.8542 135,-61.5 197.9736,-21.5163 284.5945,-12.8703 344.2226,-12.4001"/>
<polygon fill="#191970" stroke="#191970" points="53.6177,-165.1881 53.0757,-175.7691 60.0978,-167.8355 53.6177,-165.1881"/>
</g>
<!-- Node184466 -->
<g id="node3" class="node">
<title>Node184466</title>
<g id="a_node3"><a xlink:href="quickjs_8c.html#a3472bcc4762be7f7de1dcf4c1e0c5ff1" target="_top" xlink:title="js_for_in_start">
<polygon fill="none" stroke="#000000" points="520,-346 520,-365 598,-365 598,-346 520,-346"/>
<text text-anchor="middle" x="559" y="-353" font-family="Helvetica,sans-Serif" font-size="10.00" fill="#000000">js_for_in_start</text>
</a>
</g>
</g>
<!-- Node184465&#45;&gt;Node184466 -->
<g id="edge2" class="edge">
<title>Node184465&#45;&gt;Node184466</title>
<path fill="none" stroke="#191970" d="M473.48,-355.5C489.146,-355.5 505.5826,-355.5 519.8129,-355.5"/>
<polygon fill="#191970" stroke="#191970" points="473.3275,-352.0001 463.3274,-355.5 473.3274,-359.0001 473.3275,-352.0001"/>
</g>
<!-- Node184467 -->
<g id="node4" class="node">
<title>Node184467</title>
<g id="a_node4"><a xlink:href="quickjs_8c.html#ac2894ff4edcdb4e6841bcce9c76081e3" target="_top" xlink:title="JS_CallInternal">
<polygon fill="none" stroke="#ff0000" points="634,-327 634,-346 717,-346 717,-327 634,-327"/>
<text text-anchor="middle" x="675.5" y="-334" font-family="Helvetica,sans-Serif" font-size="10.00" fill="#000000">JS_CallInternal</text>
</a>
</g>
</g>
<!-- Node184466&#45;&gt;Node184467 -->
<g id="edge3" class="edge">
<title>Node184466&#45;&gt;Node184467</title>
<path fill="none" stroke="#191970" d="M608.0408,-347.5019C616.6416,-346.0992 625.5172,-344.6517 633.8919,-343.2859"/>
<polygon fill="#191970" stroke="#191970" points="607.4231,-344.0563 598.1169,-349.1204 608.5499,-350.9651 607.4231,-344.0563"/>
</g>
<!-- Node184467&#45;&gt;Node184467 -->
<g id="edge4" class="edge">
<title>Node184467&#45;&gt;Node184467</title>
<path fill="none" stroke="#191970" d="M654.0196,-355.9C655.4541,-360.8146 662.6143,-364.5 675.5,-364.5 696.1172,-364.5 702.0768,-355.0653 693.379,-346.2571"/>
<polygon fill="#191970" stroke="#191970" points="657.401,-356.8496 657.621,-346.2571 650.8434,-354.4004 657.401,-356.8496"/>
</g>
<!-- Node184542&#45;&gt;Node184542 -->
<g id="edge6" class="edge">
<title>Node184542&#45;&gt;Node184542</title>
<path fill="none" stroke="#191970" d="M385.2475,-280.1539C386.3867,-285.4368 395.4708,-289.5 412.5,-289.5 438.4492,-289.5 445.9502,-280.0653 435.0028,-271.2571"/>
<polygon fill="#191970" stroke="#191970" points="388.3752,-281.727 389.9972,-271.2571 382.2001,-278.4303 388.3752,-281.727"/>
</g>
<!-- Node184596&#45;&gt;Node184467 -->
<g id="edge8" class="edge">
<title>Node184596&#45;&gt;Node184467</title>
<path fill="none" stroke="#191970" d="M483.8595,-322.6553C531.8909,-326.1252 593.5656,-330.5808 633.7883,-333.4866"/>
<polygon fill="#191970" stroke="#191970" points="484.0561,-319.1604 473.8299,-321.9307 483.5517,-326.1422 484.0561,-319.1604"/>
</g>
<!-- Node184800&#45;&gt;Node184465 -->
<g id="edge11" class="edge">
<title>Node184800&#45;&gt;Node184465</title>
<path fill="none" stroke="#191970" d="M231.6609,-222.8379C250.8844,-251.5395 292.0162,-306.8513 341,-336.5 347.373,-340.3574 354.5284,-343.4423 361.7845,-345.9066"/>
<polygon fill="#191970" stroke="#191970" points="234.4097,-220.6467 226.0019,-214.2 228.5543,-224.4828 234.4097,-220.6467"/>
</g>
<!-- Node184800&#45;&gt;Node184542 -->
<g id="edge18" class="edge">
<title>Node184800&#45;&gt;Node184542</title>
<path fill="none" stroke="#191970" d="M258.8972,-217.1999C282.556,-224.8036 313.4274,-234.5112 341,-242.5 352.103,-245.7169 364.2363,-249.0203 375.3032,-251.9517"/>
<polygon fill="#191970" stroke="#191970" points="259.8215,-213.8206 249.2299,-214.0812 257.6723,-220.4825 259.8215,-213.8206"/>
</g>
<!-- Node184800&#45;&gt;Node184596 -->
<g id="edge12" class="edge">
<title>Node184800&#45;&gt;Node184596</title>
<path fill="none" stroke="#191970" d="M236.6502,-221.0475C258.6873,-242.0436 299.6058,-277.9861 341,-298.5 348.7106,-302.3212 357.2827,-305.4436 365.7372,-307.9714"/>
<polygon fill="#191970" stroke="#191970" points="239.0379,-218.4875 229.4196,-214.0446 234.1679,-223.5158 239.0379,-218.4875"/>
</g>
<!-- Node184800&#45;&gt;Node184691 -->
<g id="edge15" class="edge">
<title>Node184800&#45;&gt;Node184691</title>
<path fill="none" stroke="#191970" d="M315.3238,-213.9086C323.9026,-214.7553 332.4912,-215.603 340.8169,-216.4248"/>
<polygon fill="#191970" stroke="#191970" points="315.5694,-210.4159 305.274,-212.9167 314.8818,-217.3821 315.5694,-210.4159"/>
</g>
<!-- Node184800&#45;&gt;Node184752 -->
<g id="edge13" class="edge">
<title>Node184800&#45;&gt;Node184752</title>
<path fill="none" stroke="#191970" d="M315.2669,-195.097C325.2807,-194.1087 335.3087,-193.1189 344.9172,-192.1705"/>
<polygon fill="#191970" stroke="#191970" points="314.8818,-191.6179 305.274,-196.0833 315.5694,-198.5841 314.8818,-191.6179"/>
</g>
<!-- Node184800&#45;&gt;Node184746 -->
<g id="edge14" class="edge">
<title>Node184800&#45;&gt;Node184746</title>
<path fill="none" stroke="#191970" d="M258.8591,-191.7825C289.95,-181.6073 333.6264,-167.3132 366.4679,-156.565"/>
<polygon fill="#191970" stroke="#191970" points="257.6519,-188.4948 249.2366,-194.9317 259.8292,-195.1476 257.6519,-188.4948"/>
</g>
<!-- Node184800&#45;&gt;Node184772 -->
<g id="edge16" class="edge">
<title>Node184800&#45;&gt;Node184772</title>
<path fill="none" stroke="#191970" d="M238.27,-188.1787C260.8878,-168.7622 301.2988,-136.5829 341,-117.5 350.8747,-112.7536 362.0745,-108.9542 372.6308,-105.9962"/>
<polygon fill="#191970" stroke="#191970" points="235.7499,-185.7323 230.5113,-194.9414 240.3494,-191.0091 235.7499,-185.7323"/>
</g>
<!-- Node184800&#45;&gt;Node184802 -->
<g id="edge17" class="edge">
<title>Node184800&#45;&gt;Node184802</title>
<path fill="none" stroke="#191970" d="M232.1521,-186.6089C251.7747,-159.1218 293.1155,-106.7293 341,-78.5 347.8599,-74.4559 355.5909,-71.2562 363.3686,-68.7291"/>
<polygon fill="#191970" stroke="#191970" points="229.2134,-184.7039 226.352,-194.905 234.9504,-188.7148 229.2134,-184.7039"/>
</g>
<!-- Node184800&#45;&gt;Node184803 -->
<g id="edge19" class="edge">
<title>Node184800&#45;&gt;Node184803</title>
<path fill="none" stroke="#191970" d="M229.1094,-185.5459C246.3233,-151.6549 286.818,-80.4845 341,-40.5 346.1846,-36.6739 352.004,-33.3966 358.0252,-30.5981"/>
<polygon fill="#191970" stroke="#191970" points="225.8319,-184.2772 224.5252,-194.7911 232.1033,-187.3868 225.8319,-184.2772"/>
</g>
</g>
</svg>
        <g id="navigator" transform="translate(0 0)" fill="#404254">
                <rect fill="#f2f5e9" fill-opacity="0.5" stroke="#606060" stroke-width=".5" x="0" y="0" width="60" height="60"/>
                <use id="zoomplus" xlink:href="#zoomPlus" x="17" y="9" onmousedown="handleZoom(evt,'in')"/>
                <use id="zoomminus" xlink:href="#zoomMin" x="42" y="9" onmousedown="handleZoom(evt,'out')"/>
                <use id="reset" xlink:href="#resetDef" x="30" y="36" onmousedown="handleReset()"/>
                <g id="arrowUp" xlink:href="#dirArrow" transform="translate(30 24)" onmousedown="handlePan(0,-1)">
                  <use xlink:href="#rim" fill="#404040">
                        <set attributeName="fill" to="#808080" begin="arrowUp.mouseover" end="arrowUp.mouseout"/>
                  </use>
                  <path fill="none" stroke="white" stroke-width="1.5" d="M0,-3.0v7 M-2.5,-0.5L0,-3.0L2.5,-0.5"/>
                </g>
                <g id="arrowRight" xlink:href="#dirArrow" transform="rotate(90) translate(36 -43)" onmousedown="handlePan(1,0)">
                  <use xlink:href="#rim" fill="#404040">
                        <set attributeName="fill" to="#808080" begin="arrowRight.mouseover" end="arrowRight.mouseout"/>
                  </use>
                  <path fill="none" stroke="white" stroke-width="1.5" d="M0,-3.0v7 M-2.5,-0.5L0,-3.0L2.5,-0.5"/>
                </g>
                <g id="arrowDown" xlink:href="#dirArrow" transform="rotate(180) translate(-30 -48)" onmousedown="handlePan(0,1)">
                  <use xlink:href="#rim" fill="#404040">
                        <set attributeName="fill" to="#808080" begin="arrowDown.mouseover" end="arrowDown.mouseout"/>
                  </use>
                  <path fill="none" stroke="white" stroke-width="1.5" d="M0,-3.0v7 M-2.5,-0.5L0,-3.0L2.5,-0.5"/>
                </g>
                <g id="arrowLeft" xlink:href="#dirArrow" transform="rotate(270) translate(-36 17)" onmousedown="handlePan(-1,0)">
                  <use xlink:href="#rim" fill="#404040">
                        <set attributeName="fill" to="#808080" begin="arrowLeft.mouseover" end="arrowLeft.mouseout"/>
                  </use>
                  <path fill="none" stroke="white" stroke-width="1.5" d="M0,-3.0v7 M-2.5,-0.5L0,-3.0L2.5,-0.5"/>
                </g>
        </g>
        <svg viewBox="0 0 15 15" width="100%" height="30px" preserveAspectRatio="xMaxYMin meet">
         <g id="arrow_out" transform="scale(0.3 0.3)">
          <a xlink:href="quickjs_8c_a6b42cd922447e1eb6bfc52761895a174_icgraph_org.svg" target="_base">
           <rect id="button" ry="5" rx="5" y="6" x="6" height="38" width="38"
                fill="#f2f5e9" fill-opacity="0.5" stroke="#606060" stroke-width="1.0"/>
           <path id="arrow"
             d="M 11.500037,31.436501 C 11.940474,20.09759 22.043105,11.32322 32.158766,21.979434 L 37.068811,17.246167 C 37.068811,17.246167 37.088388,32 37.088388,32 L 22.160133,31.978069 C 22.160133,31.978069 26.997745,27.140456 26.997745,27.140456 C 18.528582,18.264221 13.291696,25.230495 11.500037,31.436501 z"
             style="fill:#404040;"/>
          </a>
         </g>
        </svg>
</svg>
