<?xml version="1.0" encoding="UTF-8" standalone="no"?>
<!DOCTYPE svg PUBLIC "-//W3C//DTD SVG 1.1//EN"
 "http://www.w3.org/Graphics/SVG/1.1/DTD/svg11.dtd">
<!-- Generated by graphviz version 2.40.1 (20161225.0304)
 -->
<!-- Title: js_unsupported_keyword Pages: 1 -->
<svg width="593pt" height="161pt"
 viewBox="0.00 0.00 593.00 161.00" xmlns="http://www.w3.org/2000/svg" xmlns:xlink="http://www.w3.org/1999/xlink">
<g id="graph0" class="graph" transform="scale(1 1) rotate(0) translate(4 157)">
<title>js_unsupported_keyword</title>
<!-- Node319764 -->
<g id="node1" class="node">
<title>Node319764</title>
<polygon fill="#bfbfbf" stroke="#000000" points="0,-95.5 0,-114.5 125,-114.5 125,-95.5 0,-95.5"/>
<text text-anchor="middle" x="62.5" y="-102.5" font-family="Helvetica,sans-Serif" font-size="10.00" fill="#000000">js_unsupported_keyword</text>
</g>
<!-- Node319765 -->
<g id="node2" class="node">
<title>Node319765</title>
<g id="a_node2"><a xlink:href="quickjs_8c.html#a9d844c16dcc71701436848074337d32c" target="_top" xlink:title="js_parse_statement\l_or_decl">
<polygon fill="none" stroke="#000000" points="161,-90 161,-120 263,-120 263,-90 161,-90"/>
<text text-anchor="start" x="169" y="-108" font-family="Helvetica,sans-Serif" font-size="10.00" fill="#000000">js_parse_statement</text>
<text text-anchor="middle" x="212" y="-97" font-family="Helvetica,sans-Serif" font-size="10.00" fill="#000000">_or_decl</text>
</a>
</g>
</g>
<!-- Node319764&#45;&gt;Node319765 -->
<g id="edge1" class="edge">
<title>Node319764&#45;&gt;Node319765</title>
<path fill="none" stroke="#191970" d="M135.0992,-105C143.7106,-105 152.36,-105 160.5898,-105"/>
<polygon fill="#191970" stroke="#191970" points="135.0353,-101.5001 125.0352,-105 135.0352,-108.5001 135.0353,-101.5001"/>
</g>
<!-- Node319765&#45;&gt;Node319765 -->
<g id="edge8" class="edge">
<title>Node319765&#45;&gt;Node319765</title>
<path fill="none" stroke="#191970" d="M185.7022,-130.4579C188.9661,-135.179 197.7321,-138.5 212,-138.5 235.4141,-138.5 244.0114,-129.5566 237.7921,-120.159"/>
<polygon fill="#191970" stroke="#191970" points="189.2132,-130.3187 186.2079,-120.159 182.2216,-129.9753 189.2132,-130.3187"/>
</g>
<!-- Node319766 -->
<g id="node3" class="node">
<title>Node319766</title>
<g id="a_node3"><a xlink:href="quickjs_8c.html#a729d43e44d20f1ed655cd9f4843995d3" target="_top" xlink:title="js_parse_statement">
<polygon fill="none" stroke="#000000" points="312,-133.5 312,-152.5 414,-152.5 414,-133.5 312,-133.5"/>
<text text-anchor="middle" x="363" y="-140.5" font-family="Helvetica,sans-Serif" font-size="10.00" fill="#000000">js_parse_statement</text>
</a>
</g>
</g>
<!-- Node319765&#45;&gt;Node319766 -->
<g id="edge2" class="edge">
<title>Node319765&#45;&gt;Node319766</title>
<path fill="none" stroke="#191970" d="M273.0419,-113.7228C298.3209,-119.6911 325.8462,-127.2677 343.7032,-133.4542"/>
<polygon fill="#191970" stroke="#191970" points="273.6522,-110.2718 263.1217,-111.4381 272.0811,-117.0932 273.6522,-110.2718"/>
</g>
<!-- Node319768 -->
<g id="node5" class="node">
<title>Node319768</title>
<g id="a_node5"><a xlink:href="quickjs_8c.html#acc0cac53be5317d9cab6a79afcd7da48" target="_top" xlink:title="js_parse_block">
<polygon fill="none" stroke="#000000" points="322,-95.5 322,-114.5 404,-114.5 404,-95.5 322,-95.5"/>
<text text-anchor="middle" x="363" y="-102.5" font-family="Helvetica,sans-Serif" font-size="10.00" fill="#000000">js_parse_block</text>
</a>
</g>
</g>
<!-- Node319765&#45;&gt;Node319768 -->
<g id="edge6" class="edge">
<title>Node319765&#45;&gt;Node319768</title>
<path fill="none" stroke="#191970" d="M273.1828,-98.3591C289.5823,-98.1065 306.9174,-98.2926 321.938,-98.9174"/>
<polygon fill="#191970" stroke="#191970" points="273.045,-94.8611 263.1217,-98.573 273.1939,-101.8595 273.045,-94.8611"/>
</g>
<!-- Node319769 -->
<g id="node6" class="node">
<title>Node319769</title>
<g id="a_node6"><a xlink:href="quickjs_8c.html#ab59a3267a100decc9d2d81eb3297794a" target="_top" xlink:title="js_parse_source_element">
<polygon fill="none" stroke="#000000" points="299,-19.5 299,-38.5 427,-38.5 427,-19.5 299,-19.5"/>
<text text-anchor="middle" x="363" y="-26.5" font-family="Helvetica,sans-Serif" font-size="10.00" fill="#000000">js_parse_source_element</text>
</a>
</g>
</g>
<!-- Node319765&#45;&gt;Node319769 -->
<g id="edge9" class="edge">
<title>Node319765&#45;&gt;Node319769</title>
<path fill="none" stroke="#191970" d="M243.1991,-84.4885C259.4475,-74.2905 279.8708,-62.2109 299,-53 310.2263,-47.5944 323.0102,-42.5856 334.1853,-38.5575"/>
<polygon fill="#191970" stroke="#191970" points="241.199,-81.6126 234.6365,-89.9304 244.9537,-87.5205 241.199,-81.6126"/>
</g>
<!-- Node319766&#45;&gt;Node319765 -->
<g id="edge5" class="edge">
<title>Node319766&#45;&gt;Node319765</title>
<path fill="none" stroke="#191970" d="M302.0265,-134.2934C283.8976,-130.0146 264.6075,-124.907 248.5529,-120.077"/>
<polygon fill="#191970" stroke="#191970" points="301.4203,-137.7453 311.9507,-136.5782 302.9909,-130.9238 301.4203,-137.7453"/>
</g>
<!-- Node319767 -->
<g id="node4" class="node">
<title>Node319767</title>
<g id="a_node4"><a xlink:href="quickjs_8c.html#ac188b916dd086803591a67de7e7a85f6" target="_top" xlink:title="js_parse_for_in_of">
<polygon fill="none" stroke="#000000" points="476,-104.5 476,-123.5 572,-123.5 572,-104.5 476,-104.5"/>
<text text-anchor="middle" x="524" y="-111.5" font-family="Helvetica,sans-Serif" font-size="10.00" fill="#000000">js_parse_for_in_of</text>
</a>
</g>
</g>
<!-- Node319766&#45;&gt;Node319767 -->
<g id="edge3" class="edge">
<title>Node319766&#45;&gt;Node319767</title>
<path fill="none" stroke="#191970" d="M424.2689,-131.964C441.3407,-128.8889 459.6382,-125.5931 475.8395,-122.6749"/>
<polygon fill="#191970" stroke="#191970" points="423.6052,-128.5271 414.3841,-133.7445 424.8462,-135.4163 423.6052,-128.5271"/>
</g>
<!-- Node319767&#45;&gt;Node319765 -->
<g id="edge4" class="edge">
<title>Node319767&#45;&gt;Node319765</title>
<path fill="none" stroke="#191970" d="M488.507,-101.1556C470.3706,-95.2624 447.7936,-88.9411 427,-86 370.6718,-78.0328 355.5604,-79.8958 299,-86 287.3181,-87.2608 274.9046,-89.4475 263.2235,-91.8993"/>
<polygon fill="#191970" stroke="#191970" points="487.4926,-104.5069 498.0864,-104.3614 489.7141,-97.8687 487.4926,-104.5069"/>
</g>
<!-- Node319768&#45;&gt;Node319765 -->
<g id="edge7" class="edge">
<title>Node319768&#45;&gt;Node319765</title>
<path fill="none" stroke="#191970" d="M311.8668,-111.4273C296.1445,-111.8577 278.8432,-111.8576 263.1217,-111.427"/>
<polygon fill="#191970" stroke="#191970" points="312.0637,-114.9227 321.938,-111.0826 311.8241,-107.9268 312.0637,-114.9227"/>
</g>
<!-- Node319770 -->
<g id="node7" class="node">
<title>Node319770</title>
<g id="a_node7"><a xlink:href="quickjs_8c.html#acc9eb677cab8dfcf45f59381f8a19601" target="_top" xlink:title="js_parse_function_decl2">
<polygon fill="none" stroke="#ff0000" points="463,-38.5 463,-57.5 585,-57.5 585,-38.5 463,-38.5"/>
<text text-anchor="middle" x="524" y="-45.5" font-family="Helvetica,sans-Serif" font-size="10.00" fill="#000000">js_parse_function_decl2</text>
</a>
</g>
</g>
<!-- Node319769&#45;&gt;Node319770 -->
<g id="edge10" class="edge">
<title>Node319769&#45;&gt;Node319770</title>
<path fill="none" stroke="#191970" d="M437.1006,-37.7448C445.683,-38.7576 454.363,-39.782 462.7471,-40.7714"/>
<polygon fill="#191970" stroke="#191970" points="437.4354,-34.2601 427.0941,-36.5639 436.6149,-41.2119 437.4354,-34.2601"/>
</g>
<!-- Node319792 -->
<g id="node8" class="node">
<title>Node319792</title>
<g id="a_node8"><a xlink:href="quickjs_8c.html#aec05caae64451720670d1a56040110b3" target="_top" xlink:title="js_parse_program">
<polygon fill="none" stroke="#ff0000" points="477,-.5 477,-19.5 571,-19.5 571,-.5 477,-.5"/>
<text text-anchor="middle" x="524" y="-7.5" font-family="Helvetica,sans-Serif" font-size="10.00" fill="#000000">js_parse_program</text>
</a>
</g>
</g>
<!-- Node319769&#45;&gt;Node319792 -->
<g id="edge11" class="edge">
<title>Node319769&#45;&gt;Node319792</title>
<path fill="none" stroke="#191970" d="M437.3429,-20.2266C450.8375,-18.6341 464.5642,-17.0142 476.9943,-15.5473"/>
<polygon fill="#191970" stroke="#191970" points="436.6149,-16.7881 427.0941,-21.4361 437.4354,-23.7399 436.6149,-16.7881"/>
</g>
</g>
</svg>
