<?xml version="1.0" encoding="UTF-8" standalone="no"?>
<!DOCTYPE svg PUBLIC "-//W3C//DTD SVG 1.1//EN"
 "http://www.w3.org/Graphics/SVG/1.1/DTD/svg11.dtd">
<!-- Generated by graphviz version 2.40.1 (20161225.0304)
 -->
<!-- Title: get_shape_hash Pages: 1 -->
<!--zoomable 584 -->
<svg id="main" version="1.1" xmlns="http://www.w3.org/2000/svg" xmlns:xlink="http://www.w3.org/1999/xlink" xml:space="preserve" onload="init(evt)">
<style type="text/css"><![CDATA[
.edge:hover path { stroke: red; }
.edge:hover polygon { stroke: red; fill: red; }
]]></style>
<script type="text/javascript"><![CDATA[
var edges = document.getElementsByTagName('g');
if (edges && edges.length) {
  for (var i=0;i<edges.length;i++) {
    if (edges[i].id.substr(0,4)=='edge') {
      edges[i].setAttribute('class','edge');
    }
  }
}
]]></script>
        <defs>
                <circle id="rim" cx="0" cy="0" r="7"/>
                <circle id="rim2" cx="0" cy="0" r="3.5"/>
                <g id="zoomPlus">
                        <use xlink:href="#rim" fill="#404040">
                                <set attributeName="fill" to="#808080" begin="zoomplus.mouseover" end="zoomplus.mouseout"/>
                        </use>
                        <path d="M-4,0h8M0,-4v8" fill="none" stroke="white" stroke-width="1.5" pointer-events="none"/>
                </g>
                <g id="zoomMin">
                        <use xlink:href="#rim" fill="#404040">
                                <set attributeName="fill" to="#808080" begin="zoomminus.mouseover" end="zoomminus.mouseout"/>
                        </use>
                        <path d="M-4,0h8" fill="none" stroke="white" stroke-width="1.5" pointer-events="none"/>
                </g>
                <g id="dirArrow">
                        <path fill="none" stroke="white" stroke-width="1.5" d="M0,-3.0v7 M-2.5,-0.5L0,-3.0L2.5,-0.5"/>
                </g>
               <g id="resetDef">
                       <use xlink:href="#rim2" fill="#404040">
                               <set attributeName="fill" to="#808080" begin="reset.mouseover" end="reset.mouseout"/>
                       </use>
               </g>
        </defs>

<script type="text/javascript">
var viewWidth = 1360;
var viewHeight = 584;
var sectionId = 'dynsection-364';
</script>
<script xlink:href="svgpan.js"/>
<svg id="graph" class="graph">
<g id="viewport">
<title>get_shape_hash</title>
<!-- Node120562 -->
<g id="node1" class="node">
<title>Node120562</title>
<polygon fill="#bfbfbf" stroke="#000000" points="0,-89.0644 0,-108.0644 88,-108.0644 88,-89.0644 0,-89.0644"/>
<text text-anchor="middle" x="44" y="-96.0644" font-family="Helvetica,sans-Serif" font-size="10.00" fill="#000000">get_shape_hash</text>
</g>
<!-- Node120563 -->
<g id="node2" class="node">
<title>Node120563</title>
<g id="a_node2"><a xlink:href="quickjs_8c.html#ac0c5dbb01d6082796c44b1c7f7c170f1" target="_top" xlink:title="find_hashed_shape_prop">
<polygon fill="none" stroke="#000000" points="124,-155.0644 124,-174.0644 249,-174.0644 249,-155.0644 124,-155.0644"/>
<text text-anchor="middle" x="186.5" y="-162.0644" font-family="Helvetica,sans-Serif" font-size="10.00" fill="#000000">find_hashed_shape_prop</text>
</a>
</g>
</g>
<!-- Node120562&#45;&gt;Node120563 -->
<g id="edge1" class="edge">
<title>Node120562&#45;&gt;Node120563</title>
<path fill="none" stroke="#191970" d="M73.8887,-112.4076C101.4271,-125.1622 141.5757,-143.7573 165.7543,-154.9558"/>
<polygon fill="#191970" stroke="#191970" points="75.2657,-109.1882 64.7207,-108.1614 72.3238,-115.54 75.2657,-109.1882"/>
</g>
<!-- Node121195 -->
<g id="node18" class="node">
<title>Node121195</title>
<g id="a_node18"><a xlink:href="quickjs_8c.html#aad24bdf2bcbb0ce55462fe6074dac8a5" target="_top" xlink:title="find_hashed_shape_proto">
<polygon fill="none" stroke="#000000" points="285,-51.0644 285,-70.0644 413,-70.0644 413,-51.0644 285,-51.0644"/>
<text text-anchor="middle" x="349" y="-58.0644" font-family="Helvetica,sans-Serif" font-size="10.00" fill="#000000">find_hashed_shape_proto</text>
</a>
</g>
</g>
<!-- Node120562&#45;&gt;Node121195 -->
<g id="edge29" class="edge">
<title>Node120562&#45;&gt;Node121195</title>
<path fill="none" stroke="#191970" d="M98.0936,-91.8249C150.3082,-85.3194 229.3871,-75.467 284.7736,-68.5664"/>
<polygon fill="#191970" stroke="#191970" points="97.5144,-88.3699 88.0239,-93.0794 98.3799,-95.3162 97.5144,-88.3699"/>
</g>
<!-- Node121196 -->
<g id="node19" class="node">
<title>Node121196</title>
<g id="a_node19"><a xlink:href="quickjs_8c.html#a82dbe63adeac7849406fd48d96f39f7b" target="_top" xlink:title="js_shape_hash_link">
<polygon fill="none" stroke="#000000" points="298,-89.0644 298,-108.0644 400,-108.0644 400,-89.0644 298,-89.0644"/>
<text text-anchor="middle" x="349" y="-96.0644" font-family="Helvetica,sans-Serif" font-size="10.00" fill="#000000">js_shape_hash_link</text>
</a>
</g>
</g>
<!-- Node120562&#45;&gt;Node121196 -->
<g id="edge31" class="edge">
<title>Node120562&#45;&gt;Node121196</title>
<path fill="none" stroke="#191970" d="M98.1917,-98.5644C154.6805,-98.5644 242.5344,-98.5644 297.8606,-98.5644"/>
<polygon fill="#191970" stroke="#191970" points="98.0239,-95.0645 88.0239,-98.5644 98.0239,-102.0645 98.0239,-95.0645"/>
</g>
<!-- Node121200 -->
<g id="node23" class="node">
<title>Node121200</title>
<g id="a_node23"><a xlink:href="quickjs_8c.html#ae5e76f4be6214208cc91f10a192fc810" target="_top" xlink:title="js_shape_hash_unlink">
<polygon fill="none" stroke="#000000" points="130,-212.0644 130,-231.0644 243,-231.0644 243,-212.0644 130,-212.0644"/>
<text text-anchor="middle" x="186.5" y="-219.0644" font-family="Helvetica,sans-Serif" font-size="10.00" fill="#000000">js_shape_hash_unlink</text>
</a>
</g>
</g>
<!-- Node120562&#45;&gt;Node121200 -->
<g id="edge40" class="edge">
<title>Node120562&#45;&gt;Node121200</title>
<path fill="none" stroke="#191970" d="M58.243,-116.3168C73.3688,-134.5021 98.5621,-162.9522 124,-183.5644 137.7143,-194.677 154.9617,-204.925 167.8622,-211.9711"/>
<polygon fill="#191970" stroke="#191970" points="60.7144,-113.8105 51.6694,-108.2933 55.2996,-118.2469 60.7144,-113.8105"/>
</g>
<!-- Node121311 -->
<g id="node27" class="node">
<title>Node121311</title>
<g id="a_node27"><a xlink:href="quickjs_8c.html#ac05a95a74726df4e854747a64d7d0407" target="_top" xlink:title="resize_shape_hash">
<polygon fill="none" stroke="#000000" points="136,-13.0644 136,-32.0644 237,-32.0644 237,-13.0644 136,-13.0644"/>
<text text-anchor="middle" x="186.5" y="-20.0644" font-family="Helvetica,sans-Serif" font-size="10.00" fill="#000000">resize_shape_hash</text>
</a>
</g>
</g>
<!-- Node120562&#45;&gt;Node121311 -->
<g id="edge49" class="edge">
<title>Node120562&#45;&gt;Node121311</title>
<path fill="none" stroke="#191970" d="M65.2388,-82.9988C80.9504,-71.9279 103.1515,-57.1943 124,-46.5644 134.7691,-41.0736 147.1033,-36.0832 157.9535,-32.0927"/>
<polygon fill="#191970" stroke="#191970" points="62.8956,-80.3715 56.7972,-89.0352 66.9673,-86.0656 62.8956,-80.3715"/>
</g>
<!-- Node120564 -->
<g id="node3" class="node">
<title>Node120564</title>
<g id="a_node3"><a xlink:href="quickjs_8c.html#a74547db03bf739a52c83a326b32db997" target="_top" xlink:title="add_property">
<polygon fill="none" stroke="#000000" points="616.5,-241.0644 616.5,-260.0644 689.5,-260.0644 689.5,-241.0644 616.5,-241.0644"/>
<text text-anchor="middle" x="653" y="-248.0644" font-family="Helvetica,sans-Serif" font-size="10.00" fill="#000000">add_property</text>
</a>
</g>
</g>
<!-- Node120563&#45;&gt;Node120564 -->
<g id="edge2" class="edge">
<title>Node120563&#45;&gt;Node120564</title>
<path fill="none" stroke="#191970" d="M249.279,-175.9041C322.2864,-189.1232 446.4167,-211.697 553,-231.5644 574.0207,-235.4827 597.5106,-239.9417 616.4395,-243.5548"/>
<polygon fill="#191970" stroke="#191970" points="249.7873,-172.4393 239.3238,-174.1022 248.5405,-179.3274 249.7873,-172.4393"/>
</g>
<!-- Node120565 -->
<g id="node4" class="node">
<title>Node120565</title>
<g id="a_node4"><a xlink:href="quickjs_8c.html#ac93c982cb636a5430b191d104083af3e" target="_top" xlink:title="convert_fast_array\l_to_array">
<polygon fill="none" stroke="#ff0000" points="770.5,-545.5644 770.5,-575.5644 868.5,-575.5644 868.5,-545.5644 770.5,-545.5644"/>
<text text-anchor="start" x="778.5" y="-563.5644" font-family="Helvetica,sans-Serif" font-size="10.00" fill="#000000">convert_fast_array</text>
<text text-anchor="middle" x="819.5" y="-552.5644" font-family="Helvetica,sans-Serif" font-size="10.00" fill="#000000">_to_array</text>
</a>
</g>
</g>
<!-- Node120564&#45;&gt;Node120565 -->
<g id="edge3" class="edge">
<title>Node120564&#45;&gt;Node120565</title>
<path fill="none" stroke="#191970" d="M699.0866,-257.2C705.9004,-260.0301 712.2235,-264.0032 717,-269.5644 793.2964,-358.3949 682.8784,-436.7829 753,-530.5644 757.5507,-536.6505 763.6212,-541.5318 770.2491,-545.4385"/>
<polygon fill="#191970" stroke="#191970" points="700.1841,-253.8765 689.59,-254.0073 697.9533,-260.5116 700.1841,-253.8765"/>
</g>
<!-- Node120794 -->
<g id="node5" class="node">
<title>Node120794</title>
<g id="a_node5"><a xlink:href="quickjs_8c.html#ad5565bb5cfd5321f181573257f3b0c91" target="_top" xlink:title="JS_CreateProperty">
<polygon fill="none" stroke="#ff0000" points="937.5,-469.0644 937.5,-488.0644 1037.5,-488.0644 1037.5,-469.0644 937.5,-469.0644"/>
<text text-anchor="middle" x="987.5" y="-476.0644" font-family="Helvetica,sans-Serif" font-size="10.00" fill="#000000">JS_CreateProperty</text>
</a>
</g>
</g>
<!-- Node120564&#45;&gt;Node120794 -->
<g id="edge16" class="edge">
<title>Node120564&#45;&gt;Node120794</title>
<path fill="none" stroke="#191970" d="M699.5122,-257.7117C706.0976,-260.4937 712.2364,-264.3179 717,-269.5644 773.308,-331.5797 691.1593,-398.0646 753,-454.5644 804.5136,-501.629 891.4282,-496.6479 943.7384,-488.0709"/>
<polygon fill="#191970" stroke="#191970" points="700.2471,-254.2639 689.6525,-254.3371 697.9803,-260.8868 700.2471,-254.2639"/>
</g>
<!-- Node120568 -->
<g id="node6" class="node">
<title>Node120568</title>
<g id="a_node6"><a xlink:href="quickjs_8c.html#ad7f03358a8088ca920ab308225c6b2e6" target="_top" xlink:title="JS_SetPropertyInternal">
<polygon fill="none" stroke="#ff0000" points="1102,-431.0644 1102,-450.0644 1220,-450.0644 1220,-431.0644 1102,-431.0644"/>
<text text-anchor="middle" x="1161" y="-438.0644" font-family="Helvetica,sans-Serif" font-size="10.00" fill="#000000">JS_SetPropertyInternal</text>
</a>
</g>
</g>
<!-- Node120564&#45;&gt;Node120568 -->
<g id="edge28" class="edge">
<title>Node120564&#45;&gt;Node120568</title>
<path fill="none" stroke="#191970" d="M699.4995,-258.0177C706.0319,-260.7646 712.1575,-264.4978 717,-269.5644 762.8788,-317.5667 702.0235,-372.0146 753,-414.5644 804.4246,-457.4881 1001.8142,-451.2502 1101.9721,-445.0107"/>
<polygon fill="#191970" stroke="#191970" points="700.3345,-254.6036 689.7398,-254.6582 698.0562,-261.2225 700.3345,-254.6036"/>
</g>
<!-- Node120587 -->
<g id="node7" class="node">
<title>Node120587</title>
<g id="a_node7"><a xlink:href="quickjs_8c.html#ac2894ff4edcdb4e6841bcce9c76081e3" target="_top" xlink:title="JS_CallInternal">
<polygon fill="none" stroke="#ff0000" points="1269,-355.0644 1269,-374.0644 1352,-374.0644 1352,-355.0644 1269,-355.0644"/>
<text text-anchor="middle" x="1310.5" y="-362.0644" font-family="Helvetica,sans-Serif" font-size="10.00" fill="#000000">JS_CallInternal</text>
</a>
</g>
</g>
<!-- Node120564&#45;&gt;Node120587 -->
<g id="edge15" class="edge">
<title>Node120564&#45;&gt;Node120587</title>
<path fill="none" stroke="#191970" d="M699.6431,-257.5945C706.2122,-260.3911 712.3117,-264.2505 717,-269.5644 781.9687,-343.2022 680.0277,-421.8491 753,-487.5644 832.3977,-559.0661 1141.7578,-515.1644 1233,-459.5644 1268.6255,-437.8554 1295.1285,-393.701 1305.5949,-374.1962"/>
<polygon fill="#191970" stroke="#191970" points="700.3868,-254.1493 689.7922,-254.212 698.1135,-260.7699 700.3868,-254.1493"/>
</g>
<!-- Node121171 -->
<g id="node8" class="node">
<title>Node121171</title>
<g id="a_node8"><a xlink:href="quickjs_8c.html#a6a21784a40b8684f2e779bd460dd13b2" target="_top" xlink:title="JS_AddBrand">
<polygon fill="none" stroke="#000000" points="949,-317.0644 949,-336.0644 1026,-336.0644 1026,-317.0644 949,-317.0644"/>
<text text-anchor="middle" x="987.5" y="-324.0644" font-family="Helvetica,sans-Serif" font-size="10.00" fill="#000000">JS_AddBrand</text>
</a>
</g>
</g>
<!-- Node120564&#45;&gt;Node121171 -->
<g id="edge8" class="edge">
<title>Node120564&#45;&gt;Node121171</title>
<path fill="none" stroke="#191970" d="M699.3275,-261.5662C705.4534,-263.8062 711.5065,-266.4535 717,-269.5644 735.8869,-280.26 733.1988,-293.6749 753,-302.5644 817.0291,-331.3094 900.5117,-332.3116 948.6472,-329.8415"/>
<polygon fill="#191970" stroke="#191970" points="700.3046,-258.2028 689.7112,-258.3732 698.0987,-264.8461 700.3046,-258.2028"/>
</g>
<!-- Node120891 -->
<g id="node9" class="node">
<title>Node120891</title>
<g id="a_node9"><a xlink:href="quickjs_8c.html#a04d312757919ff6b4d79cd0c2c3e5bb2" target="_top" xlink:title="js_build_arguments">
<polygon fill="none" stroke="#000000" points="1110.5,-279.0644 1110.5,-298.0644 1211.5,-298.0644 1211.5,-279.0644 1110.5,-279.0644"/>
<text text-anchor="middle" x="1161" y="-286.0644" font-family="Helvetica,sans-Serif" font-size="10.00" fill="#000000">js_build_arguments</text>
</a>
</g>
</g>
<!-- Node120564&#45;&gt;Node120891 -->
<g id="edge10" class="edge">
<title>Node120564&#45;&gt;Node120891</title>
<path fill="none" stroke="#191970" d="M699.7361,-254.0604C795.0967,-261.1937 1011.4032,-277.3741 1110.1411,-284.76"/>
<polygon fill="#191970" stroke="#191970" points="699.7674,-250.553 689.5341,-253.2973 699.2451,-257.5335 699.7674,-250.553"/>
</g>
<!-- Node120867 -->
<g id="node10" class="node">
<title>Node120867</title>
<g id="a_node10"><a xlink:href="quickjs_8c.html#a1c459034f2971c4abc3a8d6d4693ef5f" target="_top" xlink:title="js_build_mapped_arguments">
<polygon fill="none" stroke="#000000" points="1091,-165.0644 1091,-184.0644 1231,-184.0644 1231,-165.0644 1091,-165.0644"/>
<text text-anchor="middle" x="1161" y="-172.0644" font-family="Helvetica,sans-Serif" font-size="10.00" fill="#000000">js_build_mapped_arguments</text>
</a>
</g>
</g>
<!-- Node120564&#45;&gt;Node120867 -->
<g id="edge12" class="edge">
<title>Node120564&#45;&gt;Node120867</title>
<path fill="none" stroke="#191970" d="M676.3457,-235.5514C700.6293,-220.2497 737.2581,-198.1303 753,-193.5644 867.754,-160.2802 1008.2035,-162.5801 1090.8078,-168.0408"/>
<polygon fill="#191970" stroke="#191970" points="674.2797,-232.7173 667.7126,-241.0313 678.0311,-238.6272 674.2797,-232.7173"/>
</g>
<!-- Node120897 -->
<g id="node11" class="node">
<title>Node120897</title>
<g id="a_node11"><a xlink:href="quickjs_8c.html#ad12b6863ca31850fc39d208bb865420e" target="_top" xlink:title="js_build_module_ns">
<polygon fill="none" stroke="#ff0000" points="936.5,-222.0644 936.5,-241.0644 1038.5,-241.0644 1038.5,-222.0644 936.5,-222.0644"/>
<text text-anchor="middle" x="987.5" y="-229.0644" font-family="Helvetica,sans-Serif" font-size="10.00" fill="#000000">js_build_module_ns</text>
</a>
</g>
</g>
<!-- Node120564&#45;&gt;Node120897 -->
<g id="edge14" class="edge">
<title>Node120564&#45;&gt;Node120897</title>
<path fill="none" stroke="#191970" d="M700.0785,-247.8903C762.3974,-244.3505 871.882,-238.1316 936.2346,-234.4763"/>
<polygon fill="#191970" stroke="#191970" points="699.5396,-244.4151 689.7542,-248.4767 699.9366,-251.4039 699.5396,-244.4151"/>
</g>
<!-- Node121172 -->
<g id="node12" class="node">
<title>Node121172</title>
<g id="a_node12"><a xlink:href="quickjs_8c.html#a7128998511654840928b9df9d4c55b3c" target="_top" xlink:title="JS_DefineAutoInitProperty">
<polygon fill="none" stroke="#ff0000" points="753,-203.0644 753,-222.0644 886,-222.0644 886,-203.0644 753,-203.0644"/>
<text text-anchor="middle" x="819.5" y="-210.0644" font-family="Helvetica,sans-Serif" font-size="10.00" fill="#000000">JS_DefineAutoInitProperty</text>
</a>
</g>
</g>
<!-- Node120564&#45;&gt;Node121172 -->
<g id="edge17" class="edge">
<title>Node120564&#45;&gt;Node121172</title>
<path fill="none" stroke="#191970" d="M699.3646,-239.9827C723.9497,-234.3717 753.9142,-227.5329 777.767,-222.089"/>
<polygon fill="#191970" stroke="#191970" points="698.5096,-236.5877 689.5391,-242.2251 700.0672,-243.4122 698.5096,-236.5877"/>
</g>
<!-- Node121173 -->
<g id="node13" class="node">
<title>Node121173</title>
<g id="a_node13"><a xlink:href="quickjs_8c.html#a4e5684e94183b342edf8cf73f1c23d65" target="_top" xlink:title="JS_DefineGlobalVar">
<polygon fill="none" stroke="#000000" points="935,-393.0644 935,-412.0644 1040,-412.0644 1040,-393.0644 935,-393.0644"/>
<text text-anchor="middle" x="987.5" y="-400.0644" font-family="Helvetica,sans-Serif" font-size="10.00" fill="#000000">JS_DefineGlobalVar</text>
</a>
</g>
</g>
<!-- Node120564&#45;&gt;Node121173 -->
<g id="edge19" class="edge">
<title>Node120564&#45;&gt;Node121173</title>
<path fill="none" stroke="#191970" d="M699.4453,-258.3777C705.9314,-261.0809 712.0571,-264.7062 717,-269.5644 754.8941,-306.8088 711.4485,-350.4497 753,-383.5644 807.621,-427.095 893.9015,-420.9489 945.1755,-412.0685"/>
<polygon fill="#191970" stroke="#191970" points="700.3749,-254.9959 689.7802,-255.0406 698.0903,-261.6126 700.3749,-254.9959"/>
</g>
<!-- Node121174 -->
<g id="node14" class="node">
<title>Node121174</title>
<g id="a_node14"><a xlink:href="quickjs_8c.html#a3865abec9986277dbff58ea314f3d82e" target="_top" xlink:title="JS_DefinePrivateField">
<polygon fill="none" stroke="#000000" points="762.5,-355.0644 762.5,-374.0644 876.5,-374.0644 876.5,-355.0644 762.5,-355.0644"/>
<text text-anchor="middle" x="819.5" y="-362.0644" font-family="Helvetica,sans-Serif" font-size="10.00" fill="#000000">JS_DefinePrivateField</text>
</a>
</g>
</g>
<!-- Node120564&#45;&gt;Node121174 -->
<g id="edge21" class="edge">
<title>Node120564&#45;&gt;Node121174</title>
<path fill="none" stroke="#191970" d="M699.2185,-259.294C705.6329,-261.8774 711.7967,-265.2255 717,-269.5644 744.1725,-292.2229 726.4932,-317.1306 753,-340.5644 760.0807,-346.8242 768.9181,-351.4896 777.8149,-354.9534"/>
<polygon fill="#191970" stroke="#191970" points="700.3187,-255.9712 689.724,-256.0296 698.0427,-262.5909 700.3187,-255.9712"/>
</g>
<!-- Node121175 -->
<g id="node15" class="node">
<title>Node121175</title>
<g id="a_node15"><a xlink:href="quickjs_8c.html#a030c2e98b1775a7e3bdd13be1400b1fe" target="_top" xlink:title="JS_NewObjectFromShape">
<polygon fill="none" stroke="#ff0000" points="753,-127.0644 753,-146.0644 886,-146.0644 886,-127.0644 753,-127.0644"/>
<text text-anchor="middle" x="819.5" y="-134.0644" font-family="Helvetica,sans-Serif" font-size="10.00" fill="#000000">JS_NewObjectFromShape</text>
</a>
</g>
</g>
<!-- Node120564&#45;&gt;Node121175 -->
<g id="edge23" class="edge">
<title>Node120564&#45;&gt;Node121175</title>
<path fill="none" stroke="#191970" d="M669.9141,-233.8696C693.419,-210.9334 735.0867,-171.292 753,-160.5644 762.8983,-154.6366 774.4936,-149.8262 785.2049,-146.1118"/>
<polygon fill="#191970" stroke="#191970" points="667.3908,-231.442 662.6997,-240.9417 672.291,-236.4408 667.3908,-231.442"/>
</g>
<!-- Node120565&#45;&gt;Node120794 -->
<g id="edge4" class="edge">
<title>Node120565&#45;&gt;Node120794</title>
<path fill="none" stroke="#191970" d="M859.5706,-541.0061C893.7634,-524.3168 941.47,-501.0314 967.9046,-488.1288"/>
<polygon fill="#191970" stroke="#191970" points="857.7652,-537.9926 850.3138,-545.5243 860.8357,-544.2833 857.7652,-537.9926"/>
</g>
<!-- Node120794&#45;&gt;Node120568 -->
<g id="edge5" class="edge">
<title>Node120794&#45;&gt;Node120568</title>
<path fill="none" stroke="#191970" d="M1041.1598,-466.8118C1065.6927,-461.4386 1094.3787,-455.1558 1117.5335,-450.0844"/>
<polygon fill="#191970" stroke="#191970" points="1040.301,-463.4169 1031.2814,-468.9754 1041.7987,-470.2548 1040.301,-463.4169"/>
</g>
<!-- Node120568&#45;&gt;Node120587 -->
<g id="edge6" class="edge">
<title>Node120568&#45;&gt;Node120587</title>
<path fill="none" stroke="#191970" d="M1205.3574,-427.8672C1214.6762,-424.6253 1224.3094,-420.8308 1233,-416.5644 1257.726,-404.4257 1283.7887,-385.4778 1298.5091,-374.1171"/>
<polygon fill="#191970" stroke="#191970" points="1204.1968,-424.5647 1195.8128,-431.0423 1206.4063,-431.2068 1204.1968,-424.5647"/>
</g>
<!-- Node120587&#45;&gt;Node120587 -->
<g id="edge7" class="edge">
<title>Node120587&#45;&gt;Node120587</title>
<path fill="none" stroke="#191970" d="M1282.8742,-383.2183C1284.0289,-388.5012 1293.2375,-392.5644 1310.5,-392.5644 1336.8047,-392.5644 1344.4084,-383.1297 1333.3111,-374.3214"/>
<polygon fill="#191970" stroke="#191970" points="1286.0076,-384.782 1287.6889,-374.3214 1279.8512,-381.4504 1286.0076,-384.782"/>
</g>
<!-- Node121171&#45;&gt;Node120587 -->
<g id="edge9" class="edge">
<title>Node121171&#45;&gt;Node120587</title>
<path fill="none" stroke="#191970" d="M1036.4426,-330.1711C1086.0912,-334.1061 1165.0854,-341.1264 1233,-350.5644 1244.6465,-352.1829 1257.2142,-354.2939 1268.7699,-356.3839"/>
<polygon fill="#191970" stroke="#191970" points="1036.5506,-326.6689 1026.3081,-329.3784 1036.0047,-333.6476 1036.5506,-326.6689"/>
</g>
<!-- Node120891&#45;&gt;Node120587 -->
<g id="edge11" class="edge">
<title>Node120891&#45;&gt;Node120587</title>
<path fill="none" stroke="#191970" d="M1205.3574,-301.2615C1214.6762,-304.5035 1224.3094,-308.2979 1233,-312.5644 1257.726,-324.703 1283.7887,-343.651 1298.5091,-355.0117"/>
<polygon fill="#191970" stroke="#191970" points="1206.4063,-297.922 1195.8128,-298.0865 1204.1968,-304.5641 1206.4063,-297.922"/>
</g>
<!-- Node120867&#45;&gt;Node120587 -->
<g id="edge13" class="edge">
<title>Node120867&#45;&gt;Node120587</title>
<path fill="none" stroke="#191970" d="M1174.8235,-192.1328C1205.5515,-231.185 1278.7046,-324.1556 1302.7168,-354.6727"/>
<polygon fill="#191970" stroke="#191970" points="1177.5536,-189.9423 1168.6193,-184.2477 1172.0524,-194.2709 1177.5536,-189.9423"/>
</g>
<!-- Node121172&#45;&gt;Node120897 -->
<g id="edge18" class="edge">
<title>Node121172&#45;&gt;Node120897</title>
<path fill="none" stroke="#191970" d="M896.6219,-221.2865C910.1052,-222.8114 923.8264,-224.3632 936.3834,-225.7833"/>
<polygon fill="#191970" stroke="#191970" points="896.7108,-217.7743 886.3808,-220.1283 895.9241,-224.73 896.7108,-217.7743"/>
</g>
<!-- Node121173&#45;&gt;Node120587 -->
<g id="edge20" class="edge">
<title>Node121173&#45;&gt;Node120587</title>
<path fill="none" stroke="#191970" d="M1050.5934,-397.8157C1100.2796,-393.734 1171.2235,-387.1494 1233,-378.5644 1244.6465,-376.9459 1257.2142,-374.8349 1268.7699,-372.7449"/>
<polygon fill="#191970" stroke="#191970" points="1050.0089,-394.3515 1040.3246,-398.6485 1050.5748,-401.3286 1050.0089,-394.3515"/>
</g>
<!-- Node121174&#45;&gt;Node120587 -->
<g id="edge22" class="edge">
<title>Node121174&#45;&gt;Node120587</title>
<path fill="none" stroke="#191970" d="M887.0874,-364.5644C990.2712,-364.5644 1184.0259,-364.5644 1268.8932,-364.5644"/>
<polygon fill="#191970" stroke="#191970" points="886.7849,-361.0645 876.7849,-364.5644 886.7848,-368.0645 886.7849,-361.0645"/>
</g>
<!-- Node121176 -->
<g id="node16" class="node">
<title>Node121176</title>
<g id="a_node16"><a xlink:href="quickjs_8c.html#a73738c650f11459db0d7af3dcdf8316b" target="_top" xlink:title="JS_NewObjectProtoClass">
<polygon fill="none" stroke="#ff0000" points="922,-127.0644 922,-146.0644 1053,-146.0644 1053,-127.0644 922,-127.0644"/>
<text text-anchor="middle" x="987.5" y="-134.0644" font-family="Helvetica,sans-Serif" font-size="10.00" fill="#000000">JS_NewObjectProtoClass</text>
</a>
</g>
</g>
<!-- Node121175&#45;&gt;Node121176 -->
<g id="edge24" class="edge">
<title>Node121175&#45;&gt;Node121176</title>
<path fill="none" stroke="#191970" d="M896.6306,-136.5644C905.0908,-136.5644 913.6445,-136.5644 921.9454,-136.5644"/>
<polygon fill="#191970" stroke="#191970" points="896.3808,-133.0645 886.3808,-136.5644 896.3807,-140.0645 896.3808,-133.0645"/>
</g>
<!-- Node121176&#45;&gt;Node120891 -->
<g id="edge25" class="edge">
<title>Node121176&#45;&gt;Node120891</title>
<path fill="none" stroke="#191970" d="M1006.207,-152.9532C1042.4732,-184.7254 1121.3099,-253.7927 1150.1509,-279.0597"/>
<polygon fill="#191970" stroke="#191970" points="1008.1814,-150.0297 998.3532,-146.0727 1003.5686,-155.295 1008.1814,-150.0297"/>
</g>
<!-- Node121176&#45;&gt;Node120867 -->
<g id="edge26" class="edge">
<title>Node121176&#45;&gt;Node120867</title>
<path fill="none" stroke="#191970" d="M1041.1598,-148.317C1065.6927,-153.6902 1094.3787,-159.973 1117.5335,-165.0443"/>
<polygon fill="#191970" stroke="#191970" points="1041.7987,-144.874 1031.2814,-146.1534 1040.301,-151.7119 1041.7987,-144.874"/>
</g>
<!-- Node120807 -->
<g id="node17" class="node">
<title>Node120807</title>
<g id="a_node17"><a xlink:href="quickjs_8c.html#a7efb53c2f76fd5cc0e584449437ec09c" target="_top" xlink:title="JS_AddIntrinsicBasicObjects">
<polygon fill="none" stroke="#ff0000" points="1089,-89.0644 1089,-108.0644 1233,-108.0644 1233,-89.0644 1089,-89.0644"/>
<text text-anchor="middle" x="1161" y="-96.0644" font-family="Helvetica,sans-Serif" font-size="10.00" fill="#000000">JS_AddIntrinsicBasicObjects</text>
</a>
</g>
</g>
<!-- Node121176&#45;&gt;Node120807 -->
<g id="edge27" class="edge">
<title>Node121176&#45;&gt;Node120807</title>
<path fill="none" stroke="#191970" d="M1041.1598,-124.8118C1065.6927,-119.4386 1094.3787,-113.1558 1117.5335,-108.0844"/>
<polygon fill="#191970" stroke="#191970" points="1040.301,-121.4169 1031.2814,-126.9754 1041.7987,-128.2548 1040.301,-121.4169"/>
</g>
<!-- Node121195&#45;&gt;Node121176 -->
<g id="edge30" class="edge">
<title>Node121195&#45;&gt;Node121176</title>
<path fill="none" stroke="#191970" d="M423.3394,-66.5781C527.1994,-75.4066 721.4888,-93.4745 886,-117.5644 904.0045,-120.2008 923.6878,-123.7335 940.8883,-127.0372"/>
<polygon fill="#191970" stroke="#191970" points="423.5284,-63.0817 413.2692,-65.727 422.9388,-70.0569 423.5284,-63.0817"/>
</g>
<!-- Node121196&#45;&gt;Node120564 -->
<g id="edge39" class="edge">
<title>Node121196&#45;&gt;Node120564</title>
<path fill="none" stroke="#191970" d="M410.3796,-91.7517C452.9995,-89.896 509.6824,-93.3638 553,-117.5644 605.2053,-146.7303 638.3672,-215.688 649.1494,-241.0174"/>
<polygon fill="#191970" stroke="#191970" points="409.9338,-88.2708 400.1394,-92.3107 410.3154,-95.2604 409.9338,-88.2708"/>
</g>
<!-- Node121197 -->
<g id="node20" class="node">
<title>Node121197</title>
<g id="a_node20"><a xlink:href="quickjs_8c.html#a1030d2020be7d911eb62869f21cc3b70" target="_top" xlink:title="js_new_shape2">
<polygon fill="none" stroke="#000000" points="459,-13.0644 459,-32.0644 543,-32.0644 543,-13.0644 459,-13.0644"/>
<text text-anchor="middle" x="501" y="-20.0644" font-family="Helvetica,sans-Serif" font-size="10.00" fill="#000000">js_new_shape2</text>
</a>
</g>
</g>
<!-- Node121196&#45;&gt;Node121197 -->
<g id="edge32" class="edge">
<title>Node121196&#45;&gt;Node121197</title>
<path fill="none" stroke="#191970" d="M397.2568,-85.8679C402.6515,-83.9707 407.9996,-81.8679 413,-79.5644 441.9325,-66.2364 472.4313,-44.4942 488.8348,-32.0697"/>
<polygon fill="#191970" stroke="#191970" points="395.965,-82.6083 387.5611,-89.06 398.1541,-89.2573 395.965,-82.6083"/>
</g>
<!-- Node121199 -->
<g id="node22" class="node">
<title>Node121199</title>
<g id="a_node22"><a xlink:href="quickjs_8c.html#a3cadcaa2bd1e3f9359f1c006f396cfa0" target="_top" xlink:title="add_shape_property">
<polygon fill="none" stroke="#000000" points="449,-127.0644 449,-146.0644 553,-146.0644 553,-127.0644 449,-127.0644"/>
<text text-anchor="middle" x="501" y="-134.0644" font-family="Helvetica,sans-Serif" font-size="10.00" fill="#000000">add_shape_property</text>
</a>
</g>
</g>
<!-- Node121196&#45;&gt;Node121199 -->
<g id="edge36" class="edge">
<title>Node121196&#45;&gt;Node121199</title>
<path fill="none" stroke="#191970" d="M397.16,-110.6044C418.3951,-115.9132 442.995,-122.0631 462.9198,-127.0443"/>
<polygon fill="#191970" stroke="#191970" points="397.9063,-107.1833 387.356,-108.1534 396.2085,-113.9743 397.9063,-107.1833"/>
</g>
<!-- Node121197&#45;&gt;Node120807 -->
<g id="edge35" class="edge">
<title>Node121197&#45;&gt;Node120807</title>
<path fill="none" stroke="#191970" d="M546.7147,-10.7665C560.234,-7.8023 575.1292,-5.0448 589,-3.5644 645.5676,2.4728 660.153,-1.3812 717,-3.5644 792.2775,-6.4554 811.9287,-2.8345 886,-16.5644 980.0529,-33.998 1087.714,-71.4062 1135.6662,-89.0207"/>
<polygon fill="#191970" stroke="#191970" points="545.6549,-7.4183 536.6844,-13.0558 547.2125,-14.2428 545.6549,-7.4183"/>
</g>
<!-- Node121198 -->
<g id="node21" class="node">
<title>Node121198</title>
<g id="a_node21"><a xlink:href="quickjs_8c.html#ad6926e49955be5e10423f6df8d8cff3e" target="_top" xlink:title="js_new_shape">
<polygon fill="none" stroke="#000000" points="613.5,-13.0644 613.5,-32.0644 692.5,-32.0644 692.5,-13.0644 613.5,-13.0644"/>
<text text-anchor="middle" x="653" y="-20.0644" font-family="Helvetica,sans-Serif" font-size="10.00" fill="#000000">js_new_shape</text>
</a>
</g>
</g>
<!-- Node121197&#45;&gt;Node121198 -->
<g id="edge33" class="edge">
<title>Node121197&#45;&gt;Node121198</title>
<path fill="none" stroke="#191970" d="M553.3983,-22.5644C573.1028,-22.5644 595.1572,-22.5644 613.4946,-22.5644"/>
<polygon fill="#191970" stroke="#191970" points="553.3405,-19.0645 543.3405,-22.5644 553.3404,-26.0645 553.3405,-19.0645"/>
</g>
<!-- Node121198&#45;&gt;Node121176 -->
<g id="edge34" class="edge">
<title>Node121198&#45;&gt;Node121176</title>
<path fill="none" stroke="#191970" d="M703.0819,-19.0693C751.8499,-17.6174 827.0364,-20.6539 886,-46.5644 928.0445,-65.04 964.9287,-107.5886 980.1191,-126.8166"/>
<polygon fill="#191970" stroke="#191970" points="702.6526,-15.5828 692.7904,-19.4541 702.9142,-22.5779 702.6526,-15.5828"/>
</g>
<!-- Node121199&#45;&gt;Node120564 -->
<g id="edge37" class="edge">
<title>Node121199&#45;&gt;Node120564</title>
<path fill="none" stroke="#191970" d="M535.1,-150.508C541.236,-153.5147 547.4424,-156.9025 553,-160.5644 590.2522,-185.1101 627.5827,-223.128 644.138,-240.8516"/>
<polygon fill="#191970" stroke="#191970" points="536.1636,-147.1433 525.619,-146.1124 533.2192,-153.494 536.1636,-147.1433"/>
</g>
<!-- Node121199&#45;&gt;Node120807 -->
<g id="edge38" class="edge">
<title>Node121199&#45;&gt;Node120807</title>
<path fill="none" stroke="#191970" d="M563.2927,-131.3674C614.2719,-127.2347 688.267,-121.5112 753,-117.5644 870.4926,-110.4009 1007.1642,-104.5386 1088.7398,-101.302"/>
<polygon fill="#191970" stroke="#191970" points="562.7775,-127.8977 553.0946,-132.1978 563.3457,-134.8746 562.7775,-127.8977"/>
</g>
<!-- Node121200&#45;&gt;Node121199 -->
<g id="edge47" class="edge">
<title>Node121200&#45;&gt;Node121199</title>
<path fill="none" stroke="#191970" d="M231.3345,-209.447C294.4108,-192.3993 408.0573,-161.684 465.5836,-146.1364"/>
<polygon fill="#191970" stroke="#191970" points="230.4021,-206.0733 221.6617,-212.0612 232.2285,-212.8308 230.4021,-206.0733"/>
</g>
<!-- Node121201 -->
<g id="node24" class="node">
<title>Node121201</title>
<g id="a_node24"><a xlink:href="quickjs_8c.html#a6f921a6312ada5c7da7b485e24d37f54" target="_top" xlink:title="js_free_shape0">
<polygon fill="none" stroke="#000000" points="307.5,-241.0644 307.5,-260.0644 390.5,-260.0644 390.5,-241.0644 307.5,-241.0644"/>
<text text-anchor="middle" x="349" y="-248.0644" font-family="Helvetica,sans-Serif" font-size="10.00" fill="#000000">js_free_shape0</text>
</a>
</g>
</g>
<!-- Node121200&#45;&gt;Node121201 -->
<g id="edge41" class="edge">
<title>Node121200&#45;&gt;Node121201</title>
<path fill="none" stroke="#191970" d="M250.0919,-232.9131C269.3765,-236.3547 290.0557,-240.0451 307.4941,-243.1572"/>
<polygon fill="#191970" stroke="#191970" points="250.6183,-229.4518 240.1589,-231.1404 249.3885,-236.3429 250.6183,-229.4518"/>
</g>
<!-- Node121308 -->
<g id="node26" class="node">
<title>Node121308</title>
<g id="a_node26"><a xlink:href="quickjs_8c.html#a3dd8e78607dbc729614deacf55901b95" target="_top" xlink:title="js_shape_prepare_update">
<polygon fill="none" stroke="#ff0000" points="589,-279.0644 589,-298.0644 717,-298.0644 717,-279.0644 589,-279.0644"/>
<text text-anchor="middle" x="653" y="-286.0644" font-family="Helvetica,sans-Serif" font-size="10.00" fill="#000000">js_shape_prepare_update</text>
</a>
</g>
</g>
<!-- Node121200&#45;&gt;Node121308 -->
<g id="edge48" class="edge">
<title>Node121200&#45;&gt;Node121308</title>
<path fill="none" stroke="#191970" d="M210.1568,-236.471C229.4821,-247.7975 257.9315,-262.5801 285,-269.5644 388.7582,-296.3363 514.2815,-296.2086 588.6689,-292.9208"/>
<polygon fill="#191970" stroke="#191970" points="211.8229,-233.3889 201.4488,-231.2377 208.2171,-239.3888 211.8229,-233.3889"/>
</g>
<!-- Node121202 -->
<g id="node25" class="node">
<title>Node121202</title>
<g id="a_node25"><a xlink:href="quickjs_8c.html#a3a9f27520d96cf58aa5bd7359e9cddee" target="_top" xlink:title="js_free_shape">
<polygon fill="none" stroke="#ff0000" points="462.5,-241.0644 462.5,-260.0644 539.5,-260.0644 539.5,-241.0644 462.5,-241.0644"/>
<text text-anchor="middle" x="501" y="-248.0644" font-family="Helvetica,sans-Serif" font-size="10.00" fill="#000000">js_free_shape</text>
</a>
</g>
</g>
<!-- Node121201&#45;&gt;Node121202 -->
<g id="edge42" class="edge">
<title>Node121201&#45;&gt;Node121202</title>
<path fill="none" stroke="#191970" d="M400.5393,-250.5644C420.7791,-250.5644 443.6098,-250.5644 462.386,-250.5644"/>
<polygon fill="#191970" stroke="#191970" points="400.5347,-247.0645 390.5347,-250.5644 400.5346,-254.0645 400.5347,-247.0645"/>
</g>
<!-- Node121202&#45;&gt;Node120564 -->
<g id="edge43" class="edge">
<title>Node121202&#45;&gt;Node120564</title>
<path fill="none" stroke="#191970" d="M550.0343,-250.5644C571.6043,-250.5644 596.5039,-250.5644 616.4139,-250.5644"/>
<polygon fill="#191970" stroke="#191970" points="549.7493,-247.0645 539.7493,-250.5644 549.7493,-254.0645 549.7493,-247.0645"/>
</g>
<!-- Node121202&#45;&gt;Node121175 -->
<g id="edge44" class="edge">
<title>Node121202&#45;&gt;Node121175</title>
<path fill="none" stroke="#191970" d="M537.3771,-237.544C602.0768,-214.3862 735.7031,-166.5576 792.7444,-146.141"/>
<polygon fill="#191970" stroke="#191970" points="535.8429,-234.3756 527.6073,-241.0409 538.2019,-240.9662 535.8429,-234.3756"/>
</g>
<!-- Node121202&#45;&gt;Node121308 -->
<g id="edge45" class="edge">
<title>Node121202&#45;&gt;Node121308</title>
<path fill="none" stroke="#191970" d="M549.16,-262.6044C570.3951,-267.9132 594.995,-274.0631 614.9198,-279.0443"/>
<polygon fill="#191970" stroke="#191970" points="549.9063,-259.1833 539.356,-260.1534 548.2085,-265.9743 549.9063,-259.1833"/>
</g>
<!-- Node121308&#45;&gt;Node120565 -->
<g id="edge46" class="edge">
<title>Node121308&#45;&gt;Node120565</title>
<path fill="none" stroke="#191970" d="M656.0648,-308.2076C664.0452,-353.211 689.4388,-464.9401 753,-530.5644 758.8158,-536.5689 766.0529,-541.4714 773.5918,-545.4409"/>
<polygon fill="#191970" stroke="#191970" points="659.5045,-307.5557 654.3985,-298.2724 652.6009,-308.7136 659.5045,-307.5557"/>
</g>
<!-- Node121311&#45;&gt;Node121197 -->
<g id="edge50" class="edge">
<title>Node121311&#45;&gt;Node121197</title>
<path fill="none" stroke="#191970" d="M247.0852,-22.5644C309.1989,-22.5644 404.1882,-22.5644 458.6617,-22.5644"/>
<polygon fill="#191970" stroke="#191970" points="247.0299,-19.0645 237.0299,-22.5644 247.0298,-26.0645 247.0299,-19.0645"/>
</g>
</g>
</svg>
        <g id="navigator" transform="translate(0 0)" fill="#404254">
                <rect fill="#f2f5e9" fill-opacity="0.5" stroke="#606060" stroke-width=".5" x="0" y="0" width="60" height="60"/>
                <use id="zoomplus" xlink:href="#zoomPlus" x="17" y="9" onmousedown="handleZoom(evt,'in')"/>
                <use id="zoomminus" xlink:href="#zoomMin" x="42" y="9" onmousedown="handleZoom(evt,'out')"/>
                <use id="reset" xlink:href="#resetDef" x="30" y="36" onmousedown="handleReset()"/>
                <g id="arrowUp" xlink:href="#dirArrow" transform="translate(30 24)" onmousedown="handlePan(0,-1)">
                  <use xlink:href="#rim" fill="#404040">
                        <set attributeName="fill" to="#808080" begin="arrowUp.mouseover" end="arrowUp.mouseout"/>
                  </use>
                  <path fill="none" stroke="white" stroke-width="1.5" d="M0,-3.0v7 M-2.5,-0.5L0,-3.0L2.5,-0.5"/>
                </g>
                <g id="arrowRight" xlink:href="#dirArrow" transform="rotate(90) translate(36 -43)" onmousedown="handlePan(1,0)">
                  <use xlink:href="#rim" fill="#404040">
                        <set attributeName="fill" to="#808080" begin="arrowRight.mouseover" end="arrowRight.mouseout"/>
                  </use>
                  <path fill="none" stroke="white" stroke-width="1.5" d="M0,-3.0v7 M-2.5,-0.5L0,-3.0L2.5,-0.5"/>
                </g>
                <g id="arrowDown" xlink:href="#dirArrow" transform="rotate(180) translate(-30 -48)" onmousedown="handlePan(0,1)">
                  <use xlink:href="#rim" fill="#404040">
                        <set attributeName="fill" to="#808080" begin="arrowDown.mouseover" end="arrowDown.mouseout"/>
                  </use>
                  <path fill="none" stroke="white" stroke-width="1.5" d="M0,-3.0v7 M-2.5,-0.5L0,-3.0L2.5,-0.5"/>
                </g>
                <g id="arrowLeft" xlink:href="#dirArrow" transform="rotate(270) translate(-36 17)" onmousedown="handlePan(-1,0)">
                  <use xlink:href="#rim" fill="#404040">
                        <set attributeName="fill" to="#808080" begin="arrowLeft.mouseover" end="arrowLeft.mouseout"/>
                  </use>
                  <path fill="none" stroke="white" stroke-width="1.5" d="M0,-3.0v7 M-2.5,-0.5L0,-3.0L2.5,-0.5"/>
                </g>
        </g>
        <svg viewBox="0 0 15 15" width="100%" height="30px" preserveAspectRatio="xMaxYMin meet">
         <g id="arrow_out" transform="scale(0.3 0.3)">
          <a xlink:href="quickjs_8c_a8291bf195606b5d1b0faed795b6dc3ff_icgraph_org.svg" target="_base">
           <rect id="button" ry="5" rx="5" y="6" x="6" height="38" width="38"
                fill="#f2f5e9" fill-opacity="0.5" stroke="#606060" stroke-width="1.0"/>
           <path id="arrow"
             d="M 11.500037,31.436501 C 11.940474,20.09759 22.043105,11.32322 32.158766,21.979434 L 37.068811,17.246167 C 37.068811,17.246167 37.088388,32 37.088388,32 L 22.160133,31.978069 C 22.160133,31.978069 26.997745,27.140456 26.997745,27.140456 C 18.528582,18.264221 13.291696,25.230495 11.500037,31.436501 z"
             style="fill:#404040;"/>
          </a>
         </g>
        </svg>
</svg>
