<?xml version="1.0" encoding="UTF-8" standalone="no"?>
<!DOCTYPE svg PUBLIC "-//W3C//DTD SVG 1.1//EN"
 "http://www.w3.org/Graphics/SVG/1.1/DTD/svg11.dtd">
<!-- Generated by graphviz version 2.40.1 (20161225.0304)
 -->
<!-- Title: add_req_module_entry Pages: 1 -->
<svg width="380pt" height="66pt"
 viewBox="0.00 0.00 380.00 66.00" xmlns="http://www.w3.org/2000/svg" xmlns:xlink="http://www.w3.org/1999/xlink">
<g id="graph0" class="graph" transform="scale(1 1) rotate(0) translate(4 62)">
<title>add_req_module_entry</title>
<!-- Node327704 -->
<g id="node1" class="node">
<title>Node327704</title>
<polygon fill="#bfbfbf" stroke="#000000" points="0,-19.5 0,-38.5 115,-38.5 115,-19.5 0,-19.5"/>
<text text-anchor="middle" x="57.5" y="-26.5" font-family="Helvetica,sans-Serif" font-size="10.00" fill="#000000">add_req_module_entry</text>
</g>
<!-- Node327705 -->
<g id="node2" class="node">
<title>Node327705</title>
<g id="a_node2"><a xlink:href="quickjs_8c.html#abbf44eaeace1104a6bef718fbf5700fe" target="_top" xlink:title="JS_DupAtom">
<polygon fill="none" stroke="#000000" points="155,-38.5 155,-57.5 230,-57.5 230,-38.5 155,-38.5"/>
<text text-anchor="middle" x="192.5" y="-45.5" font-family="Helvetica,sans-Serif" font-size="10.00" fill="#000000">JS_DupAtom</text>
</a>
</g>
</g>
<!-- Node327704&#45;&gt;Node327705 -->
<g id="edge1" class="edge">
<title>Node327704&#45;&gt;Node327705</title>
<path fill="none" stroke="#191970" d="M115.1437,-37.1128C125.038,-38.5054 135.221,-39.9385 144.8177,-41.2892"/>
<polygon fill="#191970" stroke="#191970" points="144.5692,-44.7886 154.9594,-42.7165 145.5448,-37.8569 144.5692,-44.7886"/>
</g>
<!-- Node327707 -->
<g id="node4" class="node">
<title>Node327707</title>
<g id="a_node4"><a xlink:href="quickjs_8c.html#afa610f3175e9cb11fdceac95071099b5" target="_top" xlink:title="js_resize_array">
<polygon fill="none" stroke="#000000" points="151,-.5 151,-19.5 234,-19.5 234,-.5 151,-.5"/>
<text text-anchor="middle" x="192.5" y="-7.5" font-family="Helvetica,sans-Serif" font-size="10.00" fill="#000000">js_resize_array</text>
</a>
</g>
</g>
<!-- Node327704&#45;&gt;Node327707 -->
<g id="edge3" class="edge">
<title>Node327704&#45;&gt;Node327707</title>
<path fill="none" stroke="#191970" d="M115.1437,-20.8872C123.7033,-19.6825 132.4789,-18.4474 140.904,-17.2617"/>
<polygon fill="#191970" stroke="#191970" points="141.5542,-20.7047 150.9688,-15.8451 140.5786,-13.773 141.5542,-20.7047"/>
</g>
<!-- Node327706 -->
<g id="node3" class="node">
<title>Node327706</title>
<g id="a_node3"><a xlink:href="quickjs_8c.html#a7f6796ee7a195631366f57c713a33f65" target="_top" xlink:title="__JS_AtomIsConst">
<polygon fill="none" stroke="#000000" points="270,-38.5 270,-57.5 372,-57.5 372,-38.5 270,-38.5"/>
<text text-anchor="middle" x="321" y="-45.5" font-family="Helvetica,sans-Serif" font-size="10.00" fill="#000000">__JS_AtomIsConst</text>
</a>
</g>
</g>
<!-- Node327705&#45;&gt;Node327706 -->
<g id="edge2" class="edge">
<title>Node327705&#45;&gt;Node327706</title>
<path fill="none" stroke="#191970" d="M230.013,-48C239.3469,-48 249.5972,-48 259.7475,-48"/>
<polygon fill="#191970" stroke="#191970" points="259.8269,-51.5001 269.8269,-48 259.8268,-44.5001 259.8269,-51.5001"/>
</g>
</g>
</svg>
