<?xml version="1.0" encoding="UTF-8" standalone="no"?>
<!DOCTYPE svg PUBLIC "-//W3C//DTD SVG 1.1//EN"
 "http://www.w3.org/Graphics/SVG/1.1/DTD/svg11.dtd">
<!-- Generated by graphviz version 2.40.1 (20161225.0304)
 -->
<!-- Title: make_string_error Pages: 1 -->
<svg width="707pt" height="522pt"
 viewBox="0.00 0.00 707.00 522.00" xmlns="http://www.w3.org/2000/svg" xmlns:xlink="http://www.w3.org/1999/xlink">
<g id="graph0" class="graph" transform="scale(1 1) rotate(0) translate(4 518)">
<title>make_string_error</title>
<!-- Node18947 -->
<g id="node1" class="node">
<title>Node18947</title>
<polygon fill="#bfbfbf" stroke="#000000" points="0,-95.5 0,-114.5 95,-114.5 95,-95.5 0,-95.5"/>
<text text-anchor="middle" x="47.5" y="-102.5" font-family="Helvetica,sans-Serif" font-size="10.00" fill="#000000">make_string_error</text>
</g>
<!-- Node18948 -->
<g id="node2" class="node">
<title>Node18948</title>
<g id="a_node2"><a xlink:href="quickjs_8c.html#a0ee6a3654a6016393fac5e1c108f403a" target="_top" xlink:title="JS_NewString">
<polygon fill="none" stroke="#000000" points="132.5,-209.5 132.5,-228.5 212.5,-228.5 212.5,-209.5 132.5,-209.5"/>
<text text-anchor="middle" x="172.5" y="-216.5" font-family="Helvetica,sans-Serif" font-size="10.00" fill="#000000">JS_NewString</text>
</a>
</g>
</g>
<!-- Node18947&#45;&gt;Node18948 -->
<g id="edge1" class="edge">
<title>Node18947&#45;&gt;Node18948</title>
<path fill="none" stroke="#191970" d="M58.1574,-114.7196C79.5594,-134.2382 127.9729,-178.3913 154.421,-202.5119"/>
<polygon fill="#191970" stroke="#191970" points="152.1223,-205.1526 161.8695,-209.305 156.8393,-199.9805 152.1223,-205.1526"/>
</g>
<!-- Node18976 -->
<g id="node13" class="node">
<title>Node18976</title>
<g id="a_node13"><a xlink:href="quickjs-libc_8c.html#a0210b73e16d177f7668621a6573576aa" target="_top" xlink:title="make_obj_error">
<polygon fill="none" stroke="#000000" points="131,-76.5 131,-95.5 214,-95.5 214,-76.5 131,-76.5"/>
<text text-anchor="middle" x="172.5" y="-83.5" font-family="Helvetica,sans-Serif" font-size="10.00" fill="#000000">make_obj_error</text>
</a>
</g>
</g>
<!-- Node18947&#45;&gt;Node18976 -->
<g id="edge12" class="edge">
<title>Node18947&#45;&gt;Node18976</title>
<path fill="none" stroke="#191970" d="M95.1137,-97.7627C103.4523,-96.4953 112.1662,-95.1707 120.6137,-93.8867"/>
<polygon fill="#191970" stroke="#191970" points="121.382,-97.3102 130.7424,-92.3472 120.33,-90.3897 121.382,-97.3102"/>
</g>
<!-- Node18949 -->
<g id="node3" class="node">
<title>Node18949</title>
<g id="a_node3"><a xlink:href="quickjs_8c.html#ac34cc554aab1e98c45a7f845fff64385" target="_top" xlink:title="JS_NewStringLen">
<polygon fill="none" stroke="#000000" points="278.5,-323.5 278.5,-342.5 373.5,-342.5 373.5,-323.5 278.5,-323.5"/>
<text text-anchor="middle" x="326" y="-330.5" font-family="Helvetica,sans-Serif" font-size="10.00" fill="#000000">JS_NewStringLen</text>
</a>
</g>
</g>
<!-- Node18948&#45;&gt;Node18949 -->
<g id="edge2" class="edge">
<title>Node18948&#45;&gt;Node18949</title>
<path fill="none" stroke="#191970" d="M185.3233,-228.5235C211.6684,-248.0892 272.1256,-292.9891 304.5404,-317.0626"/>
<polygon fill="#191970" stroke="#191970" points="302.7728,-320.1095 312.8878,-323.262 306.9464,-314.4898 302.7728,-320.1095"/>
</g>
<!-- Node18950 -->
<g id="node4" class="node">
<title>Node18950</title>
<g id="a_node4"><a xlink:href="quickjs_8c.html#a853f0924d441ea4225488f37c8b69f9a" target="_top" xlink:title="__attribute__">
<polygon fill="none" stroke="#000000" points="476,-494.5 476,-513.5 549,-513.5 549,-494.5 476,-494.5"/>
<text text-anchor="middle" x="512.5" y="-501.5" font-family="Helvetica,sans-Serif" font-size="10.00" fill="#000000">__attribute__</text>
</a>
</g>
</g>
<!-- Node18949&#45;&gt;Node18950 -->
<g id="edge3" class="edge">
<title>Node18949&#45;&gt;Node18950</title>
<path fill="none" stroke="#191970" d="M330.1935,-342.619C342.4857,-369.6364 381.1786,-446.729 438,-485 446.3863,-490.6484 456.3325,-494.6177 466.1813,-497.407"/>
<polygon fill="#191970" stroke="#191970" points="465.3881,-500.8162 475.9361,-499.8214 467.07,-494.0213 465.3881,-500.8162"/>
</g>
<!-- Node18951 -->
<g id="node5" class="node">
<title>Node18951</title>
<g id="a_node5"><a xlink:href="quickjs_8c.html#aa923510185fe24e3083baf7405b09f51" target="_top" xlink:title="js_new_string8">
<polygon fill="none" stroke="#ff0000" points="471.5,-456.5 471.5,-475.5 553.5,-475.5 553.5,-456.5 471.5,-456.5"/>
<text text-anchor="middle" x="512.5" y="-463.5" font-family="Helvetica,sans-Serif" font-size="10.00" fill="#000000">js_new_string8</text>
</a>
</g>
</g>
<!-- Node18949&#45;&gt;Node18951 -->
<g id="edge4" class="edge">
<title>Node18949&#45;&gt;Node18951</title>
<path fill="none" stroke="#191970" d="M332.5937,-342.6746C348.1836,-364.7746 389.6585,-419.1943 438,-447 445.1566,-451.1164 453.2038,-454.3528 461.2937,-456.8941"/>
<polygon fill="#191970" stroke="#191970" points="460.5513,-460.3211 471.1256,-459.6617 462.4481,-453.583 460.5513,-460.3211"/>
</g>
<!-- Node18960 -->
<g id="node6" class="node">
<title>Node18960</title>
<g id="a_node6"><a xlink:href="quickjs_8c.html#a9c11961b0adafedd064b294612d0c2f3" target="_top" xlink:title="string_buffer_init">
<polygon fill="none" stroke="#ff0000" points="468,-418.5 468,-437.5 557,-437.5 557,-418.5 468,-418.5"/>
<text text-anchor="middle" x="512.5" y="-425.5" font-family="Helvetica,sans-Serif" font-size="10.00" fill="#000000">string_buffer_init</text>
</a>
</g>
</g>
<!-- Node18949&#45;&gt;Node18960 -->
<g id="edge5" class="edge">
<title>Node18949&#45;&gt;Node18960</title>
<path fill="none" stroke="#191970" d="M337.2904,-342.6564C356.6383,-358.7248 397.93,-390.9636 438,-409 444.297,-411.8344 451.0915,-414.2992 457.9251,-416.4279"/>
<polygon fill="#191970" stroke="#191970" points="457.3335,-419.9 467.9119,-419.3103 459.2747,-413.1745 457.3335,-419.9"/>
</g>
<!-- Node18962 -->
<g id="node7" class="node">
<title>Node18962</title>
<g id="a_node7"><a xlink:href="quickjs_8c.html#a0b130652cf11eb0eb9f7e3ee6c5d7c6a" target="_top" xlink:title="string_buffer_write8">
<polygon fill="none" stroke="#ff0000" points="461.5,-380.5 461.5,-399.5 563.5,-399.5 563.5,-380.5 461.5,-380.5"/>
<text text-anchor="middle" x="512.5" y="-387.5" font-family="Helvetica,sans-Serif" font-size="10.00" fill="#000000">string_buffer_write8</text>
</a>
</g>
</g>
<!-- Node18949&#45;&gt;Node18962 -->
<g id="edge6" class="edge">
<title>Node18949&#45;&gt;Node18962</title>
<path fill="none" stroke="#191970" d="M352.5173,-342.6441C375.0953,-350.6992 408.4724,-362.2399 438,-371 445.915,-373.3482 454.3542,-375.6708 462.6023,-377.8431"/>
<polygon fill="#191970" stroke="#191970" points="461.9624,-381.2928 472.5203,-380.41 463.7163,-374.516 461.9624,-381.2928"/>
</g>
<!-- Node18970 -->
<g id="node8" class="node">
<title>Node18970</title>
<g id="a_node8"><a xlink:href="quickjs_8c.html#a874fcee73f61cc997ec1d10cc6711554" target="_top" xlink:title="string_buffer_putc8">
<polygon fill="none" stroke="#ff0000" points="462.5,-342.5 462.5,-361.5 562.5,-361.5 562.5,-342.5 462.5,-342.5"/>
<text text-anchor="middle" x="512.5" y="-349.5" font-family="Helvetica,sans-Serif" font-size="10.00" fill="#000000">string_buffer_putc8</text>
</a>
</g>
</g>
<!-- Node18949&#45;&gt;Node18970 -->
<g id="edge7" class="edge">
<title>Node18949&#45;&gt;Node18970</title>
<path fill="none" stroke="#191970" d="M373.5444,-337.8437C397.5533,-340.2896 426.9326,-343.2827 452.4825,-345.8856"/>
<polygon fill="#191970" stroke="#191970" points="452.13,-349.3677 462.4333,-346.8994 452.8396,-342.4038 452.13,-349.3677"/>
</g>
<!-- Node18971 -->
<g id="node9" class="node">
<title>Node18971</title>
<g id="a_node9"><a xlink:href="cutils_8h.html#a69529af6d6911dd0ead90eef221b2e10" target="_top" xlink:title="unicode_from_utf8">
<polygon fill="none" stroke="#000000" points="464,-304.5 464,-323.5 561,-323.5 561,-304.5 464,-304.5"/>
<text text-anchor="middle" x="512.5" y="-311.5" font-family="Helvetica,sans-Serif" font-size="10.00" fill="#000000">unicode_from_utf8</text>
</a>
</g>
</g>
<!-- Node18949&#45;&gt;Node18971 -->
<g id="edge8" class="edge">
<title>Node18949&#45;&gt;Node18971</title>
<path fill="none" stroke="#191970" d="M373.5444,-328.1563C397.9344,-325.6716 427.8667,-322.6222 453.6962,-319.9907"/>
<polygon fill="#191970" stroke="#191970" points="454.1492,-323.4628 463.7429,-318.9672 453.4397,-316.4988 454.1492,-323.4628"/>
</g>
<!-- Node18972 -->
<g id="node10" class="node">
<title>Node18972</title>
<g id="a_node10"><a xlink:href="quickjs_8c.html#a9b8fb6b5ce638616691f7bf7881fa57d" target="_top" xlink:title="string_buffer_putc16">
<polygon fill="none" stroke="#ff0000" points="460,-266.5 460,-285.5 565,-285.5 565,-266.5 460,-266.5"/>
<text text-anchor="middle" x="512.5" y="-273.5" font-family="Helvetica,sans-Serif" font-size="10.00" fill="#000000">string_buffer_putc16</text>
</a>
</g>
</g>
<!-- Node18949&#45;&gt;Node18972 -->
<g id="edge9" class="edge">
<title>Node18949&#45;&gt;Node18972</title>
<path fill="none" stroke="#191970" d="M352.5173,-323.3559C375.0953,-315.3008 408.4724,-303.7601 438,-295 445.915,-292.6518 454.3542,-290.3292 462.6023,-288.1569"/>
<polygon fill="#191970" stroke="#191970" points="463.7163,-291.484 472.5203,-285.59 461.9624,-284.7072 463.7163,-291.484"/>
</g>
<!-- Node18974 -->
<g id="node11" class="node">
<title>Node18974</title>
<g id="a_node11"><a xlink:href="quickjs_8c.html#accfc3d1dcaa88c88402cb245ccaf4fdb" target="_top" xlink:title="string_buffer_end">
<polygon fill="none" stroke="#ff0000" points="466.5,-228.5 466.5,-247.5 558.5,-247.5 558.5,-228.5 466.5,-228.5"/>
<text text-anchor="middle" x="512.5" y="-235.5" font-family="Helvetica,sans-Serif" font-size="10.00" fill="#000000">string_buffer_end</text>
</a>
</g>
</g>
<!-- Node18949&#45;&gt;Node18974 -->
<g id="edge10" class="edge">
<title>Node18949&#45;&gt;Node18974</title>
<path fill="none" stroke="#191970" d="M337.2904,-323.3436C356.6383,-307.2752 397.93,-275.0364 438,-257 443.8311,-254.3753 450.0887,-252.0676 456.409,-250.0501"/>
<polygon fill="#191970" stroke="#191970" points="457.7423,-253.3058 466.3402,-247.1149 455.7582,-246.5929 457.7423,-253.3058"/>
</g>
<!-- Node18975 -->
<g id="node12" class="node">
<title>Node18975</title>
<g id="a_node12"><a xlink:href="quickjs_8c.html#a266b4993a59d9e34537386e62b9f3d4f" target="_top" xlink:title="string_buffer_free">
<polygon fill="none" stroke="#ff0000" points="466.5,-190.5 466.5,-209.5 558.5,-209.5 558.5,-190.5 466.5,-190.5"/>
<text text-anchor="middle" x="512.5" y="-197.5" font-family="Helvetica,sans-Serif" font-size="10.00" fill="#000000">string_buffer_free</text>
</a>
</g>
</g>
<!-- Node18949&#45;&gt;Node18975 -->
<g id="edge11" class="edge">
<title>Node18949&#45;&gt;Node18975</title>
<path fill="none" stroke="#191970" d="M332.5937,-323.3254C348.1836,-301.2254 389.6585,-246.8057 438,-219 443.8305,-215.6464 450.2521,-212.8768 456.8064,-210.5913"/>
<polygon fill="#191970" stroke="#191970" points="457.9497,-213.9011 466.4505,-207.5776 455.8617,-207.2197 457.9497,-213.9011"/>
</g>
<!-- Node18977 -->
<g id="node14" class="node">
<title>Node18977</title>
<g id="a_node14"><a xlink:href="quickjs_8c.html#a12aed667595f49667e0095f0a028e0d4" target="_top" xlink:title="JS_DefinePropertyValueUint32">
<polygon fill="none" stroke="#000000" points="250,-114.5 250,-133.5 402,-133.5 402,-114.5 250,-114.5"/>
<text text-anchor="middle" x="326" y="-121.5" font-family="Helvetica,sans-Serif" font-size="10.00" fill="#000000">JS_DefinePropertyValueUint32</text>
</a>
</g>
</g>
<!-- Node18976&#45;&gt;Node18977 -->
<g id="edge13" class="edge">
<title>Node18976&#45;&gt;Node18977</title>
<path fill="none" stroke="#191970" d="M211.2345,-95.589C231.3993,-100.5809 256.2479,-106.7324 277.6611,-112.0334"/>
<polygon fill="#191970" stroke="#191970" points="276.9959,-115.4743 287.544,-114.4799 278.6781,-108.6794 276.9959,-115.4743"/>
</g>
<!-- Node18989 -->
<g id="node17" class="node">
<title>Node18989</title>
<g id="a_node17"><a xlink:href="quickjs_8h.html#a2050bc428da1c65ac7eb87c3fa3b0392" target="_top" xlink:title="JS_NewInt32">
<polygon fill="none" stroke="#000000" points="623,-95.5 623,-114.5 699,-114.5 699,-95.5 623,-95.5"/>
<text text-anchor="middle" x="661" y="-102.5" font-family="Helvetica,sans-Serif" font-size="10.00" fill="#000000">JS_NewInt32</text>
</a>
</g>
</g>
<!-- Node18976&#45;&gt;Node18989 -->
<g id="edge19" class="edge">
<title>Node18976&#45;&gt;Node18989</title>
<path fill="none" stroke="#191970" d="M214.1492,-87.6199C304.2178,-91.1231 516.7006,-99.3875 612.5747,-103.1165"/>
<polygon fill="#191970" stroke="#191970" points="612.7241,-106.6249 622.8526,-103.5163 612.9963,-99.6302 612.7241,-106.6249"/>
</g>
<!-- Node19077 -->
<g id="node18" class="node">
<title>Node19077</title>
<g id="a_node18"><a xlink:href="quickjs_8h.html#ad80a83d73e9b7d872b88fbf2943aebe9" target="_top" xlink:title="JS_IsException">
<polygon fill="none" stroke="#000000" points="283,-38.5 283,-57.5 369,-57.5 369,-38.5 283,-38.5"/>
<text text-anchor="middle" x="326" y="-45.5" font-family="Helvetica,sans-Serif" font-size="10.00" fill="#000000">JS_IsException</text>
</a>
</g>
</g>
<!-- Node18976&#45;&gt;Node19077 -->
<g id="edge17" class="edge">
<title>Node18976&#45;&gt;Node19077</title>
<path fill="none" stroke="#191970" d="M211.2345,-76.411C231.3993,-71.4191 256.2479,-65.2676 277.6611,-59.9666"/>
<polygon fill="#191970" stroke="#191970" points="278.6781,-63.3206 287.544,-57.5201 276.9959,-56.5257 278.6781,-63.3206"/>
</g>
<!-- Node19205 -->
<g id="node19" class="node">
<title>Node19205</title>
<g id="a_node19"><a xlink:href="quickjs_8c.html#ad4ba09e4c7ab9f28c144182e1aacf1f6" target="_top" xlink:title="JS_NewArray">
<polygon fill="none" stroke="#ff0000" points="287.5,-.5 287.5,-19.5 364.5,-19.5 364.5,-.5 287.5,-.5"/>
<text text-anchor="middle" x="326" y="-7.5" font-family="Helvetica,sans-Serif" font-size="10.00" fill="#000000">JS_NewArray</text>
</a>
</g>
</g>
<!-- Node18976&#45;&gt;Node19205 -->
<g id="edge18" class="edge">
<title>Node18976&#45;&gt;Node19205</title>
<path fill="none" stroke="#191970" d="M182.6815,-76.4446C196.7433,-63.7596 223.3987,-41.5092 250,-29 258.4961,-25.0047 267.9364,-21.7826 277.1939,-19.2071"/>
<polygon fill="#191970" stroke="#191970" points="278.2986,-22.5371 287.1141,-16.6603 276.5579,-15.757 278.2986,-22.5371"/>
</g>
<!-- Node18978 -->
<g id="node15" class="node">
<title>Node18978</title>
<g id="a_node15"><a xlink:href="quickjs_8c.html#a0c61bd5a64c743e81188bb528b78e715" target="_top" xlink:title="JS_DefinePropertyValueValue">
<polygon fill="none" stroke="#ff0000" points="438,-152.5 438,-171.5 587,-171.5 587,-152.5 438,-152.5"/>
<text text-anchor="middle" x="512.5" y="-159.5" font-family="Helvetica,sans-Serif" font-size="10.00" fill="#000000">JS_DefinePropertyValueValue</text>
</a>
</g>
</g>
<!-- Node18977&#45;&gt;Node18978 -->
<g id="edge14" class="edge">
<title>Node18977&#45;&gt;Node18978</title>
<path fill="none" stroke="#191970" d="M373.0618,-133.589C398.2268,-138.7165 429.3958,-145.0672 455.8786,-150.4632"/>
<polygon fill="#191970" stroke="#191970" points="455.2791,-153.9129 465.7766,-152.4799 456.6767,-147.0538 455.2791,-153.9129"/>
</g>
<!-- Node19135 -->
<g id="node16" class="node">
<title>Node19135</title>
<g id="a_node16"><a xlink:href="quickjs_8h.html#a88259aa0da61ac754402c64ccecee116" target="_top" xlink:title="JS_NewUint32">
<polygon fill="none" stroke="#ff0000" points="471,-114.5 471,-133.5 554,-133.5 554,-114.5 471,-114.5"/>
<text text-anchor="middle" x="512.5" y="-121.5" font-family="Helvetica,sans-Serif" font-size="10.00" fill="#000000">JS_NewUint32</text>
</a>
</g>
</g>
<!-- Node18977&#45;&gt;Node19135 -->
<g id="edge15" class="edge">
<title>Node18977&#45;&gt;Node19135</title>
<path fill="none" stroke="#191970" d="M402.1257,-124C421.8352,-124 442.6016,-124 460.7381,-124"/>
<polygon fill="#191970" stroke="#191970" points="460.8013,-127.5001 470.8013,-124 460.8013,-120.5001 460.8013,-127.5001"/>
</g>
<!-- Node19135&#45;&gt;Node18989 -->
<g id="edge16" class="edge">
<title>Node19135&#45;&gt;Node18989</title>
<path fill="none" stroke="#191970" d="M554.2607,-118.6569C572.4287,-116.3324 593.8293,-113.5942 612.6798,-111.1824"/>
<polygon fill="#191970" stroke="#191970" points="613.3783,-114.6216 622.8533,-109.8807 612.4899,-107.6782 613.3783,-114.6216"/>
</g>
</g>
</svg>
