<?xml version="1.0" encoding="UTF-8" standalone="no"?>
<!DOCTYPE svg PUBLIC "-//W3C//DTD SVG 1.1//EN"
 "http://www.w3.org/Graphics/SVG/1.1/DTD/svg11.dtd">
<!-- Generated by graphviz version 2.40.1 (20161225.0304)
 -->
<!-- Title: js_async_generator_free Pages: 1 -->
<svg width="551pt" height="39pt"
 viewBox="0.00 0.00 551.00 39.00" xmlns="http://www.w3.org/2000/svg" xmlns:xlink="http://www.w3.org/1999/xlink">
<g id="graph0" class="graph" transform="scale(1 1) rotate(0) translate(4 35)">
<title>js_async_generator_free</title>
<!-- Node302792 -->
<g id="node1" class="node">
<title>Node302792</title>
<polygon fill="#bfbfbf" stroke="#000000" points="0,-6 0,-25 123,-25 123,-6 0,-6"/>
<text text-anchor="middle" x="61.5" y="-13" font-family="Helvetica,sans-Serif" font-size="10.00" fill="#000000">js_async_generator_free</text>
</g>
<!-- Node302793 -->
<g id="node2" class="node">
<title>Node302793</title>
<g id="a_node2"><a xlink:href="quickjs_8c.html#ae19867da709929c072f05e90301835a4" target="_top" xlink:title="js_async_generator\l_function_call">
<polygon fill="none" stroke="#000000" points="159,-.5 159,-30.5 260,-30.5 260,-.5 159,-.5"/>
<text text-anchor="start" x="167" y="-18.5" font-family="Helvetica,sans-Serif" font-size="10.00" fill="#000000">js_async_generator</text>
<text text-anchor="middle" x="209.5" y="-7.5" font-family="Helvetica,sans-Serif" font-size="10.00" fill="#000000">_function_call</text>
</a>
</g>
</g>
<!-- Node302792&#45;&gt;Node302793 -->
<g id="edge1" class="edge">
<title>Node302792&#45;&gt;Node302793</title>
<path fill="none" stroke="#191970" d="M133.6488,-15.5C142.0818,-15.5 150.5469,-15.5 158.6056,-15.5"/>
<polygon fill="#191970" stroke="#191970" points="133.4078,-12.0001 123.4078,-15.5 133.4078,-19.0001 133.4078,-12.0001"/>
</g>
<!-- Node302794 -->
<g id="node3" class="node">
<title>Node302794</title>
<g id="a_node3"><a xlink:href="quickjs_8c.html#a2e66fcf1bc1d19f346317f10ee590621" target="_top" xlink:title="JS_AddIntrinsicPromise">
<polygon fill="none" stroke="#000000" points="296,-6 296,-25 418,-25 418,-6 296,-6"/>
<text text-anchor="middle" x="357" y="-13" font-family="Helvetica,sans-Serif" font-size="10.00" fill="#000000">JS_AddIntrinsicPromise</text>
</a>
</g>
</g>
<!-- Node302793&#45;&gt;Node302794 -->
<g id="edge2" class="edge">
<title>Node302793&#45;&gt;Node302794</title>
<path fill="none" stroke="#191970" d="M270.4105,-15.5C278.8506,-15.5 287.5223,-15.5 295.9647,-15.5"/>
<polygon fill="#191970" stroke="#191970" points="270.2612,-12.0001 260.2611,-15.5 270.2611,-19.0001 270.2612,-12.0001"/>
</g>
<!-- Node302795 -->
<g id="node4" class="node">
<title>Node302795</title>
<g id="a_node4"><a xlink:href="quickjs_8c.html#ad8aedb643b8753b7a15f6cb2df61945e" target="_top" xlink:title="JS_NewContext">
<polygon fill="none" stroke="#ff0000" points="454,-6 454,-25 543,-25 543,-6 454,-6"/>
<text text-anchor="middle" x="498.5" y="-13" font-family="Helvetica,sans-Serif" font-size="10.00" fill="#000000">JS_NewContext</text>
</a>
</g>
</g>
<!-- Node302794&#45;&gt;Node302795 -->
<g id="edge3" class="edge">
<title>Node302794&#45;&gt;Node302795</title>
<path fill="none" stroke="#191970" d="M428.3807,-15.5C437.0398,-15.5 445.6863,-15.5 453.8014,-15.5"/>
<polygon fill="#191970" stroke="#191970" points="428.241,-12.0001 418.241,-15.5 428.241,-19.0001 428.241,-12.0001"/>
</g>
</g>
</svg>
