<?xml version="1.0" encoding="UTF-8" standalone="no"?>
<!DOCTYPE svg PUBLIC "-//W3C//DTD SVG 1.1//EN"
 "http://www.w3.org/Graphics/SVG/1.1/DTD/svg11.dtd">
<!-- Generated by graphviz version 2.40.1 (20161225.0304)
 -->
<!-- Title: js_std_file_readAsString Pages: 1 -->
<!--zoomable 522 -->
<svg id="main" version="1.1" xmlns="http://www.w3.org/2000/svg" xmlns:xlink="http://www.w3.org/1999/xlink" xml:space="preserve" onload="init(evt)">
<style type="text/css"><![CDATA[
.edge:hover path { stroke: red; }
.edge:hover polygon { stroke: red; fill: red; }
]]></style>
<script type="text/javascript"><![CDATA[
var edges = document.getElementsByTagName('g');
if (edges && edges.length) {
  for (var i=0;i<edges.length;i++) {
    if (edges[i].id.substr(0,4)=='edge') {
      edges[i].setAttribute('class','edge');
    }
  }
}
]]></script>
        <defs>
                <circle id="rim" cx="0" cy="0" r="7"/>
                <circle id="rim2" cx="0" cy="0" r="3.5"/>
                <g id="zoomPlus">
                        <use xlink:href="#rim" fill="#404040">
                                <set attributeName="fill" to="#808080" begin="zoomplus.mouseover" end="zoomplus.mouseout"/>
                        </use>
                        <path d="M-4,0h8M0,-4v8" fill="none" stroke="white" stroke-width="1.5" pointer-events="none"/>
                </g>
                <g id="zoomMin">
                        <use xlink:href="#rim" fill="#404040">
                                <set attributeName="fill" to="#808080" begin="zoomminus.mouseover" end="zoomminus.mouseout"/>
                        </use>
                        <path d="M-4,0h8" fill="none" stroke="white" stroke-width="1.5" pointer-events="none"/>
                </g>
                <g id="dirArrow">
                        <path fill="none" stroke="white" stroke-width="1.5" d="M0,-3.0v7 M-2.5,-0.5L0,-3.0L2.5,-0.5"/>
                </g>
               <g id="resetDef">
                       <use xlink:href="#rim2" fill="#404040">
                               <set attributeName="fill" to="#808080" begin="reset.mouseover" end="reset.mouseout"/>
                       </use>
               </g>
        </defs>

<script type="text/javascript">
var viewWidth = 807;
var viewHeight = 522;
var sectionId = 'dynsection-50';
</script>
<script xlink:href="svgpan.js"/>
<svg id="graph" class="graph">
<g id="viewport">
<title>js_std_file_readAsString</title>
<!-- Node9947 -->
<g id="node1" class="node">
<title>Node9947</title>
<polygon fill="#bfbfbf" stroke="#000000" points="0,-266.5 0,-285.5 122,-285.5 122,-266.5 0,-266.5"/>
<text text-anchor="middle" x="61" y="-273.5" font-family="Helvetica,sans-Serif" font-size="10.00" fill="#000000">js_std_file_readAsString</text>
</g>
<!-- Node9948 -->
<g id="node2" class="node">
<title>Node9948</title>
<g id="a_node2"><a xlink:href="cutils_8h.html#a8a3b715fc2146312b777c4e3db546b55" target="_top" xlink:title="dbuf_free">
<polygon fill="none" stroke="#000000" points="177,-380.5 177,-399.5 234,-399.5 234,-380.5 177,-380.5"/>
<text text-anchor="middle" x="205.5" y="-387.5" font-family="Helvetica,sans-Serif" font-size="10.00" fill="#000000">dbuf_free</text>
</a>
</g>
</g>
<!-- Node9947&#45;&gt;Node9948 -->
<g id="edge1" class="edge">
<title>Node9947&#45;&gt;Node9948</title>
<path fill="none" stroke="#191970" d="M68.5721,-285.623C83.74,-304.3466 119.6932,-346.0259 158,-371 161.083,-373.01 164.4125,-374.8671 167.8279,-376.5681"/>
<polygon fill="#191970" stroke="#191970" points="166.4057,-379.7662 176.9589,-380.7042 169.294,-373.3898 166.4057,-379.7662"/>
</g>
<!-- Node9949 -->
<g id="node3" class="node">
<title>Node9949</title>
<g id="a_node3"><a xlink:href="cutils_8h.html#aeed81d4787ccdbd55baa9b5fd6717e88" target="_top" xlink:title="dbuf_putc">
<polygon fill="none" stroke="#000000" points="176,-342.5 176,-361.5 235,-361.5 235,-342.5 176,-342.5"/>
<text text-anchor="middle" x="205.5" y="-349.5" font-family="Helvetica,sans-Serif" font-size="10.00" fill="#000000">dbuf_putc</text>
</a>
</g>
</g>
<!-- Node9947&#45;&gt;Node9949 -->
<g id="edge2" class="edge">
<title>Node9947&#45;&gt;Node9949</title>
<path fill="none" stroke="#191970" d="M75.734,-285.606C94.4169,-297.5627 127.8351,-318.2089 158,-333 161.8578,-334.8916 165.9537,-336.7468 170.06,-338.5117"/>
<polygon fill="#191970" stroke="#191970" points="168.9747,-341.8504 179.5531,-342.4409 171.6518,-335.3825 168.9747,-341.8504"/>
</g>
<!-- Node9952 -->
<g id="node6" class="node">
<title>Node9952</title>
<g id="a_node6"><a xlink:href="quickjs_8h.html#a4e407128a9605afb77523e49e9a627fd" target="_top" xlink:title="JS_IsUndefined">
<polygon fill="none" stroke="#000000" points="162.5,-304.5 162.5,-323.5 248.5,-323.5 248.5,-304.5 162.5,-304.5"/>
<text text-anchor="middle" x="205.5" y="-311.5" font-family="Helvetica,sans-Serif" font-size="10.00" fill="#000000">JS_IsUndefined</text>
</a>
</g>
</g>
<!-- Node9947&#45;&gt;Node9952 -->
<g id="edge5" class="edge">
<title>Node9947&#45;&gt;Node9952</title>
<path fill="none" stroke="#191970" d="M97.4635,-285.589C116.2741,-290.5358 139.4146,-296.6211 159.4472,-301.8892"/>
<polygon fill="#191970" stroke="#191970" points="158.7374,-305.3215 169.2988,-304.4799 160.5177,-298.5517 158.7374,-305.3215"/>
</g>
<!-- Node9953 -->
<g id="node7" class="node">
<title>Node9953</title>
<g id="a_node7"><a xlink:href="quickjs_8c.html#ac34cc554aab1e98c45a7f845fff64385" target="_top" xlink:title="JS_NewStringLen">
<polygon fill="none" stroke="#000000" points="158,-266.5 158,-285.5 253,-285.5 253,-266.5 158,-266.5"/>
<text text-anchor="middle" x="205.5" y="-273.5" font-family="Helvetica,sans-Serif" font-size="10.00" fill="#000000">JS_NewStringLen</text>
</a>
</g>
</g>
<!-- Node9947&#45;&gt;Node9953 -->
<g id="edge6" class="edge">
<title>Node9947&#45;&gt;Node9953</title>
<path fill="none" stroke="#191970" d="M122.281,-276C130.7026,-276 139.3278,-276 147.6845,-276"/>
<polygon fill="#191970" stroke="#191970" points="147.7128,-279.5001 157.7128,-276 147.7127,-272.5001 147.7128,-279.5001"/>
</g>
<!-- Node9981 -->
<g id="node23" class="node">
<title>Node9981</title>
<g id="a_node23"><a xlink:href="quickjs-libc_8c.html#abc010e21334ba999f6ad18a681caf4fb" target="_top" xlink:title="js_std_dbuf_init">
<polygon fill="none" stroke="#000000" points="163,-114.5 163,-133.5 248,-133.5 248,-114.5 163,-114.5"/>
<text text-anchor="middle" x="205.5" y="-121.5" font-family="Helvetica,sans-Serif" font-size="10.00" fill="#000000">js_std_dbuf_init</text>
</a>
</g>
</g>
<!-- Node9947&#45;&gt;Node9981 -->
<g id="edge28" class="edge">
<title>Node9947&#45;&gt;Node9981</title>
<path fill="none" stroke="#191970" d="M70.0391,-266.4917C93.962,-241.3272 159.1697,-172.735 189.54,-140.7884"/>
<polygon fill="#191970" stroke="#191970" points="192.1109,-143.1638 196.4643,-133.5047 187.0376,-138.3408 192.1109,-143.1638"/>
</g>
<!-- Node9986 -->
<g id="node28" class="node">
<title>Node9986</title>
<g id="a_node28"><a xlink:href="quickjs-libc_8c.html#ae0b015235e2737bee13533c992f0b71b" target="_top" xlink:title="js_std_file_get">
<polygon fill="none" stroke="#000000" points="165.5,-76.5 165.5,-95.5 245.5,-95.5 245.5,-76.5 165.5,-76.5"/>
<text text-anchor="middle" x="205.5" y="-83.5" font-family="Helvetica,sans-Serif" font-size="10.00" fill="#000000">js_std_file_get</text>
</a>
</g>
</g>
<!-- Node9947&#45;&gt;Node9986 -->
<g id="edge33" class="edge">
<title>Node9947&#45;&gt;Node9986</title>
<path fill="none" stroke="#191970" d="M63.9087,-266.3965C73.0307,-237.8165 103.7461,-152.3598 158,-105 159.7397,-103.4814 161.616,-102.0752 163.5831,-100.7744"/>
<polygon fill="#191970" stroke="#191970" points="165.6165,-103.6481 172.6482,-95.7231 162.2092,-97.5333 165.6165,-103.6481"/>
</g>
<!-- Node9987 -->
<g id="node29" class="node">
<title>Node9987</title>
<g id="a_node29"><a xlink:href="quickjs_8c.html#ad52f50dfe0e0e4aeae7003b97c4c0765" target="_top" xlink:title="JS_ToIndex">
<polygon fill="none" stroke="#000000" points="171,-19.5 171,-38.5 240,-38.5 240,-19.5 171,-19.5"/>
<text text-anchor="middle" x="205.5" y="-26.5" font-family="Helvetica,sans-Serif" font-size="10.00" fill="#000000">JS_ToIndex</text>
</a>
</g>
</g>
<!-- Node9947&#45;&gt;Node9987 -->
<g id="edge34" class="edge">
<title>Node9947&#45;&gt;Node9987</title>
<path fill="none" stroke="#191970" d="M63.709,-266.4076C72.8782,-235.1461 105.1571,-134.3483 158,-67 164.5801,-58.6136 173.3558,-50.9329 181.5727,-44.7053"/>
<polygon fill="#191970" stroke="#191970" points="183.7449,-47.4542 189.8179,-38.7726 179.6565,-41.7722 183.7449,-47.4542"/>
</g>
<!-- Node9950 -->
<g id="node4" class="node">
<title>Node9950</title>
<g id="a_node4"><a xlink:href="cutils_8h.html#ad1cfaae47347ae771136b5a9bbda49aa" target="_top" xlink:title="dbuf_put">
<polygon fill="none" stroke="#000000" points="314.5,-494.5 314.5,-513.5 368.5,-513.5 368.5,-494.5 314.5,-494.5"/>
<text text-anchor="middle" x="341.5" y="-501.5" font-family="Helvetica,sans-Serif" font-size="10.00" fill="#000000">dbuf_put</text>
</a>
</g>
</g>
<!-- Node9949&#45;&gt;Node9950 -->
<g id="edge3" class="edge">
<title>Node9949&#45;&gt;Node9950</title>
<path fill="none" stroke="#191970" d="M235.1296,-359.2082C241.7155,-361.9832 248.1666,-365.7918 253,-371 289.1429,-409.9461 252.2143,-446.6604 289,-485 293.2991,-489.4807 298.7343,-492.9088 304.4676,-495.5303"/>
<polygon fill="#191970" stroke="#191970" points="303.6584,-498.9659 314.2501,-499.2243 306.1313,-492.4173 303.6584,-498.9659"/>
</g>
<!-- Node9951 -->
<g id="node5" class="node">
<title>Node9951</title>
<g id="a_node5"><a xlink:href="cutils_8h.html#ac0b9ce26415947e972d6781d9f2fb11b" target="_top" xlink:title="dbuf_realloc">
<polygon fill="none" stroke="#000000" points="455.5,-494.5 455.5,-513.5 524.5,-513.5 524.5,-494.5 455.5,-494.5"/>
<text text-anchor="middle" x="490" y="-501.5" font-family="Helvetica,sans-Serif" font-size="10.00" fill="#000000">dbuf_realloc</text>
</a>
</g>
</g>
<!-- Node9950&#45;&gt;Node9951 -->
<g id="edge4" class="edge">
<title>Node9950&#45;&gt;Node9951</title>
<path fill="none" stroke="#191970" d="M368.7372,-504C390.0574,-504 420.1628,-504 445.0425,-504"/>
<polygon fill="#191970" stroke="#191970" points="445.3445,-507.5001 455.3444,-504 445.3444,-500.5001 445.3445,-507.5001"/>
</g>
<!-- Node9954 -->
<g id="node8" class="node">
<title>Node9954</title>
<g id="a_node8"><a xlink:href="quickjs_8c.html#a853f0924d441ea4225488f37c8b69f9a" target="_top" xlink:title="__attribute__">
<polygon fill="none" stroke="#000000" points="726,-171.5 726,-190.5 799,-190.5 799,-171.5 726,-171.5"/>
<text text-anchor="middle" x="762.5" y="-178.5" font-family="Helvetica,sans-Serif" font-size="10.00" fill="#000000">__attribute__</text>
</a>
</g>
</g>
<!-- Node9953&#45;&gt;Node9954 -->
<g id="edge7" class="edge">
<title>Node9953&#45;&gt;Node9954</title>
<path fill="none" stroke="#191970" d="M214.7987,-266.3824C229.2713,-252.0085 258.6863,-225.1066 289,-211 432.6706,-144.1423 627.8125,-160.8287 715.9275,-173.2508"/>
<polygon fill="#191970" stroke="#191970" points="715.4807,-176.7226 725.8808,-174.7008 716.4898,-169.7957 715.4807,-176.7226"/>
</g>
<!-- Node9955 -->
<g id="node9" class="node">
<title>Node9955</title>
<g id="a_node9"><a xlink:href="quickjs_8c.html#aa923510185fe24e3083baf7405b09f51" target="_top" xlink:title="js_new_string8">
<polygon fill="none" stroke="#000000" points="300.5,-380.5 300.5,-399.5 382.5,-399.5 382.5,-380.5 300.5,-380.5"/>
<text text-anchor="middle" x="341.5" y="-387.5" font-family="Helvetica,sans-Serif" font-size="10.00" fill="#000000">js_new_string8</text>
</a>
</g>
</g>
<!-- Node9953&#45;&gt;Node9955 -->
<g id="edge8" class="edge">
<title>Node9953&#45;&gt;Node9955</title>
<path fill="none" stroke="#191970" d="M239.0785,-285.6987C244.1326,-288.1693 248.9876,-291.2285 253,-295 280.2333,-320.5985 261.3447,-345.858 289,-371 290.7191,-372.5629 292.5765,-373.9996 294.5312,-375.3202"/>
<polygon fill="#191970" stroke="#191970" points="293.1627,-378.5652 303.598,-380.3968 296.5825,-372.4574 293.1627,-378.5652"/>
</g>
<!-- Node9965 -->
<g id="node12" class="node">
<title>Node9965</title>
<g id="a_node12"><a xlink:href="quickjs_8c.html#a9c11961b0adafedd064b294612d0c2f3" target="_top" xlink:title="string_buffer_init">
<polygon fill="none" stroke="#000000" points="297,-342.5 297,-361.5 386,-361.5 386,-342.5 297,-342.5"/>
<text text-anchor="middle" x="341.5" y="-349.5" font-family="Helvetica,sans-Serif" font-size="10.00" fill="#000000">string_buffer_init</text>
</a>
</g>
</g>
<!-- Node9953&#45;&gt;Node9965 -->
<g id="edge11" class="edge">
<title>Node9953&#45;&gt;Node9965</title>
<path fill="none" stroke="#191970" d="M235.1426,-285.557C241.2994,-288.163 247.5624,-291.3081 253,-295 272.2473,-308.0681 269.538,-320.2538 289,-333 291.9686,-334.9442 295.1618,-336.7209 298.4546,-338.3383"/>
<polygon fill="#191970" stroke="#191970" points="297.3312,-341.6674 307.8947,-342.4811 300.1443,-335.2575 297.3312,-341.6674"/>
</g>
<!-- Node9967 -->
<g id="node14" class="node">
<title>Node9967</title>
<g id="a_node14"><a xlink:href="quickjs_8c.html#a0b130652cf11eb0eb9f7e3ee6c5d7c6a" target="_top" xlink:title="string_buffer_write8">
<polygon fill="none" stroke="#000000" points="439,-228.5 439,-247.5 541,-247.5 541,-228.5 439,-228.5"/>
<text text-anchor="middle" x="490" y="-235.5" font-family="Helvetica,sans-Serif" font-size="10.00" fill="#000000">string_buffer_write8</text>
</a>
</g>
</g>
<!-- Node9953&#45;&gt;Node9967 -->
<g id="edge14" class="edge">
<title>Node9953&#45;&gt;Node9967</title>
<path fill="none" stroke="#191970" d="M242.7082,-266.4484C257.09,-263.0427 273.7332,-259.4479 289,-257 335.6425,-249.5211 388.8809,-244.651 428.8442,-241.7156"/>
<polygon fill="#191970" stroke="#191970" points="429.2404,-245.1963 438.9655,-240.9925 428.7415,-238.2141 429.2404,-245.1963"/>
</g>
<!-- Node9975 -->
<g id="node16" class="node">
<title>Node9975</title>
<g id="a_node16"><a xlink:href="quickjs_8c.html#a874fcee73f61cc997ec1d10cc6711554" target="_top" xlink:title="string_buffer_putc8">
<polygon fill="none" stroke="#000000" points="440,-190.5 440,-209.5 540,-209.5 540,-190.5 440,-190.5"/>
<text text-anchor="middle" x="490" y="-197.5" font-family="Helvetica,sans-Serif" font-size="10.00" fill="#000000">string_buffer_putc8</text>
</a>
</g>
</g>
<!-- Node9953&#45;&gt;Node9975 -->
<g id="edge17" class="edge">
<title>Node9953&#45;&gt;Node9975</title>
<path fill="none" stroke="#191970" d="M224.6313,-266.3747C241.2783,-258.3363 266.2395,-247.0843 289,-240 335.3513,-225.573 389.389,-215.1622 429.7542,-208.5846"/>
<polygon fill="#191970" stroke="#191970" points="430.3861,-212.0281 439.7089,-206.9948 429.2821,-205.1157 430.3861,-212.0281"/>
</g>
<!-- Node9976 -->
<g id="node17" class="node">
<title>Node9976</title>
<g id="a_node17"><a xlink:href="cutils_8h.html#a69529af6d6911dd0ead90eef221b2e10" target="_top" xlink:title="unicode_from_utf8">
<polygon fill="none" stroke="#000000" points="293,-304.5 293,-323.5 390,-323.5 390,-304.5 293,-304.5"/>
<text text-anchor="middle" x="341.5" y="-311.5" font-family="Helvetica,sans-Serif" font-size="10.00" fill="#000000">unicode_from_utf8</text>
</a>
</g>
</g>
<!-- Node9953&#45;&gt;Node9976 -->
<g id="edge19" class="edge">
<title>Node9953&#45;&gt;Node9976</title>
<path fill="none" stroke="#191970" d="M239.8185,-285.589C257.2943,-290.4719 278.7407,-296.4643 297.4251,-301.685"/>
<polygon fill="#191970" stroke="#191970" points="296.6194,-305.0938 307.1924,-304.4141 298.5032,-298.3521 296.6194,-305.0938"/>
</g>
<!-- Node9977 -->
<g id="node18" class="node">
<title>Node9977</title>
<g id="a_node18"><a xlink:href="quickjs_8c.html#a9b8fb6b5ce638616691f7bf7881fa57d" target="_top" xlink:title="string_buffer_putc16">
<polygon fill="none" stroke="#000000" points="289,-266.5 289,-285.5 394,-285.5 394,-266.5 289,-266.5"/>
<text text-anchor="middle" x="341.5" y="-273.5" font-family="Helvetica,sans-Serif" font-size="10.00" fill="#000000">string_buffer_putc16</text>
</a>
</g>
</g>
<!-- Node9953&#45;&gt;Node9977 -->
<g id="edge20" class="edge">
<title>Node9953&#45;&gt;Node9977</title>
<path fill="none" stroke="#191970" d="M253.0662,-276C261.3245,-276 270.026,-276 278.618,-276"/>
<polygon fill="#191970" stroke="#191970" points="278.6208,-279.5001 288.6207,-276 278.6207,-272.5001 278.6208,-279.5001"/>
</g>
<!-- Node9979 -->
<g id="node20" class="node">
<title>Node9979</title>
<g id="a_node20"><a xlink:href="quickjs_8c.html#accfc3d1dcaa88c88402cb245ccaf4fdb" target="_top" xlink:title="string_buffer_end">
<polygon fill="none" stroke="#000000" points="295.5,-418.5 295.5,-437.5 387.5,-437.5 387.5,-418.5 295.5,-418.5"/>
<text text-anchor="middle" x="341.5" y="-425.5" font-family="Helvetica,sans-Serif" font-size="10.00" fill="#000000">string_buffer_end</text>
</a>
</g>
</g>
<!-- Node9953&#45;&gt;Node9979 -->
<g id="edge23" class="edge">
<title>Node9953&#45;&gt;Node9979</title>
<path fill="none" stroke="#191970" d="M240.5015,-285.7397C245.1413,-288.1838 249.4958,-291.224 253,-295 289.1429,-333.9461 252.2143,-370.6604 289,-409 290.3841,-410.4426 291.886,-411.776 293.4776,-413.0086"/>
<polygon fill="#191970" stroke="#191970" points="291.7196,-416.0372 302.0547,-418.3686 295.4293,-410.101 291.7196,-416.0372"/>
</g>
<!-- Node9980 -->
<g id="node22" class="node">
<title>Node9980</title>
<g id="a_node22"><a xlink:href="quickjs_8c.html#a266b4993a59d9e34537386e62b9f3d4f" target="_top" xlink:title="string_buffer_free">
<polygon fill="none" stroke="#000000" points="295.5,-456.5 295.5,-475.5 387.5,-475.5 387.5,-456.5 295.5,-456.5"/>
<text text-anchor="middle" x="341.5" y="-463.5" font-family="Helvetica,sans-Serif" font-size="10.00" fill="#000000">string_buffer_free</text>
</a>
</g>
</g>
<!-- Node9953&#45;&gt;Node9980 -->
<g id="edge26" class="edge">
<title>Node9953&#45;&gt;Node9980</title>
<path fill="none" stroke="#191970" d="M240.7541,-285.5137C245.359,-287.989 249.6366,-291.0981 253,-295 298.3281,-347.5844 242.8036,-395.1768 289,-447 290.1973,-448.3431 291.497,-449.5913 292.8779,-450.7514"/>
<polygon fill="#191970" stroke="#191970" points="291.2577,-453.8762 301.5282,-456.4777 295.1216,-448.0393 291.2577,-453.8762"/>
</g>
<!-- Node9956 -->
<g id="node10" class="node">
<title>Node9956</title>
<g id="a_node10"><a xlink:href="quickjs_8c.html#a260bfa297ff6cb5bd18e229afaa54663" target="_top" xlink:title="JS_AtomToString">
<polygon fill="none" stroke="#ff0000" points="443,-418.5 443,-437.5 537,-437.5 537,-418.5 443,-418.5"/>
<text text-anchor="middle" x="490" y="-425.5" font-family="Helvetica,sans-Serif" font-size="10.00" fill="#000000">JS_AtomToString</text>
</a>
</g>
</g>
<!-- Node9955&#45;&gt;Node9956 -->
<g id="edge9" class="edge">
<title>Node9955&#45;&gt;Node9956</title>
<path fill="none" stroke="#191970" d="M378.9728,-399.589C398.3925,-404.5583 422.3025,-410.6767 442.9542,-415.9613"/>
<polygon fill="#191970" stroke="#191970" points="442.2411,-419.3916 452.7966,-418.4799 443.9765,-412.6101 442.2411,-419.3916"/>
</g>
<!-- Node9962 -->
<g id="node11" class="node">
<title>Node9962</title>
<g id="a_node11"><a xlink:href="quickjs_8c.html#ad303a9bc56766627b5fca41574933930" target="_top" xlink:title="js_alloc_string">
<polygon fill="none" stroke="#ff0000" points="598.5,-361.5 598.5,-380.5 677.5,-380.5 677.5,-361.5 598.5,-361.5"/>
<text text-anchor="middle" x="638" y="-368.5" font-family="Helvetica,sans-Serif" font-size="10.00" fill="#000000">js_alloc_string</text>
</a>
</g>
</g>
<!-- Node9955&#45;&gt;Node9962 -->
<g id="edge10" class="edge">
<title>Node9955&#45;&gt;Node9962</title>
<path fill="none" stroke="#191970" d="M382.7271,-387.3581C436.4659,-383.9145 530.378,-377.8965 588.0842,-374.1986"/>
<polygon fill="#191970" stroke="#191970" points="588.3148,-377.6912 598.0704,-373.5587 587.8671,-370.7055 588.3148,-377.6912"/>
</g>
<!-- Node9966 -->
<g id="node13" class="node">
<title>Node9966</title>
<g id="a_node13"><a xlink:href="quickjs_8c.html#ac43dee2ed14e80248f1af195bd3d8181" target="_top" xlink:title="string_buffer_init2">
<polygon fill="none" stroke="#000000" points="443,-342.5 443,-361.5 537,-361.5 537,-342.5 443,-342.5"/>
<text text-anchor="middle" x="490" y="-349.5" font-family="Helvetica,sans-Serif" font-size="10.00" fill="#000000">string_buffer_init2</text>
</a>
</g>
</g>
<!-- Node9965&#45;&gt;Node9966 -->
<g id="edge12" class="edge">
<title>Node9965&#45;&gt;Node9966</title>
<path fill="none" stroke="#191970" d="M386.0549,-352C400.772,-352 417.3527,-352 432.8769,-352"/>
<polygon fill="#191970" stroke="#191970" points="432.8958,-355.5001 442.8957,-352 432.8957,-348.5001 432.8958,-355.5001"/>
</g>
<!-- Node9966&#45;&gt;Node9962 -->
<g id="edge13" class="edge">
<title>Node9966&#45;&gt;Node9962</title>
<path fill="none" stroke="#191970" d="M537.235,-358.064C553.4881,-360.1505 571.7319,-362.4926 588.1839,-364.6047"/>
<polygon fill="#191970" stroke="#191970" points="587.798,-368.0838 598.1623,-365.8857 588.6894,-361.1408 587.798,-368.0838"/>
</g>
<!-- Node9968 -->
<g id="node15" class="node">
<title>Node9968</title>
<g id="a_node15"><a xlink:href="quickjs_8c.html#a317ccdca83843c76330ace89fb055b56" target="_top" xlink:title="string_buffer_realloc">
<polygon fill="none" stroke="#ff0000" points="586,-209.5 586,-228.5 690,-228.5 690,-209.5 586,-209.5"/>
<text text-anchor="middle" x="638" y="-216.5" font-family="Helvetica,sans-Serif" font-size="10.00" fill="#000000">string_buffer_realloc</text>
</a>
</g>
</g>
<!-- Node9967&#45;&gt;Node9968 -->
<g id="edge15" class="edge">
<title>Node9967&#45;&gt;Node9968</title>
<path fill="none" stroke="#191970" d="M541.3479,-231.408C552.519,-229.9739 564.4523,-228.4419 575.9865,-226.9612"/>
<polygon fill="#191970" stroke="#191970" points="576.5177,-230.4218 585.9906,-225.6769 575.6264,-223.4788 576.5177,-230.4218"/>
</g>
<!-- Node9968&#45;&gt;Node9954 -->
<g id="edge16" class="edge">
<title>Node9968&#45;&gt;Node9954</title>
<path fill="none" stroke="#191970" d="M669.4166,-209.411C685.1935,-204.5956 704.5054,-198.7012 721.4412,-193.532"/>
<polygon fill="#191970" stroke="#191970" points="722.5508,-196.8528 731.0934,-190.5859 720.5073,-190.1577 722.5508,-196.8528"/>
</g>
<!-- Node9975&#45;&gt;Node9968 -->
<g id="edge18" class="edge">
<title>Node9975&#45;&gt;Node9968</title>
<path fill="none" stroke="#191970" d="M540.106,-206.4325C551.6367,-207.9128 564.0344,-209.5044 576.0018,-211.0408"/>
<polygon fill="#191970" stroke="#191970" points="575.5605,-214.5128 585.9248,-212.3147 576.4519,-207.5697 575.5605,-214.5128"/>
</g>
<!-- Node9978 -->
<g id="node19" class="node">
<title>Node9978</title>
<g id="a_node19"><a xlink:href="quickjs_8c.html#a08e52b8382e2347db73c950c39af413c" target="_top" xlink:title="string_buffer_putc_slow">
<polygon fill="none" stroke="#ff0000" points="430,-266.5 430,-285.5 550,-285.5 550,-266.5 430,-266.5"/>
<text text-anchor="middle" x="490" y="-273.5" font-family="Helvetica,sans-Serif" font-size="10.00" fill="#000000">string_buffer_putc_slow</text>
</a>
</g>
</g>
<!-- Node9977&#45;&gt;Node9978 -->
<g id="edge21" class="edge">
<title>Node9977&#45;&gt;Node9978</title>
<path fill="none" stroke="#191970" d="M394.2737,-276C402.5425,-276 411.2001,-276 419.7856,-276"/>
<polygon fill="#191970" stroke="#191970" points="419.8034,-279.5001 429.8034,-276 419.8034,-272.5001 419.8034,-279.5001"/>
</g>
<!-- Node9978&#45;&gt;Node9968 -->
<g id="edge22" class="edge">
<title>Node9978&#45;&gt;Node9968</title>
<path fill="none" stroke="#191970" d="M522.277,-266.4367C531.3115,-263.5823 541.0938,-260.3234 550,-257 569.6802,-249.6562 591.3475,-240.3159 608.2576,-232.7333"/>
<polygon fill="#191970" stroke="#191970" points="609.9453,-235.8114 617.6134,-228.5003 607.0597,-229.4338 609.9453,-235.8114"/>
</g>
<!-- Node9979&#45;&gt;Node9956 -->
<g id="edge25" class="edge">
<title>Node9979&#45;&gt;Node9956</title>
<path fill="none" stroke="#191970" d="M387.6723,-428C401.9229,-428 417.7917,-428 432.6978,-428"/>
<polygon fill="#191970" stroke="#191970" points="432.832,-431.5001 442.832,-428 432.8319,-424.5001 432.832,-431.5001"/>
</g>
<!-- Node9970 -->
<g id="node21" class="node">
<title>Node9970</title>
<g id="a_node21"><a xlink:href="quickjs_8c.html#a80e54dcf9ac687d4ccc2f90273565f30" target="_top" xlink:title="js_free">
<polygon fill="none" stroke="#ff0000" points="467,-456.5 467,-475.5 513,-475.5 513,-456.5 467,-456.5"/>
<text text-anchor="middle" x="490" y="-463.5" font-family="Helvetica,sans-Serif" font-size="10.00" fill="#000000">js_free</text>
</a>
</g>
</g>
<!-- Node9979&#45;&gt;Node9970 -->
<g id="edge24" class="edge">
<title>Node9979&#45;&gt;Node9970</title>
<path fill="none" stroke="#191970" d="M378.9728,-437.589C403.0732,-443.7561 434.0894,-451.6929 457.2109,-457.6095"/>
<polygon fill="#191970" stroke="#191970" points="456.3534,-461.0028 466.9089,-460.0912 458.0888,-454.2213 456.3534,-461.0028"/>
</g>
<!-- Node9980&#45;&gt;Node9970 -->
<g id="edge27" class="edge">
<title>Node9980&#45;&gt;Node9970</title>
<path fill="none" stroke="#191970" d="M387.6723,-466C410.0034,-466 436.3081,-466 456.6553,-466"/>
<polygon fill="#191970" stroke="#191970" points="456.7,-469.5001 466.6999,-466 456.6999,-462.5001 456.7,-469.5001"/>
</g>
<!-- Node9982 -->
<g id="node24" class="node">
<title>Node9982</title>
<g id="a_node24"><a xlink:href="cutils_8h.html#a04e3983476063eb6fbab2fd74fc49fc6" target="_top" xlink:title="dbuf_init2">
<polygon fill="none" stroke="#000000" points="312,-38.5 312,-57.5 371,-57.5 371,-38.5 312,-38.5"/>
<text text-anchor="middle" x="341.5" y="-45.5" font-family="Helvetica,sans-Serif" font-size="10.00" fill="#000000">dbuf_init2</text>
</a>
</g>
</g>
<!-- Node9981&#45;&gt;Node9982 -->
<g id="edge29" class="edge">
<title>Node9981&#45;&gt;Node9982</title>
<path fill="none" stroke="#191970" d="M235.1426,-114.443C241.2994,-111.837 247.5624,-108.6919 253,-105 272.2473,-91.9319 269.538,-79.7462 289,-67 293.0924,-64.3198 297.6117,-61.9579 302.2305,-59.893"/>
<polygon fill="#191970" stroke="#191970" points="303.775,-63.0443 311.746,-56.0647 301.1623,-56.5501 303.775,-63.0443"/>
</g>
<!-- Node9984 -->
<g id="node26" class="node">
<title>Node9984</title>
<g id="a_node26"><a xlink:href="quickjs_8c.html#af1866c7f8a91153f11602a2b521d9399" target="_top" xlink:title="JS_GetRuntime">
<polygon fill="none" stroke="#000000" points="298.5,-114.5 298.5,-133.5 384.5,-133.5 384.5,-114.5 298.5,-114.5"/>
<text text-anchor="middle" x="341.5" y="-121.5" font-family="Helvetica,sans-Serif" font-size="10.00" fill="#000000">JS_GetRuntime</text>
</a>
</g>
</g>
<!-- Node9981&#45;&gt;Node9984 -->
<g id="edge31" class="edge">
<title>Node9981&#45;&gt;Node9984</title>
<path fill="none" stroke="#191970" d="M248.1581,-124C260.6974,-124 274.5784,-124 287.7179,-124"/>
<polygon fill="#191970" stroke="#191970" points="288.0568,-127.5001 298.0568,-124 288.0568,-120.5001 288.0568,-127.5001"/>
</g>
<!-- Node9985 -->
<g id="node27" class="node">
<title>Node9985</title>
<g id="a_node27"><a xlink:href="quickjs_8c.html#aa548c4ad5eacef7d9508100cfe6f6871" target="_top" xlink:title="js_realloc_rt">
<polygon fill="none" stroke="#000000" points="307,-76.5 307,-95.5 376,-95.5 376,-76.5 307,-76.5"/>
<text text-anchor="middle" x="341.5" y="-83.5" font-family="Helvetica,sans-Serif" font-size="10.00" fill="#000000">js_realloc_rt</text>
</a>
</g>
</g>
<!-- Node9981&#45;&gt;Node9985 -->
<g id="edge32" class="edge">
<title>Node9981&#45;&gt;Node9985</title>
<path fill="none" stroke="#191970" d="M239.8185,-114.411C257.2943,-109.5281 278.7407,-103.5357 297.4251,-98.315"/>
<polygon fill="#191970" stroke="#191970" points="298.5032,-101.6479 307.1924,-95.5859 296.6194,-94.9062 298.5032,-101.6479"/>
</g>
<!-- Node9983 -->
<g id="node25" class="node">
<title>Node9983</title>
<g id="a_node25"><a xlink:href="cutils_8c.html#abb5d9de84cd0caedf89814f555ab5d1a" target="_top" xlink:title="dbuf_default_realloc">
<polygon fill="none" stroke="#000000" points="438,-38.5 438,-57.5 542,-57.5 542,-38.5 438,-38.5"/>
<text text-anchor="middle" x="490" y="-45.5" font-family="Helvetica,sans-Serif" font-size="10.00" fill="#000000">dbuf_default_realloc</text>
</a>
</g>
</g>
<!-- Node9982&#45;&gt;Node9983 -->
<g id="edge30" class="edge">
<title>Node9982&#45;&gt;Node9983</title>
<path fill="none" stroke="#191970" d="M371.1943,-48C387.4116,-48 408.1289,-48 427.7072,-48"/>
<polygon fill="#191970" stroke="#191970" points="427.8117,-51.5001 437.8117,-48 427.8116,-44.5001 427.8117,-51.5001"/>
</g>
<!-- Node9988 -->
<g id="node30" class="node">
<title>Node9988</title>
<g id="a_node30"><a xlink:href="quickjs_8c.html#aee6a60a9e9f3c0d9827d5cb0e15c23b4" target="_top" xlink:title="JS_ToInt64Sat">
<polygon fill="none" stroke="#ff0000" points="300.5,-.5 300.5,-19.5 382.5,-19.5 382.5,-.5 300.5,-.5"/>
<text text-anchor="middle" x="341.5" y="-7.5" font-family="Helvetica,sans-Serif" font-size="10.00" fill="#000000">JS_ToInt64Sat</text>
</a>
</g>
</g>
<!-- Node9987&#45;&gt;Node9988 -->
<g id="edge35" class="edge">
<title>Node9987&#45;&gt;Node9988</title>
<path fill="none" stroke="#191970" d="M240.1704,-24.1563C255.2903,-22.044 273.3309,-19.5236 289.9713,-17.1989"/>
<polygon fill="#191970" stroke="#191970" points="290.6932,-20.6321 300.1127,-15.7821 289.7246,-13.6994 290.6932,-20.6321"/>
</g>
</g>
</svg>
        <g id="navigator" transform="translate(0 0)" fill="#404254">
                <rect fill="#f2f5e9" fill-opacity="0.5" stroke="#606060" stroke-width=".5" x="0" y="0" width="60" height="60"/>
                <use id="zoomplus" xlink:href="#zoomPlus" x="17" y="9" onmousedown="handleZoom(evt,'in')"/>
                <use id="zoomminus" xlink:href="#zoomMin" x="42" y="9" onmousedown="handleZoom(evt,'out')"/>
                <use id="reset" xlink:href="#resetDef" x="30" y="36" onmousedown="handleReset()"/>
                <g id="arrowUp" xlink:href="#dirArrow" transform="translate(30 24)" onmousedown="handlePan(0,-1)">
                  <use xlink:href="#rim" fill="#404040">
                        <set attributeName="fill" to="#808080" begin="arrowUp.mouseover" end="arrowUp.mouseout"/>
                  </use>
                  <path fill="none" stroke="white" stroke-width="1.5" d="M0,-3.0v7 M-2.5,-0.5L0,-3.0L2.5,-0.5"/>
                </g>
                <g id="arrowRight" xlink:href="#dirArrow" transform="rotate(90) translate(36 -43)" onmousedown="handlePan(1,0)">
                  <use xlink:href="#rim" fill="#404040">
                        <set attributeName="fill" to="#808080" begin="arrowRight.mouseover" end="arrowRight.mouseout"/>
                  </use>
                  <path fill="none" stroke="white" stroke-width="1.5" d="M0,-3.0v7 M-2.5,-0.5L0,-3.0L2.5,-0.5"/>
                </g>
                <g id="arrowDown" xlink:href="#dirArrow" transform="rotate(180) translate(-30 -48)" onmousedown="handlePan(0,1)">
                  <use xlink:href="#rim" fill="#404040">
                        <set attributeName="fill" to="#808080" begin="arrowDown.mouseover" end="arrowDown.mouseout"/>
                  </use>
                  <path fill="none" stroke="white" stroke-width="1.5" d="M0,-3.0v7 M-2.5,-0.5L0,-3.0L2.5,-0.5"/>
                </g>
                <g id="arrowLeft" xlink:href="#dirArrow" transform="rotate(270) translate(-36 17)" onmousedown="handlePan(-1,0)">
                  <use xlink:href="#rim" fill="#404040">
                        <set attributeName="fill" to="#808080" begin="arrowLeft.mouseover" end="arrowLeft.mouseout"/>
                  </use>
                  <path fill="none" stroke="white" stroke-width="1.5" d="M0,-3.0v7 M-2.5,-0.5L0,-3.0L2.5,-0.5"/>
                </g>
        </g>
        <svg viewBox="0 0 15 15" width="100%" height="30px" preserveAspectRatio="xMaxYMin meet">
         <g id="arrow_out" transform="scale(0.3 0.3)">
          <a xlink:href="quickjs-libc_8c_ae8abf0c32bf9b0acd85adffaf8345dfe_cgraph_org.svg" target="_base">
           <rect id="button" ry="5" rx="5" y="6" x="6" height="38" width="38"
                fill="#f2f5e9" fill-opacity="0.5" stroke="#606060" stroke-width="1.0"/>
           <path id="arrow"
             d="M 11.500037,31.436501 C 11.940474,20.09759 22.043105,11.32322 32.158766,21.979434 L 37.068811,17.246167 C 37.068811,17.246167 37.088388,32 37.088388,32 L 22.160133,31.978069 C 22.160133,31.978069 26.997745,27.140456 26.997745,27.140456 C 18.528582,18.264221 13.291696,25.230495 11.500037,31.436501 z"
             style="fill:#404040;"/>
          </a>
         </g>
        </svg>
</svg>
