<?xml version="1.0" encoding="UTF-8" standalone="no"?>
<!DOCTYPE svg PUBLIC "-//W3C//DTD SVG 1.1//EN"
 "http://www.w3.org/Graphics/SVG/1.1/DTD/svg11.dtd">
<!-- Generated by graphviz version 2.40.1 (20161225.0304)
 -->
<!-- Title: JS_ToInt64 Pages: 1 -->
<svg width="453pt" height="180pt"
 viewBox="0.00 0.00 453.00 180.00" xmlns="http://www.w3.org/2000/svg" xmlns:xlink="http://www.w3.org/1999/xlink">
<g id="graph0" class="graph" transform="scale(1 1) rotate(0) translate(4 176)">
<title>JS_ToInt64</title>
<!-- Node240888 -->
<g id="node1" class="node">
<title>Node240888</title>
<polygon fill="#bfbfbf" stroke="#000000" points="0,-95.5 0,-114.5 67,-114.5 67,-95.5 0,-95.5"/>
<text text-anchor="middle" x="33.5" y="-102.5" font-family="Helvetica,sans-Serif" font-size="10.00" fill="#000000">JS_ToInt64</text>
</g>
<!-- Node240889 -->
<g id="node2" class="node">
<title>Node240889</title>
<g id="a_node2"><a xlink:href="quickjs-libc_8c.html#acd6d7f2e207ed1d263e55bed721a7288" target="_top" xlink:title="js_os_setTimeout">
<polygon fill="none" stroke="#000000" points="103,-152.5 103,-171.5 197,-171.5 197,-152.5 103,-152.5"/>
<text text-anchor="middle" x="150" y="-159.5" font-family="Helvetica,sans-Serif" font-size="10.00" fill="#000000">js_os_setTimeout</text>
</a>
</g>
</g>
<!-- Node240888&#45;&gt;Node240889 -->
<g id="edge1" class="edge">
<title>Node240888&#45;&gt;Node240889</title>
<path fill="none" stroke="#191970" d="M58.6476,-119.6701C71.6925,-127.0432 87.9982,-135.896 103,-143 109.9999,-146.3148 117.7411,-149.5958 124.8868,-152.4745"/>
<polygon fill="#191970" stroke="#191970" points="60.2093,-116.5315 49.7903,-114.609 56.7364,-122.6092 60.2093,-116.5315"/>
</g>
<!-- Node240890 -->
<g id="node3" class="node">
<title>Node240890</title>
<g id="a_node3"><a xlink:href="quickjs-libc_8c.html#ac6c57d6d76a5e1581e1ce9fa60f8e60a" target="_top" xlink:title="js_os_sleep">
<polygon fill="none" stroke="#000000" points="116,-114.5 116,-133.5 184,-133.5 184,-114.5 116,-114.5"/>
<text text-anchor="middle" x="150" y="-121.5" font-family="Helvetica,sans-Serif" font-size="10.00" fill="#000000">js_os_sleep</text>
</a>
</g>
</g>
<!-- Node240888&#45;&gt;Node240890 -->
<g id="edge2" class="edge">
<title>Node240888&#45;&gt;Node240890</title>
<path fill="none" stroke="#191970" d="M77.2111,-112.1288C90.031,-114.2196 103.8547,-116.4742 115.9755,-118.4509"/>
<polygon fill="#191970" stroke="#191970" points="77.6296,-108.6509 67.1966,-110.4956 76.5028,-115.5597 77.6296,-108.6509"/>
</g>
<!-- Node240891 -->
<g id="node4" class="node">
<title>Node240891</title>
<g id="a_node4"><a xlink:href="quickjs-libc_8c.html#a75a026899e6e503ad72d190af515069e" target="_top" xlink:title="js_os_utimes">
<polygon fill="none" stroke="#000000" points="113,-76.5 113,-95.5 187,-95.5 187,-76.5 113,-76.5"/>
<text text-anchor="middle" x="150" y="-83.5" font-family="Helvetica,sans-Serif" font-size="10.00" fill="#000000">js_os_utimes</text>
</a>
</g>
</g>
<!-- Node240888&#45;&gt;Node240891 -->
<g id="edge3" class="edge">
<title>Node240888&#45;&gt;Node240891</title>
<path fill="none" stroke="#191970" d="M77.1977,-97.8733C88.8813,-95.9679 101.3995,-93.9263 112.7031,-92.0828"/>
<polygon fill="#191970" stroke="#191970" points="76.5028,-94.4403 67.1966,-99.5044 77.6296,-101.3491 76.5028,-94.4403"/>
</g>
<!-- Node240892 -->
<g id="node5" class="node">
<title>Node240892</title>
<g id="a_node5"><a xlink:href="quickjs_8c.html#acbddbd012155853a1d93ae7bb4055f0d" target="_top" xlink:title="JS_ToInt64Ext">
<polygon fill="none" stroke="#000000" points="109,-38.5 109,-57.5 191,-57.5 191,-38.5 109,-38.5"/>
<text text-anchor="middle" x="150" y="-45.5" font-family="Helvetica,sans-Serif" font-size="10.00" fill="#000000">JS_ToInt64Ext</text>
</a>
</g>
</g>
<!-- Node240888&#45;&gt;Node240892 -->
<g id="edge4" class="edge">
<title>Node240888&#45;&gt;Node240892</title>
<path fill="none" stroke="#191970" d="M58.6476,-90.3299C71.6925,-82.9568 87.9982,-74.104 103,-67 109.9999,-63.6852 117.7411,-60.4042 124.8868,-57.5255"/>
<polygon fill="#191970" stroke="#191970" points="56.7364,-87.3908 49.7903,-95.391 60.2093,-93.4685 56.7364,-87.3908"/>
</g>
<!-- Node240893 -->
<g id="node6" class="node">
<title>Node240893</title>
<g id="a_node6"><a xlink:href="quickjs-libc_8c.html#a2abec3aeee82a6dd3dd063725bbeecfe" target="_top" xlink:title="js_printf_internal">
<polygon fill="none" stroke="#000000" points="233,-76.5 233,-95.5 321,-95.5 321,-76.5 233,-76.5"/>
<text text-anchor="middle" x="277" y="-83.5" font-family="Helvetica,sans-Serif" font-size="10.00" fill="#000000">js_printf_internal</text>
</a>
</g>
</g>
<!-- Node240892&#45;&gt;Node240893 -->
<g id="edge5" class="edge">
<title>Node240892&#45;&gt;Node240893</title>
<path fill="none" stroke="#191970" d="M191.8943,-60.5353C209.1712,-65.7048 228.8707,-71.5991 244.9628,-76.4141"/>
<polygon fill="#191970" stroke="#191970" points="192.6311,-57.1025 182.0475,-57.589 190.6245,-63.8088 192.6311,-57.1025"/>
</g>
<!-- Node240897 -->
<g id="node10" class="node">
<title>Node240897</title>
<g id="a_node10"><a xlink:href="quickjs-libc_8c.html#ab4e00836dd0e1609a2b081eb5e335df9" target="_top" xlink:title="js_std_file_seek">
<polygon fill="none" stroke="#000000" points="233.5,-38.5 233.5,-57.5 320.5,-57.5 320.5,-38.5 233.5,-38.5"/>
<text text-anchor="middle" x="277" y="-45.5" font-family="Helvetica,sans-Serif" font-size="10.00" fill="#000000">js_std_file_seek</text>
</a>
</g>
</g>
<!-- Node240892&#45;&gt;Node240897 -->
<g id="edge9" class="edge">
<title>Node240892&#45;&gt;Node240897</title>
<path fill="none" stroke="#191970" d="M201.2496,-48C211.892,-48 223.0117,-48 233.3507,-48"/>
<polygon fill="#191970" stroke="#191970" points="201.2333,-44.5001 191.2333,-48 201.2332,-51.5001 201.2333,-44.5001"/>
</g>
<!-- Node240898 -->
<g id="node11" class="node">
<title>Node240898</title>
<g id="a_node11"><a xlink:href="quickjs-libc_8c.html#a06fb885216567f06919c7bbe0436234a" target="_top" xlink:title="js_os_seek">
<polygon fill="none" stroke="#000000" points="244,-.5 244,-19.5 310,-19.5 310,-.5 244,-.5"/>
<text text-anchor="middle" x="277" y="-7.5" font-family="Helvetica,sans-Serif" font-size="10.00" fill="#000000">js_os_seek</text>
</a>
</g>
</g>
<!-- Node240892&#45;&gt;Node240898 -->
<g id="edge10" class="edge">
<title>Node240892&#45;&gt;Node240898</title>
<path fill="none" stroke="#191970" d="M191.8943,-35.4647C209.1712,-30.2952 228.8707,-24.4009 244.9628,-19.5859"/>
<polygon fill="#191970" stroke="#191970" points="190.6245,-32.1912 182.0475,-38.411 192.6311,-38.8975 190.6245,-32.1912"/>
</g>
<!-- Node240894 -->
<g id="node7" class="node">
<title>Node240894</title>
<g id="a_node7"><a xlink:href="quickjs-libc_8c.html#a2770356a19e5d09edcb7da0cecbfe0f8" target="_top" xlink:title="js_std_file_printf">
<polygon fill="none" stroke="#000000" points="357,-114.5 357,-133.5 445,-133.5 445,-114.5 357,-114.5"/>
<text text-anchor="middle" x="401" y="-121.5" font-family="Helvetica,sans-Serif" font-size="10.00" fill="#000000">js_std_file_printf</text>
</a>
</g>
</g>
<!-- Node240893&#45;&gt;Node240894 -->
<g id="edge6" class="edge">
<title>Node240893&#45;&gt;Node240894</title>
<path fill="none" stroke="#191970" d="M317.9047,-98.5353C334.7734,-103.7048 354.0076,-109.5991 369.7196,-114.4141"/>
<polygon fill="#191970" stroke="#191970" points="318.8771,-95.1727 308.2904,-95.589 316.826,-101.8655 318.8771,-95.1727"/>
</g>
<!-- Node240895 -->
<g id="node8" class="node">
<title>Node240895</title>
<g id="a_node8"><a xlink:href="quickjs-libc_8c.html#a6f5e9fa6d24e8fabd0b97f88179c1b29" target="_top" xlink:title="js_std_printf">
<polygon fill="none" stroke="#000000" points="366,-76.5 366,-95.5 436,-95.5 436,-76.5 366,-76.5"/>
<text text-anchor="middle" x="401" y="-83.5" font-family="Helvetica,sans-Serif" font-size="10.00" fill="#000000">js_std_printf</text>
</a>
</g>
</g>
<!-- Node240893&#45;&gt;Node240895 -->
<g id="edge7" class="edge">
<title>Node240893&#45;&gt;Node240895</title>
<path fill="none" stroke="#191970" d="M331.1845,-86C342.856,-86 354.9029,-86 365.6351,-86"/>
<polygon fill="#191970" stroke="#191970" points="331.0669,-82.5001 321.0669,-86 331.0669,-89.5001 331.0669,-82.5001"/>
</g>
<!-- Node240896 -->
<g id="node9" class="node">
<title>Node240896</title>
<g id="a_node9"><a xlink:href="quickjs-libc_8c.html#ac49c945b1cbeb056236cfb479ec1ffd5" target="_top" xlink:title="js_std_sprintf">
<polygon fill="none" stroke="#000000" points="363.5,-38.5 363.5,-57.5 438.5,-57.5 438.5,-38.5 363.5,-38.5"/>
<text text-anchor="middle" x="401" y="-45.5" font-family="Helvetica,sans-Serif" font-size="10.00" fill="#000000">js_std_sprintf</text>
</a>
</g>
</g>
<!-- Node240893&#45;&gt;Node240896 -->
<g id="edge8" class="edge">
<title>Node240893&#45;&gt;Node240896</title>
<path fill="none" stroke="#191970" d="M317.9047,-73.4647C334.7734,-68.2952 354.0076,-62.4009 369.7196,-57.5859"/>
<polygon fill="#191970" stroke="#191970" points="316.826,-70.1345 308.2904,-76.411 318.8771,-76.8273 316.826,-70.1345"/>
</g>
</g>
</svg>
