<?xml version="1.0" encoding="UTF-8" standalone="no"?>
<!DOCTYPE svg PUBLIC "-//W3C//DTD SVG 1.1//EN"
 "http://www.w3.org/Graphics/SVG/1.1/DTD/svg11.dtd">
<!-- Generated by graphviz version 2.40.1 (20161225.0304)
 -->
<!-- Title: js_shr_slow Pages: 1 -->
<svg width="476pt" height="161pt"
 viewBox="0.00 0.00 476.00 161.00" xmlns="http://www.w3.org/2000/svg" xmlns:xlink="http://www.w3.org/1999/xlink">
<g id="graph0" class="graph" transform="scale(1 1) rotate(0) translate(4 157)">
<title>js_shr_slow</title>
<!-- Node263327 -->
<g id="node1" class="node">
<title>Node263327</title>
<polygon fill="#bfbfbf" stroke="#000000" points="0,-85.5 0,-104.5 68,-104.5 68,-85.5 0,-85.5"/>
<text text-anchor="middle" x="34" y="-92.5" font-family="Helvetica,sans-Serif" font-size="10.00" fill="#000000">js_shr_slow</text>
</g>
<!-- Node263328 -->
<g id="node2" class="node">
<title>Node263328</title>
<g id="a_node2"><a xlink:href="quickjs_8h.html#afaa20c47565bc704c6c85f3d77254e7d" target="_top" xlink:title="JS_FreeValue">
<polygon fill="none" stroke="#000000" points="111.5,-128.5 111.5,-147.5 189.5,-147.5 189.5,-128.5 111.5,-128.5"/>
<text text-anchor="middle" x="150.5" y="-135.5" font-family="Helvetica,sans-Serif" font-size="10.00" fill="#000000">JS_FreeValue</text>
</a>
</g>
</g>
<!-- Node263327&#45;&gt;Node263328 -->
<g id="edge1" class="edge">
<title>Node263327&#45;&gt;Node263328</title>
<path fill="none" stroke="#191970" d="M59.8551,-104.5431C76.1446,-110.5555 97.3899,-118.3971 115.2176,-124.9773"/>
<polygon fill="#191970" stroke="#191970" points="114.1238,-128.3043 124.7171,-128.4836 116.5477,-121.7374 114.1238,-128.3043"/>
</g>
<!-- Node263365 -->
<g id="node5" class="node">
<title>Node263365</title>
<g id="a_node5"><a xlink:href="quickjs_8h.html#a88259aa0da61ac754402c64ccecee116" target="_top" xlink:title="JS_NewUint32">
<polygon fill="none" stroke="#000000" points="109,-85.5 109,-104.5 192,-104.5 192,-85.5 109,-85.5"/>
<text text-anchor="middle" x="150.5" y="-92.5" font-family="Helvetica,sans-Serif" font-size="10.00" fill="#000000">JS_NewUint32</text>
</a>
</g>
</g>
<!-- Node263327&#45;&gt;Node263365 -->
<g id="edge4" class="edge">
<title>Node263327&#45;&gt;Node263365</title>
<path fill="none" stroke="#191970" d="M68.0098,-95C77.5803,-95 88.2133,-95 98.5761,-95"/>
<polygon fill="#191970" stroke="#191970" points="98.7995,-98.5001 108.7994,-95 98.7994,-91.5001 98.7995,-98.5001"/>
</g>
<!-- Node263368 -->
<g id="node8" class="node">
<title>Node263368</title>
<g id="a_node8"><a xlink:href="quickjs_8c.html#abb4af1ff2252e70ad0e5a9c25550f548" target="_top" xlink:title="JS_ToUint32Free">
<polygon fill="none" stroke="#000000" points="104,-38.5 104,-57.5 197,-57.5 197,-38.5 104,-38.5"/>
<text text-anchor="middle" x="150.5" y="-45.5" font-family="Helvetica,sans-Serif" font-size="10.00" fill="#000000">JS_ToUint32Free</text>
</a>
</g>
</g>
<!-- Node263327&#45;&gt;Node263368 -->
<g id="edge7" class="edge">
<title>Node263327&#45;&gt;Node263368</title>
<path fill="none" stroke="#191970" d="M57.5755,-85.4888C74.6743,-78.5906 98.0403,-69.164 117.0637,-61.4893"/>
<polygon fill="#191970" stroke="#191970" points="118.5954,-64.6455 126.5597,-57.6583 115.9764,-58.1539 118.5954,-64.6455"/>
</g>
<!-- Node263329 -->
<g id="node3" class="node">
<title>Node263329</title>
<g id="a_node3"><a xlink:href="quickjs_8c.html#aa059f309c30fd5166d16c82a97973146" target="_top" xlink:title="__JS_FreeValue">
<polygon fill="none" stroke="#000000" points="237,-133.5 237,-152.5 326,-152.5 326,-133.5 237,-133.5"/>
<text text-anchor="middle" x="281.5" y="-140.5" font-family="Helvetica,sans-Serif" font-size="10.00" fill="#000000">__JS_FreeValue</text>
</a>
</g>
</g>
<!-- Node263328&#45;&gt;Node263329 -->
<g id="edge2" class="edge">
<title>Node263328&#45;&gt;Node263329</title>
<path fill="none" stroke="#191970" d="M189.8043,-139.5002C201.3446,-139.9406 214.1837,-140.4307 226.5127,-140.9012"/>
<polygon fill="#191970" stroke="#191970" points="226.583,-144.4064 236.7093,-141.2904 226.8501,-137.4115 226.583,-144.4064"/>
</g>
<!-- Node263330 -->
<g id="node4" class="node">
<title>Node263330</title>
<g id="a_node4"><a xlink:href="quickjs_8c.html#ab1ea3fad7d138be12144a38be4d36423" target="_top" xlink:title="__JS_FreeValueRT">
<polygon fill="none" stroke="#ff0000" points="366,-133.5 366,-152.5 468,-152.5 468,-133.5 366,-133.5"/>
<text text-anchor="middle" x="417" y="-140.5" font-family="Helvetica,sans-Serif" font-size="10.00" fill="#000000">__JS_FreeValueRT</text>
</a>
</g>
</g>
<!-- Node263329&#45;&gt;Node263330 -->
<g id="edge3" class="edge">
<title>Node263329&#45;&gt;Node263330</title>
<path fill="none" stroke="#191970" d="M326.2433,-143C335.6261,-143 345.677,-143 355.548,-143"/>
<polygon fill="#191970" stroke="#191970" points="355.7341,-146.5001 365.734,-143 355.734,-139.5001 355.7341,-146.5001"/>
</g>
<!-- Node263366 -->
<g id="node6" class="node">
<title>Node263366</title>
<g id="a_node6"><a xlink:href="quickjs_8h.html#a2050bc428da1c65ac7eb87c3fa3b0392" target="_top" xlink:title="JS_NewInt32">
<polygon fill="none" stroke="#000000" points="243.5,-95.5 243.5,-114.5 319.5,-114.5 319.5,-95.5 243.5,-95.5"/>
<text text-anchor="middle" x="281.5" y="-102.5" font-family="Helvetica,sans-Serif" font-size="10.00" fill="#000000">JS_NewInt32</text>
</a>
</g>
</g>
<!-- Node263365&#45;&gt;Node263366 -->
<g id="edge5" class="edge">
<title>Node263365&#45;&gt;Node263366</title>
<path fill="none" stroke="#191970" d="M192.3094,-98.1916C205.3173,-99.1845 219.7658,-100.2875 233.18,-101.3114"/>
<polygon fill="#191970" stroke="#191970" points="232.9578,-104.8046 243.1952,-102.076 233.4907,-97.8249 232.9578,-104.8046"/>
</g>
<!-- Node263367 -->
<g id="node7" class="node">
<title>Node263367</title>
<g id="a_node7"><a xlink:href="quickjs_8h.html#a9bf98b18de88b4199910a43e933eb97d" target="_top" xlink:title="__JS_NewFloat64">
<polygon fill="none" stroke="#000000" points="233,-57.5 233,-76.5 330,-76.5 330,-57.5 233,-57.5"/>
<text text-anchor="middle" x="281.5" y="-64.5" font-family="Helvetica,sans-Serif" font-size="10.00" fill="#000000">__JS_NewFloat64</text>
</a>
</g>
</g>
<!-- Node263365&#45;&gt;Node263367 -->
<g id="edge6" class="edge">
<title>Node263365&#45;&gt;Node263367</title>
<path fill="none" stroke="#191970" d="M192.3094,-86.0636C203.3131,-83.7117 215.3477,-81.1394 226.915,-78.667"/>
<polygon fill="#191970" stroke="#191970" points="227.8748,-82.041 236.9223,-76.5281 226.4116,-75.1956 227.8748,-82.041"/>
</g>
<!-- Node263369 -->
<g id="node9" class="node">
<title>Node263369</title>
<g id="a_node9"><a xlink:href="quickjs_8c.html#a643088ab23784b7f3c6ff94c37228256" target="_top" xlink:title="JS_ToInt32Free">
<polygon fill="none" stroke="#000000" points="238.5,-19.5 238.5,-38.5 324.5,-38.5 324.5,-19.5 238.5,-19.5"/>
<text text-anchor="middle" x="281.5" y="-26.5" font-family="Helvetica,sans-Serif" font-size="10.00" fill="#000000">JS_ToInt32Free</text>
</a>
</g>
</g>
<!-- Node263368&#45;&gt;Node263369 -->
<g id="edge8" class="edge">
<title>Node263368&#45;&gt;Node263369</title>
<path fill="none" stroke="#191970" d="M197.0546,-41.2478C207.0929,-39.7919 217.7809,-38.2417 228.0586,-36.751"/>
<polygon fill="#191970" stroke="#191970" points="228.7662,-40.1851 238.1603,-35.2859 227.7614,-33.2576 228.7662,-40.1851"/>
</g>
<!-- Node263370 -->
<g id="node10" class="node">
<title>Node263370</title>
<g id="a_node10"><a xlink:href="quickjs_8h.html#ad80a83d73e9b7d872b88fbf2943aebe9" target="_top" xlink:title="JS_IsException">
<polygon fill="none" stroke="#000000" points="374,-38.5 374,-57.5 460,-57.5 460,-38.5 374,-38.5"/>
<text text-anchor="middle" x="417" y="-45.5" font-family="Helvetica,sans-Serif" font-size="10.00" fill="#000000">JS_IsException</text>
</a>
</g>
</g>
<!-- Node263369&#45;&gt;Node263370 -->
<g id="edge9" class="edge">
<title>Node263369&#45;&gt;Node263370</title>
<path fill="none" stroke="#191970" d="M324.7456,-35.064C337.0906,-36.795 350.6901,-38.7019 363.5666,-40.5075"/>
<polygon fill="#191970" stroke="#191970" points="363.3113,-44.0059 373.7005,-41.9285 364.2834,-37.0737 363.3113,-44.0059"/>
</g>
<!-- Node263371 -->
<g id="node11" class="node">
<title>Node263371</title>
<g id="a_node11"><a xlink:href="quickjs_8c.html#ae738291483438efefca5c9fa4d269504" target="_top" xlink:title="JS_ToNumberFree">
<polygon fill="none" stroke="#ff0000" points="367.5,-.5 367.5,-19.5 466.5,-19.5 466.5,-.5 367.5,-.5"/>
<text text-anchor="middle" x="417" y="-7.5" font-family="Helvetica,sans-Serif" font-size="10.00" fill="#000000">JS_ToNumberFree</text>
</a>
</g>
</g>
<!-- Node263369&#45;&gt;Node263371 -->
<g id="edge10" class="edge">
<title>Node263369&#45;&gt;Node263371</title>
<path fill="none" stroke="#191970" d="M324.7456,-22.936C335.0635,-21.4892 346.2578,-19.9196 357.1739,-18.3889"/>
<polygon fill="#191970" stroke="#191970" points="357.6705,-21.8536 367.0875,-16.9988 356.6984,-14.9214 357.6705,-21.8536"/>
</g>
</g>
</svg>
