<?xml version="1.0" encoding="UTF-8" standalone="no"?>
<!DOCTYPE svg PUBLIC "-//W3C//DTD SVG 1.1//EN"
 "http://www.w3.org/Graphics/SVG/1.1/DTD/svg11.dtd">
<!-- Generated by graphviz version 2.40.1 (20161225.0304)
 -->
<!-- Title: JS_ThrowError Pages: 1 -->
<svg width="925pt" height="274pt"
 viewBox="0.00 0.00 925.00 274.00" xmlns="http://www.w3.org/2000/svg" xmlns:xlink="http://www.w3.org/1999/xlink">
<g id="graph0" class="graph" transform="scale(1 1) rotate(0) translate(4 270)">
<title>JS_ThrowError</title>
<!-- Node165594 -->
<g id="node1" class="node">
<title>Node165594</title>
<polygon fill="#bfbfbf" stroke="#000000" points="0,-104.5 0,-123.5 82,-123.5 82,-104.5 0,-104.5"/>
<text text-anchor="middle" x="41" y="-111.5" font-family="Helvetica,sans-Serif" font-size="10.00" fill="#000000">JS_ThrowError</text>
</g>
<!-- Node165595 -->
<g id="node2" class="node">
<title>Node165595</title>
<g id="a_node2"><a xlink:href="quickjs_8c.html#a014abd680db53ab89cb133345742a59c" target="_top" xlink:title="__attribute__">
<polygon fill="none" stroke="#000000" points="118,-104.5 118,-123.5 191,-123.5 191,-104.5 118,-104.5"/>
<text text-anchor="middle" x="154.5" y="-111.5" font-family="Helvetica,sans-Serif" font-size="10.00" fill="#000000">__attribute__</text>
</a>
</g>
</g>
<!-- Node165594&#45;&gt;Node165595 -->
<g id="edge1" class="edge">
<title>Node165594&#45;&gt;Node165595</title>
<path fill="none" stroke="#191970" d="M92.3126,-114C100.952,-114 109.761,-114 117.9289,-114"/>
<polygon fill="#191970" stroke="#191970" points="92.2972,-110.5001 82.2972,-114 92.2971,-117.5001 92.2972,-110.5001"/>
</g>
<!-- Node165596 -->
<g id="node3" class="node">
<title>Node165596</title>
<g id="a_node3"><a xlink:href="quickjs_8c.html#aeb73aae9c3ad7daaf7646e3f2f89245a" target="_top" xlink:title="set_array_length">
<polygon fill="none" stroke="#000000" points="232.5,-104.5 232.5,-123.5 321.5,-123.5 321.5,-104.5 232.5,-104.5"/>
<text text-anchor="middle" x="277" y="-111.5" font-family="Helvetica,sans-Serif" font-size="10.00" fill="#000000">set_array_length</text>
</a>
</g>
</g>
<!-- Node165595&#45;&gt;Node165596 -->
<g id="edge2" class="edge">
<title>Node165595&#45;&gt;Node165596</title>
<path fill="none" stroke="#191970" d="M201.2626,-114C211.5082,-114 222.3275,-114 232.4823,-114"/>
<polygon fill="#191970" stroke="#191970" points="201.2541,-110.5001 191.254,-114 201.254,-117.5001 201.2541,-110.5001"/>
</g>
<!-- Node165597 -->
<g id="node4" class="node">
<title>Node165597</title>
<g id="a_node4"><a xlink:href="quickjs_8c.html#ad7f03358a8088ca920ab308225c6b2e6" target="_top" xlink:title="JS_SetPropertyInternal">
<polygon fill="none" stroke="#ff0000" points="363,-142.5 363,-161.5 481,-161.5 481,-142.5 363,-142.5"/>
<text text-anchor="middle" x="422" y="-149.5" font-family="Helvetica,sans-Serif" font-size="10.00" fill="#000000">JS_SetPropertyInternal</text>
</a>
</g>
</g>
<!-- Node165595&#45;&gt;Node165597 -->
<g id="edge12" class="edge">
<title>Node165595&#45;&gt;Node165597</title>
<path fill="none" stroke="#191970" d="M196.1319,-126.1216C206.171,-128.7076 216.9127,-131.1986 227,-133 272.2044,-141.0726 323.9601,-145.9149 362.7866,-148.6889"/>
<polygon fill="#191970" stroke="#191970" points="196.9411,-122.7152 186.3773,-123.5261 195.141,-129.4798 196.9411,-122.7152"/>
</g>
<!-- Node166005 -->
<g id="node5" class="node">
<title>Node166005</title>
<g id="a_node5"><a xlink:href="quickjs_8c.html#aee75cc1546e19479e3ccda58f3b50a96" target="_top" xlink:title="JS_SetPropertyValue">
<polygon fill="none" stroke="#ff0000" points="517,-104.5 517,-123.5 627,-123.5 627,-104.5 517,-104.5"/>
<text text-anchor="middle" x="572" y="-111.5" font-family="Helvetica,sans-Serif" font-size="10.00" fill="#000000">JS_SetPropertyValue</text>
</a>
</g>
</g>
<!-- Node165595&#45;&gt;Node166005 -->
<g id="edge13" class="edge">
<title>Node165595&#45;&gt;Node166005</title>
<path fill="none" stroke="#191970" d="M193.6937,-101.7726C204.3872,-98.9754 216.0467,-96.4114 227,-95 328.7359,-81.8904 448.4919,-94.7719 516.8015,-104.7712"/>
<polygon fill="#191970" stroke="#191970" points="192.5055,-98.4694 183.7917,-104.4959 194.3618,-105.2188 192.5055,-98.4694"/>
</g>
<!-- Node165824 -->
<g id="node6" class="node">
<title>Node165824</title>
<g id="a_node6"><a xlink:href="quickjs_8c.html#ab50618f1bf78e444caa6da0e3e2785d7" target="_top" xlink:title="JS_DefineProperty">
<polygon fill="none" stroke="#ff0000" points="663,-104.5 663,-123.5 762,-123.5 762,-104.5 663,-104.5"/>
<text text-anchor="middle" x="712.5" y="-111.5" font-family="Helvetica,sans-Serif" font-size="10.00" fill="#000000">JS_DefineProperty</text>
</a>
</g>
</g>
<!-- Node165595&#45;&gt;Node165824 -->
<g id="edge18" class="edge">
<title>Node165595&#45;&gt;Node165824</title>
<path fill="none" stroke="#191970" d="M182.1336,-100.0656C195.3524,-94.1583 211.6186,-87.9622 227,-85 282.414,-74.3282 437.6805,-55.466 627,-86 648.8967,-89.5316 672.8082,-97.7603 689.7622,-104.3887"/>
<polygon fill="#191970" stroke="#191970" points="180.2704,-97.0723 172.6842,-104.4683 183.2268,-103.4174 180.2704,-97.0723"/>
</g>
<!-- Node165723 -->
<g id="node7" class="node">
<title>Node165723</title>
<g id="a_node7"><a xlink:href="quickjs_8c.html#a638e637d492ee889691691baba33c4bd" target="_top" xlink:title="JS_SetPropertyGeneric">
<polygon fill="none" stroke="#ff0000" points="798,-218.5 798,-237.5 917,-237.5 917,-218.5 798,-218.5"/>
<text text-anchor="middle" x="857.5" y="-225.5" font-family="Helvetica,sans-Serif" font-size="10.00" fill="#000000">JS_SetPropertyGeneric</text>
</a>
</g>
</g>
<!-- Node165595&#45;&gt;Node165723 -->
<g id="edge11" class="edge">
<title>Node165595&#45;&gt;Node165723</title>
<path fill="none" stroke="#191970" d="M164.0526,-132.8349C175.9317,-154.383 198.2071,-189.2316 227,-209 301.4378,-260.1068 331.7067,-266 422,-266 422,-266 422,-266 572,-266 658.0053,-266 757.3203,-248.8462 813.2358,-237.589"/>
<polygon fill="#191970" stroke="#191970" points="166.9883,-130.9005 159.2064,-123.7107 160.8062,-134.1841 166.9883,-130.9005"/>
</g>
<!-- Node165956 -->
<g id="node8" class="node">
<title>Node165956</title>
<g id="a_node8"><a xlink:href="quickjs_8c.html#a1fdb56277638da2aef63b9be0c12895f" target="_top" xlink:title="js_string_define_own\l_property">
<polygon fill="none" stroke="#000000" points="803.5,-42 803.5,-72 911.5,-72 911.5,-42 803.5,-42"/>
<text text-anchor="start" x="811.5" y="-60" font-family="Helvetica,sans-Serif" font-size="10.00" fill="#000000">js_string_define_own</text>
<text text-anchor="middle" x="857.5" y="-49" font-family="Helvetica,sans-Serif" font-size="10.00" fill="#000000">_property</text>
</a>
</g>
</g>
<!-- Node165595&#45;&gt;Node165956 -->
<g id="edge19" class="edge">
<title>Node165595&#45;&gt;Node165956</title>
<path fill="none" stroke="#191970" d="M175.0437,-98.3981C218.261,-67.1808 322.7912,0 422,0 422,0 422,0 572,0 657.6724,0 755.0558,-24.9882 811.0845,-41.8747"/>
<polygon fill="#191970" stroke="#191970" points="172.7597,-95.7331 166.7762,-104.4765 176.9062,-101.3728 172.7597,-95.7331"/>
</g>
<!-- Node165823 -->
<g id="node9" class="node">
<title>Node165823</title>
<g id="a_node9"><a xlink:href="quickjs_8c.html#ad5565bb5cfd5321f181573257f3b0c91" target="_top" xlink:title="JS_CreateProperty">
<polygon fill="none" stroke="#000000" points="227,-180.5 227,-199.5 327,-199.5 327,-180.5 227,-180.5"/>
<text text-anchor="middle" x="277" y="-187.5" font-family="Helvetica,sans-Serif" font-size="10.00" fill="#000000">JS_CreateProperty</text>
</a>
</g>
</g>
<!-- Node165595&#45;&gt;Node165823 -->
<g id="edge14" class="edge">
<title>Node165595&#45;&gt;Node165823</title>
<path fill="none" stroke="#191970" d="M174.4428,-129.7504C188.6586,-140.6123 208.4597,-155.0155 227,-166 235.781,-171.2025 245.8627,-176.2114 254.6624,-180.2951"/>
<polygon fill="#191970" stroke="#191970" points="176.4252,-126.8588 166.3745,-123.5071 172.1414,-132.395 176.4252,-126.8588"/>
</g>
<!-- Node165596&#45;&gt;Node165597 -->
<g id="edge3" class="edge">
<title>Node165596&#45;&gt;Node165597</title>
<path fill="none" stroke="#191970" d="M323.4928,-126.1843C343.6237,-131.46 366.8383,-137.5438 385.6735,-142.4799"/>
<polygon fill="#191970" stroke="#191970" points="324.1503,-122.7385 313.5896,-123.589 322.3757,-129.5098 324.1503,-122.7385"/>
</g>
<!-- Node165596&#45;&gt;Node165824 -->
<g id="edge10" class="edge">
<title>Node165596&#45;&gt;Node165824</title>
<path fill="none" stroke="#191970" d="M331.8053,-105.5041C400.8339,-96.0709 523.003,-83.584 627,-95 643.9289,-96.8583 662.4102,-100.7273 677.8453,-104.492"/>
<polygon fill="#191970" stroke="#191970" points="331.024,-102.0791 321.6044,-106.929 331.9924,-109.0118 331.024,-102.0791"/>
</g>
<!-- Node165597&#45;&gt;Node166005 -->
<g id="edge4" class="edge">
<title>Node165597&#45;&gt;Node166005</title>
<path fill="none" stroke="#191970" d="M450.992,-139.1928C469.6832,-133.2473 494.5868,-126.5814 516.9416,-121.4148"/>
<polygon fill="#191970" stroke="#191970" points="449.6918,-135.9365 441.3028,-142.4076 451.8962,-142.5803 449.6918,-135.9365"/>
</g>
<!-- Node166005&#45;&gt;Node165597 -->
<g id="edge9" class="edge">
<title>Node166005&#45;&gt;Node165597</title>
<path fill="none" stroke="#191970" d="M543.0042,-126.8084C525.4835,-132.3815 502.5049,-138.5873 481.284,-143.5979"/>
<polygon fill="#191970" stroke="#191970" points="544.2454,-130.0843 552.635,-123.614 542.0416,-123.4403 544.2454,-130.0843"/>
</g>
<!-- Node166005&#45;&gt;Node165824 -->
<g id="edge5" class="edge">
<title>Node166005&#45;&gt;Node165824</title>
<path fill="none" stroke="#191970" d="M637.3733,-114C645.84,-114 654.4017,-114 662.5632,-114"/>
<polygon fill="#191970" stroke="#191970" points="637.1261,-110.5001 627.1261,-114 637.126,-117.5001 637.1261,-110.5001"/>
</g>
<!-- Node165824&#45;&gt;Node165597 -->
<g id="edge7" class="edge">
<title>Node165824&#45;&gt;Node165597</title>
<path fill="none" stroke="#191970" d="M664.4329,-125.7976C652.2761,-128.4731 639.2056,-131.086 627,-133 578.0938,-140.669 522.1026,-145.6012 481.0073,-148.5131"/>
<polygon fill="#191970" stroke="#191970" points="665.4071,-129.1659 674.3908,-123.5495 663.8655,-122.3377 665.4071,-129.1659"/>
</g>
<!-- Node165824&#45;&gt;Node165723 -->
<g id="edge6" class="edge">
<title>Node165824&#45;&gt;Node165723</title>
<path fill="none" stroke="#191970" d="M733.1148,-130.2075C763.7268,-154.2749 820.2618,-198.7231 845.1687,-218.305"/>
<polygon fill="#191970" stroke="#191970" points="734.8872,-127.1488 724.8626,-123.7196 730.5607,-132.6517 734.8872,-127.1488"/>
</g>
<!-- Node165824&#45;&gt;Node165956 -->
<g id="edge8" class="edge">
<title>Node165824&#45;&gt;Node165956</title>
<path fill="none" stroke="#191970" d="M746.2872,-100.7182C768.113,-92.1383 796.5623,-80.9548 819.2229,-72.0468"/>
<polygon fill="#191970" stroke="#191970" points="744.796,-97.5436 736.7697,-104.4595 747.357,-104.0583 744.796,-97.5436"/>
</g>
<!-- Node165823&#45;&gt;Node165597 -->
<g id="edge17" class="edge">
<title>Node165823&#45;&gt;Node165597</title>
<path fill="none" stroke="#191970" d="M323.4928,-177.8157C343.6237,-172.54 366.8383,-166.4562 385.6735,-161.5201"/>
<polygon fill="#191970" stroke="#191970" points="322.3757,-174.4902 313.5896,-180.411 324.1503,-181.2615 322.3757,-174.4902"/>
</g>
<!-- Node165823&#45;&gt;Node165824 -->
<g id="edge15" class="edge">
<title>Node165823&#45;&gt;Node165824</title>
<path fill="none" stroke="#191970" d="M337.3341,-189.7885C408.0286,-188.1389 528.0804,-180.943 627,-153 651.964,-145.9481 678.9003,-132.6115 695.7289,-123.5172"/>
<polygon fill="#191970" stroke="#191970" points="337.197,-186.2905 327.2703,-189.9935 337.3395,-193.289 337.197,-186.2905"/>
</g>
<!-- Node165823&#45;&gt;Node165723 -->
<g id="edge16" class="edge">
<title>Node165823&#45;&gt;Node165723</title>
<path fill="none" stroke="#191970" d="M337.4293,-195.8684C346.0094,-196.6296 354.7256,-197.3643 363,-198 519.7188,-210.04 704.6851,-220.1783 797.7041,-224.9943"/>
<polygon fill="#191970" stroke="#191970" points="337.7285,-192.3812 327.454,-194.9669 337.0984,-199.3528 337.7285,-192.3812"/>
</g>
</g>
</svg>
