<?xml version="1.0" encoding="UTF-8" standalone="no"?>
<!DOCTYPE svg PUBLIC "-//W3C//DTD SVG 1.1//EN"
 "http://www.w3.org/Graphics/SVG/1.1/DTD/svg11.dtd">
<!-- Generated by graphviz version 2.40.1 (20161225.0304)
 -->
<!-- Title: gc_scan_incref_child Pages: 1 -->
<svg width="317pt" height="66pt"
 viewBox="0.00 0.00 317.00 66.00" xmlns="http://www.w3.org/2000/svg" xmlns:xlink="http://www.w3.org/1999/xlink">
<g id="graph0" class="graph" transform="scale(1 1) rotate(0) translate(4 62)">
<title>gc_scan_incref_child</title>
<!-- Node154916 -->
<g id="node1" class="node">
<title>Node154916</title>
<polygon fill="#bfbfbf" stroke="#000000" points="0,-19.5 0,-38.5 108,-38.5 108,-19.5 0,-19.5"/>
<text text-anchor="middle" x="54" y="-26.5" font-family="Helvetica,sans-Serif" font-size="10.00" fill="#000000">gc_scan_incref_child</text>
</g>
<!-- Node154917 -->
<g id="node2" class="node">
<title>Node154917</title>
<g id="a_node2"><a xlink:href="list_8h.html#a3a5d0733570b2fafc18f4c71a2968ea5" target="_top" xlink:title="list_add_tail">
<polygon fill="none" stroke="#000000" points="144,-38.5 144,-57.5 212,-57.5 212,-38.5 144,-38.5"/>
<text text-anchor="middle" x="178" y="-45.5" font-family="Helvetica,sans-Serif" font-size="10.00" fill="#000000">list_add_tail</text>
</a>
</g>
</g>
<!-- Node154916&#45;&gt;Node154917 -->
<g id="edge1" class="edge">
<title>Node154916&#45;&gt;Node154917</title>
<path fill="none" stroke="#191970" d="M108.0275,-37.2784C116.6577,-38.6008 125.4975,-39.9553 133.8629,-41.2371"/>
<polygon fill="#191970" stroke="#191970" points="133.3709,-44.7024 143.7856,-42.7575 134.4311,-37.7832 133.3709,-44.7024"/>
</g>
<!-- Node154919 -->
<g id="node4" class="node">
<title>Node154919</title>
<g id="a_node4"><a xlink:href="list_8h.html#ab60d5d18869ebeb5d6ab694289576fa7" target="_top" xlink:title="list_del">
<polygon fill="none" stroke="#000000" points="154.5,-.5 154.5,-19.5 201.5,-19.5 201.5,-.5 154.5,-.5"/>
<text text-anchor="middle" x="178" y="-7.5" font-family="Helvetica,sans-Serif" font-size="10.00" fill="#000000">list_del</text>
</a>
</g>
</g>
<!-- Node154916&#45;&gt;Node154919 -->
<g id="edge3" class="edge">
<title>Node154916&#45;&gt;Node154919</title>
<path fill="none" stroke="#191970" d="M108.0275,-20.7216C120.2931,-18.8422 132.9821,-16.8979 144.1309,-15.1896"/>
<polygon fill="#191970" stroke="#191970" points="144.9296,-18.6082 154.2841,-13.6339 143.8693,-11.6889 144.9296,-18.6082"/>
</g>
<!-- Node154918 -->
<g id="node3" class="node">
<title>Node154918</title>
<g id="a_node3"><a xlink:href="list_8h.html#a16286d5bff74a27aec51a3134ffc7b43" target="_top" xlink:title="__list_add">
<polygon fill="none" stroke="#000000" points="248,-38.5 248,-57.5 309,-57.5 309,-38.5 248,-38.5"/>
<text text-anchor="middle" x="278.5" y="-45.5" font-family="Helvetica,sans-Serif" font-size="10.00" fill="#000000">__list_add</text>
</a>
</g>
</g>
<!-- Node154917&#45;&gt;Node154918 -->
<g id="edge2" class="edge">
<title>Node154917&#45;&gt;Node154918</title>
<path fill="none" stroke="#191970" d="M212.0247,-48C220.2835,-48 229.1974,-48 237.7325,-48"/>
<polygon fill="#191970" stroke="#191970" points="237.8861,-51.5001 247.8861,-48 237.8861,-44.5001 237.8861,-51.5001"/>
</g>
</g>
</svg>
