<?xml version="1.0" encoding="UTF-8" standalone="no"?>
<!DOCTYPE svg PUBLIC "-//W3C//DTD SVG 1.1//EN"
 "http://www.w3.org/Graphics/SVG/1.1/DTD/svg11.dtd">
<!-- Generated by graphviz version 2.40.1 (20161225.0304)
 -->
<!-- Title: find_atom Pages: 1 -->
<!--zoomable 213 -->
<svg id="main" version="1.1" xmlns="http://www.w3.org/2000/svg" xmlns:xlink="http://www.w3.org/1999/xlink" xml:space="preserve" onload="init(evt)">
<style type="text/css"><![CDATA[
.edge:hover path { stroke: red; }
.edge:hover polygon { stroke: red; fill: red; }
]]></style>
<script type="text/javascript"><![CDATA[
var edges = document.getElementsByTagName('g');
if (edges && edges.length) {
  for (var i=0;i<edges.length;i++) {
    if (edges[i].id.substr(0,4)=='edge') {
      edges[i].setAttribute('class','edge');
    }
  }
}
]]></script>
        <defs>
                <circle id="rim" cx="0" cy="0" r="7"/>
                <circle id="rim2" cx="0" cy="0" r="3.5"/>
                <g id="zoomPlus">
                        <use xlink:href="#rim" fill="#404040">
                                <set attributeName="fill" to="#808080" begin="zoomplus.mouseover" end="zoomplus.mouseout"/>
                        </use>
                        <path d="M-4,0h8M0,-4v8" fill="none" stroke="white" stroke-width="1.5" pointer-events="none"/>
                </g>
                <g id="zoomMin">
                        <use xlink:href="#rim" fill="#404040">
                                <set attributeName="fill" to="#808080" begin="zoomminus.mouseover" end="zoomminus.mouseout"/>
                        </use>
                        <path d="M-4,0h8" fill="none" stroke="white" stroke-width="1.5" pointer-events="none"/>
                </g>
                <g id="dirArrow">
                        <path fill="none" stroke="white" stroke-width="1.5" d="M0,-3.0v7 M-2.5,-0.5L0,-3.0L2.5,-0.5"/>
                </g>
               <g id="resetDef">
                       <use xlink:href="#rim2" fill="#404040">
                               <set attributeName="fill" to="#808080" begin="reset.mouseover" end="reset.mouseout"/>
                       </use>
               </g>
        </defs>

<script type="text/javascript">
var viewWidth = 578;
var viewHeight = 213;
var sectionId = 'dynsection-1363';
</script>
<script xlink:href="svgpan.js"/>
<svg id="graph" class="graph">
<g id="viewport">
<title>find_atom</title>
<!-- Node364753 -->
<g id="node1" class="node">
<title>Node364753</title>
<polygon fill="#bfbfbf" stroke="#000000" points="0,-138.5 0,-157.5 59,-157.5 59,-138.5 0,-138.5"/>
<text text-anchor="middle" x="29.5" y="-145.5" font-family="Helvetica,sans-Serif" font-size="10.00" fill="#000000">find_atom</text>
</g>
<!-- Node364754 -->
<g id="node2" class="node">
<title>Node364754</title>
<g id="a_node2"><a xlink:href="quickjs_8c.html#abbf44eaeace1104a6bef718fbf5700fe" target="_top" xlink:title="JS_DupAtom">
<polygon fill="none" stroke="#000000" points="217,-185.5 217,-204.5 292,-204.5 292,-185.5 217,-185.5"/>
<text text-anchor="middle" x="254.5" y="-192.5" font-family="Helvetica,sans-Serif" font-size="10.00" fill="#000000">JS_DupAtom</text>
</a>
</g>
</g>
<!-- Node364753&#45;&gt;Node364754 -->
<g id="edge1" class="edge">
<title>Node364753&#45;&gt;Node364754</title>
<path fill="none" stroke="#191970" d="M59.3783,-154.2412C97.0847,-162.1177 162.3891,-175.759 206.9753,-185.0726"/>
<polygon fill="#191970" stroke="#191970" points="206.49,-188.5467 216.9944,-187.1655 207.9214,-181.6946 206.49,-188.5467"/>
</g>
<!-- Node364756 -->
<g id="node4" class="node">
<title>Node364756</title>
<g id="a_node4"><a xlink:href="quickjs_8c.html#aa2ef5af1544a3012f91a80c98c326b8f" target="_top" xlink:title="JS_NewAtom">
<polygon fill="none" stroke="#000000" points="95,-119.5 95,-138.5 172,-138.5 172,-119.5 95,-119.5"/>
<text text-anchor="middle" x="133.5" y="-126.5" font-family="Helvetica,sans-Serif" font-size="10.00" fill="#000000">JS_NewAtom</text>
</a>
</g>
</g>
<!-- Node364753&#45;&gt;Node364756 -->
<g id="edge3" class="edge">
<title>Node364753&#45;&gt;Node364756</title>
<path fill="none" stroke="#191970" d="M59.024,-142.6062C67.1396,-141.1235 76.1596,-139.4757 85.0412,-137.8531"/>
<polygon fill="#191970" stroke="#191970" points="85.7462,-141.2823 94.9543,-136.042 84.4881,-134.3962 85.7462,-141.2823"/>
</g>
<!-- Node364755 -->
<g id="node3" class="node">
<title>Node364755</title>
<g id="a_node3"><a xlink:href="quickjs_8c.html#a7f6796ee7a195631366f57c713a33f65" target="_top" xlink:title="__JS_AtomIsConst">
<polygon fill="none" stroke="#000000" points="468,-171.5 468,-190.5 570,-190.5 570,-171.5 468,-171.5"/>
<text text-anchor="middle" x="519" y="-178.5" font-family="Helvetica,sans-Serif" font-size="10.00" fill="#000000">__JS_AtomIsConst</text>
</a>
</g>
</g>
<!-- Node364754&#45;&gt;Node364755 -->
<g id="edge2" class="edge">
<title>Node364754&#45;&gt;Node364755</title>
<path fill="none" stroke="#191970" d="M292.1155,-193.009C335.214,-190.7278 406.4708,-186.9562 457.6353,-184.248"/>
<polygon fill="#191970" stroke="#191970" points="458.1071,-187.7281 467.9081,-183.7043 457.737,-180.7378 458.1071,-187.7281"/>
</g>
<!-- Node364757 -->
<g id="node5" class="node">
<title>Node364757</title>
<g id="a_node5"><a xlink:href="quickjs_8c.html#a522741f41afb1d0da0aa55968cd8579e" target="_top" xlink:title="JS_NewAtomLen">
<polygon fill="none" stroke="#000000" points="208,-81.5 208,-100.5 301,-100.5 301,-81.5 208,-81.5"/>
<text text-anchor="middle" x="254.5" y="-88.5" font-family="Helvetica,sans-Serif" font-size="10.00" fill="#000000">JS_NewAtomLen</text>
</a>
</g>
</g>
<!-- Node364756&#45;&gt;Node364757 -->
<g id="edge4" class="edge">
<title>Node364756&#45;&gt;Node364757</title>
<path fill="none" stroke="#191970" d="M164.0334,-119.411C179.2234,-114.6406 197.7853,-108.8112 214.1334,-103.6771"/>
<polygon fill="#191970" stroke="#191970" points="215.4845,-106.9214 223.9764,-100.5859 213.3871,-100.243 215.4845,-106.9214"/>
</g>
<!-- Node364758 -->
<g id="node6" class="node">
<title>Node364758</title>
<g id="a_node6"><a xlink:href="quickjs_8c.html#ac8c91ebeea0cf07e3079c49a16de739f" target="_top" xlink:title="__JS_FindAtom">
<polygon fill="none" stroke="#ff0000" points="341.5,-152.5 341.5,-171.5 427.5,-171.5 427.5,-152.5 341.5,-152.5"/>
<text text-anchor="middle" x="384.5" y="-159.5" font-family="Helvetica,sans-Serif" font-size="10.00" fill="#000000">__JS_FindAtom</text>
</a>
</g>
</g>
<!-- Node364757&#45;&gt;Node364758 -->
<g id="edge5" class="edge">
<title>Node364757&#45;&gt;Node364758</title>
<path fill="none" stroke="#191970" d="M268.0605,-100.6297C284.0486,-111.724 311.6595,-130.0815 337,-143 340.7388,-144.906 344.7156,-146.7557 348.7152,-148.505"/>
<polygon fill="#191970" stroke="#191970" points="347.4116,-151.7535 357.9877,-152.3834 350.1128,-145.2956 347.4116,-151.7535"/>
</g>
<!-- Node364760 -->
<g id="node7" class="node">
<title>Node364760</title>
<g id="a_node7"><a xlink:href="quickjs_8c.html#ab3ca6381d29dea396b12acd7f755c51a" target="_top" xlink:title="is_digit">
<polygon fill="none" stroke="#000000" points="361,-114.5 361,-133.5 408,-133.5 408,-114.5 361,-114.5"/>
<text text-anchor="middle" x="384.5" y="-121.5" font-family="Helvetica,sans-Serif" font-size="10.00" fill="#000000">is_digit</text>
</a>
</g>
</g>
<!-- Node364757&#45;&gt;Node364760 -->
<g id="edge7" class="edge">
<title>Node364757&#45;&gt;Node364760</title>
<path fill="none" stroke="#191970" d="M292.1014,-100.545C310.743,-105.2771 333.0647,-110.9433 351.0983,-115.5211"/>
<polygon fill="#191970" stroke="#191970" points="350.3383,-118.9391 360.892,-118.0072 352.0606,-112.1543 350.3383,-118.9391"/>
</g>
<!-- Node364761 -->
<g id="node8" class="node">
<title>Node364761</title>
<g id="a_node8"><a xlink:href="quickjs_8h.html#ad80a83d73e9b7d872b88fbf2943aebe9" target="_top" xlink:title="JS_IsException">
<polygon fill="none" stroke="#000000" points="341.5,-76.5 341.5,-95.5 427.5,-95.5 427.5,-76.5 341.5,-76.5"/>
<text text-anchor="middle" x="384.5" y="-83.5" font-family="Helvetica,sans-Serif" font-size="10.00" fill="#000000">JS_IsException</text>
</a>
</g>
</g>
<!-- Node364757&#45;&gt;Node364761 -->
<g id="edge8" class="edge">
<title>Node364757&#45;&gt;Node364761</title>
<path fill="none" stroke="#191970" d="M301.0658,-89.209C310.7989,-88.8347 321.1331,-88.4372 331.0921,-88.0541"/>
<polygon fill="#191970" stroke="#191970" points="331.4357,-91.5436 341.2937,-87.6618 331.1666,-84.5488 331.4357,-91.5436"/>
</g>
<!-- Node364762 -->
<g id="node9" class="node">
<title>Node364762</title>
<g id="a_node9"><a xlink:href="quickjs_8c.html#a33fd643aff7f70e649d246385cd99b00" target="_top" xlink:title="JS_NewAtomStr">
<polygon fill="none" stroke="#ff0000" points="339.5,-38.5 339.5,-57.5 429.5,-57.5 429.5,-38.5 339.5,-38.5"/>
<text text-anchor="middle" x="384.5" y="-45.5" font-family="Helvetica,sans-Serif" font-size="10.00" fill="#000000">JS_NewAtomStr</text>
</a>
</g>
</g>
<!-- Node364757&#45;&gt;Node364762 -->
<g id="edge9" class="edge">
<title>Node364757&#45;&gt;Node364762</title>
<path fill="none" stroke="#191970" d="M283.3512,-81.4569C301.8649,-75.3331 326.1155,-67.3118 346.2303,-60.6584"/>
<polygon fill="#191970" stroke="#191970" points="347.3345,-63.9798 355.7294,-57.5164 345.1362,-57.3339 347.3345,-63.9798"/>
</g>
<!-- Node364780 -->
<g id="node10" class="node">
<title>Node364780</title>
<g id="a_node10"><a xlink:href="quickjs_8c.html#ac34cc554aab1e98c45a7f845fff64385" target="_top" xlink:title="JS_NewStringLen">
<polygon fill="none" stroke="#ff0000" points="337,-.5 337,-19.5 432,-19.5 432,-.5 337,-.5"/>
<text text-anchor="middle" x="384.5" y="-7.5" font-family="Helvetica,sans-Serif" font-size="10.00" fill="#000000">JS_NewStringLen</text>
</a>
</g>
</g>
<!-- Node364757&#45;&gt;Node364780 -->
<g id="edge10" class="edge">
<title>Node364757&#45;&gt;Node364780</title>
<path fill="none" stroke="#191970" d="M265.3245,-81.3738C280.5035,-68.236 309.3617,-44.5501 337,-29 340.2898,-27.1491 343.7964,-25.389 347.3573,-23.7407"/>
<polygon fill="#191970" stroke="#191970" points="349.0119,-26.8384 356.7977,-19.6529 346.2303,-20.4147 349.0119,-26.8384"/>
</g>
<!-- Node364758&#45;&gt;Node364755 -->
<g id="edge6" class="edge">
<title>Node364758&#45;&gt;Node364755</title>
<path fill="none" stroke="#191970" d="M427.797,-168.1163C437.3579,-169.4669 447.6617,-170.9225 457.782,-172.3521"/>
<polygon fill="#191970" stroke="#191970" points="457.4153,-175.835 467.8066,-173.7682 458.3945,-168.9038 457.4153,-175.835"/>
</g>
</g>
</svg>
        <g id="navigator" transform="translate(0 0)" fill="#404254">
                <rect fill="#f2f5e9" fill-opacity="0.5" stroke="#606060" stroke-width=".5" x="0" y="0" width="60" height="60"/>
                <use id="zoomplus" xlink:href="#zoomPlus" x="17" y="9" onmousedown="handleZoom(evt,'in')"/>
                <use id="zoomminus" xlink:href="#zoomMin" x="42" y="9" onmousedown="handleZoom(evt,'out')"/>
                <use id="reset" xlink:href="#resetDef" x="30" y="36" onmousedown="handleReset()"/>
                <g id="arrowUp" xlink:href="#dirArrow" transform="translate(30 24)" onmousedown="handlePan(0,-1)">
                  <use xlink:href="#rim" fill="#404040">
                        <set attributeName="fill" to="#808080" begin="arrowUp.mouseover" end="arrowUp.mouseout"/>
                  </use>
                  <path fill="none" stroke="white" stroke-width="1.5" d="M0,-3.0v7 M-2.5,-0.5L0,-3.0L2.5,-0.5"/>
                </g>
                <g id="arrowRight" xlink:href="#dirArrow" transform="rotate(90) translate(36 -43)" onmousedown="handlePan(1,0)">
                  <use xlink:href="#rim" fill="#404040">
                        <set attributeName="fill" to="#808080" begin="arrowRight.mouseover" end="arrowRight.mouseout"/>
                  </use>
                  <path fill="none" stroke="white" stroke-width="1.5" d="M0,-3.0v7 M-2.5,-0.5L0,-3.0L2.5,-0.5"/>
                </g>
                <g id="arrowDown" xlink:href="#dirArrow" transform="rotate(180) translate(-30 -48)" onmousedown="handlePan(0,1)">
                  <use xlink:href="#rim" fill="#404040">
                        <set attributeName="fill" to="#808080" begin="arrowDown.mouseover" end="arrowDown.mouseout"/>
                  </use>
                  <path fill="none" stroke="white" stroke-width="1.5" d="M0,-3.0v7 M-2.5,-0.5L0,-3.0L2.5,-0.5"/>
                </g>
                <g id="arrowLeft" xlink:href="#dirArrow" transform="rotate(270) translate(-36 17)" onmousedown="handlePan(-1,0)">
                  <use xlink:href="#rim" fill="#404040">
                        <set attributeName="fill" to="#808080" begin="arrowLeft.mouseover" end="arrowLeft.mouseout"/>
                  </use>
                  <path fill="none" stroke="white" stroke-width="1.5" d="M0,-3.0v7 M-2.5,-0.5L0,-3.0L2.5,-0.5"/>
                </g>
        </g>
        <svg viewBox="0 0 15 15" width="100%" height="30px" preserveAspectRatio="xMaxYMin meet">
         <g id="arrow_out" transform="scale(0.3 0.3)">
          <a xlink:href="quickjs_8c_ae8e62d181b34d2e7bdda0b099c0880f5_cgraph_org.svg" target="_base">
           <rect id="button" ry="5" rx="5" y="6" x="6" height="38" width="38"
                fill="#f2f5e9" fill-opacity="0.5" stroke="#606060" stroke-width="1.0"/>
           <path id="arrow"
             d="M 11.500037,31.436501 C 11.940474,20.09759 22.043105,11.32322 32.158766,21.979434 L 37.068811,17.246167 C 37.068811,17.246167 37.088388,32 37.088388,32 L 22.160133,31.978069 C 22.160133,31.978069 26.997745,27.140456 26.997745,27.140456 C 18.528582,18.264221 13.291696,25.230495 11.500037,31.436501 z"
             style="fill:#404040;"/>
          </a>
         </g>
        </svg>
</svg>
