<?xml version="1.0" encoding="UTF-8" standalone="no"?>
<!DOCTYPE svg PUBLIC "-//W3C//DTD SVG 1.1//EN"
 "http://www.w3.org/Graphics/SVG/1.1/DTD/svg11.dtd">
<!-- Generated by graphviz version 2.40.1 (20161225.0304)
 -->
<!-- Title: js_string_get_own_property Pages: 1 -->
<svg width="552pt" height="123pt"
 viewBox="0.00 0.00 552.00 123.00" xmlns="http://www.w3.org/2000/svg" xmlns:xlink="http://www.w3.org/1999/xlink">
<g id="graph0" class="graph" transform="scale(1 1) rotate(0) translate(4 119)">
<title>js_string_get_own_property</title>
<!-- Node405731 -->
<g id="node1" class="node">
<title>Node405731</title>
<polygon fill="#bfbfbf" stroke="#000000" points="0,-57.5 0,-76.5 136,-76.5 136,-57.5 0,-57.5"/>
<text text-anchor="middle" x="68" y="-64.5" font-family="Helvetica,sans-Serif" font-size="10.00" fill="#000000">js_string_get_own_property</text>
</g>
<!-- Node405732 -->
<g id="node2" class="node">
<title>Node405732</title>
<g id="a_node2"><a xlink:href="quickjs_8c.html#a288254c06a39c9fca740a7abdad2834e" target="_top" xlink:title="__JS_AtomIsTaggedInt">
<polygon fill="none" stroke="#000000" points="172,-95.5 172,-114.5 291,-114.5 291,-95.5 172,-95.5"/>
<text text-anchor="middle" x="231.5" y="-102.5" font-family="Helvetica,sans-Serif" font-size="10.00" fill="#000000">__JS_AtomIsTaggedInt</text>
</a>
</g>
</g>
<!-- Node405731&#45;&gt;Node405732 -->
<g id="edge1" class="edge">
<title>Node405731&#45;&gt;Node405732</title>
<path fill="none" stroke="#191970" d="M109.258,-76.589C130.9307,-81.6261 157.6832,-87.8438 180.6303,-93.1771"/>
<polygon fill="#191970" stroke="#191970" points="180.006,-96.6252 190.5387,-95.4799 181.5907,-89.8069 180.006,-96.6252"/>
</g>
<!-- Node405733 -->
<g id="node3" class="node">
<title>Node405733</title>
<g id="a_node3"><a xlink:href="quickjs_8c.html#a89f38938cee8077ce1fbba07946ed185" target="_top" xlink:title="__JS_AtomToUInt32">
<polygon fill="none" stroke="#000000" points="177.5,-57.5 177.5,-76.5 285.5,-76.5 285.5,-57.5 177.5,-57.5"/>
<text text-anchor="middle" x="231.5" y="-64.5" font-family="Helvetica,sans-Serif" font-size="10.00" fill="#000000">__JS_AtomToUInt32</text>
</a>
</g>
</g>
<!-- Node405731&#45;&gt;Node405733 -->
<g id="edge2" class="edge">
<title>Node405731&#45;&gt;Node405733</title>
<path fill="none" stroke="#191970" d="M136.3914,-67C146.523,-67 156.9359,-67 166.9849,-67"/>
<polygon fill="#191970" stroke="#191970" points="167.2982,-70.5001 177.2982,-67 167.2981,-63.5001 167.2982,-70.5001"/>
</g>
<!-- Node405734 -->
<g id="node4" class="node">
<title>Node405734</title>
<g id="a_node4"><a xlink:href="quickjs_8c.html#a077ffa6455c0d7831bd4547542b5f2f7" target="_top" xlink:title="js_new_string_char">
<polygon fill="none" stroke="#000000" points="181,-19.5 181,-38.5 282,-38.5 282,-19.5 181,-19.5"/>
<text text-anchor="middle" x="231.5" y="-26.5" font-family="Helvetica,sans-Serif" font-size="10.00" fill="#000000">js_new_string_char</text>
</a>
</g>
</g>
<!-- Node405731&#45;&gt;Node405734 -->
<g id="edge3" class="edge">
<title>Node405731&#45;&gt;Node405734</title>
<path fill="none" stroke="#191970" d="M109.258,-57.411C130.9307,-52.3739 157.6832,-46.1562 180.6303,-40.8229"/>
<polygon fill="#191970" stroke="#191970" points="181.5907,-44.1931 190.5387,-38.5201 180.006,-37.3748 181.5907,-44.1931"/>
</g>
<!-- Node405735 -->
<g id="node5" class="node">
<title>Node405735</title>
<g id="a_node5"><a xlink:href="quickjs_8c.html#a960b48be1175b0982ecc03505711fc56" target="_top" xlink:title="js_new_string16">
<polygon fill="none" stroke="#000000" points="327,-38.5 327,-57.5 414,-57.5 414,-38.5 327,-38.5"/>
<text text-anchor="middle" x="370.5" y="-45.5" font-family="Helvetica,sans-Serif" font-size="10.00" fill="#000000">js_new_string16</text>
</a>
</g>
</g>
<!-- Node405734&#45;&gt;Node405735 -->
<g id="edge4" class="edge">
<title>Node405734&#45;&gt;Node405735</title>
<path fill="none" stroke="#191970" d="M282.0754,-35.9132C293.2484,-37.4404 305.1278,-39.0642 316.4333,-40.6096"/>
<polygon fill="#191970" stroke="#191970" points="316.236,-44.1151 326.6179,-42.0017 317.1841,-37.1796 316.236,-44.1151"/>
</g>
<!-- Node405740 -->
<g id="node7" class="node">
<title>Node405740</title>
<g id="a_node7"><a xlink:href="quickjs_8c.html#aa923510185fe24e3083baf7405b09f51" target="_top" xlink:title="js_new_string8">
<polygon fill="none" stroke="#000000" points="329.5,-.5 329.5,-19.5 411.5,-19.5 411.5,-.5 329.5,-.5"/>
<text text-anchor="middle" x="370.5" y="-7.5" font-family="Helvetica,sans-Serif" font-size="10.00" fill="#000000">js_new_string8</text>
</a>
</g>
</g>
<!-- Node405734&#45;&gt;Node405740 -->
<g id="edge6" class="edge">
<title>Node405734&#45;&gt;Node405740</title>
<path fill="none" stroke="#191970" d="M282.0754,-22.0868C294.2042,-20.4289 307.1653,-18.6573 319.3212,-16.9957"/>
<polygon fill="#191970" stroke="#191970" points="319.873,-20.4529 329.3068,-15.6307 318.9249,-13.5174 319.873,-20.4529"/>
</g>
<!-- Node405736 -->
<g id="node6" class="node">
<title>Node405736</title>
<g id="a_node6"><a xlink:href="quickjs_8c.html#ad303a9bc56766627b5fca41574933930" target="_top" xlink:title="js_alloc_string">
<polygon fill="none" stroke="#ff0000" points="457.5,-38.5 457.5,-57.5 536.5,-57.5 536.5,-38.5 457.5,-38.5"/>
<text text-anchor="middle" x="497" y="-45.5" font-family="Helvetica,sans-Serif" font-size="10.00" fill="#000000">js_alloc_string</text>
</a>
</g>
</g>
<!-- Node405735&#45;&gt;Node405736 -->
<g id="edge5" class="edge">
<title>Node405735&#45;&gt;Node405736</title>
<path fill="none" stroke="#191970" d="M414.0341,-48C424.6494,-48 436.088,-48 446.9788,-48"/>
<polygon fill="#191970" stroke="#191970" points="447.2079,-51.5001 457.2079,-48 447.2078,-44.5001 447.2079,-51.5001"/>
</g>
<!-- Node405740&#45;&gt;Node405736 -->
<g id="edge7" class="edge">
<title>Node405740&#45;&gt;Node405736</title>
<path fill="none" stroke="#191970" d="M402.4213,-19.589C418.4516,-24.4044 438.0738,-30.2988 455.2816,-35.468"/>
<polygon fill="#191970" stroke="#191970" points="454.5047,-38.8891 465.0889,-38.4141 456.5187,-32.185 454.5047,-38.8891"/>
</g>
<!-- Node405741 -->
<g id="node8" class="node">
<title>Node405741</title>
<g id="a_node8"><a xlink:href="quickjs_8c.html#a260bfa297ff6cb5bd18e229afaa54663" target="_top" xlink:title="JS_AtomToString">
<polygon fill="none" stroke="#ff0000" points="450,-.5 450,-19.5 544,-19.5 544,-.5 450,-.5"/>
<text text-anchor="middle" x="497" y="-7.5" font-family="Helvetica,sans-Serif" font-size="10.00" fill="#000000">JS_AtomToString</text>
</a>
</g>
</g>
<!-- Node405740&#45;&gt;Node405741 -->
<g id="edge8" class="edge">
<title>Node405740&#45;&gt;Node405741</title>
<path fill="none" stroke="#191970" d="M411.5709,-10C420.5775,-10 430.2711,-10 439.7812,-10"/>
<polygon fill="#191970" stroke="#191970" points="439.9874,-13.5001 449.9874,-10 439.9873,-6.5001 439.9874,-13.5001"/>
</g>
</g>
</svg>
