<?xml version="1.0" encoding="UTF-8" standalone="no"?>
<!DOCTYPE svg PUBLIC "-//W3C//DTD SVG 1.1//EN"
 "http://www.w3.org/Graphics/SVG/1.1/DTD/svg11.dtd">
<!-- Generated by graphviz version 2.40.1 (20161225.0304)
 -->
<!-- Title: js_number_toFixed Pages: 1 -->
<svg width="525pt" height="294pt"
 viewBox="0.00 0.00 525.00 294.00" xmlns="http://www.w3.org/2000/svg" xmlns:xlink="http://www.w3.org/1999/xlink">
<g id="graph0" class="graph" transform="scale(1 1) rotate(0) translate(4 290)">
<title>js_number_toFixed</title>
<!-- Node403516 -->
<g id="node1" class="node">
<title>Node403516</title>
<polygon fill="#bfbfbf" stroke="#000000" points="0,-114.5 0,-133.5 99,-133.5 99,-114.5 0,-114.5"/>
<text text-anchor="middle" x="49.5" y="-121.5" font-family="Helvetica,sans-Serif" font-size="10.00" fill="#000000">js_number_toFixed</text>
</g>
<!-- Node403517 -->
<g id="node2" class="node">
<title>Node403517</title>
<g id="a_node2"><a xlink:href="quickjs_8h.html#a9bf98b18de88b4199910a43e933eb97d" target="_top" xlink:title="__JS_NewFloat64">
<polygon fill="none" stroke="#000000" points="138.5,-228.5 138.5,-247.5 235.5,-247.5 235.5,-228.5 138.5,-228.5"/>
<text text-anchor="middle" x="187" y="-235.5" font-family="Helvetica,sans-Serif" font-size="10.00" fill="#000000">__JS_NewFloat64</text>
</a>
</g>
</g>
<!-- Node403516&#45;&gt;Node403517 -->
<g id="edge1" class="edge">
<title>Node403516&#45;&gt;Node403517</title>
<path fill="none" stroke="#191970" d="M55.8392,-133.7772C68.6215,-152.7711 99.3302,-194.9022 135,-219 137.8746,-220.942 140.9724,-222.7142 144.1731,-224.3257"/>
<polygon fill="#191970" stroke="#191970" points="142.8101,-227.5502 153.3667,-228.4497 145.6751,-221.1633 142.8101,-227.5502"/>
</g>
<!-- Node403518 -->
<g id="node3" class="node">
<title>Node403518</title>
<g id="a_node3"><a xlink:href="quickjs_8c.html#a6508a2922531adcb280bbff485a9a44a" target="_top" xlink:title="js_dtoa">
<polygon fill="none" stroke="#000000" points="163,-190.5 163,-209.5 211,-209.5 211,-190.5 163,-190.5"/>
<text text-anchor="middle" x="187" y="-197.5" font-family="Helvetica,sans-Serif" font-size="10.00" fill="#000000">js_dtoa</text>
</a>
</g>
</g>
<!-- Node403516&#45;&gt;Node403518 -->
<g id="edge2" class="edge">
<title>Node403516&#45;&gt;Node403518</title>
<path fill="none" stroke="#191970" d="M64.0313,-133.5393C80.8099,-144.3875 109.3922,-162.3604 135,-176 141.4268,-179.4232 148.4321,-182.8519 155.159,-186.0028"/>
<polygon fill="#191970" stroke="#191970" points="154.1669,-189.3984 164.7155,-190.3876 157.0861,-183.0361 154.1669,-189.3984"/>
</g>
<!-- Node403553 -->
<g id="node10" class="node">
<title>Node403553</title>
<g id="a_node10"><a xlink:href="quickjs_8h.html#ad80a83d73e9b7d872b88fbf2943aebe9" target="_top" xlink:title="JS_IsException">
<polygon fill="none" stroke="#000000" points="424.5,-114.5 424.5,-133.5 510.5,-133.5 510.5,-114.5 424.5,-114.5"/>
<text text-anchor="middle" x="467.5" y="-121.5" font-family="Helvetica,sans-Serif" font-size="10.00" fill="#000000">JS_IsException</text>
</a>
</g>
</g>
<!-- Node403516&#45;&gt;Node403553 -->
<g id="edge9" class="edge">
<title>Node403516&#45;&gt;Node403553</title>
<path fill="none" stroke="#191970" d="M84.1547,-133.508C99.5898,-137.2727 118.0711,-141.1417 135,-143 244.1223,-154.9786 272.8777,-154.9786 382,-143 395.4902,-141.5192 409.9662,-138.7615 423.101,-135.7973"/>
<polygon fill="#191970" stroke="#191970" points="423.9109,-139.2024 432.8453,-133.508 422.3099,-132.3879 423.9109,-139.2024"/>
</g>
<!-- Node403554 -->
<g id="node11" class="node">
<title>Node403554</title>
<g id="a_node11"><a xlink:href="quickjs_8c.html#a0d3fa47d2f86605d823f947020971a39" target="_top" xlink:title="js_thisNumberValue">
<polygon fill="none" stroke="#000000" points="135,-38.5 135,-57.5 239,-57.5 239,-38.5 135,-38.5"/>
<text text-anchor="middle" x="187" y="-45.5" font-family="Helvetica,sans-Serif" font-size="10.00" fill="#000000">js_thisNumberValue</text>
</a>
</g>
</g>
<!-- Node403516&#45;&gt;Node403554 -->
<g id="edge10" class="edge">
<title>Node403516&#45;&gt;Node403554</title>
<path fill="none" stroke="#191970" d="M61.9537,-114.3107C78.1034,-102.0793 107.4716,-80.9543 135,-67 139.0146,-64.965 143.3004,-63.0387 147.6239,-61.2495"/>
<polygon fill="#191970" stroke="#191970" points="149.0182,-64.4624 157.0583,-57.5625 146.4702,-57.9426 149.0182,-64.4624"/>
</g>
<!-- Node403556 -->
<g id="node14" class="node">
<title>Node403556</title>
<g id="a_node14"><a xlink:href="quickjs_8c.html#ab1b614ef35f1cea05da0ad4927c53118" target="_top" xlink:title="JS_ToFloat64Free">
<polygon fill="none" stroke="#000000" points="138.5,-114.5 138.5,-133.5 235.5,-133.5 235.5,-114.5 138.5,-114.5"/>
<text text-anchor="middle" x="187" y="-121.5" font-family="Helvetica,sans-Serif" font-size="10.00" fill="#000000">JS_ToFloat64Free</text>
</a>
</g>
</g>
<!-- Node403516&#45;&gt;Node403556 -->
<g id="edge13" class="edge">
<title>Node403516&#45;&gt;Node403556</title>
<path fill="none" stroke="#191970" d="M99.1407,-124C108.618,-124 118.6216,-124 128.3494,-124"/>
<polygon fill="#191970" stroke="#191970" points="128.3534,-127.5001 138.3533,-124 128.3533,-120.5001 128.3534,-127.5001"/>
</g>
<!-- Node403949 -->
<g id="node17" class="node">
<title>Node403949</title>
<g id="a_node17"><a xlink:href="quickjs_8c.html#ad698ea01233894f912303776fe3c08c8" target="_top" xlink:title="JS_ToInt32Sat">
<polygon fill="none" stroke="#000000" points="146,-76.5 146,-95.5 228,-95.5 228,-76.5 146,-76.5"/>
<text text-anchor="middle" x="187" y="-83.5" font-family="Helvetica,sans-Serif" font-size="10.00" fill="#000000">JS_ToInt32Sat</text>
</a>
</g>
</g>
<!-- Node403516&#45;&gt;Node403949 -->
<g id="edge17" class="edge">
<title>Node403516&#45;&gt;Node403949</title>
<path fill="none" stroke="#191970" d="M84.1971,-114.411C101.8656,-109.5281 123.5485,-103.5357 142.439,-98.315"/>
<polygon fill="#191970" stroke="#191970" points="143.6077,-101.6233 152.314,-95.5859 141.743,-94.8762 143.6077,-101.6233"/>
</g>
<!-- Node403776 -->
<g id="node19" class="node">
<title>Node403776</title>
<g id="a_node19"><a xlink:href="quickjs_8c.html#a38cad713b74c445668210ea8614bfb65" target="_top" xlink:title="JS_ToStringFree">
<polygon fill="none" stroke="#ff0000" points="142,-.5 142,-19.5 232,-19.5 232,-.5 142,-.5"/>
<text text-anchor="middle" x="187" y="-7.5" font-family="Helvetica,sans-Serif" font-size="10.00" fill="#000000">JS_ToStringFree</text>
</a>
</g>
</g>
<!-- Node403516&#45;&gt;Node403776 -->
<g id="edge22" class="edge">
<title>Node403516&#45;&gt;Node403776</title>
<path fill="none" stroke="#191970" d="M55.8392,-114.2228C68.6215,-95.2289 99.3302,-53.0978 135,-29 137.8746,-27.058 140.9724,-25.2858 144.1731,-23.6743"/>
<polygon fill="#191970" stroke="#191970" points="145.6751,-26.8367 153.3667,-19.5503 142.8101,-20.4498 145.6751,-26.8367"/>
</g>
<!-- Node403519 -->
<g id="node4" class="node">
<title>Node403519</title>
<g id="a_node4"><a xlink:href="quickjs_8c.html#a7ba39dd8c4124908e1c12e2d3267767c" target="_top" xlink:title="js_dtoa1">
<polygon fill="none" stroke="#000000" points="302,-190.5 302,-209.5 355,-209.5 355,-190.5 302,-190.5"/>
<text text-anchor="middle" x="328.5" y="-197.5" font-family="Helvetica,sans-Serif" font-size="10.00" fill="#000000">js_dtoa1</text>
</a>
</g>
</g>
<!-- Node403518&#45;&gt;Node403519 -->
<g id="edge3" class="edge">
<title>Node403518&#45;&gt;Node403519</title>
<path fill="none" stroke="#191970" d="M211.0035,-200C233.1798,-200 266.4468,-200 291.9284,-200"/>
<polygon fill="#191970" stroke="#191970" points="291.968,-203.5001 301.968,-200 291.9679,-196.5001 291.968,-203.5001"/>
</g>
<!-- Node403525 -->
<g id="node8" class="node">
<title>Node403525</title>
<g id="a_node8"><a xlink:href="quickjs_8c.html#a0ee6a3654a6016393fac5e1c108f403a" target="_top" xlink:title="JS_NewString">
<polygon fill="none" stroke="#000000" points="288.5,-247.5 288.5,-266.5 368.5,-266.5 368.5,-247.5 288.5,-247.5"/>
<text text-anchor="middle" x="328.5" y="-254.5" font-family="Helvetica,sans-Serif" font-size="10.00" fill="#000000">JS_NewString</text>
</a>
</g>
</g>
<!-- Node403518&#45;&gt;Node403525 -->
<g id="edge7" class="edge">
<title>Node403518&#45;&gt;Node403525</title>
<path fill="none" stroke="#191970" d="M211.1738,-208.5418C219.9714,-211.7269 229.9702,-215.4361 239,-219 258.5575,-226.719 280.2707,-235.9223 297.4121,-243.3382"/>
<polygon fill="#191970" stroke="#191970" points="296.3592,-246.6968 306.9256,-247.4733 299.1497,-240.2771 296.3592,-246.6968"/>
</g>
<!-- Node403520 -->
<g id="node5" class="node">
<title>Node403520</title>
<g id="a_node5"><a xlink:href="quickjs_8c.html#a8005e0fac8fb44a3516d0d75375af433" target="_top" xlink:title="i64toa">
<polygon fill="none" stroke="#000000" points="446,-190.5 446,-209.5 489,-209.5 489,-190.5 446,-190.5"/>
<text text-anchor="middle" x="467.5" y="-197.5" font-family="Helvetica,sans-Serif" font-size="10.00" fill="#000000">i64toa</text>
</a>
</g>
</g>
<!-- Node403519&#45;&gt;Node403520 -->
<g id="edge4" class="edge">
<title>Node403519&#45;&gt;Node403520</title>
<path fill="none" stroke="#191970" d="M355.3006,-200C378.2533,-200 411.3506,-200 435.6514,-200"/>
<polygon fill="#191970" stroke="#191970" points="435.8004,-203.5001 445.8003,-200 435.8003,-196.5001 435.8004,-203.5001"/>
</g>
<!-- Node403521 -->
<g id="node6" class="node">
<title>Node403521</title>
<g id="a_node6"><a xlink:href="quickjs_8c.html#a3361a59ceaddbd4c2081315f6f5f1978" target="_top" xlink:title="js_ecvt">
<polygon fill="none" stroke="#ff0000" points="443.5,-152.5 443.5,-171.5 491.5,-171.5 491.5,-152.5 443.5,-152.5"/>
<text text-anchor="middle" x="467.5" y="-159.5" font-family="Helvetica,sans-Serif" font-size="10.00" fill="#000000">js_ecvt</text>
</a>
</g>
</g>
<!-- Node403519&#45;&gt;Node403521 -->
<g id="edge5" class="edge">
<title>Node403519&#45;&gt;Node403521</title>
<path fill="none" stroke="#191970" d="M355.3006,-192.6732C377.5279,-186.5967 409.2686,-177.9194 433.3215,-171.3438"/>
<polygon fill="#191970" stroke="#191970" points="434.386,-174.6813 443.1091,-168.668 432.54,-167.929 434.386,-174.6813"/>
</g>
<!-- Node403523 -->
<g id="node7" class="node">
<title>Node403523</title>
<g id="a_node7"><a xlink:href="quickjs_8c.html#a982972948d4f4a4a0fe7306056c44a92" target="_top" xlink:title="js_fcvt">
<polygon fill="none" stroke="#ff0000" points="444.5,-228.5 444.5,-247.5 490.5,-247.5 490.5,-228.5 444.5,-228.5"/>
<text text-anchor="middle" x="467.5" y="-235.5" font-family="Helvetica,sans-Serif" font-size="10.00" fill="#000000">js_fcvt</text>
</a>
</g>
</g>
<!-- Node403519&#45;&gt;Node403523 -->
<g id="edge6" class="edge">
<title>Node403519&#45;&gt;Node403523</title>
<path fill="none" stroke="#191970" d="M355.3006,-207.3268C377.9421,-213.5165 410.4548,-222.4049 434.658,-229.0216"/>
<polygon fill="#191970" stroke="#191970" points="433.9,-232.4428 444.469,-231.7038 435.746,-225.6905 433.9,-232.4428"/>
</g>
<!-- Node403526 -->
<g id="node9" class="node">
<title>Node403526</title>
<g id="a_node9"><a xlink:href="quickjs_8c.html#ac34cc554aab1e98c45a7f845fff64385" target="_top" xlink:title="JS_NewStringLen">
<polygon fill="none" stroke="#ff0000" points="420,-266.5 420,-285.5 515,-285.5 515,-266.5 420,-266.5"/>
<text text-anchor="middle" x="467.5" y="-273.5" font-family="Helvetica,sans-Serif" font-size="10.00" fill="#000000">JS_NewStringLen</text>
</a>
</g>
</g>
<!-- Node403525&#45;&gt;Node403526 -->
<g id="edge8" class="edge">
<title>Node403525&#45;&gt;Node403526</title>
<path fill="none" stroke="#191970" d="M368.7046,-262.4956C381.544,-264.2506 396.0161,-266.2288 409.8437,-268.1189"/>
<polygon fill="#191970" stroke="#191970" points="409.384,-271.5885 419.7659,-269.4752 410.3321,-264.653 409.384,-271.5885"/>
</g>
<!-- Node403536 -->
<g id="node12" class="node">
<title>Node403536</title>
<g id="a_node12"><a xlink:href="quickjs_8h.html#a775522f2d084fc8fa0fcb33f390006b4" target="_top" xlink:title="JS_DupValue">
<polygon fill="none" stroke="#000000" points="290,-38.5 290,-57.5 367,-57.5 367,-38.5 290,-38.5"/>
<text text-anchor="middle" x="328.5" y="-45.5" font-family="Helvetica,sans-Serif" font-size="10.00" fill="#000000">JS_DupValue</text>
</a>
</g>
</g>
<!-- Node403554&#45;&gt;Node403536 -->
<g id="edge11" class="edge">
<title>Node403554&#45;&gt;Node403536</title>
<path fill="none" stroke="#191970" d="M239.2874,-48C252.4569,-48 266.544,-48 279.5434,-48"/>
<polygon fill="#191970" stroke="#191970" points="279.6971,-51.5001 289.6971,-48 279.697,-44.5001 279.6971,-51.5001"/>
</g>
<!-- Node403555 -->
<g id="node13" class="node">
<title>Node403555</title>
<g id="a_node13"><a xlink:href="quickjs_8h.html#ab995df176086f2a2a06ab777d4c4ef28" target="_top" xlink:title="JS_IsNumber">
<polygon fill="none" stroke="#000000" points="290,-.5 290,-19.5 367,-19.5 367,-.5 290,-.5"/>
<text text-anchor="middle" x="328.5" y="-7.5" font-family="Helvetica,sans-Serif" font-size="10.00" fill="#000000">JS_IsNumber</text>
</a>
</g>
</g>
<!-- Node403554&#45;&gt;Node403555 -->
<g id="edge12" class="edge">
<title>Node403554&#45;&gt;Node403555</title>
<path fill="none" stroke="#191970" d="M222.7064,-38.411C240.9727,-33.5056 263.4084,-27.4804 282.9112,-22.2429"/>
<polygon fill="#191970" stroke="#191970" points="284.055,-25.5599 292.805,-19.5859 282.2394,-18.7994 284.055,-25.5599"/>
</g>
<!-- Node403557 -->
<g id="node15" class="node">
<title>Node403557</title>
<g id="a_node15"><a xlink:href="quickjs_8c.html#a9a2e141f21d9ea38a3a23c9b4eb6e356" target="_top" xlink:title="__JS_ToFloat64Free">
<polygon fill="none" stroke="#000000" points="275,-114.5 275,-133.5 382,-133.5 382,-114.5 275,-114.5"/>
<text text-anchor="middle" x="328.5" y="-121.5" font-family="Helvetica,sans-Serif" font-size="10.00" fill="#000000">__JS_ToFloat64Free</text>
</a>
</g>
</g>
<!-- Node403556&#45;&gt;Node403557 -->
<g id="edge14" class="edge">
<title>Node403556&#45;&gt;Node403557</title>
<path fill="none" stroke="#191970" d="M235.6963,-124C245.0709,-124 255.0194,-124 264.7873,-124"/>
<polygon fill="#191970" stroke="#191970" points="264.8694,-127.5001 274.8694,-124 264.8693,-120.5001 264.8694,-127.5001"/>
</g>
<!-- Node403557&#45;&gt;Node403553 -->
<g id="edge15" class="edge">
<title>Node403557&#45;&gt;Node403553</title>
<path fill="none" stroke="#191970" d="M382.241,-124C392.669,-124 403.5967,-124 414.0164,-124"/>
<polygon fill="#191970" stroke="#191970" points="414.2295,-127.5001 424.2295,-124 414.2295,-120.5001 414.2295,-127.5001"/>
</g>
<!-- Node403558 -->
<g id="node16" class="node">
<title>Node403558</title>
<g id="a_node16"><a xlink:href="quickjs_8c.html#ae738291483438efefca5c9fa4d269504" target="_top" xlink:title="JS_ToNumberFree">
<polygon fill="none" stroke="#ff0000" points="418,-76.5 418,-95.5 517,-95.5 517,-76.5 418,-76.5"/>
<text text-anchor="middle" x="467.5" y="-83.5" font-family="Helvetica,sans-Serif" font-size="10.00" fill="#000000">JS_ToNumberFree</text>
</a>
</g>
</g>
<!-- Node403557&#45;&gt;Node403558 -->
<g id="edge16" class="edge">
<title>Node403557&#45;&gt;Node403558</title>
<path fill="none" stroke="#191970" d="M363.5756,-114.411C381.5191,-109.5056 403.5584,-103.4804 422.7167,-98.2429"/>
<polygon fill="#191970" stroke="#191970" points="423.7126,-101.5992 432.4357,-95.5859 421.8666,-94.8469 423.7126,-101.5992"/>
</g>
<!-- Node403949&#45;&gt;Node403536 -->
<g id="edge18" class="edge">
<title>Node403949&#45;&gt;Node403536</title>
<path fill="none" stroke="#191970" d="M222.7064,-76.411C240.9727,-71.5056 263.4084,-65.4804 282.9112,-60.2429"/>
<polygon fill="#191970" stroke="#191970" points="284.055,-63.5599 292.805,-57.5859 282.2394,-56.7994 284.055,-63.5599"/>
</g>
<!-- Node403950 -->
<g id="node18" class="node">
<title>Node403950</title>
<g id="a_node18"><a xlink:href="quickjs_8c.html#a419bec82cb80e98e08626a9a5212ec4c" target="_top" xlink:title="JS_ToInt32SatFree">
<polygon fill="none" stroke="#000000" points="278,-76.5 278,-95.5 379,-95.5 379,-76.5 278,-76.5"/>
<text text-anchor="middle" x="328.5" y="-83.5" font-family="Helvetica,sans-Serif" font-size="10.00" fill="#000000">JS_ToInt32SatFree</text>
</a>
</g>
</g>
<!-- Node403949&#45;&gt;Node403950 -->
<g id="edge19" class="edge">
<title>Node403949&#45;&gt;Node403950</title>
<path fill="none" stroke="#191970" d="M228.308,-86C240.6588,-86 254.4665,-86 267.7894,-86"/>
<polygon fill="#191970" stroke="#191970" points="267.8508,-89.5001 277.8508,-86 267.8508,-82.5001 267.8508,-89.5001"/>
</g>
<!-- Node403950&#45;&gt;Node403553 -->
<g id="edge20" class="edge">
<title>Node403950&#45;&gt;Node403553</title>
<path fill="none" stroke="#191970" d="M363.5756,-95.589C381.5191,-100.4944 403.5584,-106.5196 422.7167,-111.7571"/>
<polygon fill="#191970" stroke="#191970" points="421.8666,-115.1531 432.4357,-114.4141 423.7126,-108.4008 421.8666,-115.1531"/>
</g>
<!-- Node403950&#45;&gt;Node403558 -->
<g id="edge21" class="edge">
<title>Node403950&#45;&gt;Node403558</title>
<path fill="none" stroke="#191970" d="M379.0754,-86C388.3102,-86 398.0276,-86 407.5047,-86"/>
<polygon fill="#191970" stroke="#191970" points="407.6599,-89.5001 417.6598,-86 407.6598,-82.5001 407.6599,-89.5001"/>
</g>
</g>
</svg>
