<?xml version="1.0" encoding="UTF-8" standalone="no"?>
<!DOCTYPE svg PUBLIC "-//W3C//DTD SVG 1.1//EN"
 "http://www.w3.org/Graphics/SVG/1.1/DTD/svg11.dtd">
<!-- Generated by graphviz version 2.40.1 (20161225.0304)
 -->
<!-- Title: resize_shape_hash Pages: 1 -->
<svg width="691pt" height="47pt"
 viewBox="0.00 0.00 691.00 47.00" xmlns="http://www.w3.org/2000/svg" xmlns:xlink="http://www.w3.org/1999/xlink">
<g id="graph0" class="graph" transform="scale(1 1) rotate(0) translate(4 43)">
<title>resize_shape_hash</title>
<!-- Node121942 -->
<g id="node1" class="node">
<title>Node121942</title>
<polygon fill="#bfbfbf" stroke="#000000" points="0,-.5 0,-19.5 101,-19.5 101,-.5 0,-.5"/>
<text text-anchor="middle" x="50.5" y="-7.5" font-family="Helvetica,sans-Serif" font-size="10.00" fill="#000000">resize_shape_hash</text>
</g>
<!-- Node121943 -->
<g id="node2" class="node">
<title>Node121943</title>
<g id="a_node2"><a xlink:href="quickjs_8c.html#a1030d2020be7d911eb62869f21cc3b70" target="_top" xlink:title="js_new_shape2">
<polygon fill="none" stroke="#000000" points="137,-.5 137,-19.5 221,-19.5 221,-.5 137,-.5"/>
<text text-anchor="middle" x="179" y="-7.5" font-family="Helvetica,sans-Serif" font-size="10.00" fill="#000000">js_new_shape2</text>
</a>
</g>
</g>
<!-- Node121942&#45;&gt;Node121943 -->
<g id="edge1" class="edge">
<title>Node121942&#45;&gt;Node121943</title>
<path fill="none" stroke="#191970" d="M111.3434,-10C119.9744,-10 128.6875,-10 136.8576,-10"/>
<polygon fill="#191970" stroke="#191970" points="111.2866,-6.5001 101.2866,-10 111.2866,-13.5001 111.2866,-6.5001"/>
</g>
<!-- Node121944 -->
<g id="node3" class="node">
<title>Node121944</title>
<g id="a_node3"><a xlink:href="quickjs_8c.html#ad6926e49955be5e10423f6df8d8cff3e" target="_top" xlink:title="js_new_shape">
<polygon fill="none" stroke="#000000" points="257,-19.5 257,-38.5 336,-38.5 336,-19.5 257,-19.5"/>
<text text-anchor="middle" x="296.5" y="-26.5" font-family="Helvetica,sans-Serif" font-size="10.00" fill="#000000">js_new_shape</text>
</a>
</g>
</g>
<!-- Node121943&#45;&gt;Node121944 -->
<g id="edge2" class="edge">
<title>Node121943&#45;&gt;Node121944</title>
<path fill="none" stroke="#191970" d="M231.046,-18.4159C239.6426,-19.806 248.4332,-21.2275 256.6686,-22.5592"/>
<polygon fill="#191970" stroke="#191970" points="231.5188,-14.947 221.0883,-16.8058 230.4014,-21.8573 231.5188,-14.947"/>
</g>
<!-- Node122113 -->
<g id="node5" class="node">
<title>Node122113</title>
<g id="a_node5"><a xlink:href="quickjs_8c.html#a7efb53c2f76fd5cc0e584449437ec09c" target="_top" xlink:title="JS_AddIntrinsicBasicObjects">
<polygon fill="none" stroke="#ff0000" points="539,-.5 539,-19.5 683,-19.5 683,-.5 539,-.5"/>
<text text-anchor="middle" x="611" y="-7.5" font-family="Helvetica,sans-Serif" font-size="10.00" fill="#000000">JS_AddIntrinsicBasicObjects</text>
</a>
</g>
</g>
<!-- Node121943&#45;&gt;Node122113 -->
<g id="edge5" class="edge">
<title>Node121943&#45;&gt;Node122113</title>
<path fill="none" stroke="#191970" d="M231.6191,-10C308.6231,-10 452.253,-10 538.9921,-10"/>
<polygon fill="#191970" stroke="#191970" points="231.2086,-6.5001 221.2085,-10 231.2085,-13.5001 231.2086,-6.5001"/>
</g>
<!-- Node121945 -->
<g id="node4" class="node">
<title>Node121945</title>
<g id="a_node4"><a xlink:href="quickjs_8c.html#a73738c650f11459db0d7af3dcdf8316b" target="_top" xlink:title="JS_NewObjectProtoClass">
<polygon fill="none" stroke="#ff0000" points="372,-19.5 372,-38.5 503,-38.5 503,-19.5 372,-19.5"/>
<text text-anchor="middle" x="437.5" y="-26.5" font-family="Helvetica,sans-Serif" font-size="10.00" fill="#000000">JS_NewObjectProtoClass</text>
</a>
</g>
</g>
<!-- Node121944&#45;&gt;Node121945 -->
<g id="edge3" class="edge">
<title>Node121944&#45;&gt;Node121945</title>
<path fill="none" stroke="#191970" d="M346.3909,-29C354.6813,-29 363.3886,-29 371.9961,-29"/>
<polygon fill="#191970" stroke="#191970" points="346.1516,-25.5001 336.1516,-29 346.1516,-32.5001 346.1516,-25.5001"/>
</g>
<!-- Node121945&#45;&gt;Node122113 -->
<g id="edge4" class="edge">
<title>Node121945&#45;&gt;Node122113</title>
<path fill="none" stroke="#191970" d="M513.0803,-20.7232C521.6636,-19.7832 530.3953,-18.827 538.9316,-17.8922"/>
<polygon fill="#191970" stroke="#191970" points="512.6524,-17.249 503.0929,-21.8169 513.4145,-24.2074 512.6524,-17.249"/>
</g>
</g>
</svg>
