<?xml version="1.0" encoding="UTF-8" standalone="no"?>
<!DOCTYPE svg PUBLIC "-//W3C//DTD SVG 1.1//EN"
 "http://www.w3.org/Graphics/SVG/1.1/DTD/svg11.dtd">
<!-- Generated by graphviz version 2.40.1 (20161225.0304)
 -->
<!-- Title: JS_DumpString Pages: 1 -->
<svg width="503pt" height="104pt"
 viewBox="0.00 0.00 503.00 104.00" xmlns="http://www.w3.org/2000/svg" xmlns:xlink="http://www.w3.org/1999/xlink">
<g id="graph0" class="graph" transform="scale(1 1) rotate(0) translate(4 100)">
<title>JS_DumpString</title>
<!-- Node78882 -->
<g id="node1" class="node">
<title>Node78882</title>
<polygon fill="#bfbfbf" stroke="#000000" points="0,-57.5 0,-76.5 86,-76.5 86,-57.5 0,-57.5"/>
<text text-anchor="middle" x="43" y="-64.5" font-family="Helvetica,sans-Serif" font-size="10.00" fill="#000000">JS_DumpString</text>
</g>
<!-- Node78883 -->
<g id="node2" class="node">
<title>Node78883</title>
<g id="a_node2"><a xlink:href="quickjs_8c.html#a960a868d82e24d5fb1b59ab598976a50" target="_top" xlink:title="JS_DumpAtoms">
<polygon fill="none" stroke="#000000" points="131.5,-76.5 131.5,-95.5 220.5,-95.5 220.5,-76.5 131.5,-76.5"/>
<text text-anchor="middle" x="176" y="-83.5" font-family="Helvetica,sans-Serif" font-size="10.00" fill="#000000">JS_DumpAtoms</text>
</a>
</g>
</g>
<!-- Node78882&#45;&gt;Node78883 -->
<g id="edge1" class="edge">
<title>Node78882&#45;&gt;Node78883</title>
<path fill="none" stroke="#191970" d="M96.1967,-74.5995C107.8013,-76.2573 119.9694,-77.9956 131.2084,-79.6012"/>
<polygon fill="#191970" stroke="#191970" points="96.5758,-71.1182 86.1813,-73.1688 95.5858,-78.0479 96.5758,-71.1182"/>
</g>
<!-- Node78884 -->
<g id="node3" class="node">
<title>Node78884</title>
<g id="a_node3"><a xlink:href="quickjs_8c.html#a42ffceed2bd5abf49dd5f2f7c3404c8c" target="_top" xlink:title="JS_DumpValueShort">
<polygon fill="none" stroke="#000000" points="122,-38.5 122,-57.5 230,-57.5 230,-38.5 122,-38.5"/>
<text text-anchor="middle" x="176" y="-45.5" font-family="Helvetica,sans-Serif" font-size="10.00" fill="#000000">JS_DumpValueShort</text>
</a>
</g>
</g>
<!-- Node78882&#45;&gt;Node78884 -->
<g id="edge2" class="edge">
<title>Node78882&#45;&gt;Node78884</title>
<path fill="none" stroke="#191970" d="M96.2707,-59.3899C104.6937,-58.1866 113.4117,-56.9412 121.8544,-55.7351"/>
<polygon fill="#191970" stroke="#191970" points="95.5858,-55.9521 86.1813,-60.8312 96.5758,-62.8818 95.5858,-55.9521"/>
</g>
<!-- Node78885 -->
<g id="node4" class="node">
<title>Node78885</title>
<g id="a_node4"><a xlink:href="quickjs_8c.html#a315f18f552c506d05a36ab22649c8e3f" target="_top" xlink:title="JS_DumpObject">
<polygon fill="none" stroke="#000000" points="266,-76.5 266,-95.5 355,-95.5 355,-76.5 266,-76.5"/>
<text text-anchor="middle" x="310.5" y="-83.5" font-family="Helvetica,sans-Serif" font-size="10.00" fill="#000000">JS_DumpObject</text>
</a>
</g>
</g>
<!-- Node78884&#45;&gt;Node78885 -->
<g id="edge3" class="edge">
<title>Node78884&#45;&gt;Node78885</title>
<path fill="none" stroke="#191970" d="M219.6004,-60.3183C238.0798,-65.5393 259.2895,-71.5316 276.5708,-76.4141"/>
<polygon fill="#191970" stroke="#191970" points="220.515,-56.9398 209.94,-57.589 218.6117,-63.6761 220.515,-56.9398"/>
</g>
<!-- Node78887 -->
<g id="node6" class="node">
<title>Node78887</title>
<g id="a_node6"><a xlink:href="quickjs_8c.html#a646c3d9262414e3636fe43d01588edc8" target="_top" xlink:title="JS_DumpValue">
<polygon fill="none" stroke="#000000" points="268,-38.5 268,-57.5 353,-57.5 353,-38.5 268,-38.5"/>
<text text-anchor="middle" x="310.5" y="-45.5" font-family="Helvetica,sans-Serif" font-size="10.00" fill="#000000">JS_DumpValue</text>
</a>
</g>
</g>
<!-- Node78884&#45;&gt;Node78887 -->
<g id="edge5" class="edge">
<title>Node78884&#45;&gt;Node78887</title>
<path fill="none" stroke="#191970" d="M240.4091,-48C249.7664,-48 259.1972,-48 267.9751,-48"/>
<polygon fill="#191970" stroke="#191970" points="240.3186,-44.5001 230.3186,-48 240.3186,-51.5001 240.3186,-44.5001"/>
</g>
<!-- Node78888 -->
<g id="node7" class="node">
<title>Node78888</title>
<g id="a_node7"><a xlink:href="quickjs_8c.html#a2ed336fc5fbbc0999bf58d0fa70a443e" target="_top" xlink:title="JS_PrintValue">
<polygon fill="none" stroke="#000000" points="271,-.5 271,-19.5 350,-19.5 350,-.5 271,-.5"/>
<text text-anchor="middle" x="310.5" y="-7.5" font-family="Helvetica,sans-Serif" font-size="10.00" fill="#000000">JS_PrintValue</text>
</a>
</g>
</g>
<!-- Node78884&#45;&gt;Node78888 -->
<g id="edge6" class="edge">
<title>Node78884&#45;&gt;Node78888</title>
<path fill="none" stroke="#191970" d="M219.6004,-35.6817C238.0798,-30.4607 259.2895,-24.4684 276.5708,-19.5859"/>
<polygon fill="#191970" stroke="#191970" points="218.6117,-32.3239 209.94,-38.411 220.515,-39.0602 218.6117,-32.3239"/>
</g>
<!-- Node78886 -->
<g id="node5" class="node">
<title>Node78886</title>
<g id="a_node5"><a xlink:href="quickjs_8c.html#a9ca2f6b32f0e892e8031147aa8edf270" target="_top" xlink:title="JS_DumpGCObject">
<polygon fill="none" stroke="#000000" points="391,-76.5 391,-95.5 495,-95.5 495,-76.5 391,-76.5"/>
<text text-anchor="middle" x="443" y="-83.5" font-family="Helvetica,sans-Serif" font-size="10.00" fill="#000000">JS_DumpGCObject</text>
</a>
</g>
</g>
<!-- Node78885&#45;&gt;Node78886 -->
<g id="edge4" class="edge">
<title>Node78885&#45;&gt;Node78886</title>
<path fill="none" stroke="#191970" d="M365.4544,-86C373.864,-86 382.5239,-86 390.8702,-86"/>
<polygon fill="#191970" stroke="#191970" points="365.3585,-82.5001 355.3585,-86 365.3584,-89.5001 365.3585,-82.5001"/>
</g>
</g>
</svg>
