<?xml version="1.0" encoding="UTF-8" standalone="no"?>
<!DOCTYPE svg PUBLIC "-//W3C//DTD SVG 1.1//EN"
 "http://www.w3.org/Graphics/SVG/1.1/DTD/svg11.dtd">
<!-- Generated by graphviz version 2.40.1 (20161225.0304)
 -->
<!-- Title: js_worker_set_onmessage Pages: 1 -->
<!--zoomable 275 -->
<svg id="main" version="1.1" xmlns="http://www.w3.org/2000/svg" xmlns:xlink="http://www.w3.org/1999/xlink" xml:space="preserve" onload="init(evt)">
<style type="text/css"><![CDATA[
.edge:hover path { stroke: red; }
.edge:hover polygon { stroke: red; fill: red; }
]]></style>
<script type="text/javascript"><![CDATA[
var edges = document.getElementsByTagName('g');
if (edges && edges.length) {
  for (var i=0;i<edges.length;i++) {
    if (edges[i].id.substr(0,4)=='edge') {
      edges[i].setAttribute('class','edge');
    }
  }
}
]]></script>
        <defs>
                <circle id="rim" cx="0" cy="0" r="7"/>
                <circle id="rim2" cx="0" cy="0" r="3.5"/>
                <g id="zoomPlus">
                        <use xlink:href="#rim" fill="#404040">
                                <set attributeName="fill" to="#808080" begin="zoomplus.mouseover" end="zoomplus.mouseout"/>
                        </use>
                        <path d="M-4,0h8M0,-4v8" fill="none" stroke="white" stroke-width="1.5" pointer-events="none"/>
                </g>
                <g id="zoomMin">
                        <use xlink:href="#rim" fill="#404040">
                                <set attributeName="fill" to="#808080" begin="zoomminus.mouseover" end="zoomminus.mouseout"/>
                        </use>
                        <path d="M-4,0h8" fill="none" stroke="white" stroke-width="1.5" pointer-events="none"/>
                </g>
                <g id="dirArrow">
                        <path fill="none" stroke="white" stroke-width="1.5" d="M0,-3.0v7 M-2.5,-0.5L0,-3.0L2.5,-0.5"/>
                </g>
               <g id="resetDef">
                       <use xlink:href="#rim2" fill="#404040">
                               <set attributeName="fill" to="#808080" begin="reset.mouseover" end="reset.mouseout"/>
                       </use>
               </g>
        </defs>

<script type="text/javascript">
var viewWidth = 644;
var viewHeight = 275;
var sectionId = 'dynsection-134';
</script>
<script xlink:href="svgpan.js"/>
<svg id="graph" class="graph">
<g id="viewport">
<title>js_worker_set_onmessage</title>
<!-- Node29534 -->
<g id="node1" class="node">
<title>Node29534</title>
<polygon fill="#bfbfbf" stroke="#000000" points="0,-95.5 0,-114.5 133,-114.5 133,-95.5 0,-95.5"/>
<text text-anchor="middle" x="66.5" y="-102.5" font-family="Helvetica,sans-Serif" font-size="10.00" fill="#000000">js_worker_set_onmessage</text>
</g>
<!-- Node29535 -->
<g id="node2" class="node">
<title>Node29535</title>
<g id="a_node2"><a xlink:href="quickjs_8h.html#a775522f2d084fc8fa0fcb33f390006b4" target="_top" xlink:title="JS_DupValue">
<polygon fill="none" stroke="#000000" points="173.5,-190.5 173.5,-209.5 250.5,-209.5 250.5,-190.5 173.5,-190.5"/>
<text text-anchor="middle" x="212" y="-197.5" font-family="Helvetica,sans-Serif" font-size="10.00" fill="#000000">JS_DupValue</text>
</a>
</g>
</g>
<!-- Node29534&#45;&gt;Node29535 -->
<g id="edge1" class="edge">
<title>Node29534&#45;&gt;Node29535</title>
<path fill="none" stroke="#191970" d="M77.6056,-114.5382C95.8232,-129.8762 133.5782,-160.3864 169,-181 172.0553,-182.778 175.3076,-184.4983 178.6028,-186.1294"/>
<polygon fill="#191970" stroke="#191970" points="177.3339,-189.3997 187.8752,-190.4643 180.2986,-183.0585 177.3339,-189.3997"/>
</g>
<!-- Node29536 -->
<g id="node3" class="node">
<title>Node29536</title>
<g id="a_node3"><a xlink:href="quickjs-libc_8c.html#a23e6bef6353d5de8d3103a30b107965e" target="_top" xlink:title="js_free_port">
<polygon fill="none" stroke="#000000" points="178,-152.5 178,-171.5 246,-171.5 246,-152.5 178,-152.5"/>
<text text-anchor="middle" x="212" y="-159.5" font-family="Helvetica,sans-Serif" font-size="10.00" fill="#000000">js_free_port</text>
</a>
</g>
</g>
<!-- Node29534&#45;&gt;Node29536 -->
<g id="edge2" class="edge">
<title>Node29534&#45;&gt;Node29536</title>
<path fill="none" stroke="#191970" d="M90.8534,-114.5405C114.7743,-123.9116 151.471,-138.2876 178.209,-148.7623"/>
<polygon fill="#191970" stroke="#191970" points="176.9794,-152.0395 187.5671,-152.4284 179.5328,-145.5218 176.9794,-152.0395"/>
</g>
<!-- Node29562 -->
<g id="node11" class="node">
<title>Node29562</title>
<g id="a_node11"><a xlink:href="quickjs_8h.html#afaa20c47565bc704c6c85f3d77254e7d" target="_top" xlink:title="JS_FreeValue">
<polygon fill="none" stroke="#ff0000" points="173,-114.5 173,-133.5 251,-133.5 251,-114.5 173,-114.5"/>
<text text-anchor="middle" x="212" y="-121.5" font-family="Helvetica,sans-Serif" font-size="10.00" fill="#000000">JS_FreeValue</text>
</a>
</g>
</g>
<!-- Node29534&#45;&gt;Node29562 -->
<g id="edge11" class="edge">
<title>Node29534&#45;&gt;Node29562</title>
<path fill="none" stroke="#191970" d="M133.2882,-113.7215C143.2731,-115.0254 153.4088,-116.3489 162.9362,-117.593"/>
<polygon fill="#191970" stroke="#191970" points="162.6307,-121.0828 172.9997,-118.9072 163.5371,-114.1417 162.6307,-121.0828"/>
</g>
<!-- Node29578 -->
<g id="node12" class="node">
<title>Node29578</title>
<g id="a_node12"><a xlink:href="quickjs_8c.html#af1866c7f8a91153f11602a2b521d9399" target="_top" xlink:title="JS_GetRuntime">
<polygon fill="none" stroke="#000000" points="169,-76.5 169,-95.5 255,-95.5 255,-76.5 169,-76.5"/>
<text text-anchor="middle" x="212" y="-83.5" font-family="Helvetica,sans-Serif" font-size="10.00" fill="#000000">JS_GetRuntime</text>
</a>
</g>
</g>
<!-- Node29534&#45;&gt;Node29578 -->
<g id="edge12" class="edge">
<title>Node29534&#45;&gt;Node29578</title>
<path fill="none" stroke="#191970" d="M133.2882,-96.2785C141.8922,-95.155 150.6082,-94.0168 158.9505,-92.9274"/>
<polygon fill="#191970" stroke="#191970" points="159.4455,-96.3926 168.9081,-91.6271 158.5391,-89.4515 159.4455,-96.3926"/>
</g>
<!-- Node29579 -->
<g id="node13" class="node">
<title>Node29579</title>
<g id="a_node13"><a xlink:href="quickjs_8c.html#a1ca9cdb1fa2ffc3e6506e92b200e490f" target="_top" xlink:title="JS_IsFunction">
<polygon fill="none" stroke="#000000" points="172,-38.5 172,-57.5 252,-57.5 252,-38.5 172,-38.5"/>
<text text-anchor="middle" x="212" y="-45.5" font-family="Helvetica,sans-Serif" font-size="10.00" fill="#000000">JS_IsFunction</text>
</a>
</g>
</g>
<!-- Node29534&#45;&gt;Node29579 -->
<g id="edge13" class="edge">
<title>Node29534&#45;&gt;Node29579</title>
<path fill="none" stroke="#191970" d="M90.8534,-95.4595C114.7743,-86.0884 151.471,-71.7124 178.209,-61.2377"/>
<polygon fill="#191970" stroke="#191970" points="179.5328,-64.4782 187.5671,-57.5716 176.9794,-57.9605 179.5328,-64.4782"/>
</g>
<!-- Node29580 -->
<g id="node14" class="node">
<title>Node29580</title>
<g id="a_node14"><a xlink:href="quickjs_8h.html#a149f24b67e745bad93573b3b4c80db4c" target="_top" xlink:title="JS_IsNull">
<polygon fill="none" stroke="#000000" points="182.5,-.5 182.5,-19.5 241.5,-19.5 241.5,-.5 182.5,-.5"/>
<text text-anchor="middle" x="212" y="-7.5" font-family="Helvetica,sans-Serif" font-size="10.00" fill="#000000">JS_IsNull</text>
</a>
</g>
</g>
<!-- Node29534&#45;&gt;Node29580 -->
<g id="edge14" class="edge">
<title>Node29534&#45;&gt;Node29580</title>
<path fill="none" stroke="#191970" d="M77.6056,-95.4618C95.8232,-80.1238 133.5782,-49.6136 169,-29 172.0553,-27.222 175.3076,-25.5017 178.6028,-23.8706"/>
<polygon fill="#191970" stroke="#191970" points="180.2986,-26.9415 187.8752,-19.5357 177.3339,-20.6003 180.2986,-26.9415"/>
</g>
<!-- Node29537 -->
<g id="node4" class="node">
<title>Node29537</title>
<g id="a_node4"><a xlink:href="quickjs-libc_8c.html#a2c8234980adfda2a29db3b01cbdc8362" target="_top" xlink:title="js_free_message_pipe">
<polygon fill="none" stroke="#000000" points="291,-209.5 291,-228.5 405,-228.5 405,-209.5 291,-209.5"/>
<text text-anchor="middle" x="348" y="-216.5" font-family="Helvetica,sans-Serif" font-size="10.00" fill="#000000">js_free_message_pipe</text>
</a>
</g>
</g>
<!-- Node29536&#45;&gt;Node29537 -->
<g id="edge3" class="edge">
<title>Node29536&#45;&gt;Node29537</title>
<path fill="none" stroke="#191970" d="M234.7633,-171.5405C256.9262,-180.8294 290.8222,-195.0358 315.7554,-205.4857"/>
<polygon fill="#191970" stroke="#191970" points="314.5867,-208.7908 325.1624,-209.4284 317.2926,-202.3349 314.5867,-208.7908"/>
</g>
<!-- Node29541 -->
<g id="node7" class="node">
<title>Node29541</title>
<g id="a_node7"><a xlink:href="quickjs_8c.html#a69e19dda8a93d613203e0baa06f0ed8d" target="_top" xlink:title="js_free_rt">
<polygon fill="none" stroke="#000000" points="579,-152.5 579,-171.5 636,-171.5 636,-152.5 579,-152.5"/>
<text text-anchor="middle" x="607.5" y="-159.5" font-family="Helvetica,sans-Serif" font-size="10.00" fill="#000000">js_free_rt</text>
</a>
</g>
</g>
<!-- Node29536&#45;&gt;Node29541 -->
<g id="edge6" class="edge">
<title>Node29536&#45;&gt;Node29541</title>
<path fill="none" stroke="#191970" d="M246.0624,-162C319.2546,-162 491.1503,-162 568.5352,-162"/>
<polygon fill="#191970" stroke="#191970" points="568.8073,-165.5001 578.8072,-162 568.8072,-158.5001 568.8073,-165.5001"/>
</g>
<!-- Node29542 -->
<g id="node8" class="node">
<title>Node29542</title>
<g id="a_node8"><a xlink:href="quickjs_8h.html#ab8db583fa5e7c2b1935854a42859daed" target="_top" xlink:title="JS_FreeValueRT">
<polygon fill="none" stroke="#000000" points="302,-133.5 302,-152.5 394,-152.5 394,-133.5 302,-133.5"/>
<text text-anchor="middle" x="348" y="-140.5" font-family="Helvetica,sans-Serif" font-size="10.00" fill="#000000">JS_FreeValueRT</text>
</a>
</g>
</g>
<!-- Node29536&#45;&gt;Node29542 -->
<g id="edge7" class="edge">
<title>Node29536&#45;&gt;Node29542</title>
<path fill="none" stroke="#191970" d="M246.3185,-157.2055C260.1322,-155.2757 276.4267,-152.9992 291.877,-150.8407"/>
<polygon fill="#191970" stroke="#191970" points="292.4541,-154.2942 301.8736,-149.4441 291.4855,-147.3615 292.4541,-154.2942"/>
</g>
<!-- Node29553 -->
<g id="node10" class="node">
<title>Node29553</title>
<g id="a_node10"><a xlink:href="list_8h.html#ab60d5d18869ebeb5d6ab694289576fa7" target="_top" xlink:title="list_del">
<polygon fill="none" stroke="#000000" points="324.5,-95.5 324.5,-114.5 371.5,-114.5 371.5,-95.5 324.5,-95.5"/>
<text text-anchor="middle" x="348" y="-102.5" font-family="Helvetica,sans-Serif" font-size="10.00" fill="#000000">list_del</text>
</a>
</g>
</g>
<!-- Node29536&#45;&gt;Node29553 -->
<g id="edge10" class="edge">
<title>Node29536&#45;&gt;Node29553</title>
<path fill="none" stroke="#191970" d="M234.4532,-152.4311C241.1111,-149.4991 248.3885,-146.2006 255,-143 271.284,-135.117 274.3625,-131.1066 291,-124 298.5542,-120.7732 306.8546,-117.7338 314.7273,-115.0717"/>
<polygon fill="#191970" stroke="#191970" points="315.9646,-118.3496 324.3823,-111.9159 313.7897,-111.696 315.9646,-118.3496"/>
</g>
<!-- Node29538 -->
<g id="node5" class="node">
<title>Node29538</title>
<g id="a_node5"><a xlink:href="quickjs-libc_8c.html#aa790fd732a5386c363726ddb72bb20e2" target="_top" xlink:title="atomic_add_int">
<polygon fill="none" stroke="#000000" points="450.5,-247.5 450.5,-266.5 533.5,-266.5 533.5,-247.5 450.5,-247.5"/>
<text text-anchor="middle" x="492" y="-254.5" font-family="Helvetica,sans-Serif" font-size="10.00" fill="#000000">atomic_add_int</text>
</a>
</g>
</g>
<!-- Node29537&#45;&gt;Node29538 -->
<g id="edge4" class="edge">
<title>Node29537&#45;&gt;Node29538</title>
<path fill="none" stroke="#191970" d="M384.3373,-228.589C403.0829,-233.5358 426.1432,-239.6211 446.1066,-244.8892"/>
<polygon fill="#191970" stroke="#191970" points="445.3619,-248.3125 455.924,-247.4799 447.1481,-241.5442 445.3619,-248.3125"/>
</g>
<!-- Node29539 -->
<g id="node6" class="node">
<title>Node29539</title>
<g id="a_node6"><a xlink:href="quickjs-libc_8c.html#a787c84066ba712c7487df7459615276f" target="_top" xlink:title="js_free_message">
<polygon fill="none" stroke="#ff0000" points="446.5,-209.5 446.5,-228.5 537.5,-228.5 537.5,-209.5 446.5,-209.5"/>
<text text-anchor="middle" x="492" y="-216.5" font-family="Helvetica,sans-Serif" font-size="10.00" fill="#000000">js_free_message</text>
</a>
</g>
</g>
<!-- Node29537&#45;&gt;Node29539 -->
<g id="edge5" class="edge">
<title>Node29537&#45;&gt;Node29539</title>
<path fill="none" stroke="#191970" d="M405.3264,-219C415.4551,-219 425.9884,-219 436.0778,-219"/>
<polygon fill="#191970" stroke="#191970" points="436.3958,-222.5001 446.3958,-219 436.3957,-215.5001 436.3958,-222.5001"/>
</g>
<!-- Node29543 -->
<g id="node9" class="node">
<title>Node29543</title>
<g id="a_node9"><a xlink:href="quickjs_8c.html#ab1ea3fad7d138be12144a38be4d36423" target="_top" xlink:title="__JS_FreeValueRT">
<polygon fill="none" stroke="#ff0000" points="441,-133.5 441,-152.5 543,-152.5 543,-133.5 441,-133.5"/>
<text text-anchor="middle" x="492" y="-140.5" font-family="Helvetica,sans-Serif" font-size="10.00" fill="#000000">__JS_FreeValueRT</text>
</a>
</g>
</g>
<!-- Node29542&#45;&gt;Node29543 -->
<g id="edge8" class="edge">
<title>Node29542&#45;&gt;Node29543</title>
<path fill="none" stroke="#191970" d="M394.3551,-143C405.9813,-143 418.6337,-143 430.8586,-143"/>
<polygon fill="#191970" stroke="#191970" points="430.9951,-146.5001 440.9951,-143 430.995,-139.5001 430.9951,-146.5001"/>
</g>
<!-- Node29543&#45;&gt;Node29541 -->
<g id="edge9" class="edge">
<title>Node29543&#45;&gt;Node29541</title>
<path fill="none" stroke="#191970" d="M543.3326,-151.4443C551.8898,-152.852 560.6372,-154.291 568.8109,-155.6356"/>
<polygon fill="#191970" stroke="#191970" points="568.3643,-159.1091 578.7999,-157.2788 569.5006,-152.2019 568.3643,-159.1091"/>
</g>
</g>
</svg>
        <g id="navigator" transform="translate(0 0)" fill="#404254">
                <rect fill="#f2f5e9" fill-opacity="0.5" stroke="#606060" stroke-width=".5" x="0" y="0" width="60" height="60"/>
                <use id="zoomplus" xlink:href="#zoomPlus" x="17" y="9" onmousedown="handleZoom(evt,'in')"/>
                <use id="zoomminus" xlink:href="#zoomMin" x="42" y="9" onmousedown="handleZoom(evt,'out')"/>
                <use id="reset" xlink:href="#resetDef" x="30" y="36" onmousedown="handleReset()"/>
                <g id="arrowUp" xlink:href="#dirArrow" transform="translate(30 24)" onmousedown="handlePan(0,-1)">
                  <use xlink:href="#rim" fill="#404040">
                        <set attributeName="fill" to="#808080" begin="arrowUp.mouseover" end="arrowUp.mouseout"/>
                  </use>
                  <path fill="none" stroke="white" stroke-width="1.5" d="M0,-3.0v7 M-2.5,-0.5L0,-3.0L2.5,-0.5"/>
                </g>
                <g id="arrowRight" xlink:href="#dirArrow" transform="rotate(90) translate(36 -43)" onmousedown="handlePan(1,0)">
                  <use xlink:href="#rim" fill="#404040">
                        <set attributeName="fill" to="#808080" begin="arrowRight.mouseover" end="arrowRight.mouseout"/>
                  </use>
                  <path fill="none" stroke="white" stroke-width="1.5" d="M0,-3.0v7 M-2.5,-0.5L0,-3.0L2.5,-0.5"/>
                </g>
                <g id="arrowDown" xlink:href="#dirArrow" transform="rotate(180) translate(-30 -48)" onmousedown="handlePan(0,1)">
                  <use xlink:href="#rim" fill="#404040">
                        <set attributeName="fill" to="#808080" begin="arrowDown.mouseover" end="arrowDown.mouseout"/>
                  </use>
                  <path fill="none" stroke="white" stroke-width="1.5" d="M0,-3.0v7 M-2.5,-0.5L0,-3.0L2.5,-0.5"/>
                </g>
                <g id="arrowLeft" xlink:href="#dirArrow" transform="rotate(270) translate(-36 17)" onmousedown="handlePan(-1,0)">
                  <use xlink:href="#rim" fill="#404040">
                        <set attributeName="fill" to="#808080" begin="arrowLeft.mouseover" end="arrowLeft.mouseout"/>
                  </use>
                  <path fill="none" stroke="white" stroke-width="1.5" d="M0,-3.0v7 M-2.5,-0.5L0,-3.0L2.5,-0.5"/>
                </g>
        </g>
        <svg viewBox="0 0 15 15" width="100%" height="30px" preserveAspectRatio="xMaxYMin meet">
         <g id="arrow_out" transform="scale(0.3 0.3)">
          <a xlink:href="quickjs-libc_8c_a0a99fb986f4b8862e7e44dcb16a9dc96_cgraph_org.svg" target="_base">
           <rect id="button" ry="5" rx="5" y="6" x="6" height="38" width="38"
                fill="#f2f5e9" fill-opacity="0.5" stroke="#606060" stroke-width="1.0"/>
           <path id="arrow"
             d="M 11.500037,31.436501 C 11.940474,20.09759 22.043105,11.32322 32.158766,21.979434 L 37.068811,17.246167 C 37.068811,17.246167 37.088388,32 37.088388,32 L 22.160133,31.978069 C 22.160133,31.978069 26.997745,27.140456 26.997745,27.140456 C 18.528582,18.264221 13.291696,25.230495 11.500037,31.436501 z"
             style="fill:#404040;"/>
          </a>
         </g>
        </svg>
</svg>
