<?xml version="1.0" encoding="UTF-8" standalone="no"?>
<!DOCTYPE svg PUBLIC "-//W3C//DTD SVG 1.1//EN"
 "http://www.w3.org/Graphics/SVG/1.1/DTD/svg11.dtd">
<!-- Generated by graphviz version 2.40.1 (20161225.0304)
 -->
<!-- Title: js_parse_unary Pages: 1 -->
<svg width="753pt" height="1089pt"
 viewBox="0.00 0.00 753.00 1089.02" xmlns="http://www.w3.org/2000/svg" xmlns:xlink="http://www.w3.org/1999/xlink">
<g id="graph0" class="graph" transform="scale(1 1) rotate(0) translate(4 1085.0183)">
<title>js_parse_unary</title>
<!-- Node312599 -->
<g id="node1" class="node">
<title>Node312599</title>
<polygon fill="#bfbfbf" stroke="#000000" points="0,-663.0019 0,-682.0019 83,-682.0019 83,-663.0019 0,-663.0019"/>
<text text-anchor="middle" x="41.5" y="-670.0019" font-family="Helvetica,sans-Serif" font-size="10.00" fill="#000000">js_parse_unary</text>
</g>
<!-- Node312599&#45;&gt;Node312599 -->
<g id="edge74" class="edge">
<title>Node312599&#45;&gt;Node312599</title>
<path fill="none" stroke="#191970" d="M21.155,-682.259C11.2574,-691.0672 18.0391,-700.5019 41.5,-700.5019 56.5297,-700.5019 64.7142,-696.6299 66.0535,-691.5311"/>
<polygon fill="#191970" stroke="#191970" points="69.1652,-689.9184 61.845,-682.259 62.791,-692.8115 69.1652,-689.9184"/>
</g>
<!-- Node312600 -->
<g id="node2" class="node">
<title>Node312600</title>
<g id="a_node2"><a xlink:href="quickjs_8c.html#a832fb9c17eacb588e93f333cf8b76522" target="_top" xlink:title="emit_op">
<polygon fill="none" stroke="#000000" points="565.5,-549.0019 565.5,-568.0019 616.5,-568.0019 616.5,-549.0019 565.5,-549.0019"/>
<text text-anchor="middle" x="591" y="-556.0019" font-family="Helvetica,sans-Serif" font-size="10.00" fill="#000000">emit_op</text>
</a>
</g>
</g>
<!-- Node312599&#45;&gt;Node312600 -->
<g id="edge1" class="edge">
<title>Node312599&#45;&gt;Node312600</title>
<path fill="none" stroke="#191970" d="M43.4953,-682.2715C50.0025,-712.3066 72.8946,-804.9691 119,-866.5019 232.7997,-1018.3802 367.2131,-1156.1972 512,-1033.5019 547.6305,-1003.3079 581.2528,-663.885 589.223,-578.103"/>
<polygon fill="#191970" stroke="#191970" points="592.7093,-578.412 590.1393,-568.1336 585.7387,-577.7712 592.7093,-578.412"/>
</g>
<!-- Node312605 -->
<g id="node5" class="node">
<title>Node312605</title>
<g id="a_node5"><a xlink:href="quickjs_8c.html#a069baa06a1214006c4ec473875de010e" target="_top" xlink:title="get_lvalue">
<polygon fill="none" stroke="#000000" points="294.5,-820.0019 294.5,-839.0019 355.5,-839.0019 355.5,-820.0019 294.5,-820.0019"/>
<text text-anchor="middle" x="325" y="-827.0019" font-family="Helvetica,sans-Serif" font-size="10.00" fill="#000000">get_lvalue</text>
</a>
</g>
</g>
<!-- Node312599&#45;&gt;Node312605 -->
<g id="edge4" class="edge">
<title>Node312599&#45;&gt;Node312605</title>
<path fill="none" stroke="#191970" d="M57.7466,-682.115C94.6103,-703.8405 187.5591,-758.133 267,-800.5019 276.3631,-805.4956 286.6942,-810.7435 296.0112,-815.3813"/>
<polygon fill="#191970" stroke="#191970" points="294.7546,-818.6644 305.2702,-819.9574 297.8561,-812.389 294.7546,-818.6644"/>
</g>
<!-- Node312606 -->
<g id="node6" class="node">
<title>Node312606</title>
<g id="a_node6"><a xlink:href="quickjs_8c.html#a54ae8eded33038911c0fde73470ed951" target="_top" xlink:title="get_prev_opcode">
<polygon fill="none" stroke="#000000" points="420,-1005.0019 420,-1024.0019 511,-1024.0019 511,-1005.0019 420,-1005.0019"/>
<text text-anchor="middle" x="465.5" y="-1012.0019" font-family="Helvetica,sans-Serif" font-size="10.00" fill="#000000">get_prev_opcode</text>
</a>
</g>
</g>
<!-- Node312599&#45;&gt;Node312606 -->
<g id="edge16" class="edge">
<title>Node312599&#45;&gt;Node312606</title>
<path fill="none" stroke="#191970" d="M46.9452,-682.1783C69.1231,-720.7519 156.734,-865.1944 267,-942.5019 310.3504,-972.8949 367.9639,-991.9105 409.9507,-1002.7129"/>
<polygon fill="#191970" stroke="#191970" points="409.1821,-1006.1283 419.7321,-1005.1542 410.8773,-999.3367 409.1821,-1006.1283"/>
</g>
<!-- Node312618 -->
<g id="node14" class="node">
<title>Node312618</title>
<g id="a_node14"><a xlink:href="quickjs_8c.html#a2ecfb6abb190101748202a8aa5821fba" target="_top" xlink:title="js_parse_delete">
<polygon fill="none" stroke="#000000" points="282.5,-663.0019 282.5,-682.0019 367.5,-682.0019 367.5,-663.0019 282.5,-663.0019"/>
<text text-anchor="middle" x="325" y="-670.0019" font-family="Helvetica,sans-Serif" font-size="10.00" fill="#000000">js_parse_delete</text>
</a>
</g>
</g>
<!-- Node312599&#45;&gt;Node312618 -->
<g id="edge17" class="edge">
<title>Node312599&#45;&gt;Node312618</title>
<path fill="none" stroke="#191970" d="M83.0269,-667.5601C133.1638,-665.3097 217.549,-665.1599 272.2459,-667.1107"/>
<polygon fill="#191970" stroke="#191970" points="272.3037,-670.6156 282.4344,-667.514 272.5807,-663.6211 272.3037,-670.6156"/>
</g>
<!-- Node312619 -->
<g id="node15" class="node">
<title>Node312619</title>
<g id="a_node15"><a xlink:href="quickjs_8c.html#a75a3798e2045f6e403c1ef467126d1fb" target="_top" xlink:title="next_token">
<polygon fill="none" stroke="#ff0000" points="433,-93.0019 433,-112.0019 498,-112.0019 498,-93.0019 433,-93.0019"/>
<text text-anchor="middle" x="465.5" y="-100.0019" font-family="Helvetica,sans-Serif" font-size="10.00" fill="#000000">next_token</text>
</a>
</g>
</g>
<!-- Node312599&#45;&gt;Node312619 -->
<g id="edge75" class="edge">
<title>Node312599&#45;&gt;Node312619</title>
<path fill="none" stroke="#191970" d="M41.746,-662.7172C43.9199,-599.8939 65.0311,-251.7297 267,-121.5019 313.6353,-91.4319 379.6877,-91.5679 422.561,-95.8732"/>
<polygon fill="#191970" stroke="#191970" points="422.3412,-99.3704 432.6694,-97.0086 423.1226,-92.4142 422.3412,-99.3704"/>
</g>
<!-- Node312731 -->
<g id="node22" class="node">
<title>Node312731</title>
<g id="a_node22"><a xlink:href="quickjs_8c.html#acdcc62310b4f6f73fa7bc7267b18b1d4" target="_top" xlink:title="js_parse_postfix_expr">
<polygon fill="none" stroke="#ff0000" points="119,-492.0019 119,-511.0019 231,-511.0019 231,-492.0019 119,-492.0019"/>
<text text-anchor="middle" x="175" y="-499.0019" font-family="Helvetica,sans-Serif" font-size="10.00" fill="#000000">js_parse_postfix_expr</text>
</a>
</g>
</g>
<!-- Node312599&#45;&gt;Node312731 -->
<g id="edge34" class="edge">
<title>Node312599&#45;&gt;Node312731</title>
<path fill="none" stroke="#191970" d="M49.06,-662.8183C70.7218,-635.0718 133.2478,-554.9822 161.2056,-519.1711"/>
<polygon fill="#191970" stroke="#191970" points="164.1279,-521.1155 167.5229,-511.0794 158.6103,-516.8079 164.1279,-521.1155"/>
</g>
<!-- Node313078 -->
<g id="node30" class="node">
<title>Node313078</title>
<g id="a_node30"><a xlink:href="quickjs_8c.html#ab4795d29c6811027d6efbcf1ca715b1e" target="_top" xlink:title="put_lvalue">
<polygon fill="none" stroke="#ff0000" points="294.5,-321.0019 294.5,-340.0019 355.5,-340.0019 355.5,-321.0019 294.5,-321.0019"/>
<text text-anchor="middle" x="325" y="-328.0019" font-family="Helvetica,sans-Serif" font-size="10.00" fill="#000000">put_lvalue</text>
</a>
</g>
</g>
<!-- Node312599&#45;&gt;Node313078 -->
<g id="edge76" class="edge">
<title>Node312599&#45;&gt;Node313078</title>
<path fill="none" stroke="#191970" d="M43.6361,-662.9998C50.5488,-633.7744 74.4839,-543.5121 119,-482.5019 169.5808,-413.1799 194.9196,-405.0676 267,-358.5019 275.0698,-353.2886 284.2563,-348.4207 292.9008,-344.2535"/>
<polygon fill="#191970" stroke="#191970" points="294.4003,-347.4161 301.9898,-340.0235 291.4467,-341.0698 294.4003,-347.4161"/>
</g>
<!-- Node312601 -->
<g id="node3" class="node">
<title>Node312601</title>
<g id="a_node3"><a xlink:href="cutils_8h.html#a8ba08f82c43549fcb3c939229498354d" target="_top" xlink:title="dbuf_put_u32">
<polygon fill="none" stroke="#ff0000" points="670,-511.0019 670,-530.0019 745,-530.0019 745,-511.0019 670,-511.0019"/>
<text text-anchor="middle" x="707.5" y="-518.0019" font-family="Helvetica,sans-Serif" font-size="10.00" fill="#000000">dbuf_put_u32</text>
</a>
</g>
</g>
<!-- Node312600&#45;&gt;Node312601 -->
<g id="edge2" class="edge">
<title>Node312600&#45;&gt;Node312601</title>
<path fill="none" stroke="#191970" d="M616.5664,-550.1627C631.796,-545.1951 651.4326,-538.79 668.5584,-533.2039"/>
<polygon fill="#191970" stroke="#191970" points="669.8778,-536.4551 678.2994,-530.0266 667.707,-529.8002 669.8778,-536.4551"/>
</g>
<!-- Node312604 -->
<g id="node4" class="node">
<title>Node312604</title>
<g id="a_node4"><a xlink:href="cutils_8h.html#aeed81d4787ccdbd55baa9b5fd6717e88" target="_top" xlink:title="dbuf_putc">
<polygon fill="none" stroke="#ff0000" points="678,-739.0019 678,-758.0019 737,-758.0019 737,-739.0019 678,-739.0019"/>
<text text-anchor="middle" x="707.5" y="-746.0019" font-family="Helvetica,sans-Serif" font-size="10.00" fill="#000000">dbuf_putc</text>
</a>
</g>
</g>
<!-- Node312600&#45;&gt;Node312604 -->
<g id="edge3" class="edge">
<title>Node312600&#45;&gt;Node312604</title>
<path fill="none" stroke="#191970" d="M596.9374,-568.1853C615.318,-598.1622 671.5119,-689.8088 695.9487,-729.6628"/>
<polygon fill="#191970" stroke="#191970" points="693.2238,-731.9147 701.4348,-738.6102 699.1914,-728.2556 693.2238,-731.9147"/>
</g>
<!-- Node312605&#45;&gt;Node312600 -->
<g id="edge9" class="edge">
<title>Node312605&#45;&gt;Node312600</title>
<path fill="none" stroke="#191970" d="M347.8697,-839.1054C386.0949,-853.4734 463.5366,-875.1837 512,-838.5019 554.5702,-806.2806 580.7054,-636.329 588.5189,-578.0975"/>
<polygon fill="#191970" stroke="#191970" points="592.0111,-578.384 589.8367,-568.0147 585.0702,-577.4767 592.0111,-578.384"/>
</g>
<!-- Node312605&#45;&gt;Node312606 -->
<g id="edge5" class="edge">
<title>Node312605&#45;&gt;Node312606</title>
<path fill="none" stroke="#191970" d="M332.3573,-839.2136C343.9688,-854.7898 366.8786,-886.5519 383,-915.5019 401.9693,-949.566 390.9525,-968.418 419,-995.5019 420.4586,-996.9104 422.0357,-998.2197 423.6979,-999.4363"/>
<polygon fill="#191970" stroke="#191970" points="422.1903,-1002.6141 432.5622,-1004.7762 425.8024,-996.618 422.1903,-1002.6141"/>
</g>
<!-- Node312607 -->
<g id="node7" class="node">
<title>Node312607</title>
<g id="a_node7"><a xlink:href="cutils_8h.html#a941262a5f72fda2ec43ae7911e97a0dc" target="_top" xlink:title="get_u32">
<polygon fill="none" stroke="#000000" points="440,-777.0019 440,-796.0019 491,-796.0019 491,-777.0019 440,-777.0019"/>
<text text-anchor="middle" x="465.5" y="-784.0019" font-family="Helvetica,sans-Serif" font-size="10.00" fill="#000000">get_u32</text>
</a>
</g>
</g>
<!-- Node312605&#45;&gt;Node312607 -->
<g id="edge6" class="edge">
<title>Node312605&#45;&gt;Node312607</title>
<path fill="none" stroke="#191970" d="M355.8333,-820.0654C377.7873,-813.3464 407.3351,-804.3033 430.2286,-797.2967"/>
<polygon fill="#191970" stroke="#191970" points="431.3709,-800.6074 439.9088,-794.3341 429.3223,-793.9139 431.3709,-800.6074"/>
</g>
<!-- Node312608 -->
<g id="node8" class="node">
<title>Node312608</title>
<g id="a_node8"><a xlink:href="cutils_8h.html#ad587834d17e95461893d59661e5e9676" target="_top" xlink:title="get_u16">
<polygon fill="none" stroke="#000000" points="440,-967.0019 440,-986.0019 491,-986.0019 491,-967.0019 440,-967.0019"/>
<text text-anchor="middle" x="465.5" y="-974.0019" font-family="Helvetica,sans-Serif" font-size="10.00" fill="#000000">get_u16</text>
</a>
</g>
</g>
<!-- Node312605&#45;&gt;Node312608 -->
<g id="edge7" class="edge">
<title>Node312605&#45;&gt;Node312608</title>
<path fill="none" stroke="#191970" d="M354.4199,-839.0525C364.6001,-843.5842 375.3597,-849.9294 383,-858.5019 414.1508,-893.4537 386.5481,-923.7547 419,-957.5019 422.215,-960.8453 426.1014,-963.6195 430.2412,-965.9169"/>
<polygon fill="#191970" stroke="#191970" points="429.0013,-969.1996 439.5469,-970.22 431.9394,-962.846 429.0013,-969.1996"/>
</g>
<!-- Node312609 -->
<g id="node9" class="node">
<title>Node312609</title>
<g id="a_node9"><a xlink:href="quickjs_8c.html#a0dd0929b9f2ff5983b0027b7cce5c447" target="_top" xlink:title="new_label">
<polygon fill="none" stroke="#ff0000" points="435.5,-929.0019 435.5,-948.0019 495.5,-948.0019 495.5,-929.0019 435.5,-929.0019"/>
<text text-anchor="middle" x="465.5" y="-936.0019" font-family="Helvetica,sans-Serif" font-size="10.00" fill="#000000">new_label</text>
</a>
</g>
</g>
<!-- Node312605&#45;&gt;Node312609 -->
<g id="edge8" class="edge">
<title>Node312605&#45;&gt;Node312609</title>
<path fill="none" stroke="#191970" d="M351.8267,-839.0569C362.397,-843.7512 374.109,-850.2084 383,-858.5019 406.02,-879.975 395.1834,-898.9159 419,-919.5019 421.2267,-921.4266 423.6746,-923.1741 426.2465,-924.7575"/>
<polygon fill="#191970" stroke="#191970" points="424.8474,-927.9761 435.3279,-929.5289 428.1032,-921.7793 424.8474,-927.9761"/>
</g>
<!-- Node312611 -->
<g id="node10" class="node">
<title>Node312611</title>
<g id="a_node10"><a xlink:href="quickjs_8c.html#aa57b449a878287663249bb7ab23ed8e9" target="_top" xlink:title="emit_atom">
<polygon fill="none" stroke="#ff0000" points="434.5,-549.0019 434.5,-568.0019 496.5,-568.0019 496.5,-549.0019 434.5,-549.0019"/>
<text text-anchor="middle" x="465.5" y="-556.0019" font-family="Helvetica,sans-Serif" font-size="10.00" fill="#000000">emit_atom</text>
</a>
</g>
</g>
<!-- Node312605&#45;&gt;Node312611 -->
<g id="edge10" class="edge">
<title>Node312605&#45;&gt;Node312611</title>
<path fill="none" stroke="#191970" d="M329.0225,-819.934C345.4678,-780.8751 407.2724,-634.6694 419,-615.5019 427.7107,-601.2652 439.6461,-586.7094 449.2437,-575.8706"/>
<polygon fill="#191970" stroke="#191970" points="451.9155,-578.1345 456.0352,-568.3734 446.7276,-573.4349 451.9155,-578.1345"/>
</g>
<!-- Node312612 -->
<g id="node11" class="node">
<title>Node312612</title>
<g id="a_node11"><a xlink:href="quickjs_8c.html#aa4ce3850b0d5830d9a617fbbdaddfa79" target="_top" xlink:title="emit_u32">
<polygon fill="none" stroke="#000000" points="563,-473.0019 563,-492.0019 619,-492.0019 619,-473.0019 563,-473.0019"/>
<text text-anchor="middle" x="591" y="-480.0019" font-family="Helvetica,sans-Serif" font-size="10.00" fill="#000000">emit_u32</text>
</a>
</g>
</g>
<!-- Node312605&#45;&gt;Node312612 -->
<g id="edge13" class="edge">
<title>Node312605&#45;&gt;Node312612</title>
<path fill="none" stroke="#191970" d="M355.5997,-829.9106C402.9023,-829.8533 490.5757,-826.7794 512,-805.5019 554.3237,-763.4683 525.2991,-594.6634 548,-539.5019 554.1047,-524.6679 565.0252,-510.2661 574.3328,-499.6499"/>
<polygon fill="#191970" stroke="#191970" points="577.1555,-501.7499 581.3287,-492.0116 571.9935,-497.022 577.1555,-501.7499"/>
</g>
<!-- Node312615 -->
<g id="node12" class="node">
<title>Node312615</title>
<g id="a_node12"><a xlink:href="quickjs_8c.html#a50b5ef50e38aaeb8cba27214601474c7" target="_top" xlink:title="emit_u16">
<polygon fill="none" stroke="#ff0000" points="437.5,-359.0019 437.5,-378.0019 493.5,-378.0019 493.5,-359.0019 437.5,-359.0019"/>
<text text-anchor="middle" x="465.5" y="-366.0019" font-family="Helvetica,sans-Serif" font-size="10.00" fill="#000000">emit_u16</text>
</a>
</g>
</g>
<!-- Node312605&#45;&gt;Node312615 -->
<g id="edge14" class="edge">
<title>Node312605&#45;&gt;Node312615</title>
<path fill="none" stroke="#191970" d="M330.2091,-819.7952C341.8004,-797.7183 369.7446,-741.76 383,-691.5019 400.3487,-625.7237 377.8098,-441.6418 419,-387.5019 421.4834,-384.2377 424.6238,-381.5316 428.096,-379.2887"/>
<polygon fill="#191970" stroke="#191970" points="429.9197,-382.2871 437.225,-374.6135 426.7289,-376.0566 429.9197,-382.2871"/>
</g>
<!-- Node312617 -->
<g id="node13" class="node">
<title>Node312617</title>
<g id="a_node13"><a xlink:href="quickjs_8c.html#a337071c33fd0684a2b132b17f536f35c" target="_top" xlink:title="update_label">
<polygon fill="none" stroke="#000000" points="430,-891.0019 430,-910.0019 501,-910.0019 501,-891.0019 430,-891.0019"/>
<text text-anchor="middle" x="465.5" y="-898.0019" font-family="Helvetica,sans-Serif" font-size="10.00" fill="#000000">update_label</text>
</a>
</g>
</g>
<!-- Node312605&#45;&gt;Node312617 -->
<g id="edge15" class="edge">
<title>Node312605&#45;&gt;Node312617</title>
<path fill="none" stroke="#191970" d="M344.087,-839.002C355.4079,-844.6475 370.034,-851.9601 383,-858.5019 401.1809,-867.6749 421.5743,-878.0561 437.5365,-886.2026"/>
<polygon fill="#191970" stroke="#191970" points="436.3455,-889.5243 446.8432,-890.9554 439.5292,-883.2902 436.3455,-889.5243"/>
</g>
<!-- Node312611&#45;&gt;Node312612 -->
<g id="edge11" class="edge">
<title>Node312611&#45;&gt;Node312612</title>
<path fill="none" stroke="#191970" d="M481.3947,-548.8765C502.8948,-535.8565 541.4451,-512.5112 566.6207,-497.2655"/>
<polygon fill="#191970" stroke="#191970" points="568.4936,-500.2231 575.2344,-492.0492 564.8676,-494.2354 568.4936,-500.2231"/>
</g>
<!-- Node312612&#45;&gt;Node312601 -->
<g id="edge12" class="edge">
<title>Node312612&#45;&gt;Node312601</title>
<path fill="none" stroke="#191970" d="M619.2014,-491.7007C634.0353,-496.5392 652.4494,-502.5455 668.6173,-507.8191"/>
<polygon fill="#191970" stroke="#191970" points="667.7493,-511.2174 678.3417,-510.991 669.92,-504.5625 667.7493,-511.2174"/>
</g>
<!-- Node312618&#45;&gt;Node312599 -->
<g id="edge21" class="edge">
<title>Node312618&#45;&gt;Node312599</title>
<path fill="none" stroke="#191970" d="M282.4344,-677.4898C231.8298,-679.7114 147.4162,-679.8323 93.1304,-677.8526"/>
<polygon fill="#191970" stroke="#191970" points="93.1603,-674.3511 83.0269,-677.4437 92.8772,-681.3453 93.1603,-674.3511"/>
</g>
<!-- Node312618&#45;&gt;Node312600 -->
<g id="edge30" class="edge">
<title>Node312618&#45;&gt;Node312600</title>
<path fill="none" stroke="#191970" d="M348.3381,-682.017C385.5693,-695.578 459.546,-715.768 512,-686.5019 553.8392,-663.1582 576.2844,-607.5305 585.6444,-577.8829"/>
<polygon fill="#191970" stroke="#191970" points="589.0153,-578.8263 588.5125,-568.2434 582.306,-576.83 589.0153,-578.8263"/>
</g>
<!-- Node312618&#45;&gt;Node312606 -->
<g id="edge22" class="edge">
<title>Node312618&#45;&gt;Node312606</title>
<path fill="none" stroke="#191970" d="M329.9423,-682.2843C340.9875,-704.5161 367.8866,-760.771 383,-810.5019 407.3564,-890.6472 365.8396,-930.7681 419,-995.5019 420.1035,-996.8456 421.3171,-998.0952 422.617,-999.2573"/>
<polygon fill="#191970" stroke="#191970" points="420.6375,-1002.1439 430.8399,-1005.0008 424.6459,-996.4052 420.6375,-1002.1439"/>
</g>
<!-- Node312618&#45;&gt;Node312607 -->
<g id="edge23" class="edge">
<title>Node312618&#45;&gt;Node312607</title>
<path fill="none" stroke="#191970" d="M332.2854,-682.1174C346.8922,-700.8278 381.5797,-742.4852 419,-767.5019 422.5887,-769.9011 426.5281,-772.0828 430.5485,-774.0415"/>
<polygon fill="#191970" stroke="#191970" points="429.3883,-777.3556 439.9491,-778.2043 432.2227,-770.955 429.3883,-777.3556"/>
</g>
<!-- Node312618&#45;&gt;Node312611 -->
<g id="edge31" class="edge">
<title>Node312618&#45;&gt;Node312611</title>
<path fill="none" stroke="#191970" d="M336.979,-662.7823C361.1385,-643.1796 415.9213,-598.7295 445.5622,-574.6792"/>
<polygon fill="#191970" stroke="#191970" points="447.9912,-577.2155 453.5514,-568.1969 443.5807,-571.7798 447.9912,-577.2155"/>
</g>
<!-- Node312618&#45;&gt;Node312619 -->
<g id="edge18" class="edge">
<title>Node312618&#45;&gt;Node312619</title>
<path fill="none" stroke="#191970" d="M330.1503,-662.7823C341.3791,-641.2021 368.2382,-587.408 383,-539.5019 383.3965,-538.2151 445.837,-206.8646 461.8119,-122.0775"/>
<polygon fill="#191970" stroke="#191970" points="465.2977,-122.4797 463.7098,-112.0045 458.4187,-121.1835 465.2977,-122.4797"/>
</g>
<!-- Node312626 -->
<g id="node16" class="node">
<title>Node312626</title>
<g id="a_node16"><a xlink:href="quickjs_8h.html#afaa20c47565bc704c6c85f3d77254e7d" target="_top" xlink:title="JS_FreeValue">
<polygon fill="none" stroke="#ff0000" points="552,-169.0019 552,-188.0019 630,-188.0019 630,-169.0019 552,-169.0019"/>
<text text-anchor="middle" x="591" y="-176.0019" font-family="Helvetica,sans-Serif" font-size="10.00" fill="#000000">JS_FreeValue</text>
</a>
</g>
</g>
<!-- Node312618&#45;&gt;Node312626 -->
<g id="edge28" class="edge">
<title>Node312618&#45;&gt;Node312626</title>
<path fill="none" stroke="#191970" d="M367.7098,-681.505C410.0006,-687.7098 473.8074,-689.3414 512,-653.5019 520.5411,-645.487 574.702,-287.2725 588.0366,-198.3293"/>
<polygon fill="#191970" stroke="#191970" points="591.5282,-198.6456 589.5475,-188.2376 584.6053,-197.6091 591.5282,-198.6456"/>
</g>
<!-- Node312727 -->
<g id="node18" class="node">
<title>Node312727</title>
<g id="a_node18"><a xlink:href="quickjs_8c.html#afa67965c1017685fc6783776d6d0d4d7" target="_top" xlink:title="JS_AtomToValue">
<polygon fill="none" stroke="#ff0000" points="419,-625.0019 419,-644.0019 512,-644.0019 512,-625.0019 419,-625.0019"/>
<text text-anchor="middle" x="465.5" y="-632.0019" font-family="Helvetica,sans-Serif" font-size="10.00" fill="#000000">JS_AtomToValue</text>
</a>
</g>
</g>
<!-- Node312618&#45;&gt;Node312727 -->
<g id="edge24" class="edge">
<title>Node312618&#45;&gt;Node312727</title>
<path fill="none" stroke="#191970" d="M360.4541,-662.9129C378.5913,-658.0075 400.8684,-651.9823 420.2334,-646.7448"/>
<polygon fill="#191970" stroke="#191970" points="421.3179,-650.0774 430.0573,-644.0878 419.4903,-643.3201 421.3179,-650.0774"/>
</g>
<!-- Node312728 -->
<g id="node19" class="node">
<title>Node312728</title>
<g id="a_node19"><a xlink:href="quickjs_8c.html#a22324bb35cdaa36ce844506a073bb7f4" target="_top" xlink:title="emit_push_const">
<polygon fill="none" stroke="#ff0000" points="420,-397.0019 420,-416.0019 511,-416.0019 511,-397.0019 420,-397.0019"/>
<text text-anchor="middle" x="465.5" y="-404.0019" font-family="Helvetica,sans-Serif" font-size="10.00" fill="#000000">emit_push_const</text>
</a>
</g>
</g>
<!-- Node312618&#45;&gt;Node312728 -->
<g id="edge25" class="edge">
<title>Node312618&#45;&gt;Node312728</title>
<path fill="none" stroke="#191970" d="M329.574,-662.966C339.8648,-641.3185 365.3204,-586.6787 383,-539.5019 401.6454,-489.7479 383.0013,-464.5814 419,-425.5019 420.2186,-424.179 421.5427,-422.9459 422.9474,-421.7968"/>
<polygon fill="#191970" stroke="#191970" points="425.2333,-424.4847 431.6999,-416.0923 421.4111,-418.6203 425.2333,-424.4847"/>
</g>
<!-- Node312621 -->
<g id="node20" class="node">
<title>Node312621</title>
<g id="a_node20"><a xlink:href="quickjs_8c.html#ab7fc45a99935a1c0ba50b0216d9401a9" target="_top" xlink:title="JS_FreeAtom">
<polygon fill="none" stroke="#ff0000" points="427,-435.0019 427,-454.0019 504,-454.0019 504,-435.0019 427,-435.0019"/>
<text text-anchor="middle" x="465.5" y="-442.0019" font-family="Helvetica,sans-Serif" font-size="10.00" fill="#000000">JS_FreeAtom</text>
</a>
</g>
</g>
<!-- Node312618&#45;&gt;Node312621 -->
<g id="edge29" class="edge">
<title>Node312618&#45;&gt;Node312621</title>
<path fill="none" stroke="#191970" d="M330.8582,-662.9953C352.1921,-628.3752 425.9618,-508.6635 454.2955,-462.6843"/>
<polygon fill="#191970" stroke="#191970" points="457.3502,-464.3987 459.6168,-454.0491 451.3908,-460.7263 457.3502,-464.3987"/>
</g>
<!-- Node312730 -->
<g id="node21" class="node">
<title>Node312730</title>
<g id="a_node21"><a xlink:href="quickjs_8c.html#addf02d1c6b3438644c021b2b6d593b7c" target="_top" xlink:title="emit_u8">
<polygon fill="none" stroke="#000000" points="440,-739.0019 440,-758.0019 491,-758.0019 491,-739.0019 440,-739.0019"/>
<text text-anchor="middle" x="465.5" y="-746.0019" font-family="Helvetica,sans-Serif" font-size="10.00" fill="#000000">emit_u8</text>
</a>
</g>
</g>
<!-- Node312618&#45;&gt;Node312730 -->
<g id="edge32" class="edge">
<title>Node312618&#45;&gt;Node312730</title>
<path fill="none" stroke="#191970" d="M341.901,-682.0435C360.6564,-692.587 391.8611,-709.9957 419,-724.5019 424.8888,-727.6496 431.2293,-730.9682 437.2766,-734.1001"/>
<polygon fill="#191970" stroke="#191970" points="435.9386,-737.3479 446.4311,-738.8165 439.1446,-731.1252 435.9386,-737.3479"/>
</g>
<!-- Node312619&#45;&gt;Node312626 -->
<g id="edge19" class="edge">
<title>Node312619&#45;&gt;Node312626</title>
<path fill="none" stroke="#191970" d="M481.3947,-112.1274C502.8948,-125.1474 541.4451,-148.4926 566.6207,-163.7383"/>
<polygon fill="#191970" stroke="#191970" points="564.8676,-166.7684 575.2344,-168.9546 568.4936,-160.7807 564.8676,-166.7684"/>
</g>
<!-- Node312667 -->
<g id="node17" class="node">
<title>Node312667</title>
<g id="a_node17"><a xlink:href="quickjs_8h.html#ad80a83d73e9b7d872b88fbf2943aebe9" target="_top" xlink:title="JS_IsException">
<polygon fill="none" stroke="#000000" points="548,-93.0019 548,-112.0019 634,-112.0019 634,-93.0019 548,-93.0019"/>
<text text-anchor="middle" x="591" y="-100.0019" font-family="Helvetica,sans-Serif" font-size="10.00" fill="#000000">JS_IsException</text>
</a>
</g>
</g>
<!-- Node312619&#45;&gt;Node312667 -->
<g id="edge20" class="edge">
<title>Node312619&#45;&gt;Node312667</title>
<path fill="none" stroke="#191970" d="M498.146,-102.5019C510.184,-102.5019 524.159,-102.5019 537.5554,-102.5019"/>
<polygon fill="#191970" stroke="#191970" points="537.6453,-106.002 547.6453,-102.5019 537.6452,-99.002 537.6453,-106.002"/>
</g>
<!-- Node312728&#45;&gt;Node312600 -->
<g id="edge26" class="edge">
<title>Node312728&#45;&gt;Node312600</title>
<path fill="none" stroke="#191970" d="M497.8956,-416.0571C503.0148,-418.5579 507.9474,-421.6643 512,-425.5019 539.1385,-451.2009 528.6449,-469.5282 548,-501.5019 556.4082,-515.3919 567.4693,-529.9903 576.2673,-540.9358"/>
<polygon fill="#191970" stroke="#191970" points="573.7013,-543.3267 582.744,-548.8475 579.1178,-538.8925 573.7013,-543.3267"/>
</g>
<!-- Node312728&#45;&gt;Node312612 -->
<g id="edge27" class="edge">
<title>Node312728&#45;&gt;Node312612</title>
<path fill="none" stroke="#191970" d="M492.0769,-416.0949C498.7284,-418.837 505.7466,-422.033 512,-425.5019 533.5881,-437.4773 556.2418,-454.3278 571.7272,-466.6006"/>
<polygon fill="#191970" stroke="#191970" points="569.5554,-469.3454 579.5405,-472.8878 573.9438,-463.8918 569.5554,-469.3454"/>
</g>
<!-- Node312730&#45;&gt;Node312604 -->
<g id="edge33" class="edge">
<title>Node312730&#45;&gt;Node312604</title>
<path fill="none" stroke="#191970" d="M491.3982,-748.5019C533.6312,-748.5019 617.6205,-748.5019 667.5431,-748.5019"/>
<polygon fill="#191970" stroke="#191970" points="667.6517,-752.002 677.6517,-748.5019 667.6516,-745.002 667.6517,-752.002"/>
</g>
<!-- Node312731&#45;&gt;Node312600 -->
<g id="edge35" class="edge">
<title>Node312731&#45;&gt;Node312600</title>
<path fill="none" stroke="#191970" d="M185.6478,-511.1463C201.8619,-525.1935 234.3209,-550.8712 267,-562.5019 369.7774,-599.0812 403.666,-590.3463 512,-577.5019 526.4,-575.7946 541.9736,-572.3948 555.4563,-568.9371"/>
<polygon fill="#191970" stroke="#191970" points="556.5456,-572.269 565.3049,-566.3087 554.7406,-565.5057 556.5456,-572.269"/>
</g>
<!-- Node312731&#45;&gt;Node312606 -->
<g id="edge70" class="edge">
<title>Node312731&#45;&gt;Node312606</title>
<path fill="none" stroke="#191970" d="M176.2097,-511.2125C183.1194,-565.4475 218.9799,-830.7639 267,-895.5019 302.4697,-943.3202 334.9928,-927.2883 383,-962.5019 400.5017,-975.3395 400.6672,-983.8821 419,-995.5019 421.9625,-997.3796 425.1418,-999.1363 428.3967,-1000.7636"/>
<polygon fill="#191970" stroke="#191970" points="427.1034,-1004.0208 437.6528,-1005.0003 430.0168,-997.6558 427.1034,-1004.0208"/>
</g>
<!-- Node312731&#45;&gt;Node312607 -->
<g id="edge71" class="edge">
<title>Node312731&#45;&gt;Node312607</title>
<path fill="none" stroke="#191970" d="M175.8865,-511.0152C179.6572,-545.9102 197.5156,-668.0838 267,-730.5019 312.6488,-771.5084 386.1326,-782.7087 429.7292,-785.6325"/>
<polygon fill="#191970" stroke="#191970" points="429.6916,-789.1358 439.8712,-786.199 430.082,-782.1467 429.6916,-789.1358"/>
</g>
<!-- Node312731&#45;&gt;Node312608 -->
<g id="edge72" class="edge">
<title>Node312731&#45;&gt;Node312608</title>
<path fill="none" stroke="#191970" d="M176.5116,-511.0221C184.5803,-560.9133 223.8268,-792.0736 267,-848.5019 303.1776,-895.7869 337.195,-877.4679 383,-915.5019 401.9148,-931.2078 399.0626,-943.1163 419,-957.5019 422.5007,-960.0278 426.3861,-962.2872 430.3766,-964.2888"/>
<polygon fill="#191970" stroke="#191970" points="429.1906,-967.5929 439.747,-968.4954 432.0575,-961.2068 429.1906,-967.5929"/>
</g>
<!-- Node312731&#45;&gt;Node312611 -->
<g id="edge66" class="edge">
<title>Node312731&#45;&gt;Node312611</title>
<path fill="none" stroke="#191970" d="M193.4747,-511.0497C211.6676,-519.9855 240.5018,-532.9172 267,-539.5019 320.3147,-552.7505 383.8044,-556.8748 424.3691,-558.096"/>
<polygon fill="#191970" stroke="#191970" points="424.3333,-561.5961 434.4195,-558.353 424.5123,-554.5984 424.3333,-561.5961"/>
</g>
<!-- Node312731&#45;&gt;Node312612 -->
<g id="edge36" class="edge">
<title>Node312731&#45;&gt;Node312612</title>
<path fill="none" stroke="#191970" d="M177.1419,-491.9323C186.5869,-450.6755 225.873,-288.8238 267,-260.5019 356.8073,-198.6567 425.5192,-207.0847 512,-273.5019 573.1522,-320.4667 586.9682,-420.5044 590.0893,-462.8813"/>
<polygon fill="#191970" stroke="#191970" points="586.604,-463.2294 590.7063,-472.9978 593.591,-462.8032 586.604,-463.2294"/>
</g>
<!-- Node312731&#45;&gt;Node312615 -->
<g id="edge67" class="edge">
<title>Node312731&#45;&gt;Node312615</title>
<path fill="none" stroke="#191970" d="M181.2736,-491.9419C197.9744,-466.8122 243.8194,-399.9739 267,-387.5019 317.3079,-360.4346 385.2362,-360.3676 427.1661,-363.7389"/>
<polygon fill="#191970" stroke="#191970" points="426.9634,-367.2348 437.2395,-364.6558 427.598,-360.2637 426.9634,-367.2348"/>
</g>
<!-- Node312731&#45;&gt;Node312619 -->
<g id="edge38" class="edge">
<title>Node312731&#45;&gt;Node312619</title>
<path fill="none" stroke="#191970" d="M176.9379,-491.774C186.1187,-446.5435 226.48,-257.2001 267,-214.5019 304.9562,-174.5054 335.3124,-198.1838 383,-170.5019 396.3328,-162.7624 427.099,-136.4359 447.0606,-118.9025"/>
<polygon fill="#191970" stroke="#191970" points="449.4414,-121.4694 454.6222,-112.2277 444.809,-116.2215 449.4414,-121.4694"/>
</g>
<!-- Node312731&#45;&gt;Node312626 -->
<g id="edge51" class="edge">
<title>Node312731&#45;&gt;Node312626</title>
<path fill="none" stroke="#191970" d="M175.57,-491.9851C179.2515,-433.8796 201.614,-127.3946 267,-66.5019 346.9775,7.9796 419.6503,12.9399 512,-45.5019 543.5828,-65.4885 528.6449,-89.5282 548,-121.5019 556.4082,-135.3919 567.4693,-149.9903 576.2673,-160.9358"/>
<polygon fill="#191970" stroke="#191970" points="573.7013,-163.3267 582.744,-168.8475 579.1178,-158.8925 573.7013,-163.3267"/>
</g>
<!-- Node312731&#45;&gt;Node312667 -->
<g id="edge48" class="edge">
<title>Node312731&#45;&gt;Node312667</title>
<path fill="none" stroke="#191970" d="M175.1844,-491.7321C176.6161,-427.6642 188.1267,-68.1628 267,-2.5019 272.2308,1.8526 505.6036,-.3922 512,-3.5019 546.4347,-20.2429 570.5746,-60.0115 582.4934,-83.7371"/>
<polygon fill="#191970" stroke="#191970" points="579.3651,-85.3082 586.8476,-92.809 585.6759,-82.2792 579.3651,-85.3082"/>
</g>
<!-- Node312731&#45;&gt;Node312727 -->
<g id="edge73" class="edge">
<title>Node312731&#45;&gt;Node312727</title>
<path fill="none" stroke="#191970" d="M179.85,-511.1593C191.4651,-533.1461 223.2016,-586.8556 267,-610.5019 310.5057,-633.9902 367.0455,-638.7714 408.6491,-638.3908"/>
<polygon fill="#191970" stroke="#191970" points="408.9576,-641.8855 418.8874,-638.191 408.821,-634.8868 408.9576,-641.8855"/>
</g>
<!-- Node312731&#45;&gt;Node312728 -->
<g id="edge37" class="edge">
<title>Node312731&#45;&gt;Node312728</title>
<path fill="none" stroke="#191970" d="M231.1065,-500.6257C274.8512,-497.8039 335.878,-489.0347 383,-463.5019 403.4547,-452.4187 399.8011,-438.6411 419,-425.5019 421.5796,-423.7365 424.3484,-422.093 427.2029,-420.5718"/>
<polygon fill="#191970" stroke="#191970" points="428.9753,-423.6039 436.4852,-416.1305 425.954,-417.2895 428.9753,-423.6039"/>
</g>
<!-- Node312731&#45;&gt;Node312730 -->
<g id="edge69" class="edge">
<title>Node312731&#45;&gt;Node312730</title>
<path fill="none" stroke="#191970" d="M176.7715,-511.0875C183.0238,-542.1577 207.0004,-640.9911 267,-691.5019 313.8783,-730.9665 386.6358,-743.1422 429.8243,-746.8763"/>
<polygon fill="#191970" stroke="#191970" points="429.6371,-750.372 439.8732,-747.6383 430.1665,-743.3921 429.6371,-750.372"/>
</g>
<!-- Node312731&#45;&gt;Node312731 -->
<g id="edge68" class="edge">
<title>Node312731&#45;&gt;Node312731</title>
<path fill="none" stroke="#191970" d="M154.655,-511.259C144.7574,-520.0672 151.5391,-529.5019 175,-529.5019 190.0297,-529.5019 198.2142,-525.6299 199.5535,-520.5311"/>
<polygon fill="#191970" stroke="#191970" points="202.6652,-518.9184 195.345,-511.259 196.291,-521.8115 202.6652,-518.9184"/>
</g>
<!-- Node312732 -->
<g id="node23" class="node">
<title>Node312732</title>
<g id="a_node23"><a xlink:href="quickjs_8c.html#a035daca514f14aacc1e0cff81d8e423a" target="_top" xlink:title="js_parse_template">
<polygon fill="none" stroke="#ff0000" points="277,-270.0019 277,-289.0019 373,-289.0019 373,-270.0019 277,-270.0019"/>
<text text-anchor="middle" x="325" y="-277.0019" font-family="Helvetica,sans-Serif" font-size="10.00" fill="#000000">js_parse_template</text>
</a>
</g>
</g>
<!-- Node312731&#45;&gt;Node312732 -->
<g id="edge39" class="edge">
<title>Node312731&#45;&gt;Node312732</title>
<path fill="none" stroke="#191970" d="M177.4814,-491.5897C185.5308,-461.1838 213.5413,-367.8847 267,-311.5019 273.7406,-304.3926 282.4176,-298.4713 290.9959,-293.7346"/>
<polygon fill="#191970" stroke="#191970" points="292.8487,-296.7187 300.1691,-289.0596 289.6702,-290.4819 292.8487,-296.7187"/>
</g>
<!-- Node313082 -->
<g id="node24" class="node">
<title>Node313082</title>
<g id="a_node24"><a xlink:href="quickjs_8c.html#acb789e8ccb230adfd9262642ff338177" target="_top" xlink:title="js_parse_regexp">
<polygon fill="none" stroke="#ff0000" points="421.5,-55.0019 421.5,-74.0019 509.5,-74.0019 509.5,-55.0019 421.5,-55.0019"/>
<text text-anchor="middle" x="465.5" y="-62.0019" font-family="Helvetica,sans-Serif" font-size="10.00" fill="#000000">js_parse_regexp</text>
</a>
</g>
</g>
<!-- Node312731&#45;&gt;Node313082 -->
<g id="edge47" class="edge">
<title>Node312731&#45;&gt;Node313082</title>
<path fill="none" stroke="#191970" d="M176.0205,-491.9367C181.901,-438.542 213.0947,-177.7255 267,-121.5019 304.2933,-82.6047 366.2142,-69.7333 410.9922,-65.7356"/>
<polygon fill="#191970" stroke="#191970" points="411.4228,-69.2129 421.1243,-64.9548 410.8849,-62.2336 411.4228,-69.2129"/>
</g>
<!-- Node312773 -->
<g id="node25" class="node">
<title>Node312773</title>
<g id="a_node25"><a xlink:href="quickjs_8c.html#a61c8dfb5e807af1b6ff7d8ca61576dda" target="_top" xlink:title="build_backtrace">
<polygon fill="none" stroke="#ff0000" points="548.5,-929.0019 548.5,-948.0019 633.5,-948.0019 633.5,-929.0019 548.5,-929.0019"/>
<text text-anchor="middle" x="591" y="-936.0019" font-family="Helvetica,sans-Serif" font-size="10.00" fill="#000000">build_backtrace</text>
</a>
</g>
</g>
<!-- Node312731&#45;&gt;Node312773 -->
<g id="edge49" class="edge">
<title>Node312731&#45;&gt;Node312773</title>
<path fill="none" stroke="#191970" d="M175.9623,-511.1919C181.8615,-569.0543 214.623,-868.9031 267,-942.5019 334.3502,-1037.1407 406.8346,-1082.8252 512,-1033.5019 545.4962,-1017.7919 569.717,-980.1282 581.956,-957.224"/>
<polygon fill="#191970" stroke="#191970" points="585.1618,-958.642 586.5936,-948.1443 578.9279,-955.4579 585.1618,-958.642"/>
</g>
<!-- Node313083 -->
<g id="node26" class="node">
<title>Node313083</title>
<g id="a_node26"><a xlink:href="quickjs_8c.html#ac00298085baf11a4a7bd600cf5de2e6d" target="_top" xlink:title="js_parse_skip_parens\l_token">
<polygon fill="none" stroke="#ff0000" points="269.5,-131.5019 269.5,-161.5019 380.5,-161.5019 380.5,-131.5019 269.5,-131.5019"/>
<text text-anchor="start" x="277.5" y="-149.5019" font-family="Helvetica,sans-Serif" font-size="10.00" fill="#000000">js_parse_skip_parens</text>
<text text-anchor="middle" x="325" y="-138.5019" font-family="Helvetica,sans-Serif" font-size="10.00" fill="#000000">_token</text>
</a>
</g>
</g>
<!-- Node312731&#45;&gt;Node313083 -->
<g id="edge52" class="edge">
<title>Node312731&#45;&gt;Node313083</title>
<path fill="none" stroke="#191970" d="M176.6539,-491.9199C185.1269,-443.7207 224.9088,-228.0596 267,-176.5019 269.7423,-173.1429 272.9599,-170.1179 276.4497,-167.4021"/>
<polygon fill="#191970" stroke="#191970" points="278.6754,-170.1218 284.9905,-161.6147 274.7487,-164.3268 278.6754,-170.1218"/>
</g>
<!-- Node313088 -->
<g id="node27" class="node">
<title>Node313088</title>
<g id="a_node27"><a xlink:href="quickjs_8c.html#a3cad0b329e5f016dce8d42b4196c3499" target="_top" xlink:title="js_parse_function_decl">
<polygon fill="none" stroke="#ff0000" points="267,-435.0019 267,-454.0019 383,-454.0019 383,-435.0019 267,-435.0019"/>
<text text-anchor="middle" x="325" y="-442.0019" font-family="Helvetica,sans-Serif" font-size="10.00" fill="#000000">js_parse_function_decl</text>
</a>
</g>
</g>
<!-- Node312731&#45;&gt;Node313088 -->
<g id="edge55" class="edge">
<title>Node312731&#45;&gt;Node313088</title>
<path fill="none" stroke="#191970" d="M200.1066,-491.9614C224.7673,-482.5903 262.599,-468.2143 290.1639,-457.7396"/>
<polygon fill="#191970" stroke="#191970" points="291.7069,-460.8975 299.8115,-454.0736 289.2203,-454.3541 291.7069,-460.8975"/>
</g>
<!-- Node313150 -->
<g id="node28" class="node">
<title>Node313150</title>
<g id="a_node28"><a xlink:href="quickjs_8c.html#afb5f2af95f877adc2bb9b9ec60d23759" target="_top" xlink:title="js_parse_expr_paren">
<polygon fill="none" stroke="#ff0000" points="271.5,-397.0019 271.5,-416.0019 378.5,-416.0019 378.5,-397.0019 271.5,-397.0019"/>
<text text-anchor="middle" x="325" y="-404.0019" font-family="Helvetica,sans-Serif" font-size="10.00" fill="#000000">js_parse_expr_paren</text>
</a>
</g>
</g>
<!-- Node312731&#45;&gt;Node313150 -->
<g id="edge56" class="edge">
<title>Node312731&#45;&gt;Node313150</title>
<path fill="none" stroke="#191970" d="M184.0523,-491.9885C199.618,-476.1309 233.0667,-444.1946 267,-425.5019 270.9169,-423.3442 275.1186,-421.3816 279.4048,-419.6084"/>
<polygon fill="#191970" stroke="#191970" points="280.737,-422.8464 288.8452,-416.0267 278.2539,-416.3016 280.737,-422.8464"/>
</g>
<!-- Node313124 -->
<g id="node29" class="node">
<title>Node313124</title>
<g id="a_node29"><a xlink:href="quickjs_8c.html#a00eb789430243c24dab4a63ad6a79653" target="_top" xlink:title="js_parse_class">
<polygon fill="none" stroke="#ff0000" points="284,-511.0019 284,-530.0019 366,-530.0019 366,-511.0019 284,-511.0019"/>
<text text-anchor="middle" x="325" y="-518.0019" font-family="Helvetica,sans-Serif" font-size="10.00" fill="#000000">js_parse_class</text>
</a>
</g>
</g>
<!-- Node312731&#45;&gt;Node313124 -->
<g id="edge57" class="edge">
<title>Node312731&#45;&gt;Node313124</title>
<path fill="none" stroke="#191970" d="M231.2812,-502.0713C248.6024,-503.9061 267.3465,-506.4294 283.4869,-509.1312"/>
<polygon fill="#191970" stroke="#191970" points="283.2206,-512.6381 293.6764,-510.927 284.4357,-505.7444 283.2206,-512.6381"/>
</g>
<!-- Node312732&#45;&gt;Node312600 -->
<g id="edge43" class="edge">
<title>Node312732&#45;&gt;Node312600</title>
<path fill="none" stroke="#191970" d="M373.2487,-274.9553C415.6255,-273.7995 475.98,-279.5178 512,-315.5019 571.5687,-375.0112 513.7629,-424.576 548,-501.5019 554.5225,-516.157 565.4383,-530.5608 574.6393,-541.2227"/>
<polygon fill="#191970" stroke="#191970" points="572.2496,-543.8002 581.5339,-548.9044 577.459,-539.1245 572.2496,-543.8002"/>
</g>
<!-- Node312732&#45;&gt;Node312611 -->
<g id="edge44" class="edge">
<title>Node312732&#45;&gt;Node312611</title>
<path fill="none" stroke="#191970" d="M352.6105,-289.0249C363.5636,-294.1032 375.3483,-301.428 383,-311.5019 424.9923,-366.7867 395.5945,-398.1419 419,-463.5019 428.8656,-491.0516 444.4675,-521.1149 454.841,-539.8867"/>
<polygon fill="#191970" stroke="#191970" points="451.9165,-541.8272 459.8639,-548.8337 458.0204,-538.4004 451.9165,-541.8272"/>
</g>
<!-- Node312732&#45;&gt;Node312615 -->
<g id="edge46" class="edge">
<title>Node312732&#45;&gt;Node312615</title>
<path fill="none" stroke="#191970" d="M343.5565,-289.1274C355.0761,-295.2526 370.0932,-303.5106 383,-311.5019 404.231,-324.6471 427.5704,-340.9563 443.9903,-352.757"/>
<polygon fill="#191970" stroke="#191970" points="442.1897,-355.7743 452.3432,-358.8005 446.293,-350.103 442.1897,-355.7743"/>
</g>
<!-- Node312732&#45;&gt;Node312619 -->
<g id="edge45" class="edge">
<title>Node312732&#45;&gt;Node312619</title>
<path fill="none" stroke="#191970" d="M333.6395,-269.8333C345.6983,-256.0258 367.8024,-229.5512 383,-204.5019 402.8047,-171.8591 392.6033,-154.088 419,-126.5019 422.3563,-122.9944 426.3376,-119.9054 430.5366,-117.2131"/>
<polygon fill="#191970" stroke="#191970" points="432.3514,-120.2077 439.3311,-112.2369 428.9041,-114.1154 432.3514,-120.2077"/>
</g>
<!-- Node312732&#45;&gt;Node312626 -->
<g id="edge42" class="edge">
<title>Node312732&#45;&gt;Node312626</title>
<path fill="none" stroke="#191970" d="M347.2914,-269.9043C366.2626,-261.8203 394.2874,-250.0763 419,-240.5019 464.9309,-222.7069 518.3789,-203.7038 553.3532,-191.496"/>
<polygon fill="#191970" stroke="#191970" points="554.852,-194.6803 563.1454,-188.0872 552.5506,-188.0694 554.852,-194.6803"/>
</g>
<!-- Node312732&#45;&gt;Node312667 -->
<g id="edge40" class="edge">
<title>Node312732&#45;&gt;Node312667</title>
<path fill="none" stroke="#191970" d="M335.9023,-269.9803C353.0363,-255.2084 387.5618,-226.2117 419,-204.5019 468.4831,-170.3312 529.7479,-135.7045 564.1968,-116.8828"/>
<polygon fill="#191970" stroke="#191970" points="566.0545,-119.8567 573.1699,-112.0067 562.7123,-113.7061 566.0545,-119.8567"/>
</g>
<!-- Node312732&#45;&gt;Node312728 -->
<g id="edge41" class="edge">
<title>Node312732&#45;&gt;Node312728</title>
<path fill="none" stroke="#191970" d="M349.8681,-289.0244C361.0975,-294.3004 373.8628,-301.7819 383,-311.5019 408.5996,-338.7343 391.8615,-361.8029 419,-387.5019 420.6464,-389.061 422.438,-390.4993 424.3283,-391.8254"/>
<polygon fill="#191970" stroke="#191970" points="422.7034,-394.9295 433.1044,-396.9467 426.2315,-388.8836 422.7034,-394.9295"/>
</g>
<!-- Node312773&#45;&gt;Node312604 -->
<g id="edge50" class="edge">
<title>Node312773&#45;&gt;Node312604</title>
<path fill="none" stroke="#191970" d="M596.9374,-928.8186C615.318,-898.8417 671.5119,-807.195 695.9487,-767.341"/>
<polygon fill="#191970" stroke="#191970" points="699.1914,-768.7482 701.4348,-758.3936 693.2238,-765.0891 699.1914,-768.7482"/>
</g>
<!-- Node313083&#45;&gt;Node312619 -->
<g id="edge54" class="edge">
<title>Node313083&#45;&gt;Node312619</title>
<path fill="none" stroke="#191970" d="M372.9592,-131.4827C389.9439,-126.1636 408.8681,-120.2372 425.1553,-115.1365"/>
<polygon fill="#191970" stroke="#191970" points="426.4178,-118.4089 434.9148,-112.0802 424.3258,-111.7288 426.4178,-118.4089"/>
</g>
<!-- Node313083&#45;&gt;Node313082 -->
<g id="edge53" class="edge">
<title>Node313083&#45;&gt;Node313082</title>
<path fill="none" stroke="#191970" d="M357.7911,-131.4563C366.2643,-127.0588 375.1927,-121.9545 383,-116.5019 400.7949,-104.0741 400.6672,-95.1218 419,-83.5019 421.9625,-81.6242 425.1418,-79.8676 428.3967,-78.2402"/>
<polygon fill="#191970" stroke="#191970" points="430.0168,-81.348 437.6528,-74.0035 427.1034,-74.9831 430.0168,-81.348"/>
</g>
<!-- Node313124&#45;&gt;Node312600 -->
<g id="edge60" class="edge">
<title>Node313124&#45;&gt;Node312600</title>
<path fill="none" stroke="#191970" d="M366.0707,-523.0763C404.1024,-525.8379 462.1373,-531.0124 512,-539.5019 526.2952,-541.9358 541.8481,-545.4786 555.3436,-548.8474"/>
<polygon fill="#191970" stroke="#191970" points="554.6525,-552.2832 565.2078,-551.3683 556.3858,-545.5011 554.6525,-552.2832"/>
</g>
<!-- Node313124&#45;&gt;Node312611 -->
<g id="edge62" class="edge">
<title>Node313124&#45;&gt;Node312611</title>
<path fill="none" stroke="#191970" d="M360.4541,-530.0909C379.9263,-535.3574 404.1702,-541.9145 424.4593,-547.4019"/>
<polygon fill="#191970" stroke="#191970" points="423.7951,-550.848 434.3621,-550.0803 425.6227,-544.0908 423.7951,-550.848"/>
</g>
<!-- Node313124&#45;&gt;Node312612 -->
<g id="edge61" class="edge">
<title>Node313124&#45;&gt;Node312612</title>
<path fill="none" stroke="#191970" d="M366.2706,-514.6061C417.223,-507.3272 503.1954,-495.0454 552.7268,-487.9695"/>
<polygon fill="#191970" stroke="#191970" points="553.3129,-491.4214 562.7174,-486.5423 552.3229,-484.4918 553.3129,-491.4214"/>
</g>
<!-- Node313124&#45;&gt;Node312615 -->
<g id="edge65" class="edge">
<title>Node313124&#45;&gt;Node312615</title>
<path fill="none" stroke="#191970" d="M337.3552,-510.629C350.0388,-500.0149 369.7438,-482.1399 383,-463.5019 404.6628,-433.0444 391.8615,-413.2009 419,-387.5019 421.7585,-384.8898 424.9246,-382.6164 428.2798,-380.6423"/>
<polygon fill="#191970" stroke="#191970" points="430.0523,-383.6699 437.4526,-376.088 426.9394,-377.4002 430.0523,-383.6699"/>
</g>
<!-- Node313124&#45;&gt;Node312619 -->
<g id="edge58" class="edge">
<title>Node313124&#45;&gt;Node312619</title>
<path fill="none" stroke="#191970" d="M338.7045,-510.7866C352.0823,-500.5584 371.9847,-483.2231 383,-463.5019 400.0737,-432.934 447.8303,-192.9784 461.6863,-122.1313"/>
<polygon fill="#191970" stroke="#191970" points="465.1304,-122.7558 463.6092,-112.2707 458.2598,-121.4159 465.1304,-122.7558"/>
</g>
<!-- Node313124&#45;&gt;Node312621 -->
<g id="edge64" class="edge">
<title>Node313124&#45;&gt;Node312621</title>
<path fill="none" stroke="#191970" d="M352.2826,-510.9619C362.2315,-507.0344 373.391,-502.0894 383,-496.5019 400.5227,-486.3128 401.9212,-479.4189 419,-468.5019 424.1979,-465.1793 429.9101,-461.9307 435.498,-458.9507"/>
<polygon fill="#191970" stroke="#191970" points="437.386,-461.9152 444.6719,-454.2233 434.1794,-455.6928 437.386,-461.9152"/>
</g>
<!-- Node313124&#45;&gt;Node312730 -->
<g id="edge63" class="edge">
<title>Node313124&#45;&gt;Node312730</title>
<path fill="none" stroke="#191970" d="M330.8582,-530.0085C352.1921,-564.6287 425.9618,-684.3403 454.2955,-730.3195"/>
<polygon fill="#191970" stroke="#191970" points="451.3908,-732.2775 459.6168,-738.9547 457.3502,-728.6052 451.3908,-732.2775"/>
</g>
<!-- Node313124&#45;&gt;Node312731 -->
<g id="edge59" class="edge">
<title>Node313124&#45;&gt;Node312731</title>
<path fill="none" stroke="#191970" d="M283.9917,-521.3992C262.8665,-519.6006 237.1781,-516.3472 216.0473,-512.7945"/>
<polygon fill="#191970" stroke="#191970" points="216.5369,-509.3269 206.0801,-511.0315 215.3176,-516.2199 216.5369,-509.3269"/>
</g>
<!-- Node313078&#45;&gt;Node312600 -->
<g id="edge77" class="edge">
<title>Node313078&#45;&gt;Node312600</title>
<path fill="none" stroke="#191970" d="M355.7188,-323.817C396.6208,-316.8592 468.812,-311.6423 512,-349.5019 564.2052,-395.2662 518.4652,-438.6732 548,-501.5019 554.8242,-516.019 565.7368,-530.4243 574.8606,-541.1214"/>
<polygon fill="#191970" stroke="#191970" points="572.4361,-543.6632 581.682,-548.8366 577.6803,-539.0266 572.4361,-543.6632"/>
</g>
<!-- Node313078&#45;&gt;Node312612 -->
<g id="edge78" class="edge">
<title>Node313078&#45;&gt;Node312612</title>
<path fill="none" stroke="#191970" d="M347.2136,-320.914C384.4721,-306.4478 460.5263,-283.993 512,-316.5019 563.8455,-349.2457 582.3675,-426.3384 588.3827,-462.771"/>
<polygon fill="#191970" stroke="#191970" points="584.9242,-463.3092 589.871,-472.6782 591.8465,-462.2692 584.9242,-463.3092"/>
</g>
<!-- Node313078&#45;&gt;Node312615 -->
<g id="edge79" class="edge">
<title>Node313078&#45;&gt;Node312615</title>
<path fill="none" stroke="#191970" d="M355.8333,-338.8412C376.8483,-344.5249 404.8212,-352.0906 427.2555,-358.1582"/>
<polygon fill="#191970" stroke="#191970" points="426.5615,-361.5962 437.1285,-360.8285 428.3891,-354.839 426.5615,-361.5962"/>
</g>
<!-- Node313078&#45;&gt;Node312621 -->
<g id="edge80" class="edge">
<title>Node313078&#45;&gt;Node312621</title>
<path fill="none" stroke="#191970" d="M334.9581,-340.0778C346.5972,-351.3185 366.3829,-370.5775 383,-387.5019 399.299,-404.1024 399.8011,-412.3628 419,-425.5019 421.5796,-427.2673 424.3484,-428.9108 427.2029,-430.432"/>
<polygon fill="#191970" stroke="#191970" points="425.954,-433.7144 436.4852,-434.8733 428.9753,-427.3999 425.954,-433.7144"/>
</g>
</g>
</svg>
