<?xml version="1.0" encoding="UTF-8" standalone="no"?>
<!DOCTYPE svg PUBLIC "-//W3C//DTD SVG 1.1//EN"
 "http://www.w3.org/Graphics/SVG/1.1/DTD/svg11.dtd">
<!-- Generated by graphviz version 2.40.1 (20161225.0304)
 -->
<!-- Title: js_proxy_has Pages: 1 -->
<svg width="893pt" height="963pt"
 viewBox="0.00 0.00 893.00 962.98" xmlns="http://www.w3.org/2000/svg" xmlns:xlink="http://www.w3.org/1999/xlink">
<g id="graph0" class="graph" transform="scale(1 1) rotate(0) translate(4 958.9781)">
<title>js_proxy_has</title>
<!-- Node439757 -->
<g id="node1" class="node">
<title>Node439757</title>
<polygon fill="#bfbfbf" stroke="#000000" points="0,-256.6499 0,-275.6499 74,-275.6499 74,-256.6499 0,-256.6499"/>
<text text-anchor="middle" x="37" y="-263.6499" font-family="Helvetica,sans-Serif" font-size="10.00" fill="#000000">js_proxy_has</text>
</g>
<!-- Node439758 -->
<g id="node2" class="node">
<title>Node439758</title>
<g id="a_node2"><a xlink:href="quickjs_8c.html#a9e94551ddba8762d74eda5127445dbbd" target="_top" xlink:title="get_proxy_method">
<polygon fill="none" stroke="#000000" points="218,-788.6499 218,-807.6499 315,-807.6499 315,-788.6499 218,-788.6499"/>
<text text-anchor="middle" x="266.5" y="-795.6499" font-family="Helvetica,sans-Serif" font-size="10.00" fill="#000000">get_proxy_method</text>
</a>
</g>
</g>
<!-- Node439757&#45;&gt;Node439758 -->
<g id="edge1" class="edge">
<title>Node439757&#45;&gt;Node439758</title>
<path fill="none" stroke="#191970" d="M37.6361,-275.7271C40.6221,-316.1467 55.4839,-476.088 110,-593.1499 146.4207,-671.3557 216.6676,-747.9632 249.1936,-781.0791"/>
<polygon fill="#191970" stroke="#191970" points="247.0742,-783.9116 256.6066,-788.5358 252.0385,-778.9764 247.0742,-783.9116"/>
</g>
<!-- Node439761 -->
<g id="node5" class="node">
<title>Node439761</title>
<g id="a_node5"><a xlink:href="quickjs_8h.html#ad80a83d73e9b7d872b88fbf2943aebe9" target="_top" xlink:title="JS_IsException">
<polygon fill="none" stroke="#000000" points="556.5,-750.6499 556.5,-769.6499 642.5,-769.6499 642.5,-750.6499 556.5,-750.6499"/>
<text text-anchor="middle" x="599.5" y="-757.6499" font-family="Helvetica,sans-Serif" font-size="10.00" fill="#000000">JS_IsException</text>
</a>
</g>
</g>
<!-- Node439757&#45;&gt;Node439761 -->
<g id="edge55" class="edge">
<title>Node439757&#45;&gt;Node439761</title>
<path fill="none" stroke="#191970" d="M37.2867,-275.7784C38.9351,-321.0944 49.41,-516.994 110,-662.1499 142.3425,-739.633 160.7106,-755.769 218,-817.1499 307.7679,-913.3287 388.9674,-1003.3761 494,-924.1499 540.4965,-889.0775 493.634,-843.6418 530,-798.1499 538.266,-787.8095 550.143,-779.8725 561.7463,-773.9935"/>
<polygon fill="#191970" stroke="#191970" points="563.3371,-777.1136 570.9191,-769.7133 560.3771,-770.7702 563.3371,-777.1136"/>
</g>
<!-- Node439766 -->
<g id="node10" class="node">
<title>Node439766</title>
<g id="a_node10"><a xlink:href="quickjs_8c.html#afa67965c1017685fc6783776d6d0d4d7" target="_top" xlink:title="JS_AtomToValue">
<polygon fill="none" stroke="#000000" points="376,-617.6499 376,-636.6499 469,-636.6499 469,-617.6499 376,-617.6499"/>
<text text-anchor="middle" x="422.5" y="-624.6499" font-family="Helvetica,sans-Serif" font-size="10.00" fill="#000000">JS_AtomToValue</text>
</a>
</g>
</g>
<!-- Node439757&#45;&gt;Node439766 -->
<g id="edge9" class="edge">
<title>Node439757&#45;&gt;Node439766</title>
<path fill="none" stroke="#191970" d="M40.4303,-275.8883C49.2623,-300.0648 74.5981,-364.0546 110,-408.1499 197.1402,-516.6884 227.2961,-544.3426 351,-608.1499 355.6605,-610.5538 360.6531,-612.6742 365.7533,-614.5404"/>
<polygon fill="#191970" stroke="#191970" points="365.0414,-617.9919 375.6349,-617.8236 367.2485,-611.349 365.0414,-617.9919"/>
</g>
<!-- Node439794 -->
<g id="node16" class="node">
<title>Node439794</title>
<g id="a_node16"><a xlink:href="quickjs_8c.html#a75f6ee5e4235a7dc99889f3d2eb2c147" target="_top" xlink:title="JS_CallFree">
<polygon fill="none" stroke="#000000" points="110.5,-379.6499 110.5,-398.6499 181.5,-398.6499 181.5,-379.6499 110.5,-379.6499"/>
<text text-anchor="middle" x="146" y="-386.6499" font-family="Helvetica,sans-Serif" font-size="10.00" fill="#000000">JS_CallFree</text>
</a>
</g>
</g>
<!-- Node439757&#45;&gt;Node439794 -->
<g id="edge15" class="edge">
<title>Node439757&#45;&gt;Node439794</title>
<path fill="none" stroke="#191970" d="M45.553,-275.8015C63.9391,-296.5491 107.4408,-345.6381 130.7028,-371.8879"/>
<polygon fill="#191970" stroke="#191970" points="128.2349,-374.3802 137.4867,-379.5431 133.4738,-369.7376 128.2349,-374.3802"/>
</g>
<!-- Node439840 -->
<g id="node23" class="node">
<title>Node439840</title>
<g id="a_node23"><a xlink:href="quickjs_8h.html#afaa20c47565bc704c6c85f3d77254e7d" target="_top" xlink:title="JS_FreeValue">
<polygon fill="none" stroke="#ff0000" points="560.5,-104.6499 560.5,-123.6499 638.5,-123.6499 638.5,-104.6499 560.5,-104.6499"/>
<text text-anchor="middle" x="599.5" y="-111.6499" font-family="Helvetica,sans-Serif" font-size="10.00" fill="#000000">JS_FreeValue</text>
</a>
</g>
</g>
<!-- Node439757&#45;&gt;Node439840 -->
<g id="edge52" class="edge">
<title>Node439757&#45;&gt;Node439840</title>
<path fill="none" stroke="#191970" d="M38.7131,-256.4842C45.8083,-217.66 74.2035,-73.9131 110,-48.1499 148.8249,-20.207 92.5913,48.6395 494,-58.1499 525.2465,-66.4626 557.5683,-85.4241 578.0636,-98.9785"/>
<polygon fill="#191970" stroke="#191970" points="576.1017,-101.8769 586.3436,-104.5887 580.0282,-96.0819 576.1017,-101.8769"/>
</g>
<!-- Node440065 -->
<g id="node24" class="node">
<title>Node440065</title>
<g id="a_node24"><a xlink:href="quickjs_8c.html#a9d6d0a9704951d01c128975e0d2213f8" target="_top" xlink:title="JS_HasProperty">
<polygon fill="none" stroke="#ff0000" points="378,-275.6499 378,-294.6499 467,-294.6499 467,-275.6499 378,-275.6499"/>
<text text-anchor="middle" x="422.5" y="-282.6499" font-family="Helvetica,sans-Serif" font-size="10.00" fill="#000000">JS_HasProperty</text>
</a>
</g>
</g>
<!-- Node439757&#45;&gt;Node440065 -->
<g id="edge54" class="edge">
<title>Node439757&#45;&gt;Node440065</title>
<path fill="none" stroke="#191970" d="M74.3136,-267.9889C142.5797,-271.3535 287.8691,-278.5144 367.4929,-282.4387"/>
<polygon fill="#191970" stroke="#191970" points="367.6475,-285.9505 377.8077,-282.9471 367.9921,-278.959 367.6475,-285.9505"/>
</g>
<!-- Node440066 -->
<g id="node25" class="node">
<title>Node440066</title>
<g id="a_node25"><a xlink:href="quickjs_8c.html#ad13892c0a0f11781b566808876658099" target="_top" xlink:title="JS_GetOwnPropertyInternal">
<polygon fill="none" stroke="#ff0000" points="530,-351.6499 530,-370.6499 669,-370.6499 669,-351.6499 530,-351.6499"/>
<text text-anchor="middle" x="599.5" y="-358.6499" font-family="Helvetica,sans-Serif" font-size="10.00" fill="#000000">JS_GetOwnPropertyInternal</text>
</a>
</g>
</g>
<!-- Node439757&#45;&gt;Node440066 -->
<g id="edge53" class="edge">
<title>Node439757&#45;&gt;Node440066</title>
<path fill="none" stroke="#191970" d="M74.1745,-257.4439C154.2064,-240.5324 347.4318,-209.6147 494,-266.1499 534.1963,-281.6546 568.6863,-320.2766 586.5224,-343.2184"/>
<polygon fill="#191970" stroke="#191970" points="583.9034,-345.5585 592.7193,-351.4348 589.4921,-341.3434 583.9034,-345.5585"/>
</g>
<!-- Node439886 -->
<g id="node28" class="node">
<title>Node439886</title>
<g id="a_node28"><a xlink:href="quickjs_8h.html#a4e407128a9605afb77523e49e9a627fd" target="_top" xlink:title="JS_IsUndefined">
<polygon fill="none" stroke="#000000" points="379.5,-161.6499 379.5,-180.6499 465.5,-180.6499 465.5,-161.6499 379.5,-161.6499"/>
<text text-anchor="middle" x="422.5" y="-168.6499" font-family="Helvetica,sans-Serif" font-size="10.00" fill="#000000">JS_IsUndefined</text>
</a>
</g>
</g>
<!-- Node439757&#45;&gt;Node439886 -->
<g id="edge56" class="edge">
<title>Node439757&#45;&gt;Node439886</title>
<path fill="none" stroke="#191970" d="M55.1409,-256.5408C69.6385,-249.2103 90.6629,-239.3485 110,-233.1499 198.8102,-204.681 306.1984,-186.8175 369.1648,-177.9391"/>
<polygon fill="#191970" stroke="#191970" points="369.8326,-181.3801 379.257,-176.5396 368.871,-174.4465 369.8326,-181.3801"/>
</g>
<!-- Node439980 -->
<g id="node29" class="node">
<title>Node439980</title>
<g id="a_node29"><a xlink:href="quickjs_8c.html#a2bf30c9cddfe98a32535843202495069" target="_top" xlink:title="JS_ToBoolFree">
<polygon fill="none" stroke="#000000" points="380.5,-85.6499 380.5,-104.6499 464.5,-104.6499 464.5,-85.6499 380.5,-85.6499"/>
<text text-anchor="middle" x="422.5" y="-92.6499" font-family="Helvetica,sans-Serif" font-size="10.00" fill="#000000">JS_ToBoolFree</text>
</a>
</g>
</g>
<!-- Node439757&#45;&gt;Node439980 -->
<g id="edge57" class="edge">
<title>Node439757&#45;&gt;Node439980</title>
<path fill="none" stroke="#191970" d="M47.6663,-256.333C61.2912,-244.1947 85.9917,-223.5069 110,-210.1499 198.713,-160.7943 312.7627,-125.0384 375.6462,-107.4484"/>
<polygon fill="#191970" stroke="#191970" points="376.5824,-110.8209 385.2876,-104.782 374.7164,-104.0742 376.5824,-110.8209"/>
</g>
<!-- Node440078 -->
<g id="node30" class="node">
<title>Node440078</title>
<g id="a_node30"><a xlink:href="quickjs_8c.html#adfe21c674d998ca6586b7f7400352dc4" target="_top" xlink:title="js_free_desc">
<polygon fill="none" stroke="#000000" points="110,-57.6499 110,-76.6499 182,-76.6499 182,-57.6499 110,-57.6499"/>
<text text-anchor="middle" x="146" y="-64.6499" font-family="Helvetica,sans-Serif" font-size="10.00" fill="#000000">js_free_desc</text>
</a>
</g>
</g>
<!-- Node439757&#45;&gt;Node440078 -->
<g id="edge50" class="edge">
<title>Node439757&#45;&gt;Node440078</title>
<path fill="none" stroke="#191970" d="M42.0131,-256.4508C53.6789,-233.9454 83.6581,-176.4845 110,-129.1499 118.2145,-114.3889 127.8373,-97.8533 135.0664,-85.5734"/>
<polygon fill="#191970" stroke="#191970" points="138.2045,-87.1427 140.2782,-76.7528 132.1779,-83.5818 138.2045,-87.1427"/>
</g>
<!-- Node439759 -->
<g id="node3" class="node">
<title>Node439759</title>
<g id="a_node3"><a xlink:href="quickjs_8c.html#af23ec7c9970ceb4671c59da7abd4b078" target="_top" xlink:title="js_check_stack_overflow">
<polygon fill="none" stroke="#000000" points="359,-807.6499 359,-826.6499 486,-826.6499 486,-807.6499 359,-807.6499"/>
<text text-anchor="middle" x="422.5" y="-814.6499" font-family="Helvetica,sans-Serif" font-size="10.00" fill="#000000">js_check_stack_overflow</text>
</a>
</g>
</g>
<!-- Node439758&#45;&gt;Node439759 -->
<g id="edge2" class="edge">
<title>Node439758&#45;&gt;Node439759</title>
<path fill="none" stroke="#191970" d="M315.0042,-804.0574C325.7268,-805.3634 337.3214,-806.7756 348.7919,-808.1726"/>
<polygon fill="#191970" stroke="#191970" points="348.4652,-811.6586 358.815,-809.3934 349.3116,-804.7099 348.4652,-811.6586"/>
</g>
<!-- Node439758&#45;&gt;Node439761 -->
<g id="edge4" class="edge">
<title>Node439758&#45;&gt;Node439761</title>
<path fill="none" stroke="#191970" d="M282.3121,-807.721C298.7851,-817.0887 325.6787,-830.7183 351,-836.1499 413.142,-849.4797 435.6163,-861.2626 494,-836.1499 515.3713,-826.9574 511.5698,-812.3472 530,-798.1499 541.8934,-788.988 556.2822,-780.7296 568.8752,-774.2703"/>
<polygon fill="#191970" stroke="#191970" points="570.6849,-777.2795 578.084,-769.6963 567.5709,-771.0102 570.6849,-777.2795"/>
</g>
<!-- Node439762 -->
<g id="node6" class="node">
<title>Node439762</title>
<g id="a_node6"><a xlink:href="quickjs_8h.html#a149f24b67e745bad93573b3b4c80db4c" target="_top" xlink:title="JS_IsNull">
<polygon fill="none" stroke="#000000" points="393,-769.6499 393,-788.6499 452,-788.6499 452,-769.6499 393,-769.6499"/>
<text text-anchor="middle" x="422.5" y="-776.6499" font-family="Helvetica,sans-Serif" font-size="10.00" fill="#000000">JS_IsNull</text>
</a>
</g>
</g>
<!-- Node439758&#45;&gt;Node439762 -->
<g id="edge5" class="edge">
<title>Node439758&#45;&gt;Node439762</title>
<path fill="none" stroke="#191970" d="M315.0042,-792.2423C336.7344,-789.5957 362.0464,-786.5128 382.648,-784.0036"/>
<polygon fill="#191970" stroke="#191970" points="383.1431,-787.4693 392.6465,-782.7859 382.2967,-780.5206 383.1431,-787.4693"/>
</g>
<!-- Node439763 -->
<g id="node7" class="node">
<title>Node439763</title>
<g id="a_node7"><a xlink:href="quickjs_8c.html#a8353f635fb8a20553c08db8cf38c17e0" target="_top" xlink:title="JS_ThrowStackOverflow">
<polygon fill="none" stroke="#000000" points="360,-579.6499 360,-598.6499 485,-598.6499 485,-579.6499 360,-579.6499"/>
<text text-anchor="middle" x="422.5" y="-586.6499" font-family="Helvetica,sans-Serif" font-size="10.00" fill="#000000">JS_ThrowStackOverflow</text>
</a>
</g>
</g>
<!-- Node439758&#45;&gt;Node439763 -->
<g id="edge6" class="edge">
<title>Node439758&#45;&gt;Node439763</title>
<path fill="none" stroke="#191970" d="M267.8299,-788.5331C272.6623,-757.3677 292.2121,-658.2753 351,-608.1499 352.9669,-606.4728 355.0665,-604.9419 357.2656,-603.5447"/>
<polygon fill="#191970" stroke="#191970" points="358.9978,-606.5876 366.172,-598.7914 355.7018,-600.4121 358.9978,-606.5876"/>
</g>
<!-- Node439765 -->
<g id="node9" class="node">
<title>Node439765</title>
<g id="a_node9"><a xlink:href="quickjs_8c.html#a199d64ccbee0a90d93e1ad12745417f6" target="_top" xlink:title="JS_ThrowTypeErrorRevoked\lProxy">
<polygon fill="none" stroke="#000000" points="351,-884.1499 351,-914.1499 494,-914.1499 494,-884.1499 351,-884.1499"/>
<text text-anchor="start" x="359" y="-902.1499" font-family="Helvetica,sans-Serif" font-size="10.00" fill="#000000">JS_ThrowTypeErrorRevoked</text>
<text text-anchor="middle" x="422.5" y="-891.1499" font-family="Helvetica,sans-Serif" font-size="10.00" fill="#000000">Proxy</text>
</a>
</g>
</g>
<!-- Node439758&#45;&gt;Node439765 -->
<g id="edge8" class="edge">
<title>Node439758&#45;&gt;Node439765</title>
<path fill="none" stroke="#191970" d="M276.1383,-807.9632C291.0824,-822.76 321.2338,-850.9804 351,-869.1499 357.3196,-873.0074 364.224,-876.5921 371.1703,-879.8432"/>
<polygon fill="#191970" stroke="#191970" points="370.0594,-883.1803 380.6174,-884.064 372.9149,-876.7891 370.0594,-883.1803"/>
</g>
<!-- Node439760 -->
<g id="node4" class="node">
<title>Node439760</title>
<g id="a_node4"><a xlink:href="quickjs_8c.html#acad70023f36797496683e579a4d60461" target="_top" xlink:title="js_get_stack_pointer">
<polygon fill="none" stroke="#000000" points="546,-807.6499 546,-826.6499 653,-826.6499 653,-807.6499 546,-807.6499"/>
<text text-anchor="middle" x="599.5" y="-814.6499" font-family="Helvetica,sans-Serif" font-size="10.00" fill="#000000">js_get_stack_pointer</text>
</a>
</g>
</g>
<!-- Node439759&#45;&gt;Node439760 -->
<g id="edge3" class="edge">
<title>Node439759&#45;&gt;Node439760</title>
<path fill="none" stroke="#191970" d="M486.4011,-817.1499C502.4033,-817.1499 519.571,-817.1499 535.5744,-817.1499"/>
<polygon fill="#191970" stroke="#191970" points="535.8988,-820.65 545.8988,-817.1499 535.8988,-813.65 535.8988,-820.65"/>
</g>
<!-- Node439764 -->
<g id="node8" class="node">
<title>Node439764</title>
<g id="a_node8"><a xlink:href="quickjs_8c.html#a853f0924d441ea4225488f37c8b69f9a" target="_top" xlink:title="__attribute__">
<polygon fill="none" stroke="#000000" points="563,-541.6499 563,-560.6499 636,-560.6499 636,-541.6499 563,-541.6499"/>
<text text-anchor="middle" x="599.5" y="-548.6499" font-family="Helvetica,sans-Serif" font-size="10.00" fill="#000000">__attribute__</text>
</a>
</g>
</g>
<!-- Node439763&#45;&gt;Node439764 -->
<g id="edge7" class="edge">
<title>Node439763&#45;&gt;Node439764</title>
<path fill="none" stroke="#191970" d="M467.1646,-579.5609C493.4088,-573.9265 526.5335,-566.815 553.0767,-561.1165"/>
<polygon fill="#191970" stroke="#191970" points="553.8568,-564.5288 562.8993,-559.0076 552.3874,-557.6848 553.8568,-564.5288"/>
</g>
<!-- Node439767 -->
<g id="node11" class="node">
<title>Node439767</title>
<g id="a_node11"><a xlink:href="quickjs_8c.html#a06ff303a11e6641cbf1f6634e6a61811" target="_top" xlink:title="__JS_AtomToValue">
<polygon fill="none" stroke="#000000" points="547.5,-579.6499 547.5,-598.6499 651.5,-598.6499 651.5,-579.6499 547.5,-579.6499"/>
<text text-anchor="middle" x="599.5" y="-586.6499" font-family="Helvetica,sans-Serif" font-size="10.00" fill="#000000">__JS_AtomToValue</text>
</a>
</g>
</g>
<!-- Node439766&#45;&gt;Node439767 -->
<g id="edge10" class="edge">
<title>Node439766&#45;&gt;Node439767</title>
<path fill="none" stroke="#191970" d="M467.1646,-617.5609C490.8373,-612.4786 520.1082,-606.1944 545.0974,-600.8295"/>
<polygon fill="#191970" stroke="#191970" points="546.1141,-604.1911 555.1566,-598.6699 544.6447,-597.347 546.1141,-604.1911"/>
</g>
<!-- Node439768 -->
<g id="node12" class="node">
<title>Node439768</title>
<g id="a_node12"><a xlink:href="quickjs_8c.html#a288254c06a39c9fca740a7abdad2834e" target="_top" xlink:title="__JS_AtomIsTaggedInt">
<polygon fill="none" stroke="#000000" points="735.5,-389.6499 735.5,-408.6499 854.5,-408.6499 854.5,-389.6499 735.5,-389.6499"/>
<text text-anchor="middle" x="795" y="-396.6499" font-family="Helvetica,sans-Serif" font-size="10.00" fill="#000000">__JS_AtomIsTaggedInt</text>
</a>
</g>
</g>
<!-- Node439767&#45;&gt;Node439768 -->
<g id="edge11" class="edge">
<title>Node439767&#45;&gt;Node439768</title>
<path fill="none" stroke="#191970" d="M651.5652,-581.7035C658.0688,-578.93 664.1325,-575.1873 669,-570.1499 717.2413,-520.2246 655.3118,-466.6353 705,-418.1499 710.8505,-412.441 717.9596,-408.2555 725.5901,-405.2124"/>
<polygon fill="#191970" stroke="#191970" points="726.7259,-408.5232 735.1067,-402.0414 724.513,-401.8821 726.7259,-408.5232"/>
</g>
<!-- Node439769 -->
<g id="node13" class="node">
<title>Node439769</title>
<g id="a_node13"><a xlink:href="quickjs_8c.html#a89f38938cee8077ce1fbba07946ed185" target="_top" xlink:title="__JS_AtomToUInt32">
<polygon fill="none" stroke="#000000" points="741,-427.6499 741,-446.6499 849,-446.6499 849,-427.6499 741,-427.6499"/>
<text text-anchor="middle" x="795" y="-434.6499" font-family="Helvetica,sans-Serif" font-size="10.00" fill="#000000">__JS_AtomToUInt32</text>
</a>
</g>
</g>
<!-- Node439767&#45;&gt;Node439769 -->
<g id="edge12" class="edge">
<title>Node439767&#45;&gt;Node439769</title>
<path fill="none" stroke="#191970" d="M651.5838,-581.2237C658.0053,-578.5156 664.0413,-574.9188 669,-570.1499 707.2964,-533.3193 665.6374,-491.8387 705,-456.1499 712.3646,-449.4726 721.4691,-444.9193 731.032,-441.8517"/>
<polygon fill="#191970" stroke="#191970" points="731.9499,-445.2293 740.7002,-439.2558 730.1347,-438.4688 731.9499,-445.2293"/>
</g>
<!-- Node439770 -->
<g id="node14" class="node">
<title>Node439770</title>
<g id="a_node14"><a xlink:href="quickjs_8h.html#a775522f2d084fc8fa0fcb33f390006b4" target="_top" xlink:title="JS_DupValue">
<polygon fill="none" stroke="#000000" points="756.5,-465.6499 756.5,-484.6499 833.5,-484.6499 833.5,-465.6499 756.5,-465.6499"/>
<text text-anchor="middle" x="795" y="-472.6499" font-family="Helvetica,sans-Serif" font-size="10.00" fill="#000000">JS_DupValue</text>
</a>
</g>
</g>
<!-- Node439767&#45;&gt;Node439770 -->
<g id="edge13" class="edge">
<title>Node439767&#45;&gt;Node439770</title>
<path fill="none" stroke="#191970" d="M644.1731,-579.6363C652.6325,-577.0879 661.2526,-573.9541 669,-570.1499 711.708,-549.1788 754.4589,-512.9393 777.5387,-491.7993"/>
<polygon fill="#191970" stroke="#191970" points="780.1779,-494.1244 785.1153,-484.7503 775.4098,-488.9994 780.1779,-494.1244"/>
</g>
<!-- Node439771 -->
<g id="node15" class="node">
<title>Node439771</title>
<g id="a_node15"><a xlink:href="quickjs_8c.html#a0ee6a3654a6016393fac5e1c108f403a" target="_top" xlink:title="JS_NewString">
<polygon fill="none" stroke="#ff0000" points="755,-617.6499 755,-636.6499 835,-636.6499 835,-617.6499 755,-617.6499"/>
<text text-anchor="middle" x="795" y="-624.6499" font-family="Helvetica,sans-Serif" font-size="10.00" fill="#000000">JS_NewString</text>
</a>
</g>
</g>
<!-- Node439767&#45;&gt;Node439771 -->
<g id="edge14" class="edge">
<title>Node439767&#45;&gt;Node439771</title>
<path fill="none" stroke="#191970" d="M648.5806,-598.6898C677.9222,-604.393 715.1186,-611.623 744.6779,-617.3686"/>
<polygon fill="#191970" stroke="#191970" points="744.3053,-620.8616 754.7894,-619.334 745.641,-613.9902 744.3053,-620.8616"/>
</g>
<!-- Node439795 -->
<g id="node17" class="node">
<title>Node439795</title>
<g id="a_node17"><a xlink:href="quickjs_8c.html#ac2894ff4edcdb4e6841bcce9c76081e3" target="_top" xlink:title="JS_CallInternal">
<polygon fill="none" stroke="#ff0000" points="225,-446.6499 225,-465.6499 308,-465.6499 308,-446.6499 225,-446.6499"/>
<text text-anchor="middle" x="266.5" y="-453.6499" font-family="Helvetica,sans-Serif" font-size="10.00" fill="#000000">JS_CallInternal</text>
</a>
</g>
</g>
<!-- Node439794&#45;&gt;Node439795 -->
<g id="edge16" class="edge">
<title>Node439794&#45;&gt;Node439795</title>
<path fill="none" stroke="#191970" d="M173.6451,-398.7401C196.4391,-409.9075 228.1427,-427.7851 247.9815,-440.8218"/>
<polygon fill="#191970" stroke="#191970" points="246.2028,-443.8457 256.4319,-446.6056 250.1566,-438.0692 246.2028,-443.8457"/>
</g>
<!-- Node439794&#45;&gt;Node439840 -->
<g id="edge49" class="edge">
<title>Node439794&#45;&gt;Node439840</title>
<path fill="none" stroke="#191970" d="M150.9392,-379.5916C170.4838,-342.8513 246.4751,-209.8924 351,-152.1499 384.3831,-133.7081 488.0049,-122.7357 550.4028,-117.6294"/>
<polygon fill="#191970" stroke="#191970" points="550.7311,-121.1144 560.4214,-116.8308 550.1749,-114.1365 550.7311,-121.1144"/>
</g>
<!-- Node439795&#45;&gt;Node439759 -->
<g id="edge29" class="edge">
<title>Node439795&#45;&gt;Node439759</title>
<path fill="none" stroke="#191970" d="M267.5577,-465.744C273.2836,-515.9924 302.1319,-748.4186 351,-798.1499 352.4179,-799.5928 353.9319,-800.93 355.5249,-802.1692"/>
<polygon fill="#191970" stroke="#191970" points="353.748,-805.1867 364.0684,-807.5826 357.4946,-799.2738 353.748,-805.1867"/>
</g>
<!-- Node439795&#45;&gt;Node439761 -->
<g id="edge41" class="edge">
<title>Node439795&#45;&gt;Node439761</title>
<path fill="none" stroke="#191970" d="M268.1975,-465.9262C275.9935,-509.676 309.7551,-686.8793 351,-722.1499 379.514,-746.5336 481.8121,-755.3048 545.927,-758.4361"/>
<polygon fill="#191970" stroke="#191970" points="546.1111,-761.9481 556.2605,-758.9084 546.4308,-754.9554 546.1111,-761.9481"/>
</g>
<!-- Node439795&#45;&gt;Node439762 -->
<g id="edge42" class="edge">
<title>Node439795&#45;&gt;Node439762</title>
<path fill="none" stroke="#191970" d="M267.9771,-465.6877C275.2897,-511.7782 308.954,-711.0171 351,-755.1499 359.538,-764.1116 371.5198,-769.7274 383.2379,-773.2463"/>
<polygon fill="#191970" stroke="#191970" points="382.3815,-776.6399 392.9377,-775.7364 384.1222,-769.8597 382.3815,-776.6399"/>
</g>
<!-- Node439795&#45;&gt;Node439763 -->
<g id="edge46" class="edge">
<title>Node439795&#45;&gt;Node439763</title>
<path fill="none" stroke="#191970" d="M271.4244,-465.8511C282.6409,-486.998 312.1534,-537.5577 351,-565.1499 357.0181,-569.4244 363.853,-572.9802 370.8531,-575.9265"/>
<polygon fill="#191970" stroke="#191970" points="369.849,-579.2892 380.4399,-579.5766 372.3398,-572.7473 369.849,-579.2892"/>
</g>
<!-- Node439795&#45;&gt;Node439764 -->
<g id="edge17" class="edge">
<title>Node439795&#45;&gt;Node439764</title>
<path fill="none" stroke="#191970" d="M273.5811,-465.7584C286.6829,-482.6801 316.5353,-517.3994 351,-532.1499 416.6834,-560.2616 501.0204,-560.0132 552.62,-556.2943"/>
<polygon fill="#191970" stroke="#191970" points="553.1107,-559.7664 562.8017,-555.4844 552.5556,-552.7885 553.1107,-559.7664"/>
</g>
<!-- Node439795&#45;&gt;Node439766 -->
<g id="edge26" class="edge">
<title>Node439795&#45;&gt;Node439766</title>
<path fill="none" stroke="#191970" d="M270.7038,-465.9025C283.9796,-496.2875 325.6289,-588.3951 351,-608.1499 355.6095,-611.739 360.8381,-614.6525 366.3204,-617.0172"/>
<polygon fill="#191970" stroke="#191970" points="365.1284,-620.308 375.7215,-620.501 367.5608,-613.7442 365.1284,-620.308"/>
</g>
<!-- Node439795&#45;&gt;Node439770 -->
<g id="edge30" class="edge">
<title>Node439795&#45;&gt;Node439770</title>
<path fill="none" stroke="#191970" d="M308.4123,-457.6566C405.0695,-461.1316 643.184,-469.692 746.1998,-473.3955"/>
<polygon fill="#191970" stroke="#191970" points="746.2049,-476.8978 756.3243,-473.7594 746.4565,-469.9023 746.2049,-476.8978"/>
</g>
<!-- Node439795&#45;&gt;Node439794 -->
<g id="edge27" class="edge">
<title>Node439795&#45;&gt;Node439794</title>
<path fill="none" stroke="#191970" d="M238.8123,-446.5388C216.1059,-435.4114 184.5795,-417.6388 164.7393,-404.6229"/>
<polygon fill="#191970" stroke="#191970" points="166.5058,-401.591 156.2738,-398.842 162.5583,-407.3717 166.5058,-401.591"/>
</g>
<!-- Node439795&#45;&gt;Node439795 -->
<g id="edge28" class="edge">
<title>Node439795&#45;&gt;Node439795</title>
<path fill="none" stroke="#191970" d="M248.0045,-465.9069C239.0067,-474.7151 245.1719,-484.1499 266.5,-484.1499 280.1633,-484.1499 287.6038,-480.2778 288.8213,-475.179"/>
<polygon fill="#191970" stroke="#191970" points="292.0452,-473.8159 284.9955,-465.9069 285.5744,-476.4859 292.0452,-473.8159"/>
</g>
<!-- Node439796 -->
<g id="node18" class="node">
<title>Node439796</title>
<g id="a_node18"><a xlink:href="quickjs_8c.html#a877fcb7651d95b411ce70e62b7f4a1f0" target="_top" xlink:title="__JS_AtomFromUInt32">
<polygon fill="none" stroke="#000000" points="363,-427.6499 363,-446.6499 482,-446.6499 482,-427.6499 363,-427.6499"/>
<text text-anchor="middle" x="422.5" y="-434.6499" font-family="Helvetica,sans-Serif" font-size="10.00" fill="#000000">__JS_AtomFromUInt32</text>
</a>
</g>
</g>
<!-- Node439795&#45;&gt;Node439796 -->
<g id="edge18" class="edge">
<title>Node439795&#45;&gt;Node439796</title>
<path fill="none" stroke="#191970" d="M308.3051,-451.0582C322.0756,-449.381 337.78,-447.4683 353.0428,-445.6094"/>
<polygon fill="#191970" stroke="#191970" points="353.4807,-449.082 362.9841,-444.3986 352.6343,-442.1334 353.4807,-449.082"/>
</g>
<!-- Node439797 -->
<g id="node19" class="node">
<title>Node439797</title>
<g id="a_node19"><a xlink:href="quickjs_8h.html#a9bf98b18de88b4199910a43e933eb97d" target="_top" xlink:title="__JS_NewFloat64">
<polygon fill="none" stroke="#000000" points="374,-389.6499 374,-408.6499 471,-408.6499 471,-389.6499 374,-389.6499"/>
<text text-anchor="middle" x="422.5" y="-396.6499" font-family="Helvetica,sans-Serif" font-size="10.00" fill="#000000">__JS_NewFloat64</text>
</a>
</g>
</g>
<!-- Node439795&#45;&gt;Node439797 -->
<g id="edge19" class="edge">
<title>Node439795&#45;&gt;Node439797</title>
<path fill="none" stroke="#191970" d="M285.2665,-446.6445C302.1549,-438.3493 327.808,-426.3843 351,-418.1499 357.8235,-415.7272 365.109,-413.4501 372.3223,-411.372"/>
<polygon fill="#191970" stroke="#191970" points="373.3648,-414.715 382.0635,-408.6666 371.4916,-407.9703 373.3648,-414.715"/>
</g>
<!-- Node439798 -->
<g id="node20" class="node">
<title>Node439798</title>
<g id="a_node20"><a xlink:href="quickjs_8c.html#a74547db03bf739a52c83a326b32db997" target="_top" xlink:title="add_property">
<polygon fill="none" stroke="#ff0000" points="386,-503.6499 386,-522.6499 459,-522.6499 459,-503.6499 386,-503.6499"/>
<text text-anchor="middle" x="422.5" y="-510.6499" font-family="Helvetica,sans-Serif" font-size="10.00" fill="#000000">add_property</text>
</a>
</g>
</g>
<!-- Node439795&#45;&gt;Node439798 -->
<g id="edge20" class="edge">
<title>Node439795&#45;&gt;Node439798</title>
<path fill="none" stroke="#191970" d="M290.0591,-465.7038C306.945,-472.4648 330.2735,-481.6291 351,-489.1499 361.3536,-492.9068 372.6228,-496.7859 383.0881,-500.3014"/>
<polygon fill="#191970" stroke="#191970" points="382.2256,-503.7032 392.8193,-503.5447 384.439,-497.0623 382.2256,-503.7032"/>
</g>
<!-- Node439848 -->
<g id="node21" class="node">
<title>Node439848</title>
<g id="a_node21"><a xlink:href="quickjs_8c.html#a4956f45ffd2849b96dc051277264f87a" target="_top" xlink:title="build_arg_list">
<polygon fill="none" stroke="#ff0000" points="385.5,-693.6499 385.5,-712.6499 459.5,-712.6499 459.5,-693.6499 385.5,-693.6499"/>
<text text-anchor="middle" x="422.5" y="-700.6499" font-family="Helvetica,sans-Serif" font-size="10.00" fill="#000000">build_arg_list</text>
</a>
</g>
</g>
<!-- Node439795&#45;&gt;Node439848 -->
<g id="edge21" class="edge">
<title>Node439795&#45;&gt;Node439848</title>
<path fill="none" stroke="#191970" d="M267.2787,-465.762C270.5613,-499.9384 286.2659,-616.8525 351,-679.1499 357.9322,-685.8211 366.7752,-690.64 375.8611,-694.1202"/>
<polygon fill="#191970" stroke="#191970" points="374.7538,-697.4403 385.3475,-697.2838 376.9684,-690.7999 374.7538,-697.4403"/>
</g>
<!-- Node439921 -->
<g id="node22" class="node">
<title>Node439921</title>
<g id="a_node22"><a xlink:href="quickjs_8c.html#a61c8dfb5e807af1b6ff7d8ca61576dda" target="_top" xlink:title="build_backtrace">
<polygon fill="none" stroke="#ff0000" points="557,-655.6499 557,-674.6499 642,-674.6499 642,-655.6499 557,-655.6499"/>
<text text-anchor="middle" x="599.5" y="-662.6499" font-family="Helvetica,sans-Serif" font-size="10.00" fill="#000000">build_backtrace</text>
</a>
</g>
</g>
<!-- Node439795&#45;&gt;Node439921 -->
<g id="edge24" class="edge">
<title>Node439795&#45;&gt;Node439921</title>
<path fill="none" stroke="#191970" d="M267.4274,-465.7667C271.0827,-497.8053 287.5735,-601.4109 351,-646.1499 408.2986,-686.5664 492.6344,-683.427 546.8156,-675.6801"/>
<polygon fill="#191970" stroke="#191970" points="547.5456,-679.1092 556.9003,-674.1353 546.4856,-672.1899 547.5456,-679.1092"/>
</g>
<!-- Node439795&#45;&gt;Node439840 -->
<g id="edge31" class="edge">
<title>Node439795&#45;&gt;Node439840</title>
<path fill="none" stroke="#191970" d="M270.3396,-446.5477C285.0257,-409.9645 337.4909,-280.6399 351,-266.1499 400.0802,-213.506 432.882,-228.1609 494,-190.1499 524.694,-171.0603 558.2659,-146.1175 579.1069,-130.1121"/>
<polygon fill="#191970" stroke="#191970" points="581.4442,-132.7291 587.2138,-123.843 577.1621,-127.1917 581.4442,-132.7291"/>
</g>
<!-- Node439795&#45;&gt;Node440065 -->
<g id="edge32" class="edge">
<title>Node439795&#45;&gt;Node440065</title>
<path fill="none" stroke="#191970" d="M269.422,-446.2996C277.7092,-420.0464 303.8681,-347.7705 351,-309.1499 356.2396,-304.8564 362.2815,-301.3182 368.5875,-298.4052"/>
<polygon fill="#191970" stroke="#191970" points="370.0253,-301.5985 377.9527,-294.5695 367.3722,-295.1208 370.0253,-301.5985"/>
</g>
<!-- Node439909 -->
<g id="node26" class="node">
<title>Node439909</title>
<g id="a_node26"><a xlink:href="quickjs_8h.html#aaab426b47c95d00479b7355b1cf7f56c" target="_top" xlink:title="JS_IsUninitialized">
<polygon fill="none" stroke="#000000" points="747.5,-351.6499 747.5,-370.6499 842.5,-370.6499 842.5,-351.6499 747.5,-351.6499"/>
<text text-anchor="middle" x="795" y="-358.6499" font-family="Helvetica,sans-Serif" font-size="10.00" fill="#000000">JS_IsUninitialized</text>
</a>
</g>
</g>
<!-- Node439795&#45;&gt;Node439909 -->
<g id="edge44" class="edge">
<title>Node439795&#45;&gt;Node439909</title>
<path fill="none" stroke="#191970" d="M273.2711,-446.5493C286.0944,-429.309 315.8135,-393.6456 351,-380.1499 351,-380.1499 669,-380.1499 669,-380.1499 691.4723,-378.465 716.0111,-375.1126 737.4135,-371.6865"/>
<polygon fill="#191970" stroke="#191970" points="738.0244,-375.1332 747.3254,-370.0595 736.8905,-368.2256 738.0244,-375.1332"/>
</g>
<!-- Node439916 -->
<g id="node27" class="node">
<title>Node439916</title>
<g id="a_node27"><a xlink:href="quickjs_8c.html#a75ac132a3af4de01e1fadeb0bede6ee7" target="_top" xlink:title="JS_ThrowReferenceErrorUninitialized">
<polygon fill="none" stroke="#ff0000" points="705,-313.6499 705,-332.6499 885,-332.6499 885,-313.6499 705,-313.6499"/>
<text text-anchor="middle" x="795" y="-320.6499" font-family="Helvetica,sans-Serif" font-size="10.00" fill="#000000">JS_ThrowReferenceErrorUninitialized</text>
</a>
</g>
</g>
<!-- Node439795&#45;&gt;Node439916 -->
<g id="edge45" class="edge">
<title>Node439795&#45;&gt;Node439916</title>
<path fill="none" stroke="#191970" d="M273.6396,-446.4254C286.8342,-429.2313 316.8287,-393.6317 351,-376.1499 459.0245,-320.8853 600.6557,-313.3481 694.585,-315.859"/>
<polygon fill="#191970" stroke="#191970" points="694.5548,-319.3597 704.6586,-316.1717 694.772,-312.3631 694.5548,-319.3597"/>
</g>
<!-- Node439795&#45;&gt;Node439886 -->
<g id="edge43" class="edge">
<title>Node439795&#45;&gt;Node439886</title>
<path fill="none" stroke="#191970" d="M270.993,-446.4489C280.1683,-426.3771 301.3425,-378.6893 315,-337.1499 335.3354,-275.2994 306.7336,-242.8939 351,-195.1499 356.1412,-189.6048 362.6013,-185.3402 369.5238,-182.0605"/>
<polygon fill="#191970" stroke="#191970" points="371.2042,-185.1568 379.1696,-178.1709 368.5863,-178.6647 371.2042,-185.1568"/>
</g>
<!-- Node439795&#45;&gt;Node439980 -->
<g id="edge47" class="edge">
<title>Node439795&#45;&gt;Node439980</title>
<path fill="none" stroke="#191970" d="M267.0429,-446.5881C269.6971,-407.009 284.0556,-253.3457 351,-152.1499 362.4952,-134.7733 380.996,-120.2324 396.2982,-110.1867"/>
<polygon fill="#191970" stroke="#191970" points="398.2576,-113.0891 404.8611,-104.8039 394.5322,-107.1628 398.2576,-113.0891"/>
</g>
<!-- Node439848&#45;&gt;Node439761 -->
<g id="edge23" class="edge">
<title>Node439848&#45;&gt;Node439761</title>
<path fill="none" stroke="#191970" d="M452.1258,-712.6904C481.7359,-722.2258 527.4379,-736.9434 560.094,-747.4598"/>
<polygon fill="#191970" stroke="#191970" points="559.186,-750.8444 569.7775,-750.5782 561.3318,-744.1813 559.186,-750.8444"/>
</g>
<!-- Node439848&#45;&gt;Node439770 -->
<g id="edge22" class="edge">
<title>Node439848&#45;&gt;Node439770</title>
<path fill="none" stroke="#191970" d="M438.0044,-693.5188C458.4459,-681.1553 495.8275,-659.688 530,-646.1499 589.5424,-622.561 614.0564,-641.0578 669,-608.1499 719.4755,-577.9181 762.7932,-521.9339 782.9429,-493.1983"/>
<polygon fill="#191970" stroke="#191970" points="785.8711,-495.1169 788.6506,-484.8932 780.1021,-491.1522 785.8711,-495.1169"/>
</g>
<!-- Node439921&#45;&gt;Node439771 -->
<g id="edge25" class="edge">
<title>Node439921&#45;&gt;Node439771</title>
<path fill="none" stroke="#191970" d="M642.4033,-656.8106C672.6274,-650.9358 713.1948,-643.0506 744.9045,-636.8871"/>
<polygon fill="#191970" stroke="#191970" points="745.7159,-640.295 754.8643,-634.9512 744.3802,-633.4236 745.7159,-640.295"/>
</g>
<!-- Node440065&#45;&gt;Node439770 -->
<g id="edge33" class="edge">
<title>Node440065&#45;&gt;Node439770</title>
<path fill="none" stroke="#191970" d="M431.4587,-294.8895C448.9393,-313.4522 489.4455,-354.3425 530,-380.1499 601.5389,-425.6746 624.2173,-430.3724 705,-456.1499 718.2145,-460.3665 732.8226,-463.9091 746.3574,-466.7496"/>
<polygon fill="#191970" stroke="#191970" points="745.9632,-470.2404 756.4575,-468.7844 747.3457,-463.3783 745.9632,-470.2404"/>
</g>
<!-- Node440065&#45;&gt;Node439840 -->
<g id="edge34" class="edge">
<title>Node440065&#45;&gt;Node439840</title>
<path fill="none" stroke="#191970" d="M434.1652,-275.5716C448.5494,-263.6399 473.5974,-242.4654 494,-223.1499 527.0687,-191.8431 563.5959,-153.1009 583.8236,-131.2499"/>
<polygon fill="#191970" stroke="#191970" points="586.5306,-133.4772 590.7367,-123.753 581.3846,-128.7318 586.5306,-133.4772"/>
</g>
<!-- Node440065&#45;&gt;Node440066 -->
<g id="edge35" class="edge">
<title>Node440065&#45;&gt;Node440066</title>
<path fill="none" stroke="#191970" d="M444.9172,-294.7753C476.038,-308.1379 532.4881,-332.3764 567.8796,-347.5727"/>
<polygon fill="#191970" stroke="#191970" points="566.6951,-350.8731 577.2648,-351.6026 569.457,-344.441 566.6951,-350.8731"/>
</g>
<!-- Node440066&#45;&gt;Node439768 -->
<g id="edge36" class="edge">
<title>Node440066&#45;&gt;Node439768</title>
<path fill="none" stroke="#191970" d="M648.5806,-370.6898C675.0741,-375.8395 707.9717,-382.2339 735.8688,-387.6563"/>
<polygon fill="#191970" stroke="#191970" points="735.4151,-391.1336 745.8992,-389.606 736.7508,-384.2622 735.4151,-391.1336"/>
</g>
<!-- Node440066&#45;&gt;Node439769 -->
<g id="edge37" class="edge">
<title>Node440066&#45;&gt;Node439769</title>
<path fill="none" stroke="#191970" d="M613.8916,-370.6721C633.6364,-383.3194 670.6026,-405.5274 705,-418.1499 713.2783,-421.1877 722.1727,-423.799 731.0323,-426.0264"/>
<polygon fill="#191970" stroke="#191970" points="730.4483,-429.4848 740.9855,-428.3805 732.0595,-422.6728 730.4483,-429.4848"/>
</g>
<!-- Node440066&#45;&gt;Node439770 -->
<g id="edge38" class="edge">
<title>Node440066&#45;&gt;Node439770</title>
<path fill="none" stroke="#191970" d="M610.375,-370.77C624.0896,-382.9205 648.3722,-404.4961 669,-423.1499 685.0988,-437.708 685.6978,-446.2233 705,-456.1499 717.6848,-462.6733 732.4742,-466.9576 746.3554,-469.7711"/>
<polygon fill="#191970" stroke="#191970" points="745.7949,-473.2265 756.2595,-471.5708 747.0464,-466.3393 745.7949,-473.2265"/>
</g>
<!-- Node440066&#45;&gt;Node439909 -->
<g id="edge39" class="edge">
<title>Node440066&#45;&gt;Node439909</title>
<path fill="none" stroke="#191970" d="M669.252,-361.1499C691.492,-361.1499 715.8437,-361.1499 737.1445,-361.1499"/>
<polygon fill="#191970" stroke="#191970" points="737.3336,-364.65 747.3336,-361.1499 737.3335,-357.65 737.3336,-364.65"/>
</g>
<!-- Node440066&#45;&gt;Node439916 -->
<g id="edge40" class="edge">
<title>Node440066&#45;&gt;Node439916</title>
<path fill="none" stroke="#191970" d="M648.5806,-351.6099C675.0741,-346.4603 707.9717,-340.0658 735.8688,-334.6434"/>
<polygon fill="#191970" stroke="#191970" points="736.7508,-338.0376 745.8992,-332.6937 735.4151,-331.1661 736.7508,-338.0376"/>
</g>
<!-- Node439980&#45;&gt;Node439840 -->
<g id="edge48" class="edge">
<title>Node439980&#45;&gt;Node439840</title>
<path fill="none" stroke="#191970" d="M464.8959,-99.7008C490.6512,-102.4655 523.6341,-106.0061 550.5041,-108.8904"/>
<polygon fill="#191970" stroke="#191970" points="550.1587,-112.3734 560.4752,-109.9608 550.9059,-105.4133 550.1587,-112.3734"/>
</g>
<!-- Node440078&#45;&gt;Node439840 -->
<g id="edge51" class="edge">
<title>Node440078&#45;&gt;Node439840</title>
<path fill="none" stroke="#191970" d="M182.2179,-64.3243C245.9186,-60.1862 381.8886,-55.0777 494,-76.1499 520.4272,-81.1171 549.0494,-91.7865 569.8047,-100.5589"/>
<polygon fill="#191970" stroke="#191970" points="568.4663,-103.7934 579.0338,-104.5538 571.247,-97.3694 568.4663,-103.7934"/>
</g>
</g>
</svg>
