<?xml version="1.0" encoding="UTF-8" standalone="no"?>
<!DOCTYPE svg PUBLIC "-//W3C//DTD SVG 1.1//EN"
 "http://www.w3.org/Graphics/SVG/1.1/DTD/svg11.dtd">
<!-- Generated by graphviz version 2.40.1 (20161225.0304)
 -->
<!-- Title: JS_NewCFunction Pages: 1 -->
<svg width="554pt" height="218pt"
 viewBox="0.00 0.00 554.00 218.00" xmlns="http://www.w3.org/2000/svg" xmlns:xlink="http://www.w3.org/1999/xlink">
<g id="graph0" class="graph" transform="scale(1 1) rotate(0) translate(4 214)">
<title>JS_NewCFunction</title>
<!-- Node85275 -->
<g id="node1" class="node">
<title>Node85275</title>
<polygon fill="#bfbfbf" stroke="#000000" points="0,-95.5 0,-114.5 99,-114.5 99,-95.5 0,-95.5"/>
<text text-anchor="middle" x="49.5" y="-102.5" font-family="Helvetica,sans-Serif" font-size="10.00" fill="#000000">JS_NewCFunction</text>
</g>
<!-- Node85276 -->
<g id="node2" class="node">
<title>Node85276</title>
<g id="a_node2"><a xlink:href="quickjs_8c.html#a76d4772691a319f48dc636a0e7f6c1ed" target="_top" xlink:title="JS_NewCFunction2">
<polygon fill="none" stroke="#000000" points="135,-95.5 135,-114.5 239,-114.5 239,-95.5 135,-95.5"/>
<text text-anchor="middle" x="187" y="-102.5" font-family="Helvetica,sans-Serif" font-size="10.00" fill="#000000">JS_NewCFunction2</text>
</a>
</g>
</g>
<!-- Node85275&#45;&gt;Node85276 -->
<g id="edge1" class="edge">
<title>Node85275&#45;&gt;Node85276</title>
<path fill="none" stroke="#191970" d="M99.1407,-105C107.3439,-105 115.9414,-105 124.4132,-105"/>
<polygon fill="#191970" stroke="#191970" points="124.6495,-108.5001 134.6494,-105 124.6494,-101.5001 124.6495,-108.5001"/>
</g>
<!-- Node85277 -->
<g id="node3" class="node">
<title>Node85277</title>
<g id="a_node3"><a xlink:href="quickjs_8c.html#a21cfe4c4fc9372dc0b95b37667cff0c9" target="_top" xlink:title="JS_NewCFunction3">
<polygon fill="none" stroke="#000000" points="275,-95.5 275,-114.5 379,-114.5 379,-95.5 275,-95.5"/>
<text text-anchor="middle" x="327" y="-102.5" font-family="Helvetica,sans-Serif" font-size="10.00" fill="#000000">JS_NewCFunction3</text>
</a>
</g>
</g>
<!-- Node85276&#45;&gt;Node85277 -->
<g id="edge2" class="edge">
<title>Node85276&#45;&gt;Node85277</title>
<path fill="none" stroke="#191970" d="M239.1308,-105C247.4213,-105 256.0702,-105 264.5685,-105"/>
<polygon fill="#191970" stroke="#191970" points="264.8257,-108.5001 274.8256,-105 264.8256,-101.5001 264.8257,-108.5001"/>
</g>
<!-- Node85278 -->
<g id="node4" class="node">
<title>Node85278</title>
<g id="a_node4"><a xlink:href="quickjs_8c.html#a2814982d965920b44b14bef36ba18bba" target="_top" xlink:title="JS_DupContext">
<polygon fill="none" stroke="#000000" points="437.5,-190.5 437.5,-209.5 523.5,-209.5 523.5,-190.5 437.5,-190.5"/>
<text text-anchor="middle" x="480.5" y="-197.5" font-family="Helvetica,sans-Serif" font-size="10.00" fill="#000000">JS_DupContext</text>
</a>
</g>
</g>
<!-- Node85277&#45;&gt;Node85278 -->
<g id="edge3" class="edge">
<title>Node85277&#45;&gt;Node85278</title>
<path fill="none" stroke="#191970" d="M335.5022,-114.6622C350.1606,-130.7391 381.824,-162.9902 415,-181 419.0307,-183.1881 423.3411,-185.149 427.7544,-186.9014"/>
<polygon fill="#191970" stroke="#191970" points="426.9171,-190.3197 437.5115,-190.4119 429.2869,-183.733 426.9171,-190.3197"/>
</g>
<!-- Node85279 -->
<g id="node5" class="node">
<title>Node85279</title>
<g id="a_node5"><a xlink:href="quickjs_8c.html#ab7fc45a99935a1c0ba50b0216d9401a9" target="_top" xlink:title="JS_FreeAtom">
<polygon fill="none" stroke="#ff0000" points="442,-152.5 442,-171.5 519,-171.5 519,-152.5 442,-152.5"/>
<text text-anchor="middle" x="480.5" y="-159.5" font-family="Helvetica,sans-Serif" font-size="10.00" fill="#000000">JS_FreeAtom</text>
</a>
</g>
</g>
<!-- Node85277&#45;&gt;Node85279 -->
<g id="edge4" class="edge">
<title>Node85277&#45;&gt;Node85279</title>
<path fill="none" stroke="#191970" d="M347.3335,-114.6453C364.9848,-122.8083 391.3521,-134.5021 415,-143 421.3635,-145.2867 428.1475,-147.4988 434.8477,-149.5556"/>
<polygon fill="#191970" stroke="#191970" points="433.9624,-152.9438 444.5456,-152.4487 435.9635,-146.236 433.9624,-152.9438"/>
</g>
<!-- Node85285 -->
<g id="node6" class="node">
<title>Node85285</title>
<g id="a_node6"><a xlink:href="quickjs_8c.html#a5d963b1e3acf275363fedd4bfdd8a57f" target="_top" xlink:title="js_function_set_properties">
<polygon fill="none" stroke="#ff0000" points="415,-114.5 415,-133.5 546,-133.5 546,-114.5 415,-114.5"/>
<text text-anchor="middle" x="480.5" y="-121.5" font-family="Helvetica,sans-Serif" font-size="10.00" fill="#000000">js_function_set_properties</text>
</a>
</g>
</g>
<!-- Node85277&#45;&gt;Node85285 -->
<g id="edge5" class="edge">
<title>Node85277&#45;&gt;Node85285</title>
<path fill="none" stroke="#191970" d="M379.3967,-111.4856C387.5742,-112.4978 396.1633,-113.5609 404.736,-114.622"/>
<polygon fill="#191970" stroke="#191970" points="404.4121,-118.1086 414.7664,-115.8636 405.2721,-111.1616 404.4121,-118.1086"/>
</g>
<!-- Node85365 -->
<g id="node7" class="node">
<title>Node85365</title>
<g id="a_node7"><a xlink:href="quickjs_8h.html#ad80a83d73e9b7d872b88fbf2943aebe9" target="_top" xlink:title="JS_IsException">
<polygon fill="none" stroke="#000000" points="437.5,-76.5 437.5,-95.5 523.5,-95.5 523.5,-76.5 437.5,-76.5"/>
<text text-anchor="middle" x="480.5" y="-83.5" font-family="Helvetica,sans-Serif" font-size="10.00" fill="#000000">JS_IsException</text>
</a>
</g>
</g>
<!-- Node85277&#45;&gt;Node85365 -->
<g id="edge6" class="edge">
<title>Node85277&#45;&gt;Node85365</title>
<path fill="none" stroke="#191970" d="M379.3967,-98.5144C394.639,-96.6277 411.311,-94.5641 426.6417,-92.6665"/>
<polygon fill="#191970" stroke="#191970" points="427.5126,-96.0855 437.0069,-91.3835 426.6527,-89.1385 427.5126,-96.0855"/>
</g>
<!-- Node85629 -->
<g id="node8" class="node">
<title>Node85629</title>
<g id="a_node8"><a xlink:href="quickjs_8c.html#aa2ef5af1544a3012f91a80c98c326b8f" target="_top" xlink:title="JS_NewAtom">
<polygon fill="none" stroke="#ff0000" points="442,-38.5 442,-57.5 519,-57.5 519,-38.5 442,-38.5"/>
<text text-anchor="middle" x="480.5" y="-45.5" font-family="Helvetica,sans-Serif" font-size="10.00" fill="#000000">JS_NewAtom</text>
</a>
</g>
</g>
<!-- Node85277&#45;&gt;Node85629 -->
<g id="edge7" class="edge">
<title>Node85277&#45;&gt;Node85629</title>
<path fill="none" stroke="#191970" d="M347.3335,-95.3547C364.9848,-87.1917 391.3521,-75.4979 415,-67 421.3635,-64.7133 428.1475,-62.5012 434.8477,-60.4444"/>
<polygon fill="#191970" stroke="#191970" points="435.9635,-63.764 444.5456,-57.5513 433.9624,-57.0562 435.9635,-63.764"/>
</g>
<!-- Node85502 -->
<g id="node9" class="node">
<title>Node85502</title>
<g id="a_node9"><a xlink:href="quickjs_8c.html#a73738c650f11459db0d7af3dcdf8316b" target="_top" xlink:title="JS_NewObjectProtoClass">
<polygon fill="none" stroke="#ff0000" points="415,-.5 415,-19.5 546,-19.5 546,-.5 415,-.5"/>
<text text-anchor="middle" x="480.5" y="-7.5" font-family="Helvetica,sans-Serif" font-size="10.00" fill="#000000">JS_NewObjectProtoClass</text>
</a>
</g>
</g>
<!-- Node85277&#45;&gt;Node85502 -->
<g id="edge8" class="edge">
<title>Node85277&#45;&gt;Node85502</title>
<path fill="none" stroke="#191970" d="M335.5022,-95.3378C350.1606,-79.2609 381.824,-47.0098 415,-29 419.0307,-26.8119 423.3411,-24.851 427.7544,-23.0986"/>
<polygon fill="#191970" stroke="#191970" points="429.2869,-26.267 437.5115,-19.5881 426.9171,-19.6803 429.2869,-26.267"/>
</g>
</g>
</svg>
