<?xml version="1.0" encoding="UTF-8" standalone="no"?>
<!DOCTYPE svg PUBLIC "-//W3C//DTD SVG 1.1//EN"
 "http://www.w3.org/Graphics/SVG/1.1/DTD/svg11.dtd">
<!-- Generated by graphviz version 2.40.1 (20161225.0304)
 -->
<!-- Title: js_dump_obj Pages: 1 -->
<!--zoomable 218 -->
<svg id="main" version="1.1" xmlns="http://www.w3.org/2000/svg" xmlns:xlink="http://www.w3.org/1999/xlink" xml:space="preserve" onload="init(evt)">
<style type="text/css"><![CDATA[
.edge:hover path { stroke: red; }
.edge:hover polygon { stroke: red; fill: red; }
]]></style>
<script type="text/javascript"><![CDATA[
var edges = document.getElementsByTagName('g');
if (edges && edges.length) {
  for (var i=0;i<edges.length;i++) {
    if (edges[i].id.substr(0,4)=='edge') {
      edges[i].setAttribute('class','edge');
    }
  }
}
]]></script>
        <defs>
                <circle id="rim" cx="0" cy="0" r="7"/>
                <circle id="rim2" cx="0" cy="0" r="3.5"/>
                <g id="zoomPlus">
                        <use xlink:href="#rim" fill="#404040">
                                <set attributeName="fill" to="#808080" begin="zoomplus.mouseover" end="zoomplus.mouseout"/>
                        </use>
                        <path d="M-4,0h8M0,-4v8" fill="none" stroke="white" stroke-width="1.5" pointer-events="none"/>
                </g>
                <g id="zoomMin">
                        <use xlink:href="#rim" fill="#404040">
                                <set attributeName="fill" to="#808080" begin="zoomminus.mouseover" end="zoomminus.mouseout"/>
                        </use>
                        <path d="M-4,0h8" fill="none" stroke="white" stroke-width="1.5" pointer-events="none"/>
                </g>
                <g id="dirArrow">
                        <path fill="none" stroke="white" stroke-width="1.5" d="M0,-3.0v7 M-2.5,-0.5L0,-3.0L2.5,-0.5"/>
                </g>
               <g id="resetDef">
                       <use xlink:href="#rim2" fill="#404040">
                               <set attributeName="fill" to="#808080" begin="reset.mouseover" end="reset.mouseout"/>
                       </use>
               </g>
        </defs>

<script type="text/javascript">
var viewWidth = 575;
var viewHeight = 218;
var sectionId = 'dynsection-148';
</script>
<script xlink:href="svgpan.js"/>
<svg id="graph" class="graph">
<g id="viewport">
<title>js_dump_obj</title>
<!-- Node32210 -->
<g id="node1" class="node">
<title>Node32210</title>
<polygon fill="#bfbfbf" stroke="#000000" points="0,-152.5 0,-171.5 71,-171.5 71,-152.5 0,-152.5"/>
<text text-anchor="middle" x="35.5" y="-159.5" font-family="Helvetica,sans-Serif" font-size="10.00" fill="#000000">js_dump_obj</text>
</g>
<!-- Node32211 -->
<g id="node2" class="node">
<title>Node32211</title>
<g id="a_node2"><a xlink:href="quickjs_8c.html#ae0bc4f65da64810facb2cb9e476eda2e" target="_top" xlink:title="JS_FreeCString">
<polygon fill="none" stroke="#000000" points="227.5,-185.5 227.5,-204.5 313.5,-204.5 313.5,-185.5 227.5,-185.5"/>
<text text-anchor="middle" x="270.5" y="-192.5" font-family="Helvetica,sans-Serif" font-size="10.00" fill="#000000">JS_FreeCString</text>
</a>
</g>
</g>
<!-- Node32210&#45;&gt;Node32211 -->
<g id="edge1" class="edge">
<title>Node32210&#45;&gt;Node32211</title>
<path fill="none" stroke="#191970" d="M71.1914,-167.012C110.0248,-172.4652 172.5254,-181.2419 217.1822,-187.5128"/>
<polygon fill="#191970" stroke="#191970" points="216.8838,-191.0052 227.2734,-188.9299 217.8573,-184.0732 216.8838,-191.0052"/>
</g>
<!-- Node32249 -->
<g id="node5" class="node">
<title>Node32249</title>
<g id="a_node5"><a xlink:href="quickjs_8h.html#af931f06630ab719b5f82a16eb27effd1" target="_top" xlink:title="JS_ToCString">
<polygon fill="none" stroke="#000000" points="107,-133.5 107,-152.5 185,-152.5 185,-133.5 107,-133.5"/>
<text text-anchor="middle" x="146" y="-140.5" font-family="Helvetica,sans-Serif" font-size="10.00" fill="#000000">JS_ToCString</text>
</a>
</g>
</g>
<!-- Node32210&#45;&gt;Node32249 -->
<g id="edge4" class="edge">
<title>Node32210&#45;&gt;Node32249</title>
<path fill="none" stroke="#191970" d="M71.0711,-155.8837C79.2336,-154.4802 88.0551,-152.9634 96.6816,-151.4801"/>
<polygon fill="#191970" stroke="#191970" points="97.4052,-154.9071 106.6674,-149.7631 96.2189,-148.0084 97.4052,-154.9071"/>
</g>
<!-- Node32212 -->
<g id="node3" class="node">
<title>Node32212</title>
<g id="a_node3"><a xlink:href="quickjs_8h.html#afaa20c47565bc704c6c85f3d77254e7d" target="_top" xlink:title="JS_FreeValue">
<polygon fill="none" stroke="#000000" points="360,-190.5 360,-209.5 438,-209.5 438,-190.5 360,-190.5"/>
<text text-anchor="middle" x="399" y="-197.5" font-family="Helvetica,sans-Serif" font-size="10.00" fill="#000000">JS_FreeValue</text>
</a>
</g>
</g>
<!-- Node32211&#45;&gt;Node32212 -->
<g id="edge2" class="edge">
<title>Node32211&#45;&gt;Node32212</title>
<path fill="none" stroke="#191970" d="M313.6461,-196.6788C325.1502,-197.1265 337.6696,-197.6136 349.4862,-198.0734"/>
<polygon fill="#191970" stroke="#191970" points="349.5178,-201.5772 359.6464,-198.4687 349.79,-194.5825 349.5178,-201.5772"/>
</g>
<!-- Node32213 -->
<g id="node4" class="node">
<title>Node32213</title>
<g id="a_node4"><a xlink:href="quickjs_8c.html#aa059f309c30fd5166d16c82a97973146" target="_top" xlink:title="__JS_FreeValue">
<polygon fill="none" stroke="#ff0000" points="478,-190.5 478,-209.5 567,-209.5 567,-190.5 478,-190.5"/>
<text text-anchor="middle" x="522.5" y="-197.5" font-family="Helvetica,sans-Serif" font-size="10.00" fill="#000000">__JS_FreeValue</text>
</a>
</g>
</g>
<!-- Node32212&#45;&gt;Node32213 -->
<g id="edge3" class="edge">
<title>Node32212&#45;&gt;Node32213</title>
<path fill="none" stroke="#191970" d="M438.0762,-200C447.412,-200 457.5507,-200 467.4566,-200"/>
<polygon fill="#191970" stroke="#191970" points="467.6517,-203.5001 477.6517,-200 467.6517,-196.5001 467.6517,-203.5001"/>
</g>
<!-- Node32250 -->
<g id="node6" class="node">
<title>Node32250</title>
<g id="a_node6"><a xlink:href="quickjs_8c.html#af49e67b73f845dc1f9c3ee648dd9f95c" target="_top" xlink:title="JS_ToCStringLen2">
<polygon fill="none" stroke="#000000" points="221,-114.5 221,-133.5 320,-133.5 320,-114.5 221,-114.5"/>
<text text-anchor="middle" x="270.5" y="-121.5" font-family="Helvetica,sans-Serif" font-size="10.00" fill="#000000">JS_ToCStringLen2</text>
</a>
</g>
</g>
<!-- Node32249&#45;&gt;Node32250 -->
<g id="edge5" class="edge">
<title>Node32249&#45;&gt;Node32250</title>
<path fill="none" stroke="#191970" d="M185.051,-137.0404C193.1494,-135.8045 201.859,-134.4753 210.5104,-133.155"/>
<polygon fill="#191970" stroke="#191970" points="211.242,-136.584 220.5994,-131.6153 210.1858,-129.6641 211.242,-136.584"/>
</g>
<!-- Node32250&#45;&gt;Node32212 -->
<g id="edge11" class="edge">
<title>Node32250&#45;&gt;Node32212</title>
<path fill="none" stroke="#191970" d="M283.3871,-133.6142C299.7518,-145.5792 329.1016,-166.2342 356,-181 359.2687,-182.7943 362.7403,-184.5534 366.2382,-186.2326"/>
<polygon fill="#191970" stroke="#191970" points="364.8896,-189.4647 375.4376,-190.4604 367.8128,-183.1042 364.8896,-189.4647"/>
</g>
<!-- Node32251 -->
<g id="node7" class="node">
<title>Node32251</title>
<g id="a_node7"><a xlink:href="quickjs_8c.html#a7bcb8e1a20cbc8374a5f9ba4a2088cec" target="_top" xlink:title="JS_ToString">
<polygon fill="none" stroke="#ff0000" points="363.5,-152.5 363.5,-171.5 434.5,-171.5 434.5,-152.5 363.5,-152.5"/>
<text text-anchor="middle" x="399" y="-159.5" font-family="Helvetica,sans-Serif" font-size="10.00" fill="#000000">JS_ToString</text>
</a>
</g>
</g>
<!-- Node32250&#45;&gt;Node32251 -->
<g id="edge6" class="edge">
<title>Node32250&#45;&gt;Node32251</title>
<path fill="none" stroke="#191970" d="M302.926,-133.589C319.2097,-138.4044 339.1421,-144.2988 356.622,-149.468"/>
<polygon fill="#191970" stroke="#191970" points="356.0024,-152.9345 366.5844,-152.4141 357.9875,-146.2219 356.0024,-152.9345"/>
</g>
<!-- Node32338 -->
<g id="node8" class="node">
<title>Node32338</title>
<g id="a_node8"><a xlink:href="quickjs_8h.html#ad80a83d73e9b7d872b88fbf2943aebe9" target="_top" xlink:title="JS_IsException">
<polygon fill="none" stroke="#000000" points="356,-114.5 356,-133.5 442,-133.5 442,-114.5 356,-114.5"/>
<text text-anchor="middle" x="399" y="-121.5" font-family="Helvetica,sans-Serif" font-size="10.00" fill="#000000">JS_IsException</text>
</a>
</g>
</g>
<!-- Node32250&#45;&gt;Node32338 -->
<g id="edge7" class="edge">
<title>Node32250&#45;&gt;Node32338</title>
<path fill="none" stroke="#191970" d="M320.1815,-124C328.5163,-124 337.1964,-124 345.6198,-124"/>
<polygon fill="#191970" stroke="#191970" points="345.7267,-127.5001 355.7267,-124 345.7266,-120.5001 345.7267,-127.5001"/>
</g>
<!-- Node32253 -->
<g id="node9" class="node">
<title>Node32253</title>
<g id="a_node9"><a xlink:href="quickjs_8h.html#a775522f2d084fc8fa0fcb33f390006b4" target="_top" xlink:title="JS_DupValue">
<polygon fill="none" stroke="#000000" points="360.5,-76.5 360.5,-95.5 437.5,-95.5 437.5,-76.5 360.5,-76.5"/>
<text text-anchor="middle" x="399" y="-83.5" font-family="Helvetica,sans-Serif" font-size="10.00" fill="#000000">JS_DupValue</text>
</a>
</g>
</g>
<!-- Node32250&#45;&gt;Node32253 -->
<g id="edge8" class="edge">
<title>Node32250&#45;&gt;Node32253</title>
<path fill="none" stroke="#191970" d="M302.926,-114.411C319.2097,-109.5956 339.1421,-103.7012 356.622,-98.532"/>
<polygon fill="#191970" stroke="#191970" points="357.9875,-101.7781 366.5844,-95.5859 356.0024,-95.0655 357.9875,-101.7781"/>
</g>
<!-- Node32262 -->
<g id="node10" class="node">
<title>Node32262</title>
<g id="a_node10"><a xlink:href="quickjs_8c.html#ad303a9bc56766627b5fca41574933930" target="_top" xlink:title="js_alloc_string">
<polygon fill="none" stroke="#ff0000" points="359.5,-38.5 359.5,-57.5 438.5,-57.5 438.5,-38.5 359.5,-38.5"/>
<text text-anchor="middle" x="399" y="-45.5" font-family="Helvetica,sans-Serif" font-size="10.00" fill="#000000">js_alloc_string</text>
</a>
</g>
</g>
<!-- Node32250&#45;&gt;Node32262 -->
<g id="edge9" class="edge">
<title>Node32250&#45;&gt;Node32262</title>
<path fill="none" stroke="#191970" d="M283.3871,-114.3858C299.7518,-102.4208 329.1016,-81.7658 356,-67 359.2687,-65.2057 362.7403,-63.4466 366.2382,-61.7674"/>
<polygon fill="#191970" stroke="#191970" points="367.8128,-64.8958 375.4376,-57.5396 364.8896,-58.5353 367.8128,-64.8958"/>
</g>
<!-- Node32443 -->
<g id="node11" class="node">
<title>Node32443</title>
<g id="a_node11"><a xlink:href="cutils_8h.html#aad4e0decb15ab19e9f45b0ee69542a28" target="_top" xlink:title="unicode_to_utf8">
<polygon fill="none" stroke="#000000" points="356,-.5 356,-19.5 442,-19.5 442,-.5 356,-.5"/>
<text text-anchor="middle" x="399" y="-7.5" font-family="Helvetica,sans-Serif" font-size="10.00" fill="#000000">unicode_to_utf8</text>
</a>
</g>
</g>
<!-- Node32250&#45;&gt;Node32443 -->
<g id="edge10" class="edge">
<title>Node32250&#45;&gt;Node32443</title>
<path fill="none" stroke="#191970" d="M276.982,-114.4268C290.0145,-95.7905 321.1416,-54.2572 356,-29 358.3545,-27.294 360.8864,-25.6949 363.5007,-24.206"/>
<polygon fill="#191970" stroke="#191970" points="365.2563,-27.2394 372.5689,-19.5728 362.0714,-21.0059 365.2563,-27.2394"/>
</g>
</g>
</svg>
        <g id="navigator" transform="translate(0 0)" fill="#404254">
                <rect fill="#f2f5e9" fill-opacity="0.5" stroke="#606060" stroke-width=".5" x="0" y="0" width="60" height="60"/>
                <use id="zoomplus" xlink:href="#zoomPlus" x="17" y="9" onmousedown="handleZoom(evt,'in')"/>
                <use id="zoomminus" xlink:href="#zoomMin" x="42" y="9" onmousedown="handleZoom(evt,'out')"/>
                <use id="reset" xlink:href="#resetDef" x="30" y="36" onmousedown="handleReset()"/>
                <g id="arrowUp" xlink:href="#dirArrow" transform="translate(30 24)" onmousedown="handlePan(0,-1)">
                  <use xlink:href="#rim" fill="#404040">
                        <set attributeName="fill" to="#808080" begin="arrowUp.mouseover" end="arrowUp.mouseout"/>
                  </use>
                  <path fill="none" stroke="white" stroke-width="1.5" d="M0,-3.0v7 M-2.5,-0.5L0,-3.0L2.5,-0.5"/>
                </g>
                <g id="arrowRight" xlink:href="#dirArrow" transform="rotate(90) translate(36 -43)" onmousedown="handlePan(1,0)">
                  <use xlink:href="#rim" fill="#404040">
                        <set attributeName="fill" to="#808080" begin="arrowRight.mouseover" end="arrowRight.mouseout"/>
                  </use>
                  <path fill="none" stroke="white" stroke-width="1.5" d="M0,-3.0v7 M-2.5,-0.5L0,-3.0L2.5,-0.5"/>
                </g>
                <g id="arrowDown" xlink:href="#dirArrow" transform="rotate(180) translate(-30 -48)" onmousedown="handlePan(0,1)">
                  <use xlink:href="#rim" fill="#404040">
                        <set attributeName="fill" to="#808080" begin="arrowDown.mouseover" end="arrowDown.mouseout"/>
                  </use>
                  <path fill="none" stroke="white" stroke-width="1.5" d="M0,-3.0v7 M-2.5,-0.5L0,-3.0L2.5,-0.5"/>
                </g>
                <g id="arrowLeft" xlink:href="#dirArrow" transform="rotate(270) translate(-36 17)" onmousedown="handlePan(-1,0)">
                  <use xlink:href="#rim" fill="#404040">
                        <set attributeName="fill" to="#808080" begin="arrowLeft.mouseover" end="arrowLeft.mouseout"/>
                  </use>
                  <path fill="none" stroke="white" stroke-width="1.5" d="M0,-3.0v7 M-2.5,-0.5L0,-3.0L2.5,-0.5"/>
                </g>
        </g>
        <svg viewBox="0 0 15 15" width="100%" height="30px" preserveAspectRatio="xMaxYMin meet">
         <g id="arrow_out" transform="scale(0.3 0.3)">
          <a xlink:href="quickjs-libc_8c_a2e5a713d49edeef87d8ed87471679f39_cgraph_org.svg" target="_base">
           <rect id="button" ry="5" rx="5" y="6" x="6" height="38" width="38"
                fill="#f2f5e9" fill-opacity="0.5" stroke="#606060" stroke-width="1.0"/>
           <path id="arrow"
             d="M 11.500037,31.436501 C 11.940474,20.09759 22.043105,11.32322 32.158766,21.979434 L 37.068811,17.246167 C 37.068811,17.246167 37.088388,32 37.088388,32 L 22.160133,31.978069 C 22.160133,31.978069 26.997745,27.140456 26.997745,27.140456 C 18.528582,18.264221 13.291696,25.230495 11.500037,31.436501 z"
             style="fill:#404040;"/>
          </a>
         </g>
        </svg>
</svg>
