<?xml version="1.0" encoding="UTF-8" standalone="no"?>
<!DOCTYPE svg PUBLIC "-//W3C//DTD SVG 1.1//EN"
 "http://www.w3.org/Graphics/SVG/1.1/DTD/svg11.dtd">
<!-- Generated by graphviz version 2.40.1 (20161225.0304)
 -->
<!-- Title: parse_ident Pages: 1 -->
<svg width="1536pt" height="1634pt"
 viewBox="0.00 0.00 1536.00 1634.00" xmlns="http://www.w3.org/2000/svg" xmlns:xlink="http://www.w3.org/1999/xlink">
<g id="graph0" class="graph" transform="scale(1 1) rotate(0) translate(4 1630.0006)">
<title>parse_ident</title>
<!-- Node308275 -->
<g id="node1" class="node">
<title>Node308275</title>
<polygon fill="#bfbfbf" stroke="#000000" points="0,-601.5 0,-620.5 67,-620.5 67,-601.5 0,-601.5"/>
<text text-anchor="middle" x="33.5" y="-608.5" font-family="Helvetica,sans-Serif" font-size="10.00" fill="#000000">parse_ident</text>
</g>
<!-- Node308276 -->
<g id="node2" class="node">
<title>Node308276</title>
<g id="a_node2"><a xlink:href="quickjs_8c.html#a75a3798e2045f6e403c1ef467126d1fb" target="_top" xlink:title="next_token">
<polygon fill="none" stroke="#ff0000" points="103,-601.5 103,-620.5 168,-620.5 168,-601.5 103,-601.5"/>
<text text-anchor="middle" x="135.5" y="-608.5" font-family="Helvetica,sans-Serif" font-size="10.00" fill="#000000">next_token</text>
</a>
</g>
</g>
<!-- Node308275&#45;&gt;Node308276 -->
<g id="edge1" class="edge">
<title>Node308275&#45;&gt;Node308276</title>
<path fill="none" stroke="#191970" d="M77.4121,-611C85.9642,-611 94.7874,-611 102.8946,-611"/>
<polygon fill="#191970" stroke="#191970" points="77.1813,-607.5001 67.1813,-611 77.1813,-614.5001 77.1813,-607.5001"/>
</g>
<!-- Node308277 -->
<g id="node3" class="node">
<title>Node308277</title>
<g id="a_node3"><a xlink:href="quickjs_8c.html#a08f5927b79691c477c726fc5d309cfef" target="_top" xlink:title="is_let">
<polygon fill="none" stroke="#ff0000" points="554,-380.5 554,-399.5 594,-399.5 594,-380.5 554,-380.5"/>
<text text-anchor="middle" x="574" y="-387.5" font-family="Helvetica,sans-Serif" font-size="10.00" fill="#000000">is_let</text>
</a>
</g>
</g>
<!-- Node308276&#45;&gt;Node308277 -->
<g id="edge2" class="edge">
<title>Node308276&#45;&gt;Node308277</title>
<path fill="none" stroke="#191970" d="M139.0117,-591.1986C145.7151,-559.5424 163.4466,-497.867 204,-466 312.7966,-380.5074 493.6033,-384.3144 553.8065,-388.2945"/>
<polygon fill="#191970" stroke="#191970" points="135.5026,-590.9067 137.0192,-601.3924 142.3726,-592.2496 135.5026,-590.9067"/>
</g>
<!-- Node308278 -->
<g id="node4" class="node">
<title>Node308278</title>
<g id="a_node4"><a xlink:href="quickjs_8c.html#ac188b916dd086803591a67de7e7a85f6" target="_top" xlink:title="js_parse_for_in_of">
<polygon fill="none" stroke="#ff0000" points="1005,-582.5 1005,-601.5 1101,-601.5 1101,-582.5 1005,-582.5"/>
<text text-anchor="middle" x="1053" y="-589.5" font-family="Helvetica,sans-Serif" font-size="10.00" fill="#000000">js_parse_for_in_of</text>
</a>
</g>
</g>
<!-- Node308276&#45;&gt;Node308278 -->
<g id="edge75" class="edge">
<title>Node308276&#45;&gt;Node308278</title>
<path fill="none" stroke="#191970" d="M138.4256,-591.2252C146.577,-538.7579 171.1251,-397.8538 204,-366 273.5187,-298.6407 318.7006,-314 415.5,-314 415.5,-314 415.5,-314 738,-314 903.9367,-314 1023.7142,-533.5471 1048.3268,-582.4306"/>
<polygon fill="#191970" stroke="#191970" points="134.9416,-590.8558 136.8992,-601.2682 141.8621,-591.9077 134.9416,-590.8558"/>
</g>
<!-- Node308298 -->
<g id="node5" class="node">
<title>Node308298</title>
<g id="a_node5"><a xlink:href="quickjs_8c.html#a253917187cfb6b3db09d355b31edb3d5" target="_top" xlink:title="js_parse_array_literal">
<polygon fill="none" stroke="#000000" points="519.5,-1000.5 519.5,-1019.5 628.5,-1019.5 628.5,-1000.5 519.5,-1000.5"/>
<text text-anchor="middle" x="574" y="-1007.5" font-family="Helvetica,sans-Serif" font-size="10.00" fill="#000000">js_parse_array_literal</text>
</a>
</g>
</g>
<!-- Node308276&#45;&gt;Node308298 -->
<g id="edge4" class="edge">
<title>Node308276&#45;&gt;Node308298</title>
<path fill="none" stroke="#191970" d="M137.1082,-630.6909C142.9195,-697.9843 164.5959,-917.8116 204,-975 276.6461,-1080.4335 360.676,-1120.5015 477,-1067 499.3362,-1056.7268 492.0615,-1037.8849 513,-1025 516.4366,-1022.8852 520.154,-1021.0684 523.9993,-1019.5076"/>
<polygon fill="#191970" stroke="#191970" points="140.5856,-630.2753 136.2585,-620.6044 133.6104,-630.8629 140.5856,-630.2753"/>
</g>
<!-- Node308286 -->
<g id="node6" class="node">
<title>Node308286</title>
<g id="a_node6"><a xlink:href="quickjs_8c.html#acdcc62310b4f6f73fa7bc7267b18b1d4" target="_top" xlink:title="js_parse_postfix_expr">
<polygon fill="none" stroke="#ff0000" points="682,-810.5 682,-829.5 794,-829.5 794,-810.5 682,-810.5"/>
<text text-anchor="middle" x="738" y="-817.5" font-family="Helvetica,sans-Serif" font-size="10.00" fill="#000000">js_parse_postfix_expr</text>
</a>
</g>
</g>
<!-- Node308276&#45;&gt;Node308286 -->
<g id="edge83" class="edge">
<title>Node308276&#45;&gt;Node308286</title>
<path fill="none" stroke="#191970" d="M149.9476,-628.906C162.745,-643.6964 182.6647,-664.2615 204,-677 360.9803,-770.7273 580.0297,-804.1476 681.8449,-815.1136"/>
<polygon fill="#191970" stroke="#191970" points="152.391,-626.3732 143.2788,-620.9677 147.0313,-630.8758 152.391,-626.3732"/>
</g>
<!-- Node308285 -->
<g id="node7" class="node">
<title>Node308285</title>
<g id="a_node7"><a xlink:href="quickjs_8c.html#a00eb789430243c24dab4a63ad6a79653" target="_top" xlink:title="js_parse_class">
<polygon fill="none" stroke="#ff0000" points="1324,-810.5 1324,-829.5 1406,-829.5 1406,-810.5 1324,-810.5"/>
<text text-anchor="middle" x="1365" y="-817.5" font-family="Helvetica,sans-Serif" font-size="10.00" fill="#000000">js_parse_class</text>
</a>
</g>
</g>
<!-- Node308276&#45;&gt;Node308285 -->
<g id="edge35" class="edge">
<title>Node308276&#45;&gt;Node308285</title>
<path fill="none" stroke="#191970" d="M136.4782,-591.1709C140.1961,-524.4935 155.7676,-310.0378 204,-265 273.262,-200.3256 320.7371,-238 415.5,-238 415.5,-238 415.5,-238 1053,-238 1180.3634,-238 1219.0741,-294.8989 1288,-402 1333.9236,-473.3588 1359.4819,-753.9001 1364.1997,-810.1491"/>
<polygon fill="#191970" stroke="#191970" points="132.9811,-591.0269 135.948,-601.1978 139.9713,-591.3966 132.9811,-591.0269"/>
</g>
<!-- Node308289 -->
<g id="node8" class="node">
<title>Node308289</title>
<g id="a_node8"><a xlink:href="quickjs_8c.html#a498e1d5c7de1b59c1630e9847cde1e41" target="_top" xlink:title="js_parse_export">
<polygon fill="none" stroke="#ff0000" points="1442,-810.5 1442,-829.5 1528,-829.5 1528,-810.5 1442,-810.5"/>
<text text-anchor="middle" x="1485" y="-817.5" font-family="Helvetica,sans-Serif" font-size="10.00" fill="#000000">js_parse_export</text>
</a>
</g>
</g>
<!-- Node308276&#45;&gt;Node308289 -->
<g id="edge67" class="edge">
<title>Node308276&#45;&gt;Node308289</title>
<path fill="none" stroke="#191970" d="M136.8921,-591.213C143.3181,-502.2862 171.2014,-142.3165 204,-105 268.2706,-31.8764 318.1461,-48 415.5,-48 415.5,-48 415.5,-48 1219,-48 1306.8439,-48 1351.0323,-43.4792 1406,-112 1451.9513,-169.2812 1480.636,-729.6482 1484.5419,-810.3396"/>
<polygon fill="#191970" stroke="#191970" points="133.3935,-591.0705 136.1722,-601.2945 140.3757,-591.5692 133.3935,-591.0705"/>
</g>
<!-- Node308287 -->
<g id="node9" class="node">
<title>Node308287</title>
<g id="a_node9"><a xlink:href="quickjs_8c.html#a26be546cf89c4580ba9020e8fc43a759" target="_top" xlink:title="js_parse_destructuring\l_element">
<polygon fill="none" stroke="#ff0000" points="841,-696 841,-726 956,-726 956,-696 841,-696"/>
<text text-anchor="start" x="849" y="-714" font-family="Helvetica,sans-Serif" font-size="10.00" fill="#000000">js_parse_destructuring</text>
<text text-anchor="middle" x="898.5" y="-703" font-family="Helvetica,sans-Serif" font-size="10.00" fill="#000000">_element</text>
</a>
</g>
</g>
<!-- Node308276&#45;&gt;Node308287 -->
<g id="edge41" class="edge">
<title>Node308276&#45;&gt;Node308287</title>
<path fill="none" stroke="#191970" d="M178.6254,-611.4108C215.6563,-612.0607 270.4303,-613.7291 318,-618 535.7303,-637.5483 590.5796,-644.4263 805,-687 817.6572,-689.5131 831.1593,-692.6857 843.8528,-695.8937"/>
<polygon fill="#191970" stroke="#191970" points="178.2558,-607.9046 168.2018,-611.2466 178.1454,-614.9038 178.2558,-607.9046"/>
</g>
<!-- Node308283 -->
<g id="node10" class="node">
<title>Node308283</title>
<g id="a_node10"><a xlink:href="quickjs_8c.html#acc9eb677cab8dfcf45f59381f8a19601" target="_top" xlink:title="js_parse_function_decl2">
<polygon fill="none" stroke="#ff0000" points="992,-866.5 992,-885.5 1114,-885.5 1114,-866.5 992,-866.5"/>
<text text-anchor="middle" x="1053" y="-873.5" font-family="Helvetica,sans-Serif" font-size="10.00" fill="#000000">js_parse_function_decl2</text>
</a>
</g>
</g>
<!-- Node308276&#45;&gt;Node308283 -->
<g id="edge79" class="edge">
<title>Node308276&#45;&gt;Node308283</title>
<path fill="none" stroke="#191970" d="M136.6406,-630.9377C142.8269,-737.0889 173.2124,-1233.3043 204,-1294 261.1622,-1406.6914 289.1399,-1484 415.5,-1484 415.5,-1484 415.5,-1484 738,-1484 1019.748,-1484 1049.7993,-962.9009 1052.7081,-885.5502"/>
<polygon fill="#191970" stroke="#191970" points="140.1194,-630.469 136.0481,-620.6877 133.1311,-630.873 140.1194,-630.469"/>
</g>
<!-- Node308284 -->
<g id="node11" class="node">
<title>Node308284</title>
<g id="a_node11"><a xlink:href="quickjs_8c.html#adf95ddf430ef93fd9efea1cc2f8a2fbe" target="_top" xlink:title="js_parse_class_default_ctor">
<polygon fill="none" stroke="#000000" points="1150,-411.5 1150,-430.5 1288,-430.5 1288,-411.5 1150,-411.5"/>
<text text-anchor="middle" x="1219" y="-418.5" font-family="Helvetica,sans-Serif" font-size="10.00" fill="#000000">js_parse_class_default_ctor</text>
</a>
</g>
</g>
<!-- Node308276&#45;&gt;Node308284 -->
<g id="edge36" class="edge">
<title>Node308276&#45;&gt;Node308284</title>
<path fill="none" stroke="#191970" d="M137.1775,-591.0971C142.7188,-530.3203 162.4965,-348.9143 204,-310 273.4529,-244.8799 320.2931,-276 415.5,-276 415.5,-276 415.5,-276 898.5,-276 1030.4154,-276 1167.892,-379.2275 1207.6329,-411.4861"/>
<polygon fill="#191970" stroke="#191970" points="133.6721,-591.0061 136.2815,-601.2745 140.6451,-591.62 133.6721,-591.0061"/>
</g>
<!-- Node308296 -->
<g id="node12" class="node">
<title>Node308296</title>
<g id="a_node12"><a xlink:href="quickjs_8c.html#a4fa2fc1719feb03edf64eaf034103fd2" target="_top" xlink:title="js_parse_assign_expr">
<polygon fill="none" stroke="#ff0000" points="360,-1142.5 360,-1161.5 471,-1161.5 471,-1142.5 360,-1142.5"/>
<text text-anchor="middle" x="415.5" y="-1149.5" font-family="Helvetica,sans-Serif" font-size="10.00" fill="#000000">js_parse_assign_expr</text>
</a>
</g>
</g>
<!-- Node308276&#45;&gt;Node308296 -->
<g id="edge20" class="edge">
<title>Node308276&#45;&gt;Node308296</title>
<path fill="none" stroke="#191970" d="M136.9826,-630.9627C143.6464,-718.3553 171.9042,-1064.4548 204,-1100 242.8982,-1143.0788 311.1899,-1153.1923 359.6406,-1154.385"/>
<polygon fill="#191970" stroke="#191970" points="140.459,-630.5162 136.2172,-620.8075 133.4788,-631.0423 140.459,-630.5162"/>
</g>
<!-- Node308297 -->
<g id="node13" class="node">
<title>Node308297</title>
<g id="a_node13"><a xlink:href="quickjs_8c.html#aee6d0acd87f136d43f157ae1426436e6" target="_top" xlink:title="js_parse_object_literal">
<polygon fill="none" stroke="#000000" points="517.5,-848.5 517.5,-867.5 630.5,-867.5 630.5,-848.5 517.5,-848.5"/>
<text text-anchor="middle" x="574" y="-855.5" font-family="Helvetica,sans-Serif" font-size="10.00" fill="#000000">js_parse_object_literal</text>
</a>
</g>
</g>
<!-- Node308276&#45;&gt;Node308297 -->
<g id="edge82" class="edge">
<title>Node308276&#45;&gt;Node308297</title>
<path fill="none" stroke="#191970" d="M136.6017,-630.8824C139.8714,-669.2993 152.8191,-753.6637 204,-796 250.7992,-834.7119 425.7825,-849.9249 517.3436,-855.3319"/>
<polygon fill="#191970" stroke="#191970" points="140.0663,-630.2591 135.866,-620.5325 133.0839,-630.7555 140.0663,-630.2591"/>
</g>
<!-- Node308295 -->
<g id="node14" class="node">
<title>Node308295</title>
<g id="a_node14"><a xlink:href="quickjs_8c.html#abd2cbff624ea609dbf883fb1a2f048cd" target="_top" xlink:title="js_parse_cond_expr">
<polygon fill="none" stroke="#000000" points="686,-1398.5 686,-1417.5 790,-1417.5 790,-1398.5 686,-1398.5"/>
<text text-anchor="middle" x="738" y="-1405.5" font-family="Helvetica,sans-Serif" font-size="10.00" fill="#000000">js_parse_cond_expr</text>
</a>
</g>
</g>
<!-- Node308276&#45;&gt;Node308295 -->
<g id="edge39" class="edge">
<title>Node308276&#45;&gt;Node308295</title>
<path fill="none" stroke="#191970" d="M135.687,-631.0642C136.8629,-724.0214 145.2693,-1112.6675 204,-1216 284.4787,-1357.5966 354.8202,-1374.1984 513,-1413 570.8694,-1427.1954 639.6368,-1422.704 685.7826,-1416.752"/>
<polygon fill="#191970" stroke="#191970" points="139.184,-630.7653 135.5724,-620.8051 132.1844,-630.8436 139.184,-630.7653"/>
</g>
<!-- Node308299 -->
<g id="node15" class="node">
<title>Node308299</title>
<g id="a_node15"><a xlink:href="quickjs_8c.html#a1cef6995e7ec0c736babe92589cf441f" target="_top" xlink:title="js_parse_expr2">
<polygon fill="none" stroke="#ff0000" points="532.5,-1360.5 532.5,-1379.5 615.5,-1379.5 615.5,-1360.5 532.5,-1360.5"/>
<text text-anchor="middle" x="574" y="-1367.5" font-family="Helvetica,sans-Serif" font-size="10.00" fill="#000000">js_parse_expr2</text>
</a>
</g>
</g>
<!-- Node308276&#45;&gt;Node308299 -->
<g id="edge68" class="edge">
<title>Node308276&#45;&gt;Node308299</title>
<path fill="none" stroke="#191970" d="M136.3737,-630.7166C140.3711,-715.2017 158.7051,-1046.5448 204,-1139 245.6176,-1223.949 274.2958,-1239.0531 354,-1290 410.6729,-1326.2253 486.0168,-1349.0478 532.2046,-1360.6568"/>
<polygon fill="#191970" stroke="#191970" points="139.8679,-630.5069 135.9122,-620.6783 132.8753,-630.8285 139.8679,-630.5069"/>
</g>
<!-- Node308281 -->
<g id="node16" class="node">
<title>Node308281</title>
<g id="a_node16"><a xlink:href="quickjs_8c.html#acc0cac53be5317d9cab6a79afcd7da48" target="_top" xlink:title="js_parse_block">
<polygon fill="none" stroke="#ff0000" points="374.5,-1038.5 374.5,-1057.5 456.5,-1057.5 456.5,-1038.5 374.5,-1038.5"/>
<text text-anchor="middle" x="415.5" y="-1045.5" font-family="Helvetica,sans-Serif" font-size="10.00" fill="#000000">js_parse_block</text>
</a>
</g>
</g>
<!-- Node308276&#45;&gt;Node308281 -->
<g id="edge34" class="edge">
<title>Node308276&#45;&gt;Node308281</title>
<path fill="none" stroke="#191970" d="M137.9937,-630.8092C145.8181,-690.5831 171.3194,-867.9265 204,-915 250.0097,-981.2729 340.811,-1021.4527 387.0278,-1038.471"/>
<polygon fill="#191970" stroke="#191970" points="141.4513,-630.2551 136.7039,-620.7834 134.5086,-631.1483 141.4513,-630.2551"/>
</g>
<!-- Node308294 -->
<g id="node17" class="node">
<title>Node308294</title>
<g id="a_node17"><a xlink:href="quickjs_8c.html#a2a6a8f6738ae03f046617522b9781245" target="_top" xlink:title="js_parse_coalesce_expr">
<polygon fill="none" stroke="#000000" points="513,-1531.5 513,-1550.5 635,-1550.5 635,-1531.5 513,-1531.5"/>
<text text-anchor="middle" x="574" y="-1538.5" font-family="Helvetica,sans-Serif" font-size="10.00" fill="#000000">js_parse_coalesce_expr</text>
</a>
</g>
</g>
<!-- Node308276&#45;&gt;Node308294 -->
<g id="edge37" class="edge">
<title>Node308276&#45;&gt;Node308294</title>
<path fill="none" stroke="#191970" d="M136.3226,-630.8444C141.7226,-759.012 172.8472,-1465.6201 204,-1498 224.9888,-1519.8156 413.2278,-1532.7229 512.819,-1538.0821"/>
<polygon fill="#191970" stroke="#191970" points="139.8078,-630.4151 135.8928,-620.5701 132.8139,-630.7077 139.8078,-630.4151"/>
</g>
<!-- Node308291 -->
<g id="node18" class="node">
<title>Node308291</title>
<g id="a_node18"><a xlink:href="quickjs_8c.html#a2ecfb6abb190101748202a8aa5821fba" target="_top" xlink:title="js_parse_delete">
<polygon fill="none" stroke="#ff0000" points="218.5,-.5 218.5,-19.5 303.5,-19.5 303.5,-.5 218.5,-.5"/>
<text text-anchor="middle" x="261" y="-7.5" font-family="Helvetica,sans-Serif" font-size="10.00" fill="#000000">js_parse_delete</text>
</a>
</g>
</g>
<!-- Node308276&#45;&gt;Node308291 -->
<g id="edge40" class="edge">
<title>Node308276&#45;&gt;Node308291</title>
<path fill="none" stroke="#191970" d="M136.6661,-591.3456C142.5084,-495.4672 169.6788,-79.5982 204,-34 208.7783,-27.6517 215.5568,-22.9682 222.7801,-19.5174"/>
<polygon fill="#191970" stroke="#191970" points="133.1678,-591.2131 136.0603,-601.4054 140.1552,-591.6339 133.1678,-591.2131"/>
</g>
<!-- Node308314 -->
<g id="node19" class="node">
<title>Node308314</title>
<g id="a_node19"><a xlink:href="quickjs_8c.html#ab10609a91c359ea5d3051f7bb646af83" target="_top" xlink:title="js_parse_destructuring_var">
<polygon fill="none" stroke="#000000" points="671,-696.5 671,-715.5 805,-715.5 805,-696.5 671,-696.5"/>
<text text-anchor="middle" x="738" y="-703.5" font-family="Helvetica,sans-Serif" font-size="10.00" fill="#000000">js_parse_destructuring_var</text>
</a>
</g>
</g>
<!-- Node308276&#45;&gt;Node308314 -->
<g id="edge42" class="edge">
<title>Node308276&#45;&gt;Node308314</title>
<path fill="none" stroke="#191970" d="M178.277,-617.7449C283.6109,-634.3536 555.773,-677.2671 677.5464,-696.4679"/>
<polygon fill="#191970" stroke="#191970" points="178.744,-614.2754 168.3209,-616.1751 177.6537,-621.19 178.744,-614.2754"/>
</g>
<!-- Node308315 -->
<g id="node20" class="node">
<title>Node308315</title>
<g id="a_node20"><a xlink:href="quickjs_8c.html#a64f81788f15df1683a1f8c3919cfd6fd" target="_top" xlink:title="js_parse_directives">
<polygon fill="none" stroke="#000000" points="523.5,-418.5 523.5,-437.5 624.5,-437.5 624.5,-418.5 523.5,-418.5"/>
<text text-anchor="middle" x="574" y="-425.5" font-family="Helvetica,sans-Serif" font-size="10.00" fill="#000000">js_parse_directives</text>
</a>
</g>
</g>
<!-- Node308276&#45;&gt;Node308315 -->
<g id="edge44" class="edge">
<title>Node308276&#45;&gt;Node308315</title>
<path fill="none" stroke="#191970" d="M145.3656,-592.5981C160.0815,-565.817 187.7828,-518.0795 204,-507 255.5234,-471.7995 434.3784,-445.3332 523.1759,-434.0262"/>
<polygon fill="#191970" stroke="#191970" points="142.2766,-590.9524 140.5768,-601.41 148.4271,-594.2949 142.2766,-590.9524"/>
</g>
<!-- Node308305 -->
<g id="node21" class="node">
<title>Node308305</title>
<g id="a_node21"><a xlink:href="quickjs_8c.html#aec05caae64451720670d1a56040110b3" target="_top" xlink:title="js_parse_program">
<polygon fill="none" stroke="#ff0000" points="691,-348.5 691,-367.5 785,-367.5 785,-348.5 691,-348.5"/>
<text text-anchor="middle" x="738" y="-355.5" font-family="Helvetica,sans-Serif" font-size="10.00" fill="#000000">js_parse_program</text>
</a>
</g>
</g>
<!-- Node308276&#45;&gt;Node308305 -->
<g id="edge84" class="edge">
<title>Node308276&#45;&gt;Node308305</title>
<path fill="none" stroke="#191970" d="M139.417,-591.4854C149.0479,-545.4955 175.2047,-432.3529 204,-408 276.6966,-346.5188 574.0085,-351.3571 690.6881,-355.7919"/>
<polygon fill="#191970" stroke="#191970" points="135.9633,-590.9046 137.3795,-601.4043 142.8201,-592.3131 135.9633,-590.9046"/>
</g>
<!-- Node308316 -->
<g id="node22" class="node">
<title>Node308316</title>
<g id="a_node22"><a xlink:href="quickjs_8c.html#aeca8ed71e1eef8ec809afab744958c28" target="_top" xlink:title="js_parse_expect">
<polygon fill="none" stroke="#ff0000" points="217,-886.5 217,-905.5 305,-905.5 305,-886.5 217,-886.5"/>
<text text-anchor="middle" x="261" y="-893.5" font-family="Helvetica,sans-Serif" font-size="10.00" fill="#000000">js_parse_expect</text>
</a>
</g>
</g>
<!-- Node308276&#45;&gt;Node308316 -->
<g id="edge47" class="edge">
<title>Node308276&#45;&gt;Node308316</title>
<path fill="none" stroke="#191970" d="M138.5057,-630.5955C145.3143,-670.9038 164.4869,-765.1033 204,-834 216.0752,-855.0548 236.4572,-874.8734 249.2959,-886.206"/>
<polygon fill="#191970" stroke="#191970" points="141.9271,-629.8278 136.8748,-620.5152 135.017,-630.9459 141.9271,-629.8278"/>
</g>
<!-- Node308317 -->
<g id="node23" class="node">
<title>Node308317</title>
<g id="a_node23"><a xlink:href="quickjs_8c.html#aa24f7964f6d938a05c3c3c03af5a01e9" target="_top" xlink:title="js_parse_import">
<polygon fill="none" stroke="#ff0000" points="372.5,-190.5 372.5,-209.5 458.5,-209.5 458.5,-190.5 372.5,-190.5"/>
<text text-anchor="middle" x="415.5" y="-197.5" font-family="Helvetica,sans-Serif" font-size="10.00" fill="#000000">js_parse_import</text>
</a>
</g>
</g>
<!-- Node308276&#45;&gt;Node308317 -->
<g id="edge80" class="edge">
<title>Node308276&#45;&gt;Node308317</title>
<path fill="none" stroke="#191970" d="M136.0012,-591.1897C138.2499,-519.4665 149.8328,-274.8988 204,-224 248.8394,-181.8662 324.8187,-184.3871 372.4643,-191.2996"/>
<polygon fill="#191970" stroke="#191970" points="132.4938,-591.402 135.7067,-601.4979 139.4909,-591.602 132.4938,-591.402"/>
</g>
<!-- Node308302 -->
<g id="node24" class="node">
<title>Node308302</title>
<g id="a_node24"><a xlink:href="quickjs_8c.html#a42234753f3193f37ce45b3c0ca4c25cd" target="_top" xlink:title="js_parse_property_name">
<polygon fill="none" stroke="#000000" points="354,-696.5 354,-715.5 477,-715.5 477,-696.5 354,-696.5"/>
<text text-anchor="middle" x="415.5" y="-703.5" font-family="Helvetica,sans-Serif" font-size="10.00" fill="#000000">js_parse_property_name</text>
</a>
</g>
</g>
<!-- Node308276&#45;&gt;Node308302 -->
<g id="edge85" class="edge">
<title>Node308276&#45;&gt;Node308302</title>
<path fill="none" stroke="#191970" d="M162.1363,-625.0882C174.6348,-631.371 189.8615,-638.5641 204,-644 262.5729,-666.5196 332.899,-685.6308 375.8811,-696.4586"/>
<polygon fill="#191970" stroke="#191970" points="163.6705,-621.9418 153.1735,-620.5053 160.4837,-628.1743 163.6705,-621.9418"/>
</g>
<!-- Node308318 -->
<g id="node25" class="node">
<title>Node308318</title>
<g id="a_node25"><a xlink:href="quickjs_8c.html#a02cbd69384985a4e904190810cf45641" target="_top" xlink:title="js_parse_expect_semi">
<polygon fill="none" stroke="#ff0000" points="204,-152.5 204,-171.5 318,-171.5 318,-152.5 204,-152.5"/>
<text text-anchor="middle" x="261" y="-159.5" font-family="Helvetica,sans-Serif" font-size="10.00" fill="#000000">js_parse_expect_semi</text>
</a>
</g>
</g>
<!-- Node308276&#45;&gt;Node308318 -->
<g id="edge63" class="edge">
<title>Node308276&#45;&gt;Node308318</title>
<path fill="none" stroke="#191970" d="M136.2189,-590.7528C139.28,-515.1299 153.4823,-250.2862 204,-186 208.9757,-179.6682 215.9283,-174.9865 223.2724,-171.5315"/>
<polygon fill="#191970" stroke="#191970" points="132.704,-591.079 135.8194,-601.2054 139.6989,-591.3464 132.704,-591.079"/>
</g>
<!-- Node308292 -->
<g id="node26" class="node">
<title>Node308292</title>
<g id="a_node26"><a xlink:href="quickjs_8c.html#ab1c84e1eb8a5f06b9257c3c9b5a6f024" target="_top" xlink:title="js_parse_expr_binary">
<polygon fill="none" stroke="#000000" points="206.5,-1550.5 206.5,-1569.5 315.5,-1569.5 315.5,-1550.5 206.5,-1550.5"/>
<text text-anchor="middle" x="261" y="-1557.5" font-family="Helvetica,sans-Serif" font-size="10.00" fill="#000000">js_parse_expr_binary</text>
</a>
</g>
</g>
<!-- Node308276&#45;&gt;Node308292 -->
<g id="edge69" class="edge">
<title>Node308276&#45;&gt;Node308292</title>
<path fill="none" stroke="#191970" d="M135.7451,-631.0447C137.4719,-759.1233 149.3821,-1459.9934 204,-1536 208.574,-1542.3652 215.1743,-1547.0518 222.2733,-1550.4995"/>
<polygon fill="#191970" stroke="#191970" points="139.2412,-630.7145 135.6122,-620.7606 132.2418,-630.8051 139.2412,-630.7145"/>
</g>
<!-- Node308293 -->
<g id="node27" class="node">
<title>Node308293</title>
<g id="a_node27"><a xlink:href="quickjs_8c.html#a2af8c0e05d949d0ae23d94c8e73e5494" target="_top" xlink:title="js_parse_logical_and_or">
<polygon fill="none" stroke="#000000" points="355,-1588.5 355,-1607.5 476,-1607.5 476,-1588.5 355,-1588.5"/>
<text text-anchor="middle" x="415.5" y="-1595.5" font-family="Helvetica,sans-Serif" font-size="10.00" fill="#000000">js_parse_logical_and_or</text>
</a>
</g>
</g>
<!-- Node308276&#45;&gt;Node308293 -->
<g id="edge81" class="edge">
<title>Node308276&#45;&gt;Node308293</title>
<path fill="none" stroke="#191970" d="M136.1232,-630.9528C140.4894,-767.7503 167.3921,-1562.6849 204,-1597 254.6326,-1644.4614 345.783,-1622.3882 390.0264,-1607.5832"/>
<polygon fill="#191970" stroke="#191970" points="139.6135,-630.5884 135.7992,-620.704 132.617,-630.8096 139.6135,-630.5884"/>
</g>
<!-- Node308319 -->
<g id="node28" class="node">
<title>Node308319</title>
<g id="a_node28"><a xlink:href="quickjs_8c.html#a736435f0774c85e09f2817c97ec47bbf" target="_top" xlink:title="js_parse_from_clause">
<polygon fill="none" stroke="#000000" points="205,-114.5 205,-133.5 317,-133.5 317,-114.5 205,-114.5"/>
<text text-anchor="middle" x="261" y="-121.5" font-family="Helvetica,sans-Serif" font-size="10.00" fill="#000000">js_parse_from_clause</text>
</a>
</g>
</g>
<!-- Node308276&#45;&gt;Node308319 -->
<g id="edge76" class="edge">
<title>Node308276&#45;&gt;Node308319</title>
<path fill="none" stroke="#191970" d="M135.7219,-591.1852C137.0098,-511.138 145.7073,-212.6034 204,-143 207.2148,-139.1614 211.2279,-136.0944 215.627,-133.6444"/>
<polygon fill="#191970" stroke="#191970" points="132.22,-591.3092 135.5807,-601.3569 139.2193,-591.4065 132.22,-591.3092"/>
</g>
<!-- Node308320 -->
<g id="node29" class="node">
<title>Node308320</title>
<g id="a_node29"><a xlink:href="quickjs_8c.html#aba7eb7aae2eb61bfccb4565ee626cd18" target="_top" xlink:title="js_parse_seek_token">
<polygon fill="none" stroke="#000000" points="361,-500.5 361,-519.5 470,-519.5 470,-500.5 361,-500.5"/>
<text text-anchor="middle" x="415.5" y="-507.5" font-family="Helvetica,sans-Serif" font-size="10.00" fill="#000000">js_parse_seek_token</text>
</a>
</g>
</g>
<!-- Node308276&#45;&gt;Node308320 -->
<g id="edge86" class="edge">
<title>Node308276&#45;&gt;Node308320</title>
<path fill="none" stroke="#191970" d="M147.3838,-593.0932C159.5106,-576.401 179.9315,-552.29 204,-540 253.0487,-514.9545 316.361,-508.871 360.8845,-508.1782"/>
<polygon fill="#191970" stroke="#191970" points="144.3827,-591.2777 141.5295,-601.4811 150.1229,-595.284 144.3827,-591.2777"/>
</g>
<!-- Node308321 -->
<g id="node30" class="node">
<title>Node308321</title>
<g id="a_node30"><a xlink:href="quickjs_8c.html#ac00298085baf11a4a7bd600cf5de2e6d" target="_top" xlink:title="js_parse_skip_parens\l_token">
<polygon fill="none" stroke="#ff0000" points="518.5,-571 518.5,-601 629.5,-601 629.5,-571 518.5,-571"/>
<text text-anchor="start" x="526.5" y="-589" font-family="Helvetica,sans-Serif" font-size="10.00" fill="#000000">js_parse_skip_parens</text>
<text text-anchor="middle" x="574" y="-578" font-family="Helvetica,sans-Serif" font-size="10.00" fill="#000000">_token</text>
</a>
</g>
</g>
<!-- Node308276&#45;&gt;Node308321 -->
<g id="edge95" class="edge">
<title>Node308276&#45;&gt;Node308321</title>
<path fill="none" stroke="#191970" d="M159.2758,-596.2737C172.0272,-589.2376 188.3096,-581.5824 204,-578 313.1488,-553.0792 445.1326,-565.7902 518.2964,-576.4497"/>
<polygon fill="#191970" stroke="#191970" points="157.1987,-593.4309 150.2811,-601.4558 160.6932,-599.4963 157.1987,-593.4309"/>
</g>
<!-- Node308277&#45;&gt;Node308278 -->
<g id="edge3" class="edge">
<title>Node308277&#45;&gt;Node308278</title>
<path fill="none" stroke="#191970" d="M604.255,-394.0315C671.3634,-403.9715 836.2137,-433.956 956,-502 994.5513,-523.8989 1030.1068,-563.9321 1045.272,-582.3097"/>
<polygon fill="#191970" stroke="#191970" points="604.7421,-390.5656 594.3455,-392.6055 603.745,-397.4943 604.7421,-390.5656"/>
</g>
<!-- Node308298&#45;&gt;Node308286 -->
<g id="edge5" class="edge">
<title>Node308298&#45;&gt;Node308286</title>
<path fill="none" stroke="#191970" d="M589.1643,-992.4316C622.8726,-953.3793 703.1208,-860.4088 729.4619,-829.8917"/>
<polygon fill="#191970" stroke="#191970" points="586.2429,-990.4597 582.3583,-1000.3167 591.5419,-995.0336 586.2429,-990.4597"/>
</g>
<!-- Node308286&#45;&gt;Node308278 -->
<g id="edge19" class="edge">
<title>Node308286&#45;&gt;Node308278</title>
<path fill="none" stroke="#191970" d="M791.6882,-808.154C847.5267,-795.0308 930.322,-773.0676 956,-753 1009.995,-710.8024 1040.677,-629.4963 1049.9599,-601.6394"/>
<polygon fill="#191970" stroke="#191970" points="790.8879,-804.7466 781.9401,-810.4199 792.4728,-811.5649 790.8879,-804.7466"/>
</g>
<!-- Node308286&#45;&gt;Node308286 -->
<g id="edge18" class="edge">
<title>Node308286&#45;&gt;Node308286</title>
<path fill="none" stroke="#191970" d="M708.0599,-838.2746C708.9135,-843.741 718.8936,-848 738,-848 766.4375,-848 774.6577,-838.5653 762.6606,-829.7571"/>
<polygon fill="#191970" stroke="#191970" points="711.0458,-840.1007 713.3394,-829.7571 705.096,-836.4128 711.0458,-840.1007"/>
</g>
<!-- Node308286&#45;&gt;Node308285 -->
<g id="edge6" class="edge">
<title>Node308286&#45;&gt;Node308285</title>
<path fill="none" stroke="#191970" d="M804.3894,-815.6484C934.135,-812.2044 1217.9096,-812.4695 1323.9459,-816.4436"/>
<polygon fill="#191970" stroke="#191970" points="804.091,-812.1554 794.1939,-815.9364 804.2887,-819.1526 804.091,-812.1554"/>
</g>
<!-- Node308286&#45;&gt;Node308287 -->
<g id="edge9" class="edge">
<title>Node308286&#45;&gt;Node308287</title>
<path fill="none" stroke="#191970" d="M760.931,-806.7614C774.4526,-801.7315 791.5017,-795.6812 805,-787 824.2974,-774.5892 824.1708,-765.5948 841,-750 849.8705,-741.7801 859.8845,-733.1978 869.0405,-726.0326"/>
<polygon fill="#191970" stroke="#191970" points="759.4685,-803.574 751.3957,-810.4356 761.9854,-810.1059 759.4685,-803.574"/>
</g>
<!-- Node308285&#45;&gt;Node308286 -->
<g id="edge7" class="edge">
<title>Node308285&#45;&gt;Node308286</title>
<path fill="none" stroke="#191970" d="M1313.9002,-823.9051C1197.8182,-827.6447 914.9889,-827.6976 794.1939,-824.0636"/>
<polygon fill="#191970" stroke="#191970" points="1314.0733,-827.4013 1323.9459,-823.5564 1313.8305,-820.4055 1314.0733,-827.4013"/>
</g>
<!-- Node308285&#45;&gt;Node308289 -->
<g id="edge8" class="edge">
<title>Node308285&#45;&gt;Node308289</title>
<path fill="none" stroke="#191970" d="M1416.5012,-820C1424.9996,-820 1433.7303,-820 1441.9924,-820"/>
<polygon fill="#191970" stroke="#191970" points="1416.2972,-816.5001 1406.2972,-820 1416.2972,-823.5001 1416.2972,-816.5001"/>
</g>
<!-- Node308287&#45;&gt;Node308278 -->
<g id="edge12" class="edge">
<title>Node308287&#45;&gt;Node308278</title>
<path fill="none" stroke="#191970" d="M926.139,-689.7117C959.8659,-663.7343 1015.461,-620.9136 1040.3115,-601.773"/>
<polygon fill="#191970" stroke="#191970" points="923.8542,-687.0536 918.0675,-695.9286 928.1257,-692.5993 923.8542,-687.0536"/>
</g>
<!-- Node308287&#45;&gt;Node308286 -->
<g id="edge11" class="edge">
<title>Node308287&#45;&gt;Node308286</title>
<path fill="none" stroke="#191970" d="M880.2841,-733.1318C868.7667,-743.7011 853.7097,-756.2226 841,-768 824.1708,-783.5948 824.2974,-792.5892 805,-805 801.5706,-807.2055 797.9121,-809.2413 794.1404,-811.095"/>
<polygon fill="#191970" stroke="#191970" points="882.7827,-735.5857 887.6199,-726.1596 877.9602,-730.5118 882.7827,-735.5857"/>
</g>
<!-- Node308287&#45;&gt;Node308287 -->
<g id="edge10" class="edge">
<title>Node308287&#45;&gt;Node308287</title>
<path fill="none" stroke="#191970" d="M871.1361,-736.4579C874.5323,-741.179 883.6536,-744.5 898.5,-744.5 922.8633,-744.5 931.8092,-735.5566 925.3377,-726.159"/>
<polygon fill="#191970" stroke="#191970" points="874.6473,-736.3246 871.6623,-726.159 867.6565,-735.9673 874.6473,-736.3246"/>
</g>
<!-- Node308287&#45;&gt;Node308283 -->
<g id="edge13" class="edge">
<title>Node308287&#45;&gt;Node308283</title>
<path fill="none" stroke="#191970" d="M919.9807,-733.9405C954.3373,-770.6321 1020.2096,-840.9811 1044.0821,-866.4761"/>
<polygon fill="#191970" stroke="#191970" points="922.1479,-731.1343 912.7581,-726.2271 917.0382,-735.9188 922.1479,-731.1343"/>
</g>
<!-- Node308283&#45;&gt;Node308285 -->
<g id="edge16" class="edge">
<title>Node308283&#45;&gt;Node308285</title>
<path fill="none" stroke="#191970" d="M1124.3607,-868.8115C1171.1997,-863.3996 1233.6253,-854.8678 1288,-843 1304.357,-839.4299 1322.2982,-834.1531 1336.7444,-829.554"/>
<polygon fill="#191970" stroke="#191970" points="1123.8526,-865.3466 1114.3113,-869.9525 1124.6423,-872.3019 1123.8526,-865.3466"/>
</g>
<!-- Node308283&#45;&gt;Node308289 -->
<g id="edge17" class="edge">
<title>Node308283&#45;&gt;Node308289</title>
<path fill="none" stroke="#191970" d="M1124.1942,-877.822C1170.9647,-878.0513 1233.3766,-876.5184 1288,-869 1348.2272,-860.7103 1416.7356,-841.3441 1455.0191,-829.5926"/>
<polygon fill="#191970" stroke="#191970" points="1124.1874,-874.322 1114.1607,-877.7448 1124.1334,-881.3218 1124.1874,-874.322"/>
</g>
<!-- Node308283&#45;&gt;Node308284 -->
<g id="edge14" class="edge">
<title>Node308283&#45;&gt;Node308284</title>
<path fill="none" stroke="#191970" d="M1059.9239,-857.0219C1088.2103,-779.4898 1194.489,-488.1837 1215.4113,-430.8365"/>
<polygon fill="#191970" stroke="#191970" points="1056.6066,-855.9028 1056.4671,-866.4967 1063.1826,-858.302 1056.6066,-855.9028"/>
</g>
<!-- Node308284&#45;&gt;Node308285 -->
<g id="edge15" class="edge">
<title>Node308284&#45;&gt;Node308285</title>
<path fill="none" stroke="#191970" d="M1253.0719,-435.187C1265.8216,-442.1066 1279.3058,-451.6464 1288,-464 1329.4888,-522.9517 1358.1531,-759.2795 1363.927,-810.2709"/>
<polygon fill="#191970" stroke="#191970" points="1254.5016,-431.9882 1243.997,-430.6088 1251.3487,-438.2379 1254.5016,-431.9882"/>
</g>
<!-- Node308296&#45;&gt;Node308278 -->
<g id="edge31" class="edge">
<title>Node308296&#45;&gt;Node308278</title>
<path fill="none" stroke="#191970" d="M479.5466,-1140.6088C534.2125,-1130.2522 608.1185,-1114.5619 635,-1101 640.5414,-1098.2043 800.5482,-960.3248 805,-956 876.772,-886.2747 899.8028,-871.7932 956,-789 1001.3893,-722.1296 1038.1243,-630.9125 1049.4111,-601.532"/>
<polygon fill="#191970" stroke="#191970" points="478.762,-1137.1949 469.5788,-1142.4789 480.0528,-1144.0749 478.762,-1137.1949"/>
</g>
<!-- Node308296&#45;&gt;Node308298 -->
<g id="edge24" class="edge">
<title>Node308296&#45;&gt;Node308298</title>
<path fill="none" stroke="#191970" d="M437.8956,-1136.3045C450.4191,-1126.7809 465.7277,-1113.8224 477,-1100 498.117,-1074.1057 487.9492,-1056.1111 513,-1034 520.0818,-1027.7493 528.9836,-1023.0289 537.781,-1019.5037"/>
<polygon fill="#191970" stroke="#191970" points="435.7188,-1133.561 429.7542,-1142.3173 439.8775,-1139.1918 435.7188,-1133.561"/>
</g>
<!-- Node308296&#45;&gt;Node308286 -->
<g id="edge26" class="edge">
<title>Node308296&#45;&gt;Node308286</title>
<path fill="none" stroke="#191970" d="M434.4848,-1135.8227C460.362,-1113.8659 504.4789,-1076.7999 513,-1072 563.0912,-1043.7838 592.0013,-1067.1628 635,-1029 700.0469,-971.2686 728.4851,-863.0924 735.9258,-829.923"/>
<polygon fill="#191970" stroke="#191970" points="432.1454,-1133.2175 426.7922,-1142.3605 436.6787,-1138.5514 432.1454,-1133.2175"/>
</g>
<!-- Node308296&#45;&gt;Node308285 -->
<g id="edge23" class="edge">
<title>Node308296&#45;&gt;Node308285</title>
<path fill="none" stroke="#191970" d="M481.0214,-1160.9228C662.3118,-1184.1063 1165.2848,-1237.7821 1288,-1138 1338.0227,-1097.3256 1359.8761,-878.7508 1364.1853,-829.7519"/>
<polygon fill="#191970" stroke="#191970" points="481.4545,-1157.4498 471.089,-1159.6419 480.5591,-1164.3923 481.4545,-1157.4498"/>
</g>
<!-- Node308296&#45;&gt;Node308289 -->
<g id="edge32" class="edge">
<title>Node308296&#45;&gt;Node308289</title>
<path fill="none" stroke="#191970" d="M445.4667,-1165.6262C501.6179,-1189.8756 627.032,-1238 738,-1238 738,-1238 738,-1238 1219,-1238 1419.4202,-1238 1475.3633,-891.7353 1483.7978,-829.5159"/>
<polygon fill="#191970" stroke="#191970" points="446.6838,-1162.3383 436.1197,-1161.5321 443.8753,-1168.7502 446.6838,-1162.3383"/>
</g>
<!-- Node308296&#45;&gt;Node308287 -->
<g id="edge25" class="edge">
<title>Node308296&#45;&gt;Node308287</title>
<path fill="none" stroke="#191970" d="M446.4611,-1138.2293C465.551,-1129.8469 490.5869,-1119.0473 513,-1110 566.7357,-1088.3091 587.901,-1097.7595 635,-1064 683.38,-1029.3224 769.9995,-905.1469 805,-857 838.4503,-810.9855 873.4722,-753.3357 889.5127,-726.3114"/>
<polygon fill="#191970" stroke="#191970" points="444.8047,-1135.1344 437.0657,-1142.3703 447.6279,-1141.5398 444.8047,-1135.1344"/>
</g>
<!-- Node308296&#45;&gt;Node308283 -->
<g id="edge33" class="edge">
<title>Node308296&#45;&gt;Node308283</title>
<path fill="none" stroke="#191970" d="M481.374,-1153.8626C525.4586,-1153.6384 584.4424,-1150.4822 635,-1138 792.1382,-1099.204 827.8515,-1064.8711 956,-966 990.5577,-939.3375 1027.2505,-902.6763 1043.8733,-885.5451"/>
<polygon fill="#191970" stroke="#191970" points="481.3537,-1150.3625 471.3544,-1153.8646 481.3552,-1157.3625 481.3537,-1150.3625"/>
</g>
<!-- Node308296&#45;&gt;Node308296 -->
<g id="edge29" class="edge">
<title>Node308296&#45;&gt;Node308296</title>
<path fill="none" stroke="#191970" d="M386.7542,-1170.6539C387.9558,-1175.9368 397.5377,-1180 415.5,-1180 442.8711,-1180 450.7831,-1170.5653 439.2359,-1161.7571"/>
<polygon fill="#191970" stroke="#191970" points="389.9072,-1172.1879 391.7641,-1161.7571 383.8077,-1168.7532 389.9072,-1172.1879"/>
</g>
<!-- Node308296&#45;&gt;Node308297 -->
<g id="edge21" class="edge">
<title>Node308296&#45;&gt;Node308297</title>
<path fill="none" stroke="#191970" d="M429.9313,-1134.2007C443.1213,-1117.4603 462.6939,-1091.3922 477,-1067 482.6159,-1057.4248 551.4371,-907.2856 569.6187,-867.5738"/>
<polygon fill="#191970" stroke="#191970" points="426.8338,-1132.4713 423.3342,-1142.4715 432.3062,-1136.8363 426.8338,-1132.4713"/>
</g>
<!-- Node308296&#45;&gt;Node308295 -->
<g id="edge27" class="edge">
<title>Node308296&#45;&gt;Node308295</title>
<path fill="none" stroke="#191970" d="M436.4207,-1168.8494C455.4094,-1188.0286 484.6899,-1219.0507 513,-1243 590.6594,-1308.6971 695.7101,-1373.5683 728.0895,-1398.3432"/>
<polygon fill="#191970" stroke="#191970" points="438.743,-1166.2226 429.1876,-1161.6459 433.8034,-1171.1825 438.743,-1166.2226"/>
</g>
<!-- Node308296&#45;&gt;Node308299 -->
<g id="edge30" class="edge">
<title>Node308296&#45;&gt;Node308299</title>
<path fill="none" stroke="#191970" d="M420.2593,-1171.4877C430.6253,-1210.0202 458.7801,-1296.4959 513,-1346 519.8076,-1352.2155 528.4141,-1356.9004 536.9997,-1360.4011"/>
<polygon fill="#191970" stroke="#191970" points="423.5858,-1170.3705 417.7015,-1161.56 416.8072,-1172.117 423.5858,-1170.3705"/>
</g>
<!-- Node308297&#45;&gt;Node308286 -->
<g id="edge22" class="edge">
<title>Node308297&#45;&gt;Node308286</title>
<path fill="none" stroke="#191970" d="M625.341,-846.1039C648.3929,-840.7626 675.2211,-834.5463 696.9135,-829.5201"/>
<polygon fill="#191970" stroke="#191970" points="624.336,-842.744 615.3841,-848.411 625.9161,-849.5633 624.336,-842.744"/>
</g>
<!-- Node308295&#45;&gt;Node308296 -->
<g id="edge28" class="edge">
<title>Node308295&#45;&gt;Node308296</title>
<path fill="none" stroke="#191970" d="M704.4362,-1393.6729C659.1563,-1368.4327 576.8269,-1314.9953 513,-1261 474.3103,-1228.2699 433.808,-1182.33 420.2402,-1161.6673"/>
<polygon fill="#191970" stroke="#191970" points="702.7939,-1396.7638 713.249,-1398.479 706.1454,-1390.6183 702.7939,-1396.7638"/>
</g>
<!-- Node308294&#45;&gt;Node308295 -->
<g id="edge38" class="edge">
<title>Node308294&#45;&gt;Node308295</title>
<path fill="none" stroke="#191970" d="M593.7092,-1525.0163C628.0276,-1497.1849 697.7752,-1440.6214 725.8699,-1417.8372"/>
<polygon fill="#191970" stroke="#191970" points="591.3568,-1522.4177 585.7945,-1531.435 595.766,-1527.8546 591.3568,-1522.4177"/>
</g>
<!-- Node308314&#45;&gt;Node308287 -->
<g id="edge43" class="edge">
<title>Node308314&#45;&gt;Node308287</title>
<path fill="none" stroke="#191970" d="M815.2078,-708.4052C823.8257,-708.6737 832.4905,-708.9436 840.8038,-709.2026"/>
<polygon fill="#191970" stroke="#191970" points="815.2407,-704.9046 805.1365,-708.0915 815.0226,-711.9013 815.2407,-704.9046"/>
</g>
<!-- Node308315&#45;&gt;Node308283 -->
<g id="edge45" class="edge">
<title>Node308315&#45;&gt;Node308283</title>
<path fill="none" stroke="#191970" d="M604.5134,-441.9061C674.6279,-475.1488 849.3782,-565.5086 956,-686 1008.0322,-744.8007 1040.4078,-836.513 1049.9998,-866.3021"/>
<polygon fill="#191970" stroke="#191970" points="605.8721,-438.6775 595.3324,-437.5973 602.898,-445.0143 605.8721,-438.6775"/>
</g>
<!-- Node308315&#45;&gt;Node308305 -->
<g id="edge46" class="edge">
<title>Node308315&#45;&gt;Node308305</title>
<path fill="none" stroke="#191970" d="M617.6776,-415.3176C623.5517,-413.3442 629.4587,-411.2187 635,-409 666.1207,-396.5392 700.7539,-378.4693 720.8868,-367.5187"/>
<polygon fill="#191970" stroke="#191970" points="616.3293,-412.0752 607.8932,-418.4848 618.4851,-418.735 616.3293,-412.0752"/>
</g>
<!-- Node308316&#45;&gt;Node308278 -->
<g id="edge54" class="edge">
<title>Node308316&#45;&gt;Node308278</title>
<path fill="none" stroke="#191970" d="M266.2074,-876.5939C277.3642,-837.6038 306.4913,-748.2558 354,-687 409.2584,-615.752 427.8488,-590.6488 513,-561 697.681,-496.696 939.2365,-557.5257 1022.9228,-582.4552"/>
<polygon fill="#191970" stroke="#191970" points="262.7898,-875.8201 263.4824,-886.3922 269.5339,-877.6957 262.7898,-875.8201"/>
</g>
<!-- Node308316&#45;&gt;Node308298 -->
<g id="edge48" class="edge">
<title>Node308316&#45;&gt;Node308298</title>
<path fill="none" stroke="#191970" d="M273.5519,-913.918C289.5394,-935.1551 319.2958,-969.7114 354,-986 406.3448,-1010.5684 473.1789,-1014.5445 519.375,-1013.6491"/>
<polygon fill="#191970" stroke="#191970" points="276.2926,-911.7362 267.5689,-905.7239 270.6392,-915.8641 276.2926,-911.7362"/>
</g>
<!-- Node308316&#45;&gt;Node308286 -->
<g id="edge58" class="edge">
<title>Node308316&#45;&gt;Node308286</title>
<path fill="none" stroke="#191970" d="M315.2413,-900.779C389.1323,-905.6071 524.8388,-908.4512 635,-877 670.1775,-866.9567 706.5189,-843.0907 725.198,-829.6423"/>
<polygon fill="#191970" stroke="#191970" points="315.4518,-897.2853 305.2344,-900.0879 314.9694,-904.2687 315.4518,-897.2853"/>
</g>
<!-- Node308316&#45;&gt;Node308285 -->
<g id="edge50" class="edge">
<title>Node308316&#45;&gt;Node308285</title>
<path fill="none" stroke="#191970" d="M311.7136,-908.6315C313.8521,-909.3886 315.9557,-910.1783 318,-911 334.9826,-917.8267 336.8618,-924.5739 354,-931 473.5749,-975.8352 514.5596,-948.5448 635,-991 758.722,-1034.6119 767.3164,-1124 898.5,-1124 898.5,-1124 898.5,-1124 1053,-1124 1225.8089,-1124 1338.696,-881.8045 1360.9549,-829.7703"/>
<polygon fill="#191970" stroke="#191970" points="312.7823,-905.2987 302.1898,-905.5217 310.6094,-911.9529 312.7823,-905.2987"/>
</g>
<!-- Node308316&#45;&gt;Node308289 -->
<g id="edge53" class="edge">
<title>Node308316&#45;&gt;Node308289</title>
<path fill="none" stroke="#191970" d="M264.9035,-915.4527C277.0106,-974.0962 315.4345,-1147.6676 354,-1189 425.7314,-1265.8779 468.8544,-1276 574,-1276 574,-1276 574,-1276 1219,-1276 1316.3374,-1276 1353.219,-1243.7847 1406,-1162 1443.5873,-1103.7581 1476.7583,-878.9418 1483.6782,-829.6069"/>
<polygon fill="#191970" stroke="#191970" points="268.3246,-914.7118 262.8976,-905.6124 261.4656,-916.11 268.3246,-914.7118"/>
</g>
<!-- Node308316&#45;&gt;Node308287 -->
<g id="edge52" class="edge">
<title>Node308316&#45;&gt;Node308287</title>
<path fill="none" stroke="#191970" d="M298.0982,-883.1093C315.0696,-877.3476 335.4815,-870.6069 354,-865 552.8505,-804.7929 606.1012,-802.0475 805,-742 821.208,-737.1068 838.8632,-731.3621 854.4223,-726.1562"/>
<polygon fill="#191970" stroke="#191970" points="296.8756,-879.8283 288.5435,-886.3726 299.1381,-886.4526 296.8756,-879.8283"/>
</g>
<!-- Node308316&#45;&gt;Node308283 -->
<g id="edge55" class="edge">
<title>Node308316&#45;&gt;Node308283</title>
<path fill="none" stroke="#191970" d="M306.9275,-907.8927C321.835,-911.2097 338.5219,-914.3545 354,-916 408.3603,-921.7791 422.3348,-916.3994 477,-916 689.9059,-914.4444 746.2034,-945.2869 956,-909 982.6424,-904.3919 1011.8432,-893.6221 1031.1719,-885.6322"/>
<polygon fill="#191970" stroke="#191970" points="307.4589,-904.4234 296.9279,-905.5851 305.8848,-911.2441 307.4589,-904.4234"/>
</g>
<!-- Node308316&#45;&gt;Node308297 -->
<g id="edge57" class="edge">
<title>Node308316&#45;&gt;Node308297</title>
<path fill="none" stroke="#191970" d="M315.3723,-887.4347C328.0368,-885.5453 341.479,-883.6247 354,-882 409.4379,-874.8064 472.9256,-868.0371 517.4045,-863.5336"/>
<polygon fill="#191970" stroke="#191970" points="314.7807,-883.9843 305.4148,-888.9371 315.8251,-890.906 314.7807,-883.9843"/>
</g>
<!-- Node308316&#45;&gt;Node308295 -->
<g id="edge51" class="edge">
<title>Node308316&#45;&gt;Node308295</title>
<path fill="none" stroke="#191970" d="M263.6662,-915.9418C273.4923,-987.1513 309.4343,-1227.9494 354,-1290 402.5611,-1357.6136 433.9956,-1362.7685 513,-1389 569.9227,-1407.8998 639.1734,-1410.9951 685.6839,-1410.4263"/>
<polygon fill="#191970" stroke="#191970" points="267.0871,-915.1228 262.2709,-905.6859 260.151,-916.0664 267.0871,-915.1228"/>
</g>
<!-- Node308316&#45;&gt;Node308281 -->
<g id="edge49" class="edge">
<title>Node308316&#45;&gt;Node308281</title>
<path fill="none" stroke="#191970" d="M273.5669,-913.8481C297.7188,-948.0717 348.7101,-1019.9176 354,-1024 361.894,-1030.092 371.5254,-1034.8152 380.8016,-1038.3964"/>
<polygon fill="#191970" stroke="#191970" points="276.4096,-911.806 267.7869,-905.6498 270.6885,-915.8396 276.4096,-911.806"/>
</g>
<!-- Node308316&#45;&gt;Node308317 -->
<g id="edge56" class="edge">
<title>Node308316&#45;&gt;Node308317</title>
<path fill="none" stroke="#191970" d="M265.2949,-876.6522C288.3365,-772.853 396.8732,-283.9112 413.3905,-209.5032"/>
<polygon fill="#191970" stroke="#191970" points="261.8756,-875.9051 263.1253,-886.426 268.7092,-877.4221 261.8756,-875.9051"/>
</g>
<!-- Node308316&#45;&gt;Node308302 -->
<g id="edge59" class="edge">
<title>Node308316&#45;&gt;Node308302</title>
<path fill="none" stroke="#191970" d="M267.0079,-876.5298C278.5092,-842.3025 306.7785,-771.0914 354,-730 361.1763,-723.7553 370.1639,-719.0371 379.034,-715.512"/>
<polygon fill="#191970" stroke="#191970" points="263.6087,-875.6661 263.8601,-886.2579 270.2688,-877.8211 263.6087,-875.6661"/>
</g>
<!-- Node308302&#45;&gt;Node308285 -->
<g id="edge61" class="edge">
<title>Node308302&#45;&gt;Node308285</title>
<path fill="none" stroke="#191970" d="M422.7216,-686.948C435.6994,-655.4373 466.067,-592.7958 513,-561 658.097,-462.7007 723.2405,-478 898.5,-478 898.5,-478 898.5,-478 1053,-478 1238.254,-478 1342.8455,-755.2605 1361.844,-810.496"/>
<polygon fill="#191970" stroke="#191970" points="419.4254,-685.7654 418.9883,-696.3512 425.9314,-688.3485 419.4254,-685.7654"/>
</g>
<!-- Node308302&#45;&gt;Node308287 -->
<g id="edge62" class="edge">
<title>Node308302&#45;&gt;Node308287</title>
<path fill="none" stroke="#191970" d="M484.3414,-716.8559C493.947,-718.0868 503.7068,-719.1883 513,-720 642.3045,-731.2942 675.5614,-734.6369 805,-725 816.6215,-724.1348 828.9887,-722.6726 840.794,-721.0111"/>
<polygon fill="#191970" stroke="#191970" points="484.7879,-713.3845 474.4132,-715.5331 483.8633,-720.3232 484.7879,-713.3845"/>
</g>
<!-- Node308302&#45;&gt;Node308297 -->
<g id="edge60" class="edge">
<title>Node308302&#45;&gt;Node308297</title>
<path fill="none" stroke="#191970" d="M433.0111,-722.793C466.3275,-754.7431 537.8525,-823.3349 564.0889,-848.4953"/>
<polygon fill="#191970" stroke="#191970" points="435.055,-719.9037 425.4149,-715.5083 430.2099,-724.956 435.055,-719.9037"/>
</g>
<!-- Node308318&#45;&gt;Node308285 -->
<g id="edge64" class="edge">
<title>Node308318&#45;&gt;Node308285</title>
<path fill="none" stroke="#191970" d="M328.3757,-162C391.7629,-162 489.3242,-162 574,-162 574,-162 574,-162 1053,-162 1161.0183,-162 1216.7205,-142.8385 1288,-224 1328.5337,-270.1532 1359.6535,-735.7605 1364.3776,-810.0344"/>
<polygon fill="#191970" stroke="#191970" points="328.1153,-158.5001 318.1152,-162 328.1152,-165.5001 328.1153,-158.5001"/>
</g>
<!-- Node308318&#45;&gt;Node308289 -->
<g id="edge65" class="edge">
<title>Node308318&#45;&gt;Node308289</title>
<path fill="none" stroke="#191970" d="M319.3924,-150.633C382.0695,-139.4371 484.6838,-124 574,-124 574,-124 574,-124 1219,-124 1252.9935,-124 1265.9256,-131.149 1288,-157 1380.0108,-264.7526 1469.7978,-737.2892 1483.2655,-810.4654"/>
<polygon fill="#191970" stroke="#191970" points="318.5212,-147.2338 309.3051,-152.46 319.7689,-154.1217 318.5212,-147.2338"/>
</g>
<!-- Node308318&#45;&gt;Node308317 -->
<g id="edge66" class="edge">
<title>Node308318&#45;&gt;Node308317</title>
<path fill="none" stroke="#191970" d="M309.9521,-174.04C331.5365,-179.3488 356.541,-185.4988 376.7935,-190.4799"/>
<polygon fill="#191970" stroke="#191970" points="310.5334,-170.5787 299.9869,-171.589 308.8615,-177.3762 310.5334,-170.5787"/>
</g>
<!-- Node308292&#45;&gt;Node308294 -->
<g id="edge74" class="edge">
<title>Node308292&#45;&gt;Node308294</title>
<path fill="none" stroke="#191970" d="M325.8416,-1556.0639C380.7895,-1552.7284 459.0163,-1547.9798 512.8783,-1544.7103"/>
<polygon fill="#191970" stroke="#191970" points="325.29,-1552.5909 315.5204,-1556.6905 325.7142,-1559.578 325.29,-1552.5909"/>
</g>
<!-- Node308292&#45;&gt;Node308292 -->
<g id="edge70" class="edge">
<title>Node308292&#45;&gt;Node308292</title>
<path fill="none" stroke="#191970" d="M237.9346,-1579.0292C239.1928,-1584.128 246.8812,-1588 261,-1588 283.0391,-1588 289.4097,-1578.5653 280.112,-1569.7571"/>
<polygon fill="#191970" stroke="#191970" points="241.1854,-1580.3286 241.888,-1569.7571 234.7463,-1577.5831 241.1854,-1580.3286"/>
</g>
<!-- Node308292&#45;&gt;Node308293 -->
<g id="edge71" class="edge">
<title>Node308292&#45;&gt;Node308293</title>
<path fill="none" stroke="#191970" d="M309.9521,-1572.04C331.5365,-1577.3488 356.541,-1583.4988 376.7935,-1588.4799"/>
<polygon fill="#191970" stroke="#191970" points="310.5334,-1568.5787 299.9869,-1569.589 308.8615,-1575.3762 310.5334,-1568.5787"/>
</g>
<!-- Node308293&#45;&gt;Node308294 -->
<g id="edge73" class="edge">
<title>Node308293&#45;&gt;Node308294</title>
<path fill="none" stroke="#191970" d="M451.4502,-1585.0715C480.6139,-1574.5836 521.0664,-1560.0361 547.3841,-1550.5716"/>
<polygon fill="#191970" stroke="#191970" points="450.2549,-1581.7819 442.0293,-1588.4595 452.6238,-1588.3689 450.2549,-1581.7819"/>
</g>
<!-- Node308293&#45;&gt;Node308293 -->
<g id="edge72" class="edge">
<title>Node308293&#45;&gt;Node308293</title>
<path fill="none" stroke="#191970" d="M386.7542,-1616.6539C387.9558,-1621.9368 397.5377,-1626 415.5,-1626 442.8711,-1626 450.7831,-1616.5653 439.2359,-1607.7571"/>
<polygon fill="#191970" stroke="#191970" points="389.9072,-1618.1879 391.7641,-1607.7571 383.8077,-1614.7532 389.9072,-1618.1879"/>
</g>
<!-- Node308319&#45;&gt;Node308289 -->
<g id="edge77" class="edge">
<title>Node308319&#45;&gt;Node308289</title>
<path fill="none" stroke="#191970" d="M319.3924,-112.633C382.0695,-101.4371 484.6838,-86 574,-86 574,-86 574,-86 1219,-86 1322.5565,-86 1359.5502,-132.4453 1406,-225 1460.8035,-334.2001 1481.493,-742.5976 1484.5816,-810.4253"/>
<polygon fill="#191970" stroke="#191970" points="318.5212,-109.2338 309.3051,-114.46 319.7689,-116.1217 318.5212,-109.2338"/>
</g>
<!-- Node308319&#45;&gt;Node308317 -->
<g id="edge78" class="edge">
<title>Node308319&#45;&gt;Node308317</title>
<path fill="none" stroke="#191970" d="M303.1071,-136.9312C308.1862,-138.8138 313.2522,-140.849 318,-143 348.8978,-156.9984 382.5616,-178.1079 401.1426,-190.3245"/>
<polygon fill="#191970" stroke="#191970" points="303.9987,-133.5344 293.4039,-133.5085 301.6701,-140.1357 303.9987,-133.5344"/>
</g>
<!-- Node308320&#45;&gt;Node308277 -->
<g id="edge92" class="edge">
<title>Node308320&#45;&gt;Node308277</title>
<path fill="none" stroke="#191970" d="M428.2406,-492.0682C445.1477,-469.5373 477.0796,-431.1462 513,-409 525.5576,-401.2578 541.5318,-396.4319 553.983,-393.5818"/>
<polygon fill="#191970" stroke="#191970" points="425.2267,-490.2596 422.1368,-500.3938 430.8721,-494.3984 425.2267,-490.2596"/>
</g>
<!-- Node308320&#45;&gt;Node308283 -->
<g id="edge94" class="edge">
<title>Node308320&#45;&gt;Node308283</title>
<path fill="none" stroke="#191970" d="M422.5958,-529.1197C446.4379,-590.2508 530.1771,-781.3603 671,-857 780.0971,-915.5989 932.9771,-898.9013 1007.9453,-885.5161"/>
<polygon fill="#191970" stroke="#191970" points="425.7856,-527.6617 418.9496,-519.5673 419.2459,-530.158 425.7856,-527.6617"/>
</g>
<!-- Node308320&#45;&gt;Node308284 -->
<g id="edge91" class="edge">
<title>Node308320&#45;&gt;Node308284</title>
<path fill="none" stroke="#191970" d="M470.0474,-498.4176C484.0272,-495.5573 499.0533,-492.5769 513,-490 582.9821,-477.0695 600.3511,-472.569 671,-464 842.474,-443.2018 1045.4145,-430.3182 1149.6072,-424.5543"/>
<polygon fill="#191970" stroke="#191970" points="469.1707,-495.0247 460.0833,-500.4716 470.584,-501.8805 469.1707,-495.0247"/>
</g>
<!-- Node308320&#45;&gt;Node308315 -->
<g id="edge93" class="edge">
<title>Node308320&#45;&gt;Node308315</title>
<path fill="none" stroke="#191970" d="M446.034,-495.9366C456.1026,-490.9521 467.221,-485.0657 477,-479 493.9959,-468.4578 495.537,-461.7491 513,-452 523.0362,-446.3971 534.6482,-441.4795 545.0303,-437.5786"/>
<polygon fill="#191970" stroke="#191970" points="444.2565,-492.9085 436.7803,-500.4157 447.3062,-499.2092 444.2565,-492.9085"/>
</g>
<!-- Node308320&#45;&gt;Node308321 -->
<g id="edge87" class="edge">
<title>Node308320&#45;&gt;Node308321</title>
<path fill="none" stroke="#191970" d="M444.7795,-524.0394C472.5612,-537.3606 514.1819,-557.3175 542.6322,-570.9593"/>
<polygon fill="#191970" stroke="#191970" points="446.1044,-520.7932 435.5741,-519.6255 443.0779,-527.1051 446.1044,-520.7932"/>
</g>
<!-- Node308321&#45;&gt;Node308278 -->
<g id="edge90" class="edge">
<title>Node308321&#45;&gt;Node308278</title>
<path fill="none" stroke="#191970" d="M639.9302,-586.8258C737.5634,-588.0488 918.3254,-590.3131 1004.6569,-591.3944"/>
<polygon fill="#191970" stroke="#191970" points="639.9279,-583.3256 629.8848,-586.7 639.8402,-590.3251 639.9279,-583.3256"/>
</g>
<!-- Node308321&#45;&gt;Node308286 -->
<g id="edge89" class="edge">
<title>Node308321&#45;&gt;Node308286</title>
<path fill="none" stroke="#191970" d="M597.0052,-608.5824C609.1815,-621.2523 623.8726,-637.743 635,-654 654.9837,-683.1959 652.7565,-694.6862 671,-725 690.5648,-757.5094 717.5274,-793.5047 730.4708,-810.3335"/>
<polygon fill="#191970" stroke="#191970" points="599.299,-605.9222 589.803,-601.2236 594.2962,-610.8184 599.299,-605.9222"/>
</g>
<!-- Node308321&#45;&gt;Node308287 -->
<g id="edge88" class="edge">
<title>Node308321&#45;&gt;Node308287</title>
<path fill="none" stroke="#191970" d="M639.3629,-600.3956C686.5251,-611.935 751.1127,-630.137 805,-654 831.2484,-665.6236 859.062,-683.3662 877.4621,-695.9652"/>
<polygon fill="#191970" stroke="#191970" points="640.1155,-596.9768 629.5736,-598.0347 638.4743,-603.7817 640.1155,-596.9768"/>
</g>
</g>
</svg>
