<?xml version="1.0" encoding="UTF-8" standalone="no"?>
<!DOCTYPE svg PUBLIC "-//W3C//DTD SVG 1.1//EN"
 "http://www.w3.org/Graphics/SVG/1.1/DTD/svg11.dtd">
<!-- Generated by graphviz version 2.40.1 (20161225.0304)
 -->
<!-- Title: JS_AtomToValue Pages: 1 -->
<!--zoomable 142 -->
<svg id="main" version="1.1" xmlns="http://www.w3.org/2000/svg" xmlns:xlink="http://www.w3.org/1999/xlink" xml:space="preserve" onload="init(evt)">
<style type="text/css"><![CDATA[
.edge:hover path { stroke: red; }
.edge:hover polygon { stroke: red; fill: red; }
]]></style>
<script type="text/javascript"><![CDATA[
var edges = document.getElementsByTagName('g');
if (edges && edges.length) {
  for (var i=0;i<edges.length;i++) {
    if (edges[i].id.substr(0,4)=='edge') {
      edges[i].setAttribute('class','edge');
    }
  }
}
]]></script>
        <defs>
                <circle id="rim" cx="0" cy="0" r="7"/>
                <circle id="rim2" cx="0" cy="0" r="3.5"/>
                <g id="zoomPlus">
                        <use xlink:href="#rim" fill="#404040">
                                <set attributeName="fill" to="#808080" begin="zoomplus.mouseover" end="zoomplus.mouseout"/>
                        </use>
                        <path d="M-4,0h8M0,-4v8" fill="none" stroke="white" stroke-width="1.5" pointer-events="none"/>
                </g>
                <g id="zoomMin">
                        <use xlink:href="#rim" fill="#404040">
                                <set attributeName="fill" to="#808080" begin="zoomminus.mouseover" end="zoomminus.mouseout"/>
                        </use>
                        <path d="M-4,0h8" fill="none" stroke="white" stroke-width="1.5" pointer-events="none"/>
                </g>
                <g id="dirArrow">
                        <path fill="none" stroke="white" stroke-width="1.5" d="M0,-3.0v7 M-2.5,-0.5L0,-3.0L2.5,-0.5"/>
                </g>
               <g id="resetDef">
                       <use xlink:href="#rim2" fill="#404040">
                               <set attributeName="fill" to="#808080" begin="reset.mouseover" end="reset.mouseout"/>
                       </use>
               </g>
        </defs>

<script type="text/javascript">
var viewWidth = 527;
var viewHeight = 142;
var sectionId = 'dynsection-266';
</script>
<script xlink:href="svgpan.js"/>
<svg id="graph" class="graph">
<g id="viewport">
<title>JS_AtomToValue</title>
<!-- Node89513 -->
<g id="node1" class="node">
<title>Node89513</title>
<polygon fill="#bfbfbf" stroke="#000000" points="0,-57.5 0,-76.5 93,-76.5 93,-57.5 0,-57.5"/>
<text text-anchor="middle" x="46.5" y="-64.5" font-family="Helvetica,sans-Serif" font-size="10.00" fill="#000000">JS_AtomToValue</text>
</g>
<!-- Node89514 -->
<g id="node2" class="node">
<title>Node89514</title>
<g id="a_node2"><a xlink:href="quickjs_8c.html#a06ff303a11e6641cbf1f6634e6a61811" target="_top" xlink:title="__JS_AtomToValue">
<polygon fill="none" stroke="#000000" points="129,-57.5 129,-76.5 233,-76.5 233,-57.5 129,-57.5"/>
<text text-anchor="middle" x="181" y="-64.5" font-family="Helvetica,sans-Serif" font-size="10.00" fill="#000000">__JS_AtomToValue</text>
</a>
</g>
</g>
<!-- Node89513&#45;&gt;Node89514 -->
<g id="edge1" class="edge">
<title>Node89513&#45;&gt;Node89514</title>
<path fill="none" stroke="#191970" d="M93.1641,-67C101.4532,-67 110.2041,-67 118.8422,-67"/>
<polygon fill="#191970" stroke="#191970" points="118.8966,-70.5001 128.8965,-67 118.8965,-63.5001 118.8966,-70.5001"/>
</g>
<!-- Node89515 -->
<g id="node3" class="node">
<title>Node89515</title>
<g id="a_node3"><a xlink:href="quickjs_8c.html#a288254c06a39c9fca740a7abdad2834e" target="_top" xlink:title="__JS_AtomIsTaggedInt">
<polygon fill="none" stroke="#000000" points="269,-114.5 269,-133.5 388,-133.5 388,-114.5 269,-114.5"/>
<text text-anchor="middle" x="328.5" y="-121.5" font-family="Helvetica,sans-Serif" font-size="10.00" fill="#000000">__JS_AtomIsTaggedInt</text>
</a>
</g>
</g>
<!-- Node89514&#45;&gt;Node89515 -->
<g id="edge2" class="edge">
<title>Node89514&#45;&gt;Node89515</title>
<path fill="none" stroke="#191970" d="M201.7446,-76.6466C219.4292,-84.7033 245.6238,-96.2448 269,-105 274.6598,-107.1198 280.6753,-109.2171 286.6235,-111.2013"/>
<polygon fill="#191970" stroke="#191970" points="285.9033,-114.6477 296.4956,-114.4178 288.0718,-107.992 285.9033,-114.6477"/>
</g>
<!-- Node89516 -->
<g id="node4" class="node">
<title>Node89516</title>
<g id="a_node4"><a xlink:href="quickjs_8c.html#a89f38938cee8077ce1fbba07946ed185" target="_top" xlink:title="__JS_AtomToUInt32">
<polygon fill="none" stroke="#000000" points="274.5,-76.5 274.5,-95.5 382.5,-95.5 382.5,-76.5 274.5,-76.5"/>
<text text-anchor="middle" x="328.5" y="-83.5" font-family="Helvetica,sans-Serif" font-size="10.00" fill="#000000">__JS_AtomToUInt32</text>
</a>
</g>
</g>
<!-- Node89514&#45;&gt;Node89516 -->
<g id="edge3" class="edge">
<title>Node89514&#45;&gt;Node89516</title>
<path fill="none" stroke="#191970" d="M233.003,-73.6987C243.1854,-75.0103 253.9752,-76.4002 264.4956,-77.7554"/>
<polygon fill="#191970" stroke="#191970" points="264.1059,-81.234 274.4712,-79.0404 265.0003,-74.2914 264.1059,-81.234"/>
</g>
<!-- Node89517 -->
<g id="node5" class="node">
<title>Node89517</title>
<g id="a_node5"><a xlink:href="quickjs_8h.html#a775522f2d084fc8fa0fcb33f390006b4" target="_top" xlink:title="JS_DupValue">
<polygon fill="none" stroke="#000000" points="290,-38.5 290,-57.5 367,-57.5 367,-38.5 290,-38.5"/>
<text text-anchor="middle" x="328.5" y="-45.5" font-family="Helvetica,sans-Serif" font-size="10.00" fill="#000000">JS_DupValue</text>
</a>
</g>
</g>
<!-- Node89514&#45;&gt;Node89517 -->
<g id="edge4" class="edge">
<title>Node89514&#45;&gt;Node89517</title>
<path fill="none" stroke="#191970" d="M233.003,-60.3013C248.2331,-58.3395 264.8222,-56.2026 279.8365,-54.2685"/>
<polygon fill="#191970" stroke="#191970" points="280.4724,-57.7156 289.9433,-52.9666 279.578,-50.773 280.4724,-57.7156"/>
</g>
<!-- Node89518 -->
<g id="node6" class="node">
<title>Node89518</title>
<g id="a_node6"><a xlink:href="quickjs_8c.html#a0ee6a3654a6016393fac5e1c108f403a" target="_top" xlink:title="JS_NewString">
<polygon fill="none" stroke="#000000" points="288.5,-.5 288.5,-19.5 368.5,-19.5 368.5,-.5 288.5,-.5"/>
<text text-anchor="middle" x="328.5" y="-7.5" font-family="Helvetica,sans-Serif" font-size="10.00" fill="#000000">JS_NewString</text>
</a>
</g>
</g>
<!-- Node89514&#45;&gt;Node89518 -->
<g id="edge5" class="edge">
<title>Node89514&#45;&gt;Node89518</title>
<path fill="none" stroke="#191970" d="M201.7446,-57.3534C219.4292,-49.2967 245.6238,-37.7552 269,-29 274.6598,-26.8802 280.6753,-24.7829 286.6235,-22.7987"/>
<polygon fill="#191970" stroke="#191970" points="288.0718,-26.008 296.4956,-19.5822 285.9033,-19.3523 288.0718,-26.008"/>
</g>
<!-- Node89519 -->
<g id="node7" class="node">
<title>Node89519</title>
<g id="a_node7"><a xlink:href="quickjs_8c.html#ac34cc554aab1e98c45a7f845fff64385" target="_top" xlink:title="JS_NewStringLen">
<polygon fill="none" stroke="#ff0000" points="424,-.5 424,-19.5 519,-19.5 519,-.5 424,-.5"/>
<text text-anchor="middle" x="471.5" y="-7.5" font-family="Helvetica,sans-Serif" font-size="10.00" fill="#000000">JS_NewStringLen</text>
</a>
</g>
</g>
<!-- Node89518&#45;&gt;Node89519 -->
<g id="edge6" class="edge">
<title>Node89518&#45;&gt;Node89519</title>
<path fill="none" stroke="#191970" d="M368.714,-10C382.675,-10 398.6182,-10 413.714,-10"/>
<polygon fill="#191970" stroke="#191970" points="413.9949,-13.5001 423.9948,-10 413.9948,-6.5001 413.9949,-13.5001"/>
</g>
</g>
</svg>
        <g id="navigator" transform="translate(0 0)" fill="#404254">
                <rect fill="#f2f5e9" fill-opacity="0.5" stroke="#606060" stroke-width=".5" x="0" y="0" width="60" height="60"/>
                <use id="zoomplus" xlink:href="#zoomPlus" x="17" y="9" onmousedown="handleZoom(evt,'in')"/>
                <use id="zoomminus" xlink:href="#zoomMin" x="42" y="9" onmousedown="handleZoom(evt,'out')"/>
                <use id="reset" xlink:href="#resetDef" x="30" y="36" onmousedown="handleReset()"/>
                <g id="arrowUp" xlink:href="#dirArrow" transform="translate(30 24)" onmousedown="handlePan(0,-1)">
                  <use xlink:href="#rim" fill="#404040">
                        <set attributeName="fill" to="#808080" begin="arrowUp.mouseover" end="arrowUp.mouseout"/>
                  </use>
                  <path fill="none" stroke="white" stroke-width="1.5" d="M0,-3.0v7 M-2.5,-0.5L0,-3.0L2.5,-0.5"/>
                </g>
                <g id="arrowRight" xlink:href="#dirArrow" transform="rotate(90) translate(36 -43)" onmousedown="handlePan(1,0)">
                  <use xlink:href="#rim" fill="#404040">
                        <set attributeName="fill" to="#808080" begin="arrowRight.mouseover" end="arrowRight.mouseout"/>
                  </use>
                  <path fill="none" stroke="white" stroke-width="1.5" d="M0,-3.0v7 M-2.5,-0.5L0,-3.0L2.5,-0.5"/>
                </g>
                <g id="arrowDown" xlink:href="#dirArrow" transform="rotate(180) translate(-30 -48)" onmousedown="handlePan(0,1)">
                  <use xlink:href="#rim" fill="#404040">
                        <set attributeName="fill" to="#808080" begin="arrowDown.mouseover" end="arrowDown.mouseout"/>
                  </use>
                  <path fill="none" stroke="white" stroke-width="1.5" d="M0,-3.0v7 M-2.5,-0.5L0,-3.0L2.5,-0.5"/>
                </g>
                <g id="arrowLeft" xlink:href="#dirArrow" transform="rotate(270) translate(-36 17)" onmousedown="handlePan(-1,0)">
                  <use xlink:href="#rim" fill="#404040">
                        <set attributeName="fill" to="#808080" begin="arrowLeft.mouseover" end="arrowLeft.mouseout"/>
                  </use>
                  <path fill="none" stroke="white" stroke-width="1.5" d="M0,-3.0v7 M-2.5,-0.5L0,-3.0L2.5,-0.5"/>
                </g>
        </g>
        <svg viewBox="0 0 15 15" width="100%" height="30px" preserveAspectRatio="xMaxYMin meet">
         <g id="arrow_out" transform="scale(0.3 0.3)">
          <a xlink:href="quickjs_8c_afa67965c1017685fc6783776d6d0d4d7_cgraph_org.svg" target="_base">
           <rect id="button" ry="5" rx="5" y="6" x="6" height="38" width="38"
                fill="#f2f5e9" fill-opacity="0.5" stroke="#606060" stroke-width="1.0"/>
           <path id="arrow"
             d="M 11.500037,31.436501 C 11.940474,20.09759 22.043105,11.32322 32.158766,21.979434 L 37.068811,17.246167 C 37.068811,17.246167 37.088388,32 37.088388,32 L 22.160133,31.978069 C 22.160133,31.978069 26.997745,27.140456 26.997745,27.140456 C 18.528582,18.264221 13.291696,25.230495 11.500037,31.436501 z"
             style="fill:#404040;"/>
          </a>
         </g>
        </svg>
</svg>
