<?xml version="1.0" encoding="UTF-8" standalone="no"?>
<!DOCTYPE svg PUBLIC "-//W3C//DTD SVG 1.1//EN"
 "http://www.w3.org/Graphics/SVG/1.1/DTD/svg11.dtd">
<!-- Generated by graphviz version 2.40.1 (20161225.0304)
 -->
<!-- Title: js_realloc_array Pages: 1 -->
<svg width="463pt" height="104pt"
 viewBox="0.00 0.00 463.00 104.00" xmlns="http://www.w3.org/2000/svg" xmlns:xlink="http://www.w3.org/1999/xlink">
<g id="graph0" class="graph" transform="scale(1 1) rotate(0) translate(4 100)">
<title>js_realloc_array</title>
<!-- Node58465 -->
<g id="node1" class="node">
<title>Node58465</title>
<polygon fill="#bfbfbf" stroke="#000000" points="0,-19.5 0,-38.5 85,-38.5 85,-19.5 0,-19.5"/>
<text text-anchor="middle" x="42.5" y="-26.5" font-family="Helvetica,sans-Serif" font-size="10.00" fill="#000000">js_realloc_array</text>
</g>
<!-- Node58466 -->
<g id="node2" class="node">
<title>Node58466</title>
<g id="a_node2"><a xlink:href="quickjs_8c.html#a1c31248142879982abb1595f97817cd9" target="_top" xlink:title="js_realloc2">
<polygon fill="none" stroke="#000000" points="121,-38.5 121,-57.5 184,-57.5 184,-38.5 121,-38.5"/>
<text text-anchor="middle" x="152.5" y="-45.5" font-family="Helvetica,sans-Serif" font-size="10.00" fill="#000000">js_realloc2</text>
</a>
</g>
</g>
<!-- Node58465&#45;&gt;Node58466 -->
<g id="edge1" class="edge">
<title>Node58465&#45;&gt;Node58466</title>
<path fill="none" stroke="#191970" d="M85.0289,-36.3459C93.4532,-37.801 102.2895,-39.3273 110.6897,-40.7782"/>
<polygon fill="#191970" stroke="#191970" points="110.2128,-44.2476 120.6627,-42.5008 111.4043,-37.3497 110.2128,-44.2476"/>
</g>
<!-- Node58471 -->
<g id="node7" class="node">
<title>Node58471</title>
<g id="a_node7"><a xlink:href="cutils_8h.html#a94f155fcce337a2b9d4719ed8042cbbe" target="_top" xlink:title="max_int">
<polygon fill="none" stroke="#000000" points="127,-.5 127,-19.5 178,-19.5 178,-.5 127,-.5"/>
<text text-anchor="middle" x="152.5" y="-7.5" font-family="Helvetica,sans-Serif" font-size="10.00" fill="#000000">max_int</text>
</a>
</g>
</g>
<!-- Node58465&#45;&gt;Node58471 -->
<g id="edge6" class="edge">
<title>Node58465&#45;&gt;Node58471</title>
<path fill="none" stroke="#191970" d="M85.0289,-21.6541C95.5286,-19.8405 106.6683,-17.9164 116.8059,-16.1654"/>
<polygon fill="#191970" stroke="#191970" points="117.6803,-19.5662 126.9386,-14.4151 116.4888,-12.6684 117.6803,-19.5662"/>
</g>
<!-- Node58467 -->
<g id="node3" class="node">
<title>Node58467</title>
<g id="a_node3"><a xlink:href="quickjs_8c.html#a9a3248be6328b083907b3655ec93777b" target="_top" xlink:title="js_malloc_usable_size_rt">
<polygon fill="none" stroke="#000000" points="220,-76.5 220,-95.5 346,-95.5 346,-76.5 220,-76.5"/>
<text text-anchor="middle" x="283" y="-83.5" font-family="Helvetica,sans-Serif" font-size="10.00" fill="#000000">js_malloc_usable_size_rt</text>
</a>
</g>
</g>
<!-- Node58466&#45;&gt;Node58467 -->
<g id="edge2" class="edge">
<title>Node58466&#45;&gt;Node58467</title>
<path fill="none" stroke="#191970" d="M184.0904,-57.1987C201.0988,-62.1514 222.3091,-68.3276 240.7218,-73.6891"/>
<polygon fill="#191970" stroke="#191970" points="239.7579,-77.0537 250.3377,-76.4891 241.715,-70.3329 239.7579,-77.0537"/>
</g>
<!-- Node58468 -->
<g id="node4" class="node">
<title>Node58468</title>
<g id="a_node4"><a xlink:href="quickjs_8c.html#aa548c4ad5eacef7d9508100cfe6f6871" target="_top" xlink:title="js_realloc_rt">
<polygon fill="none" stroke="#000000" points="248.5,-38.5 248.5,-57.5 317.5,-57.5 317.5,-38.5 248.5,-38.5"/>
<text text-anchor="middle" x="283" y="-45.5" font-family="Helvetica,sans-Serif" font-size="10.00" fill="#000000">js_realloc_rt</text>
</a>
</g>
</g>
<!-- Node58466&#45;&gt;Node58468 -->
<g id="edge3" class="edge">
<title>Node58466&#45;&gt;Node58468</title>
<path fill="none" stroke="#191970" d="M184.0904,-48C200.3592,-48 220.4724,-48 238.3045,-48"/>
<polygon fill="#191970" stroke="#191970" points="238.4939,-51.5001 248.4939,-48 238.4939,-44.5001 238.4939,-51.5001"/>
</g>
<!-- Node58469 -->
<g id="node5" class="node">
<title>Node58469</title>
<g id="a_node5"><a xlink:href="quickjs_8c.html#a344d6c0e45d9bf3861fd9269724045a2" target="_top" xlink:title="JS_ThrowOutOfMemory">
<polygon fill="none" stroke="#000000" points="222,-.5 222,-19.5 344,-19.5 344,-.5 222,-.5"/>
<text text-anchor="middle" x="283" y="-7.5" font-family="Helvetica,sans-Serif" font-size="10.00" fill="#000000">JS_ThrowOutOfMemory</text>
</a>
</g>
</g>
<!-- Node58466&#45;&gt;Node58469 -->
<g id="edge4" class="edge">
<title>Node58466&#45;&gt;Node58469</title>
<path fill="none" stroke="#191970" d="M184.0904,-38.8013C201.0988,-33.8486 222.3091,-27.6724 240.7218,-22.3109"/>
<polygon fill="#191970" stroke="#191970" points="241.715,-25.6671 250.3377,-19.5109 239.7579,-18.9463 241.715,-25.6671"/>
</g>
<!-- Node58470 -->
<g id="node6" class="node">
<title>Node58470</title>
<g id="a_node6"><a xlink:href="quickjs_8c.html#a853f0924d441ea4225488f37c8b69f9a" target="_top" xlink:title="__attribute__">
<polygon fill="none" stroke="#000000" points="382,-.5 382,-19.5 455,-19.5 455,-.5 382,-.5"/>
<text text-anchor="middle" x="418.5" y="-7.5" font-family="Helvetica,sans-Serif" font-size="10.00" fill="#000000">__attribute__</text>
</a>
</g>
</g>
<!-- Node58469&#45;&gt;Node58470 -->
<g id="edge5" class="edge">
<title>Node58469&#45;&gt;Node58470</title>
<path fill="none" stroke="#191970" d="M344.0114,-10C353.3012,-10 362.7617,-10 371.685,-10"/>
<polygon fill="#191970" stroke="#191970" points="371.8708,-13.5001 381.8708,-10 371.8708,-6.5001 371.8708,-13.5001"/>
</g>
</g>
</svg>
