<?xml version="1.0" encoding="UTF-8" standalone="no"?>
<!DOCTYPE svg PUBLIC "-//W3C//DTD SVG 1.1//EN"
 "http://www.w3.org/Graphics/SVG/1.1/DTD/svg11.dtd">
<!-- Generated by graphviz version 2.40.1 (20161225.0304)
 -->
<!-- Title: js_resolve_export1 Pages: 1 -->
<svg width="495pt" height="123pt"
 viewBox="0.00 0.00 495.00 123.00" xmlns="http://www.w3.org/2000/svg" xmlns:xlink="http://www.w3.org/1999/xlink">
<g id="graph0" class="graph" transform="scale(1 1) rotate(0) translate(4 119)">
<title>js_resolve_export1</title>
<!-- Node332157 -->
<g id="node1" class="node">
<title>Node332157</title>
<polygon fill="#bfbfbf" stroke="#000000" points="0,-38.5 0,-57.5 98,-57.5 98,-38.5 0,-38.5"/>
<text text-anchor="middle" x="49" y="-45.5" font-family="Helvetica,sans-Serif" font-size="10.00" fill="#000000">js_resolve_export1</text>
</g>
<!-- Node332157&#45;&gt;Node332157 -->
<g id="edge7" class="edge">
<title>Node332157&#45;&gt;Node332157</title>
<path fill="none" stroke="#191970" d="M28.655,-57.7571C18.7574,-66.5653 25.5391,-76 49,-76 64.0297,-76 72.2142,-72.128 73.5535,-67.0292"/>
<polygon fill="#191970" stroke="#191970" points="76.6652,-65.4164 69.345,-57.7571 70.291,-68.3096 76.6652,-65.4164"/>
</g>
<!-- Node332158 -->
<g id="node2" class="node">
<title>Node332158</title>
<g id="a_node2"><a xlink:href="quickjs_8c.html#ade1e452957ebf589907635cc79718d16" target="_top" xlink:title="add_resolve_entry">
<polygon fill="none" stroke="#000000" points="134,-76.5 134,-95.5 230,-95.5 230,-76.5 134,-76.5"/>
<text text-anchor="middle" x="182" y="-83.5" font-family="Helvetica,sans-Serif" font-size="10.00" fill="#000000">add_resolve_entry</text>
</a>
</g>
</g>
<!-- Node332157&#45;&gt;Node332158 -->
<g id="edge1" class="edge">
<title>Node332157&#45;&gt;Node332158</title>
<path fill="none" stroke="#191970" d="M82.5615,-57.589C99.573,-62.4494 120.4319,-68.4091 138.6446,-73.6127"/>
<polygon fill="#191970" stroke="#191970" points="137.8724,-77.0321 148.4492,-76.4141 139.7955,-70.3014 137.8724,-77.0321"/>
</g>
<!-- Node332162 -->
<g id="node6" class="node">
<title>Node332162</title>
<g id="a_node6"><a xlink:href="quickjs_8c.html#af5a10beab08419072e00fedfe4e467af" target="_top" xlink:title="find_export_entry">
<polygon fill="none" stroke="#000000" points="136,-38.5 136,-57.5 228,-57.5 228,-38.5 136,-38.5"/>
<text text-anchor="middle" x="182" y="-45.5" font-family="Helvetica,sans-Serif" font-size="10.00" fill="#000000">find_export_entry</text>
</a>
</g>
</g>
<!-- Node332157&#45;&gt;Node332162 -->
<g id="edge5" class="edge">
<title>Node332157&#45;&gt;Node332162</title>
<path fill="none" stroke="#191970" d="M98.1464,-48C107.0712,-48 116.4444,-48 125.5594,-48"/>
<polygon fill="#191970" stroke="#191970" points="125.7033,-51.5001 135.7033,-48 125.7033,-44.5001 125.7033,-51.5001"/>
</g>
<!-- Node332163 -->
<g id="node7" class="node">
<title>Node332163</title>
<g id="a_node7"><a xlink:href="quickjs_8c.html#a12d1778dc462ef8c9179c499857abfc6" target="_top" xlink:title="find_resolve_entry">
<polygon fill="none" stroke="#000000" points="134,-.5 134,-19.5 230,-19.5 230,-.5 134,-.5"/>
<text text-anchor="middle" x="182" y="-7.5" font-family="Helvetica,sans-Serif" font-size="10.00" fill="#000000">find_resolve_entry</text>
</a>
</g>
</g>
<!-- Node332157&#45;&gt;Node332163 -->
<g id="edge6" class="edge">
<title>Node332157&#45;&gt;Node332163</title>
<path fill="none" stroke="#191970" d="M82.5615,-38.411C99.573,-33.5506 120.4319,-27.5909 138.6446,-22.3873"/>
<polygon fill="#191970" stroke="#191970" points="139.7955,-25.6986 148.4492,-19.5859 137.8724,-18.9679 139.7955,-25.6986"/>
</g>
<!-- Node332159 -->
<g id="node3" class="node">
<title>Node332159</title>
<g id="a_node3"><a xlink:href="quickjs_8c.html#abbf44eaeace1104a6bef718fbf5700fe" target="_top" xlink:title="JS_DupAtom">
<polygon fill="none" stroke="#000000" points="270,-95.5 270,-114.5 345,-114.5 345,-95.5 270,-95.5"/>
<text text-anchor="middle" x="307.5" y="-102.5" font-family="Helvetica,sans-Serif" font-size="10.00" fill="#000000">JS_DupAtom</text>
</a>
</g>
</g>
<!-- Node332158&#45;&gt;Node332159 -->
<g id="edge2" class="edge">
<title>Node332158&#45;&gt;Node332159</title>
<path fill="none" stroke="#191970" d="M230.1627,-93.2916C239.9103,-94.7673 250.155,-96.3183 259.8837,-97.7912"/>
<polygon fill="#191970" stroke="#191970" points="259.3814,-101.2549 269.7927,-99.2913 260.4293,-94.3338 259.3814,-101.2549"/>
</g>
<!-- Node332161 -->
<g id="node5" class="node">
<title>Node332161</title>
<g id="a_node5"><a xlink:href="quickjs_8c.html#afa610f3175e9cb11fdceac95071099b5" target="_top" xlink:title="js_resize_array">
<polygon fill="none" stroke="#000000" points="266,-57.5 266,-76.5 349,-76.5 349,-57.5 266,-57.5"/>
<text text-anchor="middle" x="307.5" y="-64.5" font-family="Helvetica,sans-Serif" font-size="10.00" fill="#000000">js_resize_array</text>
</a>
</g>
</g>
<!-- Node332158&#45;&gt;Node332161 -->
<g id="edge4" class="edge">
<title>Node332158&#45;&gt;Node332161</title>
<path fill="none" stroke="#191970" d="M230.1627,-78.7084C238.517,-77.4436 247.2365,-76.1236 255.6833,-74.8448"/>
<polygon fill="#191970" stroke="#191970" points="256.445,-78.2694 265.8084,-73.3119 255.3971,-71.3483 256.445,-78.2694"/>
</g>
<!-- Node332160 -->
<g id="node4" class="node">
<title>Node332160</title>
<g id="a_node4"><a xlink:href="quickjs_8c.html#a7f6796ee7a195631366f57c713a33f65" target="_top" xlink:title="__JS_AtomIsConst">
<polygon fill="none" stroke="#000000" points="385,-95.5 385,-114.5 487,-114.5 487,-95.5 385,-95.5"/>
<text text-anchor="middle" x="436" y="-102.5" font-family="Helvetica,sans-Serif" font-size="10.00" fill="#000000">__JS_AtomIsConst</text>
</a>
</g>
</g>
<!-- Node332159&#45;&gt;Node332160 -->
<g id="edge3" class="edge">
<title>Node332159&#45;&gt;Node332160</title>
<path fill="none" stroke="#191970" d="M345.013,-105C354.3469,-105 364.5972,-105 374.7475,-105"/>
<polygon fill="#191970" stroke="#191970" points="374.8269,-108.5001 384.8269,-105 374.8268,-101.5001 374.8269,-108.5001"/>
</g>
</g>
</svg>
