<?xml version="1.0" encoding="UTF-8" standalone="no"?>
<!DOCTYPE svg PUBLIC "-//W3C//DTD SVG 1.1//EN"
 "http://www.w3.org/Graphics/SVG/1.1/DTD/svg11.dtd">
<!-- Generated by graphviz version 2.40.1 (20161225.0304)
 -->
<!-- Title: get_exported_names Pages: 1 -->
<!--zoomable 84 -->
<svg id="main" version="1.1" xmlns="http://www.w3.org/2000/svg" xmlns:xlink="http://www.w3.org/1999/xlink" xml:space="preserve" onload="init(evt)">
<style type="text/css"><![CDATA[
.edge:hover path { stroke: red; }
.edge:hover polygon { stroke: red; fill: red; }
]]></style>
<script type="text/javascript"><![CDATA[
var edges = document.getElementsByTagName('g');
if (edges && edges.length) {
  for (var i=0;i<edges.length;i++) {
    if (edges[i].id.substr(0,4)=='edge') {
      edges[i].setAttribute('class','edge');
    }
  }
}
]]></script>
        <defs>
                <circle id="rim" cx="0" cy="0" r="7"/>
                <circle id="rim2" cx="0" cy="0" r="3.5"/>
                <g id="zoomPlus">
                        <use xlink:href="#rim" fill="#404040">
                                <set attributeName="fill" to="#808080" begin="zoomplus.mouseover" end="zoomplus.mouseout"/>
                        </use>
                        <path d="M-4,0h8M0,-4v8" fill="none" stroke="white" stroke-width="1.5" pointer-events="none"/>
                </g>
                <g id="zoomMin">
                        <use xlink:href="#rim" fill="#404040">
                                <set attributeName="fill" to="#808080" begin="zoomminus.mouseover" end="zoomminus.mouseout"/>
                        </use>
                        <path d="M-4,0h8" fill="none" stroke="white" stroke-width="1.5" pointer-events="none"/>
                </g>
                <g id="dirArrow">
                        <path fill="none" stroke="white" stroke-width="1.5" d="M0,-3.0v7 M-2.5,-0.5L0,-3.0L2.5,-0.5"/>
                </g>
               <g id="resetDef">
                       <use xlink:href="#rim2" fill="#404040">
                               <set attributeName="fill" to="#808080" begin="reset.mouseover" end="reset.mouseout"/>
                       </use>
               </g>
        </defs>

<script type="text/javascript">
var viewWidth = 536;
var viewHeight = 84;
var sectionId = 'dynsection-1120';
</script>
<script xlink:href="svgpan.js"/>
<svg id="graph" class="graph">
<g id="viewport">
<title>get_exported_names</title>
<!-- Node334611 -->
<g id="node1" class="node">
<title>Node334611</title>
<polygon fill="#bfbfbf" stroke="#000000" points="0,-19.5 0,-38.5 107,-38.5 107,-19.5 0,-19.5"/>
<text text-anchor="middle" x="53.5" y="-26.5" font-family="Helvetica,sans-Serif" font-size="10.00" fill="#000000">get_exported_names</text>
</g>
<!-- Node334611&#45;&gt;Node334611 -->
<g id="edge1" class="edge">
<title>Node334611&#45;&gt;Node334611</title>
<path fill="none" stroke="#191970" d="M27.4584,-48.0292C28.8789,-53.128 37.5594,-57 53.5,-57 78.3828,-57 85.5755,-47.5653 75.0781,-38.7571"/>
<polygon fill="#191970" stroke="#191970" points="30.738,-49.2855 31.9219,-38.7571 24.4308,-46.2493 30.738,-49.2855"/>
</g>
<!-- Node334612 -->
<g id="node2" class="node">
<title>Node334612</title>
<g id="a_node2"><a xlink:href="quickjs_8c.html#ad12b6863ca31850fc39d208bb865420e" target="_top" xlink:title="js_build_module_ns">
<polygon fill="none" stroke="#000000" points="143,-19.5 143,-38.5 245,-38.5 245,-19.5 143,-19.5"/>
<text text-anchor="middle" x="194" y="-26.5" font-family="Helvetica,sans-Serif" font-size="10.00" fill="#000000">js_build_module_ns</text>
</a>
</g>
</g>
<!-- Node334611&#45;&gt;Node334612 -->
<g id="edge2" class="edge">
<title>Node334611&#45;&gt;Node334612</title>
<path fill="none" stroke="#191970" d="M117.09,-29C125.7504,-29 134.5471,-29 142.9472,-29"/>
<polygon fill="#191970" stroke="#191970" points="117.0179,-25.5001 107.0178,-29 117.0178,-32.5001 117.0179,-25.5001"/>
</g>
<!-- Node334613 -->
<g id="node3" class="node">
<title>Node334613</title>
<g id="a_node3"><a xlink:href="quickjs_8c.html#a2f5aeb4e31e2001c555335ae5172165b" target="_top" xlink:title="js_get_module_ns">
<polygon fill="none" stroke="#000000" points="281,-19.5 281,-38.5 376,-38.5 376,-19.5 281,-19.5"/>
<text text-anchor="middle" x="328.5" y="-26.5" font-family="Helvetica,sans-Serif" font-size="10.00" fill="#000000">js_get_module_ns</text>
</a>
</g>
</g>
<!-- Node334612&#45;&gt;Node334613 -->
<g id="edge3" class="edge">
<title>Node334612&#45;&gt;Node334613</title>
<path fill="none" stroke="#191970" d="M255.2586,-29C263.8806,-29 272.6349,-29 280.9487,-29"/>
<polygon fill="#191970" stroke="#191970" points="255.2324,-25.5001 245.2324,-29 255.2323,-32.5001 255.2324,-25.5001"/>
</g>
<!-- Node334614 -->
<g id="node4" class="node">
<title>Node334614</title>
<g id="a_node4"><a xlink:href="quickjs_8c.html#a89e4f0ec49cdd0029ab50c0509ccc445" target="_top" xlink:title="js_instantiate_module">
<polygon fill="none" stroke="#ff0000" points="414.5,-38.5 414.5,-57.5 525.5,-57.5 525.5,-38.5 414.5,-38.5"/>
<text text-anchor="middle" x="470" y="-45.5" font-family="Helvetica,sans-Serif" font-size="10.00" fill="#000000">js_instantiate_module</text>
</a>
</g>
</g>
<!-- Node334613&#45;&gt;Node334614 -->
<g id="edge4" class="edge">
<title>Node334613&#45;&gt;Node334614</title>
<path fill="none" stroke="#191970" d="M385.9239,-36.7106C395.2032,-37.9566 404.7998,-39.2452 414.0437,-40.4864"/>
<polygon fill="#191970" stroke="#191970" points="386.388,-33.2416 376.0111,-35.3796 385.4563,-40.1793 386.388,-33.2416"/>
</g>
<!-- Node334618 -->
<g id="node5" class="node">
<title>Node334618</title>
<g id="a_node5"><a xlink:href="quickjs_8c.html#a6357b7fdae71c70c140e78e6c20cb5c2" target="_top" xlink:title="js_dynamic_import_job">
<polygon fill="none" stroke="#ff0000" points="412,-.5 412,-19.5 528,-19.5 528,-.5 412,-.5"/>
<text text-anchor="middle" x="470" y="-7.5" font-family="Helvetica,sans-Serif" font-size="10.00" fill="#000000">js_dynamic_import_job</text>
</a>
</g>
</g>
<!-- Node334613&#45;&gt;Node334618 -->
<g id="edge6" class="edge">
<title>Node334613&#45;&gt;Node334618</title>
<path fill="none" stroke="#191970" d="M386.1636,-21.2572C394.6198,-20.1217 403.3344,-18.9516 411.8012,-17.8147"/>
<polygon fill="#191970" stroke="#191970" points="385.4563,-17.8207 376.0111,-22.6204 386.388,-24.7584 385.4563,-17.8207"/>
</g>
<!-- Node334614&#45;&gt;Node334614 -->
<g id="edge5" class="edge">
<title>Node334614&#45;&gt;Node334614</title>
<path fill="none" stroke="#191970" d="M443.9584,-67.0292C445.3789,-72.128 454.0594,-76 470,-76 494.8828,-76 502.0755,-66.5653 491.5781,-57.7571"/>
<polygon fill="#191970" stroke="#191970" points="447.238,-68.2855 448.4219,-57.7571 440.9308,-65.2493 447.238,-68.2855"/>
</g>
</g>
</svg>
        <g id="navigator" transform="translate(0 0)" fill="#404254">
                <rect fill="#f2f5e9" fill-opacity="0.5" stroke="#606060" stroke-width=".5" x="0" y="0" width="60" height="60"/>
                <use id="zoomplus" xlink:href="#zoomPlus" x="17" y="9" onmousedown="handleZoom(evt,'in')"/>
                <use id="zoomminus" xlink:href="#zoomMin" x="42" y="9" onmousedown="handleZoom(evt,'out')"/>
                <use id="reset" xlink:href="#resetDef" x="30" y="36" onmousedown="handleReset()"/>
                <g id="arrowUp" xlink:href="#dirArrow" transform="translate(30 24)" onmousedown="handlePan(0,-1)">
                  <use xlink:href="#rim" fill="#404040">
                        <set attributeName="fill" to="#808080" begin="arrowUp.mouseover" end="arrowUp.mouseout"/>
                  </use>
                  <path fill="none" stroke="white" stroke-width="1.5" d="M0,-3.0v7 M-2.5,-0.5L0,-3.0L2.5,-0.5"/>
                </g>
                <g id="arrowRight" xlink:href="#dirArrow" transform="rotate(90) translate(36 -43)" onmousedown="handlePan(1,0)">
                  <use xlink:href="#rim" fill="#404040">
                        <set attributeName="fill" to="#808080" begin="arrowRight.mouseover" end="arrowRight.mouseout"/>
                  </use>
                  <path fill="none" stroke="white" stroke-width="1.5" d="M0,-3.0v7 M-2.5,-0.5L0,-3.0L2.5,-0.5"/>
                </g>
                <g id="arrowDown" xlink:href="#dirArrow" transform="rotate(180) translate(-30 -48)" onmousedown="handlePan(0,1)">
                  <use xlink:href="#rim" fill="#404040">
                        <set attributeName="fill" to="#808080" begin="arrowDown.mouseover" end="arrowDown.mouseout"/>
                  </use>
                  <path fill="none" stroke="white" stroke-width="1.5" d="M0,-3.0v7 M-2.5,-0.5L0,-3.0L2.5,-0.5"/>
                </g>
                <g id="arrowLeft" xlink:href="#dirArrow" transform="rotate(270) translate(-36 17)" onmousedown="handlePan(-1,0)">
                  <use xlink:href="#rim" fill="#404040">
                        <set attributeName="fill" to="#808080" begin="arrowLeft.mouseover" end="arrowLeft.mouseout"/>
                  </use>
                  <path fill="none" stroke="white" stroke-width="1.5" d="M0,-3.0v7 M-2.5,-0.5L0,-3.0L2.5,-0.5"/>
                </g>
        </g>
        <svg viewBox="0 0 15 15" width="100%" height="30px" preserveAspectRatio="xMaxYMin meet">
         <g id="arrow_out" transform="scale(0.3 0.3)">
          <a xlink:href="quickjs_8c_a51fe964c0b48eb3191aec8c98e73e4c6_icgraph_org.svg" target="_base">
           <rect id="button" ry="5" rx="5" y="6" x="6" height="38" width="38"
                fill="#f2f5e9" fill-opacity="0.5" stroke="#606060" stroke-width="1.0"/>
           <path id="arrow"
             d="M 11.500037,31.436501 C 11.940474,20.09759 22.043105,11.32322 32.158766,21.979434 L 37.068811,17.246167 C 37.068811,17.246167 37.088388,32 37.088388,32 L 22.160133,31.978069 C 22.160133,31.978069 26.997745,27.140456 26.997745,27.140456 C 18.528582,18.264221 13.291696,25.230495 11.500037,31.436501 z"
             style="fill:#404040;"/>
          </a>
         </g>
        </svg>
</svg>
