<?xml version="1.0" encoding="UTF-8" standalone="no"?>
<!DOCTYPE svg PUBLIC "-//W3C//DTD SVG 1.1//EN"
 "http://www.w3.org/Graphics/SVG/1.1/DTD/svg11.dtd">
<!-- Generated by graphviz version 2.40.1 (20161225.0304)
 -->
<!-- Title: JS_ToStringCheckObject Pages: 1 -->
<!--zoomable 733 -->
<svg id="main" version="1.1" xmlns="http://www.w3.org/2000/svg" xmlns:xlink="http://www.w3.org/1999/xlink" xml:space="preserve" onload="init(evt)">
<style type="text/css"><![CDATA[
.edge:hover path { stroke: red; }
.edge:hover polygon { stroke: red; fill: red; }
]]></style>
<script type="text/javascript"><![CDATA[
var edges = document.getElementsByTagName('g');
if (edges && edges.length) {
  for (var i=0;i<edges.length;i++) {
    if (edges[i].id.substr(0,4)=='edge') {
      edges[i].setAttribute('class','edge');
    }
  }
}
]]></script>
        <defs>
                <circle id="rim" cx="0" cy="0" r="7"/>
                <circle id="rim2" cx="0" cy="0" r="3.5"/>
                <g id="zoomPlus">
                        <use xlink:href="#rim" fill="#404040">
                                <set attributeName="fill" to="#808080" begin="zoomplus.mouseover" end="zoomplus.mouseout"/>
                        </use>
                        <path d="M-4,0h8M0,-4v8" fill="none" stroke="white" stroke-width="1.5" pointer-events="none"/>
                </g>
                <g id="zoomMin">
                        <use xlink:href="#rim" fill="#404040">
                                <set attributeName="fill" to="#808080" begin="zoomminus.mouseover" end="zoomminus.mouseout"/>
                        </use>
                        <path d="M-4,0h8" fill="none" stroke="white" stroke-width="1.5" pointer-events="none"/>
                </g>
                <g id="dirArrow">
                        <path fill="none" stroke="white" stroke-width="1.5" d="M0,-3.0v7 M-2.5,-0.5L0,-3.0L2.5,-0.5"/>
                </g>
               <g id="resetDef">
                       <use xlink:href="#rim2" fill="#404040">
                               <set attributeName="fill" to="#808080" begin="reset.mouseover" end="reset.mouseout"/>
                       </use>
               </g>
        </defs>

<script type="text/javascript">
var viewWidth = 573;
var viewHeight = 733;
var sectionId = 'dynsection-738';
</script>
<script xlink:href="svgpan.js"/>
<svg id="graph" class="graph">
<g id="viewport">
<title>JS_ToStringCheckObject</title>
<!-- Node256295 -->
<g id="node1" class="node">
<title>Node256295</title>
<polygon fill="#bfbfbf" stroke="#000000" points="0,-342.5 0,-361.5 128,-361.5 128,-342.5 0,-342.5"/>
<text text-anchor="middle" x="64" y="-349.5" font-family="Helvetica,sans-Serif" font-size="10.00" fill="#000000">JS_ToStringCheckObject</text>
</g>
<!-- Node256296 -->
<g id="node2" class="node">
<title>Node256296</title>
<g id="a_node2"><a xlink:href="quickjs_8c.html#a4e9176ba046f72bfa8c511cbe58242e8" target="_top" xlink:title="js_create_array_iterator">
<polygon fill="none" stroke="#000000" points="166.5,-665.5 166.5,-684.5 285.5,-684.5 285.5,-665.5 166.5,-665.5"/>
<text text-anchor="middle" x="226" y="-672.5" font-family="Helvetica,sans-Serif" font-size="10.00" fill="#000000">js_create_array_iterator</text>
</a>
</g>
</g>
<!-- Node256295&#45;&gt;Node256296 -->
<g id="edge1" class="edge">
<title>Node256295&#45;&gt;Node256296</title>
<path fill="none" stroke="#191970" d="M67.9821,-371.5505C80.6674,-432.0525 121.7824,-614.6363 164,-656 167.9403,-659.8606 172.6437,-662.9395 177.6737,-665.3943"/>
<polygon fill="#191970" stroke="#191970" points="71.4049,-370.8187 65.9504,-361.7357 64.5502,-372.2376 71.4049,-370.8187"/>
</g>
<!-- Node256760 -->
<g id="node6" class="node">
<title>Node256760</title>
<g id="a_node6"><a xlink:href="quickjs_8c.html#a187940a18f6d1d4a5405405f37b5cf46" target="_top" xlink:title="js_string_charAt">
<polygon fill="none" stroke="#000000" points="182.5,-627.5 182.5,-646.5 269.5,-646.5 269.5,-627.5 182.5,-627.5"/>
<text text-anchor="middle" x="226" y="-634.5" font-family="Helvetica,sans-Serif" font-size="10.00" fill="#000000">js_string_charAt</text>
</a>
</g>
</g>
<!-- Node256295&#45;&gt;Node256760 -->
<g id="edge6" class="edge">
<title>Node256295&#45;&gt;Node256760</title>
<path fill="none" stroke="#191970" d="M65.6129,-371.8386C70.6756,-420.92 90.6048,-549.0357 164,-618 169.1688,-622.8567 175.5484,-626.4737 182.2299,-629.167"/>
<polygon fill="#191970" stroke="#191970" points="69.0744,-371.2616 64.662,-361.6293 62.1046,-371.9108 69.0744,-371.2616"/>
</g>
<!-- Node256761 -->
<g id="node7" class="node">
<title>Node256761</title>
<g id="a_node7"><a xlink:href="quickjs_8c.html#a0ee215276f1e5ed65c86636d410c0836" target="_top" xlink:title="js_string_charCodeAt">
<polygon fill="none" stroke="#000000" points="171,-589.5 171,-608.5 281,-608.5 281,-589.5 171,-589.5"/>
<text text-anchor="middle" x="226" y="-596.5" font-family="Helvetica,sans-Serif" font-size="10.00" fill="#000000">js_string_charCodeAt</text>
</a>
</g>
</g>
<!-- Node256295&#45;&gt;Node256761 -->
<g id="edge7" class="edge">
<title>Node256295&#45;&gt;Node256761</title>
<path fill="none" stroke="#191970" d="M67.037,-371.9549C74.8103,-416.094 99.5552,-522.6265 164,-580 168.3724,-583.8927 173.5267,-586.9879 178.9647,-589.449"/>
<polygon fill="#191970" stroke="#191970" points="70.4623,-371.2151 65.3778,-361.92 63.556,-372.357 70.4623,-371.2151"/>
</g>
<!-- Node256762 -->
<g id="node8" class="node">
<title>Node256762</title>
<g id="a_node8"><a xlink:href="quickjs_8c.html#ab9a58f3aba79937a09358333cad4d5a9" target="_top" xlink:title="js_string_codePointAt">
<polygon fill="none" stroke="#000000" points="170,-551.5 170,-570.5 282,-570.5 282,-551.5 170,-551.5"/>
<text text-anchor="middle" x="226" y="-558.5" font-family="Helvetica,sans-Serif" font-size="10.00" fill="#000000">js_string_codePointAt</text>
</a>
</g>
</g>
<!-- Node256295&#45;&gt;Node256762 -->
<g id="edge8" class="edge">
<title>Node256295&#45;&gt;Node256762</title>
<path fill="none" stroke="#191970" d="M68.8298,-371.4575C79.3696,-409.8597 108.09,-495.6821 164,-542 168.6815,-545.8783 174.1467,-548.9659 179.8566,-551.4237"/>
<polygon fill="#191970" stroke="#191970" points="72.1549,-370.3392 66.2314,-361.555 65.3842,-372.1159 72.1549,-370.3392"/>
</g>
<!-- Node256846 -->
<g id="node9" class="node">
<title>Node256846</title>
<g id="a_node9"><a xlink:href="quickjs_8c.html#ad15d899d5566569437570ab09c3f1f33" target="_top" xlink:title="js_string_concat">
<polygon fill="none" stroke="#000000" points="182,-513.5 182,-532.5 270,-532.5 270,-513.5 182,-513.5"/>
<text text-anchor="middle" x="226" y="-520.5" font-family="Helvetica,sans-Serif" font-size="10.00" fill="#000000">js_string_concat</text>
</a>
</g>
</g>
<!-- Node256295&#45;&gt;Node256846 -->
<g id="edge9" class="edge">
<title>Node256295&#45;&gt;Node256846</title>
<path fill="none" stroke="#191970" d="M71.6035,-371.5192C85.2031,-403.8861 116.7632,-468.5999 164,-504 169.3153,-507.9833 175.4737,-511.1398 181.8043,-513.639"/>
<polygon fill="#191970" stroke="#191970" points="74.6904,-369.8184 67.6833,-361.8717 68.2054,-372.4537 74.6904,-369.8184"/>
</g>
<!-- Node256853 -->
<g id="node10" class="node">
<title>Node256853</title>
<g id="a_node10"><a xlink:href="quickjs_8c.html#a82cb999c219dbe6148c7df47ad6bb262" target="_top" xlink:title="js_string_CreateHTML">
<polygon fill="none" stroke="#000000" points="168.5,-475.5 168.5,-494.5 283.5,-494.5 283.5,-475.5 168.5,-475.5"/>
<text text-anchor="middle" x="226" y="-482.5" font-family="Helvetica,sans-Serif" font-size="10.00" fill="#000000">js_string_CreateHTML</text>
</a>
</g>
</g>
<!-- Node256295&#45;&gt;Node256853 -->
<g id="edge10" class="edge">
<title>Node256295&#45;&gt;Node256853</title>
<path fill="none" stroke="#191970" d="M75.1701,-370.1153C91.5893,-395.2614 124.5983,-440.5193 164,-466 169.9557,-469.8515 176.7349,-472.958 183.5716,-475.4529"/>
<polygon fill="#191970" stroke="#191970" points="78.0357,-368.0993 69.7109,-361.5458 72.1319,-371.8603 78.0357,-368.0993"/>
</g>
<!-- Node256752 -->
<g id="node11" class="node">
<title>Node256752</title>
<g id="a_node11"><a xlink:href="quickjs_8c.html#a507292e60d4d33781303b635d3f42fd1" target="_top" xlink:title="js_string_includes">
<polygon fill="none" stroke="#000000" points="178.5,-437.5 178.5,-456.5 273.5,-456.5 273.5,-437.5 178.5,-437.5"/>
<text text-anchor="middle" x="226" y="-444.5" font-family="Helvetica,sans-Serif" font-size="10.00" fill="#000000">js_string_includes</text>
</a>
</g>
</g>
<!-- Node256295&#45;&gt;Node256752 -->
<g id="edge11" class="edge">
<title>Node256295&#45;&gt;Node256752</title>
<path fill="none" stroke="#191970" d="M81.5167,-368.417C100.5181,-385.444 132.3892,-411.7987 164,-428 171.2135,-431.6971 179.2737,-434.8175 187.1337,-437.3932"/>
<polygon fill="#191970" stroke="#191970" points="83.7165,-365.6862 73.9692,-361.5338 78.9996,-370.8583 83.7165,-365.6862"/>
</g>
<!-- Node256706 -->
<g id="node12" class="node">
<title>Node256706</title>
<g id="a_node12"><a xlink:href="quickjs_8c.html#a7e93a76184ec9bc88adb834f83f679d8" target="_top" xlink:title="js_string_indexOf">
<polygon fill="none" stroke="#000000" points="180,-399.5 180,-418.5 272,-418.5 272,-399.5 180,-399.5"/>
<text text-anchor="middle" x="226" y="-406.5" font-family="Helvetica,sans-Serif" font-size="10.00" fill="#000000">js_string_indexOf</text>
</a>
</g>
</g>
<!-- Node256295&#45;&gt;Node256706 -->
<g id="edge12" class="edge">
<title>Node256295&#45;&gt;Node256706</title>
<path fill="none" stroke="#191970" d="M96.9887,-365.1614C116.387,-372.7433 141.4558,-382.2716 164,-390 173.4781,-393.2492 183.8596,-396.5356 193.3708,-399.4407"/>
<polygon fill="#191970" stroke="#191970" points="98.2691,-361.904 87.6818,-361.5032 95.7083,-368.4188 98.2691,-361.904"/>
</g>
<!-- Node256806 -->
<g id="node13" class="node">
<title>Node256806</title>
<g id="a_node13"><a xlink:href="quickjs_8c.html#a96177f318d170980abe8c9c41cdb52d5" target="_top" xlink:title="js_string_localeCompare">
<polygon fill="none" stroke="#000000" points="164,-361.5 164,-380.5 288,-380.5 288,-361.5 164,-361.5"/>
<text text-anchor="middle" x="226" y="-368.5" font-family="Helvetica,sans-Serif" font-size="10.00" fill="#000000">js_string_localeCompare</text>
</a>
</g>
</g>
<!-- Node256295&#45;&gt;Node256806 -->
<g id="edge13" class="edge">
<title>Node256295&#45;&gt;Node256806</title>
<path fill="none" stroke="#191970" d="M138.0466,-360.6845C146.6433,-361.6927 155.3452,-362.7133 163.7611,-363.7004"/>
<polygon fill="#191970" stroke="#191970" points="138.3663,-357.1981 128.0267,-359.5093 137.5509,-364.1504 138.3663,-357.1981"/>
</g>
<!-- Node256841 -->
<g id="node14" class="node">
<title>Node256841</title>
<g id="a_node14"><a xlink:href="quickjs_8c.html#ac6b88454ffc4d639197c1e95e515e04a" target="_top" xlink:title="js_string_normalize">
<polygon fill="none" stroke="#000000" points="175.5,-323.5 175.5,-342.5 276.5,-342.5 276.5,-323.5 175.5,-323.5"/>
<text text-anchor="middle" x="226" y="-330.5" font-family="Helvetica,sans-Serif" font-size="10.00" fill="#000000">js_string_normalize</text>
</a>
</g>
</g>
<!-- Node256295&#45;&gt;Node256841 -->
<g id="edge14" class="edge">
<title>Node256295&#45;&gt;Node256841</title>
<path fill="none" stroke="#191970" d="M138.0846,-343.3111C150.7159,-341.8296 163.5731,-340.3217 175.4155,-338.9328"/>
<polygon fill="#191970" stroke="#191970" points="137.5509,-339.8496 128.0267,-344.4907 138.3663,-346.8019 137.5509,-339.8496"/>
</g>
<!-- Node256763 -->
<g id="node15" class="node">
<title>Node256763</title>
<g id="a_node15"><a xlink:href="quickjs_8c.html#afe038ef522a8c7c8862cfe18a0c0a785" target="_top" xlink:title="js_string_pad">
<polygon fill="none" stroke="#000000" points="189,-285.5 189,-304.5 263,-304.5 263,-285.5 189,-285.5"/>
<text text-anchor="middle" x="226" y="-292.5" font-family="Helvetica,sans-Serif" font-size="10.00" fill="#000000">js_string_pad</text>
</a>
</g>
</g>
<!-- Node256295&#45;&gt;Node256763 -->
<g id="edge15" class="edge">
<title>Node256295&#45;&gt;Node256763</title>
<path fill="none" stroke="#191970" d="M96.9887,-338.8386C116.387,-331.2567 141.4558,-321.7284 164,-314 173.4781,-310.7508 183.8596,-307.4644 193.3708,-304.5593"/>
<polygon fill="#191970" stroke="#191970" points="95.7083,-335.5812 87.6818,-342.4968 98.2691,-342.096 95.7083,-335.5812"/>
</g>
<!-- Node256775 -->
<g id="node16" class="node">
<title>Node256775</title>
<g id="a_node16"><a xlink:href="quickjs_8c.html#a0f6f437eaf0cabf7d3e31f8306ed7e02" target="_top" xlink:title="js_string_repeat">
<polygon fill="none" stroke="#000000" points="183,-247.5 183,-266.5 269,-266.5 269,-247.5 183,-247.5"/>
<text text-anchor="middle" x="226" y="-254.5" font-family="Helvetica,sans-Serif" font-size="10.00" fill="#000000">js_string_repeat</text>
</a>
</g>
</g>
<!-- Node256295&#45;&gt;Node256775 -->
<g id="edge16" class="edge">
<title>Node256295&#45;&gt;Node256775</title>
<path fill="none" stroke="#191970" d="M81.5167,-335.583C100.5181,-318.556 132.3892,-292.2013 164,-276 171.2135,-272.3029 179.2737,-269.1825 187.1337,-266.6068"/>
<polygon fill="#191970" stroke="#191970" points="78.9996,-333.1417 73.9692,-342.4662 83.7165,-338.3138 78.9996,-333.1417"/>
</g>
<!-- Node256753 -->
<g id="node17" class="node">
<title>Node256753</title>
<g id="a_node17"><a xlink:href="quickjs_8c.html#aa46a42bde091ff4968e502d9556c47b6" target="_top" xlink:title="js_string_slice">
<polygon fill="none" stroke="#000000" points="186.5,-209.5 186.5,-228.5 265.5,-228.5 265.5,-209.5 186.5,-209.5"/>
<text text-anchor="middle" x="226" y="-216.5" font-family="Helvetica,sans-Serif" font-size="10.00" fill="#000000">js_string_slice</text>
</a>
</g>
</g>
<!-- Node256295&#45;&gt;Node256753 -->
<g id="edge17" class="edge">
<title>Node256295&#45;&gt;Node256753</title>
<path fill="none" stroke="#191970" d="M75.1701,-333.8847C91.5893,-308.7386 124.5983,-263.4807 164,-238 170.712,-233.6594 178.4699,-230.2651 186.1773,-227.6259"/>
<polygon fill="#191970" stroke="#191970" points="72.1319,-332.1397 69.7109,-342.4542 78.0357,-335.9007 72.1319,-332.1397"/>
</g>
<!-- Node256754 -->
<g id="node18" class="node">
<title>Node256754</title>
<g id="a_node18"><a xlink:href="quickjs_8c.html#a1008f89dc6bfd1fedc49ea6f427253c7" target="_top" xlink:title="js_string_substr">
<polygon fill="none" stroke="#000000" points="183,-171.5 183,-190.5 269,-190.5 269,-171.5 183,-171.5"/>
<text text-anchor="middle" x="226" y="-178.5" font-family="Helvetica,sans-Serif" font-size="10.00" fill="#000000">js_string_substr</text>
</a>
</g>
</g>
<!-- Node256295&#45;&gt;Node256754 -->
<g id="edge18" class="edge">
<title>Node256295&#45;&gt;Node256754</title>
<path fill="none" stroke="#191970" d="M71.6035,-332.4808C85.2031,-300.1139 116.7632,-235.4001 164,-200 169.5855,-195.8141 176.1022,-192.5413 182.7713,-189.9849"/>
<polygon fill="#191970" stroke="#191970" points="68.2054,-331.5463 67.6833,-342.1283 74.6904,-334.1816 68.2054,-331.5463"/>
</g>
<!-- Node256755 -->
<g id="node19" class="node">
<title>Node256755</title>
<g id="a_node19"><a xlink:href="quickjs_8c.html#a95e140838dbe5abed1dabaae43f10a6e" target="_top" xlink:title="js_string_substring">
<polygon fill="none" stroke="#000000" points="177,-133.5 177,-152.5 275,-152.5 275,-133.5 177,-133.5"/>
<text text-anchor="middle" x="226" y="-140.5" font-family="Helvetica,sans-Serif" font-size="10.00" fill="#000000">js_string_substring</text>
</a>
</g>
</g>
<!-- Node256295&#45;&gt;Node256755 -->
<g id="edge19" class="edge">
<title>Node256295&#45;&gt;Node256755</title>
<path fill="none" stroke="#191970" d="M68.8298,-332.5425C79.3696,-294.1403 108.09,-208.3179 164,-162 168.6815,-158.1217 174.1467,-155.0341 179.8566,-152.5763"/>
<polygon fill="#191970" stroke="#191970" points="65.3842,-331.8841 66.2314,-342.445 72.1549,-333.6608 65.3842,-331.8841"/>
</g>
<!-- Node256894 -->
<g id="node20" class="node">
<title>Node256894</title>
<g id="a_node20"><a xlink:href="quickjs_8c.html#a3e0cdeed1c6f41927e75164d350e25bf" target="_top" xlink:title="js_string_toLowerCase">
<polygon fill="none" stroke="#000000" points="168,-95.5 168,-114.5 284,-114.5 284,-95.5 168,-95.5"/>
<text text-anchor="middle" x="226" y="-102.5" font-family="Helvetica,sans-Serif" font-size="10.00" fill="#000000">js_string_toLowerCase</text>
</a>
</g>
</g>
<!-- Node256295&#45;&gt;Node256894 -->
<g id="edge20" class="edge">
<title>Node256295&#45;&gt;Node256894</title>
<path fill="none" stroke="#191970" d="M67.037,-332.0451C74.8103,-287.906 99.5552,-181.3735 164,-124 168.3724,-120.1073 173.5267,-117.0121 178.9647,-114.551"/>
<polygon fill="#191970" stroke="#191970" points="63.556,-331.643 65.3778,-342.08 70.4623,-332.7849 63.556,-331.643"/>
</g>
<!-- Node256895 -->
<g id="node21" class="node">
<title>Node256895</title>
<g id="a_node21"><a xlink:href="quickjs_8c.html#a62d4bd99d0b9e8200b220818902e5f0d" target="_top" xlink:title="js_string_trim">
<polygon fill="none" stroke="#000000" points="188.5,-57.5 188.5,-76.5 263.5,-76.5 263.5,-57.5 188.5,-57.5"/>
<text text-anchor="middle" x="226" y="-64.5" font-family="Helvetica,sans-Serif" font-size="10.00" fill="#000000">js_string_trim</text>
</a>
</g>
</g>
<!-- Node256295&#45;&gt;Node256895 -->
<g id="edge21" class="edge">
<title>Node256295&#45;&gt;Node256895</title>
<path fill="none" stroke="#191970" d="M65.6129,-332.1614C70.6756,-283.08 90.6048,-154.9643 164,-86 170.7276,-79.6785 179.5065,-75.4574 188.3324,-72.6396"/>
<polygon fill="#191970" stroke="#191970" points="62.1046,-332.0892 64.662,-342.3707 69.0744,-332.7384 62.1046,-332.0892"/>
</g>
<!-- Node256896 -->
<g id="node22" class="node">
<title>Node256896</title>
<g id="a_node22"><a xlink:href="quickjs_8c.html#ae5057ca2d025c62cc64ba12541f7925b" target="_top" xlink:title="JS_ToQuotedString">
<polygon fill="none" stroke="#000000" points="175,-19.5 175,-38.5 277,-38.5 277,-19.5 175,-19.5"/>
<text text-anchor="middle" x="226" y="-26.5" font-family="Helvetica,sans-Serif" font-size="10.00" fill="#000000">JS_ToQuotedString</text>
</a>
</g>
</g>
<!-- Node256295&#45;&gt;Node256896 -->
<g id="edge22" class="edge">
<title>Node256295&#45;&gt;Node256896</title>
<path fill="none" stroke="#191970" d="M67.9821,-332.4495C80.6674,-271.9475 121.7824,-89.3637 164,-48 167.9403,-44.1394 172.6437,-41.0605 177.6737,-38.6057"/>
<polygon fill="#191970" stroke="#191970" points="64.5502,-331.7624 65.9504,-342.2643 71.4049,-333.1813 64.5502,-331.7624"/>
</g>
<!-- Node256297 -->
<g id="node3" class="node">
<title>Node256297</title>
<g id="a_node3"><a xlink:href="quickjs_8c.html#a43208b0746998d2b6b9b8bd1ef8b5f99" target="_top" xlink:title="js_append_enumerate">
<polygon fill="none" stroke="#000000" points="329,-687.5 329,-706.5 441,-706.5 441,-687.5 329,-687.5"/>
<text text-anchor="middle" x="385" y="-694.5" font-family="Helvetica,sans-Serif" font-size="10.00" fill="#000000">js_append_enumerate</text>
</a>
</g>
</g>
<!-- Node256296&#45;&gt;Node256297 -->
<g id="edge2" class="edge">
<title>Node256296&#45;&gt;Node256297</title>
<path fill="none" stroke="#191970" d="M295.7565,-684.6518C306.8589,-686.188 318.2188,-687.7598 328.9522,-689.245"/>
<polygon fill="#191970" stroke="#191970" points="296.0435,-681.1583 285.6581,-683.2546 295.084,-688.0922 296.0435,-681.1583"/>
</g>
<!-- Node256893 -->
<g id="node5" class="node">
<title>Node256893</title>
<g id="a_node5"><a xlink:href="quickjs_8c.html#a1e80be77ffd5dbb921de62f804a26675" target="_top" xlink:title="js_create_typed_array\l_iterator">
<polygon fill="none" stroke="#000000" points="328.5,-638 328.5,-668 441.5,-668 441.5,-638 328.5,-638"/>
<text text-anchor="start" x="336.5" y="-656" font-family="Helvetica,sans-Serif" font-size="10.00" fill="#000000">js_create_typed_array</text>
<text text-anchor="middle" x="385" y="-645" font-family="Helvetica,sans-Serif" font-size="10.00" fill="#000000">_iterator</text>
</a>
</g>
</g>
<!-- Node256296&#45;&gt;Node256893 -->
<g id="edge5" class="edge">
<title>Node256296&#45;&gt;Node256893</title>
<path fill="none" stroke="#191970" d="M295.6299,-665.3657C306.5924,-663.8488 317.8093,-662.2968 328.4292,-660.8274"/>
<polygon fill="#191970" stroke="#191970" points="295.084,-661.9078 285.6581,-666.7454 296.0435,-668.8417 295.084,-661.9078"/>
</g>
<!-- Node256298 -->
<g id="node4" class="node">
<title>Node256298</title>
<g id="a_node4"><a xlink:href="quickjs_8c.html#ac2894ff4edcdb4e6841bcce9c76081e3" target="_top" xlink:title="JS_CallInternal">
<polygon fill="none" stroke="#ff0000" points="482,-687.5 482,-706.5 565,-706.5 565,-687.5 482,-687.5"/>
<text text-anchor="middle" x="523.5" y="-694.5" font-family="Helvetica,sans-Serif" font-size="10.00" fill="#000000">JS_CallInternal</text>
</a>
</g>
</g>
<!-- Node256297&#45;&gt;Node256298 -->
<g id="edge3" class="edge">
<title>Node256297&#45;&gt;Node256298</title>
<path fill="none" stroke="#191970" d="M451.5371,-697C461.8009,-697 472.1443,-697 481.6636,-697"/>
<polygon fill="#191970" stroke="#191970" points="451.3333,-693.5001 441.3333,-697 451.3332,-700.5001 451.3333,-693.5001"/>
</g>
<!-- Node256298&#45;&gt;Node256298 -->
<g id="edge4" class="edge">
<title>Node256298&#45;&gt;Node256298</title>
<path fill="none" stroke="#191970" d="M497.8305,-716.0292C499.2307,-721.128 507.7872,-725 523.5,-725 548.0273,-725 555.1173,-715.5653 544.7698,-706.7571"/>
<polygon fill="#191970" stroke="#191970" points="501.1052,-717.292 502.2302,-706.7571 494.7811,-714.2911 501.1052,-717.292"/>
</g>
<!-- Node256897 -->
<g id="node23" class="node">
<title>Node256897</title>
<g id="a_node23"><a xlink:href="quickjs_8c.html#ac35792540c2fe73eb3ca6c6a69593e26" target="_top" xlink:title="js_string___quote">
<polygon fill="none" stroke="#000000" points="338.5,-38.5 338.5,-57.5 431.5,-57.5 431.5,-38.5 338.5,-38.5"/>
<text text-anchor="middle" x="385" y="-45.5" font-family="Helvetica,sans-Serif" font-size="10.00" fill="#000000">js_string___quote</text>
</a>
</g>
</g>
<!-- Node256896&#45;&gt;Node256897 -->
<g id="edge23" class="edge">
<title>Node256896&#45;&gt;Node256897</title>
<path fill="none" stroke="#191970" d="M287.5486,-36.3549C304.4802,-38.3781 322.5581,-40.5384 338.4879,-42.4419"/>
<polygon fill="#191970" stroke="#191970" points="287.5285,-32.8276 277.1838,-35.1163 286.6979,-39.7782 287.5285,-32.8276"/>
</g>
<!-- Node256898 -->
<g id="node24" class="node">
<title>Node256898</title>
<g id="a_node24"><a xlink:href="quickjs_8c.html#ac5732685af4e38c0c0122b2ab25908e1" target="_top" xlink:title="JS_ToQuotedStringFree">
<polygon fill="none" stroke="#000000" points="324,-.5 324,-19.5 446,-19.5 446,-.5 324,-.5"/>
<text text-anchor="middle" x="385" y="-7.5" font-family="Helvetica,sans-Serif" font-size="10.00" fill="#000000">JS_ToQuotedStringFree</text>
</a>
</g>
</g>
<!-- Node256896&#45;&gt;Node256898 -->
<g id="edge24" class="edge">
<title>Node256896&#45;&gt;Node256898</title>
<path fill="none" stroke="#191970" d="M287.1469,-21.6931C299.2057,-20.2521 311.8605,-18.7399 323.9173,-17.2992"/>
<polygon fill="#191970" stroke="#191970" points="286.6979,-18.2218 277.1838,-22.8837 287.5285,-25.1724 286.6979,-18.2218"/>
</g>
<!-- Node256375 -->
<g id="node25" class="node">
<title>Node256375</title>
<g id="a_node25"><a xlink:href="quickjs_8c.html#a60d84dd116a9d7d912d08f298a4734dd" target="_top" xlink:title="js_json_to_str">
<polygon fill="none" stroke="#ff0000" points="485,-.5 485,-19.5 562,-19.5 562,-.5 485,-.5"/>
<text text-anchor="middle" x="523.5" y="-7.5" font-family="Helvetica,sans-Serif" font-size="10.00" fill="#000000">js_json_to_str</text>
</a>
</g>
</g>
<!-- Node256898&#45;&gt;Node256375 -->
<g id="edge25" class="edge">
<title>Node256898&#45;&gt;Node256375</title>
<path fill="none" stroke="#191970" d="M456.3977,-10C466.2421,-10 476.0285,-10 484.9603,-10"/>
<polygon fill="#191970" stroke="#191970" points="456.1513,-6.5001 446.1513,-10 456.1512,-13.5001 456.1513,-6.5001"/>
</g>
<!-- Node256375&#45;&gt;Node256375 -->
<g id="edge26" class="edge">
<title>Node256375&#45;&gt;Node256375</title>
<path fill="none" stroke="#191970" d="M497.8305,-29.0292C499.2307,-34.128 507.7872,-38 523.5,-38 548.0273,-38 555.1173,-28.5653 544.7698,-19.7571"/>
<polygon fill="#191970" stroke="#191970" points="501.1052,-30.292 502.2302,-19.7571 494.7811,-27.2911 501.1052,-30.292"/>
</g>
</g>
</svg>
        <g id="navigator" transform="translate(0 0)" fill="#404254">
                <rect fill="#f2f5e9" fill-opacity="0.5" stroke="#606060" stroke-width=".5" x="0" y="0" width="60" height="60"/>
                <use id="zoomplus" xlink:href="#zoomPlus" x="17" y="9" onmousedown="handleZoom(evt,'in')"/>
                <use id="zoomminus" xlink:href="#zoomMin" x="42" y="9" onmousedown="handleZoom(evt,'out')"/>
                <use id="reset" xlink:href="#resetDef" x="30" y="36" onmousedown="handleReset()"/>
                <g id="arrowUp" xlink:href="#dirArrow" transform="translate(30 24)" onmousedown="handlePan(0,-1)">
                  <use xlink:href="#rim" fill="#404040">
                        <set attributeName="fill" to="#808080" begin="arrowUp.mouseover" end="arrowUp.mouseout"/>
                  </use>
                  <path fill="none" stroke="white" stroke-width="1.5" d="M0,-3.0v7 M-2.5,-0.5L0,-3.0L2.5,-0.5"/>
                </g>
                <g id="arrowRight" xlink:href="#dirArrow" transform="rotate(90) translate(36 -43)" onmousedown="handlePan(1,0)">
                  <use xlink:href="#rim" fill="#404040">
                        <set attributeName="fill" to="#808080" begin="arrowRight.mouseover" end="arrowRight.mouseout"/>
                  </use>
                  <path fill="none" stroke="white" stroke-width="1.5" d="M0,-3.0v7 M-2.5,-0.5L0,-3.0L2.5,-0.5"/>
                </g>
                <g id="arrowDown" xlink:href="#dirArrow" transform="rotate(180) translate(-30 -48)" onmousedown="handlePan(0,1)">
                  <use xlink:href="#rim" fill="#404040">
                        <set attributeName="fill" to="#808080" begin="arrowDown.mouseover" end="arrowDown.mouseout"/>
                  </use>
                  <path fill="none" stroke="white" stroke-width="1.5" d="M0,-3.0v7 M-2.5,-0.5L0,-3.0L2.5,-0.5"/>
                </g>
                <g id="arrowLeft" xlink:href="#dirArrow" transform="rotate(270) translate(-36 17)" onmousedown="handlePan(-1,0)">
                  <use xlink:href="#rim" fill="#404040">
                        <set attributeName="fill" to="#808080" begin="arrowLeft.mouseover" end="arrowLeft.mouseout"/>
                  </use>
                  <path fill="none" stroke="white" stroke-width="1.5" d="M0,-3.0v7 M-2.5,-0.5L0,-3.0L2.5,-0.5"/>
                </g>
        </g>
        <svg viewBox="0 0 15 15" width="100%" height="30px" preserveAspectRatio="xMaxYMin meet">
         <g id="arrow_out" transform="scale(0.3 0.3)">
          <a xlink:href="quickjs_8c_a4d1d0760c9f9efcb8c0a8db414e46c8a_icgraph_org.svg" target="_base">
           <rect id="button" ry="5" rx="5" y="6" x="6" height="38" width="38"
                fill="#f2f5e9" fill-opacity="0.5" stroke="#606060" stroke-width="1.0"/>
           <path id="arrow"
             d="M 11.500037,31.436501 C 11.940474,20.09759 22.043105,11.32322 32.158766,21.979434 L 37.068811,17.246167 C 37.068811,17.246167 37.088388,32 37.088388,32 L 22.160133,31.978069 C 22.160133,31.978069 26.997745,27.140456 26.997745,27.140456 C 18.528582,18.264221 13.291696,25.230495 11.500037,31.436501 z"
             style="fill:#404040;"/>
          </a>
         </g>
        </svg>
</svg>
