<?xml version="1.0" encoding="UTF-8" standalone="no"?>
<!DOCTYPE svg PUBLIC "-//W3C//DTD SVG 1.1//EN"
 "http://www.w3.org/Graphics/SVG/1.1/DTD/svg11.dtd">
<!-- Generated by graphviz version 2.40.1 (20161225.0304)
 -->
<!-- Title: js_free_message Pages: 1 -->
<!--zoomable 85 -->
<svg id="main" version="1.1" xmlns="http://www.w3.org/2000/svg" xmlns:xlink="http://www.w3.org/1999/xlink" xml:space="preserve" onload="init(evt)">
<style type="text/css"><![CDATA[
.edge:hover path { stroke: red; }
.edge:hover polygon { stroke: red; fill: red; }
]]></style>
<script type="text/javascript"><![CDATA[
var edges = document.getElementsByTagName('g');
if (edges && edges.length) {
  for (var i=0;i<edges.length;i++) {
    if (edges[i].id.substr(0,4)=='edge') {
      edges[i].setAttribute('class','edge');
    }
  }
}
]]></script>
        <defs>
                <circle id="rim" cx="0" cy="0" r="7"/>
                <circle id="rim2" cx="0" cy="0" r="3.5"/>
                <g id="zoomPlus">
                        <use xlink:href="#rim" fill="#404040">
                                <set attributeName="fill" to="#808080" begin="zoomplus.mouseover" end="zoomplus.mouseout"/>
                        </use>
                        <path d="M-4,0h8M0,-4v8" fill="none" stroke="white" stroke-width="1.5" pointer-events="none"/>
                </g>
                <g id="zoomMin">
                        <use xlink:href="#rim" fill="#404040">
                                <set attributeName="fill" to="#808080" begin="zoomminus.mouseover" end="zoomminus.mouseout"/>
                        </use>
                        <path d="M-4,0h8" fill="none" stroke="white" stroke-width="1.5" pointer-events="none"/>
                </g>
                <g id="dirArrow">
                        <path fill="none" stroke="white" stroke-width="1.5" d="M0,-3.0v7 M-2.5,-0.5L0,-3.0L2.5,-0.5"/>
                </g>
               <g id="resetDef">
                       <use xlink:href="#rim2" fill="#404040">
                               <set attributeName="fill" to="#808080" begin="reset.mouseover" end="reset.mouseout"/>
                       </use>
               </g>
        </defs>

<script type="text/javascript">
var viewWidth = 545;
var viewHeight = 85;
var sectionId = 'dynsection-84';
</script>
<script xlink:href="svgpan.js"/>
<svg id="graph" class="graph">
<g id="viewport">
<title>js_free_message</title>
<!-- Node17998 -->
<g id="node1" class="node">
<title>Node17998</title>
<polygon fill="#bfbfbf" stroke="#000000" points="0,-38.5 0,-57.5 91,-57.5 91,-38.5 0,-38.5"/>
<text text-anchor="middle" x="45.5" y="-45.5" font-family="Helvetica,sans-Serif" font-size="10.00" fill="#000000">js_free_message</text>
</g>
<!-- Node17999 -->
<g id="node2" class="node">
<title>Node17999</title>
<g id="a_node2"><a xlink:href="quickjs-libc_8c.html#a9fa4c190ba56314c7ed9b00bbc7ad0f9" target="_top" xlink:title="handle_posted_message">
<polygon fill="none" stroke="#000000" points="127,-57.5 127,-76.5 252,-76.5 252,-57.5 127,-57.5"/>
<text text-anchor="middle" x="189.5" y="-64.5" font-family="Helvetica,sans-Serif" font-size="10.00" fill="#000000">handle_posted_message</text>
</a>
</g>
</g>
<!-- Node17998&#45;&gt;Node17999 -->
<g id="edge1" class="edge">
<title>Node17998&#45;&gt;Node17999</title>
<path fill="none" stroke="#191970" d="M101.146,-55.3422C109.5681,-56.4534 118.3053,-57.6063 126.8631,-58.7354"/>
<polygon fill="#191970" stroke="#191970" points="101.4344,-51.85 91.0625,-54.0117 100.5187,-58.7898 101.4344,-51.85"/>
</g>
<!-- Node18000 -->
<g id="node3" class="node">
<title>Node18000</title>
<g id="a_node3"><a xlink:href="quickjs-libc_8c.html#a2c8234980adfda2a29db3b01cbdc8362" target="_top" xlink:title="js_free_message_pipe">
<polygon fill="none" stroke="#000000" points="132.5,-19.5 132.5,-38.5 246.5,-38.5 246.5,-19.5 132.5,-19.5"/>
<text text-anchor="middle" x="189.5" y="-26.5" font-family="Helvetica,sans-Serif" font-size="10.00" fill="#000000">js_free_message_pipe</text>
</a>
</g>
</g>
<!-- Node17998&#45;&gt;Node18000 -->
<g id="edge2" class="edge">
<title>Node17998&#45;&gt;Node18000</title>
<path fill="none" stroke="#191970" d="M101.1098,-40.6626C111.3455,-39.312 122.048,-37.8999 132.3288,-36.5434"/>
<polygon fill="#191970" stroke="#191970" points="100.5187,-37.2102 91.0625,-41.9883 101.4344,-44.15 100.5187,-37.2102"/>
</g>
<!-- Node18001 -->
<g id="node4" class="node">
<title>Node18001</title>
<g id="a_node4"><a xlink:href="quickjs-libc_8c.html#a23e6bef6353d5de8d3103a30b107965e" target="_top" xlink:title="js_free_port">
<polygon fill="none" stroke="#000000" points="294,-38.5 294,-57.5 362,-57.5 362,-38.5 294,-38.5"/>
<text text-anchor="middle" x="328" y="-45.5" font-family="Helvetica,sans-Serif" font-size="10.00" fill="#000000">js_free_port</text>
</a>
</g>
</g>
<!-- Node18000&#45;&gt;Node18001 -->
<g id="edge3" class="edge">
<title>Node18000&#45;&gt;Node18001</title>
<path fill="none" stroke="#191970" d="M256.9044,-38.2468C269.7772,-40.0128 282.7351,-41.7904 293.9972,-43.3354"/>
<polygon fill="#191970" stroke="#191970" points="257.0158,-34.7294 246.6329,-36.8377 256.0644,-41.6644 257.0158,-34.7294"/>
</g>
<!-- Node18003 -->
<g id="node6" class="node">
<title>Node18003</title>
<g id="a_node6"><a xlink:href="quickjs-libc_8c.html#aff1e6131e8bf8b7eb25307623ad669e7" target="_top" xlink:title="js_worker_ctor">
<polygon fill="none" stroke="#000000" points="288,-.5 288,-19.5 368,-19.5 368,-.5 288,-.5"/>
<text text-anchor="middle" x="328" y="-7.5" font-family="Helvetica,sans-Serif" font-size="10.00" fill="#000000">js_worker_ctor</text>
</a>
</g>
</g>
<!-- Node18000&#45;&gt;Node18003 -->
<g id="edge5" class="edge">
<title>Node18000&#45;&gt;Node18003</title>
<path fill="none" stroke="#191970" d="M256.7875,-19.7692C267.433,-18.3088 278.1404,-16.8399 287.9023,-15.5008"/>
<polygon fill="#191970" stroke="#191970" points="256.0644,-16.3356 246.6329,-21.1623 257.0158,-23.2706 256.0644,-16.3356"/>
</g>
<!-- Node18002 -->
<g id="node5" class="node">
<title>Node18002</title>
<g id="a_node5"><a xlink:href="quickjs-libc_8c.html#a0a99fb986f4b8862e7e44dcb16a9dc96" target="_top" xlink:title="js_worker_set_onmessage">
<polygon fill="none" stroke="#000000" points="404,-38.5 404,-57.5 537,-57.5 537,-38.5 404,-38.5"/>
<text text-anchor="middle" x="470.5" y="-45.5" font-family="Helvetica,sans-Serif" font-size="10.00" fill="#000000">js_worker_set_onmessage</text>
</a>
</g>
</g>
<!-- Node18001&#45;&gt;Node18002 -->
<g id="edge4" class="edge">
<title>Node18001&#45;&gt;Node18002</title>
<path fill="none" stroke="#191970" d="M372.2629,-48C382.316,-48 393.2102,-48 403.9607,-48"/>
<polygon fill="#191970" stroke="#191970" points="372.1323,-44.5001 362.1323,-48 372.1323,-51.5001 372.1323,-44.5001"/>
</g>
<!-- Node18004 -->
<g id="node7" class="node">
<title>Node18004</title>
<g id="a_node7"><a xlink:href="quickjs-libc_8c.html#a066e7962ce24f22d5df20968a8baa346" target="_top" xlink:title="js_os_init">
<polygon fill="none" stroke="#ff0000" points="441.5,-.5 441.5,-19.5 499.5,-19.5 499.5,-.5 441.5,-.5"/>
<text text-anchor="middle" x="470.5" y="-7.5" font-family="Helvetica,sans-Serif" font-size="10.00" fill="#000000">js_os_init</text>
</a>
</g>
</g>
<!-- Node18003&#45;&gt;Node18004 -->
<g id="edge6" class="edge">
<title>Node18003&#45;&gt;Node18004</title>
<path fill="none" stroke="#191970" d="M378.1568,-10C399.2133,-10 422.9712,-10 441.1157,-10"/>
<polygon fill="#191970" stroke="#191970" points="378.0734,-6.5001 368.0734,-10 378.0734,-13.5001 378.0734,-6.5001"/>
</g>
</g>
</svg>
        <g id="navigator" transform="translate(0 0)" fill="#404254">
                <rect fill="#f2f5e9" fill-opacity="0.5" stroke="#606060" stroke-width=".5" x="0" y="0" width="60" height="60"/>
                <use id="zoomplus" xlink:href="#zoomPlus" x="17" y="9" onmousedown="handleZoom(evt,'in')"/>
                <use id="zoomminus" xlink:href="#zoomMin" x="42" y="9" onmousedown="handleZoom(evt,'out')"/>
                <use id="reset" xlink:href="#resetDef" x="30" y="36" onmousedown="handleReset()"/>
                <g id="arrowUp" xlink:href="#dirArrow" transform="translate(30 24)" onmousedown="handlePan(0,-1)">
                  <use xlink:href="#rim" fill="#404040">
                        <set attributeName="fill" to="#808080" begin="arrowUp.mouseover" end="arrowUp.mouseout"/>
                  </use>
                  <path fill="none" stroke="white" stroke-width="1.5" d="M0,-3.0v7 M-2.5,-0.5L0,-3.0L2.5,-0.5"/>
                </g>
                <g id="arrowRight" xlink:href="#dirArrow" transform="rotate(90) translate(36 -43)" onmousedown="handlePan(1,0)">
                  <use xlink:href="#rim" fill="#404040">
                        <set attributeName="fill" to="#808080" begin="arrowRight.mouseover" end="arrowRight.mouseout"/>
                  </use>
                  <path fill="none" stroke="white" stroke-width="1.5" d="M0,-3.0v7 M-2.5,-0.5L0,-3.0L2.5,-0.5"/>
                </g>
                <g id="arrowDown" xlink:href="#dirArrow" transform="rotate(180) translate(-30 -48)" onmousedown="handlePan(0,1)">
                  <use xlink:href="#rim" fill="#404040">
                        <set attributeName="fill" to="#808080" begin="arrowDown.mouseover" end="arrowDown.mouseout"/>
                  </use>
                  <path fill="none" stroke="white" stroke-width="1.5" d="M0,-3.0v7 M-2.5,-0.5L0,-3.0L2.5,-0.5"/>
                </g>
                <g id="arrowLeft" xlink:href="#dirArrow" transform="rotate(270) translate(-36 17)" onmousedown="handlePan(-1,0)">
                  <use xlink:href="#rim" fill="#404040">
                        <set attributeName="fill" to="#808080" begin="arrowLeft.mouseover" end="arrowLeft.mouseout"/>
                  </use>
                  <path fill="none" stroke="white" stroke-width="1.5" d="M0,-3.0v7 M-2.5,-0.5L0,-3.0L2.5,-0.5"/>
                </g>
        </g>
        <svg viewBox="0 0 15 15" width="100%" height="30px" preserveAspectRatio="xMaxYMin meet">
         <g id="arrow_out" transform="scale(0.3 0.3)">
          <a xlink:href="quickjs-libc_8c_a787c84066ba712c7487df7459615276f_icgraph_org.svg" target="_base">
           <rect id="button" ry="5" rx="5" y="6" x="6" height="38" width="38"
                fill="#f2f5e9" fill-opacity="0.5" stroke="#606060" stroke-width="1.0"/>
           <path id="arrow"
             d="M 11.500037,31.436501 C 11.940474,20.09759 22.043105,11.32322 32.158766,21.979434 L 37.068811,17.246167 C 37.068811,17.246167 37.088388,32 37.088388,32 L 22.160133,31.978069 C 22.160133,31.978069 26.997745,27.140456 26.997745,27.140456 C 18.528582,18.264221 13.291696,25.230495 11.500037,31.436501 z"
             style="fill:#404040;"/>
          </a>
         </g>
        </svg>
</svg>
