<?xml version="1.0" encoding="UTF-8" standalone="no"?>
<!DOCTYPE svg PUBLIC "-//W3C//DTD SVG 1.1//EN"
 "http://www.w3.org/Graphics/SVG/1.1/DTD/svg11.dtd">
<!-- Generated by graphviz version 2.40.1 (20161225.0304)
 -->
<!-- Title: free_var_ref Pages: 1 -->
<svg width="487pt" height="258pt"
 viewBox="0.00 0.00 487.00 258.00" xmlns="http://www.w3.org/2000/svg" xmlns:xlink="http://www.w3.org/1999/xlink">
<g id="graph0" class="graph" transform="scale(1 1) rotate(0) translate(4 254)">
<title>free_var_ref</title>
<!-- Node28704 -->
<g id="node1" class="node">
<title>Node28704</title>
<polygon fill="#bfbfbf" stroke="#000000" points="0,-104.5 0,-123.5 68,-123.5 68,-104.5 0,-104.5"/>
<text text-anchor="middle" x="34" y="-111.5" font-family="Helvetica,sans-Serif" font-size="10.00" fill="#000000">free_var_ref</text>
</g>
<!-- Node28705 -->
<g id="node2" class="node">
<title>Node28705</title>
<g id="a_node2"><a xlink:href="quickjs_8c.html#af4274494e2e45f9018154ffcbb7e89e4" target="_top" xlink:title="free_property">
<polygon fill="none" stroke="#000000" points="137,-202.5 137,-221.5 211,-221.5 211,-202.5 137,-202.5"/>
<text text-anchor="middle" x="174" y="-209.5" font-family="Helvetica,sans-Serif" font-size="10.00" fill="#000000">free_property</text>
</a>
</g>
</g>
<!-- Node28704&#45;&gt;Node28705 -->
<g id="edge1" class="edge">
<title>Node28704&#45;&gt;Node28705</title>
<path fill="none" stroke="#191970" d="M45.4206,-132.1548C57.7222,-150.2267 78.9399,-177.4492 104,-193 113.8438,-199.1085 125.6529,-203.2803 136.7434,-206.1186"/>
<polygon fill="#191970" stroke="#191970" points="48.246,-130.0811 39.8273,-123.6487 42.3972,-133.9272 48.246,-130.0811"/>
</g>
<!-- Node29219 -->
<g id="node6" class="node">
<title>Node29219</title>
<g id="a_node6"><a xlink:href="quickjs_8c.html#a1c459034f2971c4abc3a8d6d4693ef5f" target="_top" xlink:title="js_build_mapped_arguments">
<polygon fill="none" stroke="#000000" points="104,-164.5 104,-183.5 244,-183.5 244,-164.5 104,-164.5"/>
<text text-anchor="middle" x="174" y="-171.5" font-family="Helvetica,sans-Serif" font-size="10.00" fill="#000000">js_build_mapped_arguments</text>
</a>
</g>
</g>
<!-- Node28704&#45;&gt;Node29219 -->
<g id="edge5" class="edge">
<title>Node28704&#45;&gt;Node29219</title>
<path fill="none" stroke="#191970" d="M59.7998,-128.4037C72.8353,-135.3876 89.0266,-143.6224 104,-150 116.5289,-155.3364 130.6837,-160.3683 142.9698,-164.433"/>
<polygon fill="#191970" stroke="#191970" points="61.3861,-125.2823 50.9283,-123.5839 58.0444,-131.4332 61.3861,-125.2823"/>
</g>
<!-- Node28736 -->
<g id="node7" class="node">
<title>Node28736</title>
<g id="a_node7"><a xlink:href="quickjs_8c.html#ac2894ff4edcdb4e6841bcce9c76081e3" target="_top" xlink:title="JS_CallInternal">
<polygon fill="none" stroke="#ff0000" points="280,-126.5 280,-145.5 363,-145.5 363,-126.5 280,-126.5"/>
<text text-anchor="middle" x="321.5" y="-133.5" font-family="Helvetica,sans-Serif" font-size="10.00" fill="#000000">JS_CallInternal</text>
</a>
</g>
</g>
<!-- Node28704&#45;&gt;Node28736 -->
<g id="edge9" class="edge">
<title>Node28704&#45;&gt;Node28736</title>
<path fill="none" stroke="#191970" d="M78.2141,-117.3833C133.0289,-121.5779 225.7738,-128.6749 279.5292,-132.7883"/>
<polygon fill="#191970" stroke="#191970" points="78.3469,-113.8834 68.109,-116.6101 77.8128,-120.863 78.3469,-113.8834"/>
</g>
<!-- Node29362 -->
<g id="node8" class="node">
<title>Node29362</title>
<g id="a_node8"><a xlink:href="quickjs_8c.html#a21648ca38448a0bc9b61e102f7b46d25" target="_top" xlink:title="js_bytecode_function\l_finalizer">
<polygon fill="none" stroke="#000000" points="119.5,-77 119.5,-107 228.5,-107 228.5,-77 119.5,-77"/>
<text text-anchor="start" x="127.5" y="-95" font-family="Helvetica,sans-Serif" font-size="10.00" fill="#000000">js_bytecode_function</text>
<text text-anchor="middle" x="174" y="-84" font-family="Helvetica,sans-Serif" font-size="10.00" fill="#000000">_finalizer</text>
</a>
</g>
</g>
<!-- Node28704&#45;&gt;Node29362 -->
<g id="edge8" class="edge">
<title>Node28704&#45;&gt;Node29362</title>
<path fill="none" stroke="#191970" d="M78.3593,-107.0293C91.3871,-104.982 105.7898,-102.7187 119.379,-100.5833"/>
<polygon fill="#191970" stroke="#191970" points="77.5833,-103.6082 68.2479,-108.6182 78.67,-110.5233 77.5833,-103.6082"/>
</g>
<!-- Node28734 -->
<g id="node9" class="node">
<title>Node28734</title>
<g id="a_node9"><a xlink:href="quickjs_8c.html#ab50618f1bf78e444caa6da0e3e2785d7" target="_top" xlink:title="JS_DefineProperty">
<polygon fill="none" stroke="#ff0000" points="124.5,-38.5 124.5,-57.5 223.5,-57.5 223.5,-38.5 124.5,-38.5"/>
<text text-anchor="middle" x="174" y="-45.5" font-family="Helvetica,sans-Serif" font-size="10.00" fill="#000000">JS_DefineProperty</text>
</a>
</g>
</g>
<!-- Node28704&#45;&gt;Node28734 -->
<g id="edge10" class="edge">
<title>Node28704&#45;&gt;Node28734</title>
<path fill="none" stroke="#191970" d="M53.7338,-98.1873C67.2184,-88.046 85.8665,-75.2762 104,-67 112.2481,-63.2355 121.3938,-60.0856 130.2797,-57.5024"/>
<polygon fill="#191970" stroke="#191970" points="51.4592,-95.5214 45.6755,-104.3983 55.7325,-101.0657 51.4592,-95.5214"/>
</g>
<!-- Node29427 -->
<g id="node10" class="node">
<title>Node29427</title>
<g id="a_node10"><a xlink:href="quickjs_8c.html#a05db980a30860573f912cbeb64e99c3c" target="_top" xlink:title="js_free_module_def">
<polygon fill="none" stroke="#ff0000" points="123.5,-.5 123.5,-19.5 224.5,-19.5 224.5,-.5 123.5,-.5"/>
<text text-anchor="middle" x="174" y="-7.5" font-family="Helvetica,sans-Serif" font-size="10.00" fill="#000000">js_free_module_def</text>
</a>
</g>
</g>
<!-- Node28704&#45;&gt;Node29427 -->
<g id="edge12" class="edge">
<title>Node28704&#45;&gt;Node29427</title>
<path fill="none" stroke="#191970" d="M44.3652,-95.6361C56.2777,-76.2015 77.6234,-46.0355 104,-29 110.0295,-25.1058 116.8443,-22.0038 123.7958,-19.5343"/>
<polygon fill="#191970" stroke="#191970" points="41.2297,-94.0626 39.1563,-104.4526 47.2564,-97.6233 41.2297,-94.0626"/>
</g>
<!-- Node28706 -->
<g id="node3" class="node">
<title>Node28706</title>
<g id="a_node3"><a xlink:href="quickjs_8c.html#a41a4918c15192dc3489dc3ecb3fdc24d" target="_top" xlink:title="free_object">
<polygon fill="none" stroke="#000000" points="289,-230.5 289,-249.5 354,-249.5 354,-230.5 289,-230.5"/>
<text text-anchor="middle" x="321.5" y="-237.5" font-family="Helvetica,sans-Serif" font-size="10.00" fill="#000000">free_object</text>
</a>
</g>
</g>
<!-- Node28705&#45;&gt;Node28706 -->
<g id="edge2" class="edge">
<title>Node28705&#45;&gt;Node28706</title>
<path fill="none" stroke="#191970" d="M221.0695,-220.9352C243.1448,-225.1258 268.9063,-230.0161 288.8107,-233.7946"/>
<polygon fill="#191970" stroke="#191970" points="221.6978,-217.4921 211.2205,-219.0656 220.3923,-224.3693 221.6978,-217.4921"/>
</g>
<!-- Node29352 -->
<g id="node5" class="node">
<title>Node29352</title>
<g id="a_node5"><a xlink:href="quickjs_8c.html#a2b9a2014cb970af5b5b7dde00afbdffa" target="_top" xlink:title="delete_property">
<polygon fill="none" stroke="#ff0000" points="280,-192.5 280,-211.5 363,-211.5 363,-192.5 280,-192.5"/>
<text text-anchor="middle" x="321.5" y="-199.5" font-family="Helvetica,sans-Serif" font-size="10.00" fill="#000000">delete_property</text>
</a>
</g>
</g>
<!-- Node28705&#45;&gt;Node29352 -->
<g id="edge4" class="edge">
<title>Node28705&#45;&gt;Node29352</title>
<path fill="none" stroke="#191970" d="M221.3681,-208.7886C240.19,-207.5125 261.6525,-206.0575 279.8669,-204.8226"/>
<polygon fill="#191970" stroke="#191970" points="220.9608,-205.3081 211.2205,-209.4766 221.4344,-212.2921 220.9608,-205.3081"/>
</g>
<!-- Node28707 -->
<g id="node4" class="node">
<title>Node28707</title>
<g id="a_node4"><a xlink:href="quickjs_8c.html#a3d1c7a8d6aa5a9ba8ea8ef2828db188a" target="_top" xlink:title="free_gc_object">
<polygon fill="none" stroke="#ff0000" points="399,-230.5 399,-249.5 479,-249.5 479,-230.5 399,-230.5"/>
<text text-anchor="middle" x="439" y="-237.5" font-family="Helvetica,sans-Serif" font-size="10.00" fill="#000000">free_gc_object</text>
</a>
</g>
</g>
<!-- Node28706&#45;&gt;Node28707 -->
<g id="edge3" class="edge">
<title>Node28706&#45;&gt;Node28707</title>
<path fill="none" stroke="#191970" d="M364.3159,-240C375.6162,-240 387.7674,-240 398.9175,-240"/>
<polygon fill="#191970" stroke="#191970" points="364.2303,-236.5001 354.2303,-240 364.2303,-243.5001 364.2303,-236.5001"/>
</g>
<!-- Node29219&#45;&gt;Node28736 -->
<g id="edge6" class="edge">
<title>Node29219&#45;&gt;Node28736</title>
<path fill="none" stroke="#191970" d="M221.0141,-161.8879C241.5566,-156.5956 265.2998,-150.4787 284.5472,-145.5201"/>
<polygon fill="#191970" stroke="#191970" points="220.0311,-158.5268 211.2205,-164.411 221.7775,-165.3054 220.0311,-158.5268"/>
</g>
<!-- Node28736&#45;&gt;Node28736 -->
<g id="edge7" class="edge">
<title>Node28736&#45;&gt;Node28736</title>
<path fill="none" stroke="#191970" d="M300.0196,-155.4C301.4541,-160.3146 308.6143,-164 321.5,-164 342.1172,-164 348.0768,-154.5653 339.379,-145.7571"/>
<polygon fill="#191970" stroke="#191970" points="303.401,-156.3496 303.621,-145.7571 296.8434,-153.9004 303.401,-156.3496"/>
</g>
<!-- Node28734&#45;&gt;Node28736 -->
<g id="edge11" class="edge">
<title>Node28734&#45;&gt;Node28736</title>
<path fill="none" stroke="#191970" d="M230.6765,-60.9119C235.291,-62.7011 239.792,-64.7217 244,-67 273.149,-82.7822 300.4329,-111.523 313.4744,-126.4413"/>
<polygon fill="#191970" stroke="#191970" points="231.6979,-57.5612 221.1031,-57.556 229.3822,-64.1671 231.6979,-57.5612"/>
</g>
</g>
</svg>
