<?xml version="1.0" encoding="UTF-8" standalone="no"?>
<!DOCTYPE svg PUBLIC "-//W3C//DTD SVG 1.1//EN"
 "http://www.w3.org/Graphics/SVG/1.1/DTD/svg11.dtd">
<!-- Generated by graphviz version 2.40.1 (20161225.0304)
 -->
<!-- Title: js_atom_concat_str Pages: 1 -->
<svg width="828pt" height="598pt"
 viewBox="0.00 0.00 828.00 598.00" xmlns="http://www.w3.org/2000/svg" xmlns:xlink="http://www.w3.org/1999/xlink">
<g id="graph0" class="graph" transform="scale(1 1) rotate(0) translate(4 594)">
<title>js_atom_concat_str</title>
<!-- Node96681 -->
<g id="node1" class="node">
<title>Node96681</title>
<polygon fill="#bfbfbf" stroke="#000000" points="0,-342.5 0,-361.5 102,-361.5 102,-342.5 0,-342.5"/>
<text text-anchor="middle" x="51" y="-349.5" font-family="Helvetica,sans-Serif" font-size="10.00" fill="#000000">js_atom_concat_str</text>
</g>
<!-- Node96682 -->
<g id="node2" class="node">
<title>Node96682</title>
<g id="a_node2"><a xlink:href="quickjs_8c.html#a260bfa297ff6cb5bd18e229afaa54663" target="_top" xlink:title="JS_AtomToString">
<polygon fill="none" stroke="#000000" points="138,-475.5 138,-494.5 232,-494.5 232,-475.5 138,-475.5"/>
<text text-anchor="middle" x="185" y="-482.5" font-family="Helvetica,sans-Serif" font-size="10.00" fill="#000000">JS_AtomToString</text>
</a>
</g>
</g>
<!-- Node96681&#45;&gt;Node96682 -->
<g id="edge1" class="edge">
<title>Node96681&#45;&gt;Node96682</title>
<path fill="none" stroke="#191970" d="M59.9558,-361.6463C75.5234,-378.327 108.7164,-413.5099 138,-442 147.2249,-450.9749 157.7753,-460.6761 166.5398,-468.5885"/>
<polygon fill="#191970" stroke="#191970" points="164.217,-471.2066 173.9975,-475.28 168.8919,-465.9965 164.217,-471.2066"/>
</g>
<!-- Node96699 -->
<g id="node9" class="node">
<title>Node96699</title>
<g id="a_node9"><a xlink:href="quickjs_8c.html#a80e54dcf9ac687d4ccc2f90273565f30" target="_top" xlink:title="js_free">
<polygon fill="none" stroke="#ff0000" points="162,-228.5 162,-247.5 208,-247.5 208,-228.5 162,-228.5"/>
<text text-anchor="middle" x="185" y="-235.5" font-family="Helvetica,sans-Serif" font-size="10.00" fill="#000000">js_free</text>
</a>
</g>
</g>
<!-- Node96681&#45;&gt;Node96699 -->
<g id="edge8" class="edge">
<title>Node96681&#45;&gt;Node96699</title>
<path fill="none" stroke="#191970" d="M58.5257,-342.3163C72.6294,-324.6401 104.6382,-286.6962 138,-262 142.8119,-258.438 148.2294,-255.1308 153.63,-252.1803"/>
<polygon fill="#191970" stroke="#191970" points="155.3014,-255.2565 162.5927,-247.5697 152.0992,-249.0318 155.3014,-255.2565"/>
</g>
<!-- Node96710 -->
<g id="node10" class="node">
<title>Node96710</title>
<g id="a_node10"><a xlink:href="quickjs_8c.html#ae0bc4f65da64810facb2cb9e476eda2e" target="_top" xlink:title="JS_FreeCString">
<polygon fill="none" stroke="#000000" points="277,-380.5 277,-399.5 363,-399.5 363,-380.5 277,-380.5"/>
<text text-anchor="middle" x="320" y="-387.5" font-family="Helvetica,sans-Serif" font-size="10.00" fill="#000000">JS_FreeCString</text>
</a>
</g>
</g>
<!-- Node96681&#45;&gt;Node96710 -->
<g id="edge9" class="edge">
<title>Node96681&#45;&gt;Node96710</title>
<path fill="none" stroke="#191970" d="M90.2349,-361.5374C105.1239,-364.9009 122.2782,-368.4706 138,-371 180.9641,-377.9122 230.0575,-382.8671 266.4201,-385.9803"/>
<polygon fill="#191970" stroke="#191970" points="266.5412,-389.5026 276.7982,-386.8485 267.1248,-382.527 266.5412,-389.5026"/>
</g>
<!-- Node96711 -->
<g id="node11" class="node">
<title>Node96711</title>
<g id="a_node11"><a xlink:href="quickjs_8h.html#afaa20c47565bc704c6c85f3d77254e7d" target="_top" xlink:title="JS_FreeValue">
<polygon fill="none" stroke="#000000" points="428.5,-418.5 428.5,-437.5 506.5,-437.5 506.5,-418.5 428.5,-418.5"/>
<text text-anchor="middle" x="467.5" y="-425.5" font-family="Helvetica,sans-Serif" font-size="10.00" fill="#000000">JS_FreeValue</text>
</a>
</g>
</g>
<!-- Node96681&#45;&gt;Node96711 -->
<g id="edge12" class="edge">
<title>Node96681&#45;&gt;Node96711</title>
<path fill="none" stroke="#191970" d="M69.1376,-361.6297C86.3799,-370.3675 113.2784,-382.9322 138,-390 234.8312,-417.6836 353.1447,-425.2773 418.3939,-427.3103"/>
<polygon fill="#191970" stroke="#191970" points="418.3046,-430.8091 428.3989,-427.5911 418.5011,-423.8119 418.3046,-430.8091"/>
</g>
<!-- Node96746 -->
<g id="node13" class="node">
<title>Node96746</title>
<g id="a_node13"><a xlink:href="quickjs_8h.html#ad80a83d73e9b7d872b88fbf2943aebe9" target="_top" xlink:title="JS_IsException">
<polygon fill="none" stroke="#000000" points="424.5,-266.5 424.5,-285.5 510.5,-285.5 510.5,-266.5 424.5,-266.5"/>
<text text-anchor="middle" x="467.5" y="-273.5" font-family="Helvetica,sans-Serif" font-size="10.00" fill="#000000">JS_IsException</text>
</a>
</g>
</g>
<!-- Node96681&#45;&gt;Node96746 -->
<g id="edge13" class="edge">
<title>Node96681&#45;&gt;Node96746</title>
<path fill="none" stroke="#191970" d="M92.9616,-342.4477C107.2275,-339.3036 123.2825,-335.8786 138,-333 235.2117,-313.9861 349.2096,-294.9973 414.4353,-284.4464"/>
<polygon fill="#191970" stroke="#191970" points="415.1599,-287.8749 424.4748,-282.8268 414.045,-280.9642 415.1599,-287.8749"/>
</g>
<!-- Node96747 -->
<g id="node14" class="node">
<title>Node96747</title>
<g id="a_node14"><a xlink:href="quickjs_8c.html#a522741f41afb1d0da0aa55968cd8579e" target="_top" xlink:title="JS_NewAtomLen">
<polygon fill="none" stroke="#000000" points="273.5,-209.5 273.5,-228.5 366.5,-228.5 366.5,-209.5 273.5,-209.5"/>
<text text-anchor="middle" x="320" y="-216.5" font-family="Helvetica,sans-Serif" font-size="10.00" fill="#000000">JS_NewAtomLen</text>
</a>
</g>
</g>
<!-- Node96681&#45;&gt;Node96747 -->
<g id="edge14" class="edge">
<title>Node96681&#45;&gt;Node96747</title>
<path fill="none" stroke="#191970" d="M65.777,-342.4235C82.8414,-331.541 111.9174,-313.5368 138,-300 152.1798,-292.6407 240.7014,-253.7088 288.8641,-232.6137"/>
<polygon fill="#191970" stroke="#191970" points="290.4492,-235.7405 298.2062,-228.5239 287.642,-229.328 290.4492,-235.7405"/>
</g>
<!-- Node96765 -->
<g id="node24" class="node">
<title>Node96765</title>
<g id="a_node24"><a xlink:href="quickjs_8h.html#a1e7f56471f8608df9405987087a56070" target="_top" xlink:title="JS_ToCStringLen">
<polygon fill="none" stroke="#000000" points="138,-342.5 138,-361.5 232,-361.5 232,-342.5 138,-342.5"/>
<text text-anchor="middle" x="185" y="-349.5" font-family="Helvetica,sans-Serif" font-size="10.00" fill="#000000">JS_ToCStringLen</text>
</a>
</g>
</g>
<!-- Node96681&#45;&gt;Node96765 -->
<g id="edge28" class="edge">
<title>Node96681&#45;&gt;Node96765</title>
<path fill="none" stroke="#191970" d="M102.0419,-352C110.3499,-352 119.0054,-352 127.4562,-352"/>
<polygon fill="#191970" stroke="#191970" points="127.6255,-355.5001 137.6255,-352 127.6255,-348.5001 127.6255,-355.5001"/>
</g>
<!-- Node96683 -->
<g id="node3" class="node">
<title>Node96683</title>
<g id="a_node3"><a xlink:href="quickjs_8c.html#a06ff303a11e6641cbf1f6634e6a61811" target="_top" xlink:title="__JS_AtomToValue">
<polygon fill="none" stroke="#000000" points="268,-494.5 268,-513.5 372,-513.5 372,-494.5 268,-494.5"/>
<text text-anchor="middle" x="320" y="-501.5" font-family="Helvetica,sans-Serif" font-size="10.00" fill="#000000">__JS_AtomToValue</text>
</a>
</g>
</g>
<!-- Node96682&#45;&gt;Node96683 -->
<g id="edge2" class="edge">
<title>Node96682&#45;&gt;Node96683</title>
<path fill="none" stroke="#191970" d="M232.2164,-491.6453C240.5233,-492.8144 249.282,-494.0471 257.9214,-495.263"/>
<polygon fill="#191970" stroke="#191970" points="257.5842,-498.75 267.9744,-496.6779 258.5599,-491.8183 257.5842,-498.75"/>
</g>
<!-- Node96684 -->
<g id="node4" class="node">
<title>Node96684</title>
<g id="a_node4"><a xlink:href="quickjs_8c.html#a288254c06a39c9fca740a7abdad2834e" target="_top" xlink:title="__JS_AtomIsTaggedInt">
<polygon fill="none" stroke="#000000" points="408,-532.5 408,-551.5 527,-551.5 527,-532.5 408,-532.5"/>
<text text-anchor="middle" x="467.5" y="-539.5" font-family="Helvetica,sans-Serif" font-size="10.00" fill="#000000">__JS_AtomIsTaggedInt</text>
</a>
</g>
</g>
<!-- Node96683&#45;&gt;Node96684 -->
<g id="edge3" class="edge">
<title>Node96683&#45;&gt;Node96684</title>
<path fill="none" stroke="#191970" d="M357.2205,-513.589C376.5093,-518.5583 400.2584,-524.6767 420.771,-529.9613"/>
<polygon fill="#191970" stroke="#191970" points="419.9902,-533.3744 430.5472,-532.4799 421.7366,-526.5957 419.9902,-533.3744"/>
</g>
<!-- Node96685 -->
<g id="node5" class="node">
<title>Node96685</title>
<g id="a_node5"><a xlink:href="quickjs_8c.html#a89f38938cee8077ce1fbba07946ed185" target="_top" xlink:title="__JS_AtomToUInt32">
<polygon fill="none" stroke="#000000" points="413.5,-494.5 413.5,-513.5 521.5,-513.5 521.5,-494.5 413.5,-494.5"/>
<text text-anchor="middle" x="467.5" y="-501.5" font-family="Helvetica,sans-Serif" font-size="10.00" fill="#000000">__JS_AtomToUInt32</text>
</a>
</g>
</g>
<!-- Node96683&#45;&gt;Node96685 -->
<g id="edge4" class="edge">
<title>Node96683&#45;&gt;Node96685</title>
<path fill="none" stroke="#191970" d="M372.003,-504C382.0804,-504 392.7527,-504 403.1702,-504"/>
<polygon fill="#191970" stroke="#191970" points="403.4712,-507.5001 413.4712,-504 403.4711,-500.5001 403.4712,-507.5001"/>
</g>
<!-- Node96686 -->
<g id="node6" class="node">
<title>Node96686</title>
<g id="a_node6"><a xlink:href="quickjs_8h.html#a775522f2d084fc8fa0fcb33f390006b4" target="_top" xlink:title="JS_DupValue">
<polygon fill="none" stroke="#000000" points="429,-456.5 429,-475.5 506,-475.5 506,-456.5 429,-456.5"/>
<text text-anchor="middle" x="467.5" y="-463.5" font-family="Helvetica,sans-Serif" font-size="10.00" fill="#000000">JS_DupValue</text>
</a>
</g>
</g>
<!-- Node96683&#45;&gt;Node96686 -->
<g id="edge5" class="edge">
<title>Node96683&#45;&gt;Node96686</title>
<path fill="none" stroke="#191970" d="M357.2205,-494.411C376.5093,-489.4417 400.2584,-483.3233 420.771,-478.0387"/>
<polygon fill="#191970" stroke="#191970" points="421.7366,-481.4043 430.5472,-475.5201 419.9902,-474.6256 421.7366,-481.4043"/>
</g>
<!-- Node96687 -->
<g id="node7" class="node">
<title>Node96687</title>
<g id="a_node7"><a xlink:href="quickjs_8c.html#a0ee6a3654a6016393fac5e1c108f403a" target="_top" xlink:title="JS_NewString">
<polygon fill="none" stroke="#000000" points="427.5,-570.5 427.5,-589.5 507.5,-589.5 507.5,-570.5 427.5,-570.5"/>
<text text-anchor="middle" x="467.5" y="-577.5" font-family="Helvetica,sans-Serif" font-size="10.00" fill="#000000">JS_NewString</text>
</a>
</g>
</g>
<!-- Node96683&#45;&gt;Node96687 -->
<g id="edge6" class="edge">
<title>Node96683&#45;&gt;Node96687</title>
<path fill="none" stroke="#191970" d="M332.4901,-513.6286C349.0052,-525.9895 379.3702,-547.4539 408,-561 412.659,-563.2044 417.6391,-565.2452 422.6604,-567.1071"/>
<polygon fill="#191970" stroke="#191970" points="421.699,-570.4785 432.2939,-570.4634 424.0021,-563.8682 421.699,-570.4785"/>
</g>
<!-- Node96688 -->
<g id="node8" class="node">
<title>Node96688</title>
<g id="a_node8"><a xlink:href="quickjs_8c.html#ac34cc554aab1e98c45a7f845fff64385" target="_top" xlink:title="JS_NewStringLen">
<polygon fill="none" stroke="#ff0000" points="575,-304.5 575,-323.5 670,-323.5 670,-304.5 575,-304.5"/>
<text text-anchor="middle" x="622.5" y="-311.5" font-family="Helvetica,sans-Serif" font-size="10.00" fill="#000000">JS_NewStringLen</text>
</a>
</g>
</g>
<!-- Node96687&#45;&gt;Node96688 -->
<g id="edge7" class="edge">
<title>Node96687&#45;&gt;Node96688</title>
<path fill="none" stroke="#191970" d="M507.6119,-573.423C514.8617,-570.6251 521.7682,-566.6484 527,-561 574.1764,-510.0673 536.2176,-473.0504 563,-409 575.0649,-380.1466 595.4293,-350.0822 608.9189,-331.6973"/>
<polygon fill="#191970" stroke="#191970" points="611.738,-333.7718 614.9223,-323.6667 606.1315,-329.5805 611.738,-333.7718"/>
</g>
<!-- Node96710&#45;&gt;Node96711 -->
<g id="edge10" class="edge">
<title>Node96710&#45;&gt;Node96711</title>
<path fill="none" stroke="#191970" d="M357.2205,-399.589C376.5093,-404.5583 400.2584,-410.6767 420.771,-415.9613"/>
<polygon fill="#191970" stroke="#191970" points="419.9902,-419.3744 430.5472,-418.4799 421.7366,-412.5957 419.9902,-419.3744"/>
</g>
<!-- Node96712 -->
<g id="node12" class="node">
<title>Node96712</title>
<g id="a_node12"><a xlink:href="quickjs_8c.html#aa059f309c30fd5166d16c82a97973146" target="_top" xlink:title="__JS_FreeValue">
<polygon fill="none" stroke="#ff0000" points="578,-418.5 578,-437.5 667,-437.5 667,-418.5 578,-418.5"/>
<text text-anchor="middle" x="622.5" y="-425.5" font-family="Helvetica,sans-Serif" font-size="10.00" fill="#000000">__JS_FreeValue</text>
</a>
</g>
</g>
<!-- Node96711&#45;&gt;Node96712 -->
<g id="edge11" class="edge">
<title>Node96711&#45;&gt;Node96712</title>
<path fill="none" stroke="#191970" d="M506.613,-428C525.1794,-428 547.6782,-428 567.8937,-428"/>
<polygon fill="#191970" stroke="#191970" points="567.9145,-431.5001 577.9145,-428 567.9145,-424.5001 567.9145,-431.5001"/>
</g>
<!-- Node96747&#45;&gt;Node96688 -->
<g id="edge27" class="edge">
<title>Node96747&#45;&gt;Node96688</title>
<path fill="none" stroke="#191970" d="M364.7041,-209.4773C407.9637,-202.4163 474.5125,-197.3396 527,-219 564.6199,-234.5249 595.2239,-272.8422 610.9663,-295.7903"/>
<polygon fill="#191970" stroke="#191970" points="608.1645,-297.8984 616.6064,-304.3005 613.9995,-294.0314 608.1645,-297.8984"/>
</g>
<!-- Node96747&#45;&gt;Node96746 -->
<g id="edge19" class="edge">
<title>Node96747&#45;&gt;Node96746</title>
<path fill="none" stroke="#191970" d="M340.7446,-228.6466C358.4292,-236.7033 384.6238,-248.2448 408,-257 413.6598,-259.1198 419.6753,-261.2171 425.6235,-263.2013"/>
<polygon fill="#191970" stroke="#191970" points="424.9033,-266.6477 435.4956,-266.4178 427.0718,-259.992 424.9033,-266.6477"/>
</g>
<!-- Node96748 -->
<g id="node15" class="node">
<title>Node96748</title>
<g id="a_node15"><a xlink:href="quickjs_8c.html#ac8c91ebeea0cf07e3079c49a16de739f" target="_top" xlink:title="__JS_FindAtom">
<polygon fill="none" stroke="#000000" points="424.5,-152.5 424.5,-171.5 510.5,-171.5 510.5,-152.5 424.5,-152.5"/>
<text text-anchor="middle" x="467.5" y="-159.5" font-family="Helvetica,sans-Serif" font-size="10.00" fill="#000000">__JS_FindAtom</text>
</a>
</g>
</g>
<!-- Node96747&#45;&gt;Node96748 -->
<g id="edge15" class="edge">
<title>Node96747&#45;&gt;Node96748</title>
<path fill="none" stroke="#191970" d="M344.6882,-209.4595C368.9378,-200.0884 406.139,-185.7124 433.2445,-175.2377"/>
<polygon fill="#191970" stroke="#191970" points="434.6652,-178.441 442.7313,-171.5716 432.1419,-171.9116 434.6652,-178.441"/>
</g>
<!-- Node96750 -->
<g id="node18" class="node">
<title>Node96750</title>
<g id="a_node18"><a xlink:href="quickjs_8c.html#ab3ca6381d29dea396b12acd7f755c51a" target="_top" xlink:title="is_digit">
<polygon fill="none" stroke="#000000" points="444,-228.5 444,-247.5 491,-247.5 491,-228.5 444,-228.5"/>
<text text-anchor="middle" x="467.5" y="-235.5" font-family="Helvetica,sans-Serif" font-size="10.00" fill="#000000">is_digit</text>
</a>
</g>
</g>
<!-- Node96747&#45;&gt;Node96750 -->
<g id="edge18" class="edge">
<title>Node96747&#45;&gt;Node96750</title>
<path fill="none" stroke="#191970" d="M366.6699,-225.0117C388.4188,-227.8133 413.8164,-231.0848 433.6808,-233.6436"/>
<polygon fill="#191970" stroke="#191970" points="433.4363,-237.141 443.8016,-234.9473 434.3307,-230.1983 433.4363,-237.141"/>
</g>
<!-- Node96751 -->
<g id="node19" class="node">
<title>Node96751</title>
<g id="a_node19"><a xlink:href="quickjs_8c.html#a33fd643aff7f70e649d246385cd99b00" target="_top" xlink:title="JS_NewAtomStr">
<polygon fill="none" stroke="#000000" points="422.5,-76.5 422.5,-95.5 512.5,-95.5 512.5,-76.5 422.5,-76.5"/>
<text text-anchor="middle" x="467.5" y="-83.5" font-family="Helvetica,sans-Serif" font-size="10.00" fill="#000000">JS_NewAtomStr</text>
</a>
</g>
</g>
<!-- Node96747&#45;&gt;Node96751 -->
<g id="edge20" class="edge">
<title>Node96747&#45;&gt;Node96751</title>
<path fill="none" stroke="#191970" d="M330.6078,-209.435C355.469,-187.0178 417.7508,-130.8586 449.004,-102.6778"/>
<polygon fill="#191970" stroke="#191970" points="451.5074,-105.1332 456.5903,-95.8372 446.8198,-99.9345 451.5074,-105.1332"/>
</g>
<!-- Node96730 -->
<g id="node16" class="node">
<title>Node96730</title>
<g id="a_node16"><a xlink:href="quickjs_8c.html#a7f6796ee7a195631366f57c713a33f65" target="_top" xlink:title="__JS_AtomIsConst">
<polygon fill="none" stroke="#000000" points="718,-161.5 718,-180.5 820,-180.5 820,-161.5 718,-161.5"/>
<text text-anchor="middle" x="769" y="-168.5" font-family="Helvetica,sans-Serif" font-size="10.00" fill="#000000">__JS_AtomIsConst</text>
</a>
</g>
</g>
<!-- Node96748&#45;&gt;Node96730 -->
<g id="edge16" class="edge">
<title>Node96748&#45;&gt;Node96730</title>
<path fill="none" stroke="#191970" d="M506.2711,-171.5101C523.5232,-175.2751 544.1578,-179.1438 563,-181 615.6341,-186.185 629.1977,-184.0247 682,-181 690.2914,-180.525 699.0055,-179.7975 707.5845,-178.9467"/>
<polygon fill="#191970" stroke="#191970" points="707.9801,-182.4245 717.5599,-177.8992 707.249,-175.4628 707.9801,-182.4245"/>
</g>
<!-- Node96749 -->
<g id="node17" class="node">
<title>Node96749</title>
<g id="a_node17"><a xlink:href="quickjs_8c.html#a7f3a538c8f7ee373cfe88625181739ad" target="_top" xlink:title="hash_string8">
<polygon fill="none" stroke="#000000" points="586.5,-152.5 586.5,-171.5 658.5,-171.5 658.5,-152.5 586.5,-152.5"/>
<text text-anchor="middle" x="622.5" y="-159.5" font-family="Helvetica,sans-Serif" font-size="10.00" fill="#000000">hash_string8</text>
</a>
</g>
</g>
<!-- Node96748&#45;&gt;Node96749 -->
<g id="edge17" class="edge">
<title>Node96748&#45;&gt;Node96749</title>
<path fill="none" stroke="#191970" d="M510.6761,-162C531.0597,-162 555.4131,-162 576.1813,-162"/>
<polygon fill="#191970" stroke="#191970" points="576.3642,-165.5001 586.3642,-162 576.3641,-158.5001 576.3642,-165.5001"/>
</g>
<!-- Node96752 -->
<g id="node20" class="node">
<title>Node96752</title>
<g id="a_node20"><a xlink:href="quickjs_8c.html#a877fcb7651d95b411ce70e62b7f4a1f0" target="_top" xlink:title="__JS_AtomFromUInt32">
<polygon fill="none" stroke="#000000" points="563,-38.5 563,-57.5 682,-57.5 682,-38.5 563,-38.5"/>
<text text-anchor="middle" x="622.5" y="-45.5" font-family="Helvetica,sans-Serif" font-size="10.00" fill="#000000">__JS_AtomFromUInt32</text>
</a>
</g>
</g>
<!-- Node96751&#45;&gt;Node96752 -->
<g id="edge21" class="edge">
<title>Node96751&#45;&gt;Node96752</title>
<path fill="none" stroke="#191970" d="M506.613,-76.411C526.9748,-71.4191 552.0663,-65.2676 573.6887,-59.9666"/>
<polygon fill="#191970" stroke="#191970" points="574.7892,-63.3006 583.6682,-57.5201 573.1224,-56.5019 574.7892,-63.3006"/>
</g>
<!-- Node96753 -->
<g id="node21" class="node">
<title>Node96753</title>
<g id="a_node21"><a xlink:href="quickjs_8c.html#acd08798ec15cc37c60d2e7d70007c6a8" target="_top" xlink:title="__JS_NewAtom">
<polygon fill="none" stroke="#ff0000" points="578.5,-114.5 578.5,-133.5 666.5,-133.5 666.5,-114.5 578.5,-114.5"/>
<text text-anchor="middle" x="622.5" y="-121.5" font-family="Helvetica,sans-Serif" font-size="10.00" fill="#000000">__JS_NewAtom</text>
</a>
</g>
</g>
<!-- Node96751&#45;&gt;Node96753 -->
<g id="edge22" class="edge">
<title>Node96751&#45;&gt;Node96753</title>
<path fill="none" stroke="#191970" d="M506.613,-95.589C526.9748,-100.5809 552.0663,-106.7324 573.6887,-112.0334"/>
<polygon fill="#191970" stroke="#191970" points="573.1224,-115.4981 583.6682,-114.4799 574.7892,-108.6994 573.1224,-115.4981"/>
</g>
<!-- Node96757 -->
<g id="node22" class="node">
<title>Node96757</title>
<g id="a_node22"><a xlink:href="quickjs_8c.html#aa506aaf9df272c0e9e541bbf0138b483" target="_top" xlink:title="js_free_string">
<polygon fill="none" stroke="#ff0000" points="731.5,-95.5 731.5,-114.5 806.5,-114.5 806.5,-95.5 731.5,-95.5"/>
<text text-anchor="middle" x="769" y="-102.5" font-family="Helvetica,sans-Serif" font-size="10.00" fill="#000000">js_free_string</text>
</a>
</g>
</g>
<!-- Node96751&#45;&gt;Node96757 -->
<g id="edge26" class="edge">
<title>Node96751&#45;&gt;Node96757</title>
<path fill="none" stroke="#191970" d="M512.6376,-88.8445C568.6205,-92.3724 663.6543,-98.3613 720.9522,-101.9721"/>
<polygon fill="#191970" stroke="#191970" points="720.9935,-105.4816 731.1939,-102.6175 721.4339,-98.4954 720.9935,-105.4816"/>
</g>
<!-- Node96763 -->
<g id="node23" class="node">
<title>Node96763</title>
<g id="a_node23"><a xlink:href="quickjs_8c.html#a1eaea8fa2599700598076ea84f1afcf3" target="_top" xlink:title="is_num_string">
<polygon fill="none" stroke="#ff0000" points="584,-.5 584,-19.5 661,-19.5 661,-.5 584,-.5"/>
<text text-anchor="middle" x="622.5" y="-7.5" font-family="Helvetica,sans-Serif" font-size="10.00" fill="#000000">is_num_string</text>
</a>
</g>
</g>
<!-- Node96751&#45;&gt;Node96763 -->
<g id="edge25" class="edge">
<title>Node96751&#45;&gt;Node96763</title>
<path fill="none" stroke="#191970" d="M481.1908,-76.4526C499.2607,-64.1795 532.3726,-42.8098 563,-29 567.9427,-26.7714 573.2243,-24.6885 578.5241,-22.7795"/>
<polygon fill="#191970" stroke="#191970" points="579.6825,-26.0824 588.0137,-19.5371 577.4192,-19.4584 579.6825,-26.0824"/>
</g>
<!-- Node96753&#45;&gt;Node96730 -->
<g id="edge23" class="edge">
<title>Node96753&#45;&gt;Node96730</title>
<path fill="none" stroke="#191970" d="M652.4682,-133.555C661.9184,-136.572 672.3967,-139.9214 682,-143 697.4685,-147.959 714.4785,-153.4295 729.3232,-158.2095"/>
<polygon fill="#191970" stroke="#191970" points="728.6174,-161.6591 739.2089,-161.3936 730.7635,-154.9962 728.6174,-161.6591"/>
</g>
<!-- Node96753&#45;&gt;Node96757 -->
<g id="edge24" class="edge">
<title>Node96753&#45;&gt;Node96757</title>
<path fill="none" stroke="#191970" d="M666.8524,-118.2478C684.0299,-116.02 703.7324,-113.4647 721.2219,-111.1965"/>
<polygon fill="#191970" stroke="#191970" points="721.7612,-114.6559 731.228,-109.8988 720.8609,-107.7141 721.7612,-114.6559"/>
</g>
<!-- Node96766 -->
<g id="node25" class="node">
<title>Node96766</title>
<g id="a_node25"><a xlink:href="quickjs_8c.html#af49e67b73f845dc1f9c3ee648dd9f95c" target="_top" xlink:title="JS_ToCStringLen2">
<polygon fill="none" stroke="#000000" points="270.5,-342.5 270.5,-361.5 369.5,-361.5 369.5,-342.5 270.5,-342.5"/>
<text text-anchor="middle" x="320" y="-349.5" font-family="Helvetica,sans-Serif" font-size="10.00" fill="#000000">JS_ToCStringLen2</text>
</a>
</g>
</g>
<!-- Node96765&#45;&gt;Node96766 -->
<g id="edge29" class="edge">
<title>Node96765&#45;&gt;Node96766</title>
<path fill="none" stroke="#191970" d="M232.2164,-352C241.2623,-352 250.8439,-352 260.2239,-352"/>
<polygon fill="#191970" stroke="#191970" points="260.2882,-355.5001 270.2882,-352 260.2881,-348.5001 260.2882,-355.5001"/>
</g>
<!-- Node96766&#45;&gt;Node96686 -->
<g id="edge32" class="edge">
<title>Node96766&#45;&gt;Node96686</title>
<path fill="none" stroke="#191970" d="M357.2762,-361.5246C362.6187,-364.0061 367.7389,-367.1141 372,-371 399.6167,-396.1845 379.8702,-422.39 408,-447 411.4443,-450.0133 415.3701,-452.5495 419.5249,-454.6839"/>
<polygon fill="#191970" stroke="#191970" points="418.3215,-457.977 428.8885,-458.7442 421.1063,-451.5547 418.3215,-457.977"/>
</g>
<!-- Node96766&#45;&gt;Node96711 -->
<g id="edge35" class="edge">
<title>Node96766&#45;&gt;Node96711</title>
<path fill="none" stroke="#191970" d="M353.2842,-361.5549C359.7575,-364.1221 366.2969,-367.2524 372,-371 391.4424,-383.7761 388.2984,-396.6274 408,-409 411.415,-411.1446 415.0933,-413.0671 418.8865,-414.7867"/>
<polygon fill="#191970" stroke="#191970" points="417.884,-418.1564 428.4672,-418.6543 420.5045,-411.6653 417.884,-418.1564"/>
</g>
<!-- Node96766&#45;&gt;Node96746 -->
<g id="edge31" class="edge">
<title>Node96766&#45;&gt;Node96746</title>
<path fill="none" stroke="#191970" d="M344.6468,-342.4939C353.5867,-338.57 363.5569,-333.6187 372,-328 390.0697,-315.9751 389.2237,-305.8886 408,-295 411.6408,-292.8886 415.5453,-290.9808 419.5499,-289.2632"/>
<polygon fill="#191970" stroke="#191970" points="420.9432,-292.4768 428.9984,-285.5947 418.4096,-285.9514 420.9432,-292.4768"/>
</g>
<!-- Node96767 -->
<g id="node26" class="node">
<title>Node96767</title>
<g id="a_node26"><a xlink:href="quickjs_8c.html#a7bcb8e1a20cbc8374a5f9ba4a2088cec" target="_top" xlink:title="JS_ToString">
<polygon fill="none" stroke="#ff0000" points="432,-342.5 432,-361.5 503,-361.5 503,-342.5 432,-342.5"/>
<text text-anchor="middle" x="467.5" y="-349.5" font-family="Helvetica,sans-Serif" font-size="10.00" fill="#000000">JS_ToString</text>
</a>
</g>
</g>
<!-- Node96766&#45;&gt;Node96767 -->
<g id="edge30" class="edge">
<title>Node96766&#45;&gt;Node96767</title>
<path fill="none" stroke="#191970" d="M369.5257,-352C386.4367,-352 405.2594,-352 421.8509,-352"/>
<polygon fill="#191970" stroke="#191970" points="421.8561,-355.5001 431.8561,-352 421.8561,-348.5001 421.8561,-355.5001"/>
</g>
<!-- Node96691 -->
<g id="node27" class="node">
<title>Node96691</title>
<g id="a_node27"><a xlink:href="quickjs_8c.html#ad303a9bc56766627b5fca41574933930" target="_top" xlink:title="js_alloc_string">
<polygon fill="none" stroke="#ff0000" points="428,-304.5 428,-323.5 507,-323.5 507,-304.5 428,-304.5"/>
<text text-anchor="middle" x="467.5" y="-311.5" font-family="Helvetica,sans-Serif" font-size="10.00" fill="#000000">js_alloc_string</text>
</a>
</g>
</g>
<!-- Node96766&#45;&gt;Node96691 -->
<g id="edge33" class="edge">
<title>Node96766&#45;&gt;Node96691</title>
<path fill="none" stroke="#191970" d="M357.2205,-342.411C376.5093,-337.4417 400.2584,-331.3233 420.771,-326.0387"/>
<polygon fill="#191970" stroke="#191970" points="421.7366,-329.4043 430.5472,-323.5201 419.9902,-322.6256 421.7366,-329.4043"/>
</g>
<!-- Node96900 -->
<g id="node28" class="node">
<title>Node96900</title>
<g id="a_node28"><a xlink:href="cutils_8h.html#aad4e0decb15ab19e9f45b0ee69542a28" target="_top" xlink:title="unicode_to_utf8">
<polygon fill="none" stroke="#000000" points="424.5,-380.5 424.5,-399.5 510.5,-399.5 510.5,-380.5 424.5,-380.5"/>
<text text-anchor="middle" x="467.5" y="-387.5" font-family="Helvetica,sans-Serif" font-size="10.00" fill="#000000">unicode_to_utf8</text>
</a>
</g>
</g>
<!-- Node96766&#45;&gt;Node96900 -->
<g id="edge34" class="edge">
<title>Node96766&#45;&gt;Node96900</title>
<path fill="none" stroke="#191970" d="M357.2205,-361.589C376.5093,-366.5583 400.2584,-372.6767 420.771,-377.9613"/>
<polygon fill="#191970" stroke="#191970" points="419.9902,-381.3744 430.5472,-380.4799 421.7366,-374.5957 419.9902,-381.3744"/>
</g>
</g>
</svg>
