<?xml version="1.0" encoding="UTF-8" standalone="no"?>
<!DOCTYPE svg PUBLIC "-//W3C//DTD SVG 1.1//EN"
 "http://www.w3.org/Graphics/SVG/1.1/DTD/svg11.dtd">
<!-- Generated by graphviz version 2.40.1 (20161225.0304)
 -->
<!-- Title: js_define_var Pages: 1 -->
<svg width="661pt" height="243pt"
 viewBox="0.00 0.00 661.00 242.87" xmlns="http://www.w3.org/2000/svg" xmlns:xlink="http://www.w3.org/1999/xlink">
<g id="graph0" class="graph" transform="scale(1 1) rotate(0) translate(4 238.8729)">
<title>js_define_var</title>
<!-- Node319817 -->
<g id="node1" class="node">
<title>Node319817</title>
<polygon fill="#bfbfbf" stroke="#000000" points="0,-161.5 0,-180.5 74,-180.5 74,-161.5 0,-161.5"/>
<text text-anchor="middle" x="37" y="-168.5" font-family="Helvetica,sans-Serif" font-size="10.00" fill="#000000">js_define_var</text>
</g>
<!-- Node319818 -->
<g id="node2" class="node">
<title>Node319818</title>
<g id="a_node2"><a xlink:href="quickjs_8c.html#a26be546cf89c4580ba9020e8fc43a759" target="_top" xlink:title="js_parse_destructuring\l_element">
<polygon fill="none" stroke="#000000" points="110,-109 110,-139 225,-139 225,-109 110,-109"/>
<text text-anchor="start" x="118" y="-127" font-family="Helvetica,sans-Serif" font-size="10.00" fill="#000000">js_parse_destructuring</text>
<text text-anchor="middle" x="167.5" y="-116" font-family="Helvetica,sans-Serif" font-size="10.00" fill="#000000">_element</text>
</a>
</g>
</g>
<!-- Node319817&#45;&gt;Node319818 -->
<g id="edge1" class="edge">
<title>Node319817&#45;&gt;Node319818</title>
<path fill="none" stroke="#191970" d="M73.118,-157.992C89.4246,-152.1191 108.7857,-145.1461 125.7154,-139.0488"/>
<polygon fill="#191970" stroke="#191970" points="71.6311,-154.8074 63.4086,-161.4888 74.003,-161.3933 71.6311,-154.8074"/>
</g>
<!-- Node319827 -->
<g id="node5" class="node">
<title>Node319827</title>
<g id="a_node5"><a xlink:href="quickjs_8c.html#a9d844c16dcc71701436848074337d32c" target="_top" xlink:title="js_parse_statement\l_or_decl">
<polygon fill="none" stroke="#ff0000" points="551,-71 551,-101 653,-101 653,-71 551,-71"/>
<text text-anchor="start" x="559" y="-89" font-family="Helvetica,sans-Serif" font-size="10.00" fill="#000000">js_parse_statement</text>
<text text-anchor="middle" x="602" y="-78" font-family="Helvetica,sans-Serif" font-size="10.00" fill="#000000">_or_decl</text>
</a>
</g>
</g>
<!-- Node319817&#45;&gt;Node319827 -->
<g id="edge21" class="edge">
<title>Node319817&#45;&gt;Node319827</title>
<path fill="none" stroke="#191970" d="M71.3424,-183.9765C153.1771,-212.6607 364.1049,-273.2609 515,-199 556.7632,-178.4468 584.1064,-127.1395 595.6858,-101.3326"/>
<polygon fill="#191970" stroke="#191970" points="72.3848,-180.6323 61.7901,-180.566 70.031,-187.2247 72.3848,-180.6323"/>
</g>
<!-- Node319829 -->
<g id="node6" class="node">
<title>Node319829</title>
<g id="a_node6"><a xlink:href="quickjs_8c.html#ac188b916dd086803591a67de7e7a85f6" target="_top" xlink:title="js_parse_for_in_of">
<polygon fill="none" stroke="#000000" points="419,-170.5 419,-189.5 515,-189.5 515,-170.5 419,-170.5"/>
<text text-anchor="middle" x="467" y="-177.5" font-family="Helvetica,sans-Serif" font-size="10.00" fill="#000000">js_parse_for_in_of</text>
</a>
</g>
</g>
<!-- Node319817&#45;&gt;Node319829 -->
<g id="edge20" class="edge">
<title>Node319817&#45;&gt;Node319829</title>
<path fill="none" stroke="#191970" d="M84.3509,-174.2739C129.668,-177.2325 199.9617,-181.3662 261,-183 315.2028,-184.4508 328.7864,-183.9678 383,-183 394.5263,-182.7942 406.9381,-182.4298 418.5911,-182.0242"/>
<polygon fill="#191970" stroke="#191970" points="84.4408,-170.7723 74.2319,-173.6056 83.9795,-177.7571 84.4408,-170.7723"/>
</g>
<!-- Node319853 -->
<g id="node8" class="node">
<title>Node319853</title>
<g id="a_node8"><a xlink:href="quickjs_8c.html#a42924858317b848c3aea0a0a978fab3a" target="_top" xlink:title="js_parse_var">
<polygon fill="none" stroke="#ff0000" points="286,-.5 286,-19.5 358,-19.5 358,-.5 286,-.5"/>
<text text-anchor="middle" x="322" y="-7.5" font-family="Helvetica,sans-Serif" font-size="10.00" fill="#000000">js_parse_var</text>
</a>
</g>
</g>
<!-- Node319817&#45;&gt;Node319853 -->
<g id="edge22" class="edge">
<title>Node319817&#45;&gt;Node319853</title>
<path fill="none" stroke="#191970" d="M51.8881,-153.2679C65.7006,-137.6678 87.4679,-115.1449 110,-100 168.0742,-60.9656 245.8178,-33.2415 289.2009,-19.6052"/>
<polygon fill="#191970" stroke="#191970" points="48.9789,-151.2807 45.0785,-161.1315 54.2706,-155.8631 48.9789,-151.2807"/>
</g>
<!-- Node319818&#45;&gt;Node319818 -->
<g id="edge2" class="edge">
<title>Node319818&#45;&gt;Node319818</title>
<path fill="none" stroke="#191970" d="M144.4006,-149.4579C147.2675,-154.179 154.9673,-157.5 167.5,-157.5 188.0664,-157.5 195.6181,-148.5566 190.1552,-139.159"/>
<polygon fill="#191970" stroke="#191970" points="147.9105,-149.3006 144.8448,-139.159 140.917,-148.9988 147.9105,-149.3006"/>
</g>
<!-- Node319819 -->
<g id="node3" class="node">
<title>Node319819</title>
<g id="a_node3"><a xlink:href="quickjs_8c.html#acdcc62310b4f6f73fa7bc7267b18b1d4" target="_top" xlink:title="js_parse_postfix_expr">
<polygon fill="none" stroke="#000000" points="266,-114.5 266,-133.5 378,-133.5 378,-114.5 266,-114.5"/>
<text text-anchor="middle" x="322" y="-121.5" font-family="Helvetica,sans-Serif" font-size="10.00" fill="#000000">js_parse_postfix_expr</text>
</a>
</g>
</g>
<!-- Node319818&#45;&gt;Node319819 -->
<g id="edge3" class="edge">
<title>Node319818&#45;&gt;Node319819</title>
<path fill="none" stroke="#191970" d="M235.1992,-117.2961C245.4721,-117.1965 255.9738,-117.2583 265.9625,-117.4815"/>
<polygon fill="#191970" stroke="#191970" points="234.9762,-113.7989 225.0301,-117.4494 235.0818,-120.7981 234.9762,-113.7989"/>
</g>
<!-- Node319818&#45;&gt;Node319827 -->
<g id="edge17" class="edge">
<title>Node319818&#45;&gt;Node319827</title>
<path fill="none" stroke="#191970" d="M197.6064,-103.1792C219.5813,-88.464 247.7501,-70.7203 261,-67 360.7571,-38.99 483.2169,-58.0736 550.9014,-73.0087"/>
<polygon fill="#191970" stroke="#191970" points="195.5574,-100.3396 189.2322,-108.8392 199.4772,-106.1392 195.5574,-100.3396"/>
</g>
<!-- Node319818&#45;&gt;Node319829 -->
<g id="edge16" class="edge">
<title>Node319818&#45;&gt;Node319829</title>
<path fill="none" stroke="#191970" d="M208.7918,-143.2762C224.773,-149.9504 243.423,-156.8029 261,-161 314.0991,-173.6791 376.766,-178 418.9195,-179.4182"/>
<polygon fill="#191970" stroke="#191970" points="209.7894,-139.8957 199.2195,-139.1689 207.0292,-146.3285 209.7894,-139.8957"/>
</g>
<!-- Node319818&#45;&gt;Node319853 -->
<g id="edge14" class="edge">
<title>Node319818&#45;&gt;Node319853</title>
<path fill="none" stroke="#191970" d="M186.6631,-101.0308C204.2829,-81.1038 232.002,-52.6107 261,-34 270.0988,-28.1605 280.8449,-23.3499 290.7627,-19.6088"/>
<polygon fill="#191970" stroke="#191970" points="183.8909,-98.8851 179.9784,-108.7311 189.177,-103.474 183.8909,-98.8851"/>
</g>
<!-- Node319823 -->
<g id="node9" class="node">
<title>Node319823</title>
<g id="a_node9"><a xlink:href="quickjs_8c.html#acc9eb677cab8dfcf45f59381f8a19601" target="_top" xlink:title="js_parse_function_decl2">
<polygon fill="none" stroke="#ff0000" points="261,-76.5 261,-95.5 383,-95.5 383,-76.5 261,-76.5"/>
<text text-anchor="middle" x="322" y="-83.5" font-family="Helvetica,sans-Serif" font-size="10.00" fill="#000000">js_parse_function_decl2</text>
</a>
</g>
</g>
<!-- Node319818&#45;&gt;Node319823 -->
<g id="edge18" class="edge">
<title>Node319818&#45;&gt;Node319823</title>
<path fill="none" stroke="#191970" d="M235.1581,-107.3592C251.5898,-103.3177 268.6096,-99.1316 283.1814,-95.5476"/>
<polygon fill="#191970" stroke="#191970" points="233.9047,-104.0631 225.0301,-109.8502 235.5767,-110.8605 233.9047,-104.0631"/>
</g>
<!-- Node319819&#45;&gt;Node319818 -->
<g id="edge8" class="edge">
<title>Node319819&#45;&gt;Node319818</title>
<path fill="none" stroke="#191970" d="M255.8303,-130.6879C245.582,-130.8035 235.068,-130.7577 225.0301,-130.5506"/>
<polygon fill="#191970" stroke="#191970" points="256.0225,-134.1853 265.9625,-130.5185 255.9054,-127.1863 256.0225,-134.1853"/>
</g>
<!-- Node319819&#45;&gt;Node319819 -->
<g id="edge11" class="edge">
<title>Node319819&#45;&gt;Node319819</title>
<path fill="none" stroke="#191970" d="M295.1208,-142.6539C296.2444,-147.9368 305.2041,-152 322,-152 347.5938,-152 354.9919,-142.5653 344.1946,-133.7571"/>
<polygon fill="#191970" stroke="#191970" points="298.2433,-144.2361 299.8054,-133.7571 292.0494,-140.9747 298.2433,-144.2361"/>
</g>
<!-- Node319820 -->
<g id="node4" class="node">
<title>Node319820</title>
<g id="a_node4"><a xlink:href="quickjs_8c.html#a00eb789430243c24dab4a63ad6a79653" target="_top" xlink:title="js_parse_class">
<polygon fill="none" stroke="#ff0000" points="426,-76.5 426,-95.5 508,-95.5 508,-76.5 426,-76.5"/>
<text text-anchor="middle" x="467" y="-83.5" font-family="Helvetica,sans-Serif" font-size="10.00" fill="#000000">js_parse_class</text>
</a>
</g>
</g>
<!-- Node319819&#45;&gt;Node319820 -->
<g id="edge4" class="edge">
<title>Node319819&#45;&gt;Node319820</title>
<path fill="none" stroke="#191970" d="M350.1924,-111.1379C371.7141,-104.0652 401.685,-95.9842 425.879,-90.6232"/>
<polygon fill="#191970" stroke="#191970" points="348.9829,-107.8525 340.6594,-114.4076 351.254,-114.4739 348.9829,-107.8525"/>
</g>
<!-- Node319819&#45;&gt;Node319829 -->
<g id="edge9" class="edge">
<title>Node319819&#45;&gt;Node319829</title>
<path fill="none" stroke="#191970" d="M356.5565,-137.3459C382.9986,-147.5581 418.8169,-161.3914 442.3989,-170.4989"/>
<polygon fill="#191970" stroke="#191970" points="357.5158,-133.9646 346.9264,-133.6267 354.9939,-140.4945 357.5158,-133.9646"/>
</g>
<!-- Node319840 -->
<g id="node7" class="node">
<title>Node319840</title>
<g id="a_node7"><a xlink:href="quickjs_8c.html#af99673e7430294cf15dc24dc5dac227f" target="_top" xlink:title="js_parse_unary">
<polygon fill="none" stroke="#ff0000" points="425.5,-114.5 425.5,-133.5 508.5,-133.5 508.5,-114.5 425.5,-114.5"/>
<text text-anchor="middle" x="467" y="-121.5" font-family="Helvetica,sans-Serif" font-size="10.00" fill="#000000">js_parse_unary</text>
</a>
</g>
</g>
<!-- Node319819&#45;&gt;Node319840 -->
<g id="edge12" class="edge">
<title>Node319819&#45;&gt;Node319840</title>
<path fill="none" stroke="#191970" d="M388.1624,-124C400.8657,-124 413.8305,-124 425.4807,-124"/>
<polygon fill="#191970" stroke="#191970" points="388.0608,-120.5001 378.0608,-124 388.0608,-127.5001 388.0608,-120.5001"/>
</g>
<!-- Node319820&#45;&gt;Node319819 -->
<g id="edge5" class="edge">
<title>Node319820&#45;&gt;Node319819</title>
<path fill="none" stroke="#191970" d="M438.7924,-98.8671C421.5337,-104.5382 398.8458,-110.8569 378.0608,-115.9015"/>
<polygon fill="#191970" stroke="#191970" points="439.9468,-102.1713 448.2712,-95.6174 437.6766,-95.5497 439.9468,-102.1713"/>
</g>
<!-- Node319820&#45;&gt;Node319827 -->
<g id="edge6" class="edge">
<title>Node319820&#45;&gt;Node319827</title>
<path fill="none" stroke="#191970" d="M518.5041,-86C528.993,-86 540.0288,-86 550.517,-86"/>
<polygon fill="#191970" stroke="#191970" points="518.238,-82.5001 508.238,-86 518.238,-89.5001 518.238,-82.5001"/>
</g>
<!-- Node319827&#45;&gt;Node319827 -->
<g id="edge7" class="edge">
<title>Node319827&#45;&gt;Node319827</title>
<path fill="none" stroke="#191970" d="M578.1898,-111.4579C581.145,-116.179 589.0817,-119.5 602,-119.5 623.1992,-119.5 630.9833,-110.5566 625.3523,-101.159"/>
<polygon fill="#191970" stroke="#191970" points="581.7,-111.3046 578.6477,-101.159 574.7069,-110.9936 581.7,-111.3046"/>
</g>
<!-- Node319829&#45;&gt;Node319827 -->
<g id="edge10" class="edge">
<title>Node319829&#45;&gt;Node319827</title>
<path fill="none" stroke="#191970" d="M504.9383,-166.3842C508.4163,-164.7208 511.8227,-162.9227 515,-161 543.1511,-143.9649 571.1552,-117.7326 587.5073,-101.2355"/>
<polygon fill="#191970" stroke="#191970" points="503.413,-163.2315 495.6727,-170.466 506.2351,-169.6375 503.413,-163.2315"/>
</g>
<!-- Node319840&#45;&gt;Node319840 -->
<g id="edge13" class="edge">
<title>Node319840&#45;&gt;Node319840</title>
<path fill="none" stroke="#191970" d="M442.0745,-143.0292C443.4341,-148.128 451.7426,-152 467,-152 490.8164,-152 497.7008,-142.5653 487.6533,-133.7571"/>
<polygon fill="#191970" stroke="#191970" points="445.3407,-144.304 446.3467,-133.7571 438.9831,-141.3747 445.3407,-144.304"/>
</g>
<!-- Node319853&#45;&gt;Node319827 -->
<g id="edge15" class="edge">
<title>Node319853&#45;&gt;Node319827</title>
<path fill="none" stroke="#191970" d="M368.4327,-10.4324C408.2973,-12.0485 466.7842,-17.419 515,-34 539.7937,-42.5263 565.1981,-58.743 582.1032,-70.8096"/>
<polygon fill="#191970" stroke="#191970" points="368.3259,-6.9268 358.2124,-10.0838 368.0872,-13.9228 368.3259,-6.9268"/>
</g>
<!-- Node319823&#45;&gt;Node319820 -->
<g id="edge19" class="edge">
<title>Node319823&#45;&gt;Node319820</title>
<path fill="none" stroke="#191970" d="M393.2663,-86C404.4107,-86 415.594,-86 425.7625,-86"/>
<polygon fill="#191970" stroke="#191970" points="393.0728,-82.5001 383.0728,-86 393.0728,-89.5001 393.0728,-82.5001"/>
</g>
</g>
</svg>
