<?xml version="1.0" encoding="UTF-8" standalone="no"?>
<!DOCTYPE svg PUBLIC "-//W3C//DTD SVG 1.1//EN"
 "http://www.w3.org/Graphics/SVG/1.1/DTD/svg11.dtd">
<!-- Generated by graphviz version 2.40.1 (20161225.0304)
 -->
<!-- Title: JS_NewAtomUInt32 Pages: 1 -->
<svg width="673pt" height="769pt"
 viewBox="0.00 0.00 673.00 769.00" xmlns="http://www.w3.org/2000/svg" xmlns:xlink="http://www.w3.org/1999/xlink">
<g id="graph0" class="graph" transform="scale(1 1) rotate(0) translate(4 765)">
<title>JS_NewAtomUInt32</title>
<!-- Node19538 -->
<g id="node1" class="node">
<title>Node19538</title>
<polygon fill="#bfbfbf" stroke="#000000" points="0,-513.5 0,-532.5 107,-532.5 107,-513.5 0,-513.5"/>
<text text-anchor="middle" x="53.5" y="-520.5" font-family="Helvetica,sans-Serif" font-size="10.00" fill="#000000">JS_NewAtomUInt32</text>
</g>
<!-- Node19539 -->
<g id="node2" class="node">
<title>Node19539</title>
<g id="a_node2"><a xlink:href="quickjs_8c.html#a877fcb7651d95b411ce70e62b7f4a1f0" target="_top" xlink:title="__JS_AtomFromUInt32">
<polygon fill="none" stroke="#000000" points="143,-570.5 143,-589.5 262,-589.5 262,-570.5 143,-570.5"/>
<text text-anchor="middle" x="202.5" y="-577.5" font-family="Helvetica,sans-Serif" font-size="10.00" fill="#000000">__JS_AtomFromUInt32</text>
</a>
</g>
</g>
<!-- Node19538&#45;&gt;Node19539 -->
<g id="edge1" class="edge">
<title>Node19538&#45;&gt;Node19539</title>
<path fill="none" stroke="#191970" d="M74.6162,-532.6192C92.6133,-540.6591 119.2605,-552.1914 143,-561 148.8711,-563.1785 155.1213,-565.341 161.2806,-567.3839"/>
<polygon fill="#191970" stroke="#191970" points="160.2253,-570.721 170.8174,-570.4807 162.3873,-564.0633 160.2253,-570.721"/>
</g>
<!-- Node19540 -->
<g id="node3" class="node">
<title>Node19540</title>
<g id="a_node3"><a xlink:href="quickjs_8c.html#acd08798ec15cc37c60d2e7d70007c6a8" target="_top" xlink:title="__JS_NewAtom">
<polygon fill="none" stroke="#000000" points="158.5,-532.5 158.5,-551.5 246.5,-551.5 246.5,-532.5 158.5,-532.5"/>
<text text-anchor="middle" x="202.5" y="-539.5" font-family="Helvetica,sans-Serif" font-size="10.00" fill="#000000">__JS_NewAtom</text>
</a>
</g>
</g>
<!-- Node19538&#45;&gt;Node19540 -->
<g id="edge2" class="edge">
<title>Node19538&#45;&gt;Node19540</title>
<path fill="none" stroke="#191970" d="M107.2924,-529.8594C120.5776,-531.5535 134.8171,-533.3693 148.1295,-535.0669"/>
<polygon fill="#191970" stroke="#191970" points="147.7353,-538.5448 158.0977,-536.338 148.6208,-531.6011 147.7353,-538.5448"/>
</g>
<!-- Node19556 -->
<g id="node19" class="node">
<title>Node19556</title>
<g id="a_node19"><a xlink:href="quickjs_8h.html#ad80a83d73e9b7d872b88fbf2943aebe9" target="_top" xlink:title="JS_IsException">
<polygon fill="none" stroke="#000000" points="159.5,-494.5 159.5,-513.5 245.5,-513.5 245.5,-494.5 159.5,-494.5"/>
<text text-anchor="middle" x="202.5" y="-501.5" font-family="Helvetica,sans-Serif" font-size="10.00" fill="#000000">JS_IsException</text>
</a>
</g>
</g>
<!-- Node19538&#45;&gt;Node19556 -->
<g id="edge22" class="edge">
<title>Node19538&#45;&gt;Node19556</title>
<path fill="none" stroke="#191970" d="M107.2924,-516.1406C120.8433,-514.4126 135.387,-512.558 148.9271,-510.8314"/>
<polygon fill="#191970" stroke="#191970" points="149.5757,-514.2772 159.0526,-509.5403 148.6902,-507.3334 149.5757,-514.2772"/>
</g>
<!-- Node19557 -->
<g id="node20" class="node">
<title>Node19557</title>
<g id="a_node20"><a xlink:href="quickjs_8c.html#a0ee6a3654a6016393fac5e1c108f403a" target="_top" xlink:title="JS_NewString">
<polygon fill="none" stroke="#000000" points="162.5,-304.5 162.5,-323.5 242.5,-323.5 242.5,-304.5 162.5,-304.5"/>
<text text-anchor="middle" x="202.5" y="-311.5" font-family="Helvetica,sans-Serif" font-size="10.00" fill="#000000">JS_NewString</text>
</a>
</g>
</g>
<!-- Node19538&#45;&gt;Node19557 -->
<g id="edge23" class="edge">
<title>Node19538&#45;&gt;Node19557</title>
<path fill="none" stroke="#191970" d="M60.2894,-513.4766C83.4146,-481.0393 159.355,-374.5188 189.7536,-331.8791"/>
<polygon fill="#191970" stroke="#191970" points="192.7156,-333.7537 195.6707,-323.5793 187.0158,-329.6902 192.7156,-333.7537"/>
</g>
<!-- Node19541 -->
<g id="node4" class="node">
<title>Node19541</title>
<g id="a_node4"><a xlink:href="quickjs_8c.html#a7f6796ee7a195631366f57c713a33f65" target="_top" xlink:title="__JS_AtomIsConst">
<polygon fill="none" stroke="#000000" points="302.5,-703.5 302.5,-722.5 404.5,-722.5 404.5,-703.5 302.5,-703.5"/>
<text text-anchor="middle" x="353.5" y="-710.5" font-family="Helvetica,sans-Serif" font-size="10.00" fill="#000000">__JS_AtomIsConst</text>
</a>
</g>
</g>
<!-- Node19540&#45;&gt;Node19541 -->
<g id="edge3" class="edge">
<title>Node19540&#45;&gt;Node19541</title>
<path fill="none" stroke="#191970" d="M246.7206,-550.4954C252.4091,-553.1128 257.7283,-556.5327 262,-561 304.3223,-605.26 256.139,-649.3035 298,-694 299.3576,-695.4495 300.8303,-696.7884 302.3928,-698.0252"/>
<polygon fill="#191970" stroke="#191970" points="300.52,-700.982 310.836,-703.397 304.2776,-695.076 300.52,-700.982"/>
</g>
<!-- Node19542 -->
<g id="node5" class="node">
<title>Node19542</title>
<g id="a_node5"><a xlink:href="quickjs_8c.html#ad7824788e3ed6ecfd045f02398647753" target="_top" xlink:title="atom_get_free">
<polygon fill="none" stroke="#000000" points="314,-665.5 314,-684.5 393,-684.5 393,-665.5 314,-665.5"/>
<text text-anchor="middle" x="353.5" y="-672.5" font-family="Helvetica,sans-Serif" font-size="10.00" fill="#000000">atom_get_free</text>
</a>
</g>
</g>
<!-- Node19540&#45;&gt;Node19542 -->
<g id="edge4" class="edge">
<title>Node19540&#45;&gt;Node19542</title>
<path fill="none" stroke="#191970" d="M246.5661,-551.0935C252.2084,-553.6254 257.5555,-556.8621 262,-561 293.5312,-590.3562 267.9608,-620.1188 298,-651 301.7022,-654.806 306.1079,-658.0448 310.7946,-660.7922"/>
<polygon fill="#191970" stroke="#191970" points="309.5417,-664.0814 320.0426,-665.4894 312.7117,-657.8403 309.5417,-664.0814"/>
</g>
<!-- Node19543 -->
<g id="node6" class="node">
<title>Node19543</title>
<g id="a_node6"><a xlink:href="quickjs_8c.html#aba70a7ff210dcedf19125863f2b12d4e" target="_top" xlink:title="atom_set_free">
<polygon fill="none" stroke="#000000" points="586,-541.5 586,-560.5 665,-560.5 665,-541.5 586,-541.5"/>
<text text-anchor="middle" x="625.5" y="-548.5" font-family="Helvetica,sans-Serif" font-size="10.00" fill="#000000">atom_set_free</text>
</a>
</g>
</g>
<!-- Node19540&#45;&gt;Node19543 -->
<g id="edge5" class="edge">
<title>Node19540&#45;&gt;Node19543</title>
<path fill="none" stroke="#191970" d="M242.1591,-551.5727C249.0487,-554.0873 255.9392,-557.1938 262,-561 281.7016,-573.3726 277.959,-587.185 298,-599 356.131,-633.2705 378.0581,-628.4876 445,-637 491.2939,-642.8868 507.488,-656.2485 550,-637 580.4679,-623.2048 603.5126,-590.3653 615.7222,-569.4929"/>
<polygon fill="#191970" stroke="#191970" points="618.8692,-571.0362 620.6943,-560.5998 612.7593,-567.6202 618.8692,-571.0362"/>
</g>
<!-- Node19544 -->
<g id="node7" class="node">
<title>Node19544</title>
<g id="a_node7"><a xlink:href="quickjs_8c.html#a745328cb78cc898a3e105bc7bd7aee38" target="_top" xlink:title="hash_string">
<polygon fill="none" stroke="#000000" points="320,-570.5 320,-589.5 387,-589.5 387,-570.5 320,-570.5"/>
<text text-anchor="middle" x="353.5" y="-577.5" font-family="Helvetica,sans-Serif" font-size="10.00" fill="#000000">hash_string</text>
</a>
</g>
</g>
<!-- Node19540&#45;&gt;Node19544 -->
<g id="edge6" class="edge">
<title>Node19540&#45;&gt;Node19544</title>
<path fill="none" stroke="#191970" d="M240.6037,-551.589C261.742,-556.9086 288.1126,-563.5449 310.0502,-569.0656"/>
<polygon fill="#191970" stroke="#191970" points="309.2312,-572.4686 319.783,-571.5149 310.9395,-565.6802 309.2312,-572.4686"/>
</g>
<!-- Node19547 -->
<g id="node10" class="node">
<title>Node19547</title>
<g id="a_node10"><a xlink:href="quickjs_8c.html#a69e19dda8a93d613203e0baa06f0ed8d" target="_top" xlink:title="js_free_rt">
<polygon fill="none" stroke="#000000" points="597,-484.5 597,-503.5 654,-503.5 654,-484.5 597,-484.5"/>
<text text-anchor="middle" x="625.5" y="-491.5" font-family="Helvetica,sans-Serif" font-size="10.00" fill="#000000">js_free_rt</text>
</a>
</g>
</g>
<!-- Node19540&#45;&gt;Node19547 -->
<g id="edge9" class="edge">
<title>Node19540&#45;&gt;Node19547</title>
<path fill="none" stroke="#191970" d="M246.6395,-532.5169C252.205,-530.0437 257.5113,-526.927 262,-523 290.1298,-498.39 266.4172,-466.9866 298,-447 395.2434,-385.4613 540.8643,-449.0296 599.5833,-479.5769"/>
<polygon fill="#191970" stroke="#191970" points="598.0853,-482.7443 608.5586,-484.3443 601.369,-476.5622 598.0853,-482.7443"/>
</g>
<!-- Node19548 -->
<g id="node11" class="node">
<title>Node19548</title>
<g id="a_node11"><a xlink:href="quickjs_8c.html#aa506aaf9df272c0e9e541bbf0138b483" target="_top" xlink:title="js_free_string">
<polygon fill="none" stroke="#000000" points="316,-532.5 316,-551.5 391,-551.5 391,-532.5 316,-532.5"/>
<text text-anchor="middle" x="353.5" y="-539.5" font-family="Helvetica,sans-Serif" font-size="10.00" fill="#000000">js_free_string</text>
</a>
</g>
</g>
<!-- Node19540&#45;&gt;Node19548 -->
<g id="edge10" class="edge">
<title>Node19540&#45;&gt;Node19548</title>
<path fill="none" stroke="#191970" d="M246.5814,-542C265.0904,-542 286.6657,-542 305.5684,-542"/>
<polygon fill="#191970" stroke="#191970" points="305.7585,-545.5001 315.7585,-542 305.7585,-538.5001 305.7585,-545.5001"/>
</g>
<!-- Node19550 -->
<g id="node13" class="node">
<title>Node19550</title>
<g id="a_node13"><a xlink:href="quickjs_8c.html#ab7f82c24ed28f06191bf5a51f78bb710" target="_top" xlink:title="js_get_atom_index">
<polygon fill="none" stroke="#000000" points="304.5,-456.5 304.5,-475.5 402.5,-475.5 402.5,-456.5 304.5,-456.5"/>
<text text-anchor="middle" x="353.5" y="-463.5" font-family="Helvetica,sans-Serif" font-size="10.00" fill="#000000">js_get_atom_index</text>
</a>
</g>
</g>
<!-- Node19540&#45;&gt;Node19550 -->
<g id="edge15" class="edge">
<title>Node19540&#45;&gt;Node19550</title>
<path fill="none" stroke="#191970" d="M242.1591,-532.4273C249.0487,-529.9127 255.9392,-526.8062 262,-523 281.7016,-510.6274 278.4278,-497.5763 298,-485 301.1407,-482.9819 304.5199,-481.1522 308.0049,-479.4983"/>
<polygon fill="#191970" stroke="#191970" points="309.5446,-482.6472 317.3859,-475.5222 306.8129,-476.2022 309.5446,-482.6472"/>
</g>
<!-- Node19551 -->
<g id="node14" class="node">
<title>Node19551</title>
<g id="a_node14"><a xlink:href="quickjs_8c.html#ac8b63cf5ecd077231532b9ad543aad23" target="_top" xlink:title="JS_ResizeAtomHash">
<polygon fill="none" stroke="#000000" points="298,-494.5 298,-513.5 409,-513.5 409,-494.5 298,-494.5"/>
<text text-anchor="middle" x="353.5" y="-501.5" font-family="Helvetica,sans-Serif" font-size="10.00" fill="#000000">JS_ResizeAtomHash</text>
</a>
</g>
</g>
<!-- Node19540&#45;&gt;Node19551 -->
<g id="edge16" class="edge">
<title>Node19540&#45;&gt;Node19551</title>
<path fill="none" stroke="#191970" d="M240.6037,-532.411C260.44,-527.4191 284.8839,-521.2676 305.9483,-515.9666"/>
<polygon fill="#191970" stroke="#191970" points="306.8269,-519.3548 315.6703,-513.5201 305.1185,-512.5664 306.8269,-519.3548"/>
</g>
<!-- Node19552 -->
<g id="node15" class="node">
<title>Node19552</title>
<g id="a_node15"><a xlink:href="quickjs_8c.html#aa3b85ecf2f1fbd87cb38b78548286017" target="_top" xlink:title="js_string_memcmp">
<polygon fill="none" stroke="#000000" points="304,-380.5 304,-399.5 403,-399.5 403,-380.5 304,-380.5"/>
<text text-anchor="middle" x="353.5" y="-387.5" font-family="Helvetica,sans-Serif" font-size="10.00" fill="#000000">js_string_memcmp</text>
</a>
</g>
</g>
<!-- Node19540&#45;&gt;Node19552 -->
<g id="edge18" class="edge">
<title>Node19540&#45;&gt;Node19552</title>
<path fill="none" stroke="#191970" d="M246.5022,-533.29C252.2218,-530.7031 257.6078,-527.3489 262,-523 298.2535,-487.1037 263.5681,-451.6471 298,-414 301.497,-410.1764 305.7088,-406.9351 310.2297,-404.1936"/>
<polygon fill="#191970" stroke="#191970" points="311.95,-407.2438 319.1979,-399.516 308.7128,-401.0373 311.95,-407.2438"/>
</g>
<!-- Node19555 -->
<g id="node18" class="node">
<title>Node19555</title>
<g id="a_node18"><a xlink:href="cutils_8h.html#a94f155fcce337a2b9d4719ed8042cbbe" target="_top" xlink:title="max_int">
<polygon fill="none" stroke="#000000" points="328,-741.5 328,-760.5 379,-760.5 379,-741.5 328,-741.5"/>
<text text-anchor="middle" x="353.5" y="-748.5" font-family="Helvetica,sans-Serif" font-size="10.00" fill="#000000">max_int</text>
</a>
</g>
</g>
<!-- Node19540&#45;&gt;Node19555 -->
<g id="edge21" class="edge">
<title>Node19540&#45;&gt;Node19555</title>
<path fill="none" stroke="#191970" d="M246.6558,-550.14C252.4247,-552.8049 257.7843,-556.3327 262,-561 314.0587,-618.6358 246.5419,-673.8273 298,-732 303.3139,-738.0072 310.6103,-742.1165 318.1668,-744.9272"/>
<polygon fill="#191970" stroke="#191970" points="317.1621,-748.2798 327.7477,-747.8378 319.1969,-741.5821 317.1621,-748.2798"/>
</g>
<!-- Node19545 -->
<g id="node8" class="node">
<title>Node19545</title>
<g id="a_node8"><a xlink:href="quickjs_8c.html#a8f1b36a26bf6d179e43696a67e8e0fff" target="_top" xlink:title="hash_string16">
<polygon fill="none" stroke="#000000" points="459,-608.5 459,-627.5 536,-627.5 536,-608.5 459,-608.5"/>
<text text-anchor="middle" x="497.5" y="-615.5" font-family="Helvetica,sans-Serif" font-size="10.00" fill="#000000">hash_string16</text>
</a>
</g>
</g>
<!-- Node19544&#45;&gt;Node19545 -->
<g id="edge7" class="edge">
<title>Node19544&#45;&gt;Node19545</title>
<path fill="none" stroke="#191970" d="M387.2616,-588.9093C406.4073,-593.9616 430.6347,-600.355 451.498,-605.8606"/>
<polygon fill="#191970" stroke="#191970" points="450.8706,-609.3148 461.4327,-608.4822 452.6568,-602.5465 450.8706,-609.3148"/>
</g>
<!-- Node19546 -->
<g id="node9" class="node">
<title>Node19546</title>
<g id="a_node9"><a xlink:href="quickjs_8c.html#a7f3a538c8f7ee373cfe88625181739ad" target="_top" xlink:title="hash_string8">
<polygon fill="none" stroke="#000000" points="461.5,-570.5 461.5,-589.5 533.5,-589.5 533.5,-570.5 461.5,-570.5"/>
<text text-anchor="middle" x="497.5" y="-577.5" font-family="Helvetica,sans-Serif" font-size="10.00" fill="#000000">hash_string8</text>
</a>
</g>
</g>
<!-- Node19544&#45;&gt;Node19546 -->
<g id="edge8" class="edge">
<title>Node19544&#45;&gt;Node19546</title>
<path fill="none" stroke="#191970" d="M387.2616,-580C406.3202,-580 430.4145,-580 451.2133,-580"/>
<polygon fill="#191970" stroke="#191970" points="451.4328,-583.5001 461.4327,-580 451.4327,-576.5001 451.4328,-583.5001"/>
</g>
<!-- Node19548&#45;&gt;Node19547 -->
<g id="edge11" class="edge">
<title>Node19548&#45;&gt;Node19547</title>
<path fill="none" stroke="#191970" d="M391.2643,-533.7561C407.7339,-530.265 427.2886,-526.26 445,-523 493.723,-514.0321 550.1353,-505.2188 586.7461,-499.7056"/>
<polygon fill="#191970" stroke="#191970" points="587.6113,-503.1151 596.9826,-498.1724 586.5744,-496.1923 587.6113,-503.1151"/>
</g>
<!-- Node19549 -->
<g id="node12" class="node">
<title>Node19549</title>
<g id="a_node12"><a xlink:href="quickjs_8c.html#a58c8965dad50b15b75918a09f3d9dc7c" target="_top" xlink:title="JS_FreeAtomStruct">
<polygon fill="none" stroke="#000000" points="446,-532.5 446,-551.5 549,-551.5 549,-532.5 446,-532.5"/>
<text text-anchor="middle" x="497.5" y="-539.5" font-family="Helvetica,sans-Serif" font-size="10.00" fill="#000000">JS_FreeAtomStruct</text>
</a>
</g>
</g>
<!-- Node19548&#45;&gt;Node19549 -->
<g id="edge12" class="edge">
<title>Node19548&#45;&gt;Node19549</title>
<path fill="none" stroke="#191970" d="M391.3343,-542C404.8754,-542 420.5153,-542 435.5578,-542"/>
<polygon fill="#191970" stroke="#191970" points="435.8432,-545.5001 445.8432,-542 435.8432,-538.5001 435.8432,-545.5001"/>
</g>
<!-- Node19549&#45;&gt;Node19543 -->
<g id="edge13" class="edge">
<title>Node19549&#45;&gt;Node19543</title>
<path fill="none" stroke="#191970" d="M549.1935,-545.6347C557.9706,-546.2518 567.0687,-546.8915 575.7932,-547.505"/>
<polygon fill="#191970" stroke="#191970" points="575.601,-551 585.8219,-548.2101 576.0921,-544.0173 575.601,-551"/>
</g>
<!-- Node19549&#45;&gt;Node19547 -->
<g id="edge14" class="edge">
<title>Node19549&#45;&gt;Node19547</title>
<path fill="none" stroke="#191970" d="M523.0951,-532.4018C542.4547,-525.142 569.2544,-515.0921 590.5817,-507.0944"/>
<polygon fill="#191970" stroke="#191970" points="591.8149,-510.37 599.9493,-503.5815 589.357,-503.8157 591.8149,-510.37"/>
</g>
<!-- Node19551&#45;&gt;Node19547 -->
<g id="edge17" class="edge">
<title>Node19551&#45;&gt;Node19547</title>
<path fill="none" stroke="#191970" d="M406.5653,-494.4859C419.1246,-492.6217 432.5013,-490.9507 445,-490 491.5323,-486.4607 503.3497,-488.7651 550,-490 561.9754,-490.317 575.0079,-490.9164 586.8219,-491.5565"/>
<polygon fill="#191970" stroke="#191970" points="586.651,-495.0523 596.833,-492.1234 587.0469,-488.0635 586.651,-495.0523"/>
</g>
<!-- Node19553 -->
<g id="node16" class="node">
<title>Node19553</title>
<g id="a_node16"><a xlink:href="quickjs_8c.html#a98e9fec451d6851cae6d0d92ea860a26" target="_top" xlink:title="memcmp16">
<polygon fill="none" stroke="#000000" points="463.5,-380.5 463.5,-399.5 531.5,-399.5 531.5,-380.5 463.5,-380.5"/>
<text text-anchor="middle" x="497.5" y="-387.5" font-family="Helvetica,sans-Serif" font-size="10.00" fill="#000000">memcmp16</text>
</a>
</g>
</g>
<!-- Node19552&#45;&gt;Node19553 -->
<g id="edge19" class="edge">
<title>Node19552&#45;&gt;Node19553</title>
<path fill="none" stroke="#191970" d="M403.0566,-390C419.3405,-390 437.3261,-390 453.1943,-390"/>
<polygon fill="#191970" stroke="#191970" points="453.2771,-393.5001 463.277,-390 453.277,-386.5001 453.2771,-393.5001"/>
</g>
<!-- Node19554 -->
<g id="node17" class="node">
<title>Node19554</title>
<g id="a_node17"><a xlink:href="quickjs_8c.html#add253cbbb280615066466e7fb8bef776" target="_top" xlink:title="memcmp16_8">
<polygon fill="none" stroke="#000000" points="458.5,-342.5 458.5,-361.5 536.5,-361.5 536.5,-342.5 458.5,-342.5"/>
<text text-anchor="middle" x="497.5" y="-349.5" font-family="Helvetica,sans-Serif" font-size="10.00" fill="#000000">memcmp16_8</text>
</a>
</g>
</g>
<!-- Node19552&#45;&gt;Node19554 -->
<g id="edge20" class="edge">
<title>Node19552&#45;&gt;Node19554</title>
<path fill="none" stroke="#191970" d="M389.8373,-380.411C408.5829,-375.4642 431.6432,-369.3789 451.6066,-364.1108"/>
<polygon fill="#191970" stroke="#191970" points="452.6481,-367.4558 461.424,-361.5201 450.8619,-360.6875 452.6481,-367.4558"/>
</g>
<!-- Node19558 -->
<g id="node21" class="node">
<title>Node19558</title>
<g id="a_node21"><a xlink:href="quickjs_8c.html#ac34cc554aab1e98c45a7f845fff64385" target="_top" xlink:title="JS_NewStringLen">
<polygon fill="none" stroke="#000000" points="306,-171.5 306,-190.5 401,-190.5 401,-171.5 306,-171.5"/>
<text text-anchor="middle" x="353.5" y="-178.5" font-family="Helvetica,sans-Serif" font-size="10.00" fill="#000000">JS_NewStringLen</text>
</a>
</g>
</g>
<!-- Node19557&#45;&gt;Node19558 -->
<g id="edge24" class="edge">
<title>Node19557&#45;&gt;Node19558</title>
<path fill="none" stroke="#191970" d="M213.3595,-304.435C238.8106,-282.0178 302.5703,-225.8586 334.5651,-197.6778"/>
<polygon fill="#191970" stroke="#191970" points="337.1406,-200.0733 342.3315,-190.8372 332.5139,-194.8204 337.1406,-200.0733"/>
</g>
<!-- Node19559 -->
<g id="node22" class="node">
<title>Node19559</title>
<g id="a_node22"><a xlink:href="quickjs_8c.html#a853f0924d441ea4225488f37c8b69f9a" target="_top" xlink:title="__attribute__">
<polygon fill="none" stroke="#000000" points="461,-304.5 461,-323.5 534,-323.5 534,-304.5 461,-304.5"/>
<text text-anchor="middle" x="497.5" y="-311.5" font-family="Helvetica,sans-Serif" font-size="10.00" fill="#000000">__attribute__</text>
</a>
</g>
</g>
<!-- Node19558&#45;&gt;Node19559 -->
<g id="edge25" class="edge">
<title>Node19558&#45;&gt;Node19559</title>
<path fill="none" stroke="#191970" d="M358.7931,-190.74C371.0908,-212.5022 403.7153,-265.4737 445,-295 447.6412,-296.889 450.4902,-298.6089 453.4473,-300.1717"/>
<polygon fill="#191970" stroke="#191970" points="452.0002,-303.3587 462.5436,-304.4007 454.9512,-297.0111 452.0002,-303.3587"/>
</g>
<!-- Node19560 -->
<g id="node23" class="node">
<title>Node19560</title>
<g id="a_node23"><a xlink:href="quickjs_8c.html#aa923510185fe24e3083baf7405b09f51" target="_top" xlink:title="js_new_string8">
<polygon fill="none" stroke="#ff0000" points="456.5,-266.5 456.5,-285.5 538.5,-285.5 538.5,-266.5 456.5,-266.5"/>
<text text-anchor="middle" x="497.5" y="-273.5" font-family="Helvetica,sans-Serif" font-size="10.00" fill="#000000">js_new_string8</text>
</a>
</g>
</g>
<!-- Node19558&#45;&gt;Node19560 -->
<g id="edge26" class="edge">
<title>Node19558&#45;&gt;Node19560</title>
<path fill="none" stroke="#191970" d="M362.8066,-190.6574C378.4708,-206.4397 411.6707,-237.9089 445,-257 448.4958,-259.0024 452.2404,-260.8555 456.0607,-262.5548"/>
<polygon fill="#191970" stroke="#191970" points="455.0339,-265.9162 465.6147,-266.4601 457.6825,-259.4366 455.0339,-265.9162"/>
</g>
<!-- Node19569 -->
<g id="node24" class="node">
<title>Node19569</title>
<g id="a_node24"><a xlink:href="quickjs_8c.html#accfc3d1dcaa88c88402cb245ccaf4fdb" target="_top" xlink:title="string_buffer_end">
<polygon fill="none" stroke="#ff0000" points="451.5,-228.5 451.5,-247.5 543.5,-247.5 543.5,-228.5 451.5,-228.5"/>
<text text-anchor="middle" x="497.5" y="-235.5" font-family="Helvetica,sans-Serif" font-size="10.00" fill="#000000">string_buffer_end</text>
</a>
</g>
</g>
<!-- Node19558&#45;&gt;Node19569 -->
<g id="edge27" class="edge">
<title>Node19558&#45;&gt;Node19569</title>
<path fill="none" stroke="#191970" d="M375.5712,-190.5035C394.0322,-198.371 421.1091,-209.7217 445,-219 450.139,-220.9958 455.5859,-223.0426 460.9502,-225.0192"/>
<polygon fill="#191970" stroke="#191970" points="459.8385,-228.3392 470.4325,-228.4752 462.2356,-221.7624 459.8385,-228.3392"/>
</g>
<!-- Node19571 -->
<g id="node25" class="node">
<title>Node19571</title>
<g id="a_node25"><a xlink:href="quickjs_8c.html#a266b4993a59d9e34537386e62b9f3d4f" target="_top" xlink:title="string_buffer_free">
<polygon fill="none" stroke="#ff0000" points="451.5,-190.5 451.5,-209.5 543.5,-209.5 543.5,-190.5 451.5,-190.5"/>
<text text-anchor="middle" x="497.5" y="-197.5" font-family="Helvetica,sans-Serif" font-size="10.00" fill="#000000">string_buffer_free</text>
</a>
</g>
</g>
<!-- Node19558&#45;&gt;Node19571 -->
<g id="edge28" class="edge">
<title>Node19558&#45;&gt;Node19571</title>
<path fill="none" stroke="#191970" d="M401.0501,-187.274C413.9758,-188.9794 428.0945,-190.8423 441.4434,-192.6036"/>
<polygon fill="#191970" stroke="#191970" points="441.0969,-196.0882 451.4688,-193.9264 442.0126,-189.1483 441.0969,-196.0882"/>
</g>
<!-- Node19572 -->
<g id="node26" class="node">
<title>Node19572</title>
<g id="a_node26"><a xlink:href="quickjs_8c.html#a9c11961b0adafedd064b294612d0c2f3" target="_top" xlink:title="string_buffer_init">
<polygon fill="none" stroke="#ff0000" points="453,-152.5 453,-171.5 542,-171.5 542,-152.5 453,-152.5"/>
<text text-anchor="middle" x="497.5" y="-159.5" font-family="Helvetica,sans-Serif" font-size="10.00" fill="#000000">string_buffer_init</text>
</a>
</g>
</g>
<!-- Node19558&#45;&gt;Node19572 -->
<g id="edge29" class="edge">
<title>Node19558&#45;&gt;Node19572</title>
<path fill="none" stroke="#191970" d="M401.0501,-174.726C414.3675,-172.9689 428.9513,-171.0446 442.6548,-169.2365"/>
<polygon fill="#191970" stroke="#191970" points="443.4705,-172.6593 452.9267,-167.8812 442.5548,-165.7195 443.4705,-172.6593"/>
</g>
<!-- Node19574 -->
<g id="node27" class="node">
<title>Node19574</title>
<g id="a_node27"><a xlink:href="quickjs_8c.html#a9b8fb6b5ce638616691f7bf7881fa57d" target="_top" xlink:title="string_buffer_putc16">
<polygon fill="none" stroke="#ff0000" points="445,-114.5 445,-133.5 550,-133.5 550,-114.5 445,-114.5"/>
<text text-anchor="middle" x="497.5" y="-121.5" font-family="Helvetica,sans-Serif" font-size="10.00" fill="#000000">string_buffer_putc16</text>
</a>
</g>
</g>
<!-- Node19558&#45;&gt;Node19574 -->
<g id="edge30" class="edge">
<title>Node19558&#45;&gt;Node19574</title>
<path fill="none" stroke="#191970" d="M375.5712,-171.4965C394.0322,-163.629 421.1091,-152.2783 445,-143 450.139,-141.0042 455.5859,-138.9574 460.9502,-136.9808"/>
<polygon fill="#191970" stroke="#191970" points="462.2356,-140.2376 470.4325,-133.5248 459.8385,-133.6608 462.2356,-140.2376"/>
</g>
<!-- Node19580 -->
<g id="node28" class="node">
<title>Node19580</title>
<g id="a_node28"><a xlink:href="quickjs_8c.html#a874fcee73f61cc997ec1d10cc6711554" target="_top" xlink:title="string_buffer_putc8">
<polygon fill="none" stroke="#ff0000" points="447.5,-76.5 447.5,-95.5 547.5,-95.5 547.5,-76.5 447.5,-76.5"/>
<text text-anchor="middle" x="497.5" y="-83.5" font-family="Helvetica,sans-Serif" font-size="10.00" fill="#000000">string_buffer_putc8</text>
</a>
</g>
</g>
<!-- Node19558&#45;&gt;Node19580 -->
<g id="edge31" class="edge">
<title>Node19558&#45;&gt;Node19580</title>
<path fill="none" stroke="#191970" d="M362.8066,-171.3426C378.4708,-155.5603 411.6707,-124.0911 445,-105 448.4958,-102.9976 452.2404,-101.1445 456.0607,-99.4452"/>
<polygon fill="#191970" stroke="#191970" points="457.6825,-102.5634 465.6147,-95.5399 455.0339,-96.0838 457.6825,-102.5634"/>
</g>
<!-- Node19581 -->
<g id="node29" class="node">
<title>Node19581</title>
<g id="a_node29"><a xlink:href="quickjs_8c.html#a0b130652cf11eb0eb9f7e3ee6c5d7c6a" target="_top" xlink:title="string_buffer_write8">
<polygon fill="none" stroke="#ff0000" points="446.5,-38.5 446.5,-57.5 548.5,-57.5 548.5,-38.5 446.5,-38.5"/>
<text text-anchor="middle" x="497.5" y="-45.5" font-family="Helvetica,sans-Serif" font-size="10.00" fill="#000000">string_buffer_write8</text>
</a>
</g>
</g>
<!-- Node19558&#45;&gt;Node19581 -->
<g id="edge32" class="edge">
<title>Node19558&#45;&gt;Node19581</title>
<path fill="none" stroke="#191970" d="M358.7931,-171.26C371.0908,-149.4978 403.7153,-96.5263 445,-67 447.6412,-65.111 450.4902,-63.3911 453.4473,-61.8283"/>
<polygon fill="#191970" stroke="#191970" points="454.9512,-64.9889 462.5436,-57.5993 452.0002,-58.6413 454.9512,-64.9889"/>
</g>
<!-- Node19582 -->
<g id="node30" class="node">
<title>Node19582</title>
<g id="a_node30"><a xlink:href="cutils_8h.html#a69529af6d6911dd0ead90eef221b2e10" target="_top" xlink:title="unicode_from_utf8">
<polygon fill="none" stroke="#000000" points="449,-.5 449,-19.5 546,-19.5 546,-.5 449,-.5"/>
<text text-anchor="middle" x="497.5" y="-7.5" font-family="Helvetica,sans-Serif" font-size="10.00" fill="#000000">unicode_from_utf8</text>
</a>
</g>
</g>
<!-- Node19558&#45;&gt;Node19582 -->
<g id="edge33" class="edge">
<title>Node19558&#45;&gt;Node19582</title>
<path fill="none" stroke="#191970" d="M356.7245,-171.2638C366.0372,-144.601 395.5108,-69.6861 445,-29 447.1375,-27.2427 449.4511,-25.6411 451.8749,-24.1823"/>
<polygon fill="#191970" stroke="#191970" points="453.7109,-27.1745 461.017,-19.5017 450.5207,-20.9436 453.7109,-27.1745"/>
</g>
</g>
</svg>
