<?xml version="1.0" encoding="UTF-8" standalone="no"?>
<!DOCTYPE svg PUBLIC "-//W3C//DTD SVG 1.1//EN"
 "http://www.w3.org/Graphics/SVG/1.1/DTD/svg11.dtd">
<!-- Generated by graphviz version 2.40.1 (20161225.0304)
 -->
<!-- Title: js_malloc_usable_size Pages: 1 -->
<svg width="493pt" height="198pt"
 viewBox="0.00 0.00 493.00 198.00" xmlns="http://www.w3.org/2000/svg" xmlns:xlink="http://www.w3.org/1999/xlink">
<g id="graph0" class="graph" transform="scale(1 1) rotate(0) translate(4 194)">
<title>js_malloc_usable_size</title>
<!-- Node16335 -->
<g id="node1" class="node">
<title>Node16335</title>
<polygon fill="#bfbfbf" stroke="#000000" points="0,-94.5 0,-113.5 115,-113.5 115,-94.5 0,-94.5"/>
<text text-anchor="middle" x="57.5" y="-101.5" font-family="Helvetica,sans-Serif" font-size="10.00" fill="#000000">js_malloc_usable_size</text>
</g>
<!-- Node16336 -->
<g id="node2" class="node">
<title>Node16336</title>
<g id="a_node2"><a xlink:href="quickjs_8c.html#ab6d8a1a52baf4d686aed594b996699d7" target="_top" xlink:title="JS_ConcatString">
<polygon fill="none" stroke="#000000" points="151,-94.5 151,-113.5 242,-113.5 242,-94.5 151,-94.5"/>
<text text-anchor="middle" x="196.5" y="-101.5" font-family="Helvetica,sans-Serif" font-size="10.00" fill="#000000">JS_ConcatString</text>
</a>
</g>
</g>
<!-- Node16335&#45;&gt;Node16336 -->
<g id="edge1" class="edge">
<title>Node16335&#45;&gt;Node16336</title>
<path fill="none" stroke="#191970" d="M125.2636,-104C133.842,-104 142.4556,-104 150.5814,-104"/>
<polygon fill="#191970" stroke="#191970" points="125.241,-100.5001 115.2409,-104 125.2409,-107.5001 125.241,-100.5001"/>
</g>
<!-- Node16337 -->
<g id="node3" class="node">
<title>Node16337</title>
<g id="a_node3"><a xlink:href="quickjs_8c.html#ae8ff05447c0d51fe277baccf616dc7c6" target="_top" xlink:title="js_add_slow">
<polygon fill="none" stroke="#000000" points="286.5,-170.5 286.5,-189.5 357.5,-189.5 357.5,-170.5 286.5,-170.5"/>
<text text-anchor="middle" x="322" y="-177.5" font-family="Helvetica,sans-Serif" font-size="10.00" fill="#000000">js_add_slow</text>
</a>
</g>
</g>
<!-- Node16336&#45;&gt;Node16337 -->
<g id="edge2" class="edge">
<title>Node16336&#45;&gt;Node16337</title>
<path fill="none" stroke="#191970" d="M219.5053,-119.2741C235.6878,-129.8707 257.9477,-144.153 278,-156 286.3906,-160.9572 295.8613,-166.1706 303.861,-170.4672"/>
<polygon fill="#191970" stroke="#191970" points="221.0197,-116.0808 210.7422,-113.5071 217.1716,-121.9282 221.0197,-116.0808"/>
</g>
<!-- Node16338 -->
<g id="node4" class="node">
<title>Node16338</title>
<g id="a_node4"><a xlink:href="quickjs_8c.html#ac2894ff4edcdb4e6841bcce9c76081e3" target="_top" xlink:title="JS_CallInternal">
<polygon fill="none" stroke="#ff0000" points="402,-151.5 402,-170.5 485,-170.5 485,-151.5 402,-151.5"/>
<text text-anchor="middle" x="443.5" y="-158.5" font-family="Helvetica,sans-Serif" font-size="10.00" fill="#000000">JS_CallInternal</text>
</a>
</g>
</g>
<!-- Node16336&#45;&gt;Node16338 -->
<g id="edge5" class="edge">
<title>Node16336&#45;&gt;Node16338</title>
<path fill="none" stroke="#191970" d="M247.4687,-115.9099C257.5839,-118.2657 268.127,-120.7157 278,-123 320.0771,-132.7353 368.1949,-143.7728 401.6599,-151.4339"/>
<polygon fill="#191970" stroke="#191970" points="248.0703,-112.4564 237.5369,-113.5951 246.4814,-119.2737 248.0703,-112.4564"/>
</g>
<!-- Node16895 -->
<g id="node5" class="node">
<title>Node16895</title>
<g id="a_node5"><a xlink:href="quickjs_8c.html#a367aedcd65b39452fb00ce58dac0c6f6" target="_top" xlink:title="js_error_toString">
<polygon fill="none" stroke="#000000" points="278,-94.5 278,-113.5 366,-113.5 366,-94.5 278,-94.5"/>
<text text-anchor="middle" x="322" y="-101.5" font-family="Helvetica,sans-Serif" font-size="10.00" fill="#000000">js_error_toString</text>
</a>
</g>
</g>
<!-- Node16336&#45;&gt;Node16895 -->
<g id="edge6" class="edge">
<title>Node16336&#45;&gt;Node16895</title>
<path fill="none" stroke="#191970" d="M252.4222,-104C260.9366,-104 269.6208,-104 277.8375,-104"/>
<polygon fill="#191970" stroke="#191970" points="252.1634,-100.5001 242.1634,-104 252.1634,-107.5001 252.1634,-100.5001"/>
</g>
<!-- Node16414 -->
<g id="node6" class="node">
<title>Node16414</title>
<g id="a_node6"><a xlink:href="quickjs_8c.html#a60d84dd116a9d7d912d08f298a4734dd" target="_top" xlink:title="js_json_to_str">
<polygon fill="none" stroke="#ff0000" points="283.5,-38.5 283.5,-57.5 360.5,-57.5 360.5,-38.5 283.5,-38.5"/>
<text text-anchor="middle" x="322" y="-45.5" font-family="Helvetica,sans-Serif" font-size="10.00" fill="#000000">js_json_to_str</text>
</a>
</g>
</g>
<!-- Node16336&#45;&gt;Node16414 -->
<g id="edge7" class="edge">
<title>Node16336&#45;&gt;Node16414</title>
<path fill="none" stroke="#191970" d="M227.3208,-90.2473C250.1129,-80.0771 280.5664,-66.4883 300.7073,-57.5011"/>
<polygon fill="#191970" stroke="#191970" points="225.7801,-87.1021 218.0742,-94.3733 228.6326,-93.4946 225.7801,-87.1021"/>
</g>
<!-- Node16885 -->
<g id="node7" class="node">
<title>Node16885</title>
<g id="a_node7"><a xlink:href="quickjs_8c.html#ad15d899d5566569437570ab09c3f1f33" target="_top" xlink:title="js_string_concat">
<polygon fill="none" stroke="#000000" points="278,-.5 278,-19.5 366,-19.5 366,-.5 278,-.5"/>
<text text-anchor="middle" x="322" y="-7.5" font-family="Helvetica,sans-Serif" font-size="10.00" fill="#000000">js_string_concat</text>
</a>
</g>
</g>
<!-- Node16336&#45;&gt;Node16885 -->
<g id="edge9" class="edge">
<title>Node16336&#45;&gt;Node16885</title>
<path fill="none" stroke="#191970" d="M211.9461,-86.7537C227.4047,-70.273 252.4965,-45.5549 278,-29 283.4438,-25.4663 289.655,-22.3221 295.6606,-19.6581"/>
<polygon fill="#191970" stroke="#191970" points="209.3708,-84.3835 205.1716,-94.1107 214.5202,-89.1252 209.3708,-84.3835"/>
</g>
<!-- Node16337&#45;&gt;Node16338 -->
<g id="edge3" class="edge">
<title>Node16337&#45;&gt;Node16338</title>
<path fill="none" stroke="#191970" d="M367.8401,-172.8316C379.0488,-171.0788 390.9793,-169.2131 401.9734,-167.4939"/>
<polygon fill="#191970" stroke="#191970" points="367.136,-169.3991 357.7969,-174.4021 368.2176,-176.315 367.136,-169.3991"/>
</g>
<!-- Node16338&#45;&gt;Node16338 -->
<g id="edge4" class="edge">
<title>Node16338&#45;&gt;Node16338</title>
<path fill="none" stroke="#191970" d="M421.1787,-180.0292C422.3962,-185.128 429.8367,-189 443.5,-189 464.8281,-189 470.9933,-179.5653 461.9955,-170.7571"/>
<polygon fill="#191970" stroke="#191970" points="424.4256,-181.3361 425.0045,-170.7571 417.9548,-178.6661 424.4256,-181.3361"/>
</g>
<!-- Node16414&#45;&gt;Node16414 -->
<g id="edge8" class="edge">
<title>Node16414&#45;&gt;Node16414</title>
<path fill="none" stroke="#191970" d="M299.6787,-67.0292C300.8962,-72.128 308.3367,-76 322,-76 343.3281,-76 349.4933,-66.5653 340.4955,-57.7571"/>
<polygon fill="#191970" stroke="#191970" points="302.9256,-68.3361 303.5045,-57.7571 296.4548,-65.6661 302.9256,-68.3361"/>
</g>
</g>
</svg>
