<?xml version="1.0" encoding="UTF-8" standalone="no"?>
<!DOCTYPE svg PUBLIC "-//W3C//DTD SVG 1.1//EN"
 "http://www.w3.org/Graphics/SVG/1.1/DTD/svg11.dtd">
<!-- Generated by graphviz version 2.40.1 (20161225.0304)
 -->
<!-- Title: add_import Pages: 1 -->
<svg width="517pt" height="66pt"
 viewBox="0.00 0.00 517.00 66.00" xmlns="http://www.w3.org/2000/svg" xmlns:xlink="http://www.w3.org/1999/xlink">
<g id="graph0" class="graph" transform="scale(1 1) rotate(0) translate(4 62)">
<title>add_import</title>
<!-- Node346448 -->
<g id="node1" class="node">
<title>Node346448</title>
<polygon fill="#bfbfbf" stroke="#000000" points="0,-19.5 0,-38.5 65,-38.5 65,-19.5 0,-19.5"/>
<text text-anchor="middle" x="32.5" y="-26.5" font-family="Helvetica,sans-Serif" font-size="10.00" fill="#000000">add_import</text>
</g>
<!-- Node346449 -->
<g id="node2" class="node">
<title>Node346449</title>
<g id="a_node2"><a xlink:href="quickjs_8c.html#aa24f7964f6d938a05c3c3c03af5a01e9" target="_top" xlink:title="js_parse_import">
<polygon fill="none" stroke="#000000" points="101,-19.5 101,-38.5 187,-38.5 187,-19.5 101,-19.5"/>
<text text-anchor="middle" x="144" y="-26.5" font-family="Helvetica,sans-Serif" font-size="10.00" fill="#000000">js_parse_import</text>
</a>
</g>
</g>
<!-- Node346448&#45;&gt;Node346449 -->
<g id="edge1" class="edge">
<title>Node346448&#45;&gt;Node346449</title>
<path fill="none" stroke="#191970" d="M75.0732,-29C83.5099,-29 92.3737,-29 100.8301,-29"/>
<polygon fill="#191970" stroke="#191970" points="75.0502,-25.5001 65.0502,-29 75.0501,-32.5001 75.0502,-25.5001"/>
</g>
<!-- Node346450 -->
<g id="node3" class="node">
<title>Node346450</title>
<g id="a_node3"><a xlink:href="quickjs_8c.html#ab59a3267a100decc9d2d81eb3297794a" target="_top" xlink:title="js_parse_source_element">
<polygon fill="none" stroke="#000000" points="223,-19.5 223,-38.5 351,-38.5 351,-19.5 223,-19.5"/>
<text text-anchor="middle" x="287" y="-26.5" font-family="Helvetica,sans-Serif" font-size="10.00" fill="#000000">js_parse_source_element</text>
</a>
</g>
</g>
<!-- Node346449&#45;&gt;Node346450 -->
<g id="edge2" class="edge">
<title>Node346449&#45;&gt;Node346450</title>
<path fill="none" stroke="#191970" d="M197.5036,-29C205.7369,-29 214.3107,-29 222.7484,-29"/>
<polygon fill="#191970" stroke="#191970" points="197.2928,-25.5001 187.2928,-29 197.2927,-32.5001 197.2928,-25.5001"/>
</g>
<!-- Node346451 -->
<g id="node4" class="node">
<title>Node346451</title>
<g id="a_node4"><a xlink:href="quickjs_8c.html#acc9eb677cab8dfcf45f59381f8a19601" target="_top" xlink:title="js_parse_function_decl2">
<polygon fill="none" stroke="#ff0000" points="387,-38.5 387,-57.5 509,-57.5 509,-38.5 387,-38.5"/>
<text text-anchor="middle" x="448" y="-45.5" font-family="Helvetica,sans-Serif" font-size="10.00" fill="#000000">js_parse_function_decl2</text>
</a>
</g>
</g>
<!-- Node346450&#45;&gt;Node346451 -->
<g id="edge3" class="edge">
<title>Node346450&#45;&gt;Node346451</title>
<path fill="none" stroke="#191970" d="M361.1006,-37.7448C369.683,-38.7576 378.363,-39.782 386.7471,-40.7714"/>
<polygon fill="#191970" stroke="#191970" points="361.4354,-34.2601 351.0941,-36.5639 360.6149,-41.2119 361.4354,-34.2601"/>
</g>
<!-- Node346477 -->
<g id="node5" class="node">
<title>Node346477</title>
<g id="a_node5"><a xlink:href="quickjs_8c.html#aec05caae64451720670d1a56040110b3" target="_top" xlink:title="js_parse_program">
<polygon fill="none" stroke="#ff0000" points="401,-.5 401,-19.5 495,-19.5 495,-.5 401,-.5"/>
<text text-anchor="middle" x="448" y="-7.5" font-family="Helvetica,sans-Serif" font-size="10.00" fill="#000000">js_parse_program</text>
</a>
</g>
</g>
<!-- Node346450&#45;&gt;Node346477 -->
<g id="edge4" class="edge">
<title>Node346450&#45;&gt;Node346477</title>
<path fill="none" stroke="#191970" d="M361.3429,-20.2266C374.8375,-18.6341 388.5642,-17.0142 400.9943,-15.5473"/>
<polygon fill="#191970" stroke="#191970" points="360.6149,-16.7881 351.0941,-21.4361 361.4354,-23.7399 360.6149,-16.7881"/>
</g>
</g>
</svg>
