<?xml version="1.0" encoding="UTF-8" standalone="no"?>
<!DOCTYPE svg PUBLIC "-//W3C//DTD SVG 1.1//EN"
 "http://www.w3.org/Graphics/SVG/1.1/DTD/svg11.dtd">
<!-- Generated by graphviz version 2.40.1 (20161225.0304)
 -->
<!-- Title: js_os_ttyGetWinSize Pages: 1 -->
<!--zoomable 294 -->
<svg id="main" version="1.1" xmlns="http://www.w3.org/2000/svg" xmlns:xlink="http://www.w3.org/1999/xlink" xml:space="preserve" onload="init(evt)">
<style type="text/css"><![CDATA[
.edge:hover path { stroke: red; }
.edge:hover polygon { stroke: red; fill: red; }
]]></style>
<script type="text/javascript"><![CDATA[
var edges = document.getElementsByTagName('g');
if (edges && edges.length) {
  for (var i=0;i<edges.length;i++) {
    if (edges[i].id.substr(0,4)=='edge') {
      edges[i].setAttribute('class','edge');
    }
  }
}
]]></script>
        <defs>
                <circle id="rim" cx="0" cy="0" r="7"/>
                <circle id="rim2" cx="0" cy="0" r="3.5"/>
                <g id="zoomPlus">
                        <use xlink:href="#rim" fill="#404040">
                                <set attributeName="fill" to="#808080" begin="zoomplus.mouseover" end="zoomplus.mouseout"/>
                        </use>
                        <path d="M-4,0h8M0,-4v8" fill="none" stroke="white" stroke-width="1.5" pointer-events="none"/>
                </g>
                <g id="zoomMin">
                        <use xlink:href="#rim" fill="#404040">
                                <set attributeName="fill" to="#808080" begin="zoomminus.mouseover" end="zoomminus.mouseout"/>
                        </use>
                        <path d="M-4,0h8" fill="none" stroke="white" stroke-width="1.5" pointer-events="none"/>
                </g>
                <g id="dirArrow">
                        <path fill="none" stroke="white" stroke-width="1.5" d="M0,-3.0v7 M-2.5,-0.5L0,-3.0L2.5,-0.5"/>
                </g>
               <g id="resetDef">
                       <use xlink:href="#rim2" fill="#404040">
                               <set attributeName="fill" to="#808080" begin="reset.mouseover" end="reset.mouseout"/>
                       </use>
               </g>
        </defs>

<script type="text/javascript">
var viewWidth = 772;
var viewHeight = 294;
var sectionId = 'dynsection-66';
</script>
<script xlink:href="svgpan.js"/>
<svg id="graph" class="graph">
<g id="viewport">
<title>js_os_ttyGetWinSize</title>
<!-- Node14366 -->
<g id="node1" class="node">
<title>Node14366</title>
<polygon fill="#bfbfbf" stroke="#000000" points="0,-76.5 0,-95.5 109,-95.5 109,-76.5 0,-76.5"/>
<text text-anchor="middle" x="54.5" y="-83.5" font-family="Helvetica,sans-Serif" font-size="10.00" fill="#000000">js_os_ttyGetWinSize</text>
</g>
<!-- Node14367 -->
<g id="node2" class="node">
<title>Node14367</title>
<g id="a_node2"><a xlink:href="quickjs_8c.html#a12aed667595f49667e0095f0a028e0d4" target="_top" xlink:title="JS_DefinePropertyValueUint32">
<polygon fill="none" stroke="#000000" points="145,-152.5 145,-171.5 297,-171.5 297,-152.5 145,-152.5"/>
<text text-anchor="middle" x="221" y="-159.5" font-family="Helvetica,sans-Serif" font-size="10.00" fill="#000000">JS_DefinePropertyValueUint32</text>
</a>
</g>
</g>
<!-- Node14366&#45;&gt;Node14367 -->
<g id="edge1" class="edge">
<title>Node14366&#45;&gt;Node14367</title>
<path fill="none" stroke="#191970" d="M69.0368,-95.6695C86.5007,-106.9705 116.9594,-125.6891 145,-138 154.6971,-142.2574 165.3893,-146.1144 175.6147,-149.4298"/>
<polygon fill="#191970" stroke="#191970" points="174.6388,-152.7917 185.2278,-152.438 176.7294,-146.1112 174.6388,-152.7917"/>
</g>
<!-- Node14495 -->
<g id="node5" class="node">
<title>Node14495</title>
<g id="a_node5"><a xlink:href="quickjs_8h.html#ad80a83d73e9b7d872b88fbf2943aebe9" target="_top" xlink:title="JS_IsException">
<polygon fill="none" stroke="#000000" points="678,-133.5 678,-152.5 764,-152.5 764,-133.5 678,-133.5"/>
<text text-anchor="middle" x="721" y="-140.5" font-family="Helvetica,sans-Serif" font-size="10.00" fill="#000000">JS_IsException</text>
</a>
</g>
</g>
<!-- Node14366&#45;&gt;Node14495 -->
<g id="edge11" class="edge">
<title>Node14366&#45;&gt;Node14495</title>
<path fill="none" stroke="#191970" d="M109.3814,-80.3321C214.5401,-71.0929 450.9525,-58.1795 642,-105 661.5862,-109.8 682.0607,-119.811 697.2571,-128.3529"/>
<polygon fill="#191970" stroke="#191970" points="695.5769,-131.4245 705.9818,-133.4219 699.0934,-125.3719 695.5769,-131.4245"/>
</g>
<!-- Node14407 -->
<g id="node10" class="node">
<title>Node14407</title>
<g id="a_node10"><a xlink:href="quickjs_8h.html#a2050bc428da1c65ac7eb87c3fa3b0392" target="_top" xlink:title="JS_NewInt32">
<polygon fill="none" stroke="#000000" points="542,-114.5 542,-133.5 618,-133.5 618,-114.5 542,-114.5"/>
<text text-anchor="middle" x="580" y="-121.5" font-family="Helvetica,sans-Serif" font-size="10.00" fill="#000000">JS_NewInt32</text>
</a>
</g>
</g>
<!-- Node14366&#45;&gt;Node14407 -->
<g id="edge13" class="edge">
<title>Node14366&#45;&gt;Node14407</title>
<path fill="none" stroke="#191970" d="M109.4247,-95.3817C121.1382,-97.1341 133.457,-98.7917 145,-100 284.8452,-114.6387 450.9783,-120.6729 531.473,-122.8798"/>
<polygon fill="#191970" stroke="#191970" points="531.6974,-126.3869 541.7871,-123.1544 531.8838,-119.3894 531.6974,-126.3869"/>
</g>
<!-- Node14623 -->
<g id="node11" class="node">
<title>Node14623</title>
<g id="a_node11"><a xlink:href="quickjs_8c.html#ad4ba09e4c7ab9f28c144182e1aacf1f6" target="_top" xlink:title="JS_NewArray">
<polygon fill="none" stroke="#ff0000" points="182.5,-38.5 182.5,-57.5 259.5,-57.5 259.5,-38.5 182.5,-38.5"/>
<text text-anchor="middle" x="221" y="-45.5" font-family="Helvetica,sans-Serif" font-size="10.00" fill="#000000">JS_NewArray</text>
</a>
</g>
</g>
<!-- Node14366&#45;&gt;Node14623 -->
<g id="edge12" class="edge">
<title>Node14366&#45;&gt;Node14623</title>
<path fill="none" stroke="#191970" d="M96.515,-76.411C119.6116,-71.1397 148.3734,-64.5754 172.4305,-59.0849"/>
<polygon fill="#191970" stroke="#191970" points="173.4518,-62.4419 182.4224,-56.8045 171.8942,-55.6174 173.4518,-62.4419"/>
</g>
<!-- Node14555 -->
<g id="node12" class="node">
<title>Node14555</title>
<g id="a_node12"><a xlink:href="quickjs_8c.html#a4073bd2b4f247bf6077cd956759193b9" target="_top" xlink:title="JS_ToInt32">
<polygon fill="none" stroke="#ff0000" points="187.5,-.5 187.5,-19.5 254.5,-19.5 254.5,-.5 187.5,-.5"/>
<text text-anchor="middle" x="221" y="-7.5" font-family="Helvetica,sans-Serif" font-size="10.00" fill="#000000">JS_ToInt32</text>
</a>
</g>
</g>
<!-- Node14366&#45;&gt;Node14555 -->
<g id="edge14" class="edge">
<title>Node14366&#45;&gt;Node14555</title>
<path fill="none" stroke="#191970" d="M66.9716,-76.324C83.7977,-63.7105 115.115,-41.7595 145,-29 155.2469,-24.625 166.7184,-21.1044 177.5814,-18.3394"/>
<polygon fill="#191970" stroke="#191970" points="178.4209,-21.7374 187.334,-16.0097 176.7944,-14.929 178.4209,-21.7374"/>
</g>
<!-- Node14368 -->
<g id="node3" class="node">
<title>Node14368</title>
<g id="a_node3"><a xlink:href="quickjs_8c.html#a0c61bd5a64c743e81188bb528b78e715" target="_top" xlink:title="JS_DefinePropertyValueValue">
<polygon fill="none" stroke="#000000" points="333,-190.5 333,-209.5 482,-209.5 482,-190.5 333,-190.5"/>
<text text-anchor="middle" x="407.5" y="-197.5" font-family="Helvetica,sans-Serif" font-size="10.00" fill="#000000">JS_DefinePropertyValueValue</text>
</a>
</g>
</g>
<!-- Node14367&#45;&gt;Node14368 -->
<g id="edge2" class="edge">
<title>Node14367&#45;&gt;Node14368</title>
<path fill="none" stroke="#191970" d="M268.0618,-171.589C293.2268,-176.7165 324.3958,-183.0672 350.8786,-188.4632"/>
<polygon fill="#191970" stroke="#191970" points="350.2791,-191.9129 360.7766,-190.4799 351.6767,-185.0538 350.2791,-191.9129"/>
</g>
<!-- Node14553 -->
<g id="node9" class="node">
<title>Node14553</title>
<g id="a_node9"><a xlink:href="quickjs_8h.html#a88259aa0da61ac754402c64ccecee116" target="_top" xlink:title="JS_NewUint32">
<polygon fill="none" stroke="#ff0000" points="366,-152.5 366,-171.5 449,-171.5 449,-152.5 366,-152.5"/>
<text text-anchor="middle" x="407.5" y="-159.5" font-family="Helvetica,sans-Serif" font-size="10.00" fill="#000000">JS_NewUint32</text>
</a>
</g>
</g>
<!-- Node14367&#45;&gt;Node14553 -->
<g id="edge9" class="edge">
<title>Node14367&#45;&gt;Node14553</title>
<path fill="none" stroke="#191970" d="M297.1257,-162C316.8352,-162 337.6016,-162 355.7381,-162"/>
<polygon fill="#191970" stroke="#191970" points="355.8013,-165.5001 365.8013,-162 355.8013,-158.5001 355.8013,-165.5001"/>
</g>
<!-- Node14369 -->
<g id="node4" class="node">
<title>Node14369</title>
<g id="a_node4"><a xlink:href="quickjs_8c.html#a859d5c989a2aaecef1653b3ac279e108" target="_top" xlink:title="JS_ValueToAtom">
<polygon fill="none" stroke="#ff0000" points="533.5,-152.5 533.5,-171.5 626.5,-171.5 626.5,-152.5 533.5,-152.5"/>
<text text-anchor="middle" x="580" y="-159.5" font-family="Helvetica,sans-Serif" font-size="10.00" fill="#000000">JS_ValueToAtom</text>
</a>
</g>
</g>
<!-- Node14368&#45;&gt;Node14369 -->
<g id="edge3" class="edge">
<title>Node14368&#45;&gt;Node14369</title>
<path fill="none" stroke="#191970" d="M451.029,-190.411C474.0999,-185.3287 502.6266,-179.0446 526.9805,-173.6797"/>
<polygon fill="#191970" stroke="#191970" points="527.7711,-177.0895 536.784,-171.5201 526.2651,-170.2534 527.7711,-177.0895"/>
</g>
<!-- Node14477 -->
<g id="node6" class="node">
<title>Node14477</title>
<g id="a_node6"><a xlink:href="quickjs_8h.html#afaa20c47565bc704c6c85f3d77254e7d" target="_top" xlink:title="JS_FreeValue">
<polygon fill="none" stroke="#ff0000" points="682,-209.5 682,-228.5 760,-228.5 760,-209.5 682,-209.5"/>
<text text-anchor="middle" x="721" y="-216.5" font-family="Helvetica,sans-Serif" font-size="10.00" fill="#000000">JS_FreeValue</text>
</a>
</g>
</g>
<!-- Node14368&#45;&gt;Node14477 -->
<g id="edge5" class="edge">
<title>Node14368&#45;&gt;Node14477</title>
<path fill="none" stroke="#191970" d="M482.1928,-204.5268C540.817,-208.0798 620.7671,-212.9253 671.645,-216.0088"/>
<polygon fill="#191970" stroke="#191970" points="671.5365,-219.5085 681.73,-216.62 671.9601,-212.5214 671.5365,-219.5085"/>
</g>
<!-- Node14499 -->
<g id="node7" class="node">
<title>Node14499</title>
<g id="a_node7"><a xlink:href="quickjs_8c.html#a0a8765bd4012467d9139bc24aabcb3ca" target="_top" xlink:title="JS_DefinePropertyValue">
<polygon fill="none" stroke="#ff0000" points="518,-266.5 518,-285.5 642,-285.5 642,-266.5 518,-266.5"/>
<text text-anchor="middle" x="580" y="-273.5" font-family="Helvetica,sans-Serif" font-size="10.00" fill="#000000">JS_DefinePropertyValue</text>
</a>
</g>
</g>
<!-- Node14368&#45;&gt;Node14499 -->
<g id="edge6" class="edge">
<title>Node14368&#45;&gt;Node14499</title>
<path fill="none" stroke="#191970" d="M423.9082,-209.6475C445.1107,-221.8346 483.4152,-242.9129 518,-257 523.477,-259.2309 529.3169,-261.3463 535.1402,-263.2996"/>
<polygon fill="#191970" stroke="#191970" points="534.2661,-266.695 544.8575,-266.4257 536.4098,-260.0313 534.2661,-266.695"/>
</g>
<!-- Node14474 -->
<g id="node8" class="node">
<title>Node14474</title>
<g id="a_node8"><a xlink:href="quickjs_8c.html#ab7fc45a99935a1c0ba50b0216d9401a9" target="_top" xlink:title="JS_FreeAtom">
<polygon fill="none" stroke="#ff0000" points="541.5,-228.5 541.5,-247.5 618.5,-247.5 618.5,-228.5 541.5,-228.5"/>
<text text-anchor="middle" x="580" y="-235.5" font-family="Helvetica,sans-Serif" font-size="10.00" fill="#000000">JS_FreeAtom</text>
</a>
</g>
</g>
<!-- Node14368&#45;&gt;Node14474 -->
<g id="edge8" class="edge">
<title>Node14368&#45;&gt;Node14474</title>
<path fill="none" stroke="#191970" d="M451.029,-209.589C475.6122,-215.0044 506.39,-221.7845 531.7133,-227.3629"/>
<polygon fill="#191970" stroke="#191970" points="530.9634,-230.7816 541.4822,-229.5149 532.4694,-223.9455 530.9634,-230.7816"/>
</g>
<!-- Node14369&#45;&gt;Node14495 -->
<g id="edge4" class="edge">
<title>Node14369&#45;&gt;Node14495</title>
<path fill="none" stroke="#191970" d="M626.5594,-155.726C639.7273,-153.9516 654.1595,-152.0069 667.6918,-150.1834"/>
<polygon fill="#191970" stroke="#191970" points="668.3857,-153.6216 677.8287,-148.8174 667.4508,-146.6843 668.3857,-153.6216"/>
</g>
<!-- Node14499&#45;&gt;Node14477 -->
<g id="edge7" class="edge">
<title>Node14499&#45;&gt;Node14477</title>
<path fill="none" stroke="#191970" d="M614.428,-266.4597C623.4904,-263.6747 633.1931,-260.4448 642,-257 659.6729,-250.0872 678.8713,-240.8937 693.9166,-233.281"/>
<polygon fill="#191970" stroke="#191970" points="695.8459,-236.225 703.146,-228.5465 692.6509,-229.9967 695.8459,-236.225"/>
</g>
<!-- Node14553&#45;&gt;Node14407 -->
<g id="edge10" class="edge">
<title>Node14553&#45;&gt;Node14407</title>
<path fill="none" stroke="#191970" d="M449.2574,-152.8013C474.1687,-147.3136 505.8991,-140.3237 531.8622,-134.6043"/>
<polygon fill="#191970" stroke="#191970" points="532.8543,-137.9697 541.8671,-132.4003 531.3483,-131.1336 532.8543,-137.9697"/>
</g>
</g>
</svg>
        <g id="navigator" transform="translate(0 0)" fill="#404254">
                <rect fill="#f2f5e9" fill-opacity="0.5" stroke="#606060" stroke-width=".5" x="0" y="0" width="60" height="60"/>
                <use id="zoomplus" xlink:href="#zoomPlus" x="17" y="9" onmousedown="handleZoom(evt,'in')"/>
                <use id="zoomminus" xlink:href="#zoomMin" x="42" y="9" onmousedown="handleZoom(evt,'out')"/>
                <use id="reset" xlink:href="#resetDef" x="30" y="36" onmousedown="handleReset()"/>
                <g id="arrowUp" xlink:href="#dirArrow" transform="translate(30 24)" onmousedown="handlePan(0,-1)">
                  <use xlink:href="#rim" fill="#404040">
                        <set attributeName="fill" to="#808080" begin="arrowUp.mouseover" end="arrowUp.mouseout"/>
                  </use>
                  <path fill="none" stroke="white" stroke-width="1.5" d="M0,-3.0v7 M-2.5,-0.5L0,-3.0L2.5,-0.5"/>
                </g>
                <g id="arrowRight" xlink:href="#dirArrow" transform="rotate(90) translate(36 -43)" onmousedown="handlePan(1,0)">
                  <use xlink:href="#rim" fill="#404040">
                        <set attributeName="fill" to="#808080" begin="arrowRight.mouseover" end="arrowRight.mouseout"/>
                  </use>
                  <path fill="none" stroke="white" stroke-width="1.5" d="M0,-3.0v7 M-2.5,-0.5L0,-3.0L2.5,-0.5"/>
                </g>
                <g id="arrowDown" xlink:href="#dirArrow" transform="rotate(180) translate(-30 -48)" onmousedown="handlePan(0,1)">
                  <use xlink:href="#rim" fill="#404040">
                        <set attributeName="fill" to="#808080" begin="arrowDown.mouseover" end="arrowDown.mouseout"/>
                  </use>
                  <path fill="none" stroke="white" stroke-width="1.5" d="M0,-3.0v7 M-2.5,-0.5L0,-3.0L2.5,-0.5"/>
                </g>
                <g id="arrowLeft" xlink:href="#dirArrow" transform="rotate(270) translate(-36 17)" onmousedown="handlePan(-1,0)">
                  <use xlink:href="#rim" fill="#404040">
                        <set attributeName="fill" to="#808080" begin="arrowLeft.mouseover" end="arrowLeft.mouseout"/>
                  </use>
                  <path fill="none" stroke="white" stroke-width="1.5" d="M0,-3.0v7 M-2.5,-0.5L0,-3.0L2.5,-0.5"/>
                </g>
        </g>
        <svg viewBox="0 0 15 15" width="100%" height="30px" preserveAspectRatio="xMaxYMin meet">
         <g id="arrow_out" transform="scale(0.3 0.3)">
          <a xlink:href="quickjs-libc_8c_a9caf548a60b412734dc8a40a7ebc914e_cgraph_org.svg" target="_base">
           <rect id="button" ry="5" rx="5" y="6" x="6" height="38" width="38"
                fill="#f2f5e9" fill-opacity="0.5" stroke="#606060" stroke-width="1.0"/>
           <path id="arrow"
             d="M 11.500037,31.436501 C 11.940474,20.09759 22.043105,11.32322 32.158766,21.979434 L 37.068811,17.246167 C 37.068811,17.246167 37.088388,32 37.088388,32 L 22.160133,31.978069 C 22.160133,31.978069 26.997745,27.140456 26.997745,27.140456 C 18.528582,18.264221 13.291696,25.230495 11.500037,31.436501 z"
             style="fill:#404040;"/>
          </a>
         </g>
        </svg>
</svg>
