<?xml version="1.0" encoding="UTF-8" standalone="no"?>
<!DOCTYPE svg PUBLIC "-//W3C//DTD SVG 1.1//EN"
 "http://www.w3.org/Graphics/SVG/1.1/DTD/svg11.dtd">
<!-- Generated by graphviz version 2.40.1 (20161225.0304)
 -->
<!-- Title: js_async_function_terminate Pages: 1 -->
<!--zoomable 142 -->
<svg id="main" version="1.1" xmlns="http://www.w3.org/2000/svg" xmlns:xlink="http://www.w3.org/1999/xlink" xml:space="preserve" onload="init(evt)">
<style type="text/css"><![CDATA[
.edge:hover path { stroke: red; }
.edge:hover polygon { stroke: red; fill: red; }
]]></style>
<script type="text/javascript"><![CDATA[
var edges = document.getElementsByTagName('g');
if (edges && edges.length) {
  for (var i=0;i<edges.length;i++) {
    if (edges[i].id.substr(0,4)=='edge') {
      edges[i].setAttribute('class','edge');
    }
  }
}
]]></script>
        <defs>
                <circle id="rim" cx="0" cy="0" r="7"/>
                <circle id="rim2" cx="0" cy="0" r="3.5"/>
                <g id="zoomPlus">
                        <use xlink:href="#rim" fill="#404040">
                                <set attributeName="fill" to="#808080" begin="zoomplus.mouseover" end="zoomplus.mouseout"/>
                        </use>
                        <path d="M-4,0h8M0,-4v8" fill="none" stroke="white" stroke-width="1.5" pointer-events="none"/>
                </g>
                <g id="zoomMin">
                        <use xlink:href="#rim" fill="#404040">
                                <set attributeName="fill" to="#808080" begin="zoomminus.mouseover" end="zoomminus.mouseout"/>
                        </use>
                        <path d="M-4,0h8" fill="none" stroke="white" stroke-width="1.5" pointer-events="none"/>
                </g>
                <g id="dirArrow">
                        <path fill="none" stroke="white" stroke-width="1.5" d="M0,-3.0v7 M-2.5,-0.5L0,-3.0L2.5,-0.5"/>
                </g>
               <g id="resetDef">
                       <use xlink:href="#rim2" fill="#404040">
                               <set attributeName="fill" to="#808080" begin="reset.mouseover" end="reset.mouseout"/>
                       </use>
               </g>
        </defs>

<script type="text/javascript">
var viewWidth = 633;
var viewHeight = 142;
var sectionId = 'dynsection-864';
</script>
<script xlink:href="svgpan.js"/>
<svg id="graph" class="graph">
<g id="viewport">
<title>js_async_function_terminate</title>
<!-- Node301189 -->
<g id="node1" class="node">
<title>Node301189</title>
<polygon fill="#bfbfbf" stroke="#000000" points="0,-38.5 0,-57.5 141,-57.5 141,-38.5 0,-38.5"/>
<text text-anchor="middle" x="70.5" y="-45.5" font-family="Helvetica,sans-Serif" font-size="10.00" fill="#000000">js_async_function_terminate</text>
</g>
<!-- Node301190 -->
<g id="node2" class="node">
<title>Node301190</title>
<g id="a_node2"><a xlink:href="quickjs_8c.html#ab3180b5caf3b66ac6db634e41e56a4ef" target="_top" xlink:title="async_func_free">
<polygon fill="none" stroke="#000000" points="177,-38.5 177,-57.5 266,-57.5 266,-38.5 177,-38.5"/>
<text text-anchor="middle" x="221.5" y="-45.5" font-family="Helvetica,sans-Serif" font-size="10.00" fill="#000000">async_func_free</text>
</a>
</g>
</g>
<!-- Node301189&#45;&gt;Node301190 -->
<g id="edge1" class="edge">
<title>Node301189&#45;&gt;Node301190</title>
<path fill="none" stroke="#191970" d="M141.1368,-48C149.664,-48 158.2742,-48 166.53,-48"/>
<polygon fill="#191970" stroke="#191970" points="166.7649,-51.5001 176.7649,-48 166.7649,-44.5001 166.7649,-51.5001"/>
</g>
<!-- Node301191 -->
<g id="node3" class="node">
<title>Node301191</title>
<g id="a_node3"><a xlink:href="quickjs_8c.html#a1782043fce951bd4f0d91c7796b31e24" target="_top" xlink:title="close_var_refs">
<polygon fill="none" stroke="#000000" points="308,-76.5 308,-95.5 388,-95.5 388,-76.5 308,-76.5"/>
<text text-anchor="middle" x="348" y="-83.5" font-family="Helvetica,sans-Serif" font-size="10.00" fill="#000000">close_var_refs</text>
</a>
</g>
</g>
<!-- Node301190&#45;&gt;Node301191 -->
<g id="edge2" class="edge">
<title>Node301190&#45;&gt;Node301191</title>
<path fill="none" stroke="#191970" d="M253.4213,-57.589C269.4516,-62.4044 289.0738,-68.2988 306.2816,-73.468"/>
<polygon fill="#191970" stroke="#191970" points="305.5047,-76.8891 316.0889,-76.4141 307.5187,-70.185 305.5047,-76.8891"/>
</g>
<!-- Node301196 -->
<g id="node6" class="node">
<title>Node301196</title>
<g id="a_node6"><a xlink:href="quickjs_8c.html#a69e19dda8a93d613203e0baa06f0ed8d" target="_top" xlink:title="js_free_rt">
<polygon fill="none" stroke="#000000" points="568,-19.5 568,-38.5 625,-38.5 625,-19.5 568,-19.5"/>
<text text-anchor="middle" x="596.5" y="-26.5" font-family="Helvetica,sans-Serif" font-size="10.00" fill="#000000">js_free_rt</text>
</a>
</g>
</g>
<!-- Node301190&#45;&gt;Node301196 -->
<g id="edge5" class="edge">
<title>Node301190&#45;&gt;Node301196</title>
<path fill="none" stroke="#191970" d="M266.3613,-45.727C340.5125,-41.97 487.4002,-34.5277 557.5012,-30.9759"/>
<polygon fill="#191970" stroke="#191970" points="557.8598,-34.4624 567.6698,-30.4607 557.5055,-27.4713 557.8598,-34.4624"/>
</g>
<!-- Node301197 -->
<g id="node7" class="node">
<title>Node301197</title>
<g id="a_node7"><a xlink:href="quickjs_8h.html#ab8db583fa5e7c2b1935854a42859daed" target="_top" xlink:title="JS_FreeValueRT">
<polygon fill="none" stroke="#000000" points="302,-.5 302,-19.5 394,-19.5 394,-.5 302,-.5"/>
<text text-anchor="middle" x="348" y="-7.5" font-family="Helvetica,sans-Serif" font-size="10.00" fill="#000000">JS_FreeValueRT</text>
</a>
</g>
</g>
<!-- Node301190&#45;&gt;Node301197 -->
<g id="edge6" class="edge">
<title>Node301190&#45;&gt;Node301197</title>
<path fill="none" stroke="#191970" d="M253.4213,-38.411C269.4516,-33.5956 289.0738,-27.7012 306.2816,-22.532"/>
<polygon fill="#191970" stroke="#191970" points="307.5187,-25.815 316.0889,-19.5859 305.5047,-19.1109 307.5187,-25.815"/>
</g>
<!-- Node301192 -->
<g id="node4" class="node">
<title>Node301192</title>
<g id="a_node4"><a xlink:href="quickjs_8c.html#a9780456a71703c53244b88831bc8fb7a" target="_top" xlink:title="add_gc_object">
<polygon fill="none" stroke="#ff0000" points="441,-114.5 441,-133.5 521,-133.5 521,-114.5 441,-114.5"/>
<text text-anchor="middle" x="481" y="-121.5" font-family="Helvetica,sans-Serif" font-size="10.00" fill="#000000">add_gc_object</text>
</a>
</g>
</g>
<!-- Node301191&#45;&gt;Node301192 -->
<g id="edge3" class="edge">
<title>Node301191&#45;&gt;Node301192</title>
<path fill="none" stroke="#191970" d="M381.5615,-95.589C398.573,-100.4494 419.4319,-106.4091 437.6446,-111.6127"/>
<polygon fill="#191970" stroke="#191970" points="436.8724,-115.0321 447.4492,-114.4141 438.7955,-108.3014 436.8724,-115.0321"/>
</g>
<!-- Node301195 -->
<g id="node5" class="node">
<title>Node301195</title>
<g id="a_node5"><a xlink:href="quickjs_8h.html#a43f4842ac4151b79ccd82e23216e87ad" target="_top" xlink:title="JS_DupValueRT">
<polygon fill="none" stroke="#000000" points="436,-76.5 436,-95.5 526,-95.5 526,-76.5 436,-76.5"/>
<text text-anchor="middle" x="481" y="-83.5" font-family="Helvetica,sans-Serif" font-size="10.00" fill="#000000">JS_DupValueRT</text>
</a>
</g>
</g>
<!-- Node301191&#45;&gt;Node301195 -->
<g id="edge4" class="edge">
<title>Node301191&#45;&gt;Node301195</title>
<path fill="none" stroke="#191970" d="M388.2653,-86C399.9726,-86 412.9718,-86 425.4431,-86"/>
<polygon fill="#191970" stroke="#191970" points="425.7548,-89.5001 435.7548,-86 425.7547,-82.5001 425.7548,-89.5001"/>
</g>
<!-- Node301198 -->
<g id="node8" class="node">
<title>Node301198</title>
<g id="a_node8"><a xlink:href="quickjs_8c.html#ab1ea3fad7d138be12144a38be4d36423" target="_top" xlink:title="__JS_FreeValueRT">
<polygon fill="none" stroke="#ff0000" points="430,-.5 430,-19.5 532,-19.5 532,-.5 430,-.5"/>
<text text-anchor="middle" x="481" y="-7.5" font-family="Helvetica,sans-Serif" font-size="10.00" fill="#000000">__JS_FreeValueRT</text>
</a>
</g>
</g>
<!-- Node301197&#45;&gt;Node301198 -->
<g id="edge7" class="edge">
<title>Node301197&#45;&gt;Node301198</title>
<path fill="none" stroke="#191970" d="M394.1437,-10C402.4482,-10 411.2214,-10 419.8726,-10"/>
<polygon fill="#191970" stroke="#191970" points="419.9369,-13.5001 429.9368,-10 419.9368,-6.5001 419.9369,-13.5001"/>
</g>
<!-- Node301198&#45;&gt;Node301196 -->
<g id="edge8" class="edge">
<title>Node301198&#45;&gt;Node301196</title>
<path fill="none" stroke="#191970" d="M532.3326,-18.4443C540.8898,-19.852 549.6372,-21.291 557.8109,-22.6356"/>
<polygon fill="#191970" stroke="#191970" points="557.3643,-26.1091 567.7999,-24.2788 558.5006,-19.2019 557.3643,-26.1091"/>
</g>
</g>
</svg>
        <g id="navigator" transform="translate(0 0)" fill="#404254">
                <rect fill="#f2f5e9" fill-opacity="0.5" stroke="#606060" stroke-width=".5" x="0" y="0" width="60" height="60"/>
                <use id="zoomplus" xlink:href="#zoomPlus" x="17" y="9" onmousedown="handleZoom(evt,'in')"/>
                <use id="zoomminus" xlink:href="#zoomMin" x="42" y="9" onmousedown="handleZoom(evt,'out')"/>
                <use id="reset" xlink:href="#resetDef" x="30" y="36" onmousedown="handleReset()"/>
                <g id="arrowUp" xlink:href="#dirArrow" transform="translate(30 24)" onmousedown="handlePan(0,-1)">
                  <use xlink:href="#rim" fill="#404040">
                        <set attributeName="fill" to="#808080" begin="arrowUp.mouseover" end="arrowUp.mouseout"/>
                  </use>
                  <path fill="none" stroke="white" stroke-width="1.5" d="M0,-3.0v7 M-2.5,-0.5L0,-3.0L2.5,-0.5"/>
                </g>
                <g id="arrowRight" xlink:href="#dirArrow" transform="rotate(90) translate(36 -43)" onmousedown="handlePan(1,0)">
                  <use xlink:href="#rim" fill="#404040">
                        <set attributeName="fill" to="#808080" begin="arrowRight.mouseover" end="arrowRight.mouseout"/>
                  </use>
                  <path fill="none" stroke="white" stroke-width="1.5" d="M0,-3.0v7 M-2.5,-0.5L0,-3.0L2.5,-0.5"/>
                </g>
                <g id="arrowDown" xlink:href="#dirArrow" transform="rotate(180) translate(-30 -48)" onmousedown="handlePan(0,1)">
                  <use xlink:href="#rim" fill="#404040">
                        <set attributeName="fill" to="#808080" begin="arrowDown.mouseover" end="arrowDown.mouseout"/>
                  </use>
                  <path fill="none" stroke="white" stroke-width="1.5" d="M0,-3.0v7 M-2.5,-0.5L0,-3.0L2.5,-0.5"/>
                </g>
                <g id="arrowLeft" xlink:href="#dirArrow" transform="rotate(270) translate(-36 17)" onmousedown="handlePan(-1,0)">
                  <use xlink:href="#rim" fill="#404040">
                        <set attributeName="fill" to="#808080" begin="arrowLeft.mouseover" end="arrowLeft.mouseout"/>
                  </use>
                  <path fill="none" stroke="white" stroke-width="1.5" d="M0,-3.0v7 M-2.5,-0.5L0,-3.0L2.5,-0.5"/>
                </g>
        </g>
        <svg viewBox="0 0 15 15" width="100%" height="30px" preserveAspectRatio="xMaxYMin meet">
         <g id="arrow_out" transform="scale(0.3 0.3)">
          <a xlink:href="quickjs_8c_a4b282353917b10409ca38b279b0b1dce_cgraph_org.svg" target="_base">
           <rect id="button" ry="5" rx="5" y="6" x="6" height="38" width="38"
                fill="#f2f5e9" fill-opacity="0.5" stroke="#606060" stroke-width="1.0"/>
           <path id="arrow"
             d="M 11.500037,31.436501 C 11.940474,20.09759 22.043105,11.32322 32.158766,21.979434 L 37.068811,17.246167 C 37.068811,17.246167 37.088388,32 37.088388,32 L 22.160133,31.978069 C 22.160133,31.978069 26.997745,27.140456 26.997745,27.140456 C 18.528582,18.264221 13.291696,25.230495 11.500037,31.436501 z"
             style="fill:#404040;"/>
          </a>
         </g>
        </svg>
</svg>
