<?xml version="1.0" encoding="UTF-8" standalone="no"?>
<!DOCTYPE svg PUBLIC "-//W3C//DTD SVG 1.1//EN"
 "http://www.w3.org/Graphics/SVG/1.1/DTD/svg11.dtd">
<!-- Generated by graphviz version 2.40.1 (20161225.0304)
 -->
<!-- Title: convert_fast_array_to_array Pages: 1 -->
<svg width="859pt" height="535pt"
 viewBox="0.00 0.00 859.00 535.48" xmlns="http://www.w3.org/2000/svg" xmlns:xlink="http://www.w3.org/1999/xlink">
<g id="graph0" class="graph" transform="scale(1 1) rotate(0) translate(4 531.4754)">
<title>convert_fast_array_to_array</title>
<!-- Node193955 -->
<g id="node1" class="node">
<title>Node193955</title>
<polygon fill="#bfbfbf" stroke="#000000" points="0,-204 0,-234 98,-234 98,-204 0,-204"/>
<text text-anchor="start" x="8" y="-222" font-family="Helvetica,sans-Serif" font-size="10.00" fill="#000000">convert_fast_array</text>
<text text-anchor="middle" x="49" y="-211" font-family="Helvetica,sans-Serif" font-size="10.00" fill="#000000">_to_array</text>
</g>
<!-- Node193956 -->
<g id="node2" class="node">
<title>Node193956</title>
<g id="a_node2"><a xlink:href="quickjs_8c.html#a877fcb7651d95b411ce70e62b7f4a1f0" target="_top" xlink:title="__JS_AtomFromUInt32">
<polygon fill="none" stroke="#000000" points="138.5,-371.5 138.5,-390.5 257.5,-390.5 257.5,-371.5 138.5,-371.5"/>
<text text-anchor="middle" x="198" y="-378.5" font-family="Helvetica,sans-Serif" font-size="10.00" fill="#000000">__JS_AtomFromUInt32</text>
</a>
</g>
</g>
<!-- Node193955&#45;&gt;Node193956 -->
<g id="edge1" class="edge">
<title>Node193955&#45;&gt;Node193956</title>
<path fill="none" stroke="#191970" d="M53.7627,-234.0433C63.7722,-263.2054 89.7904,-327.5792 134,-362 136.4364,-363.8969 139.0588,-365.6048 141.8021,-367.1424"/>
<polygon fill="#191970" stroke="#191970" points="140.3645,-370.3346 150.8954,-371.4969 143.3878,-364.0211 140.3645,-370.3346"/>
</g>
<!-- Node193957 -->
<g id="node3" class="node">
<title>Node193957</title>
<g id="a_node3"><a xlink:href="quickjs_8c.html#a74547db03bf739a52c83a326b32db997" target="_top" xlink:title="add_property">
<polygon fill="none" stroke="#000000" points="161.5,-333.5 161.5,-352.5 234.5,-352.5 234.5,-333.5 161.5,-333.5"/>
<text text-anchor="middle" x="198" y="-340.5" font-family="Helvetica,sans-Serif" font-size="10.00" fill="#000000">add_property</text>
</a>
</g>
</g>
<!-- Node193955&#45;&gt;Node193957 -->
<g id="edge2" class="edge">
<title>Node193955&#45;&gt;Node193957</title>
<path fill="none" stroke="#191970" d="M67.2703,-234.2048C95.5615,-257.7491 149.7169,-302.8181 178.6504,-326.8969"/>
<polygon fill="#191970" stroke="#191970" points="176.5069,-329.6666 186.4322,-333.3731 180.9846,-324.286 176.5069,-329.6666"/>
</g>
<!-- Node193966 -->
<g id="node11" class="node">
<title>Node193966</title>
<g id="a_node11"><a xlink:href="quickjs_8c.html#aa80740ff93b724ea7e0c280826f4a25a" target="_top" xlink:title="resize_properties">
<polygon fill="none" stroke="#ff0000" points="473,-114.5 473,-133.5 564,-133.5 564,-114.5 473,-114.5"/>
<text text-anchor="middle" x="518.5" y="-121.5" font-family="Helvetica,sans-Serif" font-size="10.00" fill="#000000">resize_properties</text>
</a>
</g>
</g>
<!-- Node193955&#45;&gt;Node193966 -->
<g id="edge43" class="edge">
<title>Node193955&#45;&gt;Node193966</title>
<path fill="none" stroke="#191970" d="M98.4342,-207.9164C110.0956,-205.3112 122.4847,-202.5509 134,-200 206.8581,-183.8605 224.8303,-178.6624 298,-164 353.9176,-152.7947 418.0919,-141.3072 462.7347,-133.5344"/>
<polygon fill="#191970" stroke="#191970" points="463.5443,-136.9463 472.7984,-131.7875 462.3471,-130.0494 463.5443,-136.9463"/>
</g>
<!-- Node193970 -->
<g id="node15" class="node">
<title>Node193970</title>
<g id="a_node15"><a xlink:href="quickjs_8c.html#a80e54dcf9ac687d4ccc2f90273565f30" target="_top" xlink:title="js_free">
<polygon fill="none" stroke="#ff0000" points="647.5,-.5 647.5,-19.5 693.5,-19.5 693.5,-.5 647.5,-.5"/>
<text text-anchor="middle" x="670.5" y="-7.5" font-family="Helvetica,sans-Serif" font-size="10.00" fill="#000000">js_free</text>
</a>
</g>
</g>
<!-- Node193955&#45;&gt;Node193970 -->
<g id="edge37" class="edge">
<title>Node193955&#45;&gt;Node193970</title>
<path fill="none" stroke="#191970" d="M70.5415,-203.9731C87.2484,-192.8479 111.3062,-177.9556 134,-168 316.6649,-87.866 551.6458,-34.5971 637.3512,-16.6792"/>
<polygon fill="#191970" stroke="#191970" points="638.1993,-20.0779 647.2816,-14.6223 636.7795,-13.2234 638.1993,-20.0779"/>
</g>
<!-- Node194014 -->
<g id="node25" class="node">
<title>Node194014</title>
<g id="a_node25"><a xlink:href="quickjs_8c.html#a3dd8e78607dbc729614deacf55901b95" target="_top" xlink:title="js_shape_prepare_update">
<polygon fill="none" stroke="#000000" points="134,-209.5 134,-228.5 262,-228.5 262,-209.5 134,-209.5"/>
<text text-anchor="middle" x="198" y="-216.5" font-family="Helvetica,sans-Serif" font-size="10.00" fill="#000000">js_shape_prepare_update</text>
</a>
</g>
</g>
<!-- Node193955&#45;&gt;Node194014 -->
<g id="edge38" class="edge">
<title>Node193955&#45;&gt;Node194014</title>
<path fill="none" stroke="#191970" d="M98.2011,-219C106.4261,-219 115.1179,-219 123.8042,-219"/>
<polygon fill="#191970" stroke="#191970" points="123.9704,-222.5001 133.9704,-219 123.9703,-215.5001 123.9704,-222.5001"/>
</g>
<!-- Node193958 -->
<g id="node4" class="node">
<title>Node193958</title>
<g id="a_node4"><a xlink:href="quickjs_8c.html#a3cadcaa2bd1e3f9359f1c006f396cfa0" target="_top" xlink:title="add_shape_property">
<polygon fill="none" stroke="#000000" points="308.5,-390.5 308.5,-409.5 412.5,-409.5 412.5,-390.5 308.5,-390.5"/>
<text text-anchor="middle" x="360.5" y="-397.5" font-family="Helvetica,sans-Serif" font-size="10.00" fill="#000000">add_shape_property</text>
</a>
</g>
</g>
<!-- Node193957&#45;&gt;Node193958 -->
<g id="edge3" class="edge">
<title>Node193957&#45;&gt;Node193958</title>
<path fill="none" stroke="#191970" d="M234.6454,-352.5287C243.707,-355.2523 253.3064,-358.4559 262,-362 278.753,-368.8298 281.2694,-374.1155 298,-381 303.4422,-383.2394 309.246,-385.3516 315.0413,-387.2962"/>
<polygon fill="#191970" stroke="#191970" points="314.1297,-390.6794 324.7209,-390.4033 316.2692,-384.0143 314.1297,-390.6794"/>
</g>
<!-- Node193963 -->
<g id="node8" class="node">
<title>Node193963</title>
<g id="a_node8"><a xlink:href="quickjs_8c.html#a82dbe63adeac7849406fd48d96f39f7b" target="_top" xlink:title="js_shape_hash_link">
<polygon fill="none" stroke="#000000" points="467.5,-456.5 467.5,-475.5 569.5,-475.5 569.5,-456.5 467.5,-456.5"/>
<text text-anchor="middle" x="518.5" y="-463.5" font-family="Helvetica,sans-Serif" font-size="10.00" fill="#000000">js_shape_hash_link</text>
</a>
</g>
</g>
<!-- Node193957&#45;&gt;Node193963 -->
<g id="edge36" class="edge">
<title>Node193957&#45;&gt;Node193963</title>
<path fill="none" stroke="#191970" d="M234.6714,-349.0482C244.2227,-351.8648 254.053,-355.9833 262,-362 285.8886,-380.0862 273.4194,-401.8661 298,-419 344.8172,-451.634 409.8304,-462.3409 457.1267,-465.5118"/>
<polygon fill="#191970" stroke="#191970" points="457.0529,-469.0133 467.2375,-466.0938 457.4552,-462.0248 457.0529,-469.0133"/>
</g>
<!-- Node193982 -->
<g id="node18" class="node">
<title>Node193982</title>
<g id="a_node18"><a xlink:href="quickjs_8c.html#ac0c5dbb01d6082796c44b1c7f7c170f1" target="_top" xlink:title="find_hashed_shape_prop">
<polygon fill="none" stroke="#000000" points="298,-494.5 298,-513.5 423,-513.5 423,-494.5 298,-494.5"/>
<text text-anchor="middle" x="360.5" y="-501.5" font-family="Helvetica,sans-Serif" font-size="10.00" fill="#000000">find_hashed_shape_prop</text>
</a>
</g>
</g>
<!-- Node193957&#45;&gt;Node193982 -->
<g id="edge18" class="edge">
<title>Node193957&#45;&gt;Node193982</title>
<path fill="none" stroke="#191970" d="M234.7198,-347.538C244.6045,-350.3328 254.5958,-354.8176 262,-362 298.6197,-397.5227 265.0552,-432.0448 298,-471 304.6557,-478.87 313.6728,-485.1283 322.7849,-489.9852"/>
<polygon fill="#191970" stroke="#191970" points="321.3202,-493.1648 331.8448,-494.3828 324.3769,-486.8674 321.3202,-493.1648"/>
</g>
<!-- Node193983 -->
<g id="node19" class="node">
<title>Node193983</title>
<g id="a_node19"><a xlink:href="quickjs_8c.html#a8e34657169da77ae6a386311351ed3de" target="_top" xlink:title="js_clone_shape">
<polygon fill="none" stroke="#000000" points="476.5,-152.5 476.5,-171.5 560.5,-171.5 560.5,-152.5 476.5,-152.5"/>
<text text-anchor="middle" x="518.5" y="-159.5" font-family="Helvetica,sans-Serif" font-size="10.00" fill="#000000">js_clone_shape</text>
</a>
</g>
</g>
<!-- Node193957&#45;&gt;Node193983 -->
<g id="edge21" class="edge">
<title>Node193957&#45;&gt;Node193983</title>
<path fill="none" stroke="#191970" d="M234.6446,-334.4111C281.2333,-322.3259 362.8344,-297.1757 423,-257 442.3475,-244.0807 442.5954,-235.4962 459,-219 472.7687,-205.1544 488.7706,-189.8684 500.7096,-178.6145"/>
<polygon fill="#191970" stroke="#191970" points="503.355,-180.9317 508.2486,-171.5347 498.5631,-175.8289 503.355,-180.9317"/>
</g>
<!-- Node193986 -->
<g id="node22" class="node">
<title>Node193986</title>
<g id="a_node22"><a xlink:href="quickjs_8c.html#aed229eb80b3b03a2275471dee93c69d6" target="_top" xlink:title="js_dup_shape">
<polygon fill="none" stroke="#000000" points="322,-352.5 322,-371.5 399,-371.5 399,-352.5 322,-352.5"/>
<text text-anchor="middle" x="360.5" y="-359.5" font-family="Helvetica,sans-Serif" font-size="10.00" fill="#000000">js_dup_shape</text>
</a>
</g>
</g>
<!-- Node193957&#45;&gt;Node193986 -->
<g id="edge30" class="edge">
<title>Node193957&#45;&gt;Node193986</title>
<path fill="none" stroke="#191970" d="M234.8738,-347.3114C257.5701,-349.9651 286.9305,-353.398 311.5594,-356.2777"/>
<polygon fill="#191970" stroke="#191970" points="311.4529,-359.789 321.7917,-357.4741 312.2659,-352.8364 311.4529,-359.789"/>
</g>
<!-- Node193987 -->
<g id="node23" class="node">
<title>Node193987</title>
<g id="a_node23"><a xlink:href="quickjs_8c.html#a3a9f27520d96cf58aa5bd7359e9cddee" target="_top" xlink:title="js_free_shape">
<polygon fill="none" stroke="#000000" points="322,-228.5 322,-247.5 399,-247.5 399,-228.5 322,-228.5"/>
<text text-anchor="middle" x="360.5" y="-235.5" font-family="Helvetica,sans-Serif" font-size="10.00" fill="#000000">js_free_shape</text>
</a>
</g>
</g>
<!-- Node193957&#45;&gt;Node193987 -->
<g id="edge31" class="edge">
<title>Node193957&#45;&gt;Node193987</title>
<path fill="none" stroke="#191970" d="M212.7074,-333.4968C240.9642,-315.2385 303.0493,-275.122 337.0693,-253.1398"/>
<polygon fill="#191970" stroke="#191970" points="338.9734,-256.0766 345.4731,-247.7097 335.1743,-250.1972 338.9734,-256.0766"/>
</g>
<!-- Node193959 -->
<g id="node5" class="node">
<title>Node193959</title>
<g id="a_node5"><a xlink:href="quickjs_8c.html#a288254c06a39c9fca740a7abdad2834e" target="_top" xlink:title="__JS_AtomIsTaggedInt">
<polygon fill="none" stroke="#000000" points="459,-380.5 459,-399.5 578,-399.5 578,-380.5 459,-380.5"/>
<text text-anchor="middle" x="518.5" y="-387.5" font-family="Helvetica,sans-Serif" font-size="10.00" fill="#000000">__JS_AtomIsTaggedInt</text>
</a>
</g>
</g>
<!-- Node193958&#45;&gt;Node193959 -->
<g id="edge4" class="edge">
<title>Node193958&#45;&gt;Node193959</title>
<path fill="none" stroke="#191970" d="M412.673,-396.6979C424.2599,-395.9646 436.7206,-395.1759 448.8805,-394.4063"/>
<polygon fill="#191970" stroke="#191970" points="449.2393,-397.8907 458.9983,-393.7659 448.7971,-390.9047 449.2393,-397.8907"/>
</g>
<!-- Node193960 -->
<g id="node6" class="node">
<title>Node193960</title>
<g id="a_node6"><a xlink:href="quickjs_8c.html#a643df594b75933007bcdbb071b5ea8c5" target="_top" xlink:title="get_shape_prop">
<polygon fill="none" stroke="#000000" points="627.5,-266.5 627.5,-285.5 713.5,-285.5 713.5,-266.5 627.5,-266.5"/>
<text text-anchor="middle" x="670.5" y="-273.5" font-family="Helvetica,sans-Serif" font-size="10.00" fill="#000000">get_shape_prop</text>
</a>
</g>
</g>
<!-- Node193958&#45;&gt;Node193960 -->
<g id="edge5" class="edge">
<title>Node193958&#45;&gt;Node193960</title>
<path fill="none" stroke="#191970" d="M402.0718,-390.4997C409.3176,-387.9777 416.581,-384.85 423,-381 442.4047,-369.3614 439.714,-356.8343 459,-345 508.5803,-314.5764 573.0266,-296.0682 617.6864,-285.9854"/>
<polygon fill="#191970" stroke="#191970" points="618.4468,-289.4019 627.4648,-283.8408 616.9471,-282.5644 618.4468,-289.4019"/>
</g>
<!-- Node193961 -->
<g id="node7" class="node">
<title>Node193961</title>
<g id="a_node7"><a xlink:href="quickjs_8c.html#abbf44eaeace1104a6bef718fbf5700fe" target="_top" xlink:title="JS_DupAtom">
<polygon fill="none" stroke="#ff0000" points="633,-323.5 633,-342.5 708,-342.5 708,-323.5 633,-323.5"/>
<text text-anchor="middle" x="670.5" y="-330.5" font-family="Helvetica,sans-Serif" font-size="10.00" fill="#000000">JS_DupAtom</text>
</a>
</g>
</g>
<!-- Node193958&#45;&gt;Node193961 -->
<g id="edge6" class="edge">
<title>Node193958&#45;&gt;Node193961</title>
<path fill="none" stroke="#191970" d="M391.4463,-390.4906C415.2464,-383.2523 446.162,-374.0337 459,-371 514.7961,-357.815 579.8212,-346.766 622.8873,-340.04"/>
<polygon fill="#191970" stroke="#191970" points="623.4576,-343.4935 632.8055,-338.5069 622.3881,-336.5757 623.4576,-343.4935"/>
</g>
<!-- Node193958&#45;&gt;Node193963 -->
<g id="edge7" class="edge">
<title>Node193958&#45;&gt;Node193963</title>
<path fill="none" stroke="#191970" d="M382.7458,-409.6331C402.6754,-418.2279 432.7276,-431.1014 459,-442 467.447,-445.5041 476.5957,-449.2291 485.1273,-452.6729"/>
<polygon fill="#191970" stroke="#191970" points="483.8435,-455.929 494.4272,-456.4148 486.4565,-449.4349 483.8435,-455.929"/>
</g>
<!-- Node193965 -->
<g id="node10" class="node">
<title>Node193965</title>
<g id="a_node10"><a xlink:href="quickjs_8c.html#ae5e76f4be6214208cc91f10a192fc810" target="_top" xlink:title="js_shape_hash_unlink">
<polygon fill="none" stroke="#000000" points="614,-399.5 614,-418.5 727,-418.5 727,-399.5 614,-399.5"/>
<text text-anchor="middle" x="670.5" y="-406.5" font-family="Helvetica,sans-Serif" font-size="10.00" fill="#000000">js_shape_hash_unlink</text>
</a>
</g>
</g>
<!-- Node193958&#45;&gt;Node193965 -->
<g id="edge9" class="edge">
<title>Node193958&#45;&gt;Node193965</title>
<path fill="none" stroke="#191970" d="M412.581,-405.6515C427.5478,-407.0332 443.9044,-408.3118 459,-409 507.4579,-411.2092 562.2258,-411.1383 603.8868,-410.5523"/>
<polygon fill="#191970" stroke="#191970" points="603.9688,-414.0515 613.9137,-410.3978 603.8609,-407.0524 603.9688,-414.0515"/>
</g>
<!-- Node193958&#45;&gt;Node193966 -->
<g id="edge11" class="edge">
<title>Node193958&#45;&gt;Node193966</title>
<path fill="none" stroke="#191970" d="M411.0829,-390.4228C415.5666,-387.9511 419.6622,-384.8606 423,-381 492.9687,-300.0721 389.5983,-224.4147 459,-143 460.5432,-141.1897 462.2589,-139.55 464.1061,-138.0652"/>
<polygon fill="#191970" stroke="#191970" points="466.3358,-140.7966 472.9209,-132.4968 462.5972,-134.8786 466.3358,-140.7966"/>
</g>
<!-- Node193981 -->
<g id="node17" class="node">
<title>Node193981</title>
<g id="a_node17"><a xlink:href="quickjs_8c.html#a11f047846c1027dc6066a5f1b2ef292a" target="_top" xlink:title="shape_hash">
<polygon fill="none" stroke="#000000" points="484,-494.5 484,-513.5 553,-513.5 553,-494.5 484,-494.5"/>
<text text-anchor="middle" x="518.5" y="-501.5" font-family="Helvetica,sans-Serif" font-size="10.00" fill="#000000">shape_hash</text>
</a>
</g>
</g>
<!-- Node193958&#45;&gt;Node193981 -->
<g id="edge17" class="edge">
<title>Node193958&#45;&gt;Node193981</title>
<path fill="none" stroke="#191970" d="M369.0457,-409.5796C385.0547,-426.9791 421.3588,-463.919 459,-485 463.7896,-487.6824 469.0118,-490.047 474.3081,-492.1145"/>
<polygon fill="#191970" stroke="#191970" points="473.2494,-495.4528 483.844,-495.5196 475.6035,-488.8605 473.2494,-495.4528"/>
</g>
<!-- Node193964 -->
<g id="node9" class="node">
<title>Node193964</title>
<g id="a_node9"><a xlink:href="quickjs_8c.html#a8291bf195606b5d1b0faed795b6dc3ff" target="_top" xlink:title="get_shape_hash">
<polygon fill="none" stroke="#000000" points="763,-456.5 763,-475.5 851,-475.5 851,-456.5 763,-456.5"/>
<text text-anchor="middle" x="807" y="-463.5" font-family="Helvetica,sans-Serif" font-size="10.00" fill="#000000">get_shape_hash</text>
</a>
</g>
</g>
<!-- Node193963&#45;&gt;Node193964 -->
<g id="edge8" class="edge">
<title>Node193963&#45;&gt;Node193964</title>
<path fill="none" stroke="#191970" d="M569.7456,-466C621.206,-466 700.1954,-466 752.7099,-466"/>
<polygon fill="#191970" stroke="#191970" points="752.8439,-469.5001 762.8438,-466 752.8438,-462.5001 752.8439,-469.5001"/>
</g>
<!-- Node193965&#45;&gt;Node193964 -->
<g id="edge10" class="edge">
<title>Node193965&#45;&gt;Node193964</title>
<path fill="none" stroke="#191970" d="M693.347,-418.5405C715.5914,-427.8294 749.612,-442.0358 774.6369,-452.4857"/>
<polygon fill="#191970" stroke="#191970" points="773.502,-455.8047 784.0784,-456.4284 776.1994,-449.3452 773.502,-455.8047"/>
</g>
<!-- Node193967 -->
<g id="node12" class="node">
<title>Node193967</title>
<g id="a_node12"><a xlink:href="quickjs_8c.html#a7da0cfa6f27af0e1b9599d7f359edbe2" target="_top" xlink:title="get_alloc_from_shape">
<polygon fill="none" stroke="#000000" points="614.5,-190.5 614.5,-209.5 726.5,-209.5 726.5,-190.5 614.5,-190.5"/>
<text text-anchor="middle" x="670.5" y="-197.5" font-family="Helvetica,sans-Serif" font-size="10.00" fill="#000000">get_alloc_from_shape</text>
</a>
</g>
</g>
<!-- Node193966&#45;&gt;Node193967 -->
<g id="edge12" class="edge">
<title>Node193966&#45;&gt;Node193967</title>
<path fill="none" stroke="#191970" d="M558.1591,-133.5727C565.0487,-136.0873 571.9392,-139.1938 578,-143 597.7016,-155.3726 594.3937,-168.4769 614,-181 617.1507,-183.0124 620.5372,-184.8352 624.0303,-186.4819"/>
<polygon fill="#191970" stroke="#191970" points="622.862,-189.7874 633.4369,-190.4383 625.576,-183.3349 622.862,-189.7874"/>
</g>
<!-- Node193968 -->
<g id="node13" class="node">
<title>Node193968</title>
<g id="a_node13"><a xlink:href="quickjs_8c.html#a8b6c89e0f589df709eb31a92b7fac32a" target="_top" xlink:title="get_shape_from_alloc">
<polygon fill="none" stroke="#000000" points="614.5,-114.5 614.5,-133.5 726.5,-133.5 726.5,-114.5 614.5,-114.5"/>
<text text-anchor="middle" x="670.5" y="-121.5" font-family="Helvetica,sans-Serif" font-size="10.00" fill="#000000">get_shape_from_alloc</text>
</a>
</g>
</g>
<!-- Node193966&#45;&gt;Node193968 -->
<g id="edge13" class="edge">
<title>Node193966&#45;&gt;Node193968</title>
<path fill="none" stroke="#191970" d="M564.105,-124C576.7178,-124 590.6678,-124 604.2006,-124"/>
<polygon fill="#191970" stroke="#191970" points="604.4389,-127.5001 614.4389,-124 604.4388,-120.5001 604.4389,-127.5001"/>
</g>
<!-- Node193969 -->
<g id="node14" class="node">
<title>Node193969</title>
<g id="a_node14"><a xlink:href="quickjs_8c.html#ab54e821a9b1b55dc16c4494bd410b698" target="_top" xlink:title="get_shape_size">
<polygon fill="none" stroke="#000000" points="628,-76.5 628,-95.5 713,-95.5 713,-76.5 628,-76.5"/>
<text text-anchor="middle" x="670.5" y="-83.5" font-family="Helvetica,sans-Serif" font-size="10.00" fill="#000000">get_shape_size</text>
</a>
</g>
</g>
<!-- Node193966&#45;&gt;Node193969 -->
<g id="edge14" class="edge">
<title>Node193966&#45;&gt;Node193969</title>
<path fill="none" stroke="#191970" d="M556.856,-114.411C576.8237,-109.4191 601.4295,-103.2676 622.6334,-97.9666"/>
<polygon fill="#191970" stroke="#191970" points="623.5673,-101.341 632.4198,-95.5201 621.8695,-94.55 623.5673,-101.341"/>
</g>
<!-- Node193966&#45;&gt;Node193970 -->
<g id="edge15" class="edge">
<title>Node193966&#45;&gt;Node193970</title>
<path fill="none" stroke="#191970" d="M527.7869,-114.2727C549.7693,-91.3196 603.9042,-35.2398 614,-29 621.2598,-24.513 629.7056,-20.9452 637.8199,-18.17"/>
<polygon fill="#191970" stroke="#191970" points="638.9448,-21.4855 647.451,-15.1694 636.8626,-14.8024 638.9448,-21.4855"/>
</g>
<!-- Node193972 -->
<g id="node16" class="node">
<title>Node193972</title>
<g id="a_node16"><a xlink:href="quickjs_8c.html#a78b7f6b85f2739b551ff54f16156128b" target="_top" xlink:title="js_malloc">
<polygon fill="none" stroke="#ff0000" points="641.5,-38.5 641.5,-57.5 699.5,-57.5 699.5,-38.5 641.5,-38.5"/>
<text text-anchor="middle" x="670.5" y="-45.5" font-family="Helvetica,sans-Serif" font-size="10.00" fill="#000000">js_malloc</text>
</a>
</g>
</g>
<!-- Node193966&#45;&gt;Node193972 -->
<g id="edge16" class="edge">
<title>Node193966&#45;&gt;Node193972</title>
<path fill="none" stroke="#191970" d="M532.5372,-114.3134C550.71,-102.085 583.6546,-80.9631 614,-67 619.5409,-64.4504 625.5252,-62.0677 631.455,-59.9102"/>
<polygon fill="#191970" stroke="#191970" points="632.9913,-63.0822 641.2952,-56.5022 630.7004,-56.4676 632.9913,-63.0822"/>
</g>
<!-- Node193982&#45;&gt;Node193964 -->
<g id="edge19" class="edge">
<title>Node193982&#45;&gt;Node193964</title>
<path fill="none" stroke="#191970" d="M400.5049,-513.5106C418.3019,-517.2757 439.5826,-521.1444 459,-523 511.649,-528.0314 525.5041,-529.4352 578,-523 646.2404,-514.6348 723.4148,-492.7445 768.4889,-478.6549"/>
<polygon fill="#191970" stroke="#191970" points="769.6676,-481.9531 778.1472,-475.6012 767.5573,-475.2787 769.6676,-481.9531"/>
</g>
<!-- Node193982&#45;&gt;Node193981 -->
<g id="edge20" class="edge">
<title>Node193982&#45;&gt;Node193981</title>
<path fill="none" stroke="#191970" d="M423.3998,-504C440.1809,-504 457.9741,-504 473.5744,-504"/>
<polygon fill="#191970" stroke="#191970" points="473.9849,-507.5001 483.9849,-504 473.9849,-500.5001 473.9849,-507.5001"/>
</g>
<!-- Node193983&#45;&gt;Node193960 -->
<g id="edge25" class="edge">
<title>Node193983&#45;&gt;Node193960</title>
<path fill="none" stroke="#191970" d="M553.9598,-171.5038C562.539,-175.0291 571.1883,-179.7494 578,-186 604.0682,-209.9207 587.2376,-233.8585 614,-257 615.9521,-258.688 618.0601,-260.2274 620.275,-261.6312"/>
<polygon fill="#191970" stroke="#191970" points="618.7718,-264.796 629.2445,-266.4007 622.0583,-258.6154 618.7718,-264.796"/>
</g>
<!-- Node193983&#45;&gt;Node193961 -->
<g id="edge27" class="edge">
<title>Node193983&#45;&gt;Node193961</title>
<path fill="none" stroke="#191970" d="M531.1938,-171.8079C544.221,-182.369 564.4481,-200.2014 578,-219 599.8567,-249.3187 589.6218,-266.6691 614,-295 621.8513,-304.1243 632.396,-312.0022 642.2491,-318.1817"/>
<polygon fill="#191970" stroke="#191970" points="640.6182,-321.2835 651.0064,-323.3662 644.1844,-315.26 640.6182,-321.2835"/>
</g>
<!-- Node193983&#45;&gt;Node193967 -->
<g id="edge23" class="edge">
<title>Node193983&#45;&gt;Node193967</title>
<path fill="none" stroke="#191970" d="M556.856,-171.589C576.8237,-176.5809 601.4295,-182.7324 622.6334,-188.0334"/>
<polygon fill="#191970" stroke="#191970" points="621.8695,-191.45 632.4198,-190.4799 623.5673,-184.659 621.8695,-191.45"/>
</g>
<!-- Node193983&#45;&gt;Node193968 -->
<g id="edge24" class="edge">
<title>Node193983&#45;&gt;Node193968</title>
<path fill="none" stroke="#191970" d="M556.856,-152.411C576.8237,-147.4191 601.4295,-141.2676 622.6334,-135.9666"/>
<polygon fill="#191970" stroke="#191970" points="623.5673,-139.341 632.4198,-133.5201 621.8695,-132.55 623.5673,-139.341"/>
</g>
<!-- Node193983&#45;&gt;Node193969 -->
<g id="edge26" class="edge">
<title>Node193983&#45;&gt;Node193969</title>
<path fill="none" stroke="#191970" d="M558.1591,-152.4273C565.0487,-149.9127 571.9392,-146.8062 578,-143 597.7016,-130.6274 594.3937,-117.5231 614,-105 617.1507,-102.9876 620.5372,-101.1648 624.0303,-99.5181"/>
<polygon fill="#191970" stroke="#191970" points="625.576,-102.6651 633.4369,-95.5617 622.862,-96.2126 625.576,-102.6651"/>
</g>
<!-- Node193983&#45;&gt;Node193972 -->
<g id="edge29" class="edge">
<title>Node193983&#45;&gt;Node193972</title>
<path fill="none" stroke="#191970" d="M560.503,-153.4303C566.841,-150.8239 572.94,-147.4268 578,-143 606.1298,-118.39 586.0594,-91.8246 614,-67 619.1459,-62.428 625.432,-58.9491 631.9185,-56.3041"/>
<polygon fill="#191970" stroke="#191970" points="633.1554,-59.5796 641.4557,-52.9951 630.8609,-52.9664 633.1554,-59.5796"/>
</g>
<!-- Node193984 -->
<g id="node20" class="node">
<title>Node193984</title>
<g id="a_node20"><a xlink:href="quickjs_8c.html#a9780456a71703c53244b88831bc8fb7a" target="_top" xlink:title="add_gc_object">
<polygon fill="none" stroke="#ff0000" points="630.5,-152.5 630.5,-171.5 710.5,-171.5 710.5,-152.5 630.5,-152.5"/>
<text text-anchor="middle" x="670.5" y="-159.5" font-family="Helvetica,sans-Serif" font-size="10.00" fill="#000000">add_gc_object</text>
</a>
</g>
</g>
<!-- Node193983&#45;&gt;Node193984 -->
<g id="edge22" class="edge">
<title>Node193983&#45;&gt;Node193984</title>
<path fill="none" stroke="#191970" d="M560.8405,-162C579.3067,-162 601.0953,-162 620.3651,-162"/>
<polygon fill="#191970" stroke="#191970" points="620.4769,-165.5001 630.4768,-162 620.4768,-158.5001 620.4769,-165.5001"/>
</g>
<!-- Node193985 -->
<g id="node21" class="node">
<title>Node193985</title>
<g id="a_node21"><a xlink:href="quickjs_8h.html#a775522f2d084fc8fa0fcb33f390006b4" target="_top" xlink:title="JS_DupValue">
<polygon fill="none" stroke="#000000" points="632,-228.5 632,-247.5 709,-247.5 709,-228.5 632,-228.5"/>
<text text-anchor="middle" x="670.5" y="-235.5" font-family="Helvetica,sans-Serif" font-size="10.00" fill="#000000">JS_DupValue</text>
</a>
</g>
</g>
<!-- Node193983&#45;&gt;Node193985 -->
<g id="edge28" class="edge">
<title>Node193983&#45;&gt;Node193985</title>
<path fill="none" stroke="#191970" d="M548.2704,-171.6041C558.1056,-175.3949 568.8613,-180.2364 578,-186 596.3589,-197.5786 595.3076,-207.9679 614,-219 617.4605,-221.0424 621.171,-222.9023 624.9762,-224.5881"/>
<polygon fill="#191970" stroke="#191970" points="623.9567,-227.9502 634.5409,-228.4247 626.5628,-221.4534 623.9567,-227.9502"/>
</g>
<!-- Node193988 -->
<g id="node24" class="node">
<title>Node193988</title>
<g id="a_node24"><a xlink:href="quickjs_8c.html#a6f921a6312ada5c7da7b485e24d37f54" target="_top" xlink:title="js_free_shape0">
<polygon fill="none" stroke="#ff0000" points="477,-228.5 477,-247.5 560,-247.5 560,-228.5 477,-228.5"/>
<text text-anchor="middle" x="518.5" y="-235.5" font-family="Helvetica,sans-Serif" font-size="10.00" fill="#000000">js_free_shape0</text>
</a>
</g>
</g>
<!-- Node193987&#45;&gt;Node193988 -->
<g id="edge32" class="edge">
<title>Node193987&#45;&gt;Node193988</title>
<path fill="none" stroke="#191970" d="M399.1511,-238C419.4992,-238 444.729,-238 466.7428,-238"/>
<polygon fill="#191970" stroke="#191970" points="466.9277,-241.5001 476.9276,-238 466.9276,-234.5001 466.9277,-241.5001"/>
</g>
<!-- Node193988&#45;&gt;Node193960 -->
<g id="edge34" class="edge">
<title>Node193988&#45;&gt;Node193960</title>
<path fill="none" stroke="#191970" d="M556.856,-247.589C576.8237,-252.5809 601.4295,-258.7324 622.6334,-264.0334"/>
<polygon fill="#191970" stroke="#191970" points="621.8695,-267.45 632.4198,-266.4799 623.5673,-260.659 621.8695,-267.45"/>
</g>
<!-- Node193988&#45;&gt;Node193965 -->
<g id="edge35" class="edge">
<title>Node193988&#45;&gt;Node193965</title>
<path fill="none" stroke="#191970" d="M528.6992,-247.6412C540.9786,-259.4652 561.9507,-280.3623 578,-300 595.7879,-321.765 596.0367,-330.3795 614,-352 626.0097,-366.4548 641.0477,-381.5003 652.5895,-392.5017"/>
<polygon fill="#191970" stroke="#191970" points="650.2585,-395.1142 659.9412,-399.4151 655.0539,-390.0148 650.2585,-395.1142"/>
</g>
<!-- Node193988&#45;&gt;Node193967 -->
<g id="edge33" class="edge">
<title>Node193988&#45;&gt;Node193967</title>
<path fill="none" stroke="#191970" d="M556.856,-228.411C576.8237,-223.4191 601.4295,-217.2676 622.6334,-211.9666"/>
<polygon fill="#191970" stroke="#191970" points="623.5673,-215.341 632.4198,-209.5201 621.8695,-208.55 623.5673,-215.341"/>
</g>
<!-- Node194014&#45;&gt;Node193960 -->
<g id="edge39" class="edge">
<title>Node194014&#45;&gt;Node193960</title>
<path fill="none" stroke="#191970" d="M236.1103,-209.4933C306.8804,-193.8453 461.9438,-169.0805 578,-219 599.3713,-228.1925 594.3937,-244.4769 614,-257 617.1507,-259.0124 620.5372,-260.8352 624.0303,-262.4819"/>
<polygon fill="#191970" stroke="#191970" points="622.862,-265.7874 633.4369,-266.4383 625.576,-259.3349 622.862,-265.7874"/>
</g>
<!-- Node194014&#45;&gt;Node193965 -->
<g id="edge42" class="edge">
<title>Node194014&#45;&gt;Node193965</title>
<path fill="none" stroke="#191970" d="M222.0391,-228.5259C282.1239,-252.3551 443.668,-316.5425 578,-371 597.956,-379.0901 620.2879,-388.2609 638.0092,-395.5663"/>
<polygon fill="#191970" stroke="#191970" points="636.7565,-398.8356 647.3356,-399.4141 639.4263,-392.3647 636.7565,-398.8356"/>
</g>
<!-- Node194014&#45;&gt;Node193983 -->
<g id="edge40" class="edge">
<title>Node194014&#45;&gt;Node193983</title>
<path fill="none" stroke="#191970" d="M222.258,-209.3979C242.2662,-201.8686 271.5574,-191.7351 298,-186 354.7334,-173.6951 421.1154,-167.5596 466.1071,-164.5946"/>
<polygon fill="#191970" stroke="#191970" points="466.4567,-168.0797 476.2169,-163.9581 466.0167,-161.0935 466.4567,-168.0797"/>
</g>
<!-- Node194014&#45;&gt;Node193987 -->
<g id="edge41" class="edge">
<title>Node194014&#45;&gt;Node193987</title>
<path fill="none" stroke="#191970" d="M262.2243,-226.5093C278.5144,-228.414 295.7605,-230.4305 311.1816,-232.2335"/>
<polygon fill="#191970" stroke="#191970" points="311.1932,-235.7587 321.532,-233.4437 312.0061,-228.806 311.1932,-235.7587"/>
</g>
</g>
</svg>
