<?xml version="1.0" encoding="UTF-8" standalone="no"?>
<!DOCTYPE svg PUBLIC "-//W3C//DTD SVG 1.1//EN"
 "http://www.w3.org/Graphics/SVG/1.1/DTD/svg11.dtd">
<!-- Generated by graphviz version 2.40.1 (20161225.0304)
 -->
<!-- Title: JS_AtomGetStrRT Pages: 1 -->
<svg width="262pt" height="142pt"
 viewBox="0.00 0.00 262.00 142.00" xmlns="http://www.w3.org/2000/svg" xmlns:xlink="http://www.w3.org/1999/xlink">
<g id="graph0" class="graph" transform="scale(1 1) rotate(0) translate(4 138)">
<title>JS_AtomGetStrRT</title>
<!-- Node87574 -->
<g id="node1" class="node">
<title>Node87574</title>
<polygon fill="#bfbfbf" stroke="#000000" points="0,-57.5 0,-76.5 99,-76.5 99,-57.5 0,-57.5"/>
<text text-anchor="middle" x="49.5" y="-64.5" font-family="Helvetica,sans-Serif" font-size="10.00" fill="#000000">JS_AtomGetStrRT</text>
</g>
<!-- Node87575 -->
<g id="node2" class="node">
<title>Node87575</title>
<g id="a_node2"><a xlink:href="quickjs_8c.html#a288254c06a39c9fca740a7abdad2834e" target="_top" xlink:title="__JS_AtomIsTaggedInt">
<polygon fill="none" stroke="#000000" points="135,-114.5 135,-133.5 254,-133.5 254,-114.5 135,-114.5"/>
<text text-anchor="middle" x="194.5" y="-121.5" font-family="Helvetica,sans-Serif" font-size="10.00" fill="#000000">__JS_AtomIsTaggedInt</text>
</a>
</g>
</g>
<!-- Node87574&#45;&gt;Node87575 -->
<g id="edge1" class="edge">
<title>Node87574&#45;&gt;Node87575</title>
<path fill="none" stroke="#191970" d="M69.2822,-76.5309C86.4484,-84.6223 112.076,-96.2755 135,-105 140.6484,-107.1497 146.6576,-109.264 152.6028,-111.2563"/>
<polygon fill="#191970" stroke="#191970" points="151.8801,-114.7021 162.4725,-114.4789 154.0528,-108.0478 151.8801,-114.7021"/>
</g>
<!-- Node87576 -->
<g id="node3" class="node">
<title>Node87576</title>
<g id="a_node3"><a xlink:href="quickjs_8c.html#a89f38938cee8077ce1fbba07946ed185" target="_top" xlink:title="__JS_AtomToUInt32">
<polygon fill="none" stroke="#000000" points="140.5,-76.5 140.5,-95.5 248.5,-95.5 248.5,-76.5 140.5,-76.5"/>
<text text-anchor="middle" x="194.5" y="-83.5" font-family="Helvetica,sans-Serif" font-size="10.00" fill="#000000">__JS_AtomToUInt32</text>
</a>
</g>
</g>
<!-- Node87574&#45;&gt;Node87576 -->
<g id="edge2" class="edge">
<title>Node87574&#45;&gt;Node87576</title>
<path fill="none" stroke="#191970" d="M99.4008,-73.5387C109.2312,-74.8269 119.6776,-76.1957 129.9112,-77.5366"/>
<polygon fill="#191970" stroke="#191970" points="129.6732,-81.0353 140.0432,-78.8643 130.5827,-74.0946 129.6732,-81.0353"/>
</g>
<!-- Node87577 -->
<g id="node4" class="node">
<title>Node87577</title>
<g id="a_node4"><a xlink:href="quickjs_8c.html#ac3bdf708c1dc092fd52508b5d29bd0ce" target="_top" xlink:title="atom_is_free">
<polygon fill="none" stroke="#000000" points="158,-38.5 158,-57.5 231,-57.5 231,-38.5 158,-38.5"/>
<text text-anchor="middle" x="194.5" y="-45.5" font-family="Helvetica,sans-Serif" font-size="10.00" fill="#000000">atom_is_free</text>
</a>
</g>
</g>
<!-- Node87574&#45;&gt;Node87577 -->
<g id="edge3" class="edge">
<title>Node87574&#45;&gt;Node87577</title>
<path fill="none" stroke="#191970" d="M99.4008,-60.4613C114.9759,-58.4204 132.0972,-56.1769 147.4686,-54.1627"/>
<polygon fill="#191970" stroke="#191970" points="148.3298,-57.5799 157.7903,-52.8102 147.4203,-50.6392 148.3298,-57.5799"/>
</g>
<!-- Node87578 -->
<g id="node5" class="node">
<title>Node87578</title>
<g id="a_node5"><a xlink:href="cutils_8h.html#aad4e0decb15ab19e9f45b0ee69542a28" target="_top" xlink:title="unicode_to_utf8">
<polygon fill="none" stroke="#000000" points="151.5,-.5 151.5,-19.5 237.5,-19.5 237.5,-.5 151.5,-.5"/>
<text text-anchor="middle" x="194.5" y="-7.5" font-family="Helvetica,sans-Serif" font-size="10.00" fill="#000000">unicode_to_utf8</text>
</a>
</g>
</g>
<!-- Node87574&#45;&gt;Node87578 -->
<g id="edge4" class="edge">
<title>Node87574&#45;&gt;Node87578</title>
<path fill="none" stroke="#191970" d="M69.2822,-57.4691C86.4484,-49.3777 112.076,-37.7245 135,-29 140.6484,-26.8503 146.6576,-24.736 152.6028,-22.7437"/>
<polygon fill="#191970" stroke="#191970" points="154.0528,-25.9522 162.4725,-19.5211 151.8801,-19.2979 154.0528,-25.9522"/>
</g>
</g>
</svg>
