<?xml version="1.0" encoding="UTF-8" standalone="no"?>
<!DOCTYPE svg PUBLIC "-//W3C//DTD SVG 1.1//EN"
 "http://www.w3.org/Graphics/SVG/1.1/DTD/svg11.dtd">
<!-- Generated by graphviz version 2.40.1 (20161225.0304)
 -->
<!-- Title: js_string_codePointRange Pages: 1 -->
<svg width="533pt" height="237pt"
 viewBox="0.00 0.00 533.00 237.00" xmlns="http://www.w3.org/2000/svg" xmlns:xlink="http://www.w3.org/1999/xlink">
<g id="graph0" class="graph" transform="scale(1 1) rotate(0) translate(4 233)">
<title>js_string_codePointRange</title>
<!-- Node11077 -->
<g id="node1" class="node">
<title>Node11077</title>
<polygon fill="#bfbfbf" stroke="#000000" points="0,-95.5 0,-114.5 131,-114.5 131,-95.5 0,-95.5"/>
<text text-anchor="middle" x="65.5" y="-102.5" font-family="Helvetica,sans-Serif" font-size="10.00" fill="#000000">js_string_codePointRange</text>
</g>
<!-- Node11078 -->
<g id="node2" class="node">
<title>Node11078</title>
<g id="a_node2"><a xlink:href="quickjs_8h.html#aa032ee323127468119b3dd2bb1452680" target="_top" xlink:title="JS_ToUint32">
<polygon fill="none" stroke="#000000" points="177.5,-190.5 177.5,-209.5 251.5,-209.5 251.5,-190.5 177.5,-190.5"/>
<text text-anchor="middle" x="214.5" y="-197.5" font-family="Helvetica,sans-Serif" font-size="10.00" fill="#000000">JS_ToUint32</text>
</a>
</g>
</g>
<!-- Node11077&#45;&gt;Node11078 -->
<g id="edge1" class="edge">
<title>Node11077&#45;&gt;Node11078</title>
<path fill="none" stroke="#191970" d="M76.3969,-114.694C94.2959,-130.2507 131.4889,-161.0615 167,-181 170.2914,-182.8481 173.7992,-184.6062 177.3607,-186.2532"/>
<polygon fill="#191970" stroke="#191970" points="176.2345,-189.5795 186.8021,-190.3394 179.0149,-183.1554 176.2345,-189.5795"/>
</g>
<!-- Node11509 -->
<g id="node6" class="node">
<title>Node11509</title>
<g id="a_node6"><a xlink:href="cutils_8h.html#a5a2cb266a87252bf4a7baaaaf9f59fb1" target="_top" xlink:title="max_uint32">
<polygon fill="none" stroke="#000000" points="181,-152.5 181,-171.5 248,-171.5 248,-152.5 181,-152.5"/>
<text text-anchor="middle" x="214.5" y="-159.5" font-family="Helvetica,sans-Serif" font-size="10.00" fill="#000000">max_uint32</text>
</a>
</g>
</g>
<!-- Node11077&#45;&gt;Node11509 -->
<g id="edge5" class="edge">
<title>Node11077&#45;&gt;Node11509</title>
<path fill="none" stroke="#191970" d="M90.4392,-114.5405C114.9355,-123.9116 152.515,-138.2876 179.8961,-148.7623"/>
<polygon fill="#191970" stroke="#191970" points="178.8889,-152.1243 189.4794,-152.4284 181.39,-145.5863 178.8889,-152.1243"/>
</g>
<!-- Node11510 -->
<g id="node7" class="node">
<title>Node11510</title>
<g id="a_node7"><a xlink:href="cutils_8h.html#a5e9167b44a1b0bb69a0dcb32c18c882e" target="_top" xlink:title="min_uint32">
<polygon fill="none" stroke="#000000" points="182.5,-114.5 182.5,-133.5 246.5,-133.5 246.5,-114.5 182.5,-114.5"/>
<text text-anchor="middle" x="214.5" y="-121.5" font-family="Helvetica,sans-Serif" font-size="10.00" fill="#000000">min_uint32</text>
</a>
</g>
</g>
<!-- Node11077&#45;&gt;Node11510 -->
<g id="edge6" class="edge">
<title>Node11077&#45;&gt;Node11510</title>
<path fill="none" stroke="#191970" d="M131.2873,-113.389C145.0519,-115.1442 159.2189,-116.9507 171.8737,-118.5644"/>
<polygon fill="#191970" stroke="#191970" points="171.7437,-122.0761 182.1061,-119.8692 172.6292,-115.1323 171.7437,-122.0761"/>
</g>
<!-- Node11146 -->
<g id="node8" class="node">
<title>Node11146</title>
<g id="a_node8"><a xlink:href="quickjs_8c.html#accfc3d1dcaa88c88402cb245ccaf4fdb" target="_top" xlink:title="string_buffer_end">
<polygon fill="none" stroke="#ff0000" points="168.5,-76.5 168.5,-95.5 260.5,-95.5 260.5,-76.5 168.5,-76.5"/>
<text text-anchor="middle" x="214.5" y="-83.5" font-family="Helvetica,sans-Serif" font-size="10.00" fill="#000000">string_buffer_end</text>
</a>
</g>
</g>
<!-- Node11077&#45;&gt;Node11146 -->
<g id="edge7" class="edge">
<title>Node11077&#45;&gt;Node11146</title>
<path fill="none" stroke="#191970" d="M131.2873,-96.611C140.2526,-95.4678 149.3885,-94.3028 158.1662,-93.1835"/>
<polygon fill="#191970" stroke="#191970" points="158.7972,-96.6315 168.2741,-91.8946 157.9116,-89.6877 158.7972,-96.6315"/>
</g>
<!-- Node11149 -->
<g id="node9" class="node">
<title>Node11149</title>
<g id="a_node9"><a xlink:href="quickjs_8c.html#ac43dee2ed14e80248f1af195bd3d8181" target="_top" xlink:title="string_buffer_init2">
<polygon fill="none" stroke="#ff0000" points="167.5,-38.5 167.5,-57.5 261.5,-57.5 261.5,-38.5 167.5,-38.5"/>
<text text-anchor="middle" x="214.5" y="-45.5" font-family="Helvetica,sans-Serif" font-size="10.00" fill="#000000">string_buffer_init2</text>
</a>
</g>
</g>
<!-- Node11077&#45;&gt;Node11149 -->
<g id="edge8" class="edge">
<title>Node11077&#45;&gt;Node11149</title>
<path fill="none" stroke="#191970" d="M90.4392,-95.4595C114.9355,-86.0884 152.515,-71.7124 179.8961,-61.2377"/>
<polygon fill="#191970" stroke="#191970" points="181.39,-64.4137 189.4794,-57.5716 178.8889,-57.8757 181.39,-64.4137"/>
</g>
<!-- Node11511 -->
<g id="node10" class="node">
<title>Node11511</title>
<g id="a_node10"><a xlink:href="quickjs_8c.html#a8d79794c85d33dd8409cdb39f2c2fc74" target="_top" xlink:title="string_buffer_putc">
<polygon fill="none" stroke="#000000" points="167,-.5 167,-19.5 262,-19.5 262,-.5 167,-.5"/>
<text text-anchor="middle" x="214.5" y="-7.5" font-family="Helvetica,sans-Serif" font-size="10.00" fill="#000000">string_buffer_putc</text>
</a>
</g>
</g>
<!-- Node11077&#45;&gt;Node11511 -->
<g id="edge9" class="edge">
<title>Node11077&#45;&gt;Node11511</title>
<path fill="none" stroke="#191970" d="M76.3969,-95.306C94.2959,-79.7493 131.4889,-48.9385 167,-29 170.2914,-27.1519 173.7992,-25.3938 177.3607,-23.7468"/>
<polygon fill="#191970" stroke="#191970" points="179.0149,-26.8446 186.8021,-19.6606 176.2345,-20.4205 179.0149,-26.8446"/>
</g>
<!-- Node11079 -->
<g id="node3" class="node">
<title>Node11079</title>
<g id="a_node3"><a xlink:href="quickjs_8c.html#a4073bd2b4f247bf6077cd956759193b9" target="_top" xlink:title="JS_ToInt32">
<polygon fill="none" stroke="#000000" points="317,-190.5 317,-209.5 384,-209.5 384,-190.5 317,-190.5"/>
<text text-anchor="middle" x="350.5" y="-197.5" font-family="Helvetica,sans-Serif" font-size="10.00" fill="#000000">JS_ToInt32</text>
</a>
</g>
</g>
<!-- Node11078&#45;&gt;Node11079 -->
<g id="edge2" class="edge">
<title>Node11078&#45;&gt;Node11079</title>
<path fill="none" stroke="#191970" d="M251.6626,-200C268.6245,-200 288.834,-200 306.5455,-200"/>
<polygon fill="#191970" stroke="#191970" points="306.6417,-203.5001 316.6417,-200 306.6417,-196.5001 306.6417,-203.5001"/>
</g>
<!-- Node11080 -->
<g id="node4" class="node">
<title>Node11080</title>
<g id="a_node4"><a xlink:href="quickjs_8h.html#a775522f2d084fc8fa0fcb33f390006b4" target="_top" xlink:title="JS_DupValue">
<polygon fill="none" stroke="#000000" points="443.5,-209.5 443.5,-228.5 520.5,-228.5 520.5,-209.5 443.5,-209.5"/>
<text text-anchor="middle" x="482" y="-216.5" font-family="Helvetica,sans-Serif" font-size="10.00" fill="#000000">JS_DupValue</text>
</a>
</g>
</g>
<!-- Node11079&#45;&gt;Node11080 -->
<g id="edge3" class="edge">
<title>Node11079&#45;&gt;Node11080</title>
<path fill="none" stroke="#191970" d="M384.0232,-204.8437C399.0209,-207.0106 416.9907,-209.607 433.4218,-211.9811"/>
<polygon fill="#191970" stroke="#191970" points="433.0157,-215.4587 443.4134,-213.4248 434.0167,-208.5306 433.0157,-215.4587"/>
</g>
<!-- Node11081 -->
<g id="node5" class="node">
<title>Node11081</title>
<g id="a_node5"><a xlink:href="quickjs_8c.html#a643088ab23784b7f3c6ff94c37228256" target="_top" xlink:title="JS_ToInt32Free">
<polygon fill="none" stroke="#ff0000" points="439,-171.5 439,-190.5 525,-190.5 525,-171.5 439,-171.5"/>
<text text-anchor="middle" x="482" y="-178.5" font-family="Helvetica,sans-Serif" font-size="10.00" fill="#000000">JS_ToInt32Free</text>
</a>
</g>
</g>
<!-- Node11079&#45;&gt;Node11081 -->
<g id="edge4" class="edge">
<title>Node11079&#45;&gt;Node11081</title>
<path fill="none" stroke="#191970" d="M384.0232,-195.1563C397.5014,-193.2089 413.3799,-190.9147 428.3849,-188.7467"/>
<polygon fill="#191970" stroke="#191970" points="429.1965,-192.1658 438.5932,-187.2717 428.1955,-185.2378 429.1965,-192.1658"/>
</g>
<!-- Node11150 -->
<g id="node11" class="node">
<title>Node11150</title>
<g id="a_node11"><a xlink:href="quickjs_8c.html#a9b8fb6b5ce638616691f7bf7881fa57d" target="_top" xlink:title="string_buffer_putc16">
<polygon fill="none" stroke="#ff0000" points="298,-.5 298,-19.5 403,-19.5 403,-.5 298,-.5"/>
<text text-anchor="middle" x="350.5" y="-7.5" font-family="Helvetica,sans-Serif" font-size="10.00" fill="#000000">string_buffer_putc16</text>
</a>
</g>
</g>
<!-- Node11511&#45;&gt;Node11150 -->
<g id="edge10" class="edge">
<title>Node11511&#45;&gt;Node11150</title>
<path fill="none" stroke="#191970" d="M262.0662,-10C270.3245,-10 279.026,-10 287.618,-10"/>
<polygon fill="#191970" stroke="#191970" points="287.6208,-13.5001 297.6207,-10 287.6207,-6.5001 287.6208,-13.5001"/>
</g>
</g>
</svg>
