<?xml version="1.0" encoding="UTF-8" standalone="no"?>
<!DOCTYPE svg PUBLIC "-//W3C//DTD SVG 1.1//EN"
 "http://www.w3.org/Graphics/SVG/1.1/DTD/svg11.dtd">
<!-- Generated by graphviz version 2.40.1 (20161225.0304)
 -->
<!-- Title: emit_label Pages: 1 -->
<svg width="1097pt" height="738pt"
 viewBox="0.00 0.00 1097.00 738.41" xmlns="http://www.w3.org/2000/svg" xmlns:xlink="http://www.w3.org/1999/xlink">
<g id="graph0" class="graph" transform="scale(1 1) rotate(0) translate(4 734.413)">
<title>emit_label</title>
<!-- Node309108 -->
<g id="node1" class="node">
<title>Node309108</title>
<polygon fill="#bfbfbf" stroke="#000000" points="0,-342.3828 0,-361.3828 61,-361.3828 61,-342.3828 0,-342.3828"/>
<text text-anchor="middle" x="30.5" y="-349.3828" font-family="Helvetica,sans-Serif" font-size="10.00" fill="#000000">emit_label</text>
</g>
<!-- Node309109 -->
<g id="node2" class="node">
<title>Node309109</title>
<g id="a_node2"><a xlink:href="quickjs_8c.html#a1e86277b96b55991d572603e00fef94d" target="_top" xlink:title="emit_class_field_init">
<polygon fill="none" stroke="#000000" points="262.5,-249.3828 262.5,-268.3828 367.5,-268.3828 367.5,-249.3828 262.5,-249.3828"/>
<text text-anchor="middle" x="315" y="-256.3828" font-family="Helvetica,sans-Serif" font-size="10.00" fill="#000000">emit_class_field_init</text>
</a>
</g>
</g>
<!-- Node309108&#45;&gt;Node309109 -->
<g id="edge1" class="edge">
<title>Node309108&#45;&gt;Node309109</title>
<path fill="none" stroke="#191970" d="M52.5864,-336.755C65.1488,-328.7175 81.4388,-319.2178 97,-312.8828 151.3503,-290.7567 217.1407,-275.9828 262.1358,-267.5637"/>
<polygon fill="#191970" stroke="#191970" points="50.6023,-333.8707 44.1616,-342.283 54.4426,-339.7233 50.6023,-333.8707"/>
</g>
<!-- Node309110 -->
<g id="node3" class="node">
<title>Node309110</title>
<g id="a_node3"><a xlink:href="quickjs_8c.html#acdcc62310b4f6f73fa7bc7267b18b1d4" target="_top" xlink:title="js_parse_postfix_expr">
<polygon fill="none" stroke="#000000" points="412,-429.3828 412,-448.3828 524,-448.3828 524,-429.3828 412,-429.3828"/>
<text text-anchor="middle" x="468" y="-436.3828" font-family="Helvetica,sans-Serif" font-size="10.00" fill="#000000">js_parse_postfix_expr</text>
</a>
</g>
</g>
<!-- Node309108&#45;&gt;Node309110 -->
<g id="edge51" class="edge">
<title>Node309108&#45;&gt;Node309110</title>
<path fill="none" stroke="#191970" d="M38.8984,-370.7449C49.2501,-391.4255 68.9776,-423.5705 97,-437.8828 208.9981,-495.0853 365.9676,-465.6134 434.1598,-448.4044"/>
<polygon fill="#191970" stroke="#191970" points="42.0265,-369.173 34.5745,-361.6419 35.7036,-372.1764 42.0265,-369.173"/>
</g>
<!-- Node309112 -->
<g id="node5" class="node">
<title>Node309112</title>
<g id="a_node5"><a xlink:href="quickjs_8c.html#a9d844c16dcc71701436848074337d32c" target="_top" xlink:title="js_parse_statement\l_or_decl">
<polygon fill="none" stroke="#ff0000" points="987,-511.8828 987,-541.8828 1089,-541.8828 1089,-511.8828 987,-511.8828"/>
<text text-anchor="start" x="995" y="-529.8828" font-family="Helvetica,sans-Serif" font-size="10.00" fill="#000000">js_parse_statement</text>
<text text-anchor="middle" x="1038" y="-518.8828" font-family="Helvetica,sans-Serif" font-size="10.00" fill="#000000">_or_decl</text>
</a>
</g>
</g>
<!-- Node309108&#45;&gt;Node309112 -->
<g id="edge52" class="edge">
<title>Node309108&#45;&gt;Node309112</title>
<path fill="none" stroke="#191970" d="M31.585,-371.7806C35.5536,-436.8471 51.5052,-641.6625 97,-685.8828 167.4706,-754.3793 216.7255,-722.8828 315,-722.8828 315,-722.8828 315,-722.8828 772,-722.8828 893.8967,-722.8828 996.7077,-587.833 1028.1278,-541.9372"/>
<polygon fill="#191970" stroke="#191970" points="35.0699,-371.4172 30.9959,-361.637 28.0816,-371.8231 35.0699,-371.4172"/>
</g>
<!-- Node309131 -->
<g id="node6" class="node">
<title>Node309131</title>
<g id="a_node6"><a xlink:href="quickjs_8c.html#a26be546cf89c4580ba9020e8fc43a759" target="_top" xlink:title="js_parse_destructuring\l_element">
<polygon fill="none" stroke="#000000" points="560,-531.8828 560,-561.8828 675,-561.8828 675,-531.8828 560,-531.8828"/>
<text text-anchor="start" x="568" y="-549.8828" font-family="Helvetica,sans-Serif" font-size="10.00" fill="#000000">js_parse_destructuring</text>
<text text-anchor="middle" x="617.5" y="-538.8828" font-family="Helvetica,sans-Serif" font-size="10.00" fill="#000000">_element</text>
</a>
</g>
</g>
<!-- Node309108&#45;&gt;Node309131 -->
<g id="edge45" class="edge">
<title>Node309108&#45;&gt;Node309131</title>
<path fill="none" stroke="#191970" d="M32.4586,-371.749C37.0245,-406.5578 51.6997,-478.252 97,-513.8828 233.4669,-621.2205 457.5193,-586.2755 561.3871,-561.9736"/>
<polygon fill="#191970" stroke="#191970" points="35.8948,-370.9949 31.2681,-361.4637 28.9412,-371.7999 35.8948,-370.9949"/>
</g>
<!-- Node309114 -->
<g id="node8" class="node">
<title>Node309114</title>
<g id="a_node8"><a xlink:href="quickjs_8c.html#ac188b916dd086803591a67de7e7a85f6" target="_top" xlink:title="js_parse_for_in_of">
<polygon fill="none" stroke="#000000" points="724,-587.3828 724,-606.3828 820,-606.3828 820,-587.3828 724,-587.3828"/>
<text text-anchor="middle" x="772" y="-594.3828" font-family="Helvetica,sans-Serif" font-size="10.00" fill="#000000">js_parse_for_in_of</text>
</a>
</g>
</g>
<!-- Node309108&#45;&gt;Node309114 -->
<g id="edge46" class="edge">
<title>Node309108&#45;&gt;Node309114</title>
<path fill="none" stroke="#191970" d="M32.0512,-371.6568C37.2057,-432.0393 55.8225,-612.2649 97,-650.8828 168.5263,-717.9633 216.9398,-684.8828 315,-684.8828 315,-684.8828 315,-684.8828 468,-684.8828 561.7873,-684.8828 586.0737,-673.6849 675,-643.8828 704.4536,-634.012 736.4952,-617.1803 755.3842,-606.5654"/>
<polygon fill="#191970" stroke="#191970" points="35.5276,-371.2249 31.2199,-361.5453 28.5511,-371.7985 35.5276,-371.2249"/>
</g>
<!-- Node309117 -->
<g id="node9" class="node">
<title>Node309117</title>
<g id="a_node9"><a xlink:href="quickjs_8c.html#acc9eb677cab8dfcf45f59381f8a19601" target="_top" xlink:title="js_parse_function_decl2">
<polygon fill="none" stroke="#ff0000" points="711,-215.3828 711,-234.3828 833,-234.3828 833,-215.3828 711,-215.3828"/>
<text text-anchor="middle" x="772" y="-222.3828" font-family="Helvetica,sans-Serif" font-size="10.00" fill="#000000">js_parse_function_decl2</text>
</a>
</g>
</g>
<!-- Node309108&#45;&gt;Node309117 -->
<g id="edge47" class="edge">
<title>Node309108&#45;&gt;Node309117</title>
<path fill="none" stroke="#191970" d="M32.9401,-332.1084C39.9194,-279.0174 61.7574,-135.3785 97,-105.8828 171.5821,-43.4626 217.7438,-86.8828 315,-86.8828 315,-86.8828 315,-86.8828 468,-86.8828 564.0381,-86.8828 589.7177,-104.7213 675,-148.8828 710.5256,-167.279 745.9083,-199.3519 762.4008,-215.3048"/>
<polygon fill="#191970" stroke="#191970" points="29.4398,-331.8888 31.6444,-342.2518 36.3834,-332.7759 29.4398,-331.8888"/>
</g>
<!-- Node309146 -->
<g id="node11" class="node">
<title>Node309146</title>
<g id="a_node11"><a xlink:href="quickjs_8c.html#a38e4107378b0d9abd638e4fe13541678" target="_top" xlink:title="emit_class_init_start">
<polygon fill="none" stroke="#000000" points="564,-39.3828 564,-58.3828 671,-58.3828 671,-39.3828 564,-39.3828"/>
<text text-anchor="middle" x="617.5" y="-46.3828" font-family="Helvetica,sans-Serif" font-size="10.00" fill="#000000">emit_class_init_start</text>
</a>
</g>
</g>
<!-- Node309108&#45;&gt;Node309146 -->
<g id="edge22" class="edge">
<title>Node309108&#45;&gt;Node309146</title>
<path fill="none" stroke="#191970" d="M32.1956,-332.1047C37.6084,-274.0949 56.5444,-106.3706 97,-72.8828 243.6852,48.5382 501.0628,-13.4945 587.9189,-39.3809"/>
<polygon fill="#191970" stroke="#191970" points="28.7001,-331.8984 31.2909,-342.1715 35.672,-332.5249 28.7001,-331.8984"/>
</g>
<!-- Node309148 -->
<g id="node13" class="node">
<title>Node309148</title>
<g id="a_node13"><a xlink:href="quickjs_8c.html#acea69d5aa6481a035d0833b8bce455f5" target="_top" xlink:title="emit_return">
<polygon fill="none" stroke="#000000" points="125,-115.3828 125,-134.3828 190,-134.3828 190,-115.3828 125,-115.3828"/>
<text text-anchor="middle" x="157.5" y="-122.3828" font-family="Helvetica,sans-Serif" font-size="10.00" fill="#000000">emit_return</text>
</a>
</g>
</g>
<!-- Node309108&#45;&gt;Node309148 -->
<g id="edge26" class="edge">
<title>Node309108&#45;&gt;Node309148</title>
<path fill="none" stroke="#191970" d="M31.5782,-331.8877C34.7768,-291.9461 47.4006,-201.6084 97,-148.8828 104.4327,-140.9817 114.7987,-135.6314 124.8528,-132.0299"/>
<polygon fill="#191970" stroke="#191970" points="28.0805,-331.7363 30.8915,-341.9514 35.0643,-332.2129 28.0805,-331.7363"/>
</g>
<!-- Node309139 -->
<g id="node14" class="node">
<title>Node309139</title>
<g id="a_node14"><a xlink:href="quickjs_8c.html#a4fa2fc1719feb03edf64eaf034103fd2" target="_top" xlink:title="js_parse_assign_expr">
<polygon fill="none" stroke="#ff0000" points="259.5,-287.3828 259.5,-306.3828 370.5,-306.3828 370.5,-287.3828 259.5,-287.3828"/>
<text text-anchor="middle" x="315" y="-294.3828" font-family="Helvetica,sans-Serif" font-size="10.00" fill="#000000">js_parse_assign_expr</text>
</a>
</g>
</g>
<!-- Node309108&#45;&gt;Node309139 -->
<g id="edge41" class="edge">
<title>Node309108&#45;&gt;Node309139</title>
<path fill="none" stroke="#191970" d="M71.273,-344.0005C122.5692,-334.0839 210.5916,-317.0672 265.6384,-306.4255"/>
<polygon fill="#191970" stroke="#191970" points="70.3707,-340.6101 61.2168,-345.9446 71.6994,-347.4828 70.3707,-340.6101"/>
</g>
<!-- Node309138 -->
<g id="node15" class="node">
<title>Node309138</title>
<g id="a_node15"><a xlink:href="quickjs_8c.html#abd2cbff624ea609dbf883fb1a2f048cd" target="_top" xlink:title="js_parse_cond_expr">
<polygon fill="none" stroke="#000000" points="416,-153.3828 416,-172.3828 520,-172.3828 520,-153.3828 416,-153.3828"/>
<text text-anchor="middle" x="468" y="-160.3828" font-family="Helvetica,sans-Serif" font-size="10.00" fill="#000000">js_parse_cond_expr</text>
</a>
</g>
</g>
<!-- Node309108&#45;&gt;Node309138 -->
<g id="edge44" class="edge">
<title>Node309108&#45;&gt;Node309138</title>
<path fill="none" stroke="#191970" d="M41.7762,-333.296C53.4706,-315.5444 73.3424,-289.2812 97,-273.8828 144.0239,-243.2756 164.2405,-253.944 218,-237.8828 296.3687,-214.4694 388.5091,-186.7874 436.0411,-172.4959"/>
<polygon fill="#191970" stroke="#191970" points="38.5541,-331.8411 36.1485,-342.1592 44.4635,-335.5933 38.5541,-331.8411"/>
</g>
<!-- Node309149 -->
<g id="node16" class="node">
<title>Node309149</title>
<g id="a_node16"><a xlink:href="quickjs_8c.html#a98ab69061f85c400e0eed2c0eb47f49b" target="_top" xlink:title="js_emit_spread_code">
<polygon fill="none" stroke="#000000" points="260.5,-509.3828 260.5,-528.3828 369.5,-528.3828 369.5,-509.3828 260.5,-509.3828"/>
<text text-anchor="middle" x="315" y="-516.3828" font-family="Helvetica,sans-Serif" font-size="10.00" fill="#000000">js_emit_spread_code</text>
</a>
</g>
</g>
<!-- Node309108&#45;&gt;Node309149 -->
<g id="edge39" class="edge">
<title>Node309108&#45;&gt;Node309149</title>
<path fill="none" stroke="#191970" d="M34.8186,-371.6695C42.228,-400.5875 60.2538,-453.8818 97,-480.8828 144.2121,-515.5742 212.5354,-522.4188 260.064,-522.2828"/>
<polygon fill="#191970" stroke="#191970" points="38.1326,-370.4772 32.4103,-361.5606 31.3232,-372.0995 38.1326,-370.4772"/>
</g>
<!-- Node309137 -->
<g id="node17" class="node">
<title>Node309137</title>
<g id="a_node17"><a xlink:href="quickjs_8c.html#a2a6a8f6738ae03f046617522b9781245" target="_top" xlink:title="js_parse_coalesce_expr">
<polygon fill="none" stroke="#000000" points="254,-153.3828 254,-172.3828 376,-172.3828 376,-153.3828 254,-153.3828"/>
<text text-anchor="middle" x="315" y="-160.3828" font-family="Helvetica,sans-Serif" font-size="10.00" fill="#000000">js_parse_coalesce_expr</text>
</a>
</g>
</g>
<!-- Node309108&#45;&gt;Node309137 -->
<g id="edge42" class="edge">
<title>Node309108&#45;&gt;Node309137</title>
<path fill="none" stroke="#191970" d="M31.7947,-331.7542C35.331,-295.1698 48.4609,-218.2058 97,-181.8828 145.211,-145.8054 217.2902,-147.1186 265.2012,-153.3521"/>
<polygon fill="#191970" stroke="#191970" points="28.2746,-331.8594 30.9509,-342.1107 35.2515,-332.4279 28.2746,-331.8594"/>
</g>
<!-- Node309136 -->
<g id="node18" class="node">
<title>Node309136</title>
<g id="a_node18"><a xlink:href="quickjs_8c.html#a2af8c0e05d949d0ae23d94c8e73e5494" target="_top" xlink:title="js_parse_logical_and_or">
<polygon fill="none" stroke="#000000" points="97,-191.3828 97,-210.3828 218,-210.3828 218,-191.3828 97,-191.3828"/>
<text text-anchor="middle" x="157.5" y="-198.3828" font-family="Helvetica,sans-Serif" font-size="10.00" fill="#000000">js_parse_logical_and_or</text>
</a>
</g>
</g>
<!-- Node309108&#45;&gt;Node309136 -->
<g id="edge48" class="edge">
<title>Node309108&#45;&gt;Node309136</title>
<path fill="none" stroke="#191970" d="M39.0577,-332.8687C50.1027,-309.758 71.0238,-270.4394 97,-242.8828 109.542,-229.5778 126.9498,-218.0319 139.874,-210.4313"/>
<polygon fill="#191970" stroke="#191970" points="35.7399,-331.703 34.6953,-342.2462 42.0867,-334.6556 35.7399,-331.703"/>
</g>
<!-- Node309150 -->
<g id="node19" class="node">
<title>Node309150</title>
<g id="a_node19"><a xlink:href="quickjs_8c.html#a964237617fb99ed93ebe4abda62d6c84" target="_top" xlink:title="optional_chain_test">
<polygon fill="none" stroke="#000000" points="107,-409.3828 107,-428.3828 208,-428.3828 208,-409.3828 107,-409.3828"/>
<text text-anchor="middle" x="157.5" y="-416.3828" font-family="Helvetica,sans-Serif" font-size="10.00" fill="#000000">optional_chain_test</text>
</a>
</g>
</g>
<!-- Node309108&#45;&gt;Node309150 -->
<g id="edge53" class="edge">
<title>Node309108&#45;&gt;Node309150</title>
<path fill="none" stroke="#191970" d="M55.2947,-366.617C67.701,-373.844 83.0183,-382.5493 97,-389.8828 109.9969,-396.6999 124.856,-403.8316 136.5958,-409.3168"/>
<polygon fill="#191970" stroke="#191970" points="56.8416,-363.4667 46.4452,-361.4258 53.2998,-369.5046 56.8416,-363.4667"/>
</g>
<!-- Node309151 -->
<g id="node20" class="node">
<title>Node309151</title>
<g id="a_node20"><a xlink:href="quickjs_8c.html#ab4795d29c6811027d6efbcf1ca715b1e" target="_top" xlink:title="put_lvalue">
<polygon fill="none" stroke="#000000" points="127,-361.3828 127,-380.3828 188,-380.3828 188,-361.3828 127,-361.3828"/>
<text text-anchor="middle" x="157.5" y="-368.3828" font-family="Helvetica,sans-Serif" font-size="10.00" fill="#000000">put_lvalue</text>
</a>
</g>
</g>
<!-- Node309108&#45;&gt;Node309151 -->
<g id="edge55" class="edge">
<title>Node309108&#45;&gt;Node309151</title>
<path fill="none" stroke="#191970" d="M71.1696,-357.9673C89.1413,-360.6559 109.9275,-363.7657 126.5998,-366.26"/>
<polygon fill="#191970" stroke="#191970" points="71.651,-354.5004 61.2432,-356.4822 70.6152,-361.4234 71.651,-354.5004"/>
</g>
<!-- Node309152 -->
<g id="node21" class="node">
<title>Node309152</title>
<g id="a_node21"><a xlink:href="quickjs_8c.html#a71a59a62d53344c84d529a0f8b9d8597" target="_top" xlink:title="put_lvalue_nokeep">
<polygon fill="none" stroke="#000000" points="419,-637.3828 419,-656.3828 517,-656.3828 517,-637.3828 419,-637.3828"/>
<text text-anchor="middle" x="468" y="-644.3828" font-family="Helvetica,sans-Serif" font-size="10.00" fill="#000000">put_lvalue_nokeep</text>
</a>
</g>
</g>
<!-- Node309108&#45;&gt;Node309152 -->
<g id="edge59" class="edge">
<title>Node309108&#45;&gt;Node309152</title>
<path fill="none" stroke="#191970" d="M32.3905,-371.7993C38.2334,-428.7372 58.0038,-590.2109 97,-622.8828 144.4959,-662.676 329.4355,-656.2794 418.9367,-650.594"/>
<polygon fill="#191970" stroke="#191970" points="35.8486,-371.2022 31.3795,-361.5961 28.8827,-371.8925 35.8486,-371.2022"/>
</g>
<!-- Node309109&#45;&gt;Node309110 -->
<g id="edge2" class="edge">
<title>Node309109&#45;&gt;Node309110</title>
<path fill="none" stroke="#191970" d="M368.7227,-272.9181C371.2844,-274.4099 373.7301,-276.0592 376,-277.8828 428.7038,-320.2242 456.8484,-401.4382 465.2612,-429.2574"/>
<polygon fill="#191970" stroke="#191970" points="370.1684,-269.7285 359.6535,-268.4297 367.0634,-276.0022 370.1684,-269.7285"/>
</g>
<!-- Node309109&#45;&gt;Node309117 -->
<g id="edge21" class="edge">
<title>Node309109&#45;&gt;Node309117</title>
<path fill="none" stroke="#191970" d="M348.6891,-245.7185C371.4813,-237.0755 399.6087,-226.9916 412,-224.8828 515.8198,-207.2146 638.9339,-212.8049 710.9651,-218.6905"/>
<polygon fill="#191970" stroke="#191970" points="347.3984,-242.4649 339.3091,-249.3071 349.8996,-249.0028 347.3984,-242.4649"/>
</g>
<!-- Node309110&#45;&gt;Node309110 -->
<g id="edge17" class="edge">
<title>Node309110&#45;&gt;Node309110</title>
<path fill="none" stroke="#191970" d="M440.3742,-457.5368C441.5289,-462.8196 450.7375,-466.8828 468,-466.8828 494.3047,-466.8828 501.9084,-457.4481 490.8111,-448.6399"/>
<polygon fill="#191970" stroke="#191970" points="443.5076,-459.1005 445.1889,-448.6399 437.3512,-455.7688 443.5076,-459.1005"/>
</g>
<!-- Node309111 -->
<g id="node4" class="node">
<title>Node309111</title>
<g id="a_node4"><a xlink:href="quickjs_8c.html#a00eb789430243c24dab4a63ad6a79653" target="_top" xlink:title="js_parse_class">
<polygon fill="none" stroke="#ff0000" points="869,-267.3828 869,-286.3828 951,-286.3828 951,-267.3828 869,-267.3828"/>
<text text-anchor="middle" x="910" y="-274.3828" font-family="Helvetica,sans-Serif" font-size="10.00" fill="#000000">js_parse_class</text>
</a>
</g>
</g>
<!-- Node309110&#45;&gt;Node309111 -->
<g id="edge3" class="edge">
<title>Node309110&#45;&gt;Node309111</title>
<path fill="none" stroke="#191970" d="M534.5576,-436.1428C575.9336,-435.9492 629.6916,-433.5017 675,-418.8828 767.3044,-389.1007 858.8158,-313.6901 894.4351,-286.4146"/>
<polygon fill="#191970" stroke="#191970" points="534.3154,-432.6428 524.3178,-436.1494 534.3201,-439.6428 534.3154,-432.6428"/>
</g>
<!-- Node309110&#45;&gt;Node309131 -->
<g id="edge7" class="edge">
<title>Node309110&#45;&gt;Node309131</title>
<path fill="none" stroke="#191970" d="M502.1444,-454.5046C509.5078,-459.8738 517.1373,-465.9308 524,-471.8828 541.094,-486.7084 541.7584,-494.4946 560,-507.8828 572.4358,-517.0099 588.0289,-524.96 599.8386,-531.7582"/>
<polygon fill="#191970" stroke="#191970" points="503.8799,-451.4467 493.6845,-448.5651 499.8577,-457.1757 503.8799,-451.4467"/>
</g>
<!-- Node309110&#45;&gt;Node309114 -->
<g id="edge20" class="edge">
<title>Node309110&#45;&gt;Node309114</title>
<path fill="none" stroke="#191970" d="M498.7701,-452.6705C516.5753,-460.5458 539.4577,-470.4922 560,-478.8828 610.6613,-499.5758 627.2011,-496.2363 675,-522.8828 709.2263,-541.963 744.6414,-572.1115 761.6531,-587.3669"/>
<polygon fill="#191970" stroke="#191970" points="500.0077,-449.3906 489.4478,-448.5314 497.1671,-455.7883 500.0077,-449.3906"/>
</g>
<!-- Node309133 -->
<g id="node10" class="node">
<title>Node309133</title>
<g id="a_node10"><a xlink:href="quickjs_8c.html#af99673e7430294cf15dc24dc5dac227f" target="_top" xlink:title="js_parse_unary">
<polygon fill="none" stroke="#ff0000" points="576,-381.3828 576,-400.3828 659,-400.3828 659,-381.3828 576,-381.3828"/>
<text text-anchor="middle" x="617.5" y="-388.3828" font-family="Helvetica,sans-Serif" font-size="10.00" fill="#000000">js_parse_unary</text>
</a>
</g>
</g>
<!-- Node309110&#45;&gt;Node309133 -->
<g id="edge18" class="edge">
<title>Node309110&#45;&gt;Node309133</title>
<path fill="none" stroke="#191970" d="M507.4999,-426.2006C532.6293,-418.1323 564.6522,-407.8507 587.6576,-400.4643"/>
<polygon fill="#191970" stroke="#191970" points="506.3456,-422.8952 497.8942,-429.2847 508.4855,-429.5601 506.3456,-422.8952"/>
</g>
<!-- Node309111&#45;&gt;Node309110 -->
<g id="edge4" class="edge">
<title>Node309111&#45;&gt;Node309110</title>
<path fill="none" stroke="#191970" d="M895.8706,-294.377C861.3286,-329.6106 768.5717,-406.6918 675,-436.8828 615.7482,-456.0005 542.0461,-454.3029 500.4833,-448.415"/>
<polygon fill="#191970" stroke="#191970" points="898.7329,-296.4418 903.0261,-286.7557 893.6297,-291.6504 898.7329,-296.4418"/>
</g>
<!-- Node309111&#45;&gt;Node309112 -->
<g id="edge5" class="edge">
<title>Node309111&#45;&gt;Node309112</title>
<path fill="none" stroke="#191970" d="M919.5915,-295.6163C943.9824,-343.2547 1008.0141,-468.3167 1030.2556,-511.757"/>
<polygon fill="#191970" stroke="#191970" points="922.6906,-293.9892 915.0178,-286.6831 916.4598,-297.1794 922.6906,-293.9892"/>
</g>
<!-- Node309112&#45;&gt;Node309112 -->
<g id="edge6" class="edge">
<title>Node309112&#45;&gt;Node309112</title>
<path fill="none" stroke="#191970" d="M1015.2559,-552.3407C1018.0788,-557.0618 1025.6602,-560.3828 1038,-560.3828 1058.25,-560.3828 1065.6855,-551.4394 1060.3066,-542.0418"/>
<polygon fill="#191970" stroke="#191970" points="1018.7658,-552.1814 1015.6934,-542.0418 1011.7721,-551.8843 1018.7658,-552.1814"/>
</g>
<!-- Node309131&#45;&gt;Node309110 -->
<g id="edge9" class="edge">
<title>Node309131&#45;&gt;Node309110</title>
<path fill="none" stroke="#191970" d="M560.5295,-526.2694C560.3524,-526.1408 560.1759,-526.0119 560,-525.8828 541.7584,-512.4946 541.094,-504.7084 524,-489.8828 506.74,-474.9133 484.6294,-459.2794 474.101,-448.4656"/>
<polygon fill="#191970" stroke="#191970" points="558.5959,-529.1868 568.8464,-531.8661 562.504,-523.3794 558.5959,-529.1868"/>
</g>
<!-- Node309131&#45;&gt;Node309112 -->
<g id="edge14" class="edge">
<title>Node309131&#45;&gt;Node309112</title>
<path fill="none" stroke="#191970" d="M685.3069,-543.6578C769.4509,-539.6557 911.0524,-532.9208 986.7055,-529.3225"/>
<polygon fill="#191970" stroke="#191970" points="684.9094,-540.1726 675.087,-544.1439 685.2421,-547.1647 684.9094,-540.1726"/>
</g>
<!-- Node309131&#45;&gt;Node309131 -->
<g id="edge8" class="edge">
<title>Node309131&#45;&gt;Node309131</title>
<path fill="none" stroke="#191970" d="M591.2022,-572.3407C594.4661,-577.0618 603.2321,-580.3828 617.5,-580.3828 640.9141,-580.3828 649.5114,-571.4394 643.2921,-562.0418"/>
<polygon fill="#191970" stroke="#191970" points="594.7132,-572.2015 591.7079,-562.0418 587.7216,-571.8581 594.7132,-572.2015"/>
</g>
<!-- Node309132 -->
<g id="node7" class="node">
<title>Node309132</title>
<g id="a_node7"><a xlink:href="quickjs_8c.html#a42924858317b848c3aea0a0a978fab3a" target="_top" xlink:title="js_parse_var">
<polygon fill="none" stroke="#ff0000" points="736,-496.3828 736,-515.3828 808,-515.3828 808,-496.3828 736,-496.3828"/>
<text text-anchor="middle" x="772" y="-503.3828" font-family="Helvetica,sans-Serif" font-size="10.00" fill="#000000">js_parse_var</text>
</a>
</g>
</g>
<!-- Node309131&#45;&gt;Node309132 -->
<g id="edge10" class="edge">
<title>Node309131&#45;&gt;Node309132</title>
<path fill="none" stroke="#191970" d="M683.972,-529.243C701.8367,-524.5022 720.4857,-519.5533 735.996,-515.4373"/>
<polygon fill="#191970" stroke="#191970" points="682.9205,-525.9008 674.1528,-531.8488 684.716,-532.6666 682.9205,-525.9008"/>
</g>
<!-- Node309131&#45;&gt;Node309114 -->
<g id="edge12" class="edge">
<title>Node309131&#45;&gt;Node309114</title>
<path fill="none" stroke="#191970" d="M673.6113,-565.0418C696.8337,-572.5572 722.8171,-580.966 742.248,-587.2544"/>
<polygon fill="#191970" stroke="#191970" points="674.447,-561.6336 663.8551,-561.8845 672.2916,-568.2935 674.447,-561.6336"/>
</g>
<!-- Node309131&#45;&gt;Node309117 -->
<g id="edge15" class="edge">
<title>Node309131&#45;&gt;Node309117</title>
<path fill="none" stroke="#191970" d="M629.1863,-522.7759C640.8259,-498.7466 659.191,-460.7832 675,-427.8828 710.6948,-353.5975 753.4446,-263.8616 767.3709,-234.6091"/>
<polygon fill="#191970" stroke="#191970" points="625.9932,-521.3393 624.7825,-531.8647 632.2927,-524.3916 625.9932,-521.3393"/>
</g>
<!-- Node309132&#45;&gt;Node309112 -->
<g id="edge11" class="edge">
<title>Node309132&#45;&gt;Node309112</title>
<path fill="none" stroke="#191970" d="M818.3718,-509.5438C865.4534,-513.2607 938.1708,-519.0016 986.889,-522.8478"/>
<polygon fill="#191970" stroke="#191970" points="818.3952,-506.0348 808.1508,-508.7368 817.8443,-513.0131 818.3952,-506.0348"/>
</g>
<!-- Node309114&#45;&gt;Node309112 -->
<g id="edge13" class="edge">
<title>Node309114&#45;&gt;Node309112</title>
<path fill="none" stroke="#191970" d="M830.4922,-587.2161C865.7426,-580.7929 911.3434,-571.4233 951,-559.8828 968.0619,-554.9177 986.5241,-548.1266 1002.0332,-541.9955"/>
<polygon fill="#191970" stroke="#191970" points="829.5964,-583.8208 820.3714,-589.0314 830.8323,-590.7109 829.5964,-583.8208"/>
</g>
<!-- Node309117&#45;&gt;Node309111 -->
<g id="edge16" class="edge">
<title>Node309117&#45;&gt;Node309111</title>
<path fill="none" stroke="#191970" d="M806.8155,-238.0017C830.9468,-247.0947 862.5422,-259.0002 884.3818,-267.2296"/>
<polygon fill="#191970" stroke="#191970" points="807.9032,-234.6714 797.3113,-234.4204 805.4349,-241.2218 807.9032,-234.6714"/>
</g>
<!-- Node309133&#45;&gt;Node309133 -->
<g id="edge19" class="edge">
<title>Node309133&#45;&gt;Node309133</title>
<path fill="none" stroke="#191970" d="M589.8742,-409.5368C591.0289,-414.8196 600.2375,-418.8828 617.5,-418.8828 643.8047,-418.8828 651.4084,-409.4481 640.3111,-400.6399"/>
<polygon fill="#191970" stroke="#191970" points="593.0076,-411.1005 594.6889,-400.6399 586.8512,-407.7688 593.0076,-411.1005"/>
</g>
<!-- Node309146&#45;&gt;Node309111 -->
<g id="edge25" class="edge">
<title>Node309146&#45;&gt;Node309111</title>
<path fill="none" stroke="#191970" d="M654.595,-62.4056C661.5642,-65.4881 668.6504,-69.0112 675,-72.8828 773.7137,-133.0729 871.6064,-235.1862 901.0705,-267.072"/>
<polygon fill="#191970" stroke="#191970" points="655.8198,-59.124 645.2443,-58.484 653.1124,-65.5793 655.8198,-59.124"/>
</g>
<!-- Node309147 -->
<g id="node12" class="node">
<title>Node309147</title>
<g id="a_node12"><a xlink:href="quickjs_8c.html#ac9030f2b94f2e8292ad37ab68fc99bbd" target="_top" xlink:title="add_brand">
<polygon fill="none" stroke="#000000" points="741,-54.3828 741,-73.3828 803,-73.3828 803,-54.3828 741,-54.3828"/>
<text text-anchor="middle" x="772" y="-61.3828" font-family="Helvetica,sans-Serif" font-size="10.00" fill="#000000">add_brand</text>
</a>
</g>
</g>
<!-- Node309146&#45;&gt;Node309147 -->
<g id="edge23" class="edge">
<title>Node309146&#45;&gt;Node309147</title>
<path fill="none" stroke="#191970" d="M681.3234,-55.0793C701.7633,-57.0637 723.497,-59.1738 740.5615,-60.8305"/>
<polygon fill="#191970" stroke="#191970" points="681.3945,-51.5698 671.103,-54.087 680.718,-58.537 681.3945,-51.5698"/>
</g>
<!-- Node309147&#45;&gt;Node309111 -->
<g id="edge24" class="edge">
<title>Node309147&#45;&gt;Node309111</title>
<path fill="none" stroke="#191970" d="M786.2951,-81.5984C799.0721,-97.7212 818.0322,-122.3712 833,-144.8828 862.5258,-189.2897 893.1551,-245.338 904.9533,-267.3715"/>
<polygon fill="#191970" stroke="#191970" points="788.8723,-79.2169 779.8974,-73.5864 783.4022,-83.5847 788.8723,-79.2169"/>
</g>
<!-- Node309148&#45;&gt;Node309112 -->
<g id="edge37" class="edge">
<title>Node309148&#45;&gt;Node309112</title>
<path fill="none" stroke="#191970" d="M180.7701,-109.8644C231.0424,-78.9095 354.4399,-10.8828 468,-10.8828 468,-10.8828 468,-10.8828 772,-10.8828 1003.5558,-10.8828 1033.733,-426.4879 1037.4871,-511.7194"/>
<polygon fill="#191970" stroke="#191970" points="178.6062,-107.0895 171.9835,-115.3593 182.3179,-113.0245 178.6062,-107.0895"/>
</g>
<!-- Node309148&#45;&gt;Node309117 -->
<g id="edge38" class="edge">
<title>Node309148&#45;&gt;Node309117</title>
<path fill="none" stroke="#191970" d="M200.2214,-123.4757C269.0353,-122.0164 408.4095,-122.4016 524,-143.8828 609.723,-159.8135 706.7542,-197.586 749.6164,-215.3446"/>
<polygon fill="#191970" stroke="#191970" points="200.109,-119.9772 190.1944,-123.7124 200.2742,-126.9753 200.109,-119.9772"/>
</g>
<!-- Node309148&#45;&gt;Node309139 -->
<g id="edge27" class="edge">
<title>Node309148&#45;&gt;Node309139</title>
<path fill="none" stroke="#191970" d="M178.6483,-140.6723C191.4817,-151.1658 207.3788,-165.9154 218,-181.8828 243.2376,-219.8237 220.8763,-246.5897 254,-277.8828 258.1121,-281.7677 263.0068,-284.8587 268.209,-287.3181"/>
<polygon fill="#191970" stroke="#191970" points="180.7584,-137.8788 170.7436,-134.4212 176.4164,-143.3694 180.7584,-137.8788"/>
</g>
<!-- Node309139&#45;&gt;Node309110 -->
<g id="edge30" class="edge">
<title>Node309139&#45;&gt;Node309110</title>
<path fill="none" stroke="#191970" d="M332.8997,-313.4956C365.0355,-343.321 431.5656,-405.0679 457.4101,-429.0543"/>
<polygon fill="#191970" stroke="#191970" points="335.2269,-310.8804 325.5163,-306.6431 330.465,-316.0112 335.2269,-310.8804"/>
</g>
<!-- Node309139&#45;&gt;Node309111 -->
<g id="edge28" class="edge">
<title>Node309139&#45;&gt;Node309111</title>
<path fill="none" stroke="#191970" d="M380.7812,-294.6717C504.216,-290.5226 767.2479,-281.6812 868.8026,-278.2676"/>
<polygon fill="#191970" stroke="#191970" points="380.5855,-291.1762 370.7087,-295.0103 380.8207,-298.1723 380.5855,-291.1762"/>
</g>
<!-- Node309139&#45;&gt;Node309131 -->
<g id="edge29" class="edge">
<title>Node309139&#45;&gt;Node309131</title>
<path fill="none" stroke="#191970" d="M320.4305,-316.5494C331.5225,-353.1443 360.211,-431.9573 412,-475.8828 434.7054,-495.1407 507.4598,-517.6246 559.9601,-532.0462"/>
<polygon fill="#191970" stroke="#191970" points="323.7,-315.2581 317.5469,-306.6331 316.9784,-317.2127 323.7,-315.2581"/>
</g>
<!-- Node309139&#45;&gt;Node309132 -->
<g id="edge34" class="edge">
<title>Node309139&#45;&gt;Node309132</title>
<path fill="none" stroke="#191970" d="M380.9144,-297.629C471.3363,-299.8078 628.0052,-308.0689 675,-338.8828 734.4428,-377.8588 761.9552,-466.8079 769.6566,-496.2328"/>
<polygon fill="#191970" stroke="#191970" points="380.8406,-294.1266 370.7652,-297.4033 380.6849,-301.1249 380.8406,-294.1266"/>
</g>
<!-- Node309139&#45;&gt;Node309114 -->
<g id="edge35" class="edge">
<title>Node309139&#45;&gt;Node309114</title>
<path fill="none" stroke="#191970" d="M319.2831,-316.5505C329.0985,-357.5341 356.7457,-453.1383 412,-511.8828 462.9425,-566.0433 488.1265,-570.8383 560,-589.8828 614.8196,-604.4086 680.4024,-603.9912 723.9609,-601.3526"/>
<polygon fill="#191970" stroke="#191970" points="322.6762,-315.688 317.0256,-306.7258 315.854,-317.2557 322.6762,-315.688"/>
</g>
<!-- Node309139&#45;&gt;Node309117 -->
<g id="edge36" class="edge">
<title>Node309139&#45;&gt;Node309117</title>
<path fill="none" stroke="#191970" d="M357.2553,-284.2815C363.5704,-282.2365 369.9791,-280.0695 376,-277.8828 392.2921,-271.9658 395.2054,-267.1708 412,-262.8828 514.7583,-236.6467 638.4706,-228.4875 710.8618,-225.9735"/>
<polygon fill="#191970" stroke="#191970" points="355.9534,-281.0224 347.4778,-287.3797 358.068,-287.6954 355.9534,-281.0224"/>
</g>
<!-- Node309139&#45;&gt;Node309139 -->
<g id="edge33" class="edge">
<title>Node309139&#45;&gt;Node309139</title>
<path fill="none" stroke="#191970" d="M286.6275,-315.5368C287.8135,-320.8196 297.271,-324.8828 315,-324.8828 342.0156,-324.8828 349.8248,-315.4481 338.4276,-306.6399"/>
<polygon fill="#191970" stroke="#191970" points="289.7735,-317.0809 291.5724,-306.6399 283.6551,-313.6803 289.7735,-317.0809"/>
</g>
<!-- Node309139&#45;&gt;Node309138 -->
<g id="edge31" class="edge">
<title>Node309139&#45;&gt;Node309138</title>
<path fill="none" stroke="#191970" d="M342.0171,-284.2946C353.3247,-280.7636 366.1086,-276.2173 376,-268.8828 398.8734,-251.922 394.4148,-238.2798 412,-215.8828 424.3611,-200.1394 439.6684,-183.3529 451.1534,-172.6325"/>
<polygon fill="#191970" stroke="#191970" points="340.7135,-281.0331 332.1729,-287.3028 342.7592,-287.7275 340.7135,-281.0331"/>
</g>
<!-- Node309138&#45;&gt;Node309139 -->
<g id="edge32" class="edge">
<title>Node309138&#45;&gt;Node309139</title>
<path fill="none" stroke="#191970" d="M456.8308,-180.9823C445.1534,-195.4057 426.5389,-215.3658 412,-233.8828 394.4148,-256.2798 398.8734,-269.922 376,-286.8828 374.3071,-288.1381 372.5295,-289.3117 370.6891,-290.4052"/>
<polygon fill="#191970" stroke="#191970" points="459.8098,-182.8485 463.1066,-172.7797 454.2504,-178.595 459.8098,-182.8485"/>
</g>
<!-- Node309149&#45;&gt;Node309131 -->
<g id="edge40" class="edge">
<title>Node309149&#45;&gt;Node309131</title>
<path fill="none" stroke="#191970" d="M379.8318,-524.8838C433.277,-529.8308 508.3873,-536.7831 559.7806,-541.5402"/>
<polygon fill="#191970" stroke="#191970" points="380.0605,-521.3901 369.7805,-523.9534 379.4153,-528.3603 380.0605,-521.3901"/>
</g>
<!-- Node309137&#45;&gt;Node309138 -->
<g id="edge43" class="edge">
<title>Node309137&#45;&gt;Node309138</title>
<path fill="none" stroke="#191970" d="M386.6047,-162.8828C396.5107,-162.8828 406.5266,-162.8828 415.9844,-162.8828"/>
<polygon fill="#191970" stroke="#191970" points="386.3494,-159.3829 376.3494,-162.8828 386.3493,-166.3829 386.3494,-159.3829"/>
</g>
<!-- Node309136&#45;&gt;Node309137 -->
<g id="edge50" class="edge">
<title>Node309136&#45;&gt;Node309137</title>
<path fill="none" stroke="#191970" d="M207.1041,-188.9148C229.1753,-183.5897 254.8027,-177.4066 275.5419,-172.4029"/>
<polygon fill="#191970" stroke="#191970" points="206.1441,-185.546 197.2439,-191.2938 207.7859,-192.3507 206.1441,-185.546"/>
</g>
<!-- Node309136&#45;&gt;Node309136 -->
<g id="edge49" class="edge">
<title>Node309136&#45;&gt;Node309136</title>
<path fill="none" stroke="#191970" d="M134.0626,-219.912C135.341,-225.0108 143.1535,-228.8828 157.5,-228.8828 179.8945,-228.8828 186.368,-219.4481 176.9203,-210.6399"/>
<polygon fill="#191970" stroke="#191970" points="137.3158,-221.2072 138.0797,-210.6399 130.8927,-218.4243 137.3158,-221.2072"/>
</g>
<!-- Node309150&#45;&gt;Node309110 -->
<g id="edge54" class="edge">
<title>Node309150&#45;&gt;Node309110</title>
<path fill="none" stroke="#191970" d="M218.2468,-422.7957C274.4353,-426.4149 357.2811,-431.7512 411.9274,-435.2711"/>
<polygon fill="#191970" stroke="#191970" points="218.2826,-419.2908 208.0782,-422.1407 217.8326,-426.2763 218.2826,-419.2908"/>
</g>
<!-- Node309151&#45;&gt;Node309132 -->
<g id="edge58" class="edge">
<title>Node309151&#45;&gt;Node309132</title>
<path fill="none" stroke="#191970" d="M198.2371,-366.2994C305.3428,-354.9759 592.2798,-329.543 675,-371.8828 727.9199,-398.9695 758.6793,-469.8643 768.5156,-496.0114"/>
<polygon fill="#191970" stroke="#191970" points="197.7197,-362.8347 188.1497,-367.3806 198.4658,-369.7948 197.7197,-362.8347"/>
</g>
<!-- Node309151&#45;&gt;Node309133 -->
<g id="edge56" class="edge">
<title>Node309151&#45;&gt;Node309133</title>
<path fill="none" stroke="#191970" d="M198.2927,-372.6564C285.2067,-376.4353 487.8556,-385.2461 575.6764,-389.0644"/>
<polygon fill="#191970" stroke="#191970" points="198.1808,-369.1483 188.0381,-372.2106 197.8766,-376.1417 198.1808,-369.1483"/>
</g>
<!-- Node309151&#45;&gt;Node309139 -->
<g id="edge57" class="edge">
<title>Node309151&#45;&gt;Node309139</title>
<path fill="none" stroke="#191970" d="M192.8269,-357.5448C201.1492,-354.2168 209.9415,-350.5474 218,-346.8828 246.4565,-333.9422 278.5266,-316.9118 297.7307,-306.4394"/>
<polygon fill="#191970" stroke="#191970" points="191.3703,-354.3566 183.3453,-361.274 193.9325,-360.8709 191.3703,-354.3566"/>
</g>
<!-- Node309152&#45;&gt;Node309131 -->
<g id="edge60" class="edge">
<title>Node309152&#45;&gt;Node309131</title>
<path fill="none" stroke="#191970" d="M503.6567,-633.3674C510.58,-630.2557 517.6522,-626.7199 524,-622.8828 553.5386,-605.0274 583.8419,-578.6168 601.6532,-562.0967"/>
<polygon fill="#191970" stroke="#191970" points="502.2045,-630.1818 494.39,-637.3361 504.9604,-636.6165 502.2045,-630.1818"/>
</g>
<!-- Node309152&#45;&gt;Node309114 -->
<g id="edge61" class="edge">
<title>Node309152&#45;&gt;Node309114</title>
<path fill="none" stroke="#191970" d="M527.2058,-642.3385C568.7932,-638.5821 625.5917,-632.3162 675,-622.8828 697.263,-618.6322 721.9289,-611.9939 740.8162,-606.4891"/>
<polygon fill="#191970" stroke="#191970" points="526.8957,-638.8522 517.2417,-643.2169 527.5105,-645.8252 526.8957,-638.8522"/>
</g>
</g>
</svg>
