<?xml version="1.0" encoding="UTF-8" standalone="no"?>
<!DOCTYPE svg PUBLIC "-//W3C//DTD SVG 1.1//EN"
 "http://www.w3.org/Graphics/SVG/1.1/DTD/svg11.dtd">
<!-- Generated by graphviz version 2.40.1 (20161225.0304)
 -->
<!-- Title: js_string_charCodeAt Pages: 1 -->
<!--zoomable 180 -->
<svg id="main" version="1.1" xmlns="http://www.w3.org/2000/svg" xmlns:xlink="http://www.w3.org/1999/xlink" xml:space="preserve" onload="init(evt)">
<style type="text/css"><![CDATA[
.edge:hover path { stroke: red; }
.edge:hover polygon { stroke: red; fill: red; }
]]></style>
<script type="text/javascript"><![CDATA[
var edges = document.getElementsByTagName('g');
if (edges && edges.length) {
  for (var i=0;i<edges.length;i++) {
    if (edges[i].id.substr(0,4)=='edge') {
      edges[i].setAttribute('class','edge');
    }
  }
}
]]></script>
        <defs>
                <circle id="rim" cx="0" cy="0" r="7"/>
                <circle id="rim2" cx="0" cy="0" r="3.5"/>
                <g id="zoomPlus">
                        <use xlink:href="#rim" fill="#404040">
                                <set attributeName="fill" to="#808080" begin="zoomplus.mouseover" end="zoomplus.mouseout"/>
                        </use>
                        <path d="M-4,0h8M0,-4v8" fill="none" stroke="white" stroke-width="1.5" pointer-events="none"/>
                </g>
                <g id="zoomMin">
                        <use xlink:href="#rim" fill="#404040">
                                <set attributeName="fill" to="#808080" begin="zoomminus.mouseover" end="zoomminus.mouseout"/>
                        </use>
                        <path d="M-4,0h8" fill="none" stroke="white" stroke-width="1.5" pointer-events="none"/>
                </g>
                <g id="dirArrow">
                        <path fill="none" stroke="white" stroke-width="1.5" d="M0,-3.0v7 M-2.5,-0.5L0,-3.0L2.5,-0.5"/>
                </g>
               <g id="resetDef">
                       <use xlink:href="#rim2" fill="#404040">
                               <set attributeName="fill" to="#808080" begin="reset.mouseover" end="reset.mouseout"/>
                       </use>
               </g>
        </defs>

<script type="text/javascript">
var viewWidth = 557;
var viewHeight = 180;
var sectionId = 'dynsection-1522';
</script>
<script xlink:href="svgpan.js"/>
<svg id="graph" class="graph">
<g id="viewport">
<title>js_string_charCodeAt</title>
<!-- Node407954 -->
<g id="node1" class="node">
<title>Node407954</title>
<polygon fill="#bfbfbf" stroke="#000000" points="0,-76.5 0,-95.5 110,-95.5 110,-76.5 0,-76.5"/>
<text text-anchor="middle" x="55" y="-83.5" font-family="Helvetica,sans-Serif" font-size="10.00" fill="#000000">js_string_charCodeAt</text>
</g>
<!-- Node407955 -->
<g id="node2" class="node">
<title>Node407955</title>
<g id="a_node2"><a xlink:href="quickjs_8h.html#afaa20c47565bc704c6c85f3d77254e7d" target="_top" xlink:title="JS_FreeValue">
<polygon fill="none" stroke="#000000" points="171,-152.5 171,-171.5 249,-171.5 249,-152.5 171,-152.5"/>
<text text-anchor="middle" x="210" y="-159.5" font-family="Helvetica,sans-Serif" font-size="10.00" fill="#000000">JS_FreeValue</text>
</a>
</g>
</g>
<!-- Node407954&#45;&gt;Node407955 -->
<g id="edge1" class="edge">
<title>Node407954&#45;&gt;Node407955</title>
<path fill="none" stroke="#191970" d="M70.0569,-95.6037C87.7856,-106.6735 118.3287,-125.0081 146,-138 154.2727,-141.8841 163.3603,-145.6034 172.0237,-148.9054"/>
<polygon fill="#191970" stroke="#191970" points="170.9656,-152.2459 181.5586,-152.4428 173.4004,-145.683 170.9656,-152.2459"/>
</g>
<!-- Node407992 -->
<g id="node5" class="node">
<title>Node407992</title>
<g id="a_node5"><a xlink:href="quickjs_8h.html#ad80a83d73e9b7d872b88fbf2943aebe9" target="_top" xlink:title="JS_IsException">
<polygon fill="none" stroke="#000000" points="455,-95.5 455,-114.5 541,-114.5 541,-95.5 455,-95.5"/>
<text text-anchor="middle" x="498" y="-102.5" font-family="Helvetica,sans-Serif" font-size="10.00" fill="#000000">JS_IsException</text>
</a>
</g>
</g>
<!-- Node407954&#45;&gt;Node407992 -->
<g id="edge4" class="edge">
<title>Node407954&#45;&gt;Node407992</title>
<path fill="none" stroke="#191970" d="M91.9195,-95.5092C108.3541,-99.2741 128.0196,-103.143 146,-105 251.3762,-115.8835 375.4454,-112.0274 444.5729,-108.4032"/>
<polygon fill="#191970" stroke="#191970" points="444.9791,-111.8863 454.7745,-107.8489 444.5993,-104.8967 444.9791,-111.8863"/>
</g>
<!-- Node407993 -->
<g id="node6" class="node">
<title>Node407993</title>
<g id="a_node6"><a xlink:href="quickjs_8h.html#a2050bc428da1c65ac7eb87c3fa3b0392" target="_top" xlink:title="JS_NewInt32">
<polygon fill="none" stroke="#000000" points="172,-76.5 172,-95.5 248,-95.5 248,-76.5 172,-76.5"/>
<text text-anchor="middle" x="210" y="-83.5" font-family="Helvetica,sans-Serif" font-size="10.00" fill="#000000">JS_NewInt32</text>
</a>
</g>
</g>
<!-- Node407954&#45;&gt;Node407993 -->
<g id="edge5" class="edge">
<title>Node407954&#45;&gt;Node407993</title>
<path fill="none" stroke="#191970" d="M110.0836,-86C126.7863,-86 145.009,-86 161.2642,-86"/>
<polygon fill="#191970" stroke="#191970" points="161.6263,-89.5001 171.6263,-86 161.6263,-82.5001 161.6263,-89.5001"/>
</g>
<!-- Node407994 -->
<g id="node7" class="node">
<title>Node407994</title>
<g id="a_node7"><a xlink:href="quickjs_8c.html#ad698ea01233894f912303776fe3c08c8" target="_top" xlink:title="JS_ToInt32Sat">
<polygon fill="none" stroke="#000000" points="169,-38.5 169,-57.5 251,-57.5 251,-38.5 169,-38.5"/>
<text text-anchor="middle" x="210" y="-45.5" font-family="Helvetica,sans-Serif" font-size="10.00" fill="#000000">JS_ToInt32Sat</text>
</a>
</g>
</g>
<!-- Node407954&#45;&gt;Node407994 -->
<g id="edge6" class="edge">
<title>Node407954&#45;&gt;Node407994</title>
<path fill="none" stroke="#191970" d="M94.113,-76.411C114.4748,-71.4191 139.5663,-65.2676 161.1887,-59.9666"/>
<polygon fill="#191970" stroke="#191970" points="162.2892,-63.3006 171.1682,-57.5201 160.6224,-56.5019 162.2892,-63.3006"/>
</g>
<!-- Node408231 -->
<g id="node11" class="node">
<title>Node408231</title>
<g id="a_node11"><a xlink:href="quickjs_8c.html#a4d1d0760c9f9efcb8c0a8db414e46c8a" target="_top" xlink:title="JS_ToStringCheckObject">
<polygon fill="none" stroke="#ff0000" points="146,-.5 146,-19.5 274,-19.5 274,-.5 146,-.5"/>
<text text-anchor="middle" x="210" y="-7.5" font-family="Helvetica,sans-Serif" font-size="10.00" fill="#000000">JS_ToStringCheckObject</text>
</a>
</g>
</g>
<!-- Node407954&#45;&gt;Node408231 -->
<g id="edge11" class="edge">
<title>Node407954&#45;&gt;Node408231</title>
<path fill="none" stroke="#191970" d="M67.9289,-76.3102C85.0211,-63.8833 116.4364,-42.3475 146,-29 151.0177,-26.7346 156.3768,-24.6557 161.7778,-22.7722"/>
<polygon fill="#191970" stroke="#191970" points="163.0661,-26.0332 171.4801,-19.5946 160.8874,-19.3809 163.0661,-26.0332"/>
</g>
<!-- Node407956 -->
<g id="node3" class="node">
<title>Node407956</title>
<g id="a_node3"><a xlink:href="quickjs_8c.html#aa059f309c30fd5166d16c82a97973146" target="_top" xlink:title="__JS_FreeValue">
<polygon fill="none" stroke="#000000" points="316,-152.5 316,-171.5 405,-171.5 405,-152.5 316,-152.5"/>
<text text-anchor="middle" x="360.5" y="-159.5" font-family="Helvetica,sans-Serif" font-size="10.00" fill="#000000">__JS_FreeValue</text>
</a>
</g>
</g>
<!-- Node407955&#45;&gt;Node407956 -->
<g id="edge2" class="edge">
<title>Node407955&#45;&gt;Node407956</title>
<path fill="none" stroke="#191970" d="M249.1492,-162C266.4185,-162 287.0121,-162 305.7652,-162"/>
<polygon fill="#191970" stroke="#191970" points="305.9615,-165.5001 315.9615,-162 305.9614,-158.5001 305.9615,-165.5001"/>
</g>
<!-- Node407957 -->
<g id="node4" class="node">
<title>Node407957</title>
<g id="a_node4"><a xlink:href="quickjs_8c.html#ab1ea3fad7d138be12144a38be4d36423" target="_top" xlink:title="__JS_FreeValueRT">
<polygon fill="none" stroke="#ff0000" points="447,-152.5 447,-171.5 549,-171.5 549,-152.5 447,-152.5"/>
<text text-anchor="middle" x="498" y="-159.5" font-family="Helvetica,sans-Serif" font-size="10.00" fill="#000000">__JS_FreeValueRT</text>
</a>
</g>
</g>
<!-- Node407956&#45;&gt;Node407957 -->
<g id="edge3" class="edge">
<title>Node407956&#45;&gt;Node407957</title>
<path fill="none" stroke="#191970" d="M405.1423,-162C415.2445,-162 426.1419,-162 436.7947,-162"/>
<polygon fill="#191970" stroke="#191970" points="436.8994,-165.5001 446.8993,-162 436.8993,-158.5001 436.8994,-165.5001"/>
</g>
<!-- Node407995 -->
<g id="node8" class="node">
<title>Node407995</title>
<g id="a_node8"><a xlink:href="quickjs_8h.html#a775522f2d084fc8fa0fcb33f390006b4" target="_top" xlink:title="JS_DupValue">
<polygon fill="none" stroke="#000000" points="322,-76.5 322,-95.5 399,-95.5 399,-76.5 322,-76.5"/>
<text text-anchor="middle" x="360.5" y="-83.5" font-family="Helvetica,sans-Serif" font-size="10.00" fill="#000000">JS_DupValue</text>
</a>
</g>
</g>
<!-- Node407994&#45;&gt;Node407995 -->
<g id="edge7" class="edge">
<title>Node407994&#45;&gt;Node407995</title>
<path fill="none" stroke="#191970" d="M247.9775,-57.589C267.6587,-62.5583 291.8907,-68.6767 312.8206,-73.9613"/>
<polygon fill="#191970" stroke="#191970" points="312.243,-77.4253 322.7956,-76.4799 313.9567,-70.6383 312.243,-77.4253"/>
</g>
<!-- Node407996 -->
<g id="node9" class="node">
<title>Node407996</title>
<g id="a_node9"><a xlink:href="quickjs_8c.html#a419bec82cb80e98e08626a9a5212ec4c" target="_top" xlink:title="JS_ToInt32SatFree">
<polygon fill="none" stroke="#000000" points="310,-38.5 310,-57.5 411,-57.5 411,-38.5 310,-38.5"/>
<text text-anchor="middle" x="360.5" y="-45.5" font-family="Helvetica,sans-Serif" font-size="10.00" fill="#000000">JS_ToInt32SatFree</text>
</a>
</g>
</g>
<!-- Node407994&#45;&gt;Node407996 -->
<g id="edge8" class="edge">
<title>Node407994&#45;&gt;Node407996</title>
<path fill="none" stroke="#191970" d="M251.1248,-48C266.116,-48 283.3997,-48 299.7366,-48"/>
<polygon fill="#191970" stroke="#191970" points="299.7574,-51.5001 309.7574,-48 299.7573,-44.5001 299.7574,-51.5001"/>
</g>
<!-- Node407996&#45;&gt;Node407992 -->
<g id="edge9" class="edge">
<title>Node407996&#45;&gt;Node407992</title>
<path fill="none" stroke="#191970" d="M386.5508,-57.5065C394.4384,-60.464 403.1024,-63.7921 411,-67 430.02,-74.7257 451.1269,-83.9292 467.7874,-91.3435"/>
<polygon fill="#191970" stroke="#191970" points="466.476,-94.591 477.0337,-95.4775 469.3332,-88.2006 466.476,-94.591"/>
</g>
<!-- Node407997 -->
<g id="node10" class="node">
<title>Node407997</title>
<g id="a_node10"><a xlink:href="quickjs_8c.html#ae738291483438efefca5c9fa4d269504" target="_top" xlink:title="JS_ToNumberFree">
<polygon fill="none" stroke="#ff0000" points="448.5,-38.5 448.5,-57.5 547.5,-57.5 547.5,-38.5 448.5,-38.5"/>
<text text-anchor="middle" x="498" y="-45.5" font-family="Helvetica,sans-Serif" font-size="10.00" fill="#000000">JS_ToNumberFree</text>
</a>
</g>
</g>
<!-- Node407996&#45;&gt;Node407997 -->
<g id="edge10" class="edge">
<title>Node407996&#45;&gt;Node407997</title>
<path fill="none" stroke="#191970" d="M411.3093,-48C420.0914,-48 429.2934,-48 438.2856,-48"/>
<polygon fill="#191970" stroke="#191970" points="438.3153,-51.5001 448.3153,-48 438.3153,-44.5001 438.3153,-51.5001"/>
</g>
</g>
</svg>
        <g id="navigator" transform="translate(0 0)" fill="#404254">
                <rect fill="#f2f5e9" fill-opacity="0.5" stroke="#606060" stroke-width=".5" x="0" y="0" width="60" height="60"/>
                <use id="zoomplus" xlink:href="#zoomPlus" x="17" y="9" onmousedown="handleZoom(evt,'in')"/>
                <use id="zoomminus" xlink:href="#zoomMin" x="42" y="9" onmousedown="handleZoom(evt,'out')"/>
                <use id="reset" xlink:href="#resetDef" x="30" y="36" onmousedown="handleReset()"/>
                <g id="arrowUp" xlink:href="#dirArrow" transform="translate(30 24)" onmousedown="handlePan(0,-1)">
                  <use xlink:href="#rim" fill="#404040">
                        <set attributeName="fill" to="#808080" begin="arrowUp.mouseover" end="arrowUp.mouseout"/>
                  </use>
                  <path fill="none" stroke="white" stroke-width="1.5" d="M0,-3.0v7 M-2.5,-0.5L0,-3.0L2.5,-0.5"/>
                </g>
                <g id="arrowRight" xlink:href="#dirArrow" transform="rotate(90) translate(36 -43)" onmousedown="handlePan(1,0)">
                  <use xlink:href="#rim" fill="#404040">
                        <set attributeName="fill" to="#808080" begin="arrowRight.mouseover" end="arrowRight.mouseout"/>
                  </use>
                  <path fill="none" stroke="white" stroke-width="1.5" d="M0,-3.0v7 M-2.5,-0.5L0,-3.0L2.5,-0.5"/>
                </g>
                <g id="arrowDown" xlink:href="#dirArrow" transform="rotate(180) translate(-30 -48)" onmousedown="handlePan(0,1)">
                  <use xlink:href="#rim" fill="#404040">
                        <set attributeName="fill" to="#808080" begin="arrowDown.mouseover" end="arrowDown.mouseout"/>
                  </use>
                  <path fill="none" stroke="white" stroke-width="1.5" d="M0,-3.0v7 M-2.5,-0.5L0,-3.0L2.5,-0.5"/>
                </g>
                <g id="arrowLeft" xlink:href="#dirArrow" transform="rotate(270) translate(-36 17)" onmousedown="handlePan(-1,0)">
                  <use xlink:href="#rim" fill="#404040">
                        <set attributeName="fill" to="#808080" begin="arrowLeft.mouseover" end="arrowLeft.mouseout"/>
                  </use>
                  <path fill="none" stroke="white" stroke-width="1.5" d="M0,-3.0v7 M-2.5,-0.5L0,-3.0L2.5,-0.5"/>
                </g>
        </g>
        <svg viewBox="0 0 15 15" width="100%" height="30px" preserveAspectRatio="xMaxYMin meet">
         <g id="arrow_out" transform="scale(0.3 0.3)">
          <a xlink:href="quickjs_8c_a0ee215276f1e5ed65c86636d410c0836_cgraph_org.svg" target="_base">
           <rect id="button" ry="5" rx="5" y="6" x="6" height="38" width="38"
                fill="#f2f5e9" fill-opacity="0.5" stroke="#606060" stroke-width="1.0"/>
           <path id="arrow"
             d="M 11.500037,31.436501 C 11.940474,20.09759 22.043105,11.32322 32.158766,21.979434 L 37.068811,17.246167 C 37.068811,17.246167 37.088388,32 37.088388,32 L 22.160133,31.978069 C 22.160133,31.978069 26.997745,27.140456 26.997745,27.140456 C 18.528582,18.264221 13.291696,25.230495 11.500037,31.436501 z"
             style="fill:#404040;"/>
          </a>
         </g>
        </svg>
</svg>
