<?xml version="1.0" encoding="UTF-8" standalone="no"?>
<!DOCTYPE svg PUBLIC "-//W3C//DTD SVG 1.1//EN"
 "http://www.w3.org/Graphics/SVG/1.1/DTD/svg11.dtd">
<!-- Generated by graphviz version 2.40.1 (20161225.0304)
 -->
<!-- Title: js_autoinit_free Pages: 1 -->
<!--zoomable 220 -->
<svg id="main" version="1.1" xmlns="http://www.w3.org/2000/svg" xmlns:xlink="http://www.w3.org/1999/xlink" xml:space="preserve" onload="init(evt)">
<style type="text/css"><![CDATA[
.edge:hover path { stroke: red; }
.edge:hover polygon { stroke: red; fill: red; }
]]></style>
<script type="text/javascript"><![CDATA[
var edges = document.getElementsByTagName('g');
if (edges && edges.length) {
  for (var i=0;i<edges.length;i++) {
    if (edges[i].id.substr(0,4)=='edge') {
      edges[i].setAttribute('class','edge');
    }
  }
}
]]></script>
        <defs>
                <circle id="rim" cx="0" cy="0" r="7"/>
                <circle id="rim2" cx="0" cy="0" r="3.5"/>
                <g id="zoomPlus">
                        <use xlink:href="#rim" fill="#404040">
                                <set attributeName="fill" to="#808080" begin="zoomplus.mouseover" end="zoomplus.mouseout"/>
                        </use>
                        <path d="M-4,0h8M0,-4v8" fill="none" stroke="white" stroke-width="1.5" pointer-events="none"/>
                </g>
                <g id="zoomMin">
                        <use xlink:href="#rim" fill="#404040">
                                <set attributeName="fill" to="#808080" begin="zoomminus.mouseover" end="zoomminus.mouseout"/>
                        </use>
                        <path d="M-4,0h8" fill="none" stroke="white" stroke-width="1.5" pointer-events="none"/>
                </g>
                <g id="dirArrow">
                        <path fill="none" stroke="white" stroke-width="1.5" d="M0,-3.0v7 M-2.5,-0.5L0,-3.0L2.5,-0.5"/>
                </g>
               <g id="resetDef">
                       <use xlink:href="#rim2" fill="#404040">
                               <set attributeName="fill" to="#808080" begin="reset.mouseover" end="reset.mouseout"/>
                       </use>
               </g>
        </defs>

<script type="text/javascript">
var viewWidth = 621;
var viewHeight = 220;
var sectionId = 'dynsection-429';
</script>
<script xlink:href="svgpan.js"/>
<svg id="graph" class="graph">
<g id="viewport">
<title>js_autoinit_free</title>
<!-- Node144184 -->
<g id="node1" class="node">
<title>Node144184</title>
<polygon fill="#bfbfbf" stroke="#000000" points="0,-116.2899 0,-135.2899 83,-135.2899 83,-116.2899 0,-116.2899"/>
<text text-anchor="middle" x="41.5" y="-123.2899" font-family="Helvetica,sans-Serif" font-size="10.00" fill="#000000">js_autoinit_free</text>
</g>
<!-- Node144185 -->
<g id="node2" class="node">
<title>Node144185</title>
<g id="a_node2"><a xlink:href="quickjs_8c.html#ab47c18f4aa00970629cc8e69fe2fdb51" target="_top" xlink:title="js_autoinit_get_realm">
<polygon fill="none" stroke="#000000" points="119,-135.2899 119,-154.2899 228,-154.2899 228,-135.2899 119,-135.2899"/>
<text text-anchor="middle" x="173.5" y="-142.2899" font-family="Helvetica,sans-Serif" font-size="10.00" fill="#000000">js_autoinit_get_realm</text>
</a>
</g>
</g>
<!-- Node144184&#45;&gt;Node144185 -->
<g id="edge1" class="edge">
<title>Node144184&#45;&gt;Node144185</title>
<path fill="none" stroke="#191970" d="M83.2656,-131.8016C91.4088,-132.9737 100.1236,-134.2281 108.8081,-135.4782"/>
<polygon fill="#191970" stroke="#191970" points="108.5564,-138.978 118.9531,-136.9385 109.5538,-132.0494 108.5564,-138.978"/>
</g>
<!-- Node144186 -->
<g id="node3" class="node">
<title>Node144186</title>
<g id="a_node3"><a xlink:href="quickjs_8c.html#a1b4fe6eb1b7bcaec6713bd5ac2921f1b" target="_top" xlink:title="JS_FreeContext">
<polygon fill="none" stroke="#000000" points="129.5,-97.2899 129.5,-116.2899 217.5,-116.2899 217.5,-97.2899 129.5,-97.2899"/>
<text text-anchor="middle" x="173.5" y="-104.2899" font-family="Helvetica,sans-Serif" font-size="10.00" fill="#000000">JS_FreeContext</text>
</a>
</g>
</g>
<!-- Node144184&#45;&gt;Node144186 -->
<g id="edge2" class="edge">
<title>Node144184&#45;&gt;Node144186</title>
<path fill="none" stroke="#191970" d="M83.2656,-119.7782C94.7133,-118.1304 107.2905,-116.32 119.3255,-114.5877"/>
<polygon fill="#191970" stroke="#191970" points="119.8713,-118.0454 129.2706,-113.1563 118.8739,-111.1168 119.8713,-118.0454"/>
</g>
<!-- Node144187 -->
<g id="node4" class="node">
<title>Node144187</title>
<g id="a_node4"><a xlink:href="quickjs_8c.html#adcabee55726eddca24893a78515c7ba2" target="_top" xlink:title="js_free_modules">
<polygon fill="none" stroke="#000000" points="269,-154.2899 269,-173.2899 357,-173.2899 357,-154.2899 269,-154.2899"/>
<text text-anchor="middle" x="313" y="-161.2899" font-family="Helvetica,sans-Serif" font-size="10.00" fill="#000000">js_free_modules</text>
</a>
</g>
</g>
<!-- Node144186&#45;&gt;Node144187 -->
<g id="edge3" class="edge">
<title>Node144186&#45;&gt;Node144187</title>
<path fill="none" stroke="#191970" d="M202.2368,-116.2962C210.5986,-119.2001 219.7113,-122.4992 228,-125.7899 246.6624,-133.1991 267.2267,-142.3649 283.4533,-149.8383"/>
<polygon fill="#191970" stroke="#191970" points="282.3961,-153.2062 292.9402,-154.2419 285.3434,-146.8569 282.3961,-153.2062"/>
</g>
<!-- Node144218 -->
<g id="node6" class="node">
<title>Node144218</title>
<g id="a_node6"><a xlink:href="quickjs_8h.html#afaa20c47565bc704c6c85f3d77254e7d" target="_top" xlink:title="JS_FreeValue">
<polygon fill="none" stroke="#ff0000" points="535,-173.2899 535,-192.2899 613,-192.2899 613,-173.2899 535,-173.2899"/>
<text text-anchor="middle" x="574" y="-180.2899" font-family="Helvetica,sans-Serif" font-size="10.00" fill="#000000">JS_FreeValue</text>
</a>
</g>
</g>
<!-- Node144186&#45;&gt;Node144218 -->
<g id="edge10" class="edge">
<title>Node144186&#45;&gt;Node144218</title>
<path fill="none" stroke="#191970" d="M211.5786,-116.3275C217.4315,-118.8175 223.1361,-121.9248 228,-125.7899 251.4583,-144.4308 237.759,-168.3267 264,-182.7899 349.2788,-229.7929 468.8594,-210.3573 531.66,-194.9161"/>
<polygon fill="#191970" stroke="#191970" points="532.7761,-198.2438 541.6047,-192.3866 531.0505,-191.4598 532.7761,-198.2438"/>
</g>
<!-- Node144209 -->
<g id="node7" class="node">
<title>Node144209</title>
<g id="a_node7"><a xlink:href="list_8h.html#ab60d5d18869ebeb5d6ab694289576fa7" target="_top" xlink:title="list_del">
<polygon fill="none" stroke="#000000" points="550.5,-116.2899 550.5,-135.2899 597.5,-135.2899 597.5,-116.2899 550.5,-116.2899"/>
<text text-anchor="middle" x="574" y="-123.2899" font-family="Helvetica,sans-Serif" font-size="10.00" fill="#000000">list_del</text>
</a>
</g>
</g>
<!-- Node144186&#45;&gt;Node144209 -->
<g id="edge11" class="edge">
<title>Node144186&#45;&gt;Node144209</title>
<path fill="none" stroke="#191970" d="M180.9189,-97.1728C194.9241,-79.9057 227.1782,-44.2003 264,-30.7899 362.1386,4.9518 405.0103,14.7577 499,-30.7899 531.6153,-46.5953 554.3264,-84.2259 565.6742,-107.0983"/>
<polygon fill="#191970" stroke="#191970" points="562.5221,-108.62 569.9608,-116.1644 568.8504,-105.6279 562.5221,-108.62"/>
</g>
<!-- Node144190 -->
<g id="node8" class="node">
<title>Node144190</title>
<g id="a_node8"><a xlink:href="quickjs_8c.html#a69e19dda8a93d613203e0baa06f0ed8d" target="_top" xlink:title="js_free_rt">
<polygon fill="none" stroke="#000000" points="284.5,-78.2899 284.5,-97.2899 341.5,-97.2899 341.5,-78.2899 284.5,-78.2899"/>
<text text-anchor="middle" x="313" y="-85.2899" font-family="Helvetica,sans-Serif" font-size="10.00" fill="#000000">js_free_rt</text>
</a>
</g>
</g>
<!-- Node144186&#45;&gt;Node144190 -->
<g id="edge7" class="edge">
<title>Node144186&#45;&gt;Node144190</title>
<path fill="none" stroke="#191970" d="M217.6387,-100.7782C235.7883,-98.3062 256.6247,-95.4683 274.182,-93.0769"/>
<polygon fill="#191970" stroke="#191970" points="274.6594,-96.5443 284.0955,-91.7267 273.7146,-89.6084 274.6594,-96.5443"/>
</g>
<!-- Node144220 -->
<g id="node9" class="node">
<title>Node144220</title>
<g id="a_node9"><a xlink:href="quickjs_8c.html#a8a02cfc587edc36995bda62a0160269c" target="_top" xlink:title="js_free_shape_null">
<polygon fill="none" stroke="#000000" points="264,-40.2899 264,-59.2899 362,-59.2899 362,-40.2899 264,-40.2899"/>
<text text-anchor="middle" x="313" y="-47.2899" font-family="Helvetica,sans-Serif" font-size="10.00" fill="#000000">js_free_shape_null</text>
</a>
</g>
</g>
<!-- Node144186&#45;&gt;Node144220 -->
<g id="edge8" class="edge">
<title>Node144186&#45;&gt;Node144220</title>
<path fill="none" stroke="#191970" d="M195.7442,-97.2481C214.0203,-89.4571 240.6139,-78.2316 264,-68.7899 268.7432,-66.8749 273.7589,-64.8875 278.7003,-62.9511"/>
<polygon fill="#191970" stroke="#191970" points="279.9709,-66.2124 288.0199,-59.3229 277.4314,-59.6893 279.9709,-66.2124"/>
</g>
<!-- Node144208 -->
<g id="node11" class="node">
<title>Node144208</title>
<g id="a_node11"><a xlink:href="quickjs_8c.html#adfb3133f30938e2db9b525ade5fc09cf" target="_top" xlink:title="remove_gc_object">
<polygon fill="none" stroke="#000000" points="400.5,-116.2899 400.5,-135.2899 496.5,-135.2899 496.5,-116.2899 400.5,-116.2899"/>
<text text-anchor="middle" x="448.5" y="-123.2899" font-family="Helvetica,sans-Serif" font-size="10.00" fill="#000000">remove_gc_object</text>
</a>
</g>
</g>
<!-- Node144186&#45;&gt;Node144208 -->
<g id="edge12" class="edge">
<title>Node144186&#45;&gt;Node144208</title>
<path fill="none" stroke="#191970" d="M217.6835,-109.8426C264.5131,-113.0781 338.6855,-118.2027 390.2625,-121.7662"/>
<polygon fill="#191970" stroke="#191970" points="390.0443,-125.2594 400.2618,-122.4571 390.5269,-118.276 390.0443,-125.2594"/>
</g>
<!-- Node144188 -->
<g id="node5" class="node">
<title>Node144188</title>
<g id="a_node5"><a xlink:href="quickjs_8c.html#a05db980a30860573f912cbeb64e99c3c" target="_top" xlink:title="js_free_module_def">
<polygon fill="none" stroke="#ff0000" points="398,-154.2899 398,-173.2899 499,-173.2899 499,-154.2899 398,-154.2899"/>
<text text-anchor="middle" x="448.5" y="-161.2899" font-family="Helvetica,sans-Serif" font-size="10.00" fill="#000000">js_free_module_def</text>
</a>
</g>
</g>
<!-- Node144187&#45;&gt;Node144188 -->
<g id="edge4" class="edge">
<title>Node144187&#45;&gt;Node144188</title>
<path fill="none" stroke="#191970" d="M357.3678,-163.7899C367.0928,-163.7899 377.5504,-163.7899 387.7911,-163.7899"/>
<polygon fill="#191970" stroke="#191970" points="387.9244,-167.29 397.9244,-163.7899 387.9244,-160.29 387.9244,-167.29"/>
</g>
<!-- Node144188&#45;&gt;Node144218 -->
<g id="edge5" class="edge">
<title>Node144188&#45;&gt;Node144218</title>
<path fill="none" stroke="#191970" d="M499.1839,-171.4632C507.5993,-172.7372 516.3156,-174.0568 524.6961,-175.3256"/>
<polygon fill="#191970" stroke="#191970" points="524.298,-178.8051 534.7092,-176.8415 525.3458,-171.884 524.298,-178.8051"/>
</g>
<!-- Node144188&#45;&gt;Node144209 -->
<g id="edge6" class="edge">
<title>Node144188&#45;&gt;Node144209</title>
<path fill="none" stroke="#191970" d="M480.1689,-154.2009C498.6344,-148.6097 521.904,-141.564 540.6503,-135.8878"/>
<polygon fill="#191970" stroke="#191970" points="541.7087,-139.2243 550.2653,-132.9765 539.6801,-132.5247 541.7087,-139.2243"/>
</g>
<!-- Node144200 -->
<g id="node10" class="node">
<title>Node144200</title>
<g id="a_node10"><a xlink:href="quickjs_8c.html#a3a9f27520d96cf58aa5bd7359e9cddee" target="_top" xlink:title="js_free_shape">
<polygon fill="none" stroke="#ff0000" points="410,-40.2899 410,-59.2899 487,-59.2899 487,-40.2899 410,-40.2899"/>
<text text-anchor="middle" x="448.5" y="-47.2899" font-family="Helvetica,sans-Serif" font-size="10.00" fill="#000000">js_free_shape</text>
</a>
</g>
</g>
<!-- Node144220&#45;&gt;Node144200 -->
<g id="edge9" class="edge">
<title>Node144220&#45;&gt;Node144200</title>
<path fill="none" stroke="#191970" d="M362.3019,-49.7899C374.3582,-49.7899 387.2582,-49.7899 399.3093,-49.7899"/>
<polygon fill="#191970" stroke="#191970" points="399.6386,-53.29 409.6385,-49.7899 399.6385,-46.29 399.6386,-53.29"/>
</g>
<!-- Node144208&#45;&gt;Node144209 -->
<g id="edge13" class="edge">
<title>Node144208&#45;&gt;Node144209</title>
<path fill="none" stroke="#191970" d="M496.6627,-125.7899C511.1712,-125.7899 526.7812,-125.7899 540.1513,-125.7899"/>
<polygon fill="#191970" stroke="#191970" points="540.3299,-129.29 550.3299,-125.7899 540.3299,-122.29 540.3299,-129.29"/>
</g>
</g>
</svg>
        <g id="navigator" transform="translate(0 0)" fill="#404254">
                <rect fill="#f2f5e9" fill-opacity="0.5" stroke="#606060" stroke-width=".5" x="0" y="0" width="60" height="60"/>
                <use id="zoomplus" xlink:href="#zoomPlus" x="17" y="9" onmousedown="handleZoom(evt,'in')"/>
                <use id="zoomminus" xlink:href="#zoomMin" x="42" y="9" onmousedown="handleZoom(evt,'out')"/>
                <use id="reset" xlink:href="#resetDef" x="30" y="36" onmousedown="handleReset()"/>
                <g id="arrowUp" xlink:href="#dirArrow" transform="translate(30 24)" onmousedown="handlePan(0,-1)">
                  <use xlink:href="#rim" fill="#404040">
                        <set attributeName="fill" to="#808080" begin="arrowUp.mouseover" end="arrowUp.mouseout"/>
                  </use>
                  <path fill="none" stroke="white" stroke-width="1.5" d="M0,-3.0v7 M-2.5,-0.5L0,-3.0L2.5,-0.5"/>
                </g>
                <g id="arrowRight" xlink:href="#dirArrow" transform="rotate(90) translate(36 -43)" onmousedown="handlePan(1,0)">
                  <use xlink:href="#rim" fill="#404040">
                        <set attributeName="fill" to="#808080" begin="arrowRight.mouseover" end="arrowRight.mouseout"/>
                  </use>
                  <path fill="none" stroke="white" stroke-width="1.5" d="M0,-3.0v7 M-2.5,-0.5L0,-3.0L2.5,-0.5"/>
                </g>
                <g id="arrowDown" xlink:href="#dirArrow" transform="rotate(180) translate(-30 -48)" onmousedown="handlePan(0,1)">
                  <use xlink:href="#rim" fill="#404040">
                        <set attributeName="fill" to="#808080" begin="arrowDown.mouseover" end="arrowDown.mouseout"/>
                  </use>
                  <path fill="none" stroke="white" stroke-width="1.5" d="M0,-3.0v7 M-2.5,-0.5L0,-3.0L2.5,-0.5"/>
                </g>
                <g id="arrowLeft" xlink:href="#dirArrow" transform="rotate(270) translate(-36 17)" onmousedown="handlePan(-1,0)">
                  <use xlink:href="#rim" fill="#404040">
                        <set attributeName="fill" to="#808080" begin="arrowLeft.mouseover" end="arrowLeft.mouseout"/>
                  </use>
                  <path fill="none" stroke="white" stroke-width="1.5" d="M0,-3.0v7 M-2.5,-0.5L0,-3.0L2.5,-0.5"/>
                </g>
        </g>
        <svg viewBox="0 0 15 15" width="100%" height="30px" preserveAspectRatio="xMaxYMin meet">
         <g id="arrow_out" transform="scale(0.3 0.3)">
          <a xlink:href="quickjs_8c_af2bcf1faee5b5dd948692540d9cce73e_cgraph_org.svg" target="_base">
           <rect id="button" ry="5" rx="5" y="6" x="6" height="38" width="38"
                fill="#f2f5e9" fill-opacity="0.5" stroke="#606060" stroke-width="1.0"/>
           <path id="arrow"
             d="M 11.500037,31.436501 C 11.940474,20.09759 22.043105,11.32322 32.158766,21.979434 L 37.068811,17.246167 C 37.068811,17.246167 37.088388,32 37.088388,32 L 22.160133,31.978069 C 22.160133,31.978069 26.997745,27.140456 26.997745,27.140456 C 18.528582,18.264221 13.291696,25.230495 11.500037,31.436501 z"
             style="fill:#404040;"/>
          </a>
         </g>
        </svg>
</svg>
