<?xml version="1.0" encoding="UTF-8" standalone="no"?>
<!DOCTYPE svg PUBLIC "-//W3C//DTD SVG 1.1//EN"
 "http://www.w3.org/Graphics/SVG/1.1/DTD/svg11.dtd">
<!-- Generated by graphviz version 2.40.1 (20161225.0304)
 -->
<!-- Title: js_autoinit_get_id Pages: 1 -->
<!--zoomable 256 -->
<svg id="main" version="1.1" xmlns="http://www.w3.org/2000/svg" xmlns:xlink="http://www.w3.org/1999/xlink" xml:space="preserve" onload="init(evt)">
<style type="text/css"><![CDATA[
.edge:hover path { stroke: red; }
.edge:hover polygon { stroke: red; fill: red; }
]]></style>
<script type="text/javascript"><![CDATA[
var edges = document.getElementsByTagName('g');
if (edges && edges.length) {
  for (var i=0;i<edges.length;i++) {
    if (edges[i].id.substr(0,4)=='edge') {
      edges[i].setAttribute('class','edge');
    }
  }
}
]]></script>
        <defs>
                <circle id="rim" cx="0" cy="0" r="7"/>
                <circle id="rim2" cx="0" cy="0" r="3.5"/>
                <g id="zoomPlus">
                        <use xlink:href="#rim" fill="#404040">
                                <set attributeName="fill" to="#808080" begin="zoomplus.mouseover" end="zoomplus.mouseout"/>
                        </use>
                        <path d="M-4,0h8M0,-4v8" fill="none" stroke="white" stroke-width="1.5" pointer-events="none"/>
                </g>
                <g id="zoomMin">
                        <use xlink:href="#rim" fill="#404040">
                                <set attributeName="fill" to="#808080" begin="zoomminus.mouseover" end="zoomminus.mouseout"/>
                        </use>
                        <path d="M-4,0h8" fill="none" stroke="white" stroke-width="1.5" pointer-events="none"/>
                </g>
                <g id="dirArrow">
                        <path fill="none" stroke="white" stroke-width="1.5" d="M0,-3.0v7 M-2.5,-0.5L0,-3.0L2.5,-0.5"/>
                </g>
               <g id="resetDef">
                       <use xlink:href="#rim2" fill="#404040">
                               <set attributeName="fill" to="#808080" begin="reset.mouseover" end="reset.mouseout"/>
                       </use>
               </g>
        </defs>

<script type="text/javascript">
var viewWidth = 662;
var viewHeight = 256;
var sectionId = 'dynsection-428';
</script>
<script xlink:href="svgpan.js"/>
<svg id="graph" class="graph">
<g id="viewport">
<title>js_autoinit_get_id</title>
<!-- Node143576 -->
<g id="node1" class="node">
<title>Node143576</title>
<polygon fill="#bfbfbf" stroke="#000000" points="0,-38.5 0,-57.5 92,-57.5 92,-38.5 0,-38.5"/>
<text text-anchor="middle" x="46" y="-45.5" font-family="Helvetica,sans-Serif" font-size="10.00" fill="#000000">js_autoinit_get_id</text>
</g>
<!-- Node143577 -->
<g id="node2" class="node">
<title>Node143577</title>
<g id="a_node2"><a xlink:href="quickjs_8c.html#a23b7fe57d08a1b3b39ba556f9cbb6c76" target="_top" xlink:title="JS_AutoInitProperty">
<polygon fill="none" stroke="#000000" points="128,-66.5 128,-85.5 232,-85.5 232,-66.5 128,-66.5"/>
<text text-anchor="middle" x="180" y="-73.5" font-family="Helvetica,sans-Serif" font-size="10.00" fill="#000000">JS_AutoInitProperty</text>
</a>
</g>
</g>
<!-- Node143576&#45;&gt;Node143577 -->
<g id="edge1" class="edge">
<title>Node143576&#45;&gt;Node143577</title>
<path fill="none" stroke="#191970" d="M101.6292,-59.624C112.5622,-61.9085 123.9113,-64.28 134.4657,-66.4854"/>
<polygon fill="#191970" stroke="#191970" points="102.2449,-56.1771 91.7404,-57.5577 100.8131,-63.0292 102.2449,-56.1771"/>
</g>
<!-- Node144182 -->
<g id="node11" class="node">
<title>Node144182</title>
<g id="a_node11"><a xlink:href="quickjs_8c.html#a315f18f552c506d05a36ab22649c8e3f" target="_top" xlink:title="JS_DumpObject">
<polygon fill="none" stroke="#000000" points="135.5,-19.5 135.5,-38.5 224.5,-38.5 224.5,-19.5 135.5,-19.5"/>
<text text-anchor="middle" x="180" y="-26.5" font-family="Helvetica,sans-Serif" font-size="10.00" fill="#000000">JS_DumpObject</text>
</a>
</g>
</g>
<!-- Node143576&#45;&gt;Node144182 -->
<g id="edge15" class="edge">
<title>Node143576&#45;&gt;Node144182</title>
<path fill="none" stroke="#191970" d="M102.0946,-40.0463C113.1239,-38.4824 124.5583,-36.8611 135.1587,-35.3581"/>
<polygon fill="#191970" stroke="#191970" points="101.5248,-36.592 92.1152,-41.4613 102.5076,-43.5227 101.5248,-36.592"/>
</g>
<!-- Node143578 -->
<g id="node3" class="node">
<title>Node143578</title>
<g id="a_node3"><a xlink:href="quickjs_8c.html#a5762c57ae0c9937e986040c01222833a" target="_top" xlink:title="JS_GetPropertyInternal">
<polygon fill="none" stroke="#000000" points="278,-133.5 278,-152.5 397,-152.5 397,-133.5 278,-133.5"/>
<text text-anchor="middle" x="337.5" y="-140.5" font-family="Helvetica,sans-Serif" font-size="10.00" fill="#000000">JS_GetPropertyInternal</text>
</a>
</g>
</g>
<!-- Node143577&#45;&gt;Node143578 -->
<g id="edge2" class="edge">
<title>Node143577&#45;&gt;Node143578</title>
<path fill="none" stroke="#191970" d="M211.9423,-89.5882C242.5544,-102.6105 287.9781,-121.9336 314.976,-133.4183"/>
<polygon fill="#191970" stroke="#191970" points="213.138,-86.2933 202.5659,-85.5995 210.3978,-92.7347 213.138,-86.2933"/>
</g>
<!-- Node143941 -->
<g id="node9" class="node">
<title>Node143941</title>
<g id="a_node9"><a xlink:href="quickjs_8c.html#ad13892c0a0f11781b566808876658099" target="_top" xlink:title="JS_GetOwnPropertyInternal">
<polygon fill="none" stroke="#ff0000" points="268,-76.5 268,-95.5 407,-95.5 407,-76.5 268,-76.5"/>
<text text-anchor="middle" x="337.5" y="-83.5" font-family="Helvetica,sans-Serif" font-size="10.00" fill="#000000">JS_GetOwnPropertyInternal</text>
</a>
</g>
</g>
<!-- Node143577&#45;&gt;Node143941 -->
<g id="edge11" class="edge">
<title>Node143577&#45;&gt;Node143941</title>
<path fill="none" stroke="#191970" d="M242.1413,-79.9455C250.5799,-80.4813 259.2852,-81.034 267.8451,-81.5775"/>
<polygon fill="#191970" stroke="#191970" points="242.2096,-76.4429 232.0079,-79.3021 241.766,-83.4288 242.2096,-76.4429"/>
</g>
<!-- Node143703 -->
<g id="node10" class="node">
<title>Node143703</title>
<g id="a_node10"><a xlink:href="quickjs_8c.html#ad7f03358a8088ca920ab308225c6b2e6" target="_top" xlink:title="JS_SetPropertyInternal">
<polygon fill="none" stroke="#ff0000" points="278.5,-38.5 278.5,-57.5 396.5,-57.5 396.5,-38.5 278.5,-38.5"/>
<text text-anchor="middle" x="337.5" y="-45.5" font-family="Helvetica,sans-Serif" font-size="10.00" fill="#000000">JS_SetPropertyInternal</text>
</a>
</g>
</g>
<!-- Node143577&#45;&gt;Node143703 -->
<g id="edge13" class="edge">
<title>Node143577&#45;&gt;Node143703</title>
<path fill="none" stroke="#191970" d="M241.9544,-64.9859C255.8273,-62.5196 270.4296,-59.9236 283.9287,-57.5238"/>
<polygon fill="#191970" stroke="#191970" points="241.2409,-61.5578 232.0079,-66.7542 242.4662,-68.4497 241.2409,-61.5578"/>
</g>
<!-- Node143579 -->
<g id="node4" class="node">
<title>Node143579</title>
<g id="a_node4"><a xlink:href="quickjs_8h.html#a89b7c8686c7eee70b86be722ee4730ad" target="_top" xlink:title="JS_GetProperty">
<polygon fill="none" stroke="#ff0000" points="446,-228.5 446,-247.5 532,-247.5 532,-228.5 446,-228.5"/>
<text text-anchor="middle" x="489" y="-235.5" font-family="Helvetica,sans-Serif" font-size="10.00" fill="#000000">JS_GetProperty</text>
</a>
</g>
</g>
<!-- Node143578&#45;&gt;Node143579 -->
<g id="edge3" class="edge">
<title>Node143578&#45;&gt;Node143579</title>
<path fill="none" stroke="#191970" d="M359.0644,-158.5495C380.0699,-173.4457 413.1156,-196.2232 443,-214 451.5157,-219.0656 461.2063,-224.2091 469.4898,-228.4283"/>
<polygon fill="#191970" stroke="#191970" points="361.0171,-155.6433 350.8435,-152.6855 356.9521,-161.3421 361.0171,-155.6433"/>
</g>
<!-- Node143585 -->
<g id="node5" class="node">
<title>Node143585</title>
<g id="a_node5"><a xlink:href="quickjs_8c.html#ac2894ff4edcdb4e6841bcce9c76081e3" target="_top" xlink:title="JS_CallInternal">
<polygon fill="none" stroke="#ff0000" points="571,-171.5 571,-190.5 654,-190.5 654,-171.5 571,-171.5"/>
<text text-anchor="middle" x="612.5" y="-178.5" font-family="Helvetica,sans-Serif" font-size="10.00" fill="#000000">JS_CallInternal</text>
</a>
</g>
</g>
<!-- Node143578&#45;&gt;Node143585 -->
<g id="edge8" class="edge">
<title>Node143578&#45;&gt;Node143585</title>
<path fill="none" stroke="#191970" d="M366.768,-156.6424C387.5357,-165.5444 416.3452,-176.346 443,-181 486.048,-188.5164 536.1887,-187.3126 570.7083,-184.9762"/>
<polygon fill="#191970" stroke="#191970" points="368.1096,-153.409 357.5466,-152.5879 365.2921,-159.8169 368.1096,-153.409"/>
</g>
<!-- Node144181 -->
<g id="node6" class="node">
<title>Node144181</title>
<g id="a_node6"><a xlink:href="quickjs_8c.html#a0e8d8152892d3235c94ec6df17c87d13" target="_top" xlink:title="JS_GetGlobalVar">
<polygon fill="none" stroke="#000000" points="443,-152.5 443,-171.5 535,-171.5 535,-152.5 443,-152.5"/>
<text text-anchor="middle" x="489" y="-159.5" font-family="Helvetica,sans-Serif" font-size="10.00" fill="#000000">JS_GetGlobalVar</text>
</a>
</g>
</g>
<!-- Node143578&#45;&gt;Node144181 -->
<g id="edge6" class="edge">
<title>Node143578&#45;&gt;Node144181</title>
<path fill="none" stroke="#191970" d="M407.3546,-151.7606C419.3196,-153.2612 431.482,-154.7865 442.638,-156.1856"/>
<polygon fill="#191970" stroke="#191970" points="407.7346,-148.281 397.3768,-150.5093 406.8635,-155.2266 407.7346,-148.281"/>
</g>
<!-- Node144156 -->
<g id="node7" class="node">
<title>Node144156</title>
<g id="a_node7"><a xlink:href="quickjs_8c.html#a6730c3163c357445c0182c52d5a53ca4" target="_top" xlink:title="js_reflect_get">
<polygon fill="none" stroke="#000000" points="451.5,-114.5 451.5,-133.5 526.5,-133.5 526.5,-114.5 451.5,-114.5"/>
<text text-anchor="middle" x="489" y="-121.5" font-family="Helvetica,sans-Serif" font-size="10.00" fill="#000000">js_reflect_get</text>
</a>
</g>
</g>
<!-- Node143578&#45;&gt;Node144156 -->
<g id="edge9" class="edge">
<title>Node143578&#45;&gt;Node144156</title>
<path fill="none" stroke="#191970" d="M407.7176,-134.1938C422.7642,-132.3068 438.1035,-130.3831 451.3437,-128.7226"/>
<polygon fill="#191970" stroke="#191970" points="406.8635,-130.7734 397.3768,-135.4907 407.7346,-137.719 406.8635,-130.7734"/>
</g>
<!-- Node143913 -->
<g id="node8" class="node">
<title>Node143913</title>
<g id="a_node8"><a xlink:href="quickjs_8c.html#a45df491949e8e055e732eb13c446d47b" target="_top" xlink:title="js_proxy_get">
<polygon fill="none" stroke="#000000" points="453,-76.5 453,-95.5 525,-95.5 525,-76.5 453,-76.5"/>
<text text-anchor="middle" x="489" y="-83.5" font-family="Helvetica,sans-Serif" font-size="10.00" fill="#000000">js_proxy_get</text>
</a>
</g>
</g>
<!-- Node143578&#45;&gt;Node143913 -->
<g id="edge10" class="edge">
<title>Node143578&#45;&gt;Node143913</title>
<path fill="none" stroke="#191970" d="M372.2267,-129.9345C400.0742,-119.4572 438.5135,-104.9949 463.5596,-95.5716"/>
<polygon fill="#191970" stroke="#191970" points="370.9847,-126.6622 362.8577,-133.4595 373.4497,-133.2138 370.9847,-126.6622"/>
</g>
<!-- Node143579&#45;&gt;Node143585 -->
<g id="edge4" class="edge">
<title>Node143579&#45;&gt;Node143585</title>
<path fill="none" stroke="#191970" d="M518.8076,-224.2426C541.3725,-213.8281 571.7902,-199.7892 591.7614,-190.5716"/>
<polygon fill="#191970" stroke="#191970" points="517.284,-221.091 509.6711,-228.4595 520.2175,-227.4467 517.284,-221.091"/>
</g>
<!-- Node143585&#45;&gt;Node143585 -->
<g id="edge5" class="edge">
<title>Node143585&#45;&gt;Node143585</title>
<path fill="none" stroke="#191970" d="M589.8066,-200.0292C591.0445,-205.128 598.6089,-209 612.5,-209 634.1836,-209 640.4515,-199.5653 631.3037,-190.7571"/>
<polygon fill="#191970" stroke="#191970" points="593.0553,-201.3325 593.6963,-190.7571 586.6003,-198.6246 593.0553,-201.3325"/>
</g>
<!-- Node144181&#45;&gt;Node143585 -->
<g id="edge7" class="edge">
<title>Node144181&#45;&gt;Node143585</title>
<path fill="none" stroke="#191970" d="M545.3008,-170.6617C553.8768,-171.981 562.5941,-173.3222 570.7841,-174.5822"/>
<polygon fill="#191970" stroke="#191970" points="545.7542,-167.1903 535.3382,-169.129 544.6897,-174.1089 545.7542,-167.1903"/>
</g>
<!-- Node143941&#45;&gt;Node143913 -->
<g id="edge12" class="edge">
<title>Node143941&#45;&gt;Node143913</title>
<path fill="none" stroke="#191970" d="M417.1066,-86C429.6509,-86 442.0538,-86 452.9345,-86"/>
<polygon fill="#191970" stroke="#191970" points="417.0424,-82.5001 407.0423,-86 417.0423,-89.5001 417.0424,-82.5001"/>
</g>
<!-- Node143703&#45;&gt;Node143585 -->
<g id="edge14" class="edge">
<title>Node143703&#45;&gt;Node143585</title>
<path fill="none" stroke="#191970" d="M407.0625,-40.662C447.0813,-39.7191 496.8316,-44.3885 535,-67 576.5921,-91.6398 600.7997,-148.3735 609.1616,-171.2118"/>
<polygon fill="#191970" stroke="#191970" points="406.7153,-37.1721 396.847,-41.0276 406.9658,-44.1676 406.7153,-37.1721"/>
</g>
<!-- Node144183 -->
<g id="node12" class="node">
<title>Node144183</title>
<g id="a_node12"><a xlink:href="quickjs_8c.html#a9ca2f6b32f0e892e8031147aa8edf270" target="_top" xlink:title="JS_DumpGCObject">
<polygon fill="none" stroke="#000000" points="285.5,-.5 285.5,-19.5 389.5,-19.5 389.5,-.5 285.5,-.5"/>
<text text-anchor="middle" x="337.5" y="-7.5" font-family="Helvetica,sans-Serif" font-size="10.00" fill="#000000">JS_DumpGCObject</text>
</a>
</g>
</g>
<!-- Node144182&#45;&gt;Node144183 -->
<g id="edge16" class="edge">
<title>Node144182&#45;&gt;Node144183</title>
<path fill="none" stroke="#191970" d="M234.7241,-22.3984C251.1722,-20.4142 269.1667,-18.2434 285.4375,-16.2806"/>
<polygon fill="#191970" stroke="#191970" points="234.2207,-18.9336 224.7119,-23.6062 235.0591,-25.8832 234.2207,-18.9336"/>
</g>
</g>
</svg>
        <g id="navigator" transform="translate(0 0)" fill="#404254">
                <rect fill="#f2f5e9" fill-opacity="0.5" stroke="#606060" stroke-width=".5" x="0" y="0" width="60" height="60"/>
                <use id="zoomplus" xlink:href="#zoomPlus" x="17" y="9" onmousedown="handleZoom(evt,'in')"/>
                <use id="zoomminus" xlink:href="#zoomMin" x="42" y="9" onmousedown="handleZoom(evt,'out')"/>
                <use id="reset" xlink:href="#resetDef" x="30" y="36" onmousedown="handleReset()"/>
                <g id="arrowUp" xlink:href="#dirArrow" transform="translate(30 24)" onmousedown="handlePan(0,-1)">
                  <use xlink:href="#rim" fill="#404040">
                        <set attributeName="fill" to="#808080" begin="arrowUp.mouseover" end="arrowUp.mouseout"/>
                  </use>
                  <path fill="none" stroke="white" stroke-width="1.5" d="M0,-3.0v7 M-2.5,-0.5L0,-3.0L2.5,-0.5"/>
                </g>
                <g id="arrowRight" xlink:href="#dirArrow" transform="rotate(90) translate(36 -43)" onmousedown="handlePan(1,0)">
                  <use xlink:href="#rim" fill="#404040">
                        <set attributeName="fill" to="#808080" begin="arrowRight.mouseover" end="arrowRight.mouseout"/>
                  </use>
                  <path fill="none" stroke="white" stroke-width="1.5" d="M0,-3.0v7 M-2.5,-0.5L0,-3.0L2.5,-0.5"/>
                </g>
                <g id="arrowDown" xlink:href="#dirArrow" transform="rotate(180) translate(-30 -48)" onmousedown="handlePan(0,1)">
                  <use xlink:href="#rim" fill="#404040">
                        <set attributeName="fill" to="#808080" begin="arrowDown.mouseover" end="arrowDown.mouseout"/>
                  </use>
                  <path fill="none" stroke="white" stroke-width="1.5" d="M0,-3.0v7 M-2.5,-0.5L0,-3.0L2.5,-0.5"/>
                </g>
                <g id="arrowLeft" xlink:href="#dirArrow" transform="rotate(270) translate(-36 17)" onmousedown="handlePan(-1,0)">
                  <use xlink:href="#rim" fill="#404040">
                        <set attributeName="fill" to="#808080" begin="arrowLeft.mouseover" end="arrowLeft.mouseout"/>
                  </use>
                  <path fill="none" stroke="white" stroke-width="1.5" d="M0,-3.0v7 M-2.5,-0.5L0,-3.0L2.5,-0.5"/>
                </g>
        </g>
        <svg viewBox="0 0 15 15" width="100%" height="30px" preserveAspectRatio="xMaxYMin meet">
         <g id="arrow_out" transform="scale(0.3 0.3)">
          <a xlink:href="quickjs_8c_a822a6c16ff56aeab5fa7e87a076c6b06_icgraph_org.svg" target="_base">
           <rect id="button" ry="5" rx="5" y="6" x="6" height="38" width="38"
                fill="#f2f5e9" fill-opacity="0.5" stroke="#606060" stroke-width="1.0"/>
           <path id="arrow"
             d="M 11.500037,31.436501 C 11.940474,20.09759 22.043105,11.32322 32.158766,21.979434 L 37.068811,17.246167 C 37.068811,17.246167 37.088388,32 37.088388,32 L 22.160133,31.978069 C 22.160133,31.978069 26.997745,27.140456 26.997745,27.140456 C 18.528582,18.264221 13.291696,25.230495 11.500037,31.436501 z"
             style="fill:#404040;"/>
          </a>
         </g>
        </svg>
</svg>
