<?xml version="1.0" encoding="UTF-8" standalone="no"?>
<!DOCTYPE svg PUBLIC "-//W3C//DTD SVG 1.1//EN"
 "http://www.w3.org/Graphics/SVG/1.1/DTD/svg11.dtd">
<!-- Generated by graphviz version 2.40.1 (20161225.0304)
 -->
<!-- Title: gc_free_cycles Pages: 1 -->
<svg width="722pt" height="598pt"
 viewBox="0.00 0.00 722.00 598.00" xmlns="http://www.w3.org/2000/svg" xmlns:xlink="http://www.w3.org/1999/xlink">
<g id="graph0" class="graph" transform="scale(1 1) rotate(0) translate(4 594)">
<title>gc_free_cycles</title>
<!-- Node156827 -->
<g id="node1" class="node">
<title>Node156827</title>
<polygon fill="#bfbfbf" stroke="#000000" points="0,-342.5 0,-361.5 83,-361.5 83,-342.5 0,-342.5"/>
<text text-anchor="middle" x="41.5" y="-349.5" font-family="Helvetica,sans-Serif" font-size="10.00" fill="#000000">gc_free_cycles</text>
</g>
<!-- Node156828 -->
<g id="node2" class="node">
<title>Node156828</title>
<g id="a_node2"><a xlink:href="quickjs_8c.html#a3d1c7a8d6aa5a9ba8ea8ef2828db188a" target="_top" xlink:title="free_gc_object">
<polygon fill="none" stroke="#000000" points="119,-380.5 119,-399.5 199,-399.5 199,-380.5 119,-380.5"/>
<text text-anchor="middle" x="159" y="-387.5" font-family="Helvetica,sans-Serif" font-size="10.00" fill="#000000">free_gc_object</text>
</a>
</g>
</g>
<!-- Node156827&#45;&gt;Node156828 -->
<g id="edge1" class="edge">
<title>Node156827&#45;&gt;Node156828</title>
<path fill="none" stroke="#191970" d="M71.1502,-361.589C85.9009,-366.3594 103.9258,-372.1888 119.801,-377.3229"/>
<polygon fill="#191970" stroke="#191970" points="118.7675,-380.667 129.3593,-380.4141 120.9215,-374.0067 118.7675,-380.667"/>
</g>
<!-- Node156837 -->
<g id="node6" class="node">
<title>Node156837</title>
<g id="a_node6"><a xlink:href="quickjs_8c.html#a69e19dda8a93d613203e0baa06f0ed8d" target="_top" xlink:title="js_free_rt">
<polygon fill="none" stroke="#000000" points="554.5,-342.5 554.5,-361.5 611.5,-361.5 611.5,-342.5 554.5,-342.5"/>
<text text-anchor="middle" x="583" y="-349.5" font-family="Helvetica,sans-Serif" font-size="10.00" fill="#000000">js_free_rt</text>
</a>
</g>
</g>
<!-- Node156827&#45;&gt;Node156837 -->
<g id="edge28" class="edge">
<title>Node156827&#45;&gt;Node156837</title>
<path fill="none" stroke="#191970" d="M83.0915,-352C184.8831,-352 445.4112,-352 544.2145,-352"/>
<polygon fill="#191970" stroke="#191970" points="544.3553,-355.5001 554.3552,-352 544.3552,-348.5001 544.3553,-355.5001"/>
</g>
<!-- Node156845 -->
<g id="node8" class="node">
<title>Node156845</title>
<g id="a_node8"><a xlink:href="list_8h.html#ab60d5d18869ebeb5d6ab694289576fa7" target="_top" xlink:title="list_del">
<polygon fill="none" stroke="#000000" points="667,-209.5 667,-228.5 714,-228.5 714,-209.5 667,-209.5"/>
<text text-anchor="middle" x="690.5" y="-216.5" font-family="Helvetica,sans-Serif" font-size="10.00" fill="#000000">list_del</text>
</a>
</g>
</g>
<!-- Node156827&#45;&gt;Node156845 -->
<g id="edge30" class="edge">
<title>Node156827&#45;&gt;Node156845</title>
<path fill="none" stroke="#191970" d="M44.188,-342.2297C59.1531,-290.1955 137.229,-48 294,-48 294,-48 294,-48 444,-48 528.8097,-48 564.8047,-32.9824 631,-86 667.0645,-114.885 681.9557,-170.2632 687.5279,-199.621"/>
<polygon fill="#191970" stroke="#191970" points="684.0813,-200.2306 689.2319,-209.4891 690.9792,-199.0394 684.0813,-200.2306"/>
</g>
<!-- Node156858 -->
<g id="node11" class="node">
<title>Node156858</title>
<g id="a_node11"><a xlink:href="list_8h.html#a3a5d0733570b2fafc18f4c71a2968ea5" target="_top" xlink:title="list_add_tail">
<polygon fill="none" stroke="#ff0000" points="410,-380.5 410,-399.5 478,-399.5 478,-380.5 410,-380.5"/>
<text text-anchor="middle" x="444" y="-387.5" font-family="Helvetica,sans-Serif" font-size="10.00" fill="#000000">list_add_tail</text>
</a>
</g>
</g>
<!-- Node156827&#45;&gt;Node156858 -->
<g id="edge29" class="edge">
<title>Node156827&#45;&gt;Node156858</title>
<path fill="none" stroke="#191970" d="M50.383,-361.6098C63.7246,-375.2546 90.4348,-399.6265 119,-409 169.8413,-425.6833 323.2657,-407.2939 399.7143,-396.5866"/>
<polygon fill="#191970" stroke="#191970" points="400.5628,-400.0014 409.972,-395.1312 399.5794,-393.0708 400.5628,-400.0014"/>
</g>
<!-- Node156865 -->
<g id="node17" class="node">
<title>Node156865</title>
<g id="a_node17"><a xlink:href="list_8h.html#a663527a4d757540b2177bef0db1ce5c0" target="_top" xlink:title="init_list_head">
<polygon fill="none" stroke="#000000" points="122,-.5 122,-19.5 196,-19.5 196,-.5 122,-.5"/>
<text text-anchor="middle" x="159" y="-7.5" font-family="Helvetica,sans-Serif" font-size="10.00" fill="#000000">init_list_head</text>
</a>
</g>
</g>
<!-- Node156827&#45;&gt;Node156865 -->
<g id="edge27" class="edge">
<title>Node156827&#45;&gt;Node156865</title>
<path fill="none" stroke="#191970" d="M42.8301,-342.3694C49.5379,-294.8766 80.8418,-85.8201 119,-34 121.416,-30.719 124.4274,-27.8006 127.7068,-25.2291"/>
<polygon fill="#191970" stroke="#191970" points="129.851,-28.0059 136.2242,-19.5423 125.9641,-22.1842 129.851,-28.0059"/>
</g>
<!-- Node156829 -->
<g id="node3" class="node">
<title>Node156829</title>
<g id="a_node3"><a xlink:href="quickjs_8c.html#adc4a49d7eb1cc1ec4b3a8c37ab8cb075" target="_top" xlink:title="free_function_bytecode">
<polygon fill="none" stroke="#000000" points="235,-247.5 235,-266.5 353,-266.5 353,-247.5 235,-247.5"/>
<text text-anchor="middle" x="294" y="-254.5" font-family="Helvetica,sans-Serif" font-size="10.00" fill="#000000">free_function_bytecode</text>
</a>
</g>
</g>
<!-- Node156828&#45;&gt;Node156829 -->
<g id="edge2" class="edge">
<title>Node156828&#45;&gt;Node156829</title>
<path fill="none" stroke="#191970" d="M168.7089,-380.435C191.3663,-358.1132 247.9823,-302.336 276.7047,-274.039"/>
<polygon fill="#191970" stroke="#191970" points="279.3476,-276.3486 284.0149,-266.8372 274.4349,-271.362 279.3476,-276.3486"/>
</g>
<!-- Node156860 -->
<g id="node12" class="node">
<title>Node156860</title>
<g id="a_node12"><a xlink:href="quickjs_8c.html#a41a4918c15192dc3489dc3ecb3fdc24d" target="_top" xlink:title="free_object">
<polygon fill="none" stroke="#000000" points="261.5,-456.5 261.5,-475.5 326.5,-475.5 326.5,-456.5 261.5,-456.5"/>
<text text-anchor="middle" x="294" y="-463.5" font-family="Helvetica,sans-Serif" font-size="10.00" fill="#000000">free_object</text>
</a>
</g>
</g>
<!-- Node156828&#45;&gt;Node156860 -->
<g id="edge15" class="edge">
<title>Node156828&#45;&gt;Node156860</title>
<path fill="none" stroke="#191970" d="M176.0978,-399.6255C199.3269,-412.7025 241.0581,-436.1957 268.1307,-451.4366"/>
<polygon fill="#191970" stroke="#191970" points="266.6099,-454.5969 277.041,-456.4527 270.0439,-448.4971 266.6099,-454.5969"/>
</g>
<!-- Node156830 -->
<g id="node4" class="node">
<title>Node156830</title>
<g id="a_node4"><a xlink:href="quickjs_8c.html#a3242b1f6e8d8ecc3c27ee7c2caa647a3" target="_top" xlink:title="free_bytecode_atoms">
<polygon fill="none" stroke="#ff0000" points="389,-114.5 389,-133.5 499,-133.5 499,-114.5 389,-114.5"/>
<text text-anchor="middle" x="444" y="-121.5" font-family="Helvetica,sans-Serif" font-size="10.00" fill="#000000">free_bytecode_atoms</text>
</a>
</g>
</g>
<!-- Node156829&#45;&gt;Node156830 -->
<g id="edge3" class="edge">
<title>Node156829&#45;&gt;Node156830</title>
<path fill="none" stroke="#191970" d="M300.2473,-247.2759C314.0082,-226.5217 348.9178,-177.3898 389,-148 394.2379,-144.1594 400.1865,-140.766 406.189,-137.8298"/>
<polygon fill="#191970" stroke="#191970" points="407.8977,-140.8986 415.5715,-133.5936 405.0171,-134.5188 407.8977,-140.8986"/>
</g>
<!-- Node156832 -->
<g id="node5" class="node">
<title>Node156832</title>
<g id="a_node5"><a xlink:href="quickjs_8c.html#a5a0aca30abbb4d4ae86746541bf4cbc7" target="_top" xlink:title="JS_FreeAtomRT">
<polygon fill="none" stroke="#ff0000" points="538,-95.5 538,-114.5 628,-114.5 628,-95.5 538,-95.5"/>
<text text-anchor="middle" x="583" y="-102.5" font-family="Helvetica,sans-Serif" font-size="10.00" fill="#000000">JS_FreeAtomRT</text>
</a>
</g>
</g>
<!-- Node156829&#45;&gt;Node156832 -->
<g id="edge6" class="edge">
<title>Node156829&#45;&gt;Node156832</title>
<path fill="none" stroke="#191970" d="M296.5632,-247.1091C304.5322,-218.6676 331.8421,-136.6796 389,-105 434.9926,-79.5087 497.0429,-85.1102 538.4581,-93.3606"/>
<polygon fill="#191970" stroke="#191970" points="537.7525,-96.7888 548.2611,-95.4395 539.2047,-89.941 537.7525,-96.7888"/>
</g>
<!-- Node156829&#45;&gt;Node156837 -->
<g id="edge5" class="edge">
<title>Node156829&#45;&gt;Node156837</title>
<path fill="none" stroke="#191970" d="M353.0121,-263.8381C394.8527,-270.0036 451.7311,-281.091 499,-300 522.1106,-309.245 546.0137,-324.7193 562.3837,-336.3892"/>
<polygon fill="#191970" stroke="#191970" points="560.5082,-339.3532 570.6503,-342.4173 564.6326,-333.6973 560.5082,-339.3532"/>
</g>
<!-- Node156838 -->
<g id="node7" class="node">
<title>Node156838</title>
<g id="a_node7"><a xlink:href="quickjs_8c.html#a1b4fe6eb1b7bcaec6713bd5ac2921f1b" target="_top" xlink:title="JS_FreeContext">
<polygon fill="none" stroke="#ff0000" points="400,-228.5 400,-247.5 488,-247.5 488,-228.5 400,-228.5"/>
<text text-anchor="middle" x="444" y="-235.5" font-family="Helvetica,sans-Serif" font-size="10.00" fill="#000000">JS_FreeContext</text>
</a>
</g>
</g>
<!-- Node156829&#45;&gt;Node156838 -->
<g id="edge7" class="edge">
<title>Node156829&#45;&gt;Node156838</title>
<path fill="none" stroke="#191970" d="M353.284,-249.4907C365.3179,-247.9664 377.9171,-246.3705 389.7656,-244.8697"/>
<polygon fill="#191970" stroke="#191970" points="390.4708,-248.3084 399.9517,-243.5794 389.5911,-241.3639 390.4708,-248.3084"/>
</g>
<!-- Node156846 -->
<g id="node9" class="node">
<title>Node156846</title>
<g id="a_node9"><a xlink:href="quickjs_8c.html#adfb3133f30938e2db9b525ade5fc09cf" target="_top" xlink:title="remove_gc_object">
<polygon fill="none" stroke="#000000" points="535,-190.5 535,-209.5 631,-209.5 631,-190.5 535,-190.5"/>
<text text-anchor="middle" x="583" y="-197.5" font-family="Helvetica,sans-Serif" font-size="10.00" fill="#000000">remove_gc_object</text>
</a>
</g>
</g>
<!-- Node156829&#45;&gt;Node156846 -->
<g id="edge14" class="edge">
<title>Node156829&#45;&gt;Node156846</title>
<path fill="none" stroke="#191970" d="M302.5269,-247.4782C317.8893,-231.1244 352.071,-198.2751 389,-186 439.5551,-169.1956 501.4789,-178.4207 541.5582,-187.9747"/>
<polygon fill="#191970" stroke="#191970" points="540.9561,-191.4318 551.5062,-190.4603 542.6529,-184.6406 540.9561,-191.4318"/>
</g>
<!-- Node156842 -->
<g id="node10" class="node">
<title>Node156842</title>
<g id="a_node10"><a xlink:href="quickjs_8h.html#ab8db583fa5e7c2b1935854a42859daed" target="_top" xlink:title="JS_FreeValueRT">
<polygon fill="none" stroke="#ff0000" points="537,-456.5 537,-475.5 629,-475.5 629,-456.5 537,-456.5"/>
<text text-anchor="middle" x="583" y="-463.5" font-family="Helvetica,sans-Serif" font-size="10.00" fill="#000000">JS_FreeValueRT</text>
</a>
</g>
</g>
<!-- Node156829&#45;&gt;Node156842 -->
<g id="edge12" class="edge">
<title>Node156829&#45;&gt;Node156842</title>
<path fill="none" stroke="#191970" d="M316.7628,-266.5657C356.3041,-283.8277 439.1734,-322.9026 499,-371 527.8468,-394.1913 555.0328,-427.8942 570.2982,-448.3002"/>
<polygon fill="#191970" stroke="#191970" points="567.5158,-450.4244 576.2589,-456.4086 573.1559,-446.2783 567.5158,-450.4244"/>
</g>
<!-- Node156829&#45;&gt;Node156858 -->
<g id="edge13" class="edge">
<title>Node156829&#45;&gt;Node156858</title>
<path fill="none" stroke="#191970" d="M304.7876,-266.565C330.0701,-288.9822 393.4076,-345.1414 425.1905,-373.3222"/>
<polygon fill="#191970" stroke="#191970" points="423.101,-376.1473 432.9054,-380.1628 427.7451,-370.9096 423.101,-376.1473"/>
</g>
<!-- Node156830&#45;&gt;Node156832 -->
<g id="edge4" class="edge">
<title>Node156830&#45;&gt;Node156832</title>
<path fill="none" stroke="#191970" d="M499.3359,-116.4361C508.6764,-115.1593 518.3733,-113.8339 527.7126,-112.5573"/>
<polygon fill="#191970" stroke="#191970" points="528.2387,-116.018 537.6725,-111.1958 527.2906,-109.0825 528.2387,-116.018"/>
</g>
<!-- Node156838&#45;&gt;Node156837 -->
<g id="edge8" class="edge">
<title>Node156838&#45;&gt;Node156837</title>
<path fill="none" stroke="#191970" d="M471.7473,-247.5204C480.8555,-251.305 490.7499,-256.164 499,-262 528.0524,-282.5511 554.8467,-314.4404 570.0307,-334.2262"/>
<polygon fill="#191970" stroke="#191970" points="567.352,-336.4877 576.1566,-342.381 572.9488,-332.2834 567.352,-336.4877"/>
</g>
<!-- Node156838&#45;&gt;Node156845 -->
<g id="edge9" class="edge">
<title>Node156838&#45;&gt;Node156845</title>
<path fill="none" stroke="#191970" d="M488.0693,-234.6032C536.4277,-230.8758 612.9887,-224.9745 656.7858,-221.5987"/>
<polygon fill="#191970" stroke="#191970" points="657.2155,-225.076 666.9169,-220.8178 656.6775,-218.0967 657.2155,-225.076"/>
</g>
<!-- Node156838&#45;&gt;Node156846 -->
<g id="edge10" class="edge">
<title>Node156838&#45;&gt;Node156846</title>
<path fill="none" stroke="#191970" d="M479.0756,-228.411C497.0191,-223.5056 519.0584,-217.4804 538.2167,-212.2429"/>
<polygon fill="#191970" stroke="#191970" points="539.2126,-215.5992 547.9357,-209.5859 537.3666,-208.8469 539.2126,-215.5992"/>
</g>
<!-- Node156846&#45;&gt;Node156845 -->
<g id="edge11" class="edge">
<title>Node156846&#45;&gt;Node156845</title>
<path fill="none" stroke="#191970" d="M631.0904,-208.4997C639.8165,-210.042 648.7439,-211.6198 656.9387,-213.0682"/>
<polygon fill="#191970" stroke="#191970" points="656.4001,-216.5272 666.8567,-214.8212 657.6185,-209.6341 656.4001,-216.5272"/>
</g>
<!-- Node156860&#45;&gt;Node156837 -->
<g id="edge19" class="edge">
<title>Node156860&#45;&gt;Node156837</title>
<path fill="none" stroke="#191970" d="M326.7464,-460.3101C368.2006,-452.349 441.1773,-435.778 499,-409 522.6135,-398.0645 546.9322,-380.7811 563.287,-368.1106"/>
<polygon fill="#191970" stroke="#191970" points="565.8267,-370.5644 571.4986,-361.6156 561.4841,-365.0741 565.8267,-370.5644"/>
</g>
<!-- Node156860&#45;&gt;Node156846 -->
<g id="edge22" class="edge">
<title>Node156860&#45;&gt;Node156846</title>
<path fill="none" stroke="#191970" d="M297.0291,-456.4106C310.8911,-412.7981 368.4817,-234.6183 389,-219 427.3104,-189.8385 482.9559,-187.2213 524.8368,-190.6515"/>
<polygon fill="#191970" stroke="#191970" points="524.6109,-194.1457 534.8982,-191.6118 525.276,-187.1774 524.6109,-194.1457"/>
</g>
<!-- Node156860&#45;&gt;Node156858 -->
<g id="edge21" class="edge">
<title>Node156860&#45;&gt;Node156858</title>
<path fill="none" stroke="#191970" d="M322.0587,-456.4019C332.1044,-452.4991 343.3282,-447.5852 353,-442 370.5532,-431.8635 371.5755,-424.3562 389,-414 395.3418,-410.2308 402.3834,-406.7105 409.2525,-403.5897"/>
<polygon fill="#191970" stroke="#191970" points="410.6575,-406.7954 418.4305,-399.596 407.8644,-400.3768 410.6575,-406.7954"/>
</g>
<!-- Node156861 -->
<g id="node13" class="node">
<title>Node156861</title>
<g id="a_node13"><a xlink:href="quickjs_8c.html#af4274494e2e45f9018154ffcbb7e89e4" target="_top" xlink:title="free_property">
<polygon fill="none" stroke="#ff0000" points="407,-570.5 407,-589.5 481,-589.5 481,-570.5 407,-570.5"/>
<text text-anchor="middle" x="444" y="-577.5" font-family="Helvetica,sans-Serif" font-size="10.00" fill="#000000">free_property</text>
</a>
</g>
</g>
<!-- Node156860&#45;&gt;Node156861 -->
<g id="edge16" class="edge">
<title>Node156860&#45;&gt;Node156861</title>
<path fill="none" stroke="#191970" d="M301.0431,-475.5024C315.5034,-494.384 350.4402,-536.8782 389,-561 392.1849,-562.9924 395.6052,-564.8069 399.1251,-566.4531"/>
<polygon fill="#191970" stroke="#191970" points="398.0071,-569.7797 408.5823,-570.4243 400.7173,-563.3256 398.0071,-569.7797"/>
</g>
<!-- Node156855 -->
<g id="node14" class="node">
<title>Node156855</title>
<g id="a_node14"><a xlink:href="quickjs_8c.html#a643df594b75933007bcdbb071b5ea8c5" target="_top" xlink:title="get_shape_prop">
<polygon fill="none" stroke="#000000" points="401,-532.5 401,-551.5 487,-551.5 487,-532.5 401,-532.5"/>
<text text-anchor="middle" x="444" y="-539.5" font-family="Helvetica,sans-Serif" font-size="10.00" fill="#000000">get_shape_prop</text>
</a>
</g>
</g>
<!-- Node156860&#45;&gt;Node156855 -->
<g id="edge18" class="edge">
<title>Node156860&#45;&gt;Node156855</title>
<path fill="none" stroke="#191970" d="M307.9738,-475.6534C326.062,-487.8469 358.8453,-508.9318 389,-523 393.4573,-525.0795 398.2086,-527.0553 402.9808,-528.8915"/>
<polygon fill="#191970" stroke="#191970" points="402.1245,-532.305 412.7183,-532.4533 404.5292,-525.731 402.1245,-532.305"/>
</g>
<!-- Node156852 -->
<g id="node15" class="node">
<title>Node156852</title>
<g id="a_node15"><a xlink:href="quickjs_8c.html#a3a9f27520d96cf58aa5bd7359e9cddee" target="_top" xlink:title="js_free_shape">
<polygon fill="none" stroke="#ff0000" points="405.5,-494.5 405.5,-513.5 482.5,-513.5 482.5,-494.5 405.5,-494.5"/>
<text text-anchor="middle" x="444" y="-501.5" font-family="Helvetica,sans-Serif" font-size="10.00" fill="#000000">js_free_shape</text>
</a>
</g>
</g>
<!-- Node156860&#45;&gt;Node156852 -->
<g id="edge20" class="edge">
<title>Node156860&#45;&gt;Node156852</title>
<path fill="none" stroke="#191970" d="M326.5478,-474.2454C347.0384,-479.4364 373.8327,-486.2243 396.6545,-492.0058"/>
<polygon fill="#191970" stroke="#191970" points="395.9385,-495.4349 406.4918,-494.4979 397.6576,-488.6493 395.9385,-495.4349"/>
</g>
<!-- Node156864 -->
<g id="node16" class="node">
<title>Node156864</title>
<g id="a_node16"><a xlink:href="quickjs_8c.html#a818cf98b25b3e462b79b5d8f8c6517da" target="_top" xlink:title="reset_weak_ref">
<polygon fill="none" stroke="#000000" points="402.5,-456.5 402.5,-475.5 485.5,-475.5 485.5,-456.5 402.5,-456.5"/>
<text text-anchor="middle" x="444" y="-463.5" font-family="Helvetica,sans-Serif" font-size="10.00" fill="#000000">reset_weak_ref</text>
</a>
</g>
</g>
<!-- Node156860&#45;&gt;Node156864 -->
<g id="edge23" class="edge">
<title>Node156860&#45;&gt;Node156864</title>
<path fill="none" stroke="#191970" d="M326.5478,-466C345.7389,-466 370.4594,-466 392.267,-466"/>
<polygon fill="#191970" stroke="#191970" points="392.3754,-469.5001 402.3754,-466 392.3754,-462.5001 392.3754,-469.5001"/>
</g>
<!-- Node156861&#45;&gt;Node156842 -->
<g id="edge17" class="edge">
<title>Node156861&#45;&gt;Node156842</title>
<path fill="none" stroke="#191970" d="M480.1824,-570.4904C486.7337,-567.9515 493.2906,-564.8202 499,-561 530.0808,-540.2033 556.8983,-505.1794 571.4262,-483.9647"/>
<polygon fill="#191970" stroke="#191970" points="574.4052,-485.806 577.0424,-475.5446 568.5817,-481.9217 574.4052,-485.806"/>
</g>
<!-- Node156864&#45;&gt;Node156837 -->
<g id="edge24" class="edge">
<title>Node156864&#45;&gt;Node156837</title>
<path fill="none" stroke="#191970" d="M473.2202,-456.4657C482.0271,-452.774 491.3716,-447.9733 499,-442 519.7169,-425.778 517.123,-414.3069 535,-395 543.7297,-385.572 554.2869,-375.9493 563.2752,-368.2039"/>
<polygon fill="#191970" stroke="#191970" points="565.616,-370.8081 570.9911,-361.678 561.0956,-365.4633 565.616,-370.8081"/>
</g>
<!-- Node156864&#45;&gt;Node156845 -->
<g id="edge26" class="edge">
<title>Node156864&#45;&gt;Node156845</title>
<path fill="none" stroke="#191970" d="M479.9225,-456.457C521.6677,-443.6223 590.0451,-416.934 631,-371 665.7688,-332.0042 681.3178,-270.3439 687.2976,-238.887"/>
<polygon fill="#191970" stroke="#191970" points="690.7931,-239.2184 689.0856,-228.7621 683.8998,-238.001 690.7931,-239.2184"/>
</g>
<!-- Node156864&#45;&gt;Node156842 -->
<g id="edge25" class="edge">
<title>Node156864&#45;&gt;Node156842</title>
<path fill="none" stroke="#191970" d="M485.7046,-466C498.5768,-466 512.9721,-466 526.6605,-466"/>
<polygon fill="#191970" stroke="#191970" points="526.9533,-469.5001 536.9533,-466 526.9533,-462.5001 526.9533,-469.5001"/>
</g>
</g>
</svg>
