<?xml version="1.0" encoding="UTF-8" standalone="no"?>
<!DOCTYPE svg PUBLIC "-//W3C//DTD SVG 1.1//EN"
 "http://www.w3.org/Graphics/SVG/1.1/DTD/svg11.dtd">
<!-- Generated by graphviz version 2.40.1 (20161225.0304)
 -->
<!-- Title: js_std_parseExtJSON Pages: 1 -->
<!--zoomable 723 -->
<svg id="main" version="1.1" xmlns="http://www.w3.org/2000/svg" xmlns:xlink="http://www.w3.org/1999/xlink" xml:space="preserve" onload="init(evt)">
<style type="text/css"><![CDATA[
.edge:hover path { stroke: red; }
.edge:hover polygon { stroke: red; fill: red; }
]]></style>
<script type="text/javascript"><![CDATA[
var edges = document.getElementsByTagName('g');
if (edges && edges.length) {
  for (var i=0;i<edges.length;i++) {
    if (edges[i].id.substr(0,4)=='edge') {
      edges[i].setAttribute('class','edge');
    }
  }
}
]]></script>
        <defs>
                <circle id="rim" cx="0" cy="0" r="7"/>
                <circle id="rim2" cx="0" cy="0" r="3.5"/>
                <g id="zoomPlus">
                        <use xlink:href="#rim" fill="#404040">
                                <set attributeName="fill" to="#808080" begin="zoomplus.mouseover" end="zoomplus.mouseout"/>
                        </use>
                        <path d="M-4,0h8M0,-4v8" fill="none" stroke="white" stroke-width="1.5" pointer-events="none"/>
                </g>
                <g id="zoomMin">
                        <use xlink:href="#rim" fill="#404040">
                                <set attributeName="fill" to="#808080" begin="zoomminus.mouseover" end="zoomminus.mouseout"/>
                        </use>
                        <path d="M-4,0h8" fill="none" stroke="white" stroke-width="1.5" pointer-events="none"/>
                </g>
                <g id="dirArrow">
                        <path fill="none" stroke="white" stroke-width="1.5" d="M0,-3.0v7 M-2.5,-0.5L0,-3.0L2.5,-0.5"/>
                </g>
               <g id="resetDef">
                       <use xlink:href="#rim2" fill="#404040">
                               <set attributeName="fill" to="#808080" begin="reset.mouseover" end="reset.mouseout"/>
                       </use>
               </g>
        </defs>

<script type="text/javascript">
var viewWidth = 1149;
var viewHeight = 723;
var sectionId = 'dynsection-26';
</script>
<script xlink:href="svgpan.js"/>
<svg id="graph" class="graph">
<g id="viewport">
<title>js_std_parseExtJSON</title>
<!-- Node4494 -->
<g id="node1" class="node">
<title>Node4494</title>
<polygon fill="#bfbfbf" stroke="#000000" points="0,-342.5 0,-361.5 114,-361.5 114,-342.5 0,-342.5"/>
<text text-anchor="middle" x="57" y="-349.5" font-family="Helvetica,sans-Serif" font-size="10.00" fill="#000000">js_std_parseExtJSON</text>
</g>
<!-- Node4495 -->
<g id="node2" class="node">
<title>Node4495</title>
<g id="a_node2"><a xlink:href="quickjs_8c.html#ae0bc4f65da64810facb2cb9e476eda2e" target="_top" xlink:title="JS_FreeCString">
<polygon fill="none" stroke="#000000" points="615,-684.5 615,-703.5 701,-703.5 701,-684.5 615,-684.5"/>
<text text-anchor="middle" x="658" y="-691.5" font-family="Helvetica,sans-Serif" font-size="10.00" fill="#000000">JS_FreeCString</text>
</a>
</g>
</g>
<!-- Node4494&#45;&gt;Node4495 -->
<g id="edge1" class="edge">
<title>Node4494&#45;&gt;Node4495</title>
<path fill="none" stroke="#191970" d="M60.1974,-361.594C75.6932,-406.3727 147.6866,-595.7604 280,-670 383.1796,-727.8929 528.0411,-716.2642 605.0286,-704.2397"/>
<polygon fill="#191970" stroke="#191970" points="605.6684,-707.6817 614.978,-702.6239 604.5462,-700.7722 605.6684,-707.6817"/>
</g>
<!-- Node4533 -->
<g id="node5" class="node">
<title>Node4533</title>
<g id="a_node5"><a xlink:href="quickjs_8c.html#a2ce39fc64f8e4a7a0e19bf5527df730f" target="_top" xlink:title="JS_ParseJSON2">
<polygon fill="none" stroke="#000000" points="151,-342.5 151,-361.5 243,-361.5 243,-342.5 151,-342.5"/>
<text text-anchor="middle" x="197" y="-349.5" font-family="Helvetica,sans-Serif" font-size="10.00" fill="#000000">JS_ParseJSON2</text>
</a>
</g>
</g>
<!-- Node4494&#45;&gt;Node4533 -->
<g id="edge4" class="edge">
<title>Node4494&#45;&gt;Node4533</title>
<path fill="none" stroke="#191970" d="M114.3473,-352C123.0314,-352 131.9841,-352 140.6468,-352"/>
<polygon fill="#191970" stroke="#191970" points="140.6494,-355.5001 150.6494,-352 140.6493,-348.5001 140.6494,-355.5001"/>
</g>
<!-- Node4702 -->
<g id="node27" class="node">
<title>Node4702</title>
<g id="a_node27"><a xlink:href="quickjs_8h.html#a1e7f56471f8608df9405987087a56070" target="_top" xlink:title="JS_ToCStringLen">
<polygon fill="none" stroke="#ff0000" points="150,-304.5 150,-323.5 244,-323.5 244,-304.5 150,-304.5"/>
<text text-anchor="middle" x="197" y="-311.5" font-family="Helvetica,sans-Serif" font-size="10.00" fill="#000000">JS_ToCStringLen</text>
</a>
</g>
</g>
<!-- Node4494&#45;&gt;Node4702 -->
<g id="edge40" class="edge">
<title>Node4494&#45;&gt;Node4702</title>
<path fill="none" stroke="#191970" d="M92.3279,-342.411C110.4006,-337.5056 132.5984,-331.4804 151.8945,-326.2429"/>
<polygon fill="#191970" stroke="#191970" points="152.9494,-329.5833 161.6834,-323.5859 151.1157,-322.8277 152.9494,-329.5833"/>
</g>
<!-- Node4496 -->
<g id="node3" class="node">
<title>Node4496</title>
<g id="a_node3"><a xlink:href="quickjs_8h.html#afaa20c47565bc704c6c85f3d77254e7d" target="_top" xlink:title="JS_FreeValue">
<polygon fill="none" stroke="#000000" points="928.5,-608.5 928.5,-627.5 1006.5,-627.5 1006.5,-608.5 928.5,-608.5"/>
<text text-anchor="middle" x="967.5" y="-615.5" font-family="Helvetica,sans-Serif" font-size="10.00" fill="#000000">JS_FreeValue</text>
</a>
</g>
</g>
<!-- Node4495&#45;&gt;Node4496 -->
<g id="edge2" class="edge">
<title>Node4495&#45;&gt;Node4496</title>
<path fill="none" stroke="#191970" d="M701.0902,-694.9914C747.2951,-694.7847 822.2146,-690.7499 883,-670 906.933,-661.8302 931.2064,-645.9288 947.5586,-633.8507"/>
<polygon fill="#191970" stroke="#191970" points="949.9307,-636.4441 955.7757,-627.6074 945.6958,-630.8704 949.9307,-636.4441"/>
</g>
<!-- Node4497 -->
<g id="node4" class="node">
<title>Node4497</title>
<g id="a_node4"><a xlink:href="quickjs_8c.html#aa059f309c30fd5166d16c82a97973146" target="_top" xlink:title="__JS_FreeValue">
<polygon fill="none" stroke="#ff0000" points="1052,-608.5 1052,-627.5 1141,-627.5 1141,-608.5 1052,-608.5"/>
<text text-anchor="middle" x="1096.5" y="-615.5" font-family="Helvetica,sans-Serif" font-size="10.00" fill="#000000">__JS_FreeValue</text>
</a>
</g>
</g>
<!-- Node4496&#45;&gt;Node4497 -->
<g id="edge3" class="edge">
<title>Node4496&#45;&gt;Node4497</title>
<path fill="none" stroke="#191970" d="M1006.5543,-618C1017.5665,-618 1029.7573,-618 1041.5165,-618"/>
<polygon fill="#191970" stroke="#191970" points="1041.6989,-621.5001 1051.6989,-618 1041.6988,-614.5001 1041.6989,-621.5001"/>
</g>
<!-- Node4533&#45;&gt;Node4496 -->
<g id="edge38" class="edge">
<title>Node4533&#45;&gt;Node4496</title>
<path fill="none" stroke="#191970" d="M200.4825,-361.7703C219.7165,-413.8045 318.1499,-656 484,-656 484,-656 484,-656 658,-656 750.3719,-656 857.1032,-639.1186 918.0163,-627.8593"/>
<polygon fill="#191970" stroke="#191970" points="918.9324,-631.2486 928.1163,-625.966 917.6426,-624.3685 918.9324,-631.2486"/>
</g>
<!-- Node4534 -->
<g id="node6" class="node">
<title>Node4534</title>
<g id="a_node6"><a xlink:href="quickjs_8c.html#a317ecdd2a00184939feb6a0b3df79b2b" target="_top" xlink:title="js_parse_init">
<polygon fill="none" stroke="#000000" points="290.5,-.5 290.5,-19.5 361.5,-19.5 361.5,-.5 290.5,-.5"/>
<text text-anchor="middle" x="326" y="-7.5" font-family="Helvetica,sans-Serif" font-size="10.00" fill="#000000">js_parse_init</text>
</a>
</g>
</g>
<!-- Node4533&#45;&gt;Node4534 -->
<g id="edge5" class="edge">
<title>Node4533&#45;&gt;Node4534</title>
<path fill="none" stroke="#191970" d="M232.7521,-342.4965C237.0706,-340.0248 241.0046,-336.914 244,-333 325.3467,-226.7071 203.8866,-144.1009 280,-34 282.4203,-30.499 285.5142,-27.4727 288.9506,-24.8653"/>
<polygon fill="#191970" stroke="#191970" points="290.8432,-27.8097 297.4347,-19.5149 287.1092,-21.8887 290.8432,-27.8097"/>
</g>
<!-- Node4535 -->
<g id="node7" class="node">
<title>Node4535</title>
<g id="a_node7"><a xlink:href="quickjs_8c.html#a7fbd31397bde22dfa2b876b945f9afb4" target="_top" xlink:title="json_next_token">
<polygon fill="none" stroke="#000000" points="614,-257.5 614,-276.5 702,-276.5 702,-257.5 614,-257.5"/>
<text text-anchor="middle" x="658" y="-264.5" font-family="Helvetica,sans-Serif" font-size="10.00" fill="#000000">json_next_token</text>
</a>
</g>
</g>
<!-- Node4533&#45;&gt;Node4535 -->
<g id="edge6" class="edge">
<title>Node4533&#45;&gt;Node4535</title>
<path fill="none" stroke="#191970" d="M228.1977,-342.2899C233.7705,-339.7695 239.293,-336.6963 244,-333 342.1726,-255.9067 296.9154,-161.9337 408,-105 468.1193,-74.1873 506.3523,-63.943 560,-105 608.6309,-142.2177 556.6048,-191.1157 596,-238 601.1601,-244.141 607.9094,-249.0598 615.0512,-252.9739"/>
<polygon fill="#191970" stroke="#191970" points="613.6914,-256.2041 624.2173,-257.4108 616.7414,-249.9035 613.6914,-256.2041"/>
</g>
<!-- Node4538 -->
<g id="node9" class="node">
<title>Node4538</title>
<g id="a_node9"><a xlink:href="quickjs_8c.html#a7cd95e5ed87d4b27630af7944855779f" target="_top" xlink:title="free_token">
<polygon fill="none" stroke="#000000" points="788.5,-451.5 788.5,-470.5 850.5,-470.5 850.5,-451.5 788.5,-451.5"/>
<text text-anchor="middle" x="819.5" y="-458.5" font-family="Helvetica,sans-Serif" font-size="10.00" fill="#000000">free_token</text>
</a>
</g>
</g>
<!-- Node4533&#45;&gt;Node4538 -->
<g id="edge39" class="edge">
<title>Node4533&#45;&gt;Node4538</title>
<path fill="none" stroke="#191970" d="M204.4945,-361.5766C229.3472,-392.4486 312.8904,-489.2992 408,-523 545.2773,-571.6424 721.5166,-505.234 790.2356,-474.8055"/>
<polygon fill="#191970" stroke="#191970" points="791.8983,-477.8952 799.5768,-470.5951 789.0219,-471.5135 791.8983,-477.8952"/>
</g>
<!-- Node4576 -->
<g id="node16" class="node">
<title>Node4576</title>
<g id="a_node16"><a xlink:href="quickjs_8h.html#ad80a83d73e9b7d872b88fbf2943aebe9" target="_top" xlink:title="JS_IsException">
<polygon fill="none" stroke="#000000" points="776.5,-105.5 776.5,-124.5 862.5,-124.5 862.5,-105.5 776.5,-105.5"/>
<text text-anchor="middle" x="819.5" y="-112.5" font-family="Helvetica,sans-Serif" font-size="10.00" fill="#000000">JS_IsException</text>
</a>
</g>
</g>
<!-- Node4533&#45;&gt;Node4576 -->
<g id="edge37" class="edge">
<title>Node4533&#45;&gt;Node4576</title>
<path fill="none" stroke="#191970" d="M232.5635,-342.3482C236.9097,-339.8982 240.9016,-336.833 244,-333 302.4289,-260.7194 221.8753,-199.5254 280,-127 318.5064,-78.9535 347.6095,-86.0084 408,-74 541.3288,-47.4882 702.5404,-82.6229 777.452,-102.7166"/>
<polygon fill="#191970" stroke="#191970" points="776.8689,-106.1855 787.4377,-105.4441 778.7133,-99.4329 776.8689,-106.1855"/>
</g>
<!-- Node4597 -->
<g id="node17" class="node">
<title>Node4597</title>
<g id="a_node17"><a xlink:href="quickjs_8c.html#a756c1ab5dee9a6dd07723d7a075e2a53" target="_top" xlink:title="json_parse_value">
<polygon fill="none" stroke="#000000" points="280,-342.5 280,-361.5 372,-361.5 372,-342.5 280,-342.5"/>
<text text-anchor="middle" x="326" y="-349.5" font-family="Helvetica,sans-Serif" font-size="10.00" fill="#000000">json_parse_value</text>
</a>
</g>
</g>
<!-- Node4533&#45;&gt;Node4597 -->
<g id="edge19" class="edge">
<title>Node4533&#45;&gt;Node4597</title>
<path fill="none" stroke="#191970" d="M243.2076,-352C251.7294,-352 260.7156,-352 269.5007,-352"/>
<polygon fill="#191970" stroke="#191970" points="269.6815,-355.5001 279.6814,-352 269.6814,-348.5001 269.6815,-355.5001"/>
</g>
<!-- Node4536 -->
<g id="node8" class="node">
<title>Node4536</title>
<g id="a_node8"><a xlink:href="quickjs_8c.html#af23ec7c9970ceb4671c59da7abd4b078" target="_top" xlink:title="js_check_stack_overflow">
<polygon fill="none" stroke="#ff0000" points="756,-295.5 756,-314.5 883,-314.5 883,-295.5 756,-295.5"/>
<text text-anchor="middle" x="819.5" y="-302.5" font-family="Helvetica,sans-Serif" font-size="10.00" fill="#000000">js_check_stack_overflow</text>
</a>
</g>
</g>
<!-- Node4535&#45;&gt;Node4536 -->
<g id="edge7" class="edge">
<title>Node4535&#45;&gt;Node4536</title>
<path fill="none" stroke="#191970" d="M698.7533,-276.589C720.1609,-281.6261 746.5862,-287.8438 769.2525,-293.1771"/>
<polygon fill="#191970" stroke="#191970" points="768.5039,-296.5964 779.0398,-295.4799 770.1073,-289.7825 768.5039,-296.5964"/>
</g>
<!-- Node4535&#45;&gt;Node4538 -->
<g id="edge8" class="edge">
<title>Node4535&#45;&gt;Node4538</title>
<path fill="none" stroke="#191970" d="M666.0088,-276.6205C691.6248,-307.3914 771.8123,-403.7158 804.9488,-443.5205"/>
<polygon fill="#191970" stroke="#191970" points="802.355,-445.8753 811.4429,-451.3214 807.7348,-441.3967 802.355,-445.8753"/>
</g>
<!-- Node4539 -->
<g id="node11" class="node">
<title>Node4539</title>
<g id="a_node11"><a xlink:href="quickjs_8c.html#ace438176f9f0e0fea6d6f5cdffb1577e" target="_top" xlink:title="js_parse_string">
<polygon fill="none" stroke="#ff0000" points="778,-333.5 778,-352.5 861,-352.5 861,-333.5 778,-333.5"/>
<text text-anchor="middle" x="819.5" y="-340.5" font-family="Helvetica,sans-Serif" font-size="10.00" fill="#000000">js_parse_string</text>
</a>
</g>
</g>
<!-- Node4535&#45;&gt;Node4539 -->
<g id="edge11" class="edge">
<title>Node4535&#45;&gt;Node4539</title>
<path fill="none" stroke="#191970" d="M672.0502,-276.6081C690.5942,-288.9468 724.5741,-310.3873 756,-324 761.3439,-326.3148 767.0567,-328.457 772.7836,-330.4042"/>
<polygon fill="#191970" stroke="#191970" points="771.7807,-333.7582 782.3722,-333.4934 773.9273,-327.0955 771.7807,-333.7582"/>
</g>
<!-- Node4546 -->
<g id="node12" class="node">
<title>Node4546</title>
<g id="a_node12"><a xlink:href="cutils_8h.html#a69529af6d6911dd0ead90eef221b2e10" target="_top" xlink:title="unicode_from_utf8">
<polygon fill="none" stroke="#000000" points="919,-295.5 919,-314.5 1016,-314.5 1016,-295.5 919,-295.5"/>
<text text-anchor="middle" x="967.5" y="-302.5" font-family="Helvetica,sans-Serif" font-size="10.00" fill="#000000">unicode_from_utf8</text>
</a>
</g>
</g>
<!-- Node4535&#45;&gt;Node4546 -->
<g id="edge13" class="edge">
<title>Node4535&#45;&gt;Node4546</title>
<path fill="none" stroke="#191970" d="M702.1869,-268.9412C747.7097,-271.3595 820.62,-276.3993 883,-286 895.191,-287.8763 908.2455,-290.501 920.3583,-293.2019"/>
<polygon fill="#191970" stroke="#191970" points="919.7429,-296.6515 930.272,-295.4737 921.3065,-289.8283 919.7429,-296.6515"/>
</g>
<!-- Node4570 -->
<g id="node13" class="node">
<title>Node4570</title>
<g id="a_node13"><a xlink:href="quickjs_8c.html#adab89942b11c3b3cbf3ecb9e763b0ab6" target="_top" xlink:title="json_parse_ident">
<polygon fill="none" stroke="#ff0000" points="774.5,-181.5 774.5,-200.5 864.5,-200.5 864.5,-181.5 774.5,-181.5"/>
<text text-anchor="middle" x="819.5" y="-188.5" font-family="Helvetica,sans-Serif" font-size="10.00" fill="#000000">json_parse_ident</text>
</a>
</g>
</g>
<!-- Node4535&#45;&gt;Node4570 -->
<g id="edge14" class="edge">
<title>Node4535&#45;&gt;Node4570</title>
<path fill="none" stroke="#191970" d="M680.1556,-257.4862C692.1403,-252.1293 707.0901,-245.1034 720,-238 736.6348,-228.8471 739.0288,-223.5131 756,-215 763.8745,-211.05 772.5643,-207.3606 780.922,-204.1162"/>
<polygon fill="#191970" stroke="#191970" points="782.3756,-207.3093 790.512,-200.5232 779.9196,-200.7543 782.3756,-207.3093"/>
</g>
<!-- Node4573 -->
<g id="node14" class="node">
<title>Node4573</title>
<g id="a_node14"><a xlink:href="quickjs_8c.html#ab3ca6381d29dea396b12acd7f755c51a" target="_top" xlink:title="is_digit">
<polygon fill="none" stroke="#000000" points="944,-181.5 944,-200.5 991,-200.5 991,-181.5 944,-181.5"/>
<text text-anchor="middle" x="967.5" y="-188.5" font-family="Helvetica,sans-Serif" font-size="10.00" fill="#000000">is_digit</text>
</a>
</g>
</g>
<!-- Node4535&#45;&gt;Node4573 -->
<g id="edge15" class="edge">
<title>Node4535&#45;&gt;Node4573</title>
<path fill="none" stroke="#191970" d="M696.885,-257.4515C758.1483,-242.4078 876.099,-213.4442 933.9037,-199.2498"/>
<polygon fill="#191970" stroke="#191970" points="934.7632,-202.6428 943.64,-196.859 933.0938,-195.8448 934.7632,-202.6428"/>
</g>
<!-- Node4591 -->
<g id="node15" class="node">
<title>Node4591</title>
<g id="a_node15"><a xlink:href="quickjs_8c.html#a40bcef4994dba57dfb34b6eed66daef0" target="_top" xlink:title="js_atof">
<polygon fill="none" stroke="#ff0000" points="796.5,-143.5 796.5,-162.5 842.5,-162.5 842.5,-143.5 796.5,-143.5"/>
<text text-anchor="middle" x="819.5" y="-150.5" font-family="Helvetica,sans-Serif" font-size="10.00" fill="#000000">js_atof</text>
</a>
</g>
</g>
<!-- Node4535&#45;&gt;Node4591 -->
<g id="edge16" class="edge">
<title>Node4535&#45;&gt;Node4591</title>
<path fill="none" stroke="#191970" d="M688.093,-257.4218C699.0744,-252.8377 710.9953,-246.4645 720,-238 744.3458,-215.115 730.0417,-193.0384 756,-172 764.6716,-164.9719 775.8884,-160.542 786.4767,-157.7503"/>
<polygon fill="#191970" stroke="#191970" points="787.3382,-161.1442 796.3322,-155.5444 785.8092,-154.3132 787.3382,-161.1442"/>
</g>
<!-- Node4535&#45;&gt;Node4576 -->
<g id="edge18" class="edge">
<title>Node4535&#45;&gt;Node4576</title>
<path fill="none" stroke="#191970" d="M690.7918,-257.3835C701.2931,-252.9303 712.2057,-246.6525 720,-238 752.7375,-201.6579 720.6859,-167.8439 756,-134 759.2661,-130.8699 763.0265,-128.2531 767.0524,-126.0658"/>
<polygon fill="#191970" stroke="#191970" points="768.5302,-129.2388 776.2011,-121.9307 765.6471,-122.8601 768.5302,-129.2388"/>
</g>
<!-- Node4538&#45;&gt;Node4496 -->
<g id="edge9" class="edge">
<title>Node4538&#45;&gt;Node4496</title>
<path fill="none" stroke="#191970" d="M828.5575,-470.5285C840.8897,-483.5085 863.6453,-507.4823 883,-528 906.8491,-553.2822 934.3904,-582.6479 951.3764,-600.7789"/>
<polygon fill="#191970" stroke="#191970" points="948.9963,-603.3577 958.3868,-608.2637 954.1053,-598.5725 948.9963,-603.3577"/>
</g>
<!-- Node4515 -->
<g id="node10" class="node">
<title>Node4515</title>
<g id="a_node10"><a xlink:href="quickjs_8c.html#ab7fc45a99935a1c0ba50b0216d9401a9" target="_top" xlink:title="JS_FreeAtom">
<polygon fill="none" stroke="#ff0000" points="929,-432.5 929,-451.5 1006,-451.5 1006,-432.5 929,-432.5"/>
<text text-anchor="middle" x="967.5" y="-439.5" font-family="Helvetica,sans-Serif" font-size="10.00" fill="#000000">JS_FreeAtom</text>
</a>
</g>
</g>
<!-- Node4538&#45;&gt;Node4515 -->
<g id="edge10" class="edge">
<title>Node4538&#45;&gt;Node4515</title>
<path fill="none" stroke="#191970" d="M850.5256,-457.017C870.2985,-454.4786 896.3356,-451.136 918.8244,-448.2489"/>
<polygon fill="#191970" stroke="#191970" points="919.3993,-451.7039 928.8722,-446.959 918.5079,-444.7609 919.3993,-451.7039"/>
</g>
<!-- Node4539&#45;&gt;Node4546 -->
<g id="edge12" class="edge">
<title>Node4539&#45;&gt;Node4546</title>
<path fill="none" stroke="#191970" d="M856.8466,-333.411C876.2009,-328.4417 900.0304,-322.3233 920.6126,-317.0387"/>
<polygon fill="#191970" stroke="#191970" points="921.6065,-320.3971 930.4219,-314.5201 919.8656,-313.617 921.6065,-320.3971"/>
</g>
<!-- Node4591&#45;&gt;Node4573 -->
<g id="edge17" class="edge">
<title>Node4591&#45;&gt;Node4573</title>
<path fill="none" stroke="#191970" d="M842.625,-158.9375C867.0985,-165.2212 905.9612,-175.1995 933.8326,-182.3557"/>
<polygon fill="#191970" stroke="#191970" points="933.0005,-185.7555 943.5568,-184.8524 934.7414,-178.9754 933.0005,-185.7555"/>
</g>
<!-- Node4597&#45;&gt;Node4496 -->
<g id="edge36" class="edge">
<title>Node4597&#45;&gt;Node4496</title>
<path fill="none" stroke="#191970" d="M331.6808,-361.9113C340.6785,-377.7609 358.5638,-409.8909 372,-438 389.6932,-475.015 375.8218,-497.5496 408,-523 428.1029,-538.8999 785.2831,-591.7319 918.2042,-610.9405"/>
<polygon fill="#191970" stroke="#191970" points="918.1013,-614.4618 928.4986,-612.4257 919.1009,-607.5336 918.1013,-614.4618"/>
</g>
<!-- Node4597&#45;&gt;Node4535 -->
<g id="edge20" class="edge">
<title>Node4597&#45;&gt;Node4535</title>
<path fill="none" stroke="#191970" d="M336.153,-342.3735C350.7525,-329.1731 379.1117,-305.8568 408,-295 472.0643,-270.9233 551.3722,-265.831 603.257,-265.5029"/>
<polygon fill="#191970" stroke="#191970" points="603.5777,-269.0029 613.5761,-265.4983 603.5745,-262.0029 603.5777,-269.0029"/>
</g>
<!-- Node4597&#45;&gt;Node4515 -->
<g id="edge29" class="edge">
<title>Node4597&#45;&gt;Node4515</title>
<path fill="none" stroke="#191970" d="M372.3048,-354.5069C419.6054,-357.3613 495.1072,-362.7298 560,-371 690.2891,-387.6045 842.4097,-416.7235 918.6638,-431.9998"/>
<polygon fill="#191970" stroke="#191970" points="918.416,-435.52 928.9099,-434.0608 919.7964,-428.6575 918.416,-435.52"/>
</g>
<!-- Node4597&#45;&gt;Node4576 -->
<g id="edge22" class="edge">
<title>Node4597&#45;&gt;Node4576</title>
<path fill="none" stroke="#191970" d="M327.4777,-342.2828C332.5392,-312.625 352.0701,-222.7593 408,-181 436.3347,-159.8443 661.3554,-132.512 766.147,-120.7731"/>
<polygon fill="#191970" stroke="#191970" points="766.6528,-124.2385 776.2039,-119.6531 765.8779,-117.2815 766.6528,-124.2385"/>
</g>
<!-- Node4597&#45;&gt;Node4597 -->
<g id="edge28" class="edge">
<title>Node4597&#45;&gt;Node4597</title>
<path fill="none" stroke="#191970" d="M306.2715,-361.7571C296.6738,-370.5653 303.25,-380 326,-380 340.5742,-380 348.5107,-376.128 349.8094,-371.0292"/>
<polygon fill="#191970" stroke="#191970" points="352.9604,-369.4998 345.7285,-361.7571 346.5535,-372.3197 352.9604,-369.4998"/>
</g>
<!-- Node4598 -->
<g id="node18" class="node">
<title>Node4598</title>
<g id="a_node18"><a xlink:href="quickjs_8c.html#afc0d8ea75588216ec132a6e1655524a7" target="_top" xlink:title="JS_NewObject">
<polygon fill="none" stroke="#ff0000" points="442.5,-114.5 442.5,-133.5 525.5,-133.5 525.5,-114.5 442.5,-114.5"/>
<text text-anchor="middle" x="484" y="-121.5" font-family="Helvetica,sans-Serif" font-size="10.00" fill="#000000">JS_NewObject</text>
</a>
</g>
</g>
<!-- Node4597&#45;&gt;Node4598 -->
<g id="edge21" class="edge">
<title>Node4597&#45;&gt;Node4598</title>
<path fill="none" stroke="#191970" d="M327.0037,-342.2701C330.8789,-309.754 347.7982,-203.7742 408,-148 414.9322,-141.5776 423.5749,-136.8738 432.5219,-133.4288"/>
<polygon fill="#191970" stroke="#191970" points="433.9106,-136.6549 442.2833,-130.1628 431.6895,-130.0166 433.9106,-136.6549"/>
</g>
<!-- Node4638 -->
<g id="node19" class="node">
<title>Node4638</title>
<g id="a_node19"><a xlink:href="quickjs_8c.html#a859d5c989a2aaecef1653b3ac279e108" target="_top" xlink:title="JS_ValueToAtom">
<polygon fill="none" stroke="#ff0000" points="611.5,-209.5 611.5,-228.5 704.5,-228.5 704.5,-209.5 611.5,-209.5"/>
<text text-anchor="middle" x="658" y="-216.5" font-family="Helvetica,sans-Serif" font-size="10.00" fill="#000000">JS_ValueToAtom</text>
</a>
</g>
</g>
<!-- Node4597&#45;&gt;Node4638 -->
<g id="edge23" class="edge">
<title>Node4597&#45;&gt;Node4638</title>
<path fill="none" stroke="#191970" d="M331.8061,-342.3079C343.5857,-323.5806 372.2357,-282.5503 408,-263 468.3605,-230.0043 548.0585,-220.8877 601.0712,-218.7974"/>
<polygon fill="#191970" stroke="#191970" points="601.4221,-222.2881 611.3043,-218.4681 601.1968,-215.2917 601.4221,-222.2881"/>
</g>
<!-- Node4633 -->
<g id="node20" class="node">
<title>Node4633</title>
<g id="a_node20"><a xlink:href="quickjs_8c.html#abbf44eaeace1104a6bef718fbf5700fe" target="_top" xlink:title="JS_DupAtom">
<polygon fill="none" stroke="#ff0000" points="446.5,-494.5 446.5,-513.5 521.5,-513.5 521.5,-494.5 446.5,-494.5"/>
<text text-anchor="middle" x="484" y="-501.5" font-family="Helvetica,sans-Serif" font-size="10.00" fill="#000000">JS_DupAtom</text>
</a>
</g>
</g>
<!-- Node4597&#45;&gt;Node4633 -->
<g id="edge25" class="edge">
<title>Node4597&#45;&gt;Node4633</title>
<path fill="none" stroke="#191970" d="M329.123,-361.8229C337.5358,-386.6309 363.1205,-452.1648 408,-485 416.3146,-491.0833 426.363,-495.23 436.391,-498.0537"/>
<polygon fill="#191970" stroke="#191970" points="435.8049,-501.5127 446.3472,-500.459 437.4488,-494.7085 435.8049,-501.5127"/>
</g>
<!-- Node4938 -->
<g id="node21" class="node">
<title>Node4938</title>
<g id="a_node21"><a xlink:href="quickjs_8c.html#ae66a7542eaaa25e85eeb8427eca70eae" target="_top" xlink:title="json_parse_expect">
<polygon fill="none" stroke="#000000" points="435,-304.5 435,-323.5 533,-323.5 533,-304.5 435,-304.5"/>
<text text-anchor="middle" x="484" y="-311.5" font-family="Helvetica,sans-Serif" font-size="10.00" fill="#000000">json_parse_expect</text>
</a>
</g>
</g>
<!-- Node4597&#45;&gt;Node4938 -->
<g id="edge26" class="edge">
<title>Node4597&#45;&gt;Node4938</title>
<path fill="none" stroke="#191970" d="M365.8701,-342.411C386.7199,-337.3965 412.4346,-331.2119 434.5429,-325.8947"/>
<polygon fill="#191970" stroke="#191970" points="435.5123,-329.2615 444.4166,-323.5201 433.8754,-322.4555 435.5123,-329.2615"/>
</g>
<!-- Node4662 -->
<g id="node22" class="node">
<title>Node4662</title>
<g id="a_node22"><a xlink:href="quickjs_8c.html#a0a8765bd4012467d9139bc24aabcb3ca" target="_top" xlink:title="JS_DefinePropertyValue">
<polygon fill="none" stroke="#ff0000" points="596,-608.5 596,-627.5 720,-627.5 720,-608.5 596,-608.5"/>
<text text-anchor="middle" x="658" y="-615.5" font-family="Helvetica,sans-Serif" font-size="10.00" fill="#000000">JS_DefinePropertyValue</text>
</a>
</g>
</g>
<!-- Node4597&#45;&gt;Node4662 -->
<g id="edge30" class="edge">
<title>Node4597&#45;&gt;Node4662</title>
<path fill="none" stroke="#191970" d="M326.8712,-361.8774C330.3277,-394.86 346.0773,-502.1428 408,-556 457.0755,-598.6833 531.0857,-612.8788 585.8557,-617.1792"/>
<polygon fill="#191970" stroke="#191970" points="585.6301,-620.6719 595.8482,-617.8717 586.1141,-613.6887 585.6301,-620.6719"/>
</g>
<!-- Node4766 -->
<g id="node23" class="node">
<title>Node4766</title>
<g id="a_node23"><a xlink:href="quickjs_8c.html#ad4ba09e4c7ab9f28c144182e1aacf1f6" target="_top" xlink:title="JS_NewArray">
<polygon fill="none" stroke="#ff0000" points="445.5,-456.5 445.5,-475.5 522.5,-475.5 522.5,-456.5 445.5,-456.5"/>
<text text-anchor="middle" x="484" y="-463.5" font-family="Helvetica,sans-Serif" font-size="10.00" fill="#000000">JS_NewArray</text>
</a>
</g>
</g>
<!-- Node4597&#45;&gt;Node4766 -->
<g id="edge32" class="edge">
<title>Node4597&#45;&gt;Node4766</title>
<path fill="none" stroke="#191970" d="M331.4091,-361.52C342.8874,-380.8186 371.6358,-424.6124 408,-447 416.3379,-452.1332 425.9966,-455.8819 435.5739,-458.6188"/>
<polygon fill="#191970" stroke="#191970" points="434.9133,-462.0619 445.4662,-461.1203 436.6295,-455.2755 434.9133,-462.0619"/>
</g>
<!-- Node4758 -->
<g id="node24" class="node">
<title>Node4758</title>
<g id="a_node24"><a xlink:href="quickjs_8c.html#a12aed667595f49667e0095f0a028e0d4" target="_top" xlink:title="JS_DefinePropertyValueUint32">
<polygon fill="none" stroke="#ff0000" points="408,-418.5 408,-437.5 560,-437.5 560,-418.5 408,-418.5"/>
<text text-anchor="middle" x="484" y="-425.5" font-family="Helvetica,sans-Serif" font-size="10.00" fill="#000000">JS_DefinePropertyValueUint32</text>
</a>
</g>
</g>
<!-- Node4597&#45;&gt;Node4758 -->
<g id="edge33" class="edge">
<title>Node4597&#45;&gt;Node4758</title>
<path fill="none" stroke="#191970" d="M336.8786,-361.5243C351.8769,-374.174 380.2156,-396.3847 408,-409 413.3947,-411.4494 419.1541,-413.6154 424.9979,-415.5235"/>
<polygon fill="#191970" stroke="#191970" points="424.2781,-418.962 434.8627,-418.4957 426.2975,-412.2596 424.2781,-418.962"/>
</g>
<!-- Node4569 -->
<g id="node25" class="node">
<title>Node4569</title>
<g id="a_node25"><a xlink:href="quickjs_8h.html#a775522f2d084fc8fa0fcb33f390006b4" target="_top" xlink:title="JS_DupValue">
<polygon fill="none" stroke="#000000" points="445.5,-380.5 445.5,-399.5 522.5,-399.5 522.5,-380.5 445.5,-380.5"/>
<text text-anchor="middle" x="484" y="-387.5" font-family="Helvetica,sans-Serif" font-size="10.00" fill="#000000">JS_DupValue</text>
</a>
</g>
</g>
<!-- Node4597&#45;&gt;Node4569 -->
<g id="edge34" class="edge">
<title>Node4597&#45;&gt;Node4569</title>
<path fill="none" stroke="#191970" d="M365.8701,-361.589C386.9577,-366.6607 413.0219,-372.9293 435.2981,-378.2869"/>
<polygon fill="#191970" stroke="#191970" points="434.6938,-381.7413 445.2351,-380.6768 436.3308,-374.9354 434.6938,-381.7413"/>
</g>
<!-- Node4839 -->
<g id="node26" class="node">
<title>Node4839</title>
<g id="a_node26"><a xlink:href="quickjs_8h.html#a93abffa925714e249a6aa2f4ae7900f6" target="_top" xlink:title="JS_NewBool">
<polygon fill="none" stroke="#000000" points="447,-190.5 447,-209.5 521,-209.5 521,-190.5 447,-190.5"/>
<text text-anchor="middle" x="484" y="-197.5" font-family="Helvetica,sans-Serif" font-size="10.00" fill="#000000">JS_NewBool</text>
</a>
</g>
</g>
<!-- Node4597&#45;&gt;Node4839 -->
<g id="edge35" class="edge">
<title>Node4597&#45;&gt;Node4839</title>
<path fill="none" stroke="#191970" d="M329.4843,-342.3531C338.5634,-318.5779 365.2534,-256.7301 408,-224 416.4919,-217.4979 426.7846,-212.7343 437.0162,-209.2521"/>
<polygon fill="#191970" stroke="#191970" points="438.1986,-212.5508 446.7466,-206.2912 436.1608,-205.854 438.1986,-212.5508"/>
</g>
<!-- Node4638&#45;&gt;Node4576 -->
<g id="edge24" class="edge">
<title>Node4638&#45;&gt;Node4576</title>
<path fill="none" stroke="#191970" d="M674.1095,-209.434C687.1352,-201.3323 705.6088,-188.9902 720,-176 738.2502,-159.5265 735.3875,-147.4004 756,-134 759.3767,-131.8048 763.017,-129.8547 766.7857,-128.1237"/>
<polygon fill="#191970" stroke="#191970" points="768.3841,-131.2527 776.3414,-124.2574 765.7586,-124.7637 768.3841,-131.2527"/>
</g>
<!-- Node4938&#45;&gt;Node4535 -->
<g id="edge27" class="edge">
<title>Node4938&#45;&gt;Node4535</title>
<path fill="none" stroke="#191970" d="M519.2115,-304.4888C546.127,-297.2186 583.44,-287.1398 612.5992,-279.2634"/>
<polygon fill="#191970" stroke="#191970" points="613.8014,-282.5642 622.5427,-276.5776 611.976,-275.8064 613.8014,-282.5642"/>
</g>
<!-- Node4662&#45;&gt;Node4496 -->
<g id="edge31" class="edge">
<title>Node4662&#45;&gt;Node4496</title>
<path fill="none" stroke="#191970" d="M720.2596,-618C778.5118,-618 864.382,-618 918.0697,-618"/>
<polygon fill="#191970" stroke="#191970" points="918.3605,-621.5001 928.3604,-618 918.3604,-614.5001 918.3605,-621.5001"/>
</g>
</g>
</svg>
        <g id="navigator" transform="translate(0 0)" fill="#404254">
                <rect fill="#f2f5e9" fill-opacity="0.5" stroke="#606060" stroke-width=".5" x="0" y="0" width="60" height="60"/>
                <use id="zoomplus" xlink:href="#zoomPlus" x="17" y="9" onmousedown="handleZoom(evt,'in')"/>
                <use id="zoomminus" xlink:href="#zoomMin" x="42" y="9" onmousedown="handleZoom(evt,'out')"/>
                <use id="reset" xlink:href="#resetDef" x="30" y="36" onmousedown="handleReset()"/>
                <g id="arrowUp" xlink:href="#dirArrow" transform="translate(30 24)" onmousedown="handlePan(0,-1)">
                  <use xlink:href="#rim" fill="#404040">
                        <set attributeName="fill" to="#808080" begin="arrowUp.mouseover" end="arrowUp.mouseout"/>
                  </use>
                  <path fill="none" stroke="white" stroke-width="1.5" d="M0,-3.0v7 M-2.5,-0.5L0,-3.0L2.5,-0.5"/>
                </g>
                <g id="arrowRight" xlink:href="#dirArrow" transform="rotate(90) translate(36 -43)" onmousedown="handlePan(1,0)">
                  <use xlink:href="#rim" fill="#404040">
                        <set attributeName="fill" to="#808080" begin="arrowRight.mouseover" end="arrowRight.mouseout"/>
                  </use>
                  <path fill="none" stroke="white" stroke-width="1.5" d="M0,-3.0v7 M-2.5,-0.5L0,-3.0L2.5,-0.5"/>
                </g>
                <g id="arrowDown" xlink:href="#dirArrow" transform="rotate(180) translate(-30 -48)" onmousedown="handlePan(0,1)">
                  <use xlink:href="#rim" fill="#404040">
                        <set attributeName="fill" to="#808080" begin="arrowDown.mouseover" end="arrowDown.mouseout"/>
                  </use>
                  <path fill="none" stroke="white" stroke-width="1.5" d="M0,-3.0v7 M-2.5,-0.5L0,-3.0L2.5,-0.5"/>
                </g>
                <g id="arrowLeft" xlink:href="#dirArrow" transform="rotate(270) translate(-36 17)" onmousedown="handlePan(-1,0)">
                  <use xlink:href="#rim" fill="#404040">
                        <set attributeName="fill" to="#808080" begin="arrowLeft.mouseover" end="arrowLeft.mouseout"/>
                  </use>
                  <path fill="none" stroke="white" stroke-width="1.5" d="M0,-3.0v7 M-2.5,-0.5L0,-3.0L2.5,-0.5"/>
                </g>
        </g>
        <svg viewBox="0 0 15 15" width="100%" height="30px" preserveAspectRatio="xMaxYMin meet">
         <g id="arrow_out" transform="scale(0.3 0.3)">
          <a xlink:href="quickjs-libc_8c_a3820b79ea873fc2066551d85f7bb2c4c_cgraph_org.svg" target="_base">
           <rect id="button" ry="5" rx="5" y="6" x="6" height="38" width="38"
                fill="#f2f5e9" fill-opacity="0.5" stroke="#606060" stroke-width="1.0"/>
           <path id="arrow"
             d="M 11.500037,31.436501 C 11.940474,20.09759 22.043105,11.32322 32.158766,21.979434 L 37.068811,17.246167 C 37.068811,17.246167 37.088388,32 37.088388,32 L 22.160133,31.978069 C 22.160133,31.978069 26.997745,27.140456 26.997745,27.140456 C 18.528582,18.264221 13.291696,25.230495 11.500037,31.436501 z"
             style="fill:#404040;"/>
          </a>
         </g>
        </svg>
</svg>
