<?xml version="1.0" encoding="UTF-8" standalone="no"?>
<!DOCTYPE svg PUBLIC "-//W3C//DTD SVG 1.1//EN"
 "http://www.w3.org/Graphics/SVG/1.1/DTD/svg11.dtd">
<!-- Generated by graphviz version 2.40.1 (20161225.0304)
 -->
<!-- Title: js_parse_var Pages: 1 -->
<!--zoomable 96 -->
<svg id="main" version="1.1" xmlns="http://www.w3.org/2000/svg" xmlns:xlink="http://www.w3.org/1999/xlink" xml:space="preserve" onload="init(evt)">
<style type="text/css"><![CDATA[
.edge:hover path { stroke: red; }
.edge:hover polygon { stroke: red; fill: red; }
]]></style>
<script type="text/javascript"><![CDATA[
var edges = document.getElementsByTagName('g');
if (edges && edges.length) {
  for (var i=0;i<edges.length;i++) {
    if (edges[i].id.substr(0,4)=='edge') {
      edges[i].setAttribute('class','edge');
    }
  }
}
]]></script>
        <defs>
                <circle id="rim" cx="0" cy="0" r="7"/>
                <circle id="rim2" cx="0" cy="0" r="3.5"/>
                <g id="zoomPlus">
                        <use xlink:href="#rim" fill="#404040">
                                <set attributeName="fill" to="#808080" begin="zoomplus.mouseover" end="zoomplus.mouseout"/>
                        </use>
                        <path d="M-4,0h8M0,-4v8" fill="none" stroke="white" stroke-width="1.5" pointer-events="none"/>
                </g>
                <g id="zoomMin">
                        <use xlink:href="#rim" fill="#404040">
                                <set attributeName="fill" to="#808080" begin="zoomminus.mouseover" end="zoomminus.mouseout"/>
                        </use>
                        <path d="M-4,0h8" fill="none" stroke="white" stroke-width="1.5" pointer-events="none"/>
                </g>
                <g id="dirArrow">
                        <path fill="none" stroke="white" stroke-width="1.5" d="M0,-3.0v7 M-2.5,-0.5L0,-3.0L2.5,-0.5"/>
                </g>
               <g id="resetDef">
                       <use xlink:href="#rim2" fill="#404040">
                               <set attributeName="fill" to="#808080" begin="reset.mouseover" end="reset.mouseout"/>
                       </use>
               </g>
        </defs>

<script type="text/javascript">
var viewWidth = 540;
var viewHeight = 96;
var sectionId = 'dynsection-1079';
</script>
<script xlink:href="svgpan.js"/>
<svg id="graph" class="graph">
<g id="viewport">
<title>js_parse_var</title>
<!-- Node326795 -->
<g id="node1" class="node">
<title>Node326795</title>
<polygon fill="#bfbfbf" stroke="#000000" points="0,-22.5 0,-41.5 72,-41.5 72,-22.5 0,-22.5"/>
<text text-anchor="middle" x="36" y="-29.5" font-family="Helvetica,sans-Serif" font-size="10.00" fill="#000000">js_parse_var</text>
</g>
<!-- Node326796 -->
<g id="node2" class="node">
<title>Node326796</title>
<g id="a_node2"><a xlink:href="quickjs_8c.html#a498e1d5c7de1b59c1630e9847cde1e41" target="_top" xlink:title="js_parse_export">
<polygon fill="none" stroke="#000000" points="116,-.5 116,-19.5 202,-19.5 202,-.5 116,-.5"/>
<text text-anchor="middle" x="159" y="-7.5" font-family="Helvetica,sans-Serif" font-size="10.00" fill="#000000">js_parse_export</text>
</a>
</g>
</g>
<!-- Node326795&#45;&gt;Node326796 -->
<g id="edge1" class="edge">
<title>Node326795&#45;&gt;Node326796</title>
<path fill="none" stroke="#191970" d="M82.0904,-23.7562C93.0804,-21.7905 104.7721,-19.6993 115.6348,-17.7564"/>
<polygon fill="#191970" stroke="#191970" points="81.4663,-20.3122 72.2388,-25.5183 82.6988,-27.2028 81.4663,-20.3122"/>
</g>
<!-- Node326803 -->
<g id="node6" class="node">
<title>Node326803</title>
<g id="a_node6"><a xlink:href="quickjs_8c.html#a9d844c16dcc71701436848074337d32c" target="_top" xlink:title="js_parse_statement\l_or_decl">
<polygon fill="none" stroke="#ff0000" points="108,-39 108,-69 210,-69 210,-39 108,-39"/>
<text text-anchor="start" x="116" y="-57" font-family="Helvetica,sans-Serif" font-size="10.00" fill="#000000">js_parse_statement</text>
<text text-anchor="middle" x="159" y="-46" font-family="Helvetica,sans-Serif" font-size="10.00" fill="#000000">_or_decl</text>
</a>
</g>
</g>
<!-- Node326795&#45;&gt;Node326803 -->
<g id="edge6" class="edge">
<title>Node326795&#45;&gt;Node326803</title>
<path fill="none" stroke="#191970" d="M82.2412,-40.2708C90.6439,-41.7737 99.4522,-43.3492 107.9833,-44.8751"/>
<polygon fill="#191970" stroke="#191970" points="82.6988,-36.7972 72.2388,-38.4817 81.4663,-43.6878 82.6988,-36.7972"/>
</g>
<!-- Node326797 -->
<g id="node3" class="node">
<title>Node326797</title>
<g id="a_node3"><a xlink:href="quickjs_8c.html#ab59a3267a100decc9d2d81eb3297794a" target="_top" xlink:title="js_parse_source_element">
<polygon fill="none" stroke="#000000" points="246,-38.5 246,-57.5 374,-57.5 374,-38.5 246,-38.5"/>
<text text-anchor="middle" x="310" y="-45.5" font-family="Helvetica,sans-Serif" font-size="10.00" fill="#000000">js_parse_source_element</text>
</a>
</g>
</g>
<!-- Node326796&#45;&gt;Node326797 -->
<g id="edge2" class="edge">
<title>Node326796&#45;&gt;Node326797</title>
<path fill="none" stroke="#191970" d="M206.8431,-22.04C227.9386,-27.3488 252.3766,-33.4988 272.1703,-38.4799"/>
<polygon fill="#191970" stroke="#191970" points="207.6555,-18.6354 197.1037,-19.589 205.9471,-25.4237 207.6555,-18.6354"/>
</g>
<!-- Node326798 -->
<g id="node4" class="node">
<title>Node326798</title>
<g id="a_node4"><a xlink:href="quickjs_8c.html#acc9eb677cab8dfcf45f59381f8a19601" target="_top" xlink:title="js_parse_function_decl2">
<polygon fill="none" stroke="#ff0000" points="410,-.5 410,-19.5 532,-19.5 532,-.5 410,-.5"/>
<text text-anchor="middle" x="471" y="-7.5" font-family="Helvetica,sans-Serif" font-size="10.00" fill="#000000">js_parse_function_decl2</text>
</a>
</g>
</g>
<!-- Node326797&#45;&gt;Node326798 -->
<g id="edge3" class="edge">
<title>Node326797&#45;&gt;Node326798</title>
<path fill="none" stroke="#191970" d="M360.4018,-36.1039C383.032,-30.7626 409.3695,-24.5463 430.665,-19.5201"/>
<polygon fill="#191970" stroke="#191970" points="359.5557,-32.7074 350.6271,-38.411 361.1637,-39.5202 359.5557,-32.7074"/>
</g>
<!-- Node326822 -->
<g id="node5" class="node">
<title>Node326822</title>
<g id="a_node5"><a xlink:href="quickjs_8c.html#aec05caae64451720670d1a56040110b3" target="_top" xlink:title="js_parse_program">
<polygon fill="none" stroke="#ff0000" points="424,-38.5 424,-57.5 518,-57.5 518,-38.5 424,-38.5"/>
<text text-anchor="middle" x="471" y="-45.5" font-family="Helvetica,sans-Serif" font-size="10.00" fill="#000000">js_parse_program</text>
</a>
</g>
</g>
<!-- Node326797&#45;&gt;Node326822 -->
<g id="edge5" class="edge">
<title>Node326797&#45;&gt;Node326822</title>
<path fill="none" stroke="#191970" d="M384.3429,-48C397.8375,-48 411.5642,-48 423.9943,-48"/>
<polygon fill="#191970" stroke="#191970" points="384.0941,-44.5001 374.0941,-48 384.094,-51.5001 384.0941,-44.5001"/>
</g>
<!-- Node326798&#45;&gt;Node326796 -->
<g id="edge4" class="edge">
<title>Node326798&#45;&gt;Node326796</title>
<path fill="none" stroke="#191970" d="M399.5842,-10C338.6435,-10 253.0179,-10 202.0547,-10"/>
<polygon fill="#191970" stroke="#191970" points="399.9014,-13.5001 409.9013,-10 399.9013,-6.5001 399.9014,-13.5001"/>
</g>
<!-- Node326803&#45;&gt;Node326797 -->
<g id="edge7" class="edge">
<title>Node326803&#45;&gt;Node326797</title>
<path fill="none" stroke="#191970" d="M220.245,-51.5664C228.6683,-51.2317 237.3374,-50.8873 245.8119,-50.5505"/>
<polygon fill="#191970" stroke="#191970" points="219.9748,-48.0743 210.1217,-51.9687 220.2528,-55.0688 219.9748,-48.0743"/>
</g>
<!-- Node326803&#45;&gt;Node326803 -->
<g id="edge8" class="edge">
<title>Node326803&#45;&gt;Node326803</title>
<path fill="none" stroke="#191970" d="M137.3221,-79.4579C140.0126,-84.179 147.2386,-87.5 159,-87.5 178.3008,-87.5 185.3878,-78.5566 180.261,-69.159"/>
<polygon fill="#191970" stroke="#191970" points="140.8315,-79.2924 137.739,-69.159 133.8373,-79.0092 140.8315,-79.2924"/>
</g>
</g>
</svg>
        <g id="navigator" transform="translate(0 0)" fill="#404254">
                <rect fill="#f2f5e9" fill-opacity="0.5" stroke="#606060" stroke-width=".5" x="0" y="0" width="60" height="60"/>
                <use id="zoomplus" xlink:href="#zoomPlus" x="17" y="9" onmousedown="handleZoom(evt,'in')"/>
                <use id="zoomminus" xlink:href="#zoomMin" x="42" y="9" onmousedown="handleZoom(evt,'out')"/>
                <use id="reset" xlink:href="#resetDef" x="30" y="36" onmousedown="handleReset()"/>
                <g id="arrowUp" xlink:href="#dirArrow" transform="translate(30 24)" onmousedown="handlePan(0,-1)">
                  <use xlink:href="#rim" fill="#404040">
                        <set attributeName="fill" to="#808080" begin="arrowUp.mouseover" end="arrowUp.mouseout"/>
                  </use>
                  <path fill="none" stroke="white" stroke-width="1.5" d="M0,-3.0v7 M-2.5,-0.5L0,-3.0L2.5,-0.5"/>
                </g>
                <g id="arrowRight" xlink:href="#dirArrow" transform="rotate(90) translate(36 -43)" onmousedown="handlePan(1,0)">
                  <use xlink:href="#rim" fill="#404040">
                        <set attributeName="fill" to="#808080" begin="arrowRight.mouseover" end="arrowRight.mouseout"/>
                  </use>
                  <path fill="none" stroke="white" stroke-width="1.5" d="M0,-3.0v7 M-2.5,-0.5L0,-3.0L2.5,-0.5"/>
                </g>
                <g id="arrowDown" xlink:href="#dirArrow" transform="rotate(180) translate(-30 -48)" onmousedown="handlePan(0,1)">
                  <use xlink:href="#rim" fill="#404040">
                        <set attributeName="fill" to="#808080" begin="arrowDown.mouseover" end="arrowDown.mouseout"/>
                  </use>
                  <path fill="none" stroke="white" stroke-width="1.5" d="M0,-3.0v7 M-2.5,-0.5L0,-3.0L2.5,-0.5"/>
                </g>
                <g id="arrowLeft" xlink:href="#dirArrow" transform="rotate(270) translate(-36 17)" onmousedown="handlePan(-1,0)">
                  <use xlink:href="#rim" fill="#404040">
                        <set attributeName="fill" to="#808080" begin="arrowLeft.mouseover" end="arrowLeft.mouseout"/>
                  </use>
                  <path fill="none" stroke="white" stroke-width="1.5" d="M0,-3.0v7 M-2.5,-0.5L0,-3.0L2.5,-0.5"/>
                </g>
        </g>
        <svg viewBox="0 0 15 15" width="100%" height="30px" preserveAspectRatio="xMaxYMin meet">
         <g id="arrow_out" transform="scale(0.3 0.3)">
          <a xlink:href="quickjs_8c_a42924858317b848c3aea0a0a978fab3a_icgraph_org.svg" target="_base">
           <rect id="button" ry="5" rx="5" y="6" x="6" height="38" width="38"
                fill="#f2f5e9" fill-opacity="0.5" stroke="#606060" stroke-width="1.0"/>
           <path id="arrow"
             d="M 11.500037,31.436501 C 11.940474,20.09759 22.043105,11.32322 32.158766,21.979434 L 37.068811,17.246167 C 37.068811,17.246167 37.088388,32 37.088388,32 L 22.160133,31.978069 C 22.160133,31.978069 26.997745,27.140456 26.997745,27.140456 C 18.528582,18.264221 13.291696,25.230495 11.500037,31.436501 z"
             style="fill:#404040;"/>
          </a>
         </g>
        </svg>
</svg>
