<?xml version="1.0" encoding="UTF-8" standalone="no"?>
<!DOCTYPE svg PUBLIC "-//W3C//DTD SVG 1.1//EN"
 "http://www.w3.org/Graphics/SVG/1.1/DTD/svg11.dtd">
<!-- Generated by graphviz version 2.40.1 (20161225.0304)
 -->
<!-- Title: resize_shape_hash Pages: 1 -->
<svg width="233pt" height="66pt"
 viewBox="0.00 0.00 233.00 66.00" xmlns="http://www.w3.org/2000/svg" xmlns:xlink="http://www.w3.org/1999/xlink">
<g id="graph0" class="graph" transform="scale(1 1) rotate(0) translate(4 62)">
<title>resize_shape_hash</title>
<!-- Node121939 -->
<g id="node1" class="node">
<title>Node121939</title>
<polygon fill="#bfbfbf" stroke="#000000" points="0,-19.5 0,-38.5 101,-38.5 101,-19.5 0,-19.5"/>
<text text-anchor="middle" x="50.5" y="-26.5" font-family="Helvetica,sans-Serif" font-size="10.00" fill="#000000">resize_shape_hash</text>
</g>
<!-- Node121940 -->
<g id="node2" class="node">
<title>Node121940</title>
<g id="a_node2"><a xlink:href="quickjs_8c.html#a8291bf195606b5d1b0faed795b6dc3ff" target="_top" xlink:title="get_shape_hash">
<polygon fill="none" stroke="#000000" points="137,-38.5 137,-57.5 225,-57.5 225,-38.5 137,-38.5"/>
<text text-anchor="middle" x="181" y="-45.5" font-family="Helvetica,sans-Serif" font-size="10.00" fill="#000000">get_shape_hash</text>
</a>
</g>
</g>
<!-- Node121939&#45;&gt;Node121940 -->
<g id="edge1" class="edge">
<title>Node121939&#45;&gt;Node121940</title>
<path fill="none" stroke="#191970" d="M101.3284,-36.4003C109.6726,-37.6152 118.3481,-38.8783 126.7712,-40.1046"/>
<polygon fill="#191970" stroke="#191970" points="126.4813,-43.5992 136.8812,-41.5766 127.4898,-36.6723 126.4813,-43.5992"/>
</g>
<!-- Node121941 -->
<g id="node3" class="node">
<title>Node121941</title>
<g id="a_node3"><a xlink:href="quickjs_8c.html#a69e19dda8a93d613203e0baa06f0ed8d" target="_top" xlink:title="js_free_rt">
<polygon fill="none" stroke="#000000" points="152.5,-.5 152.5,-19.5 209.5,-19.5 209.5,-.5 152.5,-.5"/>
<text text-anchor="middle" x="181" y="-7.5" font-family="Helvetica,sans-Serif" font-size="10.00" fill="#000000">js_free_rt</text>
</a>
</g>
</g>
<!-- Node121939&#45;&gt;Node121941 -->
<g id="edge2" class="edge">
<title>Node121939&#45;&gt;Node121941</title>
<path fill="none" stroke="#191970" d="M101.3284,-21.5997C114.9943,-19.61 129.5486,-17.491 142.4278,-15.6159"/>
<polygon fill="#191970" stroke="#191970" points="142.9572,-19.0758 152.3486,-14.1715 141.9486,-12.1488 142.9572,-19.0758"/>
</g>
</g>
</svg>
