<?xml version="1.0" encoding="UTF-8" standalone="no"?>
<!DOCTYPE svg PUBLIC "-//W3C//DTD SVG 1.1//EN"
 "http://www.w3.org/Graphics/SVG/1.1/DTD/svg11.dtd">
<!-- Generated by graphviz version 2.40.1 (20161225.0304)
 -->
<!-- Title: validate_typed_array Pages: 1 -->
<svg width="297pt" height="116pt"
 viewBox="0.00 0.00 297.00 116.00" xmlns="http://www.w3.org/2000/svg" xmlns:xlink="http://www.w3.org/1999/xlink">
<g id="graph0" class="graph" transform="scale(1 1) rotate(0) translate(4 112)">
<title>validate_typed_array</title>
<!-- Node473886 -->
<g id="node1" class="node">
<title>Node473886</title>
<polygon fill="#bfbfbf" stroke="#000000" points="0,-44.5 0,-63.5 107,-63.5 107,-44.5 0,-44.5"/>
<text text-anchor="middle" x="53.5" y="-51.5" font-family="Helvetica,sans-Serif" font-size="10.00" fill="#000000">validate_typed_array</text>
</g>
<!-- Node473887 -->
<g id="node2" class="node">
<title>Node473887</title>
<g id="a_node2"><a xlink:href="quickjs_8c.html#af894945c3459f86096c1821a0a696934" target="_top" xlink:title="get_typed_array">
<polygon fill="none" stroke="#000000" points="173,-88.5 173,-107.5 259,-107.5 259,-88.5 173,-88.5"/>
<text text-anchor="middle" x="216" y="-95.5" font-family="Helvetica,sans-Serif" font-size="10.00" fill="#000000">get_typed_array</text>
</a>
</g>
</g>
<!-- Node473886&#45;&gt;Node473887 -->
<g id="edge1" class="edge">
<title>Node473886&#45;&gt;Node473887</title>
<path fill="none" stroke="#191970" d="M87.0366,-63.5199C103.822,-68.2459 124.4644,-73.9995 143,-79 151.3607,-81.2555 160.2728,-83.6135 168.8936,-85.8706"/>
<polygon fill="#191970" stroke="#191970" points="168.2697,-89.3249 178.8293,-88.4616 170.0361,-82.5514 168.2697,-89.3249"/>
</g>
<!-- Node473888 -->
<g id="node3" class="node">
<title>Node473888</title>
<g id="a_node3"><a xlink:href="quickjs_8c.html#a033dd3ebd29c4eb9f0baff1dd0fec0b1" target="_top" xlink:title="JS_ThrowTypeErrorDetached\lArrayBuffer">
<polygon fill="none" stroke="#000000" points="143,-39 143,-69 289,-69 289,-39 143,-39"/>
<text text-anchor="start" x="151" y="-57" font-family="Helvetica,sans-Serif" font-size="10.00" fill="#000000">JS_ThrowTypeErrorDetached</text>
<text text-anchor="middle" x="216" y="-46" font-family="Helvetica,sans-Serif" font-size="10.00" fill="#000000">ArrayBuffer</text>
</a>
</g>
</g>
<!-- Node473886&#45;&gt;Node473888 -->
<g id="edge2" class="edge">
<title>Node473886&#45;&gt;Node473888</title>
<path fill="none" stroke="#191970" d="M107.1589,-54C115.3982,-54 124.0671,-54 132.7663,-54"/>
<polygon fill="#191970" stroke="#191970" points="132.9684,-57.5001 142.9684,-54 132.9683,-50.5001 132.9684,-57.5001"/>
</g>
<!-- Node473889 -->
<g id="node4" class="node">
<title>Node473889</title>
<g id="a_node4"><a xlink:href="quickjs_8c.html#a869fa88a646c0a1914ec2e559b193b5c" target="_top" xlink:title="typed_array_is_detached">
<polygon fill="none" stroke="#000000" points="153.5,-.5 153.5,-19.5 278.5,-19.5 278.5,-.5 153.5,-.5"/>
<text text-anchor="middle" x="216" y="-7.5" font-family="Helvetica,sans-Serif" font-size="10.00" fill="#000000">typed_array_is_detached</text>
</a>
</g>
</g>
<!-- Node473886&#45;&gt;Node473889 -->
<g id="edge3" class="edge">
<title>Node473886&#45;&gt;Node473889</title>
<path fill="none" stroke="#191970" d="M88.7601,-44.4527C112.8226,-37.9373 144.9094,-29.2492 170.8407,-22.2278"/>
<polygon fill="#191970" stroke="#191970" points="172.0711,-25.5207 180.8087,-19.5287 170.2415,-18.764 172.0711,-25.5207"/>
</g>
</g>
</svg>
