<?xml version="1.0" encoding="UTF-8" standalone="no"?>
<!DOCTYPE svg PUBLIC "-//W3C//DTD SVG 1.1//EN"
 "http://www.w3.org/Graphics/SVG/1.1/DTD/svg11.dtd">
<!-- Generated by graphviz version 2.40.1 (20161225.0304)
 -->
<!-- Title: js_resolve_export Pages: 1 -->
<svg width="522pt" height="84pt"
 viewBox="0.00 0.00 522.00 84.00" xmlns="http://www.w3.org/2000/svg" xmlns:xlink="http://www.w3.org/1999/xlink">
<g id="graph0" class="graph" transform="scale(1 1) rotate(0) translate(4 80)">
<title>js_resolve_export</title>
<!-- Node332784 -->
<g id="node1" class="node">
<title>Node332784</title>
<polygon fill="#bfbfbf" stroke="#000000" points="0,-19.5 0,-38.5 93,-38.5 93,-19.5 0,-19.5"/>
<text text-anchor="middle" x="46.5" y="-26.5" font-family="Helvetica,sans-Serif" font-size="10.00" fill="#000000">js_resolve_export</text>
</g>
<!-- Node332785 -->
<g id="node2" class="node">
<title>Node332785</title>
<g id="a_node2"><a xlink:href="quickjs_8c.html#ad12b6863ca31850fc39d208bb865420e" target="_top" xlink:title="js_build_module_ns">
<polygon fill="none" stroke="#000000" points="129,-38.5 129,-57.5 231,-57.5 231,-38.5 129,-38.5"/>
<text text-anchor="middle" x="180" y="-45.5" font-family="Helvetica,sans-Serif" font-size="10.00" fill="#000000">js_build_module_ns</text>
</a>
</g>
</g>
<!-- Node332784&#45;&gt;Node332785 -->
<g id="edge1" class="edge">
<title>Node332784&#45;&gt;Node332785</title>
<path fill="none" stroke="#191970" d="M103.2829,-37.0815C111.6733,-38.2756 120.2787,-39.5003 128.5525,-40.6779"/>
<polygon fill="#191970" stroke="#191970" points="103.5852,-33.5893 93.1918,-35.6453 102.5989,-40.5195 103.5852,-33.5893"/>
</g>
<!-- Node332787 -->
<g id="node4" class="node">
<title>Node332787</title>
<g id="a_node4"><a xlink:href="quickjs_8c.html#a89e4f0ec49cdd0029ab50c0509ccc445" target="_top" xlink:title="js_instantiate_module">
<polygon fill="none" stroke="#ff0000" points="400.5,-.5 400.5,-19.5 511.5,-19.5 511.5,-.5 400.5,-.5"/>
<text text-anchor="middle" x="456" y="-7.5" font-family="Helvetica,sans-Serif" font-size="10.00" fill="#000000">js_instantiate_module</text>
</a>
</g>
</g>
<!-- Node332784&#45;&gt;Node332787 -->
<g id="edge6" class="edge">
<title>Node332784&#45;&gt;Node332787</title>
<path fill="none" stroke="#191970" d="M103.2575,-26.3666C181.7256,-22.7258 322.4601,-16.196 400.3418,-12.5824"/>
<polygon fill="#191970" stroke="#191970" points="102.9032,-22.8791 93.0762,-26.839 103.2277,-29.8716 102.9032,-22.8791"/>
</g>
<!-- Node332786 -->
<g id="node3" class="node">
<title>Node332786</title>
<g id="a_node3"><a xlink:href="quickjs_8c.html#a2f5aeb4e31e2001c555335ae5172165b" target="_top" xlink:title="js_get_module_ns">
<polygon fill="none" stroke="#000000" points="267,-38.5 267,-57.5 362,-57.5 362,-38.5 267,-38.5"/>
<text text-anchor="middle" x="314.5" y="-45.5" font-family="Helvetica,sans-Serif" font-size="10.00" fill="#000000">js_get_module_ns</text>
</a>
</g>
</g>
<!-- Node332785&#45;&gt;Node332786 -->
<g id="edge2" class="edge">
<title>Node332785&#45;&gt;Node332786</title>
<path fill="none" stroke="#191970" d="M241.2586,-48C249.8806,-48 258.6349,-48 266.9487,-48"/>
<polygon fill="#191970" stroke="#191970" points="241.2324,-44.5001 231.2324,-48 241.2323,-51.5001 241.2324,-44.5001"/>
</g>
<!-- Node332786&#45;&gt;Node332787 -->
<g id="edge3" class="edge">
<title>Node332786&#45;&gt;Node332787</title>
<path fill="none" stroke="#191970" d="M360.101,-35.7538C379.605,-30.516 402.0404,-24.4909 420.305,-19.5859"/>
<polygon fill="#191970" stroke="#191970" points="358.9564,-32.4371 350.2064,-38.411 360.772,-39.1975 358.9564,-32.4371"/>
</g>
<!-- Node332791 -->
<g id="node5" class="node">
<title>Node332791</title>
<g id="a_node5"><a xlink:href="quickjs_8c.html#a6357b7fdae71c70c140e78e6c20cb5c2" target="_top" xlink:title="js_dynamic_import_job">
<polygon fill="none" stroke="#ff0000" points="398,-56.5 398,-75.5 514,-75.5 514,-56.5 398,-56.5"/>
<text text-anchor="middle" x="456" y="-63.5" font-family="Helvetica,sans-Serif" font-size="10.00" fill="#000000">js_dynamic_import_job</text>
</a>
</g>
</g>
<!-- Node332786&#45;&gt;Node332791 -->
<g id="edge5" class="edge">
<title>Node332786&#45;&gt;Node332791</title>
<path fill="none" stroke="#191970" d="M372.1636,-55.3353C380.6198,-56.411 389.3344,-57.5196 397.8012,-58.5966"/>
<polygon fill="#191970" stroke="#191970" points="372.3728,-51.8338 362.0111,-54.0438 371.4894,-58.7778 372.3728,-51.8338"/>
</g>
<!-- Node332787&#45;&gt;Node332787 -->
<g id="edge4" class="edge">
<title>Node332787&#45;&gt;Node332787</title>
<path fill="none" stroke="#191970" d="M429.9584,-29.0292C431.3789,-34.128 440.0594,-38 456,-38 480.8828,-38 488.0755,-28.5653 477.5781,-19.7571"/>
<polygon fill="#191970" stroke="#191970" points="433.238,-30.2855 434.4219,-19.7571 426.9308,-27.2493 433.238,-30.2855"/>
</g>
</g>
</svg>
