<?xml version="1.0" encoding="UTF-8" standalone="no"?>
<!DOCTYPE svg PUBLIC "-//W3C//DTD SVG 1.1//EN"
 "http://www.w3.org/Graphics/SVG/1.1/DTD/svg11.dtd">
<!-- Generated by graphviz version 2.40.1 (20161225.0304)
 -->
<!-- Title: js_std_loop Pages: 1 -->
<svg width="390pt" height="66pt"
 viewBox="0.00 0.00 390.00 66.00" xmlns="http://www.w3.org/2000/svg" xmlns:xlink="http://www.w3.org/1999/xlink">
<g id="graph0" class="graph" transform="scale(1 1) rotate(0) translate(4 62)">
<title>js_std_loop</title>
<!-- Node34424 -->
<g id="node1" class="node">
<title>Node34424</title>
<polygon fill="#bfbfbf" stroke="#000000" points="0,-19.5 0,-38.5 66,-38.5 66,-19.5 0,-19.5"/>
<text text-anchor="middle" x="33" y="-26.5" font-family="Helvetica,sans-Serif" font-size="10.00" fill="#000000">js_std_loop</text>
</g>
<!-- Node34425 -->
<g id="node2" class="node">
<title>Node34425</title>
<g id="a_node2"><a xlink:href="qjs_8cpp.html#a3c04138a5bfe5d72780bb7e82a18e627" target="_top" xlink:title="main">
<polygon fill="none" stroke="#000000" points="118,-38.5 118,-57.5 156,-57.5 156,-38.5 118,-38.5"/>
<text text-anchor="middle" x="137" y="-45.5" font-family="Helvetica,sans-Serif" font-size="10.00" fill="#000000">main</text>
</a>
</g>
</g>
<!-- Node34424&#45;&gt;Node34425 -->
<g id="edge1" class="edge">
<title>Node34424&#45;&gt;Node34425</title>
<path fill="none" stroke="#191970" d="M76.4435,-36.9368C90.8297,-39.565 106.1143,-42.3574 117.7287,-44.4793"/>
<polygon fill="#191970" stroke="#191970" points="76.6584,-33.4182 66.1922,-35.064 75.4003,-40.3042 76.6584,-33.4182"/>
</g>
<!-- Node34426 -->
<g id="node3" class="node">
<title>Node34426</title>
<g id="a_node3"><a xlink:href="quickjs-libc_8c.html#a1fbb3adc15e7b967479fc1940e99b67a" target="_top" xlink:title="worker_func">
<polygon fill="none" stroke="#000000" points="102,-.5 102,-19.5 172,-19.5 172,-.5 102,-.5"/>
<text text-anchor="middle" x="137" y="-7.5" font-family="Helvetica,sans-Serif" font-size="10.00" fill="#000000">worker_func</text>
</a>
</g>
</g>
<!-- Node34424&#45;&gt;Node34426 -->
<g id="edge2" class="edge">
<title>Node34424&#45;&gt;Node34426</title>
<path fill="none" stroke="#191970" d="M76.095,-21.1269C84.7125,-19.5525 93.6664,-17.9167 101.9716,-16.3994"/>
<polygon fill="#191970" stroke="#191970" points="75.4003,-17.6958 66.1922,-22.936 76.6584,-24.5818 75.4003,-17.6958"/>
</g>
<!-- Node34427 -->
<g id="node4" class="node">
<title>Node34427</title>
<g id="a_node4"><a xlink:href="quickjs-libc_8c.html#aff1e6131e8bf8b7eb25307623ad669e7" target="_top" xlink:title="js_worker_ctor">
<polygon fill="none" stroke="#000000" points="208,-.5 208,-19.5 288,-19.5 288,-.5 208,-.5"/>
<text text-anchor="middle" x="248" y="-7.5" font-family="Helvetica,sans-Serif" font-size="10.00" fill="#000000">js_worker_ctor</text>
</a>
</g>
</g>
<!-- Node34426&#45;&gt;Node34427 -->
<g id="edge3" class="edge">
<title>Node34426&#45;&gt;Node34427</title>
<path fill="none" stroke="#191970" d="M182.1986,-10C190.6394,-10 199.4096,-10 207.691,-10"/>
<polygon fill="#191970" stroke="#191970" points="182.1211,-6.5001 172.1211,-10 182.1211,-13.5001 182.1211,-6.5001"/>
</g>
<!-- Node34428 -->
<g id="node5" class="node">
<title>Node34428</title>
<g id="a_node5"><a xlink:href="quickjs-libc_8c.html#a066e7962ce24f22d5df20968a8baa346" target="_top" xlink:title="js_os_init">
<polygon fill="none" stroke="#ff0000" points="324,-.5 324,-19.5 382,-19.5 382,-.5 324,-.5"/>
<text text-anchor="middle" x="353" y="-7.5" font-family="Helvetica,sans-Serif" font-size="10.00" fill="#000000">js_os_init</text>
</a>
</g>
</g>
<!-- Node34427&#45;&gt;Node34428 -->
<g id="edge4" class="edge">
<title>Node34427&#45;&gt;Node34428</title>
<path fill="none" stroke="#191970" d="M298.3994,-10C307.0852,-10 315.8478,-10 323.7342,-10"/>
<polygon fill="#191970" stroke="#191970" points="298.2955,-6.5001 288.2954,-10 298.2954,-13.5001 298.2955,-6.5001"/>
</g>
</g>
</svg>
