<?xml version="1.0" encoding="UTF-8" standalone="no"?>
<!DOCTYPE svg PUBLIC "-//W3C//DTD SVG 1.1//EN"
 "http://www.w3.org/Graphics/SVG/1.1/DTD/svg11.dtd">
<!-- Generated by graphviz version 2.40.1 (20161225.0304)
 -->
<!-- Title: emit_return Pages: 1 -->
<svg width="1222pt" height="549pt"
 viewBox="0.00 0.00 1222.00 549.00" xmlns="http://www.w3.org/2000/svg" xmlns:xlink="http://www.w3.org/1999/xlink">
<g id="graph0" class="graph" transform="scale(1 1) rotate(0) translate(4 545)">
<title>emit_return</title>
<!-- Node323752 -->
<g id="node1" class="node">
<title>Node323752</title>
<polygon fill="#bfbfbf" stroke="#000000" points="0,-199.5 0,-218.5 65,-218.5 65,-199.5 0,-199.5"/>
<text text-anchor="middle" x="32.5" y="-206.5" font-family="Helvetica,sans-Serif" font-size="10.00" fill="#000000">emit_return</text>
</g>
<!-- Node323753 -->
<g id="node2" class="node">
<title>Node323753</title>
<g id="a_node2"><a xlink:href="quickjs_8c.html#a4fa2fc1719feb03edf64eaf034103fd2" target="_top" xlink:title="js_parse_assign_expr">
<polygon fill="none" stroke="#000000" points="101,-199.5 101,-218.5 212,-218.5 212,-199.5 101,-199.5"/>
<text text-anchor="middle" x="156.5" y="-206.5" font-family="Helvetica,sans-Serif" font-size="10.00" fill="#000000">js_parse_assign_expr</text>
</a>
</g>
</g>
<!-- Node323752&#45;&gt;Node323753 -->
<g id="edge1" class="edge">
<title>Node323752&#45;&gt;Node323753</title>
<path fill="none" stroke="#191970" d="M75.1619,-209C83.3732,-209 92.0875,-209 100.6441,-209"/>
<polygon fill="#191970" stroke="#191970" points="75.0796,-205.5001 65.0795,-209 75.0795,-212.5001 75.0796,-205.5001"/>
</g>
<!-- Node323763 -->
<g id="node7" class="node">
<title>Node323763</title>
<g id="a_node7"><a xlink:href="quickjs_8c.html#a9d844c16dcc71701436848074337d32c" target="_top" xlink:title="js_parse_statement\l_or_decl">
<polygon fill="none" stroke="#ff0000" points="1112,-374 1112,-404 1214,-404 1214,-374 1112,-374"/>
<text text-anchor="start" x="1120" y="-392" font-family="Helvetica,sans-Serif" font-size="10.00" fill="#000000">js_parse_statement</text>
<text text-anchor="middle" x="1163" y="-381" font-family="Helvetica,sans-Serif" font-size="10.00" fill="#000000">_or_decl</text>
</a>
</g>
</g>
<!-- Node323752&#45;&gt;Node323763 -->
<g id="edge42" class="edge">
<title>Node323752&#45;&gt;Node323763</title>
<path fill="none" stroke="#191970" d="M37.6766,-228.4599C57.8786,-299.5393 138.3986,-541 300,-541 300,-541 300,-541 897,-541 980.2263,-541 1005.8823,-530.8344 1076,-486 1110.1146,-464.1865 1139.057,-425.4539 1153.3813,-404.1272"/>
<polygon fill="#191970" stroke="#191970" points="40.9836,-227.2863 34.949,-218.5781 34.2359,-229.1489 40.9836,-227.2863"/>
</g>
<!-- Node323759 -->
<g id="node10" class="node">
<title>Node323759</title>
<g id="a_node10"><a xlink:href="quickjs_8c.html#acc9eb677cab8dfcf45f59381f8a19601" target="_top" xlink:title="js_parse_function_decl2">
<polygon fill="none" stroke="#ff0000" points="836,-123.5 836,-142.5 958,-142.5 958,-123.5 836,-123.5"/>
<text text-anchor="middle" x="897" y="-130.5" font-family="Helvetica,sans-Serif" font-size="10.00" fill="#000000">js_parse_function_decl2</text>
</a>
</g>
</g>
<!-- Node323752&#45;&gt;Node323759 -->
<g id="edge41" class="edge">
<title>Node323752&#45;&gt;Node323759</title>
<path fill="none" stroke="#191970" d="M46.4984,-191.5434C83.1287,-147.9884 186.8337,-38 300,-38 300,-38 300,-38 593,-38 706.6308,-38 833.7232,-99.2163 879.4433,-123.3681"/>
<polygon fill="#191970" stroke="#191970" points="43.7493,-189.3758 40.0837,-199.3163 49.1482,-193.8313 43.7493,-189.3758"/>
</g>
<!-- Node323753&#45;&gt;Node323753 -->
<g id="edge23" class="edge">
<title>Node323753&#45;&gt;Node323753</title>
<path fill="none" stroke="#191970" d="M133.4346,-228.0292C134.6928,-233.128 142.3812,-237 156.5,-237 178.5391,-237 184.9097,-227.5653 175.612,-218.7571"/>
<polygon fill="#191970" stroke="#191970" points="136.6854,-229.3286 137.388,-218.7571 130.2463,-226.5831 136.6854,-229.3286"/>
</g>
<!-- Node323754 -->
<g id="node3" class="node">
<title>Node323754</title>
<g id="a_node3"><a xlink:href="quickjs_8c.html#a253917187cfb6b3db09d355b31edb3d5" target="_top" xlink:title="js_parse_array_literal">
<polygon fill="none" stroke="#000000" points="390,-294.5 390,-313.5 499,-313.5 499,-294.5 390,-294.5"/>
<text text-anchor="middle" x="444.5" y="-301.5" font-family="Helvetica,sans-Serif" font-size="10.00" fill="#000000">js_parse_array_literal</text>
</a>
</g>
</g>
<!-- Node323753&#45;&gt;Node323754 -->
<g id="edge2" class="edge">
<title>Node323753&#45;&gt;Node323754</title>
<path fill="none" stroke="#191970" d="M172.6778,-226.0751C189.6992,-242.8592 218.1229,-267.6937 248,-280 293.2835,-298.6522 349.0391,-303.9756 389.5772,-305.0296"/>
<polygon fill="#191970" stroke="#191970" points="174.7944,-223.2366 165.2814,-218.5724 169.8095,-228.1509 174.7944,-223.2366"/>
</g>
<!-- Node323755 -->
<g id="node4" class="node">
<title>Node323755</title>
<g id="a_node4"><a xlink:href="quickjs_8c.html#acdcc62310b4f6f73fa7bc7267b18b1d4" target="_top" xlink:title="js_parse_postfix_expr">
<polygon fill="none" stroke="#ff0000" points="537,-294.5 537,-313.5 649,-313.5 649,-294.5 537,-294.5"/>
<text text-anchor="middle" x="593" y="-301.5" font-family="Helvetica,sans-Serif" font-size="10.00" fill="#000000">js_parse_postfix_expr</text>
</a>
</g>
</g>
<!-- Node323753&#45;&gt;Node323755 -->
<g id="edge39" class="edge">
<title>Node323753&#45;&gt;Node323755</title>
<path fill="none" stroke="#191970" d="M189.0676,-222.3433C206.3444,-229.0122 228.0682,-236.7565 248,-242 358.3039,-271.0179 388.9104,-263.9069 501,-285 516.3868,-287.8955 533.1711,-291.2913 548.1408,-294.4049"/>
<polygon fill="#191970" stroke="#191970" points="190.0437,-218.9664 179.4563,-218.5681 187.4845,-225.4818 190.0437,-218.9664"/>
</g>
<!-- Node323756 -->
<g id="node5" class="node">
<title>Node323756</title>
<g id="a_node5"><a xlink:href="quickjs_8c.html#a00eb789430243c24dab4a63ad6a79653" target="_top" xlink:title="js_parse_class">
<polygon fill="none" stroke="#000000" points="994,-246.5 994,-265.5 1076,-265.5 1076,-246.5 994,-246.5"/>
<text text-anchor="middle" x="1035" y="-253.5" font-family="Helvetica,sans-Serif" font-size="10.00" fill="#000000">js_parse_class</text>
</a>
</g>
</g>
<!-- Node323753&#45;&gt;Node323756 -->
<g id="edge24" class="edge">
<title>Node323753&#45;&gt;Node323756</title>
<path fill="none" stroke="#191970" d="M222.4097,-204.4716C339.1738,-197.4346 589.8725,-186.7594 800,-208 871.6736,-215.2451 953.7957,-234.6186 999.5126,-246.4196"/>
<polygon fill="#191970" stroke="#191970" points="221.975,-200.9916 212.2083,-205.0979 222.404,-207.9785 221.975,-200.9916"/>
</g>
<!-- Node323757 -->
<g id="node6" class="node">
<title>Node323757</title>
<g id="a_node6"><a xlink:href="quickjs_8c.html#a498e1d5c7de1b59c1630e9847cde1e41" target="_top" xlink:title="js_parse_export">
<polygon fill="none" stroke="#ff0000" points="1120,-142.5 1120,-161.5 1206,-161.5 1206,-142.5 1120,-142.5"/>
<text text-anchor="middle" x="1163" y="-149.5" font-family="Helvetica,sans-Serif" font-size="10.00" fill="#000000">js_parse_export</text>
</a>
</g>
</g>
<!-- Node323753&#45;&gt;Node323757 -->
<g id="edge28" class="edge">
<title>Node323753&#45;&gt;Node323757</title>
<path fill="none" stroke="#191970" d="M163.7579,-189.9283C176.3226,-159.3985 204.9798,-99.5824 248,-66 320.6213,-9.3105 352.3721,0 444.5,0 444.5,0 444.5,0 897,0 1012.4191,0 1123.2934,-109.2152 1154.3967,-142.4917"/>
<polygon fill="#191970" stroke="#191970" points="160.4286,-188.8291 159.9876,-199.4147 166.9336,-191.4145 160.4286,-188.8291"/>
</g>
<!-- Node323776 -->
<g id="node8" class="node">
<title>Node323776</title>
<g id="a_node8"><a xlink:href="quickjs_8c.html#a26be546cf89c4580ba9020e8fc43a759" target="_top" xlink:title="js_parse_destructuring\l_element">
<polygon fill="none" stroke="#000000" points="685,-218 685,-248 800,-248 800,-218 685,-218"/>
<text text-anchor="start" x="693" y="-236" font-family="Helvetica,sans-Serif" font-size="10.00" fill="#000000">js_parse_destructuring</text>
<text text-anchor="middle" x="742.5" y="-225" font-family="Helvetica,sans-Serif" font-size="10.00" fill="#000000">_element</text>
</a>
</g>
</g>
<!-- Node323753&#45;&gt;Node323776 -->
<g id="edge27" class="edge">
<title>Node323753&#45;&gt;Node323776</title>
<path fill="none" stroke="#191970" d="M222.2721,-211.6937C337.7312,-216.4224 575.0001,-226.1399 684.6253,-230.6297"/>
<polygon fill="#191970" stroke="#191970" points="222.2926,-208.1917 212.1578,-211.2795 222.0061,-215.1859 222.2926,-208.1917"/>
</g>
<!-- Node323765 -->
<g id="node9" class="node">
<title>Node323765</title>
<g id="a_node9"><a xlink:href="quickjs_8c.html#ac188b916dd086803591a67de7e7a85f6" target="_top" xlink:title="js_parse_for_in_of">
<polygon fill="none" stroke="#000000" points="849,-379.5 849,-398.5 945,-398.5 945,-379.5 849,-379.5"/>
<text text-anchor="middle" x="897" y="-386.5" font-family="Helvetica,sans-Serif" font-size="10.00" fill="#000000">js_parse_for_in_of</text>
</a>
</g>
</g>
<!-- Node323753&#45;&gt;Node323765 -->
<g id="edge35" class="edge">
<title>Node323753&#45;&gt;Node323765</title>
<path fill="none" stroke="#191970" d="M165.1807,-227.8115C178.85,-255.331 208.0114,-306.2937 248,-334 322.5453,-385.6491 353.8102,-389 444.5,-389 444.5,-389 444.5,-389 593,-389 683.3819,-389 788.879,-389 848.824,-389"/>
<polygon fill="#191970" stroke="#191970" points="168.1965,-226.0065 160.71,-218.5096 161.8873,-229.0388 168.1965,-226.0065"/>
</g>
<!-- Node323753&#45;&gt;Node323759 -->
<g id="edge36" class="edge">
<title>Node323753&#45;&gt;Node323759</title>
<path fill="none" stroke="#191970" d="M187.4638,-195.3801C204.8993,-188.3397 227.2737,-180.3343 248,-176 460.4934,-131.5637 719.8455,-129.6181 835.8377,-131.4047"/>
<polygon fill="#191970" stroke="#191970" points="185.7157,-192.3159 177.8185,-199.3788 188.3966,-198.7822 185.7157,-192.3159"/>
</g>
<!-- Node323777 -->
<g id="node11" class="node">
<title>Node323777</title>
<g id="a_node11"><a xlink:href="quickjs_8c.html#a42924858317b848c3aea0a0a978fab3a" target="_top" xlink:title="js_parse_var">
<polygon fill="none" stroke="#000000" points="999,-161.5 999,-180.5 1071,-180.5 1071,-161.5 999,-161.5"/>
<text text-anchor="middle" x="1035" y="-168.5" font-family="Helvetica,sans-Serif" font-size="10.00" fill="#000000">js_parse_var</text>
</a>
</g>
</g>
<!-- Node323753&#45;&gt;Node323777 -->
<g id="edge40" class="edge">
<title>Node323753&#45;&gt;Node323777</title>
<path fill="none" stroke="#191970" d="M165.4803,-190.1769C179.1857,-163.7886 208.0085,-116.6103 248,-95 325.1914,-53.2878 356.7594,-76 444.5,-76 444.5,-76 444.5,-76 742.5,-76 839.7554,-76 868.6464,-75.6001 958,-114 984.8944,-125.5579 1011.2036,-148.1651 1025.0203,-161.1659"/>
<polygon fill="#191970" stroke="#191970" points="162.3222,-188.6669 160.976,-199.1759 168.5819,-191.8001 162.3222,-188.6669"/>
</g>
<!-- Node323782 -->
<g id="node12" class="node">
<title>Node323782</title>
<g id="a_node12"><a xlink:href="quickjs_8c.html#abd2cbff624ea609dbf883fb1a2f048cd" target="_top" xlink:title="js_parse_cond_expr">
<polygon fill="none" stroke="#000000" points="248,-104.5 248,-123.5 352,-123.5 352,-104.5 248,-104.5"/>
<text text-anchor="middle" x="300" y="-111.5" font-family="Helvetica,sans-Serif" font-size="10.00" fill="#000000">js_parse_cond_expr</text>
</a>
</g>
</g>
<!-- Node323753&#45;&gt;Node323782 -->
<g id="edge25" class="edge">
<title>Node323753&#45;&gt;Node323782</title>
<path fill="none" stroke="#191970" d="M168.8512,-191.8541C185.8377,-174.0585 217.7532,-147.3849 248,-129 251.0587,-127.1408 254.2855,-125.3299 257.5726,-123.6155"/>
<polygon fill="#191970" stroke="#191970" points="166.2112,-189.5558 162.1567,-199.3441 171.4304,-194.2206 166.2112,-189.5558"/>
</g>
<!-- Node323784 -->
<g id="node13" class="node">
<title>Node323784</title>
<g id="a_node13"><a xlink:href="quickjs_8c.html#a1cef6995e7ec0c736babe92589cf441f" target="_top" xlink:title="js_parse_expr2">
<polygon fill="none" stroke="#000000" points="258.5,-417.5 258.5,-436.5 341.5,-436.5 341.5,-417.5 258.5,-417.5"/>
<text text-anchor="middle" x="300" y="-424.5" font-family="Helvetica,sans-Serif" font-size="10.00" fill="#000000">js_parse_expr2</text>
</a>
</g>
</g>
<!-- Node323753&#45;&gt;Node323784 -->
<g id="edge29" class="edge">
<title>Node323753&#45;&gt;Node323784</title>
<path fill="none" stroke="#191970" d="M160.9954,-228.7549C170.644,-267.069 196.7408,-352.1647 248,-403 254.1421,-409.0913 262.1151,-413.8142 269.9653,-417.3954"/>
<polygon fill="#191970" stroke="#191970" points="164.3551,-227.7563 158.6105,-218.8541 157.5497,-229.3957 164.3551,-227.7563"/>
</g>
<!-- Node323762 -->
<g id="node15" class="node">
<title>Node323762</title>
<g id="a_node15"><a xlink:href="quickjs_8c.html#aee6d0acd87f136d43f157ae1426436e6" target="_top" xlink:title="js_parse_object_literal">
<polygon fill="none" stroke="#000000" points="388,-332.5 388,-351.5 501,-351.5 501,-332.5 388,-332.5"/>
<text text-anchor="middle" x="444.5" y="-339.5" font-family="Helvetica,sans-Serif" font-size="10.00" fill="#000000">js_parse_object_literal</text>
</a>
</g>
</g>
<!-- Node323753&#45;&gt;Node323762 -->
<g id="edge37" class="edge">
<title>Node323753&#45;&gt;Node323762</title>
<path fill="none" stroke="#191970" d="M168.4857,-227.311C184.0308,-249.4696 213.3046,-286.1468 248,-305 291.16,-328.4527 346.6417,-337.2833 387.6378,-340.4908"/>
<polygon fill="#191970" stroke="#191970" points="171.2099,-225.0931 162.6882,-218.7976 165.424,-229.0332 171.2099,-225.0931"/>
</g>
<!-- Node323754&#45;&gt;Node323755 -->
<g id="edge3" class="edge">
<title>Node323754&#45;&gt;Node323755</title>
<path fill="none" stroke="#191970" d="M509.544,-304C518.6488,-304 527.941,-304 536.8618,-304"/>
<polygon fill="#191970" stroke="#191970" points="509.374,-300.5001 499.374,-304 509.374,-307.5001 509.374,-300.5001"/>
</g>
<!-- Node323755&#45;&gt;Node323755 -->
<g id="edge22" class="edge">
<title>Node323755&#45;&gt;Node323755</title>
<path fill="none" stroke="#191970" d="M565.3742,-322.6539C566.5289,-327.9368 575.7375,-332 593,-332 619.3047,-332 626.9084,-322.5653 615.8111,-313.7571"/>
<polygon fill="#191970" stroke="#191970" points="568.5076,-324.2176 570.1889,-313.7571 562.3512,-320.886 568.5076,-324.2176"/>
</g>
<!-- Node323755&#45;&gt;Node323756 -->
<g id="edge4" class="edge">
<title>Node323755&#45;&gt;Node323756</title>
<path fill="none" stroke="#191970" d="M650.3872,-293.0493C740.9141,-280.3252 914.6967,-261.6501 993.8765,-256.3387"/>
<polygon fill="#191970" stroke="#191970" points="649.7049,-289.6112 640.3017,-294.4928 650.6968,-296.5406 649.7049,-289.6112"/>
</g>
<!-- Node323755&#45;&gt;Node323776 -->
<g id="edge9" class="edge">
<title>Node323755&#45;&gt;Node323776</title>
<path fill="none" stroke="#191970" d="M613.6508,-289.3598C635.2407,-277.1715 669.797,-260.2898 697.6902,-248.0372"/>
<polygon fill="#191970" stroke="#191970" points="611.8451,-286.3612 604.9815,-294.4323 615.3802,-292.403 611.8451,-286.3612"/>
</g>
<!-- Node323755&#45;&gt;Node323765 -->
<g id="edge21" class="edge">
<title>Node323755&#45;&gt;Node323765</title>
<path fill="none" stroke="#191970" d="M636.7146,-316.2228C697.7599,-333.2914 807.2748,-363.9124 862.766,-379.428"/>
<polygon fill="#191970" stroke="#191970" points="637.5609,-312.8253 626.9878,-313.5032 635.6759,-319.5667 637.5609,-312.8253"/>
</g>
<!-- Node323756&#45;&gt;Node323755 -->
<g id="edge6" class="edge">
<title>Node323756&#45;&gt;Node323755</title>
<path fill="none" stroke="#191970" d="M984.0117,-266.0412C900.7258,-278.0179 736.1123,-295.9557 649.4286,-302.5598"/>
<polygon fill="#191970" stroke="#191970" points="984.6117,-269.4907 993.997,-264.575 983.5946,-262.565 984.6117,-269.4907"/>
</g>
<!-- Node323756&#45;&gt;Node323757 -->
<g id="edge5" class="edge">
<title>Node323756&#45;&gt;Node323757</title>
<path fill="none" stroke="#191970" d="M1054.7929,-239.9183C1081.7694,-217.9998 1129.2349,-179.4342 1151.2161,-161.5745"/>
<polygon fill="#191970" stroke="#191970" points="1052.3666,-237.38 1046.8125,-246.4023 1056.7807,-242.8128 1052.3666,-237.38"/>
</g>
<!-- Node323756&#45;&gt;Node323763 -->
<g id="edge7" class="edge">
<title>Node323756&#45;&gt;Node323763</title>
<path fill="none" stroke="#191970" d="M1051.1949,-272.8276C1076.229,-298.8395 1123.9556,-348.4304 1148.1486,-373.5685"/>
<polygon fill="#191970" stroke="#191970" points="1053.6616,-270.3432 1044.2054,-265.565 1048.618,-275.1973 1053.6616,-270.3432"/>
</g>
<!-- Node323763&#45;&gt;Node323763 -->
<g id="edge8" class="edge">
<title>Node323763&#45;&gt;Node323763</title>
<path fill="none" stroke="#191970" d="M1140.2559,-414.4579C1143.0788,-419.179 1150.6602,-422.5 1163,-422.5 1183.25,-422.5 1190.6855,-413.5566 1185.3066,-404.159"/>
<polygon fill="#191970" stroke="#191970" points="1143.7658,-414.2985 1140.6934,-404.159 1136.7721,-414.0014 1143.7658,-414.2985"/>
</g>
<!-- Node323776&#45;&gt;Node323755 -->
<g id="edge16" class="edge">
<title>Node323776&#45;&gt;Node323755</title>
<path fill="none" stroke="#191970" d="M712.2733,-252.9021C686.9494,-266.4952 650.8991,-283.6529 625.0715,-294.426"/>
<polygon fill="#191970" stroke="#191970" points="713.9934,-255.9507 721.0791,-248.0739 710.6279,-249.8128 713.9934,-255.9507"/>
</g>
<!-- Node323776&#45;&gt;Node323763 -->
<g id="edge17" class="edge">
<title>Node323776&#45;&gt;Node323763</title>
<path fill="none" stroke="#191970" d="M792.8011,-251.661C877.0237,-282.9065 1044.9365,-345.2 1122.2762,-373.892"/>
<polygon fill="#191970" stroke="#191970" points="793.7944,-248.2965 783.2014,-248.0997 791.3596,-254.8594 793.7944,-248.2965"/>
</g>
<!-- Node323776&#45;&gt;Node323776 -->
<g id="edge10" class="edge">
<title>Node323776&#45;&gt;Node323776</title>
<path fill="none" stroke="#191970" d="M716.2022,-258.4579C719.4661,-263.179 728.2321,-266.5 742.5,-266.5 765.9141,-266.5 774.5114,-257.5566 768.2921,-248.159"/>
<polygon fill="#191970" stroke="#191970" points="719.7132,-258.3187 716.7079,-248.159 712.7216,-257.9753 719.7132,-258.3187"/>
</g>
<!-- Node323776&#45;&gt;Node323765 -->
<g id="edge11" class="edge">
<title>Node323776&#45;&gt;Node323765</title>
<path fill="none" stroke="#191970" d="M754.1558,-257.3493C769.2816,-286.6042 798.2662,-335.4312 836,-365 843.7933,-371.1069 853.3347,-375.8349 862.536,-379.4159"/>
<polygon fill="#191970" stroke="#191970" points="757.1892,-255.5912 749.5649,-248.2345 750.9374,-258.7401 757.1892,-255.5912"/>
</g>
<!-- Node323776&#45;&gt;Node323759 -->
<g id="edge13" class="edge">
<title>Node323776&#45;&gt;Node323759</title>
<path fill="none" stroke="#191970" d="M765.612,-210.7964C783.6741,-194.327 809.9981,-172.1889 836,-157 845.7285,-151.3172 857.0552,-146.4404 867.2892,-142.5962"/>
<polygon fill="#191970" stroke="#191970" points="762.8815,-208.5549 757.9255,-217.9191 767.6394,-213.6894 762.8815,-208.5549"/>
</g>
<!-- Node323776&#45;&gt;Node323777 -->
<g id="edge18" class="edge">
<title>Node323776&#45;&gt;Node323777</title>
<path fill="none" stroke="#191970" d="M810.2508,-218.6392C869.1138,-206.1622 952.0869,-188.5747 998.9987,-178.6311"/>
<polygon fill="#191970" stroke="#191970" points="809.3455,-215.2532 800.2886,-220.7508 810.797,-222.1011 809.3455,-215.2532"/>
</g>
<!-- Node323765&#45;&gt;Node323763 -->
<g id="edge12" class="edge">
<title>Node323765&#45;&gt;Node323763</title>
<path fill="none" stroke="#191970" d="M955.4303,-389C1002.0898,-389 1066.8408,-389 1111.5574,-389"/>
<polygon fill="#191970" stroke="#191970" points="955.1706,-385.5001 945.1706,-389 955.1706,-392.5001 955.1706,-385.5001"/>
</g>
<!-- Node323759&#45;&gt;Node323756 -->
<g id="edge14" class="edge">
<title>Node323759&#45;&gt;Node323756</title>
<path fill="none" stroke="#191970" d="M915.2951,-149.3065C944.4829,-175.3217 1000.6881,-225.4176 1024.2217,-246.3932"/>
<polygon fill="#191970" stroke="#191970" points="917.6226,-146.6925 907.8286,-142.6516 912.965,-151.9181 917.6226,-146.6925"/>
</g>
<!-- Node323759&#45;&gt;Node323757 -->
<g id="edge15" class="edge">
<title>Node323759&#45;&gt;Node323757</title>
<path fill="none" stroke="#191970" d="M968.1031,-138.0788C1016.3838,-141.5274 1078.6705,-145.9765 1119.6728,-148.9052"/>
<polygon fill="#191970" stroke="#191970" points="968.2498,-134.5804 958.0258,-137.359 967.751,-141.5627 968.2498,-134.5804"/>
</g>
<!-- Node323777&#45;&gt;Node323757 -->
<g id="edge20" class="edge">
<title>Node323777&#45;&gt;Node323757</title>
<path fill="none" stroke="#191970" d="M1081.55,-164.0902C1094.0315,-162.2375 1107.4717,-160.2425 1119.7654,-158.4176"/>
<polygon fill="#191970" stroke="#191970" points="1080.715,-160.6757 1071.3373,-165.6062 1081.7428,-167.5999 1080.715,-160.6757"/>
</g>
<!-- Node323777&#45;&gt;Node323763 -->
<g id="edge19" class="edge">
<title>Node323777&#45;&gt;Node323763</title>
<path fill="none" stroke="#191970" d="M1046.6635,-189.3785C1054.9677,-202.5591 1066.3241,-220.7797 1076,-237 1105.5961,-286.614 1139.1838,-346.3102 1154.5352,-373.7934"/>
<polygon fill="#191970" stroke="#191970" points="1049.5253,-187.3554 1041.2238,-180.7723 1043.6082,-191.0954 1049.5253,-187.3554"/>
</g>
<!-- Node323782&#45;&gt;Node323753 -->
<g id="edge26" class="edge">
<title>Node323782&#45;&gt;Node323753</title>
<path fill="none" stroke="#191970" d="M282.3558,-128.811C272.0438,-134.3119 258.9459,-140.3468 248,-147 221.1963,-163.2921 193.0822,-186.0932 175.208,-199.384"/>
<polygon fill="#191970" stroke="#191970" points="284.3115,-131.7236 291.2278,-123.6978 280.816,-125.6588 284.3115,-131.7236"/>
</g>
<!-- Node323784&#45;&gt;Node323763 -->
<g id="edge34" class="edge">
<title>Node323784&#45;&gt;Node323763</title>
<path fill="none" stroke="#191970" d="M331.0065,-440.6044C383.7434,-462.4687 494.7545,-503 593,-503 593,-503 593,-503 897,-503 979.4825,-503 1001.8885,-490.2056 1076,-454 1102.9358,-440.8411 1129.9731,-418.9538 1146.5953,-404.2565"/>
<polygon fill="#191970" stroke="#191970" points="332.1298,-437.2798 321.5551,-436.6255 329.4136,-443.7314 332.1298,-437.2798"/>
</g>
<!-- Node323785 -->
<g id="node14" class="node">
<title>Node323785</title>
<g id="a_node14"><a xlink:href="quickjs_8c.html#af219bd55085ad700eb078affe3f65505" target="_top" xlink:title="js_parse_expr">
<polygon fill="none" stroke="#ff0000" points="406,-417.5 406,-436.5 483,-436.5 483,-417.5 406,-417.5"/>
<text text-anchor="middle" x="444.5" y="-424.5" font-family="Helvetica,sans-Serif" font-size="10.00" fill="#000000">js_parse_expr</text>
</a>
</g>
</g>
<!-- Node323784&#45;&gt;Node323785 -->
<g id="edge30" class="edge">
<title>Node323784&#45;&gt;Node323785</title>
<path fill="none" stroke="#191970" d="M352.0004,-427C369.7417,-427 389.2551,-427 405.7677,-427"/>
<polygon fill="#191970" stroke="#191970" points="351.7954,-423.5001 341.7954,-427 351.7954,-430.5001 351.7954,-423.5001"/>
</g>
<!-- Node323785&#45;&gt;Node323755 -->
<g id="edge32" class="edge">
<title>Node323785&#45;&gt;Node323755</title>
<path fill="none" stroke="#191970" d="M464.1871,-410.6935C495.5958,-384.6783 556.0774,-334.5824 581.4016,-313.6068"/>
<polygon fill="#191970" stroke="#191970" points="461.6213,-408.274 456.1525,-417.3484 466.0865,-413.665 461.6213,-408.274"/>
</g>
<!-- Node323785&#45;&gt;Node323763 -->
<g id="edge33" class="edge">
<title>Node323785&#45;&gt;Node323763</title>
<path fill="none" stroke="#191970" d="M493.4713,-437.1168C552.3201,-448.374 654.1843,-465 742.5,-465 742.5,-465 742.5,-465 897,-465 984.8922,-465 1083.0524,-426.1639 1131.8876,-404.0152"/>
<polygon fill="#191970" stroke="#191970" points="493.8324,-433.6217 483.3486,-435.152 492.4984,-440.4934 493.8324,-433.6217"/>
</g>
<!-- Node323785&#45;&gt;Node323765 -->
<g id="edge31" class="edge">
<title>Node323785&#45;&gt;Node323765</title>
<path fill="none" stroke="#191970" d="M493.3276,-424.8789C561.939,-421.631 690.7281,-414.5572 800,-403 815.9052,-401.3178 833.2082,-398.9834 848.738,-396.7025"/>
<polygon fill="#191970" stroke="#191970" points="493.0738,-421.3868 483.2477,-425.3489 493.3999,-428.3792 493.0738,-421.3868"/>
</g>
<!-- Node323762&#45;&gt;Node323755 -->
<g id="edge38" class="edge">
<title>Node323762&#45;&gt;Node323755</title>
<path fill="none" stroke="#191970" d="M491.8329,-329.8879C512.5146,-324.5956 536.4188,-318.4787 555.7966,-313.5201"/>
<polygon fill="#191970" stroke="#191970" points="490.793,-326.5411 481.9728,-332.411 492.5284,-333.3226 490.793,-326.5411"/>
</g>
</g>
</svg>
