<?xml version="1.0" encoding="UTF-8" standalone="no"?>
<!DOCTYPE svg PUBLIC "-//W3C//DTD SVG 1.1//EN"
 "http://www.w3.org/Graphics/SVG/1.1/DTD/svg11.dtd">
<!-- Generated by graphviz version 2.40.1 (20161225.0304)
 -->
<!-- Title: js_generator_mark Pages: 1 -->
<svg width="351pt" height="28pt"
 viewBox="0.00 0.00 351.00 28.00" xmlns="http://www.w3.org/2000/svg" xmlns:xlink="http://www.w3.org/1999/xlink">
<g id="graph0" class="graph" transform="scale(1 1) rotate(0) translate(4 24)">
<title>js_generator_mark</title>
<!-- Node301183 -->
<g id="node1" class="node">
<title>Node301183</title>
<polygon fill="#bfbfbf" stroke="#000000" points="0,-.5 0,-19.5 97,-19.5 97,-.5 0,-.5"/>
<text text-anchor="middle" x="48.5" y="-7.5" font-family="Helvetica,sans-Serif" font-size="10.00" fill="#000000">js_generator_mark</text>
</g>
<!-- Node301184 -->
<g id="node2" class="node">
<title>Node301184</title>
<g id="a_node2"><a xlink:href="quickjs_8c.html#a440c98b7712cdebdd1669145e347aeee" target="_top" xlink:title="async_func_mark">
<polygon fill="none" stroke="#000000" points="133,-.5 133,-19.5 227,-19.5 227,-.5 133,-.5"/>
<text text-anchor="middle" x="180" y="-7.5" font-family="Helvetica,sans-Serif" font-size="10.00" fill="#000000">async_func_mark</text>
</a>
</g>
</g>
<!-- Node301183&#45;&gt;Node301184 -->
<g id="edge1" class="edge">
<title>Node301183&#45;&gt;Node301184</title>
<path fill="none" stroke="#191970" d="M97.0921,-10C105.4144,-10 114.131,-10 122.656,-10"/>
<polygon fill="#191970" stroke="#191970" points="122.9201,-13.5001 132.9201,-10 122.9201,-6.5001 122.9201,-13.5001"/>
</g>
<!-- Node301185 -->
<g id="node3" class="node">
<title>Node301185</title>
<g id="a_node3"><a xlink:href="quickjs_8c.html#ab05309c79261e2042dfebf3dc7f7d039" target="_top" xlink:title="JS_MarkValue">
<polygon fill="none" stroke="#000000" points="263,-.5 263,-19.5 343,-19.5 343,-.5 263,-.5"/>
<text text-anchor="middle" x="303" y="-7.5" font-family="Helvetica,sans-Serif" font-size="10.00" fill="#000000">JS_MarkValue</text>
</a>
</g>
</g>
<!-- Node301184&#45;&gt;Node301185 -->
<g id="edge2" class="edge">
<title>Node301184&#45;&gt;Node301185</title>
<path fill="none" stroke="#191970" d="M227.2032,-10C235.5838,-10 244.3393,-10 252.7994,-10"/>
<polygon fill="#191970" stroke="#191970" points="252.9273,-13.5001 262.9273,-10 252.9273,-6.5001 252.9273,-13.5001"/>
</g>
</g>
</svg>
