<?xml version="1.0" encoding="UTF-8" standalone="no"?>
<!DOCTYPE svg PUBLIC "-//W3C//DTD SVG 1.1//EN"
 "http://www.w3.org/Graphics/SVG/1.1/DTD/svg11.dtd">
<!-- Generated by graphviz version 2.40.1 (20161225.0304)
 -->
<!-- Title: JS_EvalInternal Pages: 1 -->
<svg width="618pt" height="314pt"
 viewBox="0.00 0.00 618.00 313.81" xmlns="http://www.w3.org/2000/svg" xmlns:xlink="http://www.w3.org/1999/xlink">
<g id="graph0" class="graph" transform="scale(1 1) rotate(0) translate(4 309.8074)">
<title>JS_EvalInternal</title>
<!-- Node24916 -->
<g id="node1" class="node">
<title>Node24916</title>
<polygon fill="#bfbfbf" stroke="#000000" points="0,-114.5 0,-133.5 86,-133.5 86,-114.5 0,-114.5"/>
<text text-anchor="middle" x="43" y="-121.5" font-family="Helvetica,sans-Serif" font-size="10.00" fill="#000000">JS_EvalInternal</text>
</g>
<!-- Node24917 -->
<g id="node2" class="node">
<title>Node24917</title>
<g id="a_node2"><a xlink:href="quickjs_8c.html#a8f9200abd5af97fd0411fe053cb021e0" target="_top" xlink:title="JS_Eval">
<polygon fill="none" stroke="#000000" points="136.5,-190.5 136.5,-209.5 189.5,-209.5 189.5,-190.5 136.5,-190.5"/>
<text text-anchor="middle" x="163" y="-197.5" font-family="Helvetica,sans-Serif" font-size="10.00" fill="#000000">JS_Eval</text>
</a>
</g>
</g>
<!-- Node24916&#45;&gt;Node24917 -->
<g id="edge1" class="edge">
<title>Node24916&#45;&gt;Node24917</title>
<path fill="none" stroke="#191970" d="M66.7739,-139.0568C90.9021,-154.338 127.5228,-177.5311 147.9253,-190.4527"/>
<polygon fill="#191970" stroke="#191970" points="68.519,-136.0191 58.1981,-133.6255 64.7736,-141.9329 68.519,-136.0191"/>
</g>
<!-- Node24929 -->
<g id="node10" class="node">
<title>Node24929</title>
<g id="a_node10"><a xlink:href="quickjs_8c.html#a97231fb89bb56fdeddd9f5ba17b0e1ff" target="_top" xlink:title="JS_EvalObject">
<polygon fill="none" stroke="#000000" points="122,-57.5 122,-76.5 204,-76.5 204,-57.5 122,-57.5"/>
<text text-anchor="middle" x="163" y="-64.5" font-family="Helvetica,sans-Serif" font-size="10.00" fill="#000000">JS_EvalObject</text>
</a>
</g>
</g>
<!-- Node24916&#45;&gt;Node24929 -->
<g id="edge12" class="edge">
<title>Node24916&#45;&gt;Node24929</title>
<path fill="none" stroke="#191970" d="M72.257,-110.1029C94.1519,-99.7028 123.5305,-85.748 142.8492,-76.5716"/>
<polygon fill="#191970" stroke="#191970" points="70.6164,-107.0074 63.0853,-114.4595 73.6198,-113.3303 70.6164,-107.0074"/>
</g>
<!-- Node24918 -->
<g id="node3" class="node">
<title>Node24918</title>
<g id="a_node3"><a xlink:href="classqjs_1_1Context.html#aeafa4cad50424999587a30d7d3994251" target="_top" xlink:title="qjs::Context::eval">
<polygon fill="none" stroke="#000000" points="252,-266.5 252,-285.5 346,-285.5 346,-266.5 252,-266.5"/>
<text text-anchor="middle" x="299" y="-273.5" font-family="Helvetica,sans-Serif" font-size="10.00" fill="#000000">qjs::Context::eval</text>
</a>
</g>
</g>
<!-- Node24917&#45;&gt;Node24918 -->
<g id="edge2" class="edge">
<title>Node24917&#45;&gt;Node24918</title>
<path fill="none" stroke="#191970" d="M181.6355,-216.525C196.5563,-229.0549 218.4794,-245.9491 240,-257 247.1796,-260.6867 255.2164,-263.8441 262.9919,-266.4657"/>
<polygon fill="#191970" stroke="#191970" points="183.5838,-213.5849 173.7154,-209.729 179.0254,-218.8972 183.5838,-213.5849"/>
</g>
<!-- Node24921 -->
<g id="node6" class="node">
<title>Node24921</title>
<g id="a_node6"><a xlink:href="quickjs-libc_8c.html#acedf696011fa506afce358928ffa1522" target="_top" xlink:title="js_loadScript">
<polygon fill="none" stroke="#000000" points="262.5,-228.5 262.5,-247.5 335.5,-247.5 335.5,-228.5 262.5,-228.5"/>
<text text-anchor="middle" x="299" y="-235.5" font-family="Helvetica,sans-Serif" font-size="10.00" fill="#000000">js_loadScript</text>
</a>
</g>
</g>
<!-- Node24917&#45;&gt;Node24921 -->
<g id="edge6" class="edge">
<title>Node24917&#45;&gt;Node24921</title>
<path fill="none" stroke="#191970" d="M199.3743,-210.1634C219.6804,-215.8372 244.8274,-222.8635 264.7761,-228.4374"/>
<polygon fill="#191970" stroke="#191970" points="200.118,-206.7372 189.545,-207.417 198.2342,-213.479 200.118,-206.7372"/>
</g>
<!-- Node24927 -->
<g id="node8" class="node">
<title>Node24927</title>
<g id="a_node8"><a xlink:href="quickjs-libc_8c.html#ad61d60681847f324c5ba4ad88c546f1e" target="_top" xlink:title="js_module_loader">
<polygon fill="none" stroke="#000000" points="253,-190.5 253,-209.5 345,-209.5 345,-190.5 253,-190.5"/>
<text text-anchor="middle" x="299" y="-197.5" font-family="Helvetica,sans-Serif" font-size="10.00" fill="#000000">js_module_loader</text>
</a>
</g>
</g>
<!-- Node24917&#45;&gt;Node24927 -->
<g id="edge9" class="edge">
<title>Node24917&#45;&gt;Node24927</title>
<path fill="none" stroke="#191970" d="M199.8072,-200C216.1818,-200 235.6371,-200 252.9618,-200"/>
<polygon fill="#191970" stroke="#191970" points="199.5451,-196.5001 189.545,-200 199.545,-203.5001 199.5451,-196.5001"/>
</g>
<!-- Node24928 -->
<g id="node9" class="node">
<title>Node24928</title>
<g id="a_node9"><a xlink:href="quickjs-libc_8c.html#a55f6cd4bbd0e676992642d066fd1d9fd" target="_top" xlink:title="js_evalScript">
<polygon fill="none" stroke="#000000" points="262.5,-152.5 262.5,-171.5 335.5,-171.5 335.5,-152.5 262.5,-152.5"/>
<text text-anchor="middle" x="299" y="-159.5" font-family="Helvetica,sans-Serif" font-size="10.00" fill="#000000">js_evalScript</text>
</a>
</g>
</g>
<!-- Node24917&#45;&gt;Node24928 -->
<g id="edge11" class="edge">
<title>Node24917&#45;&gt;Node24928</title>
<path fill="none" stroke="#191970" d="M199.3743,-189.8366C219.6804,-184.1628 244.8274,-177.1365 264.7761,-171.5626"/>
<polygon fill="#191970" stroke="#191970" points="198.2342,-186.521 189.545,-192.583 200.118,-193.2628 198.2342,-186.521"/>
</g>
<!-- Node24919 -->
<g id="node4" class="node">
<title>Node24919</title>
<g id="a_node4"><a xlink:href="qjs_8cpp.html#a3c04138a5bfe5d72780bb7e82a18e627" target="_top" xlink:title="main">
<polygon fill="none" stroke="#000000" points="572,-247.5 572,-266.5 610,-266.5 610,-247.5 572,-247.5"/>
<text text-anchor="middle" x="591" y="-254.5" font-family="Helvetica,sans-Serif" font-size="10.00" fill="#000000">main</text>
</a>
</g>
</g>
<!-- Node24918&#45;&gt;Node24919 -->
<g id="edge3" class="edge">
<title>Node24918&#45;&gt;Node24919</title>
<path fill="none" stroke="#191970" d="M339.0568,-288.188C387.0154,-300.7565 469.2275,-315.8235 536,-295 553.7276,-289.4715 570.78,-276.0099 581.0765,-266.6911"/>
<polygon fill="#191970" stroke="#191970" points="339.9283,-284.798 329.3608,-285.5577 338.0956,-291.5538 339.9283,-284.798"/>
</g>
<!-- Node24920 -->
<g id="node5" class="node">
<title>Node24920</title>
<g id="a_node5"><a xlink:href="classqjs_1_1Context.html#a003bfbb1ead4106d2f1fad18cedbdad1" target="_top" xlink:title="qjs::Context::evalFile">
<polygon fill="none" stroke="#000000" points="410,-266.5 410,-285.5 520,-285.5 520,-266.5 410,-266.5"/>
<text text-anchor="middle" x="465" y="-273.5" font-family="Helvetica,sans-Serif" font-size="10.00" fill="#000000">qjs::Context::evalFile</text>
</a>
</g>
</g>
<!-- Node24918&#45;&gt;Node24920 -->
<g id="edge4" class="edge">
<title>Node24918&#45;&gt;Node24920</title>
<path fill="none" stroke="#191970" d="M356.1378,-276C373.5186,-276 392.5804,-276 409.8289,-276"/>
<polygon fill="#191970" stroke="#191970" points="356.1249,-272.5001 346.1249,-276 356.1249,-279.5001 356.1249,-272.5001"/>
</g>
<!-- Node24920&#45;&gt;Node24919 -->
<g id="edge5" class="edge">
<title>Node24920&#45;&gt;Node24919</title>
<path fill="none" stroke="#191970" d="M530.2955,-266.1538C545.5769,-263.8495 560.6779,-261.5724 571.9958,-259.8657"/>
<polygon fill="#191970" stroke="#191970" points="529.6317,-262.7143 520.2654,-267.6663 530.6756,-269.636 529.6317,-262.7143"/>
</g>
<!-- Node24922 -->
<g id="node7" class="node">
<title>Node24922</title>
<g id="a_node7"><a xlink:href="quickjs-libc_8c.html#ad04466feec6822a3b838baf229f6dfa0" target="_top" xlink:title="js_std_add_helpers">
<polygon fill="none" stroke="#ff0000" points="414.5,-228.5 414.5,-247.5 515.5,-247.5 515.5,-228.5 414.5,-228.5"/>
<text text-anchor="middle" x="465" y="-235.5" font-family="Helvetica,sans-Serif" font-size="10.00" fill="#000000">js_std_add_helpers</text>
</a>
</g>
</g>
<!-- Node24921&#45;&gt;Node24922 -->
<g id="edge7" class="edge">
<title>Node24921&#45;&gt;Node24922</title>
<path fill="none" stroke="#191970" d="M345.9752,-238C367.3324,-238 392.6379,-238 414.4126,-238"/>
<polygon fill="#191970" stroke="#191970" points="345.8408,-234.5001 335.8408,-238 345.8407,-241.5001 345.8408,-234.5001"/>
</g>
<!-- Node24922&#45;&gt;Node24919 -->
<g id="edge8" class="edge">
<title>Node24922&#45;&gt;Node24919</title>
<path fill="none" stroke="#191970" d="M525.8711,-247.179C542.6002,-249.7016 559.5296,-252.2545 571.9339,-254.125"/>
<polygon fill="#191970" stroke="#191970" points="525.9331,-243.6488 515.523,-245.6185 524.8893,-250.5706 525.9331,-243.6488"/>
</g>
<!-- Node24927&#45;&gt;Node24919 -->
<g id="edge10" class="edge">
<title>Node24927&#45;&gt;Node24919</title>
<path fill="none" stroke="#191970" d="M355.1295,-196.4368C404.2599,-195.1845 476.8293,-197.916 536,-219 553.2737,-225.155 570.1758,-238.1874 580.5851,-247.2634"/>
<polygon fill="#191970" stroke="#191970" points="354.8979,-192.9423 345.0146,-196.7593 355.1211,-199.9387 354.8979,-192.9423"/>
</g>
<!-- Node24930 -->
<g id="node11" class="node">
<title>Node24930</title>
<g id="a_node11"><a xlink:href="quickjs_8c.html#ac2894ff4edcdb4e6841bcce9c76081e3" target="_top" xlink:title="JS_CallInternal">
<polygon fill="none" stroke="#000000" points="257.5,-76.5 257.5,-95.5 340.5,-95.5 340.5,-76.5 257.5,-76.5"/>
<text text-anchor="middle" x="299" y="-83.5" font-family="Helvetica,sans-Serif" font-size="10.00" fill="#000000">JS_CallInternal</text>
</a>
</g>
</g>
<!-- Node24929&#45;&gt;Node24930 -->
<g id="edge13" class="edge">
<title>Node24929&#45;&gt;Node24930</title>
<path fill="none" stroke="#191970" d="M214.3302,-74.1711C228.5848,-76.1626 243.881,-78.2996 257.497,-80.2018"/>
<polygon fill="#191970" stroke="#191970" points="214.5617,-70.6696 204.1736,-72.7522 213.5931,-77.6022 214.5617,-70.6696"/>
</g>
<!-- Node25300 -->
<g id="node16" class="node">
<title>Node25300</title>
<g id="a_node16"><a xlink:href="quickjs_8c.html#a43064473b2e303ee40f4c1c7a87e85da" target="_top" xlink:title="js_function_constructor">
<polygon fill="none" stroke="#ff0000" points="240,-38.5 240,-57.5 358,-57.5 358,-38.5 240,-38.5"/>
<text text-anchor="middle" x="299" y="-45.5" font-family="Helvetica,sans-Serif" font-size="10.00" fill="#000000">js_function_constructor</text>
</a>
</g>
</g>
<!-- Node24929&#45;&gt;Node25300 -->
<g id="edge22" class="edge">
<title>Node24929&#45;&gt;Node25300</title>
<path fill="none" stroke="#191970" d="M214.1918,-59.8482C222.5838,-58.6758 231.3401,-57.4525 239.9047,-56.256"/>
<polygon fill="#191970" stroke="#191970" points="213.5931,-56.3978 204.1736,-61.2478 214.5617,-63.3304 213.5931,-56.3978"/>
</g>
<!-- Node25523 -->
<g id="node18" class="node">
<title>Node25523</title>
<g id="a_node18"><a xlink:href="quickjs_8c.html#aa760a09841b95bbc8ab2859780713705" target="_top" xlink:title="js_global_eval">
<polygon fill="none" stroke="#000000" points="260,-.5 260,-19.5 338,-19.5 338,-.5 260,-.5"/>
<text text-anchor="middle" x="299" y="-7.5" font-family="Helvetica,sans-Serif" font-size="10.00" fill="#000000">js_global_eval</text>
</a>
</g>
</g>
<!-- Node24929&#45;&gt;Node25523 -->
<g id="edge24" class="edge">
<title>Node24929&#45;&gt;Node25523</title>
<path fill="none" stroke="#191970" d="M189.3966,-52.7726C204.0607,-45.1759 222.773,-35.9806 240,-29 248.4774,-25.5648 257.8297,-22.3162 266.5413,-19.5089"/>
<polygon fill="#191970" stroke="#191970" points="187.6286,-49.7476 180.4011,-57.4944 190.8821,-55.9456 187.6286,-49.7476"/>
</g>
<!-- Node24930&#45;&gt;Node24930 -->
<g id="edge21" class="edge">
<title>Node24930&#45;&gt;Node24930</title>
<path fill="none" stroke="#191970" d="M273.7025,-105.0292C275.0824,-110.128 283.5149,-114 299,-114 323.1719,-114 330.1591,-104.5653 319.9615,-95.7571"/>
<polygon fill="#191970" stroke="#191970" points="276.9728,-106.2982 278.0385,-95.7571 270.6319,-103.3329 276.9728,-106.2982"/>
</g>
<!-- Node24931 -->
<g id="node12" class="node">
<title>Node24931</title>
<g id="a_node12"><a xlink:href="quickjs_8c.html#ade71a22dc56e7371392393df663b28b3" target="_top" xlink:title="async_func_resume">
<polygon fill="none" stroke="#ff0000" points="413,-152.5 413,-171.5 517,-171.5 517,-152.5 413,-152.5"/>
<text text-anchor="middle" x="465" y="-159.5" font-family="Helvetica,sans-Serif" font-size="10.00" fill="#000000">async_func_resume</text>
</a>
</g>
</g>
<!-- Node24930&#45;&gt;Node24931 -->
<g id="edge14" class="edge">
<title>Node24930&#45;&gt;Node24931</title>
<path fill="none" stroke="#191970" d="M320.5663,-101.3341C339.2408,-114.0137 367.3679,-131.7103 394,-143 402.6936,-146.6853 412.2938,-149.8277 421.55,-152.433"/>
<polygon fill="#191970" stroke="#191970" points="322.4241,-98.3636 312.2062,-95.5626 318.4472,-104.1242 322.4241,-98.3636"/>
</g>
<!-- Node24943 -->
<g id="node13" class="node">
<title>Node24943</title>
<g id="a_node13"><a xlink:href="quickjs_8c.html#a1a4c02a29525d5cb2085dd8bca3af350" target="_top" xlink:title="JS_Call">
<polygon fill="none" stroke="#ff0000" points="439.5,-114.5 439.5,-133.5 490.5,-133.5 490.5,-114.5 439.5,-114.5"/>
<text text-anchor="middle" x="465" y="-121.5" font-family="Helvetica,sans-Serif" font-size="10.00" fill="#000000">JS_Call</text>
</a>
</g>
</g>
<!-- Node24930&#45;&gt;Node24943 -->
<g id="edge15" class="edge">
<title>Node24930&#45;&gt;Node24943</title>
<path fill="none" stroke="#191970" d="M350.8132,-91.5535C382.2207,-97.8098 420.6001,-107.1381 443.9023,-114.4908"/>
<polygon fill="#191970" stroke="#191970" points="351.3711,-88.0967 340.8888,-89.6366 350.0435,-94.9697 351.3711,-88.0967"/>
</g>
<!-- Node25024 -->
<g id="node14" class="node">
<title>Node25024</title>
<g id="a_node14"><a xlink:href="quickjs_8c.html#ad35594576a14c10812efaf958c99af8a" target="_top" xlink:title="JS_CallConstructorInternal">
<polygon fill="none" stroke="#ff0000" points="398,-76.5 398,-95.5 532,-95.5 532,-76.5 398,-76.5"/>
<text text-anchor="middle" x="465" y="-83.5" font-family="Helvetica,sans-Serif" font-size="10.00" fill="#000000">JS_CallConstructorInternal</text>
</a>
</g>
</g>
<!-- Node24930&#45;&gt;Node25024 -->
<g id="edge17" class="edge">
<title>Node24930&#45;&gt;Node25024</title>
<path fill="none" stroke="#191970" d="M350.9205,-79.6895C365.8125,-79.2488 382.2646,-79.1395 397.93,-79.3617"/>
<polygon fill="#191970" stroke="#191970" points="350.7576,-76.193 340.8888,-80.0476 351.0073,-83.1885 350.7576,-76.193"/>
</g>
<!-- Node25038 -->
<g id="node15" class="node">
<title>Node25038</title>
<g id="a_node15"><a xlink:href="quickjs_8c.html#a75f6ee5e4235a7dc99889f3d2eb2c147" target="_top" xlink:title="JS_CallFree">
<polygon fill="none" stroke="#ff0000" points="429.5,-38.5 429.5,-57.5 500.5,-57.5 500.5,-38.5 429.5,-38.5"/>
<text text-anchor="middle" x="465" y="-45.5" font-family="Helvetica,sans-Serif" font-size="10.00" fill="#000000">JS_CallFree</text>
</a>
</g>
</g>
<!-- Node24930&#45;&gt;Node25038 -->
<g id="edge19" class="edge">
<title>Node24930&#45;&gt;Node25038</title>
<path fill="none" stroke="#191970" d="M330.1121,-73.4732C358.3483,-65.3024 399.9618,-55.694 429.4899,-50.4768"/>
<polygon fill="#191970" stroke="#191970" points="328.9288,-70.1742 320.3618,-76.4076 330.9462,-76.8772 328.9288,-70.1742"/>
</g>
<!-- Node24943&#45;&gt;Node24930 -->
<g id="edge16" class="edge">
<title>Node24943&#45;&gt;Node24930</title>
<path fill="none" stroke="#191970" d="M429.1786,-121.4681C396.0333,-115.5941 347.859,-104.2442 320.3618,-95.5924"/>
<polygon fill="#191970" stroke="#191970" points="428.9263,-124.9745 439.3667,-123.1725 430.0813,-118.0704 428.9263,-124.9745"/>
</g>
<!-- Node25024&#45;&gt;Node24930 -->
<g id="edge18" class="edge">
<title>Node25024&#45;&gt;Node24930</title>
<path fill="none" stroke="#191970" d="M387.9051,-92.7348C371.7062,-92.8184 355.2058,-92.5576 340.8888,-91.9524"/>
<polygon fill="#191970" stroke="#191970" points="387.9642,-96.2345 397.93,-92.6383 387.8968,-89.2348 387.9642,-96.2345"/>
</g>
<!-- Node25038&#45;&gt;Node24930 -->
<g id="edge20" class="edge">
<title>Node25038&#45;&gt;Node24930</title>
<path fill="none" stroke="#191970" d="M434.1089,-60.4628C407.8436,-68.0751 369.8875,-76.9509 340.8888,-82.3634"/>
<polygon fill="#191970" stroke="#191970" points="435.3389,-63.7476 443.9023,-57.5092 433.3176,-57.0458 435.3389,-63.7476"/>
</g>
<!-- Node24956 -->
<g id="node17" class="node">
<title>Node24956</title>
<g id="a_node17"><a xlink:href="quickjs_8c.html#a4c9489297c684663f30e517204a9ec14" target="_top" xlink:title="JS_AddIntrinsicBaseObjects">
<polygon fill="none" stroke="#ff0000" points="394,-.5 394,-19.5 536,-19.5 536,-.5 394,-.5"/>
<text text-anchor="middle" x="465" y="-7.5" font-family="Helvetica,sans-Serif" font-size="10.00" fill="#000000">JS_AddIntrinsicBaseObjects</text>
</a>
</g>
</g>
<!-- Node25300&#45;&gt;Node24956 -->
<g id="edge23" class="edge">
<title>Node25300&#45;&gt;Node24956</title>
<path fill="none" stroke="#191970" d="M350.6534,-36.1757C374.0564,-30.8184 401.3571,-24.5689 423.4124,-19.5201"/>
<polygon fill="#191970" stroke="#191970" points="349.8556,-32.7677 340.8888,-38.411 351.4177,-39.5912 349.8556,-32.7677"/>
</g>
<!-- Node25523&#45;&gt;Node24956 -->
<g id="edge25" class="edge">
<title>Node25523&#45;&gt;Node24956</title>
<path fill="none" stroke="#191970" d="M348.4,-10C362.6436,-10 378.4755,-10 393.7638,-10"/>
<polygon fill="#191970" stroke="#191970" points="348.3397,-6.5001 338.3397,-10 348.3396,-13.5001 348.3397,-6.5001"/>
</g>
</g>
</svg>
