<?xml version="1.0" encoding="UTF-8" standalone="no"?>
<!DOCTYPE svg PUBLIC "-//W3C//DTD SVG 1.1//EN"
 "http://www.w3.org/Graphics/SVG/1.1/DTD/svg11.dtd">
<!-- Generated by graphviz version 2.40.1 (20161225.0304)
 -->
<!-- Title: js_add_slow Pages: 1 -->
<!--zoomable 320 -->
<svg id="main" version="1.1" xmlns="http://www.w3.org/2000/svg" xmlns:xlink="http://www.w3.org/1999/xlink" xml:space="preserve" onload="init(evt)">
<style type="text/css"><![CDATA[
.edge:hover path { stroke: red; }
.edge:hover polygon { stroke: red; fill: red; }
]]></style>
<script type="text/javascript"><![CDATA[
var edges = document.getElementsByTagName('g');
if (edges && edges.length) {
  for (var i=0;i<edges.length;i++) {
    if (edges[i].id.substr(0,4)=='edge') {
      edges[i].setAttribute('class','edge');
    }
  }
}
]]></script>
        <defs>
                <circle id="rim" cx="0" cy="0" r="7"/>
                <circle id="rim2" cx="0" cy="0" r="3.5"/>
                <g id="zoomPlus">
                        <use xlink:href="#rim" fill="#404040">
                                <set attributeName="fill" to="#808080" begin="zoomplus.mouseover" end="zoomplus.mouseout"/>
                        </use>
                        <path d="M-4,0h8M0,-4v8" fill="none" stroke="white" stroke-width="1.5" pointer-events="none"/>
                </g>
                <g id="zoomMin">
                        <use xlink:href="#rim" fill="#404040">
                                <set attributeName="fill" to="#808080" begin="zoomminus.mouseover" end="zoomminus.mouseout"/>
                        </use>
                        <path d="M-4,0h8" fill="none" stroke="white" stroke-width="1.5" pointer-events="none"/>
                </g>
                <g id="dirArrow">
                        <path fill="none" stroke="white" stroke-width="1.5" d="M0,-3.0v7 M-2.5,-0.5L0,-3.0L2.5,-0.5"/>
                </g>
               <g id="resetDef">
                       <use xlink:href="#rim2" fill="#404040">
                               <set attributeName="fill" to="#808080" begin="reset.mouseover" end="reset.mouseout"/>
                       </use>
               </g>
        </defs>

<script type="text/javascript">
var viewWidth = 656;
var viewHeight = 320;
var sectionId = 'dynsection-761';
</script>
<script xlink:href="svgpan.js"/>
<svg id="graph" class="graph">
<g id="viewport">
<title>js_add_slow</title>
<!-- Node259356 -->
<g id="node1" class="node">
<title>Node259356</title>
<polygon fill="#bfbfbf" stroke="#000000" points="0,-83.4116 0,-102.4116 71,-102.4116 71,-83.4116 0,-83.4116"/>
<text text-anchor="middle" x="35.5" y="-90.4116" font-family="Helvetica,sans-Serif" font-size="10.00" fill="#000000">js_add_slow</text>
</g>
<!-- Node259357 -->
<g id="node2" class="node">
<title>Node259357</title>
<g id="a_node2"><a xlink:href="quickjs_8c.html#ab6d8a1a52baf4d686aed594b996699d7" target="_top" xlink:title="JS_ConcatString">
<polygon fill="none" stroke="#000000" points="113,-178.4116 113,-197.4116 204,-197.4116 204,-178.4116 113,-178.4116"/>
<text text-anchor="middle" x="158.5" y="-185.4116" font-family="Helvetica,sans-Serif" font-size="10.00" fill="#000000">JS_ConcatString</text>
</a>
</g>
</g>
<!-- Node259356&#45;&gt;Node259357 -->
<g id="edge1" class="edge">
<title>Node259356&#45;&gt;Node259357</title>
<path fill="none" stroke="#191970" d="M43.4229,-102.7141C55.7641,-117.4966 80.8853,-145.6987 107,-163.9116 112.3096,-167.6146 118.2813,-170.9963 124.2267,-173.978"/>
<polygon fill="#191970" stroke="#191970" points="122.9109,-177.227 133.4489,-178.323 125.8944,-170.8946 122.9109,-177.227"/>
</g>
<!-- Node259364 -->
<g id="node7" class="node">
<title>Node259364</title>
<g id="a_node7"><a xlink:href="quickjs_8h.html#afaa20c47565bc704c6c85f3d77254e7d" target="_top" xlink:title="JS_FreeValue">
<polygon fill="none" stroke="#000000" points="421,-83.4116 421,-102.4116 499,-102.4116 499,-83.4116 421,-83.4116"/>
<text text-anchor="middle" x="460" y="-90.4116" font-family="Helvetica,sans-Serif" font-size="10.00" fill="#000000">JS_FreeValue</text>
</a>
</g>
</g>
<!-- Node259356&#45;&gt;Node259364 -->
<g id="edge14" class="edge">
<title>Node259356&#45;&gt;Node259364</title>
<path fill="none" stroke="#191970" d="M40.8449,-83.3558C51.0702,-66.1883 75.2384,-30.6388 107,-16.9116 223.9238,33.6222 377.6202,-43.9394 436.0577,-78.0911"/>
<polygon fill="#191970" stroke="#191970" points="434.5262,-81.2526 444.909,-83.3616 438.1075,-75.2381 434.5262,-81.2526"/>
</g>
<!-- Node259401 -->
<g id="node9" class="node">
<title>Node259401</title>
<g id="a_node9"><a xlink:href="quickjs_8h.html#ad80a83d73e9b7d872b88fbf2943aebe9" target="_top" xlink:title="JS_IsException">
<polygon fill="none" stroke="#000000" points="260.5,-102.4116 260.5,-121.4116 346.5,-121.4116 346.5,-102.4116 260.5,-102.4116"/>
<text text-anchor="middle" x="303.5" y="-109.4116" font-family="Helvetica,sans-Serif" font-size="10.00" fill="#000000">JS_IsException</text>
</a>
</g>
</g>
<!-- Node259356&#45;&gt;Node259401 -->
<g id="edge15" class="edge">
<title>Node259356&#45;&gt;Node259401</title>
<path fill="none" stroke="#191970" d="M48.6585,-102.4656C62.4212,-111.8196 85.0393,-125.4384 107,-130.9116 159.4256,-143.9775 221.7963,-133.7473 261.9848,-123.9572"/>
<polygon fill="#191970" stroke="#191970" points="262.872,-127.3431 271.7047,-121.4921 261.1511,-120.5579 262.872,-127.3431"/>
</g>
<!-- Node259476 -->
<g id="node14" class="node">
<title>Node259476</title>
<g id="a_node14"><a xlink:href="quickjs_8h.html#ae91f44bd7249613050c18c7133702c67" target="_top" xlink:title="JS_NewFloat64">
<polygon fill="none" stroke="#ff0000" points="115.5,-64.4116 115.5,-83.4116 201.5,-83.4116 201.5,-64.4116 115.5,-64.4116"/>
<text text-anchor="middle" x="158.5" y="-71.4116" font-family="Helvetica,sans-Serif" font-size="10.00" fill="#000000">JS_NewFloat64</text>
</a>
</g>
</g>
<!-- Node259356&#45;&gt;Node259476 -->
<g id="edge16" class="edge">
<title>Node259356&#45;&gt;Node259476</title>
<path fill="none" stroke="#191970" d="M71.0767,-87.416C81.7226,-85.7715 93.637,-83.9311 105.1621,-82.1508"/>
<polygon fill="#191970" stroke="#191970" points="105.7999,-85.5939 115.1483,-80.6082 104.7312,-78.6759 105.7999,-85.5939"/>
</g>
<!-- Node259591 -->
<g id="node15" class="node">
<title>Node259591</title>
<g id="a_node15"><a xlink:href="quickjs_8c.html#ab1b614ef35f1cea05da0ad4927c53118" target="_top" xlink:title="JS_ToFloat64Free">
<polygon fill="none" stroke="#ff0000" points="110,-26.4116 110,-45.4116 207,-45.4116 207,-26.4116 110,-26.4116"/>
<text text-anchor="middle" x="158.5" y="-33.4116" font-family="Helvetica,sans-Serif" font-size="10.00" fill="#000000">JS_ToFloat64Free</text>
</a>
</g>
</g>
<!-- Node259356&#45;&gt;Node259591 -->
<g id="edge17" class="edge">
<title>Node259356&#45;&gt;Node259591</title>
<path fill="none" stroke="#191970" d="M51.9405,-83.3553C66.2318,-75.248 87.6266,-63.5858 107,-54.9116 111.4414,-52.923 116.16,-50.9718 120.8684,-49.1222"/>
<polygon fill="#191970" stroke="#191970" points="122.3231,-52.3136 130.427,-45.4888 119.8359,-45.7704 122.3231,-52.3136"/>
</g>
<!-- Node259437 -->
<g id="node16" class="node">
<title>Node259437</title>
<g id="a_node16"><a xlink:href="quickjs_8c.html#abac33881bb91f8c31106f616d81b67e8" target="_top" xlink:title="JS_ToPrimitiveFree">
<polygon fill="none" stroke="#ff0000" points="107,-102.4116 107,-121.4116 210,-121.4116 210,-102.4116 107,-102.4116"/>
<text text-anchor="middle" x="158.5" y="-109.4116" font-family="Helvetica,sans-Serif" font-size="10.00" fill="#000000">JS_ToPrimitiveFree</text>
</a>
</g>
</g>
<!-- Node259356&#45;&gt;Node259437 -->
<g id="edge18" class="edge">
<title>Node259356&#45;&gt;Node259437</title>
<path fill="none" stroke="#191970" d="M71.0767,-98.4072C79.2216,-99.6653 88.109,-101.0382 96.9965,-102.4111"/>
<polygon fill="#191970" stroke="#191970" points="96.5741,-105.8872 106.9912,-103.955 97.6427,-98.9693 96.5741,-105.8872"/>
</g>
<!-- Node259358 -->
<g id="node3" class="node">
<title>Node259358</title>
<g id="a_node3"><a xlink:href="quickjs_8c.html#aa864584f81729321ec9d527d6362c633" target="_top" xlink:title="JS_ConcatString1">
<polygon fill="none" stroke="#000000" points="255.5,-216.4116 255.5,-235.4116 351.5,-235.4116 351.5,-216.4116 255.5,-216.4116"/>
<text text-anchor="middle" x="303.5" y="-223.4116" font-family="Helvetica,sans-Serif" font-size="10.00" fill="#000000">JS_ConcatString1</text>
</a>
</g>
</g>
<!-- Node259357&#45;&gt;Node259358 -->
<g id="edge2" class="edge">
<title>Node259357&#45;&gt;Node259358</title>
<path fill="none" stroke="#191970" d="M195.0896,-197.5006C213.9654,-202.4474 237.1859,-208.5327 257.2879,-213.8008"/>
<polygon fill="#191970" stroke="#191970" points="256.6129,-217.2421 267.1735,-216.3916 258.3875,-210.4707 256.6129,-217.2421"/>
</g>
<!-- Node259357&#45;&gt;Node259364 -->
<g id="edge6" class="edge">
<title>Node259357&#45;&gt;Node259364</title>
<path fill="none" stroke="#191970" d="M196.5104,-178.331C237.4437,-167.7544 304.3254,-149.7206 361,-130.9116 383.4678,-123.455 408.3421,-113.902 427.5368,-106.2398"/>
<polygon fill="#191970" stroke="#191970" points="429.0433,-109.4064 437.0139,-102.4264 426.4302,-102.9124 429.0433,-109.4064"/>
</g>
<!-- Node259357&#45;&gt;Node259401 -->
<g id="edge8" class="edge">
<title>Node259357&#45;&gt;Node259401</title>
<path fill="none" stroke="#191970" d="M181.8914,-178.3494C190.9106,-174.3206 201.1623,-169.3126 210,-163.9116 227.2956,-153.3416 228.4929,-146.1276 246,-135.9116 252.5517,-132.0884 259.8286,-128.5589 266.9418,-125.4491"/>
<polygon fill="#191970" stroke="#191970" points="268.5746,-128.5604 276.4566,-121.4804 265.8798,-122.0998 268.5746,-128.5604"/>
</g>
<!-- Node259402 -->
<g id="node10" class="node">
<title>Node259402</title>
<g id="a_node10"><a xlink:href="quickjs_8c.html#ade5954b108a45072dff068d11f1c6d10" target="_top" xlink:title="js_malloc_usable_size">
<polygon fill="none" stroke="#000000" points="246,-273.4116 246,-292.4116 361,-292.4116 361,-273.4116 246,-273.4116"/>
<text text-anchor="middle" x="303.5" y="-280.4116" font-family="Helvetica,sans-Serif" font-size="10.00" fill="#000000">js_malloc_usable_size</text>
</a>
</g>
</g>
<!-- Node259357&#45;&gt;Node259402 -->
<g id="edge9" class="edge">
<title>Node259357&#45;&gt;Node259402</title>
<path fill="none" stroke="#191970" d="M173.2013,-197.5435C198.3873,-214.0447 249.9812,-247.8475 280.1409,-267.6074"/>
<polygon fill="#191970" stroke="#191970" points="278.477,-270.7015 288.7598,-273.2542 282.3132,-264.8463 278.477,-270.7015"/>
</g>
<!-- Node259404 -->
<g id="node12" class="node">
<title>Node259404</title>
<g id="a_node12"><a xlink:href="quickjs_8c.html#a38cad713b74c445668210ea8614bfb65" target="_top" xlink:title="JS_ToStringFree">
<polygon fill="none" stroke="#000000" points="258.5,-178.4116 258.5,-197.4116 348.5,-197.4116 348.5,-178.4116 258.5,-178.4116"/>
<text text-anchor="middle" x="303.5" y="-185.4116" font-family="Helvetica,sans-Serif" font-size="10.00" fill="#000000">JS_ToStringFree</text>
</a>
</g>
</g>
<!-- Node259357&#45;&gt;Node259404 -->
<g id="edge11" class="edge">
<title>Node259357&#45;&gt;Node259404</title>
<path fill="none" stroke="#191970" d="M204.3789,-187.9116C218.266,-187.9116 233.6662,-187.9116 248.1064,-187.9116"/>
<polygon fill="#191970" stroke="#191970" points="248.416,-191.4117 258.4159,-187.9116 248.4159,-184.4117 248.416,-191.4117"/>
</g>
<!-- Node259359 -->
<g id="node4" class="node">
<title>Node259359</title>
<g id="a_node4"><a xlink:href="quickjs_8c.html#a853f0924d441ea4225488f37c8b69f9a" target="_top" xlink:title="__attribute__">
<polygon fill="none" stroke="#000000" points="423.5,-216.4116 423.5,-235.4116 496.5,-235.4116 496.5,-216.4116 423.5,-216.4116"/>
<text text-anchor="middle" x="460" y="-223.4116" font-family="Helvetica,sans-Serif" font-size="10.00" fill="#000000">__attribute__</text>
</a>
</g>
</g>
<!-- Node259358&#45;&gt;Node259359 -->
<g id="edge3" class="edge">
<title>Node259358&#45;&gt;Node259359</title>
<path fill="none" stroke="#191970" d="M351.7322,-225.9116C371.2212,-225.9116 393.6384,-225.9116 413.0009,-225.9116"/>
<polygon fill="#191970" stroke="#191970" points="413.1099,-229.4117 423.1099,-225.9116 413.1098,-222.4117 413.1099,-229.4117"/>
</g>
<!-- Node259360 -->
<g id="node5" class="node">
<title>Node259360</title>
<g id="a_node5"><a xlink:href="quickjs_8c.html#a17da89ffe34d5b094b306c7668990cb1" target="_top" xlink:title="copy_str16">
<polygon fill="none" stroke="#000000" points="427.5,-178.4116 427.5,-197.4116 492.5,-197.4116 492.5,-178.4116 427.5,-178.4116"/>
<text text-anchor="middle" x="460" y="-185.4116" font-family="Helvetica,sans-Serif" font-size="10.00" fill="#000000">copy_str16</text>
</a>
</g>
</g>
<!-- Node259358&#45;&gt;Node259360 -->
<g id="edge4" class="edge">
<title>Node259358&#45;&gt;Node259360</title>
<path fill="none" stroke="#191970" d="M342.9916,-216.3226C365.7084,-210.8067 394.2558,-203.8751 417.4658,-198.2394"/>
<polygon fill="#191970" stroke="#191970" points="418.4912,-201.5922 427.383,-195.8314 416.8395,-194.7898 418.4912,-201.5922"/>
</g>
<!-- Node259361 -->
<g id="node6" class="node">
<title>Node259361</title>
<g id="a_node6"><a xlink:href="quickjs_8c.html#ad303a9bc56766627b5fca41574933930" target="_top" xlink:title="js_alloc_string">
<polygon fill="none" stroke="#ff0000" points="420.5,-254.4116 420.5,-273.4116 499.5,-273.4116 499.5,-254.4116 420.5,-254.4116"/>
<text text-anchor="middle" x="460" y="-261.4116" font-family="Helvetica,sans-Serif" font-size="10.00" fill="#000000">js_alloc_string</text>
</a>
</g>
</g>
<!-- Node259358&#45;&gt;Node259361 -->
<g id="edge5" class="edge">
<title>Node259358&#45;&gt;Node259361</title>
<path fill="none" stroke="#191970" d="M342.9916,-235.5006C363.6434,-240.5151 389.114,-246.6997 411.0125,-252.0169"/>
<polygon fill="#191970" stroke="#191970" points="410.2489,-255.4331 420.7924,-254.3916 411.9007,-248.6307 410.2489,-255.4331"/>
</g>
<!-- Node259365 -->
<g id="node8" class="node">
<title>Node259365</title>
<g id="a_node8"><a xlink:href="quickjs_8c.html#aa059f309c30fd5166d16c82a97973146" target="_top" xlink:title="__JS_FreeValue">
<polygon fill="none" stroke="#ff0000" points="559,-83.4116 559,-102.4116 648,-102.4116 648,-83.4116 559,-83.4116"/>
<text text-anchor="middle" x="603.5" y="-90.4116" font-family="Helvetica,sans-Serif" font-size="10.00" fill="#000000">__JS_FreeValue</text>
</a>
</g>
</g>
<!-- Node259364&#45;&gt;Node259365 -->
<g id="edge7" class="edge">
<title>Node259364&#45;&gt;Node259365</title>
<path fill="none" stroke="#191970" d="M499.212,-92.9116C514.4681,-92.9116 532.2141,-92.9116 548.695,-92.9116"/>
<polygon fill="#191970" stroke="#191970" points="548.7597,-96.4117 558.7596,-92.9116 548.7596,-89.4117 548.7597,-96.4117"/>
</g>
<!-- Node259403 -->
<g id="node11" class="node">
<title>Node259403</title>
<g id="a_node11"><a xlink:href="quickjs_8c.html#a9a3248be6328b083907b3655ec93777b" target="_top" xlink:title="js_malloc_usable_size_rt">
<polygon fill="none" stroke="#000000" points="397,-292.4116 397,-311.4116 523,-311.4116 523,-292.4116 397,-292.4116"/>
<text text-anchor="middle" x="460" y="-299.4116" font-family="Helvetica,sans-Serif" font-size="10.00" fill="#000000">js_malloc_usable_size_rt</text>
</a>
</g>
</g>
<!-- Node259402&#45;&gt;Node259403 -->
<g id="edge10" class="edge">
<title>Node259402&#45;&gt;Node259403</title>
<path fill="none" stroke="#191970" d="M361.3302,-289.9325C369.6537,-290.943 378.3088,-291.9938 386.8813,-293.0346"/>
<polygon fill="#191970" stroke="#191970" points="386.533,-296.5179 396.882,-294.2487 387.3767,-289.5689 386.533,-296.5179"/>
</g>
<!-- Node259404&#45;&gt;Node259364 -->
<g id="edge12" class="edge">
<title>Node259404&#45;&gt;Node259364</title>
<path fill="none" stroke="#191970" d="M331.6716,-178.4105C341.3327,-174.5745 351.9763,-169.6787 361,-163.9116 379.289,-152.223 379.6209,-143.9146 397,-130.9116 408.3787,-122.3981 421.7663,-114.1071 433.2675,-107.4534"/>
<polygon fill="#191970" stroke="#191970" points="435.0396,-110.4721 442.0124,-102.4952 431.587,-104.3828 435.0396,-110.4721"/>
</g>
<!-- Node259405 -->
<g id="node13" class="node">
<title>Node259405</title>
<g id="a_node13"><a xlink:href="quickjs_8c.html#a7bcb8e1a20cbc8374a5f9ba4a2088cec" target="_top" xlink:title="JS_ToString">
<polygon fill="none" stroke="#ff0000" points="424.5,-140.4116 424.5,-159.4116 495.5,-159.4116 495.5,-140.4116 424.5,-140.4116"/>
<text text-anchor="middle" x="460" y="-147.4116" font-family="Helvetica,sans-Serif" font-size="10.00" fill="#000000">JS_ToString</text>
</a>
</g>
</g>
<!-- Node259404&#45;&gt;Node259405 -->
<g id="edge13" class="edge">
<title>Node259404&#45;&gt;Node259405</title>
<path fill="none" stroke="#191970" d="M342.9916,-178.3226C364.7619,-173.0365 391.887,-166.4502 414.5376,-160.9504"/>
<polygon fill="#191970" stroke="#191970" points="415.3756,-164.3487 424.2674,-158.5879 413.7239,-157.5463 415.3756,-164.3487"/>
</g>
<!-- Node259437&#45;&gt;Node259364 -->
<g id="edge19" class="edge">
<title>Node259437&#45;&gt;Node259364</title>
<path fill="none" stroke="#191970" d="M193.9785,-102.4031C209.7771,-98.6384 228.689,-94.7694 246,-92.9116 302.2573,-86.874 367.3137,-88.0198 410.7913,-89.939"/>
<polygon fill="#191970" stroke="#191970" points="410.6623,-93.4367 420.8162,-90.4122 410.9924,-86.4445 410.6623,-93.4367"/>
</g>
<!-- Node259437&#45;&gt;Node259401 -->
<g id="edge20" class="edge">
<title>Node259437&#45;&gt;Node259401</title>
<path fill="none" stroke="#191970" d="M210.0298,-111.9116C223.0044,-111.9116 236.9592,-111.9116 250.0267,-111.9116"/>
<polygon fill="#191970" stroke="#191970" points="250.2806,-115.4117 260.2805,-111.9116 250.2805,-108.4117 250.2806,-115.4117"/>
</g>
</g>
</svg>
        <g id="navigator" transform="translate(0 0)" fill="#404254">
                <rect fill="#f2f5e9" fill-opacity="0.5" stroke="#606060" stroke-width=".5" x="0" y="0" width="60" height="60"/>
                <use id="zoomplus" xlink:href="#zoomPlus" x="17" y="9" onmousedown="handleZoom(evt,'in')"/>
                <use id="zoomminus" xlink:href="#zoomMin" x="42" y="9" onmousedown="handleZoom(evt,'out')"/>
                <use id="reset" xlink:href="#resetDef" x="30" y="36" onmousedown="handleReset()"/>
                <g id="arrowUp" xlink:href="#dirArrow" transform="translate(30 24)" onmousedown="handlePan(0,-1)">
                  <use xlink:href="#rim" fill="#404040">
                        <set attributeName="fill" to="#808080" begin="arrowUp.mouseover" end="arrowUp.mouseout"/>
                  </use>
                  <path fill="none" stroke="white" stroke-width="1.5" d="M0,-3.0v7 M-2.5,-0.5L0,-3.0L2.5,-0.5"/>
                </g>
                <g id="arrowRight" xlink:href="#dirArrow" transform="rotate(90) translate(36 -43)" onmousedown="handlePan(1,0)">
                  <use xlink:href="#rim" fill="#404040">
                        <set attributeName="fill" to="#808080" begin="arrowRight.mouseover" end="arrowRight.mouseout"/>
                  </use>
                  <path fill="none" stroke="white" stroke-width="1.5" d="M0,-3.0v7 M-2.5,-0.5L0,-3.0L2.5,-0.5"/>
                </g>
                <g id="arrowDown" xlink:href="#dirArrow" transform="rotate(180) translate(-30 -48)" onmousedown="handlePan(0,1)">
                  <use xlink:href="#rim" fill="#404040">
                        <set attributeName="fill" to="#808080" begin="arrowDown.mouseover" end="arrowDown.mouseout"/>
                  </use>
                  <path fill="none" stroke="white" stroke-width="1.5" d="M0,-3.0v7 M-2.5,-0.5L0,-3.0L2.5,-0.5"/>
                </g>
                <g id="arrowLeft" xlink:href="#dirArrow" transform="rotate(270) translate(-36 17)" onmousedown="handlePan(-1,0)">
                  <use xlink:href="#rim" fill="#404040">
                        <set attributeName="fill" to="#808080" begin="arrowLeft.mouseover" end="arrowLeft.mouseout"/>
                  </use>
                  <path fill="none" stroke="white" stroke-width="1.5" d="M0,-3.0v7 M-2.5,-0.5L0,-3.0L2.5,-0.5"/>
                </g>
        </g>
        <svg viewBox="0 0 15 15" width="100%" height="30px" preserveAspectRatio="xMaxYMin meet">
         <g id="arrow_out" transform="scale(0.3 0.3)">
          <a xlink:href="quickjs_8c_ae8ff05447c0d51fe277baccf616dc7c6_cgraph_org.svg" target="_base">
           <rect id="button" ry="5" rx="5" y="6" x="6" height="38" width="38"
                fill="#f2f5e9" fill-opacity="0.5" stroke="#606060" stroke-width="1.0"/>
           <path id="arrow"
             d="M 11.500037,31.436501 C 11.940474,20.09759 22.043105,11.32322 32.158766,21.979434 L 37.068811,17.246167 C 37.068811,17.246167 37.088388,32 37.088388,32 L 22.160133,31.978069 C 22.160133,31.978069 26.997745,27.140456 26.997745,27.140456 C 18.528582,18.264221 13.291696,25.230495 11.500037,31.436501 z"
             style="fill:#404040;"/>
          </a>
         </g>
        </svg>
</svg>
