<?xml version="1.0" encoding="UTF-8" standalone="no"?>
<!DOCTYPE svg PUBLIC "-//W3C//DTD SVG 1.1//EN"
 "http://www.w3.org/Graphics/SVG/1.1/DTD/svg11.dtd">
<!-- Generated by graphviz version 2.40.1 (20161225.0304)
 -->
<!-- Title: get_private_setter_name Pages: 1 -->
<svg width="662pt" height="394pt"
 viewBox="0.00 0.00 662.00 394.38" xmlns="http://www.w3.org/2000/svg" xmlns:xlink="http://www.w3.org/1999/xlink">
<g id="graph0" class="graph" transform="scale(1 1) rotate(0) translate(4 390.3782)">
<title>get_private_setter_name</title>
<!-- Node317016 -->
<g id="node1" class="node">
<title>Node317016</title>
<polygon fill="#bfbfbf" stroke="#000000" points="0,-252.8782 0,-271.8782 124,-271.8782 124,-252.8782 0,-252.8782"/>
<text text-anchor="middle" x="62" y="-259.8782" font-family="Helvetica,sans-Serif" font-size="10.00" fill="#000000">get_private_setter_name</text>
</g>
<!-- Node317017 -->
<g id="node2" class="node">
<title>Node317017</title>
<g id="a_node2"><a xlink:href="quickjs_8c.html#aadfd9c31a6f69160c12e99b8d5eb5b3c" target="_top" xlink:title="js_atom_concat_str">
<polygon fill="none" stroke="#000000" points="160,-252.8782 160,-271.8782 262,-271.8782 262,-252.8782 160,-252.8782"/>
<text text-anchor="middle" x="211" y="-259.8782" font-family="Helvetica,sans-Serif" font-size="10.00" fill="#000000">js_atom_concat_str</text>
</a>
</g>
</g>
<!-- Node317016&#45;&gt;Node317017 -->
<g id="edge1" class="edge">
<title>Node317016&#45;&gt;Node317017</title>
<path fill="none" stroke="#191970" d="M124.3261,-262.3782C132.7168,-262.3782 141.3194,-262.3782 149.6922,-262.3782"/>
<polygon fill="#191970" stroke="#191970" points="149.7618,-265.8783 159.7618,-262.3782 149.7617,-258.8783 149.7618,-265.8783"/>
</g>
<!-- Node317018 -->
<g id="node3" class="node">
<title>Node317018</title>
<g id="a_node3"><a xlink:href="quickjs_8c.html#a260bfa297ff6cb5bd18e229afaa54663" target="_top" xlink:title="JS_AtomToString">
<polygon fill="none" stroke="#000000" points="298,-366.8782 298,-385.8782 392,-385.8782 392,-366.8782 298,-366.8782"/>
<text text-anchor="middle" x="345" y="-373.8782" font-family="Helvetica,sans-Serif" font-size="10.00" fill="#000000">JS_AtomToString</text>
</a>
</g>
</g>
<!-- Node317017&#45;&gt;Node317018 -->
<g id="edge2" class="edge">
<title>Node317017&#45;&gt;Node317018</title>
<path fill="none" stroke="#191970" d="M217.5654,-272.0426C230.7734,-290.8387 262.3577,-332.6393 298,-357.3782 300.6752,-359.235 303.5589,-360.952 306.5349,-362.5308"/>
<polygon fill="#191970" stroke="#191970" points="305.0901,-365.7193 315.624,-366.8542 308.097,-359.398 305.0901,-365.7193"/>
</g>
<!-- Node317031 -->
<g id="node5" class="node">
<title>Node317031</title>
<g id="a_node5"><a xlink:href="quickjs_8c.html#a80e54dcf9ac687d4ccc2f90273565f30" target="_top" xlink:title="js_free">
<polygon fill="none" stroke="#ff0000" points="322,-328.8782 322,-347.8782 368,-347.8782 368,-328.8782 322,-328.8782"/>
<text text-anchor="middle" x="345" y="-335.8782" font-family="Helvetica,sans-Serif" font-size="10.00" fill="#000000">js_free</text>
</a>
</g>
</g>
<!-- Node317017&#45;&gt;Node317031 -->
<g id="edge4" class="edge">
<title>Node317017&#45;&gt;Node317031</title>
<path fill="none" stroke="#191970" d="M223.7771,-271.9008C240.3209,-283.9559 270.3213,-304.8949 298,-319.3782 302.5619,-321.7653 307.4932,-324.0536 312.3868,-326.1636"/>
<polygon fill="#191970" stroke="#191970" points="311.0649,-329.4043 321.644,-329.9805 313.7332,-322.9328 311.0649,-329.4043"/>
</g>
<!-- Node317046 -->
<g id="node6" class="node">
<title>Node317046</title>
<g id="a_node6"><a xlink:href="quickjs_8c.html#ae0bc4f65da64810facb2cb9e476eda2e" target="_top" xlink:title="JS_FreeCString">
<polygon fill="none" stroke="#000000" points="302,-290.8782 302,-309.8782 388,-309.8782 388,-290.8782 302,-290.8782"/>
<text text-anchor="middle" x="345" y="-297.8782" font-family="Helvetica,sans-Serif" font-size="10.00" fill="#000000">JS_FreeCString</text>
</a>
</g>
</g>
<!-- Node317017&#45;&gt;Node317046 -->
<g id="edge5" class="edge">
<title>Node317017&#45;&gt;Node317046</title>
<path fill="none" stroke="#191970" d="M244.8139,-271.9672C262.0326,-276.8502 283.1637,-282.8425 301.5733,-288.0632"/>
<polygon fill="#191970" stroke="#191970" points="300.6214,-291.4312 311.197,-290.7923 302.5312,-284.6967 300.6214,-291.4312"/>
</g>
<!-- Node317047 -->
<g id="node7" class="node">
<title>Node317047</title>
<g id="a_node7"><a xlink:href="quickjs_8h.html#afaa20c47565bc704c6c85f3d77254e7d" target="_top" xlink:title="JS_FreeValue">
<polygon fill="none" stroke="#ff0000" points="572,-252.8782 572,-271.8782 650,-271.8782 650,-252.8782 572,-252.8782"/>
<text text-anchor="middle" x="611" y="-259.8782" font-family="Helvetica,sans-Serif" font-size="10.00" fill="#000000">JS_FreeValue</text>
</a>
</g>
</g>
<!-- Node317017&#45;&gt;Node317047 -->
<g id="edge7" class="edge">
<title>Node317017&#45;&gt;Node317047</title>
<path fill="none" stroke="#191970" d="M262.0666,-262.3782C339.4103,-262.3782 485.3094,-262.3782 561.634,-262.3782"/>
<polygon fill="#191970" stroke="#191970" points="561.9277,-265.8783 571.9277,-262.3782 561.9276,-258.8783 561.9277,-265.8783"/>
</g>
<!-- Node317082 -->
<g id="node8" class="node">
<title>Node317082</title>
<g id="a_node8"><a xlink:href="quickjs_8h.html#ad80a83d73e9b7d872b88fbf2943aebe9" target="_top" xlink:title="JS_IsException">
<polygon fill="none" stroke="#000000" points="568,-176.8782 568,-195.8782 654,-195.8782 654,-176.8782 568,-176.8782"/>
<text text-anchor="middle" x="611" y="-183.8782" font-family="Helvetica,sans-Serif" font-size="10.00" fill="#000000">JS_IsException</text>
</a>
</g>
</g>
<!-- Node317017&#45;&gt;Node317082 -->
<g id="edge8" class="edge">
<title>Node317017&#45;&gt;Node317082</title>
<path fill="none" stroke="#191970" d="M214.8809,-252.5907C225.3531,-227.0373 256.2401,-157.0618 298,-110.3782 345.7105,-57.0425 359.972,-37.5857 428,-15.3782 471.9402,-1.0341 493.0608,9.5262 532,-15.3782 585.1797,-49.3904 603.0775,-129.3338 608.6648,-166.6037"/>
<polygon fill="#191970" stroke="#191970" points="605.2216,-167.2606 610.029,-176.702 612.1586,-166.3235 605.2216,-167.2606"/>
</g>
<!-- Node317083 -->
<g id="node9" class="node">
<title>Node317083</title>
<g id="a_node9"><a xlink:href="quickjs_8c.html#a522741f41afb1d0da0aa55968cd8579e" target="_top" xlink:title="JS_NewAtomLen">
<polygon fill="none" stroke="#000000" points="298.5,-119.8782 298.5,-138.8782 391.5,-138.8782 391.5,-119.8782 298.5,-119.8782"/>
<text text-anchor="middle" x="345" y="-126.8782" font-family="Helvetica,sans-Serif" font-size="10.00" fill="#000000">JS_NewAtomLen</text>
</a>
</g>
</g>
<!-- Node317017&#45;&gt;Node317083 -->
<g id="edge9" class="edge">
<title>Node317017&#45;&gt;Node317083</title>
<path fill="none" stroke="#191970" d="M220.6369,-252.8132C243.1265,-230.4914 299.3232,-174.7142 327.8329,-146.4173"/>
<polygon fill="#191970" stroke="#191970" points="330.4569,-148.7441 335.0888,-139.2154 325.5257,-143.7758 330.4569,-148.7441"/>
</g>
<!-- Node317101 -->
<g id="node14" class="node">
<title>Node317101</title>
<g id="a_node14"><a xlink:href="quickjs_8h.html#a1e7f56471f8608df9405987087a56070" target="_top" xlink:title="JS_ToCStringLen">
<polygon fill="none" stroke="#000000" points="298,-214.8782 298,-233.8782 392,-233.8782 392,-214.8782 298,-214.8782"/>
<text text-anchor="middle" x="345" y="-221.8782" font-family="Helvetica,sans-Serif" font-size="10.00" fill="#000000">JS_ToCStringLen</text>
</a>
</g>
</g>
<!-- Node317017&#45;&gt;Node317101 -->
<g id="edge15" class="edge">
<title>Node317017&#45;&gt;Node317101</title>
<path fill="none" stroke="#191970" d="M244.8139,-252.7892C262.0326,-247.9063 283.1637,-241.9139 301.5733,-236.6933"/>
<polygon fill="#191970" stroke="#191970" points="302.5312,-240.0597 311.197,-233.9642 300.6214,-233.3252 302.5312,-240.0597"/>
</g>
<!-- Node317019 -->
<g id="node4" class="node">
<title>Node317019</title>
<g id="a_node4"><a xlink:href="quickjs_8c.html#a06ff303a11e6641cbf1f6634e6a61811" target="_top" xlink:title="__JS_AtomToValue">
<polygon fill="none" stroke="#ff0000" points="428,-366.8782 428,-385.8782 532,-385.8782 532,-366.8782 428,-366.8782"/>
<text text-anchor="middle" x="480" y="-373.8782" font-family="Helvetica,sans-Serif" font-size="10.00" fill="#000000">__JS_AtomToValue</text>
</a>
</g>
</g>
<!-- Node317018&#45;&gt;Node317019 -->
<g id="edge3" class="edge">
<title>Node317018&#45;&gt;Node317019</title>
<path fill="none" stroke="#191970" d="M392.2164,-376.3782C400.5233,-376.3782 409.282,-376.3782 417.9214,-376.3782"/>
<polygon fill="#191970" stroke="#191970" points="417.9745,-379.8783 427.9744,-376.3782 417.9744,-372.8783 417.9745,-379.8783"/>
</g>
<!-- Node317046&#45;&gt;Node317047 -->
<g id="edge6" class="edge">
<title>Node317046&#45;&gt;Node317047</title>
<path fill="none" stroke="#191970" d="M388.1605,-295.4318C426.1148,-290.9407 482.818,-283.8878 532,-276.3782 541.6063,-274.9114 551.8439,-273.2044 561.6554,-271.4969"/>
<polygon fill="#191970" stroke="#191970" points="562.4418,-274.9123 571.6813,-269.7275 561.2251,-268.0188 562.4418,-274.9123"/>
</g>
<!-- Node317083&#45;&gt;Node317082 -->
<g id="edge12" class="edge">
<title>Node317083&#45;&gt;Node317082</title>
<path fill="none" stroke="#191970" d="M361.5571,-138.9227C377.8886,-147.8562 403.8432,-160.7861 428,-167.3782 470.6726,-179.023 520.7272,-183.6292 557.6908,-185.4043"/>
<polygon fill="#191970" stroke="#191970" points="557.6121,-188.9041 567.7522,-185.8334 557.9105,-181.9104 557.6121,-188.9041"/>
</g>
<!-- Node317084 -->
<g id="node10" class="node">
<title>Node317084</title>
<g id="a_node10"><a xlink:href="quickjs_8c.html#ac8c91ebeea0cf07e3079c49a16de739f" target="_top" xlink:title="__JS_FindAtom">
<polygon fill="none" stroke="#ff0000" points="437,-138.8782 437,-157.8782 523,-157.8782 523,-138.8782 437,-138.8782"/>
<text text-anchor="middle" x="480" y="-145.8782" font-family="Helvetica,sans-Serif" font-size="10.00" fill="#000000">__JS_FindAtom</text>
</a>
</g>
</g>
<!-- Node317083&#45;&gt;Node317084 -->
<g id="edge10" class="edge">
<title>Node317083&#45;&gt;Node317084</title>
<path fill="none" stroke="#191970" d="M391.8376,-135.9702C403.1466,-137.5618 415.3119,-139.274 426.8855,-140.9028"/>
<polygon fill="#191970" stroke="#191970" points="426.4773,-144.3798 436.8675,-142.3077 427.4529,-137.4481 426.4773,-144.3798"/>
</g>
<!-- Node317086 -->
<g id="node11" class="node">
<title>Node317086</title>
<g id="a_node11"><a xlink:href="quickjs_8c.html#ab3ca6381d29dea396b12acd7f755c51a" target="_top" xlink:title="is_digit">
<polygon fill="none" stroke="#000000" points="456.5,-100.8782 456.5,-119.8782 503.5,-119.8782 503.5,-100.8782 456.5,-100.8782"/>
<text text-anchor="middle" x="480" y="-107.8782" font-family="Helvetica,sans-Serif" font-size="10.00" fill="#000000">is_digit</text>
</a>
</g>
</g>
<!-- Node317083&#45;&gt;Node317086 -->
<g id="edge11" class="edge">
<title>Node317083&#45;&gt;Node317086</title>
<path fill="none" stroke="#191970" d="M391.8376,-122.7863C409.7042,-120.2717 429.7083,-117.4563 446.1395,-115.1438"/>
<polygon fill="#191970" stroke="#191970" points="446.9483,-118.5645 456.3629,-113.7049 445.9727,-111.6328 446.9483,-118.5645"/>
</g>
<!-- Node317087 -->
<g id="node12" class="node">
<title>Node317087</title>
<g id="a_node12"><a xlink:href="quickjs_8c.html#a33fd643aff7f70e649d246385cd99b00" target="_top" xlink:title="JS_NewAtomStr">
<polygon fill="none" stroke="#ff0000" points="435,-62.8782 435,-81.8782 525,-81.8782 525,-62.8782 435,-62.8782"/>
<text text-anchor="middle" x="480" y="-69.8782" font-family="Helvetica,sans-Serif" font-size="10.00" fill="#000000">JS_NewAtomStr</text>
</a>
</g>
</g>
<!-- Node317083&#45;&gt;Node317087 -->
<g id="edge13" class="edge">
<title>Node317083&#45;&gt;Node317087</title>
<path fill="none" stroke="#191970" d="M364.5964,-119.8751C381.2949,-111.9059 406.0113,-100.4124 428,-91.3782 432.8217,-89.3972 437.9342,-87.4028 442.998,-85.4896"/>
<polygon fill="#191970" stroke="#191970" points="444.4264,-88.6929 452.5864,-81.9354 441.9933,-82.1293 444.4264,-88.6929"/>
</g>
<!-- Node317024 -->
<g id="node13" class="node">
<title>Node317024</title>
<g id="a_node13"><a xlink:href="quickjs_8c.html#ac34cc554aab1e98c45a7f845fff64385" target="_top" xlink:title="JS_NewStringLen">
<polygon fill="none" stroke="#ff0000" points="432.5,-24.8782 432.5,-43.8782 527.5,-43.8782 527.5,-24.8782 432.5,-24.8782"/>
<text text-anchor="middle" x="480" y="-31.8782" font-family="Helvetica,sans-Serif" font-size="10.00" fill="#000000">JS_NewStringLen</text>
</a>
</g>
</g>
<!-- Node317083&#45;&gt;Node317024 -->
<g id="edge14" class="edge">
<title>Node317083&#45;&gt;Node317024</title>
<path fill="none" stroke="#191970" d="M353.2567,-119.6704C367.1991,-103.8156 396.9403,-72.2445 428,-53.3782 431.2294,-51.4166 434.6933,-49.6094 438.2434,-47.9554"/>
<polygon fill="#191970" stroke="#191970" points="439.8965,-51.0564 447.7405,-43.9344 437.1672,-44.6103 439.8965,-51.0564"/>
</g>
<!-- Node317102 -->
<g id="node15" class="node">
<title>Node317102</title>
<g id="a_node15"><a xlink:href="quickjs_8c.html#af49e67b73f845dc1f9c3ee648dd9f95c" target="_top" xlink:title="JS_ToCStringLen2">
<polygon fill="none" stroke="#ff0000" points="430.5,-214.8782 430.5,-233.8782 529.5,-233.8782 529.5,-214.8782 430.5,-214.8782"/>
<text text-anchor="middle" x="480" y="-221.8782" font-family="Helvetica,sans-Serif" font-size="10.00" fill="#000000">JS_ToCStringLen2</text>
</a>
</g>
</g>
<!-- Node317101&#45;&gt;Node317102 -->
<g id="edge16" class="edge">
<title>Node317101&#45;&gt;Node317102</title>
<path fill="none" stroke="#191970" d="M392.2164,-224.3782C401.2623,-224.3782 410.8439,-224.3782 420.2239,-224.3782"/>
<polygon fill="#191970" stroke="#191970" points="420.2882,-227.8783 430.2882,-224.3782 420.2881,-220.8783 420.2882,-227.8783"/>
</g>
<!-- Node317102&#45;&gt;Node317047 -->
<g id="edge17" class="edge">
<title>Node317102&#45;&gt;Node317047</title>
<path fill="none" stroke="#191970" d="M513.0568,-233.9672C529.8125,-238.8277 550.3577,-244.7873 568.2965,-249.9909"/>
<polygon fill="#191970" stroke="#191970" points="567.3745,-253.3677 577.9537,-252.7923 569.3247,-246.6449 567.3745,-253.3677"/>
</g>
<!-- Node317102&#45;&gt;Node317082 -->
<g id="edge18" class="edge">
<title>Node317102&#45;&gt;Node317082</title>
<path fill="none" stroke="#191970" d="M513.0568,-214.7892C529.8125,-209.9288 550.3577,-203.9691 568.2965,-198.7655"/>
<polygon fill="#191970" stroke="#191970" points="569.3247,-202.1116 577.9537,-195.9642 567.3745,-195.3887 569.3247,-202.1116"/>
</g>
</g>
</svg>
