<?xml version="1.0" encoding="UTF-8" standalone="no"?>
<!DOCTYPE svg PUBLIC "-//W3C//DTD SVG 1.1//EN"
 "http://www.w3.org/Graphics/SVG/1.1/DTD/svg11.dtd">
<!-- Generated by graphviz version 2.40.1 (20161225.0304)
 -->
<!-- Title: JS_AddModuleExport Pages: 1 -->
<svg width="658pt" height="408pt"
 viewBox="0.00 0.00 658.00 408.00" xmlns="http://www.w3.org/2000/svg" xmlns:xlink="http://www.w3.org/1999/xlink">
<g id="graph0" class="graph" transform="scale(1 1) rotate(0) translate(4 404)">
<title>JS_AddModuleExport</title>
<!-- Node328518 -->
<g id="node1" class="node">
<title>Node328518</title>
<polygon fill="#bfbfbf" stroke="#000000" points="0,-209.5 0,-228.5 111,-228.5 111,-209.5 0,-209.5"/>
<text text-anchor="middle" x="55.5" y="-216.5" font-family="Helvetica,sans-Serif" font-size="10.00" fill="#000000">JS_AddModuleExport</text>
</g>
<!-- Node328519 -->
<g id="node2" class="node">
<title>Node328519</title>
<g id="a_node2"><a xlink:href="quickjs_8c.html#aaea4bacf94d0db93f4a13f6e88860ad0" target="_top" xlink:title="add_export_entry2">
<polygon fill="none" stroke="#000000" points="147,-304.5 147,-323.5 244,-323.5 244,-304.5 147,-304.5"/>
<text text-anchor="middle" x="195.5" y="-311.5" font-family="Helvetica,sans-Serif" font-size="10.00" fill="#000000">add_export_entry2</text>
</a>
</g>
</g>
<!-- Node328518&#45;&gt;Node328519 -->
<g id="edge1" class="edge">
<title>Node328518&#45;&gt;Node328519</title>
<path fill="none" stroke="#191970" d="M69.6944,-228.6319C94.0119,-245.1331 143.8266,-278.9359 172.9464,-298.6958"/>
<polygon fill="#191970" stroke="#191970" points="171.028,-301.6237 181.268,-304.3426 174.9585,-295.8314 171.028,-301.6237"/>
</g>
<!-- Node328530 -->
<g id="node9" class="node">
<title>Node328530</title>
<g id="a_node9"><a xlink:href="quickjs_8c.html#ab7fc45a99935a1c0ba50b0216d9401a9" target="_top" xlink:title="JS_FreeAtom">
<polygon fill="none" stroke="#000000" points="157,-209.5 157,-228.5 234,-228.5 234,-209.5 157,-209.5"/>
<text text-anchor="middle" x="195.5" y="-216.5" font-family="Helvetica,sans-Serif" font-size="10.00" fill="#000000">JS_FreeAtom</text>
</a>
</g>
</g>
<!-- Node328518&#45;&gt;Node328530 -->
<g id="edge8" class="edge">
<title>Node328518&#45;&gt;Node328530</title>
<path fill="none" stroke="#191970" d="M111.234,-219C122.9102,-219 135.1395,-219 146.5466,-219"/>
<polygon fill="#191970" stroke="#191970" points="146.752,-222.5001 156.752,-219 146.7519,-215.5001 146.752,-222.5001"/>
</g>
<!-- Node328535 -->
<g id="node12" class="node">
<title>Node328535</title>
<g id="a_node12"><a xlink:href="quickjs_8c.html#aa2ef5af1544a3012f91a80c98c326b8f" target="_top" xlink:title="JS_NewAtom">
<polygon fill="none" stroke="#000000" points="157,-114.5 157,-133.5 234,-133.5 234,-114.5 157,-114.5"/>
<text text-anchor="middle" x="195.5" y="-121.5" font-family="Helvetica,sans-Serif" font-size="10.00" fill="#000000">JS_NewAtom</text>
</a>
</g>
</g>
<!-- Node328518&#45;&gt;Node328535 -->
<g id="edge12" class="edge">
<title>Node328518&#45;&gt;Node328535</title>
<path fill="none" stroke="#191970" d="M69.6944,-209.3681C94.0119,-192.8669 143.8266,-159.0641 172.9464,-139.3042"/>
<polygon fill="#191970" stroke="#191970" points="174.9585,-142.1686 181.268,-133.6574 171.028,-136.3763 174.9585,-142.1686"/>
</g>
<!-- Node328520 -->
<g id="node3" class="node">
<title>Node328520</title>
<g id="a_node3"><a xlink:href="quickjs_8c.html#af5a10beab08419072e00fedfe4e467af" target="_top" xlink:title="find_export_entry">
<polygon fill="none" stroke="#000000" points="280.5,-380.5 280.5,-399.5 372.5,-399.5 372.5,-380.5 280.5,-380.5"/>
<text text-anchor="middle" x="326.5" y="-387.5" font-family="Helvetica,sans-Serif" font-size="10.00" fill="#000000">find_export_entry</text>
</a>
</g>
</g>
<!-- Node328519&#45;&gt;Node328520 -->
<g id="edge2" class="edge">
<title>Node328519&#45;&gt;Node328520</title>
<path fill="none" stroke="#191970" d="M207.8725,-323.5407C223.9016,-335.615 252.9982,-356.5742 280,-371 283.5335,-372.8878 287.2961,-374.7098 291.0919,-376.429"/>
<polygon fill="#191970" stroke="#191970" points="289.9148,-379.7327 300.484,-380.4692 292.681,-373.3024 289.9148,-379.7327"/>
</g>
<!-- Node328521 -->
<g id="node4" class="node">
<title>Node328521</title>
<g id="a_node4"><a xlink:href="quickjs_8c.html#ab18048ab5eea3e47109a5473f78515bc" target="_top" xlink:title="JS_AtomGetStr">
<polygon fill="none" stroke="#000000" points="283.5,-342.5 283.5,-361.5 369.5,-361.5 369.5,-342.5 283.5,-342.5"/>
<text text-anchor="middle" x="326.5" y="-349.5" font-family="Helvetica,sans-Serif" font-size="10.00" fill="#000000">JS_AtomGetStr</text>
</a>
</g>
</g>
<!-- Node328519&#45;&gt;Node328521 -->
<g id="edge3" class="edge">
<title>Node328519&#45;&gt;Node328521</title>
<path fill="none" stroke="#191970" d="M228.5568,-323.589C245.3125,-328.4494 265.8577,-334.4091 283.7965,-339.6127"/>
<polygon fill="#191970" stroke="#191970" points="282.8745,-342.9895 293.4537,-342.4141 284.8247,-336.2666 282.8745,-342.9895"/>
</g>
<!-- Node328527 -->
<g id="node6" class="node">
<title>Node328527</title>
<g id="a_node6"><a xlink:href="quickjs_8c.html#abbf44eaeace1104a6bef718fbf5700fe" target="_top" xlink:title="JS_DupAtom">
<polygon fill="none" stroke="#000000" points="289,-304.5 289,-323.5 364,-323.5 364,-304.5 289,-304.5"/>
<text text-anchor="middle" x="326.5" y="-311.5" font-family="Helvetica,sans-Serif" font-size="10.00" fill="#000000">JS_DupAtom</text>
</a>
</g>
</g>
<!-- Node328519&#45;&gt;Node328527 -->
<g id="edge5" class="edge">
<title>Node328519&#45;&gt;Node328527</title>
<path fill="none" stroke="#191970" d="M244.2796,-314C255.5299,-314 267.4856,-314 278.694,-314"/>
<polygon fill="#191970" stroke="#191970" points="278.7358,-317.5001 288.7357,-314 278.7357,-310.5001 278.7358,-317.5001"/>
</g>
<!-- Node328529 -->
<g id="node8" class="node">
<title>Node328529</title>
<g id="a_node8"><a xlink:href="quickjs_8c.html#afa610f3175e9cb11fdceac95071099b5" target="_top" xlink:title="js_resize_array">
<polygon fill="none" stroke="#000000" points="285,-266.5 285,-285.5 368,-285.5 368,-266.5 285,-266.5"/>
<text text-anchor="middle" x="326.5" y="-273.5" font-family="Helvetica,sans-Serif" font-size="10.00" fill="#000000">js_resize_array</text>
</a>
</g>
</g>
<!-- Node328519&#45;&gt;Node328529 -->
<g id="edge7" class="edge">
<title>Node328519&#45;&gt;Node328529</title>
<path fill="none" stroke="#191970" d="M228.5568,-304.411C245.3125,-299.5506 265.8577,-293.5909 283.7965,-288.3873"/>
<polygon fill="#191970" stroke="#191970" points="284.8247,-291.7334 293.4537,-285.5859 282.8745,-285.0105 284.8247,-291.7334"/>
</g>
<!-- Node328522 -->
<g id="node5" class="node">
<title>Node328522</title>
<g id="a_node5"><a xlink:href="quickjs_8c.html#a4e63c63058f1efe20ee939c165f7b3ad" target="_top" xlink:title="JS_AtomGetStrRT">
<polygon fill="none" stroke="#ff0000" points="411,-342.5 411,-361.5 510,-361.5 510,-342.5 411,-342.5"/>
<text text-anchor="middle" x="460.5" y="-349.5" font-family="Helvetica,sans-Serif" font-size="10.00" fill="#000000">JS_AtomGetStrRT</text>
</a>
</g>
</g>
<!-- Node328521&#45;&gt;Node328522 -->
<g id="edge4" class="edge">
<title>Node328521&#45;&gt;Node328522</title>
<path fill="none" stroke="#191970" d="M369.636,-352C379.5057,-352 390.17,-352 400.6021,-352"/>
<polygon fill="#191970" stroke="#191970" points="400.9187,-355.5001 410.9187,-352 400.9186,-348.5001 400.9187,-355.5001"/>
</g>
<!-- Node328528 -->
<g id="node7" class="node">
<title>Node328528</title>
<g id="a_node7"><a xlink:href="quickjs_8c.html#a7f6796ee7a195631366f57c713a33f65" target="_top" xlink:title="__JS_AtomIsConst">
<polygon fill="none" stroke="#000000" points="548,-228.5 548,-247.5 650,-247.5 650,-228.5 548,-228.5"/>
<text text-anchor="middle" x="599" y="-235.5" font-family="Helvetica,sans-Serif" font-size="10.00" fill="#000000">__JS_AtomIsConst</text>
</a>
</g>
</g>
<!-- Node328527&#45;&gt;Node328528 -->
<g id="edge6" class="edge">
<title>Node328527&#45;&gt;Node328528</title>
<path fill="none" stroke="#191970" d="M360.7364,-304.4515C409.9888,-290.7151 500.8547,-265.3726 555.0207,-250.2658"/>
<polygon fill="#191970" stroke="#191970" points="555.9972,-253.6271 564.6893,-247.5692 554.1166,-246.8844 555.9972,-253.6271"/>
</g>
<!-- Node328530&#45;&gt;Node328528 -->
<g id="edge9" class="edge">
<title>Node328530&#45;&gt;Node328528</title>
<path fill="none" stroke="#191970" d="M234.1893,-220.8218C304.4395,-224.1297 453.4735,-231.1475 537.6969,-235.1134"/>
<polygon fill="#191970" stroke="#191970" points="537.7333,-238.6189 547.8869,-235.5932 538.0626,-231.6266 537.7333,-238.6189"/>
</g>
<!-- Node328531 -->
<g id="node10" class="node">
<title>Node328531</title>
<g id="a_node10"><a xlink:href="quickjs_8c.html#a0bbd9e3ecd55e3ea6c9d44bfda382095" target="_top" xlink:title="__JS_FreeAtom">
<polygon fill="none" stroke="#000000" points="283,-190.5 283,-209.5 370,-209.5 370,-190.5 283,-190.5"/>
<text text-anchor="middle" x="326.5" y="-197.5" font-family="Helvetica,sans-Serif" font-size="10.00" fill="#000000">__JS_FreeAtom</text>
</a>
</g>
</g>
<!-- Node328530&#45;&gt;Node328531 -->
<g id="edge10" class="edge">
<title>Node328530&#45;&gt;Node328531</title>
<path fill="none" stroke="#191970" d="M234.0958,-213.4021C246.1253,-211.6574 259.6203,-209.7001 272.5025,-207.8317"/>
<polygon fill="#191970" stroke="#191970" points="273.2686,-211.2573 282.6626,-206.3581 272.2637,-204.3298 273.2686,-211.2573"/>
</g>
<!-- Node328532 -->
<g id="node11" class="node">
<title>Node328532</title>
<g id="a_node11"><a xlink:href="quickjs_8c.html#a58c8965dad50b15b75918a09f3d9dc7c" target="_top" xlink:title="JS_FreeAtomStruct">
<polygon fill="none" stroke="#ff0000" points="409,-190.5 409,-209.5 512,-209.5 512,-190.5 409,-190.5"/>
<text text-anchor="middle" x="460.5" y="-197.5" font-family="Helvetica,sans-Serif" font-size="10.00" fill="#000000">JS_FreeAtomStruct</text>
</a>
</g>
</g>
<!-- Node328531&#45;&gt;Node328532 -->
<g id="edge11" class="edge">
<title>Node328531&#45;&gt;Node328532</title>
<path fill="none" stroke="#191970" d="M370.006,-200C379.1943,-200 389.0576,-200 398.7722,-200"/>
<polygon fill="#191970" stroke="#191970" points="398.8075,-203.5001 408.8074,-200 398.8074,-196.5001 398.8075,-203.5001"/>
</g>
<!-- Node328536 -->
<g id="node13" class="node">
<title>Node328536</title>
<g id="a_node13"><a xlink:href="quickjs_8c.html#a522741f41afb1d0da0aa55968cd8579e" target="_top" xlink:title="JS_NewAtomLen">
<polygon fill="none" stroke="#000000" points="280,-95.5 280,-114.5 373,-114.5 373,-95.5 280,-95.5"/>
<text text-anchor="middle" x="326.5" y="-102.5" font-family="Helvetica,sans-Serif" font-size="10.00" fill="#000000">JS_NewAtomLen</text>
</a>
</g>
</g>
<!-- Node328535&#45;&gt;Node328536 -->
<g id="edge13" class="edge">
<title>Node328535&#45;&gt;Node328536</title>
<path fill="none" stroke="#191970" d="M234.0958,-118.4021C245.2987,-116.7773 257.7725,-114.9681 269.8387,-113.218"/>
<polygon fill="#191970" stroke="#191970" points="270.4476,-116.6665 279.8416,-111.7672 269.4427,-109.7389 270.4476,-116.6665"/>
</g>
<!-- Node328537 -->
<g id="node14" class="node">
<title>Node328537</title>
<g id="a_node14"><a xlink:href="quickjs_8c.html#ac8c91ebeea0cf07e3079c49a16de739f" target="_top" xlink:title="__JS_FindAtom">
<polygon fill="none" stroke="#ff0000" points="417.5,-152.5 417.5,-171.5 503.5,-171.5 503.5,-152.5 417.5,-152.5"/>
<text text-anchor="middle" x="460.5" y="-159.5" font-family="Helvetica,sans-Serif" font-size="10.00" fill="#000000">__JS_FindAtom</text>
</a>
</g>
</g>
<!-- Node328536&#45;&gt;Node328537 -->
<g id="edge14" class="edge">
<title>Node328536&#45;&gt;Node328537</title>
<path fill="none" stroke="#191970" d="M346.3121,-114.6555C362.9048,-122.6136 387.2909,-134.0119 409,-143 413.7754,-144.9772 418.8389,-146.9693 423.854,-148.8814"/>
<polygon fill="#191970" stroke="#191970" points="422.7579,-152.2082 433.3503,-152.4348 425.2111,-145.6522 422.7579,-152.2082"/>
</g>
<!-- Node328539 -->
<g id="node15" class="node">
<title>Node328539</title>
<g id="a_node15"><a xlink:href="quickjs_8c.html#ab3ca6381d29dea396b12acd7f755c51a" target="_top" xlink:title="is_digit">
<polygon fill="none" stroke="#000000" points="437,-114.5 437,-133.5 484,-133.5 484,-114.5 437,-114.5"/>
<text text-anchor="middle" x="460.5" y="-121.5" font-family="Helvetica,sans-Serif" font-size="10.00" fill="#000000">is_digit</text>
</a>
</g>
</g>
<!-- Node328536&#45;&gt;Node328539 -->
<g id="edge16" class="edge">
<title>Node328536&#45;&gt;Node328539</title>
<path fill="none" stroke="#191970" d="M373.3667,-111.6453C390.9493,-114.1383 410.5713,-116.9206 426.7364,-119.2126"/>
<polygon fill="#191970" stroke="#191970" points="426.4115,-122.7015 436.8038,-120.6401 427.3943,-115.7708 426.4115,-122.7015"/>
</g>
<!-- Node328540 -->
<g id="node16" class="node">
<title>Node328540</title>
<g id="a_node16"><a xlink:href="quickjs_8h.html#ad80a83d73e9b7d872b88fbf2943aebe9" target="_top" xlink:title="JS_IsException">
<polygon fill="none" stroke="#000000" points="417.5,-76.5 417.5,-95.5 503.5,-95.5 503.5,-76.5 417.5,-76.5"/>
<text text-anchor="middle" x="460.5" y="-83.5" font-family="Helvetica,sans-Serif" font-size="10.00" fill="#000000">JS_IsException</text>
</a>
</g>
</g>
<!-- Node328536&#45;&gt;Node328540 -->
<g id="edge17" class="edge">
<title>Node328536&#45;&gt;Node328540</title>
<path fill="none" stroke="#191970" d="M373.3667,-98.3547C384.3455,-96.798 396.1195,-95.1286 407.3505,-93.5361"/>
<polygon fill="#191970" stroke="#191970" points="408.0641,-96.97 417.4736,-92.1008 407.0813,-90.0394 408.0641,-96.97"/>
</g>
<!-- Node328541 -->
<g id="node17" class="node">
<title>Node328541</title>
<g id="a_node17"><a xlink:href="quickjs_8c.html#a33fd643aff7f70e649d246385cd99b00" target="_top" xlink:title="JS_NewAtomStr">
<polygon fill="none" stroke="#ff0000" points="415.5,-38.5 415.5,-57.5 505.5,-57.5 505.5,-38.5 415.5,-38.5"/>
<text text-anchor="middle" x="460.5" y="-45.5" font-family="Helvetica,sans-Serif" font-size="10.00" fill="#000000">JS_NewAtomStr</text>
</a>
</g>
</g>
<!-- Node328536&#45;&gt;Node328541 -->
<g id="edge18" class="edge">
<title>Node328536&#45;&gt;Node328541</title>
<path fill="none" stroke="#191970" d="M346.3121,-95.3445C362.9048,-87.3864 387.2909,-75.9881 409,-67 413.7754,-65.0228 418.8389,-63.0307 423.854,-61.1186"/>
<polygon fill="#191970" stroke="#191970" points="425.2111,-64.3478 433.3503,-57.5652 422.7579,-57.7918 425.2111,-64.3478"/>
</g>
<!-- Node328556 -->
<g id="node18" class="node">
<title>Node328556</title>
<g id="a_node18"><a xlink:href="quickjs_8c.html#ac34cc554aab1e98c45a7f845fff64385" target="_top" xlink:title="JS_NewStringLen">
<polygon fill="none" stroke="#ff0000" points="413,-.5 413,-19.5 508,-19.5 508,-.5 413,-.5"/>
<text text-anchor="middle" x="460.5" y="-7.5" font-family="Helvetica,sans-Serif" font-size="10.00" fill="#000000">JS_NewStringLen</text>
</a>
</g>
</g>
<!-- Node328536&#45;&gt;Node328556 -->
<g id="edge19" class="edge">
<title>Node328536&#45;&gt;Node328556</title>
<path fill="none" stroke="#191970" d="M334.7007,-95.2997C348.5502,-79.4555 378.0997,-47.8995 409,-29 412.1961,-27.0452 415.625,-25.2427 419.14,-23.5918"/>
<polygon fill="#191970" stroke="#191970" points="420.7223,-26.722 428.5441,-19.5756 417.973,-20.2844 420.7223,-26.722"/>
</g>
<!-- Node328537&#45;&gt;Node328528 -->
<g id="edge15" class="edge">
<title>Node328537&#45;&gt;Node328528</title>
<path fill="none" stroke="#191970" d="M489.8611,-171.5273C497.2292,-174.2707 505.0211,-177.4837 512,-181 535.7568,-192.9698 560.9824,-210.0396 578.1188,-222.3755"/>
<polygon fill="#191970" stroke="#191970" points="576.1517,-225.2729 586.2921,-228.3428 580.2794,-219.6194 576.1517,-225.2729"/>
</g>
</g>
</svg>
