<?xml version="1.0" encoding="UTF-8" standalone="no"?>
<!DOCTYPE svg PUBLIC "-//W3C//DTD SVG 1.1//EN"
 "http://www.w3.org/Graphics/SVG/1.1/DTD/svg11.dtd">
<!-- Generated by graphviz version 2.40.1 (20161225.0304)
 -->
<!-- Title: js_array_from Pages: 1 -->
<!--zoomable 1092 -->
<svg id="main" version="1.1" xmlns="http://www.w3.org/2000/svg" xmlns:xlink="http://www.w3.org/1999/xlink" xml:space="preserve" onload="init(evt)">
<style type="text/css"><![CDATA[
.edge:hover path { stroke: red; }
.edge:hover polygon { stroke: red; fill: red; }
]]></style>
<script type="text/javascript"><![CDATA[
var edges = document.getElementsByTagName('g');
if (edges && edges.length) {
  for (var i=0;i<edges.length;i++) {
    if (edges[i].id.substr(0,4)=='edge') {
      edges[i].setAttribute('class','edge');
    }
  }
}
]]></script>
        <defs>
                <circle id="rim" cx="0" cy="0" r="7"/>
                <circle id="rim2" cx="0" cy="0" r="3.5"/>
                <g id="zoomPlus">
                        <use xlink:href="#rim" fill="#404040">
                                <set attributeName="fill" to="#808080" begin="zoomplus.mouseover" end="zoomplus.mouseout"/>
                        </use>
                        <path d="M-4,0h8M0,-4v8" fill="none" stroke="white" stroke-width="1.5" pointer-events="none"/>
                </g>
                <g id="zoomMin">
                        <use xlink:href="#rim" fill="#404040">
                                <set attributeName="fill" to="#808080" begin="zoomminus.mouseover" end="zoomminus.mouseout"/>
                        </use>
                        <path d="M-4,0h8" fill="none" stroke="white" stroke-width="1.5" pointer-events="none"/>
                </g>
                <g id="dirArrow">
                        <path fill="none" stroke="white" stroke-width="1.5" d="M0,-3.0v7 M-2.5,-0.5L0,-3.0L2.5,-0.5"/>
                </g>
               <g id="resetDef">
                       <use xlink:href="#rim2" fill="#404040">
                               <set attributeName="fill" to="#808080" begin="reset.mouseover" end="reset.mouseout"/>
                       </use>
               </g>
        </defs>

<script type="text/javascript">
var viewWidth = 685;
var viewHeight = 1092;
var sectionId = 'dynsection-1451';
</script>
<script xlink:href="svgpan.js"/>
<svg id="graph" class="graph">
<g id="viewport">
<title>js_array_from</title>
<!-- Node389239 -->
<g id="node1" class="node">
<title>Node389239</title>
<polygon fill="#bfbfbf" stroke="#000000" points="0,-437.5 0,-456.5 76,-456.5 76,-437.5 0,-437.5"/>
<text text-anchor="middle" x="38" y="-444.5" font-family="Helvetica,sans-Serif" font-size="10.00" fill="#000000">js_array_from</text>
</g>
<!-- Node389240 -->
<g id="node2" class="node">
<title>Node389240</title>
<g id="a_node2"><a xlink:href="quickjs_8c.html#a59a7e992f228759bf0a56f0aae4f3cc3" target="_top" xlink:title="check_function">
<polygon fill="none" stroke="#000000" points="143.5,-1064.5 143.5,-1083.5 226.5,-1083.5 226.5,-1064.5 143.5,-1064.5"/>
<text text-anchor="middle" x="185" y="-1071.5" font-family="Helvetica,sans-Serif" font-size="10.00" fill="#000000">check_function</text>
</a>
</g>
</g>
<!-- Node389239&#45;&gt;Node389240 -->
<g id="edge1" class="edge">
<title>Node389239&#45;&gt;Node389240</title>
<path fill="none" stroke="#191970" d="M38.5612,-456.5857C42.9394,-530.0247 72.5025,-1001.9126 112,-1050 117.7216,-1056.966 125.5086,-1061.9267 133.872,-1065.4554"/>
<polygon fill="#191970" stroke="#191970" points="132.8854,-1068.819 143.4802,-1068.8615 135.2243,-1062.2213 132.8854,-1068.819"/>
</g>
<!-- Node389242 -->
<g id="node4" class="node">
<title>Node389242</title>
<g id="a_node4"><a xlink:href="quickjs_8c.html#a68c7842d6b1ef577bc4625aec4ede310" target="_top" xlink:title="js_array_constructor">
<polygon fill="none" stroke="#000000" points="132.5,-551.5 132.5,-570.5 237.5,-570.5 237.5,-551.5 132.5,-551.5"/>
<text text-anchor="middle" x="185" y="-558.5" font-family="Helvetica,sans-Serif" font-size="10.00" fill="#000000">js_array_constructor</text>
</a>
</g>
</g>
<!-- Node389239&#45;&gt;Node389242 -->
<g id="edge3" class="edge">
<title>Node389239&#45;&gt;Node389242</title>
<path fill="none" stroke="#191970" d="M50.2803,-456.5235C75.5098,-476.0892 133.4069,-520.9891 164.4492,-545.0626"/>
<polygon fill="#191970" stroke="#191970" points="162.3959,-547.8995 172.443,-551.262 166.6857,-542.3679 162.3959,-547.8995"/>
</g>
<!-- Node389244 -->
<g id="node6" class="node">
<title>Node389244</title>
<g id="a_node6"><a xlink:href="quickjs_8h.html#a775522f2d084fc8fa0fcb33f390006b4" target="_top" xlink:title="JS_DupValue">
<polygon fill="none" stroke="#000000" points="483.5,-912.5 483.5,-931.5 560.5,-931.5 560.5,-912.5 483.5,-912.5"/>
<text text-anchor="middle" x="522" y="-919.5" font-family="Helvetica,sans-Serif" font-size="10.00" fill="#000000">JS_DupValue</text>
</a>
</g>
</g>
<!-- Node389239&#45;&gt;Node389244 -->
<g id="edge29" class="edge">
<title>Node389239&#45;&gt;Node389244</title>
<path fill="none" stroke="#191970" d="M38.7703,-456.5219C44.1576,-522.0856 77.0059,-905.1311 112,-942 213.9056,-1049.3654 302.1424,-1024.5109 443,-979 467.4419,-971.1028 490.6877,-952.5142 505.5541,-938.6992"/>
<polygon fill="#191970" stroke="#191970" points="508.1343,-941.0733 512.9054,-931.6135 503.2765,-936.0333 508.1343,-941.0733"/>
</g>
<!-- Node389245 -->
<g id="node7" class="node">
<title>Node389245</title>
<g id="a_node7"><a xlink:href="quickjs_8h.html#afaa20c47565bc704c6c85f3d77254e7d" target="_top" xlink:title="JS_FreeValue">
<polygon fill="none" stroke="#ff0000" points="483,-570.5 483,-589.5 561,-589.5 561,-570.5 483,-570.5"/>
<text text-anchor="middle" x="522" y="-577.5" font-family="Helvetica,sans-Serif" font-size="10.00" fill="#000000">JS_FreeValue</text>
</a>
</g>
</g>
<!-- Node389239&#45;&gt;Node389245 -->
<g id="edge34" class="edge">
<title>Node389239&#45;&gt;Node389245</title>
<path fill="none" stroke="#191970" d="M39.0897,-456.8097C42.9552,-486.8025 58.7746,-578.0859 112,-625 167.8062,-674.1889 375.6495,-706.5878 443,-675 476.4962,-659.29 500.717,-621.6263 512.956,-598.722"/>
<polygon fill="#191970" stroke="#191970" points="516.1618,-600.14 517.5936,-589.6424 509.9279,-596.9559 516.1618,-600.14"/>
</g>
<!-- Node389284 -->
<g id="node8" class="node">
<title>Node389284</title>
<g id="a_node8"><a xlink:href="quickjs_8h.html#a89b7c8686c7eee70b86be722ee4730ad" target="_top" xlink:title="JS_GetProperty">
<polygon fill="none" stroke="#ff0000" points="479,-532.5 479,-551.5 565,-551.5 565,-532.5 479,-532.5"/>
<text text-anchor="middle" x="522" y="-539.5" font-family="Helvetica,sans-Serif" font-size="10.00" fill="#000000">JS_GetProperty</text>
</a>
</g>
</g>
<!-- Node389239&#45;&gt;Node389284 -->
<g id="edge38" class="edge">
<title>Node389239&#45;&gt;Node389284</title>
<path fill="none" stroke="#191970" d="M52.0943,-437.4079C66.5253,-428.0255 89.9087,-414.0132 112,-406 181.5326,-380.7785 384.9837,-325.1194 443,-371 497.4543,-414.0637 434.6139,-469.6181 479,-523 479.9784,-524.1767 481.0441,-525.2829 482.1792,-526.3227"/>
<polygon fill="#191970" stroke="#191970" points="480.3149,-529.2924 490.4847,-532.2634 484.3873,-523.5989 480.3149,-529.2924"/>
</g>
<!-- Node389293 -->
<g id="node9" class="node">
<title>Node389293</title>
<g id="a_node9"><a xlink:href="quickjs_8h.html#ad80a83d73e9b7d872b88fbf2943aebe9" target="_top" xlink:title="JS_IsException">
<polygon fill="none" stroke="#000000" points="479,-760.5 479,-779.5 565,-779.5 565,-760.5 479,-760.5"/>
<text text-anchor="middle" x="522" y="-767.5" font-family="Helvetica,sans-Serif" font-size="10.00" fill="#000000">JS_IsException</text>
</a>
</g>
</g>
<!-- Node389239&#45;&gt;Node389293 -->
<g id="edge44" class="edge">
<title>Node389239&#45;&gt;Node389293</title>
<path fill="none" stroke="#191970" d="M38.8043,-456.7194C43.1973,-507.638 65.8061,-743.343 112,-797 209.9852,-910.8155 307.0285,-928.7716 443,-865 476.4962,-849.29 500.717,-811.6263 512.956,-788.722"/>
<polygon fill="#191970" stroke="#191970" points="516.1618,-790.14 517.5936,-779.6424 509.9279,-786.9559 516.1618,-790.14"/>
</g>
<!-- Node389448 -->
<g id="node10" class="node">
<title>Node389448</title>
<g id="a_node10"><a xlink:href="quickjs_8h.html#a4e407128a9605afb77523e49e9a627fd" target="_top" xlink:title="JS_IsUndefined">
<polygon fill="none" stroke="#000000" points="479,-494.5 479,-513.5 565,-513.5 565,-494.5 479,-494.5"/>
<text text-anchor="middle" x="522" y="-501.5" font-family="Helvetica,sans-Serif" font-size="10.00" fill="#000000">JS_IsUndefined</text>
</a>
</g>
</g>
<!-- Node389239&#45;&gt;Node389448 -->
<g id="edge45" class="edge">
<title>Node389239&#45;&gt;Node389448</title>
<path fill="none" stroke="#191970" d="M41.039,-437.3835C48.7022,-414.9904 71.1729,-359.6293 112,-338 176.9976,-303.5656 383.3879,-294.9092 443,-338 484.347,-367.8879 455.321,-401.8096 479,-447 486.4451,-461.2087 497.3508,-475.6174 506.3161,-486.3933"/>
<polygon fill="#191970" stroke="#191970" points="503.824,-488.8642 512.9869,-494.1832 509.141,-484.3111 503.824,-488.8642"/>
</g>
<!-- Node389370 -->
<g id="node12" class="node">
<title>Node389370</title>
<g id="a_node12"><a xlink:href="quickjs_8h.html#a88259aa0da61ac754402c64ccecee116" target="_top" xlink:title="JS_NewUint32">
<polygon fill="none" stroke="#ff0000" points="480.5,-418.5 480.5,-437.5 563.5,-437.5 563.5,-418.5 480.5,-418.5"/>
<text text-anchor="middle" x="522" y="-425.5" font-family="Helvetica,sans-Serif" font-size="10.00" fill="#000000">JS_NewUint32</text>
</a>
</g>
</g>
<!-- Node389239&#45;&gt;Node389370 -->
<g id="edge58" class="edge">
<title>Node389239&#45;&gt;Node389370</title>
<path fill="none" stroke="#191970" d="M39.4261,-437.1223C44.0098,-409.4806 61.1602,-331.3253 112,-300 174.6226,-261.4146 378.766,-264.1614 443,-300 484.8392,-323.3437 507.2844,-378.9714 516.6444,-408.619"/>
<polygon fill="#191970" stroke="#191970" points="513.306,-409.6719 519.5125,-418.2585 520.0153,-407.6756 513.306,-409.6719"/>
</g>
<!-- Node389294 -->
<g id="node13" class="node">
<title>Node389294</title>
<g id="a_node13"><a xlink:href="quickjs_8h.html#a2050bc428da1c65ac7eb87c3fa3b0392" target="_top" xlink:title="JS_NewInt32">
<polygon fill="none" stroke="#000000" points="601,-418.5 601,-437.5 677,-437.5 677,-418.5 601,-418.5"/>
<text text-anchor="middle" x="639" y="-425.5" font-family="Helvetica,sans-Serif" font-size="10.00" fill="#000000">JS_NewInt32</text>
</a>
</g>
</g>
<!-- Node389239&#45;&gt;Node389294 -->
<g id="edge56" class="edge">
<title>Node389239&#45;&gt;Node389294</title>
<path fill="none" stroke="#191970" d="M38.5956,-456.6319C43.0063,-526.5032 71.5498,-953.9855 112,-993 218.0418,-1095.2781 297.5162,-1034.2411 443,-1011 499.3478,-1001.9984 528.4709,-1014.8375 565,-971 599.2767,-929.8655 630.4913,-541.2054 637.525,-448.0122"/>
<polygon fill="#191970" stroke="#191970" points="641.0227,-448.1729 638.2774,-437.9399 634.0421,-447.6514 641.0227,-448.1729"/>
</g>
<!-- Node389530 -->
<g id="node14" class="node">
<title>Node389530</title>
<g id="a_node14"><a xlink:href="quickjs_8h.html#af763b173e78debf2075670ca2c128a30" target="_top" xlink:title="JS_SetProperty">
<polygon fill="none" stroke="#ff0000" points="325.5,-380.5 325.5,-399.5 411.5,-399.5 411.5,-380.5 325.5,-380.5"/>
<text text-anchor="middle" x="368.5" y="-387.5" font-family="Helvetica,sans-Serif" font-size="10.00" fill="#000000">JS_SetProperty</text>
</a>
</g>
</g>
<!-- Node389239&#45;&gt;Node389530 -->
<g id="edge59" class="edge">
<title>Node389239&#45;&gt;Node389530</title>
<path fill="none" stroke="#191970" d="M76.2354,-440.4057C135.227,-430.2316 248.5981,-410.679 315.4771,-399.1446"/>
<polygon fill="#191970" stroke="#191970" points="316.1359,-402.5828 325.3956,-397.434 314.9462,-395.6846 316.1359,-402.5828"/>
</g>
<!-- Node389524 -->
<g id="node17" class="node">
<title>Node389524</title>
<g id="a_node17"><a xlink:href="quickjs_8c.html#a1a4c02a29525d5cb2085dd8bca3af350" target="_top" xlink:title="JS_Call">
<polygon fill="none" stroke="#ff0000" points="159.5,-114.5 159.5,-133.5 210.5,-133.5 210.5,-114.5 159.5,-114.5"/>
<text text-anchor="middle" x="185" y="-121.5" font-family="Helvetica,sans-Serif" font-size="10.00" fill="#000000">JS_Call</text>
</a>
</g>
</g>
<!-- Node389239&#45;&gt;Node389524 -->
<g id="edge21" class="edge">
<title>Node389239&#45;&gt;Node389524</title>
<path fill="none" stroke="#191970" d="M39.1174,-437.4691C44.6955,-391.4111 70.9035,-192.3012 112,-148 121.6884,-137.5561 135.9953,-131.6492 149.3822,-128.3115"/>
<polygon fill="#191970" stroke="#191970" points="150.2764,-131.7003 159.3482,-126.2273 148.8434,-124.8485 150.2764,-131.7003"/>
</g>
<!-- Node389610 -->
<g id="node18" class="node">
<title>Node389610</title>
<g id="a_node18"><a xlink:href="quickjs_8c.html#a28704096ee67c5b0ab1bd60ce050e36a" target="_top" xlink:title="JS_CallConstructor">
<polygon fill="none" stroke="#ff0000" points="134,-76.5 134,-95.5 236,-95.5 236,-76.5 134,-76.5"/>
<text text-anchor="middle" x="185" y="-83.5" font-family="Helvetica,sans-Serif" font-size="10.00" fill="#000000">JS_CallConstructor</text>
</a>
</g>
</g>
<!-- Node389239&#45;&gt;Node389610 -->
<g id="edge22" class="edge">
<title>Node389239&#45;&gt;Node389610</title>
<path fill="none" stroke="#191970" d="M38.7415,-437.4146C42.8148,-387.2111 64.0576,-154.9762 112,-105 115.6462,-101.1991 119.9485,-98.1236 124.6107,-95.6393"/>
<polygon fill="#191970" stroke="#191970" points="126.1846,-98.771 133.9423,-91.5552 123.378,-92.3583 126.1846,-98.771"/>
</g>
<!-- Node389673 -->
<g id="node19" class="node">
<title>Node389673</title>
<g id="a_node19"><a xlink:href="quickjs_8c.html#a57a83f0615206965524d78bf89bbf777" target="_top" xlink:title="JS_DefinePropertyValueInt64">
<polygon fill="none" stroke="#000000" points="112,-228.5 112,-247.5 258,-247.5 258,-228.5 112,-228.5"/>
<text text-anchor="middle" x="185" y="-235.5" font-family="Helvetica,sans-Serif" font-size="10.00" fill="#000000">JS_DefinePropertyValueInt64</text>
</a>
</g>
</g>
<!-- Node389239&#45;&gt;Node389673 -->
<g id="edge23" class="edge">
<title>Node389239&#45;&gt;Node389673</title>
<path fill="none" stroke="#191970" d="M39.0158,-437.364C42.7276,-407.0149 58.2876,-312.4373 112,-262 116.2989,-257.9632 121.2897,-254.6049 126.6052,-251.8112"/>
<polygon fill="#191970" stroke="#191970" points="128.1458,-254.9555 135.7928,-247.6224 125.2418,-248.5863 128.1458,-254.9555"/>
</g>
<!-- Node389508 -->
<g id="node22" class="node">
<title>Node389508</title>
<g id="a_node22"><a xlink:href="quickjs_8h.html#a6acbc709e59969eac6775f9b253b438f" target="_top" xlink:title="JS_NewInt64">
<polygon fill="none" stroke="#ff0000" points="330.5,-152.5 330.5,-171.5 406.5,-171.5 406.5,-152.5 330.5,-152.5"/>
<text text-anchor="middle" x="368.5" y="-159.5" font-family="Helvetica,sans-Serif" font-size="10.00" fill="#000000">JS_NewInt64</text>
</a>
</g>
</g>
<!-- Node389239&#45;&gt;Node389508 -->
<g id="edge57" class="edge">
<title>Node389239&#45;&gt;Node389508</title>
<path fill="none" stroke="#191970" d="M39.1599,-437.302C44.6578,-393.0939 69.6067,-211.3416 112,-177 142.8862,-151.98 255.0774,-154.5261 320.4034,-158.3833"/>
<polygon fill="#191970" stroke="#191970" points="320.2676,-161.8815 330.4658,-159.0096 320.7025,-154.895 320.2676,-161.8815"/>
</g>
<!-- Node389628 -->
<g id="node23" class="node">
<title>Node389628</title>
<g id="a_node23"><a xlink:href="quickjs_8c.html#ac71df7cd121a3af9abf57897c58e75c2" target="_top" xlink:title="js_for_of_start">
<polygon fill="none" stroke="#ff0000" points="329,-722.5 329,-741.5 408,-741.5 408,-722.5 329,-722.5"/>
<text text-anchor="middle" x="368.5" y="-729.5" font-family="Helvetica,sans-Serif" font-size="10.00" fill="#000000">js_for_of_start</text>
</a>
</g>
</g>
<!-- Node389239&#45;&gt;Node389628 -->
<g id="edge30" class="edge">
<title>Node389239&#45;&gt;Node389628</title>
<path fill="none" stroke="#191970" d="M39.2788,-456.6335C45.2058,-499.7378 71.448,-674.2637 112,-708 169.6157,-755.9322 261.7052,-751.3974 318.4511,-742.5452"/>
<polygon fill="#191970" stroke="#191970" points="319.3292,-745.9474 328.6192,-740.8538 318.1804,-739.0422 319.3292,-745.9474"/>
</g>
<!-- Node389517 -->
<g id="node24" class="node">
<title>Node389517</title>
<g id="a_node24"><a xlink:href="quickjs_8c.html#a5f848f76409193212a44e6221e430919" target="_top" xlink:title="js_get_length64">
<polygon fill="none" stroke="#ff0000" points="326,-836.5 326,-855.5 411,-855.5 411,-836.5 326,-836.5"/>
<text text-anchor="middle" x="368.5" y="-843.5" font-family="Helvetica,sans-Serif" font-size="10.00" fill="#000000">js_get_length64</text>
</a>
</g>
</g>
<!-- Node389239&#45;&gt;Node389517 -->
<g id="edge35" class="edge">
<title>Node389239&#45;&gt;Node389517</title>
<path fill="none" stroke="#191970" d="M39.2875,-456.6088C45.5545,-502.1632 74.1124,-696.0777 112,-742 163.0618,-803.8903 256.635,-829.2893 315.5411,-839.47"/>
<polygon fill="#191970" stroke="#191970" points="315.3256,-842.9813 325.7599,-841.1439 316.4572,-836.0734 315.3256,-842.9813"/>
</g>
<!-- Node389674 -->
<g id="node25" class="node">
<title>Node389674</title>
<g id="a_node25"><a xlink:href="quickjs_8c.html#a7bb763b31e1c40a04aa0c1d5db0f1191" target="_top" xlink:title="JS_GetPropertyInt64">
<polygon fill="none" stroke="#ff0000" points="314.5,-190.5 314.5,-209.5 422.5,-209.5 422.5,-190.5 314.5,-190.5"/>
<text text-anchor="middle" x="368.5" y="-197.5" font-family="Helvetica,sans-Serif" font-size="10.00" fill="#000000">JS_GetPropertyInt64</text>
</a>
</g>
</g>
<!-- Node389239&#45;&gt;Node389674 -->
<g id="edge39" class="edge">
<title>Node389239&#45;&gt;Node389674</title>
<path fill="none" stroke="#191970" d="M39.6943,-437.2439C46.8292,-397.3576 75.744,-247.4564 112,-219 170.6954,-172.9315 262.0504,-178.9087 318.4212,-188.6157"/>
<polygon fill="#191970" stroke="#191970" points="318.058,-192.1071 328.524,-190.4599 319.3151,-185.2209 318.058,-192.1071"/>
</g>
<!-- Node389649 -->
<g id="node26" class="node">
<title>Node389649</title>
<g id="a_node26"><a xlink:href="quickjs_8c.html#afa39b15865cb50fc2383e76e33b2de1a" target="_top" xlink:title="JS_IsConstructor">
<polygon fill="none" stroke="#000000" points="138.5,-38.5 138.5,-57.5 231.5,-57.5 231.5,-38.5 138.5,-38.5"/>
<text text-anchor="middle" x="185" y="-45.5" font-family="Helvetica,sans-Serif" font-size="10.00" fill="#000000">JS_IsConstructor</text>
</a>
</g>
</g>
<!-- Node389239&#45;&gt;Node389649 -->
<g id="edge43" class="edge">
<title>Node389239&#45;&gt;Node389649</title>
<path fill="none" stroke="#191970" d="M38.517,-437.4342C41.5939,-384.0368 59.1891,-123.2077 112,-67 116.6994,-61.9983 122.534,-58.2482 128.842,-55.4469"/>
<polygon fill="#191970" stroke="#191970" points="130.1469,-58.6966 138.3457,-51.9861 127.7517,-52.1191 130.1469,-58.6966"/>
</g>
<!-- Node389527 -->
<g id="node27" class="node">
<title>Node389527</title>
<g id="a_node27"><a xlink:href="quickjs_8c.html#abb88b24dc63d82fcc312bba0cf93c3d7" target="_top" xlink:title="JS_IteratorClose">
<polygon fill="none" stroke="#ff0000" points="323.5,-494.5 323.5,-513.5 413.5,-513.5 413.5,-494.5 323.5,-494.5"/>
<text text-anchor="middle" x="368.5" y="-501.5" font-family="Helvetica,sans-Serif" font-size="10.00" fill="#000000">JS_IteratorClose</text>
</a>
</g>
</g>
<!-- Node389239&#45;&gt;Node389527 -->
<g id="edge46" class="edge">
<title>Node389239&#45;&gt;Node389527</title>
<path fill="none" stroke="#191970" d="M76.2354,-453.5943C134.5806,-463.6569 246.1197,-482.8936 313.2617,-494.4733"/>
<polygon fill="#191970" stroke="#191970" points="312.7883,-497.9432 323.2377,-496.1938 313.9781,-491.0451 312.7883,-497.9432"/>
</g>
<!-- Node389528 -->
<g id="node28" class="node">
<title>Node389528</title>
<g id="a_node28"><a xlink:href="quickjs_8c.html#a44f6eee98516c994a594533cfa8618ed" target="_top" xlink:title="JS_IteratorNext">
<polygon fill="none" stroke="#ff0000" points="325.5,-646.5 325.5,-665.5 411.5,-665.5 411.5,-646.5 325.5,-646.5"/>
<text text-anchor="middle" x="368.5" y="-653.5" font-family="Helvetica,sans-Serif" font-size="10.00" fill="#000000">JS_IteratorNext</text>
</a>
</g>
</g>
<!-- Node389239&#45;&gt;Node389528 -->
<g id="edge51" class="edge">
<title>Node389239&#45;&gt;Node389528</title>
<path fill="none" stroke="#191970" d="M40.6389,-456.6605C47.8099,-481.0875 69.9921,-545.801 112,-580 170.8298,-627.8939 259.0045,-645.6106 315.1305,-652.1612"/>
<polygon fill="#191970" stroke="#191970" points="314.9033,-655.657 325.2232,-653.2592 315.6604,-648.6981 314.9033,-655.657"/>
</g>
<!-- Node389505 -->
<g id="node29" class="node">
<title>Node389505</title>
<g id="a_node29"><a xlink:href="quickjs_8c.html#ad4ba09e4c7ab9f28c144182e1aacf1f6" target="_top" xlink:title="JS_NewArray">
<polygon fill="none" stroke="#ff0000" points="146.5,-.5 146.5,-19.5 223.5,-19.5 223.5,-.5 146.5,-.5"/>
<text text-anchor="middle" x="185" y="-7.5" font-family="Helvetica,sans-Serif" font-size="10.00" fill="#000000">JS_NewArray</text>
</a>
</g>
</g>
<!-- Node389239&#45;&gt;Node389505 -->
<g id="edge55" class="edge">
<title>Node389239&#45;&gt;Node389505</title>
<path fill="none" stroke="#191970" d="M38.3411,-437.2413C40.5274,-380.3044 54.3719,-91.396 112,-29 118.5286,-21.9312 127.3233,-17.355 136.5453,-14.4228"/>
<polygon fill="#191970" stroke="#191970" points="137.4229,-17.8111 146.2333,-11.9267 135.6763,-11.0325 137.4229,-17.8111"/>
</g>
<!-- Node389512 -->
<g id="node30" class="node">
<title>Node389512</title>
<g id="a_node30"><a xlink:href="quickjs_8c.html#a710289a14c2810467e5b448d3c28bd55" target="_top" xlink:title="JS_ToObject">
<polygon fill="none" stroke="#ff0000" points="331.5,-950.5 331.5,-969.5 405.5,-969.5 405.5,-950.5 331.5,-950.5"/>
<text text-anchor="middle" x="368.5" y="-957.5" font-family="Helvetica,sans-Serif" font-size="10.00" fill="#000000">JS_ToObject</text>
</a>
</g>
</g>
<!-- Node389239&#45;&gt;Node389512 -->
<g id="edge60" class="edge">
<title>Node389239&#45;&gt;Node389512</title>
<path fill="none" stroke="#191970" d="M38.1869,-456.7519C39.5277,-516.3086 49.5223,-830.6829 112,-898 165.6558,-955.8118 263.1511,-963.9062 321.2537,-963.0077"/>
<polygon fill="#191970" stroke="#191970" points="321.3659,-966.5061 331.2754,-962.7574 321.1911,-959.5082 321.3659,-966.5061"/>
</g>
<!-- Node389241 -->
<g id="node3" class="node">
<title>Node389241</title>
<g id="a_node3"><a xlink:href="quickjs_8c.html#a1ca9cdb1fa2ffc3e6506e92b200e490f" target="_top" xlink:title="JS_IsFunction">
<polygon fill="none" stroke="#000000" points="328.5,-1064.5 328.5,-1083.5 408.5,-1083.5 408.5,-1064.5 328.5,-1064.5"/>
<text text-anchor="middle" x="368.5" y="-1071.5" font-family="Helvetica,sans-Serif" font-size="10.00" fill="#000000">JS_IsFunction</text>
</a>
</g>
</g>
<!-- Node389240&#45;&gt;Node389241 -->
<g id="edge2" class="edge">
<title>Node389240&#45;&gt;Node389241</title>
<path fill="none" stroke="#191970" d="M226.639,-1074C253.762,-1074 289.3129,-1074 318.0401,-1074"/>
<polygon fill="#191970" stroke="#191970" points="318.2869,-1077.5001 328.2869,-1074 318.2868,-1070.5001 318.2869,-1077.5001"/>
</g>
<!-- Node389243 -->
<g id="node5" class="node">
<title>Node389243</title>
<g id="a_node5"><a xlink:href="quickjs_8c.html#a93dbf502b17d1328c524401335f60499" target="_top" xlink:title="js_create_from_ctor">
<polygon fill="none" stroke="#ff0000" points="317,-532.5 317,-551.5 420,-551.5 420,-532.5 317,-532.5"/>
<text text-anchor="middle" x="368.5" y="-539.5" font-family="Helvetica,sans-Serif" font-size="10.00" fill="#000000">js_create_from_ctor</text>
</a>
</g>
</g>
<!-- Node389242&#45;&gt;Node389243 -->
<g id="edge4" class="edge">
<title>Node389242&#45;&gt;Node389243</title>
<path fill="none" stroke="#191970" d="M237.5837,-555.5554C259.1662,-553.3207 284.3083,-550.7174 306.7571,-548.393"/>
<polygon fill="#191970" stroke="#191970" points="307.2731,-551.8584 316.8594,-547.347 306.5521,-544.8956 307.2731,-551.8584"/>
</g>
<!-- Node389242&#45;&gt;Node389244 -->
<g id="edge10" class="edge">
<title>Node389242&#45;&gt;Node389244</title>
<path fill="none" stroke="#191970" d="M185.3462,-570.6691C187.3939,-612.6894 201.311,-781.0861 294,-865 343.3796,-909.7047 422.5005,-920.5726 473.3491,-922.5796"/>
<polygon fill="#191970" stroke="#191970" points="473.3383,-926.0807 483.437,-922.8764 473.5443,-919.0837 473.3383,-926.0807"/>
</g>
<!-- Node389242&#45;&gt;Node389245 -->
<g id="edge11" class="edge">
<title>Node389242&#45;&gt;Node389245</title>
<path fill="none" stroke="#191970" d="M237.6563,-563.9688C302.0124,-567.5971 410.0663,-573.6892 472.8061,-577.2265"/>
<polygon fill="#191970" stroke="#191970" points="472.6664,-580.724 482.8476,-577.7926 473.0605,-573.7351 472.6664,-580.724"/>
</g>
<!-- Node389242&#45;&gt;Node389293 -->
<g id="edge12" class="edge">
<title>Node389242&#45;&gt;Node389293</title>
<path fill="none" stroke="#191970" d="M187.1834,-570.6826C195.0207,-602.9295 225.0127,-707.1167 294,-751 346.2526,-784.2383 419.4266,-784.038 468.6577,-778.8006"/>
<polygon fill="#191970" stroke="#191970" points="469.2576,-782.2544 478.7835,-777.6167 468.4447,-775.3017 469.2576,-782.2544"/>
</g>
<!-- Node389454 -->
<g id="node11" class="node">
<title>Node389454</title>
<g id="a_node11"><a xlink:href="quickjs_8h.html#ab995df176086f2a2a06ab777d4c4ef28" target="_top" xlink:title="JS_IsNumber">
<polygon fill="none" stroke="#000000" points="330,-608.5 330,-627.5 407,-627.5 407,-608.5 330,-608.5"/>
<text text-anchor="middle" x="368.5" y="-615.5" font-family="Helvetica,sans-Serif" font-size="10.00" fill="#000000">JS_IsNumber</text>
</a>
</g>
</g>
<!-- Node389242&#45;&gt;Node389454 -->
<g id="edge13" class="edge">
<title>Node389242&#45;&gt;Node389454</title>
<path fill="none" stroke="#191970" d="M215.7138,-570.5405C246.5435,-580.1171 294.2004,-594.9205 328.0839,-605.4457"/>
<polygon fill="#191970" stroke="#191970" points="327.0979,-608.8043 337.686,-608.4284 329.1744,-602.1194 327.0979,-608.8043"/>
</g>
<!-- Node389242&#45;&gt;Node389370 -->
<g id="edge14" class="edge">
<title>Node389242&#45;&gt;Node389370</title>
<path fill="none" stroke="#191970" d="M195.929,-551.3058C214.6716,-535.1818 254.7324,-502.8631 294,-485 302.2074,-481.2664 407.8165,-455.5052 472.3831,-439.9212"/>
<polygon fill="#191970" stroke="#191970" points="473.4712,-443.2592 482.372,-437.5124 471.8302,-436.4543 473.4712,-443.2592"/>
</g>
<!-- Node389242&#45;&gt;Node389530 -->
<g id="edge16" class="edge">
<title>Node389242&#45;&gt;Node389530</title>
<path fill="none" stroke="#191970" d="M189.0058,-551.3815C200.7705,-524.3654 237.9554,-447.2761 294,-409 300.5103,-404.5538 307.982,-401.1478 315.6251,-398.5388"/>
<polygon fill="#191970" stroke="#191970" points="316.7559,-401.8539 325.3385,-395.6419 314.7553,-395.1459 316.7559,-401.8539"/>
</g>
<!-- Node389672 -->
<g id="node15" class="node">
<title>Node389672</title>
<g id="a_node15"><a xlink:href="quickjs_8c.html#aae909eaec829081b270012adfcd717a4" target="_top" xlink:title="JS_SetPropertyUint32">
<polygon fill="none" stroke="#ff0000" points="311.5,-418.5 311.5,-437.5 425.5,-437.5 425.5,-418.5 311.5,-418.5"/>
<text text-anchor="middle" x="368.5" y="-425.5" font-family="Helvetica,sans-Serif" font-size="10.00" fill="#000000">JS_SetPropertyUint32</text>
</a>
</g>
</g>
<!-- Node389242&#45;&gt;Node389672 -->
<g id="edge17" class="edge">
<title>Node389242&#45;&gt;Node389672</title>
<path fill="none" stroke="#191970" d="M192.0462,-551.3251C207.8988,-530.2308 248.5565,-479.7694 294,-452 301.2506,-447.5694 309.404,-443.8713 317.5867,-440.8122"/>
<polygon fill="#191970" stroke="#191970" points="318.8434,-444.0811 327.1535,-437.509 316.5588,-437.4644 318.8434,-444.0811"/>
</g>
<!-- Node389477 -->
<g id="node16" class="node">
<title>Node389477</title>
<g id="a_node16"><a xlink:href="quickjs_8c.html#a2ffb9d0277fd9e41a6604834f9c12b6f" target="_top" xlink:title="JS_ToArrayLengthFree">
<polygon fill="none" stroke="#ff0000" points="310,-798.5 310,-817.5 427,-817.5 427,-798.5 310,-798.5"/>
<text text-anchor="middle" x="368.5" y="-805.5" font-family="Helvetica,sans-Serif" font-size="10.00" fill="#000000">JS_ToArrayLengthFree</text>
</a>
</g>
</g>
<!-- Node389242&#45;&gt;Node389477 -->
<g id="edge19" class="edge">
<title>Node389242&#45;&gt;Node389477</title>
<path fill="none" stroke="#191970" d="M186.8975,-570.6865C194.1469,-605.1138 223.3233,-722.77 294,-784 298.7854,-788.1458 304.2967,-791.5774 310.1113,-794.4176"/>
<polygon fill="#191970" stroke="#191970" points="308.8668,-797.6921 319.4372,-798.4116 311.6226,-791.2574 308.8668,-797.6921"/>
</g>
<!-- Node389243&#45;&gt;Node389244 -->
<g id="edge5" class="edge">
<title>Node389243&#45;&gt;Node389244</title>
<path fill="none" stroke="#191970" d="M387.9527,-551.5825C405.236,-561.1496 429.7528,-577.5129 443,-599 488.1047,-672.1603 457.7383,-705.7245 479,-789 489.5057,-830.1474 505.742,-877.1896 514.9649,-902.839"/>
<polygon fill="#191970" stroke="#191970" points="511.7487,-904.2368 518.4509,-912.4423 518.3286,-901.8482 511.7487,-904.2368"/>
</g>
<!-- Node389243&#45;&gt;Node389245 -->
<g id="edge6" class="edge">
<title>Node389243&#45;&gt;Node389245</title>
<path fill="none" stroke="#191970" d="M407.2345,-551.589C427.3993,-556.5809 452.2479,-562.7324 473.6611,-568.0334"/>
<polygon fill="#191970" stroke="#191970" points="472.9959,-571.4743 483.544,-570.4799 474.6781,-564.6794 472.9959,-571.4743"/>
</g>
<!-- Node389243&#45;&gt;Node389284 -->
<g id="edge7" class="edge">
<title>Node389243&#45;&gt;Node389284</title>
<path fill="none" stroke="#191970" d="M420.0403,-542C435.687,-542 452.9063,-542 468.6682,-542"/>
<polygon fill="#191970" stroke="#191970" points="468.7845,-545.5001 478.7845,-542 468.7844,-538.5001 468.7845,-545.5001"/>
</g>
<!-- Node389243&#45;&gt;Node389293 -->
<g id="edge8" class="edge">
<title>Node389243&#45;&gt;Node389293</title>
<path fill="none" stroke="#191970" d="M385.5109,-551.6435C401.9952,-561.6952 426.8141,-578.7883 443,-599 481.3844,-646.9314 505.9622,-716.5477 516.3364,-750.2501"/>
<polygon fill="#191970" stroke="#191970" points="513.0976,-751.6369 519.3095,-760.2196 519.8056,-749.6364 513.0976,-751.6369"/>
</g>
<!-- Node389243&#45;&gt;Node389448 -->
<g id="edge9" class="edge">
<title>Node389243&#45;&gt;Node389448</title>
<path fill="none" stroke="#191970" d="M407.2345,-532.411C427.3993,-527.4191 452.2479,-521.2676 473.6611,-515.9666"/>
<polygon fill="#191970" stroke="#191970" points="474.6781,-519.3206 483.544,-513.5201 472.9959,-512.5257 474.6781,-519.3206"/>
</g>
<!-- Node389370&#45;&gt;Node389294 -->
<g id="edge15" class="edge">
<title>Node389370&#45;&gt;Node389294</title>
<path fill="none" stroke="#191970" d="M563.5793,-428C572.2657,-428 581.4967,-428 590.4115,-428"/>
<polygon fill="#191970" stroke="#191970" points="590.6797,-431.5001 600.6797,-428 590.6797,-424.5001 590.6797,-431.5001"/>
</g>
<!-- Node389672&#45;&gt;Node389370 -->
<g id="edge18" class="edge">
<title>Node389672&#45;&gt;Node389370</title>
<path fill="none" stroke="#191970" d="M425.6577,-428C440.1989,-428 455.7457,-428 470.0136,-428"/>
<polygon fill="#191970" stroke="#191970" points="470.1442,-431.5001 480.1442,-428 470.1442,-424.5001 470.1442,-431.5001"/>
</g>
<!-- Node389477&#45;&gt;Node389293 -->
<g id="edge20" class="edge">
<title>Node389477&#45;&gt;Node389293</title>
<path fill="none" stroke="#191970" d="M407.2345,-798.411C427.3993,-793.4191 452.2479,-787.2676 473.6611,-781.9666"/>
<polygon fill="#191970" stroke="#191970" points="474.6781,-785.3206 483.544,-779.5201 472.9959,-778.5257 474.6781,-785.3206"/>
</g>
<!-- Node389507 -->
<g id="node20" class="node">
<title>Node389507</title>
<g id="a_node20"><a xlink:href="quickjs_8c.html#a0c61bd5a64c743e81188bb528b78e715" target="_top" xlink:title="JS_DefinePropertyValueValue">
<polygon fill="none" stroke="#ff0000" points="294,-228.5 294,-247.5 443,-247.5 443,-228.5 294,-228.5"/>
<text text-anchor="middle" x="368.5" y="-235.5" font-family="Helvetica,sans-Serif" font-size="10.00" fill="#000000">JS_DefinePropertyValueValue</text>
</a>
</g>
</g>
<!-- Node389673&#45;&gt;Node389507 -->
<g id="edge24" class="edge">
<title>Node389673&#45;&gt;Node389507</title>
<path fill="none" stroke="#191970" d="M258.0513,-238C266.528,-238 275.227,-238 283.8421,-238"/>
<polygon fill="#191970" stroke="#191970" points="283.8987,-241.5001 293.8987,-238 283.8986,-234.5001 283.8987,-241.5001"/>
</g>
<!-- Node389673&#45;&gt;Node389508 -->
<g id="edge27" class="edge">
<title>Node389673&#45;&gt;Node389508</title>
<path fill="none" stroke="#191970" d="M200.7054,-228.2926C221.4154,-215.8465 259.3005,-194.29 294,-181 302.4227,-177.7741 311.5893,-174.9274 320.5204,-172.4845"/>
<polygon fill="#191970" stroke="#191970" points="321.6559,-175.8057 330.4516,-169.8993 319.8924,-169.0315 321.6559,-175.8057"/>
</g>
<!-- Node389507&#45;&gt;Node389245 -->
<g id="edge26" class="edge">
<title>Node389507&#45;&gt;Node389245</title>
<path fill="none" stroke="#191970" d="M375.4807,-247.8041C390.3155,-269.1246 425.084,-321.7551 443,-371 472.3845,-451.7677 425.5613,-493.686 479,-561 479.9515,-562.1985 480.9943,-563.3234 482.1098,-564.379"/>
<polygon fill="#191970" stroke="#191970" points="480.1938,-567.3137 490.3333,-570.3864 484.323,-561.6613 480.1938,-567.3137"/>
</g>
<!-- Node389267 -->
<g id="node21" class="node">
<title>Node389267</title>
<g id="a_node21"><a xlink:href="quickjs_8c.html#ab7fc45a99935a1c0ba50b0216d9401a9" target="_top" xlink:title="JS_FreeAtom">
<polygon fill="none" stroke="#ff0000" points="483.5,-228.5 483.5,-247.5 560.5,-247.5 560.5,-228.5 483.5,-228.5"/>
<text text-anchor="middle" x="522" y="-235.5" font-family="Helvetica,sans-Serif" font-size="10.00" fill="#000000">JS_FreeAtom</text>
</a>
</g>
</g>
<!-- Node389507&#45;&gt;Node389267 -->
<g id="edge25" class="edge">
<title>Node389507&#45;&gt;Node389267</title>
<path fill="none" stroke="#191970" d="M443.0018,-238C453.2112,-238 463.4738,-238 473.0659,-238"/>
<polygon fill="#191970" stroke="#191970" points="473.1772,-241.5001 483.1771,-238 473.1771,-234.5001 473.1772,-241.5001"/>
</g>
<!-- Node389508&#45;&gt;Node389294 -->
<g id="edge28" class="edge">
<title>Node389508&#45;&gt;Node389294</title>
<path fill="none" stroke="#191970" d="M406.8833,-155.1229C450.3476,-149.6542 520.8438,-148.1196 565,-185 600.1598,-214.3664 626.9889,-356.11 635.8523,-408.4913"/>
<polygon fill="#191970" stroke="#191970" points="632.4228,-409.2048 637.5094,-418.4987 639.3287,-408.0612 632.4228,-409.2048"/>
</g>
<!-- Node389628&#45;&gt;Node389245 -->
<g id="edge31" class="edge">
<title>Node389628&#45;&gt;Node389245</title>
<path fill="none" stroke="#191970" d="M408.1649,-724.797C420.2314,-721.2081 432.9465,-715.8793 443,-708 480.1796,-678.8612 504.2605,-626.9926 515.1906,-599.0648"/>
<polygon fill="#191970" stroke="#191970" points="518.4943,-600.2228 518.7356,-589.6307 511.9417,-597.7604 518.4943,-600.2228"/>
</g>
<!-- Node389628&#45;&gt;Node389284 -->
<g id="edge32" class="edge">
<title>Node389628&#45;&gt;Node389284</title>
<path fill="none" stroke="#191970" d="M386.7191,-722.4105C403.6218,-712.6271 428.3153,-695.9307 443,-675 473.516,-631.5042 443.5552,-600.5825 479,-561 480.1604,-559.7042 481.4256,-558.4924 482.7701,-557.3597"/>
<polygon fill="#191970" stroke="#191970" points="484.8262,-560.1947 491.1605,-551.7019 480.9125,-554.3909 484.8262,-560.1947"/>
</g>
<!-- Node389628&#45;&gt;Node389293 -->
<g id="edge33" class="edge">
<title>Node389628&#45;&gt;Node389293</title>
<path fill="none" stroke="#191970" d="M407.2345,-741.589C427.3993,-746.5809 452.2479,-752.7324 473.6611,-758.0334"/>
<polygon fill="#191970" stroke="#191970" points="472.9959,-761.4743 483.544,-760.4799 474.6781,-754.6794 472.9959,-761.4743"/>
</g>
<!-- Node389517&#45;&gt;Node389284 -->
<g id="edge36" class="edge">
<title>Node389517&#45;&gt;Node389284</title>
<path fill="none" stroke="#191970" d="M411.3813,-843.7982C423.1702,-841.0916 434.9196,-836.0692 443,-827 522.3621,-737.9261 407.3126,-656.3594 479,-561 479.8,-559.9358 480.6727,-558.9301 481.6054,-557.9797"/>
<polygon fill="#191970" stroke="#191970" points="483.939,-560.6003 489.7263,-551.7257 479.6679,-555.0543 483.939,-560.6003"/>
</g>
<!-- Node389517&#45;&gt;Node389293 -->
<g id="edge37" class="edge">
<title>Node389517&#45;&gt;Node389293</title>
<path fill="none" stroke="#191970" d="M411.224,-838.0245C421.878,-835.2514 433.0849,-831.636 443,-827 465.7511,-816.3623 488.6902,-798.886 503.9435,-786.0845"/>
<polygon fill="#191970" stroke="#191970" points="506.2725,-788.6979 511.5769,-779.5266 501.7109,-783.3883 506.2725,-788.6979"/>
</g>
<!-- Node389674&#45;&gt;Node389284 -->
<g id="edge41" class="edge">
<title>Node389674&#45;&gt;Node389284</title>
<path fill="none" stroke="#191970" d="M422.6115,-205.4725C430.3645,-208.4514 437.5463,-212.7754 443,-219 532.6594,-321.3338 398.1526,-413.571 479,-523 479.7911,-524.0708 480.656,-525.0823 481.5821,-526.0377"/>
<polygon fill="#191970" stroke="#191970" points="479.6243,-528.9487 489.6696,-532.3166 483.917,-523.4194 479.6243,-528.9487"/>
</g>
<!-- Node389674&#45;&gt;Node389294 -->
<g id="edge42" class="edge">
<title>Node389674&#45;&gt;Node389294</title>
<path fill="none" stroke="#191970" d="M422.5714,-190.6123C465.6037,-186.2923 525.0351,-187.7616 565,-219 595.8836,-243.14 624.4653,-361.1592 634.8595,-408.3984"/>
<polygon fill="#191970" stroke="#191970" points="631.468,-409.2746 637.0005,-418.3102 638.3102,-407.7966 631.468,-409.2746"/>
</g>
<!-- Node389674&#45;&gt;Node389267 -->
<g id="edge40" class="edge">
<title>Node389674&#45;&gt;Node389267</title>
<path fill="none" stroke="#191970" d="M407.2345,-209.589C427.3993,-214.5809 452.2479,-220.7324 473.6611,-226.0334"/>
<polygon fill="#191970" stroke="#191970" points="472.9959,-229.4743 483.544,-228.4799 474.6781,-222.6794 472.9959,-229.4743"/>
</g>
<!-- Node389527&#45;&gt;Node389245 -->
<g id="edge47" class="edge">
<title>Node389527&#45;&gt;Node389245</title>
<path fill="none" stroke="#191970" d="M413.836,-511.2426C423.8665,-514.0018 434.1376,-517.7947 443,-523 463.0602,-534.7823 459.988,-547.5918 479,-561 481.3761,-562.6757 483.9236,-564.253 486.5488,-565.7268"/>
<polygon fill="#191970" stroke="#191970" points="485.135,-568.9341 495.6373,-570.3316 488.2987,-562.6898 485.135,-568.9341"/>
</g>
<!-- Node389527&#45;&gt;Node389284 -->
<g id="edge48" class="edge">
<title>Node389527&#45;&gt;Node389284</title>
<path fill="none" stroke="#191970" d="M407.2345,-513.589C427.3993,-518.5809 452.2479,-524.7324 473.6611,-530.0334"/>
<polygon fill="#191970" stroke="#191970" points="472.9959,-533.4743 483.544,-532.4799 474.6781,-526.6794 472.9959,-533.4743"/>
</g>
<!-- Node389527&#45;&gt;Node389293 -->
<g id="edge49" class="edge">
<title>Node389527&#45;&gt;Node389293</title>
<path fill="none" stroke="#191970" d="M413.5351,-507.8965C424.2686,-510.7362 434.9352,-515.4039 443,-523 460.2086,-539.2083 502.3557,-695.0784 516.9374,-750.5347"/>
<polygon fill="#191970" stroke="#191970" points="513.6243,-751.6996 519.5415,-760.4881 520.3964,-749.9278 513.6243,-751.6996"/>
</g>
<!-- Node389527&#45;&gt;Node389448 -->
<g id="edge50" class="edge">
<title>Node389527&#45;&gt;Node389448</title>
<path fill="none" stroke="#191970" d="M413.7248,-504C431.0301,-504 450.9235,-504 468.8988,-504"/>
<polygon fill="#191970" stroke="#191970" points="468.9418,-507.5001 478.9418,-504 468.9418,-500.5001 468.9418,-507.5001"/>
</g>
<!-- Node389528&#45;&gt;Node389245 -->
<g id="edge52" class="edge">
<title>Node389528&#45;&gt;Node389245</title>
<path fill="none" stroke="#191970" d="M411.6141,-647.9227C422.1511,-645.1631 433.2058,-641.5794 443,-637 465.7511,-626.3623 488.6902,-608.886 503.9435,-596.0845"/>
<polygon fill="#191970" stroke="#191970" points="506.2725,-598.6979 511.5769,-589.5266 501.7109,-593.3883 506.2725,-598.6979"/>
</g>
<!-- Node389528&#45;&gt;Node389284 -->
<g id="edge53" class="edge">
<title>Node389528&#45;&gt;Node389284</title>
<path fill="none" stroke="#191970" d="M411.7045,-651.6478C422.8249,-648.8379 434.1398,-644.2987 443,-637 471.848,-613.2359 452.2261,-587.0786 479,-561 480.447,-559.5906 482.0162,-558.2761 483.6703,-557.0513"/>
<polygon fill="#191970" stroke="#191970" points="485.7815,-559.8624 492.4772,-551.6515 482.1225,-553.8948 485.7815,-559.8624"/>
</g>
<!-- Node389528&#45;&gt;Node389293 -->
<g id="edge54" class="edge">
<title>Node389528&#45;&gt;Node389293</title>
<path fill="none" stroke="#191970" d="M381.3233,-665.5235C407.6684,-685.0892 468.1256,-729.9891 500.5404,-754.0626"/>
<polygon fill="#191970" stroke="#191970" points="498.7728,-757.1095 508.8878,-760.262 502.9464,-751.4898 498.7728,-757.1095"/>
</g>
<!-- Node389512&#45;&gt;Node389244 -->
<g id="edge61" class="edge">
<title>Node389512&#45;&gt;Node389244</title>
<path fill="none" stroke="#191970" d="M405.6581,-950.8013C426.1251,-945.7345 451.765,-939.3872 473.7622,-933.9416"/>
<polygon fill="#191970" stroke="#191970" points="474.7152,-937.3114 483.5811,-931.5109 473.033,-930.5165 474.7152,-937.3114"/>
</g>
<!-- Node389512&#45;&gt;Node389293 -->
<g id="edge62" class="edge">
<title>Node389512&#45;&gt;Node389293</title>
<path fill="none" stroke="#191970" d="M382.5733,-950.4245C398.4885,-939.1402 424.5797,-919.222 443,-898 473.3743,-863.0057 499.5966,-815.026 512.8294,-788.8754"/>
<polygon fill="#191970" stroke="#191970" points="516.0748,-790.2096 517.3918,-779.6969 509.8065,-787.0937 516.0748,-790.2096"/>
</g>
<!-- Node389512&#45;&gt;Node389294 -->
<g id="edge63" class="edge">
<title>Node389512&#45;&gt;Node389294</title>
<path fill="none" stroke="#191970" d="M405.8564,-968.626C450.0255,-976.4035 522.8461,-981.223 565,-941 601.5226,-906.1503 630.8758,-538.2193 637.5654,-447.924"/>
<polygon fill="#191970" stroke="#191970" points="641.059,-448.1384 638.2982,-437.9096 634.0777,-447.6275 641.059,-448.1384"/>
</g>
</g>
</svg>
        <g id="navigator" transform="translate(0 0)" fill="#404254">
                <rect fill="#f2f5e9" fill-opacity="0.5" stroke="#606060" stroke-width=".5" x="0" y="0" width="60" height="60"/>
                <use id="zoomplus" xlink:href="#zoomPlus" x="17" y="9" onmousedown="handleZoom(evt,'in')"/>
                <use id="zoomminus" xlink:href="#zoomMin" x="42" y="9" onmousedown="handleZoom(evt,'out')"/>
                <use id="reset" xlink:href="#resetDef" x="30" y="36" onmousedown="handleReset()"/>
                <g id="arrowUp" xlink:href="#dirArrow" transform="translate(30 24)" onmousedown="handlePan(0,-1)">
                  <use xlink:href="#rim" fill="#404040">
                        <set attributeName="fill" to="#808080" begin="arrowUp.mouseover" end="arrowUp.mouseout"/>
                  </use>
                  <path fill="none" stroke="white" stroke-width="1.5" d="M0,-3.0v7 M-2.5,-0.5L0,-3.0L2.5,-0.5"/>
                </g>
                <g id="arrowRight" xlink:href="#dirArrow" transform="rotate(90) translate(36 -43)" onmousedown="handlePan(1,0)">
                  <use xlink:href="#rim" fill="#404040">
                        <set attributeName="fill" to="#808080" begin="arrowRight.mouseover" end="arrowRight.mouseout"/>
                  </use>
                  <path fill="none" stroke="white" stroke-width="1.5" d="M0,-3.0v7 M-2.5,-0.5L0,-3.0L2.5,-0.5"/>
                </g>
                <g id="arrowDown" xlink:href="#dirArrow" transform="rotate(180) translate(-30 -48)" onmousedown="handlePan(0,1)">
                  <use xlink:href="#rim" fill="#404040">
                        <set attributeName="fill" to="#808080" begin="arrowDown.mouseover" end="arrowDown.mouseout"/>
                  </use>
                  <path fill="none" stroke="white" stroke-width="1.5" d="M0,-3.0v7 M-2.5,-0.5L0,-3.0L2.5,-0.5"/>
                </g>
                <g id="arrowLeft" xlink:href="#dirArrow" transform="rotate(270) translate(-36 17)" onmousedown="handlePan(-1,0)">
                  <use xlink:href="#rim" fill="#404040">
                        <set attributeName="fill" to="#808080" begin="arrowLeft.mouseover" end="arrowLeft.mouseout"/>
                  </use>
                  <path fill="none" stroke="white" stroke-width="1.5" d="M0,-3.0v7 M-2.5,-0.5L0,-3.0L2.5,-0.5"/>
                </g>
        </g>
        <svg viewBox="0 0 15 15" width="100%" height="30px" preserveAspectRatio="xMaxYMin meet">
         <g id="arrow_out" transform="scale(0.3 0.3)">
          <a xlink:href="quickjs_8c_a5e32da9a43002cb96dcbd62a1a340144_cgraph_org.svg" target="_base">
           <rect id="button" ry="5" rx="5" y="6" x="6" height="38" width="38"
                fill="#f2f5e9" fill-opacity="0.5" stroke="#606060" stroke-width="1.0"/>
           <path id="arrow"
             d="M 11.500037,31.436501 C 11.940474,20.09759 22.043105,11.32322 32.158766,21.979434 L 37.068811,17.246167 C 37.068811,17.246167 37.088388,32 37.088388,32 L 22.160133,31.978069 C 22.160133,31.978069 26.997745,27.140456 26.997745,27.140456 C 18.528582,18.264221 13.291696,25.230495 11.500037,31.436501 z"
             style="fill:#404040;"/>
          </a>
         </g>
        </svg>
</svg>
