<?xml version="1.0" encoding="UTF-8" standalone="no"?>
<!DOCTYPE svg PUBLIC "-//W3C//DTD SVG 1.1//EN"
 "http://www.w3.org/Graphics/SVG/1.1/DTD/svg11.dtd">
<!-- Generated by graphviz version 2.40.1 (20161225.0304)
 -->
<!-- Title: js_evaluate_module Pages: 1 -->
<svg width="554pt" height="85pt"
 viewBox="0.00 0.00 554.00 85.00" xmlns="http://www.w3.org/2000/svg" xmlns:xlink="http://www.w3.org/1999/xlink">
<g id="graph0" class="graph" transform="scale(1 1) rotate(0) translate(4 81)">
<title>js_evaluate_module</title>
<!-- Node344731 -->
<g id="node1" class="node">
<title>Node344731</title>
<polygon fill="#bfbfbf" stroke="#000000" points="0,-19.5 0,-38.5 103,-38.5 103,-19.5 0,-19.5"/>
<text text-anchor="middle" x="51.5" y="-26.5" font-family="Helvetica,sans-Serif" font-size="10.00" fill="#000000">js_evaluate_module</text>
</g>
<!-- Node344731&#45;&gt;Node344731 -->
<g id="edge6" class="edge">
<title>Node344731&#45;&gt;Node344731</title>
<path fill="none" stroke="#191970" d="M23.8742,-47.6539C25.0289,-52.9368 34.2375,-57 51.5,-57 77.8047,-57 85.4084,-47.5653 74.3111,-38.7571"/>
<polygon fill="#191970" stroke="#191970" points="27.0076,-49.2176 28.6889,-38.7571 20.8512,-45.886 27.0076,-49.2176"/>
</g>
<!-- Node344732 -->
<g id="node2" class="node">
<title>Node344732</title>
<g id="a_node2"><a xlink:href="quickjs_8c.html#a5d217acce00892ab2b50a1dcc1eb4cc8" target="_top" xlink:title="JS_EvalFunctionInternal">
<polygon fill="none" stroke="#000000" points="139,-19.5 139,-38.5 262,-38.5 262,-19.5 139,-19.5"/>
<text text-anchor="middle" x="200.5" y="-26.5" font-family="Helvetica,sans-Serif" font-size="10.00" fill="#000000">JS_EvalFunctionInternal</text>
</a>
</g>
</g>
<!-- Node344731&#45;&gt;Node344732 -->
<g id="edge1" class="edge">
<title>Node344731&#45;&gt;Node344732</title>
<path fill="none" stroke="#191970" d="M113.352,-29C121.7946,-29 130.4605,-29 138.8987,-29"/>
<polygon fill="#191970" stroke="#191970" points="113.1948,-25.5001 103.1948,-29 113.1948,-32.5001 113.1948,-25.5001"/>
</g>
<!-- Node344733 -->
<g id="node3" class="node">
<title>Node344733</title>
<g id="a_node3"><a xlink:href="quickjs_8c.html#af38ab3d672d41db0fa7a75b5c24149e4" target="_top" xlink:title="JS_EvalFunction">
<polygon fill="none" stroke="#000000" points="300.5,-38.5 300.5,-57.5 391.5,-57.5 391.5,-38.5 300.5,-38.5"/>
<text text-anchor="middle" x="346" y="-45.5" font-family="Helvetica,sans-Serif" font-size="10.00" fill="#000000">JS_EvalFunction</text>
</a>
</g>
</g>
<!-- Node344732&#45;&gt;Node344733 -->
<g id="edge2" class="edge">
<title>Node344732&#45;&gt;Node344733</title>
<path fill="none" stroke="#191970" d="M272.3947,-38.3883C281.8196,-39.6191 291.2636,-40.8523 300.094,-42.0054"/>
<polygon fill="#191970" stroke="#191970" points="272.5741,-34.8821 262.2051,-37.0577 271.6677,-41.8232 272.5741,-34.8821"/>
</g>
<!-- Node344911 -->
<g id="node6" class="node">
<title>Node344911</title>
<g id="a_node6"><a xlink:href="quickjs_8c.html#a46a8a7e155cfd0af984f6725f060f0d6" target="_top" xlink:title="__JS_EvalInternal">
<polygon fill="none" stroke="#ff0000" points="298,-.5 298,-19.5 394,-19.5 394,-.5 298,-.5"/>
<text text-anchor="middle" x="346" y="-7.5" font-family="Helvetica,sans-Serif" font-size="10.00" fill="#000000">__JS_EvalInternal</text>
</a>
</g>
</g>
<!-- Node344732&#45;&gt;Node344911 -->
<g id="edge5" class="edge">
<title>Node344732&#45;&gt;Node344911</title>
<path fill="none" stroke="#191970" d="M272.336,-19.6194C280.9978,-18.4883 289.6769,-17.3549 297.8821,-16.2834"/>
<polygon fill="#191970" stroke="#191970" points="271.6677,-16.1768 262.2051,-20.9423 272.5741,-23.1179 271.6677,-16.1768"/>
</g>
<!-- Node344734 -->
<g id="node4" class="node">
<title>Node344734</title>
<g id="a_node4"><a xlink:href="quickjs-libc_8c.html#ab1b439d304c2125490b47ef262b5df67" target="_top" xlink:title="js_std_eval_binary">
<polygon fill="none" stroke="#000000" points="439,-57.5 439,-76.5 537,-76.5 537,-57.5 439,-57.5"/>
<text text-anchor="middle" x="488" y="-64.5" font-family="Helvetica,sans-Serif" font-size="10.00" fill="#000000">js_std_eval_binary</text>
</a>
</g>
</g>
<!-- Node344733&#45;&gt;Node344734 -->
<g id="edge3" class="edge">
<title>Node344733&#45;&gt;Node344734</title>
<path fill="none" stroke="#191970" d="M401.8249,-55.4695C414.0828,-57.1097 426.9737,-58.8345 438.9421,-60.4359"/>
<polygon fill="#191970" stroke="#191970" points="402.0872,-51.9735 391.7113,-54.1163 401.1588,-58.9117 402.0872,-51.9735"/>
</g>
<!-- Node344735 -->
<g id="node5" class="node">
<title>Node344735</title>
<g id="a_node5"><a xlink:href="quickjs_8c.html#a6357b7fdae71c70c140e78e6c20cb5c2" target="_top" xlink:title="js_dynamic_import_job">
<polygon fill="none" stroke="#ff0000" points="430,-19.5 430,-38.5 546,-38.5 546,-19.5 430,-19.5"/>
<text text-anchor="middle" x="488" y="-26.5" font-family="Helvetica,sans-Serif" font-size="10.00" fill="#000000">js_dynamic_import_job</text>
</a>
</g>
</g>
<!-- Node344733&#45;&gt;Node344735 -->
<g id="edge4" class="edge">
<title>Node344733&#45;&gt;Node344735</title>
<path fill="none" stroke="#191970" d="M401.908,-40.5194C411.1035,-39.289 420.6532,-38.0112 429.9007,-36.7739"/>
<polygon fill="#191970" stroke="#191970" points="401.1588,-37.0883 391.7113,-41.8837 402.0872,-44.0265 401.1588,-37.0883"/>
</g>
</g>
</svg>
