<?xml version="1.0" encoding="UTF-8" standalone="no"?>
<!DOCTYPE svg PUBLIC "-//W3C//DTD SVG 1.1//EN"
 "http://www.w3.org/Graphics/SVG/1.1/DTD/svg11.dtd">
<!-- Generated by graphviz version 2.40.1 (20161225.0304)
 -->
<!-- Title: JS_DupContext Pages: 1 -->
<!--zoomable 179 -->
<svg id="main" version="1.1" xmlns="http://www.w3.org/2000/svg" xmlns:xlink="http://www.w3.org/1999/xlink" xml:space="preserve" onload="init(evt)">
<style type="text/css"><![CDATA[
.edge:hover path { stroke: red; }
.edge:hover polygon { stroke: red; fill: red; }
]]></style>
<script type="text/javascript"><![CDATA[
var edges = document.getElementsByTagName('g');
if (edges && edges.length) {
  for (var i=0;i<edges.length;i++) {
    if (edges[i].id.substr(0,4)=='edge') {
      edges[i].setAttribute('class','edge');
    }
  }
}
]]></script>
        <defs>
                <circle id="rim" cx="0" cy="0" r="7"/>
                <circle id="rim2" cx="0" cy="0" r="3.5"/>
                <g id="zoomPlus">
                        <use xlink:href="#rim" fill="#404040">
                                <set attributeName="fill" to="#808080" begin="zoomplus.mouseover" end="zoomplus.mouseout"/>
                        </use>
                        <path d="M-4,0h8M0,-4v8" fill="none" stroke="white" stroke-width="1.5" pointer-events="none"/>
                </g>
                <g id="zoomMin">
                        <use xlink:href="#rim" fill="#404040">
                                <set attributeName="fill" to="#808080" begin="zoomminus.mouseover" end="zoomminus.mouseout"/>
                        </use>
                        <path d="M-4,0h8" fill="none" stroke="white" stroke-width="1.5" pointer-events="none"/>
                </g>
                <g id="dirArrow">
                        <path fill="none" stroke="white" stroke-width="1.5" d="M0,-3.0v7 M-2.5,-0.5L0,-3.0L2.5,-0.5"/>
                </g>
               <g id="resetDef">
                       <use xlink:href="#rim2" fill="#404040">
                               <set attributeName="fill" to="#808080" begin="reset.mouseover" end="reset.mouseout"/>
                       </use>
               </g>
        </defs>

<script type="text/javascript">
var viewWidth = 579;
var viewHeight = 179;
var sectionId = 'dynsection-20';
</script>
<script xlink:href="svgpan.js"/>
<svg id="graph" class="graph">
<g id="viewport">
<title>JS_DupContext</title>
<!-- Node4587 -->
<g id="node1" class="node">
<title>Node4587</title>
<polygon fill="#bfbfbf" stroke="#000000" points="0,-57.5 0,-76.5 86,-76.5 86,-57.5 0,-57.5"/>
<text text-anchor="middle" x="43" y="-64.5" font-family="Helvetica,sans-Serif" font-size="10.00" fill="#000000">JS_DupContext</text>
</g>
<!-- Node4588 -->
<g id="node2" class="node">
<title>Node4588</title>
<g id="a_node2"><a xlink:href="quickjs_8c.html#a97fcc747d8b1c3644174745d2e2739be" target="_top" xlink:title="js_create_function">
<polygon fill="none" stroke="#000000" points="140.5,-133.5 140.5,-152.5 236.5,-152.5 236.5,-133.5 140.5,-133.5"/>
<text text-anchor="middle" x="188.5" y="-140.5" font-family="Helvetica,sans-Serif" font-size="10.00" fill="#000000">js_create_function</text>
</a>
</g>
</g>
<!-- Node4587&#45;&gt;Node4588 -->
<g id="edge1" class="edge">
<title>Node4587&#45;&gt;Node4588</title>
<path fill="none" stroke="#191970" d="M70.2936,-81.2565C99.5104,-96.5174 145.048,-120.3034 170.2219,-133.4527"/>
<polygon fill="#191970" stroke="#191970" points="71.9118,-78.153 61.4277,-76.6255 68.6709,-84.3576 71.9118,-78.153"/>
</g>
<!-- Node4597 -->
<g id="node5" class="node">
<title>Node4597</title>
<g id="a_node5"><a xlink:href="quickjs_8c.html#a7128998511654840928b9df9d4c55b3c" target="_top" xlink:title="JS_DefineAutoInitProperty">
<polygon fill="none" stroke="#000000" points="122,-76.5 122,-95.5 255,-95.5 255,-76.5 122,-76.5"/>
<text text-anchor="middle" x="188.5" y="-83.5" font-family="Helvetica,sans-Serif" font-size="10.00" fill="#000000">JS_DefineAutoInitProperty</text>
</a>
</g>
</g>
<!-- Node4587&#45;&gt;Node4597 -->
<g id="edge5" class="edge">
<title>Node4587&#45;&gt;Node4597</title>
<path fill="none" stroke="#191970" d="M96.2448,-73.9529C104.6077,-75.045 113.342,-76.1855 121.9592,-77.3108"/>
<polygon fill="#191970" stroke="#191970" points="96.6299,-70.4736 86.2609,-72.6492 95.7234,-77.4147 96.6299,-70.4736"/>
</g>
<!-- Node4849 -->
<g id="node10" class="node">
<title>Node4849</title>
<g id="a_node10"><a xlink:href="quickjs_8c.html#a21cfe4c4fc9372dc0b95b37667cff0c9" target="_top" xlink:title="JS_NewCFunction3">
<polygon fill="none" stroke="#ff0000" points="136.5,-38.5 136.5,-57.5 240.5,-57.5 240.5,-38.5 136.5,-38.5"/>
<text text-anchor="middle" x="188.5" y="-45.5" font-family="Helvetica,sans-Serif" font-size="10.00" fill="#000000">JS_NewCFunction3</text>
</a>
</g>
</g>
<!-- Node4587&#45;&gt;Node4849 -->
<g id="edge10" class="edge">
<title>Node4587&#45;&gt;Node4849</title>
<path fill="none" stroke="#191970" d="M96.4877,-60.0154C109.5212,-58.3134 123.4436,-56.4953 136.411,-54.802"/>
<polygon fill="#191970" stroke="#191970" points="95.7234,-56.5853 86.2609,-61.3508 96.6299,-63.5264 95.7234,-56.5853"/>
</g>
<!-- Node4645 -->
<g id="node11" class="node">
<title>Node4645</title>
<g id="a_node11"><a xlink:href="quickjs_8c.html#a367627778ac537f4bb1f0fd07a2dee1b" target="_top" xlink:title="JS_ReadFunctionTag">
<polygon fill="none" stroke="#ff0000" points="133,-.5 133,-19.5 244,-19.5 244,-.5 133,-.5"/>
<text text-anchor="middle" x="188.5" y="-7.5" font-family="Helvetica,sans-Serif" font-size="10.00" fill="#000000">JS_ReadFunctionTag</text>
</a>
</g>
</g>
<!-- Node4587&#45;&gt;Node4645 -->
<g id="edge11" class="edge">
<title>Node4587&#45;&gt;Node4645</title>
<path fill="none" stroke="#191970" d="M70.032,-52.5858C85.0619,-44.9332 104.262,-35.744 122,-29 131.2031,-25.501 141.3334,-22.2941 150.8526,-19.5512"/>
<polygon fill="#191970" stroke="#191970" points="68.09,-49.6497 60.8147,-57.3516 71.3051,-55.8677 68.09,-49.6497"/>
</g>
<!-- Node4588&#45;&gt;Node4588 -->
<g id="edge4" class="edge">
<title>Node4588&#45;&gt;Node4588</title>
<path fill="none" stroke="#191970" d="M161.6208,-161.6539C162.7444,-166.9368 171.7041,-171 188.5,-171 214.0938,-171 221.4919,-161.5653 210.6946,-152.7571"/>
<polygon fill="#191970" stroke="#191970" points="164.7433,-163.2361 166.3054,-152.7571 158.5494,-159.9747 164.7433,-163.2361"/>
</g>
<!-- Node4589 -->
<g id="node3" class="node">
<title>Node4589</title>
<g id="a_node3"><a xlink:href="quickjs_8c.html#a46a8a7e155cfd0af984f6725f060f0d6" target="_top" xlink:title="__JS_EvalInternal">
<polygon fill="none" stroke="#000000" points="312.5,-142.5 312.5,-161.5 408.5,-161.5 408.5,-142.5 312.5,-142.5"/>
<text text-anchor="middle" x="360.5" y="-149.5" font-family="Helvetica,sans-Serif" font-size="10.00" fill="#000000">__JS_EvalInternal</text>
</a>
</g>
</g>
<!-- Node4588&#45;&gt;Node4589 -->
<g id="edge2" class="edge">
<title>Node4588&#45;&gt;Node4589</title>
<path fill="none" stroke="#191970" d="M247.1,-146.0663C268.404,-147.181 292.213,-148.4268 312.4937,-149.488"/>
<polygon fill="#191970" stroke="#191970" points="247.0386,-142.5584 236.8693,-145.531 246.6727,-149.5488 247.0386,-142.5584"/>
</g>
<!-- Node4590 -->
<g id="node4" class="node">
<title>Node4590</title>
<g id="a_node4"><a xlink:href="quickjs_8c.html#acbcccb7ec58fd4a024ea1d01e5d04561" target="_top" xlink:title="JS_AddIntrinsicEval">
<polygon fill="none" stroke="#ff0000" points="466,-142.5 466,-161.5 571,-161.5 571,-142.5 466,-142.5"/>
<text text-anchor="middle" x="518.5" y="-149.5" font-family="Helvetica,sans-Serif" font-size="10.00" fill="#000000">JS_AddIntrinsicEval</text>
</a>
</g>
</g>
<!-- Node4589&#45;&gt;Node4590 -->
<g id="edge3" class="edge">
<title>Node4589&#45;&gt;Node4590</title>
<path fill="none" stroke="#191970" d="M419.159,-152C434.4717,-152 450.8785,-152 465.8574,-152"/>
<polygon fill="#191970" stroke="#191970" points="418.7638,-148.5001 408.7637,-152 418.7637,-155.5001 418.7638,-148.5001"/>
</g>
<!-- Node4598 -->
<g id="node6" class="node">
<title>Node4598</title>
<g id="a_node6"><a xlink:href="quickjs_8c.html#ad12b6863ca31850fc39d208bb865420e" target="_top" xlink:title="js_build_module_ns">
<polygon fill="none" stroke="#000000" points="309.5,-104.5 309.5,-123.5 411.5,-123.5 411.5,-104.5 309.5,-104.5"/>
<text text-anchor="middle" x="360.5" y="-111.5" font-family="Helvetica,sans-Serif" font-size="10.00" fill="#000000">js_build_module_ns</text>
</a>
</g>
</g>
<!-- Node4597&#45;&gt;Node4598 -->
<g id="edge6" class="edge">
<title>Node4597&#45;&gt;Node4598</title>
<path fill="none" stroke="#191970" d="M257.2841,-97.1974C274.6207,-100.0196 292.9305,-103.0003 309.2373,-105.6549"/>
<polygon fill="#191970" stroke="#191970" points="257.644,-93.71 247.2116,-95.5577 256.5193,-100.6191 257.644,-93.71"/>
</g>
<!-- Node4796 -->
<g id="node8" class="node">
<title>Node4796</title>
<g id="a_node8"><a xlink:href="quickjs_8c.html#aab4130a4c3108a127681be821818528a" target="_top" xlink:title="js_closure">
<polygon fill="none" stroke="#ff0000" points="330,-66.5 330,-85.5 391,-85.5 391,-66.5 330,-66.5"/>
<text text-anchor="middle" x="360.5" y="-73.5" font-family="Helvetica,sans-Serif" font-size="10.00" fill="#000000">js_closure</text>
</a>
</g>
</g>
<!-- Node4597&#45;&gt;Node4796 -->
<g id="edge8" class="edge">
<title>Node4597&#45;&gt;Node4796</title>
<path fill="none" stroke="#191970" d="M265.5116,-81.5226C288.2531,-80.2004 311.8422,-78.8289 329.8242,-77.7835"/>
<polygon fill="#191970" stroke="#191970" points="265.2722,-78.0305 255.4922,-82.1051 265.6785,-85.0187 265.2722,-78.0305"/>
</g>
<!-- Node4860 -->
<g id="node9" class="node">
<title>Node4860</title>
<g id="a_node9"><a xlink:href="quickjs_8c.html#ac00854b7f1f0f8567af964a2f8f2adb0" target="_top" xlink:title="JS_SetPropertyFunctionList">
<polygon fill="none" stroke="#ff0000" points="291,-28.5 291,-47.5 430,-47.5 430,-28.5 291,-28.5"/>
<text text-anchor="middle" x="360.5" y="-35.5" font-family="Helvetica,sans-Serif" font-size="10.00" fill="#000000">JS_SetPropertyFunctionList</text>
</a>
</g>
</g>
<!-- Node4597&#45;&gt;Node4860 -->
<g id="edge9" class="edge">
<title>Node4597&#45;&gt;Node4860</title>
<path fill="none" stroke="#191970" d="M231.9451,-73.6164C250.1757,-68.4437 271.607,-62.3941 291,-57 302.2077,-53.8826 314.4444,-50.5227 325.4834,-47.5079"/>
<polygon fill="#191970" stroke="#191970" points="230.8427,-70.2909 222.1795,-76.3901 232.7553,-77.0246 230.8427,-70.2909"/>
</g>
<!-- Node4599 -->
<g id="node7" class="node">
<title>Node4599</title>
<g id="a_node7"><a xlink:href="quickjs_8c.html#a2f5aeb4e31e2001c555335ae5172165b" target="_top" xlink:title="js_get_module_ns">
<polygon fill="none" stroke="#ff0000" points="471,-104.5 471,-123.5 566,-123.5 566,-104.5 471,-104.5"/>
<text text-anchor="middle" x="518.5" y="-111.5" font-family="Helvetica,sans-Serif" font-size="10.00" fill="#000000">js_get_module_ns</text>
</a>
</g>
</g>
<!-- Node4598&#45;&gt;Node4599 -->
<g id="edge7" class="edge">
<title>Node4598&#45;&gt;Node4599</title>
<path fill="none" stroke="#191970" d="M422.254,-114C438.4339,-114 455.6284,-114 470.94,-114"/>
<polygon fill="#191970" stroke="#191970" points="421.7981,-110.5001 411.7981,-114 421.798,-117.5001 421.7981,-110.5001"/>
</g>
</g>
</svg>
        <g id="navigator" transform="translate(0 0)" fill="#404254">
                <rect fill="#f2f5e9" fill-opacity="0.5" stroke="#606060" stroke-width=".5" x="0" y="0" width="60" height="60"/>
                <use id="zoomplus" xlink:href="#zoomPlus" x="17" y="9" onmousedown="handleZoom(evt,'in')"/>
                <use id="zoomminus" xlink:href="#zoomMin" x="42" y="9" onmousedown="handleZoom(evt,'out')"/>
                <use id="reset" xlink:href="#resetDef" x="30" y="36" onmousedown="handleReset()"/>
                <g id="arrowUp" xlink:href="#dirArrow" transform="translate(30 24)" onmousedown="handlePan(0,-1)">
                  <use xlink:href="#rim" fill="#404040">
                        <set attributeName="fill" to="#808080" begin="arrowUp.mouseover" end="arrowUp.mouseout"/>
                  </use>
                  <path fill="none" stroke="white" stroke-width="1.5" d="M0,-3.0v7 M-2.5,-0.5L0,-3.0L2.5,-0.5"/>
                </g>
                <g id="arrowRight" xlink:href="#dirArrow" transform="rotate(90) translate(36 -43)" onmousedown="handlePan(1,0)">
                  <use xlink:href="#rim" fill="#404040">
                        <set attributeName="fill" to="#808080" begin="arrowRight.mouseover" end="arrowRight.mouseout"/>
                  </use>
                  <path fill="none" stroke="white" stroke-width="1.5" d="M0,-3.0v7 M-2.5,-0.5L0,-3.0L2.5,-0.5"/>
                </g>
                <g id="arrowDown" xlink:href="#dirArrow" transform="rotate(180) translate(-30 -48)" onmousedown="handlePan(0,1)">
                  <use xlink:href="#rim" fill="#404040">
                        <set attributeName="fill" to="#808080" begin="arrowDown.mouseover" end="arrowDown.mouseout"/>
                  </use>
                  <path fill="none" stroke="white" stroke-width="1.5" d="M0,-3.0v7 M-2.5,-0.5L0,-3.0L2.5,-0.5"/>
                </g>
                <g id="arrowLeft" xlink:href="#dirArrow" transform="rotate(270) translate(-36 17)" onmousedown="handlePan(-1,0)">
                  <use xlink:href="#rim" fill="#404040">
                        <set attributeName="fill" to="#808080" begin="arrowLeft.mouseover" end="arrowLeft.mouseout"/>
                  </use>
                  <path fill="none" stroke="white" stroke-width="1.5" d="M0,-3.0v7 M-2.5,-0.5L0,-3.0L2.5,-0.5"/>
                </g>
        </g>
        <svg viewBox="0 0 15 15" width="100%" height="30px" preserveAspectRatio="xMaxYMin meet">
         <g id="arrow_out" transform="scale(0.3 0.3)">
          <a xlink:href="quickjs_8h_a2814982d965920b44b14bef36ba18bba_icgraph_org.svg" target="_base">
           <rect id="button" ry="5" rx="5" y="6" x="6" height="38" width="38"
                fill="#f2f5e9" fill-opacity="0.5" stroke="#606060" stroke-width="1.0"/>
           <path id="arrow"
             d="M 11.500037,31.436501 C 11.940474,20.09759 22.043105,11.32322 32.158766,21.979434 L 37.068811,17.246167 C 37.068811,17.246167 37.088388,32 37.088388,32 L 22.160133,31.978069 C 22.160133,31.978069 26.997745,27.140456 26.997745,27.140456 C 18.528582,18.264221 13.291696,25.230495 11.500037,31.436501 z"
             style="fill:#404040;"/>
          </a>
         </g>
        </svg>
</svg>
