<?xml version="1.0" encoding="UTF-8" standalone="no"?>
<!DOCTYPE svg PUBLIC "-//W3C//DTD SVG 1.1//EN"
 "http://www.w3.org/Graphics/SVG/1.1/DTD/svg11.dtd">
<!-- Generated by graphviz version 2.40.1 (20161225.0304)
 -->
<!-- Title: js_number_isNaN Pages: 1 -->
<svg width="473pt" height="85pt"
 viewBox="0.00 0.00 473.00 85.00" xmlns="http://www.w3.org/2000/svg" xmlns:xlink="http://www.w3.org/1999/xlink">
<g id="graph0" class="graph" transform="scale(1 1) rotate(0) translate(4 81)">
<title>js_number_isNaN</title>
<!-- Node400894 -->
<g id="node1" class="node">
<title>Node400894</title>
<polygon fill="#bfbfbf" stroke="#000000" points="0,-19.5 0,-38.5 95,-38.5 95,-19.5 0,-19.5"/>
<text text-anchor="middle" x="47.5" y="-26.5" font-family="Helvetica,sans-Serif" font-size="10.00" fill="#000000">js_number_isNaN</text>
</g>
<!-- Node400895 -->
<g id="node2" class="node">
<title>Node400895</title>
<g id="a_node2"><a xlink:href="quickjs_8c.html#a591e7b9111823408a871a7ac8aca3fb2" target="_top" xlink:title="js_global_isNaN">
<polygon fill="none" stroke="#000000" points="131,-38.5 131,-57.5 219,-57.5 219,-38.5 131,-38.5"/>
<text text-anchor="middle" x="175" y="-45.5" font-family="Helvetica,sans-Serif" font-size="10.00" fill="#000000">js_global_isNaN</text>
</a>
</g>
</g>
<!-- Node400894&#45;&gt;Node400895 -->
<g id="edge1" class="edge">
<title>Node400894&#45;&gt;Node400895</title>
<path fill="none" stroke="#191970" d="M95.339,-36.129C103.5777,-37.3567 112.1952,-38.6408 120.5916,-39.8921"/>
<polygon fill="#191970" stroke="#191970" points="120.2768,-43.3837 130.6835,-41.396 121.3086,-36.4602 120.2768,-43.3837"/>
</g>
<!-- Node401124 -->
<g id="node7" class="node">
<title>Node401124</title>
<g id="a_node7"><a xlink:href="quickjs_8h.html#ab995df176086f2a2a06ab777d4c4ef28" target="_top" xlink:title="JS_IsNumber">
<polygon fill="none" stroke="#000000" points="136.5,-.5 136.5,-19.5 213.5,-19.5 213.5,-.5 136.5,-.5"/>
<text text-anchor="middle" x="175" y="-7.5" font-family="Helvetica,sans-Serif" font-size="10.00" fill="#000000">JS_IsNumber</text>
</a>
</g>
</g>
<!-- Node400894&#45;&gt;Node401124 -->
<g id="edge6" class="edge">
<title>Node400894&#45;&gt;Node401124</title>
<path fill="none" stroke="#191970" d="M95.339,-21.871C105.5143,-20.3547 116.2673,-18.7523 126.4681,-17.2322"/>
<polygon fill="#191970" stroke="#191970" points="127.0682,-20.6815 136.4431,-15.7457 126.0364,-13.758 127.0682,-20.6815"/>
</g>
<!-- Node400896 -->
<g id="node3" class="node">
<title>Node400896</title>
<g id="a_node3"><a xlink:href="quickjs_8h.html#a93abffa925714e249a6aa2f4ae7900f6" target="_top" xlink:title="JS_NewBool">
<polygon fill="none" stroke="#000000" points="256.5,-57.5 256.5,-76.5 330.5,-76.5 330.5,-57.5 256.5,-57.5"/>
<text text-anchor="middle" x="293.5" y="-64.5" font-family="Helvetica,sans-Serif" font-size="10.00" fill="#000000">JS_NewBool</text>
</a>
</g>
</g>
<!-- Node400895&#45;&gt;Node400896 -->
<g id="edge2" class="edge">
<title>Node400895&#45;&gt;Node400896</title>
<path fill="none" stroke="#191970" d="M219.125,-55.0749C228.0177,-56.5007 237.3975,-58.0047 246.3878,-59.4462"/>
<polygon fill="#191970" stroke="#191970" points="245.8979,-62.9122 256.3259,-61.0396 247.0062,-56.0005 245.8979,-62.9122"/>
</g>
<!-- Node400897 -->
<g id="node4" class="node">
<title>Node400897</title>
<g id="a_node4"><a xlink:href="quickjs_8c.html#a8cc9386cd04cfa067d0c6bf588c6bb58" target="_top" xlink:title="JS_ToFloat64">
<polygon fill="none" stroke="#000000" points="255,-19.5 255,-38.5 332,-38.5 332,-19.5 255,-19.5"/>
<text text-anchor="middle" x="293.5" y="-26.5" font-family="Helvetica,sans-Serif" font-size="10.00" fill="#000000">JS_ToFloat64</text>
</a>
</g>
</g>
<!-- Node400895&#45;&gt;Node400897 -->
<g id="edge3" class="edge">
<title>Node400895&#45;&gt;Node400897</title>
<path fill="none" stroke="#191970" d="M219.125,-40.9251C227.4522,-39.5899 236.2066,-38.1863 244.6682,-36.8296"/>
<polygon fill="#191970" stroke="#191970" points="245.4763,-40.2448 254.796,-35.2057 244.368,-33.3331 245.4763,-40.2448"/>
</g>
<!-- Node400898 -->
<g id="node5" class="node">
<title>Node400898</title>
<g id="a_node5"><a xlink:href="quickjs_8h.html#a775522f2d084fc8fa0fcb33f390006b4" target="_top" xlink:title="JS_DupValue">
<polygon fill="none" stroke="#000000" points="378,-38.5 378,-57.5 455,-57.5 455,-38.5 378,-38.5"/>
<text text-anchor="middle" x="416.5" y="-45.5" font-family="Helvetica,sans-Serif" font-size="10.00" fill="#000000">JS_DupValue</text>
</a>
</g>
</g>
<!-- Node400897&#45;&gt;Node400898 -->
<g id="edge4" class="edge">
<title>Node400897&#45;&gt;Node400898</title>
<path fill="none" stroke="#191970" d="M332.0805,-34.9596C343.3056,-36.6936 355.7195,-38.6111 367.4953,-40.4302"/>
<polygon fill="#191970" stroke="#191970" points="367.2164,-43.9285 377.6335,-41.9962 368.285,-37.0106 367.2164,-43.9285"/>
</g>
<!-- Node400899 -->
<g id="node6" class="node">
<title>Node400899</title>
<g id="a_node6"><a xlink:href="quickjs_8c.html#ab1b614ef35f1cea05da0ad4927c53118" target="_top" xlink:title="JS_ToFloat64Free">
<polygon fill="none" stroke="#ff0000" points="368,-.5 368,-19.5 465,-19.5 465,-.5 368,-.5"/>
<text text-anchor="middle" x="416.5" y="-7.5" font-family="Helvetica,sans-Serif" font-size="10.00" fill="#000000">JS_ToFloat64Free</text>
</a>
</g>
</g>
<!-- Node400897&#45;&gt;Node400899 -->
<g id="edge5" class="edge">
<title>Node400897&#45;&gt;Node400899</title>
<path fill="none" stroke="#191970" d="M332.0805,-23.0404C340.1826,-21.7889 348.904,-20.4417 357.5577,-19.1049"/>
<polygon fill="#191970" stroke="#191970" points="358.2958,-22.5325 367.6442,-17.5468 357.2271,-15.6145 358.2958,-22.5325"/>
</g>
</g>
</svg>
