<?xml version="1.0" encoding="UTF-8" standalone="no"?>
<!DOCTYPE svg PUBLIC "-//W3C//DTD SVG 1.1//EN"
 "http://www.w3.org/Graphics/SVG/1.1/DTD/svg11.dtd">
<!-- Generated by graphviz version 2.40.1 (20161225.0304)
 -->
<!-- Title: string_buffer_concat_value Pages: 1 -->
<svg width="589pt" height="223pt"
 viewBox="0.00 0.00 589.00 223.00" xmlns="http://www.w3.org/2000/svg" xmlns:xlink="http://www.w3.org/1999/xlink">
<g id="graph0" class="graph" transform="scale(1 1) rotate(0) translate(4 219)">
<title>string_buffer_concat_value</title>
<!-- Node108245 -->
<g id="node1" class="node">
<title>Node108245</title>
<polygon fill="#bfbfbf" stroke="#000000" points="0,-71 0,-101 105,-101 105,-71 0,-71"/>
<text text-anchor="start" x="8" y="-89" font-family="Helvetica,sans-Serif" font-size="10.00" fill="#000000">string_buffer_concat</text>
<text text-anchor="middle" x="52.5" y="-78" font-family="Helvetica,sans-Serif" font-size="10.00" fill="#000000">_value</text>
</g>
<!-- Node108246 -->
<g id="node2" class="node">
<title>Node108246</title>
<g id="a_node2"><a xlink:href="quickjs_8c.html#a43064473b2e303ee40f4c1c7a87e85da" target="_top" xlink:title="js_function_constructor">
<polygon fill="none" stroke="#000000" points="150.5,-170.5 150.5,-189.5 268.5,-189.5 268.5,-170.5 150.5,-170.5"/>
<text text-anchor="middle" x="209.5" y="-177.5" font-family="Helvetica,sans-Serif" font-size="10.00" fill="#000000">js_function_constructor</text>
</a>
</g>
</g>
<!-- Node108245&#45;&gt;Node108246 -->
<g id="edge1" class="edge">
<title>Node108245&#45;&gt;Node108246</title>
<path fill="none" stroke="#191970" d="M73.4915,-108.4305C90.2871,-125.1474 115.2215,-147.3561 141,-161 148.1991,-164.8103 156.2392,-167.9188 164.2081,-170.4341"/>
<polygon fill="#191970" stroke="#191970" points="75.8789,-105.8664 66.3735,-101.1868 70.8859,-110.7726 75.8789,-105.8664"/>
</g>
<!-- Node108255 -->
<g id="node6" class="node">
<title>Node108255</title>
<g id="a_node6"><a xlink:href="quickjs_8c.html#a60d84dd116a9d7d912d08f298a4734dd" target="_top" xlink:title="js_json_to_str">
<polygon fill="none" stroke="#000000" points="171,-114.5 171,-133.5 248,-133.5 248,-114.5 171,-114.5"/>
<text text-anchor="middle" x="209.5" y="-121.5" font-family="Helvetica,sans-Serif" font-size="10.00" fill="#000000">js_json_to_str</text>
</a>
</g>
</g>
<!-- Node108245&#45;&gt;Node108255 -->
<g id="edge6" class="edge">
<title>Node108245&#45;&gt;Node108255</title>
<path fill="none" stroke="#191970" d="M115.1604,-101.1662C133.8791,-105.6969 153.8516,-110.531 170.5776,-114.5793"/>
<polygon fill="#191970" stroke="#191970" points="115.7582,-97.7099 105.2155,-98.7592 114.1115,-104.5135 115.7582,-97.7099"/>
</g>
<!-- Node108258 -->
<g id="node9" class="node">
<title>Node108258</title>
<g id="a_node9"><a xlink:href="quickjs_8c.html#a6a77bcdb9f7f18c13c108c99a198708b" target="_top" xlink:title="js_regexp_Symbol_replace">
<polygon fill="none" stroke="#000000" points="318,-76.5 318,-95.5 452,-95.5 452,-76.5 318,-76.5"/>
<text text-anchor="middle" x="385" y="-83.5" font-family="Helvetica,sans-Serif" font-size="10.00" fill="#000000">js_regexp_Symbol_replace</text>
</a>
</g>
</g>
<!-- Node108245&#45;&gt;Node108258 -->
<g id="edge10" class="edge">
<title>Node108245&#45;&gt;Node108258</title>
<path fill="none" stroke="#191970" d="M115.2949,-86C173.1499,-86 258.7462,-86 317.9223,-86"/>
<polygon fill="#191970" stroke="#191970" points="115.1856,-82.5001 105.1856,-86 115.1856,-89.5001 115.1856,-82.5001"/>
</g>
<!-- Node108259 -->
<g id="node10" class="node">
<title>Node108259</title>
<g id="a_node10"><a xlink:href="quickjs_8c.html#adb4d2990e6bf3f99633512ad2054b47a" target="_top" xlink:title="js_string___GetSubstitution">
<polygon fill="none" stroke="#000000" points="141,-38.5 141,-57.5 278,-57.5 278,-38.5 141,-38.5"/>
<text text-anchor="middle" x="209.5" y="-45.5" font-family="Helvetica,sans-Serif" font-size="10.00" fill="#000000">js_string___GetSubstitution</text>
</a>
</g>
</g>
<!-- Node108245&#45;&gt;Node108259 -->
<g id="edge11" class="edge">
<title>Node108245&#45;&gt;Node108259</title>
<path fill="none" stroke="#191970" d="M115.0763,-70.8541C133.6353,-66.3622 153.4339,-61.5701 170.0833,-57.5403"/>
<polygon fill="#191970" stroke="#191970" points="114.1115,-67.4865 105.2155,-73.2408 115.7582,-74.2901 114.1115,-67.4865"/>
</g>
<!-- Node108261 -->
<g id="node12" class="node">
<title>Node108261</title>
<g id="a_node12"><a xlink:href="quickjs_8c.html#a80bed67de3ceaf66888093b5fc84972a" target="_top" xlink:title="js_string_raw">
<polygon fill="none" stroke="#000000" points="172.5,-.5 172.5,-19.5 246.5,-19.5 246.5,-.5 172.5,-.5"/>
<text text-anchor="middle" x="209.5" y="-7.5" font-family="Helvetica,sans-Serif" font-size="10.00" fill="#000000">js_string_raw</text>
</a>
</g>
</g>
<!-- Node108245&#45;&gt;Node108261 -->
<g id="edge14" class="edge">
<title>Node108245&#45;&gt;Node108261</title>
<path fill="none" stroke="#191970" d="M80.5099,-64.8388C97.3259,-52.9487 119.5558,-38.612 141,-29 150.7978,-24.6083 161.8474,-21.0073 172.1665,-18.1666"/>
<polygon fill="#191970" stroke="#191970" points="78.3099,-62.11 72.2425,-70.7956 82.402,-67.7894 78.3099,-62.11"/>
</g>
<!-- Node108247 -->
<g id="node3" class="node">
<title>Node108247</title>
<g id="a_node3"><a xlink:href="quickjs_8c.html#a2e66fcf1bc1d19f346317f10ee590621" target="_top" xlink:title="JS_AddIntrinsicPromise">
<polygon fill="none" stroke="#000000" points="324,-195.5 324,-214.5 446,-214.5 446,-195.5 324,-195.5"/>
<text text-anchor="middle" x="385" y="-202.5" font-family="Helvetica,sans-Serif" font-size="10.00" fill="#000000">JS_AddIntrinsicPromise</text>
</a>
</g>
</g>
<!-- Node108246&#45;&gt;Node108247 -->
<g id="edge2" class="edge">
<title>Node108246&#45;&gt;Node108247</title>
<path fill="none" stroke="#191970" d="M279.0326,-189.9049C293.8439,-192.0148 309.3796,-194.2279 323.8496,-196.2891"/>
<polygon fill="#191970" stroke="#191970" points="279.31,-186.4092 268.9163,-188.4639 278.3227,-193.3392 279.31,-186.4092"/>
</g>
<!-- Node108254 -->
<g id="node5" class="node">
<title>Node108254</title>
<g id="a_node5"><a xlink:href="quickjs_8c.html#a4c9489297c684663f30e517204a9ec14" target="_top" xlink:title="JS_AddIntrinsicBaseObjects">
<polygon fill="none" stroke="#000000" points="314,-157.5 314,-176.5 456,-176.5 456,-157.5 314,-157.5"/>
<text text-anchor="middle" x="385" y="-164.5" font-family="Helvetica,sans-Serif" font-size="10.00" fill="#000000">JS_AddIntrinsicBaseObjects</text>
</a>
</g>
</g>
<!-- Node108246&#45;&gt;Node108254 -->
<g id="edge4" class="edge">
<title>Node108246&#45;&gt;Node108254</title>
<path fill="none" stroke="#191970" d="M279.2198,-174.8356C290.5938,-173.993 302.3902,-173.1192 313.7993,-172.2741"/>
<polygon fill="#191970" stroke="#191970" points="278.6304,-171.3695 268.9163,-175.5988 279.1476,-178.3504 278.6304,-171.3695"/>
</g>
<!-- Node108248 -->
<g id="node4" class="node">
<title>Node108248</title>
<g id="a_node4"><a xlink:href="quickjs_8c.html#ad8aedb643b8753b7a15f6cb2df61945e" target="_top" xlink:title="JS_NewContext">
<polygon fill="none" stroke="#ff0000" points="492,-161.5 492,-180.5 581,-180.5 581,-161.5 492,-161.5"/>
<text text-anchor="middle" x="536.5" y="-168.5" font-family="Helvetica,sans-Serif" font-size="10.00" fill="#000000">JS_NewContext</text>
</a>
</g>
</g>
<!-- Node108247&#45;&gt;Node108248 -->
<g id="edge3" class="edge">
<title>Node108247&#45;&gt;Node108248</title>
<path fill="none" stroke="#191970" d="M437.5982,-193.1958C456.018,-189.062 476.4585,-184.4747 493.9532,-180.5485"/>
<polygon fill="#191970" stroke="#191970" points="436.5952,-189.8337 427.6044,-195.4386 438.1281,-196.6638 436.5952,-189.8337"/>
</g>
<!-- Node108254&#45;&gt;Node108248 -->
<g id="edge5" class="edge">
<title>Node108254&#45;&gt;Node108248</title>
<path fill="none" stroke="#191970" d="M466.5534,-169.1532C475.2595,-169.3831 483.8628,-169.6102 491.8995,-169.8224"/>
<polygon fill="#191970" stroke="#191970" points="466.4027,-165.6481 456.3138,-168.8829 466.2179,-172.6457 466.4027,-165.6481"/>
</g>
<!-- Node108255&#45;&gt;Node108255 -->
<g id="edge7" class="edge">
<title>Node108255&#45;&gt;Node108255</title>
<path fill="none" stroke="#191970" d="M180.3809,-142.6539C181.5981,-147.9368 191.3044,-152 209.5,-152 237.2266,-152 245.2413,-142.5653 233.5441,-133.7571"/>
<polygon fill="#191970" stroke="#191970" points="183.5412,-144.1775 185.4559,-133.7571 177.4609,-140.7091 183.5412,-144.1775"/>
</g>
<!-- Node108256 -->
<g id="node7" class="node">
<title>Node108256</title>
<g id="a_node7"><a xlink:href="quickjs_8c.html#a343a343b16bc3c9875050e99ee0d2884" target="_top" xlink:title="JS_JSONStringify">
<polygon fill="none" stroke="#000000" points="336.5,-114.5 336.5,-133.5 433.5,-133.5 433.5,-114.5 336.5,-114.5"/>
<text text-anchor="middle" x="385" y="-121.5" font-family="Helvetica,sans-Serif" font-size="10.00" fill="#000000">JS_JSONStringify</text>
</a>
</g>
</g>
<!-- Node108255&#45;&gt;Node108256 -->
<g id="edge8" class="edge">
<title>Node108255&#45;&gt;Node108256</title>
<path fill="none" stroke="#191970" d="M258.1067,-124C282.4465,-124 311.8398,-124 336.2055,-124"/>
<polygon fill="#191970" stroke="#191970" points="258.0143,-120.5001 248.0142,-124 258.0142,-127.5001 258.0143,-120.5001"/>
</g>
<!-- Node108257 -->
<g id="node8" class="node">
<title>Node108257</title>
<g id="a_node8"><a xlink:href="quickjs_8c.html#ad2e4811daaaacb846df56bc88bd84e03" target="_top" xlink:title="js_json_stringify">
<polygon fill="none" stroke="#000000" points="493,-114.5 493,-133.5 580,-133.5 580,-114.5 493,-114.5"/>
<text text-anchor="middle" x="536.5" y="-121.5" font-family="Helvetica,sans-Serif" font-size="10.00" fill="#000000">js_json_stringify</text>
</a>
</g>
</g>
<!-- Node108256&#45;&gt;Node108257 -->
<g id="edge9" class="edge">
<title>Node108256&#45;&gt;Node108257</title>
<path fill="none" stroke="#191970" d="M443.7842,-124C460.1466,-124 477.6222,-124 492.9403,-124"/>
<polygon fill="#191970" stroke="#191970" points="443.7695,-120.5001 433.7695,-124 443.7694,-127.5001 443.7695,-120.5001"/>
</g>
<!-- Node108259&#45;&gt;Node108258 -->
<g id="edge13" class="edge">
<title>Node108259&#45;&gt;Node108258</title>
<path fill="none" stroke="#191970" d="M263.7783,-59.7526C288.594,-65.1258 317.6108,-71.4086 341.0324,-76.4799"/>
<polygon fill="#191970" stroke="#191970" points="264.3003,-56.2846 253.7861,-57.589 262.8189,-63.126 264.3003,-56.2846"/>
</g>
<!-- Node108260 -->
<g id="node11" class="node">
<title>Node108260</title>
<g id="a_node11"><a xlink:href="quickjs_8c.html#aed1bf9ce4b9e3a82388679dd6ec7635b" target="_top" xlink:title="js_string_replace">
<polygon fill="none" stroke="#000000" points="340,-38.5 340,-57.5 430,-57.5 430,-38.5 340,-38.5"/>
<text text-anchor="middle" x="385" y="-45.5" font-family="Helvetica,sans-Serif" font-size="10.00" fill="#000000">js_string_replace</text>
</a>
</g>
</g>
<!-- Node108259&#45;&gt;Node108260 -->
<g id="edge12" class="edge">
<title>Node108259&#45;&gt;Node108260</title>
<path fill="none" stroke="#191970" d="M288.4271,-48C306.0867,-48 324.2278,-48 339.9504,-48"/>
<polygon fill="#191970" stroke="#191970" points="288.1069,-44.5001 278.1069,-48 288.1069,-51.5001 288.1069,-44.5001"/>
</g>
</g>
</svg>
