<?xml version="1.0" encoding="UTF-8" standalone="no"?>
<!DOCTYPE svg PUBLIC "-//W3C//DTD SVG 1.1//EN"
 "http://www.w3.org/Graphics/SVG/1.1/DTD/svg11.dtd">
<!-- Generated by graphviz version 2.40.1 (20161225.0304)
 -->
<!-- Title: js_atom_concat_num Pages: 1 -->
<svg width="805pt" height="208pt"
 viewBox="0.00 0.00 805.00 207.69" xmlns="http://www.w3.org/2000/svg" xmlns:xlink="http://www.w3.org/1999/xlink">
<g id="graph0" class="graph" transform="scale(1 1) rotate(0) translate(4 203.6939)">
<title>js_atom_concat_num</title>
<!-- Node97588 -->
<g id="node1" class="node">
<title>Node97588</title>
<polygon fill="#bfbfbf" stroke="#000000" points="0,-88.5 0,-107.5 110,-107.5 110,-88.5 0,-88.5"/>
<text text-anchor="middle" x="55" y="-95.5" font-family="Helvetica,sans-Serif" font-size="10.00" fill="#000000">js_atom_concat_num</text>
</g>
<!-- Node97589 -->
<g id="node2" class="node">
<title>Node97589</title>
<g id="a_node2"><a xlink:href="quickjs_8c.html#a00eb789430243c24dab4a63ad6a79653" target="_top" xlink:title="js_parse_class">
<polygon fill="none" stroke="#000000" points="146,-88.5 146,-107.5 228,-107.5 228,-88.5 146,-88.5"/>
<text text-anchor="middle" x="187" y="-95.5" font-family="Helvetica,sans-Serif" font-size="10.00" fill="#000000">js_parse_class</text>
</a>
</g>
</g>
<!-- Node97588&#45;&gt;Node97589 -->
<g id="edge1" class="edge">
<title>Node97588&#45;&gt;Node97589</title>
<path fill="none" stroke="#191970" d="M120.3074,-98C128.9409,-98 137.5902,-98 145.6644,-98"/>
<polygon fill="#191970" stroke="#191970" points="120.2151,-94.5001 110.2151,-98 120.215,-101.5001 120.2151,-94.5001"/>
</g>
<!-- Node97590 -->
<g id="node3" class="node">
<title>Node97590</title>
<g id="a_node3"><a xlink:href="quickjs_8c.html#acdcc62310b4f6f73fa7bc7267b18b1d4" target="_top" xlink:title="js_parse_postfix_expr">
<polygon fill="none" stroke="#000000" points="264,-113.5 264,-132.5 376,-132.5 376,-113.5 264,-113.5"/>
<text text-anchor="middle" x="320" y="-120.5" font-family="Helvetica,sans-Serif" font-size="10.00" fill="#000000">js_parse_postfix_expr</text>
</a>
</g>
</g>
<!-- Node97589&#45;&gt;Node97590 -->
<g id="edge2" class="edge">
<title>Node97589&#45;&gt;Node97590</title>
<path fill="none" stroke="#191970" d="M238.4545,-101.0778C258.797,-104.4733 281.1219,-109.1238 297.2617,-113.4942"/>
<polygon fill="#191970" stroke="#191970" points="238.7785,-97.5855 228.353,-99.4718 237.6793,-104.4987 238.7785,-97.5855"/>
</g>
<!-- Node97593 -->
<g id="node6" class="node">
<title>Node97593</title>
<g id="a_node6"><a xlink:href="quickjs_8c.html#a9d844c16dcc71701436848074337d32c" target="_top" xlink:title="js_parse_statement\l_or_decl">
<polygon fill="none" stroke="#ff0000" points="695,-114 695,-144 797,-144 797,-114 695,-114"/>
<text text-anchor="start" x="703" y="-132" font-family="Helvetica,sans-Serif" font-size="10.00" fill="#000000">js_parse_statement</text>
<text text-anchor="middle" x="746" y="-121" font-family="Helvetica,sans-Serif" font-size="10.00" fill="#000000">_or_decl</text>
</a>
</g>
</g>
<!-- Node97589&#45;&gt;Node97593 -->
<g id="edge15" class="edge">
<title>Node97589&#45;&gt;Node97593</title>
<path fill="none" stroke="#191970" d="M236.7001,-86.3734C303.0799,-72.464 424.249,-52.7357 527,-67 590.7978,-75.8567 662.1381,-98.5704 705.5516,-113.9045"/>
<polygon fill="#191970" stroke="#191970" points="235.9677,-82.9508 226.9204,-88.4641 237.4312,-89.7961 235.9677,-82.9508"/>
</g>
<!-- Node97600 -->
<g id="node8" class="node">
<title>Node97600</title>
<g id="a_node8"><a xlink:href="quickjs_8c.html#a498e1d5c7de1b59c1630e9847cde1e41" target="_top" xlink:title="js_parse_export">
<polygon fill="none" stroke="#ff0000" points="277,-.5 277,-19.5 363,-19.5 363,-.5 277,-.5"/>
<text text-anchor="middle" x="320" y="-7.5" font-family="Helvetica,sans-Serif" font-size="10.00" fill="#000000">js_parse_export</text>
</a>
</g>
</g>
<!-- Node97589&#45;&gt;Node97600 -->
<g id="edge16" class="edge">
<title>Node97589&#45;&gt;Node97600</title>
<path fill="none" stroke="#191970" d="M204.177,-81.2213C219.09,-67.2928 241.7321,-47.6273 264,-34 273.1123,-28.4235 283.7511,-23.5115 293.2935,-19.6077"/>
<polygon fill="#191970" stroke="#191970" points="201.5736,-78.8671 196.7386,-88.2944 206.3973,-83.9399 201.5736,-78.8671"/>
</g>
<!-- Node97590&#45;&gt;Node97589 -->
<g id="edge3" class="edge">
<title>Node97590&#45;&gt;Node97589</title>
<path fill="none" stroke="#191970" d="M254.1094,-117.3643C238.1911,-114.3853 222.2261,-110.8818 209.8635,-107.5397"/>
<polygon fill="#191970" stroke="#191970" points="253.5197,-120.8143 263.9823,-119.1453 254.7624,-113.9255 253.5197,-120.8143"/>
</g>
<!-- Node97590&#45;&gt;Node97590 -->
<g id="edge11" class="edge">
<title>Node97590&#45;&gt;Node97590</title>
<path fill="none" stroke="#191970" d="M295.4465,-142.0292C296.7858,-147.128 304.9703,-151 320,-151 343.4609,-151 350.2426,-141.5653 340.345,-132.7571"/>
<polygon fill="#191970" stroke="#191970" points="298.709,-143.3096 299.655,-132.7571 292.3348,-140.4164 298.709,-143.3096"/>
</g>
<!-- Node97591 -->
<g id="node4" class="node">
<title>Node97591</title>
<g id="a_node4"><a xlink:href="quickjs_8c.html#a26be546cf89c4580ba9020e8fc43a759" target="_top" xlink:title="js_parse_destructuring\l_element">
<polygon fill="none" stroke="#ff0000" points="412,-133 412,-163 527,-163 527,-133 412,-133"/>
<text text-anchor="start" x="420" y="-151" font-family="Helvetica,sans-Serif" font-size="10.00" fill="#000000">js_parse_destructuring</text>
<text text-anchor="middle" x="469.5" y="-140" font-family="Helvetica,sans-Serif" font-size="10.00" fill="#000000">_element</text>
</a>
</g>
</g>
<!-- Node97590&#45;&gt;Node97591 -->
<g id="edge4" class="edge">
<title>Node97590&#45;&gt;Node97591</title>
<path fill="none" stroke="#191970" d="M386.2162,-127.3622C396.8792,-129.0468 407.7769,-130.956 418.0261,-132.942"/>
<polygon fill="#191970" stroke="#191970" points="386.5066,-123.8661 376.0936,-125.8206 385.4527,-130.7864 386.5066,-123.8661"/>
</g>
<!-- Node97595 -->
<g id="node5" class="node">
<title>Node97595</title>
<g id="a_node5"><a xlink:href="quickjs_8c.html#ac188b916dd086803591a67de7e7a85f6" target="_top" xlink:title="js_parse_for_in_of">
<polygon fill="none" stroke="#000000" points="563,-157.5 563,-176.5 659,-176.5 659,-157.5 563,-157.5"/>
<text text-anchor="middle" x="611" y="-164.5" font-family="Helvetica,sans-Serif" font-size="10.00" fill="#000000">js_parse_for_in_of</text>
</a>
</g>
</g>
<!-- Node97590&#45;&gt;Node97595 -->
<g id="edge14" class="edge">
<title>Node97590&#45;&gt;Node97595</title>
<path fill="none" stroke="#191970" d="M336.1519,-140.1014C353.1759,-156.7678 381.6846,-181.0125 412,-191 472.4842,-210.9267 548.1842,-190.1004 586.4387,-176.6026"/>
<polygon fill="#191970" stroke="#191970" points="338.2792,-137.2748 328.7596,-132.6242 333.3012,-142.1962 338.2792,-137.2748"/>
</g>
<!-- Node97612 -->
<g id="node7" class="node">
<title>Node97612</title>
<g id="a_node7"><a xlink:href="quickjs_8c.html#af99673e7430294cf15dc24dc5dac227f" target="_top" xlink:title="js_parse_unary">
<polygon fill="none" stroke="#ff0000" points="428,-76.5 428,-95.5 511,-95.5 511,-76.5 428,-76.5"/>
<text text-anchor="middle" x="469.5" y="-83.5" font-family="Helvetica,sans-Serif" font-size="10.00" fill="#000000">js_parse_unary</text>
</a>
</g>
</g>
<!-- Node97590&#45;&gt;Node97612 -->
<g id="edge12" class="edge">
<title>Node97590&#45;&gt;Node97612</title>
<path fill="none" stroke="#191970" d="M368.4605,-111.0064C388.6761,-106.0032 411.8315,-100.2725 430.871,-95.5604"/>
<polygon fill="#191970" stroke="#191970" points="367.3662,-107.6716 358.5,-113.4716 369.048,-114.4666 367.3662,-107.6716"/>
</g>
<!-- Node97591&#45;&gt;Node97590 -->
<g id="edge6" class="edge">
<title>Node97591&#45;&gt;Node97590</title>
<path fill="none" stroke="#191970" d="M401.888,-143.4162C381.9214,-140.2312 361.2692,-136.2841 345.7,-132.5397"/>
<polygon fill="#191970" stroke="#191970" points="401.5055,-146.8985 411.9216,-144.9606 402.5705,-139.98 401.5055,-146.8985"/>
</g>
<!-- Node97591&#45;&gt;Node97591 -->
<g id="edge5" class="edge">
<title>Node97591&#45;&gt;Node97591</title>
<path fill="none" stroke="#191970" d="M444.6237,-173.4579C447.7112,-178.179 456.0033,-181.5 469.5,-181.5 491.6484,-181.5 499.7811,-172.5566 493.8979,-163.159"/>
<polygon fill="#191970" stroke="#191970" points="448.1342,-173.3107 445.1021,-163.159 441.1418,-172.9858 448.1342,-173.3107"/>
</g>
<!-- Node97591&#45;&gt;Node97595 -->
<g id="edge7" class="edge">
<title>Node97591&#45;&gt;Node97595</title>
<path fill="none" stroke="#191970" d="M537.2162,-157.0926C545.9243,-158.2619 554.6939,-159.4395 562.9959,-160.5542"/>
<polygon fill="#191970" stroke="#191970" points="537.4303,-153.5901 527.0535,-155.728 536.4987,-160.5278 537.4303,-153.5901"/>
</g>
<!-- Node97591&#45;&gt;Node97593 -->
<g id="edge10" class="edge">
<title>Node97591&#45;&gt;Node97593</title>
<path fill="none" stroke="#191970" d="M537.2637,-143.3435C585.9617,-139.9972 650.5891,-135.5563 694.9603,-132.5073"/>
<polygon fill="#191970" stroke="#191970" points="536.8634,-139.8627 527.1269,-144.0401 537.3433,-146.8462 536.8634,-139.8627"/>
</g>
<!-- Node97595&#45;&gt;Node97593 -->
<g id="edge8" class="edge">
<title>Node97595&#45;&gt;Node97593</title>
<path fill="none" stroke="#191970" d="M654.9622,-154.6254C667.6945,-151.0415 681.7041,-147.0981 694.836,-143.4017"/>
<polygon fill="#191970" stroke="#191970" points="653.7438,-151.3323 645.0662,-157.411 655.6405,-158.0705 653.7438,-151.3323"/>
</g>
<!-- Node97593&#45;&gt;Node97593 -->
<g id="edge9" class="edge">
<title>Node97593&#45;&gt;Node97593</title>
<path fill="none" stroke="#191970" d="M722.1898,-154.4579C725.145,-159.179 733.0817,-162.5 746,-162.5 767.1992,-162.5 774.9833,-153.5566 769.3523,-144.159"/>
<polygon fill="#191970" stroke="#191970" points="725.7,-154.3046 722.6477,-144.159 718.7069,-153.9936 725.7,-154.3046"/>
</g>
<!-- Node97612&#45;&gt;Node97612 -->
<g id="edge13" class="edge">
<title>Node97612&#45;&gt;Node97612</title>
<path fill="none" stroke="#191970" d="M443.4584,-105.0292C444.8789,-110.128 453.5594,-114 469.5,-114 494.3828,-114 501.5755,-104.5653 491.0781,-95.7571"/>
<polygon fill="#191970" stroke="#191970" points="446.738,-106.2855 447.9219,-95.7571 440.4308,-103.2493 446.738,-106.2855"/>
</g>
</g>
</svg>
