<?xml version="1.0" encoding="UTF-8" standalone="no"?>
<!DOCTYPE svg PUBLIC "-//W3C//DTD SVG 1.1//EN"
 "http://www.w3.org/Graphics/SVG/1.1/DTD/svg11.dtd">
<!-- Generated by graphviz version 2.40.1 (20161225.0304)
 -->
<!-- Title: bc_get_u16 Pages: 1 -->
<svg width="508pt" height="256pt"
 viewBox="0.00 0.00 508.00 256.00" xmlns="http://www.w3.org/2000/svg" xmlns:xlink="http://www.w3.org/1999/xlink">
<g id="graph0" class="graph" transform="scale(1 1) rotate(0) translate(4 252)">
<title>bc_get_u16</title>
<!-- Node357183 -->
<g id="node1" class="node">
<title>Node357183</title>
<polygon fill="#bfbfbf" stroke="#000000" points="0,-114.5 0,-133.5 67,-133.5 67,-114.5 0,-114.5"/>
<text text-anchor="middle" x="33.5" y="-121.5" font-family="Helvetica,sans-Serif" font-size="10.00" fill="#000000">bc_get_u16</text>
</g>
<!-- Node357184 -->
<g id="node2" class="node">
<title>Node357184</title>
<g id="a_node2"><a xlink:href="quickjs_8c.html#a367627778ac537f4bb1f0fd07a2dee1b" target="_top" xlink:title="JS_ReadFunctionTag">
<polygon fill="none" stroke="#000000" points="103,-114.5 103,-133.5 214,-133.5 214,-114.5 103,-114.5"/>
<text text-anchor="middle" x="158.5" y="-121.5" font-family="Helvetica,sans-Serif" font-size="10.00" fill="#000000">JS_ReadFunctionTag</text>
</a>
</g>
</g>
<!-- Node357183&#45;&gt;Node357184 -->
<g id="edge1" class="edge">
<title>Node357183&#45;&gt;Node357184</title>
<path fill="none" stroke="#191970" d="M77.4653,-124C85.7076,-124 94.4227,-124 102.9623,-124"/>
<polygon fill="#191970" stroke="#191970" points="77.3268,-120.5001 67.3268,-124 77.3268,-127.5001 77.3268,-120.5001"/>
</g>
<!-- Node357185 -->
<g id="node3" class="node">
<title>Node357185</title>
<g id="a_node3"><a xlink:href="quickjs_8c.html#a4b8ef2bb3b35e4a5f6ed8bd837a50e7c" target="_top" xlink:title="JS_ReadObjectRec">
<polygon fill="none" stroke="#000000" points="250,-114.5 250,-133.5 354,-133.5 354,-114.5 250,-114.5"/>
<text text-anchor="middle" x="302" y="-121.5" font-family="Helvetica,sans-Serif" font-size="10.00" fill="#000000">JS_ReadObjectRec</text>
</a>
</g>
</g>
<!-- Node357184&#45;&gt;Node357185 -->
<g id="edge2" class="edge">
<title>Node357184&#45;&gt;Node357185</title>
<path fill="none" stroke="#191970" d="M224.6073,-117.2686C233.0509,-117.2129 241.5993,-117.2824 249.7809,-117.4774"/>
<polygon fill="#191970" stroke="#191970" points="224.3463,-113.7715 214.3917,-117.3987 224.4356,-120.771 224.3463,-113.7715"/>
</g>
<!-- Node357185&#45;&gt;Node357184 -->
<g id="edge3" class="edge">
<title>Node357185&#45;&gt;Node357184</title>
<path fill="none" stroke="#191970" d="M239.6509,-130.6982C231.249,-130.7912 222.6721,-130.7589 214.3917,-130.6013"/>
<polygon fill="#191970" stroke="#191970" points="239.8431,-134.1955 249.7809,-130.5226 239.7217,-127.1966 239.8431,-134.1955"/>
</g>
<!-- Node357186 -->
<g id="node4" class="node">
<title>Node357186</title>
<g id="a_node4"><a xlink:href="quickjs_8c.html#a21c7b14be807f7ce7f71c19e2e80380c" target="_top" xlink:title="JS_ReadModule">
<polygon fill="none" stroke="#000000" points="400.5,-228.5 400.5,-247.5 489.5,-247.5 489.5,-228.5 400.5,-228.5"/>
<text text-anchor="middle" x="445" y="-235.5" font-family="Helvetica,sans-Serif" font-size="10.00" fill="#000000">JS_ReadModule</text>
</a>
</g>
</g>
<!-- Node357185&#45;&gt;Node357186 -->
<g id="edge4" class="edge">
<title>Node357185&#45;&gt;Node357186</title>
<path fill="none" stroke="#191970" d="M319.1848,-141.4352C335.2808,-160.8177 361.1339,-191.1651 390,-210 403.0293,-218.5015 420.286,-223.6503 431.969,-228.3629"/>
<polygon fill="#191970" stroke="#191970" points="321.7815,-139.0836 312.7018,-133.6236 316.3949,-143.554 321.7815,-139.0836"/>
</g>
<!-- Node357187 -->
<g id="node5" class="node">
<title>Node357187</title>
<g id="a_node5"><a xlink:href="quickjs_8c.html#ad0e3230c3896c2048283a9302f184fb4" target="_top" xlink:title="JS_ReadObjectTag">
<polygon fill="none" stroke="#000000" points="394,-190.5 394,-209.5 496,-209.5 496,-190.5 394,-190.5"/>
<text text-anchor="middle" x="445" y="-197.5" font-family="Helvetica,sans-Serif" font-size="10.00" fill="#000000">JS_ReadObjectTag</text>
</a>
</g>
</g>
<!-- Node357185&#45;&gt;Node357187 -->
<g id="edge6" class="edge">
<title>Node357185&#45;&gt;Node357187</title>
<path fill="none" stroke="#191970" d="M333.5729,-139.0379C349.8678,-149.3445 370.3973,-162.4412 390,-172 404.7101,-179.173 422.8276,-184.8762 434.1493,-190.3782"/>
<polygon fill="#191970" stroke="#191970" points="335.317,-136.0001 324.9886,-133.6392 331.5904,-141.9257 335.317,-136.0001"/>
</g>
<!-- Node357188 -->
<g id="node6" class="node">
<title>Node357188</title>
<g id="a_node6"><a xlink:href="quickjs_8c.html#a18da561cb430d36d47200cd3ab394984" target="_top" xlink:title="JS_ReadArray">
<polygon fill="none" stroke="#000000" points="405,-152.5 405,-171.5 485,-171.5 485,-152.5 405,-152.5"/>
<text text-anchor="middle" x="445" y="-159.5" font-family="Helvetica,sans-Serif" font-size="10.00" fill="#000000">JS_ReadArray</text>
</a>
</g>
</g>
<!-- Node357185&#45;&gt;Node357188 -->
<g id="edge8" class="edge">
<title>Node357185&#45;&gt;Node357188</title>
<path fill="none" stroke="#191970" d="M363.9978,-133.7782C386.7101,-139.5577 410.7246,-146.6058 426.6538,-152.428"/>
<polygon fill="#191970" stroke="#191970" points="364.5795,-130.3164 354.0308,-131.3039 362.8929,-137.1102 364.5795,-130.3164"/>
</g>
<!-- Node357189 -->
<g id="node7" class="node">
<title>Node357189</title>
<g id="a_node7"><a xlink:href="quickjs_8c.html#a00910faacc776e3c2c225aa117aab450" target="_top" xlink:title="JS_ReadTypedArray">
<polygon fill="none" stroke="#000000" points="391.5,-114.5 391.5,-133.5 498.5,-133.5 498.5,-114.5 391.5,-114.5"/>
<text text-anchor="middle" x="445" y="-121.5" font-family="Helvetica,sans-Serif" font-size="10.00" fill="#000000">JS_ReadTypedArray</text>
</a>
</g>
</g>
<!-- Node357185&#45;&gt;Node357189 -->
<g id="edge10" class="edge">
<title>Node357185&#45;&gt;Node357189</title>
<path fill="none" stroke="#191970" d="M364.1381,-117.3017C373.1952,-117.2012 382.4561,-117.2473 391.3261,-117.44"/>
<polygon fill="#191970" stroke="#191970" points="363.9684,-113.804 354.0308,-117.4775 364.0902,-120.803 363.9684,-113.804"/>
</g>
<!-- Node357190 -->
<g id="node8" class="node">
<title>Node357190</title>
<g id="a_node8"><a xlink:href="quickjs_8c.html#a8fce6f70a6fc880eabcdb9883e3753f2" target="_top" xlink:title="JS_ReadDate">
<polygon fill="none" stroke="#000000" points="406,-76.5 406,-95.5 484,-95.5 484,-76.5 406,-76.5"/>
<text text-anchor="middle" x="445" y="-83.5" font-family="Helvetica,sans-Serif" font-size="10.00" fill="#000000">JS_ReadDate</text>
</a>
</g>
</g>
<!-- Node357185&#45;&gt;Node357190 -->
<g id="edge12" class="edge">
<title>Node357185&#45;&gt;Node357190</title>
<path fill="none" stroke="#191970" d="M329.9838,-111.0779C351.6356,-103.8731 381.879,-95.6346 405.9195,-90.294"/>
<polygon fill="#191970" stroke="#191970" points="328.699,-107.819 320.402,-114.4076 330.9968,-114.4311 328.699,-107.819"/>
</g>
<!-- Node357191 -->
<g id="node9" class="node">
<title>Node357191</title>
<g id="a_node9"><a xlink:href="quickjs_8c.html#aa329df3dbab623ec017b77cb77bcce2f" target="_top" xlink:title="JS_ReadObjectValue">
<polygon fill="none" stroke="#000000" points="390,-38.5 390,-57.5 500,-57.5 500,-38.5 390,-38.5"/>
<text text-anchor="middle" x="445" y="-45.5" font-family="Helvetica,sans-Serif" font-size="10.00" fill="#000000">JS_ReadObjectValue</text>
</a>
</g>
</g>
<!-- Node357185&#45;&gt;Node357191 -->
<g id="edge14" class="edge">
<title>Node357185&#45;&gt;Node357191</title>
<path fill="none" stroke="#191970" d="M316.1191,-106.882C332.9918,-91.9103 362.4135,-71.4518 390,-58 390.2724,-57.8672 390.546,-57.7348 390.8207,-57.603"/>
<polygon fill="#191970" stroke="#191970" points="313.3294,-104.7066 308.5159,-114.1449 318.1646,-109.7683 313.3294,-104.7066"/>
</g>
<!-- Node357192 -->
<g id="node10" class="node">
<title>Node357192</title>
<g id="a_node10"><a xlink:href="quickjs_8c.html#a12be2ea9c010752715072489497594e9" target="_top" xlink:title="JS_ReadObject">
<polygon fill="none" stroke="#ff0000" points="402,-.5 402,-19.5 488,-19.5 488,-.5 402,-.5"/>
<text text-anchor="middle" x="445" y="-7.5" font-family="Helvetica,sans-Serif" font-size="10.00" fill="#000000">JS_ReadObject</text>
</a>
</g>
</g>
<!-- Node357185&#45;&gt;Node357192 -->
<g id="edge16" class="edge">
<title>Node357185&#45;&gt;Node357192</title>
<path fill="none" stroke="#191970" d="M314.3215,-106.0596C329.734,-84.8688 358.0177,-49.8682 390,-29 395.8378,-25.1909 402.5242,-22.0548 409.1778,-19.5057"/>
<polygon fill="#191970" stroke="#191970" points="311.2867,-104.2884 308.3544,-114.4694 316.9956,-108.3391 311.2867,-104.2884"/>
</g>
<!-- Node357186&#45;&gt;Node357185 -->
<g id="edge5" class="edge">
<title>Node357186&#45;&gt;Node357185</title>
<path fill="none" stroke="#191970" d="M391.2174,-228.7771C390.8078,-228.5213 390.4019,-228.2622 390,-228 350.4607,-202.2009 316.5742,-154.8017 305.6729,-133.6327"/>
<polygon fill="#191970" stroke="#191970" points="389.8079,-231.9936 400.27,-233.6659 393.1342,-225.8344 389.8079,-231.9936"/>
</g>
<!-- Node357187&#45;&gt;Node357185 -->
<g id="edge7" class="edge">
<title>Node357187&#45;&gt;Node357185</title>
<path fill="none" stroke="#191970" d="M384.5727,-187.1197C351.7553,-169.9057 321.4617,-147.4649 308.5159,-133.8551"/>
<polygon fill="#191970" stroke="#191970" points="383.3797,-190.4383 393.8835,-191.8246 386.5368,-184.1906 383.3797,-190.4383"/>
</g>
<!-- Node357188&#45;&gt;Node357185 -->
<g id="edge9" class="edge">
<title>Node357188&#45;&gt;Node357185</title>
<path fill="none" stroke="#191970" d="M394.7249,-155.1186C368.9441,-148.946 339.1148,-140.4273 320.402,-133.5924"/>
<polygon fill="#191970" stroke="#191970" points="394.2097,-158.592 404.7421,-157.4432 395.7922,-151.7732 394.2097,-158.592"/>
</g>
<!-- Node357189&#45;&gt;Node357185 -->
<g id="edge11" class="edge">
<title>Node357189&#45;&gt;Node357185</title>
<path fill="none" stroke="#191970" d="M381.1772,-130.7153C372.0972,-130.7977 362.8501,-130.7334 354.0308,-130.5225"/>
<polygon fill="#191970" stroke="#191970" points="381.3809,-134.2127 391.3261,-130.56 381.2737,-127.2135 381.3809,-134.2127"/>
</g>
<!-- Node357190&#45;&gt;Node357185 -->
<g id="edge13" class="edge">
<title>Node357190&#45;&gt;Node357185</title>
<path fill="none" stroke="#191970" d="M417.1062,-98.8921C399.1879,-104.8588 375.3585,-111.5387 354.0308,-116.6961"/>
<polygon fill="#191970" stroke="#191970" points="418.3582,-102.1624 426.6538,-95.572 416.059,-95.5508 418.3582,-102.1624"/>
</g>
<!-- Node357191&#45;&gt;Node357185 -->
<g id="edge15" class="edge">
<title>Node357191&#45;&gt;Node357185</title>
<path fill="none" stroke="#191970" d="M424.8725,-61.6728C414.2518,-65.9725 401.1475,-70.5642 390,-76 366.7671,-87.3289 342.2325,-103.6275 324.9886,-114.3608"/>
<polygon fill="#191970" stroke="#191970" points="426.3856,-64.8313 434.1493,-57.6218 423.5842,-58.4162 426.3856,-64.8313"/>
</g>
</g>
</svg>
