<?xml version="1.0" encoding="UTF-8" standalone="no"?>
<!DOCTYPE svg PUBLIC "-//W3C//DTD SVG 1.1//EN"
 "http://www.w3.org/Graphics/SVG/1.1/DTD/svg11.dtd">
<!-- Generated by graphviz version 2.40.1 (20161225.0304)
 -->
<!-- Title: js_build_mapped_arguments Pages: 1 -->
<svg width="800pt" height="700pt"
 viewBox="0.00 0.00 800.00 699.90" xmlns="http://www.w3.org/2000/svg" xmlns:xlink="http://www.w3.org/1999/xlink">
<g id="graph0" class="graph" transform="scale(1 1) rotate(0) translate(4 695.8988)">
<title>js_build_mapped_arguments</title>
<!-- Node271287 -->
<g id="node1" class="node">
<title>Node271287</title>
<polygon fill="#bfbfbf" stroke="#000000" points="0,-444.3988 0,-463.3988 140,-463.3988 140,-444.3988 0,-444.3988"/>
<text text-anchor="middle" x="70" y="-451.3988" font-family="Helvetica,sans-Serif" font-size="10.00" fill="#000000">js_build_mapped_arguments</text>
</g>
<!-- Node271288 -->
<g id="node2" class="node">
<title>Node271288</title>
<g id="a_node2"><a xlink:href="quickjs_8c.html#a877fcb7651d95b411ce70e62b7f4a1f0" target="_top" xlink:title="__JS_AtomFromUInt32">
<polygon fill="none" stroke="#000000" points="192.5,-672.3988 192.5,-691.3988 311.5,-691.3988 311.5,-672.3988 192.5,-672.3988"/>
<text text-anchor="middle" x="252" y="-679.3988" font-family="Helvetica,sans-Serif" font-size="10.00" fill="#000000">__JS_AtomFromUInt32</text>
</a>
</g>
</g>
<!-- Node271287&#45;&gt;Node271288 -->
<g id="edge1" class="edge">
<title>Node271287&#45;&gt;Node271288</title>
<path fill="none" stroke="#191970" d="M72.23,-463.673C80.1889,-496.3293 110.2975,-602.7006 176,-657.8988 180.9362,-662.0458 186.5932,-665.4783 192.5451,-668.319"/>
<polygon fill="#191970" stroke="#191970" points="191.5038,-671.6775 202.0795,-672.3134 194.2087,-665.2212 191.5038,-671.6775"/>
</g>
<!-- Node271289 -->
<g id="node3" class="node">
<title>Node271289</title>
<g id="a_node3"><a xlink:href="quickjs_8c.html#a74547db03bf739a52c83a326b32db997" target="_top" xlink:title="add_property">
<polygon fill="none" stroke="#000000" points="215.5,-159.3988 215.5,-178.3988 288.5,-178.3988 288.5,-159.3988 215.5,-159.3988"/>
<text text-anchor="middle" x="252" y="-166.3988" font-family="Helvetica,sans-Serif" font-size="10.00" fill="#000000">add_property</text>
</a>
</g>
</g>
<!-- Node271287&#45;&gt;Node271289 -->
<g id="edge2" class="edge">
<title>Node271287&#45;&gt;Node271289</title>
<path fill="none" stroke="#191970" d="M76.2649,-444.0884C102.6813,-402.722 205.2246,-242.146 240.2197,-187.346"/>
<polygon fill="#191970" stroke="#191970" points="243.3291,-188.9797 245.7615,-178.6679 237.4295,-185.2122 243.3291,-188.9797"/>
</g>
<!-- Node271317 -->
<g id="node19" class="node">
<title>Node271317</title>
<g id="a_node19"><a xlink:href="quickjs_8h.html#a775522f2d084fc8fa0fcb33f390006b4" target="_top" xlink:title="JS_DupValue">
<polygon fill="none" stroke="#000000" points="546,-444.3988 546,-463.3988 623,-463.3988 623,-444.3988 546,-444.3988"/>
<text text-anchor="middle" x="584.5" y="-451.3988" font-family="Helvetica,sans-Serif" font-size="10.00" fill="#000000">JS_DupValue</text>
</a>
</g>
</g>
<!-- Node271287&#45;&gt;Node271317 -->
<g id="edge44" class="edge">
<title>Node271287&#45;&gt;Node271317</title>
<path fill="none" stroke="#191970" d="M131.5206,-444.3837C146.0683,-442.5195 161.5524,-440.8488 176,-439.8988 314.8114,-430.7716 350.2572,-429.7832 489,-439.8988 504.2086,-441.0076 520.672,-443.0972 535.5764,-445.3301"/>
<polygon fill="#191970" stroke="#191970" points="535.1925,-448.8123 545.6112,-446.8886 536.2668,-441.8953 535.1925,-448.8123"/>
</g>
<!-- Node271335 -->
<g id="node22" class="node">
<title>Node271335</title>
<g id="a_node22"><a xlink:href="quickjs_8c.html#a9e7b4bccf927d811b0f99b40b08c0472" target="_top" xlink:title="free_var_ref">
<polygon fill="none" stroke="#ff0000" points="550.5,-558.3988 550.5,-577.3988 618.5,-577.3988 618.5,-558.3988 550.5,-558.3988"/>
<text text-anchor="middle" x="584.5" y="-565.3988" font-family="Helvetica,sans-Serif" font-size="10.00" fill="#000000">free_var_ref</text>
</a>
</g>
</g>
<!-- Node271287&#45;&gt;Node271335 -->
<g id="edge30" class="edge">
<title>Node271287&#45;&gt;Node271335</title>
<path fill="none" stroke="#191970" d="M76.8847,-463.4635C92.072,-483.6687 130.7185,-530.3595 176,-548.8988 299.7778,-599.5761 462.6004,-585.9564 539.9712,-575.2274"/>
<polygon fill="#191970" stroke="#191970" points="540.9091,-578.6286 550.3085,-573.7397 539.9119,-571.7 540.9091,-578.6286"/>
</g>
<!-- Node271346 -->
<g id="node23" class="node">
<title>Node271346</title>
<g id="a_node23"><a xlink:href="quickjs_8c.html#a37fe43b6649456a848bd54846450b995" target="_top" xlink:title="get_var_ref">
<polygon fill="none" stroke="#000000" points="219.5,-368.3988 219.5,-387.3988 284.5,-387.3988 284.5,-368.3988 219.5,-368.3988"/>
<text text-anchor="middle" x="252" y="-375.3988" font-family="Helvetica,sans-Serif" font-size="10.00" fill="#000000">get_var_ref</text>
</a>
</g>
</g>
<!-- Node271287&#45;&gt;Node271346 -->
<g id="edge31" class="edge">
<title>Node271287&#45;&gt;Node271346</title>
<path fill="none" stroke="#191970" d="M87.6328,-444.2286C108.372,-433.0963 144.0326,-414.7032 176,-401.8988 186.7193,-397.6053 198.5262,-393.5606 209.5726,-390.0587"/>
<polygon fill="#191970" stroke="#191970" points="210.931,-393.3023 219.4504,-387.0038 208.8627,-386.6148 210.931,-393.3023"/>
</g>
<!-- Node271347 -->
<g id="node24" class="node">
<title>Node271347</title>
<g id="a_node24"><a xlink:href="quickjs_8c.html#a0a8765bd4012467d9139bc24aabcb3ca" target="_top" xlink:title="JS_DefinePropertyValue">
<polygon fill="none" stroke="#000000" points="190,-520.3988 190,-539.3988 314,-539.3988 314,-520.3988 190,-520.3988"/>
<text text-anchor="middle" x="252" y="-527.3988" font-family="Helvetica,sans-Serif" font-size="10.00" fill="#000000">JS_DefinePropertyValue</text>
</a>
</g>
</g>
<!-- Node271287&#45;&gt;Node271347 -->
<g id="edge33" class="edge">
<title>Node271287&#45;&gt;Node271347</title>
<path fill="none" stroke="#191970" d="M87.6328,-463.569C108.372,-474.7013 144.0326,-493.0944 176,-505.8988 186.3259,-510.0348 197.6611,-513.9398 208.3535,-517.3512"/>
<polygon fill="#191970" stroke="#191970" points="207.3565,-520.7064 217.9449,-520.3376 209.4376,-514.0229 207.3565,-520.7064"/>
</g>
<!-- Node271338 -->
<g id="node26" class="node">
<title>Node271338</title>
<g id="a_node26"><a xlink:href="quickjs_8h.html#afaa20c47565bc704c6c85f3d77254e7d" target="_top" xlink:title="JS_FreeValue">
<polygon fill="none" stroke="#ff0000" points="545.5,-596.3988 545.5,-615.3988 623.5,-615.3988 623.5,-596.3988 545.5,-596.3988"/>
<text text-anchor="middle" x="584.5" y="-603.3988" font-family="Helvetica,sans-Serif" font-size="10.00" fill="#000000">JS_FreeValue</text>
</a>
</g>
</g>
<!-- Node271287&#45;&gt;Node271338 -->
<g id="edge45" class="edge">
<title>Node271287&#45;&gt;Node271338</title>
<path fill="none" stroke="#191970" d="M74.7424,-463.6801C87.2723,-488.2848 123.9087,-552.652 176,-578.8988 293.5428,-638.1241 454.789,-625.793 535.0025,-614.4392"/>
<polygon fill="#191970" stroke="#191970" points="535.9218,-617.8417 545.3054,-612.9224 534.9022,-610.9163 535.9218,-617.8417"/>
</g>
<!-- Node271371 -->
<g id="node27" class="node">
<title>Node271371</title>
<g id="a_node27"><a xlink:href="quickjs_8h.html#ad80a83d73e9b7d872b88fbf2943aebe9" target="_top" xlink:title="JS_IsException">
<polygon fill="none" stroke="#000000" points="541.5,-520.3988 541.5,-539.3988 627.5,-539.3988 627.5,-520.3988 541.5,-520.3988"/>
<text text-anchor="middle" x="584.5" y="-527.3988" font-family="Helvetica,sans-Serif" font-size="10.00" fill="#000000">JS_IsException</text>
</a>
</g>
</g>
<!-- Node271287&#45;&gt;Node271371 -->
<g id="edge46" class="edge">
<title>Node271287&#45;&gt;Node271371</title>
<path fill="none" stroke="#191970" d="M111.6376,-463.4118C168.3972,-476.0487 273.373,-498.245 364,-510.8988 420.8394,-518.835 486.4153,-523.9784 531.1835,-526.8862"/>
<polygon fill="#191970" stroke="#191970" points="531.0507,-530.3848 541.2524,-527.5253 531.4942,-523.3988 531.0507,-530.3848"/>
</g>
<!-- Node271413 -->
<g id="node28" class="node">
<title>Node271413</title>
<g id="a_node28"><a xlink:href="quickjs_8h.html#a2050bc428da1c65ac7eb87c3fa3b0392" target="_top" xlink:title="JS_NewInt32">
<polygon fill="none" stroke="#000000" points="546.5,-482.3988 546.5,-501.3988 622.5,-501.3988 622.5,-482.3988 546.5,-482.3988"/>
<text text-anchor="middle" x="584.5" y="-489.3988" font-family="Helvetica,sans-Serif" font-size="10.00" fill="#000000">JS_NewInt32</text>
</a>
</g>
</g>
<!-- Node271287&#45;&gt;Node271413 -->
<g id="edge47" class="edge">
<title>Node271287&#45;&gt;Node271413</title>
<path fill="none" stroke="#191970" d="M140.3271,-453.8531C223.7879,-454.545 367.0162,-458.0846 489,-472.8988 504.4075,-474.7699 521.0471,-477.7428 536.0532,-480.7865"/>
<polygon fill="#191970" stroke="#191970" points="535.6418,-484.2759 546.1459,-482.8923 537.0716,-477.4235 535.6418,-484.2759"/>
</g>
<!-- Node271534 -->
<g id="node29" class="node">
<title>Node271534</title>
<g id="a_node29"><a xlink:href="quickjs_8c.html#a12aed667595f49667e0095f0a028e0d4" target="_top" xlink:title="JS_DefinePropertyValueUint32">
<polygon fill="none" stroke="#ff0000" points="176,-83.3988 176,-102.3988 328,-102.3988 328,-83.3988 176,-83.3988"/>
<text text-anchor="middle" x="252" y="-90.3988" font-family="Helvetica,sans-Serif" font-size="10.00" fill="#000000">JS_DefinePropertyValueUint32</text>
</a>
</g>
</g>
<!-- Node271287&#45;&gt;Node271534 -->
<g id="edge43" class="edge">
<title>Node271287&#45;&gt;Node271534</title>
<path fill="none" stroke="#191970" d="M71.6792,-444.2675C80.6579,-393.8301 124.5187,-160.5958 176,-111.8988 177.5191,-110.4618 179.1299,-109.1289 180.8159,-107.8928"/>
<polygon fill="#191970" stroke="#191970" points="183.0352,-110.642 189.7958,-102.4845 179.4237,-104.6455 183.0352,-110.642"/>
</g>
<!-- Node271492 -->
<g id="node30" class="node">
<title>Node271492</title>
<g id="a_node30"><a xlink:href="quickjs_8c.html#a73738c650f11459db0d7af3dcdf8316b" target="_top" xlink:title="JS_NewObjectProtoClass">
<polygon fill="none" stroke="#ff0000" points="186.5,-121.3988 186.5,-140.3988 317.5,-140.3988 317.5,-121.3988 186.5,-121.3988"/>
<text text-anchor="middle" x="252" y="-128.3988" font-family="Helvetica,sans-Serif" font-size="10.00" fill="#000000">JS_NewObjectProtoClass</text>
</a>
</g>
</g>
<!-- Node271287&#45;&gt;Node271492 -->
<g id="edge48" class="edge">
<title>Node271287&#45;&gt;Node271492</title>
<path fill="none" stroke="#191970" d="M70.2421,-444.237C71.8392,-402.2466 83.9658,-233.9573 176,-149.8988 177.7135,-148.3338 179.5361,-146.893 181.4459,-145.5669"/>
<polygon fill="#191970" stroke="#191970" points="183.3933,-148.4841 190.3078,-140.4566 179.8965,-142.4201 183.3933,-148.4841"/>
</g>
<!-- Node271290 -->
<g id="node4" class="node">
<title>Node271290</title>
<g id="a_node4"><a xlink:href="quickjs_8c.html#a3cadcaa2bd1e3f9359f1c006f396cfa0" target="_top" xlink:title="add_shape_property">
<polygon fill="none" stroke="#000000" points="374.5,-178.3988 374.5,-197.3988 478.5,-197.3988 478.5,-178.3988 374.5,-178.3988"/>
<text text-anchor="middle" x="426.5" y="-185.3988" font-family="Helvetica,sans-Serif" font-size="10.00" fill="#000000">add_shape_property</text>
</a>
</g>
</g>
<!-- Node271289&#45;&gt;Node271290 -->
<g id="edge3" class="edge">
<title>Node271289&#45;&gt;Node271290</title>
<path fill="none" stroke="#191970" d="M288.5809,-172.8818C310.4524,-175.2632 338.8247,-178.3525 364.1444,-181.1094"/>
<polygon fill="#191970" stroke="#191970" points="364.0909,-184.6241 374.4111,-182.2272 364.8487,-177.6653 364.0909,-184.6241"/>
</g>
<!-- Node271295 -->
<g id="node8" class="node">
<title>Node271295</title>
<g id="a_node8"><a xlink:href="quickjs_8c.html#a82dbe63adeac7849406fd48d96f39f7b" target="_top" xlink:title="js_shape_hash_link">
<polygon fill="none" stroke="#000000" points="533.5,-64.3988 533.5,-83.3988 635.5,-83.3988 635.5,-64.3988 533.5,-64.3988"/>
<text text-anchor="middle" x="584.5" y="-71.3988" font-family="Helvetica,sans-Serif" font-size="10.00" fill="#000000">js_shape_hash_link</text>
</a>
</g>
</g>
<!-- Node271289&#45;&gt;Node271295 -->
<g id="edge29" class="edge">
<title>Node271289&#45;&gt;Node271295</title>
<path fill="none" stroke="#191970" d="M288.7966,-170.1179C337.4391,-170.1993 424.509,-164.9422 489,-130.8988 509.5739,-120.0383 505.2984,-105.2714 525,-92.8988 528.3145,-90.8173 531.8772,-88.945 535.5521,-87.2644"/>
<polygon fill="#191970" stroke="#191970" points="536.9061,-90.4921 544.8409,-83.4715 534.2598,-84.0116 536.9061,-90.4921"/>
</g>
<!-- Node271314 -->
<g id="node16" class="node">
<title>Node271314</title>
<g id="a_node16"><a xlink:href="quickjs_8c.html#ac0c5dbb01d6082796c44b1c7f7c170f1" target="_top" xlink:title="find_hashed_shape_prop">
<polygon fill="none" stroke="#000000" points="364,-102.3988 364,-121.3988 489,-121.3988 489,-102.3988 364,-102.3988"/>
<text text-anchor="middle" x="426.5" y="-109.3988" font-family="Helvetica,sans-Serif" font-size="10.00" fill="#000000">find_hashed_shape_prop</text>
</a>
</g>
</g>
<!-- Node271289&#45;&gt;Node271314 -->
<g id="edge16" class="edge">
<title>Node271289&#45;&gt;Node271314</title>
<path fill="none" stroke="#191970" d="M288.5999,-160.7366C301.1841,-157.6697 315.2984,-153.9386 328,-149.8988 344.3598,-144.6955 347.9868,-142.087 364,-135.8988 373.0766,-132.3912 382.9008,-128.611 392.0129,-125.1117"/>
<polygon fill="#191970" stroke="#191970" points="393.4698,-128.3016 401.5519,-121.451 390.9617,-121.7663 393.4698,-128.3016"/>
</g>
<!-- Node271315 -->
<g id="node17" class="node">
<title>Node271315</title>
<g id="a_node17"><a xlink:href="quickjs_8c.html#a8e34657169da77ae6a386311351ed3de" target="_top" xlink:title="js_clone_shape">
<polygon fill="none" stroke="#ff0000" points="384.5,-254.3988 384.5,-273.3988 468.5,-273.3988 468.5,-254.3988 384.5,-254.3988"/>
<text text-anchor="middle" x="426.5" y="-261.3988" font-family="Helvetica,sans-Serif" font-size="10.00" fill="#000000">js_clone_shape</text>
</a>
</g>
</g>
<!-- Node271289&#45;&gt;Node271315 -->
<g id="edge19" class="edge">
<title>Node271289&#45;&gt;Node271315</title>
<path fill="none" stroke="#191970" d="M269.6923,-178.5307C300.4738,-195.2885 364.0322,-229.8905 400.0634,-249.5064"/>
<polygon fill="#191970" stroke="#191970" points="398.564,-252.6751 409.0203,-254.3826 401.911,-246.5271 398.564,-252.6751"/>
</g>
<!-- Node271318 -->
<g id="node20" class="node">
<title>Node271318</title>
<g id="a_node20"><a xlink:href="quickjs_8c.html#aed229eb80b3b03a2275471dee93c69d6" target="_top" xlink:title="js_dup_shape">
<polygon fill="none" stroke="#000000" points="388,-26.3988 388,-45.3988 465,-45.3988 465,-26.3988 388,-26.3988"/>
<text text-anchor="middle" x="426.5" y="-33.3988" font-family="Helvetica,sans-Serif" font-size="10.00" fill="#000000">js_dup_shape</text>
</a>
</g>
</g>
<!-- Node271289&#45;&gt;Node271318 -->
<g id="edge27" class="edge">
<title>Node271289&#45;&gt;Node271318</title>
<path fill="none" stroke="#191970" d="M288.6037,-166.84C302.3444,-164.382 317.2262,-159.4781 328,-149.8988 361.7432,-119.8969 331.0195,-85.7372 364,-54.8988 368.1419,-51.0259 373.0501,-47.9411 378.2672,-45.4842"/>
<polygon fill="#191970" stroke="#191970" points="379.8634,-48.6177 387.8928,-41.7054 377.3054,-42.1018 379.8634,-48.6177"/>
</g>
<!-- Node271319 -->
<g id="node21" class="node">
<title>Node271319</title>
<g id="a_node21"><a xlink:href="quickjs_8c.html#a3a9f27520d96cf58aa5bd7359e9cddee" target="_top" xlink:title="js_free_shape">
<polygon fill="none" stroke="#ff0000" points="388,-64.3988 388,-83.3988 465,-83.3988 465,-64.3988 388,-64.3988"/>
<text text-anchor="middle" x="426.5" y="-71.3988" font-family="Helvetica,sans-Serif" font-size="10.00" fill="#000000">js_free_shape</text>
</a>
</g>
</g>
<!-- Node271289&#45;&gt;Node271319 -->
<g id="edge28" class="edge">
<title>Node271289&#45;&gt;Node271319</title>
<path fill="none" stroke="#191970" d="M288.8285,-165.449C302.1299,-162.7884 316.6497,-158.1091 328,-149.8988 352.2773,-132.3377 340.1706,-111.063 364,-92.8988 368.3406,-89.5901 373.258,-86.854 378.3819,-84.592"/>
<polygon fill="#191970" stroke="#191970" points="379.657,-87.8517 387.7479,-81.0114 377.1574,-81.3132 379.657,-87.8517"/>
</g>
<!-- Node271291 -->
<g id="node5" class="node">
<title>Node271291</title>
<g id="a_node5"><a xlink:href="quickjs_8c.html#a288254c06a39c9fca740a7abdad2834e" target="_top" xlink:title="__JS_AtomIsTaggedInt">
<polygon fill="none" stroke="#000000" points="525,-368.3988 525,-387.3988 644,-387.3988 644,-368.3988 525,-368.3988"/>
<text text-anchor="middle" x="584.5" y="-375.3988" font-family="Helvetica,sans-Serif" font-size="10.00" fill="#000000">__JS_AtomIsTaggedInt</text>
</a>
</g>
</g>
<!-- Node271290&#45;&gt;Node271291 -->
<g id="edge4" class="edge">
<title>Node271290&#45;&gt;Node271291</title>
<path fill="none" stroke="#191970" d="M440.9376,-197.5811C455.0965,-207.7837 476.3474,-225.0995 489,-244.8988 517.6112,-289.6706 487.4898,-321.2678 525,-358.8988 526.4641,-360.3676 528.0415,-361.723 529.7071,-362.9737"/>
<polygon fill="#191970" stroke="#191970" points="528.288,-366.2062 538.6542,-368.3955 531.9159,-360.2196 528.288,-366.2062"/>
</g>
<!-- Node271292 -->
<g id="node6" class="node">
<title>Node271292</title>
<g id="a_node6"><a xlink:href="quickjs_8c.html#a643df594b75933007bcdbb071b5ea8c5" target="_top" xlink:title="get_shape_prop">
<polygon fill="none" stroke="#000000" points="541.5,-330.3988 541.5,-349.3988 627.5,-349.3988 627.5,-330.3988 541.5,-330.3988"/>
<text text-anchor="middle" x="584.5" y="-337.3988" font-family="Helvetica,sans-Serif" font-size="10.00" fill="#000000">get_shape_prop</text>
</a>
</g>
</g>
<!-- Node271290&#45;&gt;Node271292 -->
<g id="edge5" class="edge">
<title>Node271290&#45;&gt;Node271292</title>
<path fill="none" stroke="#191970" d="M439.8691,-197.5741C453.5818,-208.027 474.8519,-225.7723 489,-244.8988 511.227,-274.9471 496.8702,-296.2888 525,-320.8988 527.2188,-322.84 529.6375,-324.5832 532.1885,-326.1485"/>
<polygon fill="#191970" stroke="#191970" points="530.7791,-329.3593 541.2735,-330.8146 533.9772,-323.1325 530.7791,-329.3593"/>
</g>
<!-- Node271293 -->
<g id="node7" class="node">
<title>Node271293</title>
<g id="a_node7"><a xlink:href="quickjs_8c.html#abbf44eaeace1104a6bef718fbf5700fe" target="_top" xlink:title="JS_DupAtom">
<polygon fill="none" stroke="#ff0000" points="547,-140.3988 547,-159.3988 622,-159.3988 622,-140.3988 547,-140.3988"/>
<text text-anchor="middle" x="584.5" y="-147.3988" font-family="Helvetica,sans-Serif" font-size="10.00" fill="#000000">JS_DupAtom</text>
</a>
</g>
</g>
<!-- Node271290&#45;&gt;Node271293 -->
<g id="edge6" class="edge">
<title>Node271290&#45;&gt;Node271293</title>
<path fill="none" stroke="#191970" d="M466.3701,-178.3098C487.7748,-173.1618 514.3069,-166.7807 536.8004,-161.3708"/>
<polygon fill="#191970" stroke="#191970" points="537.9139,-164.7029 546.8182,-158.9615 536.277,-157.897 537.9139,-164.7029"/>
</g>
<!-- Node271290&#45;&gt;Node271295 -->
<g id="edge7" class="edge">
<title>Node271290&#45;&gt;Node271295</title>
<path fill="none" stroke="#191970" d="M464.715,-178.298C473.4039,-174.8077 482.0963,-170.128 489,-163.8988 515.2678,-140.1974 498.0612,-115.8347 525,-92.8988 526.9867,-91.2073 529.1257,-89.6659 531.3706,-88.2613"/>
<polygon fill="#191970" stroke="#191970" points="533.2281,-91.2393 540.4574,-83.4942 529.976,-85.0406 533.2281,-91.2393"/>
</g>
<!-- Node271297 -->
<g id="node10" class="node">
<title>Node271297</title>
<g id="a_node10"><a xlink:href="quickjs_8c.html#ae5e76f4be6214208cc91f10a192fc810" target="_top" xlink:title="js_shape_hash_unlink">
<polygon fill="none" stroke="#000000" points="528,-102.3988 528,-121.3988 641,-121.3988 641,-102.3988 528,-102.3988"/>
<text text-anchor="middle" x="584.5" y="-109.3988" font-family="Helvetica,sans-Serif" font-size="10.00" fill="#000000">js_shape_hash_unlink</text>
</a>
</g>
</g>
<!-- Node271290&#45;&gt;Node271297 -->
<g id="edge9" class="edge">
<title>Node271290&#45;&gt;Node271297</title>
<path fill="none" stroke="#191970" d="M458.1064,-178.375C468.3515,-174.6151 479.5124,-169.7719 489,-163.8988 507.4553,-152.4745 506.2237,-141.7874 525,-130.8988 528.6408,-128.7874 532.5453,-126.8795 536.5499,-125.162"/>
<polygon fill="#191970" stroke="#191970" points="537.9432,-128.3756 545.9984,-121.4935 535.4096,-121.8502 537.9432,-128.3756"/>
</g>
<!-- Node271298 -->
<g id="node11" class="node">
<title>Node271298</title>
<g id="a_node11"><a xlink:href="quickjs_8c.html#aa80740ff93b724ea7e0c280826f4a25a" target="_top" xlink:title="resize_properties">
<polygon fill="none" stroke="#ff0000" points="539,-216.3988 539,-235.3988 630,-235.3988 630,-216.3988 539,-216.3988"/>
<text text-anchor="middle" x="584.5" y="-223.3988" font-family="Helvetica,sans-Serif" font-size="10.00" fill="#000000">resize_properties</text>
</a>
</g>
</g>
<!-- Node271290&#45;&gt;Node271298 -->
<g id="edge11" class="edge">
<title>Node271290&#45;&gt;Node271298</title>
<path fill="none" stroke="#191970" d="M466.3701,-197.4878C487.2199,-202.5023 512.9346,-208.6869 535.0429,-214.0041"/>
<polygon fill="#191970" stroke="#191970" points="534.3754,-217.4432 544.9166,-216.3787 536.0123,-210.6373 534.3754,-217.4432"/>
</g>
<!-- Node271313 -->
<g id="node15" class="node">
<title>Node271313</title>
<g id="a_node15"><a xlink:href="quickjs_8c.html#a11f047846c1027dc6066a5f1b2ef292a" target="_top" xlink:title="shape_hash">
<polygon fill="none" stroke="#000000" points="550,-26.3988 550,-45.3988 619,-45.3988 619,-26.3988 550,-26.3988"/>
<text text-anchor="middle" x="584.5" y="-33.3988" font-family="Helvetica,sans-Serif" font-size="10.00" fill="#000000">shape_hash</text>
</a>
</g>
</g>
<!-- Node271290&#45;&gt;Node271313 -->
<g id="edge15" class="edge">
<title>Node271290&#45;&gt;Node271313</title>
<path fill="none" stroke="#191970" d="M439.8691,-178.2235C453.5818,-167.7706 474.8519,-150.0253 489,-130.8988 511.227,-100.8505 496.8702,-79.5088 525,-54.8988 529.4963,-50.9651 534.8131,-47.8445 540.389,-45.3693"/>
<polygon fill="#191970" stroke="#191970" points="541.7917,-48.5811 549.9182,-41.7833 539.3262,-42.0297 541.7917,-48.5811"/>
</g>
<!-- Node271296 -->
<g id="node9" class="node">
<title>Node271296</title>
<g id="a_node9"><a xlink:href="quickjs_8c.html#a8291bf195606b5d1b0faed795b6dc3ff" target="_top" xlink:title="get_shape_hash">
<polygon fill="none" stroke="#000000" points="692,-64.3988 692,-83.3988 780,-83.3988 780,-64.3988 692,-64.3988"/>
<text text-anchor="middle" x="736" y="-71.3988" font-family="Helvetica,sans-Serif" font-size="10.00" fill="#000000">get_shape_hash</text>
</a>
</g>
</g>
<!-- Node271295&#45;&gt;Node271296 -->
<g id="edge8" class="edge">
<title>Node271295&#45;&gt;Node271296</title>
<path fill="none" stroke="#191970" d="M635.791,-73.8988C650.5773,-73.8988 666.7566,-73.8988 681.7179,-73.8988"/>
<polygon fill="#191970" stroke="#191970" points="681.8491,-77.3989 691.8491,-73.8988 681.8491,-70.3989 681.8491,-77.3989"/>
</g>
<!-- Node271297&#45;&gt;Node271296 -->
<g id="edge10" class="edge">
<title>Node271297&#45;&gt;Node271296</title>
<path fill="none" stroke="#191970" d="M622.7298,-102.3098C642.6319,-97.3179 667.1567,-91.1664 688.2909,-85.8654"/>
<polygon fill="#191970" stroke="#191970" points="689.1971,-89.2466 698.0451,-83.4188 687.494,-82.457 689.1971,-89.2466"/>
</g>
<!-- Node271299 -->
<g id="node12" class="node">
<title>Node271299</title>
<g id="a_node12"><a xlink:href="quickjs_8c.html#a7da0cfa6f27af0e1b9599d7f359edbe2" target="_top" xlink:title="get_alloc_from_shape">
<polygon fill="none" stroke="#000000" points="680,-245.3988 680,-264.3988 792,-264.3988 792,-245.3988 680,-245.3988"/>
<text text-anchor="middle" x="736" y="-252.3988" font-family="Helvetica,sans-Serif" font-size="10.00" fill="#000000">get_alloc_from_shape</text>
</a>
</g>
</g>
<!-- Node271298&#45;&gt;Node271299 -->
<g id="edge12" class="edge">
<title>Node271298&#45;&gt;Node271299</title>
<path fill="none" stroke="#191970" d="M630.3661,-234.6784C644.8687,-237.4545 661.1118,-240.5638 676.4291,-243.4958"/>
<polygon fill="#191970" stroke="#191970" points="675.8537,-246.9491 686.3334,-245.3917 677.1698,-240.0739 675.8537,-246.9491"/>
</g>
<!-- Node271300 -->
<g id="node13" class="node">
<title>Node271300</title>
<g id="a_node13"><a xlink:href="quickjs_8c.html#a8b6c89e0f589df709eb31a92b7fac32a" target="_top" xlink:title="get_shape_from_alloc">
<polygon fill="none" stroke="#000000" points="680,-188.3988 680,-207.3988 792,-207.3988 792,-188.3988 680,-188.3988"/>
<text text-anchor="middle" x="736" y="-195.3988" font-family="Helvetica,sans-Serif" font-size="10.00" fill="#000000">get_shape_from_alloc</text>
</a>
</g>
</g>
<!-- Node271298&#45;&gt;Node271300 -->
<g id="edge13" class="edge">
<title>Node271298&#45;&gt;Node271300</title>
<path fill="none" stroke="#191970" d="M630.3661,-217.4219C644.2353,-214.8586 659.6962,-212.0011 674.4169,-209.2805"/>
<polygon fill="#191970" stroke="#191970" points="675.2639,-212.6833 684.4613,-207.4241 673.9917,-205.7999 675.2639,-212.6833"/>
</g>
<!-- Node271309 -->
<g id="node14" class="node">
<title>Node271309</title>
<g id="a_node14"><a xlink:href="list_8h.html#a3a5d0733570b2fafc18f4c71a2968ea5" target="_top" xlink:title="list_add_tail">
<polygon fill="none" stroke="#ff0000" points="702,-292.3988 702,-311.3988 770,-311.3988 770,-292.3988 702,-292.3988"/>
<text text-anchor="middle" x="736" y="-299.3988" font-family="Helvetica,sans-Serif" font-size="10.00" fill="#000000">list_add_tail</text>
</a>
</g>
</g>
<!-- Node271298&#45;&gt;Node271309 -->
<g id="edge14" class="edge">
<title>Node271298&#45;&gt;Node271309</title>
<path fill="none" stroke="#191970" d="M603.5195,-235.473C622.789,-245.1696 653.4583,-260.5932 680,-273.8988 688.9914,-278.4062 698.7991,-283.3134 707.6583,-287.7423"/>
<polygon fill="#191970" stroke="#191970" points="706.3059,-290.9792 716.8157,-292.319 709.4354,-284.7176 706.3059,-290.9792"/>
</g>
<!-- Node271314&#45;&gt;Node271296 -->
<g id="edge17" class="edge">
<title>Node271314&#45;&gt;Node271296</title>
<path fill="none" stroke="#191970" d="M473.8045,-102.2703C479.3044,-99.8218 484.5345,-96.7508 489,-92.8988 517.301,-68.4859 493.4172,-36.8854 525,-16.8988 569.6917,11.3835 593.1322,-2.4179 644,-16.8988 671.9541,-24.8567 699.7164,-44.0091 717.3123,-57.9219"/>
<polygon fill="#191970" stroke="#191970" points="715.1265,-60.6557 725.0898,-64.259 719.5481,-55.229 715.1265,-60.6557"/>
</g>
<!-- Node271314&#45;&gt;Node271313 -->
<g id="edge18" class="edge">
<title>Node271314&#45;&gt;Node271313</title>
<path fill="none" stroke="#191970" d="M468.8166,-102.3089C475.8335,-99.8119 482.8265,-96.7159 489,-92.8988 508.7875,-80.6641 505.2984,-67.2714 525,-54.8988 529.7063,-51.9432 534.9129,-49.4095 540.2309,-47.2473"/>
<polygon fill="#191970" stroke="#191970" points="541.6424,-50.4581 549.8395,-43.7455 539.2455,-43.8813 541.6424,-50.4581"/>
</g>
<!-- Node271315&#45;&gt;Node271292 -->
<g id="edge24" class="edge">
<title>Node271315&#45;&gt;Node271292</title>
<path fill="none" stroke="#191970" d="M440.6686,-273.4127C459.3578,-285.6494 493.5656,-306.9799 525,-320.8988 530.0196,-323.1214 535.3807,-325.208 540.752,-327.1254"/>
<polygon fill="#191970" stroke="#191970" points="539.7654,-330.4866 550.3598,-330.387 542.0156,-323.8582 539.7654,-330.4866"/>
</g>
<!-- Node271315&#45;&gt;Node271293 -->
<g id="edge25" class="edge">
<title>Node271315&#45;&gt;Node271293</title>
<path fill="none" stroke="#191970" d="M437.1238,-254.2249C449.5655,-242.8923 470.792,-223.5469 489,-206.8988 505.0186,-192.2525 506.6411,-185.4774 525,-173.8988 531.2829,-169.9363 538.33,-166.4097 545.3169,-163.3606"/>
<polygon fill="#191970" stroke="#191970" points="546.8039,-166.5338 554.7296,-159.5029 544.1493,-160.0567 546.8039,-166.5338"/>
</g>
<!-- Node271315&#45;&gt;Node271299 -->
<g id="edge22" class="edge">
<title>Node271315&#45;&gt;Node271299</title>
<path fill="none" stroke="#191970" d="M468.5626,-262.6756C520.2783,-261.1718 608.6664,-258.6015 669.589,-256.83"/>
<polygon fill="#191970" stroke="#191970" points="669.9801,-260.3202 679.8741,-256.5309 669.7766,-253.3231 669.9801,-260.3202"/>
</g>
<!-- Node271315&#45;&gt;Node271300 -->
<g id="edge23" class="edge">
<title>Node271315&#45;&gt;Node271300</title>
<path fill="none" stroke="#191970" d="M438.6579,-254.2166C456.4177,-240.7197 491.0468,-216.7951 525,-206.8988 571.9903,-193.2026 627.3484,-191.3431 669.5699,-192.6999"/>
<polygon fill="#191970" stroke="#191970" points="669.6049,-196.2038 679.7337,-193.0963 669.8777,-189.2091 669.6049,-196.2038"/>
</g>
<!-- Node271316 -->
<g id="node18" class="node">
<title>Node271316</title>
<g id="a_node18"><a xlink:href="quickjs_8c.html#a9780456a71703c53244b88831bc8fb7a" target="_top" xlink:title="add_gc_object">
<polygon fill="none" stroke="#000000" points="544.5,-292.3988 544.5,-311.3988 624.5,-311.3988 624.5,-292.3988 544.5,-292.3988"/>
<text text-anchor="middle" x="584.5" y="-299.3988" font-family="Helvetica,sans-Serif" font-size="10.00" fill="#000000">add_gc_object</text>
</a>
</g>
</g>
<!-- Node271315&#45;&gt;Node271316 -->
<g id="edge20" class="edge">
<title>Node271315&#45;&gt;Node271316</title>
<path fill="none" stroke="#191970" d="M466.3701,-273.4878C487.2199,-278.5023 512.9346,-284.6869 535.0429,-290.0041"/>
<polygon fill="#191970" stroke="#191970" points="534.3754,-293.4432 544.9166,-292.3787 536.0123,-286.6373 534.3754,-293.4432"/>
</g>
<!-- Node271315&#45;&gt;Node271317 -->
<g id="edge26" class="edge">
<title>Node271315&#45;&gt;Node271317</title>
<path fill="none" stroke="#191970" d="M432.8998,-273.6769C447.8742,-296.2867 486.8246,-353.5615 525,-396.8988 537.7533,-411.3766 553.5842,-426.4208 565.7097,-437.416"/>
<polygon fill="#191970" stroke="#191970" points="563.6432,-440.2635 573.4289,-444.3244 568.3114,-435.0474 563.6432,-440.2635"/>
</g>
<!-- Node271316&#45;&gt;Node271309 -->
<g id="edge21" class="edge">
<title>Node271316&#45;&gt;Node271309</title>
<path fill="none" stroke="#191970" d="M624.7015,-301.8988C645.343,-301.8988 670.539,-301.8988 691.7344,-301.8988"/>
<polygon fill="#191970" stroke="#191970" points="691.7806,-305.3989 701.7805,-301.8988 691.7805,-298.3989 691.7806,-305.3989"/>
</g>
<!-- Node271346&#45;&gt;Node271309 -->
<g id="edge32" class="edge">
<title>Node271346&#45;&gt;Node271309</title>
<path fill="none" stroke="#191970" d="M281.045,-387.5506C348.1588,-408.1408 517.897,-450.3213 644,-396.8988 680.7895,-381.3132 710.0747,-343.0177 725.0577,-320.0898"/>
<polygon fill="#191970" stroke="#191970" points="728.0455,-321.9134 730.4184,-311.5877 722.1243,-318.1799 728.0455,-321.9134"/>
</g>
<!-- Node271348 -->
<g id="node25" class="node">
<title>Node271348</title>
<g id="a_node25"><a xlink:href="quickjs_8c.html#ab50618f1bf78e444caa6da0e3e2785d7" target="_top" xlink:title="JS_DefineProperty">
<polygon fill="none" stroke="#ff0000" points="377,-482.3988 377,-501.3988 476,-501.3988 476,-482.3988 377,-482.3988"/>
<text text-anchor="middle" x="426.5" y="-489.3988" font-family="Helvetica,sans-Serif" font-size="10.00" fill="#000000">JS_DefineProperty</text>
</a>
</g>
</g>
<!-- Node271347&#45;&gt;Node271348 -->
<g id="edge34" class="edge">
<title>Node271347&#45;&gt;Node271348</title>
<path fill="none" stroke="#191970" d="M296.0337,-520.3098C319.3721,-515.2275 348.2296,-508.9434 372.8658,-503.5784"/>
<polygon fill="#191970" stroke="#191970" points="373.7567,-506.9666 382.7829,-501.4188 372.2672,-500.1269 373.7567,-506.9666"/>
</g>
<!-- Node271347&#45;&gt;Node271338 -->
<g id="edge42" class="edge">
<title>Node271347&#45;&gt;Node271338</title>
<path fill="none" stroke="#191970" d="M293.7747,-539.4473C355.281,-553.5059 469.9728,-579.7211 535.4119,-594.6787"/>
<polygon fill="#191970" stroke="#191970" points="534.9474,-598.1627 545.4759,-596.979 536.5072,-591.3387 534.9474,-598.1627"/>
</g>
<!-- Node271348&#45;&gt;Node271291 -->
<g id="edge35" class="edge">
<title>Node271348&#45;&gt;Node271291</title>
<path fill="none" stroke="#191970" d="M439.6992,-482.3753C466.9326,-462.7259 529.5788,-417.5255 562.8375,-393.5287"/>
<polygon fill="#191970" stroke="#191970" points="564.9418,-396.3264 571.0034,-387.6368 560.846,-390.6497 564.9418,-396.3264"/>
</g>
<!-- Node271348&#45;&gt;Node271292 -->
<g id="edge37" class="edge">
<title>Node271348&#45;&gt;Node271292</title>
<path fill="none" stroke="#191970" d="M430.9673,-482.2483C442.7524,-457.8447 477.1018,-393.1817 525,-358.8988 527.6894,-356.9738 530.5826,-355.2379 533.5928,-353.6732"/>
<polygon fill="#191970" stroke="#191970" points="535.2147,-356.7812 542.8876,-349.4752 532.3334,-350.4016 535.2147,-356.7812"/>
</g>
<!-- Node271348&#45;&gt;Node271317 -->
<g id="edge38" class="edge">
<title>Node271348&#45;&gt;Node271317</title>
<path fill="none" stroke="#191970" d="M466.3701,-482.3098C487.4577,-477.2381 513.5219,-470.9695 535.7981,-465.6119"/>
<polygon fill="#191970" stroke="#191970" points="536.8308,-468.9634 545.7351,-463.222 535.1938,-462.1575 536.8308,-468.9634"/>
</g>
<!-- Node271348&#45;&gt;Node271335 -->
<g id="edge36" class="edge">
<title>Node271348&#45;&gt;Node271335</title>
<path fill="none" stroke="#191970" d="M440.6686,-501.4127C459.3578,-513.6494 493.5656,-534.9799 525,-548.8988 530.0196,-551.1214 535.3807,-553.208 540.752,-555.1254"/>
<polygon fill="#191970" stroke="#191970" points="539.7654,-558.4866 550.3598,-558.387 542.0156,-551.8582 539.7654,-558.4866"/>
</g>
<!-- Node271348&#45;&gt;Node271338 -->
<g id="edge39" class="edge">
<title>Node271348&#45;&gt;Node271338</title>
<path fill="none" stroke="#191970" d="M433.8369,-501.4649C448.8915,-520.461 485.2208,-563.1511 525,-586.8988 528.4624,-588.9658 532.1745,-590.8333 535.9906,-592.5155"/>
<polygon fill="#191970" stroke="#191970" points="535.0215,-595.8961 545.6077,-596.3237 537.5987,-589.3878 535.0215,-595.8961"/>
</g>
<!-- Node271348&#45;&gt;Node271371 -->
<g id="edge40" class="edge">
<title>Node271348&#45;&gt;Node271371</title>
<path fill="none" stroke="#191970" d="M466.3701,-501.4878C487.2199,-506.5023 512.9346,-512.6869 535.0429,-518.0041"/>
<polygon fill="#191970" stroke="#191970" points="534.3754,-521.4432 544.9166,-520.3787 536.0123,-514.6373 534.3754,-521.4432"/>
</g>
<!-- Node271348&#45;&gt;Node271413 -->
<g id="edge41" class="edge">
<title>Node271348&#45;&gt;Node271413</title>
<path fill="none" stroke="#191970" d="M476.0587,-491.8988C495.225,-491.8988 517.0892,-491.8988 536.1403,-491.8988"/>
<polygon fill="#191970" stroke="#191970" points="536.3998,-495.3989 546.3997,-491.8988 536.3997,-488.3989 536.3998,-495.3989"/>
</g>
<!-- Node271492&#45;&gt;Node271318 -->
<g id="edge49" class="edge">
<title>Node271492&#45;&gt;Node271318</title>
<path fill="none" stroke="#191970" d="M310.1215,-121.3819C316.4834,-118.9114 322.6003,-115.8047 328,-111.8988 352.2773,-94.3377 340.1706,-73.063 364,-54.8988 368.3406,-51.5901 373.258,-48.854 378.3819,-46.592"/>
<polygon fill="#191970" stroke="#191970" points="379.657,-49.8517 387.7479,-43.0114 377.1574,-43.3132 379.657,-49.8517"/>
</g>
</g>
</svg>
