<?xml version="1.0" encoding="UTF-8" standalone="no"?>
<!DOCTYPE svg PUBLIC "-//W3C//DTD SVG 1.1//EN"
 "http://www.w3.org/Graphics/SVG/1.1/DTD/svg11.dtd">
<!-- Generated by graphviz version 2.40.1 (20161225.0304)
 -->
<!-- Title: is_main_thread Pages: 1 -->
<svg width="432pt" height="66pt"
 viewBox="0.00 0.00 432.00 66.00" xmlns="http://www.w3.org/2000/svg" xmlns:xlink="http://www.w3.org/1999/xlink">
<g id="graph0" class="graph" transform="scale(1 1) rotate(0) translate(4 62)">
<title>is_main_thread</title>
<!-- Node16105 -->
<g id="node1" class="node">
<title>Node16105</title>
<polygon fill="#bfbfbf" stroke="#000000" points="0,-19.5 0,-38.5 83,-38.5 83,-19.5 0,-19.5"/>
<text text-anchor="middle" x="41.5" y="-26.5" font-family="Helvetica,sans-Serif" font-size="10.00" fill="#000000">is_main_thread</text>
</g>
<!-- Node16106 -->
<g id="node2" class="node">
<title>Node16106</title>
<g id="a_node2"><a xlink:href="quickjs-libc_8c.html#a87465e0686e72ba005afdf9f31a1cbf7" target="_top" xlink:title="js_os_signal">
<polygon fill="none" stroke="#000000" points="123.5,-38.5 123.5,-57.5 194.5,-57.5 194.5,-38.5 123.5,-38.5"/>
<text text-anchor="middle" x="159" y="-45.5" font-family="Helvetica,sans-Serif" font-size="10.00" fill="#000000">js_os_signal</text>
</a>
</g>
</g>
<!-- Node16105&#45;&gt;Node16106 -->
<g id="edge1" class="edge">
<title>Node16105&#45;&gt;Node16106</title>
<path fill="none" stroke="#191970" d="M93.2369,-37.366C103.3561,-39.0023 113.7568,-40.6841 123.2151,-42.2135"/>
<polygon fill="#191970" stroke="#191970" points="93.6874,-33.8934 83.2569,-35.7522 92.57,-40.8037 93.6874,-33.8934"/>
</g>
<!-- Node16107 -->
<g id="node3" class="node">
<title>Node16107</title>
<g id="a_node3"><a xlink:href="quickjs-libc_8c.html#aff1e6131e8bf8b7eb25307623ad669e7" target="_top" xlink:title="js_worker_ctor">
<polygon fill="none" stroke="#000000" points="119,-.5 119,-19.5 199,-19.5 199,-.5 119,-.5"/>
<text text-anchor="middle" x="159" y="-7.5" font-family="Helvetica,sans-Serif" font-size="10.00" fill="#000000">js_worker_ctor</text>
</a>
</g>
</g>
<!-- Node16105&#45;&gt;Node16107 -->
<g id="edge2" class="edge">
<title>Node16105&#45;&gt;Node16107</title>
<path fill="none" stroke="#191970" d="M93.2369,-20.634C101.857,-19.2402 110.6813,-17.8132 118.9534,-16.4756"/>
<polygon fill="#191970" stroke="#191970" points="92.57,-17.1963 83.2569,-22.2478 93.6874,-24.1066 92.57,-17.1963"/>
</g>
<!-- Node16108 -->
<g id="node4" class="node">
<title>Node16108</title>
<g id="a_node4"><a xlink:href="quickjs-libc_8c.html#a066e7962ce24f22d5df20968a8baa346" target="_top" xlink:title="js_os_init">
<polygon fill="none" stroke="#000000" points="235,-.5 235,-19.5 293,-19.5 293,-.5 235,-.5"/>
<text text-anchor="middle" x="264" y="-7.5" font-family="Helvetica,sans-Serif" font-size="10.00" fill="#000000">js_os_init</text>
</a>
</g>
</g>
<!-- Node16107&#45;&gt;Node16108 -->
<g id="edge3" class="edge">
<title>Node16107&#45;&gt;Node16108</title>
<path fill="none" stroke="#191970" d="M209.3994,-10C218.0852,-10 226.8478,-10 234.7342,-10"/>
<polygon fill="#191970" stroke="#191970" points="209.2955,-6.5001 199.2954,-10 209.2954,-13.5001 209.2955,-6.5001"/>
</g>
<!-- Node16109 -->
<g id="node5" class="node">
<title>Node16109</title>
<g id="a_node5"><a xlink:href="quickjs-libc_8c.html#adcca2b4a661355e6ff87a0def2339894" target="_top" xlink:title="js_init_module_os">
<polygon fill="none" stroke="#ff0000" points="329,-.5 329,-19.5 424,-19.5 424,-.5 329,-.5"/>
<text text-anchor="middle" x="376.5" y="-7.5" font-family="Helvetica,sans-Serif" font-size="10.00" fill="#000000">js_init_module_os</text>
</a>
</g>
</g>
<!-- Node16108&#45;&gt;Node16109 -->
<g id="edge4" class="edge">
<title>Node16108&#45;&gt;Node16109</title>
<path fill="none" stroke="#191970" d="M303.2908,-10C311.4764,-10 320.1906,-10 328.6459,-10"/>
<polygon fill="#191970" stroke="#191970" points="303.2644,-6.5001 293.2644,-10 303.2643,-13.5001 303.2644,-6.5001"/>
</g>
</g>
</svg>
