<?xml version="1.0" encoding="UTF-8" standalone="no"?>
<!DOCTYPE svg PUBLIC "-//W3C//DTD SVG 1.1//EN"
 "http://www.w3.org/Graphics/SVG/1.1/DTD/svg11.dtd">
<!-- Generated by graphviz version 2.40.1 (20161225.0304)
 -->
<!-- Title: add_var_this Pages: 1 -->
<svg width="424pt" height="104pt"
 viewBox="0.00 0.00 424.00 104.00" xmlns="http://www.w3.org/2000/svg" xmlns:xlink="http://www.w3.org/1999/xlink">
<g id="graph0" class="graph" transform="scale(1 1) rotate(0) translate(4 100)">
<title>add_var_this</title>
<!-- Node348638 -->
<g id="node1" class="node">
<title>Node348638</title>
<polygon fill="#bfbfbf" stroke="#000000" points="0,-38.5 0,-57.5 72,-57.5 72,-38.5 0,-38.5"/>
<text text-anchor="middle" x="36" y="-45.5" font-family="Helvetica,sans-Serif" font-size="10.00" fill="#000000">add_var_this</text>
</g>
<!-- Node348639 -->
<g id="node2" class="node">
<title>Node348639</title>
<g id="a_node2"><a xlink:href="quickjs_8c.html#ab2e0855c4317f8e3b05c0a091bc43a29" target="_top" xlink:title="add_var">
<polygon fill="none" stroke="#000000" points="108,-38.5 108,-57.5 159,-57.5 159,-38.5 108,-38.5"/>
<text text-anchor="middle" x="133.5" y="-45.5" font-family="Helvetica,sans-Serif" font-size="10.00" fill="#000000">add_var</text>
</a>
</g>
</g>
<!-- Node348638&#45;&gt;Node348639 -->
<g id="edge1" class="edge">
<title>Node348638&#45;&gt;Node348639</title>
<path fill="none" stroke="#191970" d="M72.0284,-48C80.4196,-48 89.3515,-48 97.7315,-48"/>
<polygon fill="#191970" stroke="#191970" points="97.9686,-51.5001 107.9686,-48 97.9686,-44.5001 97.9686,-51.5001"/>
</g>
<!-- Node348640 -->
<g id="node3" class="node">
<title>Node348640</title>
<g id="a_node3"><a xlink:href="quickjs_8c.html#a853f0924d441ea4225488f37c8b69f9a" target="_top" xlink:title="__attribute__">
<polygon fill="none" stroke="#000000" points="200,-76.5 200,-95.5 273,-95.5 273,-76.5 200,-76.5"/>
<text text-anchor="middle" x="236.5" y="-83.5" font-family="Helvetica,sans-Serif" font-size="10.00" fill="#000000">__attribute__</text>
</a>
</g>
</g>
<!-- Node348639&#45;&gt;Node348640 -->
<g id="edge2" class="edge">
<title>Node348639&#45;&gt;Node348640</title>
<path fill="none" stroke="#191970" d="M159.2256,-57.491C171.8838,-62.161 187.3411,-67.8637 201.0954,-72.9381"/>
<polygon fill="#191970" stroke="#191970" points="200.1521,-76.3206 210.7454,-76.4983 202.575,-69.7533 200.1521,-76.3206"/>
</g>
<!-- Node348641 -->
<g id="node4" class="node">
<title>Node348641</title>
<g id="a_node4"><a xlink:href="quickjs_8c.html#abbf44eaeace1104a6bef718fbf5700fe" target="_top" xlink:title="JS_DupAtom">
<polygon fill="none" stroke="#000000" points="199,-38.5 199,-57.5 274,-57.5 274,-38.5 199,-38.5"/>
<text text-anchor="middle" x="236.5" y="-45.5" font-family="Helvetica,sans-Serif" font-size="10.00" fill="#000000">JS_DupAtom</text>
</a>
</g>
</g>
<!-- Node348639&#45;&gt;Node348641 -->
<g id="edge3" class="edge">
<title>Node348639&#45;&gt;Node348641</title>
<path fill="none" stroke="#191970" d="M159.2256,-48C168.1634,-48 178.4968,-48 188.6408,-48"/>
<polygon fill="#191970" stroke="#191970" points="188.663,-51.5001 198.663,-48 188.663,-44.5001 188.663,-51.5001"/>
</g>
<!-- Node348643 -->
<g id="node6" class="node">
<title>Node348643</title>
<g id="a_node6"><a xlink:href="quickjs_8c.html#afa610f3175e9cb11fdceac95071099b5" target="_top" xlink:title="js_resize_array">
<polygon fill="none" stroke="#000000" points="195,-.5 195,-19.5 278,-19.5 278,-.5 195,-.5"/>
<text text-anchor="middle" x="236.5" y="-7.5" font-family="Helvetica,sans-Serif" font-size="10.00" fill="#000000">js_resize_array</text>
</a>
</g>
</g>
<!-- Node348639&#45;&gt;Node348643 -->
<g id="edge5" class="edge">
<title>Node348639&#45;&gt;Node348643</title>
<path fill="none" stroke="#191970" d="M159.2256,-38.509C171.8838,-33.839 187.3411,-28.1363 201.0954,-23.0619"/>
<polygon fill="#191970" stroke="#191970" points="202.575,-26.2467 210.7454,-19.5017 200.1521,-19.6794 202.575,-26.2467"/>
</g>
<!-- Node348642 -->
<g id="node5" class="node">
<title>Node348642</title>
<g id="a_node5"><a xlink:href="quickjs_8c.html#a7f6796ee7a195631366f57c713a33f65" target="_top" xlink:title="__JS_AtomIsConst">
<polygon fill="none" stroke="#000000" points="314,-38.5 314,-57.5 416,-57.5 416,-38.5 314,-38.5"/>
<text text-anchor="middle" x="365" y="-45.5" font-family="Helvetica,sans-Serif" font-size="10.00" fill="#000000">__JS_AtomIsConst</text>
</a>
</g>
</g>
<!-- Node348641&#45;&gt;Node348642 -->
<g id="edge4" class="edge">
<title>Node348641&#45;&gt;Node348642</title>
<path fill="none" stroke="#191970" d="M274.013,-48C283.3469,-48 293.5972,-48 303.7475,-48"/>
<polygon fill="#191970" stroke="#191970" points="303.8269,-51.5001 313.8269,-48 303.8268,-44.5001 303.8269,-51.5001"/>
</g>
</g>
</svg>
