<?xml version="1.0" encoding="UTF-8" standalone="no"?>
<!DOCTYPE svg PUBLIC "-//W3C//DTD SVG 1.1//EN"
 "http://www.w3.org/Graphics/SVG/1.1/DTD/svg11.dtd">
<!-- Generated by graphviz version 2.40.1 (20161225.0304)
 -->
<!-- Title: quickjs/quickjs&#45;libc.h Pages: 1 -->
<svg width="210pt" height="140pt"
 viewBox="0.00 0.00 210.00 140.00" xmlns="http://www.w3.org/2000/svg" xmlns:xlink="http://www.w3.org/1999/xlink">
<g id="graph0" class="graph" transform="scale(1 1) rotate(0) translate(4 136)">
<title>quickjs/quickjs&#45;libc.h</title>
<!-- Node5 -->
<g id="node1" class="node">
<title>Node5</title>
<polygon fill="#bfbfbf" stroke="#000000" points="40,-112.5 40,-131.5 147,-131.5 147,-112.5 40,-112.5"/>
<text text-anchor="middle" x="93.5" y="-119.5" font-family="Helvetica,sans-Serif" font-size="10.00" fill="#000000">quickjs/quickjs&#45;libc.h</text>
</g>
<!-- Node6 -->
<g id="node2" class="node">
<title>Node6</title>
<g id="a_node2"><a xlink:href="quickjspp_8hpp.html" target="_top" xlink:title="quickjspp.hpp">
<polygon fill="none" stroke="#000000" points="0,-56.5 0,-75.5 77,-75.5 77,-56.5 0,-56.5"/>
<text text-anchor="middle" x="38.5" y="-63.5" font-family="Helvetica,sans-Serif" font-size="10.00" fill="#000000">quickjspp.hpp</text>
</a>
</g>
</g>
<!-- Node5&#45;&gt;Node6 -->
<g id="edge1" class="edge">
<title>Node5&#45;&gt;Node6</title>
<path fill="none" stroke="#191970" d="M76.8774,-105.0751C67.4145,-95.4402 55.9031,-83.7196 47.9705,-75.6427"/>
<polygon fill="#191970" stroke="#191970" points="74.4155,-107.5635 83.9197,-112.2455 79.4097,-102.6585 74.4155,-107.5635"/>
</g>
<!-- Node8 -->
<g id="node4" class="node">
<title>Node8</title>
<g id="a_node4"><a xlink:href="quickjs-libc_8c.html" target="_top" xlink:title="quickjs/quickjs&#45;libc.c">
<polygon fill="none" stroke="#000000" points="95,-56.5 95,-75.5 202,-75.5 202,-56.5 95,-56.5"/>
<text text-anchor="middle" x="148.5" y="-63.5" font-family="Helvetica,sans-Serif" font-size="10.00" fill="#000000">quickjs/quickjs&#45;libc.c</text>
</a>
</g>
</g>
<!-- Node5&#45;&gt;Node8 -->
<g id="edge3" class="edge">
<title>Node5&#45;&gt;Node8</title>
<path fill="none" stroke="#191970" d="M110.1226,-105.0751C119.5855,-95.4402 131.0969,-83.7196 139.0295,-75.6427"/>
<polygon fill="#191970" stroke="#191970" points="107.5903,-102.6585 103.0803,-112.2455 112.5845,-107.5635 107.5903,-102.6585"/>
</g>
<!-- Node7 -->
<g id="node3" class="node">
<title>Node7</title>
<g id="a_node3"><a xlink:href="qjs_8cpp.html" target="_top" xlink:title="qjs.cpp">
<polygon fill="none" stroke="#000000" points="14.5,-.5 14.5,-19.5 62.5,-19.5 62.5,-.5 14.5,-.5"/>
<text text-anchor="middle" x="38.5" y="-7.5" font-family="Helvetica,sans-Serif" font-size="10.00" fill="#000000">qjs.cpp</text>
</a>
</g>
</g>
<!-- Node6&#45;&gt;Node7 -->
<g id="edge2" class="edge">
<title>Node6&#45;&gt;Node7</title>
<path fill="none" stroke="#191970" d="M38.5,-46.1575C38.5,-37.155 38.5,-26.9199 38.5,-19.6427"/>
<polygon fill="#191970" stroke="#191970" points="35.0001,-46.2455 38.5,-56.2455 42.0001,-46.2456 35.0001,-46.2455"/>
</g>
</g>
</svg>
