<?xml version="1.0" encoding="UTF-8" standalone="no"?>
<!DOCTYPE svg PUBLIC "-//W3C//DTD SVG 1.1//EN"
 "http://www.w3.org/Graphics/SVG/1.1/DTD/svg11.dtd">
<!-- Generated by graphviz version 2.40.1 (20161225.0304)
 -->
<!-- Title: string_get_hex Pages: 1 -->
<svg width="183pt" height="66pt"
 viewBox="0.00 0.00 183.00 66.00" xmlns="http://www.w3.org/2000/svg" xmlns:xlink="http://www.w3.org/1999/xlink">
<g id="graph0" class="graph" transform="scale(1 1) rotate(0) translate(4 62)">
<title>string_get_hex</title>
<!-- Node460824 -->
<g id="node1" class="node">
<title>Node460824</title>
<polygon fill="#bfbfbf" stroke="#000000" points="0,-19.5 0,-38.5 80,-38.5 80,-19.5 0,-19.5"/>
<text text-anchor="middle" x="40" y="-26.5" font-family="Helvetica,sans-Serif" font-size="10.00" fill="#000000">string_get_hex</text>
</g>
<!-- Node460825 -->
<g id="node2" class="node">
<title>Node460825</title>
<g id="a_node2"><a xlink:href="cutils_8h.html#a6dbaeca250de641ec4e4530808f69df8" target="_top" xlink:title="from_hex">
<polygon fill="none" stroke="#000000" points="117,-38.5 117,-57.5 174,-57.5 174,-38.5 117,-38.5"/>
<text text-anchor="middle" x="145.5" y="-45.5" font-family="Helvetica,sans-Serif" font-size="10.00" fill="#000000">from_hex</text>
</a>
</g>
</g>
<!-- Node460824&#45;&gt;Node460825 -->
<g id="edge1" class="edge">
<title>Node460824&#45;&gt;Node460825</title>
<path fill="none" stroke="#191970" d="M80.186,-36.2373C88.9752,-37.8202 98.2586,-39.4921 106.9809,-41.0629"/>
<polygon fill="#191970" stroke="#191970" points="106.4371,-44.5212 116.8991,-42.8491 107.6778,-37.632 106.4371,-44.5212"/>
</g>
<!-- Node460826 -->
<g id="node3" class="node">
<title>Node460826</title>
<g id="a_node3"><a xlink:href="quickjs_8c.html#a80398f847e2e83c2613b638719bf6fda" target="_top" xlink:title="string_get">
<polygon fill="none" stroke="#000000" points="116,-.5 116,-19.5 175,-19.5 175,-.5 116,-.5"/>
<text text-anchor="middle" x="145.5" y="-7.5" font-family="Helvetica,sans-Serif" font-size="10.00" fill="#000000">string_get</text>
</a>
</g>
</g>
<!-- Node460824&#45;&gt;Node460826 -->
<g id="edge2" class="edge">
<title>Node460824&#45;&gt;Node460826</title>
<path fill="none" stroke="#191970" d="M80.186,-21.7627C88.6313,-20.2418 97.5328,-18.6386 105.9544,-17.122"/>
<polygon fill="#191970" stroke="#191970" points="106.7047,-20.5432 115.926,-15.3261 105.464,-13.6541 106.7047,-20.5432"/>
</g>
</g>
</svg>
