<?xml version="1.0" encoding="UTF-8" standalone="no"?>
<!DOCTYPE svg PUBLIC "-//W3C//DTD SVG 1.1//EN"
 "http://www.w3.org/Graphics/SVG/1.1/DTD/svg11.dtd">
<!-- Generated by graphviz version 2.40.1 (20161225.0304)
 -->
<!-- Title: JS_DeletePropertyInt64 Pages: 1 -->
<svg width="650pt" height="208pt"
 viewBox="0.00 0.00 650.00 208.00" xmlns="http://www.w3.org/2000/svg" xmlns:xlink="http://www.w3.org/1999/xlink">
<g id="graph0" class="graph" transform="scale(1 1) rotate(0) translate(4 204)">
<title>JS_DeletePropertyInt64</title>
<!-- Node221699 -->
<g id="node1" class="node">
<title>Node221699</title>
<polygon fill="#bfbfbf" stroke="#000000" points="0,-76.5 0,-95.5 121,-95.5 121,-76.5 0,-76.5"/>
<text text-anchor="middle" x="60.5" y="-83.5" font-family="Helvetica,sans-Serif" font-size="10.00" fill="#000000">JS_DeletePropertyInt64</text>
</g>
<!-- Node221700 -->
<g id="node2" class="node">
<title>Node221700</title>
<g id="a_node2"><a xlink:href="quickjs_8c.html#a01281ea66186a034a0e9021ee8c9f945" target="_top" xlink:title="js_array_pop">
<polygon fill="none" stroke="#000000" points="307.5,-180.5 307.5,-199.5 379.5,-199.5 379.5,-180.5 307.5,-180.5"/>
<text text-anchor="middle" x="343.5" y="-187.5" font-family="Helvetica,sans-Serif" font-size="10.00" fill="#000000">js_array_pop</text>
</a>
</g>
</g>
<!-- Node221699&#45;&gt;Node221700 -->
<g id="edge1" class="edge">
<title>Node221699&#45;&gt;Node221700</title>
<path fill="none" stroke="#191970" d="M82.4015,-101.4152C101.3675,-114.1448 129.9369,-131.8692 157,-143 207.3359,-163.7027 269.1813,-177.0961 307.4728,-184.0951"/>
<polygon fill="#191970" stroke="#191970" points="84.1432,-98.3664 73.911,-95.6182 80.196,-104.1475 84.1432,-98.3664"/>
</g>
<!-- Node221704 -->
<g id="node5" class="node">
<title>Node221704</title>
<g id="a_node5"><a xlink:href="quickjs_8c.html#a8235fb13f196d6ef5002daed858b7eeb" target="_top" xlink:title="js_array_reverse">
<polygon fill="none" stroke="#000000" points="161.5,-38.5 161.5,-57.5 250.5,-57.5 250.5,-38.5 161.5,-38.5"/>
<text text-anchor="middle" x="206" y="-45.5" font-family="Helvetica,sans-Serif" font-size="10.00" fill="#000000">js_array_reverse</text>
</a>
</g>
</g>
<!-- Node221699&#45;&gt;Node221704 -->
<g id="edge5" class="edge">
<title>Node221699&#45;&gt;Node221704</title>
<path fill="none" stroke="#191970" d="M107.1532,-73.8157C127.3534,-68.54 150.6481,-62.4562 169.5482,-57.5201"/>
<polygon fill="#191970" stroke="#191970" points="106.0068,-70.4976 97.2158,-76.411 107.7757,-77.2704 106.0068,-70.4976"/>
</g>
<!-- Node221705 -->
<g id="node6" class="node">
<title>Node221705</title>
<g id="a_node6"><a xlink:href="quickjs_8c.html#a70b7ec8358ab99b905686d5bf80950cc" target="_top" xlink:title="js_array_slice">
<polygon fill="none" stroke="#000000" points="305,-66.5 305,-85.5 382,-85.5 382,-66.5 305,-66.5"/>
<text text-anchor="middle" x="343.5" y="-73.5" font-family="Helvetica,sans-Serif" font-size="10.00" fill="#000000">js_array_slice</text>
</a>
</g>
</g>
<!-- Node221699&#45;&gt;Node221705 -->
<g id="edge6" class="edge">
<title>Node221699&#45;&gt;Node221705</title>
<path fill="none" stroke="#191970" d="M131.2199,-83.5011C186.0776,-81.5626 260.0517,-78.9487 304.6255,-77.3737"/>
<polygon fill="#191970" stroke="#191970" points="131.0807,-80.0037 121.2106,-83.8547 131.328,-86.9993 131.0807,-80.0037"/>
</g>
<!-- Node221706 -->
<g id="node7" class="node">
<title>Node221706</title>
<g id="a_node7"><a xlink:href="quickjs_8c.html#a874518d6b2fb6ff79531c4a9652202f3" target="_top" xlink:title="js_array_sort">
<polygon fill="none" stroke="#000000" points="169.5,-.5 169.5,-19.5 242.5,-19.5 242.5,-.5 169.5,-.5"/>
<text text-anchor="middle" x="206" y="-7.5" font-family="Helvetica,sans-Serif" font-size="10.00" fill="#000000">js_array_sort</text>
</a>
</g>
</g>
<!-- Node221699&#45;&gt;Node221706 -->
<g id="edge7" class="edge">
<title>Node221699&#45;&gt;Node221706</title>
<path fill="none" stroke="#191970" d="M83.7726,-70.7909C102.9576,-58.6141 131.1237,-41.5546 157,-29 163.9776,-25.6146 171.7236,-22.3827 178.9585,-19.5756"/>
<polygon fill="#191970" stroke="#191970" points="81.6545,-67.9912 75.1254,-76.3352 85.4328,-73.884 81.6545,-67.9912"/>
</g>
<!-- Node221707 -->
<g id="node8" class="node">
<title>Node221707</title>
<g id="a_node8"><a xlink:href="quickjs_8c.html#a6c99d7581e100a5de07c9a24f4c7d34a" target="_top" xlink:title="JS_CopySubArray">
<polygon fill="none" stroke="#000000" points="157,-114.5 157,-133.5 255,-133.5 255,-114.5 157,-114.5"/>
<text text-anchor="middle" x="206" y="-121.5" font-family="Helvetica,sans-Serif" font-size="10.00" fill="#000000">JS_CopySubArray</text>
</a>
</g>
</g>
<!-- Node221699&#45;&gt;Node221707 -->
<g id="edge8" class="edge">
<title>Node221699&#45;&gt;Node221707</title>
<path fill="none" stroke="#191970" d="M107.1532,-98.1843C127.3534,-103.46 150.6481,-109.5438 169.5482,-114.4799"/>
<polygon fill="#191970" stroke="#191970" points="107.7757,-94.7296 97.2158,-95.589 106.0068,-101.5024 107.7757,-94.7296"/>
</g>
<!-- Node221701 -->
<g id="node3" class="node">
<title>Node221701</title>
<g id="a_node3"><a xlink:href="quickjs_8c.html#a60d84dd116a9d7d912d08f298a4734dd" target="_top" xlink:title="js_json_to_str">
<polygon fill="none" stroke="#000000" points="432,-161.5 432,-180.5 509,-180.5 509,-161.5 432,-161.5"/>
<text text-anchor="middle" x="470.5" y="-168.5" font-family="Helvetica,sans-Serif" font-size="10.00" fill="#000000">js_json_to_str</text>
</a>
</g>
</g>
<!-- Node221700&#45;&gt;Node221701 -->
<g id="edge2" class="edge">
<title>Node221700&#45;&gt;Node221701</title>
<path fill="none" stroke="#191970" d="M389.7956,-183.0739C403.5481,-181.0164 418.4649,-178.7848 431.6895,-176.8063"/>
<polygon fill="#191970" stroke="#191970" points="388.9254,-179.665 379.5534,-184.6062 389.9612,-186.588 388.9254,-179.665"/>
</g>
<!-- Node221701&#45;&gt;Node221701 -->
<g id="edge3" class="edge">
<title>Node221701&#45;&gt;Node221701</title>
<path fill="none" stroke="#191970" d="M447.8066,-190.0292C449.0445,-195.128 456.6089,-199 470.5,-199 492.1836,-199 498.4515,-189.5653 489.3037,-180.7571"/>
<polygon fill="#191970" stroke="#191970" points="451.0553,-191.3325 451.6963,-180.7571 444.6003,-188.6246 451.0553,-191.3325"/>
</g>
<!-- Node221702 -->
<g id="node4" class="node">
<title>Node221702</title>
<g id="a_node4"><a xlink:href="quickjs_8c.html#a343a343b16bc3c9875050e99ee0d2884" target="_top" xlink:title="JS_JSONStringify">
<polygon fill="none" stroke="#ff0000" points="545,-161.5 545,-180.5 642,-180.5 642,-161.5 545,-161.5"/>
<text text-anchor="middle" x="593.5" y="-168.5" font-family="Helvetica,sans-Serif" font-size="10.00" fill="#000000">JS_JSONStringify</text>
</a>
</g>
</g>
<!-- Node221701&#45;&gt;Node221702 -->
<g id="edge4" class="edge">
<title>Node221701&#45;&gt;Node221702</title>
<path fill="none" stroke="#191970" d="M519.1116,-171C527.5085,-171 536.2409,-171 544.6442,-171"/>
<polygon fill="#191970" stroke="#191970" points="519.0805,-167.5001 509.0805,-171 519.0805,-174.5001 519.0805,-167.5001"/>
</g>
<!-- Node221707&#45;&gt;Node221700 -->
<g id="edge9" class="edge">
<title>Node221707&#45;&gt;Node221700</title>
<path fill="none" stroke="#191970" d="M230.1948,-138.7207C246.9229,-148.5618 269.8829,-161.413 291,-171 298.5022,-174.4059 306.8103,-177.6448 314.5621,-180.452"/>
<polygon fill="#191970" stroke="#191970" points="231.9774,-135.7087 221.5939,-133.603 228.3979,-141.7243 231.9774,-135.7087"/>
</g>
<!-- Node221707&#45;&gt;Node221705 -->
<g id="edge12" class="edge">
<title>Node221707&#45;&gt;Node221705</title>
<path fill="none" stroke="#191970" d="M242.9444,-111.103C265.9623,-103.0677 295.0814,-92.9025 316.0529,-85.5815"/>
<polygon fill="#191970" stroke="#191970" points="241.7824,-107.8015 233.4947,-114.4018 244.0895,-114.4104 241.7824,-107.8015"/>
</g>
<!-- Node221708 -->
<g id="node9" class="node">
<title>Node221708</title>
<g id="a_node9"><a xlink:href="quickjs_8c.html#a3d640b89712ebda808c0c3eca9849674" target="_top" xlink:title="js_array_push">
<polygon fill="none" stroke="#000000" points="305,-142.5 305,-161.5 382,-161.5 382,-142.5 305,-142.5"/>
<text text-anchor="middle" x="343.5" y="-149.5" font-family="Helvetica,sans-Serif" font-size="10.00" fill="#000000">js_array_push</text>
</a>
</g>
</g>
<!-- Node221707&#45;&gt;Node221708 -->
<g id="edge10" class="edge">
<title>Node221707&#45;&gt;Node221708</title>
<path fill="none" stroke="#191970" d="M263.0633,-135.6202C277.1859,-138.496 291.9863,-141.5099 304.9857,-144.1571"/>
<polygon fill="#191970" stroke="#191970" points="263.4324,-132.1236 252.9351,-133.5577 262.0356,-138.9828 263.4324,-132.1236"/>
</g>
<!-- Node221709 -->
<g id="node10" class="node">
<title>Node221709</title>
<g id="a_node10"><a xlink:href="quickjs_8c.html#a93380da0068e066053740a43c8d8f15a" target="_top" xlink:title="js_array_copyWithin">
<polygon fill="none" stroke="#000000" points="291,-104.5 291,-123.5 396,-123.5 396,-104.5 291,-104.5"/>
<text text-anchor="middle" x="343.5" y="-111.5" font-family="Helvetica,sans-Serif" font-size="10.00" fill="#000000">js_array_copyWithin</text>
</a>
</g>
</g>
<!-- Node221707&#45;&gt;Node221709 -->
<g id="edge13" class="edge">
<title>Node221707&#45;&gt;Node221709</title>
<path fill="none" stroke="#191970" d="M265.4416,-119.677C273.9018,-119.0617 282.5537,-118.4325 290.8718,-117.8275"/>
<polygon fill="#191970" stroke="#191970" points="264.972,-116.2018 255.2523,-120.418 265.4798,-123.1833 264.972,-116.2018"/>
</g>
<!-- Node221708&#45;&gt;Node221701 -->
<g id="edge11" class="edge">
<title>Node221708&#45;&gt;Node221701</title>
<path fill="none" stroke="#191970" d="M392.5407,-159.3368C405.6041,-161.2912 419.5297,-163.3745 431.9433,-165.2317"/>
<polygon fill="#191970" stroke="#191970" points="392.7021,-155.8221 382.2943,-157.8039 391.6663,-162.745 392.7021,-155.8221"/>
</g>
</g>
</svg>
