<?xml version="1.0" encoding="UTF-8" standalone="no"?>
<!DOCTYPE svg PUBLIC "-//W3C//DTD SVG 1.1//EN"
 "http://www.w3.org/Graphics/SVG/1.1/DTD/svg11.dtd">
<!-- Generated by graphviz version 2.40.1 (20161225.0304)
 -->
<!-- Title: js_array_cmp_generic Pages: 1 -->
<svg width="531pt" height="199pt"
 viewBox="0.00 0.00 531.00 199.00" xmlns="http://www.w3.org/2000/svg" xmlns:xlink="http://www.w3.org/1999/xlink">
<g id="graph0" class="graph" transform="scale(1 1) rotate(0) translate(4 195)">
<title>js_array_cmp_generic</title>
<!-- Node398942 -->
<g id="node1" class="node">
<title>Node398942</title>
<polygon fill="#bfbfbf" stroke="#000000" points="0,-57.5 0,-76.5 112,-76.5 112,-57.5 0,-57.5"/>
<text text-anchor="middle" x="56" y="-64.5" font-family="Helvetica,sans-Serif" font-size="10.00" fill="#000000">js_array_cmp_generic</text>
</g>
<!-- Node398943 -->
<g id="node2" class="node">
<title>Node398943</title>
<g id="a_node2"><a xlink:href="quickjs_8h.html#ad80a83d73e9b7d872b88fbf2943aebe9" target="_top" xlink:title="JS_IsException">
<polygon fill="none" stroke="#000000" points="430.5,-76.5 430.5,-95.5 516.5,-95.5 516.5,-76.5 430.5,-76.5"/>
<text text-anchor="middle" x="473.5" y="-83.5" font-family="Helvetica,sans-Serif" font-size="10.00" fill="#000000">JS_IsException</text>
</a>
</g>
</g>
<!-- Node398942&#45;&gt;Node398943 -->
<g id="edge1" class="edge">
<title>Node398942&#45;&gt;Node398943</title>
<path fill="none" stroke="#191970" d="M112.3059,-69.5624C193.1445,-73.2413 341.0463,-79.9722 420.1896,-83.5739"/>
<polygon fill="#191970" stroke="#191970" points="420.2728,-87.0812 430.4216,-84.0395 420.5911,-80.0885 420.2728,-87.0812"/>
</g>
<!-- Node398944 -->
<g id="node3" class="node">
<title>Node398944</title>
<g id="a_node3"><a xlink:href="quickjs_8c.html#a3d9b165d4274aa43e051caba9bcbbe9f" target="_top" xlink:title="js_string_compare">
<polygon fill="none" stroke="#000000" points="148.5,-114.5 148.5,-133.5 244.5,-133.5 244.5,-114.5 148.5,-114.5"/>
<text text-anchor="middle" x="196.5" y="-121.5" font-family="Helvetica,sans-Serif" font-size="10.00" fill="#000000">js_string_compare</text>
</a>
</g>
</g>
<!-- Node398942&#45;&gt;Node398944 -->
<g id="edge2" class="edge">
<title>Node398942&#45;&gt;Node398944</title>
<path fill="none" stroke="#191970" d="M79.5165,-76.5405C102.514,-85.8705 137.7404,-100.1616 163.5299,-110.6242"/>
<polygon fill="#191970" stroke="#191970" points="162.3245,-113.9122 172.9067,-114.4284 164.9561,-107.4257 162.3245,-113.9122"/>
</g>
<!-- Node398949 -->
<g id="node8" class="node">
<title>Node398949</title>
<g id="a_node8"><a xlink:href="quickjs_8c.html#ab1b614ef35f1cea05da0ad4927c53118" target="_top" xlink:title="JS_ToFloat64Free">
<polygon fill="none" stroke="#000000" points="148,-38.5 148,-57.5 245,-57.5 245,-38.5 148,-38.5"/>
<text text-anchor="middle" x="196.5" y="-45.5" font-family="Helvetica,sans-Serif" font-size="10.00" fill="#000000">JS_ToFloat64Free</text>
</a>
</g>
</g>
<!-- Node398942&#45;&gt;Node398949 -->
<g id="edge7" class="edge">
<title>Node398942&#45;&gt;Node398949</title>
<path fill="none" stroke="#191970" d="M112.3372,-59.3815C120.6957,-58.2511 129.3279,-57.0838 137.7346,-55.9469"/>
<polygon fill="#191970" stroke="#191970" points="138.4027,-59.3885 147.8435,-54.5799 137.4646,-52.4517 138.4027,-59.3885"/>
</g>
<!-- Node399006 -->
<g id="node11" class="node">
<title>Node399006</title>
<g id="a_node11"><a xlink:href="quickjs_8c.html#a7bcb8e1a20cbc8374a5f9ba4a2088cec" target="_top" xlink:title="JS_ToString">
<polygon fill="none" stroke="#ff0000" points="161,-.5 161,-19.5 232,-19.5 232,-.5 161,-.5"/>
<text text-anchor="middle" x="196.5" y="-7.5" font-family="Helvetica,sans-Serif" font-size="10.00" fill="#000000">JS_ToString</text>
</a>
</g>
</g>
<!-- Node398942&#45;&gt;Node399006 -->
<g id="edge11" class="edge">
<title>Node398942&#45;&gt;Node399006</title>
<path fill="none" stroke="#191970" d="M79.0157,-57.3566C97.5963,-49.6045 124.433,-38.4824 148,-29 152.5828,-27.1561 157.4181,-25.234 162.1895,-23.351"/>
<polygon fill="#191970" stroke="#191970" points="163.7644,-26.4927 171.7922,-19.5786 161.2049,-19.9775 163.7644,-26.4927"/>
</g>
<!-- Node398945 -->
<g id="node4" class="node">
<title>Node398945</title>
<g id="a_node4"><a xlink:href="quickjs_8c.html#aa3b85ecf2f1fbd87cb38b78548286017" target="_top" xlink:title="js_string_memcmp">
<polygon fill="none" stroke="#000000" points="285,-152.5 285,-171.5 384,-171.5 384,-152.5 285,-152.5"/>
<text text-anchor="middle" x="334.5" y="-159.5" font-family="Helvetica,sans-Serif" font-size="10.00" fill="#000000">js_string_memcmp</text>
</a>
</g>
</g>
<!-- Node398944&#45;&gt;Node398945 -->
<g id="edge3" class="edge">
<title>Node398944&#45;&gt;Node398945</title>
<path fill="none" stroke="#191970" d="M231.3232,-133.589C249.1377,-138.4944 271.0184,-144.5196 290.0389,-149.7571"/>
<polygon fill="#191970" stroke="#191970" points="289.1175,-153.1336 299.6879,-152.4141 290.976,-146.3848 289.1175,-153.1336"/>
</g>
<!-- Node398948 -->
<g id="node7" class="node">
<title>Node398948</title>
<g id="a_node7"><a xlink:href="cutils_8h.html#a29a7a26d9387c01c1b4e9fe4fff5704a" target="_top" xlink:title="min_int">
<polygon fill="none" stroke="#000000" points="310.5,-114.5 310.5,-133.5 358.5,-133.5 358.5,-114.5 310.5,-114.5"/>
<text text-anchor="middle" x="334.5" y="-121.5" font-family="Helvetica,sans-Serif" font-size="10.00" fill="#000000">min_int</text>
</a>
</g>
</g>
<!-- Node398944&#45;&gt;Node398948 -->
<g id="edge6" class="edge">
<title>Node398944&#45;&gt;Node398948</title>
<path fill="none" stroke="#191970" d="M244.7657,-124C263.0007,-124 283.3656,-124 300.0797,-124"/>
<polygon fill="#191970" stroke="#191970" points="300.4771,-127.5001 310.477,-124 300.477,-120.5001 300.4771,-127.5001"/>
</g>
<!-- Node398946 -->
<g id="node5" class="node">
<title>Node398946</title>
<g id="a_node5"><a xlink:href="quickjs_8c.html#a98e9fec451d6851cae6d0d92ea860a26" target="_top" xlink:title="memcmp16">
<polygon fill="none" stroke="#000000" points="439.5,-171.5 439.5,-190.5 507.5,-190.5 507.5,-171.5 439.5,-171.5"/>
<text text-anchor="middle" x="473.5" y="-178.5" font-family="Helvetica,sans-Serif" font-size="10.00" fill="#000000">memcmp16</text>
</a>
</g>
</g>
<!-- Node398945&#45;&gt;Node398946 -->
<g id="edge4" class="edge">
<title>Node398945&#45;&gt;Node398946</title>
<path fill="none" stroke="#191970" d="M384.2896,-168.8058C398.9578,-170.8108 414.903,-172.9903 429.202,-174.9449"/>
<polygon fill="#191970" stroke="#191970" points="428.8993,-178.436 439.2812,-176.3226 429.8473,-171.5005 428.8993,-178.436"/>
</g>
<!-- Node398947 -->
<g id="node6" class="node">
<title>Node398947</title>
<g id="a_node6"><a xlink:href="quickjs_8c.html#add253cbbb280615066466e7fb8bef776" target="_top" xlink:title="memcmp16_8">
<polygon fill="none" stroke="#000000" points="434.5,-133.5 434.5,-152.5 512.5,-152.5 512.5,-133.5 434.5,-133.5"/>
<text text-anchor="middle" x="473.5" y="-140.5" font-family="Helvetica,sans-Serif" font-size="10.00" fill="#000000">memcmp16_8</text>
</a>
</g>
</g>
<!-- Node398945&#45;&gt;Node398947 -->
<g id="edge5" class="edge">
<title>Node398945&#45;&gt;Node398947</title>
<path fill="none" stroke="#191970" d="M384.2896,-155.1942C397.1978,-153.4298 411.0949,-151.5302 423.9888,-149.7677"/>
<polygon fill="#191970" stroke="#191970" points="424.6424,-153.211 434.0762,-148.3889 423.6943,-146.2755 424.6424,-153.211"/>
</g>
<!-- Node398950 -->
<g id="node9" class="node">
<title>Node398950</title>
<g id="a_node9"><a xlink:href="quickjs_8c.html#a9a2e141f21d9ea38a3a23c9b4eb6e356" target="_top" xlink:title="__JS_ToFloat64Free">
<polygon fill="none" stroke="#000000" points="281,-38.5 281,-57.5 388,-57.5 388,-38.5 281,-38.5"/>
<text text-anchor="middle" x="334.5" y="-45.5" font-family="Helvetica,sans-Serif" font-size="10.00" fill="#000000">__JS_ToFloat64Free</text>
</a>
</g>
</g>
<!-- Node398949&#45;&gt;Node398950 -->
<g id="edge8" class="edge">
<title>Node398949&#45;&gt;Node398950</title>
<path fill="none" stroke="#191970" d="M245.1536,-48C253.3186,-48 261.901,-48 270.3844,-48"/>
<polygon fill="#191970" stroke="#191970" points="270.6485,-51.5001 280.6485,-48 270.6485,-44.5001 270.6485,-51.5001"/>
</g>
<!-- Node398950&#45;&gt;Node398943 -->
<g id="edge9" class="edge">
<title>Node398950&#45;&gt;Node398943</title>
<path fill="none" stroke="#191970" d="M369.5756,-57.589C387.5191,-62.4944 409.5584,-68.5196 428.7167,-73.7571"/>
<polygon fill="#191970" stroke="#191970" points="427.8666,-77.1531 438.4357,-76.4141 429.7126,-70.4008 427.8666,-77.1531"/>
</g>
<!-- Node398951 -->
<g id="node10" class="node">
<title>Node398951</title>
<g id="a_node10"><a xlink:href="quickjs_8c.html#ae738291483438efefca5c9fa4d269504" target="_top" xlink:title="JS_ToNumberFree">
<polygon fill="none" stroke="#ff0000" points="424,-38.5 424,-57.5 523,-57.5 523,-38.5 424,-38.5"/>
<text text-anchor="middle" x="473.5" y="-45.5" font-family="Helvetica,sans-Serif" font-size="10.00" fill="#000000">JS_ToNumberFree</text>
</a>
</g>
</g>
<!-- Node398950&#45;&gt;Node398951 -->
<g id="edge10" class="edge">
<title>Node398950&#45;&gt;Node398951</title>
<path fill="none" stroke="#191970" d="M388.241,-48C396.6052,-48 405.2907,-48 413.7778,-48"/>
<polygon fill="#191970" stroke="#191970" points="413.9969,-51.5001 423.9968,-48 413.9968,-44.5001 413.9969,-51.5001"/>
</g>
</g>
</svg>
