<?xml version="1.0" encoding="UTF-8" standalone="no"?>
<!DOCTYPE svg PUBLIC "-//W3C//DTD SVG 1.1//EN"
 "http://www.w3.org/Graphics/SVG/1.1/DTD/svg11.dtd">
<!-- Generated by graphviz version 2.40.1 (20161225.0304)
 -->
<!-- Title: js_bytecode_function_finalizer Pages: 1 -->
<svg width="584pt" height="143pt"
 viewBox="0.00 0.00 584.00 142.83" xmlns="http://www.w3.org/2000/svg" xmlns:xlink="http://www.w3.org/1999/xlink">
<g id="graph0" class="graph" transform="scale(1 1) rotate(0) translate(4 138.8274)">
<title>js_bytecode_function_finalizer</title>
<!-- Node148332 -->
<g id="node1" class="node">
<title>Node148332</title>
<polygon fill="#bfbfbf" stroke="#000000" points="0,-52.8274 0,-82.8274 109,-82.8274 109,-52.8274 0,-52.8274"/>
<text text-anchor="start" x="8" y="-70.8274" font-family="Helvetica,sans-Serif" font-size="10.00" fill="#000000">js_bytecode_function</text>
<text text-anchor="middle" x="54.5" y="-59.8274" font-family="Helvetica,sans-Serif" font-size="10.00" fill="#000000">_finalizer</text>
</g>
<!-- Node148333 -->
<g id="node2" class="node">
<title>Node148333</title>
<g id="a_node2"><a xlink:href="quickjs_8c.html#a9e7b4bccf927d811b0f99b40b08c0472" target="_top" xlink:title="free_var_ref">
<polygon fill="none" stroke="#000000" points="145,-58.3274 145,-77.3274 213,-77.3274 213,-58.3274 145,-58.3274"/>
<text text-anchor="middle" x="179" y="-65.3274" font-family="Helvetica,sans-Serif" font-size="10.00" fill="#000000">free_var_ref</text>
</a>
</g>
</g>
<!-- Node148332&#45;&gt;Node148333 -->
<g id="edge1" class="edge">
<title>Node148332&#45;&gt;Node148333</title>
<path fill="none" stroke="#191970" d="M109.1075,-67.8274C117.6521,-67.8274 126.3918,-67.8274 134.6693,-67.8274"/>
<polygon fill="#191970" stroke="#191970" points="134.8577,-71.3275 144.8576,-67.8274 134.8576,-64.3275 134.8577,-71.3275"/>
</g>
<!-- Node148334 -->
<g id="node3" class="node">
<title>Node148334</title>
<g id="a_node3"><a xlink:href="quickjs_8c.html#a69e19dda8a93d613203e0baa06f0ed8d" target="_top" xlink:title="js_free_rt">
<polygon fill="none" stroke="#000000" points="519,-1.3274 519,-20.3274 576,-20.3274 576,-1.3274 519,-1.3274"/>
<text text-anchor="middle" x="547.5" y="-8.3274" font-family="Helvetica,sans-Serif" font-size="10.00" fill="#000000">js_free_rt</text>
</a>
</g>
</g>
<!-- Node148332&#45;&gt;Node148334 -->
<g id="edge9" class="edge">
<title>Node148332&#45;&gt;Node148334</title>
<path fill="none" stroke="#191970" d="M92.905,-52.7979C131.6342,-38.4049 193.4714,-17.492 249,-7.8274 306.8574,2.2426 322.2879,-3.161 381,-1.8274 426.3216,-.7979 437.7755,1.3126 483,-1.8274 491.3396,-2.4064 500.2423,-3.4017 508.6871,-4.5245"/>
<polygon fill="#191970" stroke="#191970" points="508.301,-8.0046 518.6923,-5.938 509.2802,-1.0735 508.301,-8.0046"/>
</g>
<!-- Node148335 -->
<g id="node4" class="node">
<title>Node148335</title>
<g id="a_node4"><a xlink:href="quickjs_8h.html#ab8db583fa5e7c2b1935854a42859daed" target="_top" xlink:title="JS_FreeValueRT">
<polygon fill="none" stroke="#000000" points="251,-115.3274 251,-134.3274 343,-134.3274 343,-115.3274 251,-115.3274"/>
<text text-anchor="middle" x="297" y="-122.3274" font-family="Helvetica,sans-Serif" font-size="10.00" fill="#000000">JS_FreeValueRT</text>
</a>
</g>
</g>
<!-- Node148332&#45;&gt;Node148335 -->
<g id="edge10" class="edge">
<title>Node148332&#45;&gt;Node148335</title>
<path fill="none" stroke="#191970" d="M109.2241,-80.6904C150.4336,-90.3767 206.4923,-103.5534 246.6083,-112.9827"/>
<polygon fill="#191970" stroke="#191970" points="245.9095,-116.4138 256.4451,-115.2949 247.5113,-109.5995 245.9095,-116.4138"/>
</g>
<!-- Node148333&#45;&gt;Node148334 -->
<g id="edge2" class="edge">
<title>Node148333&#45;&gt;Node148334</title>
<path fill="none" stroke="#191970" d="M192.4339,-58.2159C205.9863,-49.098 227.8725,-35.9131 249,-29.8274 339.1924,-3.8478 450.8294,-5.0825 508.6669,-8.0531"/>
<polygon fill="#191970" stroke="#191970" points="508.6429,-11.5571 518.823,-8.6218 509.0344,-4.5681 508.6429,-11.5571"/>
</g>
<!-- Node148333&#45;&gt;Node148335 -->
<g id="edge3" class="edge">
<title>Node148333&#45;&gt;Node148335</title>
<path fill="none" stroke="#191970" d="M198.7505,-77.3679C217.7248,-86.5334 246.6109,-100.4869 268.1575,-110.895"/>
<polygon fill="#191970" stroke="#191970" points="266.6581,-114.0576 277.185,-115.2557 269.7029,-107.7545 266.6581,-114.0576"/>
</g>
<!-- Node148355 -->
<g id="node6" class="node">
<title>Node148355</title>
<g id="a_node6"><a xlink:href="list_8h.html#ab60d5d18869ebeb5d6ab694289576fa7" target="_top" xlink:title="list_del">
<polygon fill="none" stroke="#000000" points="408.5,-58.3274 408.5,-77.3274 455.5,-77.3274 455.5,-58.3274 408.5,-58.3274"/>
<text text-anchor="middle" x="432" y="-65.3274" font-family="Helvetica,sans-Serif" font-size="10.00" fill="#000000">list_del</text>
</a>
</g>
</g>
<!-- Node148333&#45;&gt;Node148355 -->
<g id="edge6" class="edge">
<title>Node148333&#45;&gt;Node148355</title>
<path fill="none" stroke="#191970" d="M213.1207,-67.8274C261.5234,-67.8274 349.6014,-67.8274 397.96,-67.8274"/>
<polygon fill="#191970" stroke="#191970" points="398.2162,-71.3275 408.2162,-67.8274 398.2161,-64.3275 398.2162,-71.3275"/>
</g>
<!-- Node148363 -->
<g id="node7" class="node">
<title>Node148363</title>
<g id="a_node7"><a xlink:href="quickjs_8c.html#adfb3133f30938e2db9b525ade5fc09cf" target="_top" xlink:title="remove_gc_object">
<polygon fill="none" stroke="#000000" points="249,-39.3274 249,-58.3274 345,-58.3274 345,-39.3274 249,-39.3274"/>
<text text-anchor="middle" x="297" y="-46.3274" font-family="Helvetica,sans-Serif" font-size="10.00" fill="#000000">remove_gc_object</text>
</a>
</g>
</g>
<!-- Node148333&#45;&gt;Node148363 -->
<g id="edge7" class="edge">
<title>Node148333&#45;&gt;Node148363</title>
<path fill="none" stroke="#191970" d="M213.1305,-62.3318C221.241,-61.0259 230.119,-59.5963 238.9679,-58.1715"/>
<polygon fill="#191970" stroke="#191970" points="239.5874,-61.6169 248.9038,-56.5717 238.4746,-54.706 239.5874,-61.6169"/>
</g>
<!-- Node148336 -->
<g id="node5" class="node">
<title>Node148336</title>
<g id="a_node5"><a xlink:href="quickjs_8c.html#ab1ea3fad7d138be12144a38be4d36423" target="_top" xlink:title="__JS_FreeValueRT">
<polygon fill="none" stroke="#ff0000" points="381,-105.3274 381,-124.3274 483,-124.3274 483,-105.3274 381,-105.3274"/>
<text text-anchor="middle" x="432" y="-112.3274" font-family="Helvetica,sans-Serif" font-size="10.00" fill="#000000">__JS_FreeValueRT</text>
</a>
</g>
</g>
<!-- Node148335&#45;&gt;Node148336 -->
<g id="edge4" class="edge">
<title>Node148335&#45;&gt;Node148336</title>
<path fill="none" stroke="#191970" d="M343.0818,-121.4139C351.8504,-120.7644 361.157,-120.075 370.3195,-119.3963"/>
<polygon fill="#191970" stroke="#191970" points="370.8525,-122.8665 380.5666,-118.6372 370.3354,-115.8856 370.8525,-122.8665"/>
</g>
<!-- Node148336&#45;&gt;Node148334 -->
<g id="edge5" class="edge">
<title>Node148336&#45;&gt;Node148334</title>
<path fill="none" stroke="#191970" d="M453.433,-105.2607C462.9904,-100.4577 474.0795,-94.1088 483,-86.8274 503.8135,-69.8381 523.1041,-45.504 535.0641,-28.9818"/>
<polygon fill="#191970" stroke="#191970" points="538.0024,-30.8886 540.9176,-20.7027 532.2866,-26.8475 538.0024,-30.8886"/>
</g>
<!-- Node148363&#45;&gt;Node148355 -->
<g id="edge8" class="edge">
<title>Node148363&#45;&gt;Node148355</title>
<path fill="none" stroke="#191970" d="M345.3568,-55.6331C362.8586,-58.0964 382.2322,-60.823 398.2135,-63.0722"/>
<polygon fill="#191970" stroke="#191970" points="397.7816,-66.5459 408.1718,-64.4738 398.7572,-59.6142 397.7816,-66.5459"/>
</g>
</g>
</svg>
