<?xml version="1.0" encoding="UTF-8" standalone="no"?>
<!DOCTYPE svg PUBLIC "-//W3C//DTD SVG 1.1//EN"
 "http://www.w3.org/Graphics/SVG/1.1/DTD/svg11.dtd">
<!-- Generated by graphviz version 2.40.1 (20161225.0304)
 -->
<!-- Title: js_std_tmpfile Pages: 1 -->
<svg width="819pt" height="237pt"
 viewBox="0.00 0.00 819.00 237.00" xmlns="http://www.w3.org/2000/svg" xmlns:xlink="http://www.w3.org/1999/xlink">
<g id="graph0" class="graph" transform="scale(1 1) rotate(0) translate(4 233)">
<title>js_std_tmpfile</title>
<!-- Node6783 -->
<g id="node1" class="node">
<title>Node6783</title>
<polygon fill="#bfbfbf" stroke="#000000" points="0,-81.5 0,-100.5 77,-100.5 77,-81.5 0,-81.5"/>
<text text-anchor="middle" x="38.5" y="-88.5" font-family="Helvetica,sans-Serif" font-size="10.00" fill="#000000">js_std_tmpfile</text>
</g>
<!-- Node6784 -->
<g id="node2" class="node">
<title>Node6784</title>
<g id="a_node2"><a xlink:href="quickjs-libc_8c.html#a4f611dfcb682754b3f25bb3e06f61ab5" target="_top" xlink:title="js_new_std_file">
<polygon fill="none" stroke="#000000" points="399,-171.5 399,-190.5 483,-190.5 483,-171.5 399,-171.5"/>
<text text-anchor="middle" x="441" y="-178.5" font-family="Helvetica,sans-Serif" font-size="10.00" fill="#000000">js_new_std_file</text>
</a>
</g>
</g>
<!-- Node6783&#45;&gt;Node6784 -->
<g id="edge1" class="edge">
<title>Node6783&#45;&gt;Node6784</title>
<path fill="none" stroke="#191970" d="M77.0934,-99.6296C149.8139,-115.8901 307.166,-151.0744 389.076,-169.3897"/>
<polygon fill="#191970" stroke="#191970" points="388.3971,-172.8242 398.9198,-171.5908 389.9246,-165.9929 388.3971,-172.8242"/>
</g>
<!-- Node6869 -->
<g id="node9" class="node">
<title>Node6869</title>
<g id="a_node9"><a xlink:href="quickjs-libc_8c.html#a5802fe689f97b693173247111a01a76a" target="_top" xlink:title="js_set_error_object">
<polygon fill="none" stroke="#000000" points="113,-62.5 113,-81.5 212,-81.5 212,-62.5 113,-62.5"/>
<text text-anchor="middle" x="162.5" y="-69.5" font-family="Helvetica,sans-Serif" font-size="10.00" fill="#000000">js_set_error_object</text>
</a>
</g>
</g>
<!-- Node6783&#45;&gt;Node6869 -->
<g id="edge8" class="edge">
<title>Node6783&#45;&gt;Node6869</title>
<path fill="none" stroke="#191970" d="M77.0547,-85.0924C85.1283,-83.8553 93.8241,-82.5229 102.4688,-81.1983"/>
<polygon fill="#191970" stroke="#191970" points="103.1985,-84.6275 112.553,-79.6532 102.1383,-77.7082 103.1985,-84.6275"/>
</g>
<!-- Node6785 -->
<g id="node3" class="node">
<title>Node6785</title>
<g id="a_node3"><a xlink:href="quickjs_8h.html#afaa20c47565bc704c6c85f3d77254e7d" target="_top" xlink:title="JS_FreeValue">
<polygon fill="none" stroke="#000000" points="551,-133.5 551,-152.5 629,-152.5 629,-133.5 551,-133.5"/>
<text text-anchor="middle" x="590" y="-140.5" font-family="Helvetica,sans-Serif" font-size="10.00" fill="#000000">JS_FreeValue</text>
</a>
</g>
</g>
<!-- Node6784&#45;&gt;Node6785 -->
<g id="edge2" class="edge">
<title>Node6784&#45;&gt;Node6785</title>
<path fill="none" stroke="#191970" d="M478.599,-171.411C498.084,-166.4417 522.0745,-160.3233 542.7958,-155.0387"/>
<polygon fill="#191970" stroke="#191970" points="543.8465,-158.3828 552.6714,-152.5201 542.1166,-151.5999 543.8465,-158.3828"/>
</g>
<!-- Node6822 -->
<g id="node5" class="node">
<title>Node6822</title>
<g id="a_node5"><a xlink:href="quickjs_8h.html#ad80a83d73e9b7d872b88fbf2943aebe9" target="_top" xlink:title="JS_IsException">
<polygon fill="none" stroke="#000000" points="547,-95.5 547,-114.5 633,-114.5 633,-95.5 547,-95.5"/>
<text text-anchor="middle" x="590" y="-102.5" font-family="Helvetica,sans-Serif" font-size="10.00" fill="#000000">JS_IsException</text>
</a>
</g>
</g>
<!-- Node6784&#45;&gt;Node6822 -->
<g id="edge4" class="edge">
<title>Node6784&#45;&gt;Node6822</title>
<path fill="none" stroke="#191970" d="M480.3257,-171.3916C487.1574,-168.8806 493.99,-165.7846 500,-162 519.6864,-149.6032 516.4814,-136.6593 536,-124 539.1008,-121.9889 542.4402,-120.1612 545.8834,-118.506"/>
<polygon fill="#191970" stroke="#191970" points="547.3453,-121.6873 555.148,-114.52 544.5788,-115.2571 547.3453,-121.6873"/>
</g>
<!-- Node6823 -->
<g id="node6" class="node">
<title>Node6823</title>
<g id="a_node6"><a xlink:href="quickjs_8c.html#a659dc0db7e440fd6eb012d613627faa3" target="_top" xlink:title="JS_NewObjectClass">
<polygon fill="none" stroke="#000000" points="536,-209.5 536,-228.5 644,-228.5 644,-209.5 536,-209.5"/>
<text text-anchor="middle" x="590" y="-216.5" font-family="Helvetica,sans-Serif" font-size="10.00" fill="#000000">JS_NewObjectClass</text>
</a>
</g>
</g>
<!-- Node6784&#45;&gt;Node6823 -->
<g id="edge5" class="edge">
<title>Node6784&#45;&gt;Node6823</title>
<path fill="none" stroke="#191970" d="M478.599,-190.589C498.084,-195.5583 522.0745,-201.6767 542.7958,-206.9613"/>
<polygon fill="#191970" stroke="#191970" points="542.1166,-210.4001 552.6714,-209.4799 543.8465,-203.6172 542.1166,-210.4001"/>
</g>
<!-- Node6868 -->
<g id="node8" class="node">
<title>Node6868</title>
<g id="a_node8"><a xlink:href="quickjs_8c.html#a0ddf716409e51648f0d59e7521150d19" target="_top" xlink:title="JS_SetOpaque">
<polygon fill="none" stroke="#000000" points="548.5,-171.5 548.5,-190.5 631.5,-190.5 631.5,-171.5 548.5,-171.5"/>
<text text-anchor="middle" x="590" y="-178.5" font-family="Helvetica,sans-Serif" font-size="10.00" fill="#000000">JS_SetOpaque</text>
</a>
</g>
</g>
<!-- Node6784&#45;&gt;Node6868 -->
<g id="edge7" class="edge">
<title>Node6784&#45;&gt;Node6868</title>
<path fill="none" stroke="#191970" d="M483.2989,-181C500.4239,-181 520.3599,-181 538.3332,-181"/>
<polygon fill="#191970" stroke="#191970" points="538.3683,-184.5001 548.3683,-181 538.3683,-177.5001 538.3683,-184.5001"/>
</g>
<!-- Node6786 -->
<g id="node4" class="node">
<title>Node6786</title>
<g id="a_node4"><a xlink:href="quickjs_8c.html#aa059f309c30fd5166d16c82a97973146" target="_top" xlink:title="__JS_FreeValue">
<polygon fill="none" stroke="#ff0000" points="701,-133.5 701,-152.5 790,-152.5 790,-133.5 701,-133.5"/>
<text text-anchor="middle" x="745.5" y="-140.5" font-family="Helvetica,sans-Serif" font-size="10.00" fill="#000000">__JS_FreeValue</text>
</a>
</g>
</g>
<!-- Node6785&#45;&gt;Node6786 -->
<g id="edge3" class="edge">
<title>Node6785&#45;&gt;Node6786</title>
<path fill="none" stroke="#191970" d="M629.2392,-143C647.8655,-143 670.4368,-143 690.7176,-143"/>
<polygon fill="#191970" stroke="#191970" points="690.7707,-146.5001 700.7707,-143 690.7706,-139.5001 690.7707,-146.5001"/>
</g>
<!-- Node6824 -->
<g id="node7" class="node">
<title>Node6824</title>
<g id="a_node7"><a xlink:href="quickjs_8c.html#a73738c650f11459db0d7af3dcdf8316b" target="_top" xlink:title="JS_NewObjectProtoClass">
<polygon fill="none" stroke="#ff0000" points="680,-209.5 680,-228.5 811,-228.5 811,-209.5 680,-209.5"/>
<text text-anchor="middle" x="745.5" y="-216.5" font-family="Helvetica,sans-Serif" font-size="10.00" fill="#000000">JS_NewObjectProtoClass</text>
</a>
</g>
</g>
<!-- Node6823&#45;&gt;Node6824 -->
<g id="edge6" class="edge">
<title>Node6823&#45;&gt;Node6824</title>
<path fill="none" stroke="#191970" d="M644.3864,-219C652.6327,-219 661.2656,-219 669.864,-219"/>
<polygon fill="#191970" stroke="#191970" points="669.9167,-222.5001 679.9167,-219 669.9167,-215.5001 669.9167,-222.5001"/>
</g>
<!-- Node6870 -->
<g id="node10" class="node">
<title>Node6870</title>
<g id="a_node10"><a xlink:href="quickjs_8h.html#a4e407128a9605afb77523e49e9a627fd" target="_top" xlink:title="JS_IsUndefined">
<polygon fill="none" stroke="#000000" points="547,-38.5 547,-57.5 633,-57.5 633,-38.5 547,-38.5"/>
<text text-anchor="middle" x="590" y="-45.5" font-family="Helvetica,sans-Serif" font-size="10.00" fill="#000000">JS_IsUndefined</text>
</a>
</g>
</g>
<!-- Node6869&#45;&gt;Node6870 -->
<g id="edge9" class="edge">
<title>Node6869&#45;&gt;Node6870</title>
<path fill="none" stroke="#191970" d="M212.0638,-65.0212C256.4694,-59.1414 323.4348,-51.1922 382,-48 434.6314,-45.1312 494.8653,-45.5338 536.9217,-46.41"/>
<polygon fill="#191970" stroke="#191970" points="536.8635,-49.9095 546.9395,-46.6348 537.0206,-42.9112 536.8635,-49.9095"/>
</g>
<!-- Node6867 -->
<g id="node11" class="node">
<title>Node6867</title>
<g id="a_node11"><a xlink:href="quickjs_8h.html#a2050bc428da1c65ac7eb87c3fa3b0392" target="_top" xlink:title="JS_NewInt32">
<polygon fill="none" stroke="#000000" points="552,-.5 552,-19.5 628,-19.5 628,-.5 552,-.5"/>
<text text-anchor="middle" x="590" y="-7.5" font-family="Helvetica,sans-Serif" font-size="10.00" fill="#000000">JS_NewInt32</text>
</a>
</g>
</g>
<!-- Node6869&#45;&gt;Node6867 -->
<g id="edge10" class="edge">
<title>Node6869&#45;&gt;Node6867</title>
<path fill="none" stroke="#191970" d="M190.6879,-62.3931C207.2089,-57.1074 228.5839,-50.8574 248,-47 351.5588,-26.4258 475.19,-16.6224 541.7807,-12.5256"/>
<polygon fill="#191970" stroke="#191970" points="542.1933,-16.0072 551.9665,-11.9163 541.7753,-9.0197 542.1933,-16.0072"/>
</g>
<!-- Node6871 -->
<g id="node12" class="node">
<title>Node6871</title>
<g id="a_node12"><a xlink:href="quickjs_8c.html#a62617fe11025d2e5a545db069fc28e64" target="_top" xlink:title="JS_SetPropertyStr">
<polygon fill="none" stroke="#000000" points="248,-76.5 248,-95.5 346,-95.5 346,-76.5 248,-76.5"/>
<text text-anchor="middle" x="297" y="-83.5" font-family="Helvetica,sans-Serif" font-size="10.00" fill="#000000">JS_SetPropertyStr</text>
</a>
</g>
</g>
<!-- Node6869&#45;&gt;Node6871 -->
<g id="edge11" class="edge">
<title>Node6869&#45;&gt;Node6871</title>
<path fill="none" stroke="#191970" d="M212.2007,-77.1733C220.5912,-78.0467 229.3737,-78.9608 237.9739,-79.856"/>
<polygon fill="#191970" stroke="#191970" points="237.6432,-83.3404 247.9518,-80.8946 238.368,-76.378 237.6432,-83.3404"/>
</g>
<!-- Node6872 -->
<g id="node13" class="node">
<title>Node6872</title>
<g id="a_node13"><a xlink:href="quickjs_8c.html#aa2ef5af1544a3012f91a80c98c326b8f" target="_top" xlink:title="JS_NewAtom">
<polygon fill="none" stroke="#ff0000" points="402.5,-133.5 402.5,-152.5 479.5,-152.5 479.5,-133.5 402.5,-133.5"/>
<text text-anchor="middle" x="441" y="-140.5" font-family="Helvetica,sans-Serif" font-size="10.00" fill="#000000">JS_NewAtom</text>
</a>
</g>
</g>
<!-- Node6871&#45;&gt;Node6872 -->
<g id="edge12" class="edge">
<title>Node6871&#45;&gt;Node6872</title>
<path fill="none" stroke="#191970" d="M316.6655,-95.5257C333.7307,-103.6139 359.2081,-115.2652 382,-124 387.6004,-126.1463 393.5588,-128.2586 399.4538,-130.2501"/>
<polygon fill="#191970" stroke="#191970" points="398.6476,-133.6694 409.2406,-133.472 400.8365,-127.0204 398.6476,-133.6694"/>
</g>
<!-- Node6912 -->
<g id="node14" class="node">
<title>Node6912</title>
<g id="a_node14"><a xlink:href="quickjs_8c.html#ad7f03358a8088ca920ab308225c6b2e6" target="_top" xlink:title="JS_SetPropertyInternal">
<polygon fill="none" stroke="#ff0000" points="382,-95.5 382,-114.5 500,-114.5 500,-95.5 382,-95.5"/>
<text text-anchor="middle" x="441" y="-102.5" font-family="Helvetica,sans-Serif" font-size="10.00" fill="#000000">JS_SetPropertyInternal</text>
</a>
</g>
</g>
<!-- Node6871&#45;&gt;Node6912 -->
<g id="edge13" class="edge">
<title>Node6871&#45;&gt;Node6912</title>
<path fill="none" stroke="#191970" d="M346.1539,-92.4856C354.411,-93.5751 363.1153,-94.7235 371.7662,-95.865"/>
<polygon fill="#191970" stroke="#191970" points="371.4953,-99.3595 381.8672,-97.1978 372.411,-92.4196 371.4953,-99.3595"/>
</g>
<!-- Node6804 -->
<g id="node15" class="node">
<title>Node6804</title>
<g id="a_node15"><a xlink:href="quickjs_8c.html#ab7fc45a99935a1c0ba50b0216d9401a9" target="_top" xlink:title="JS_FreeAtom">
<polygon fill="none" stroke="#ff0000" points="402.5,-57.5 402.5,-76.5 479.5,-76.5 479.5,-57.5 402.5,-57.5"/>
<text text-anchor="middle" x="441" y="-64.5" font-family="Helvetica,sans-Serif" font-size="10.00" fill="#000000">JS_FreeAtom</text>
</a>
</g>
</g>
<!-- Node6871&#45;&gt;Node6804 -->
<g id="edge18" class="edge">
<title>Node6871&#45;&gt;Node6804</title>
<path fill="none" stroke="#191970" d="M346.1539,-79.5144C360.9825,-77.5579 377.2535,-75.411 392.0677,-73.4564"/>
<polygon fill="#191970" stroke="#191970" points="392.599,-76.9167 402.0553,-72.1385 391.6833,-69.9768 392.599,-76.9167"/>
</g>
<!-- Node6912&#45;&gt;Node6785 -->
<g id="edge14" class="edge">
<title>Node6912&#45;&gt;Node6785</title>
<path fill="none" stroke="#191970" d="M478.599,-114.589C498.084,-119.5583 522.0745,-125.6767 542.7958,-130.9613"/>
<polygon fill="#191970" stroke="#191970" points="542.1166,-134.4001 552.6714,-133.4799 543.8465,-127.6172 542.1166,-134.4001"/>
</g>
<!-- Node6912&#45;&gt;Node6822 -->
<g id="edge16" class="edge">
<title>Node6912&#45;&gt;Node6822</title>
<path fill="none" stroke="#191970" d="M500.3169,-105C512.3684,-105 524.9734,-105 536.7972,-105"/>
<polygon fill="#191970" stroke="#191970" points="536.9531,-108.5001 546.953,-105 536.953,-101.5001 536.9531,-108.5001"/>
</g>
<!-- Node6912&#45;&gt;Node6870 -->
<g id="edge17" class="edge">
<title>Node6912&#45;&gt;Node6870</title>
<path fill="none" stroke="#191970" d="M472.4083,-95.4506C481.3766,-92.5715 491.1225,-89.2963 500,-86 519.9371,-78.5972 541.9355,-69.3296 559.1928,-61.8001"/>
<polygon fill="#191970" stroke="#191970" points="561.0096,-64.8247 568.7544,-57.5949 558.1915,-58.417 561.0096,-64.8247"/>
</g>
<!-- Node6912&#45;&gt;Node6867 -->
<g id="edge15" class="edge">
<title>Node6912&#45;&gt;Node6867</title>
<path fill="none" stroke="#191970" d="M483.1291,-95.4736C489.1438,-92.9966 494.9824,-89.8903 500,-86 523.6794,-67.6407 512.5685,-47.6746 536,-29 538.2587,-27.1998 540.7006,-25.5635 543.2548,-24.077"/>
<polygon fill="#191970" stroke="#191970" points="544.8835,-27.1759 552.2696,-19.5801 541.7588,-20.912 544.8835,-27.1759"/>
</g>
</g>
</svg>
