<?xml version="1.0" encoding="UTF-8" standalone="no"?>
<!DOCTYPE svg PUBLIC "-//W3C//DTD SVG 1.1//EN"
 "http://www.w3.org/Graphics/SVG/1.1/DTD/svg11.dtd">
<!-- Generated by graphviz version 2.40.1 (20161225.0304)
 -->
<!-- Title: JS_SetPropertyInternal Pages: 1 -->
<svg width="1102pt" height="1303pt"
 viewBox="0.00 0.00 1102.00 1303.00" xmlns="http://www.w3.org/2000/svg" xmlns:xlink="http://www.w3.org/1999/xlink">
<g id="graph0" class="graph" transform="scale(1 1) rotate(0) translate(4 1299)">
<title>JS_SetPropertyInternal</title>
<!-- Node58441 -->
<g id="node1" class="node">
<title>Node58441</title>
<polygon fill="#bfbfbf" stroke="#000000" points="0,-620.5 0,-639.5 118,-639.5 118,-620.5 0,-620.5"/>
<text text-anchor="middle" x="59" y="-627.5" font-family="Helvetica,sans-Serif" font-size="10.00" fill="#000000">JS_SetPropertyInternal</text>
</g>
<!-- Node58442 -->
<g id="node2" class="node">
<title>Node58442</title>
<g id="a_node2"><a xlink:href="quickjs_8c.html#a014abd680db53ab89cb133345742a59c" target="_top" xlink:title="__attribute__">
<polygon fill="none" stroke="#000000" points="515.5,-728.5 515.5,-747.5 588.5,-747.5 588.5,-728.5 515.5,-728.5"/>
<text text-anchor="middle" x="552" y="-735.5" font-family="Helvetica,sans-Serif" font-size="10.00" fill="#000000">__attribute__</text>
</a>
</g>
</g>
<!-- Node58441&#45;&gt;Node58442 -->
<g id="edge1" class="edge">
<title>Node58441&#45;&gt;Node58442</title>
<path fill="none" stroke="#191970" d="M71.4314,-639.5696C88.8716,-652.4829 122.0577,-675.2228 154,-687 274.9484,-731.5938 428.9973,-738.3667 505.0994,-738.6954"/>
<polygon fill="#191970" stroke="#191970" points="505.3064,-742.1954 515.3088,-738.7022 505.3112,-735.1954 505.3064,-742.1954"/>
</g>
<!-- Node58504 -->
<g id="node7" class="node">
<title>Node58504</title>
<g id="a_node7"><a xlink:href="quickjs_8h.html#ad80a83d73e9b7d872b88fbf2943aebe9" target="_top" xlink:title="JS_IsException">
<polygon fill="none" stroke="#000000" points="1008,-728.5 1008,-747.5 1094,-747.5 1094,-728.5 1008,-728.5"/>
<text text-anchor="middle" x="1051" y="-735.5" font-family="Helvetica,sans-Serif" font-size="10.00" fill="#000000">JS_IsException</text>
</a>
</g>
</g>
<!-- Node58441&#45;&gt;Node58504 -->
<g id="edge63" class="edge">
<title>Node58441&#45;&gt;Node58504</title>
<path fill="none" stroke="#191970" d="M59.2878,-639.6176C61.5075,-707.7054 77.9177,-1116.9316 154,-1209 224.5815,-1294.4119 277.1987,-1295 388,-1295 388,-1295 388,-1295 734.5,-1295 986.988,-1295 1040.5614,-857.0023 1049.4567,-757.8086"/>
<polygon fill="#191970" stroke="#191970" points="1052.9591,-757.9268 1050.3128,-747.6678 1045.9839,-757.3379 1052.9591,-757.9268"/>
</g>
<!-- Node58509 -->
<g id="node8" class="node">
<title>Node58509</title>
<g id="a_node8"><a xlink:href="quickjs_8c.html#a288254c06a39c9fca740a7abdad2834e" target="_top" xlink:title="__JS_AtomIsTaggedInt">
<polygon fill="none" stroke="#000000" points="492.5,-538.5 492.5,-557.5 611.5,-557.5 611.5,-538.5 492.5,-538.5"/>
<text text-anchor="middle" x="552" y="-545.5" font-family="Helvetica,sans-Serif" font-size="10.00" fill="#000000">__JS_AtomIsTaggedInt</text>
</a>
</g>
</g>
<!-- Node58441&#45;&gt;Node58509 -->
<g id="edge7" class="edge">
<title>Node58441&#45;&gt;Node58509</title>
<path fill="none" stroke="#191970" d="M60.1736,-620.0968C64.7805,-586.0618 84.9194,-473.226 154,-423 258.1619,-347.2676 340.2669,-324.3405 443,-402 489.801,-437.3785 437.0697,-487.9655 479,-529 480.4741,-530.4426 482.0432,-531.7797 483.6899,-533.0187"/>
<polygon fill="#191970" stroke="#191970" points="482.1393,-536.174 492.4909,-538.4313 485.8064,-530.2113 482.1393,-536.174"/>
</g>
<!-- Node58510 -->
<g id="node9" class="node">
<title>Node58510</title>
<g id="a_node9"><a xlink:href="quickjs_8c.html#a89f38938cee8077ce1fbba07946ed185" target="_top" xlink:title="__JS_AtomToUInt32">
<polygon fill="none" stroke="#000000" points="498,-500.5 498,-519.5 606,-519.5 606,-500.5 498,-500.5"/>
<text text-anchor="middle" x="552" y="-507.5" font-family="Helvetica,sans-Serif" font-size="10.00" fill="#000000">__JS_AtomToUInt32</text>
</a>
</g>
</g>
<!-- Node58441&#45;&gt;Node58510 -->
<g id="edge8" class="edge">
<title>Node58441&#45;&gt;Node58510</title>
<path fill="none" stroke="#191970" d="M60.7926,-620.2317C69.3333,-574.8629 107.4185,-385.5051 154,-352 206.1366,-314.4992 392.2471,-311.6467 443,-351 493.7718,-390.3679 433.6376,-445.5043 479,-491 481.8823,-493.8908 485.1451,-496.3593 488.6529,-498.4655"/>
<polygon fill="#191970" stroke="#191970" points="487.2845,-501.6934 497.7999,-502.9888 490.3875,-495.4187 487.2845,-501.6934"/>
</g>
<!-- Node58650 -->
<g id="node10" class="node">
<title>Node58650</title>
<g id="a_node10"><a xlink:href="quickjs_8c.html#adbffd820afae76d09c641b5b911e3600" target="_top" xlink:title="add_fast_array_element">
<polygon fill="none" stroke="#ff0000" points="491.5,-816.5 491.5,-835.5 612.5,-835.5 612.5,-816.5 491.5,-816.5"/>
<text text-anchor="middle" x="552" y="-823.5" font-family="Helvetica,sans-Serif" font-size="10.00" fill="#000000">add_fast_array_element</text>
</a>
</g>
</g>
<!-- Node58441&#45;&gt;Node58650 -->
<g id="edge9" class="edge">
<title>Node58441&#45;&gt;Node58650</title>
<path fill="none" stroke="#191970" d="M60.2823,-639.5021C65.2441,-672.1373 86.4031,-780.1519 154,-826 265.8259,-901.8466 439.0451,-861.8184 514.6128,-838.6864"/>
<polygon fill="#191970" stroke="#191970" points="516.1181,-841.8823 524.6111,-835.5483 514.0218,-835.2036 516.1181,-841.8823"/>
</g>
<!-- Node58468 -->
<g id="node11" class="node">
<title>Node58468</title>
<g id="a_node11"><a xlink:href="quickjs_8h.html#afaa20c47565bc704c6c85f3d77254e7d" target="_top" xlink:title="JS_FreeValue">
<polygon fill="none" stroke="#ff0000" points="695.5,-911.5 695.5,-930.5 773.5,-930.5 773.5,-911.5 695.5,-911.5"/>
<text text-anchor="middle" x="734.5" y="-918.5" font-family="Helvetica,sans-Serif" font-size="10.00" fill="#000000">JS_FreeValue</text>
</a>
</g>
</g>
<!-- Node58441&#45;&gt;Node58468 -->
<g id="edge61" class="edge">
<title>Node58441&#45;&gt;Node58468</title>
<path fill="none" stroke="#191970" d="M59.6273,-639.7652C63.6597,-699.3922 87.8906,-1013.9765 154,-1078 229.198,-1150.8253 538.865,-1145.4898 625,-1086 652.8149,-1066.7894 642.8073,-1047.4911 661,-1019 679.7593,-989.6216 704.6252,-957.6915 720.0892,-938.5191"/>
<polygon fill="#191970" stroke="#191970" points="722.8839,-940.6298 726.477,-930.6628 717.4526,-936.2137 722.8839,-940.6298"/>
</g>
<!-- Node58564 -->
<g id="node12" class="node">
<title>Node58564</title>
<g id="a_node12"><a xlink:href="quickjs_8h.html#a2050bc428da1c65ac7eb87c3fa3b0392" target="_top" xlink:title="JS_NewInt32">
<polygon fill="none" stroke="#000000" points="696.5,-576.5 696.5,-595.5 772.5,-595.5 772.5,-576.5 696.5,-576.5"/>
<text text-anchor="middle" x="734.5" y="-583.5" font-family="Helvetica,sans-Serif" font-size="10.00" fill="#000000">JS_NewInt32</text>
</a>
</g>
</g>
<!-- Node58441&#45;&gt;Node58564 -->
<g id="edge65" class="edge">
<title>Node58441&#45;&gt;Node58564</title>
<path fill="none" stroke="#191970" d="M60.3776,-620.2774C67.5135,-571.4345 101.9578,-353.6621 154,-315 156.4859,-313.1532 442.8343,-315.8831 443,-316 481.2555,-342.991 444.373,-383.4886 479,-415 528.5905,-460.1285 569.5056,-415.3678 625,-453 647.366,-468.1669 644.0871,-480.9233 661,-502 680.0027,-525.681 703.2783,-551.8415 718.4774,-568.575"/>
<polygon fill="#191970" stroke="#191970" points="716.2968,-571.3776 725.624,-576.4031 721.4665,-566.658 716.2968,-571.3776"/>
</g>
<!-- Node58651 -->
<g id="node13" class="node">
<title>Node58651</title>
<g id="a_node13"><a xlink:href="quickjs_8c.html#adba489eac6c2332de312326782457940" target="_top" xlink:title="JS_ThrowTypeErrorReadOnly">
<polygon fill="none" stroke="#000000" points="661,-816.5 661,-835.5 808,-835.5 808,-816.5 661,-816.5"/>
<text text-anchor="middle" x="734.5" y="-823.5" font-family="Helvetica,sans-Serif" font-size="10.00" fill="#000000">JS_ThrowTypeErrorReadOnly</text>
</a>
</g>
</g>
<!-- Node58441&#45;&gt;Node58651 -->
<g id="edge69" class="edge">
<title>Node58441&#45;&gt;Node58651</title>
<path fill="none" stroke="#191970" d="M59.8222,-639.6484C64.8172,-695.9279 92.9317,-981.3022 154,-1039 230.1049,-1110.9045 546.2078,-1119.9493 625,-1051 676.2693,-1006.1354 628.1662,-961.6936 661,-902 674.183,-878.0325 696.9245,-856.2151 713.6287,-842.1665"/>
<polygon fill="#191970" stroke="#191970" points="716.1941,-844.5907 721.7311,-835.5578 711.7696,-839.1662 716.1941,-844.5907"/>
</g>
<!-- Node58541 -->
<g id="node14" class="node">
<title>Node58541</title>
<g id="a_node14"><a xlink:href="quickjs_8c.html#a74547db03bf739a52c83a326b32db997" target="_top" xlink:title="add_property">
<polygon fill="none" stroke="#ff0000" points="515.5,-462.5 515.5,-481.5 588.5,-481.5 588.5,-462.5 515.5,-462.5"/>
<text text-anchor="middle" x="552" y="-469.5" font-family="Helvetica,sans-Serif" font-size="10.00" fill="#000000">add_property</text>
</a>
</g>
</g>
<!-- Node58441&#45;&gt;Node58541 -->
<g id="edge14" class="edge">
<title>Node58441&#45;&gt;Node58541</title>
<path fill="none" stroke="#191970" d="M60.3983,-620.3989C67.6353,-572.1668 102.4955,-357.121 154,-319 156.4966,-317.1521 442.8453,-319.8819 443,-320 489.9832,-355.8459 438.1308,-405.3145 479,-448 486.1273,-455.444 495.6004,-460.5808 505.3545,-464.1251"/>
<polygon fill="#191970" stroke="#191970" points="504.5375,-467.5363 515.1259,-467.1649 506.617,-460.8523 504.5375,-467.5363"/>
</g>
<!-- Node58674 -->
<g id="node15" class="node">
<title>Node58674</title>
<g id="a_node15"><a xlink:href="quickjs_8c.html#a3fb71f8d31b557ebebec82476999408a" target="_top" xlink:title="call_setter">
<polygon fill="none" stroke="#ff0000" points="357,-1190.5 357,-1209.5 419,-1209.5 419,-1190.5 357,-1190.5"/>
<text text-anchor="middle" x="388" y="-1197.5" font-family="Helvetica,sans-Serif" font-size="10.00" fill="#000000">call_setter</text>
</a>
</g>
</g>
<!-- Node58441&#45;&gt;Node58674 -->
<g id="edge15" class="edge">
<title>Node58441&#45;&gt;Node58674</title>
<path fill="none" stroke="#191970" d="M59.1599,-639.7032C60.4744,-706.6176 71.6602,-1099.236 154,-1176 205.8068,-1224.2986 294.8207,-1218.1694 346.8479,-1209.1922"/>
<polygon fill="#191970" stroke="#191970" points="347.5359,-1212.6245 356.7382,-1207.3741 346.2702,-1205.7399 347.5359,-1212.6245"/>
</g>
<!-- Node58467 -->
<g id="node16" class="node">
<title>Node58467</title>
<g id="a_node16"><a xlink:href="quickjs_8h.html#a775522f2d084fc8fa0fcb33f390006b4" target="_top" xlink:title="JS_DupValue">
<polygon fill="none" stroke="#000000" points="513.5,-1022.5 513.5,-1041.5 590.5,-1041.5 590.5,-1022.5 513.5,-1022.5"/>
<text text-anchor="middle" x="552" y="-1029.5" font-family="Helvetica,sans-Serif" font-size="10.00" fill="#000000">JS_DupValue</text>
</a>
</g>
</g>
<!-- Node58441&#45;&gt;Node58467 -->
<g id="edge60" class="edge">
<title>Node58441&#45;&gt;Node58467</title>
<path fill="none" stroke="#191970" d="M60.0383,-639.749C65.9156,-692.9839 96.795,-947.9439 154,-997 253.4496,-1082.283 422.7954,-1060.7767 504.7683,-1043.6341"/>
<polygon fill="#191970" stroke="#191970" points="505.5221,-1047.0521 514.5579,-1041.52 504.0444,-1040.2099 505.5221,-1047.0521"/>
</g>
<!-- Node58459 -->
<g id="node17" class="node">
<title>Node58459</title>
<g id="a_node17"><a xlink:href="quickjs_8c.html#a06b76f5124fd985e35f4c652fd018d6d" target="_top" xlink:title="find_own_property">
<polygon fill="none" stroke="#ff0000" points="340,-430.5 340,-449.5 436,-449.5 436,-430.5 340,-430.5"/>
<text text-anchor="middle" x="388" y="-437.5" font-family="Helvetica,sans-Serif" font-size="10.00" fill="#000000">find_own_property</text>
</a>
</g>
</g>
<!-- Node58441&#45;&gt;Node58459 -->
<g id="edge20" class="edge">
<title>Node58441&#45;&gt;Node58459</title>
<path fill="none" stroke="#191970" d="M73.1647,-620.4862C113.0377,-593.9121 230.0374,-517.3523 333,-464 339.8682,-460.4411 347.379,-456.9277 354.5819,-453.7328"/>
<polygon fill="#191970" stroke="#191970" points="356.3393,-456.7859 364.124,-449.5992 353.5567,-450.3627 356.3393,-456.7859"/>
</g>
<!-- Node58561 -->
<g id="node18" class="node">
<title>Node58561</title>
<g id="a_node18"><a xlink:href="quickjs_8c.html#add3eea1f6d626963ade3c28a1fd563d1" target="_top" xlink:title="JS_AtomIsNumericIndex">
<polygon fill="none" stroke="#ff0000" points="489,-386.5 489,-405.5 615,-405.5 615,-386.5 489,-386.5"/>
<text text-anchor="middle" x="552" y="-393.5" font-family="Helvetica,sans-Serif" font-size="10.00" fill="#000000">JS_AtomIsNumericIndex</text>
</a>
</g>
</g>
<!-- Node58441&#45;&gt;Node58561 -->
<g id="edge21" class="edge">
<title>Node58441&#45;&gt;Node58561</title>
<path fill="none" stroke="#191970" d="M59.7735,-620.1825C64.4042,-564.2022 90.4295,-286.0644 154,-236 204.4543,-196.2652 386.2257,-205.9805 443,-236 500.0865,-266.1845 532.8799,-341.18 545.6905,-376.7253"/>
<polygon fill="#191970" stroke="#191970" points="542.4577,-378.0865 549.0295,-386.3968 549.0745,-375.8021 542.4577,-378.0865"/>
</g>
<!-- Node58582 -->
<g id="node19" class="node">
<title>Node58582</title>
<g id="a_node19"><a xlink:href="quickjs_8h.html#a4e407128a9605afb77523e49e9a627fd" target="_top" xlink:title="JS_IsUndefined">
<polygon fill="none" stroke="#000000" points="691.5,-348.5 691.5,-367.5 777.5,-367.5 777.5,-348.5 691.5,-348.5"/>
<text text-anchor="middle" x="734.5" y="-355.5" font-family="Helvetica,sans-Serif" font-size="10.00" fill="#000000">JS_IsUndefined</text>
</a>
</g>
</g>
<!-- Node58441&#45;&gt;Node58582 -->
<g id="edge64" class="edge">
<title>Node58441&#45;&gt;Node58582</title>
<path fill="none" stroke="#191970" d="M59.5952,-620.2171C63.3652,-561.8677 85.9883,-260.4595 154,-206 333.3139,-62.4168 634.4014,-278.949 714.4537,-341.7603"/>
<polygon fill="#191970" stroke="#191970" points="712.6958,-344.8335 722.7047,-348.3081 717.0472,-339.3502 712.6958,-344.8335"/>
</g>
<!-- Node58583 -->
<g id="node20" class="node">
<title>Node58583</title>
<g id="a_node20"><a xlink:href="quickjs_8c.html#a23b7fe57d08a1b3b39ba556f9cbb6c76" target="_top" xlink:title="JS_AutoInitProperty">
<polygon fill="none" stroke="#ff0000" points="173.5,-126.5 173.5,-145.5 277.5,-145.5 277.5,-126.5 173.5,-126.5"/>
<text text-anchor="middle" x="225.5" y="-133.5" font-family="Helvetica,sans-Serif" font-size="10.00" fill="#000000">JS_AutoInitProperty</text>
</a>
</g>
</g>
<!-- Node58441&#45;&gt;Node58583 -->
<g id="edge25" class="edge">
<title>Node58441&#45;&gt;Node58583</title>
<path fill="none" stroke="#191970" d="M59.6633,-620.2908C63.9951,-559.5801 90.0936,-232.3958 154,-160 157.2928,-156.2698 161.1835,-153.1181 165.4219,-150.4555"/>
<polygon fill="#191970" stroke="#191970" points="167.3202,-153.4113 174.5304,-145.6483 164.0528,-147.2206 167.3202,-153.4113"/>
</g>
<!-- Node58649 -->
<g id="node21" class="node">
<title>Node58649</title>
<g id="a_node21"><a xlink:href="quickjs_8c.html#ad5565bb5cfd5321f181573257f3b0c91" target="_top" xlink:title="JS_CreateProperty">
<polygon fill="none" stroke="#ff0000" points="338,-620.5 338,-639.5 438,-639.5 438,-620.5 338,-620.5"/>
<text text-anchor="middle" x="388" y="-627.5" font-family="Helvetica,sans-Serif" font-size="10.00" fill="#000000">JS_CreateProperty</text>
</a>
</g>
</g>
<!-- Node58441&#45;&gt;Node58649 -->
<g id="edge26" class="edge">
<title>Node58441&#45;&gt;Node58649</title>
<path fill="none" stroke="#191970" d="M118.1986,-630C177.4846,-630 268.2513,-630 327.8659,-630"/>
<polygon fill="#191970" stroke="#191970" points="327.8873,-633.5001 337.8873,-630 327.8873,-626.5001 327.8873,-633.5001"/>
</g>
<!-- Node58665 -->
<g id="node22" class="node">
<title>Node58665</title>
<g id="a_node22"><a xlink:href="quickjs_8c.html#a0ec52a675282f321a6f42aa1298a53fe" target="_top" xlink:title="set_value">
<polygon fill="none" stroke="#000000" points="522.5,-930.5 522.5,-949.5 581.5,-949.5 581.5,-930.5 522.5,-930.5"/>
<text text-anchor="middle" x="552" y="-937.5" font-family="Helvetica,sans-Serif" font-size="10.00" fill="#000000">set_value</text>
</a>
</g>
</g>
<!-- Node58441&#45;&gt;Node58665 -->
<g id="edge72" class="edge">
<title>Node58441&#45;&gt;Node58665</title>
<path fill="none" stroke="#191970" d="M60.5163,-639.7256C68.3298,-688.6133 105.5608,-906.9453 154,-952 248.9026,-1040.2718 316.4818,-1019.1346 443,-991 474.0895,-984.0864 506.8033,-967.3225 528.1829,-954.891"/>
<polygon fill="#191970" stroke="#191970" points="530.0897,-957.829 536.8877,-949.7026 526.5058,-951.8161 530.0897,-957.829"/>
</g>
<!-- Node58644 -->
<g id="node23" class="node">
<title>Node58644</title>
<g id="a_node23"><a xlink:href="quickjs_8c.html#ab50618f1bf78e444caa6da0e3e2785d7" target="_top" xlink:title="JS_DefineProperty">
<polygon fill="none" stroke="#ff0000" points="176,-658.5 176,-677.5 275,-677.5 275,-658.5 176,-658.5"/>
<text text-anchor="middle" x="225.5" y="-665.5" font-family="Helvetica,sans-Serif" font-size="10.00" fill="#000000">JS_DefineProperty</text>
</a>
</g>
</g>
<!-- Node58441&#45;&gt;Node58644 -->
<g id="edge37" class="edge">
<title>Node58441&#45;&gt;Node58644</title>
<path fill="none" stroke="#191970" d="M101.015,-639.589C123.1844,-644.6487 150.5732,-650.8996 174.011,-656.2488"/>
<polygon fill="#191970" stroke="#191970" points="173.259,-659.6671 183.7871,-658.4799 174.8166,-652.8425 173.259,-659.6671"/>
</g>
<!-- Node58672 -->
<g id="node24" class="node">
<title>Node58672</title>
<g id="a_node24"><a xlink:href="quickjs_8c.html#aee75cc1546e19479e3ccda58f3b50a96" target="_top" xlink:title="JS_SetPropertyValue">
<polygon fill="none" stroke="#ff0000" points="333,-810.5 333,-829.5 443,-829.5 443,-810.5 333,-810.5"/>
<text text-anchor="middle" x="388" y="-817.5" font-family="Helvetica,sans-Serif" font-size="10.00" fill="#000000">JS_SetPropertyValue</text>
</a>
</g>
</g>
<!-- Node58441&#45;&gt;Node58672 -->
<g id="edge66" class="edge">
<title>Node58441&#45;&gt;Node58672</title>
<path fill="none" stroke="#191970" d="M61.2245,-639.6246C68.564,-668.9663 94.9866,-757.6221 154,-796 203.8048,-828.3893 272.5705,-831.7172 322.6637,-828.5536"/>
<polygon fill="#191970" stroke="#191970" points="323.0216,-832.0368 332.7388,-827.8147 322.5095,-825.0556 323.0216,-832.0368"/>
</g>
<!-- Node58611 -->
<g id="node25" class="node">
<title>Node58611</title>
<g id="a_node25"><a xlink:href="quickjs_8c.html#a033dd3ebd29c4eb9f0baff1dd0fec0b1" target="_top" xlink:title="JS_ThrowTypeErrorDetached\lArrayBuffer">
<polygon fill="none" stroke="#000000" points="479,-767 479,-797 625,-797 625,-767 479,-767"/>
<text text-anchor="start" x="487" y="-785" font-family="Helvetica,sans-Serif" font-size="10.00" fill="#000000">JS_ThrowTypeErrorDetached</text>
<text text-anchor="middle" x="552" y="-774" font-family="Helvetica,sans-Serif" font-size="10.00" fill="#000000">ArrayBuffer</text>
</a>
</g>
</g>
<!-- Node58441&#45;&gt;Node58611 -->
<g id="edge68" class="edge">
<title>Node58441&#45;&gt;Node58611</title>
<path fill="none" stroke="#191970" d="M66.118,-639.6237C80.4511,-658.2116 114.7901,-698.8995 154,-718 254.7131,-767.0608 385.0886,-779.7904 468.6543,-782.4417"/>
<polygon fill="#191970" stroke="#191970" points="468.7682,-785.9461 478.8608,-782.7227 468.9609,-778.9487 468.7682,-785.9461"/>
</g>
<!-- Node58612 -->
<g id="node26" class="node">
<title>Node58612</title>
<g id="a_node26"><a xlink:href="quickjs_8c.html#a869fa88a646c0a1914ec2e559b193b5c" target="_top" xlink:title="typed_array_is_detached">
<polygon fill="none" stroke="#000000" points="489.5,-614.5 489.5,-633.5 614.5,-633.5 614.5,-614.5 489.5,-614.5"/>
<text text-anchor="middle" x="552" y="-621.5" font-family="Helvetica,sans-Serif" font-size="10.00" fill="#000000">typed_array_is_detached</text>
</a>
</g>
</g>
<!-- Node58441&#45;&gt;Node58612 -->
<g id="edge73" class="edge">
<title>Node58441&#45;&gt;Node58612</title>
<path fill="none" stroke="#191970" d="M62.464,-620.3935C72.4299,-594.0973 103.7193,-520.2907 154,-481 220.1142,-429.3366 250.1888,-434.5096 333,-421 381.251,-413.1285 404.5141,-390.8511 443,-421 495.6112,-462.2144 442.6651,-510.9077 479,-567 490.4,-584.5989 509.1283,-599.0588 524.7607,-609.0111"/>
<polygon fill="#191970" stroke="#191970" points="523.1649,-612.1369 533.5282,-614.3396 526.8004,-606.155 523.1649,-612.1369"/>
</g>
<!-- Node58675 -->
<g id="node27" class="node">
<title>Node58675</title>
<g id="a_node27"><a xlink:href="quickjs_8c.html#aeb73aae9c3ad7daaf7646e3f2f89245a" target="_top" xlink:title="set_array_length">
<polygon fill="none" stroke="#ff0000" points="343.5,-962.5 343.5,-981.5 432.5,-981.5 432.5,-962.5 343.5,-962.5"/>
<text text-anchor="middle" x="388" y="-969.5" font-family="Helvetica,sans-Serif" font-size="10.00" fill="#000000">set_array_length</text>
</a>
</g>
</g>
<!-- Node58441&#45;&gt;Node58675 -->
<g id="edge71" class="edge">
<title>Node58441&#45;&gt;Node58675</title>
<path fill="none" stroke="#191970" d="M60.9853,-639.5889C70.3941,-684.1593 111.7986,-870.5786 154,-910 202.659,-955.4536 280.7179,-968.3931 333.1477,-971.654"/>
<polygon fill="#191970" stroke="#191970" points="333.1064,-975.1565 343.2757,-972.1839 333.4722,-968.1661 333.1064,-975.1565"/>
</g>
<!-- Node58601 -->
<g id="node28" class="node">
<title>Node58601</title>
<g id="a_node28"><a xlink:href="quickjs_8c.html#a93550bf785e919d0881399712c54cb34" target="_top" xlink:title="JS_GetPrototypePrimitive">
<polygon fill="none" stroke="#000000" points="160.5,-88.5 160.5,-107.5 290.5,-107.5 290.5,-88.5 160.5,-88.5"/>
<text text-anchor="middle" x="225.5" y="-95.5" font-family="Helvetica,sans-Serif" font-size="10.00" fill="#000000">JS_GetPrototypePrimitive</text>
</a>
</g>
</g>
<!-- Node58441&#45;&gt;Node58601 -->
<g id="edge62" class="edge">
<title>Node58441&#45;&gt;Node58601</title>
<path fill="none" stroke="#191970" d="M59.4264,-620.1962C62.4194,-555.8723 82.2973,-194.4184 154,-117 155.23,-115.6719 156.5414,-114.4325 157.9213,-113.2759"/>
<polygon fill="#191970" stroke="#191970" points="160.1394,-116.0022 166.4862,-107.5188 156.2343,-110.1927 160.1394,-116.0022"/>
</g>
<!-- Node58605 -->
<g id="node29" class="node">
<title>Node58605</title>
<g id="a_node29"><a xlink:href="quickjs_8c.html#ab8d0b87c9eed4eb6c054b6f4e1731554" target="_top" xlink:title="JS_ThrowReferenceErrorNot\lDefined">
<polygon fill="none" stroke="#ff0000" points="154,-39 154,-69 297,-69 297,-39 154,-39"/>
<text text-anchor="start" x="162" y="-57" font-family="Helvetica,sans-Serif" font-size="10.00" fill="#000000">JS_ThrowReferenceErrorNot</text>
<text text-anchor="middle" x="225.5" y="-46" font-family="Helvetica,sans-Serif" font-size="10.00" fill="#000000">Defined</text>
</a>
</g>
</g>
<!-- Node58441&#45;&gt;Node58605 -->
<g id="edge67" class="edge">
<title>Node58441&#45;&gt;Node58605</title>
<path fill="none" stroke="#191970" d="M59.3582,-620.412C62.0126,-554.2636 80.6099,-165.6762 154,-79 155.0091,-77.8082 156.0784,-76.6733 157.2002,-75.5923"/>
<polygon fill="#191970" stroke="#191970" points="159.6007,-78.1566 165.2832,-69.2146 155.2647,-72.6612 159.6007,-78.1566"/>
</g>
<!-- Node58570 -->
<g id="node30" class="node">
<title>Node58570</title>
<g id="a_node30"><a xlink:href="quickjs_8c.html#ae738291483438efefca5c9fa4d269504" target="_top" xlink:title="JS_ToNumberFree">
<polygon fill="none" stroke="#ff0000" points="176,-.5 176,-19.5 275,-19.5 275,-.5 176,-.5"/>
<text text-anchor="middle" x="225.5" y="-7.5" font-family="Helvetica,sans-Serif" font-size="10.00" fill="#000000">JS_ToNumberFree</text>
</a>
</g>
</g>
<!-- Node58441&#45;&gt;Node58570 -->
<g id="edge70" class="edge">
<title>Node58441&#45;&gt;Node58570</title>
<path fill="none" stroke="#191970" d="M59.1346,-620.3915C60.3073,-550.5639 70.865,-121.1675 154,-29 157.5647,-25.0479 161.8488,-21.8775 166.5259,-19.3391"/>
<polygon fill="#191970" stroke="#191970" points="168.181,-22.4346 175.9189,-15.1976 165.3568,-16.0296 168.181,-22.4346"/>
</g>
<!-- Node58443 -->
<g id="node3" class="node">
<title>Node58443</title>
<g id="a_node3"><a xlink:href="quickjs_8c.html#a686cf78f8b0361621ee2ba6182195c31" target="_top" xlink:title="is_strict_mode">
<polygon fill="none" stroke="#000000" points="868,-816.5 868,-835.5 948,-835.5 948,-816.5 868,-816.5"/>
<text text-anchor="middle" x="908" y="-823.5" font-family="Helvetica,sans-Serif" font-size="10.00" fill="#000000">is_strict_mode</text>
</a>
</g>
</g>
<!-- Node58442&#45;&gt;Node58443 -->
<g id="edge2" class="edge">
<title>Node58442&#45;&gt;Node58443</title>
<path fill="none" stroke="#191970" d="M588.7574,-747.0861C653.4868,-763.0866 787.7643,-796.2788 859.8213,-814.0907"/>
<polygon fill="#191970" stroke="#191970" points="859.0145,-817.4965 869.5622,-816.4985 860.6943,-810.701 859.0145,-817.4965"/>
</g>
<!-- Node58444 -->
<g id="node4" class="node">
<title>Node58444</title>
<g id="a_node4"><a xlink:href="quickjs_8c.html#a1b110b017211230b8b6310e853cd2b54" target="_top" xlink:title="JS_ThrowError">
<polygon fill="none" stroke="#000000" points="693.5,-728.5 693.5,-747.5 775.5,-747.5 775.5,-728.5 693.5,-728.5"/>
<text text-anchor="middle" x="734.5" y="-735.5" font-family="Helvetica,sans-Serif" font-size="10.00" fill="#000000">JS_ThrowError</text>
</a>
</g>
</g>
<!-- Node58442&#45;&gt;Node58444 -->
<g id="edge3" class="edge">
<title>Node58442&#45;&gt;Node58444</title>
<path fill="none" stroke="#191970" d="M588.9316,-738C616.0439,-738 653.215,-738 683.2086,-738"/>
<polygon fill="#191970" stroke="#191970" points="683.4902,-741.5001 693.4901,-738 683.4901,-734.5001 683.4902,-741.5001"/>
</g>
<!-- Node58445 -->
<g id="node5" class="node">
<title>Node58445</title>
<g id="a_node5"><a xlink:href="quickjs_8c.html#a7a7b507694cc1ecc4e3b5129fed3f5f6" target="_top" xlink:title="JS_GetFunctionBytecode">
<polygon fill="none" stroke="#ff0000" points="844,-766.5 844,-785.5 972,-785.5 972,-766.5 844,-766.5"/>
<text text-anchor="middle" x="908" y="-773.5" font-family="Helvetica,sans-Serif" font-size="10.00" fill="#000000">JS_GetFunctionBytecode</text>
</a>
</g>
</g>
<!-- Node58444&#45;&gt;Node58445 -->
<g id="edge4" class="edge">
<title>Node58444&#45;&gt;Node58445</title>
<path fill="none" stroke="#191970" d="M775.6171,-747.0055C799.2371,-752.1787 829.1668,-758.7339 854.5904,-764.3022"/>
<polygon fill="#191970" stroke="#191970" points="853.934,-767.7414 864.4513,-766.462 855.4317,-760.9034 853.934,-767.7414"/>
</g>
<!-- Node58447 -->
<g id="node6" class="node">
<title>Node58447</title>
<g id="a_node6"><a xlink:href="quickjs_8c.html#aeafb37b03b5560171754f8c4505b0f6b" target="_top" xlink:title="JS_ThrowError2">
<polygon fill="none" stroke="#ff0000" points="864.5,-728.5 864.5,-747.5 951.5,-747.5 951.5,-728.5 864.5,-728.5"/>
<text text-anchor="middle" x="908" y="-735.5" font-family="Helvetica,sans-Serif" font-size="10.00" fill="#000000">JS_ThrowError2</text>
</a>
</g>
</g>
<!-- Node58444&#45;&gt;Node58447 -->
<g id="edge5" class="edge">
<title>Node58444&#45;&gt;Node58447</title>
<path fill="none" stroke="#191970" d="M775.6171,-738C799.1326,-738 828.902,-738 854.2526,-738"/>
<polygon fill="#191970" stroke="#191970" points="854.4513,-741.5001 864.4513,-738 854.4513,-734.5001 854.4513,-741.5001"/>
</g>
<!-- Node58447&#45;&gt;Node58504 -->
<g id="edge6" class="edge">
<title>Node58447&#45;&gt;Node58504</title>
<path fill="none" stroke="#191970" d="M951.6817,-738C966.0966,-738 982.2987,-738 997.3691,-738"/>
<polygon fill="#191970" stroke="#191970" points="997.5858,-741.5001 1007.5858,-738 997.5857,-734.5001 997.5858,-741.5001"/>
</g>
<!-- Node58650&#45;&gt;Node58468 -->
<g id="edge10" class="edge">
<title>Node58650&#45;&gt;Node58468</title>
<path fill="none" stroke="#191970" d="M587.25,-835.574C599.4706,-839.4163 613.0869,-844.2975 625,-850 657.7236,-865.664 692.351,-889.5104 713.698,-905.1749"/>
<polygon fill="#191970" stroke="#191970" points="711.8761,-908.1817 721.9894,-911.3397 716.0528,-902.5643 711.8761,-908.1817"/>
</g>
<!-- Node58650&#45;&gt;Node58564 -->
<g id="edge11" class="edge">
<title>Node58650&#45;&gt;Node58564</title>
<path fill="none" stroke="#191970" d="M609.9853,-816.4611C615.4317,-813.9821 620.5639,-810.8794 625,-807 656.8096,-779.1822 642.7494,-757.1129 661,-719 681.017,-677.1984 708.1746,-630.1347 723.2456,-604.7171"/>
<polygon fill="#191970" stroke="#191970" points="726.4463,-606.1834 728.5634,-595.8022 720.4346,-602.5973 726.4463,-606.1834"/>
</g>
<!-- Node58650&#45;&gt;Node58651 -->
<g id="edge12" class="edge">
<title>Node58650&#45;&gt;Node58651</title>
<path fill="none" stroke="#191970" d="M612.5164,-826C624.7152,-826 637.7438,-826 650.5778,-826"/>
<polygon fill="#191970" stroke="#191970" points="650.8092,-829.5001 660.8092,-826 650.8091,-822.5001 650.8092,-829.5001"/>
</g>
<!-- Node58651&#45;&gt;Node58443 -->
<g id="edge13" class="edge">
<title>Node58651&#45;&gt;Node58443</title>
<path fill="none" stroke="#191970" d="M808.0796,-826C824.7387,-826 842.0613,-826 857.5123,-826"/>
<polygon fill="#191970" stroke="#191970" points="857.8789,-829.5001 867.8789,-826 857.8789,-822.5001 857.8789,-829.5001"/>
</g>
<!-- Node58674&#45;&gt;Node58443 -->
<g id="edge16" class="edge">
<title>Node58674&#45;&gt;Node58443</title>
<path fill="none" stroke="#191970" d="M419.2317,-1207.1174C466.6308,-1216.2199 558.2639,-1227.0443 625,-1193 779.1357,-1114.3701 874.0204,-908.8499 900.4274,-845.1244"/>
<polygon fill="#191970" stroke="#191970" points="903.7997,-846.1222 904.3211,-835.5402 897.3145,-843.4875 903.7997,-846.1222"/>
</g>
<!-- Node58674&#45;&gt;Node58504 -->
<g id="edge19" class="edge">
<title>Node58674&#45;&gt;Node58504</title>
<path fill="none" stroke="#191970" d="M419.3164,-1208.9908C465.2873,-1220.7187 553.3478,-1237.5666 625,-1218 716.1052,-1193.1212 739.7188,-1175.2441 808,-1110 926.3825,-996.8832 1015.5071,-815.6118 1042.5089,-756.9649"/>
<polygon fill="#191970" stroke="#191970" points="1045.7374,-758.3203 1046.6936,-747.7687 1039.3661,-755.421 1045.7374,-758.3203"/>
</g>
<!-- Node58674&#45;&gt;Node58468 -->
<g id="edge18" class="edge">
<title>Node58674&#45;&gt;Node58468</title>
<path fill="none" stroke="#191970" d="M419.2482,-1202.8743C468.3187,-1205.6794 564.117,-1204.0499 625,-1157 697.1545,-1101.2396 723.6049,-986.6493 731.5627,-940.6997"/>
<polygon fill="#191970" stroke="#191970" points="735.0588,-941.0053 733.204,-930.5741 728.149,-939.8852 735.0588,-941.0053"/>
</g>
<!-- Node58674&#45;&gt;Node58467 -->
<g id="edge17" class="edge">
<title>Node58674&#45;&gt;Node58467</title>
<path fill="none" stroke="#191970" d="M397.2872,-1190.4862C423.8852,-1163.2396 500.6356,-1084.6172 535.0049,-1049.4096"/>
<polygon fill="#191970" stroke="#191970" points="537.9252,-1051.4285 542.4061,-1041.8279 532.9162,-1046.5388 537.9252,-1051.4285"/>
</g>
<!-- Node58561&#45;&gt;Node58504 -->
<g id="edge23" class="edge">
<title>Node58561&#45;&gt;Node58504</title>
<path fill="none" stroke="#191970" d="M588.9595,-405.6008C600.803,-409.3415 613.755,-414.1537 625,-420 798.6902,-510.3013 977.0088,-669.2732 1033.0457,-721.1274"/>
<polygon fill="#191970" stroke="#191970" points="1030.9867,-723.9924 1040.6917,-728.2425 1035.7554,-718.8679 1030.9867,-723.9924"/>
</g>
<!-- Node58561&#45;&gt;Node58468 -->
<g id="edge22" class="edge">
<title>Node58561&#45;&gt;Node58468</title>
<path fill="none" stroke="#191970" d="M571.8808,-405.5847C589.1276,-415.0535 613.1344,-431.2657 625,-453 708.835,-606.5613 588.0458,-685.9809 661,-845 672.3793,-869.8036 695.3309,-891.4304 712.5757,-905.2047"/>
<polygon fill="#191970" stroke="#191970" points="710.4494,-907.9848 720.5072,-911.3153 714.7216,-902.4396 710.4494,-907.9848"/>
</g>
<!-- Node58561&#45;&gt;Node58582 -->
<g id="edge24" class="edge">
<title>Node58561&#45;&gt;Node58582</title>
<path fill="none" stroke="#191970" d="M598.0525,-386.411C623.4268,-381.1276 655.0392,-374.5453 681.4448,-369.0471"/>
<polygon fill="#191970" stroke="#191970" points="682.2096,-372.463 691.2862,-366.9979 680.7827,-365.61 682.2096,-372.463"/>
</g>
<!-- Node58649&#45;&gt;Node58442 -->
<g id="edge27" class="edge">
<title>Node58649&#45;&gt;Node58442</title>
<path fill="none" stroke="#191970" d="M402.5539,-639.5843C431.0508,-658.3505 494.4166,-700.0792 528.773,-722.7042"/>
<polygon fill="#191970" stroke="#191970" points="526.9663,-725.7051 537.243,-728.282 530.8162,-719.8589 526.9663,-725.7051"/>
</g>
<!-- Node58649&#45;&gt;Node58509 -->
<g id="edge28" class="edge">
<title>Node58649&#45;&gt;Node58509</title>
<path fill="none" stroke="#191970" d="M407.1339,-620.4331C435.8958,-606.0521 490.4463,-578.7769 523.7816,-562.1092"/>
<polygon fill="#191970" stroke="#191970" points="525.609,-565.1087 532.988,-557.506 522.4785,-558.8477 525.609,-565.1087"/>
</g>
<!-- Node58649&#45;&gt;Node58510 -->
<g id="edge29" class="edge">
<title>Node58649&#45;&gt;Node58510</title>
<path fill="none" stroke="#191970" d="M393.9409,-620.2262C406.7962,-599.9396 439.2646,-553.1454 479,-529 482.5883,-526.8195 486.4229,-524.8872 490.3857,-523.1751"/>
<polygon fill="#191970" stroke="#191970" points="491.7225,-526.4111 499.8097,-519.5666 489.2193,-519.874 491.7225,-526.4111"/>
</g>
<!-- Node58649&#45;&gt;Node58650 -->
<g id="edge30" class="edge">
<title>Node58649&#45;&gt;Node58650</title>
<path fill="none" stroke="#191970" d="M390.0735,-639.8308C396.9389,-669.8747 421.8245,-761.21 479,-807 481.1769,-808.7434 483.4969,-810.3283 485.921,-811.7689"/>
<polygon fill="#191970" stroke="#191970" points="484.5785,-815.0114 495.0846,-816.3796 487.7248,-808.7583 484.5785,-815.0114"/>
</g>
<!-- Node58649&#45;&gt;Node58651 -->
<g id="edge34" class="edge">
<title>Node58649&#45;&gt;Node58651</title>
<path fill="none" stroke="#191970" d="M429.6279,-639.5091C479.1523,-652.1488 562.9244,-677.8112 625,-719 644.3852,-731.8626 644.5122,-740.587 661,-757 679.42,-775.3365 701.202,-795.6176 716.2474,-809.4173"/>
<polygon fill="#191970" stroke="#191970" points="714.1056,-812.2013 723.8487,-816.3634 718.8277,-807.0339 714.1056,-812.2013"/>
</g>
<!-- Node58649&#45;&gt;Node58541 -->
<g id="edge31" class="edge">
<title>Node58649&#45;&gt;Node58541</title>
<path fill="none" stroke="#191970" d="M391.5353,-620.1308C401.2243,-594.5458 430.741,-525.663 479,-491 486.8153,-485.3865 496.158,-481.4302 505.5076,-478.6421"/>
<polygon fill="#191970" stroke="#191970" points="506.3838,-482.0307 515.1895,-476.1391 504.6317,-475.2535 506.3838,-482.0307"/>
</g>
<!-- Node58649&#45;&gt;Node58467 -->
<g id="edge33" class="edge">
<title>Node58649&#45;&gt;Node58467</title>
<path fill="none" stroke="#191970" d="M391.3975,-639.5537C400.5053,-665.3638 425.9305,-738.7441 443,-801 462.0443,-870.4585 444.1735,-895.9582 479,-959 491.6942,-981.9786 513.759,-1002.5595 530.3163,-1015.9644"/>
<polygon fill="#191970" stroke="#191970" points="528.3641,-1018.8812 538.3939,-1022.2948 532.682,-1013.3716 528.3641,-1018.8812"/>
</g>
<!-- Node58649&#45;&gt;Node58561 -->
<g id="edge32" class="edge">
<title>Node58649&#45;&gt;Node58561</title>
<path fill="none" stroke="#191970" d="M391.2773,-620.3236C401.1388,-592.194 432.736,-508.8985 479,-453 492.7122,-436.4322 512.0227,-421.6174 527.3388,-411.2463"/>
<polygon fill="#191970" stroke="#191970" points="529.3859,-414.0893 535.8225,-405.6738 525.5428,-408.2385 529.3859,-414.0893"/>
</g>
<!-- Node58649&#45;&gt;Node58665 -->
<g id="edge35" class="edge">
<title>Node58649&#45;&gt;Node58665</title>
<path fill="none" stroke="#191970" d="M391.1596,-639.847C401.3964,-671.1046 435.5203,-770.4146 479,-845 495.9874,-874.1403 520.7455,-904.4825 536.6132,-922.8111"/>
<polygon fill="#191970" stroke="#191970" points="533.9922,-925.1307 543.2183,-930.3394 539.2541,-920.5141 533.9922,-925.1307"/>
</g>
<!-- Node58665&#45;&gt;Node58468 -->
<g id="edge36" class="edge">
<title>Node58665&#45;&gt;Node58468</title>
<path fill="none" stroke="#191970" d="M581.728,-936.905C609.6166,-934.0016 651.8565,-929.604 684.8577,-926.1682"/>
<polygon fill="#191970" stroke="#191970" points="685.634,-929.6064 695.2178,-925.0897 684.9091,-922.6441 685.634,-929.6064"/>
</g>
<!-- Node58644&#45;&gt;Node58442 -->
<g id="edge38" class="edge">
<title>Node58644&#45;&gt;Node58442</title>
<path fill="none" stroke="#191970" d="M269.873,-677.5134C331.4789,-690.7213 442.4153,-714.5056 505.2577,-727.9787"/>
<polygon fill="#191970" stroke="#191970" points="504.7775,-731.4552 515.289,-730.1293 506.2449,-724.6107 504.7775,-731.4552"/>
</g>
<!-- Node58644&#45;&gt;Node58504 -->
<g id="edge45" class="edge">
<title>Node58644&#45;&gt;Node58504</title>
<path fill="none" stroke="#191970" d="M275.168,-668.5215C395.4526,-670.4069 711.6635,-679.0897 972,-719 983.316,-720.7348 995.3967,-723.2791 1006.6201,-725.9454"/>
<polygon fill="#191970" stroke="#191970" points="1006.0933,-729.4201 1016.6397,-728.4086 1007.7644,-722.6225 1006.0933,-729.4201"/>
</g>
<!-- Node58644&#45;&gt;Node58509 -->
<g id="edge39" class="edge">
<title>Node58644&#45;&gt;Node58509</title>
<path fill="none" stroke="#191970" d="M233.5089,-658.3765C249.9418,-639.372 289.5954,-597.2055 333,-578 380.0461,-557.1832 437.8743,-549.9417 482.2912,-547.7661"/>
<polygon fill="#191970" stroke="#191970" points="482.569,-551.2577 492.4152,-547.3459 482.2786,-544.2637 482.569,-551.2577"/>
</g>
<!-- Node58644&#45;&gt;Node58510 -->
<g id="edge40" class="edge">
<title>Node58644&#45;&gt;Node58510</title>
<path fill="none" stroke="#191970" d="M231.0291,-658.2384C244.8403,-634.852 283.3365,-575.5225 333,-548 380.5396,-521.6545 442.0603,-512.7961 487.7872,-510.1573"/>
<polygon fill="#191970" stroke="#191970" points="488.0626,-513.6481 497.8783,-509.6605 487.7183,-506.6566 488.0626,-513.6481"/>
</g>
<!-- Node58644&#45;&gt;Node58468 -->
<g id="edge44" class="edge">
<title>Node58644&#45;&gt;Node58468</title>
<path fill="none" stroke="#191970" d="M228.8157,-677.8711C239.1824,-707.1982 273.8672,-794.5265 333,-839 339.7453,-844.0731 470.7592,-879.1771 479,-881 549.9519,-896.6951 633.3142,-908.5329 685.0345,-915.1172"/>
<polygon fill="#191970" stroke="#191970" points="684.9006,-918.6279 695.2591,-916.4028 685.7739,-911.6826 684.9006,-918.6279"/>
</g>
<!-- Node58644&#45;&gt;Node58564 -->
<g id="edge47" class="edge">
<title>Node58644&#45;&gt;Node58564</title>
<path fill="none" stroke="#191970" d="M238.9484,-658.4173C258.5496,-645.0415 296.6066,-621.263 333,-611 456.4219,-576.1949 609.3429,-578.4562 685.9545,-582.5178"/>
<polygon fill="#191970" stroke="#191970" points="686.0658,-586.0296 696.2473,-583.0992 686.4606,-579.0407 686.0658,-586.0296"/>
</g>
<!-- Node58644&#45;&gt;Node58467 -->
<g id="edge43" class="edge">
<title>Node58644&#45;&gt;Node58467</title>
<path fill="none" stroke="#191970" d="M227.3799,-677.7982C237.0232,-727.0447 282.4499,-946.9058 333,-991 379.9444,-1031.949 454.493,-1037.6029 503.3372,-1036.1635"/>
<polygon fill="#191970" stroke="#191970" points="503.5002,-1039.6599 513.3507,-1035.7588 503.2175,-1032.6656 503.5002,-1039.6599"/>
</g>
<!-- Node58644&#45;&gt;Node58459 -->
<g id="edge41" class="edge">
<title>Node58644&#45;&gt;Node58459</title>
<path fill="none" stroke="#191970" d="M230.4696,-658.3607C251.0775,-618.4151 328.9306,-467.7807 333,-464 337.1502,-460.1443 342.0186,-456.8437 347.113,-454.0365"/>
<polygon fill="#191970" stroke="#191970" points="348.9631,-457.0285 356.4206,-449.5028 345.8977,-450.7354 348.9631,-457.0285"/>
</g>
<!-- Node58644&#45;&gt;Node58582 -->
<g id="edge46" class="edge">
<title>Node58644&#45;&gt;Node58582</title>
<path fill="none" stroke="#191970" d="M229.906,-658.213C242.4257,-631.3618 280.7133,-555.5793 333,-511 374.1501,-475.9156 405.2995,-497.7675 443,-459 470.7489,-430.4658 446.5061,-399.9858 479,-377 538.1406,-335.1646 625.4413,-338.8694 681.136,-347.1025"/>
<polygon fill="#191970" stroke="#191970" points="680.7305,-350.5818 691.1537,-348.6826 681.8211,-343.6672 680.7305,-350.5818"/>
</g>
<!-- Node58644&#45;&gt;Node58649 -->
<g id="edge42" class="edge">
<title>Node58644&#45;&gt;Node58649</title>
<path fill="none" stroke="#191970" d="M266.5056,-658.411C288.0458,-653.3739 314.6347,-647.1562 337.4414,-641.8229"/>
<polygon fill="#191970" stroke="#191970" points="338.3489,-645.2052 347.2893,-639.5201 336.755,-638.3891 338.3489,-645.2052"/>
</g>
<!-- Node58644&#45;&gt;Node58665 -->
<g id="edge59" class="edge">
<title>Node58644&#45;&gt;Node58665</title>
<path fill="none" stroke="#191970" d="M227.7953,-677.7883C235.9736,-710.489 266.8066,-816.9845 333,-872 385.0898,-915.2936 464.6691,-931.0764 512.1935,-936.7933"/>
<polygon fill="#191970" stroke="#191970" points="512.0757,-940.3016 522.4006,-937.9253 512.8473,-933.3443 512.0757,-940.3016"/>
</g>
<!-- Node58644&#45;&gt;Node58672 -->
<g id="edge48" class="edge">
<title>Node58644&#45;&gt;Node58672</title>
<path fill="none" stroke="#191970" d="M235.6651,-677.5083C262.682,-702.7795 336.5207,-771.8471 370.4839,-803.6157"/>
<polygon fill="#191970" stroke="#191970" points="368.1447,-806.2202 377.8387,-810.4953 372.9266,-801.108 368.1447,-806.2202"/>
</g>
<!-- Node58644&#45;&gt;Node58675 -->
<g id="edge55" class="edge">
<title>Node58644&#45;&gt;Node58675</title>
<path fill="none" stroke="#191970" d="M226.5193,-677.606C231.1401,-716.5852 253.4752,-864.8235 333,-948 336.6414,-951.8086 340.9908,-955.0491 345.6263,-957.7973"/>
<polygon fill="#191970" stroke="#191970" points="344.2874,-961.0441 354.7824,-962.4954 347.4831,-954.8161 344.2874,-961.0441"/>
</g>
<!-- Node58672&#45;&gt;Node58442 -->
<g id="edge49" class="edge">
<title>Node58672&#45;&gt;Node58442</title>
<path fill="none" stroke="#191970" d="M399.3144,-810.4417C415.822,-796.9449 447.9351,-772.3503 479,-758 487.234,-754.1963 496.3347,-750.9898 505.2362,-748.335"/>
<polygon fill="#191970" stroke="#191970" points="506.4537,-751.629 515.1447,-745.5696 504.5719,-744.8867 506.4537,-751.629"/>
</g>
<!-- Node58672&#45;&gt;Node58650 -->
<g id="edge50" class="edge">
<title>Node58672&#45;&gt;Node58650</title>
<path fill="none" stroke="#191970" d="M443.0659,-822.0146C455.3279,-822.4632 468.4939,-822.9449 481.2864,-823.4129"/>
<polygon fill="#191970" stroke="#191970" points="481.3198,-826.9164 491.4411,-823.7844 481.5758,-819.9211 481.3198,-826.9164"/>
</g>
<!-- Node58672&#45;&gt;Node58468 -->
<g id="edge51" class="edge">
<title>Node58672&#45;&gt;Node58468</title>
<path fill="none" stroke="#191970" d="M421.7934,-829.5433C467.8074,-842.5726 552.7231,-866.7411 625,-888 647.5898,-894.6444 672.7493,-902.2147 693.2497,-908.4271"/>
<polygon fill="#191970" stroke="#191970" points="692.3222,-911.8031 702.9076,-911.3577 694.3548,-905.1047 692.3222,-911.8031"/>
</g>
<!-- Node58672&#45;&gt;Node58665 -->
<g id="edge53" class="edge">
<title>Node58672&#45;&gt;Node58665</title>
<path fill="none" stroke="#191970" d="M401.1436,-829.6173C429.3322,-850.2431 495.8333,-898.9024 530.3553,-924.1624"/>
<polygon fill="#191970" stroke="#191970" points="528.6567,-927.2564 538.7938,-930.3369 532.7903,-921.6072 528.6567,-927.2564"/>
</g>
<!-- Node58672&#45;&gt;Node58611 -->
<g id="edge52" class="edge">
<title>Node58672&#45;&gt;Node58611</title>
<path fill="none" stroke="#191970" d="M429.3841,-810.411C443.843,-807.0608 460.5558,-803.1883 476.9004,-799.4011"/>
<polygon fill="#191970" stroke="#191970" points="478.0544,-802.7266 487.0062,-797.0595 476.4742,-795.9072 478.0544,-802.7266"/>
</g>
<!-- Node58672&#45;&gt;Node58612 -->
<g id="edge54" class="edge">
<title>Node58672&#45;&gt;Node58612</title>
<path fill="none" stroke="#191970" d="M396.1328,-810.2803C422.1453,-779.1922 503.5741,-681.8748 537.2235,-641.6597"/>
<polygon fill="#191970" stroke="#191970" points="540.0852,-643.6938 543.8181,-633.7783 534.7166,-639.2017 540.0852,-643.6938"/>
</g>
<!-- Node58675&#45;&gt;Node58442 -->
<g id="edge56" class="edge">
<title>Node58675&#45;&gt;Node58442</title>
<path fill="none" stroke="#191970" d="M391.9353,-962.4333C408.8563,-921.3386 474.7625,-761.7021 479,-758 486.4915,-751.455 495.936,-747.0319 505.5233,-744.0482"/>
<polygon fill="#191970" stroke="#191970" points="506.7068,-747.3562 515.4901,-741.4312 504.929,-740.5857 506.7068,-747.3562"/>
</g>
<!-- Node58675&#45;&gt;Node58468 -->
<g id="edge57" class="edge">
<title>Node58675&#45;&gt;Node58468</title>
<path fill="none" stroke="#191970" d="M432.5744,-973.2328C480.5559,-973.7089 558.8947,-972.0161 625,-959 652.2229,-953.6398 681.8865,-943.0301 703.4643,-934.3806"/>
<polygon fill="#191970" stroke="#191970" points="704.8432,-937.5981 712.7717,-930.5703 702.1911,-931.1199 704.8432,-937.5981"/>
</g>
<!-- Node58675&#45;&gt;Node58665 -->
<g id="edge58" class="edge">
<title>Node58675&#45;&gt;Node58665</title>
<path fill="none" stroke="#191970" d="M432.8137,-963.2559C457.7089,-958.3983 488.4056,-952.4087 512.4113,-947.7246"/>
<polygon fill="#191970" stroke="#191970" points="513.1087,-951.1546 522.2533,-945.8042 511.7681,-944.2842 513.1087,-951.1546"/>
</g>
</g>
</svg>
