<?xml version="1.0" encoding="UTF-8" standalone="no"?>
<!DOCTYPE svg PUBLIC "-//W3C//DTD SVG 1.1//EN"
 "http://www.w3.org/Graphics/SVG/1.1/DTD/svg11.dtd">
<!-- Generated by graphviz version 2.40.1 (20161225.0304)
 -->
<!-- Title: JS_DefinePropertyValueStr Pages: 1 -->
<!--zoomable 617 -->
<svg id="main" version="1.1" xmlns="http://www.w3.org/2000/svg" xmlns:xlink="http://www.w3.org/1999/xlink" xml:space="preserve" onload="init(evt)">
<style type="text/css"><![CDATA[
.edge:hover path { stroke: red; }
.edge:hover polygon { stroke: red; fill: red; }
]]></style>
<script type="text/javascript"><![CDATA[
var edges = document.getElementsByTagName('g');
if (edges && edges.length) {
  for (var i=0;i<edges.length;i++) {
    if (edges[i].id.substr(0,4)=='edge') {
      edges[i].setAttribute('class','edge');
    }
  }
}
]]></script>
        <defs>
                <circle id="rim" cx="0" cy="0" r="7"/>
                <circle id="rim2" cx="0" cy="0" r="3.5"/>
                <g id="zoomPlus">
                        <use xlink:href="#rim" fill="#404040">
                                <set attributeName="fill" to="#808080" begin="zoomplus.mouseover" end="zoomplus.mouseout"/>
                        </use>
                        <path d="M-4,0h8M0,-4v8" fill="none" stroke="white" stroke-width="1.5" pointer-events="none"/>
                </g>
                <g id="zoomMin">
                        <use xlink:href="#rim" fill="#404040">
                                <set attributeName="fill" to="#808080" begin="zoomminus.mouseover" end="zoomminus.mouseout"/>
                        </use>
                        <path d="M-4,0h8" fill="none" stroke="white" stroke-width="1.5" pointer-events="none"/>
                </g>
                <g id="dirArrow">
                        <path fill="none" stroke="white" stroke-width="1.5" d="M0,-3.0v7 M-2.5,-0.5L0,-3.0L2.5,-0.5"/>
                </g>
               <g id="resetDef">
                       <use xlink:href="#rim2" fill="#404040">
                               <set attributeName="fill" to="#808080" begin="reset.mouseover" end="reset.mouseout"/>
                       </use>
               </g>
        </defs>

<script type="text/javascript">
var viewWidth = 938;
var viewHeight = 617;
var sectionId = 'dynsection-219';
</script>
<script xlink:href="svgpan.js"/>
<svg id="graph" class="graph">
<g id="viewport">
<title>JS_DefinePropertyValueStr</title>
<!-- Node76993 -->
<g id="node1" class="node">
<title>Node76993</title>
<polygon fill="#bfbfbf" stroke="#000000" points="0,-342.5 0,-361.5 137,-361.5 137,-342.5 0,-342.5"/>
<text text-anchor="middle" x="68.5" y="-349.5" font-family="Helvetica,sans-Serif" font-size="10.00" fill="#000000">JS_DefinePropertyValueStr</text>
</g>
<!-- Node76994 -->
<g id="node2" class="node">
<title>Node76994</title>
<g id="a_node2"><a xlink:href="quickjs-libc_8c.html#a9fa4c190ba56314c7ed9b00bbc7ad0f9" target="_top" xlink:title="handle_posted_message">
<polygon fill="none" stroke="#000000" points="183.5,-589.5 183.5,-608.5 308.5,-608.5 308.5,-589.5 183.5,-589.5"/>
<text text-anchor="middle" x="246" y="-596.5" font-family="Helvetica,sans-Serif" font-size="10.00" fill="#000000">handle_posted_message</text>
</a>
</g>
</g>
<!-- Node76993&#45;&gt;Node76994 -->
<g id="edge1" class="edge">
<title>Node76993&#45;&gt;Node76994</title>
<path fill="none" stroke="#191970" d="M71.6674,-371.5638C79.8823,-415.7734 106.0903,-523.8906 173,-580 177.6159,-583.8708 182.9299,-586.964 188.5422,-589.4341"/>
<polygon fill="#191970" stroke="#191970" points="75.0863,-370.7956 69.9162,-361.5479 68.1909,-372.0013 75.0863,-370.7956"/>
</g>
<!-- Node76995 -->
<g id="node3" class="node">
<title>Node76995</title>
<g id="a_node3"><a xlink:href="quickjs_8c.html#a4c9489297c684663f30e517204a9ec14" target="_top" xlink:title="JS_AddIntrinsicBaseObjects">
<polygon fill="none" stroke="#000000" points="554.5,-504.5 554.5,-523.5 696.5,-523.5 696.5,-504.5 554.5,-504.5"/>
<text text-anchor="middle" x="625.5" y="-511.5" font-family="Helvetica,sans-Serif" font-size="10.00" fill="#000000">JS_AddIntrinsicBaseObjects</text>
</a>
</g>
</g>
<!-- Node76993&#45;&gt;Node76995 -->
<g id="edge2" class="edge">
<title>Node76993&#45;&gt;Node76995</title>
<path fill="none" stroke="#191970" d="M90.2623,-367.4299C136.4119,-399.1706 248.6074,-471.2107 355,-500 420.9321,-517.8409 499.127,-519.9435 554.4442,-518.4237"/>
<polygon fill="#191970" stroke="#191970" points="92.1438,-364.4753 81.9343,-361.6439 88.1497,-370.224 92.1438,-364.4753"/>
</g>
<!-- Node77002 -->
<g id="node6" class="node">
<title>Node77002</title>
<g id="a_node6"><a xlink:href="quickjs_8c.html#a3afdbdd7b58ef7e1dcc178c362071b3d" target="_top" xlink:title="JS_AddIntrinsicProxy">
<polygon fill="none" stroke="#000000" points="190.5,-551.5 190.5,-570.5 301.5,-570.5 301.5,-551.5 190.5,-551.5"/>
<text text-anchor="middle" x="246" y="-558.5" font-family="Helvetica,sans-Serif" font-size="10.00" fill="#000000">JS_AddIntrinsicProxy</text>
</a>
</g>
</g>
<!-- Node76993&#45;&gt;Node77002 -->
<g id="edge5" class="edge">
<title>Node76993&#45;&gt;Node77002</title>
<path fill="none" stroke="#191970" d="M74.2099,-371.3891C86.235,-408.8876 117.7159,-491.6388 173,-537 180.7352,-543.3468 190.2036,-548.0347 199.7259,-551.491"/>
<polygon fill="#191970" stroke="#191970" points="77.5085,-370.2085 71.2133,-361.6867 70.8202,-372.2742 77.5085,-370.2085"/>
</g>
<!-- Node77003 -->
<g id="node7" class="node">
<title>Node77003</title>
<g id="a_node7"><a xlink:href="quickjs-libc_8c.html#a5cc3e22713f1916d49867f60a7375505" target="_top" xlink:title="js_module_set_import_meta">
<polygon fill="none" stroke="#000000" points="176.5,-304.5 176.5,-323.5 315.5,-323.5 315.5,-304.5 176.5,-304.5"/>
<text text-anchor="middle" x="246" y="-311.5" font-family="Helvetica,sans-Serif" font-size="10.00" fill="#000000">js_module_set_import_meta</text>
</a>
</g>
</g>
<!-- Node76993&#45;&gt;Node77003 -->
<g id="edge7" class="edge">
<title>Node76993&#45;&gt;Node77003</title>
<path fill="none" stroke="#191970" d="M123.3969,-340.2474C148.4954,-334.8742 177.8428,-328.5914 201.5313,-323.5201"/>
<polygon fill="#191970" stroke="#191970" points="122.3365,-336.8951 113.2907,-342.411 123.8019,-343.74 122.3365,-336.8951"/>
</g>
<!-- Node77006 -->
<g id="node11" class="node">
<title>Node77006</title>
<g id="a_node11"><a xlink:href="quickjs_8c.html#acd5457d29e9641ae5e3a1d778f94bd0e" target="_top" xlink:title="JS_NewGlobalCConstructor2">
<polygon fill="none" stroke="#000000" points="173,-361.5 173,-380.5 319,-380.5 319,-361.5 173,-361.5"/>
<text text-anchor="middle" x="246" y="-368.5" font-family="Helvetica,sans-Serif" font-size="10.00" fill="#000000">JS_NewGlobalCConstructor2</text>
</a>
</g>
</g>
<!-- Node76993&#45;&gt;Node77006 -->
<g id="edge11" class="edge">
<title>Node76993&#45;&gt;Node77006</title>
<path fill="none" stroke="#191970" d="M147.1012,-360.4137C155.665,-361.3303 164.3566,-362.2607 172.8513,-363.17"/>
<polygon fill="#191970" stroke="#191970" points="147.4419,-356.9302 137.1261,-359.3459 146.6968,-363.8904 147.4419,-356.9302"/>
</g>
<!-- Node77014 -->
<g id="node19" class="node">
<title>Node77014</title>
<g id="a_node19"><a xlink:href="quickjs-libc_8c.html#a0142166ddf6e134f89207c3ee3c7572c" target="_top" xlink:title="js_os_stat">
<polygon fill="none" stroke="#000000" points="215,-266.5 215,-285.5 277,-285.5 277,-266.5 215,-266.5"/>
<text text-anchor="middle" x="246" y="-273.5" font-family="Helvetica,sans-Serif" font-size="10.00" fill="#000000">js_os_stat</text>
</a>
</g>
</g>
<!-- Node76993&#45;&gt;Node77014 -->
<g id="edge27" class="edge">
<title>Node76993&#45;&gt;Node77014</title>
<path fill="none" stroke="#191970" d="M91.8653,-337.0864C112.5296,-324.4328 143.8404,-306.5449 173,-295 186.3939,-289.6971 201.7555,-285.4434 214.9208,-282.3163"/>
<polygon fill="#191970" stroke="#191970" points="89.8137,-334.2404 83.166,-342.4902 93.5074,-340.1866 89.8137,-334.2404"/>
</g>
<!-- Node77015 -->
<g id="node20" class="node">
<title>Node77015</title>
<g id="a_node20"><a xlink:href="quickjs_8c.html#a9eb2d90f27f684820f9de13189502b7c" target="_top" xlink:title="js_regexp_exec">
<polygon fill="none" stroke="#000000" points="203.5,-209.5 203.5,-228.5 288.5,-228.5 288.5,-209.5 203.5,-209.5"/>
<text text-anchor="middle" x="246" y="-216.5" font-family="Helvetica,sans-Serif" font-size="10.00" fill="#000000">js_regexp_exec</text>
</a>
</g>
</g>
<!-- Node76993&#45;&gt;Node77015 -->
<g id="edge28" class="edge">
<title>Node76993&#45;&gt;Node77015</title>
<path fill="none" stroke="#191970" d="M84.2484,-335.2474C103.7886,-315.064 138.732,-280.8936 173,-257 189.1738,-245.7227 209.1232,-235.5614 224.0777,-228.5899"/>
<polygon fill="#191970" stroke="#191970" points="81.7038,-332.8441 77.3188,-342.489 86.7613,-337.6838 81.7038,-332.8441"/>
</g>
<!-- Node77024 -->
<g id="node29" class="node">
<title>Node77024</title>
<g id="a_node29"><a xlink:href="quickjs-libc_8c.html#a7aebce2172c6aa4a6645aef600a69e6b" target="_top" xlink:title="js_std_urlGet">
<polygon fill="none" stroke="#000000" points="209,-171.5 209,-190.5 283,-190.5 283,-171.5 209,-171.5"/>
<text text-anchor="middle" x="246" y="-178.5" font-family="Helvetica,sans-Serif" font-size="10.00" fill="#000000">js_std_urlGet</text>
</a>
</g>
</g>
<!-- Node76993&#45;&gt;Node77024 -->
<g id="edge38" class="edge">
<title>Node76993&#45;&gt;Node77024</title>
<path fill="none" stroke="#191970" d="M76.1358,-333.1453C90.2473,-300.7511 123.5529,-234.675 173,-200 183.5078,-192.6314 196.6683,-188.12 208.9108,-185.3581"/>
<polygon fill="#191970" stroke="#191970" points="72.8951,-331.8227 72.2324,-342.3968 79.3445,-334.5439 72.8951,-331.8227"/>
</g>
<!-- Node76996 -->
<g id="node4" class="node">
<title>Node76996</title>
<g id="a_node4"><a xlink:href="quickjs_8c.html#ad8aedb643b8753b7a15f6cb2df61945e" target="_top" xlink:title="JS_NewContext">
<polygon fill="none" stroke="#000000" points="735,-428.5 735,-447.5 824,-447.5 824,-428.5 735,-428.5"/>
<text text-anchor="middle" x="779.5" y="-435.5" font-family="Helvetica,sans-Serif" font-size="10.00" fill="#000000">JS_NewContext</text>
</a>
</g>
</g>
<!-- Node76995&#45;&gt;Node76996 -->
<g id="edge3" class="edge">
<title>Node76995&#45;&gt;Node76996</title>
<path fill="none" stroke="#191970" d="M682.9937,-501.3177C688.4995,-499.4571 693.9191,-497.3582 699,-495 726.338,-482.3115 754.1351,-460.1283 768.8385,-447.5029"/>
<polygon fill="#191970" stroke="#191970" points="681.5527,-498.1005 673.0446,-504.4141 683.633,-504.7843 681.5527,-498.1005"/>
</g>
<!-- Node76997 -->
<g id="node5" class="node">
<title>Node76997</title>
<g id="a_node5"><a xlink:href="quickjs-libc_8c.html#a1fbb3adc15e7b967479fc1940e99b67a" target="_top" xlink:title="worker_func">
<polygon fill="none" stroke="#ff0000" points="860,-428.5 860,-447.5 930,-447.5 930,-428.5 860,-428.5"/>
<text text-anchor="middle" x="895" y="-435.5" font-family="Helvetica,sans-Serif" font-size="10.00" fill="#000000">worker_func</text>
</a>
</g>
</g>
<!-- Node76996&#45;&gt;Node76997 -->
<g id="edge4" class="edge">
<title>Node76996&#45;&gt;Node76997</title>
<path fill="none" stroke="#191970" d="M834.2535,-438C842.9312,-438 851.6994,-438 859.7714,-438"/>
<polygon fill="#191970" stroke="#191970" points="834.1554,-434.5001 824.1553,-438 834.1553,-441.5001 834.1554,-434.5001"/>
</g>
<!-- Node77002&#45;&gt;Node76996 -->
<g id="edge6" class="edge">
<title>Node77002&#45;&gt;Node76996</title>
<path fill="none" stroke="#191970" d="M309.2777,-571.9727C400.6828,-584.6528 572.5509,-596.4039 699,-533 737.0699,-513.9111 764.2182,-467.9442 774.7098,-447.7703"/>
<polygon fill="#191970" stroke="#191970" points="309.7398,-568.5032 299.3439,-570.5466 308.7451,-575.4322 309.7398,-568.5032"/>
</g>
<!-- Node77004 -->
<g id="node8" class="node">
<title>Node77004</title>
<g id="a_node8"><a xlink:href="quickjs-libc_8c.html#ad61d60681847f324c5ba4ad88c546f1e" target="_top" xlink:title="js_module_loader">
<polygon fill="none" stroke="#000000" points="389.5,-247.5 389.5,-266.5 481.5,-266.5 481.5,-247.5 389.5,-247.5"/>
<text text-anchor="middle" x="435.5" y="-254.5" font-family="Helvetica,sans-Serif" font-size="10.00" fill="#000000">js_module_loader</text>
</a>
</g>
</g>
<!-- Node77003&#45;&gt;Node77004 -->
<g id="edge8" class="edge">
<title>Node77003&#45;&gt;Node77004</title>
<path fill="none" stroke="#191970" d="M299.1971,-301.6951C305.9391,-299.6869 312.6837,-297.4507 319,-295 335.8666,-288.4557 338.0598,-282.3513 355,-276 365.8911,-271.9167 377.9492,-268.5152 389.3456,-265.7729"/>
<polygon fill="#191970" stroke="#191970" points="298.0423,-298.3844 289.3715,-304.4728 299.9465,-305.1204 298.0423,-298.3844"/>
</g>
<!-- Node77005 -->
<g id="node10" class="node">
<title>Node77005</title>
<g id="a_node10"><a xlink:href="quickjs-libc_8c.html#ab1b439d304c2125490b47ef262b5df67" target="_top" xlink:title="js_std_eval_binary">
<polygon fill="none" stroke="#000000" points="386.5,-209.5 386.5,-228.5 484.5,-228.5 484.5,-209.5 386.5,-209.5"/>
<text text-anchor="middle" x="435.5" y="-216.5" font-family="Helvetica,sans-Serif" font-size="10.00" fill="#000000">js_std_eval_binary</text>
</a>
</g>
</g>
<!-- Node77003&#45;&gt;Node77005 -->
<g id="edge10" class="edge">
<title>Node77003&#45;&gt;Node77005</title>
<path fill="none" stroke="#191970" d="M310.5904,-300.2265C313.5333,-298.6672 316.3566,-296.9316 319,-295 343.1923,-277.322 330.6074,-255.4005 355,-238 364.1183,-231.4954 375.1533,-227.1907 386.0905,-224.3492"/>
<polygon fill="#191970" stroke="#191970" points="309.1051,-297.0571 301.4636,-304.3959 312.0138,-303.4242 309.1051,-297.0571"/>
</g>
<!-- Node77001 -->
<g id="node9" class="node">
<title>Node77001</title>
<g id="a_node9"><a xlink:href="qjs_8cpp.html#a3c04138a5bfe5d72780bb7e82a18e627" target="_top" xlink:title="main">
<polygon fill="none" stroke="#000000" points="606.5,-247.5 606.5,-266.5 644.5,-266.5 644.5,-247.5 606.5,-247.5"/>
<text text-anchor="middle" x="625.5" y="-254.5" font-family="Helvetica,sans-Serif" font-size="10.00" fill="#000000">main</text>
</a>
</g>
</g>
<!-- Node77004&#45;&gt;Node77001 -->
<g id="edge9" class="edge">
<title>Node77004&#45;&gt;Node77001</title>
<path fill="none" stroke="#191970" d="M492.1135,-257C530.9217,-257 580.0043,-257 606.4807,-257"/>
<polygon fill="#191970" stroke="#191970" points="491.9793,-253.5001 481.9792,-257 491.9792,-260.5001 491.9793,-253.5001"/>
</g>
<!-- Node77006&#45;&gt;Node76995 -->
<g id="edge12" class="edge">
<title>Node77006&#45;&gt;Node76995</title>
<path fill="none" stroke="#191970" d="M260.5797,-388.5608C279.8068,-410.4488 315.8187,-447.2542 355,-466 418.1388,-496.208 497.778,-507.5561 554.2524,-511.7404"/>
<polygon fill="#191970" stroke="#191970" points="263.0107,-386.0192 253.842,-380.7101 257.6987,-390.578 263.0107,-386.0192"/>
</g>
<!-- Node77007 -->
<g id="node12" class="node">
<title>Node77007</title>
<g id="a_node12"><a xlink:href="quickjs_8c.html#a4497f8c7cf2ec38da989910ae8b1f042" target="_top" xlink:title="JS_AddIntrinsicMapSet">
<polygon fill="none" stroke="#000000" points="376,-399.5 376,-418.5 495,-418.5 495,-399.5 376,-399.5"/>
<text text-anchor="middle" x="435.5" y="-406.5" font-family="Helvetica,sans-Serif" font-size="10.00" fill="#000000">JS_AddIntrinsicMapSet</text>
</a>
</g>
</g>
<!-- Node77006&#45;&gt;Node77007 -->
<g id="edge13" class="edge">
<title>Node77006&#45;&gt;Node77007</title>
<path fill="none" stroke="#191970" d="M303.8948,-382.6095C330.846,-388.014 362.5102,-394.3635 388.025,-399.4799"/>
<polygon fill="#191970" stroke="#191970" points="304.3118,-379.1235 293.8189,-380.589 302.9355,-385.9869 304.3118,-379.1235"/>
</g>
<!-- Node77008 -->
<g id="node13" class="node">
<title>Node77008</title>
<g id="a_node13"><a xlink:href="quickjs_8c.html#a2e66fcf1bc1d19f346317f10ee590621" target="_top" xlink:title="JS_AddIntrinsicPromise">
<polygon fill="none" stroke="#000000" points="374.5,-285.5 374.5,-304.5 496.5,-304.5 496.5,-285.5 374.5,-285.5"/>
<text text-anchor="middle" x="435.5" y="-292.5" font-family="Helvetica,sans-Serif" font-size="10.00" fill="#000000">JS_AddIntrinsicPromise</text>
</a>
</g>
</g>
<!-- Node77006&#45;&gt;Node77008 -->
<g id="edge15" class="edge">
<title>Node77006&#45;&gt;Node77008</title>
<path fill="none" stroke="#191970" d="M272.7153,-356.8172C294.473,-345.6194 326.1942,-330.0879 355,-319 369.1545,-313.5516 385.0942,-308.5691 399.0324,-304.5732"/>
<polygon fill="#191970" stroke="#191970" points="271.0116,-353.7581 263.7524,-361.4752 274.2396,-359.9694 271.0116,-353.7581"/>
</g>
<!-- Node77009 -->
<g id="node14" class="node">
<title>Node77009</title>
<g id="a_node14"><a xlink:href="quickjs_8c.html#a177d09828596bfe6df4bd90b2e93989d" target="_top" xlink:title="JS_AddIntrinsicTypedArrays">
<polygon fill="none" stroke="#000000" points="555,-352.5 555,-371.5 696,-371.5 696,-352.5 555,-352.5"/>
<text text-anchor="middle" x="625.5" y="-359.5" font-family="Helvetica,sans-Serif" font-size="10.00" fill="#000000">JS_AddIntrinsicTypedArrays</text>
</a>
</g>
</g>
<!-- Node77006&#45;&gt;Node77009 -->
<g id="edge17" class="edge">
<title>Node77006&#45;&gt;Node77009</title>
<path fill="none" stroke="#191970" d="M300.3015,-359.6357C317.6916,-356.5075 337.0825,-353.5499 355,-352 422.6535,-346.1477 500.1158,-350.0882 554.7588,-354.6309"/>
<polygon fill="#191970" stroke="#191970" points="299.5135,-356.2221 290.32,-361.488 300.7907,-363.1046 299.5135,-356.2221"/>
</g>
<!-- Node77010 -->
<g id="node15" class="node">
<title>Node77010</title>
<g id="a_node15"><a xlink:href="quickjs_8c.html#a293feb2179c9a722b2bd410bc2c5c173" target="_top" xlink:title="JS_NewGlobalCConstructor">
<polygon fill="none" stroke="#000000" points="365.5,-437.5 365.5,-456.5 505.5,-456.5 505.5,-437.5 365.5,-437.5"/>
<text text-anchor="middle" x="435.5" y="-444.5" font-family="Helvetica,sans-Serif" font-size="10.00" fill="#000000">JS_NewGlobalCConstructor</text>
</a>
</g>
</g>
<!-- Node77006&#45;&gt;Node77010 -->
<g id="edge19" class="edge">
<title>Node77006&#45;&gt;Node77010</title>
<path fill="none" stroke="#191970" d="M270.1049,-385.8542C291.6709,-398.5891 324.4966,-416.6296 355,-428 364.9569,-431.7115 375.8838,-434.8649 386.388,-437.4727"/>
<polygon fill="#191970" stroke="#191970" points="271.6915,-382.7247 261.3144,-380.5879 268.0941,-388.7296 271.6915,-382.7247"/>
</g>
<!-- Node77013 -->
<g id="node18" class="node">
<title>Node77013</title>
<g id="a_node18"><a xlink:href="quickjs_8c.html#abc33a664e231090ec89f9d9975e21229" target="_top" xlink:title="JS_NewGlobalCConstructorOnly">
<polygon fill="none" stroke="#000000" points="355,-361.5 355,-380.5 516,-380.5 516,-361.5 355,-361.5"/>
<text text-anchor="middle" x="435.5" y="-368.5" font-family="Helvetica,sans-Serif" font-size="10.00" fill="#000000">JS_NewGlobalCConstructorOnly</text>
</a>
</g>
</g>
<!-- Node77006&#45;&gt;Node77013 -->
<g id="edge25" class="edge">
<title>Node77006&#45;&gt;Node77013</title>
<path fill="none" stroke="#191970" d="M329.4779,-371C337.9144,-371 346.4717,-371 354.8773,-371"/>
<polygon fill="#191970" stroke="#191970" points="329.2657,-367.5001 319.2656,-371 329.2656,-374.5001 329.2657,-367.5001"/>
</g>
<!-- Node77007&#45;&gt;Node76996 -->
<g id="edge14" class="edge">
<title>Node77007&#45;&gt;Node76996</title>
<path fill="none" stroke="#191970" d="M505.1973,-407.978C558.4987,-408.0814 633.6892,-410.1385 699,-419 714.51,-421.1044 731.406,-424.8613 745.6961,-428.4819"/>
<polygon fill="#191970" stroke="#191970" points="505.1718,-404.4779 495.1729,-407.9811 505.174,-411.4779 505.1718,-404.4779"/>
</g>
<!-- Node77008&#45;&gt;Node76996 -->
<g id="edge16" class="edge">
<title>Node77008&#45;&gt;Node76996</title>
<path fill="none" stroke="#191970" d="M506.9091,-295.1463C562.6185,-298.1731 640.1586,-308.9956 699,-343 735.686,-364.2008 763.3842,-408.6251 774.3525,-428.2844"/>
<polygon fill="#191970" stroke="#191970" points="506.9242,-291.6432 496.7704,-294.668 506.5943,-298.6354 506.9242,-291.6432"/>
</g>
<!-- Node77009&#45;&gt;Node76996 -->
<g id="edge18" class="edge">
<title>Node77009&#45;&gt;Node76996</title>
<path fill="none" stroke="#191970" d="M670.7317,-374.7347C680.2478,-377.9742 690.0957,-381.7581 699,-386 724.5351,-398.1644 751.6552,-417.1039 766.9948,-428.456"/>
<polygon fill="#191970" stroke="#191970" points="671.5807,-371.3302 660.9884,-371.5595 669.4118,-377.9858 671.5807,-371.3302"/>
</g>
<!-- Node77010&#45;&gt;Node76995 -->
<g id="edge20" class="edge">
<title>Node77010&#45;&gt;Node76995</title>
<path fill="none" stroke="#191970" d="M485.7511,-459.4588C495.971,-462.6886 506.4959,-466.5387 516,-471 533.4072,-479.1711 534.4455,-487.1504 552,-495 560.4223,-498.766 569.734,-501.8931 578.8192,-504.4491"/>
<polygon fill="#191970" stroke="#191970" points="486.6736,-456.0814 476.0893,-456.5524 484.6572,-462.7847 486.6736,-456.0814"/>
</g>
<!-- Node77011 -->
<g id="node16" class="node">
<title>Node77011</title>
<g id="a_node16"><a xlink:href="quickjs_8c.html#a8ecbf5799518b7bfc3fefd47c7a0dd4e" target="_top" xlink:title="JS_AddIntrinsicDate">
<polygon fill="none" stroke="#000000" points="572,-466.5 572,-485.5 679,-485.5 679,-466.5 572,-466.5"/>
<text text-anchor="middle" x="625.5" y="-473.5" font-family="Helvetica,sans-Serif" font-size="10.00" fill="#000000">JS_AddIntrinsicDate</text>
</a>
</g>
</g>
<!-- Node77010&#45;&gt;Node77011 -->
<g id="edge21" class="edge">
<title>Node77010&#45;&gt;Node77011</title>
<path fill="none" stroke="#191970" d="M507.9373,-458.0562C529.1946,-461.3008 552.0516,-464.7895 571.908,-467.8202"/>
<polygon fill="#191970" stroke="#191970" points="508.3899,-454.5848 497.9763,-456.5359 507.3337,-461.5047 508.3899,-454.5848"/>
</g>
<!-- Node77012 -->
<g id="node17" class="node">
<title>Node77012</title>
<g id="a_node17"><a xlink:href="quickjs_8c.html#aafc8241682ce24b6d72e0f237ee85a51" target="_top" xlink:title="JS_AddIntrinsicRegExp">
<polygon fill="none" stroke="#000000" points="565,-428.5 565,-447.5 686,-447.5 686,-428.5 565,-428.5"/>
<text text-anchor="middle" x="625.5" y="-435.5" font-family="Helvetica,sans-Serif" font-size="10.00" fill="#000000">JS_AddIntrinsicRegExp</text>
</a>
</g>
</g>
<!-- Node77010&#45;&gt;Node77012 -->
<g id="edge23" class="edge">
<title>Node77010&#45;&gt;Node77012</title>
<path fill="none" stroke="#191970" d="M515.8524,-443.1938C532.2968,-442.4149 549.3411,-441.6075 564.9503,-440.8681"/>
<polygon fill="#191970" stroke="#191970" points="515.5323,-439.705 505.7092,-443.6743 515.8636,-446.6971 515.5323,-439.705"/>
</g>
<!-- Node77011&#45;&gt;Node76996 -->
<g id="edge22" class="edge">
<title>Node77011&#45;&gt;Node76996</title>
<path fill="none" stroke="#191970" d="M674.2937,-463.96C695.8082,-458.6512 720.7318,-452.5012 740.9187,-447.5201"/>
<polygon fill="#191970" stroke="#191970" points="673.231,-460.6172 664.3607,-466.411 674.908,-467.4133 673.231,-460.6172"/>
</g>
<!-- Node77012&#45;&gt;Node76996 -->
<g id="edge24" class="edge">
<title>Node77012&#45;&gt;Node76996</title>
<path fill="none" stroke="#191970" d="M696.6838,-438C709.6448,-438 722.827,-438 734.75,-438"/>
<polygon fill="#191970" stroke="#191970" points="696.3649,-434.5001 686.3649,-438 696.3648,-441.5001 696.3649,-434.5001"/>
</g>
<!-- Node77013&#45;&gt;Node77009 -->
<g id="edge26" class="edge">
<title>Node77013&#45;&gt;Node77009</title>
<path fill="none" stroke="#191970" d="M526.0671,-366.71C535.6905,-366.2541 545.3747,-365.7954 554.7236,-365.3526"/>
<polygon fill="#191970" stroke="#191970" points="525.9003,-363.2139 516.0771,-367.1832 526.2315,-370.206 525.9003,-363.2139"/>
</g>
<!-- Node77016 -->
<g id="node21" class="node">
<title>Node77016</title>
<g id="a_node21"><a xlink:href="quickjs_8c.html#a55de0909f8b4c06625f67b2fdb670279" target="_top" xlink:title="js_is_standard_regexp">
<polygon fill="none" stroke="#000000" points="378.5,-171.5 378.5,-190.5 492.5,-190.5 492.5,-171.5 378.5,-171.5"/>
<text text-anchor="middle" x="435.5" y="-178.5" font-family="Helvetica,sans-Serif" font-size="10.00" fill="#000000">js_is_standard_regexp</text>
</a>
</g>
</g>
<!-- Node77015&#45;&gt;Node77016 -->
<g id="edge29" class="edge">
<title>Node77015&#45;&gt;Node77016</title>
<path fill="none" stroke="#191970" d="M298.5606,-208.4601C326.6218,-202.8331 360.8867,-195.962 388.1213,-190.5007"/>
<polygon fill="#191970" stroke="#191970" points="297.6441,-205.0742 288.5275,-210.4721 299.0205,-211.9375 297.6441,-205.0742"/>
</g>
<!-- Node77018 -->
<g id="node23" class="node">
<title>Node77018</title>
<g id="a_node23"><a xlink:href="quickjs_8c.html#ab737681b4f1a426c560df37c1304c9d6" target="_top" xlink:title="JS_RegExpExec">
<polygon fill="none" stroke="#000000" points="389.5,-114.5 389.5,-133.5 481.5,-133.5 481.5,-114.5 389.5,-114.5"/>
<text text-anchor="middle" x="435.5" y="-121.5" font-family="Helvetica,sans-Serif" font-size="10.00" fill="#000000">JS_RegExpExec</text>
</a>
</g>
</g>
<!-- Node77015&#45;&gt;Node77018 -->
<g id="edge31" class="edge">
<title>Node77015&#45;&gt;Node77018</title>
<path fill="none" stroke="#191970" d="M298.3429,-209.2076C305.5461,-206.777 312.6433,-203.7547 319,-200 339.0312,-188.1684 336.1569,-175.6446 355,-162 371.6482,-149.9448 392.7258,-140.159 409.1369,-133.5384"/>
<polygon fill="#191970" stroke="#191970" points="297.0797,-205.9327 288.5142,-212.1683 299.0988,-212.6352 297.0797,-205.9327"/>
</g>
<!-- Node77017 -->
<g id="node22" class="node">
<title>Node77017</title>
<g id="a_node22"><a xlink:href="quickjs_8c.html#a6a77bcdb9f7f18c13c108c99a198708b" target="_top" xlink:title="js_regexp_Symbol_replace">
<polygon fill="none" stroke="#000000" points="558.5,-190.5 558.5,-209.5 692.5,-209.5 692.5,-190.5 558.5,-190.5"/>
<text text-anchor="middle" x="625.5" y="-197.5" font-family="Helvetica,sans-Serif" font-size="10.00" fill="#000000">js_regexp_Symbol_replace</text>
</a>
</g>
</g>
<!-- Node77016&#45;&gt;Node77017 -->
<g id="edge30" class="edge">
<title>Node77016&#45;&gt;Node77017</title>
<path fill="none" stroke="#191970" d="M502.633,-187.7133C520.6493,-189.5149 540.1325,-191.4633 558.16,-193.266"/>
<polygon fill="#191970" stroke="#191970" points="502.8049,-184.2131 492.5063,-186.7006 502.1083,-191.1784 502.8049,-184.2131"/>
</g>
<!-- Node77018&#45;&gt;Node77017 -->
<g id="edge34" class="edge">
<title>Node77018&#45;&gt;Node77017</title>
<path fill="none" stroke="#191970" d="M465.8739,-137.9484C481.0139,-144.9997 499.5556,-153.7843 516,-162 532.1843,-170.0857 535.128,-174.4697 552,-181 561.4643,-184.6632 571.8848,-187.8416 581.8299,-190.4956"/>
<polygon fill="#191970" stroke="#191970" points="467.0166,-134.6203 456.4722,-133.5884 464.0716,-140.9707 467.0166,-134.6203"/>
</g>
<!-- Node77019 -->
<g id="node24" class="node">
<title>Node77019</title>
<g id="a_node24"><a xlink:href="quickjs_8c.html#aeb6df5fcffc6fecfac1e9b0d709e99c5" target="_top" xlink:title="js_regexp_string_iterator_next">
<polygon fill="none" stroke="#000000" points="552,-.5 552,-19.5 699,-19.5 699,-.5 552,-.5"/>
<text text-anchor="middle" x="625.5" y="-7.5" font-family="Helvetica,sans-Serif" font-size="10.00" fill="#000000">js_regexp_string_iterator_next</text>
</a>
</g>
</g>
<!-- Node77018&#45;&gt;Node77019 -->
<g id="edge32" class="edge">
<title>Node77018&#45;&gt;Node77019</title>
<path fill="none" stroke="#191970" d="M451.627,-106.9131C472.7158,-85.5675 511.7372,-49.3777 552,-29 559.5261,-25.1909 567.8829,-22.0989 576.1847,-19.6034"/>
<polygon fill="#191970" stroke="#191970" points="448.9085,-104.6888 444.4573,-114.3033 453.9326,-109.563 448.9085,-104.6888"/>
</g>
<!-- Node77020 -->
<g id="node25" class="node">
<title>Node77020</title>
<g id="a_node25"><a xlink:href="quickjs_8c.html#a41fc4304b39616e7be3500fe6ec881c2" target="_top" xlink:title="js_regexp_Symbol_match">
<polygon fill="none" stroke="#000000" points="561,-152.5 561,-171.5 690,-171.5 690,-152.5 561,-152.5"/>
<text text-anchor="middle" x="625.5" y="-159.5" font-family="Helvetica,sans-Serif" font-size="10.00" fill="#000000">js_regexp_Symbol_match</text>
</a>
</g>
</g>
<!-- Node77018&#45;&gt;Node77020 -->
<g id="edge33" class="edge">
<title>Node77018&#45;&gt;Node77020</title>
<path fill="none" stroke="#191970" d="M491.8088,-135.2618C519.1823,-140.7365 551.7247,-147.2449 577.849,-152.4698"/>
<polygon fill="#191970" stroke="#191970" points="492.4715,-131.8251 481.9792,-133.2958 491.0986,-138.6891 492.4715,-131.8251"/>
</g>
<!-- Node77021 -->
<g id="node26" class="node">
<title>Node77021</title>
<g id="a_node26"><a xlink:href="quickjs_8c.html#af315d0f35b4b11e5957b904c98bf1c0d" target="_top" xlink:title="js_regexp_Symbol_search">
<polygon fill="none" stroke="#000000" points="560,-114.5 560,-133.5 691,-133.5 691,-114.5 560,-114.5"/>
<text text-anchor="middle" x="625.5" y="-121.5" font-family="Helvetica,sans-Serif" font-size="10.00" fill="#000000">js_regexp_Symbol_search</text>
</a>
</g>
</g>
<!-- Node77018&#45;&gt;Node77021 -->
<g id="edge35" class="edge">
<title>Node77018&#45;&gt;Node77021</title>
<path fill="none" stroke="#191970" d="M492.1462,-124C513.409,-124 537.7524,-124 559.7708,-124"/>
<polygon fill="#191970" stroke="#191970" points="491.9793,-120.5001 481.9792,-124 491.9792,-127.5001 491.9793,-120.5001"/>
</g>
<!-- Node77022 -->
<g id="node27" class="node">
<title>Node77022</title>
<g id="a_node27"><a xlink:href="quickjs_8c.html#a79872a6d9d139e36d5d1894d16132024" target="_top" xlink:title="js_regexp_Symbol_split">
<polygon fill="none" stroke="#000000" points="565.5,-76.5 565.5,-95.5 685.5,-95.5 685.5,-76.5 565.5,-76.5"/>
<text text-anchor="middle" x="625.5" y="-83.5" font-family="Helvetica,sans-Serif" font-size="10.00" fill="#000000">js_regexp_Symbol_split</text>
</a>
</g>
</g>
<!-- Node77018&#45;&gt;Node77022 -->
<g id="edge36" class="edge">
<title>Node77018&#45;&gt;Node77022</title>
<path fill="none" stroke="#191970" d="M491.8088,-112.7382C519.1823,-107.2635 551.7247,-100.7551 577.849,-95.5302"/>
<polygon fill="#191970" stroke="#191970" points="491.0986,-109.3109 481.9792,-114.7042 492.4715,-116.1749 491.0986,-109.3109"/>
</g>
<!-- Node77023 -->
<g id="node28" class="node">
<title>Node77023</title>
<g id="a_node28"><a xlink:href="quickjs_8c.html#acda1b1a97bfde7e280456c5969b7a2a3" target="_top" xlink:title="js_regexp_test">
<polygon fill="none" stroke="#000000" points="585.5,-38.5 585.5,-57.5 665.5,-57.5 665.5,-38.5 585.5,-38.5"/>
<text text-anchor="middle" x="625.5" y="-45.5" font-family="Helvetica,sans-Serif" font-size="10.00" fill="#000000">js_regexp_test</text>
</a>
</g>
</g>
<!-- Node77018&#45;&gt;Node77023 -->
<g id="edge37" class="edge">
<title>Node77018&#45;&gt;Node77023</title>
<path fill="none" stroke="#191970" d="M461.2402,-109.5258C484.4163,-96.9533 519.7003,-78.9368 552,-67 562.6319,-63.0708 574.4152,-59.6374 585.3766,-56.8099"/>
<polygon fill="#191970" stroke="#191970" points="459.4729,-106.5032 452.3898,-114.3823 462.8404,-112.64 459.4729,-106.5032"/>
</g>
</g>
</svg>
        <g id="navigator" transform="translate(0 0)" fill="#404254">
                <rect fill="#f2f5e9" fill-opacity="0.5" stroke="#606060" stroke-width=".5" x="0" y="0" width="60" height="60"/>
                <use id="zoomplus" xlink:href="#zoomPlus" x="17" y="9" onmousedown="handleZoom(evt,'in')"/>
                <use id="zoomminus" xlink:href="#zoomMin" x="42" y="9" onmousedown="handleZoom(evt,'out')"/>
                <use id="reset" xlink:href="#resetDef" x="30" y="36" onmousedown="handleReset()"/>
                <g id="arrowUp" xlink:href="#dirArrow" transform="translate(30 24)" onmousedown="handlePan(0,-1)">
                  <use xlink:href="#rim" fill="#404040">
                        <set attributeName="fill" to="#808080" begin="arrowUp.mouseover" end="arrowUp.mouseout"/>
                  </use>
                  <path fill="none" stroke="white" stroke-width="1.5" d="M0,-3.0v7 M-2.5,-0.5L0,-3.0L2.5,-0.5"/>
                </g>
                <g id="arrowRight" xlink:href="#dirArrow" transform="rotate(90) translate(36 -43)" onmousedown="handlePan(1,0)">
                  <use xlink:href="#rim" fill="#404040">
                        <set attributeName="fill" to="#808080" begin="arrowRight.mouseover" end="arrowRight.mouseout"/>
                  </use>
                  <path fill="none" stroke="white" stroke-width="1.5" d="M0,-3.0v7 M-2.5,-0.5L0,-3.0L2.5,-0.5"/>
                </g>
                <g id="arrowDown" xlink:href="#dirArrow" transform="rotate(180) translate(-30 -48)" onmousedown="handlePan(0,1)">
                  <use xlink:href="#rim" fill="#404040">
                        <set attributeName="fill" to="#808080" begin="arrowDown.mouseover" end="arrowDown.mouseout"/>
                  </use>
                  <path fill="none" stroke="white" stroke-width="1.5" d="M0,-3.0v7 M-2.5,-0.5L0,-3.0L2.5,-0.5"/>
                </g>
                <g id="arrowLeft" xlink:href="#dirArrow" transform="rotate(270) translate(-36 17)" onmousedown="handlePan(-1,0)">
                  <use xlink:href="#rim" fill="#404040">
                        <set attributeName="fill" to="#808080" begin="arrowLeft.mouseover" end="arrowLeft.mouseout"/>
                  </use>
                  <path fill="none" stroke="white" stroke-width="1.5" d="M0,-3.0v7 M-2.5,-0.5L0,-3.0L2.5,-0.5"/>
                </g>
        </g>
        <svg viewBox="0 0 15 15" width="100%" height="30px" preserveAspectRatio="xMaxYMin meet">
         <g id="arrow_out" transform="scale(0.3 0.3)">
          <a xlink:href="quickjs_8h_a841f4cb887e4d9e03e94a0697255e578_icgraph_org.svg" target="_base">
           <rect id="button" ry="5" rx="5" y="6" x="6" height="38" width="38"
                fill="#f2f5e9" fill-opacity="0.5" stroke="#606060" stroke-width="1.0"/>
           <path id="arrow"
             d="M 11.500037,31.436501 C 11.940474,20.09759 22.043105,11.32322 32.158766,21.979434 L 37.068811,17.246167 C 37.068811,17.246167 37.088388,32 37.088388,32 L 22.160133,31.978069 C 22.160133,31.978069 26.997745,27.140456 26.997745,27.140456 C 18.528582,18.264221 13.291696,25.230495 11.500037,31.436501 z"
             style="fill:#404040;"/>
          </a>
         </g>
        </svg>
</svg>
