<?xml version="1.0" encoding="UTF-8" standalone="no"?>
<!DOCTYPE svg PUBLIC "-//W3C//DTD SVG 1.1//EN"
 "http://www.w3.org/Graphics/SVG/1.1/DTD/svg11.dtd">
<!-- Generated by graphviz version 2.40.1 (20161225.0304)
 -->
<!-- Title: js_std_open Pages: 1 -->
<!--zoomable 237 -->
<svg id="main" version="1.1" xmlns="http://www.w3.org/2000/svg" xmlns:xlink="http://www.w3.org/1999/xlink" xml:space="preserve" onload="init(evt)">
<style type="text/css"><![CDATA[
.edge:hover path { stroke: red; }
.edge:hover polygon { stroke: red; fill: red; }
]]></style>
<script type="text/javascript"><![CDATA[
var edges = document.getElementsByTagName('g');
if (edges && edges.length) {
  for (var i=0;i<edges.length;i++) {
    if (edges[i].id.substr(0,4)=='edge') {
      edges[i].setAttribute('class','edge');
    }
  }
}
]]></script>
        <defs>
                <circle id="rim" cx="0" cy="0" r="7"/>
                <circle id="rim2" cx="0" cy="0" r="3.5"/>
                <g id="zoomPlus">
                        <use xlink:href="#rim" fill="#404040">
                                <set attributeName="fill" to="#808080" begin="zoomplus.mouseover" end="zoomplus.mouseout"/>
                        </use>
                        <path d="M-4,0h8M0,-4v8" fill="none" stroke="white" stroke-width="1.5" pointer-events="none"/>
                </g>
                <g id="zoomMin">
                        <use xlink:href="#rim" fill="#404040">
                                <set attributeName="fill" to="#808080" begin="zoomminus.mouseover" end="zoomminus.mouseout"/>
                        </use>
                        <path d="M-4,0h8" fill="none" stroke="white" stroke-width="1.5" pointer-events="none"/>
                </g>
                <g id="dirArrow">
                        <path fill="none" stroke="white" stroke-width="1.5" d="M0,-3.0v7 M-2.5,-0.5L0,-3.0L2.5,-0.5"/>
                </g>
               <g id="resetDef">
                       <use xlink:href="#rim2" fill="#404040">
                               <set attributeName="fill" to="#808080" begin="reset.mouseover" end="reset.mouseout"/>
                       </use>
               </g>
        </defs>

<script type="text/javascript">
var viewWidth = 811;
var viewHeight = 237;
var sectionId = 'dynsection-31';
</script>
<script xlink:href="svgpan.js"/>
<svg id="graph" class="graph">
<g id="viewport">
<title>js_std_open</title>
<!-- Node5475 -->
<g id="node1" class="node">
<title>Node5475</title>
<polygon fill="#bfbfbf" stroke="#000000" points="0,-114.5 0,-133.5 69,-133.5 69,-114.5 0,-114.5"/>
<text text-anchor="middle" x="34.5" y="-121.5" font-family="Helvetica,sans-Serif" font-size="10.00" fill="#000000">js_std_open</text>
</g>
<!-- Node5476 -->
<g id="node2" class="node">
<title>Node5476</title>
<g id="a_node2"><a xlink:href="quickjs_8c.html#ae0bc4f65da64810facb2cb9e476eda2e" target="_top" xlink:title="JS_FreeCString">
<polygon fill="none" stroke="#000000" points="246,-199.5 246,-218.5 332,-218.5 332,-199.5 246,-199.5"/>
<text text-anchor="middle" x="289" y="-206.5" font-family="Helvetica,sans-Serif" font-size="10.00" fill="#000000">JS_FreeCString</text>
</a>
</g>
</g>
<!-- Node5475&#45;&gt;Node5476 -->
<g id="edge1" class="edge">
<title>Node5475&#45;&gt;Node5476</title>
<path fill="none" stroke="#191970" d="M44.5293,-133.7811C57.407,-145.7388 80.9724,-165.6571 105,-176 146.6892,-193.9455 197.7419,-202.1324 235.4859,-205.8672"/>
<polygon fill="#191970" stroke="#191970" points="235.4826,-209.3814 245.7599,-206.807 236.1203,-202.4105 235.4826,-209.3814"/>
</g>
<!-- Node5514 -->
<g id="node5" class="node">
<title>Node5514</title>
<g id="a_node5"><a xlink:href="quickjs-libc_8c.html#a4f611dfcb682754b3f25bb3e06f61ab5" target="_top" xlink:title="js_new_std_file">
<polygon fill="none" stroke="#000000" points="391,-171.5 391,-190.5 475,-190.5 475,-171.5 391,-171.5"/>
<text text-anchor="middle" x="433" y="-178.5" font-family="Helvetica,sans-Serif" font-size="10.00" fill="#000000">js_new_std_file</text>
</a>
</g>
</g>
<!-- Node5475&#45;&gt;Node5514 -->
<g id="edge4" class="edge">
<title>Node5475&#45;&gt;Node5514</title>
<path fill="none" stroke="#191970" d="M69.1671,-128.9587C139.2428,-138.982 298.0914,-161.7032 380.7771,-173.5302"/>
<polygon fill="#191970" stroke="#191970" points="380.319,-177.0002 390.7139,-174.9515 381.3102,-170.0708 380.319,-177.0002"/>
</g>
<!-- Node5562 -->
<g id="node10" class="node">
<title>Node5562</title>
<g id="a_node10"><a xlink:href="quickjs-libc_8c.html#a5802fe689f97b693173247111a01a76a" target="_top" xlink:title="js_set_error_object">
<polygon fill="none" stroke="#000000" points="105,-95.5 105,-114.5 204,-114.5 204,-95.5 105,-95.5"/>
<text text-anchor="middle" x="154.5" y="-102.5" font-family="Helvetica,sans-Serif" font-size="10.00" fill="#000000">js_set_error_object</text>
</a>
</g>
</g>
<!-- Node5475&#45;&gt;Node5562 -->
<g id="edge10" class="edge">
<title>Node5475&#45;&gt;Node5562</title>
<path fill="none" stroke="#191970" d="M69.209,-118.5044C77.1693,-117.244 85.8565,-115.8686 94.5426,-114.4933"/>
<polygon fill="#191970" stroke="#191970" points="95.3655,-117.9067 104.6951,-112.8858 94.2707,-110.9928 95.3655,-117.9067"/>
</g>
<!-- Node5652 -->
<g id="node17" class="node">
<title>Node5652</title>
<g id="a_node17"><a xlink:href="quickjs_8h.html#af931f06630ab719b5f82a16eb27effd1" target="_top" xlink:title="JS_ToCString">
<polygon fill="none" stroke="#ff0000" points="115.5,-57.5 115.5,-76.5 193.5,-76.5 193.5,-57.5 115.5,-57.5"/>
<text text-anchor="middle" x="154.5" y="-64.5" font-family="Helvetica,sans-Serif" font-size="10.00" fill="#000000">JS_ToCString</text>
</a>
</g>
</g>
<!-- Node5475&#45;&gt;Node5652 -->
<g id="edge21" class="edge">
<title>Node5475&#45;&gt;Node5652</title>
<path fill="none" stroke="#191970" d="M50.7217,-114.4873C64.82,-106.4073 85.9195,-94.7606 105,-86 109.2076,-84.0681 113.6725,-82.162 118.1314,-80.346"/>
<polygon fill="#191970" stroke="#191970" points="119.7625,-83.4651 127.7804,-76.5395 117.1937,-76.9534 119.7625,-83.4651"/>
</g>
<!-- Node5477 -->
<g id="node3" class="node">
<title>Node5477</title>
<g id="a_node3"><a xlink:href="quickjs_8h.html#afaa20c47565bc704c6c85f3d77254e7d" target="_top" xlink:title="JS_FreeValue">
<polygon fill="none" stroke="#000000" points="543,-209.5 543,-228.5 621,-228.5 621,-209.5 543,-209.5"/>
<text text-anchor="middle" x="582" y="-216.5" font-family="Helvetica,sans-Serif" font-size="10.00" fill="#000000">JS_FreeValue</text>
</a>
</g>
</g>
<!-- Node5476&#45;&gt;Node5477 -->
<g id="edge2" class="edge">
<title>Node5476&#45;&gt;Node5477</title>
<path fill="none" stroke="#191970" d="M332.2332,-210.4755C385.7325,-212.3014 476.6149,-215.4032 532.7517,-217.3192"/>
<polygon fill="#191970" stroke="#191970" points="532.6989,-220.8193 542.8125,-217.6625 532.9377,-213.8234 532.6989,-220.8193"/>
</g>
<!-- Node5478 -->
<g id="node4" class="node">
<title>Node5478</title>
<g id="a_node4"><a xlink:href="quickjs_8c.html#aa059f309c30fd5166d16c82a97973146" target="_top" xlink:title="__JS_FreeValue">
<polygon fill="none" stroke="#ff0000" points="693,-209.5 693,-228.5 782,-228.5 782,-209.5 693,-209.5"/>
<text text-anchor="middle" x="737.5" y="-216.5" font-family="Helvetica,sans-Serif" font-size="10.00" fill="#000000">__JS_FreeValue</text>
</a>
</g>
</g>
<!-- Node5477&#45;&gt;Node5478 -->
<g id="edge3" class="edge">
<title>Node5477&#45;&gt;Node5478</title>
<path fill="none" stroke="#191970" d="M621.2392,-219C639.8655,-219 662.4368,-219 682.7176,-219"/>
<polygon fill="#191970" stroke="#191970" points="682.7707,-222.5001 692.7707,-219 682.7706,-215.5001 682.7707,-222.5001"/>
</g>
<!-- Node5514&#45;&gt;Node5477 -->
<g id="edge5" class="edge">
<title>Node5514&#45;&gt;Node5477</title>
<path fill="none" stroke="#191970" d="M470.599,-190.589C490.084,-195.5583 514.0745,-201.6767 534.7958,-206.9613"/>
<polygon fill="#191970" stroke="#191970" points="534.1166,-210.4001 544.6714,-209.4799 535.8465,-203.6172 534.1166,-210.4001"/>
</g>
<!-- Node5515 -->
<g id="node6" class="node">
<title>Node5515</title>
<g id="a_node6"><a xlink:href="quickjs_8h.html#ad80a83d73e9b7d872b88fbf2943aebe9" target="_top" xlink:title="JS_IsException">
<polygon fill="none" stroke="#000000" points="539,-95.5 539,-114.5 625,-114.5 625,-95.5 539,-95.5"/>
<text text-anchor="middle" x="582" y="-102.5" font-family="Helvetica,sans-Serif" font-size="10.00" fill="#000000">JS_IsException</text>
</a>
</g>
</g>
<!-- Node5514&#45;&gt;Node5515 -->
<g id="edge6" class="edge">
<title>Node5514&#45;&gt;Node5515</title>
<path fill="none" stroke="#191970" d="M472.3257,-171.3916C479.1574,-168.8806 485.99,-165.7846 492,-162 511.6864,-149.6032 508.4814,-136.6593 528,-124 531.1008,-121.9889 534.4402,-120.1612 537.8834,-118.506"/>
<polygon fill="#191970" stroke="#191970" points="539.3453,-121.6873 547.148,-114.52 536.5788,-115.2571 539.3453,-121.6873"/>
</g>
<!-- Node5516 -->
<g id="node7" class="node">
<title>Node5516</title>
<g id="a_node7"><a xlink:href="quickjs_8c.html#a659dc0db7e440fd6eb012d613627faa3" target="_top" xlink:title="JS_NewObjectClass">
<polygon fill="none" stroke="#000000" points="528,-171.5 528,-190.5 636,-190.5 636,-171.5 528,-171.5"/>
<text text-anchor="middle" x="582" y="-178.5" font-family="Helvetica,sans-Serif" font-size="10.00" fill="#000000">JS_NewObjectClass</text>
</a>
</g>
</g>
<!-- Node5514&#45;&gt;Node5516 -->
<g id="edge7" class="edge">
<title>Node5514&#45;&gt;Node5516</title>
<path fill="none" stroke="#191970" d="M475.2989,-181C488.4531,-181 503.2659,-181 517.5736,-181"/>
<polygon fill="#191970" stroke="#191970" points="517.8718,-184.5001 527.8718,-181 517.8717,-177.5001 517.8718,-184.5001"/>
</g>
<!-- Node5561 -->
<g id="node9" class="node">
<title>Node5561</title>
<g id="a_node9"><a xlink:href="quickjs_8c.html#a0ddf716409e51648f0d59e7521150d19" target="_top" xlink:title="JS_SetOpaque">
<polygon fill="none" stroke="#000000" points="540.5,-133.5 540.5,-152.5 623.5,-152.5 623.5,-133.5 540.5,-133.5"/>
<text text-anchor="middle" x="582" y="-140.5" font-family="Helvetica,sans-Serif" font-size="10.00" fill="#000000">JS_SetOpaque</text>
</a>
</g>
</g>
<!-- Node5514&#45;&gt;Node5561 -->
<g id="edge9" class="edge">
<title>Node5514&#45;&gt;Node5561</title>
<path fill="none" stroke="#191970" d="M470.599,-171.411C490.084,-166.4417 514.0745,-160.3233 534.7958,-155.0387"/>
<polygon fill="#191970" stroke="#191970" points="535.8465,-158.3828 544.6714,-152.5201 534.1166,-151.5999 535.8465,-158.3828"/>
</g>
<!-- Node5517 -->
<g id="node8" class="node">
<title>Node5517</title>
<g id="a_node8"><a xlink:href="quickjs_8c.html#a73738c650f11459db0d7af3dcdf8316b" target="_top" xlink:title="JS_NewObjectProtoClass">
<polygon fill="none" stroke="#ff0000" points="672,-171.5 672,-190.5 803,-190.5 803,-171.5 672,-171.5"/>
<text text-anchor="middle" x="737.5" y="-178.5" font-family="Helvetica,sans-Serif" font-size="10.00" fill="#000000">JS_NewObjectProtoClass</text>
</a>
</g>
</g>
<!-- Node5516&#45;&gt;Node5517 -->
<g id="edge8" class="edge">
<title>Node5516&#45;&gt;Node5517</title>
<path fill="none" stroke="#191970" d="M636.3864,-181C644.6327,-181 653.2656,-181 661.864,-181"/>
<polygon fill="#191970" stroke="#191970" points="661.9167,-184.5001 671.9167,-181 661.9167,-177.5001 661.9167,-184.5001"/>
</g>
<!-- Node5563 -->
<g id="node11" class="node">
<title>Node5563</title>
<g id="a_node11"><a xlink:href="quickjs_8h.html#a4e407128a9605afb77523e49e9a627fd" target="_top" xlink:title="JS_IsUndefined">
<polygon fill="none" stroke="#000000" points="539,-38.5 539,-57.5 625,-57.5 625,-38.5 539,-38.5"/>
<text text-anchor="middle" x="582" y="-45.5" font-family="Helvetica,sans-Serif" font-size="10.00" fill="#000000">JS_IsUndefined</text>
</a>
</g>
</g>
<!-- Node5562&#45;&gt;Node5563 -->
<g id="edge11" class="edge">
<title>Node5562&#45;&gt;Node5563</title>
<path fill="none" stroke="#191970" d="M182.1202,-95.4003C223.299,-81.6474 303.507,-57.0035 374,-48 426.2848,-41.3221 486.5673,-42.2593 528.7296,-44.2988"/>
<polygon fill="#191970" stroke="#191970" points="528.606,-47.797 538.7746,-44.8221 528.9702,-40.8065 528.606,-47.797"/>
</g>
<!-- Node5560 -->
<g id="node12" class="node">
<title>Node5560</title>
<g id="a_node12"><a xlink:href="quickjs_8h.html#a2050bc428da1c65ac7eb87c3fa3b0392" target="_top" xlink:title="JS_NewInt32">
<polygon fill="none" stroke="#000000" points="544,-.5 544,-19.5 620,-19.5 620,-.5 544,-.5"/>
<text text-anchor="middle" x="582" y="-7.5" font-family="Helvetica,sans-Serif" font-size="10.00" fill="#000000">JS_NewInt32</text>
</a>
</g>
</g>
<!-- Node5562&#45;&gt;Node5560 -->
<g id="edge12" class="edge">
<title>Node5562&#45;&gt;Node5560</title>
<path fill="none" stroke="#191970" d="M185.2812,-95.4091C191.704,-92.8052 198.2612,-89.6696 204,-86 222.8005,-73.9785 219.8609,-60.6121 240,-51 336.506,-4.9388 465.0605,-3.2217 533.8029,-6.3729"/>
<polygon fill="#191970" stroke="#191970" points="533.7379,-9.8741 543.9042,-6.8914 534.0968,-2.8833 533.7379,-9.8741"/>
</g>
<!-- Node5564 -->
<g id="node13" class="node">
<title>Node5564</title>
<g id="a_node13"><a xlink:href="quickjs_8c.html#a62617fe11025d2e5a545db069fc28e64" target="_top" xlink:title="JS_SetPropertyStr">
<polygon fill="none" stroke="#000000" points="240,-95.5 240,-114.5 338,-114.5 338,-95.5 240,-95.5"/>
<text text-anchor="middle" x="289" y="-102.5" font-family="Helvetica,sans-Serif" font-size="10.00" fill="#000000">JS_SetPropertyStr</text>
</a>
</g>
</g>
<!-- Node5562&#45;&gt;Node5564 -->
<g id="edge13" class="edge">
<title>Node5562&#45;&gt;Node5564</title>
<path fill="none" stroke="#191970" d="M204.2007,-105C212.5,-105 221.1828,-105 229.6934,-105"/>
<polygon fill="#191970" stroke="#191970" points="229.9519,-108.5001 239.9518,-105 229.9518,-101.5001 229.9519,-108.5001"/>
</g>
<!-- Node5565 -->
<g id="node14" class="node">
<title>Node5565</title>
<g id="a_node14"><a xlink:href="quickjs_8c.html#aa2ef5af1544a3012f91a80c98c326b8f" target="_top" xlink:title="JS_NewAtom">
<polygon fill="none" stroke="#ff0000" points="394.5,-133.5 394.5,-152.5 471.5,-152.5 471.5,-133.5 394.5,-133.5"/>
<text text-anchor="middle" x="433" y="-140.5" font-family="Helvetica,sans-Serif" font-size="10.00" fill="#000000">JS_NewAtom</text>
</a>
</g>
</g>
<!-- Node5564&#45;&gt;Node5565 -->
<g id="edge14" class="edge">
<title>Node5564&#45;&gt;Node5565</title>
<path fill="none" stroke="#191970" d="M325.3373,-114.589C344.0829,-119.5358 367.1432,-125.6211 387.1066,-130.8892"/>
<polygon fill="#191970" stroke="#191970" points="386.3619,-134.3125 396.924,-133.4799 388.1481,-127.5442 386.3619,-134.3125"/>
</g>
<!-- Node5605 -->
<g id="node15" class="node">
<title>Node5605</title>
<g id="a_node15"><a xlink:href="quickjs_8c.html#ad7f03358a8088ca920ab308225c6b2e6" target="_top" xlink:title="JS_SetPropertyInternal">
<polygon fill="none" stroke="#ff0000" points="374,-95.5 374,-114.5 492,-114.5 492,-95.5 374,-95.5"/>
<text text-anchor="middle" x="433" y="-102.5" font-family="Helvetica,sans-Serif" font-size="10.00" fill="#000000">JS_SetPropertyInternal</text>
</a>
</g>
</g>
<!-- Node5564&#45;&gt;Node5605 -->
<g id="edge15" class="edge">
<title>Node5564&#45;&gt;Node5605</title>
<path fill="none" stroke="#191970" d="M338.1539,-105C346.411,-105 355.1153,-105 363.7662,-105"/>
<polygon fill="#191970" stroke="#191970" points="363.8673,-108.5001 373.8672,-105 363.8672,-101.5001 363.8673,-108.5001"/>
</g>
<!-- Node5496 -->
<g id="node16" class="node">
<title>Node5496</title>
<g id="a_node16"><a xlink:href="quickjs_8c.html#ab7fc45a99935a1c0ba50b0216d9401a9" target="_top" xlink:title="JS_FreeAtom">
<polygon fill="none" stroke="#ff0000" points="394.5,-57.5 394.5,-76.5 471.5,-76.5 471.5,-57.5 394.5,-57.5"/>
<text text-anchor="middle" x="433" y="-64.5" font-family="Helvetica,sans-Serif" font-size="10.00" fill="#000000">JS_FreeAtom</text>
</a>
</g>
</g>
<!-- Node5564&#45;&gt;Node5496 -->
<g id="edge20" class="edge">
<title>Node5564&#45;&gt;Node5496</title>
<path fill="none" stroke="#191970" d="M325.3373,-95.411C344.0829,-90.4642 367.1432,-84.3789 387.1066,-79.1108"/>
<polygon fill="#191970" stroke="#191970" points="388.1481,-82.4558 396.924,-76.5201 386.3619,-75.6875 388.1481,-82.4558"/>
</g>
<!-- Node5605&#45;&gt;Node5477 -->
<g id="edge16" class="edge">
<title>Node5605&#45;&gt;Node5477</title>
<path fill="none" stroke="#191970" d="M476.7709,-114.5284C482.2893,-116.9948 487.5503,-120.0974 492,-124 520.0996,-148.6445 500.2329,-174.9815 528,-200 529.7397,-201.5675 531.6167,-203.0074 533.5908,-204.33"/>
<polygon fill="#191970" stroke="#191970" points="532.3024,-207.6177 542.7448,-209.4084 535.6983,-201.4966 532.3024,-207.6177"/>
</g>
<!-- Node5605&#45;&gt;Node5515 -->
<g id="edge18" class="edge">
<title>Node5605&#45;&gt;Node5515</title>
<path fill="none" stroke="#191970" d="M492.3169,-105C504.3684,-105 516.9734,-105 528.7972,-105"/>
<polygon fill="#191970" stroke="#191970" points="528.9531,-108.5001 538.953,-105 528.953,-101.5001 528.9531,-108.5001"/>
</g>
<!-- Node5605&#45;&gt;Node5563 -->
<g id="edge19" class="edge">
<title>Node5605&#45;&gt;Node5563</title>
<path fill="none" stroke="#191970" d="M464.4083,-95.4506C473.3766,-92.5715 483.1225,-89.2963 492,-86 511.9371,-78.5972 533.9355,-69.3296 551.1928,-61.8001"/>
<polygon fill="#191970" stroke="#191970" points="553.0096,-64.8247 560.7544,-57.5949 550.1915,-58.417 553.0096,-64.8247"/>
</g>
<!-- Node5605&#45;&gt;Node5560 -->
<g id="edge17" class="edge">
<title>Node5605&#45;&gt;Node5560</title>
<path fill="none" stroke="#191970" d="M475.1291,-95.4736C481.1438,-92.9966 486.9824,-89.8903 492,-86 515.6794,-67.6407 504.5685,-47.6746 528,-29 530.2587,-27.1998 532.7006,-25.5635 535.2548,-24.077"/>
<polygon fill="#191970" stroke="#191970" points="536.8835,-27.1759 544.2696,-19.5801 533.7588,-20.912 536.8835,-27.1759"/>
</g>
</g>
</svg>
        <g id="navigator" transform="translate(0 0)" fill="#404254">
                <rect fill="#f2f5e9" fill-opacity="0.5" stroke="#606060" stroke-width=".5" x="0" y="0" width="60" height="60"/>
                <use id="zoomplus" xlink:href="#zoomPlus" x="17" y="9" onmousedown="handleZoom(evt,'in')"/>
                <use id="zoomminus" xlink:href="#zoomMin" x="42" y="9" onmousedown="handleZoom(evt,'out')"/>
                <use id="reset" xlink:href="#resetDef" x="30" y="36" onmousedown="handleReset()"/>
                <g id="arrowUp" xlink:href="#dirArrow" transform="translate(30 24)" onmousedown="handlePan(0,-1)">
                  <use xlink:href="#rim" fill="#404040">
                        <set attributeName="fill" to="#808080" begin="arrowUp.mouseover" end="arrowUp.mouseout"/>
                  </use>
                  <path fill="none" stroke="white" stroke-width="1.5" d="M0,-3.0v7 M-2.5,-0.5L0,-3.0L2.5,-0.5"/>
                </g>
                <g id="arrowRight" xlink:href="#dirArrow" transform="rotate(90) translate(36 -43)" onmousedown="handlePan(1,0)">
                  <use xlink:href="#rim" fill="#404040">
                        <set attributeName="fill" to="#808080" begin="arrowRight.mouseover" end="arrowRight.mouseout"/>
                  </use>
                  <path fill="none" stroke="white" stroke-width="1.5" d="M0,-3.0v7 M-2.5,-0.5L0,-3.0L2.5,-0.5"/>
                </g>
                <g id="arrowDown" xlink:href="#dirArrow" transform="rotate(180) translate(-30 -48)" onmousedown="handlePan(0,1)">
                  <use xlink:href="#rim" fill="#404040">
                        <set attributeName="fill" to="#808080" begin="arrowDown.mouseover" end="arrowDown.mouseout"/>
                  </use>
                  <path fill="none" stroke="white" stroke-width="1.5" d="M0,-3.0v7 M-2.5,-0.5L0,-3.0L2.5,-0.5"/>
                </g>
                <g id="arrowLeft" xlink:href="#dirArrow" transform="rotate(270) translate(-36 17)" onmousedown="handlePan(-1,0)">
                  <use xlink:href="#rim" fill="#404040">
                        <set attributeName="fill" to="#808080" begin="arrowLeft.mouseover" end="arrowLeft.mouseout"/>
                  </use>
                  <path fill="none" stroke="white" stroke-width="1.5" d="M0,-3.0v7 M-2.5,-0.5L0,-3.0L2.5,-0.5"/>
                </g>
        </g>
        <svg viewBox="0 0 15 15" width="100%" height="30px" preserveAspectRatio="xMaxYMin meet">
         <g id="arrow_out" transform="scale(0.3 0.3)">
          <a xlink:href="quickjs-libc_8c_a7af79ae13a636de55a6d58309c0cfa1e_cgraph_org.svg" target="_base">
           <rect id="button" ry="5" rx="5" y="6" x="6" height="38" width="38"
                fill="#f2f5e9" fill-opacity="0.5" stroke="#606060" stroke-width="1.0"/>
           <path id="arrow"
             d="M 11.500037,31.436501 C 11.940474,20.09759 22.043105,11.32322 32.158766,21.979434 L 37.068811,17.246167 C 37.068811,17.246167 37.088388,32 37.088388,32 L 22.160133,31.978069 C 22.160133,31.978069 26.997745,27.140456 26.997745,27.140456 C 18.528582,18.264221 13.291696,25.230495 11.500037,31.436501 z"
             style="fill:#404040;"/>
          </a>
         </g>
        </svg>
</svg>
