<?xml version="1.0" encoding="UTF-8" standalone="no"?>
<!DOCTYPE svg PUBLIC "-//W3C//DTD SVG 1.1//EN"
 "http://www.w3.org/Graphics/SVG/1.1/DTD/svg11.dtd">
<!-- Generated by graphviz version 2.40.1 (20161225.0304)
 -->
<!-- Title: JS_ValueToAtom Pages: 1 -->
<svg width="763pt" height="965pt"
 viewBox="0.00 0.00 763.00 965.26" xmlns="http://www.w3.org/2000/svg" xmlns:xlink="http://www.w3.org/1999/xlink">
<g id="graph0" class="graph" transform="scale(1 1) rotate(0) translate(4 961.264)">
<title>JS_ValueToAtom</title>
<!-- Node189928 -->
<g id="node1" class="node">
<title>Node189928</title>
<polygon fill="#bfbfbf" stroke="#000000" points="0,-467.5 0,-486.5 93,-486.5 93,-467.5 0,-467.5"/>
<text text-anchor="middle" x="46.5" y="-474.5" font-family="Helvetica,sans-Serif" font-size="10.00" fill="#000000">JS_ValueToAtom</text>
</g>
<!-- Node189929 -->
<g id="node2" class="node">
<title>Node189929</title>
<g id="a_node2"><a xlink:href="quickjs_8c.html#ac2894ff4edcdb4e6841bcce9c76081e3" target="_top" xlink:title="JS_CallInternal">
<polygon fill="none" stroke="#000000" points="328.5,-747.5 328.5,-766.5 411.5,-766.5 411.5,-747.5 328.5,-747.5"/>
<text text-anchor="middle" x="370" y="-754.5" font-family="Helvetica,sans-Serif" font-size="10.00" fill="#000000">JS_CallInternal</text>
</a>
</g>
</g>
<!-- Node189928&#45;&gt;Node189929 -->
<g id="edge1" class="edge">
<title>Node189928&#45;&gt;Node189929</title>
<path fill="none" stroke="#191970" d="M47.4871,-496.6438C50.8282,-541.0196 65.4258,-649.4589 129,-705 136.5247,-711.5739 261.3213,-736.2288 328.2875,-749.0865"/>
<polygon fill="#191970" stroke="#191970" points="50.9753,-496.3456 46.8456,-486.5887 43.9895,-496.7913 50.9753,-496.3456"/>
</g>
<!-- Node189993 -->
<g id="node5" class="node">
<title>Node189993</title>
<g id="a_node5"><a xlink:href="quickjs_8c.html#a6357b7fdae71c70c140e78e6c20cb5c2" target="_top" xlink:title="js_dynamic_import_job">
<polygon fill="none" stroke="#ff0000" points="629,-850.5 629,-869.5 745,-869.5 745,-850.5 629,-850.5"/>
<text text-anchor="middle" x="687" y="-857.5" font-family="Helvetica,sans-Serif" font-size="10.00" fill="#000000">js_dynamic_import_job</text>
</a>
</g>
</g>
<!-- Node189928&#45;&gt;Node189993 -->
<g id="edge18" class="edge">
<title>Node189928&#45;&gt;Node189993</title>
<path fill="none" stroke="#191970" d="M47.2186,-496.6964C50.4327,-572.4548 66.2211,-843.4006 129,-895 294.5333,-1031.0556 589.498,-906.4435 667.59,-869.5469"/>
<polygon fill="#191970" stroke="#191970" points="50.7129,-496.4815 46.8184,-486.6284 43.7184,-496.7596 50.7129,-496.4815"/>
</g>
<!-- Node190267 -->
<g id="node9" class="node">
<title>Node190267</title>
<g id="a_node9"><a xlink:href="quickjs_8c.html#a438b354d69a8f0674195b0cdc19dd686" target="_top" xlink:title="js_proxy_get_own_property\l_names">
<polygon fill="none" stroke="#000000" points="619,-657 619,-687 755,-687 755,-657 619,-657"/>
<text text-anchor="start" x="627" y="-675" font-family="Helvetica,sans-Serif" font-size="10.00" fill="#000000">js_proxy_get_own_property</text>
<text text-anchor="middle" x="687" y="-664" font-family="Helvetica,sans-Serif" font-size="10.00" fill="#000000">_names</text>
</a>
</g>
</g>
<!-- Node189928&#45;&gt;Node190267 -->
<g id="edge36" class="edge">
<title>Node189928&#45;&gt;Node190267</title>
<path fill="none" stroke="#191970" d="M54.3291,-495.9732C66.2342,-522.1876 91.5367,-568.7614 129,-591 216.4602,-642.9173 482.7982,-631.5564 583,-649 596.1168,-651.2834 610.082,-654.1018 623.3808,-656.9735"/>
<polygon fill="#191970" stroke="#191970" points="57.4994,-494.487 50.2992,-486.7147 51.081,-497.2807 57.4994,-494.487"/>
</g>
<!-- Node190491 -->
<g id="node10" class="node">
<title>Node190491</title>
<g id="a_node10"><a xlink:href="quickjs_8c.html#a4da0393f32562bb05dff7ef63fff68f9" target="_top" xlink:title="js_date_Symbol_toPrimitive">
<polygon fill="none" stroke="#000000" points="141,-562.5 141,-581.5 279,-581.5 279,-562.5 141,-562.5"/>
<text text-anchor="middle" x="210" y="-569.5" font-family="Helvetica,sans-Serif" font-size="10.00" fill="#000000">js_date_Symbol_toPrimitive</text>
</a>
</g>
</g>
<!-- Node189928&#45;&gt;Node190491 -->
<g id="edge13" class="edge">
<title>Node189928&#45;&gt;Node190491</title>
<path fill="none" stroke="#191970" d="M60.5487,-494.381C75.6311,-511.8583 101.201,-538.2648 129,-553 136.2744,-556.8559 144.3251,-559.9367 152.4457,-562.3963"/>
<polygon fill="#191970" stroke="#191970" points="63.1339,-492.0169 54.0233,-486.6088 57.7729,-496.518 63.1339,-492.0169"/>
</g>
<!-- Node190169 -->
<g id="node11" class="node">
<title>Node190169</title>
<g id="a_node11"><a xlink:href="quickjs_8c.html#a116b8bb41915b573650c477a55d8e46d" target="_top" xlink:title="JS_DefineObjectNameComputed">
<polygon fill="none" stroke="#ff0000" points="129,-676.5 129,-695.5 291,-695.5 291,-676.5 129,-676.5"/>
<text text-anchor="middle" x="210" y="-683.5" font-family="Helvetica,sans-Serif" font-size="10.00" fill="#000000">JS_DefineObjectNameComputed</text>
</a>
</g>
</g>
<!-- Node189928&#45;&gt;Node190169 -->
<g id="edge14" class="edge">
<title>Node189928&#45;&gt;Node190169</title>
<path fill="none" stroke="#191970" d="M49.1742,-496.7014C55.5271,-535.5396 75.2377,-622.1034 129,-667 133.5456,-670.796 138.7128,-673.8634 144.1859,-676.3383"/>
<polygon fill="#191970" stroke="#191970" points="52.6152,-496.0475 47.6634,-486.6811 45.6934,-497.0912 52.6152,-496.0475"/>
</g>
<!-- Node190132 -->
<g id="node12" class="node">
<title>Node190132</title>
<g id="a_node12"><a xlink:href="quickjs_8c.html#a0c61bd5a64c743e81188bb528b78e715" target="_top" xlink:title="JS_DefinePropertyValueValue">
<polygon fill="none" stroke="#ff0000" points="135.5,-866.5 135.5,-885.5 284.5,-885.5 284.5,-866.5 135.5,-866.5"/>
<text text-anchor="middle" x="210" y="-873.5" font-family="Helvetica,sans-Serif" font-size="10.00" fill="#000000">JS_DefinePropertyValueValue</text>
</a>
</g>
</g>
<!-- Node189928&#45;&gt;Node190132 -->
<g id="edge16" class="edge">
<title>Node189928&#45;&gt;Node190132</title>
<path fill="none" stroke="#191970" d="M48.0519,-496.7467C53.9865,-567.1827 77.5443,-804.6821 129,-857 132.7475,-860.8103 137.1038,-863.9161 141.8146,-866.4414"/>
<polygon fill="#191970" stroke="#191970" points="51.5255,-496.279 47.2229,-486.5972 44.5487,-496.849 51.5255,-496.279"/>
</g>
<!-- Node190259 -->
<g id="node13" class="node">
<title>Node190259</title>
<g id="a_node13"><a xlink:href="quickjs_8c.html#a90d6e607f6917d817c1e997bd2e6ed07" target="_top" xlink:title="JS_GetPropertyValue">
<polygon fill="none" stroke="#ff0000" points="154.5,-638.5 154.5,-657.5 265.5,-657.5 265.5,-638.5 154.5,-638.5"/>
<text text-anchor="middle" x="210" y="-645.5" font-family="Helvetica,sans-Serif" font-size="10.00" fill="#000000">JS_GetPropertyValue</text>
</a>
</g>
</g>
<!-- Node189928&#45;&gt;Node190259 -->
<g id="edge19" class="edge">
<title>Node189928&#45;&gt;Node190259</title>
<path fill="none" stroke="#191970" d="M52.0796,-496.3128C62.1683,-527.7856 86.4455,-590.0278 129,-624 136.9089,-630.3139 146.4389,-634.9677 156.1414,-638.3977"/>
<polygon fill="#191970" stroke="#191970" points="55.3685,-495.0991 49.0962,-486.5605 48.6748,-497.1469 55.3685,-495.0991"/>
</g>
<!-- Node190205 -->
<g id="node14" class="node">
<title>Node190205</title>
<g id="a_node14"><a xlink:href="quickjs_8c.html#ad47910027b4f50d5ff3239df19de556d" target="_top" xlink:title="js_object___defineGetter__">
<polygon fill="none" stroke="#000000" points="142.5,-524.5 142.5,-543.5 277.5,-543.5 277.5,-524.5 142.5,-524.5"/>
<text text-anchor="middle" x="210" y="-531.5" font-family="Helvetica,sans-Serif" font-size="10.00" fill="#000000">js_object___defineGetter__</text>
</a>
</g>
</g>
<!-- Node189928&#45;&gt;Node190205 -->
<g id="edge22" class="edge">
<title>Node189928&#45;&gt;Node190205</title>
<path fill="none" stroke="#191970" d="M73.6077,-491.1663C89.4372,-499.0094 109.9811,-508.4638 129,-515 139.5182,-518.6148 151.0371,-521.7739 162.0031,-524.4246"/>
<polygon fill="#191970" stroke="#191970" points="74.9216,-487.909 64.4166,-486.5316 71.7698,-494.1593 74.9216,-487.909"/>
</g>
<!-- Node190206 -->
<g id="node15" class="node">
<title>Node190206</title>
<g id="a_node15"><a xlink:href="quickjs_8c.html#a26abea9136a3d8e9a861aefb51626b4e" target="_top" xlink:title="js_object___lookupGetter__">
<polygon fill="none" stroke="#000000" points="141.5,-486.5 141.5,-505.5 278.5,-505.5 278.5,-486.5 141.5,-486.5"/>
<text text-anchor="middle" x="210" y="-493.5" font-family="Helvetica,sans-Serif" font-size="10.00" fill="#000000">js_object___lookupGetter__</text>
</a>
</g>
</g>
<!-- Node189928&#45;&gt;Node190206 -->
<g id="edge23" class="edge">
<title>Node189928&#45;&gt;Node190206</title>
<path fill="none" stroke="#191970" d="M103.3833,-483.6103C115.5858,-485.0283 128.6053,-486.5413 141.2036,-488.0053"/>
<polygon fill="#191970" stroke="#191970" points="103.6897,-480.1224 93.3525,-482.4446 102.8817,-487.0756 103.6897,-480.1224"/>
</g>
<!-- Node190235 -->
<g id="node16" class="node">
<title>Node190235</title>
<g id="a_node16"><a xlink:href="quickjs_8c.html#aca3b864ab833c3c9034cee730e49cedb" target="_top" xlink:title="js_object_defineProperty">
<polygon fill="none" stroke="#000000" points="148,-448.5 148,-467.5 272,-467.5 272,-448.5 148,-448.5"/>
<text text-anchor="middle" x="210" y="-455.5" font-family="Helvetica,sans-Serif" font-size="10.00" fill="#000000">js_object_defineProperty</text>
</a>
</g>
</g>
<!-- Node189928&#45;&gt;Node190235 -->
<g id="edge24" class="edge">
<title>Node189928&#45;&gt;Node190235</title>
<path fill="none" stroke="#191970" d="M103.5595,-470.3692C117.8873,-468.7042 133.3318,-466.9095 147.8926,-465.2174"/>
<polygon fill="#191970" stroke="#191970" points="102.8817,-466.9244 93.3525,-471.5554 103.6897,-473.8776 102.8817,-466.9244"/>
</g>
<!-- Node190209 -->
<g id="node17" class="node">
<title>Node190209</title>
<g id="a_node17"><a xlink:href="quickjs_8c.html#a5f75fb513884286c86db6863663f262a" target="_top" xlink:title="js_object_getOwnProperty\lDescriptor">
<polygon fill="none" stroke="#ff0000" points="144.5,-399 144.5,-429 275.5,-429 275.5,-399 144.5,-399"/>
<text text-anchor="start" x="152.5" y="-417" font-family="Helvetica,sans-Serif" font-size="10.00" fill="#000000">js_object_getOwnProperty</text>
<text text-anchor="middle" x="210" y="-406" font-family="Helvetica,sans-Serif" font-size="10.00" fill="#000000">Descriptor</text>
</a>
</g>
</g>
<!-- Node189928&#45;&gt;Node190209 -->
<g id="edge25" class="edge">
<title>Node189928&#45;&gt;Node190209</title>
<path fill="none" stroke="#191970" d="M74.7203,-462.8752C90.4744,-455.2772 110.5836,-446.0479 129,-439 138.0716,-435.5283 147.8496,-432.185 157.3666,-429.1347"/>
<polygon fill="#191970" stroke="#191970" points="72.9799,-459.83 65.528,-467.3612 76.05,-466.1208 72.9799,-459.83"/>
</g>
<!-- Node190211 -->
<g id="node18" class="node">
<title>Node190211</title>
<g id="a_node18"><a xlink:href="quickjs_8c.html#ad61ef444b51b69a8a4cb9e3cac990c8d" target="_top" xlink:title="js_object_hasOwnProperty">
<polygon fill="none" stroke="#000000" points="143,-360.5 143,-379.5 277,-379.5 277,-360.5 143,-360.5"/>
<text text-anchor="middle" x="210" y="-367.5" font-family="Helvetica,sans-Serif" font-size="10.00" fill="#000000">js_object_hasOwnProperty</text>
</a>
</g>
</g>
<!-- Node189928&#45;&gt;Node190211 -->
<g id="edge26" class="edge">
<title>Node189928&#45;&gt;Node190211</title>
<path fill="none" stroke="#191970" d="M58.4917,-459.2363C72.887,-439.3189 98.8888,-407.5218 129,-390 136.5117,-385.6289 144.9517,-382.2082 153.4723,-379.5324"/>
<polygon fill="#191970" stroke="#191970" points="55.6015,-457.2618 52.7213,-467.4576 61.3311,-461.2833 55.6015,-457.2618"/>
</g>
<!-- Node190213 -->
<g id="node19" class="node">
<title>Node190213</title>
<g id="a_node19"><a xlink:href="quickjs_8c.html#acc70b8dea6a26f839c651835b7104c92" target="_top" xlink:title="js_object_propertyIsEnumerable">
<polygon fill="none" stroke="#000000" points="132,-322.5 132,-341.5 288,-341.5 288,-322.5 132,-322.5"/>
<text text-anchor="middle" x="210" y="-329.5" font-family="Helvetica,sans-Serif" font-size="10.00" fill="#000000">js_object_propertyIsEnumerable</text>
</a>
</g>
</g>
<!-- Node189928&#45;&gt;Node190213 -->
<g id="edge27" class="edge">
<title>Node189928&#45;&gt;Node190213</title>
<path fill="none" stroke="#191970" d="M53.6317,-457.8303C65.0722,-429.8265 90.2529,-378.1238 129,-351 134.5615,-347.1068 140.8112,-344.0027 147.3088,-341.5292"/>
<polygon fill="#191970" stroke="#191970" points="50.3099,-456.7144 49.9201,-467.3021 56.8274,-459.2684 50.3099,-456.7144"/>
</g>
<!-- Node190202 -->
<g id="node20" class="node">
<title>Node190202</title>
<g id="a_node20"><a xlink:href="quickjs_8c.html#a9b6302f1a5bc5d5d8f1951777433e516" target="_top" xlink:title="js_operator_delete">
<polygon fill="none" stroke="#000000" points="162,-828.5 162,-847.5 258,-847.5 258,-828.5 162,-828.5"/>
<text text-anchor="middle" x="210" y="-835.5" font-family="Helvetica,sans-Serif" font-size="10.00" fill="#000000">js_operator_delete</text>
</a>
</g>
</g>
<!-- Node189928&#45;&gt;Node190202 -->
<g id="edge28" class="edge">
<title>Node189928&#45;&gt;Node190202</title>
<path fill="none" stroke="#191970" d="M48.5779,-496.8666C55.8702,-562.7824 82.4074,-772.7002 129,-819 137.8113,-827.756 149.8437,-832.7732 161.9386,-835.5756"/>
<polygon fill="#191970" stroke="#191970" points="52.0247,-496.1845 47.4724,-486.6175 45.0651,-496.9353 52.0247,-496.1845"/>
</g>
<!-- Node190274 -->
<g id="node21" class="node">
<title>Node190274</title>
<g id="a_node21"><a xlink:href="quickjs_8c.html#a3756e0f1dc63bd8e463e6d4febc6e503" target="_top" xlink:title="js_operator_in">
<polygon fill="none" stroke="#000000" points="171.5,-790.5 171.5,-809.5 248.5,-809.5 248.5,-790.5 171.5,-790.5"/>
<text text-anchor="middle" x="210" y="-797.5" font-family="Helvetica,sans-Serif" font-size="10.00" fill="#000000">js_operator_in</text>
</a>
</g>
</g>
<!-- Node189928&#45;&gt;Node190274 -->
<g id="edge30" class="edge">
<title>Node189928&#45;&gt;Node190274</title>
<path fill="none" stroke="#191970" d="M49.2394,-497.0111C58.0033,-558.1315 87.2454,-740.6655 129,-781 140.2198,-791.8382 156.3892,-796.9133 171.335,-799.1589"/>
<polygon fill="#191970" stroke="#191970" points="52.659,-496.1932 47.8023,-486.7771 45.727,-497.1667 52.659,-496.1932"/>
</g>
<!-- Node190530 -->
<g id="node22" class="node">
<title>Node190530</title>
<g id="a_node22"><a xlink:href="quickjs_8c.html#a736435f0774c85e09f2817c97ec47bbf" target="_top" xlink:title="js_parse_from_clause">
<polygon fill="none" stroke="#ff0000" points="154,-246.5 154,-265.5 266,-265.5 266,-246.5 154,-246.5"/>
<text text-anchor="middle" x="210" y="-253.5" font-family="Helvetica,sans-Serif" font-size="10.00" fill="#000000">js_parse_from_clause</text>
</a>
</g>
</g>
<!-- Node189928&#45;&gt;Node190530 -->
<g id="edge32" class="edge">
<title>Node189928&#45;&gt;Node190530</title>
<path fill="none" stroke="#191970" d="M49.1334,-457.1149C55.4425,-417.4851 75.122,-328.3261 129,-280 136.0969,-273.6344 144.8118,-268.9541 153.8656,-265.5137"/>
<polygon fill="#191970" stroke="#191970" points="45.6557,-456.7077 47.6633,-467.1106 52.5812,-457.7263 45.6557,-456.7077"/>
</g>
<!-- Node190531 -->
<g id="node23" class="node">
<title>Node190531</title>
<g id="a_node23"><a xlink:href="quickjs_8c.html#aa24f7964f6d938a05c3c3c03af5a01e9" target="_top" xlink:title="js_parse_import">
<polygon fill="none" stroke="#ff0000" points="327,-265.5 327,-284.5 413,-284.5 413,-265.5 327,-265.5"/>
<text text-anchor="middle" x="370" y="-272.5" font-family="Helvetica,sans-Serif" font-size="10.00" fill="#000000">js_parse_import</text>
</a>
</g>
</g>
<!-- Node189928&#45;&gt;Node190531 -->
<g id="edge34" class="edge">
<title>Node189928&#45;&gt;Node190531</title>
<path fill="none" stroke="#191970" d="M50.3207,-457.2574C58.2452,-422.0512 79.9868,-348.7776 129,-313 159.7481,-290.5552 266.1327,-280.8951 326.7785,-277.1317"/>
<polygon fill="#191970" stroke="#191970" points="46.8513,-456.7481 48.2162,-467.2546 53.7012,-458.1901 46.8513,-456.7481"/>
</g>
<!-- Node190124 -->
<g id="node24" class="node">
<title>Node190124</title>
<g id="a_node24"><a xlink:href="quickjs_8c.html#a42234753f3193f37ce45b3c0ca4c25cd" target="_top" xlink:title="js_parse_property_name">
<polygon fill="none" stroke="#ff0000" points="148.5,-208.5 148.5,-227.5 271.5,-227.5 271.5,-208.5 148.5,-208.5"/>
<text text-anchor="middle" x="210" y="-215.5" font-family="Helvetica,sans-Serif" font-size="10.00" fill="#000000">js_parse_property_name</text>
</a>
</g>
</g>
<!-- Node189928&#45;&gt;Node190124 -->
<g id="edge35" class="edge">
<title>Node189928&#45;&gt;Node190124</title>
<path fill="none" stroke="#191970" d="M50.6447,-457.5659C62.0174,-406.0118 95.1254,-267.6246 129,-237 134.5716,-231.9629 141.2218,-228.1883 148.2825,-225.3709"/>
<polygon fill="#191970" stroke="#191970" points="47.2035,-456.9198 48.5006,-467.4349 54.0439,-458.4059 47.2035,-456.9198"/>
</g>
<!-- Node190203 -->
<g id="node25" class="node">
<title>Node190203</title>
<g id="a_node25"><a xlink:href="quickjs_8c.html#ae9c76f2d0eacc35d9df11d9f81039cde" target="_top" xlink:title="js_reflect_deleteProperty">
<polygon fill="none" stroke="#000000" points="147.5,-170.5 147.5,-189.5 272.5,-189.5 272.5,-170.5 147.5,-170.5"/>
<text text-anchor="middle" x="210" y="-177.5" font-family="Helvetica,sans-Serif" font-size="10.00" fill="#000000">js_reflect_deleteProperty</text>
</a>
</g>
</g>
<!-- Node189928&#45;&gt;Node190203 -->
<g id="edge37" class="edge">
<title>Node189928&#45;&gt;Node190203</title>
<path fill="none" stroke="#191970" d="M49.6789,-457.5783C59.3917,-400.5723 90.38,-235.4396 129,-199 134.2529,-194.0436 140.5438,-190.2986 147.2669,-187.4807"/>
<polygon fill="#191970" stroke="#191970" points="46.2226,-457.0271 48.0241,-467.4676 53.1266,-458.1824 46.2226,-457.0271"/>
</g>
<!-- Node190513 -->
<g id="node26" class="node">
<title>Node190513</title>
<g id="a_node26"><a xlink:href="quickjs_8c.html#a6730c3163c357445c0182c52d5a53ca4" target="_top" xlink:title="js_reflect_get">
<polygon fill="none" stroke="#000000" points="172.5,-132.5 172.5,-151.5 247.5,-151.5 247.5,-132.5 172.5,-132.5"/>
<text text-anchor="middle" x="210" y="-139.5" font-family="Helvetica,sans-Serif" font-size="10.00" fill="#000000">js_reflect_get</text>
</a>
</g>
</g>
<!-- Node189928&#45;&gt;Node190513 -->
<g id="edge38" class="edge">
<title>Node189928&#45;&gt;Node190513</title>
<path fill="none" stroke="#191970" d="M48.9607,-457.4325C57.1787,-395.1772 85.6293,-203.3009 129,-161 140.3744,-149.9062 156.929,-144.8382 172.1121,-142.6657"/>
<polygon fill="#191970" stroke="#191970" points="45.4724,-457.1173 47.6626,-467.4832 52.4148,-458.014 45.4724,-457.1173"/>
</g>
<!-- Node190276 -->
<g id="node27" class="node">
<title>Node190276</title>
<g id="a_node27"><a xlink:href="quickjs_8c.html#ab34237416a7483c22a564155a240224b" target="_top" xlink:title="js_reflect_has">
<polygon fill="none" stroke="#000000" points="171.5,-94.5 171.5,-113.5 248.5,-113.5 248.5,-94.5 171.5,-94.5"/>
<text text-anchor="middle" x="210" y="-101.5" font-family="Helvetica,sans-Serif" font-size="10.00" fill="#000000">js_reflect_has</text>
</a>
</g>
</g>
<!-- Node189928&#45;&gt;Node190276 -->
<g id="edge39" class="edge">
<title>Node189928&#45;&gt;Node190276</title>
<path fill="none" stroke="#191970" d="M48.3855,-457.3089C55.217,-390.0963 80.8419,-171.2274 129,-123 140.0227,-111.9614 156.1613,-106.855 171.1374,-104.6402"/>
<polygon fill="#191970" stroke="#191970" points="44.8899,-457.0927 47.3879,-467.3889 51.8559,-457.7822 44.8899,-457.0927"/>
</g>
<!-- Node190045 -->
<g id="node28" class="node">
<title>Node190045</title>
<g id="a_node28"><a xlink:href="quickjs_8c.html#af047bcc4352c7d76f5e85bb5985bcd97" target="_top" xlink:title="js_reflect_set">
<polygon fill="none" stroke="#000000" points="172.5,-56.5 172.5,-75.5 247.5,-75.5 247.5,-56.5 172.5,-56.5"/>
<text text-anchor="middle" x="210" y="-63.5" font-family="Helvetica,sans-Serif" font-size="10.00" fill="#000000">js_reflect_set</text>
</a>
</g>
</g>
<!-- Node189928&#45;&gt;Node190045 -->
<g id="edge40" class="edge">
<title>Node189928&#45;&gt;Node190045</title>
<path fill="none" stroke="#191970" d="M47.9213,-457.1085C53.4716,-385.0662 76.0478,-139.1827 129,-85 140.2061,-73.5335 156.9227,-68.4385 172.2644,-66.3455"/>
<polygon fill="#191970" stroke="#191970" points="44.4027,-457.2286 47.1503,-467.461 51.3834,-457.7486 44.4027,-457.2286"/>
</g>
<!-- Node190069 -->
<g id="node29" class="node">
<title>Node190069</title>
<g id="a_node29"><a xlink:href="quickjs_8c.html#aee75cc1546e19479e3ccda58f3b50a96" target="_top" xlink:title="JS_SetPropertyValue">
<polygon fill="none" stroke="#ff0000" points="155,-752.5 155,-771.5 265,-771.5 265,-752.5 155,-752.5"/>
<text text-anchor="middle" x="210" y="-759.5" font-family="Helvetica,sans-Serif" font-size="10.00" fill="#000000">JS_SetPropertyValue</text>
</a>
</g>
</g>
<!-- Node189928&#45;&gt;Node190069 -->
<g id="edge41" class="edge">
<title>Node189928&#45;&gt;Node190069</title>
<path fill="none" stroke="#191970" d="M50.2914,-496.9122C61.1086,-551.7584 93.6261,-703.2606 129,-738 136.1158,-744.9882 145.1664,-749.9572 154.6219,-753.4868"/>
<polygon fill="#191970" stroke="#191970" points="53.6608,-495.9023 48.3193,-486.7524 46.7891,-497.2362 53.6608,-495.9023"/>
</g>
<!-- Node190146 -->
<g id="node30" class="node">
<title>Node190146</title>
<g id="a_node30"><a xlink:href="quickjs_8c.html#a756c1ab5dee9a6dd07723d7a075e2a53" target="_top" xlink:title="json_parse_value">
<polygon fill="none" stroke="#ff0000" points="164,-.5 164,-19.5 256,-19.5 256,-.5 164,-.5"/>
<text text-anchor="middle" x="210" y="-7.5" font-family="Helvetica,sans-Serif" font-size="10.00" fill="#000000">json_parse_value</text>
</a>
</g>
</g>
<!-- Node189928&#45;&gt;Node190146 -->
<g id="edge43" class="edge">
<title>Node189928&#45;&gt;Node190146</title>
<path fill="none" stroke="#191970" d="M47.8926,-457.4965C53.6035,-382.3722 77.4083,-112.667 129,-47 139.3153,-33.8705 155.3433,-25.2338 170.428,-19.6359"/>
<polygon fill="#191970" stroke="#191970" points="44.4019,-457.2428 47.1549,-467.4737 51.3829,-457.7591 44.4019,-457.2428"/>
</g>
<!-- Node189929&#45;&gt;Node189929 -->
<g id="edge12" class="edge">
<title>Node189929&#45;&gt;Node189929</title>
<path fill="none" stroke="#191970" d="M342.7475,-775.6539C343.8867,-780.9368 352.9708,-785 370,-785 395.9492,-785 403.4502,-775.5653 392.5028,-766.7571"/>
<polygon fill="#191970" stroke="#191970" points="345.8752,-777.227 347.4972,-766.7571 339.7001,-773.9303 345.8752,-777.227"/>
</g>
<!-- Node189930 -->
<g id="node3" class="node">
<title>Node189930</title>
<g id="a_node3"><a xlink:href="quickjs_8c.html#ade71a22dc56e7371392393df663b28b3" target="_top" xlink:title="async_func_resume">
<polygon fill="none" stroke="#ff0000" points="464,-776.5 464,-795.5 568,-795.5 568,-776.5 464,-776.5"/>
<text text-anchor="middle" x="516" y="-783.5" font-family="Helvetica,sans-Serif" font-size="10.00" fill="#000000">async_func_resume</text>
</a>
</g>
</g>
<!-- Node189929&#45;&gt;Node189930 -->
<g id="edge2" class="edge">
<title>Node189929&#45;&gt;Node189930</title>
<path fill="none" stroke="#191970" d="M421.9728,-767.3234C436.9611,-770.3005 453.2424,-773.5344 467.9793,-776.4616"/>
<polygon fill="#191970" stroke="#191970" points="422.328,-763.8256 411.8377,-765.3102 420.9642,-770.6915 422.328,-763.8256"/>
</g>
<!-- Node189947 -->
<g id="node4" class="node">
<title>Node189947</title>
<g id="a_node4"><a xlink:href="quickjs_8c.html#a1a4c02a29525d5cb2085dd8bca3af350" target="_top" xlink:title="JS_Call">
<polygon fill="none" stroke="#ff0000" points="490.5,-814.5 490.5,-833.5 541.5,-833.5 541.5,-814.5 490.5,-814.5"/>
<text text-anchor="middle" x="516" y="-821.5" font-family="Helvetica,sans-Serif" font-size="10.00" fill="#000000">JS_Call</text>
</a>
</g>
</g>
<!-- Node189929&#45;&gt;Node189947 -->
<g id="edge3" class="edge">
<title>Node189929&#45;&gt;Node189947</title>
<path fill="none" stroke="#191970" d="M403.6674,-771.8482C417.2966,-779.8695 433.4615,-789.2251 449,-796 466.7328,-803.7316 488.4714,-809.2206 502.2818,-814.4473"/>
<polygon fill="#191970" stroke="#191970" points="405.0693,-768.6121 394.6758,-766.5563 401.5188,-774.6448 405.0693,-768.6121"/>
</g>
<!-- Node190028 -->
<g id="node7" class="node">
<title>Node190028</title>
<g id="a_node7"><a xlink:href="quickjs_8c.html#ad35594576a14c10812efaf958c99af8a" target="_top" xlink:title="JS_CallConstructorInternal">
<polygon fill="none" stroke="#ff0000" points="449,-738.5 449,-757.5 583,-757.5 583,-738.5 449,-738.5"/>
<text text-anchor="middle" x="516" y="-745.5" font-family="Helvetica,sans-Serif" font-size="10.00" fill="#000000">JS_CallConstructorInternal</text>
</a>
</g>
</g>
<!-- Node189929&#45;&gt;Node190028 -->
<g id="edge7" class="edge">
<title>Node189929&#45;&gt;Node190028</title>
<path fill="none" stroke="#191970" d="M421.8481,-747.3123C430.577,-746.5553 439.7474,-745.9102 448.7982,-745.4115"/>
<polygon fill="#191970" stroke="#191970" points="421.4676,-743.8325 411.8377,-748.2503 422.1207,-750.802 421.4676,-743.8325"/>
</g>
<!-- Node190042 -->
<g id="node8" class="node">
<title>Node190042</title>
<g id="a_node8"><a xlink:href="quickjs_8c.html#a75f6ee5e4235a7dc99889f3d2eb2c147" target="_top" xlink:title="JS_CallFree">
<polygon fill="none" stroke="#ff0000" points="480.5,-700.5 480.5,-719.5 551.5,-719.5 551.5,-700.5 480.5,-700.5"/>
<text text-anchor="middle" x="516" y="-707.5" font-family="Helvetica,sans-Serif" font-size="10.00" fill="#000000">JS_CallFree</text>
</a>
</g>
</g>
<!-- Node189929&#45;&gt;Node190042 -->
<g id="edge9" class="edge">
<title>Node189929&#45;&gt;Node190042</title>
<path fill="none" stroke="#191970" d="M389.0197,-742.6484C404.9495,-734.9949 428.3333,-726.5853 449,-720 459.1375,-716.7697 470.2225,-713.5152 480.4057,-711.0003"/>
<polygon fill="#191970" stroke="#191970" points="387.3888,-739.5516 380.1554,-747.293 390.6376,-745.752 387.3888,-739.5516"/>
</g>
<!-- Node189947&#45;&gt;Node189929 -->
<g id="edge4" class="edge">
<title>Node189947&#45;&gt;Node189929</title>
<path fill="none" stroke="#191970" d="M480.3427,-824.4259C470.0296,-821.9278 458.8916,-818.3128 449,-814 420.1665,-801.4284 389.1759,-779.9703 376.233,-766.5633"/>
<polygon fill="#191970" stroke="#191970" points="479.7958,-827.8877 490.3041,-826.5363 481.2466,-821.0397 479.7958,-827.8877"/>
</g>
<!-- Node189947&#45;&gt;Node189993 -->
<g id="edge5" class="edge">
<title>Node189947&#45;&gt;Node189993</title>
<path fill="none" stroke="#191970" d="M551.4593,-831.4651C577.5945,-836.9673 613.3555,-844.4959 641.5829,-850.4385"/>
<polygon fill="#191970" stroke="#191970" points="552.107,-828.0248 541.6004,-829.3896 550.6649,-834.8747 552.107,-828.0248"/>
</g>
<!-- Node190000 -->
<g id="node6" class="node">
<title>Node190000</title>
<g id="a_node6"><a xlink:href="quickjs_8c.html#a9dd41b086da4e13b3487cc9c6e2af2b8" target="_top" xlink:title="js_array_find">
<polygon fill="none" stroke="#000000" points="651,-777.5 651,-796.5 723,-796.5 723,-777.5 651,-777.5"/>
<text text-anchor="middle" x="687" y="-784.5" font-family="Helvetica,sans-Serif" font-size="10.00" fill="#000000">js_array_find</text>
</a>
</g>
</g>
<!-- Node189947&#45;&gt;Node190000 -->
<g id="edge6" class="edge">
<title>Node189947&#45;&gt;Node190000</title>
<path fill="none" stroke="#191970" d="M551.7269,-816.2696C580.7746,-809.9844 621.5819,-801.1548 650.7655,-794.8402"/>
<polygon fill="#191970" stroke="#191970" points="550.634,-812.925 541.6004,-818.4607 552.1145,-819.7667 550.634,-812.925"/>
</g>
<!-- Node190028&#45;&gt;Node189929 -->
<g id="edge8" class="edge">
<title>Node190028&#45;&gt;Node189929</title>
<path fill="none" stroke="#191970" d="M456.0175,-758.3512C441.179,-759.4876 425.599,-760.287 411.8377,-760.5916"/>
<polygon fill="#191970" stroke="#191970" points="456.4635,-761.8264 466.1403,-757.5126 455.8855,-754.8503 456.4635,-761.8264"/>
</g>
<!-- Node190042&#45;&gt;Node189929 -->
<g id="edge10" class="edge">
<title>Node190042&#45;&gt;Node189929</title>
<path fill="none" stroke="#191970" d="M494.4668,-723.5224C481.2777,-728.3299 464.0893,-733.1919 449,-738 436.7993,-741.8877 423.6516,-746.4112 411.6497,-750.3084"/>
<polygon fill="#191970" stroke="#191970" points="496.0857,-726.6445 504.0703,-719.6806 493.4857,-720.1453 496.0857,-726.6445"/>
</g>
<!-- Node190042&#45;&gt;Node190267 -->
<g id="edge11" class="edge">
<title>Node190042&#45;&gt;Node190267</title>
<path fill="none" stroke="#191970" d="M561.8857,-699.8032C579.5578,-695.876 600.1285,-691.3048 619.4239,-687.0169"/>
<polygon fill="#191970" stroke="#191970" points="560.8498,-696.4479 551.8472,-702.034 562.3684,-703.2812 560.8498,-696.4479"/>
</g>
<!-- Node190169&#45;&gt;Node189929 -->
<g id="edge15" class="edge">
<title>Node190169&#45;&gt;Node189929</title>
<path fill="none" stroke="#191970" d="M259.0896,-698.4115C269.7875,-701.7027 280.9178,-705.5895 291,-710 315.125,-720.5536 340.9696,-737.0277 356.2951,-747.4062"/>
<polygon fill="#191970" stroke="#191970" points="260.0109,-695.0342 249.429,-695.5585 258.0282,-701.7476 260.0109,-695.0342"/>
</g>
<!-- Node190132&#45;&gt;Node189929 -->
<g id="edge17" class="edge">
<title>Node190132&#45;&gt;Node189929</title>
<path fill="none" stroke="#191970" d="M280.4479,-862.6755C284.1218,-861.0021 287.667,-859.119 291,-857 327.7823,-833.6156 354.7364,-787.0034 365.2069,-766.7602"/>
<polygon fill="#191970" stroke="#191970" points="279.0811,-859.4525 271.0979,-866.4181 281.6825,-865.9512 279.0811,-859.4525"/>
</g>
<!-- Node190259&#45;&gt;Node189929 -->
<g id="edge20" class="edge">
<title>Node190259&#45;&gt;Node189929</title>
<path fill="none" stroke="#191970" d="M275.6246,-659.6043C280.998,-661.6772 286.2004,-664.1204 291,-667 325.5864,-687.7508 353.1209,-728.7364 364.4292,-747.3716"/>
<polygon fill="#191970" stroke="#191970" points="276.4125,-656.1751 265.818,-656.2587 274.1523,-662.8002 276.4125,-656.1751"/>
</g>
<!-- Node190259&#45;&gt;Node190000 -->
<g id="edge21" class="edge">
<title>Node190259&#45;&gt;Node190000</title>
<path fill="none" stroke="#191970" d="M275.7068,-643.5933C352.8856,-641.0552 483.0606,-645.154 583,-691 626.9981,-711.1836 664.8669,-757.1525 679.9851,-777.2692"/>
<polygon fill="#191970" stroke="#191970" points="275.5006,-640.0985 265.6393,-643.9721 275.7639,-647.0935 275.5006,-640.0985"/>
</g>
<!-- Node190202&#45;&gt;Node189929 -->
<g id="edge29" class="edge">
<title>Node190202&#45;&gt;Node189929</title>
<path fill="none" stroke="#191970" d="M267.9527,-827.6748C275.8878,-825.3264 283.7804,-822.4689 291,-819 319.2868,-805.4089 346.8517,-780.2784 360.7253,-766.5551"/>
<polygon fill="#191970" stroke="#191970" points="267.0303,-824.2984 258.2947,-830.2935 268.8622,-831.0544 267.0303,-824.2984"/>
</g>
<!-- Node190274&#45;&gt;Node189929 -->
<g id="edge31" class="edge">
<title>Node190274&#45;&gt;Node189929</title>
<path fill="none" stroke="#191970" d="M258.843,-789.0804C269.4753,-786.5537 280.6409,-783.7854 291,-781 307.3342,-776.608 325.3949,-771.1658 340.1201,-766.5746"/>
<polygon fill="#191970" stroke="#191970" points="257.7934,-785.7315 248.8563,-791.4216 259.3912,-792.5467 257.7934,-785.7315"/>
</g>
<!-- Node190530&#45;&gt;Node190531 -->
<g id="edge33" class="edge">
<title>Node190530&#45;&gt;Node190531</title>
<path fill="none" stroke="#191970" d="M276.3443,-263.8784C293.4265,-265.9069 311.3647,-268.0371 326.9182,-269.884"/>
<polygon fill="#191970" stroke="#191970" points="276.753,-260.4024 266.41,-262.6987 275.9275,-267.3536 276.753,-260.4024"/>
</g>
<!-- Node190069&#45;&gt;Node189929 -->
<g id="edge42" class="edge">
<title>Node190069&#45;&gt;Node189929</title>
<path fill="none" stroke="#191970" d="M275.218,-759.9619C293.212,-759.3996 312.2397,-758.805 328.487,-758.2973"/>
<polygon fill="#191970" stroke="#191970" points="274.9487,-756.4685 265.0629,-760.2793 275.1674,-763.4651 274.9487,-756.4685"/>
</g>
<!-- Node190146&#45;&gt;Node190146 -->
<g id="edge44" class="edge">
<title>Node190146&#45;&gt;Node190146</title>
<path fill="none" stroke="#191970" d="M180.0599,-28.2746C180.9135,-33.741 190.8936,-38 210,-38 238.4375,-38 246.6577,-28.5653 234.6606,-19.7571"/>
<polygon fill="#191970" stroke="#191970" points="183.0458,-30.1007 185.3394,-19.7571 177.096,-26.4128 183.0458,-30.1007"/>
</g>
</g>
</svg>
