<?xml version="1.0" encoding="UTF-8" standalone="no"?>
<!DOCTYPE svg PUBLIC "-//W3C//DTD SVG 1.1//EN"
 "http://www.w3.org/Graphics/SVG/1.1/DTD/svg11.dtd">
<!-- Generated by graphviz version 2.40.1 (20161225.0304)
 -->
<!-- Title: date_now Pages: 1 -->
<svg width="473pt" height="66pt"
 viewBox="0.00 0.00 473.00 66.00" xmlns="http://www.w3.org/2000/svg" xmlns:xlink="http://www.w3.org/1999/xlink">
<g id="graph0" class="graph" transform="scale(1 1) rotate(0) translate(4 62)">
<title>date_now</title>
<!-- Node465478 -->
<g id="node1" class="node">
<title>Node465478</title>
<polygon fill="#bfbfbf" stroke="#000000" points="0,-19.5 0,-38.5 59,-38.5 59,-19.5 0,-19.5"/>
<text text-anchor="middle" x="29.5" y="-26.5" font-family="Helvetica,sans-Serif" font-size="10.00" fill="#000000">date_now</text>
</g>
<!-- Node465479 -->
<g id="node2" class="node">
<title>Node465479</title>
<g id="a_node2"><a xlink:href="quickjs_8c.html#a7e4e02ec8849f3beaf28dc0613bb4016" target="_top" xlink:title="js_date_constructor">
<polygon fill="none" stroke="#000000" points="95,-38.5 95,-57.5 197,-57.5 197,-38.5 95,-38.5"/>
<text text-anchor="middle" x="146" y="-45.5" font-family="Helvetica,sans-Serif" font-size="10.00" fill="#000000">js_date_constructor</text>
</a>
</g>
</g>
<!-- Node465478&#45;&gt;Node465479 -->
<g id="edge1" class="edge">
<title>Node465478&#45;&gt;Node465479</title>
<path fill="none" stroke="#191970" d="M69.2087,-35.4761C77.3847,-36.8095 86.1048,-38.2317 94.6259,-39.6214"/>
<polygon fill="#191970" stroke="#191970" points="69.6323,-31.999 59.1993,-33.8437 68.5055,-38.9077 69.6323,-31.999"/>
</g>
<!-- Node465487 -->
<g id="node5" class="node">
<title>Node465487</title>
<g id="a_node5"><a xlink:href="quickjs_8c.html#a52d4488193dca3f5066c73f4e39ed2fb" target="_top" xlink:title="js_Date_now">
<polygon fill="none" stroke="#000000" points="109,-.5 109,-19.5 183,-19.5 183,-.5 109,-.5"/>
<text text-anchor="middle" x="146" y="-7.5" font-family="Helvetica,sans-Serif" font-size="10.00" fill="#000000">js_Date_now</text>
</a>
</g>
</g>
<!-- Node465478&#45;&gt;Node465487 -->
<g id="edge4" class="edge">
<title>Node465478&#45;&gt;Node465487</title>
<path fill="none" stroke="#191970" d="M69.1542,-22.5328C81.9958,-20.4384 96.1846,-18.1244 108.8384,-16.0607"/>
<polygon fill="#191970" stroke="#191970" points="68.5055,-19.0923 59.1993,-24.1563 69.6323,-26.001 68.5055,-19.0923"/>
</g>
<!-- Node465480 -->
<g id="node3" class="node">
<title>Node465480</title>
<g id="a_node3"><a xlink:href="quickjs_8c.html#a8ecbf5799518b7bfc3fefd47c7a0dd4e" target="_top" xlink:title="JS_AddIntrinsicDate">
<polygon fill="none" stroke="#000000" points="233,-38.5 233,-57.5 340,-57.5 340,-38.5 233,-38.5"/>
<text text-anchor="middle" x="286.5" y="-45.5" font-family="Helvetica,sans-Serif" font-size="10.00" fill="#000000">JS_AddIntrinsicDate</text>
</a>
</g>
</g>
<!-- Node465479&#45;&gt;Node465480 -->
<g id="edge2" class="edge">
<title>Node465479&#45;&gt;Node465480</title>
<path fill="none" stroke="#191970" d="M207.3465,-48C215.8288,-48 224.4872,-48 232.8161,-48"/>
<polygon fill="#191970" stroke="#191970" points="207.1212,-44.5001 197.1212,-48 207.1211,-51.5001 207.1212,-44.5001"/>
</g>
<!-- Node465481 -->
<g id="node4" class="node">
<title>Node465481</title>
<g id="a_node4"><a xlink:href="quickjs_8c.html#ad8aedb643b8753b7a15f6cb2df61945e" target="_top" xlink:title="JS_NewContext">
<polygon fill="none" stroke="#ff0000" points="376,-38.5 376,-57.5 465,-57.5 465,-38.5 376,-38.5"/>
<text text-anchor="middle" x="420.5" y="-45.5" font-family="Helvetica,sans-Serif" font-size="10.00" fill="#000000">JS_NewContext</text>
</a>
</g>
</g>
<!-- Node465480&#45;&gt;Node465481 -->
<g id="edge3" class="edge">
<title>Node465480&#45;&gt;Node465481</title>
<path fill="none" stroke="#191970" d="M350.2847,-48C358.9061,-48 367.5987,-48 375.7897,-48"/>
<polygon fill="#191970" stroke="#191970" points="350.2309,-44.5001 340.2308,-48 350.2308,-51.5001 350.2309,-44.5001"/>
</g>
</g>
</svg>
