<?xml version="1.0" encoding="UTF-8" standalone="no"?>
<!DOCTYPE svg PUBLIC "-//W3C//DTD SVG 1.1//EN"
 "http://www.w3.org/Graphics/SVG/1.1/DTD/svg11.dtd">
<!-- Generated by graphviz version 2.40.1 (20161225.0304)
 -->
<!-- Title: JS_ToNumber Pages: 1 -->
<!--zoomable 218 -->
<svg id="main" version="1.1" xmlns="http://www.w3.org/2000/svg" xmlns:xlink="http://www.w3.org/1999/xlink" xml:space="preserve" onload="init(evt)">
<style type="text/css"><![CDATA[
.edge:hover path { stroke: red; }
.edge:hover polygon { stroke: red; fill: red; }
]]></style>
<script type="text/javascript"><![CDATA[
var edges = document.getElementsByTagName('g');
if (edges && edges.length) {
  for (var i=0;i<edges.length;i++) {
    if (edges[i].id.substr(0,4)=='edge') {
      edges[i].setAttribute('class','edge');
    }
  }
}
]]></script>
        <defs>
                <circle id="rim" cx="0" cy="0" r="7"/>
                <circle id="rim2" cx="0" cy="0" r="3.5"/>
                <g id="zoomPlus">
                        <use xlink:href="#rim" fill="#404040">
                                <set attributeName="fill" to="#808080" begin="zoomplus.mouseover" end="zoomplus.mouseout"/>
                        </use>
                        <path d="M-4,0h8M0,-4v8" fill="none" stroke="white" stroke-width="1.5" pointer-events="none"/>
                </g>
                <g id="zoomMin">
                        <use xlink:href="#rim" fill="#404040">
                                <set attributeName="fill" to="#808080" begin="zoomminus.mouseover" end="zoomminus.mouseout"/>
                        </use>
                        <path d="M-4,0h8" fill="none" stroke="white" stroke-width="1.5" pointer-events="none"/>
                </g>
                <g id="dirArrow">
                        <path fill="none" stroke="white" stroke-width="1.5" d="M0,-3.0v7 M-2.5,-0.5L0,-3.0L2.5,-0.5"/>
                </g>
               <g id="resetDef">
                       <use xlink:href="#rim2" fill="#404040">
                               <set attributeName="fill" to="#808080" begin="reset.mouseover" end="reset.mouseout"/>
                       </use>
               </g>
        </defs>

<script type="text/javascript">
var viewWidth = 881;
var viewHeight = 218;
var sectionId = 'dynsection-91';
</script>
<script xlink:href="svgpan.js"/>
<svg id="graph" class="graph">
<g id="viewport">
<title>JS_ToNumber</title>
<!-- Node32429 -->
<g id="node1" class="node">
<title>Node32429</title>
<polygon fill="#bfbfbf" stroke="#000000" points="0,-38.5 0,-57.5 80,-57.5 80,-38.5 0,-38.5"/>
<text text-anchor="middle" x="40" y="-45.5" font-family="Helvetica,sans-Serif" font-size="10.00" fill="#000000">JS_ToNumber</text>
</g>
<!-- Node32430 -->
<g id="node2" class="node">
<title>Node32430</title>
<g id="a_node2"><a xlink:href="quickjs_8c.html#ab4e100a9cde5f7ec87c92f5e766dbbab" target="_top" xlink:title="JS_AtomIsNumericIndex1">
<polygon fill="none" stroke="#000000" points="116,-38.5 116,-57.5 247,-57.5 247,-38.5 116,-38.5"/>
<text text-anchor="middle" x="181.5" y="-45.5" font-family="Helvetica,sans-Serif" font-size="10.00" fill="#000000">JS_AtomIsNumericIndex1</text>
</a>
</g>
</g>
<!-- Node32429&#45;&gt;Node32430 -->
<g id="edge1" class="edge">
<title>Node32429&#45;&gt;Node32430</title>
<path fill="none" stroke="#191970" d="M90.3581,-48C98.6019,-48 107.2496,-48 115.7985,-48"/>
<polygon fill="#191970" stroke="#191970" points="90.1698,-44.5001 80.1697,-48 90.1697,-51.5001 90.1698,-44.5001"/>
</g>
<!-- Node32431 -->
<g id="node3" class="node">
<title>Node32431</title>
<g id="a_node3"><a xlink:href="quickjs_8c.html#add3eea1f6d626963ade3c28a1fd563d1" target="_top" xlink:title="JS_AtomIsNumericIndex">
<polygon fill="none" stroke="#000000" points="283,-95.5 283,-114.5 409,-114.5 409,-95.5 283,-95.5"/>
<text text-anchor="middle" x="346" y="-102.5" font-family="Helvetica,sans-Serif" font-size="10.00" fill="#000000">JS_AtomIsNumericIndex</text>
</a>
</g>
</g>
<!-- Node32430&#45;&gt;Node32431 -->
<g id="edge2" class="edge">
<title>Node32430&#45;&gt;Node32431</title>
<path fill="none" stroke="#191970" d="M218.8111,-60.9285C249.0788,-71.4164 291.0626,-85.9639 318.3766,-95.4284"/>
<polygon fill="#191970" stroke="#191970" points="219.6284,-57.5076 209.0336,-57.5405 217.3365,-64.1217 219.6284,-57.5076"/>
</g>
<!-- Node32587 -->
<g id="node9" class="node">
<title>Node32587</title>
<g id="a_node9"><a xlink:href="quickjs_8c.html#ab50618f1bf78e444caa6da0e3e2785d7" target="_top" xlink:title="JS_DefineProperty">
<polygon fill="none" stroke="#ff0000" points="620,-.5 620,-19.5 719,-19.5 719,-.5 620,-.5"/>
<text text-anchor="middle" x="669.5" y="-7.5" font-family="Helvetica,sans-Serif" font-size="10.00" fill="#000000">JS_DefineProperty</text>
</a>
</g>
</g>
<!-- Node32430&#45;&gt;Node32587 -->
<g id="edge12" class="edge">
<title>Node32430&#45;&gt;Node32587</title>
<path fill="none" stroke="#191970" d="M257.1913,-42.106C358.1605,-34.2437 534.119,-20.542 619.7889,-13.8709"/>
<polygon fill="#191970" stroke="#191970" points="256.7585,-38.629 247.0605,-42.8949 257.3021,-45.6079 256.7585,-38.629"/>
</g>
<!-- Node32432 -->
<g id="node4" class="node">
<title>Node32432</title>
<g id="a_node4"><a xlink:href="quickjs_8c.html#a5762c57ae0c9937e986040c01222833a" target="_top" xlink:title="JS_GetPropertyInternal">
<polygon fill="none" stroke="#ff0000" points="455,-190.5 455,-209.5 574,-209.5 574,-190.5 455,-190.5"/>
<text text-anchor="middle" x="514.5" y="-197.5" font-family="Helvetica,sans-Serif" font-size="10.00" fill="#000000">JS_GetPropertyInternal</text>
</a>
</g>
</g>
<!-- Node32431&#45;&gt;Node32432 -->
<g id="edge3" class="edge">
<title>Node32431&#45;&gt;Node32432</title>
<path fill="none" stroke="#191970" d="M363.2146,-121.6181C381.9201,-138.8126 413.3853,-165.3054 445,-181 452.6188,-184.7822 461.0938,-187.8957 469.4326,-190.4289"/>
<polygon fill="#191970" stroke="#191970" points="365.4798,-118.9442 355.7894,-114.6606 360.6935,-124.0522 365.4798,-118.9442"/>
</g>
<!-- Node32992 -->
<g id="node5" class="node">
<title>Node32992</title>
<g id="a_node5"><a xlink:href="quickjs_8c.html#ad13892c0a0f11781b566808876658099" target="_top" xlink:title="JS_GetOwnPropertyInternal">
<polygon fill="none" stroke="#ff0000" points="445,-152.5 445,-171.5 584,-171.5 584,-152.5 445,-152.5"/>
<text text-anchor="middle" x="514.5" y="-159.5" font-family="Helvetica,sans-Serif" font-size="10.00" fill="#000000">JS_GetOwnPropertyInternal</text>
</a>
</g>
</g>
<!-- Node32431&#45;&gt;Node32992 -->
<g id="edge4" class="edge">
<title>Node32431&#45;&gt;Node32992</title>
<path fill="none" stroke="#191970" d="M383.8146,-117.7919C414.8478,-128.2898 458.1051,-142.9228 486.2049,-152.4284"/>
<polygon fill="#191970" stroke="#191970" points="384.7974,-114.4296 374.2031,-114.5405 382.5542,-121.0604 384.7974,-114.4296"/>
</g>
<!-- Node32996 -->
<g id="node6" class="node">
<title>Node32996</title>
<g id="a_node6"><a xlink:href="quickjs_8c.html#a9d6d0a9704951d01c128975e0d2213f8" target="_top" xlink:title="JS_HasProperty">
<polygon fill="none" stroke="#ff0000" points="625,-133.5 625,-152.5 714,-152.5 714,-133.5 625,-133.5"/>
<text text-anchor="middle" x="669.5" y="-140.5" font-family="Helvetica,sans-Serif" font-size="10.00" fill="#000000">JS_HasProperty</text>
</a>
</g>
</g>
<!-- Node32431&#45;&gt;Node32996 -->
<g id="edge6" class="edge">
<title>Node32431&#45;&gt;Node32996</title>
<path fill="none" stroke="#191970" d="M419.4403,-113.6267C482.6093,-121.0468 571.691,-131.5108 624.7192,-137.7398"/>
<polygon fill="#191970" stroke="#191970" points="419.4821,-110.1076 409.142,-112.417 418.6654,-117.0598 419.4821,-110.1076"/>
</g>
<!-- Node32557 -->
<g id="node7" class="node">
<title>Node32557</title>
<g id="a_node7"><a xlink:href="quickjs_8c.html#ad7f03358a8088ca920ab308225c6b2e6" target="_top" xlink:title="JS_SetPropertyInternal">
<polygon fill="none" stroke="#ff0000" points="755,-38.5 755,-57.5 873,-57.5 873,-38.5 755,-38.5"/>
<text text-anchor="middle" x="814" y="-45.5" font-family="Helvetica,sans-Serif" font-size="10.00" fill="#000000">JS_SetPropertyInternal</text>
</a>
</g>
</g>
<!-- Node32431&#45;&gt;Node32557 -->
<g id="edge7" class="edge">
<title>Node32431&#45;&gt;Node32557</title>
<path fill="none" stroke="#191970" d="M419.4185,-97.2276C494.7026,-89.0954 615.143,-75.6356 719,-62 730.5705,-60.4809 742.9164,-58.7458 754.7485,-57.0264"/>
<polygon fill="#191970" stroke="#191970" points="418.6692,-93.788 409.1017,-98.3392 419.4192,-100.7477 418.6692,-93.788"/>
</g>
<!-- Node32618 -->
<g id="node8" class="node">
<title>Node32618</title>
<g id="a_node8"><a xlink:href="quickjs_8c.html#ad5565bb5cfd5321f181573257f3b0c91" target="_top" xlink:title="JS_CreateProperty">
<polygon fill="none" stroke="#ff0000" points="464.5,-38.5 464.5,-57.5 564.5,-57.5 564.5,-38.5 464.5,-38.5"/>
<text text-anchor="middle" x="514.5" y="-45.5" font-family="Helvetica,sans-Serif" font-size="10.00" fill="#000000">JS_CreateProperty</text>
</a>
</g>
</g>
<!-- Node32431&#45;&gt;Node32618 -->
<g id="edge8" class="edge">
<title>Node32431&#45;&gt;Node32618</title>
<path fill="none" stroke="#191970" d="M383.8146,-92.2081C414.8478,-81.7102 458.1051,-67.0772 486.2049,-57.5716"/>
<polygon fill="#191970" stroke="#191970" points="382.5542,-88.9396 374.2031,-95.4595 384.7974,-95.5704 382.5542,-88.9396"/>
</g>
<!-- Node32992&#45;&gt;Node32996 -->
<g id="edge5" class="edge">
<title>Node32992&#45;&gt;Node32996</title>
<path fill="none" stroke="#191970" d="M594.3661,-152.21C604.8817,-150.921 615.3392,-149.6391 624.9632,-148.4594"/>
<polygon fill="#191970" stroke="#191970" points="593.7915,-148.7541 584.2916,-153.4449 594.6432,-155.7021 593.7915,-148.7541"/>
</g>
<!-- Node32618&#45;&gt;Node32557 -->
<g id="edge11" class="edge">
<title>Node32618&#45;&gt;Node32557</title>
<path fill="none" stroke="#191970" d="M574.8008,-48C627.2678,-48 702.8584,-48 754.9528,-48"/>
<polygon fill="#191970" stroke="#191970" points="574.6296,-44.5001 564.6296,-48 574.6295,-51.5001 574.6296,-44.5001"/>
</g>
<!-- Node32618&#45;&gt;Node32587 -->
<g id="edge9" class="edge">
<title>Node32618&#45;&gt;Node32587</title>
<path fill="none" stroke="#191970" d="M563.6105,-35.96C585.2647,-30.6512 610.3502,-24.5012 630.6682,-19.5201"/>
<polygon fill="#191970" stroke="#191970" points="562.492,-32.6305 553.613,-38.411 564.1588,-39.4292 562.492,-32.6305"/>
</g>
<!-- Node32587&#45;&gt;Node32557 -->
<g id="edge10" class="edge">
<title>Node32587&#45;&gt;Node32557</title>
<path fill="none" stroke="#191970" d="M715.8325,-22.1843C735.8939,-27.46 759.0285,-33.5438 777.7988,-38.4799"/>
<polygon fill="#191970" stroke="#191970" points="716.5248,-18.7474 705.9635,-19.589 714.7445,-25.5173 716.5248,-18.7474"/>
</g>
</g>
</svg>
        <g id="navigator" transform="translate(0 0)" fill="#404254">
                <rect fill="#f2f5e9" fill-opacity="0.5" stroke="#606060" stroke-width=".5" x="0" y="0" width="60" height="60"/>
                <use id="zoomplus" xlink:href="#zoomPlus" x="17" y="9" onmousedown="handleZoom(evt,'in')"/>
                <use id="zoomminus" xlink:href="#zoomMin" x="42" y="9" onmousedown="handleZoom(evt,'out')"/>
                <use id="reset" xlink:href="#resetDef" x="30" y="36" onmousedown="handleReset()"/>
                <g id="arrowUp" xlink:href="#dirArrow" transform="translate(30 24)" onmousedown="handlePan(0,-1)">
                  <use xlink:href="#rim" fill="#404040">
                        <set attributeName="fill" to="#808080" begin="arrowUp.mouseover" end="arrowUp.mouseout"/>
                  </use>
                  <path fill="none" stroke="white" stroke-width="1.5" d="M0,-3.0v7 M-2.5,-0.5L0,-3.0L2.5,-0.5"/>
                </g>
                <g id="arrowRight" xlink:href="#dirArrow" transform="rotate(90) translate(36 -43)" onmousedown="handlePan(1,0)">
                  <use xlink:href="#rim" fill="#404040">
                        <set attributeName="fill" to="#808080" begin="arrowRight.mouseover" end="arrowRight.mouseout"/>
                  </use>
                  <path fill="none" stroke="white" stroke-width="1.5" d="M0,-3.0v7 M-2.5,-0.5L0,-3.0L2.5,-0.5"/>
                </g>
                <g id="arrowDown" xlink:href="#dirArrow" transform="rotate(180) translate(-30 -48)" onmousedown="handlePan(0,1)">
                  <use xlink:href="#rim" fill="#404040">
                        <set attributeName="fill" to="#808080" begin="arrowDown.mouseover" end="arrowDown.mouseout"/>
                  </use>
                  <path fill="none" stroke="white" stroke-width="1.5" d="M0,-3.0v7 M-2.5,-0.5L0,-3.0L2.5,-0.5"/>
                </g>
                <g id="arrowLeft" xlink:href="#dirArrow" transform="rotate(270) translate(-36 17)" onmousedown="handlePan(-1,0)">
                  <use xlink:href="#rim" fill="#404040">
                        <set attributeName="fill" to="#808080" begin="arrowLeft.mouseover" end="arrowLeft.mouseout"/>
                  </use>
                  <path fill="none" stroke="white" stroke-width="1.5" d="M0,-3.0v7 M-2.5,-0.5L0,-3.0L2.5,-0.5"/>
                </g>
        </g>
        <svg viewBox="0 0 15 15" width="100%" height="30px" preserveAspectRatio="xMaxYMin meet">
         <g id="arrow_out" transform="scale(0.3 0.3)">
          <a xlink:href="quickjs_8c_a1be6d78cdf2c36e34930631587f98d44_icgraph_org.svg" target="_base">
           <rect id="button" ry="5" rx="5" y="6" x="6" height="38" width="38"
                fill="#f2f5e9" fill-opacity="0.5" stroke="#606060" stroke-width="1.0"/>
           <path id="arrow"
             d="M 11.500037,31.436501 C 11.940474,20.09759 22.043105,11.32322 32.158766,21.979434 L 37.068811,17.246167 C 37.068811,17.246167 37.088388,32 37.088388,32 L 22.160133,31.978069 C 22.160133,31.978069 26.997745,27.140456 26.997745,27.140456 C 18.528582,18.264221 13.291696,25.230495 11.500037,31.436501 z"
             style="fill:#404040;"/>
          </a>
         </g>
        </svg>
</svg>
