<?xml version="1.0" encoding="UTF-8" standalone="no"?>
<!DOCTYPE svg PUBLIC "-//W3C//DTD SVG 1.1//EN"
 "http://www.w3.org/Graphics/SVG/1.1/DTD/svg11.dtd">
<!-- Generated by graphviz version 2.40.1 (20161225.0304)
 -->
<!-- Title: next_token Pages: 1 -->
<!--zoomable 796 -->
<svg id="main" version="1.1" xmlns="http://www.w3.org/2000/svg" xmlns:xlink="http://www.w3.org/1999/xlink" xml:space="preserve" onload="init(evt)">
<style type="text/css"><![CDATA[
.edge:hover path { stroke: red; }
.edge:hover polygon { stroke: red; fill: red; }
]]></style>
<script type="text/javascript"><![CDATA[
var edges = document.getElementsByTagName('g');
if (edges && edges.length) {
  for (var i=0;i<edges.length;i++) {
    if (edges[i].id.substr(0,4)=='edge') {
      edges[i].setAttribute('class','edge');
    }
  }
}
]]></script>
        <defs>
                <circle id="rim" cx="0" cy="0" r="7"/>
                <circle id="rim2" cx="0" cy="0" r="3.5"/>
                <g id="zoomPlus">
                        <use xlink:href="#rim" fill="#404040">
                                <set attributeName="fill" to="#808080" begin="zoomplus.mouseover" end="zoomplus.mouseout"/>
                        </use>
                        <path d="M-4,0h8M0,-4v8" fill="none" stroke="white" stroke-width="1.5" pointer-events="none"/>
                </g>
                <g id="zoomMin">
                        <use xlink:href="#rim" fill="#404040">
                                <set attributeName="fill" to="#808080" begin="zoomminus.mouseover" end="zoomminus.mouseout"/>
                        </use>
                        <path d="M-4,0h8" fill="none" stroke="white" stroke-width="1.5" pointer-events="none"/>
                </g>
                <g id="dirArrow">
                        <path fill="none" stroke="white" stroke-width="1.5" d="M0,-3.0v7 M-2.5,-0.5L0,-3.0L2.5,-0.5"/>
                </g>
               <g id="resetDef">
                       <use xlink:href="#rim2" fill="#404040">
                               <set attributeName="fill" to="#808080" begin="reset.mouseover" end="reset.mouseout"/>
                       </use>
               </g>
        </defs>

<script type="text/javascript">
var viewWidth = 519;
var viewHeight = 796;
var sectionId = 'dynsection-898';
</script>
<script xlink:href="svgpan.js"/>
<svg id="graph" class="graph">
<g id="viewport">
<title>next_token</title>
<!-- Node306849 -->
<g id="node1" class="node">
<title>Node306849</title>
<polygon fill="#bfbfbf" stroke="#000000" points="0,-266.5 0,-285.5 65,-285.5 65,-266.5 0,-266.5"/>
<text text-anchor="middle" x="32.5" y="-273.5" font-family="Helvetica,sans-Serif" font-size="10.00" fill="#000000">next_token</text>
</g>
<!-- Node306850 -->
<g id="node2" class="node">
<title>Node306850</title>
<g id="a_node2"><a xlink:href="quickjs_8c.html#a7cd95e5ed87d4b27630af7944855779f" target="_top" xlink:title="free_token">
<polygon fill="none" stroke="#000000" points="133.5,-722.5 133.5,-741.5 195.5,-741.5 195.5,-722.5 133.5,-722.5"/>
<text text-anchor="middle" x="164.5" y="-729.5" font-family="Helvetica,sans-Serif" font-size="10.00" fill="#000000">free_token</text>
</a>
</g>
</g>
<!-- Node306849&#45;&gt;Node306850 -->
<g id="edge1" class="edge">
<title>Node306849&#45;&gt;Node306850</title>
<path fill="none" stroke="#191970" d="M33.4901,-285.6119C39.0125,-338.1843 66.9865,-591.1025 101,-661 111.5013,-682.58 130.5033,-702.5101 144.9932,-715.7257"/>
<polygon fill="#191970" stroke="#191970" points="142.6818,-718.3539 152.4963,-722.3448 147.3127,-713.1046 142.6818,-718.3539"/>
</g>
<!-- Node306851 -->
<g id="node3" class="node">
<title>Node306851</title>
<g id="a_node3"><a xlink:href="quickjs_8h.html#afaa20c47565bc704c6c85f3d77254e7d" target="_top" xlink:title="JS_FreeValue">
<polygon fill="none" stroke="#000000" points="286,-760.5 286,-779.5 364,-779.5 364,-760.5 286,-760.5"/>
<text text-anchor="middle" x="325" y="-767.5" font-family="Helvetica,sans-Serif" font-size="10.00" fill="#000000">JS_FreeValue</text>
</a>
</g>
</g>
<!-- Node306849&#45;&gt;Node306851 -->
<g id="edge17" class="edge">
<title>Node306849&#45;&gt;Node306851</title>
<path fill="none" stroke="#191970" d="M33.1744,-285.5895C37.7919,-349.9611 65.6155,-717.6307 101,-751 147.4869,-794.8394 226.1307,-790.3763 276.7873,-781.4624"/>
<polygon fill="#191970" stroke="#191970" points="277.6585,-784.86 286.8388,-779.571 276.364,-777.9807 277.6585,-784.86"/>
</g>
<!-- Node306888 -->
<g id="node6" class="node">
<title>Node306888</title>
<g id="a_node6"><a xlink:href="quickjs_8c.html#ab3ca6381d29dea396b12acd7f755c51a" target="_top" xlink:title="is_digit">
<polygon fill="none" stroke="#000000" points="301.5,-684.5 301.5,-703.5 348.5,-703.5 348.5,-684.5 301.5,-684.5"/>
<text text-anchor="middle" x="325" y="-691.5" font-family="Helvetica,sans-Serif" font-size="10.00" fill="#000000">is_digit</text>
</a>
</g>
</g>
<!-- Node306849&#45;&gt;Node306888 -->
<g id="edge5" class="edge">
<title>Node306849&#45;&gt;Node306888</title>
<path fill="none" stroke="#191970" d="M33.613,-285.5143C39.1452,-331.5175 64.8664,-530.6872 101,-580 147.9526,-644.0778 241.4058,-674.671 291.4786,-686.9987"/>
<polygon fill="#191970" stroke="#191970" points="290.9361,-690.4668 301.4728,-689.3576 292.5442,-683.654 290.9361,-690.4668"/>
</g>
<!-- Node306889 -->
<g id="node7" class="node">
<title>Node306889</title>
<g id="a_node7"><a xlink:href="quickjs_8c.html#a40bcef4994dba57dfb34b6eed66daef0" target="_top" xlink:title="js_atof">
<polygon fill="none" stroke="#000000" points="141.5,-551.5 141.5,-570.5 187.5,-570.5 187.5,-551.5 141.5,-551.5"/>
<text text-anchor="middle" x="164.5" y="-558.5" font-family="Helvetica,sans-Serif" font-size="10.00" fill="#000000">js_atof</text>
</a>
</g>
</g>
<!-- Node306849&#45;&gt;Node306889 -->
<g id="edge6" class="edge">
<title>Node306849&#45;&gt;Node306889</title>
<path fill="none" stroke="#191970" d="M36.7545,-285.6367C47.4056,-309.7187 76.1478,-374.4373 101,-428 119.9302,-468.7995 142.8029,-516.2765 155.2786,-542.0246"/>
<polygon fill="#191970" stroke="#191970" points="152.2915,-543.8863 159.8056,-551.3555 158.5894,-540.8307 152.2915,-543.8863"/>
</g>
<!-- Node306897 -->
<g id="node14" class="node">
<title>Node306897</title>
<g id="a_node14"><a xlink:href="quickjs_8c.html#af23ec7c9970ceb4671c59da7abd4b078" target="_top" xlink:title="js_check_stack_overflow">
<polygon fill="none" stroke="#000000" points="101,-399.5 101,-418.5 228,-418.5 228,-399.5 101,-399.5"/>
<text text-anchor="middle" x="164.5" y="-406.5" font-family="Helvetica,sans-Serif" font-size="10.00" fill="#000000">js_check_stack_overflow</text>
</a>
</g>
</g>
<!-- Node306849&#45;&gt;Node306897 -->
<g id="edge15" class="edge">
<title>Node306849&#45;&gt;Node306897</title>
<path fill="none" stroke="#191970" d="M37.6512,-285.6067C47.8375,-303.9424 72.0906,-344.4612 101,-371 110.9819,-380.1634 123.517,-388.2262 134.8074,-394.54"/>
<polygon fill="#191970" stroke="#191970" points="133.4473,-397.782 143.9151,-399.418 136.7523,-391.6113 133.4473,-397.782"/>
</g>
<!-- Node306899 -->
<g id="node16" class="node">
<title>Node306899</title>
<g id="a_node16"><a xlink:href="quickjs_8h.html#ad80a83d73e9b7d872b88fbf2943aebe9" target="_top" xlink:title="JS_IsException">
<polygon fill="none" stroke="#000000" points="121.5,-342.5 121.5,-361.5 207.5,-361.5 207.5,-342.5 121.5,-342.5"/>
<text text-anchor="middle" x="164.5" y="-349.5" font-family="Helvetica,sans-Serif" font-size="10.00" fill="#000000">JS_IsException</text>
</a>
</g>
</g>
<!-- Node306849&#45;&gt;Node306899 -->
<g id="edge18" class="edge">
<title>Node306849&#45;&gt;Node306899</title>
<path fill="none" stroke="#191970" d="M41.7803,-285.8812C54.1578,-298.5151 77.278,-320.2744 101,-333 105.045,-335.1699 109.3713,-337.125 113.7929,-338.8793"/>
<polygon fill="#191970" stroke="#191970" points="112.9584,-342.2992 123.5527,-342.4051 115.3368,-335.7156 112.9584,-342.2992"/>
</g>
<!-- Node306900 -->
<g id="node17" class="node">
<title>Node306900</title>
<g id="a_node17"><a xlink:href="quickjs_8c.html#ace438176f9f0e0fea6d6f5cdffb1577e" target="_top" xlink:title="js_parse_string">
<polygon fill="none" stroke="#000000" points="123,-266.5 123,-285.5 206,-285.5 206,-266.5 123,-266.5"/>
<text text-anchor="middle" x="164.5" y="-273.5" font-family="Helvetica,sans-Serif" font-size="10.00" fill="#000000">js_parse_string</text>
</a>
</g>
</g>
<!-- Node306849&#45;&gt;Node306900 -->
<g id="edge19" class="edge">
<title>Node306849&#45;&gt;Node306900</title>
<path fill="none" stroke="#191970" d="M65.1292,-276C79.4082,-276 96.5153,-276 112.4787,-276"/>
<polygon fill="#191970" stroke="#191970" points="112.7627,-279.5001 122.7627,-276 112.7627,-272.5001 112.7627,-279.5001"/>
</g>
<!-- Node306905 -->
<g id="node19" class="node">
<title>Node306905</title>
<g id="a_node19"><a xlink:href="cutils_8h.html#a69529af6d6911dd0ead90eef221b2e10" target="_top" xlink:title="unicode_from_utf8">
<polygon fill="none" stroke="#000000" points="276.5,-190.5 276.5,-209.5 373.5,-209.5 373.5,-190.5 276.5,-190.5"/>
<text text-anchor="middle" x="325" y="-197.5" font-family="Helvetica,sans-Serif" font-size="10.00" fill="#000000">unicode_from_utf8</text>
</a>
</g>
</g>
<!-- Node306849&#45;&gt;Node306905 -->
<g id="edge42" class="edge">
<title>Node306849&#45;&gt;Node306905</title>
<path fill="none" stroke="#191970" d="M65.2135,-266.7728C76.5337,-263.6205 89.3116,-260.1078 101,-257 161.3905,-240.943 231.1951,-223.3296 276.6152,-211.9947"/>
<polygon fill="#191970" stroke="#191970" points="277.6309,-215.3487 286.4875,-209.5341 275.9379,-208.5565 277.6309,-215.3487"/>
</g>
<!-- Node306906 -->
<g id="node20" class="node">
<title>Node306906</title>
<g id="a_node20"><a xlink:href="libregexp_8h.html#adca92c15688d39a0e06cd92f870d25d2" target="_top" xlink:title="lre_parse_escape">
<polygon fill="none" stroke="#ff0000" points="278.5,-152.5 278.5,-171.5 371.5,-171.5 371.5,-152.5 278.5,-152.5"/>
<text text-anchor="middle" x="325" y="-159.5" font-family="Helvetica,sans-Serif" font-size="10.00" fill="#000000">lre_parse_escape</text>
</a>
</g>
</g>
<!-- Node306849&#45;&gt;Node306906 -->
<g id="edge37" class="edge">
<title>Node306849&#45;&gt;Node306906</title>
<path fill="none" stroke="#191970" d="M42.2644,-266.1434C54.7972,-254.0359 77.715,-233.6716 101,-222 130.6239,-207.1511 214.7714,-186.5894 271.0724,-173.8018"/>
<polygon fill="#191970" stroke="#191970" points="271.9103,-177.2008 280.8946,-171.5855 270.3695,-170.3725 271.9103,-177.2008"/>
</g>
<!-- Node306929 -->
<g id="node24" class="node">
<title>Node306929</title>
<g id="a_node24"><a xlink:href="quickjs_8c.html#a4bd17ae26c9b4e0ab5f7fd320199eb2e" target="_top" xlink:title="js_parse_template_part">
<polygon fill="none" stroke="#000000" points="105.5,-304.5 105.5,-323.5 223.5,-323.5 223.5,-304.5 105.5,-304.5"/>
<text text-anchor="middle" x="164.5" y="-311.5" font-family="Helvetica,sans-Serif" font-size="10.00" fill="#000000">js_parse_template_part</text>
</a>
</g>
</g>
<!-- Node306849&#45;&gt;Node306929 -->
<g id="edge26" class="edge">
<title>Node306849&#45;&gt;Node306929</title>
<path fill="none" stroke="#191970" d="M65.1292,-285.3933C82.1352,-290.2889 103.1525,-296.3394 121.472,-301.6131"/>
<polygon fill="#191970" stroke="#191970" points="120.7513,-305.0478 131.3293,-304.4509 122.6878,-298.3209 120.7513,-305.0478"/>
</g>
<!-- Node306930 -->
<g id="node26" class="node">
<title>Node306930</title>
<g id="a_node26"><a xlink:href="quickjs_8h.html#ad668ac56e2bd3498ec0f0eddb574d3ff" target="_top" xlink:title="JS_VALUE_IS_NAN">
<polygon fill="none" stroke="#000000" points="110,-76.5 110,-95.5 219,-95.5 219,-76.5 110,-76.5"/>
<text text-anchor="middle" x="164.5" y="-83.5" font-family="Helvetica,sans-Serif" font-size="10.00" fill="#000000">JS_VALUE_IS_NAN</text>
</a>
</g>
</g>
<!-- Node306849&#45;&gt;Node306930 -->
<g id="edge33" class="edge">
<title>Node306849&#45;&gt;Node306930</title>
<path fill="none" stroke="#191970" d="M33.7892,-266.2634C38.0205,-238.0893 54.0156,-155.5953 101,-110 105.0702,-106.0501 109.8542,-102.7371 114.9398,-99.9612"/>
<polygon fill="#191970" stroke="#191970" points="116.7849,-102.9604 124.3304,-95.5229 113.7937,-96.6316 116.7849,-102.9604"/>
</g>
<!-- Node306931 -->
<g id="node27" class="node">
<title>Node306931</title>
<g id="a_node27"><a xlink:href="libregexp_8h.html#a542d834d69607ea57c3ca53757c86c43" target="_top" xlink:title="lre_is_space">
<polygon fill="none" stroke="#000000" points="129,-38.5 129,-57.5 200,-57.5 200,-38.5 129,-38.5"/>
<text text-anchor="middle" x="164.5" y="-45.5" font-family="Helvetica,sans-Serif" font-size="10.00" fill="#000000">lre_is_space</text>
</a>
</g>
</g>
<!-- Node306849&#45;&gt;Node306931 -->
<g id="edge34" class="edge">
<title>Node306849&#45;&gt;Node306931</title>
<path fill="none" stroke="#191970" d="M34.4499,-266.2491C42.0817,-228.9904 70.9849,-96.2451 101,-67 106.0391,-62.0901 112.2933,-58.4418 118.8947,-55.7324"/>
<polygon fill="#191970" stroke="#191970" points="120.3709,-58.9274 128.7139,-52.3971 118.1195,-52.2993 120.3709,-58.9274"/>
</g>
<!-- Node306932 -->
<g id="node28" class="node">
<title>Node306932</title>
<g id="a_node28"><a xlink:href="libregexp_8h.html#a4737debd233b96f1a317fdb40a3fbd69" target="_top" xlink:title="lre_js_is_ident_first">
<polygon fill="none" stroke="#ff0000" points="114,-.5 114,-19.5 215,-19.5 215,-.5 114,-.5"/>
<text text-anchor="middle" x="164.5" y="-7.5" font-family="Helvetica,sans-Serif" font-size="10.00" fill="#000000">lre_js_is_ident_first</text>
</a>
</g>
</g>
<!-- Node306849&#45;&gt;Node306932 -->
<g id="edge35" class="edge">
<title>Node306849&#45;&gt;Node306932</title>
<path fill="none" stroke="#191970" d="M33.9319,-266.2344C40.1859,-224.8391 66.3489,-64.3584 101,-29 102.4196,-27.5515 103.9446,-26.2123 105.554,-24.9744"/>
<polygon fill="#191970" stroke="#191970" points="107.5642,-27.8458 114.2045,-19.5901 103.8652,-21.903 107.5642,-27.8458"/>
</g>
<!-- Node306937 -->
<g id="node29" class="node">
<title>Node306937</title>
<g id="a_node29"><a xlink:href="libregexp_8h.html#a3dd6ac80b2cc9f7fc7f18a4cb0acdce3" target="_top" xlink:title="lre_js_is_ident_next">
<polygon fill="none" stroke="#ff0000" points="273.5,-114.5 273.5,-133.5 376.5,-133.5 376.5,-114.5 273.5,-114.5"/>
<text text-anchor="middle" x="325" y="-121.5" font-family="Helvetica,sans-Serif" font-size="10.00" fill="#000000">lre_js_is_ident_next</text>
</a>
</g>
</g>
<!-- Node306849&#45;&gt;Node306937 -->
<g id="edge36" class="edge">
<title>Node306849&#45;&gt;Node306937</title>
<path fill="none" stroke="#191970" d="M34.2303,-266.1674C39.277,-240.7467 56.5385,-172.7634 101,-143 148.5376,-111.1775 215.071,-109.5667 263.2642,-114.0039"/>
<polygon fill="#191970" stroke="#191970" points="262.9501,-117.49 273.2562,-115.0339 263.6679,-110.5269 262.9501,-117.49"/>
</g>
<!-- Node306939 -->
<g id="node30" class="node">
<title>Node306939</title>
<g id="a_node30"><a xlink:href="quickjs_8c.html#ad91865d0889d1420e3e70d5d497a9bdb" target="_top" xlink:title="parse_ident">
<polygon fill="none" stroke="#ff0000" points="131,-152.5 131,-171.5 198,-171.5 198,-152.5 131,-152.5"/>
<text text-anchor="middle" x="164.5" y="-159.5" font-family="Helvetica,sans-Serif" font-size="10.00" fill="#000000">parse_ident</text>
</a>
</g>
</g>
<!-- Node306849&#45;&gt;Node306939 -->
<g id="edge38" class="edge">
<title>Node306849&#45;&gt;Node306939</title>
<path fill="none" stroke="#191970" d="M37.3842,-266.4472C47.114,-248.3048 70.6206,-208.6561 101,-186 107.0405,-181.4952 114.0247,-177.7435 121.1044,-174.6498"/>
<polygon fill="#191970" stroke="#191970" points="122.7323,-177.7694 130.7381,-170.8299 120.1521,-171.2623 122.7323,-177.7694"/>
</g>
<!-- Node306850&#45;&gt;Node306851 -->
<g id="edge2" class="edge">
<title>Node306850&#45;&gt;Node306851</title>
<path fill="none" stroke="#191970" d="M195.827,-739.417C218.5384,-744.7941 249.7034,-752.1728 275.7316,-758.3352"/>
<polygon fill="#191970" stroke="#191970" points="275.2561,-761.8193 285.7934,-760.7174 276.8688,-755.0076 275.2561,-761.8193"/>
</g>
<!-- Node306873 -->
<g id="node5" class="node">
<title>Node306873</title>
<g id="a_node5"><a xlink:href="quickjs_8c.html#ab7fc45a99935a1c0ba50b0216d9401a9" target="_top" xlink:title="JS_FreeAtom">
<polygon fill="none" stroke="#ff0000" points="286.5,-722.5 286.5,-741.5 363.5,-741.5 363.5,-722.5 286.5,-722.5"/>
<text text-anchor="middle" x="325" y="-729.5" font-family="Helvetica,sans-Serif" font-size="10.00" fill="#000000">JS_FreeAtom</text>
</a>
</g>
</g>
<!-- Node306850&#45;&gt;Node306873 -->
<g id="edge4" class="edge">
<title>Node306850&#45;&gt;Node306873</title>
<path fill="none" stroke="#191970" d="M195.827,-732C218.6994,-732 250.1459,-732 276.2846,-732"/>
<polygon fill="#191970" stroke="#191970" points="276.3808,-735.5001 286.3807,-732 276.3807,-728.5001 276.3808,-735.5001"/>
</g>
<!-- Node306852 -->
<g id="node4" class="node">
<title>Node306852</title>
<g id="a_node4"><a xlink:href="quickjs_8c.html#aa059f309c30fd5166d16c82a97973146" target="_top" xlink:title="__JS_FreeValue">
<polygon fill="none" stroke="#ff0000" points="422,-760.5 422,-779.5 511,-779.5 511,-760.5 422,-760.5"/>
<text text-anchor="middle" x="466.5" y="-767.5" font-family="Helvetica,sans-Serif" font-size="10.00" fill="#000000">__JS_FreeValue</text>
</a>
</g>
</g>
<!-- Node306851&#45;&gt;Node306852 -->
<g id="edge3" class="edge">
<title>Node306851&#45;&gt;Node306852</title>
<path fill="none" stroke="#191970" d="M364.0401,-770C378.7359,-770 395.7331,-770 411.6075,-770"/>
<polygon fill="#191970" stroke="#191970" points="411.8416,-773.5001 421.8416,-770 411.8415,-766.5001 411.8416,-773.5001"/>
</g>
<!-- Node306889&#45;&gt;Node306888 -->
<g id="edge7" class="edge">
<title>Node306889&#45;&gt;Node306888</title>
<path fill="none" stroke="#191970" d="M173.1715,-570.744C185.4384,-584.5482 208.5343,-610.612 228,-633 244.1314,-651.5532 243.463,-661.4842 264,-675 272.2333,-680.4185 282.1005,-684.3646 291.4752,-687.2076"/>
<polygon fill="#191970" stroke="#191970" points="290.7871,-690.6471 301.3539,-689.8771 292.6132,-683.8895 290.7871,-690.6471"/>
</g>
<!-- Node306864 -->
<g id="node8" class="node">
<title>Node306864</title>
<g id="a_node8"><a xlink:href="quickjs_8c.html#a69e19dda8a93d613203e0baa06f0ed8d" target="_top" xlink:title="js_free_rt">
<polygon fill="none" stroke="#000000" points="296.5,-646.5 296.5,-665.5 353.5,-665.5 353.5,-646.5 296.5,-646.5"/>
<text text-anchor="middle" x="325" y="-653.5" font-family="Helvetica,sans-Serif" font-size="10.00" fill="#000000">js_free_rt</text>
</a>
</g>
</g>
<!-- Node306889&#45;&gt;Node306864 -->
<g id="edge8" class="edge">
<title>Node306889&#45;&gt;Node306864</title>
<path fill="none" stroke="#191970" d="M174.4191,-570.5191C191.4435,-586.3852 227.8914,-618.3335 264,-637 271.0667,-640.6532 278.9615,-643.7507 286.6657,-646.3171"/>
<polygon fill="#191970" stroke="#191970" points="285.658,-649.669 296.2459,-649.2858 287.73,-642.9826 285.658,-649.669"/>
</g>
<!-- Node306890 -->
<g id="node9" class="node">
<title>Node306890</title>
<g id="a_node9"><a xlink:href="quickjs_8h.html#ae91f44bd7249613050c18c7133702c67" target="_top" xlink:title="JS_NewFloat64">
<polygon fill="none" stroke="#ff0000" points="282,-608.5 282,-627.5 368,-627.5 368,-608.5 282,-608.5"/>
<text text-anchor="middle" x="325" y="-615.5" font-family="Helvetica,sans-Serif" font-size="10.00" fill="#000000">JS_NewFloat64</text>
</a>
</g>
</g>
<!-- Node306889&#45;&gt;Node306890 -->
<g id="edge9" class="edge">
<title>Node306889&#45;&gt;Node306890</title>
<path fill="none" stroke="#191970" d="M187.8381,-569.2883C214.2762,-578.6775 257.6933,-594.0967 288.5949,-605.0711"/>
<polygon fill="#191970" stroke="#191970" points="287.556,-608.4162 298.1507,-608.4647 289.8987,-601.8199 287.556,-608.4162"/>
</g>
<!-- Node306892 -->
<g id="node10" class="node">
<title>Node306892</title>
<g id="a_node10"><a xlink:href="quickjs_8c.html#afe15bf5b8db2df1ac795c3803a1f67a6" target="_top" xlink:title="js_strtod">
<polygon fill="none" stroke="#000000" points="298,-532.5 298,-551.5 352,-551.5 352,-532.5 298,-532.5"/>
<text text-anchor="middle" x="325" y="-539.5" font-family="Helvetica,sans-Serif" font-size="10.00" fill="#000000">js_strtod</text>
</a>
</g>
</g>
<!-- Node306889&#45;&gt;Node306892 -->
<g id="edge10" class="edge">
<title>Node306889&#45;&gt;Node306892</title>
<path fill="none" stroke="#191970" d="M187.8381,-558.2372C214.0837,-555.1303 257.0618,-550.0425 287.9177,-546.3898"/>
<polygon fill="#191970" stroke="#191970" points="288.3563,-549.8624 297.8755,-545.211 287.5334,-542.9109 288.3563,-549.8624"/>
</g>
<!-- Node306893 -->
<g id="node11" class="node">
<title>Node306893</title>
<g id="a_node11"><a xlink:href="quickjs_8c.html#aee06949e4c5ec85b3da174509b93dc65" target="_top" xlink:title="to_digit">
<polygon fill="none" stroke="#000000" points="442.5,-551.5 442.5,-570.5 490.5,-570.5 490.5,-551.5 442.5,-551.5"/>
<text text-anchor="middle" x="466.5" y="-558.5" font-family="Helvetica,sans-Serif" font-size="10.00" fill="#000000">to_digit</text>
</a>
</g>
</g>
<!-- Node306889&#45;&gt;Node306893 -->
<g id="edge14" class="edge">
<title>Node306889&#45;&gt;Node306893</title>
<path fill="none" stroke="#191970" d="M187.696,-561C240.5751,-561 370.2634,-561 432.3248,-561"/>
<polygon fill="#191970" stroke="#191970" points="432.3889,-564.5001 442.3888,-561 432.3888,-557.5001 432.3889,-564.5001"/>
</g>
<!-- Node306894 -->
<g id="node12" class="node">
<title>Node306894</title>
<g id="a_node12"><a xlink:href="quickjs_8c.html#a344d6c0e45d9bf3861fd9269724045a2" target="_top" xlink:title="JS_ThrowOutOfMemory">
<polygon fill="none" stroke="#ff0000" points="264,-494.5 264,-513.5 386,-513.5 386,-494.5 264,-494.5"/>
<text text-anchor="middle" x="325" y="-501.5" font-family="Helvetica,sans-Serif" font-size="10.00" fill="#000000">JS_ThrowOutOfMemory</text>
</a>
</g>
</g>
<!-- Node306889&#45;&gt;Node306894 -->
<g id="edge12" class="edge">
<title>Node306889&#45;&gt;Node306894</title>
<path fill="none" stroke="#191970" d="M187.6693,-551.6774C207.739,-543.7161 237.6156,-532.1371 264,-523 270.1218,-520.88 276.6254,-518.7383 283.0179,-516.6953"/>
<polygon fill="#191970" stroke="#191970" points="284.4141,-519.9251 292.9011,-513.5832 282.3116,-513.2483 284.4141,-519.9251"/>
</g>
<!-- Node306896 -->
<g id="node13" class="node">
<title>Node306896</title>
<g id="a_node13"><a xlink:href="cutils_8h.html#ac86d2d258aae26d8f600c60e9953c9cc" target="_top" xlink:title="strstart">
<polygon fill="none" stroke="#000000" points="301.5,-456.5 301.5,-475.5 348.5,-475.5 348.5,-456.5 301.5,-456.5"/>
<text text-anchor="middle" x="325" y="-463.5" font-family="Helvetica,sans-Serif" font-size="10.00" fill="#000000">strstart</text>
</a>
</g>
</g>
<!-- Node306889&#45;&gt;Node306896 -->
<g id="edge13" class="edge">
<title>Node306889&#45;&gt;Node306896</title>
<path fill="none" stroke="#191970" d="M174.4191,-551.4809C191.4435,-535.6148 227.8914,-503.6665 264,-485 272.6109,-480.5486 282.4513,-476.9222 291.6784,-474.0762"/>
<polygon fill="#191970" stroke="#191970" points="292.719,-477.4189 301.3628,-471.2924 290.785,-470.6914 292.719,-477.4189"/>
</g>
<!-- Node306892&#45;&gt;Node306893 -->
<g id="edge11" class="edge">
<title>Node306892&#45;&gt;Node306893</title>
<path fill="none" stroke="#191970" d="M352.2826,-545.6634C375.0503,-548.7205 407.6231,-553.0943 432.1622,-556.3893"/>
<polygon fill="#191970" stroke="#191970" points="431.7582,-559.8663 442.135,-557.7284 432.6898,-552.9286 431.7582,-559.8663"/>
</g>
<!-- Node306898 -->
<g id="node15" class="node">
<title>Node306898</title>
<g id="a_node15"><a xlink:href="quickjs_8c.html#acad70023f36797496683e579a4d60461" target="_top" xlink:title="js_get_stack_pointer">
<polygon fill="none" stroke="#000000" points="271.5,-418.5 271.5,-437.5 378.5,-437.5 378.5,-418.5 271.5,-418.5"/>
<text text-anchor="middle" x="325" y="-425.5" font-family="Helvetica,sans-Serif" font-size="10.00" fill="#000000">js_get_stack_pointer</text>
</a>
</g>
</g>
<!-- Node306897&#45;&gt;Node306898 -->
<g id="edge16" class="edge">
<title>Node306897&#45;&gt;Node306898</title>
<path fill="none" stroke="#191970" d="M228.395,-416.5639C239.1933,-417.8422 250.4041,-419.1693 261.1999,-420.4473"/>
<polygon fill="#191970" stroke="#191970" points="261.0542,-423.9544 271.3963,-421.6544 261.8772,-417.003 261.0542,-423.9544"/>
</g>
<!-- Node306901 -->
<g id="node18" class="node">
<title>Node306901</title>
<g id="a_node18"><a xlink:href="quickjs_8c.html#a9c11961b0adafedd064b294612d0c2f3" target="_top" xlink:title="string_buffer_init">
<polygon fill="none" stroke="#ff0000" points="280.5,-304.5 280.5,-323.5 369.5,-323.5 369.5,-304.5 280.5,-304.5"/>
<text text-anchor="middle" x="325" y="-311.5" font-family="Helvetica,sans-Serif" font-size="10.00" fill="#000000">string_buffer_init</text>
</a>
</g>
</g>
<!-- Node306900&#45;&gt;Node306901 -->
<g id="edge20" class="edge">
<title>Node306900&#45;&gt;Node306901</title>
<path fill="none" stroke="#191970" d="M205.0009,-285.589C226.1806,-290.6035 252.3022,-296.7881 274.7604,-302.1053"/>
<polygon fill="#191970" stroke="#191970" points="274.2529,-305.5818 284.7903,-304.4799 275.8657,-298.7701 274.2529,-305.5818"/>
</g>
<!-- Node306900&#45;&gt;Node306905 -->
<g id="edge21" class="edge">
<title>Node306900&#45;&gt;Node306905</title>
<path fill="none" stroke="#191970" d="M196.942,-266.4248C207.2617,-262.6857 218.4647,-257.8679 228,-252 246.4854,-240.6245 245.185,-229.8215 264,-219 267.6778,-216.8847 271.6184,-214.9773 275.6611,-213.263"/>
<polygon fill="#191970" stroke="#191970" points="277.1184,-216.4528 285.2039,-209.6062 274.6136,-209.9163 277.1184,-216.4528"/>
</g>
<!-- Node306900&#45;&gt;Node306906 -->
<g id="edge22" class="edge">
<title>Node306900&#45;&gt;Node306906</title>
<path fill="none" stroke="#191970" d="M174.4986,-266.2158C198.6844,-242.5812 258.7518,-184.0899 264,-181 267.6024,-178.8791 271.4661,-176.9709 275.4362,-175.2587"/>
<polygon fill="#191970" stroke="#191970" points="276.7671,-178.4966 284.8198,-171.6115 274.2311,-171.972 276.7671,-178.4966"/>
</g>
<!-- Node306909 -->
<g id="node21" class="node">
<title>Node306909</title>
<g id="a_node21"><a xlink:href="quickjs_8c.html#a8d79794c85d33dd8409cdb39f2c2fc74" target="_top" xlink:title="string_buffer_putc">
<polygon fill="none" stroke="#ff0000" points="277.5,-266.5 277.5,-285.5 372.5,-285.5 372.5,-266.5 277.5,-266.5"/>
<text text-anchor="middle" x="325" y="-273.5" font-family="Helvetica,sans-Serif" font-size="10.00" fill="#000000">string_buffer_putc</text>
</a>
</g>
</g>
<!-- Node306900&#45;&gt;Node306909 -->
<g id="edge23" class="edge">
<title>Node306900&#45;&gt;Node306909</title>
<path fill="none" stroke="#191970" d="M206.2505,-276C224.8435,-276 247.05,-276 267.2022,-276"/>
<polygon fill="#191970" stroke="#191970" points="267.2132,-279.5001 277.2131,-276 267.2131,-272.5001 267.2132,-279.5001"/>
</g>
<!-- Node306917 -->
<g id="node22" class="node">
<title>Node306917</title>
<g id="a_node22"><a xlink:href="quickjs_8c.html#accfc3d1dcaa88c88402cb245ccaf4fdb" target="_top" xlink:title="string_buffer_end">
<polygon fill="none" stroke="#ff0000" points="279,-228.5 279,-247.5 371,-247.5 371,-228.5 279,-228.5"/>
<text text-anchor="middle" x="325" y="-235.5" font-family="Helvetica,sans-Serif" font-size="10.00" fill="#000000">string_buffer_end</text>
</a>
</g>
</g>
<!-- Node306900&#45;&gt;Node306917 -->
<g id="edge24" class="edge">
<title>Node306900&#45;&gt;Node306917</title>
<path fill="none" stroke="#191970" d="M205.0009,-266.411C226.1806,-261.3965 252.3022,-255.2119 274.7604,-249.8947"/>
<polygon fill="#191970" stroke="#191970" points="275.8657,-253.2299 284.7903,-247.5201 274.2529,-246.4182 275.8657,-253.2299"/>
</g>
<!-- Node306926 -->
<g id="node23" class="node">
<title>Node306926</title>
<g id="a_node23"><a xlink:href="quickjs_8c.html#a266b4993a59d9e34537386e62b9f3d4f" target="_top" xlink:title="string_buffer_free">
<polygon fill="none" stroke="#ff0000" points="279,-342.5 279,-361.5 371,-361.5 371,-342.5 279,-342.5"/>
<text text-anchor="middle" x="325" y="-349.5" font-family="Helvetica,sans-Serif" font-size="10.00" fill="#000000">string_buffer_free</text>
</a>
</g>
</g>
<!-- Node306900&#45;&gt;Node306926 -->
<g id="edge25" class="edge">
<title>Node306900&#45;&gt;Node306926</title>
<path fill="none" stroke="#191970" d="M206.1566,-285.0562C213.7312,-287.6368 221.3355,-290.8995 228,-295 247.8143,-307.1913 244.2544,-320.6978 264,-333 267.3465,-335.085 270.9398,-336.9573 274.6468,-338.6358"/>
<polygon fill="#191970" stroke="#191970" points="273.4367,-341.9217 284.0198,-342.4195 276.0571,-335.4306 273.4367,-341.9217"/>
</g>
<!-- Node306929&#45;&gt;Node306901 -->
<g id="edge27" class="edge">
<title>Node306929&#45;&gt;Node306901</title>
<path fill="none" stroke="#191970" d="M223.8083,-314C239.0447,-314 255.364,-314 270.3524,-314"/>
<polygon fill="#191970" stroke="#191970" points="270.4867,-317.5001 280.4866,-314 270.4866,-310.5001 270.4867,-317.5001"/>
</g>
<!-- Node306929&#45;&gt;Node306905 -->
<g id="edge29" class="edge">
<title>Node306929&#45;&gt;Node306905</title>
<path fill="none" stroke="#191970" d="M212.5565,-304.4601C218.1452,-301.9972 223.4605,-298.8985 228,-295 256.3545,-270.6493 235.7825,-243.5094 264,-219 265.9418,-217.3134 268.0322,-215.7765 270.2285,-214.3759"/>
<polygon fill="#191970" stroke="#191970" points="271.9603,-217.419 279.1336,-209.6219 268.6636,-211.2438 271.9603,-217.419"/>
</g>
<!-- Node306929&#45;&gt;Node306909 -->
<g id="edge30" class="edge">
<title>Node306929&#45;&gt;Node306909</title>
<path fill="none" stroke="#191970" d="M205.0009,-304.411C226.1806,-299.3965 252.3022,-293.2119 274.7604,-287.8947"/>
<polygon fill="#191970" stroke="#191970" points="275.8657,-291.2299 284.7903,-285.5201 274.2529,-284.4182 275.8657,-291.2299"/>
</g>
<!-- Node306929&#45;&gt;Node306917 -->
<g id="edge31" class="edge">
<title>Node306929&#45;&gt;Node306917</title>
<path fill="none" stroke="#191970" d="M207.4934,-304.4813C214.6226,-301.9764 221.7276,-298.8593 228,-295 247.8143,-282.8087 244.2544,-269.3022 264,-257 267.3465,-254.915 270.9398,-253.0427 274.6468,-251.3642"/>
<polygon fill="#191970" stroke="#191970" points="276.0571,-254.5694 284.0198,-247.5805 273.4367,-248.0783 276.0571,-254.5694"/>
</g>
<!-- Node306929&#45;&gt;Node306926 -->
<g id="edge32" class="edge">
<title>Node306929&#45;&gt;Node306926</title>
<path fill="none" stroke="#191970" d="M205.0009,-323.589C226.1806,-328.6035 252.3022,-334.7881 274.7604,-340.1053"/>
<polygon fill="#191970" stroke="#191970" points="274.2529,-343.5818 284.7903,-342.4799 275.8657,-336.7701 274.2529,-343.5818"/>
</g>
<!-- Node306927 -->
<g id="node25" class="node">
<title>Node306927</title>
<g id="a_node25"><a xlink:href="quickjs_8c.html#a874fcee73f61cc997ec1d10cc6711554" target="_top" xlink:title="string_buffer_putc8">
<polygon fill="none" stroke="#ff0000" points="275,-380.5 275,-399.5 375,-399.5 375,-380.5 275,-380.5"/>
<text text-anchor="middle" x="325" y="-387.5" font-family="Helvetica,sans-Serif" font-size="10.00" fill="#000000">string_buffer_putc8</text>
</a>
</g>
</g>
<!-- Node306929&#45;&gt;Node306927 -->
<g id="edge28" class="edge">
<title>Node306929&#45;&gt;Node306927</title>
<path fill="none" stroke="#191970" d="M207.4934,-323.5187C214.6226,-326.0236 221.7276,-329.1407 228,-333 247.8143,-345.1913 244.2544,-358.6978 264,-371 267.3465,-373.085 270.9398,-374.9573 274.6468,-376.6358"/>
<polygon fill="#191970" stroke="#191970" points="273.4367,-379.9217 284.0198,-380.4195 276.0571,-373.4306 273.4367,-379.9217"/>
</g>
<!-- Node306939&#45;&gt;Node306905 -->
<g id="edge40" class="edge">
<title>Node306939&#45;&gt;Node306905</title>
<path fill="none" stroke="#191970" d="M198.1461,-169.966C220.3634,-175.2262 249.8738,-182.2131 274.8404,-188.1242"/>
<polygon fill="#191970" stroke="#191970" points="274.3329,-191.6007 284.8703,-190.4989 275.9457,-184.7891 274.3329,-191.6007"/>
</g>
<!-- Node306939&#45;&gt;Node306906 -->
<g id="edge39" class="edge">
<title>Node306939&#45;&gt;Node306906</title>
<path fill="none" stroke="#191970" d="M198.1461,-162C218.4043,-162 244.7262,-162 268.1381,-162"/>
<polygon fill="#191970" stroke="#191970" points="268.3115,-165.5001 278.3114,-162 268.3114,-158.5001 268.3115,-165.5001"/>
</g>
<!-- Node306939&#45;&gt;Node306937 -->
<g id="edge41" class="edge">
<title>Node306939&#45;&gt;Node306937</title>
<path fill="none" stroke="#191970" d="M198.1461,-154.034C220.3634,-148.7738 249.8738,-141.7869 274.8404,-135.8758"/>
<polygon fill="#191970" stroke="#191970" points="275.9457,-139.2109 284.8703,-133.5011 274.3329,-132.3993 275.9457,-139.2109"/>
</g>
</g>
</svg>
        <g id="navigator" transform="translate(0 0)" fill="#404254">
                <rect fill="#f2f5e9" fill-opacity="0.5" stroke="#606060" stroke-width=".5" x="0" y="0" width="60" height="60"/>
                <use id="zoomplus" xlink:href="#zoomPlus" x="17" y="9" onmousedown="handleZoom(evt,'in')"/>
                <use id="zoomminus" xlink:href="#zoomMin" x="42" y="9" onmousedown="handleZoom(evt,'out')"/>
                <use id="reset" xlink:href="#resetDef" x="30" y="36" onmousedown="handleReset()"/>
                <g id="arrowUp" xlink:href="#dirArrow" transform="translate(30 24)" onmousedown="handlePan(0,-1)">
                  <use xlink:href="#rim" fill="#404040">
                        <set attributeName="fill" to="#808080" begin="arrowUp.mouseover" end="arrowUp.mouseout"/>
                  </use>
                  <path fill="none" stroke="white" stroke-width="1.5" d="M0,-3.0v7 M-2.5,-0.5L0,-3.0L2.5,-0.5"/>
                </g>
                <g id="arrowRight" xlink:href="#dirArrow" transform="rotate(90) translate(36 -43)" onmousedown="handlePan(1,0)">
                  <use xlink:href="#rim" fill="#404040">
                        <set attributeName="fill" to="#808080" begin="arrowRight.mouseover" end="arrowRight.mouseout"/>
                  </use>
                  <path fill="none" stroke="white" stroke-width="1.5" d="M0,-3.0v7 M-2.5,-0.5L0,-3.0L2.5,-0.5"/>
                </g>
                <g id="arrowDown" xlink:href="#dirArrow" transform="rotate(180) translate(-30 -48)" onmousedown="handlePan(0,1)">
                  <use xlink:href="#rim" fill="#404040">
                        <set attributeName="fill" to="#808080" begin="arrowDown.mouseover" end="arrowDown.mouseout"/>
                  </use>
                  <path fill="none" stroke="white" stroke-width="1.5" d="M0,-3.0v7 M-2.5,-0.5L0,-3.0L2.5,-0.5"/>
                </g>
                <g id="arrowLeft" xlink:href="#dirArrow" transform="rotate(270) translate(-36 17)" onmousedown="handlePan(-1,0)">
                  <use xlink:href="#rim" fill="#404040">
                        <set attributeName="fill" to="#808080" begin="arrowLeft.mouseover" end="arrowLeft.mouseout"/>
                  </use>
                  <path fill="none" stroke="white" stroke-width="1.5" d="M0,-3.0v7 M-2.5,-0.5L0,-3.0L2.5,-0.5"/>
                </g>
        </g>
        <svg viewBox="0 0 15 15" width="100%" height="30px" preserveAspectRatio="xMaxYMin meet">
         <g id="arrow_out" transform="scale(0.3 0.3)">
          <a xlink:href="quickjs_8c_a75a3798e2045f6e403c1ef467126d1fb_cgraph_org.svg" target="_base">
           <rect id="button" ry="5" rx="5" y="6" x="6" height="38" width="38"
                fill="#f2f5e9" fill-opacity="0.5" stroke="#606060" stroke-width="1.0"/>
           <path id="arrow"
             d="M 11.500037,31.436501 C 11.940474,20.09759 22.043105,11.32322 32.158766,21.979434 L 37.068811,17.246167 C 37.068811,17.246167 37.088388,32 37.088388,32 L 22.160133,31.978069 C 22.160133,31.978069 26.997745,27.140456 26.997745,27.140456 C 18.528582,18.264221 13.291696,25.230495 11.500037,31.436501 z"
             style="fill:#404040;"/>
          </a>
         </g>
        </svg>
</svg>
