<?xml version="1.0" encoding="UTF-8" standalone="no"?>
<!DOCTYPE svg PUBLIC "-//W3C//DTD SVG 1.1//EN"
 "http://www.w3.org/Graphics/SVG/1.1/DTD/svg11.dtd">
<!-- Generated by graphviz version 2.40.1 (20161225.0304)
 -->
<!-- Title: JS_CopySubArray Pages: 1 -->
<svg width="723pt" height="695pt"
 viewBox="0.00 0.00 723.00 694.78" xmlns="http://www.w3.org/2000/svg" xmlns:xlink="http://www.w3.org/1999/xlink">
<g id="graph0" class="graph" transform="scale(1 1) rotate(0) translate(4 690.7781)">
<title>JS_CopySubArray</title>
<!-- Node388348 -->
<g id="node1" class="node">
<title>Node388348</title>
<polygon fill="#bfbfbf" stroke="#000000" points="0,-318.614 0,-337.614 98,-337.614 98,-318.614 0,-318.614"/>
<text text-anchor="middle" x="49" y="-325.614" font-family="Helvetica,sans-Serif" font-size="10.00" fill="#000000">JS_CopySubArray</text>
</g>
<!-- Node388349 -->
<g id="node2" class="node">
<title>Node388349</title>
<g id="a_node2"><a xlink:href="quickjs_8c.html#a70e21308fe3760cd95dd1dbb1a8755e6" target="_top" xlink:title="JS_DeletePropertyInt64">
<polygon fill="none" stroke="#000000" points="134,-280.614 134,-299.614 255,-299.614 255,-280.614 134,-280.614"/>
<text text-anchor="middle" x="194.5" y="-287.614" font-family="Helvetica,sans-Serif" font-size="10.00" fill="#000000">JS_DeletePropertyInt64</text>
</a>
</g>
</g>
<!-- Node388348&#45;&gt;Node388349 -->
<g id="edge1" class="edge">
<title>Node388348&#45;&gt;Node388349</title>
<path fill="none" stroke="#191970" d="M85.7158,-318.525C104.6566,-313.5783 127.9572,-307.4929 148.1285,-302.2248"/>
<polygon fill="#191970" stroke="#191970" points="149.2572,-305.5475 158.0482,-299.6341 147.4883,-298.7747 149.2572,-305.5475"/>
</g>
<!-- Node388782 -->
<g id="node15" class="node">
<title>Node388782</title>
<g id="a_node15"><a xlink:href="quickjs_8c.html#a51b06daa618640e531fe808770553b96" target="_top" xlink:title="JS_SetPropertyInt64">
<polygon fill="none" stroke="#000000" points="298.5,-470.614 298.5,-489.614 405.5,-489.614 405.5,-470.614 298.5,-470.614"/>
<text text-anchor="middle" x="352" y="-477.614" font-family="Helvetica,sans-Serif" font-size="10.00" fill="#000000">JS_SetPropertyInt64</text>
</a>
</g>
</g>
<!-- Node388348&#45;&gt;Node388782 -->
<g id="edge19" class="edge">
<title>Node388348&#45;&gt;Node388782</title>
<path fill="none" stroke="#191970" d="M67.954,-337.6223C119.6054,-363.5333 263.038,-435.4862 324.0034,-466.0695"/>
<polygon fill="#191970" stroke="#191970" points="322.5454,-469.2538 333.0532,-470.6093 325.6842,-462.9969 322.5454,-469.2538"/>
</g>
<!-- Node388783 -->
<g id="node18" class="node">
<title>Node388783</title>
<g id="a_node18"><a xlink:href="quickjs_8c.html#a14674e74168715dc5a3a391910982e5d" target="_top" xlink:title="JS_TryGetPropertyInt64">
<polygon fill="none" stroke="#000000" points="291,-242.614 291,-261.614 413,-261.614 413,-242.614 291,-242.614"/>
<text text-anchor="middle" x="352" y="-249.614" font-family="Helvetica,sans-Serif" font-size="10.00" fill="#000000">JS_TryGetPropertyInt64</text>
</a>
</g>
</g>
<!-- Node388348&#45;&gt;Node388783 -->
<g id="edge28" class="edge">
<title>Node388348&#45;&gt;Node388783</title>
<path fill="none" stroke="#191970" d="M98.0634,-329.5405C140.571,-329.3884 203.2084,-325.797 255,-309.114 283.569,-299.9114 312.79,-281.2194 331.5869,-267.7458"/>
<polygon fill="#191970" stroke="#191970" points="333.7011,-270.5356 339.6892,-261.7953 329.5575,-264.8937 333.7011,-270.5356"/>
</g>
<!-- Node388350 -->
<g id="node3" class="node">
<title>Node388350</title>
<g id="a_node3"><a xlink:href="quickjs_8c.html#a877fcb7651d95b411ce70e62b7f4a1f0" target="_top" xlink:title="__JS_AtomFromUInt32">
<polygon fill="none" stroke="#000000" points="596,-14.614 596,-33.614 715,-33.614 715,-14.614 596,-14.614"/>
<text text-anchor="middle" x="655.5" y="-21.614" font-family="Helvetica,sans-Serif" font-size="10.00" fill="#000000">__JS_AtomFromUInt32</text>
</a>
</g>
</g>
<!-- Node388349&#45;&gt;Node388350 -->
<g id="edge2" class="edge">
<title>Node388349&#45;&gt;Node388350</title>
<path fill="none" stroke="#191970" d="M198.5214,-280.2855C209.9291,-253.2346 244.6913,-176.3 291,-125.114 349.2694,-60.7077 366.409,-36.9885 449,-10.114 503.726,7.6934 570.8017,-2.2605 613.3543,-12.2092"/>
<polygon fill="#191970" stroke="#191970" points="612.5518,-15.616 623.0966,-14.5875 614.212,-8.8157 612.5518,-15.616"/>
</g>
<!-- Node388351 -->
<g id="node4" class="node">
<title>Node388351</title>
<g id="a_node4"><a xlink:href="quickjs_8c.html#a2b88ed25233c441cbed7b0a027c9ee2f" target="_top" xlink:title="JS_DeleteProperty">
<polygon fill="none" stroke="#000000" points="302.5,-318.614 302.5,-337.614 401.5,-337.614 401.5,-318.614 302.5,-318.614"/>
<text text-anchor="middle" x="352" y="-325.614" font-family="Helvetica,sans-Serif" font-size="10.00" fill="#000000">JS_DeleteProperty</text>
</a>
</g>
</g>
<!-- Node388349&#45;&gt;Node388351 -->
<g id="edge3" class="edge">
<title>Node388349&#45;&gt;Node388351</title>
<path fill="none" stroke="#191970" d="M234.2439,-299.703C255.0277,-304.7175 280.6611,-310.9021 302.6995,-316.2193"/>
<polygon fill="#191970" stroke="#191970" points="301.9999,-319.6509 312.5419,-318.594 303.6417,-312.8461 301.9999,-319.6509"/>
</g>
<!-- Node388403 -->
<g id="node6" class="node">
<title>Node388403</title>
<g id="a_node6"><a xlink:href="quickjs_8c.html#ab7fc45a99935a1c0ba50b0216d9401a9" target="_top" xlink:title="JS_FreeAtom">
<polygon fill="none" stroke="#ff0000" points="617,-565.614 617,-584.614 694,-584.614 694,-565.614 617,-565.614"/>
<text text-anchor="middle" x="655.5" y="-572.614" font-family="Helvetica,sans-Serif" font-size="10.00" fill="#000000">JS_FreeAtom</text>
</a>
</g>
</g>
<!-- Node388349&#45;&gt;Node388403 -->
<g id="edge13" class="edge">
<title>Node388349&#45;&gt;Node388403</title>
<path fill="none" stroke="#191970" d="M196.9117,-299.8476C210.4458,-351.9907 282.3901,-598.6395 449,-672.114 494.1389,-692.0202 514.4958,-691.1705 560,-672.114 598.1252,-656.1477 628.7326,-616.7206 644.2987,-593.3428"/>
<polygon fill="#191970" stroke="#191970" points="647.393,-595.0018 649.8564,-584.6973 641.5047,-591.2166 647.393,-595.0018"/>
</g>
<!-- Node388781 -->
<g id="node12" class="node">
<title>Node388781</title>
<g id="a_node12"><a xlink:href="quickjs_8c.html#aa641af3a921335927dab07dc83285917" target="_top" xlink:title="JS_NewAtomInt64">
<polygon fill="none" stroke="#000000" points="455,-52.614 455,-71.614 554,-71.614 554,-52.614 455,-52.614"/>
<text text-anchor="middle" x="504.5" y="-59.614" font-family="Helvetica,sans-Serif" font-size="10.00" fill="#000000">JS_NewAtomInt64</text>
</a>
</g>
</g>
<!-- Node388349&#45;&gt;Node388781 -->
<g id="edge14" class="edge">
<title>Node388349&#45;&gt;Node388781</title>
<path fill="none" stroke="#191970" d="M207.4256,-280.6074C255.3832,-245.3354 423.433,-121.7375 483.2015,-77.7787"/>
<polygon fill="#191970" stroke="#191970" points="485.5371,-80.4057 491.5192,-71.6612 481.3897,-74.7666 485.5371,-80.4057"/>
</g>
<!-- Node388352 -->
<g id="node5" class="node">
<title>Node388352</title>
<g id="a_node5"><a xlink:href="quickjs_8c.html#a2b9a2014cb970af5b5b7dde00afbdffa" target="_top" xlink:title="delete_property">
<polygon fill="none" stroke="#ff0000" points="463,-546.614 463,-565.614 546,-565.614 546,-546.614 463,-546.614"/>
<text text-anchor="middle" x="504.5" y="-553.614" font-family="Helvetica,sans-Serif" font-size="10.00" fill="#000000">delete_property</text>
</a>
</g>
</g>
<!-- Node388351&#45;&gt;Node388352 -->
<g id="edge4" class="edge">
<title>Node388351&#45;&gt;Node388352</title>
<path fill="none" stroke="#191970" d="M356.3845,-337.8196C374.2768,-377.3613 441.1864,-524.5745 449,-532.114 453.0132,-535.9865 457.7509,-539.2853 462.7395,-542.0817"/>
<polygon fill="#191970" stroke="#191970" points="461.3704,-545.3089 471.8877,-546.5882 464.4637,-539.0294 461.3704,-545.3089"/>
</g>
<!-- Node388404 -->
<g id="node7" class="node">
<title>Node388404</title>
<g id="a_node7"><a xlink:href="quickjs_8h.html#afaa20c47565bc704c6c85f3d77254e7d" target="_top" xlink:title="JS_FreeValue">
<polygon fill="none" stroke="#ff0000" points="616.5,-413.614 616.5,-432.614 694.5,-432.614 694.5,-413.614 616.5,-413.614"/>
<text text-anchor="middle" x="655.5" y="-420.614" font-family="Helvetica,sans-Serif" font-size="10.00" fill="#000000">JS_FreeValue</text>
</a>
</g>
</g>
<!-- Node388351&#45;&gt;Node388404 -->
<g id="edge8" class="edge">
<title>Node388351&#45;&gt;Node388404</title>
<path fill="none" stroke="#191970" d="M391.8821,-337.6399C434.046,-348.0362 502.304,-365.7964 560,-385.114 581.6581,-392.3656 605.5323,-401.8652 623.9924,-409.5521"/>
<polygon fill="#191970" stroke="#191970" points="622.8017,-412.8482 633.3766,-413.4975 625.5147,-406.3953 622.8017,-412.8482"/>
</g>
<!-- Node388417 -->
<g id="node8" class="node">
<title>Node388417</title>
<g id="a_node8"><a xlink:href="quickjs_8c.html#a686cf78f8b0361621ee2ba6182195c31" target="_top" xlink:title="is_strict_mode">
<polygon fill="none" stroke="#000000" points="464.5,-394.614 464.5,-413.614 544.5,-413.614 544.5,-394.614 464.5,-394.614"/>
<text text-anchor="middle" x="504.5" y="-401.614" font-family="Helvetica,sans-Serif" font-size="10.00" fill="#000000">is_strict_mode</text>
</a>
</g>
</g>
<!-- Node388351&#45;&gt;Node388417 -->
<g id="edge7" class="edge">
<title>Node388351&#45;&gt;Node388417</title>
<path fill="none" stroke="#191970" d="M368.9475,-337.7592C388.1337,-348.5465 420.4409,-366.3141 449,-380.114 456.3106,-383.6466 464.2698,-387.2353 471.8183,-390.5237"/>
<polygon fill="#191970" stroke="#191970" points="470.5108,-393.7713 481.0804,-394.5018 473.2733,-387.3394 470.5108,-393.7713"/>
</g>
<!-- Node388418 -->
<g id="node9" class="node">
<title>Node388418</title>
<g id="a_node9"><a xlink:href="quickjs_8h.html#ad80a83d73e9b7d872b88fbf2943aebe9" target="_top" xlink:title="JS_IsException">
<polygon fill="none" stroke="#000000" points="612.5,-128.614 612.5,-147.614 698.5,-147.614 698.5,-128.614 612.5,-128.614"/>
<text text-anchor="middle" x="655.5" y="-135.614" font-family="Helvetica,sans-Serif" font-size="10.00" fill="#000000">JS_IsException</text>
</a>
</g>
</g>
<!-- Node388351&#45;&gt;Node388418 -->
<g id="edge9" class="edge">
<title>Node388351&#45;&gt;Node388418</title>
<path fill="none" stroke="#191970" d="M365.0317,-318.372C378.402,-307.8646 399.1508,-290.0755 413,-271.114 435.0447,-240.9317 420.3864,-219.1598 449,-195.114 492.2794,-158.7437 556.9662,-145.4685 602.3801,-140.6848"/>
<polygon fill="#191970" stroke="#191970" points="602.7117,-144.1692 612.3357,-139.7389 602.0495,-137.2006 602.7117,-144.1692"/>
</g>
<!-- Node388419 -->
<g id="node10" class="node">
<title>Node388419</title>
<g id="a_node10"><a xlink:href="quickjs_8c.html#a710289a14c2810467e5b448d3c28bd55" target="_top" xlink:title="JS_ToObject">
<polygon fill="none" stroke="#ff0000" points="467.5,-204.614 467.5,-223.614 541.5,-223.614 541.5,-204.614 467.5,-204.614"/>
<text text-anchor="middle" x="504.5" y="-211.614" font-family="Helvetica,sans-Serif" font-size="10.00" fill="#000000">JS_ToObject</text>
</a>
</g>
</g>
<!-- Node388351&#45;&gt;Node388419 -->
<g id="edge10" class="edge">
<title>Node388351&#45;&gt;Node388419</title>
<path fill="none" stroke="#191970" d="M364.7398,-318.5905C390.9132,-299.0248 450.9766,-254.125 483.1802,-230.0514"/>
<polygon fill="#191970" stroke="#191970" points="485.5594,-232.6428 491.4732,-223.8521 481.3682,-227.0362 485.5594,-232.6428"/>
</g>
<!-- Node388352&#45;&gt;Node388403 -->
<g id="edge5" class="edge">
<title>Node388352&#45;&gt;Node388403</title>
<path fill="none" stroke="#191970" d="M546.1611,-561.3562C564.9685,-563.7226 587.308,-566.5336 606.877,-568.9959"/>
<polygon fill="#191970" stroke="#191970" points="606.4656,-572.4717 616.8244,-570.2476 607.3396,-565.5264 606.4656,-572.4717"/>
</g>
<!-- Node388352&#45;&gt;Node388404 -->
<g id="edge6" class="edge">
<title>Node388352&#45;&gt;Node388404</title>
<path fill="none" stroke="#191970" d="M515.3595,-546.549C540.8106,-524.1318 604.5703,-467.9727 636.5651,-439.7918"/>
<polygon fill="#191970" stroke="#191970" points="639.1406,-442.1874 644.3315,-432.9512 634.5139,-436.9344 639.1406,-442.1874"/>
</g>
<!-- Node388419&#45;&gt;Node388418 -->
<g id="edge11" class="edge">
<title>Node388419&#45;&gt;Node388418</title>
<path fill="none" stroke="#191970" d="M523.6243,-204.4886C549.8333,-191.2973 597.1004,-167.5072 627.3544,-152.28"/>
<polygon fill="#191970" stroke="#191970" points="629.1721,-155.2835 636.531,-147.6613 626.0251,-149.0308 629.1721,-155.2835"/>
</g>
<!-- Node388482 -->
<g id="node11" class="node">
<title>Node388482</title>
<g id="a_node11"><a xlink:href="quickjs_8h.html#a2050bc428da1c65ac7eb87c3fa3b0392" target="_top" xlink:title="JS_NewInt32">
<polygon fill="none" stroke="#000000" points="617.5,-261.614 617.5,-280.614 693.5,-280.614 693.5,-261.614 617.5,-261.614"/>
<text text-anchor="middle" x="655.5" y="-268.614" font-family="Helvetica,sans-Serif" font-size="10.00" fill="#000000">JS_NewInt32</text>
</a>
</g>
</g>
<!-- Node388419&#45;&gt;Node388482 -->
<g id="edge12" class="edge">
<title>Node388419&#45;&gt;Node388482</title>
<path fill="none" stroke="#191970" d="M529.774,-223.6545C554.5991,-233.0256 592.683,-247.4016 620.4317,-257.8763"/>
<polygon fill="#191970" stroke="#191970" points="619.5518,-261.2852 630.1435,-261.5424 622.024,-254.7363 619.5518,-261.2852"/>
</g>
<!-- Node388781&#45;&gt;Node388350 -->
<g id="edge15" class="edge">
<title>Node388781&#45;&gt;Node388350</title>
<path fill="none" stroke="#191970" d="M542.6037,-52.525C562.44,-47.5331 586.8839,-41.3817 607.9483,-36.0807"/>
<polygon fill="#191970" stroke="#191970" points="608.8269,-39.4688 617.6703,-33.6341 607.1185,-32.6804 608.8269,-39.4688"/>
</g>
<!-- Node388781&#45;&gt;Node388418 -->
<g id="edge17" class="edge">
<title>Node388781&#45;&gt;Node388418</title>
<path fill="none" stroke="#191970" d="M531.3965,-71.6283C540.795,-75.4935 551.1907,-80.4046 560,-86.114 578.2142,-97.9189 577.2237,-108.2254 596,-119.114 599.6408,-121.2254 603.5453,-123.1333 607.5499,-124.8509"/>
<polygon fill="#191970" stroke="#191970" points="606.4096,-128.1626 616.9984,-128.5193 608.9432,-121.6372 606.4096,-128.1626"/>
</g>
<!-- Node388508 -->
<g id="node13" class="node">
<title>Node388508</title>
<g id="a_node13"><a xlink:href="quickjs_8c.html#acd08798ec15cc37c60d2e7d70007c6a8" target="_top" xlink:title="__JS_NewAtom">
<polygon fill="none" stroke="#ff0000" points="611.5,-90.614 611.5,-109.614 699.5,-109.614 699.5,-90.614 611.5,-90.614"/>
<text text-anchor="middle" x="655.5" y="-97.614" font-family="Helvetica,sans-Serif" font-size="10.00" fill="#000000">__JS_NewAtom</text>
</a>
</g>
</g>
<!-- Node388781&#45;&gt;Node388508 -->
<g id="edge16" class="edge">
<title>Node388781&#45;&gt;Node388508</title>
<path fill="none" stroke="#191970" d="M542.6037,-71.703C562.44,-76.695 586.8839,-82.8464 607.9483,-88.1474"/>
<polygon fill="#191970" stroke="#191970" points="607.1185,-91.5476 617.6703,-90.594 608.8269,-84.7593 607.1185,-91.5476"/>
</g>
<!-- Node388447 -->
<g id="node14" class="node">
<title>Node388447</title>
<g id="a_node14"><a xlink:href="quickjs_8c.html#a0ee6a3654a6016393fac5e1c108f403a" target="_top" xlink:title="JS_NewString">
<polygon fill="none" stroke="#ff0000" points="615.5,-52.614 615.5,-71.614 695.5,-71.614 695.5,-52.614 615.5,-52.614"/>
<text text-anchor="middle" x="655.5" y="-59.614" font-family="Helvetica,sans-Serif" font-size="10.00" fill="#000000">JS_NewString</text>
</a>
</g>
</g>
<!-- Node388781&#45;&gt;Node388447 -->
<g id="edge18" class="edge">
<title>Node388781&#45;&gt;Node388447</title>
<path fill="none" stroke="#191970" d="M554.3615,-62.114C570.5692,-62.114 588.5657,-62.114 604.8317,-62.114"/>
<polygon fill="#191970" stroke="#191970" points="605.2347,-65.6141 615.2347,-62.114 605.2346,-58.6141 605.2347,-65.6141"/>
</g>
<!-- Node388782&#45;&gt;Node388403 -->
<g id="edge20" class="edge">
<title>Node388782&#45;&gt;Node388403</title>
<path fill="none" stroke="#191970" d="M353.9736,-489.8699C360.7453,-520.4432 386.179,-614.525 449,-651.114 491.6298,-675.943 513.4268,-667.3841 560,-651.114 593.282,-639.4871 623.6414,-610.8714 640.819,-592.2607"/>
<polygon fill="#191970" stroke="#191970" points="643.4857,-594.5293 647.5457,-584.7433 638.2692,-589.8615 643.4857,-594.5293"/>
</g>
<!-- Node388782&#45;&gt;Node388404 -->
<g id="edge21" class="edge">
<title>Node388782&#45;&gt;Node388404</title>
<path fill="none" stroke="#191970" d="M405.5439,-477.1524C447.8752,-474.042 508.2514,-467.8922 560,-456.114 581.3591,-451.2526 604.604,-443.2819 622.8127,-436.3919"/>
<polygon fill="#191970" stroke="#191970" points="624.2992,-439.5698 632.3666,-432.702 621.7772,-433.0399 624.2992,-439.5698"/>
</g>
<!-- Node388782&#45;&gt;Node388482 -->
<g id="edge23" class="edge">
<title>Node388782&#45;&gt;Node388482</title>
<path fill="none" stroke="#191970" d="M389.519,-470.5838C447.5196,-455.7443 553.048,-428.2755 560,-423.114 606.9855,-388.2295 636.4239,-322.7427 648.7779,-290.3147"/>
<polygon fill="#191970" stroke="#191970" points="652.1554,-291.2704 652.3133,-280.6767 645.5836,-288.8597 652.1554,-291.2704"/>
</g>
<!-- Node388782&#45;&gt;Node388781 -->
<g id="edge22" class="edge">
<title>Node388782&#45;&gt;Node388781</title>
<path fill="none" stroke="#191970" d="M357.2802,-470.3791C368.8178,-448.7684 396.5573,-394.9173 413,-347.114 435.5811,-281.4646 427.5611,-261.1453 449,-195.114 462.5137,-153.4922 483.4682,-106.6619 495.3883,-81.1682"/>
<polygon fill="#191970" stroke="#191970" points="498.6524,-82.4524 499.7577,-71.9154 492.3227,-79.4633 498.6524,-82.4524"/>
</g>
<!-- Node388607 -->
<g id="node16" class="node">
<title>Node388607</title>
<g id="a_node16"><a xlink:href="quickjs_8h.html#af763b173e78debf2075670ca2c128a30" target="_top" xlink:title="JS_SetProperty">
<polygon fill="none" stroke="#ff0000" points="461.5,-622.614 461.5,-641.614 547.5,-641.614 547.5,-622.614 461.5,-622.614"/>
<text text-anchor="middle" x="504.5" y="-629.614" font-family="Helvetica,sans-Serif" font-size="10.00" fill="#000000">JS_SetProperty</text>
</a>
</g>
</g>
<!-- Node388782&#45;&gt;Node388607 -->
<g id="edge24" class="edge">
<title>Node388782&#45;&gt;Node388607</title>
<path fill="none" stroke="#191970" d="M356.4005,-489.7073C368.0092,-513.9764 401.842,-578.3499 449,-613.114 451.6233,-615.0479 454.4579,-616.7951 457.4101,-618.3722"/>
<polygon fill="#191970" stroke="#191970" points="455.9818,-621.5679 466.5254,-622.6094 458.9326,-615.2202 455.9818,-621.5679"/>
</g>
<!-- Node388624 -->
<g id="node17" class="node">
<title>Node388624</title>
<g id="a_node17"><a xlink:href="quickjs_8c.html#aee75cc1546e19479e3ccda58f3b50a96" target="_top" xlink:title="JS_SetPropertyValue">
<polygon fill="none" stroke="#ff0000" points="449.5,-584.614 449.5,-603.614 559.5,-603.614 559.5,-584.614 449.5,-584.614"/>
<text text-anchor="middle" x="504.5" y="-591.614" font-family="Helvetica,sans-Serif" font-size="10.00" fill="#000000">JS_SetPropertyValue</text>
</a>
</g>
</g>
<!-- Node388782&#45;&gt;Node388624 -->
<g id="edge25" class="edge">
<title>Node388782&#45;&gt;Node388624</title>
<path fill="none" stroke="#191970" d="M359.2329,-489.6169C374.0723,-508.4992 409.8722,-550.9947 449,-575.114 452.224,-577.1014 455.6825,-578.9123 459.2393,-580.5561"/>
<polygon fill="#191970" stroke="#191970" points="458.2128,-583.9196 468.7905,-584.5233 460.898,-577.4551 458.2128,-583.9196"/>
</g>
<!-- Node388624&#45;&gt;Node388403 -->
<g id="edge26" class="edge">
<title>Node388624&#45;&gt;Node388403</title>
<path fill="none" stroke="#191970" d="M559.8694,-587.147C575.1884,-585.2195 591.7003,-583.1418 606.6213,-581.2643"/>
<polygon fill="#191970" stroke="#191970" points="607.178,-584.722 616.6628,-580.0008 606.304,-577.7767 607.178,-584.722"/>
</g>
<!-- Node388624&#45;&gt;Node388404 -->
<g id="edge27" class="edge">
<title>Node388624&#45;&gt;Node388404</title>
<path fill="none" stroke="#191970" d="M543.5711,-584.5501C549.4295,-582.0688 555.1299,-578.9711 560,-575.114 605.6556,-538.9554 635.545,-474.5905 648.3577,-442.4673"/>
<polygon fill="#191970" stroke="#191970" points="651.7159,-443.4863 652.0463,-432.8967 645.1842,-440.9689 651.7159,-443.4863"/>
</g>
<!-- Node388783&#45;&gt;Node388350 -->
<g id="edge29" class="edge">
<title>Node388783&#45;&gt;Node388350</title>
<path fill="none" stroke="#191970" d="M353.1279,-242.5223C357.686,-208.5231 378.0506,-93.1265 449,-43.114 488.2287,-15.4616 542.5998,-11.4568 585.7042,-13.9694"/>
<polygon fill="#191970" stroke="#191970" points="585.6171,-17.472 595.8403,-14.6905 586.1139,-10.4896 585.6171,-17.472"/>
</g>
<!-- Node388783&#45;&gt;Node388403 -->
<g id="edge30" class="edge">
<title>Node388783&#45;&gt;Node388403</title>
<path fill="none" stroke="#191970" d="M365.8243,-261.6819C379.6354,-271.919 400.5534,-289.3748 413,-309.114 441.3396,-354.0582 418.0815,-379.9034 449,-423.114 496.1804,-489.0519 580.7536,-538.1048 625.63,-560.922"/>
<polygon fill="#191970" stroke="#191970" points="624.3263,-564.1831 634.8368,-565.5173 627.4524,-557.9198 624.3263,-564.1831"/>
</g>
<!-- Node388783&#45;&gt;Node388418 -->
<g id="edge39" class="edge">
<title>Node388783&#45;&gt;Node388418</title>
<path fill="none" stroke="#191970" d="M357.7306,-242.4627C374.3053,-214.9286 422.7819,-137.1416 449,-124.114 474.9446,-111.2224 550.1345,-120.1257 602.2385,-128.4823"/>
<polygon fill="#191970" stroke="#191970" points="601.895,-131.9727 612.3301,-130.1397 603.0295,-125.0652 601.895,-131.9727"/>
</g>
<!-- Node388783&#45;&gt;Node388482 -->
<g id="edge41" class="edge">
<title>Node388783&#45;&gt;Node388482</title>
<path fill="none" stroke="#191970" d="M413.0527,-255.9361C470.1755,-259.5122 554.381,-264.7837 607.028,-268.0795"/>
<polygon fill="#191970" stroke="#191970" points="606.92,-271.5795 617.1192,-268.7113 607.3575,-264.5932 606.92,-271.5795"/>
</g>
<!-- Node388783&#45;&gt;Node388781 -->
<g id="edge40" class="edge">
<title>Node388783&#45;&gt;Node388781</title>
<path fill="none" stroke="#191970" d="M358.0449,-242.5533C369.1827,-224.8621 393.5808,-185.7534 413,-152.114 429.705,-123.1764 424.3209,-108.6392 449,-86.114 453.2161,-82.2659 458.145,-78.9698 463.2937,-76.1647"/>
<polygon fill="#191970" stroke="#191970" points="465.2051,-79.1288 472.6924,-71.6328 462.1647,-72.8235 465.2051,-79.1288"/>
</g>
<!-- Node388478 -->
<g id="node19" class="node">
<title>Node388478</title>
<g id="a_node19"><a xlink:href="quickjs_8h.html#a89b7c8686c7eee70b86be722ee4730ad" target="_top" xlink:title="JS_GetProperty">
<polygon fill="none" stroke="#ff0000" points="612.5,-185.614 612.5,-204.614 698.5,-204.614 698.5,-185.614 612.5,-185.614"/>
<text text-anchor="middle" x="655.5" y="-192.614" font-family="Helvetica,sans-Serif" font-size="10.00" fill="#000000">JS_GetProperty</text>
</a>
</g>
</g>
<!-- Node388783&#45;&gt;Node388478 -->
<g id="edge31" class="edge">
<title>Node388783&#45;&gt;Node388478</title>
<path fill="none" stroke="#191970" d="M363.6012,-242.4662C380.9014,-228.7743 415.0745,-204.344 449,-195.114 499.6538,-181.3328 559.9204,-183.3168 602.2312,-187.5398"/>
<polygon fill="#191970" stroke="#191970" points="601.9989,-191.0349 612.3154,-188.6225 602.7462,-184.0749 601.9989,-191.0349"/>
</g>
<!-- Node388504 -->
<g id="node20" class="node">
<title>Node388504</title>
<g id="a_node20"><a xlink:href="quickjs_8c.html#a90d6e607f6917d817c1e997bd2e6ed07" target="_top" xlink:title="JS_GetPropertyValue">
<polygon fill="none" stroke="#ff0000" points="449,-280.614 449,-299.614 560,-299.614 560,-280.614 449,-280.614"/>
<text text-anchor="middle" x="504.5" y="-287.614" font-family="Helvetica,sans-Serif" font-size="10.00" fill="#000000">JS_GetPropertyValue</text>
</a>
</g>
</g>
<!-- Node388783&#45;&gt;Node388504 -->
<g id="edge32" class="edge">
<title>Node388783&#45;&gt;Node388504</title>
<path fill="none" stroke="#191970" d="M390.4822,-261.703C410.5156,-266.695 435.2023,-272.8464 456.476,-278.1474"/>
<polygon fill="#191970" stroke="#191970" points="455.745,-281.5722 466.2945,-280.594 457.4375,-274.7799 455.745,-281.5722"/>
</g>
<!-- Node388643 -->
<g id="node21" class="node">
<title>Node388643</title>
<g id="a_node21"><a xlink:href="quickjs_8c.html#a9d6d0a9704951d01c128975e0d2213f8" target="_top" xlink:title="JS_HasProperty">
<polygon fill="none" stroke="#ff0000" points="460,-318.614 460,-337.614 549,-337.614 549,-318.614 460,-318.614"/>
<text text-anchor="middle" x="504.5" y="-325.614" font-family="Helvetica,sans-Serif" font-size="10.00" fill="#000000">JS_HasProperty</text>
</a>
</g>
</g>
<!-- Node388783&#45;&gt;Node388643 -->
<g id="edge37" class="edge">
<title>Node388783&#45;&gt;Node388643</title>
<path fill="none" stroke="#191970" d="M366.2939,-261.7563C384.7902,-273.9379 418.2926,-295.0103 449,-309.114 453.6246,-311.2381 458.5583,-313.2568 463.5043,-315.1304"/>
<polygon fill="#191970" stroke="#191970" points="462.3585,-318.4378 472.9528,-318.5442 464.7372,-311.8543 462.3585,-318.4378"/>
</g>
<!-- Node388504&#45;&gt;Node388403 -->
<g id="edge33" class="edge">
<title>Node388504&#45;&gt;Node388403</title>
<path fill="none" stroke="#191970" d="M547.164,-299.7171C551.9405,-302.1697 556.3799,-305.2487 560,-309.114 601.861,-353.8106 575.4334,-384.4327 596,-442.114 610.8587,-483.7869 633.1874,-530.5985 645.8433,-556.0752"/>
<polygon fill="#191970" stroke="#191970" points="642.8681,-557.9504 650.4787,-565.3213 649.1258,-554.8132 642.8681,-557.9504"/>
</g>
<!-- Node388504&#45;&gt;Node388404 -->
<g id="edge34" class="edge">
<title>Node388504&#45;&gt;Node388404</title>
<path fill="none" stroke="#191970" d="M541.678,-299.6895C548.0856,-302.2038 554.4586,-305.3095 560,-309.114 597.7474,-335.0303 629.0264,-379.7483 644.684,-404.7811"/>
<polygon fill="#191970" stroke="#191970" points="641.7045,-406.6177 649.9009,-413.3311 647.6799,-402.9716 641.7045,-406.6177"/>
</g>
<!-- Node388504&#45;&gt;Node388482 -->
<g id="edge36" class="edge">
<title>Node388504&#45;&gt;Node388482</title>
<path fill="none" stroke="#191970" d="M560.2978,-283.0931C575.7246,-281.152 592.3313,-279.0624 607.2873,-277.1805"/>
<polygon fill="#191970" stroke="#191970" points="607.8582,-280.6364 617.343,-275.9152 606.9842,-273.6911 607.8582,-280.6364"/>
</g>
<!-- Node388504&#45;&gt;Node388478 -->
<g id="edge35" class="edge">
<title>Node388504&#45;&gt;Node388478</title>
<path fill="none" stroke="#191970" d="M519.8097,-280.4821C546.1509,-263.9099 600.2303,-229.8864 631.5792,-210.1635"/>
<polygon fill="#191970" stroke="#191970" points="633.5494,-213.0591 640.1498,-204.7714 629.8218,-207.1342 633.5494,-213.0591"/>
</g>
<!-- Node388643&#45;&gt;Node388404 -->
<g id="edge38" class="edge">
<title>Node388643&#45;&gt;Node388404</title>
<path fill="none" stroke="#191970" d="M529.9642,-337.6749C539.6134,-341.6693 550.5457,-346.654 560,-352.114 588.2366,-368.4211 617.9553,-391.6076 636.5962,-406.9927"/>
<polygon fill="#191970" stroke="#191970" points="634.4182,-409.7339 644.3363,-413.4599 638.9065,-404.3622 634.4182,-409.7339"/>
</g>
</g>
</svg>
