<?xml version="1.0" encoding="UTF-8" standalone="no"?>
<!DOCTYPE svg PUBLIC "-//W3C//DTD SVG 1.1//EN"
 "http://www.w3.org/Graphics/SVG/1.1/DTD/svg11.dtd">
<!-- Generated by graphviz version 2.40.1 (20161225.0304)
 -->
<!-- Title: js_string_toLowerCase Pages: 1 -->
<!--zoomable 472 -->
<svg id="main" version="1.1" xmlns="http://www.w3.org/2000/svg" xmlns:xlink="http://www.w3.org/1999/xlink" xml:space="preserve" onload="init(evt)">
<style type="text/css"><![CDATA[
.edge:hover path { stroke: red; }
.edge:hover polygon { stroke: red; fill: red; }
]]></style>
<script type="text/javascript"><![CDATA[
var edges = document.getElementsByTagName('g');
if (edges && edges.length) {
  for (var i=0;i<edges.length;i++) {
    if (edges[i].id.substr(0,4)=='edge') {
      edges[i].setAttribute('class','edge');
    }
  }
}
]]></script>
        <defs>
                <circle id="rim" cx="0" cy="0" r="7"/>
                <circle id="rim2" cx="0" cy="0" r="3.5"/>
                <g id="zoomPlus">
                        <use xlink:href="#rim" fill="#404040">
                                <set attributeName="fill" to="#808080" begin="zoomplus.mouseover" end="zoomplus.mouseout"/>
                        </use>
                        <path d="M-4,0h8M0,-4v8" fill="none" stroke="white" stroke-width="1.5" pointer-events="none"/>
                </g>
                <g id="zoomMin">
                        <use xlink:href="#rim" fill="#404040">
                                <set attributeName="fill" to="#808080" begin="zoomminus.mouseover" end="zoomminus.mouseout"/>
                        </use>
                        <path d="M-4,0h8" fill="none" stroke="white" stroke-width="1.5" pointer-events="none"/>
                </g>
                <g id="dirArrow">
                        <path fill="none" stroke="white" stroke-width="1.5" d="M0,-3.0v7 M-2.5,-0.5L0,-3.0L2.5,-0.5"/>
                </g>
               <g id="resetDef">
                       <use xlink:href="#rim2" fill="#404040">
                               <set attributeName="fill" to="#808080" begin="reset.mouseover" end="reset.mouseout"/>
                       </use>
               </g>
        </defs>

<script type="text/javascript">
var viewWidth = 958;
var viewHeight = 472;
var sectionId = 'dynsection-1555';
</script>
<script xlink:href="svgpan.js"/>
<svg id="graph" class="graph">
<g id="viewport">
<title>js_string_toLowerCase</title>
<!-- Node416756 -->
<g id="node1" class="node">
<title>Node416756</title>
<polygon fill="#bfbfbf" stroke="#000000" points="0,-247.5 0,-266.5 116,-266.5 116,-247.5 0,-247.5"/>
<text text-anchor="middle" x="58" y="-254.5" font-family="Helvetica,sans-Serif" font-size="10.00" fill="#000000">js_string_toLowerCase</text>
</g>
<!-- Node416757 -->
<g id="node2" class="node">
<title>Node416757</title>
<g id="a_node2"><a xlink:href="quickjs_8h.html#afaa20c47565bc704c6c85f3d77254e7d" target="_top" xlink:title="JS_FreeValue">
<polygon fill="none" stroke="#000000" points="605,-417.5 605,-436.5 683,-436.5 683,-417.5 605,-417.5"/>
<text text-anchor="middle" x="644" y="-424.5" font-family="Helvetica,sans-Serif" font-size="10.00" fill="#000000">JS_FreeValue</text>
</a>
</g>
</g>
<!-- Node416756&#45;&gt;Node416757 -->
<g id="edge1" class="edge">
<title>Node416756&#45;&gt;Node416757</title>
<path fill="none" stroke="#191970" d="M60.5929,-266.7283C68.6317,-294.7291 96.0293,-375.6417 152,-409 295.4853,-494.5168 506.6133,-459.9601 598.4956,-438.818"/>
<polygon fill="#191970" stroke="#191970" points="599.3856,-442.2042 608.3163,-436.5039 597.7801,-435.3908 599.3856,-442.2042"/>
</g>
<!-- Node416794 -->
<g id="node5" class="node">
<title>Node416794</title>
<g id="a_node5"><a xlink:href="quickjs_8h.html#ad80a83d73e9b7d872b88fbf2943aebe9" target="_top" xlink:title="JS_IsException">
<polygon fill="none" stroke="#000000" points="601,-361.5 601,-380.5 687,-380.5 687,-361.5 601,-361.5"/>
<text text-anchor="middle" x="644" y="-368.5" font-family="Helvetica,sans-Serif" font-size="10.00" fill="#000000">JS_IsException</text>
</a>
</g>
</g>
<!-- Node416756&#45;&gt;Node416794 -->
<g id="edge4" class="edge">
<title>Node416756&#45;&gt;Node416794</title>
<path fill="none" stroke="#191970" d="M66.1341,-266.6118C81.1162,-283.5386 114.9485,-318.2658 152,-333 230.4693,-364.2048 479.8511,-369.8841 590.3784,-370.8461"/>
<polygon fill="#191970" stroke="#191970" points="590.604,-374.3478 600.6307,-370.9251 590.658,-367.348 590.604,-374.3478"/>
</g>
<!-- Node416795 -->
<g id="node6" class="node">
<title>Node416795</title>
<g id="a_node6"><a xlink:href="quickjs_8c.html#a4d1d0760c9f9efcb8c0a8db414e46c8a" target="_top" xlink:title="JS_ToStringCheckObject">
<polygon fill="none" stroke="#000000" points="152,-380.5 152,-399.5 280,-399.5 280,-380.5 152,-380.5"/>
<text text-anchor="middle" x="216" y="-387.5" font-family="Helvetica,sans-Serif" font-size="10.00" fill="#000000">JS_ToStringCheckObject</text>
</a>
</g>
</g>
<!-- Node416756&#45;&gt;Node416795 -->
<g id="edge5" class="edge">
<title>Node416756&#45;&gt;Node416795</title>
<path fill="none" stroke="#191970" d="M63.8388,-266.5744C77.0357,-287.4685 111.2117,-337.5552 152,-366 157.9557,-370.1534 164.7206,-373.6924 171.5676,-376.6734"/>
<polygon fill="#191970" stroke="#191970" points="170.3023,-379.9369 180.8871,-380.398 172.9001,-373.4367 170.3023,-379.9369"/>
</g>
<!-- Node417188 -->
<g id="node9" class="node">
<title>Node417188</title>
<g id="a_node9"><a xlink:href="libunicode_8c.html#a3dc90975f96ae247711c79651d0c57f7" target="_top" xlink:title="lre_case_conv">
<polygon fill="none" stroke="#000000" points="176,-304.5 176,-323.5 256,-323.5 256,-304.5 176,-304.5"/>
<text text-anchor="middle" x="216" y="-311.5" font-family="Helvetica,sans-Serif" font-size="10.00" fill="#000000">lre_case_conv</text>
</a>
</g>
</g>
<!-- Node416756&#45;&gt;Node417188 -->
<g id="edge11" class="edge">
<title>Node416756&#45;&gt;Node417188</title>
<path fill="none" stroke="#191970" d="M79.8058,-266.5063C98.7142,-274.5824 126.9099,-286.2268 152,-295 158.3953,-297.2362 165.2067,-299.4418 171.9109,-301.5142"/>
<polygon fill="#191970" stroke="#191970" points="171.0105,-304.8984 181.5955,-304.4432 173.0369,-298.1981 171.0105,-304.8984"/>
</g>
<!-- Node416810 -->
<g id="node10" class="node">
<title>Node416810</title>
<g id="a_node10"><a xlink:href="quickjs_8c.html#accfc3d1dcaa88c88402cb245ccaf4fdb" target="_top" xlink:title="string_buffer_end">
<polygon fill="none" stroke="#ff0000" points="170,-266.5 170,-285.5 262,-285.5 262,-266.5 170,-266.5"/>
<text text-anchor="middle" x="216" y="-273.5" font-family="Helvetica,sans-Serif" font-size="10.00" fill="#000000">string_buffer_end</text>
</a>
</g>
</g>
<!-- Node416756&#45;&gt;Node416810 -->
<g id="edge12" class="edge">
<title>Node416756&#45;&gt;Node416810</title>
<path fill="none" stroke="#191970" d="M116.3845,-264.0209C130.532,-265.7222 145.6279,-267.5375 159.6782,-269.2271"/>
<polygon fill="#191970" stroke="#191970" points="159.3492,-272.7127 169.6956,-270.4318 160.1851,-265.7628 159.3492,-272.7127"/>
</g>
<!-- Node416811 -->
<g id="node11" class="node">
<title>Node416811</title>
<g id="a_node11"><a xlink:href="quickjs_8c.html#a266b4993a59d9e34537386e62b9f3d4f" target="_top" xlink:title="string_buffer_free">
<polygon fill="none" stroke="#ff0000" points="170,-228.5 170,-247.5 262,-247.5 262,-228.5 170,-228.5"/>
<text text-anchor="middle" x="216" y="-235.5" font-family="Helvetica,sans-Serif" font-size="10.00" fill="#000000">string_buffer_free</text>
</a>
</g>
</g>
<!-- Node416756&#45;&gt;Node416811 -->
<g id="edge13" class="edge">
<title>Node416756&#45;&gt;Node416811</title>
<path fill="none" stroke="#191970" d="M116.3845,-249.9791C130.532,-248.2778 145.6279,-246.4625 159.6782,-244.7729"/>
<polygon fill="#191970" stroke="#191970" points="160.1851,-248.2372 169.6956,-243.5682 159.3492,-241.2873 160.1851,-248.2372"/>
</g>
<!-- Node416812 -->
<g id="node12" class="node">
<title>Node416812</title>
<g id="a_node12"><a xlink:href="quickjs_8c.html#a9c11961b0adafedd064b294612d0c2f3" target="_top" xlink:title="string_buffer_init">
<polygon fill="none" stroke="#ff0000" points="171.5,-190.5 171.5,-209.5 260.5,-209.5 260.5,-190.5 171.5,-190.5"/>
<text text-anchor="middle" x="216" y="-197.5" font-family="Helvetica,sans-Serif" font-size="10.00" fill="#000000">string_buffer_init</text>
</a>
</g>
</g>
<!-- Node416756&#45;&gt;Node416812 -->
<g id="edge14" class="edge">
<title>Node416756&#45;&gt;Node416812</title>
<path fill="none" stroke="#191970" d="M79.8058,-247.4937C98.7142,-239.4176 126.9099,-227.7732 152,-219 158.3953,-216.7638 165.2067,-214.5582 171.9109,-212.4858"/>
<polygon fill="#191970" stroke="#191970" points="173.0369,-215.8019 181.5955,-209.5568 171.0105,-209.1016 173.0369,-215.8019"/>
</g>
<!-- Node417189 -->
<g id="node13" class="node">
<title>Node417189</title>
<g id="a_node13"><a xlink:href="quickjs_8c.html#a8d79794c85d33dd8409cdb39f2c2fc74" target="_top" xlink:title="string_buffer_putc">
<polygon fill="none" stroke="#000000" points="168.5,-152.5 168.5,-171.5 263.5,-171.5 263.5,-152.5 168.5,-152.5"/>
<text text-anchor="middle" x="216" y="-159.5" font-family="Helvetica,sans-Serif" font-size="10.00" fill="#000000">string_buffer_putc</text>
</a>
</g>
</g>
<!-- Node416756&#45;&gt;Node417189 -->
<g id="edge15" class="edge">
<title>Node416756&#45;&gt;Node417189</title>
<path fill="none" stroke="#191970" d="M67.2358,-247.3945C83.1203,-231.401 117.268,-199.2698 152,-181 156.2634,-178.7574 160.8294,-176.7421 165.4874,-174.9395"/>
<polygon fill="#191970" stroke="#191970" points="166.8511,-178.1696 175.1101,-171.5334 164.5154,-171.5708 166.8511,-178.1696"/>
</g>
<!-- Node417190 -->
<g id="node15" class="node">
<title>Node417190</title>
<g id="a_node15"><a xlink:href="quickjs_8c.html#ae94a3705c1c334ae8719767ae53719c2" target="_top" xlink:title="string_getc">
<polygon fill="none" stroke="#000000" points="338.5,-114.5 338.5,-133.5 403.5,-133.5 403.5,-114.5 338.5,-114.5"/>
<text text-anchor="middle" x="371" y="-121.5" font-family="Helvetica,sans-Serif" font-size="10.00" fill="#000000">string_getc</text>
</a>
</g>
</g>
<!-- Node416756&#45;&gt;Node417190 -->
<g id="edge17" class="edge">
<title>Node416756&#45;&gt;Node417190</title>
<path fill="none" stroke="#191970" d="M62.4916,-247.4796C73.8066,-224.7145 105.9048,-167.2266 152,-143 207.5899,-113.7832 282.201,-114.2766 328.4113,-118.3571"/>
<polygon fill="#191970" stroke="#191970" points="328.0948,-121.8428 338.3881,-119.3332 328.7765,-114.876 328.0948,-121.8428"/>
</g>
<!-- Node417191 -->
<g id="node16" class="node">
<title>Node417191</title>
<g id="a_node16"><a xlink:href="quickjs_8c.html#a25c987b41af7258a902ade042499d54a" target="_top" xlink:title="test_final_sigma">
<polygon fill="none" stroke="#000000" points="172,-76.5 172,-95.5 260,-95.5 260,-76.5 172,-76.5"/>
<text text-anchor="middle" x="216" y="-83.5" font-family="Helvetica,sans-Serif" font-size="10.00" fill="#000000">test_final_sigma</text>
</a>
</g>
</g>
<!-- Node416756&#45;&gt;Node417191 -->
<g id="edge18" class="edge">
<title>Node416756&#45;&gt;Node417191</title>
<path fill="none" stroke="#191970" d="M61.6555,-247.2403C71.8802,-221.2119 103.2545,-149.4444 152,-110 157.0246,-105.9341 162.8084,-102.5119 168.8008,-99.6436"/>
<polygon fill="#191970" stroke="#191970" points="170.4904,-102.7278 178.3101,-95.5791 167.7392,-96.2911 170.4904,-102.7278"/>
</g>
<!-- Node416758 -->
<g id="node3" class="node">
<title>Node416758</title>
<g id="a_node3"><a xlink:href="quickjs_8c.html#aa059f309c30fd5166d16c82a97973146" target="_top" xlink:title="__JS_FreeValue">
<polygon fill="none" stroke="#000000" points="723,-417.5 723,-436.5 812,-436.5 812,-417.5 723,-417.5"/>
<text text-anchor="middle" x="767.5" y="-424.5" font-family="Helvetica,sans-Serif" font-size="10.00" fill="#000000">__JS_FreeValue</text>
</a>
</g>
</g>
<!-- Node416757&#45;&gt;Node416758 -->
<g id="edge2" class="edge">
<title>Node416757&#45;&gt;Node416758</title>
<path fill="none" stroke="#191970" d="M683.0762,-427C692.412,-427 702.5507,-427 712.4566,-427"/>
<polygon fill="#191970" stroke="#191970" points="712.6517,-430.5001 722.6517,-427 712.6517,-423.5001 712.6517,-430.5001"/>
</g>
<!-- Node416759 -->
<g id="node4" class="node">
<title>Node416759</title>
<g id="a_node4"><a xlink:href="quickjs_8c.html#ab1ea3fad7d138be12144a38be4d36423" target="_top" xlink:title="__JS_FreeValueRT">
<polygon fill="none" stroke="#ff0000" points="848,-417.5 848,-436.5 950,-436.5 950,-417.5 848,-417.5"/>
<text text-anchor="middle" x="899" y="-424.5" font-family="Helvetica,sans-Serif" font-size="10.00" fill="#000000">__JS_FreeValueRT</text>
</a>
</g>
</g>
<!-- Node416758&#45;&gt;Node416759 -->
<g id="edge3" class="edge">
<title>Node416758&#45;&gt;Node416759</title>
<path fill="none" stroke="#191970" d="M812.0199,-427C820.2672,-427 829.0138,-427 837.6583,-427"/>
<polygon fill="#191970" stroke="#191970" points="837.7233,-430.5001 847.7233,-427 837.7232,-423.5001 837.7233,-430.5001"/>
</g>
<!-- Node416796 -->
<g id="node7" class="node">
<title>Node416796</title>
<g id="a_node7"><a xlink:href="quickjs_8c.html#a7bcb8e1a20cbc8374a5f9ba4a2088cec" target="_top" xlink:title="JS_ToString">
<polygon fill="none" stroke="#000000" points="335.5,-380.5 335.5,-399.5 406.5,-399.5 406.5,-380.5 335.5,-380.5"/>
<text text-anchor="middle" x="371" y="-387.5" font-family="Helvetica,sans-Serif" font-size="10.00" fill="#000000">JS_ToString</text>
</a>
</g>
</g>
<!-- Node416795&#45;&gt;Node416796 -->
<g id="edge6" class="edge">
<title>Node416795&#45;&gt;Node416796</title>
<path fill="none" stroke="#191970" d="M280.3874,-390C295.3668,-390 311.0194,-390 325.0183,-390"/>
<polygon fill="#191970" stroke="#191970" points="325.3624,-393.5001 335.3624,-390 325.3623,-386.5001 325.3624,-393.5001"/>
</g>
<!-- Node416797 -->
<g id="node8" class="node">
<title>Node416797</title>
<g id="a_node8"><a xlink:href="quickjs_8c.html#a46d6ebdd8c73102fd9e02a89b1f1d09a" target="_top" xlink:title="JS_ToStringInternal">
<polygon fill="none" stroke="#ff0000" points="462,-380.5 462,-399.5 565,-399.5 565,-380.5 462,-380.5"/>
<text text-anchor="middle" x="513.5" y="-387.5" font-family="Helvetica,sans-Serif" font-size="10.00" fill="#000000">JS_ToStringInternal</text>
</a>
</g>
</g>
<!-- Node416796&#45;&gt;Node416797 -->
<g id="edge7" class="edge">
<title>Node416796&#45;&gt;Node416797</title>
<path fill="none" stroke="#191970" d="M406.5912,-390C420.3188,-390 436.4258,-390 451.9124,-390"/>
<polygon fill="#191970" stroke="#191970" points="451.9685,-393.5001 461.9685,-390 451.9684,-386.5001 451.9685,-393.5001"/>
</g>
<!-- Node416797&#45;&gt;Node416757 -->
<g id="edge8" class="edge">
<title>Node416797&#45;&gt;Node416757</title>
<path fill="none" stroke="#191970" d="M547.107,-399.5284C563.2683,-404.1105 582.8467,-409.6615 600.1625,-414.571"/>
<polygon fill="#191970" stroke="#191970" points="599.4778,-418.0147 610.0533,-417.3753 601.3873,-411.2802 599.4778,-418.0147"/>
</g>
<!-- Node416797&#45;&gt;Node416794 -->
<g id="edge9" class="edge">
<title>Node416797&#45;&gt;Node416794</title>
<path fill="none" stroke="#191970" d="M565.0771,-382.4907C573.485,-381.2666 582.21,-379.9962 590.6593,-378.7661"/>
<polygon fill="#191970" stroke="#191970" points="591.3975,-382.1956 600.7889,-377.2913 590.389,-375.2686 591.3975,-382.1956"/>
</g>
<!-- Node416797&#45;&gt;Node416797 -->
<g id="edge10" class="edge">
<title>Node416797&#45;&gt;Node416797</title>
<path fill="none" stroke="#191970" d="M493.4632,-399.7571C483.7156,-408.5653 490.3945,-418 513.5,-418 528.3019,-418 536.3624,-414.128 537.6814,-409.0292"/>
<polygon fill="#191970" stroke="#191970" points="540.813,-407.4582 533.5368,-399.7571 534.4224,-410.3148 540.813,-407.4582"/>
</g>
<!-- Node416814 -->
<g id="node14" class="node">
<title>Node416814</title>
<g id="a_node14"><a xlink:href="quickjs_8c.html#a9b8fb6b5ce638616691f7bf7881fa57d" target="_top" xlink:title="string_buffer_putc16">
<polygon fill="none" stroke="#ff0000" points="318.5,-152.5 318.5,-171.5 423.5,-171.5 423.5,-152.5 318.5,-152.5"/>
<text text-anchor="middle" x="371" y="-159.5" font-family="Helvetica,sans-Serif" font-size="10.00" fill="#000000">string_buffer_putc16</text>
</a>
</g>
</g>
<!-- Node417189&#45;&gt;Node416814 -->
<g id="edge16" class="edge">
<title>Node417189&#45;&gt;Node416814</title>
<path fill="none" stroke="#191970" d="M263.7699,-162C277.7907,-162 293.3417,-162 308.1519,-162"/>
<polygon fill="#191970" stroke="#191970" points="308.2588,-165.5001 318.2588,-162 308.2587,-158.5001 308.2588,-165.5001"/>
</g>
<!-- Node417191&#45;&gt;Node417190 -->
<g id="edge23" class="edge">
<title>Node417191&#45;&gt;Node417190</title>
<path fill="none" stroke="#191970" d="M255.113,-95.589C277.534,-101.0858 305.6897,-107.9884 328.6338,-113.6135"/>
<polygon fill="#191970" stroke="#191970" points="327.8962,-117.0362 338.442,-116.018 329.563,-110.2375 327.8962,-117.0362"/>
</g>
<!-- Node417192 -->
<g id="node17" class="node">
<title>Node417192</title>
<g id="a_node17"><a xlink:href="libunicode_8c.html#a017df7a4ffd8f22c30735d8c9fa313ec" target="_top" xlink:title="lre_is_case_ignorable">
<polygon fill="none" stroke="#000000" points="316,-.5 316,-19.5 426,-19.5 426,-.5 316,-.5"/>
<text text-anchor="middle" x="371" y="-7.5" font-family="Helvetica,sans-Serif" font-size="10.00" fill="#000000">lre_is_case_ignorable</text>
</a>
</g>
</g>
<!-- Node417191&#45;&gt;Node417192 -->
<g id="edge19" class="edge">
<title>Node417191&#45;&gt;Node417192</title>
<path fill="none" stroke="#191970" d="M230.7884,-76.4087C249.9121,-64.2809 284.5092,-43.2653 316,-29 320.6543,-26.8916 325.6163,-24.8747 330.5829,-22.9954"/>
<polygon fill="#191970" stroke="#191970" points="331.8491,-26.2593 340.0596,-19.5632 329.4654,-19.6777 331.8491,-26.2593"/>
</g>
<!-- Node417196 -->
<g id="node19" class="node">
<title>Node417196</title>
<g id="a_node19"><a xlink:href="libunicode_8c.html#a44a954902c2b80c209810addcdd22c90" target="_top" xlink:title="lre_is_cased">
<polygon fill="none" stroke="#000000" points="335.5,-76.5 335.5,-95.5 406.5,-95.5 406.5,-76.5 335.5,-76.5"/>
<text text-anchor="middle" x="371" y="-83.5" font-family="Helvetica,sans-Serif" font-size="10.00" fill="#000000">lre_is_cased</text>
</a>
</g>
</g>
<!-- Node417191&#45;&gt;Node417196 -->
<g id="edge21" class="edge">
<title>Node417191&#45;&gt;Node417196</title>
<path fill="none" stroke="#191970" d="M260.0022,-86C280.4452,-86 304.7389,-86 325.3791,-86"/>
<polygon fill="#191970" stroke="#191970" points="325.4915,-89.5001 335.4915,-86 325.4915,-82.5001 325.4915,-89.5001"/>
</g>
<!-- Node417197 -->
<g id="node20" class="node">
<title>Node417197</title>
<g id="a_node20"><a xlink:href="quickjs_8c.html#acf73acfeb3f86ca3b5bf4793a1a4d432" target="_top" xlink:title="string_prevc">
<polygon fill="none" stroke="#000000" points="336,-38.5 336,-57.5 406,-57.5 406,-38.5 336,-38.5"/>
<text text-anchor="middle" x="371" y="-45.5" font-family="Helvetica,sans-Serif" font-size="10.00" fill="#000000">string_prevc</text>
</a>
</g>
</g>
<!-- Node417191&#45;&gt;Node417197 -->
<g id="edge24" class="edge">
<title>Node417191&#45;&gt;Node417197</title>
<path fill="none" stroke="#191970" d="M255.113,-76.411C276.6558,-71.1296 303.4927,-64.5502 325.9142,-59.0533"/>
<polygon fill="#191970" stroke="#191970" points="326.9915,-62.3929 335.8705,-56.6124 325.3247,-55.5942 326.9915,-62.3929"/>
</g>
<!-- Node417193 -->
<g id="node18" class="node">
<title>Node417193</title>
<g id="a_node18"><a xlink:href="libunicode_8c.html#a599cfa52b8ac7992138dc50f748e2a03" target="_top" xlink:title="lre_is_in_table">
<polygon fill="none" stroke="#ff0000" points="474,-38.5 474,-57.5 553,-57.5 553,-38.5 474,-38.5"/>
<text text-anchor="middle" x="513.5" y="-45.5" font-family="Helvetica,sans-Serif" font-size="10.00" fill="#000000">lre_is_in_table</text>
</a>
</g>
</g>
<!-- Node417192&#45;&gt;Node417193 -->
<g id="edge20" class="edge">
<title>Node417192&#45;&gt;Node417193</title>
<path fill="none" stroke="#191970" d="M406.9588,-19.589C425.4385,-24.5169 448.1558,-30.5749 467.8591,-35.8291"/>
<polygon fill="#191970" stroke="#191970" points="466.9885,-39.2192 477.5527,-38.4141 468.7922,-32.4555 466.9885,-39.2192"/>
</g>
<!-- Node417196&#45;&gt;Node417193 -->
<g id="edge22" class="edge">
<title>Node417196&#45;&gt;Node417193</title>
<path fill="none" stroke="#191970" d="M406.5912,-76.509C425.209,-71.5443 448.2034,-65.4124 468.0908,-60.1091"/>
<polygon fill="#191970" stroke="#191970" points="469.1082,-63.4602 477.8687,-57.5017 467.3045,-56.6966 469.1082,-63.4602"/>
</g>
</g>
</svg>
        <g id="navigator" transform="translate(0 0)" fill="#404254">
                <rect fill="#f2f5e9" fill-opacity="0.5" stroke="#606060" stroke-width=".5" x="0" y="0" width="60" height="60"/>
                <use id="zoomplus" xlink:href="#zoomPlus" x="17" y="9" onmousedown="handleZoom(evt,'in')"/>
                <use id="zoomminus" xlink:href="#zoomMin" x="42" y="9" onmousedown="handleZoom(evt,'out')"/>
                <use id="reset" xlink:href="#resetDef" x="30" y="36" onmousedown="handleReset()"/>
                <g id="arrowUp" xlink:href="#dirArrow" transform="translate(30 24)" onmousedown="handlePan(0,-1)">
                  <use xlink:href="#rim" fill="#404040">
                        <set attributeName="fill" to="#808080" begin="arrowUp.mouseover" end="arrowUp.mouseout"/>
                  </use>
                  <path fill="none" stroke="white" stroke-width="1.5" d="M0,-3.0v7 M-2.5,-0.5L0,-3.0L2.5,-0.5"/>
                </g>
                <g id="arrowRight" xlink:href="#dirArrow" transform="rotate(90) translate(36 -43)" onmousedown="handlePan(1,0)">
                  <use xlink:href="#rim" fill="#404040">
                        <set attributeName="fill" to="#808080" begin="arrowRight.mouseover" end="arrowRight.mouseout"/>
                  </use>
                  <path fill="none" stroke="white" stroke-width="1.5" d="M0,-3.0v7 M-2.5,-0.5L0,-3.0L2.5,-0.5"/>
                </g>
                <g id="arrowDown" xlink:href="#dirArrow" transform="rotate(180) translate(-30 -48)" onmousedown="handlePan(0,1)">
                  <use xlink:href="#rim" fill="#404040">
                        <set attributeName="fill" to="#808080" begin="arrowDown.mouseover" end="arrowDown.mouseout"/>
                  </use>
                  <path fill="none" stroke="white" stroke-width="1.5" d="M0,-3.0v7 M-2.5,-0.5L0,-3.0L2.5,-0.5"/>
                </g>
                <g id="arrowLeft" xlink:href="#dirArrow" transform="rotate(270) translate(-36 17)" onmousedown="handlePan(-1,0)">
                  <use xlink:href="#rim" fill="#404040">
                        <set attributeName="fill" to="#808080" begin="arrowLeft.mouseover" end="arrowLeft.mouseout"/>
                  </use>
                  <path fill="none" stroke="white" stroke-width="1.5" d="M0,-3.0v7 M-2.5,-0.5L0,-3.0L2.5,-0.5"/>
                </g>
        </g>
        <svg viewBox="0 0 15 15" width="100%" height="30px" preserveAspectRatio="xMaxYMin meet">
         <g id="arrow_out" transform="scale(0.3 0.3)">
          <a xlink:href="quickjs_8c_a3e0cdeed1c6f41927e75164d350e25bf_cgraph_org.svg" target="_base">
           <rect id="button" ry="5" rx="5" y="6" x="6" height="38" width="38"
                fill="#f2f5e9" fill-opacity="0.5" stroke="#606060" stroke-width="1.0"/>
           <path id="arrow"
             d="M 11.500037,31.436501 C 11.940474,20.09759 22.043105,11.32322 32.158766,21.979434 L 37.068811,17.246167 C 37.068811,17.246167 37.088388,32 37.088388,32 L 22.160133,31.978069 C 22.160133,31.978069 26.997745,27.140456 26.997745,27.140456 C 18.528582,18.264221 13.291696,25.230495 11.500037,31.436501 z"
             style="fill:#404040;"/>
          </a>
         </g>
        </svg>
</svg>
