<?xml version="1.0" encoding="UTF-8" standalone="no"?>
<!DOCTYPE svg PUBLIC "-//W3C//DTD SVG 1.1//EN"
 "http://www.w3.org/Graphics/SVG/1.1/DTD/svg11.dtd">
<!-- Generated by graphviz version 2.40.1 (20161225.0304)
 -->
<!-- Title: js_dynamic_import Pages: 1 -->
<svg width="783pt" height="844pt"
 viewBox="0.00 0.00 783.00 844.00" xmlns="http://www.w3.org/2000/svg" xmlns:xlink="http://www.w3.org/1999/xlink">
<g id="graph0" class="graph" transform="scale(1 1) rotate(0) translate(4 840)">
<title>js_dynamic_import</title>
<!-- Node27632 -->
<g id="node1" class="node">
<title>Node27632</title>
<polygon fill="#bfbfbf" stroke="#000000" points="0,-550.5 0,-569.5 98,-569.5 98,-550.5 0,-550.5"/>
<text text-anchor="middle" x="49" y="-557.5" font-family="Helvetica,sans-Serif" font-size="10.00" fill="#000000">js_dynamic_import</text>
</g>
<!-- Node27633 -->
<g id="node2" class="node">
<title>Node27633</title>
<g id="a_node2"><a xlink:href="quickjs_8c.html#afa67965c1017685fc6783776d6d0d4d7" target="_top" xlink:title="JS_AtomToValue">
<polygon fill="none" stroke="#000000" points="163.5,-759.5 163.5,-778.5 256.5,-778.5 256.5,-759.5 163.5,-759.5"/>
<text text-anchor="middle" x="210" y="-766.5" font-family="Helvetica,sans-Serif" font-size="10.00" fill="#000000">JS_AtomToValue</text>
</a>
</g>
</g>
<!-- Node27632&#45;&gt;Node27633 -->
<g id="edge1" class="edge">
<title>Node27632&#45;&gt;Node27633</title>
<path fill="none" stroke="#191970" d="M51.4841,-569.8053C59.1313,-598.2194 84.8281,-681.7128 134,-731 144.3961,-741.4205 158.234,-749.4908 171.2513,-755.4599"/>
<polygon fill="#191970" stroke="#191970" points="169.9541,-758.7118 180.524,-759.4385 172.7143,-752.2789 169.9541,-758.7118"/>
</g>
<!-- Node27662 -->
<g id="node8" class="node">
<title>Node27662</title>
<g id="a_node8"><a xlink:href="quickjs_8c.html#a6357b7fdae71c70c140e78e6c20cb5c2" target="_top" xlink:title="js_dynamic_import_job">
<polygon fill="none" stroke="#000000" points="152,-360.5 152,-379.5 268,-379.5 268,-360.5 152,-360.5"/>
<text text-anchor="middle" x="210" y="-367.5" font-family="Helvetica,sans-Serif" font-size="10.00" fill="#000000">js_dynamic_import_job</text>
</a>
</g>
</g>
<!-- Node27632&#45;&gt;Node27662 -->
<g id="edge7" class="edge">
<title>Node27632&#45;&gt;Node27662</title>
<path fill="none" stroke="#191970" d="M57.2054,-550.3167C82.8221,-520.0857 161.5853,-427.1353 194.8854,-387.8371"/>
<polygon fill="#191970" stroke="#191970" points="197.8235,-389.7837 201.6181,-379.8917 192.483,-385.2583 197.8235,-389.7837"/>
</g>
<!-- Node27732 -->
<g id="node13" class="node">
<title>Node27732</title>
<g id="a_node13"><a xlink:href="quickjs_8h.html#ad80a83d73e9b7d872b88fbf2943aebe9" target="_top" xlink:title="JS_IsException">
<polygon fill="none" stroke="#000000" points="513,-550.5 513,-569.5 599,-569.5 599,-550.5 513,-550.5"/>
<text text-anchor="middle" x="556" y="-557.5" font-family="Helvetica,sans-Serif" font-size="10.00" fill="#000000">JS_IsException</text>
</a>
</g>
</g>
<!-- Node27632&#45;&gt;Node27732 -->
<g id="edge38" class="edge">
<title>Node27632&#45;&gt;Node27732</title>
<path fill="none" stroke="#191970" d="M98.074,-560C193.6007,-560 403.8049,-560 502.648,-560"/>
<polygon fill="#191970" stroke="#191970" points="502.7136,-563.5001 512.7136,-560 502.7135,-556.5001 502.7136,-563.5001"/>
</g>
<!-- Node27721 -->
<g id="node17" class="node">
<title>Node27721</title>
<g id="a_node17"><a xlink:href="quickjs_8h.html#afaa20c47565bc704c6c85f3d77254e7d" target="_top" xlink:title="JS_FreeValue">
<polygon fill="none" stroke="#ff0000" points="517,-76.5 517,-95.5 595,-95.5 595,-76.5 517,-76.5"/>
<text text-anchor="middle" x="556" y="-83.5" font-family="Helvetica,sans-Serif" font-size="10.00" fill="#000000">JS_FreeValue</text>
</a>
</g>
</g>
<!-- Node27632&#45;&gt;Node27721 -->
<g id="edge36" class="edge">
<title>Node27632&#45;&gt;Node27721</title>
<path fill="none" stroke="#191970" d="M50.5649,-550.3303C60.7348,-491.1478 123.3718,-176.8827 322,-71 385.8891,-36.9427 473.9459,-57.4459 521.755,-73.1381"/>
<polygon fill="#191970" stroke="#191970" points="520.7284,-76.4858 531.3229,-76.3923 522.9825,-69.8586 520.7284,-76.4858"/>
</g>
<!-- Node28053 -->
<g id="node26" class="node">
<title>Node28053</title>
<g id="a_node26"><a xlink:href="quickjs_8c.html#a39d815a00b3ec1aed21699396fb43869" target="_top" xlink:title="JS_EnqueueJob">
<polygon fill="none" stroke="#000000" points="166,-702.5 166,-721.5 254,-721.5 254,-702.5 166,-702.5"/>
<text text-anchor="middle" x="210" y="-709.5" font-family="Helvetica,sans-Serif" font-size="10.00" fill="#000000">JS_EnqueueJob</text>
</a>
</g>
</g>
<!-- Node27632&#45;&gt;Node28053 -->
<g id="edge33" class="edge">
<title>Node27632&#45;&gt;Node28053</title>
<path fill="none" stroke="#191970" d="M59.0713,-569.5083C85.8388,-594.7795 158.9959,-663.8471 192.6456,-695.6157"/>
<polygon fill="#191970" stroke="#191970" points="190.2584,-698.1754 199.9325,-702.4953 195.0639,-693.0854 190.2584,-698.1754"/>
</g>
<!-- Node27987 -->
<g id="node28" class="node">
<title>Node27987</title>
<g id="a_node28"><a xlink:href="quickjs_8c.html#a348e00fd4b934a113cb954052ec33a13" target="_top" xlink:title="js_get_script_or_module_name">
<polygon fill="none" stroke="#ff0000" points="134,-.5 134,-19.5 286,-19.5 286,-.5 134,-.5"/>
<text text-anchor="middle" x="210" y="-7.5" font-family="Helvetica,sans-Serif" font-size="10.00" fill="#000000">js_get_script_or_module_name</text>
</a>
</g>
</g>
<!-- Node27632&#45;&gt;Node27987 -->
<g id="edge37" class="edge">
<title>Node27632&#45;&gt;Node27987</title>
<path fill="none" stroke="#191970" d="M49.2181,-550.4184C50.8734,-485.9673 63.3931,-115.7212 134,-34 137.2227,-30.27 141.0202,-27.1134 145.1702,-24.4428"/>
<polygon fill="#191970" stroke="#191970" points="146.9752,-27.4459 154.1123,-19.6157 143.6499,-21.2861 146.9752,-27.4459"/>
</g>
<!-- Node28054 -->
<g id="node29" class="node">
<title>Node28054</title>
<g id="a_node29"><a xlink:href="quickjs_8c.html#a2287eaf81466a0d408341cdae08ed673" target="_top" xlink:title="JS_NewPromiseCapability">
<polygon fill="none" stroke="#000000" points="143,-588.5 143,-607.5 277,-607.5 277,-588.5 143,-588.5"/>
<text text-anchor="middle" x="210" y="-595.5" font-family="Helvetica,sans-Serif" font-size="10.00" fill="#000000">JS_NewPromiseCapability</text>
</a>
</g>
</g>
<!-- Node27632&#45;&gt;Node28054 -->
<g id="edge39" class="edge">
<title>Node27632&#45;&gt;Node28054</title>
<path fill="none" stroke="#191970" d="M89.6271,-569.589C110.9685,-574.6261 137.3119,-580.8438 159.9081,-586.1771"/>
<polygon fill="#191970" stroke="#191970" points="159.1284,-589.5891 169.665,-588.4799 160.7365,-582.7763 159.1284,-589.5891"/>
</g>
<!-- Node27634 -->
<g id="node3" class="node">
<title>Node27634</title>
<g id="a_node3"><a xlink:href="quickjs_8c.html#a06ff303a11e6641cbf1f6634e6a61811" target="_top" xlink:title="__JS_AtomToValue">
<polygon fill="none" stroke="#000000" points="337,-778.5 337,-797.5 441,-797.5 441,-778.5 337,-778.5"/>
<text text-anchor="middle" x="389" y="-785.5" font-family="Helvetica,sans-Serif" font-size="10.00" fill="#000000">__JS_AtomToValue</text>
</a>
</g>
</g>
<!-- Node27633&#45;&gt;Node27634 -->
<g id="edge2" class="edge">
<title>Node27633&#45;&gt;Node27634</title>
<path fill="none" stroke="#191970" d="M256.5629,-773.9424C278.0387,-776.222 303.8371,-778.9604 326.9363,-781.4122"/>
<polygon fill="#191970" stroke="#191970" points="326.6774,-784.9043 336.991,-782.4795 327.4163,-777.9434 326.6774,-784.9043"/>
</g>
<!-- Node27635 -->
<g id="node4" class="node">
<title>Node27635</title>
<g id="a_node4"><a xlink:href="quickjs_8c.html#a288254c06a39c9fca740a7abdad2834e" target="_top" xlink:title="__JS_AtomIsTaggedInt">
<polygon fill="none" stroke="#000000" points="496.5,-816.5 496.5,-835.5 615.5,-835.5 615.5,-816.5 496.5,-816.5"/>
<text text-anchor="middle" x="556" y="-823.5" font-family="Helvetica,sans-Serif" font-size="10.00" fill="#000000">__JS_AtomIsTaggedInt</text>
</a>
</g>
</g>
<!-- Node27634&#45;&gt;Node27635 -->
<g id="edge3" class="edge">
<title>Node27634&#45;&gt;Node27635</title>
<path fill="none" stroke="#191970" d="M431.1412,-797.589C453.3771,-802.6487 480.8482,-808.8996 504.3564,-814.2488"/>
<polygon fill="#191970" stroke="#191970" points="503.6345,-817.6739 514.1619,-816.4799 505.1877,-810.8484 503.6345,-817.6739"/>
</g>
<!-- Node27636 -->
<g id="node5" class="node">
<title>Node27636</title>
<g id="a_node5"><a xlink:href="quickjs_8c.html#a89f38938cee8077ce1fbba07946ed185" target="_top" xlink:title="__JS_AtomToUInt32">
<polygon fill="none" stroke="#000000" points="502,-778.5 502,-797.5 610,-797.5 610,-778.5 502,-778.5"/>
<text text-anchor="middle" x="556" y="-785.5" font-family="Helvetica,sans-Serif" font-size="10.00" fill="#000000">__JS_AtomToUInt32</text>
</a>
</g>
</g>
<!-- Node27634&#45;&gt;Node27636 -->
<g id="edge4" class="edge">
<title>Node27634&#45;&gt;Node27636</title>
<path fill="none" stroke="#191970" d="M441.3816,-788C457.3038,-788 474.9876,-788 491.6046,-788"/>
<polygon fill="#191970" stroke="#191970" points="491.788,-791.5001 501.788,-788 491.788,-784.5001 491.788,-791.5001"/>
</g>
<!-- Node27637 -->
<g id="node6" class="node">
<title>Node27637</title>
<g id="a_node6"><a xlink:href="quickjs_8c.html#a0ee6a3654a6016393fac5e1c108f403a" target="_top" xlink:title="JS_NewString">
<polygon fill="none" stroke="#ff0000" points="516,-740.5 516,-759.5 596,-759.5 596,-740.5 516,-740.5"/>
<text text-anchor="middle" x="556" y="-747.5" font-family="Helvetica,sans-Serif" font-size="10.00" fill="#000000">JS_NewString</text>
</a>
</g>
</g>
<!-- Node27634&#45;&gt;Node27637 -->
<g id="edge5" class="edge">
<title>Node27634&#45;&gt;Node27637</title>
<path fill="none" stroke="#191970" d="M431.1412,-778.411C453.8844,-773.2359 482.1044,-766.8146 505.959,-761.3866"/>
<polygon fill="#191970" stroke="#191970" points="506.9123,-764.7592 515.8865,-759.1276 505.3591,-757.9337 506.9123,-764.7592"/>
</g>
<!-- Node27661 -->
<g id="node7" class="node">
<title>Node27661</title>
<g id="a_node7"><a xlink:href="quickjs_8h.html#a775522f2d084fc8fa0fcb33f390006b4" target="_top" xlink:title="JS_DupValue">
<polygon fill="none" stroke="#000000" points="517.5,-664.5 517.5,-683.5 594.5,-683.5 594.5,-664.5 517.5,-664.5"/>
<text text-anchor="middle" x="556" y="-671.5" font-family="Helvetica,sans-Serif" font-size="10.00" fill="#000000">JS_DupValue</text>
</a>
</g>
</g>
<!-- Node27634&#45;&gt;Node27661 -->
<g id="edge6" class="edge">
<title>Node27634&#45;&gt;Node27661</title>
<path fill="none" stroke="#191970" d="M435.066,-778.4918C442.351,-775.9983 449.5874,-772.8821 456,-769 475.9016,-756.9518 475.2984,-747.1955 492,-731 506.5454,-716.8954 523.7249,-701.6683 536.6209,-690.5036"/>
<polygon fill="#191970" stroke="#191970" points="539.1078,-692.981 544.406,-683.806 534.5426,-687.6745 539.1078,-692.981"/>
</g>
<!-- Node27662&#45;&gt;Node27661 -->
<g id="edge26" class="edge">
<title>Node27662&#45;&gt;Node27661</title>
<path fill="none" stroke="#191970" d="M213.5199,-379.7971C231.1938,-428.8756 309.8886,-646.0073 322,-655 350.3053,-676.0168 447.2095,-677.3055 507.0757,-675.9316"/>
<polygon fill="#191970" stroke="#191970" points="507.1685,-679.4304 517.0734,-675.6697 506.9852,-672.4328 507.1685,-679.4304"/>
</g>
<!-- Node27663 -->
<g id="node9" class="node">
<title>Node27663</title>
<g id="a_node9"><a xlink:href="quickjs_8h.html#aa53b9197dc6d5770e3a080c1e335f7cb" target="_top" xlink:title="JS_IsString">
<polygon fill="none" stroke="#000000" points="355,-190.5 355,-209.5 423,-209.5 423,-190.5 355,-190.5"/>
<text text-anchor="middle" x="389" y="-197.5" font-family="Helvetica,sans-Serif" font-size="10.00" fill="#000000">JS_IsString</text>
</a>
</g>
</g>
<!-- Node27662&#45;&gt;Node27663 -->
<g id="edge8" class="edge">
<title>Node27662&#45;&gt;Node27663</title>
<path fill="none" stroke="#191970" d="M214.4445,-360.1343C227.115,-333.1524 266.14,-257.5836 322,-219 328.8604,-214.2614 336.8865,-210.697 344.9525,-208.0181"/>
<polygon fill="#191970" stroke="#191970" points="346.1123,-211.3259 354.7354,-205.1702 344.1557,-204.6049 346.1123,-211.3259"/>
</g>
<!-- Node27664 -->
<g id="node10" class="node">
<title>Node27664</title>
<g id="a_node10"><a xlink:href="quickjs_8c.html#a859d5c989a2aaecef1653b3ac279e108" target="_top" xlink:title="JS_ValueToAtom">
<polygon fill="none" stroke="#000000" points="342.5,-398.5 342.5,-417.5 435.5,-417.5 435.5,-398.5 342.5,-398.5"/>
<text text-anchor="middle" x="389" y="-405.5" font-family="Helvetica,sans-Serif" font-size="10.00" fill="#000000">JS_ValueToAtom</text>
</a>
</g>
</g>
<!-- Node27662&#45;&gt;Node27664 -->
<g id="edge9" class="edge">
<title>Node27662&#45;&gt;Node27664</title>
<path fill="none" stroke="#191970" d="M255.1693,-379.589C279.2159,-384.6939 308.9744,-391.0113 334.3194,-396.3918"/>
<polygon fill="#191970" stroke="#191970" points="333.6467,-399.8269 344.1556,-398.4799 335.1004,-392.9795 333.6467,-399.8269"/>
</g>
<!-- Node27662&#45;&gt;Node27732 -->
<g id="edge17" class="edge">
<title>Node27662&#45;&gt;Node27732</title>
<path fill="none" stroke="#191970" d="M226.2329,-379.534C247.6159,-391.7926 286.6551,-413.1466 322,-427 379.635,-449.5899 402.2185,-434.3462 456,-465 491.6559,-485.3227 524.3903,-521.0134 542.1339,-542.3863"/>
<polygon fill="#191970" stroke="#191970" points="539.5617,-544.771 548.5826,-550.3274 544.9956,-540.3582 539.5617,-544.771"/>
</g>
<!-- Node27739 -->
<g id="node16" class="node">
<title>Node27739</title>
<g id="a_node16"><a xlink:href="quickjs_8c.html#a7bcb8e1a20cbc8374a5f9ba4a2088cec" target="_top" xlink:title="JS_ToString">
<polygon fill="none" stroke="#ff0000" points="353.5,-512.5 353.5,-531.5 424.5,-531.5 424.5,-512.5 353.5,-512.5"/>
<text text-anchor="middle" x="389" y="-519.5" font-family="Helvetica,sans-Serif" font-size="10.00" fill="#000000">JS_ToString</text>
</a>
</g>
</g>
<!-- Node27662&#45;&gt;Node27739 -->
<g id="edge16" class="edge">
<title>Node27662&#45;&gt;Node27739</title>
<path fill="none" stroke="#191970" d="M215.3754,-379.7339C229.4698,-404.3332 270.0216,-469.4178 322,-503 328.4963,-507.1971 335.9295,-510.4831 343.4256,-513.0511"/>
<polygon fill="#191970" stroke="#191970" points="342.6575,-516.4756 353.243,-516.0298 344.6899,-509.7771 342.6575,-516.4756"/>
</g>
<!-- Node27662&#45;&gt;Node27721 -->
<g id="edge18" class="edge">
<title>Node27662&#45;&gt;Node27721</title>
<path fill="none" stroke="#191970" d="M210.7977,-360.3529C214.5875,-321.339 234.4336,-174.2665 322,-110 375.5936,-70.6668 455.6453,-71.6517 506.8365,-77.5839"/>
<polygon fill="#191970" stroke="#191970" points="506.6273,-81.0853 516.9877,-78.8689 507.5064,-74.1407 506.6273,-81.0853"/>
</g>
<!-- Node28025 -->
<g id="node18" class="node">
<title>Node28025</title>
<g id="a_node18"><a xlink:href="quickjs_8c.html#a23b6e7c4e6a3bddc1cdd2139dcdf1283" target="_top" xlink:title="js_host_resolve_imported\l_module">
<polygon fill="none" stroke="#ff0000" points="492,-153 492,-183 620,-183 620,-153 492,-153"/>
<text text-anchor="start" x="500" y="-171" font-family="Helvetica,sans-Serif" font-size="10.00" fill="#000000">js_host_resolve_imported</text>
<text text-anchor="middle" x="556" y="-160" font-family="Helvetica,sans-Serif" font-size="10.00" fill="#000000">_module</text>
</a>
</g>
</g>
<!-- Node27662&#45;&gt;Node28025 -->
<g id="edge19" class="edge">
<title>Node27662&#45;&gt;Node28025</title>
<path fill="none" stroke="#191970" d="M212.3044,-360.2842C220.5499,-327.941 251.9051,-223.559 322,-181 369.4866,-152.1679 432.8837,-150.3931 481.7112,-155.0151"/>
<polygon fill="#191970" stroke="#191970" points="481.5861,-158.5213 491.8984,-156.0911 482.3214,-151.56 481.5861,-158.5213"/>
</g>
<!-- Node27719 -->
<g id="node19" class="node">
<title>Node27719</title>
<g id="a_node19"><a xlink:href="quickjs_8c.html#ab7fc45a99935a1c0ba50b0216d9401a9" target="_top" xlink:title="JS_FreeAtom">
<polygon fill="none" stroke="#ff0000" points="677,-136.5 677,-155.5 754,-155.5 754,-136.5 677,-136.5"/>
<text text-anchor="middle" x="715.5" y="-143.5" font-family="Helvetica,sans-Serif" font-size="10.00" fill="#000000">JS_FreeAtom</text>
</a>
</g>
</g>
<!-- Node27662&#45;&gt;Node27719 -->
<g id="edge21" class="edge">
<title>Node27662&#45;&gt;Node27719</title>
<path fill="none" stroke="#191970" d="M211.4729,-360.2324C217.4376,-324.5155 243.3654,-200.4609 322,-150 432.7927,-78.9028 599.7323,-112.5669 675.5294,-133.5669"/>
<polygon fill="#191970" stroke="#191970" points="675.0284,-137.0632 685.6045,-136.4338 676.9442,-130.3305 675.0284,-137.0632"/>
</g>
<!-- Node28032 -->
<g id="node20" class="node">
<title>Node28032</title>
<g id="a_node20"><a xlink:href="quickjs_8c.html#a041f16b68daf31525cd76aa4794073ef" target="_top" xlink:title="js_resolve_module">
<polygon fill="none" stroke="#000000" points="340,-228.5 340,-247.5 438,-247.5 438,-228.5 340,-228.5"/>
<text text-anchor="middle" x="389" y="-235.5" font-family="Helvetica,sans-Serif" font-size="10.00" fill="#000000">js_resolve_module</text>
</a>
</g>
</g>
<!-- Node27662&#45;&gt;Node28032 -->
<g id="edge22" class="edge">
<title>Node27662&#45;&gt;Node28032</title>
<path fill="none" stroke="#191970" d="M219.9451,-360.3694C238.8536,-342.3393 281.7071,-302.8036 322,-275 333.9953,-266.7228 348.0106,-258.7464 360.1131,-252.3325"/>
<polygon fill="#191970" stroke="#191970" points="362.0698,-255.2604 369.3338,-247.5477 358.8456,-249.0471 362.0698,-255.2604"/>
</g>
<!-- Node27717 -->
<g id="node21" class="node">
<title>Node27717</title>
<g id="a_node21"><a xlink:href="quickjs_8c.html#adcabee55726eddca24893a78515c7ba2" target="_top" xlink:title="js_free_modules">
<polygon fill="none" stroke="#ff0000" points="345,-474.5 345,-493.5 433,-493.5 433,-474.5 345,-474.5"/>
<text text-anchor="middle" x="389" y="-481.5" font-family="Helvetica,sans-Serif" font-size="10.00" fill="#000000">js_free_modules</text>
</a>
</g>
</g>
<!-- Node27662&#45;&gt;Node27717 -->
<g id="edge25" class="edge">
<title>Node27662&#45;&gt;Node27717</title>
<path fill="none" stroke="#191970" d="M219.6647,-379.6752C238.1058,-397.6755 280.2116,-436.6011 322,-460 329.4387,-464.1652 337.7348,-467.8286 345.8858,-470.9582"/>
<polygon fill="#191970" stroke="#191970" points="344.7334,-474.2633 355.3275,-474.3849 347.1215,-467.6832 344.7334,-474.2633"/>
</g>
<!-- Node28033 -->
<g id="node22" class="node">
<title>Node28033</title>
<g id="a_node22"><a xlink:href="quickjs_8c.html#af38ab3d672d41db0fa7a75b5c24149e4" target="_top" xlink:title="JS_EvalFunction">
<polygon fill="none" stroke="#ff0000" points="343.5,-360.5 343.5,-379.5 434.5,-379.5 434.5,-360.5 343.5,-360.5"/>
<text text-anchor="middle" x="389" y="-367.5" font-family="Helvetica,sans-Serif" font-size="10.00" fill="#000000">JS_EvalFunction</text>
</a>
</g>
</g>
<!-- Node27662&#45;&gt;Node28033 -->
<g id="edge27" class="edge">
<title>Node27662&#45;&gt;Node28033</title>
<path fill="none" stroke="#191970" d="M268.1162,-370C288.9879,-370 312.4669,-370 333.1425,-370"/>
<polygon fill="#191970" stroke="#191970" points="333.3558,-373.5001 343.3558,-370 333.3558,-366.5001 333.3558,-373.5001"/>
</g>
<!-- Node28046 -->
<g id="node23" class="node">
<title>Node28046</title>
<g id="a_node23"><a xlink:href="quickjs_8c.html#a2f5aeb4e31e2001c555335ae5172165b" target="_top" xlink:title="js_get_module_ns">
<polygon fill="none" stroke="#ff0000" points="341.5,-626.5 341.5,-645.5 436.5,-645.5 436.5,-626.5 341.5,-626.5"/>
<text text-anchor="middle" x="389" y="-633.5" font-family="Helvetica,sans-Serif" font-size="10.00" fill="#000000">js_get_module_ns</text>
</a>
</g>
</g>
<!-- Node27662&#45;&gt;Node28046 -->
<g id="edge28" class="edge">
<title>Node27662&#45;&gt;Node28046</title>
<path fill="none" stroke="#191970" d="M211.4042,-379.5198C217.3246,-416.1865 243.6705,-549.5774 322,-617 325.0569,-619.6312 328.4548,-621.8993 332.0529,-623.8543"/>
<polygon fill="#191970" stroke="#191970" points="330.7795,-627.1205 341.3292,-628.0972 333.6911,-620.7548 330.7795,-627.1205"/>
</g>
<!-- Node27900 -->
<g id="node24" class="node">
<title>Node27900</title>
<g id="a_node24"><a xlink:href="quickjs_8c.html#a1a4c02a29525d5cb2085dd8bca3af350" target="_top" xlink:title="JS_Call">
<polygon fill="none" stroke="#ff0000" points="363.5,-322.5 363.5,-341.5 414.5,-341.5 414.5,-322.5 363.5,-322.5"/>
<text text-anchor="middle" x="389" y="-329.5" font-family="Helvetica,sans-Serif" font-size="10.00" fill="#000000">JS_Call</text>
</a>
</g>
</g>
<!-- Node27662&#45;&gt;Node27900 -->
<g id="edge31" class="edge">
<title>Node27662&#45;&gt;Node27900</title>
<path fill="none" stroke="#191970" d="M255.1693,-360.411C285.6088,-353.949 325.2011,-345.5439 353.4077,-339.5559"/>
<polygon fill="#191970" stroke="#191970" points="354.1913,-342.9676 363.2465,-337.4672 352.7376,-336.1202 354.1913,-342.9676"/>
</g>
<!-- Node28052 -->
<g id="node25" class="node">
<title>Node28052</title>
<g id="a_node25"><a xlink:href="quickjs_8c.html#a8551eaac7ef616910807cebdc515760d" target="_top" xlink:title="JS_GetException">
<polygon fill="none" stroke="#000000" points="342.5,-284.5 342.5,-303.5 435.5,-303.5 435.5,-284.5 342.5,-284.5"/>
<text text-anchor="middle" x="389" y="-291.5" font-family="Helvetica,sans-Serif" font-size="10.00" fill="#000000">JS_GetException</text>
</a>
</g>
</g>
<!-- Node27662&#45;&gt;Node28052 -->
<g id="edge32" class="edge">
<title>Node27662&#45;&gt;Node28052</title>
<path fill="none" stroke="#191970" d="M226.2329,-360.466C247.6159,-348.2074 286.6551,-326.8534 322,-313 327.9098,-310.6836 334.2135,-308.5183 340.501,-306.5394"/>
<polygon fill="#191970" stroke="#191970" points="341.7416,-309.8212 350.309,-303.5883 339.7246,-303.118 341.7416,-309.8212"/>
</g>
<!-- Node27665 -->
<g id="node11" class="node">
<title>Node27665</title>
<g id="a_node11"><a xlink:href="quickjs_8c.html#a877fcb7651d95b411ce70e62b7f4a1f0" target="_top" xlink:title="__JS_AtomFromUInt32">
<polygon fill="none" stroke="#000000" points="656,-398.5 656,-417.5 775,-417.5 775,-398.5 656,-398.5"/>
<text text-anchor="middle" x="715.5" y="-405.5" font-family="Helvetica,sans-Serif" font-size="10.00" fill="#000000">__JS_AtomFromUInt32</text>
</a>
</g>
</g>
<!-- Node27664&#45;&gt;Node27665 -->
<g id="edge10" class="edge">
<title>Node27664&#45;&gt;Node27665</title>
<path fill="none" stroke="#191970" d="M416.1182,-417.5271C428.3335,-421.8666 442.9205,-427.1152 456,-432 472.0823,-438.0063 475.1271,-442.8346 492,-446 547.9135,-456.4894 564.1279,-456.7076 620,-446 644.0274,-441.3953 669.7099,-430.8236 688.3833,-421.997"/>
<polygon fill="#191970" stroke="#191970" points="690.0012,-425.1022 697.4635,-417.5812 686.9398,-418.8071 690.0012,-425.1022"/>
</g>
<!-- Node27666 -->
<g id="node12" class="node">
<title>Node27666</title>
<g id="a_node12"><a xlink:href="quickjs_8c.html#a35fd5681625c6d902357336edb6801e5" target="_top" xlink:title="JS_ToPropertyKey">
<polygon fill="none" stroke="#ff0000" points="506.5,-417.5 506.5,-436.5 605.5,-436.5 605.5,-417.5 506.5,-417.5"/>
<text text-anchor="middle" x="556" y="-424.5" font-family="Helvetica,sans-Serif" font-size="10.00" fill="#000000">JS_ToPropertyKey</text>
</a>
</g>
</g>
<!-- Node27664&#45;&gt;Node27666 -->
<g id="edge11" class="edge">
<title>Node27664&#45;&gt;Node27666</title>
<path fill="none" stroke="#191970" d="M435.5188,-413.2926C454.2571,-415.4245 476.1092,-417.9106 496.019,-420.1758"/>
<polygon fill="#191970" stroke="#191970" points="495.8951,-423.6842 506.2266,-421.3372 496.6864,-416.7291 495.8951,-423.6842"/>
</g>
<!-- Node27664&#45;&gt;Node27732 -->
<g id="edge12" class="edge">
<title>Node27664&#45;&gt;Node27732</title>
<path fill="none" stroke="#191970" d="M427.3914,-417.5309C437.2813,-421.0817 447.5173,-425.8078 456,-432 477.2524,-447.5139 475.8432,-458.2321 492,-479 508.9923,-500.8419 528.7693,-525.8029 541.7903,-542.1745"/>
<polygon fill="#191970" stroke="#191970" points="539.3018,-544.6682 548.2684,-550.3119 544.7783,-540.3084 539.3018,-544.6682"/>
</g>
<!-- Node27889 -->
<g id="node14" class="node">
<title>Node27889</title>
<g id="a_node14"><a xlink:href="quickjs_8c.html#a11498940707b6928b86da6844ef8f2a1" target="_top" xlink:title="js_symbol_to_atom">
<polygon fill="none" stroke="#000000" points="505.5,-379.5 505.5,-398.5 606.5,-398.5 606.5,-379.5 505.5,-379.5"/>
<text text-anchor="middle" x="556" y="-386.5" font-family="Helvetica,sans-Serif" font-size="10.00" fill="#000000">js_symbol_to_atom</text>
</a>
</g>
</g>
<!-- Node27664&#45;&gt;Node27889 -->
<g id="edge13" class="edge">
<title>Node27664&#45;&gt;Node27889</title>
<path fill="none" stroke="#191970" d="M435.5188,-402.7074C454.0106,-400.6036 475.5347,-398.1547 495.2321,-395.9137"/>
<polygon fill="#191970" stroke="#191970" points="495.8,-399.3718 505.3402,-394.7637 495.0087,-392.4166 495.8,-399.3718"/>
</g>
<!-- Node28024 -->
<g id="node15" class="node">
<title>Node28024</title>
<g id="a_node15"><a xlink:href="quickjs_8c.html#a33fd643aff7f70e649d246385cd99b00" target="_top" xlink:title="JS_NewAtomStr">
<polygon fill="none" stroke="#ff0000" points="511,-341.5 511,-360.5 601,-360.5 601,-341.5 511,-341.5"/>
<text text-anchor="middle" x="556" y="-348.5" font-family="Helvetica,sans-Serif" font-size="10.00" fill="#000000">JS_NewAtomStr</text>
</a>
</g>
</g>
<!-- Node27664&#45;&gt;Node28024 -->
<g id="edge14" class="edge">
<title>Node27664&#45;&gt;Node28024</title>
<path fill="none" stroke="#191970" d="M428.0806,-398.4047C437.3585,-395.7205 447.1332,-392.5515 456,-389 472.7945,-382.2731 475.247,-376.8298 492,-370 497.5693,-367.7295 503.5104,-365.5989 509.4437,-363.6446"/>
<polygon fill="#191970" stroke="#191970" points="510.8647,-366.8668 519.3546,-360.5287 508.7652,-360.1891 510.8647,-366.8668"/>
</g>
<!-- Node28024&#45;&gt;Node27665 -->
<g id="edge15" class="edge">
<title>Node28024&#45;&gt;Node27665</title>
<path fill="none" stroke="#191970" d="M590.3926,-360.5909C600.029,-363.4456 610.4724,-366.6977 620,-370 641.4375,-377.4302 665.1385,-386.8537 683.5662,-394.4575"/>
<polygon fill="#191970" stroke="#191970" points="682.3698,-397.7505 692.9472,-398.3587 685.0578,-391.2871 682.3698,-397.7505"/>
</g>
<!-- Node28025&#45;&gt;Node27719 -->
<g id="edge20" class="edge">
<title>Node28025&#45;&gt;Node27719</title>
<path fill="none" stroke="#191970" d="M620.415,-159.1152C635.721,-157.004 651.8101,-154.7848 666.311,-152.7847"/>
<polygon fill="#191970" stroke="#191970" points="667.1273,-156.2053 676.5552,-151.3717 666.1708,-149.271 667.1273,-156.2053"/>
</g>
<!-- Node28032&#45;&gt;Node28025 -->
<g id="edge23" class="edge">
<title>Node28032&#45;&gt;Node28025</title>
<path fill="none" stroke="#191970" d="M427.6931,-228.4171C437.0766,-225.714 446.996,-222.5335 456,-219 478.2943,-210.2508 502.2282,-198.1492 521.0901,-187.9298"/>
<polygon fill="#191970" stroke="#191970" points="522.8305,-190.9672 529.9127,-183.0872 519.4623,-184.8308 522.8305,-190.9672"/>
</g>
<!-- Node28032&#45;&gt;Node28032 -->
<g id="edge24" class="edge">
<title>Node28032&#45;&gt;Node28032</title>
<path fill="none" stroke="#191970" d="M363.4146,-247.7571C350.9676,-256.5653 359.4961,-266 389,-266 408.8229,-266 419.1772,-261.741 420.0629,-256.2746"/>
<polygon fill="#191970" stroke="#191970" points="422.9382,-254.2749 414.5854,-247.7571 417.0505,-258.0611 422.9382,-254.2749"/>
</g>
<!-- Node28046&#45;&gt;Node27661 -->
<g id="edge30" class="edge">
<title>Node28046&#45;&gt;Node27661</title>
<path fill="none" stroke="#191970" d="M431.1412,-645.589C454.3072,-650.8603 483.1553,-657.4246 507.2846,-662.9151"/>
<polygon fill="#191970" stroke="#191970" points="506.7792,-666.3894 517.3065,-665.1955 508.3323,-659.5639 506.7792,-666.3894"/>
</g>
<!-- Node28046&#45;&gt;Node27732 -->
<g id="edge29" class="edge">
<title>Node28046&#45;&gt;Node27732</title>
<path fill="none" stroke="#191970" d="M428.8702,-626.4049C437.933,-623.7552 447.415,-620.6014 456,-617 483.6803,-605.3883 513.3061,-587.7787 533.0642,-575.2077"/>
<polygon fill="#191970" stroke="#191970" points="535.1584,-578.0217 541.6621,-569.658 531.3622,-572.1405 535.1584,-578.0217"/>
</g>
<!-- Node28053&#45;&gt;Node27661 -->
<g id="edge34" class="edge">
<title>Node28053&#45;&gt;Node27661</title>
<path fill="none" stroke="#191970" d="M254.0534,-708.2618C303.3246,-703.9506 385.4774,-696.373 456,-688 472.565,-686.0333 490.6318,-683.5943 506.7953,-681.306"/>
<polygon fill="#191970" stroke="#191970" points="507.7039,-684.7117 517.1073,-679.8304 506.7123,-677.7823 507.7039,-684.7117"/>
</g>
<!-- Node27692 -->
<g id="node27" class="node">
<title>Node27692</title>
<g id="a_node27"><a xlink:href="list_8h.html#a3a5d0733570b2fafc18f4c71a2968ea5" target="_top" xlink:title="list_add_tail">
<polygon fill="none" stroke="#ff0000" points="355,-740.5 355,-759.5 423,-759.5 423,-740.5 355,-740.5"/>
<text text-anchor="middle" x="389" y="-747.5" font-family="Helvetica,sans-Serif" font-size="10.00" fill="#000000">list_add_tail</text>
</a>
</g>
</g>
<!-- Node28053&#45;&gt;Node27692 -->
<g id="edge35" class="edge">
<title>Node28053&#45;&gt;Node27692</title>
<path fill="none" stroke="#191970" d="M254.2472,-721.3933C281.9089,-727.2656 317.3971,-734.7994 345.0101,-740.6614"/>
<polygon fill="#191970" stroke="#191970" points="344.2891,-744.0862 354.7979,-742.7392 345.7428,-737.2388 344.2891,-744.0862"/>
</g>
<!-- Node28055 -->
<g id="node30" class="node">
<title>Node28055</title>
<g id="a_node30"><a xlink:href="quickjs_8c.html#a28c0ccdd26317bc38d0a693f1dffe4dc" target="_top" xlink:title="js_new_promise_capability">
<polygon fill="none" stroke="#ff0000" points="322,-588.5 322,-607.5 456,-607.5 456,-588.5 322,-588.5"/>
<text text-anchor="middle" x="389" y="-595.5" font-family="Helvetica,sans-Serif" font-size="10.00" fill="#000000">js_new_promise_capability</text>
</a>
</g>
</g>
<!-- Node28054&#45;&gt;Node28055 -->
<g id="edge40" class="edge">
<title>Node28054&#45;&gt;Node28055</title>
<path fill="none" stroke="#191970" d="M277.1623,-598C288.4412,-598 300.2257,-598 311.7352,-598"/>
<polygon fill="#191970" stroke="#191970" points="311.7591,-601.5001 321.7591,-598 311.7591,-594.5001 311.7591,-601.5001"/>
</g>
<!-- Node28055&#45;&gt;Node27661 -->
<g id="edge42" class="edge">
<title>Node28055&#45;&gt;Node27661</title>
<path fill="none" stroke="#191970" d="M428.8702,-607.5951C437.933,-610.2448 447.415,-613.3986 456,-617 483.6803,-628.6117 513.3061,-646.2213 533.0642,-658.7923"/>
<polygon fill="#191970" stroke="#191970" points="531.3622,-661.8595 541.6621,-664.342 535.1584,-655.9783 531.3622,-661.8595"/>
</g>
<!-- Node28055&#45;&gt;Node27732 -->
<g id="edge41" class="edge">
<title>Node28055&#45;&gt;Node27732</title>
<path fill="none" stroke="#191970" d="M431.1412,-588.411C453.3771,-583.3513 480.8482,-577.1004 504.3564,-571.7512"/>
<polygon fill="#191970" stroke="#191970" points="505.1877,-575.1516 514.1619,-569.5201 503.6345,-568.3261 505.1877,-575.1516"/>
</g>
<!-- Node28055&#45;&gt;Node27721 -->
<g id="edge43" class="edge">
<title>Node28055&#45;&gt;Node27721</title>
<path fill="none" stroke="#191970" d="M406.6661,-588.3857C422.5579,-578.6924 445.04,-562.1534 456,-541 537.7078,-383.2993 412.0861,-301.6173 492,-143 500.7041,-125.7237 517.0749,-111.2935 531.0799,-101.2745"/>
<polygon fill="#191970" stroke="#191970" points="533.0987,-104.1344 539.4045,-95.6204 529.1657,-98.3437 533.0987,-104.1344"/>
</g>
</g>
</svg>
