<?xml version="1.0" encoding="UTF-8" standalone="no"?>
<!DOCTYPE svg PUBLIC "-//W3C//DTD SVG 1.1//EN"
 "http://www.w3.org/Graphics/SVG/1.1/DTD/svg11.dtd">
<!-- Generated by graphviz version 2.40.1 (20161225.0304)
 -->
<!-- Title: dbuf_put_leb128 Pages: 1 -->
<svg width="831pt" height="424pt"
 viewBox="0.00 0.00 831.00 424.42" xmlns="http://www.w3.org/2000/svg" xmlns:xlink="http://www.w3.org/1999/xlink">
<g id="graph0" class="graph" transform="scale(1 1) rotate(0) translate(4 420.4223)">
<title>dbuf_put_leb128</title>
<!-- Node159481 -->
<g id="node1" class="node">
<title>Node159481</title>
<polygon fill="#bfbfbf" stroke="#000000" points="0,-38.5 0,-57.5 88,-57.5 88,-38.5 0,-38.5"/>
<text text-anchor="middle" x="44" y="-45.5" font-family="Helvetica,sans-Serif" font-size="10.00" fill="#000000">dbuf_put_leb128</text>
</g>
<!-- Node159482 -->
<g id="node2" class="node">
<title>Node159482</title>
<g id="a_node2"><a xlink:href="quickjs_8c.html#a5c417bcd8453a3ab8f4ced37e8f86bf2" target="_top" xlink:title="bc_put_leb128">
<polygon fill="none" stroke="#000000" points="130.5,-228.5 130.5,-247.5 210.5,-247.5 210.5,-228.5 130.5,-228.5"/>
<text text-anchor="middle" x="170.5" y="-235.5" font-family="Helvetica,sans-Serif" font-size="10.00" fill="#000000">bc_put_leb128</text>
</a>
</g>
</g>
<!-- Node159481&#45;&gt;Node159482 -->
<g id="edge1" class="edge">
<title>Node159481&#45;&gt;Node159482</title>
<path fill="none" stroke="#191970" d="M56.0265,-66.0635C82.2169,-105.4008 143.6816,-197.7194 163.9142,-228.1083"/>
<polygon fill="#191970" stroke="#191970" points="58.9024,-64.0675 50.4471,-57.6833 53.0757,-67.9469 58.9024,-64.0675"/>
</g>
<!-- Node159496 -->
<g id="node13" class="node">
<title>Node159496</title>
<g id="a_node13"><a xlink:href="quickjs_8c.html#ac8f4450aa771cc138f5fd25086f1c106" target="_top" xlink:title="compute_pc2line_info">
<polygon fill="none" stroke="#000000" points="266,-.5 266,-19.5 377,-19.5 377,-.5 266,-.5"/>
<text text-anchor="middle" x="321.5" y="-7.5" font-family="Helvetica,sans-Serif" font-size="10.00" fill="#000000">compute_pc2line_info</text>
</a>
</g>
</g>
<!-- Node159481&#45;&gt;Node159496 -->
<g id="edge25" class="edge">
<title>Node159481&#45;&gt;Node159496</title>
<path fill="none" stroke="#191970" d="M89.6285,-36.0223C100.8097,-33.4037 112.7869,-30.8619 124,-29 171.5737,-21.1006 226.1805,-16.1588 265.8999,-13.3022"/>
<polygon fill="#191970" stroke="#191970" points="88.5307,-32.6865 79.6286,-38.4314 90.1702,-39.4918 88.5307,-32.6865"/>
</g>
<!-- Node159507 -->
<g id="node16" class="node">
<title>Node159507</title>
<g id="a_node16"><a xlink:href="quickjs_8c.html#a6adbc9d495ea79b1764fc21ed895e636" target="_top" xlink:title="dbuf_put_sleb128">
<polygon fill="none" stroke="#000000" points="124,-38.5 124,-57.5 217,-57.5 217,-38.5 124,-38.5"/>
<text text-anchor="middle" x="170.5" y="-45.5" font-family="Helvetica,sans-Serif" font-size="10.00" fill="#000000">dbuf_put_sleb128</text>
</a>
</g>
</g>
<!-- Node159481&#45;&gt;Node159507 -->
<g id="edge29" class="edge">
<title>Node159481&#45;&gt;Node159507</title>
<path fill="none" stroke="#191970" d="M98.444,-48C106.9287,-48 115.6291,-48 123.9182,-48"/>
<polygon fill="#191970" stroke="#191970" points="98.2436,-44.5001 88.2436,-48 98.2435,-51.5001 98.2436,-44.5001"/>
</g>
<!-- Node159483 -->
<g id="node3" class="node">
<title>Node159483</title>
<g id="a_node3"><a xlink:href="quickjs_8c.html#a55f34a1bb7e361c23cb8139c100a615f" target="_top" xlink:title="bc_put_atom">
<polygon fill="none" stroke="#000000" points="285,-152.5 285,-171.5 358,-171.5 358,-152.5 285,-152.5"/>
<text text-anchor="middle" x="321.5" y="-159.5" font-family="Helvetica,sans-Serif" font-size="10.00" fill="#000000">bc_put_atom</text>
</a>
</g>
</g>
<!-- Node159482&#45;&gt;Node159483 -->
<g id="edge2" class="edge">
<title>Node159482&#45;&gt;Node159483</title>
<path fill="none" stroke="#191970" d="M191.926,-222.6057C208.1409,-211.4313 231.2582,-196.4945 253,-186 264.5753,-180.4128 277.8011,-175.4678 289.5245,-171.5403"/>
<polygon fill="#191970" stroke="#191970" points="189.8678,-219.7741 183.6804,-228.3745 193.8806,-225.5097 189.8678,-219.7741"/>
</g>
<!-- Node159484 -->
<g id="node4" class="node">
<title>Node159484</title>
<g id="a_node4"><a xlink:href="quickjs_8c.html#a3da261d6aeb1d35f3fb47a0076752a57" target="_top" xlink:title="JS_WriteObjectTag">
<polygon fill="none" stroke="#000000" points="432,-152.5 432,-171.5 534,-171.5 534,-152.5 432,-152.5"/>
<text text-anchor="middle" x="483" y="-159.5" font-family="Helvetica,sans-Serif" font-size="10.00" fill="#000000">JS_WriteObjectTag</text>
</a>
</g>
</g>
<!-- Node159482&#45;&gt;Node159484 -->
<g id="edge17" class="edge">
<title>Node159482&#45;&gt;Node159484</title>
<path fill="none" stroke="#191970" d="M180.1683,-219.2532C193.183,-196.3231 218.7201,-158.6325 253,-143 322.0821,-111.4969 414.9181,-137.0441 458.4878,-152.4425"/>
<polygon fill="#191970" stroke="#191970" points="176.9275,-217.8867 175.2254,-228.3439 183.0772,-221.2305 176.9275,-217.8867"/>
</g>
<!-- Node159485 -->
<g id="node5" class="node">
<title>Node159485</title>
<g id="a_node5"><a xlink:href="quickjs_8c.html#aa9342f7444c1c9f8743d43aa4d7f89e3" target="_top" xlink:title="JS_WriteObjectRec">
<polygon fill="none" stroke="#ff0000" points="576,-228.5 576,-247.5 680,-247.5 680,-228.5 576,-228.5"/>
<text text-anchor="middle" x="628" y="-235.5" font-family="Helvetica,sans-Serif" font-size="10.00" fill="#000000">JS_WriteObjectRec</text>
</a>
</g>
</g>
<!-- Node159482&#45;&gt;Node159485 -->
<g id="edge23" class="edge">
<title>Node159482&#45;&gt;Node159485</title>
<path fill="none" stroke="#191970" d="M220.5596,-230.442C291.7278,-220.8285 426.1593,-206.8504 540,-219 557.4065,-220.8577 576.4261,-224.7266 592.3156,-228.4914"/>
<polygon fill="#191970" stroke="#191970" points="219.9566,-226.9919 210.5284,-231.825 220.9128,-233.9263 219.9566,-226.9919"/>
</g>
<!-- Node159486 -->
<g id="node6" class="node">
<title>Node159486</title>
<g id="a_node6"><a xlink:href="quickjs_8c.html#aba35628e2e963dca8fa201e6708046d6" target="_top" xlink:title="JS_WriteArray">
<polygon fill="none" stroke="#000000" points="729.5,-209.5 729.5,-228.5 809.5,-228.5 809.5,-209.5 729.5,-209.5"/>
<text text-anchor="middle" x="769.5" y="-216.5" font-family="Helvetica,sans-Serif" font-size="10.00" fill="#000000">JS_WriteArray</text>
</a>
</g>
</g>
<!-- Node159482&#45;&gt;Node159486 -->
<g id="edge16" class="edge">
<title>Node159482&#45;&gt;Node159486</title>
<path fill="none" stroke="#191970" d="M177.7908,-218.7572C189.1783,-191.8131 214.0083,-143.9133 253,-124 432.8538,-32.1476 688.1439,-170.3628 753.6861,-209.2843"/>
<polygon fill="#191970" stroke="#191970" points="174.4511,-217.6812 173.9648,-228.2649 180.945,-220.2945 174.4511,-217.6812"/>
</g>
<!-- Node159487 -->
<g id="node7" class="node">
<title>Node159487</title>
<g id="a_node7"><a xlink:href="quickjs_8c.html#ab24f0a3286c69433ab7e48dcc39c36cb" target="_top" xlink:title="JS_WriteTypedArray">
<polygon fill="none" stroke="#000000" points="716,-247.5 716,-266.5 823,-266.5 823,-247.5 716,-247.5"/>
<text text-anchor="middle" x="769.5" y="-254.5" font-family="Helvetica,sans-Serif" font-size="10.00" fill="#000000">JS_WriteTypedArray</text>
</a>
</g>
</g>
<!-- Node159482&#45;&gt;Node159487 -->
<g id="edge18" class="edge">
<title>Node159482&#45;&gt;Node159487</title>
<path fill="none" stroke="#191970" d="M174.8001,-257.609C183.3022,-291.2334 205.6875,-359.3236 253,-391 317.2362,-434.0071 348.7999,-404.9946 426,-409 476.5986,-411.6252 491.4852,-423.6091 540,-409 636.5545,-379.9249 729.8527,-295.5191 759.6694,-266.7436"/>
<polygon fill="#191970" stroke="#191970" points="178.1465,-256.5518 172.433,-247.6296 171.3355,-258.1674 178.1465,-256.5518"/>
</g>
<!-- Node159491 -->
<g id="node8" class="node">
<title>Node159491</title>
<g id="a_node8"><a xlink:href="quickjs_8c.html#a0c946fdd3a6def82765db148f99b8fba" target="_top" xlink:title="JS_WriteString">
<polygon fill="none" stroke="#000000" points="280,-266.5 280,-285.5 363,-285.5 363,-266.5 280,-266.5"/>
<text text-anchor="middle" x="321.5" y="-273.5" font-family="Helvetica,sans-Serif" font-size="10.00" fill="#000000">JS_WriteString</text>
</a>
</g>
</g>
<!-- Node159482&#45;&gt;Node159491 -->
<g id="edge11" class="edge">
<title>Node159482&#45;&gt;Node159491</title>
<path fill="none" stroke="#191970" d="M218.3431,-250.04C239.4386,-255.3488 263.8766,-261.4988 283.6703,-266.4799"/>
<polygon fill="#191970" stroke="#191970" points="219.1555,-246.6354 208.6037,-247.589 217.4471,-253.4237 219.1555,-246.6354"/>
</g>
<!-- Node159492 -->
<g id="node9" class="node">
<title>Node159492</title>
<g id="a_node9"><a xlink:href="quickjs_8c.html#a91942742587df191fbf0f17a2ede99ef" target="_top" xlink:title="JS_WriteObjectAtoms">
<polygon fill="none" stroke="#ff0000" points="426,-228.5 426,-247.5 540,-247.5 540,-228.5 426,-228.5"/>
<text text-anchor="middle" x="483" y="-235.5" font-family="Helvetica,sans-Serif" font-size="10.00" fill="#000000">JS_WriteObjectAtoms</text>
</a>
</g>
</g>
<!-- Node159482&#45;&gt;Node159492 -->
<g id="edge24" class="edge">
<title>Node159482&#45;&gt;Node159492</title>
<path fill="none" stroke="#191970" d="M220.7667,-238C276.8323,-238 367.3349,-238 425.995,-238"/>
<polygon fill="#191970" stroke="#191970" points="220.7142,-234.5001 210.7142,-238 220.7141,-241.5001 220.7142,-234.5001"/>
</g>
<!-- Node159493 -->
<g id="node10" class="node">
<title>Node159493</title>
<g id="a_node10"><a xlink:href="quickjs_8c.html#aded409755b8a76b40d57ec5fbe8d9653" target="_top" xlink:title="JS_WriteFunctionTag">
<polygon fill="none" stroke="#000000" points="427.5,-380.5 427.5,-399.5 538.5,-399.5 538.5,-380.5 427.5,-380.5"/>
<text text-anchor="middle" x="483" y="-387.5" font-family="Helvetica,sans-Serif" font-size="10.00" fill="#000000">JS_WriteFunctionTag</text>
</a>
</g>
</g>
<!-- Node159482&#45;&gt;Node159493 -->
<g id="edge14" class="edge">
<title>Node159482&#45;&gt;Node159493</title>
<path fill="none" stroke="#191970" d="M177.4737,-257.0702C188.7131,-284.8327 213.641,-335.7086 253,-360 305.6011,-392.4641 377.8142,-396.7826 427.2085,-395.0363"/>
<polygon fill="#191970" stroke="#191970" points="180.7075,-255.7285 173.8347,-247.6652 174.1791,-258.2545 180.7075,-255.7285"/>
</g>
<!-- Node159494 -->
<g id="node11" class="node">
<title>Node159494</title>
<g id="a_node11"><a xlink:href="quickjs_8c.html#aa1abbd3f9bc2fb523e3ff45f58fe42ab" target="_top" xlink:title="JS_WriteArrayBuffer">
<polygon fill="none" stroke="#000000" points="429.5,-342.5 429.5,-361.5 536.5,-361.5 536.5,-342.5 429.5,-342.5"/>
<text text-anchor="middle" x="483" y="-349.5" font-family="Helvetica,sans-Serif" font-size="10.00" fill="#000000">JS_WriteArrayBuffer</text>
</a>
</g>
</g>
<!-- Node159482&#45;&gt;Node159494 -->
<g id="edge19" class="edge">
<title>Node159482&#45;&gt;Node159494</title>
<path fill="none" stroke="#191970" d="M180.5848,-256.6415C193.8827,-279.1393 219.563,-316.0545 253,-333 308.2169,-360.9832 380.5584,-362.1102 429.2429,-358.6049"/>
<polygon fill="#191970" stroke="#191970" points="183.494,-254.6767 175.5097,-247.7123 177.4083,-258.1357 183.494,-254.6767"/>
</g>
<!-- Node159495 -->
<g id="node12" class="node">
<title>Node159495</title>
<g id="a_node12"><a xlink:href="quickjs_8c.html#a7d118830f69bffb6590c82bd3c077ac5" target="_top" xlink:title="JS_WriteSharedArrayBuffer">
<polygon fill="none" stroke="#000000" points="253,-304.5 253,-323.5 390,-323.5 390,-304.5 253,-304.5"/>
<text text-anchor="middle" x="321.5" y="-311.5" font-family="Helvetica,sans-Serif" font-size="10.00" fill="#000000">JS_WriteSharedArrayBuffer</text>
</a>
</g>
</g>
<!-- Node159482&#45;&gt;Node159495 -->
<g id="edge21" class="edge">
<title>Node159482&#45;&gt;Node159495</title>
<path fill="none" stroke="#191970" d="M189.8118,-254.1336C205.8461,-266.8173 229.7165,-284.1072 253,-295 261.0485,-298.7654 269.9882,-301.9157 278.6812,-304.499"/>
<polygon fill="#191970" stroke="#191970" points="191.7415,-251.1931 181.7634,-247.6308 187.3422,-256.638 191.7415,-251.1931"/>
</g>
<!-- Node159483&#45;&gt;Node159484 -->
<g id="edge3" class="edge">
<title>Node159483&#45;&gt;Node159484</title>
<path fill="none" stroke="#191970" d="M368.2192,-162C388.1333,-162 411.427,-162 431.8068,-162"/>
<polygon fill="#191970" stroke="#191970" points="368.1469,-158.5001 358.1468,-162 368.1468,-165.5001 368.1469,-158.5001"/>
</g>
<!-- Node159484&#45;&gt;Node159485 -->
<g id="edge4" class="edge">
<title>Node159484&#45;&gt;Node159485</title>
<path fill="none" stroke="#191970" d="M537.9323,-175.9706C538.6271,-176.3129 539.3166,-176.6562 540,-177 571.0712,-192.6315 606.1486,-214.8087 620.8843,-228.3848"/>
<polygon fill="#191970" stroke="#191970" points="539.2139,-172.7055 528.6757,-171.6108 536.2311,-179.0382 539.2139,-172.7055"/>
</g>
<!-- Node159485&#45;&gt;Node159484 -->
<g id="edge7" class="edge">
<title>Node159485&#45;&gt;Node159484</title>
<path fill="none" stroke="#191970" d="M591.942,-223.4804C576.2546,-214.675 557.4924,-203.8002 540,-195 523.5021,-186.7001 503.4425,-178.7192 492.0547,-171.6457"/>
<polygon fill="#191970" stroke="#191970" points="590.3488,-226.599 600.7904,-228.3943 593.7473,-220.4794 590.3488,-226.599"/>
</g>
<!-- Node159485&#45;&gt;Node159485 -->
<g id="edge10" class="edge">
<title>Node159485&#45;&gt;Node159485</title>
<path fill="none" stroke="#191970" d="M601.9584,-257.0292C603.3789,-262.128 612.0594,-266 628,-266 652.8828,-266 660.0755,-256.5653 649.5781,-247.7571"/>
<polygon fill="#191970" stroke="#191970" points="605.238,-258.2855 606.4219,-247.7571 598.9308,-255.2493 605.238,-258.2855"/>
</g>
<!-- Node159485&#45;&gt;Node159486 -->
<g id="edge5" class="edge">
<title>Node159485&#45;&gt;Node159486</title>
<path fill="none" stroke="#191970" d="M667.3366,-226.5981C686.7088,-223.1665 710.0239,-220.0263 729.4867,-218.2242"/>
<polygon fill="#191970" stroke="#191970" points="666.5056,-223.1927 657.3189,-228.4705 667.7917,-230.0735 666.5056,-223.1927"/>
</g>
<!-- Node159485&#45;&gt;Node159487 -->
<g id="edge8" class="edge">
<title>Node159485&#45;&gt;Node159487</title>
<path fill="none" stroke="#191970" d="M690.3487,-239.6644C707.624,-241.8086 725.577,-244.5872 740.0092,-247.4365"/>
<polygon fill="#191970" stroke="#191970" points="690.6281,-236.1732 680.2874,-238.4795 689.8093,-243.1251 690.6281,-236.1732"/>
</g>
<!-- Node159486&#45;&gt;Node159485 -->
<g id="edge6" class="edge">
<title>Node159486&#45;&gt;Node159485</title>
<path fill="none" stroke="#191970" d="M729.8138,-230.4638C714.4564,-233.1748 696.6625,-235.6996 680.2874,-237.5205"/>
<polygon fill="#191970" stroke="#191970" points="730.8198,-233.8366 740.0092,-228.5635 729.5372,-226.9551 730.8198,-233.8366"/>
</g>
<!-- Node159487&#45;&gt;Node159485 -->
<g id="edge9" class="edge">
<title>Node159487&#45;&gt;Node159485</title>
<path fill="none" stroke="#191970" d="M705.5276,-255.1325C688.687,-253.0087 671.3295,-250.3015 657.3189,-247.5295"/>
<polygon fill="#191970" stroke="#191970" points="705.567,-258.662 715.9119,-256.3747 706.3985,-251.7116 705.567,-258.662"/>
</g>
<!-- Node159491&#45;&gt;Node159485 -->
<g id="edge12" class="edge">
<title>Node159491&#45;&gt;Node159485</title>
<path fill="none" stroke="#191970" d="M373.423,-273.3301C417.8312,-270.6066 483.3575,-265.5428 540,-257 556.0732,-254.5758 573.6104,-250.9856 588.7694,-247.5767"/>
<polygon fill="#191970" stroke="#191970" points="372.9396,-269.8526 363.1652,-273.9406 373.3555,-276.8403 372.9396,-269.8526"/>
</g>
<!-- Node159491&#45;&gt;Node159492 -->
<g id="edge13" class="edge">
<title>Node159491&#45;&gt;Node159492</title>
<path fill="none" stroke="#191970" d="M372.0583,-264.1039C394.7588,-258.7626 421.1781,-252.5463 442.5398,-247.5201"/>
<polygon fill="#191970" stroke="#191970" points="371.1858,-260.7136 362.2533,-266.411 372.7891,-267.5275 371.1858,-260.7136"/>
</g>
<!-- Node159493&#45;&gt;Node159485 -->
<g id="edge15" class="edge">
<title>Node159493&#45;&gt;Node159485</title>
<path fill="none" stroke="#191970" d="M532.1553,-376.1025C534.9132,-374.5704 537.5539,-372.8751 540,-371 585.0463,-336.4696 614.3782,-271.9555 624.2773,-247.6211"/>
<polygon fill="#191970" stroke="#191970" points="530.5544,-372.9884 523.0431,-380.4604 533.5745,-379.3034 530.5544,-372.9884"/>
</g>
<!-- Node159494&#45;&gt;Node159485 -->
<g id="edge20" class="edge">
<title>Node159494&#45;&gt;Node159485</title>
<path fill="none" stroke="#191970" d="M521.3569,-338.3442C527.816,-335.3532 534.2747,-331.8966 540,-328 574.6864,-304.3929 606.8432,-265.5714 620.7537,-247.6362"/>
<polygon fill="#191970" stroke="#191970" points="519.7742,-335.2151 511.9788,-342.3901 522.5472,-341.6424 519.7742,-335.2151"/>
</g>
<!-- Node159495&#45;&gt;Node159485 -->
<g id="edge22" class="edge">
<title>Node159495&#45;&gt;Node159485</title>
<path fill="none" stroke="#191970" d="M400.59,-305.4459C442.5866,-299.6986 494.7345,-290.629 540,-277 565.1221,-269.436 592.5284,-256.4812 609.9684,-247.5928"/>
<polygon fill="#191970" stroke="#191970" points="399.8689,-302.0109 390.4185,-306.8005 400.793,-308.9497 399.8689,-302.0109"/>
</g>
<!-- Node159497 -->
<g id="node14" class="node">
<title>Node159497</title>
<g id="a_node14"><a xlink:href="quickjs_8c.html#ad0d311d4ce409584384f835f1a3e185a" target="_top" xlink:title="resolve_labels">
<polygon fill="none" stroke="#000000" points="443.5,-.5 443.5,-19.5 522.5,-19.5 522.5,-.5 443.5,-.5"/>
<text text-anchor="middle" x="483" y="-7.5" font-family="Helvetica,sans-Serif" font-size="10.00" fill="#000000">resolve_labels</text>
</a>
</g>
</g>
<!-- Node159496&#45;&gt;Node159497 -->
<g id="edge26" class="edge">
<title>Node159496&#45;&gt;Node159497</title>
<path fill="none" stroke="#191970" d="M387.2093,-10C406.2535,-10 426.4547,-10 443.3715,-10"/>
<polygon fill="#191970" stroke="#191970" points="387.0792,-6.5001 377.0791,-10 387.0791,-13.5001 387.0792,-6.5001"/>
</g>
<!-- Node159498 -->
<g id="node15" class="node">
<title>Node159498</title>
<g id="a_node15"><a xlink:href="quickjs_8c.html#a97fcc747d8b1c3644174745d2e2739be" target="_top" xlink:title="js_create_function">
<polygon fill="none" stroke="#ff0000" points="580,-.5 580,-19.5 676,-19.5 676,-.5 580,-.5"/>
<text text-anchor="middle" x="628" y="-7.5" font-family="Helvetica,sans-Serif" font-size="10.00" fill="#000000">js_create_function</text>
</a>
</g>
</g>
<!-- Node159497&#45;&gt;Node159498 -->
<g id="edge27" class="edge">
<title>Node159497&#45;&gt;Node159498</title>
<path fill="none" stroke="#191970" d="M532.8857,-10C548.1069,-10 564.8059,-10 579.9059,-10"/>
<polygon fill="#191970" stroke="#191970" points="532.6219,-6.5001 522.6219,-10 532.6219,-13.5001 532.6219,-6.5001"/>
</g>
<!-- Node159498&#45;&gt;Node159498 -->
<g id="edge28" class="edge">
<title>Node159498&#45;&gt;Node159498</title>
<path fill="none" stroke="#191970" d="M601.9584,-29.0292C603.3789,-34.128 612.0594,-38 628,-38 652.8828,-38 660.0755,-28.5653 649.5781,-19.7571"/>
<polygon fill="#191970" stroke="#191970" points="605.238,-30.2855 606.4219,-19.7571 598.9308,-27.2493 605.238,-30.2855"/>
</g>
<!-- Node159507&#45;&gt;Node159496 -->
<g id="edge30" class="edge">
<title>Node159507&#45;&gt;Node159496</title>
<path fill="none" stroke="#191970" d="M218.3431,-35.96C239.4386,-30.6512 263.8766,-24.5012 283.6703,-19.5201"/>
<polygon fill="#191970" stroke="#191970" points="217.4471,-32.5763 208.6037,-38.411 219.1555,-39.3646 217.4471,-32.5763"/>
</g>
<!-- Node159508 -->
<g id="node17" class="node">
<title>Node159508</title>
<g id="a_node17"><a xlink:href="quickjs_8c.html#a27f947bd87f87a0672cb81a01add8a02" target="_top" xlink:title="bc_put_sleb128">
<polygon fill="none" stroke="#000000" points="279,-38.5 279,-57.5 364,-57.5 364,-38.5 279,-38.5"/>
<text text-anchor="middle" x="321.5" y="-45.5" font-family="Helvetica,sans-Serif" font-size="10.00" fill="#000000">bc_put_sleb128</text>
</a>
</g>
</g>
<!-- Node159507&#45;&gt;Node159508 -->
<g id="edge31" class="edge">
<title>Node159507&#45;&gt;Node159508</title>
<path fill="none" stroke="#191970" d="M227.4669,-48C244.5525,-48 262.9878,-48 278.9702,-48"/>
<polygon fill="#191970" stroke="#191970" points="227.0371,-44.5001 217.0371,-48 227.0371,-51.5001 227.0371,-44.5001"/>
</g>
<!-- Node159508&#45;&gt;Node159485 -->
<g id="edge32" class="edge">
<title>Node159508&#45;&gt;Node159485</title>
<path fill="none" stroke="#191970" d="M364.07,-60.6652C410.1631,-75.6576 484.5191,-103.6525 540,-143 575.576,-168.2308 607.7687,-209.7777 621.2754,-228.4221"/>
<polygon fill="#191970" stroke="#191970" points="364.9897,-57.2848 354.3989,-57.5757 362.8595,-63.9528 364.9897,-57.2848"/>
</g>
</g>
</svg>
