<?xml version="1.0" encoding="UTF-8" standalone="no"?>
<!DOCTYPE svg PUBLIC "-//W3C//DTD SVG 1.1//EN"
 "http://www.w3.org/Graphics/SVG/1.1/DTD/svg11.dtd">
<!-- Generated by graphviz version 2.40.1 (20161225.0304)
 -->
<!-- Title: resolve_scope_private_field1 Pages: 1 -->
<svg width="504pt" height="78pt"
 viewBox="0.00 0.00 504.00 77.50" xmlns="http://www.w3.org/2000/svg" xmlns:xlink="http://www.w3.org/1999/xlink">
<g id="graph0" class="graph" transform="scale(1 1) rotate(0) translate(4 73.5)">
<title>resolve_scope_private_field1</title>
<!-- Node348748 -->
<g id="node1" class="node">
<title>Node348748</title>
<polygon fill="#bfbfbf" stroke="#000000" points="0,-17 0,-47 114,-47 114,-17 0,-17"/>
<text text-anchor="start" x="8" y="-35" font-family="Helvetica,sans-Serif" font-size="10.00" fill="#000000">resolve_scope_private</text>
<text text-anchor="middle" x="57" y="-24" font-family="Helvetica,sans-Serif" font-size="10.00" fill="#000000">_field1</text>
</g>
<!-- Node348749 -->
<g id="node2" class="node">
<title>Node348749</title>
<g id="a_node2"><a xlink:href="quickjs_8c.html#a4500ab6202868bd00cbb891641304650" target="_top" xlink:title="find_private_class\l_field_all">
<polygon fill="none" stroke="#000000" points="150,-39 150,-69 245,-69 245,-39 150,-39"/>
<text text-anchor="start" x="158" y="-57" font-family="Helvetica,sans-Serif" font-size="10.00" fill="#000000">find_private_class</text>
<text text-anchor="middle" x="197.5" y="-46" font-family="Helvetica,sans-Serif" font-size="10.00" fill="#000000">_field_all</text>
</a>
</g>
</g>
<!-- Node348748&#45;&gt;Node348749 -->
<g id="edge1" class="edge">
<title>Node348748&#45;&gt;Node348749</title>
<path fill="none" stroke="#191970" d="M114.1467,-40.9482C122.5726,-42.2676 131.2592,-43.6278 139.6983,-44.9492"/>
<polygon fill="#191970" stroke="#191970" points="139.414,-48.4473 149.8351,-46.5365 140.497,-41.5315 139.414,-48.4473"/>
</g>
<!-- Node348750 -->
<g id="node3" class="node">
<title>Node348750</title>
<g id="a_node3"><a xlink:href="quickjs_8c.html#a5067e8cf3633f10ec12c2f3ee9134c85" target="_top" xlink:title="get_closure_var">
<polygon fill="none" stroke="#000000" points="154.5,-.5 154.5,-19.5 240.5,-19.5 240.5,-.5 154.5,-.5"/>
<text text-anchor="middle" x="197.5" y="-7.5" font-family="Helvetica,sans-Serif" font-size="10.00" fill="#000000">get_closure_var</text>
</a>
</g>
</g>
<!-- Node348748&#45;&gt;Node348750 -->
<g id="edge2" class="edge">
<title>Node348748&#45;&gt;Node348750</title>
<path fill="none" stroke="#191970" d="M114.1467,-23.0518C124.0707,-21.4978 134.3564,-19.8873 144.1732,-18.3501"/>
<polygon fill="#191970" stroke="#191970" points="144.8608,-21.7852 154.1989,-16.7802 143.7778,-14.8694 144.8608,-21.7852"/>
</g>
<!-- Node348751 -->
<g id="node4" class="node">
<title>Node348751</title>
<g id="a_node4"><a xlink:href="quickjs_8c.html#a4671a759c33274b073d0578ac62261e0" target="_top" xlink:title="get_closure_var2">
<polygon fill="none" stroke="#000000" points="281,-.5 281,-19.5 372,-19.5 372,-.5 281,-.5"/>
<text text-anchor="middle" x="326.5" y="-7.5" font-family="Helvetica,sans-Serif" font-size="10.00" fill="#000000">get_closure_var2</text>
</a>
</g>
</g>
<!-- Node348750&#45;&gt;Node348751 -->
<g id="edge3" class="edge">
<title>Node348750&#45;&gt;Node348751</title>
<path fill="none" stroke="#191970" d="M240.814,-10C250.3751,-10 260.6349,-10 270.6145,-10"/>
<polygon fill="#191970" stroke="#191970" points="270.872,-13.5001 280.8719,-10 270.8719,-6.5001 270.872,-13.5001"/>
</g>
<!-- Node348751&#45;&gt;Node348751 -->
<g id="edge5" class="edge">
<title>Node348751&#45;&gt;Node348751</title>
<path fill="none" stroke="#191970" d="M307.388,-19.7571C298.0903,-28.5653 304.4609,-38 326.5,-38 340.6188,-38 348.3072,-34.128 349.5654,-29.0292"/>
<polygon fill="#191970" stroke="#191970" points="352.7537,-27.5831 345.612,-19.7571 346.3146,-30.3286 352.7537,-27.5831"/>
</g>
<!-- Node348752 -->
<g id="node5" class="node">
<title>Node348752</title>
<g id="a_node5"><a xlink:href="quickjs_8c.html#a9f64fb61a20cee1cad0eb2680624e341" target="_top" xlink:title="add_closure_var">
<polygon fill="none" stroke="#ff0000" points="408,-.5 408,-19.5 496,-19.5 496,-.5 408,-.5"/>
<text text-anchor="middle" x="452" y="-7.5" font-family="Helvetica,sans-Serif" font-size="10.00" fill="#000000">add_closure_var</text>
</a>
</g>
</g>
<!-- Node348751&#45;&gt;Node348752 -->
<g id="edge4" class="edge">
<title>Node348751&#45;&gt;Node348752</title>
<path fill="none" stroke="#191970" d="M372.1634,-10C380.4345,-10 389.1344,-10 397.6259,-10"/>
<polygon fill="#191970" stroke="#191970" points="397.8375,-13.5001 407.8375,-10 397.8375,-6.5001 397.8375,-13.5001"/>
</g>
</g>
</svg>
