<?xml version="1.0" encoding="UTF-8" standalone="no"?>
<!DOCTYPE svg PUBLIC "-//W3C//DTD SVG 1.1//EN"
 "http://www.w3.org/Graphics/SVG/1.1/DTD/svg11.dtd">
<!-- Generated by graphviz version 2.40.1 (20161225.0304)
 -->
<!-- Title: js_symbol_toString Pages: 1 -->
<!--zoomable 431 -->
<svg id="main" version="1.1" xmlns="http://www.w3.org/2000/svg" xmlns:xlink="http://www.w3.org/1999/xlink" xml:space="preserve" onload="init(evt)">
<style type="text/css"><![CDATA[
.edge:hover path { stroke: red; }
.edge:hover polygon { stroke: red; fill: red; }
]]></style>
<script type="text/javascript"><![CDATA[
var edges = document.getElementsByTagName('g');
if (edges && edges.length) {
  for (var i=0;i<edges.length;i++) {
    if (edges[i].id.substr(0,4)=='edge') {
      edges[i].setAttribute('class','edge');
    }
  }
}
]]></script>
        <defs>
                <circle id="rim" cx="0" cy="0" r="7"/>
                <circle id="rim2" cx="0" cy="0" r="3.5"/>
                <g id="zoomPlus">
                        <use xlink:href="#rim" fill="#404040">
                                <set attributeName="fill" to="#808080" begin="zoomplus.mouseover" end="zoomplus.mouseout"/>
                        </use>
                        <path d="M-4,0h8M0,-4v8" fill="none" stroke="white" stroke-width="1.5" pointer-events="none"/>
                </g>
                <g id="zoomMin">
                        <use xlink:href="#rim" fill="#404040">
                                <set attributeName="fill" to="#808080" begin="zoomminus.mouseover" end="zoomminus.mouseout"/>
                        </use>
                        <path d="M-4,0h8" fill="none" stroke="white" stroke-width="1.5" pointer-events="none"/>
                </g>
                <g id="dirArrow">
                        <path fill="none" stroke="white" stroke-width="1.5" d="M0,-3.0v7 M-2.5,-0.5L0,-3.0L2.5,-0.5"/>
                </g>
               <g id="resetDef">
                       <use xlink:href="#rim2" fill="#404040">
                               <set attributeName="fill" to="#808080" begin="reset.mouseover" end="reset.mouseout"/>
                       </use>
               </g>
        </defs>

<script type="text/javascript">
var viewWidth = 841;
var viewHeight = 431;
var sectionId = 'dynsection-1676';
</script>
<script xlink:href="svgpan.js"/>
<svg id="graph" class="graph">
<g id="viewport">
<title>js_symbol_toString</title>
<!-- Node446018 -->
<g id="node1" class="node">
<title>Node446018</title>
<polygon fill="#bfbfbf" stroke="#000000" points="0,-271.0595 0,-290.0595 100,-290.0595 100,-271.0595 0,-271.0595"/>
<text text-anchor="middle" x="50" y="-278.0595" font-family="Helvetica,sans-Serif" font-size="10.00" fill="#000000">js_symbol_toString</text>
</g>
<!-- Node446019 -->
<g id="node2" class="node">
<title>Node446019</title>
<g id="a_node2"><a xlink:href="quickjs_8h.html#afaa20c47565bc704c6c85f3d77254e7d" target="_top" xlink:title="JS_FreeValue">
<polygon fill="none" stroke="#000000" points="465.5,-366.0595 465.5,-385.0595 543.5,-385.0595 543.5,-366.0595 465.5,-366.0595"/>
<text text-anchor="middle" x="504.5" y="-373.0595" font-family="Helvetica,sans-Serif" font-size="10.00" fill="#000000">JS_FreeValue</text>
</a>
</g>
</g>
<!-- Node446018&#45;&gt;Node446019 -->
<g id="edge1" class="edge">
<title>Node446018&#45;&gt;Node446019</title>
<path fill="none" stroke="#191970" d="M61.3736,-290.289C93.123,-316.7119 186.4634,-389.4345 279,-413.5595 332.3286,-427.4627 348.7706,-423.3781 403,-413.5595 428.6172,-408.9214 456.1925,-398.1968 476.1264,-389.3197"/>
<polygon fill="#191970" stroke="#191970" points="477.6174,-392.4865 485.2562,-385.1449 474.7064,-386.1205 477.6174,-392.4865"/>
</g>
<!-- Node446056 -->
<g id="node5" class="node">
<title>Node446056</title>
<g id="a_node5"><a xlink:href="quickjs_8h.html#ad80a83d73e9b7d872b88fbf2943aebe9" target="_top" xlink:title="JS_IsException">
<polygon fill="none" stroke="#000000" points="461.5,-309.0595 461.5,-328.0595 547.5,-328.0595 547.5,-309.0595 461.5,-309.0595"/>
<text text-anchor="middle" x="504.5" y="-316.0595" font-family="Helvetica,sans-Serif" font-size="10.00" fill="#000000">JS_IsException</text>
</a>
</g>
</g>
<!-- Node446018&#45;&gt;Node446056 -->
<g id="edge4" class="edge">
<title>Node446018&#45;&gt;Node446056</title>
<path fill="none" stroke="#191970" d="M78.8528,-290.1607C121.8607,-303.9155 205.5986,-328.5617 279,-337.5595 333.7016,-344.2651 348.1246,-342.6514 403,-337.5595 419.4005,-336.0377 437.1024,-333.161 453.0591,-330.098"/>
<polygon fill="#191970" stroke="#191970" points="454.1357,-333.4525 463.2617,-328.0705 452.7713,-326.5868 454.1357,-333.4525"/>
</g>
<!-- Node446057 -->
<g id="node6" class="node">
<title>Node446057</title>
<g id="a_node6"><a xlink:href="quickjs_8c.html#ab834bcc157945cd4dd8873c0d9d70c6a" target="_top" xlink:title="js_string_constructor">
<polygon fill="none" stroke="#000000" points="136,-214.0595 136,-233.0595 243,-233.0595 243,-214.0595 136,-214.0595"/>
<text text-anchor="middle" x="189.5" y="-221.0595" font-family="Helvetica,sans-Serif" font-size="10.00" fill="#000000">js_string_constructor</text>
</a>
</g>
</g>
<!-- Node446018&#45;&gt;Node446057 -->
<g id="edge5" class="edge">
<title>Node446018&#45;&gt;Node446057</title>
<path fill="none" stroke="#191970" d="M73.3492,-271.019C96.183,-261.6891 131.1587,-247.3979 156.7646,-236.9353"/>
<polygon fill="#191970" stroke="#191970" points="158.1415,-240.1537 166.0747,-233.1312 155.4937,-233.6737 158.1415,-240.1537"/>
</g>
<!-- Node446452 -->
<g id="node21" class="node">
<title>Node446452</title>
<g id="a_node21"><a xlink:href="quickjs_8c.html#a52b1bf4438032c6a9ca15082e218150c" target="_top" xlink:title="js_thisSymbolValue">
<polygon fill="none" stroke="#000000" points="138,-72.0595 138,-91.0595 241,-91.0595 241,-72.0595 138,-72.0595"/>
<text text-anchor="middle" x="189.5" y="-79.0595" font-family="Helvetica,sans-Serif" font-size="10.00" fill="#000000">js_thisSymbolValue</text>
</a>
</g>
</g>
<!-- Node446018&#45;&gt;Node446452 -->
<g id="edge29" class="edge">
<title>Node446018&#45;&gt;Node446452</title>
<path fill="none" stroke="#191970" d="M56.7284,-270.9613C78.6881,-239.6354 148.4922,-140.0581 177.095,-99.2556"/>
<polygon fill="#191970" stroke="#191970" points="179.9649,-101.2589 182.8391,-91.0614 174.233,-97.2408 179.9649,-101.2589"/>
</g>
<!-- Node446020 -->
<g id="node3" class="node">
<title>Node446020</title>
<g id="a_node3"><a xlink:href="quickjs_8c.html#aa059f309c30fd5166d16c82a97973146" target="_top" xlink:title="__JS_FreeValue">
<polygon fill="none" stroke="#000000" points="606,-366.0595 606,-385.0595 695,-385.0595 695,-366.0595 606,-366.0595"/>
<text text-anchor="middle" x="650.5" y="-373.0595" font-family="Helvetica,sans-Serif" font-size="10.00" fill="#000000">__JS_FreeValue</text>
</a>
</g>
</g>
<!-- Node446019&#45;&gt;Node446020 -->
<g id="edge2" class="edge">
<title>Node446019&#45;&gt;Node446020</title>
<path fill="none" stroke="#191970" d="M543.6253,-375.5595C559.6535,-375.5595 578.4813,-375.5595 595.8317,-375.5595"/>
<polygon fill="#191970" stroke="#191970" points="595.8444,-379.0596 605.8444,-375.5595 595.8444,-372.0596 595.8444,-379.0596"/>
</g>
<!-- Node446021 -->
<g id="node4" class="node">
<title>Node446021</title>
<g id="a_node4"><a xlink:href="quickjs_8c.html#ab1ea3fad7d138be12144a38be4d36423" target="_top" xlink:title="__JS_FreeValueRT">
<polygon fill="none" stroke="#ff0000" points="731,-366.0595 731,-385.0595 833,-385.0595 833,-366.0595 731,-366.0595"/>
<text text-anchor="middle" x="782" y="-373.0595" font-family="Helvetica,sans-Serif" font-size="10.00" fill="#000000">__JS_FreeValueRT</text>
</a>
</g>
</g>
<!-- Node446020&#45;&gt;Node446021 -->
<g id="edge3" class="edge">
<title>Node446020&#45;&gt;Node446021</title>
<path fill="none" stroke="#191970" d="M695.0199,-375.5595C703.2672,-375.5595 712.0138,-375.5595 720.6583,-375.5595"/>
<polygon fill="#191970" stroke="#191970" points="720.7233,-379.0596 730.7233,-375.5595 720.7232,-372.0596 720.7233,-379.0596"/>
</g>
<!-- Node446057&#45;&gt;Node446056 -->
<g id="edge21" class="edge">
<title>Node446057&#45;&gt;Node446056</title>
<path fill="none" stroke="#191970" d="M204.4052,-214.0391C241.7748,-191.4969 340.9007,-140.0477 403,-185.5595 445.8558,-216.968 400.9895,-262.4339 439,-299.5595 442.768,-303.2398 447.2042,-306.2148 451.9627,-308.6184"/>
<polygon fill="#191970" stroke="#191970" points="450.8436,-311.944 461.4198,-312.5718 453.5435,-305.4856 450.8436,-311.944"/>
</g>
<!-- Node446058 -->
<g id="node7" class="node">
<title>Node446058</title>
<g id="a_node7"><a xlink:href="quickjs_8c.html#a260bfa297ff6cb5bd18e229afaa54663" target="_top" xlink:title="JS_AtomToString">
<polygon fill="none" stroke="#000000" points="294,-29.0595 294,-48.0595 388,-48.0595 388,-29.0595 294,-29.0595"/>
<text text-anchor="middle" x="341" y="-36.0595" font-family="Helvetica,sans-Serif" font-size="10.00" fill="#000000">JS_AtomToString</text>
</a>
</g>
</g>
<!-- Node446057&#45;&gt;Node446058 -->
<g id="edge6" class="edge">
<title>Node446057&#45;&gt;Node446058</title>
<path fill="none" stroke="#191970" d="M193.0502,-213.8046C202.9583,-187.7268 233.2217,-115.4089 279,-71.5595 286.941,-63.9531 296.9809,-57.6107 306.6556,-52.5856"/>
<polygon fill="#191970" stroke="#191970" points="308.2735,-55.6908 315.739,-48.1731 305.2148,-49.3944 308.2735,-55.6908"/>
</g>
<!-- Node446084 -->
<g id="node10" class="node">
<title>Node446084</title>
<g id="a_node10"><a xlink:href="quickjs_8c.html#a93dbf502b17d1328c524401335f60499" target="_top" xlink:title="js_create_from_ctor">
<polygon fill="none" stroke="#000000" points="289.5,-119.0595 289.5,-138.0595 392.5,-138.0595 392.5,-119.0595 289.5,-119.0595"/>
<text text-anchor="middle" x="341" y="-126.0595" font-family="Helvetica,sans-Serif" font-size="10.00" fill="#000000">js_create_from_ctor</text>
</a>
</g>
</g>
<!-- Node446057&#45;&gt;Node446084 -->
<g id="edge9" class="edge">
<title>Node446057&#45;&gt;Node446084</title>
<path fill="none" stroke="#191970" d="M199.4986,-213.9315C215.3015,-199.1258 247.5017,-170.5937 279,-152.5595 285.9725,-148.5675 293.7372,-144.9719 301.3478,-141.8524"/>
<polygon fill="#191970" stroke="#191970" points="302.7838,-145.0493 310.8343,-138.1616 300.2457,-138.5257 302.7838,-145.0493"/>
</g>
<!-- Node446225 -->
<g id="node14" class="node">
<title>Node446225</title>
<g id="a_node14"><a xlink:href="quickjs_8h.html#a4e407128a9605afb77523e49e9a627fd" target="_top" xlink:title="JS_IsUndefined">
<polygon fill="none" stroke="#000000" points="461.5,-63.0595 461.5,-82.0595 547.5,-82.0595 547.5,-63.0595 461.5,-63.0595"/>
<text text-anchor="middle" x="504.5" y="-70.0595" font-family="Helvetica,sans-Serif" font-size="10.00" fill="#000000">JS_IsUndefined</text>
</a>
</g>
</g>
<!-- Node446057&#45;&gt;Node446225 -->
<g id="edge23" class="edge">
<title>Node446057&#45;&gt;Node446225</title>
<path fill="none" stroke="#191970" d="M193.9264,-213.9351C204.817,-191.4508 235.2464,-135.4266 279,-109.5595 331.6563,-78.4292 402.6849,-71.376 450.8536,-70.6897"/>
<polygon fill="#191970" stroke="#191970" points="451.0903,-74.1886 461.0712,-70.6345 451.0524,-67.1887 451.0903,-74.1886"/>
</g>
<!-- Node446179 -->
<g id="node16" class="node">
<title>Node446179</title>
<g id="a_node16"><a xlink:href="quickjs_8c.html#a0a8765bd4012467d9139bc24aabcb3ca" target="_top" xlink:title="JS_DefinePropertyValue">
<polygon fill="none" stroke="#ff0000" points="279,-385.0595 279,-404.0595 403,-404.0595 403,-385.0595 279,-385.0595"/>
<text text-anchor="middle" x="341" y="-392.0595" font-family="Helvetica,sans-Serif" font-size="10.00" fill="#000000">JS_DefinePropertyValue</text>
</a>
</g>
</g>
<!-- Node446057&#45;&gt;Node446179 -->
<g id="edge19" class="edge">
<title>Node446057&#45;&gt;Node446179</title>
<path fill="none" stroke="#191970" d="M196.2066,-233.1357C210.4844,-253.2785 245.3389,-301.1713 279,-337.5595 292.5204,-352.1753 309.1995,-367.3698 321.8515,-378.392"/>
<polygon fill="#191970" stroke="#191970" points="319.6482,-381.1134 329.5105,-384.9846 324.2148,-375.8081 319.6482,-381.1134"/>
</g>
<!-- Node446451 -->
<g id="node17" class="node">
<title>Node446451</title>
<g id="a_node17"><a xlink:href="quickjs_8h.html#a167c05ce136ce5f098b405563e3660b8" target="_top" xlink:title="JS_IsSymbol">
<polygon fill="none" stroke="#000000" points="303.5,-271.0595 303.5,-290.0595 378.5,-290.0595 378.5,-271.0595 303.5,-271.0595"/>
<text text-anchor="middle" x="341" y="-278.0595" font-family="Helvetica,sans-Serif" font-size="10.00" fill="#000000">JS_IsSymbol</text>
</a>
</g>
</g>
<!-- Node446057&#45;&gt;Node446451 -->
<g id="edge22" class="edge">
<title>Node446057&#45;&gt;Node446451</title>
<path fill="none" stroke="#191970" d="M210.2314,-233.0892C228.2156,-241.1798 255.0506,-252.8325 279,-261.5595 285.0391,-263.7602 291.4684,-265.9242 297.8133,-267.9586"/>
<polygon fill="#191970" stroke="#191970" points="297.0575,-271.3894 307.6464,-271.0354 299.1479,-264.7088 297.0575,-271.3894"/>
</g>
<!-- Node446094 -->
<g id="node18" class="node">
<title>Node446094</title>
<g id="a_node18"><a xlink:href="quickjs_8h.html#a2050bc428da1c65ac7eb87c3fa3b0392" target="_top" xlink:title="JS_NewInt32">
<polygon fill="none" stroke="#000000" points="303,-233.0595 303,-252.0595 379,-252.0595 379,-233.0595 303,-233.0595"/>
<text text-anchor="middle" x="341" y="-240.0595" font-family="Helvetica,sans-Serif" font-size="10.00" fill="#000000">JS_NewInt32</text>
</a>
</g>
</g>
<!-- Node446057&#45;&gt;Node446094 -->
<g id="edge24" class="edge">
<title>Node446057&#45;&gt;Node446094</title>
<path fill="none" stroke="#191970" d="M243.3398,-230.3117C259.3863,-232.3241 276.868,-234.5166 292.5482,-236.4831"/>
<polygon fill="#191970" stroke="#191970" points="292.2012,-239.9669 302.559,-237.7385 293.0723,-233.0213 292.2012,-239.9669"/>
</g>
<!-- Node446291 -->
<g id="node19" class="node">
<title>Node446291</title>
<g id="a_node19"><a xlink:href="quickjs_8c.html#a5cfd8b63940fcb5151b4df41e32dc68c" target="_top" xlink:title="JS_SetObjectData">
<polygon fill="none" stroke="#000000" points="292,-309.0595 292,-328.0595 390,-328.0595 390,-309.0595 292,-309.0595"/>
<text text-anchor="middle" x="341" y="-316.0595" font-family="Helvetica,sans-Serif" font-size="10.00" fill="#000000">JS_SetObjectData</text>
</a>
</g>
</g>
<!-- Node446057&#45;&gt;Node446291 -->
<g id="edge25" class="edge">
<title>Node446057&#45;&gt;Node446291</title>
<path fill="none" stroke="#191970" d="M198.2128,-233.1589C213.2179,-249.1432 245.5599,-281.2613 279,-299.5595 282.9967,-301.7465 287.2792,-303.7169 291.6572,-305.4844"/>
<polygon fill="#191970" stroke="#191970" points="290.7266,-308.8712 301.3202,-309.0353 293.1411,-302.3008 290.7266,-308.8712"/>
</g>
<!-- Node446111 -->
<g id="node20" class="node">
<title>Node446111</title>
<g id="a_node20"><a xlink:href="quickjs_8c.html#a7bcb8e1a20cbc8374a5f9ba4a2088cec" target="_top" xlink:title="JS_ToString">
<polygon fill="none" stroke="#ff0000" points="305.5,-195.0595 305.5,-214.0595 376.5,-214.0595 376.5,-195.0595 305.5,-195.0595"/>
<text text-anchor="middle" x="341" y="-202.0595" font-family="Helvetica,sans-Serif" font-size="10.00" fill="#000000">JS_ToString</text>
</a>
</g>
</g>
<!-- Node446057&#45;&gt;Node446111 -->
<g id="edge28" class="edge">
<title>Node446057&#45;&gt;Node446111</title>
<path fill="none" stroke="#191970" d="M243.3398,-216.8073C260.2235,-214.6899 278.6961,-212.3732 294.9873,-210.3301"/>
<polygon fill="#191970" stroke="#191970" points="295.8526,-213.7491 305.3394,-209.0318 294.9815,-206.8035 295.8526,-213.7491"/>
</g>
<!-- Node446059 -->
<g id="node8" class="node">
<title>Node446059</title>
<g id="a_node8"><a xlink:href="quickjs_8c.html#a06ff303a11e6641cbf1f6634e6a61811" target="_top" xlink:title="__JS_AtomToValue">
<polygon fill="none" stroke="#ff0000" points="452.5,-25.0595 452.5,-44.0595 556.5,-44.0595 556.5,-25.0595 452.5,-25.0595"/>
<text text-anchor="middle" x="504.5" y="-32.0595" font-family="Helvetica,sans-Serif" font-size="10.00" fill="#000000">__JS_AtomToValue</text>
</a>
</g>
</g>
<!-- Node446058&#45;&gt;Node446059 -->
<g id="edge7" class="edge">
<title>Node446058&#45;&gt;Node446059</title>
<path fill="none" stroke="#191970" d="M388.291,-37.4026C405.1621,-36.9898 424.43,-36.5184 442.3603,-36.0798"/>
<polygon fill="#191970" stroke="#191970" points="442.535,-39.5766 452.4463,-35.833 442.3637,-32.5787 442.535,-39.5766"/>
</g>
<!-- Node446062 -->
<g id="node9" class="node">
<title>Node446062</title>
<g id="a_node9"><a xlink:href="quickjs_8h.html#a775522f2d084fc8fa0fcb33f390006b4" target="_top" xlink:title="JS_DupValue">
<polygon fill="none" stroke="#000000" points="612,-25.0595 612,-44.0595 689,-44.0595 689,-25.0595 612,-25.0595"/>
<text text-anchor="middle" x="650.5" y="-32.0595" font-family="Helvetica,sans-Serif" font-size="10.00" fill="#000000">JS_DupValue</text>
</a>
</g>
</g>
<!-- Node446059&#45;&gt;Node446062 -->
<g id="edge8" class="edge">
<title>Node446059&#45;&gt;Node446062</title>
<path fill="none" stroke="#191970" d="M556.797,-34.5595C571.4138,-34.5595 587.2379,-34.5595 601.6473,-34.5595"/>
<polygon fill="#191970" stroke="#191970" points="601.8522,-38.0596 611.8522,-34.5595 601.8521,-31.0596 601.8522,-38.0596"/>
</g>
<!-- Node446084&#45;&gt;Node446019 -->
<g id="edge11" class="edge">
<title>Node446084&#45;&gt;Node446019</title>
<path fill="none" stroke="#191970" d="M355.628,-138.0791C369.9117,-148.155 391.1739,-165.3743 403,-185.5595 438.0948,-245.4603 397.6054,-281.8259 439,-337.5595 446.5326,-347.7013 457.6391,-355.5836 468.5752,-361.4736"/>
<polygon fill="#191970" stroke="#191970" points="467.1242,-364.6606 477.6393,-365.9584 470.2286,-358.3866 467.1242,-364.6606"/>
</g>
<!-- Node446084&#45;&gt;Node446056 -->
<g id="edge15" class="edge">
<title>Node446084&#45;&gt;Node446056</title>
<path fill="none" stroke="#191970" d="M382.2257,-138.1139C390.008,-141.558 397.439,-146.2295 403,-152.5595 447.3941,-203.0927 392.4502,-251.0048 439,-299.5595 442.695,-303.4137 447.1206,-306.4995 451.9048,-308.9682"/>
<polygon fill="#191970" stroke="#191970" points="450.875,-312.3324 461.4491,-312.9946 453.5958,-305.8829 450.875,-312.3324"/>
</g>
<!-- Node446084&#45;&gt;Node446062 -->
<g id="edge10" class="edge">
<title>Node446084&#45;&gt;Node446062</title>
<path fill="none" stroke="#191970" d="M392.8282,-126.8586C440.4593,-123.7657 512.2213,-115.1853 570,-91.5595 593.5381,-81.9348 616.8558,-64.2963 632.2885,-51.1799"/>
<polygon fill="#191970" stroke="#191970" points="634.7762,-53.654 640.0023,-44.4378 630.1695,-48.3834 634.7762,-53.654"/>
</g>
<!-- Node446085 -->
<g id="node11" class="node">
<title>Node446085</title>
<g id="a_node11"><a xlink:href="quickjs_8c.html#a83e9d1851a3e2cd176944272b583143c" target="_top" xlink:title="JS_GetFunctionRealm">
<polygon fill="none" stroke="#ff0000" points="446.5,-253.0595 446.5,-272.0595 562.5,-272.0595 562.5,-253.0595 446.5,-253.0595"/>
<text text-anchor="middle" x="504.5" y="-260.0595" font-family="Helvetica,sans-Serif" font-size="10.00" fill="#000000">JS_GetFunctionRealm</text>
</a>
</g>
</g>
<!-- Node446084&#45;&gt;Node446085 -->
<g id="edge12" class="edge">
<title>Node446084&#45;&gt;Node446085</title>
<path fill="none" stroke="#191970" d="M380.2955,-138.1685C388.5702,-141.6324 396.6925,-146.2983 403,-152.5595 433.8683,-183.201 406.8283,-214.2895 439,-243.5595 440.7434,-245.1457 442.6117,-246.6 444.5749,-247.9335"/>
<polygon fill="#191970" stroke="#191970" points="443.2623,-251.2097 453.6979,-253.0396 446.6811,-245.1014 443.2623,-251.2097"/>
</g>
<!-- Node446087 -->
<g id="node12" class="node">
<title>Node446087</title>
<g id="a_node12"><a xlink:href="quickjs_8h.html#a89b7c8686c7eee70b86be722ee4730ad" target="_top" xlink:title="JS_GetProperty">
<polygon fill="none" stroke="#ff0000" points="461.5,-215.0595 461.5,-234.0595 547.5,-234.0595 547.5,-215.0595 461.5,-215.0595"/>
<text text-anchor="middle" x="504.5" y="-222.0595" font-family="Helvetica,sans-Serif" font-size="10.00" fill="#000000">JS_GetProperty</text>
</a>
</g>
</g>
<!-- Node446084&#45;&gt;Node446087 -->
<g id="edge14" class="edge">
<title>Node446084&#45;&gt;Node446087</title>
<path fill="none" stroke="#191970" d="M376.4314,-138.0813C385.6839,-141.6464 395.2303,-146.3819 403,-152.5595 425.2891,-170.2812 415.9612,-188.8239 439,-205.5595 442.9246,-208.4104 447.2706,-210.8354 451.8026,-212.8979"/>
<polygon fill="#191970" stroke="#191970" points="450.7042,-216.2271 461.2909,-216.6424 453.2739,-209.7158 450.7042,-216.2271"/>
</g>
<!-- Node446303 -->
<g id="node13" class="node">
<title>Node446303</title>
<g id="a_node13"><a xlink:href="quickjs_8h.html#a3d68fe446df2d9c7d1900b16371bff5b" target="_top" xlink:title="JS_IsObject">
<polygon fill="none" stroke="#000000" points="469,-177.0595 469,-196.0595 540,-196.0595 540,-177.0595 469,-177.0595"/>
<text text-anchor="middle" x="504.5" y="-184.0595" font-family="Helvetica,sans-Serif" font-size="10.00" fill="#000000">JS_IsObject</text>
</a>
</g>
</g>
<!-- Node446084&#45;&gt;Node446303 -->
<g id="edge16" class="edge">
<title>Node446084&#45;&gt;Node446303</title>
<path fill="none" stroke="#191970" d="M366.0956,-138.1073C377.3994,-142.4508 390.8977,-147.6968 403,-152.5595 419.0836,-159.022 422.6506,-161.8026 439,-167.5595 445.4531,-169.8318 452.33,-172.0462 459.1107,-174.1132"/>
<polygon fill="#191970" stroke="#191970" points="458.333,-177.5333 468.9157,-177.0257 460.3262,-170.8231 458.333,-177.5333"/>
</g>
<!-- Node446084&#45;&gt;Node446225 -->
<g id="edge17" class="edge">
<title>Node446084&#45;&gt;Node446225</title>
<path fill="none" stroke="#191970" d="M369.1067,-118.9328C396.1765,-109.6611 437.2962,-95.5773 467.1168,-85.3636"/>
<polygon fill="#191970" stroke="#191970" points="468.4338,-88.6122 476.7601,-82.0606 466.1655,-81.9898 468.4338,-88.6122"/>
</g>
<!-- Node446186 -->
<g id="node15" class="node">
<title>Node446186</title>
<g id="a_node15"><a xlink:href="quickjs_8c.html#a73738c650f11459db0d7af3dcdf8316b" target="_top" xlink:title="JS_NewObjectProtoClass">
<polygon fill="none" stroke="#ff0000" points="439,-139.0595 439,-158.0595 570,-158.0595 570,-139.0595 439,-139.0595"/>
<text text-anchor="middle" x="504.5" y="-146.0595" font-family="Helvetica,sans-Serif" font-size="10.00" fill="#000000">JS_NewObjectProtoClass</text>
</a>
</g>
</g>
<!-- Node446084&#45;&gt;Node446186 -->
<g id="edge18" class="edge">
<title>Node446084&#45;&gt;Node446186</title>
<path fill="none" stroke="#191970" d="M392.7324,-134.8876C404.2076,-136.2913 416.5991,-137.8071 428.8093,-139.3007"/>
<polygon fill="#191970" stroke="#191970" points="428.6482,-142.807 438.9992,-140.5472 429.4982,-135.8588 428.6482,-142.807"/>
</g>
<!-- Node446085&#45;&gt;Node446085 -->
<g id="edge13" class="edge">
<title>Node446085&#45;&gt;Node446085</title>
<path fill="none" stroke="#191970" d="M481.9972,-272.3166C471.0498,-281.1248 478.5508,-290.5595 504.5,-290.5595 521.5292,-290.5595 530.6133,-286.4963 531.7525,-281.2135"/>
<polygon fill="#191970" stroke="#191970" points="534.7999,-279.4899 527.0028,-272.3166 528.6248,-282.7865 534.7999,-279.4899"/>
</g>
<!-- Node446179&#45;&gt;Node446019 -->
<g id="edge20" class="edge">
<title>Node446179&#45;&gt;Node446019</title>
<path fill="none" stroke="#191970" d="M403.2788,-387.3222C420.3053,-385.3436 438.5283,-383.226 454.754,-381.3404"/>
<polygon fill="#191970" stroke="#191970" points="455.5663,-384.7696 465.0954,-380.1386 454.7583,-377.8164 455.5663,-384.7696"/>
</g>
<!-- Node446291&#45;&gt;Node446019 -->
<g id="edge26" class="edge">
<title>Node446291&#45;&gt;Node446019</title>
<path fill="none" stroke="#191970" d="M368.3662,-328.1C395.4821,-337.5533 437.2074,-352.0997 467.3167,-362.5965"/>
<polygon fill="#191970" stroke="#191970" points="466.4497,-366.0008 477.0445,-365.9879 468.7541,-359.391 466.4497,-366.0008"/>
</g>
<!-- Node446291&#45;&gt;Node446056 -->
<g id="edge27" class="edge">
<title>Node446291&#45;&gt;Node446056</title>
<path fill="none" stroke="#191970" d="M390.0554,-318.5595C409.3595,-318.5595 431.5756,-318.5595 451.2678,-318.5595"/>
<polygon fill="#191970" stroke="#191970" points="451.3067,-322.0596 461.3067,-318.5595 451.3067,-315.0596 451.3067,-322.0596"/>
</g>
<!-- Node446452&#45;&gt;Node446062 -->
<g id="edge30" class="edge">
<title>Node446452&#45;&gt;Node446062</title>
<path fill="none" stroke="#191970" d="M199.1603,-71.928C214.5108,-57.3614 246.1153,-30.2901 279,-19.5595 391.2975,17.0841 532.8817,-6.3262 604.4976,-22.6571"/>
<polygon fill="#191970" stroke="#191970" points="604.0101,-26.1374 614.5444,-25.0072 605.6045,-19.3214 604.0101,-26.1374"/>
</g>
</g>
</svg>
        <g id="navigator" transform="translate(0 0)" fill="#404254">
                <rect fill="#f2f5e9" fill-opacity="0.5" stroke="#606060" stroke-width=".5" x="0" y="0" width="60" height="60"/>
                <use id="zoomplus" xlink:href="#zoomPlus" x="17" y="9" onmousedown="handleZoom(evt,'in')"/>
                <use id="zoomminus" xlink:href="#zoomMin" x="42" y="9" onmousedown="handleZoom(evt,'out')"/>
                <use id="reset" xlink:href="#resetDef" x="30" y="36" onmousedown="handleReset()"/>
                <g id="arrowUp" xlink:href="#dirArrow" transform="translate(30 24)" onmousedown="handlePan(0,-1)">
                  <use xlink:href="#rim" fill="#404040">
                        <set attributeName="fill" to="#808080" begin="arrowUp.mouseover" end="arrowUp.mouseout"/>
                  </use>
                  <path fill="none" stroke="white" stroke-width="1.5" d="M0,-3.0v7 M-2.5,-0.5L0,-3.0L2.5,-0.5"/>
                </g>
                <g id="arrowRight" xlink:href="#dirArrow" transform="rotate(90) translate(36 -43)" onmousedown="handlePan(1,0)">
                  <use xlink:href="#rim" fill="#404040">
                        <set attributeName="fill" to="#808080" begin="arrowRight.mouseover" end="arrowRight.mouseout"/>
                  </use>
                  <path fill="none" stroke="white" stroke-width="1.5" d="M0,-3.0v7 M-2.5,-0.5L0,-3.0L2.5,-0.5"/>
                </g>
                <g id="arrowDown" xlink:href="#dirArrow" transform="rotate(180) translate(-30 -48)" onmousedown="handlePan(0,1)">
                  <use xlink:href="#rim" fill="#404040">
                        <set attributeName="fill" to="#808080" begin="arrowDown.mouseover" end="arrowDown.mouseout"/>
                  </use>
                  <path fill="none" stroke="white" stroke-width="1.5" d="M0,-3.0v7 M-2.5,-0.5L0,-3.0L2.5,-0.5"/>
                </g>
                <g id="arrowLeft" xlink:href="#dirArrow" transform="rotate(270) translate(-36 17)" onmousedown="handlePan(-1,0)">
                  <use xlink:href="#rim" fill="#404040">
                        <set attributeName="fill" to="#808080" begin="arrowLeft.mouseover" end="arrowLeft.mouseout"/>
                  </use>
                  <path fill="none" stroke="white" stroke-width="1.5" d="M0,-3.0v7 M-2.5,-0.5L0,-3.0L2.5,-0.5"/>
                </g>
        </g>
        <svg viewBox="0 0 15 15" width="100%" height="30px" preserveAspectRatio="xMaxYMin meet">
         <g id="arrow_out" transform="scale(0.3 0.3)">
          <a xlink:href="quickjs_8c_a11d88785d98bd7ff5d35128d7a59e630_cgraph_org.svg" target="_base">
           <rect id="button" ry="5" rx="5" y="6" x="6" height="38" width="38"
                fill="#f2f5e9" fill-opacity="0.5" stroke="#606060" stroke-width="1.0"/>
           <path id="arrow"
             d="M 11.500037,31.436501 C 11.940474,20.09759 22.043105,11.32322 32.158766,21.979434 L 37.068811,17.246167 C 37.068811,17.246167 37.088388,32 37.088388,32 L 22.160133,31.978069 C 22.160133,31.978069 26.997745,27.140456 26.997745,27.140456 C 18.528582,18.264221 13.291696,25.230495 11.500037,31.436501 z"
             style="fill:#404040;"/>
          </a>
         </g>
        </svg>
</svg>
