<?xml version="1.0" encoding="UTF-8" standalone="no"?>
<!DOCTYPE svg PUBLIC "-//W3C//DTD SVG 1.1//EN"
 "http://www.w3.org/Graphics/SVG/1.1/DTD/svg11.dtd">
<!-- Generated by graphviz version 2.40.1 (20161225.0304)
 -->
<!-- Title: add_export_entry2 Pages: 1 -->
<!--zoomable 161 -->
<svg id="main" version="1.1" xmlns="http://www.w3.org/2000/svg" xmlns:xlink="http://www.w3.org/1999/xlink" xml:space="preserve" onload="init(evt)">
<style type="text/css"><![CDATA[
.edge:hover path { stroke: red; }
.edge:hover polygon { stroke: red; fill: red; }
]]></style>
<script type="text/javascript"><![CDATA[
var edges = document.getElementsByTagName('g');
if (edges && edges.length) {
  for (var i=0;i<edges.length;i++) {
    if (edges[i].id.substr(0,4)=='edge') {
      edges[i].setAttribute('class','edge');
    }
  }
}
]]></script>
        <defs>
                <circle id="rim" cx="0" cy="0" r="7"/>
                <circle id="rim2" cx="0" cy="0" r="3.5"/>
                <g id="zoomPlus">
                        <use xlink:href="#rim" fill="#404040">
                                <set attributeName="fill" to="#808080" begin="zoomplus.mouseover" end="zoomplus.mouseout"/>
                        </use>
                        <path d="M-4,0h8M0,-4v8" fill="none" stroke="white" stroke-width="1.5" pointer-events="none"/>
                </g>
                <g id="zoomMin">
                        <use xlink:href="#rim" fill="#404040">
                                <set attributeName="fill" to="#808080" begin="zoomminus.mouseover" end="zoomminus.mouseout"/>
                        </use>
                        <path d="M-4,0h8" fill="none" stroke="white" stroke-width="1.5" pointer-events="none"/>
                </g>
                <g id="dirArrow">
                        <path fill="none" stroke="white" stroke-width="1.5" d="M0,-3.0v7 M-2.5,-0.5L0,-3.0L2.5,-0.5"/>
                </g>
               <g id="resetDef">
                       <use xlink:href="#rim2" fill="#404040">
                               <set attributeName="fill" to="#808080" begin="reset.mouseover" end="reset.mouseout"/>
                       </use>
               </g>
        </defs>

<script type="text/javascript">
var viewWidth = 526;
var viewHeight = 161;
var sectionId = 'dynsection-1093';
</script>
<script xlink:href="svgpan.js"/>
<svg id="graph" class="graph">
<g id="viewport">
<title>add_export_entry2</title>
<!-- Node328361 -->
<g id="node1" class="node">
<title>Node328361</title>
<polygon fill="#bfbfbf" stroke="#000000" points="0,-57.5 0,-76.5 97,-76.5 97,-57.5 0,-57.5"/>
<text text-anchor="middle" x="48.5" y="-64.5" font-family="Helvetica,sans-Serif" font-size="10.00" fill="#000000">add_export_entry2</text>
</g>
<!-- Node328362 -->
<g id="node2" class="node">
<title>Node328362</title>
<g id="a_node2"><a xlink:href="quickjs_8c.html#af5a10beab08419072e00fedfe4e467af" target="_top" xlink:title="find_export_entry">
<polygon fill="none" stroke="#000000" points="133,-114.5 133,-133.5 225,-133.5 225,-114.5 133,-114.5"/>
<text text-anchor="middle" x="179" y="-121.5" font-family="Helvetica,sans-Serif" font-size="10.00" fill="#000000">find_export_entry</text>
</a>
</g>
</g>
<!-- Node328361&#45;&gt;Node328362 -->
<g id="edge1" class="edge">
<title>Node328361&#45;&gt;Node328362</title>
<path fill="none" stroke="#191970" d="M69.2564,-76.5496C86.3132,-84.3451 111.1399,-95.5728 133,-105 137.22,-106.8199 141.6721,-108.7037 146.0777,-110.5463"/>
<polygon fill="#191970" stroke="#191970" points="144.962,-113.8727 155.5398,-114.4736 147.6454,-107.4075 144.962,-113.8727"/>
</g>
<!-- Node328363 -->
<g id="node3" class="node">
<title>Node328363</title>
<g id="a_node3"><a xlink:href="quickjs_8c.html#ab18048ab5eea3e47109a5473f78515bc" target="_top" xlink:title="JS_AtomGetStr">
<polygon fill="none" stroke="#000000" points="136,-76.5 136,-95.5 222,-95.5 222,-76.5 136,-76.5"/>
<text text-anchor="middle" x="179" y="-83.5" font-family="Helvetica,sans-Serif" font-size="10.00" fill="#000000">JS_AtomGetStr</text>
</a>
</g>
</g>
<!-- Node328361&#45;&gt;Node328363 -->
<g id="edge2" class="edge">
<title>Node328361&#45;&gt;Node328363</title>
<path fill="none" stroke="#191970" d="M97.0934,-74.0749C106.4597,-75.4386 116.3168,-76.8737 125.8199,-78.2573"/>
<polygon fill="#191970" stroke="#191970" points="125.553,-81.7553 135.953,-79.7326 126.5616,-74.8283 125.553,-81.7553"/>
</g>
<!-- Node328369 -->
<g id="node9" class="node">
<title>Node328369</title>
<g id="a_node9"><a xlink:href="quickjs_8c.html#abbf44eaeace1104a6bef718fbf5700fe" target="_top" xlink:title="JS_DupAtom">
<polygon fill="none" stroke="#000000" points="141.5,-38.5 141.5,-57.5 216.5,-57.5 216.5,-38.5 141.5,-38.5"/>
<text text-anchor="middle" x="179" y="-45.5" font-family="Helvetica,sans-Serif" font-size="10.00" fill="#000000">JS_DupAtom</text>
</a>
</g>
</g>
<!-- Node328361&#45;&gt;Node328369 -->
<g id="edge8" class="edge">
<title>Node328361&#45;&gt;Node328369</title>
<path fill="none" stroke="#191970" d="M97.0934,-59.9251C108.3008,-58.2934 120.2109,-56.5593 131.3765,-54.9337"/>
<polygon fill="#191970" stroke="#191970" points="131.9885,-58.3816 141.3799,-53.4773 130.9799,-51.4546 131.9885,-58.3816"/>
</g>
<!-- Node328371 -->
<g id="node11" class="node">
<title>Node328371</title>
<g id="a_node11"><a xlink:href="quickjs_8c.html#afa610f3175e9cb11fdceac95071099b5" target="_top" xlink:title="js_resize_array">
<polygon fill="none" stroke="#000000" points="137.5,-.5 137.5,-19.5 220.5,-19.5 220.5,-.5 137.5,-.5"/>
<text text-anchor="middle" x="179" y="-7.5" font-family="Helvetica,sans-Serif" font-size="10.00" fill="#000000">js_resize_array</text>
</a>
</g>
</g>
<!-- Node328361&#45;&gt;Node328371 -->
<g id="edge10" class="edge">
<title>Node328361&#45;&gt;Node328371</title>
<path fill="none" stroke="#191970" d="M69.2564,-57.4504C86.3132,-49.6549 111.1399,-38.4272 133,-29 137.22,-27.1801 141.6721,-25.2963 146.0777,-23.4537"/>
<polygon fill="#191970" stroke="#191970" points="147.6454,-26.5925 155.5398,-19.5264 144.962,-20.1273 147.6454,-26.5925"/>
</g>
<!-- Node328364 -->
<g id="node4" class="node">
<title>Node328364</title>
<g id="a_node4"><a xlink:href="quickjs_8c.html#a4e63c63058f1efe20ee939c165f7b3ad" target="_top" xlink:title="JS_AtomGetStrRT">
<polygon fill="none" stroke="#000000" points="262.5,-76.5 262.5,-95.5 361.5,-95.5 361.5,-76.5 262.5,-76.5"/>
<text text-anchor="middle" x="312" y="-83.5" font-family="Helvetica,sans-Serif" font-size="10.00" fill="#000000">JS_AtomGetStrRT</text>
</a>
</g>
</g>
<!-- Node328363&#45;&gt;Node328364 -->
<g id="edge3" class="edge">
<title>Node328363&#45;&gt;Node328364</title>
<path fill="none" stroke="#191970" d="M222.1813,-86C231.6388,-86 241.8168,-86 251.8035,-86"/>
<polygon fill="#191970" stroke="#191970" points="252.1033,-89.5001 262.1032,-86 252.1032,-82.5001 252.1033,-89.5001"/>
</g>
<!-- Node328365 -->
<g id="node5" class="node">
<title>Node328365</title>
<g id="a_node5"><a xlink:href="quickjs_8c.html#a288254c06a39c9fca740a7abdad2834e" target="_top" xlink:title="__JS_AtomIsTaggedInt">
<polygon fill="none" stroke="#000000" points="399,-133.5 399,-152.5 518,-152.5 518,-133.5 399,-133.5"/>
<text text-anchor="middle" x="458.5" y="-140.5" font-family="Helvetica,sans-Serif" font-size="10.00" fill="#000000">__JS_AtomIsTaggedInt</text>
</a>
</g>
</g>
<!-- Node328364&#45;&gt;Node328365 -->
<g id="edge4" class="edge">
<title>Node328364&#45;&gt;Node328365</title>
<path fill="none" stroke="#191970" d="M332.1482,-95.504C349.6274,-103.5786 375.7114,-115.2221 399,-124 404.6553,-126.1316 410.6684,-128.2356 416.6154,-130.223"/>
<polygon fill="#191970" stroke="#191970" points="415.8942,-133.6692 426.4866,-133.4419 418.0644,-127.014 415.8942,-133.6692"/>
</g>
<!-- Node328366 -->
<g id="node6" class="node">
<title>Node328366</title>
<g id="a_node6"><a xlink:href="quickjs_8c.html#a89f38938cee8077ce1fbba07946ed185" target="_top" xlink:title="__JS_AtomToUInt32">
<polygon fill="none" stroke="#000000" points="404.5,-95.5 404.5,-114.5 512.5,-114.5 512.5,-95.5 404.5,-95.5"/>
<text text-anchor="middle" x="458.5" y="-102.5" font-family="Helvetica,sans-Serif" font-size="10.00" fill="#000000">__JS_AtomToUInt32</text>
</a>
</g>
</g>
<!-- Node328364&#45;&gt;Node328366 -->
<g id="edge5" class="edge">
<title>Node328364&#45;&gt;Node328366</title>
<path fill="none" stroke="#191970" d="M361.5982,-92.4325C372.1482,-93.8008 383.4314,-95.2641 394.4338,-96.6911"/>
<polygon fill="#191970" stroke="#191970" points="394.0629,-100.1722 404.43,-97.9875 394.9633,-93.2303 394.0629,-100.1722"/>
</g>
<!-- Node328367 -->
<g id="node7" class="node">
<title>Node328367</title>
<g id="a_node7"><a xlink:href="quickjs_8c.html#ac3bdf708c1dc092fd52508b5d29bd0ce" target="_top" xlink:title="atom_is_free">
<polygon fill="none" stroke="#000000" points="422,-57.5 422,-76.5 495,-76.5 495,-57.5 422,-57.5"/>
<text text-anchor="middle" x="458.5" y="-64.5" font-family="Helvetica,sans-Serif" font-size="10.00" fill="#000000">atom_is_free</text>
</a>
</g>
</g>
<!-- Node328364&#45;&gt;Node328367 -->
<g id="edge6" class="edge">
<title>Node328364&#45;&gt;Node328367</title>
<path fill="none" stroke="#191970" d="M361.5982,-79.5675C377.8045,-77.4656 395.7411,-75.1394 411.732,-73.0655"/>
<polygon fill="#191970" stroke="#191970" points="412.4548,-76.5011 421.9216,-71.744 411.5544,-69.5593 412.4548,-76.5011"/>
</g>
<!-- Node328368 -->
<g id="node8" class="node">
<title>Node328368</title>
<g id="a_node8"><a xlink:href="cutils_8h.html#aad4e0decb15ab19e9f45b0ee69542a28" target="_top" xlink:title="unicode_to_utf8">
<polygon fill="none" stroke="#000000" points="415.5,-19.5 415.5,-38.5 501.5,-38.5 501.5,-19.5 415.5,-19.5"/>
<text text-anchor="middle" x="458.5" y="-26.5" font-family="Helvetica,sans-Serif" font-size="10.00" fill="#000000">unicode_to_utf8</text>
</a>
</g>
</g>
<!-- Node328364&#45;&gt;Node328368 -->
<g id="edge7" class="edge">
<title>Node328364&#45;&gt;Node328368</title>
<path fill="none" stroke="#191970" d="M339.5245,-76.485C347.2047,-73.6311 355.4979,-70.3603 363,-67 379.511,-59.6044 382.3179,-55.0012 399,-48 404.1869,-45.8231 409.7149,-43.7483 415.2327,-41.8236"/>
<polygon fill="#191970" stroke="#191970" points="416.704,-45.0222 425.0779,-38.5316 414.4841,-38.3835 416.704,-45.0222"/>
</g>
<!-- Node328370 -->
<g id="node10" class="node">
<title>Node328370</title>
<g id="a_node10"><a xlink:href="quickjs_8c.html#a7f6796ee7a195631366f57c713a33f65" target="_top" xlink:title="__JS_AtomIsConst">
<polygon fill="none" stroke="#000000" points="261,-38.5 261,-57.5 363,-57.5 363,-38.5 261,-38.5"/>
<text text-anchor="middle" x="312" y="-45.5" font-family="Helvetica,sans-Serif" font-size="10.00" fill="#000000">__JS_AtomIsConst</text>
</a>
</g>
</g>
<!-- Node328369&#45;&gt;Node328370 -->
<g id="edge9" class="edge">
<title>Node328369&#45;&gt;Node328370</title>
<path fill="none" stroke="#191970" d="M216.7567,-48C227.3296,-48 239.1029,-48 250.6666,-48"/>
<polygon fill="#191970" stroke="#191970" points="250.7393,-51.5001 260.7393,-48 250.7392,-44.5001 250.7393,-51.5001"/>
</g>
</g>
</svg>
        <g id="navigator" transform="translate(0 0)" fill="#404254">
                <rect fill="#f2f5e9" fill-opacity="0.5" stroke="#606060" stroke-width=".5" x="0" y="0" width="60" height="60"/>
                <use id="zoomplus" xlink:href="#zoomPlus" x="17" y="9" onmousedown="handleZoom(evt,'in')"/>
                <use id="zoomminus" xlink:href="#zoomMin" x="42" y="9" onmousedown="handleZoom(evt,'out')"/>
                <use id="reset" xlink:href="#resetDef" x="30" y="36" onmousedown="handleReset()"/>
                <g id="arrowUp" xlink:href="#dirArrow" transform="translate(30 24)" onmousedown="handlePan(0,-1)">
                  <use xlink:href="#rim" fill="#404040">
                        <set attributeName="fill" to="#808080" begin="arrowUp.mouseover" end="arrowUp.mouseout"/>
                  </use>
                  <path fill="none" stroke="white" stroke-width="1.5" d="M0,-3.0v7 M-2.5,-0.5L0,-3.0L2.5,-0.5"/>
                </g>
                <g id="arrowRight" xlink:href="#dirArrow" transform="rotate(90) translate(36 -43)" onmousedown="handlePan(1,0)">
                  <use xlink:href="#rim" fill="#404040">
                        <set attributeName="fill" to="#808080" begin="arrowRight.mouseover" end="arrowRight.mouseout"/>
                  </use>
                  <path fill="none" stroke="white" stroke-width="1.5" d="M0,-3.0v7 M-2.5,-0.5L0,-3.0L2.5,-0.5"/>
                </g>
                <g id="arrowDown" xlink:href="#dirArrow" transform="rotate(180) translate(-30 -48)" onmousedown="handlePan(0,1)">
                  <use xlink:href="#rim" fill="#404040">
                        <set attributeName="fill" to="#808080" begin="arrowDown.mouseover" end="arrowDown.mouseout"/>
                  </use>
                  <path fill="none" stroke="white" stroke-width="1.5" d="M0,-3.0v7 M-2.5,-0.5L0,-3.0L2.5,-0.5"/>
                </g>
                <g id="arrowLeft" xlink:href="#dirArrow" transform="rotate(270) translate(-36 17)" onmousedown="handlePan(-1,0)">
                  <use xlink:href="#rim" fill="#404040">
                        <set attributeName="fill" to="#808080" begin="arrowLeft.mouseover" end="arrowLeft.mouseout"/>
                  </use>
                  <path fill="none" stroke="white" stroke-width="1.5" d="M0,-3.0v7 M-2.5,-0.5L0,-3.0L2.5,-0.5"/>
                </g>
        </g>
        <svg viewBox="0 0 15 15" width="100%" height="30px" preserveAspectRatio="xMaxYMin meet">
         <g id="arrow_out" transform="scale(0.3 0.3)">
          <a xlink:href="quickjs_8c_aaea4bacf94d0db93f4a13f6e88860ad0_cgraph_org.svg" target="_base">
           <rect id="button" ry="5" rx="5" y="6" x="6" height="38" width="38"
                fill="#f2f5e9" fill-opacity="0.5" stroke="#606060" stroke-width="1.0"/>
           <path id="arrow"
             d="M 11.500037,31.436501 C 11.940474,20.09759 22.043105,11.32322 32.158766,21.979434 L 37.068811,17.246167 C 37.068811,17.246167 37.088388,32 37.088388,32 L 22.160133,31.978069 C 22.160133,31.978069 26.997745,27.140456 26.997745,27.140456 C 18.528582,18.264221 13.291696,25.230495 11.500037,31.436501 z"
             style="fill:#404040;"/>
          </a>
         </g>
        </svg>
</svg>
