<?xml version="1.0" encoding="UTF-8" standalone="no"?>
<!DOCTYPE svg PUBLIC "-//W3C//DTD SVG 1.1//EN"
 "http://www.w3.org/Graphics/SVG/1.1/DTD/svg11.dtd">
<!-- Generated by graphviz version 2.40.1 (20161225.0304)
 -->
<!-- Title: __JS_AtomToUInt32 Pages: 1 -->
<!--zoomable 788 -->
<svg id="main" version="1.1" xmlns="http://www.w3.org/2000/svg" xmlns:xlink="http://www.w3.org/1999/xlink" xml:space="preserve" onload="init(evt)">
<style type="text/css"><![CDATA[
.edge:hover path { stroke: red; }
.edge:hover polygon { stroke: red; fill: red; }
]]></style>
<script type="text/javascript"><![CDATA[
var edges = document.getElementsByTagName('g');
if (edges && edges.length) {
  for (var i=0;i<edges.length;i++) {
    if (edges[i].id.substr(0,4)=='edge') {
      edges[i].setAttribute('class','edge');
    }
  }
}
]]></script>
        <defs>
                <circle id="rim" cx="0" cy="0" r="7"/>
                <circle id="rim2" cx="0" cy="0" r="3.5"/>
                <g id="zoomPlus">
                        <use xlink:href="#rim" fill="#404040">
                                <set attributeName="fill" to="#808080" begin="zoomplus.mouseover" end="zoomplus.mouseout"/>
                        </use>
                        <path d="M-4,0h8M0,-4v8" fill="none" stroke="white" stroke-width="1.5" pointer-events="none"/>
                </g>
                <g id="zoomMin">
                        <use xlink:href="#rim" fill="#404040">
                                <set attributeName="fill" to="#808080" begin="zoomminus.mouseover" end="zoomminus.mouseout"/>
                        </use>
                        <path d="M-4,0h8" fill="none" stroke="white" stroke-width="1.5" pointer-events="none"/>
                </g>
                <g id="dirArrow">
                        <path fill="none" stroke="white" stroke-width="1.5" d="M0,-3.0v7 M-2.5,-0.5L0,-3.0L2.5,-0.5"/>
                </g>
               <g id="resetDef">
                       <use xlink:href="#rim2" fill="#404040">
                               <set attributeName="fill" to="#808080" begin="reset.mouseover" end="reset.mouseout"/>
                       </use>
               </g>
        </defs>

<script type="text/javascript">
var viewWidth = 1134;
var viewHeight = 788;
var sectionId = 'dynsection-220';
</script>
<script xlink:href="svgpan.js"/>
<svg id="graph" class="graph">
<g id="viewport">
<title>__JS_AtomToUInt32</title>
<!-- Node74957 -->
<g id="node1" class="node">
<title>Node74957</title>
<polygon fill="#bfbfbf" stroke="#000000" points="0,-228.5 0,-247.5 108,-247.5 108,-228.5 0,-228.5"/>
<text text-anchor="middle" x="54" y="-235.5" font-family="Helvetica,sans-Serif" font-size="10.00" fill="#000000">__JS_AtomToUInt32</text>
</g>
<!-- Node74958 -->
<g id="node2" class="node">
<title>Node74958</title>
<g id="a_node2"><a xlink:href="quickjs_8c.html#a06ff303a11e6641cbf1f6634e6a61811" target="_top" xlink:title="__JS_AtomToValue">
<polygon fill="none" stroke="#000000" points="500.5,-532.5 500.5,-551.5 604.5,-551.5 604.5,-532.5 500.5,-532.5"/>
<text text-anchor="middle" x="552.5" y="-539.5" font-family="Helvetica,sans-Serif" font-size="10.00" fill="#000000">__JS_AtomToValue</text>
</a>
</g>
</g>
<!-- Node74957&#45;&gt;Node74958 -->
<g id="edge1" class="edge">
<title>Node74957&#45;&gt;Node74958</title>
<path fill="none" stroke="#191970" d="M57.4272,-257.9068C67.9097,-316.2857 101.4316,-485.0142 144,-518 198.1906,-559.9917 402.8529,-552.3088 500.3033,-545.9842"/>
<polygon fill="#191970" stroke="#191970" points="60.8243,-257.0162 55.6421,-247.7753 53.9305,-258.231 60.8243,-257.0162"/>
</g>
<!-- Node75617 -->
<g id="node9" class="node">
<title>Node75617</title>
<g id="a_node9"><a xlink:href="quickjs_8c.html#a55f34a1bb7e361c23cb8139c100a615f" target="_top" xlink:title="bc_put_atom">
<polygon fill="none" stroke="#000000" points="175.5,-722.5 175.5,-741.5 248.5,-741.5 248.5,-722.5 175.5,-722.5"/>
<text text-anchor="middle" x="212" y="-729.5" font-family="Helvetica,sans-Serif" font-size="10.00" fill="#000000">bc_put_atom</text>
</a>
</g>
</g>
<!-- Node74957&#45;&gt;Node75617 -->
<g id="edge11" class="edge">
<title>Node74957&#45;&gt;Node75617</title>
<path fill="none" stroke="#191970" d="M54.7202,-258.0913C57.6873,-320.5514 72.483,-515.5524 144,-656 158.0593,-683.6102 184.6733,-708.9869 200.1075,-722.2815"/>
<polygon fill="#191970" stroke="#191970" points="58.201,-257.5598 54.2819,-247.7165 51.2072,-257.8553 58.201,-257.5598"/>
</g>
<!-- Node75618 -->
<g id="node11" class="node">
<title>Node75618</title>
<g id="a_node11"><a xlink:href="quickjs_8c.html#a4e63c63058f1efe20ee939c165f7b3ad" target="_top" xlink:title="JS_AtomGetStrRT">
<polygon fill="none" stroke="#000000" points="162.5,-627.5 162.5,-646.5 261.5,-646.5 261.5,-627.5 162.5,-627.5"/>
<text text-anchor="middle" x="212" y="-634.5" font-family="Helvetica,sans-Serif" font-size="10.00" fill="#000000">JS_AtomGetStrRT</text>
</a>
</g>
</g>
<!-- Node74957&#45;&gt;Node75618 -->
<g id="edge13" class="edge">
<title>Node74957&#45;&gt;Node75618</title>
<path fill="none" stroke="#191970" d="M56.6355,-257.7561C64.1305,-309.3897 88.6976,-451.5876 144,-556 159.3831,-585.0438 186.4996,-613.0731 201.4201,-627.3069"/>
<polygon fill="#191970" stroke="#191970" points="60.0736,-257.0692 55.2221,-247.6505 53.1411,-258.0389 60.0736,-257.0692"/>
</g>
<!-- Node75636 -->
<g id="node17" class="node">
<title>Node75636</title>
<g id="a_node17"><a xlink:href="quickjs_8c.html#aae16c5cdefab4e9dd9866993a7f0150e" target="_top" xlink:title="JS_AtomIsArrayIndex">
<polygon fill="none" stroke="#000000" points="155.5,-323.5 155.5,-342.5 268.5,-342.5 268.5,-323.5 155.5,-323.5"/>
<text text-anchor="middle" x="212" y="-330.5" font-family="Helvetica,sans-Serif" font-size="10.00" fill="#000000">JS_AtomIsArrayIndex</text>
</a>
</g>
</g>
<!-- Node74957&#45;&gt;Node75636 -->
<g id="edge21" class="edge">
<title>Node74957&#45;&gt;Node75636</title>
<path fill="none" stroke="#191970" d="M78.9793,-253.0192C111.7571,-272.7274 168.3462,-306.7524 195.9382,-323.3426"/>
<polygon fill="#191970" stroke="#191970" points="80.3931,-249.7853 70.0194,-247.6319 76.786,-255.7844 80.3931,-249.7853"/>
</g>
<!-- Node75079 -->
<g id="node21" class="node">
<title>Node75079</title>
<g id="a_node21"><a xlink:href="quickjs_8c.html#ad7f03358a8088ca920ab308225c6b2e6" target="_top" xlink:title="JS_SetPropertyInternal">
<polygon fill="none" stroke="#ff0000" points="876.5,-443.5 876.5,-462.5 994.5,-462.5 994.5,-443.5 876.5,-443.5"/>
<text text-anchor="middle" x="935.5" y="-450.5" font-family="Helvetica,sans-Serif" font-size="10.00" fill="#000000">JS_SetPropertyInternal</text>
</a>
</g>
</g>
<!-- Node74957&#45;&gt;Node75079 -->
<g id="edge50" class="edge">
<title>Node74957&#45;&gt;Node75079</title>
<path fill="none" stroke="#191970" d="M60.2483,-257.7229C71.7607,-291.1718 99.3138,-359.3431 144,-400 229.2336,-477.5481 266.2678,-504 381.5,-504 381.5,-504 381.5,-504 552.5,-504 676.7656,-504 821.7417,-477.2941 892.3837,-462.5329"/>
<polygon fill="#191970" stroke="#191970" points="63.4275,-256.1903 56.9574,-247.8004 56.7834,-258.3939 63.4275,-256.1903"/>
</g>
<!-- Node75102 -->
<g id="node22" class="node">
<title>Node75102</title>
<g id="a_node22"><a xlink:href="quickjs_8c.html#ab50618f1bf78e444caa6da0e3e2785d7" target="_top" xlink:title="JS_DefineProperty">
<polygon fill="none" stroke="#ff0000" points="693.5,-342.5 693.5,-361.5 792.5,-361.5 792.5,-342.5 693.5,-342.5"/>
<text text-anchor="middle" x="743" y="-349.5" font-family="Helvetica,sans-Serif" font-size="10.00" fill="#000000">JS_DefineProperty</text>
</a>
</g>
</g>
<!-- Node74957&#45;&gt;Node75102 -->
<g id="edge43" class="edge">
<title>Node74957&#45;&gt;Node75102</title>
<path fill="none" stroke="#191970" d="M101.3921,-226.1922C205.0214,-203.2194 455.7785,-163.4108 622,-268 642.5247,-280.9145 638.8324,-294.1456 658,-309 676.4314,-323.2838 700.345,-334.8776 718.1105,-342.4114"/>
<polygon fill="#191970" stroke="#191970" points="100.5168,-222.8017 91.5376,-228.4252 102.0639,-229.6286 100.5168,-222.8017"/>
</g>
<!-- Node75135 -->
<g id="node24" class="node">
<title>Node75135</title>
<g id="a_node24"><a xlink:href="quickjs_8c.html#a1fdb56277638da2aef63b9be0c12895f" target="_top" xlink:title="js_string_define_own\l_property">
<polygon fill="none" stroke="#000000" points="881.5,-172 881.5,-202 989.5,-202 989.5,-172 881.5,-172"/>
<text text-anchor="start" x="889.5" y="-190" font-family="Helvetica,sans-Serif" font-size="10.00" fill="#000000">js_string_define_own</text>
<text text-anchor="middle" x="935.5" y="-179" font-family="Helvetica,sans-Serif" font-size="10.00" fill="#000000">_property</text>
</a>
</g>
</g>
<!-- Node74957&#45;&gt;Node75135 -->
<g id="edge51" class="edge">
<title>Node74957&#45;&gt;Node75135</title>
<path fill="none" stroke="#191970" d="M67.9252,-220.3364C84.0372,-201.2763 112.4309,-171.6866 144,-157 240.6251,-112.048 274.9304,-124 381.5,-124 381.5,-124 381.5,-124 552.5,-124 671.1004,-124 807.6526,-153.7773 881.4157,-172.3882"/>
<polygon fill="#191970" stroke="#191970" points="65.0592,-218.3115 61.4193,-228.2614 70.4697,-222.753 65.0592,-218.3115"/>
</g>
<!-- Node75134 -->
<g id="node25" class="node">
<title>Node75134</title>
<g id="a_node25"><a xlink:href="quickjs_8c.html#ad5565bb5cfd5321f181573257f3b0c91" target="_top" xlink:title="JS_CreateProperty">
<polygon fill="none" stroke="#ff0000" points="502.5,-418.5 502.5,-437.5 602.5,-437.5 602.5,-418.5 502.5,-418.5"/>
<text text-anchor="middle" x="552.5" y="-425.5" font-family="Helvetica,sans-Serif" font-size="10.00" fill="#000000">JS_CreateProperty</text>
</a>
</g>
</g>
<!-- Node74957&#45;&gt;Node75134 -->
<g id="edge42" class="edge">
<title>Node74957&#45;&gt;Node75134</title>
<path fill="none" stroke="#191970" d="M64.4923,-256.1911C79.4307,-280.7414 108.9409,-324.5577 144,-352 210.097,-403.7369 233.957,-412.2664 316,-430 379.2105,-443.663 454.1609,-439.7571 502.4795,-434.7286"/>
<polygon fill="#191970" stroke="#191970" points="67.4537,-254.3232 59.3348,-247.5162 61.4368,-257.9005 67.4537,-254.3232"/>
</g>
<!-- Node75335 -->
<g id="node26" class="node">
<title>Node75335</title>
<g id="a_node26"><a xlink:href="quickjs_8c.html#ab4e100a9cde5f7ec87c92f5e766dbbab" target="_top" xlink:title="JS_AtomIsNumericIndex1">
<polygon fill="none" stroke="#ff0000" points="316,-228.5 316,-247.5 447,-247.5 447,-228.5 316,-228.5"/>
<text text-anchor="middle" x="381.5" y="-235.5" font-family="Helvetica,sans-Serif" font-size="10.00" fill="#000000">JS_AtomIsNumericIndex1</text>
</a>
</g>
</g>
<!-- Node74957&#45;&gt;Node75335 -->
<g id="edge40" class="edge">
<title>Node74957&#45;&gt;Node75335</title>
<path fill="none" stroke="#191970" d="M118.4168,-238C175.4512,-238 258.3275,-238 315.7578,-238"/>
<polygon fill="#191970" stroke="#191970" points="118.08,-234.5001 108.08,-238 118.0799,-241.5001 118.08,-234.5001"/>
</g>
<!-- Node75293 -->
<g id="node27" class="node">
<title>Node75293</title>
<g id="a_node27"><a xlink:href="quickjs_8c.html#ad13892c0a0f11781b566808876658099" target="_top" xlink:title="JS_GetOwnPropertyInternal">
<polygon fill="none" stroke="#ff0000" points="483,-152.5 483,-171.5 622,-171.5 622,-152.5 483,-152.5"/>
<text text-anchor="middle" x="552.5" y="-159.5" font-family="Helvetica,sans-Serif" font-size="10.00" fill="#000000">JS_GetOwnPropertyInternal</text>
</a>
</g>
</g>
<!-- Node74957&#45;&gt;Node75293 -->
<g id="edge44" class="edge">
<title>Node74957&#45;&gt;Node75293</title>
<path fill="none" stroke="#191970" d="M74.5188,-222.394C91.9737,-210.0759 118.2409,-193.7234 144,-186 259.0036,-151.5184 400.1934,-152.1039 482.8761,-156.4843"/>
<polygon fill="#191970" stroke="#191970" points="72.2804,-219.6939 66.2437,-228.4007 76.3925,-225.3588 72.2804,-219.6939"/>
</g>
<!-- Node75282 -->
<g id="node28" class="node">
<title>Node75282</title>
<g id="a_node28"><a xlink:href="quickjs_8c.html#a5762c57ae0c9937e986040c01222833a" target="_top" xlink:title="JS_GetPropertyInternal">
<polygon fill="none" stroke="#ff0000" points="683.5,-76.5 683.5,-95.5 802.5,-95.5 802.5,-76.5 683.5,-76.5"/>
<text text-anchor="middle" x="743" y="-83.5" font-family="Helvetica,sans-Serif" font-size="10.00" fill="#000000">JS_GetPropertyInternal</text>
</a>
</g>
</g>
<!-- Node74957&#45;&gt;Node75282 -->
<g id="edge48" class="edge">
<title>Node74957&#45;&gt;Node75282</title>
<path fill="none" stroke="#191970" d="M61.0411,-218.7413C72.9758,-189.2591 100.2374,-133.8514 144,-110 235.4993,-60.1312 550.3674,-73.5947 683.1678,-81.8238"/>
<polygon fill="#191970" stroke="#191970" points="57.6779,-217.7344 57.3353,-228.3237 64.2067,-220.2593 57.6779,-217.7344"/>
</g>
<!-- Node75638 -->
<g id="node29" class="node">
<title>Node75638</title>
<g id="a_node29"><a xlink:href="quickjs_8c.html#a22eca439161b721bd030c61869d452ce" target="_top" xlink:title="js_string_delete_property">
<polygon fill="none" stroke="#000000" points="149.5,-38.5 149.5,-57.5 274.5,-57.5 274.5,-38.5 149.5,-38.5"/>
<text text-anchor="middle" x="212" y="-45.5" font-family="Helvetica,sans-Serif" font-size="10.00" fill="#000000">js_string_delete_property</text>
</a>
</g>
</g>
<!-- Node74957&#45;&gt;Node75638 -->
<g id="edge52" class="edge">
<title>Node74957&#45;&gt;Node75638</title>
<path fill="none" stroke="#191970" d="M59.5007,-218.3763C70.1404,-183.9088 96.7543,-112.3337 144,-72 151.3316,-65.741 160.4047,-61.076 169.5083,-57.6122"/>
<polygon fill="#191970" stroke="#191970" points="56.0822,-217.5945 56.6017,-228.1766 62.7946,-219.5802 56.0822,-217.5945"/>
</g>
<!-- Node75567 -->
<g id="node30" class="node">
<title>Node75567</title>
<g id="a_node30"><a xlink:href="quickjs_8c.html#ae97acc40e7697f300ae67de725127ba5" target="_top" xlink:title="js_string_get_own_property">
<polygon fill="none" stroke="#000000" points="144,-.5 144,-19.5 280,-19.5 280,-.5 144,-.5"/>
<text text-anchor="middle" x="212" y="-7.5" font-family="Helvetica,sans-Serif" font-size="10.00" fill="#000000">js_string_get_own_property</text>
</a>
</g>
</g>
<!-- Node74957&#45;&gt;Node75567 -->
<g id="edge53" class="edge">
<title>Node74957&#45;&gt;Node75567</title>
<path fill="none" stroke="#191970" d="M56.7548,-218.2514C63.5982,-176.8015 85.273,-80.3331 144,-29 148.4299,-25.1278 153.5893,-22.0397 159.0487,-19.5778"/>
<polygon fill="#191970" stroke="#191970" points="53.2548,-217.9853 55.1995,-228.4002 60.174,-219.0458 53.2548,-217.9853"/>
</g>
<!-- Node74959 -->
<g id="node3" class="node">
<title>Node74959</title>
<g id="a_node3"><a xlink:href="quickjs_8c.html#afa67965c1017685fc6783776d6d0d4d7" target="_top" xlink:title="JS_AtomToValue">
<polygon fill="none" stroke="#ff0000" points="696.5,-532.5 696.5,-551.5 789.5,-551.5 789.5,-532.5 696.5,-532.5"/>
<text text-anchor="middle" x="743" y="-539.5" font-family="Helvetica,sans-Serif" font-size="10.00" fill="#000000">JS_AtomToValue</text>
</a>
</g>
</g>
<!-- Node74958&#45;&gt;Node74959 -->
<g id="edge2" class="edge">
<title>Node74958&#45;&gt;Node74959</title>
<path fill="none" stroke="#191970" d="M614.8742,-542C641.3571,-542 671.7048,-542 696.2155,-542"/>
<polygon fill="#191970" stroke="#191970" points="614.555,-538.5001 604.555,-542 614.5549,-545.5001 614.555,-538.5001"/>
</g>
<!-- Node75564 -->
<g id="node8" class="node">
<title>Node75564</title>
<g id="a_node8"><a xlink:href="quickjs_8c.html#a260bfa297ff6cb5bd18e229afaa54663" target="_top" xlink:title="JS_AtomToString">
<polygon fill="none" stroke="#ff0000" points="696,-608.5 696,-627.5 790,-627.5 790,-608.5 696,-608.5"/>
<text text-anchor="middle" x="743" y="-615.5" font-family="Helvetica,sans-Serif" font-size="10.00" fill="#000000">JS_AtomToString</text>
</a>
</g>
</g>
<!-- Node74958&#45;&gt;Node75564 -->
<g id="edge8" class="edge">
<title>Node74958&#45;&gt;Node75564</title>
<path fill="none" stroke="#191970" d="M586.2673,-555.4715C624.415,-570.6905 685.5384,-595.0757 719.0689,-608.4527"/>
<polygon fill="#191970" stroke="#191970" points="587.212,-552.0802 576.627,-551.6255 584.6181,-558.5819 587.212,-552.0802"/>
</g>
<!-- Node74961 -->
<g id="node4" class="node">
<title>Node74961</title>
<g id="a_node4"><a xlink:href="quickjs_8c.html#ac2894ff4edcdb4e6841bcce9c76081e3" target="_top" xlink:title="JS_CallInternal">
<polygon fill="none" stroke="#ff0000" points="1043,-443.5 1043,-462.5 1126,-462.5 1126,-443.5 1043,-443.5"/>
<text text-anchor="middle" x="1084.5" y="-450.5" font-family="Helvetica,sans-Serif" font-size="10.00" fill="#000000">JS_CallInternal</text>
</a>
</g>
</g>
<!-- Node74959&#45;&gt;Node74961 -->
<g id="edge3" class="edge">
<title>Node74959&#45;&gt;Node74961</title>
<path fill="none" stroke="#191970" d="M789.234,-529.9507C857.8884,-512.0584 985.396,-478.828 1047.9586,-462.5232"/>
<polygon fill="#191970" stroke="#191970" points="788.3406,-526.5666 779.5465,-532.4754 790.106,-533.3403 788.3406,-526.5666"/>
</g>
<!-- Node75185 -->
<g id="node5" class="node">
<title>Node75185</title>
<g id="a_node5"><a xlink:href="quickjs_8c.html#a79c9d633e8f9d5fd70546406b9e6f176" target="_top" xlink:title="JS_GetOwnPropertyNames2">
<polygon fill="none" stroke="#ff0000" points="864,-243.5 864,-262.5 1007,-262.5 1007,-243.5 864,-243.5"/>
<text text-anchor="middle" x="935.5" y="-250.5" font-family="Helvetica,sans-Serif" font-size="10.00" fill="#000000">JS_GetOwnPropertyNames2</text>
</a>
</g>
</g>
<!-- Node74959&#45;&gt;Node75185 -->
<g id="edge5" class="edge">
<title>Node74959&#45;&gt;Node75185</title>
<path fill="none" stroke="#191970" d="M752.8705,-523.2148C769.1769,-491.9507 802.4753,-427.1251 828,-371 845.3236,-332.9079 834.6593,-313.8368 864,-284 873.5813,-274.2567 886.7317,-267.3762 899.1435,-262.6161"/>
<polygon fill="#191970" stroke="#191970" points="749.5629,-521.9868 748.0276,-532.4698 755.7651,-525.2322 749.5629,-521.9868"/>
</g>
<!-- Node75262 -->
<g id="node6" class="node">
<title>Node75262</title>
<g id="a_node6"><a xlink:href="quickjs_8c.html#a7e5b77a4851eee6f666581d051979392" target="_top" xlink:title="js_proxy_define_own\l_property">
<polygon fill="none" stroke="#000000" points="881.5,-293 881.5,-323 989.5,-323 989.5,-293 881.5,-293"/>
<text text-anchor="start" x="889.5" y="-311" font-family="Helvetica,sans-Serif" font-size="10.00" fill="#000000">js_proxy_define_own</text>
<text text-anchor="middle" x="935.5" y="-300" font-family="Helvetica,sans-Serif" font-size="10.00" fill="#000000">_property</text>
</a>
</g>
</g>
<!-- Node74959&#45;&gt;Node75262 -->
<g id="edge6" class="edge">
<title>Node74959&#45;&gt;Node75262</title>
<path fill="none" stroke="#191970" d="M754.3066,-523.3926C774.3917,-491.0135 818.48,-422.9023 864,-372 880.2137,-353.8691 901.1895,-335.6024 916.222,-323.2519"/>
<polygon fill="#191970" stroke="#191970" points="751.1256,-521.8838 748.8689,-532.2355 757.0885,-525.5505 751.1256,-521.8838"/>
</g>
<!-- Node74992 -->
<g id="node7" class="node">
<title>Node74992</title>
<g id="a_node7"><a xlink:href="quickjs_8c.html#a4c9489297c684663f30e517204a9ec14" target="_top" xlink:title="JS_AddIntrinsicBaseObjects">
<polygon fill="none" stroke="#ff0000" points="864.5,-541.5 864.5,-560.5 1006.5,-560.5 1006.5,-541.5 864.5,-541.5"/>
<text text-anchor="middle" x="935.5" y="-548.5" font-family="Helvetica,sans-Serif" font-size="10.00" fill="#000000">JS_AddIntrinsicBaseObjects</text>
</a>
</g>
</g>
<!-- Node74959&#45;&gt;Node74992 -->
<g id="edge7" class="edge">
<title>Node74959&#45;&gt;Node74992</title>
<path fill="none" stroke="#191970" d="M799.8602,-544.6584C820.0138,-545.6006 842.9519,-546.6731 864.1577,-547.6645"/>
<polygon fill="#191970" stroke="#191970" points="799.7515,-541.1496 789.5989,-544.1786 799.4245,-548.1419 799.7515,-541.1496"/>
</g>
<!-- Node74961&#45;&gt;Node74961 -->
<g id="edge4" class="edge">
<title>Node74961&#45;&gt;Node74961</title>
<path fill="none" stroke="#191970" d="M1056.8742,-471.6539C1058.0289,-476.9368 1067.2375,-481 1084.5,-481 1110.8047,-481 1118.4084,-471.5653 1107.3111,-462.7571"/>
<polygon fill="#191970" stroke="#191970" points="1060.0076,-473.2176 1061.6889,-462.7571 1053.8512,-469.886 1060.0076,-473.2176"/>
</g>
<!-- Node75564&#45;&gt;Node74961 -->
<g id="edge9" class="edge">
<title>Node75564&#45;&gt;Node74961</title>
<path fill="none" stroke="#191970" d="M800.7388,-620.1136C857.6737,-619.4705 944.9365,-610.9114 1007,-570 1048.0918,-542.9128 1072.5886,-485.7261 1081.0949,-462.8057"/>
<polygon fill="#191970" stroke="#191970" points="800.4619,-616.6144 790.4736,-620.1476 800.4852,-623.6144 800.4619,-616.6144"/>
</g>
<!-- Node75564&#45;&gt;Node74992 -->
<g id="edge10" class="edge">
<title>Node75564&#45;&gt;Node74992</title>
<path fill="none" stroke="#191970" d="M789.846,-605.727C802.3256,-602.1983 815.7432,-598.1688 828,-594 858.0678,-583.7733 891.9696,-569.7906 913.5194,-560.5838"/>
<polygon fill="#191970" stroke="#191970" points="788.7758,-602.3917 780.0789,-608.4426 790.651,-609.1359 788.7758,-602.3917"/>
</g>
<!-- Node75311 -->
<g id="node10" class="node">
<title>Node75311</title>
<g id="a_node10"><a xlink:href="quickjs_8c.html#a3da261d6aeb1d35f3fb47a0076752a57" target="_top" xlink:title="JS_WriteObjectTag">
<polygon fill="none" stroke="#ff0000" points="330.5,-760.5 330.5,-779.5 432.5,-779.5 432.5,-760.5 330.5,-760.5"/>
<text text-anchor="middle" x="381.5" y="-767.5" font-family="Helvetica,sans-Serif" font-size="10.00" fill="#000000">JS_WriteObjectTag</text>
</a>
</g>
</g>
<!-- Node75617&#45;&gt;Node75311 -->
<g id="edge12" class="edge">
<title>Node75617&#45;&gt;Node75311</title>
<path fill="none" stroke="#191970" d="M258.8171,-742.4959C283.9509,-748.1306 314.693,-755.0226 339.1158,-760.4979"/>
<polygon fill="#191970" stroke="#191970" points="259.3024,-739.0179 248.779,-740.2454 257.7711,-745.8483 259.3024,-739.0179"/>
</g>
<!-- Node75619 -->
<g id="node12" class="node">
<title>Node75619</title>
<g id="a_node12"><a xlink:href="quickjs_8c.html#ab18048ab5eea3e47109a5473f78515bc" target="_top" xlink:title="JS_AtomGetStr">
<polygon fill="none" stroke="#ff0000" points="509.5,-598.5 509.5,-617.5 595.5,-617.5 595.5,-598.5 509.5,-598.5"/>
<text text-anchor="middle" x="552.5" y="-605.5" font-family="Helvetica,sans-Serif" font-size="10.00" fill="#000000">JS_AtomGetStr</text>
</a>
</g>
</g>
<!-- Node75618&#45;&gt;Node75619 -->
<g id="edge14" class="edge">
<title>Node75618&#45;&gt;Node75619</title>
<path fill="none" stroke="#191970" d="M271.6452,-631.9201C339.657,-626.1276 449.1886,-616.7989 509.3997,-611.6708"/>
<polygon fill="#191970" stroke="#191970" points="271.1785,-628.4471 261.5116,-632.7832 271.7726,-635.4218 271.1785,-628.4471"/>
</g>
<!-- Node75628 -->
<g id="node13" class="node">
<title>Node75628</title>
<g id="a_node13"><a xlink:href="quickjs_8c.html#adc98d8b63e5b752b814ca91abb7f2a00" target="_top" xlink:title="JS_DumpShape">
<polygon fill="none" stroke="#ff0000" points="337.5,-570.5 337.5,-589.5 425.5,-589.5 425.5,-570.5 337.5,-570.5"/>
<text text-anchor="middle" x="381.5" y="-577.5" font-family="Helvetica,sans-Serif" font-size="10.00" fill="#000000">JS_DumpShape</text>
</a>
</g>
</g>
<!-- Node75618&#45;&gt;Node75628 -->
<g id="edge16" class="edge">
<title>Node75618&#45;&gt;Node75628</title>
<path fill="none" stroke="#191970" d="M250.039,-624.2081C281.2564,-613.7102 324.7704,-599.0772 353.037,-589.5716"/>
<polygon fill="#191970" stroke="#191970" points="248.7333,-620.9545 240.3705,-627.4595 250.9645,-627.5894 248.7333,-620.9545"/>
</g>
<!-- Node75630 -->
<g id="node14" class="node">
<title>Node75630</title>
<g id="a_node14"><a xlink:href="quickjs_8c.html#a2424196308d86d1a8c2bb410ca279be4" target="_top" xlink:title="JS_DumpMemoryUsage">
<polygon fill="none" stroke="#000000" points="319.5,-722.5 319.5,-741.5 443.5,-741.5 443.5,-722.5 319.5,-722.5"/>
<text text-anchor="middle" x="381.5" y="-729.5" font-family="Helvetica,sans-Serif" font-size="10.00" fill="#000000">JS_DumpMemoryUsage</text>
</a>
</g>
</g>
<!-- Node75618&#45;&gt;Node75630 -->
<g id="edge17" class="edge">
<title>Node75618&#45;&gt;Node75630</title>
<path fill="none" stroke="#191970" d="M232.0085,-652.8868C252.2886,-668.4398 285.0099,-692.0581 316,-708 326.8771,-713.5954 339.3669,-718.5114 350.5038,-722.4132"/>
<polygon fill="#191970" stroke="#191970" points="233.9128,-649.934 223.8686,-646.5629 229.6182,-655.4619 233.9128,-649.934"/>
</g>
<!-- Node75631 -->
<g id="node15" class="node">
<title>Node75631</title>
<g id="a_node15"><a xlink:href="quickjs_8c.html#a315f18f552c506d05a36ab22649c8e3f" target="_top" xlink:title="JS_DumpObject">
<polygon fill="none" stroke="#ff0000" points="508,-655.5 508,-674.5 597,-674.5 597,-655.5 508,-655.5"/>
<text text-anchor="middle" x="552.5" y="-662.5" font-family="Helvetica,sans-Serif" font-size="10.00" fill="#000000">JS_DumpObject</text>
</a>
</g>
</g>
<!-- Node75618&#45;&gt;Node75631 -->
<g id="edge18" class="edge">
<title>Node75618&#45;&gt;Node75631</title>
<path fill="none" stroke="#191970" d="M241.1093,-650.7622C261.5509,-659.6403 289.81,-670.3651 316,-675 381.9611,-686.6732 459.8045,-679.4272 507.6575,-672.622"/>
<polygon fill="#191970" stroke="#191970" points="242.3043,-647.4629 231.7457,-646.587 239.4535,-653.8561 242.3043,-647.4629"/>
</g>
<!-- Node75633 -->
<g id="node16" class="node">
<title>Node75633</title>
<g id="a_node16"><a xlink:href="quickjs_8c.html#a42ffceed2bd5abf49dd5f2f7c3404c8c" target="_top" xlink:title="JS_DumpValueShort">
<polygon fill="none" stroke="#ff0000" points="327.5,-646.5 327.5,-665.5 435.5,-665.5 435.5,-646.5 327.5,-646.5"/>
<text text-anchor="middle" x="381.5" y="-653.5" font-family="Helvetica,sans-Serif" font-size="10.00" fill="#000000">JS_DumpValueShort</text>
</a>
</g>
</g>
<!-- Node75618&#45;&gt;Node75633 -->
<g id="edge19" class="edge">
<title>Node75618&#45;&gt;Node75633</title>
<path fill="none" stroke="#191970" d="M272.0688,-643.7334C290.1331,-645.7583 309.8363,-647.9669 327.4833,-649.945"/>
<polygon fill="#191970" stroke="#191970" points="272.2665,-640.2337 261.9388,-642.5979 271.4867,-647.1901 272.2665,-640.2337"/>
</g>
<!-- Node75619&#45;&gt;Node74992 -->
<g id="edge15" class="edge">
<title>Node75619&#45;&gt;Node74992</title>
<path fill="none" stroke="#191970" d="M605.9855,-600.04C675.5852,-589.6818 797.0704,-571.6018 871.4888,-560.5265"/>
<polygon fill="#191970" stroke="#191970" points="605.0663,-596.6382 595.6905,-601.5722 606.0968,-603.5619 605.0663,-596.6382"/>
</g>
<!-- Node75633&#45;&gt;Node75631 -->
<g id="edge20" class="edge">
<title>Node75633&#45;&gt;Node75631</title>
<path fill="none" stroke="#191970" d="M445.6207,-659.3748C466.363,-660.4665 488.8993,-661.6526 507.9067,-662.653"/>
<polygon fill="#191970" stroke="#191970" points="445.7756,-655.8782 435.6055,-658.8477 445.4077,-662.8685 445.7756,-655.8782"/>
</g>
<!-- Node75295 -->
<g id="node18" class="node">
<title>Node75295</title>
<g id="a_node18"><a xlink:href="quickjs_8c.html#a176ac5ff56a118a0b1b2566798d28823" target="_top" xlink:title="JS_GetOwnPropertyNamesInternal">
<polygon fill="none" stroke="#ff0000" points="658,-243.5 658,-262.5 828,-262.5 828,-243.5 658,-243.5"/>
<text text-anchor="middle" x="743" y="-250.5" font-family="Helvetica,sans-Serif" font-size="10.00" fill="#000000">JS_GetOwnPropertyNamesInternal</text>
</a>
</g>
</g>
<!-- Node75636&#45;&gt;Node75295 -->
<g id="edge22" class="edge">
<title>Node75636&#45;&gt;Node75295</title>
<path fill="none" stroke="#191970" d="M278.5503,-322.9736C381.5988,-307.4484 578.411,-277.7968 679.5451,-262.5601"/>
<polygon fill="#191970" stroke="#191970" points="277.9417,-319.5257 268.5747,-324.4765 278.9846,-326.4476 277.9417,-319.5257"/>
</g>
<!-- Node75637 -->
<g id="node19" class="node">
<title>Node75637</title>
<g id="a_node19"><a xlink:href="quickjs_8c.html#a2b9a2014cb970af5b5b7dde00afbdffa" target="_top" xlink:title="delete_property">
<polygon fill="none" stroke="#ff0000" points="340,-342.5 340,-361.5 423,-361.5 423,-342.5 340,-342.5"/>
<text text-anchor="middle" x="381.5" y="-349.5" font-family="Helvetica,sans-Serif" font-size="10.00" fill="#000000">delete_property</text>
</a>
</g>
</g>
<!-- Node75636&#45;&gt;Node75637 -->
<g id="edge24" class="edge">
<title>Node75636&#45;&gt;Node75637</title>
<path fill="none" stroke="#191970" d="M278.8538,-340.4939C299.3905,-342.796 321.3963,-345.2627 339.7447,-347.3195"/>
<polygon fill="#191970" stroke="#191970" points="279.2403,-337.0154 268.9126,-339.3796 278.4604,-343.9719 279.2403,-337.0154"/>
</g>
<!-- Node75133 -->
<g id="node20" class="node">
<title>Node75133</title>
<g id="a_node20"><a xlink:href="quickjs_8c.html#aeb73aae9c3ad7daaf7646e3f2f89245a" target="_top" xlink:title="set_array_length">
<polygon fill="none" stroke="#000000" points="508,-342.5 508,-361.5 597,-361.5 597,-342.5 508,-342.5"/>
<text text-anchor="middle" x="552.5" y="-349.5" font-family="Helvetica,sans-Serif" font-size="10.00" fill="#000000">set_array_length</text>
</a>
</g>
</g>
<!-- Node75636&#45;&gt;Node75133 -->
<g id="edge35" class="edge">
<title>Node75636&#45;&gt;Node75133</title>
<path fill="none" stroke="#191970" d="M278.7107,-329.847C325.8277,-328.3896 390.401,-327.9441 447,-333 467.7612,-334.8546 490.5498,-338.7231 509.6178,-342.4884"/>
<polygon fill="#191970" stroke="#191970" points="278.5091,-326.3516 268.6311,-330.1823 278.7419,-333.3478 278.5091,-326.3516"/>
</g>
<!-- Node75265 -->
<g id="node23" class="node">
<title>Node75265</title>
<g id="a_node23"><a xlink:href="quickjs_8c.html#a9105ee38f5a557a7922fe6cfee0f9bb2" target="_top" xlink:title="js_arguments_define\l_own_property">
<polygon fill="none" stroke="#000000" points="882,-381 882,-411 989,-411 989,-381 882,-381"/>
<text text-anchor="start" x="890" y="-399" font-family="Helvetica,sans-Serif" font-size="10.00" fill="#000000">js_arguments_define</text>
<text text-anchor="middle" x="935.5" y="-388" font-family="Helvetica,sans-Serif" font-size="10.00" fill="#000000">_own_property</text>
</a>
</g>
</g>
<!-- Node75636&#45;&gt;Node75265 -->
<g id="edge39" class="edge">
<title>Node75636&#45;&gt;Node75265</title>
<path fill="none" stroke="#191970" d="M273.7275,-345.593C275.8613,-346.3523 277.9582,-347.154 280,-348 297.5405,-355.268 297.8864,-365.3088 316,-371 420.6156,-403.8698 751.1294,-400.2539 881.6881,-397.4086"/>
<polygon fill="#191970" stroke="#191970" points="274.7839,-342.2562 264.1925,-342.5284 272.6419,-348.9205 274.7839,-342.2562"/>
</g>
<!-- Node75636&#45;&gt;Node75134 -->
<g id="edge36" class="edge">
<title>Node75636&#45;&gt;Node75134</title>
<path fill="none" stroke="#191970" d="M229.7261,-349.2699C249.2635,-366.1408 282.3981,-391.7315 316,-404 377.4453,-426.4345 453.4628,-430.2888 502.4539,-429.9705"/>
<polygon fill="#191970" stroke="#191970" points="232.0341,-346.6386 222.2237,-342.6376 227.3978,-351.8831 232.0341,-346.6386"/>
</g>
<!-- Node75295&#45;&gt;Node75185 -->
<g id="edge23" class="edge">
<title>Node75295&#45;&gt;Node75185</title>
<path fill="none" stroke="#191970" d="M838.3238,-253C846.9026,-253 855.4912,-253 863.8169,-253"/>
<polygon fill="#191970" stroke="#191970" points="838.274,-249.5001 828.274,-253 838.2739,-256.5001 838.274,-249.5001"/>
</g>
<!-- Node75637&#45;&gt;Node75133 -->
<g id="edge25" class="edge">
<title>Node75637&#45;&gt;Node75133</title>
<path fill="none" stroke="#191970" d="M433.5613,-352C457.274,-352 485.06,-352 507.8099,-352"/>
<polygon fill="#191970" stroke="#191970" points="433.3313,-348.5001 423.3313,-352 433.3313,-355.5001 433.3313,-348.5001"/>
</g>
<!-- Node75133&#45;&gt;Node75079 -->
<g id="edge26" class="edge">
<title>Node75133&#45;&gt;Node75079</title>
<path fill="none" stroke="#191970" d="M598.4343,-364.1132C675.5054,-384.4375 829.2785,-424.9886 899.285,-443.4498"/>
<polygon fill="#191970" stroke="#191970" points="599.0936,-360.6675 588.5317,-361.5018 597.3087,-367.4361 599.0936,-360.6675"/>
</g>
<!-- Node75133&#45;&gt;Node75102 -->
<g id="edge28" class="edge">
<title>Node75133&#45;&gt;Node75102</title>
<path fill="none" stroke="#191970" d="M607.2667,-352C634.3762,-352 666.8612,-352 693.2535,-352"/>
<polygon fill="#191970" stroke="#191970" points="607.1638,-348.5001 597.1638,-352 607.1638,-355.5001 607.1638,-348.5001"/>
</g>
<!-- Node75079&#45;&gt;Node74961 -->
<g id="edge27" class="edge">
<title>Node75079&#45;&gt;Node74961</title>
<path fill="none" stroke="#191970" d="M1005.087,-453C1017.9827,-453 1031.0755,-453 1042.811,-453"/>
<polygon fill="#191970" stroke="#191970" points="1004.8169,-449.5001 994.8169,-453 1004.8168,-456.5001 1004.8169,-449.5001"/>
</g>
<!-- Node75102&#45;&gt;Node74961 -->
<g id="edge31" class="edge">
<title>Node75102&#45;&gt;Node74961</title>
<path fill="none" stroke="#191970" d="M802.6618,-344.7472C858.2791,-340.6337 942.1563,-341.3504 1007,-372 1040.7841,-387.9687 1067.4858,-425.5468 1078.7251,-443.3379"/>
<polygon fill="#191970" stroke="#191970" points="802.2995,-341.2651 792.6166,-345.5654 802.8678,-348.242 802.2995,-341.2651"/>
</g>
<!-- Node75102&#45;&gt;Node75262 -->
<g id="edge33" class="edge">
<title>Node75102&#45;&gt;Node75262</title>
<path fill="none" stroke="#191970" d="M794.7269,-340.1767C821.5242,-334.0516 854.2272,-326.5766 881.3657,-320.3735"/>
<polygon fill="#191970" stroke="#191970" points="793.7383,-336.8123 784.7696,-342.4527 795.2981,-343.6363 793.7383,-336.8123"/>
</g>
<!-- Node75102&#45;&gt;Node74992 -->
<g id="edge34" class="edge">
<title>Node75102&#45;&gt;Node74992</title>
<path fill="none" stroke="#191970" d="M759.254,-368.8028C798.2029,-409.0669 895.888,-510.0504 926.3085,-541.4981"/>
<polygon fill="#191970" stroke="#191970" points="761.753,-366.3522 752.2847,-361.5982 756.7218,-371.2191 761.753,-366.3522"/>
</g>
<!-- Node75102&#45;&gt;Node75079 -->
<g id="edge29" class="edge">
<title>Node75102&#45;&gt;Node75079</title>
<path fill="none" stroke="#191970" d="M767.6293,-366.9862C791.8099,-381.4736 829.9216,-403.7092 864,-421 880.0088,-429.1226 898.5182,-437.3766 912.6932,-443.4669"/>
<polygon fill="#191970" stroke="#191970" points="769.1505,-363.8167 758.7783,-361.6562 765.5393,-369.8133 769.1505,-363.8167"/>
</g>
<!-- Node75102&#45;&gt;Node75265 -->
<g id="edge30" class="edge">
<title>Node75102&#45;&gt;Node75265</title>
<path fill="none" stroke="#191970" d="M794.767,-363.8325C821.6749,-369.9828 854.5289,-377.4923 881.7241,-383.7084"/>
<polygon fill="#191970" stroke="#191970" points="795.2981,-360.3637 784.7696,-361.5473 793.7383,-367.1877 795.2981,-360.3637"/>
</g>
<!-- Node75102&#45;&gt;Node75135 -->
<g id="edge32" class="edge">
<title>Node75102&#45;&gt;Node75135</title>
<path fill="none" stroke="#191970" d="M761.3917,-335.2565C778.8047,-319.2718 805.5511,-294.3755 828,-272 844.4774,-255.5765 846.161,-248.9334 864,-234 878.1244,-222.1762 895.341,-210.7796 909.3405,-202.1705"/>
<polygon fill="#191970" stroke="#191970" points="758.6678,-333.0047 753.6529,-342.3375 763.3933,-338.1691 758.6678,-333.0047"/>
</g>
<!-- Node75134&#45;&gt;Node75079 -->
<g id="edge38" class="edge">
<title>Node75134&#45;&gt;Node75079</title>
<path fill="none" stroke="#191970" d="M612.6314,-436.9551C627.4354,-438.8902 643.2674,-440.7332 658,-442 733.1789,-448.4643 820.1478,-451.1359 876.3955,-452.2362"/>
<polygon fill="#191970" stroke="#191970" points="612.9492,-433.4665 602.5728,-435.6066 612.0191,-440.4044 612.9492,-433.4665"/>
</g>
<!-- Node75134&#45;&gt;Node75102 -->
<g id="edge37" class="edge">
<title>Node75134&#45;&gt;Node75102</title>
<path fill="none" stroke="#191970" d="M586.2673,-414.5285C624.415,-399.3095 685.5384,-374.9243 719.0689,-361.5473"/>
<polygon fill="#191970" stroke="#191970" points="584.6181,-411.4181 576.627,-418.3745 587.212,-417.9198 584.6181,-411.4181"/>
</g>
<!-- Node75335&#45;&gt;Node75102 -->
<g id="edge41" class="edge">
<title>Node75335&#45;&gt;Node75102</title>
<path fill="none" stroke="#191970" d="M421.4374,-250.5944C494.3472,-273.5867 647.4902,-321.8807 712.6322,-342.4234"/>
<polygon fill="#191970" stroke="#191970" points="422.2892,-247.1931 411.6995,-247.5235 420.1839,-253.869 422.2892,-247.1931"/>
</g>
<!-- Node75293&#45;&gt;Node75185 -->
<g id="edge45" class="edge">
<title>Node75293&#45;&gt;Node75185</title>
<path fill="none" stroke="#191970" d="M602.6992,-173.9272C679.6387,-192.2079 825.179,-226.788 895.4887,-243.4934"/>
<polygon fill="#191970" stroke="#191970" points="603.3021,-170.4731 592.7638,-171.5666 601.6839,-177.2835 603.3021,-170.4731"/>
</g>
<!-- Node75293&#45;&gt;Node75262 -->
<g id="edge47" class="edge">
<title>Node75293&#45;&gt;Node75262</title>
<path fill="none" stroke="#191970" d="M607.3856,-175.8212C612.7026,-178.6161 617.7057,-181.9718 622,-186 652.2212,-214.3481 625.0557,-246.8681 658,-272 722.407,-321.1336 820.6463,-321.5333 881.3168,-315.8399"/>
<polygon fill="#191970" stroke="#191970" points="608.7608,-172.6016 598.2108,-171.6275 605.8507,-178.968 608.7608,-172.6016"/>
</g>
<!-- Node75293&#45;&gt;Node75295 -->
<g id="edge46" class="edge">
<title>Node75293&#45;&gt;Node75295</title>
<path fill="none" stroke="#191970" d="M593.4101,-174.806C602.9182,-178.1443 612.9131,-181.9519 622,-186 661.4816,-203.5887 705.2628,-229.5671 727.7781,-243.4416"/>
<polygon fill="#191970" stroke="#191970" points="594.3309,-171.4222 583.7364,-171.5066 592.0712,-178.0474 594.3309,-171.4222"/>
</g>
<!-- Node75282&#45;&gt;Node74961 -->
<g id="edge49" class="edge">
<title>Node75282&#45;&gt;Node74961</title>
<path fill="none" stroke="#191970" d="M812.7089,-87.7287C872.274,-92.9949 956.172,-110.0185 1007,-162 1048.2121,-204.1474 1076.9533,-397.8337 1083.2169,-443.3872"/>
<polygon fill="#191970" stroke="#191970" points="812.8723,-84.2307 802.6266,-86.9282 812.3182,-91.2087 812.8723,-84.2307"/>
</g>
</g>
</svg>
        <g id="navigator" transform="translate(0 0)" fill="#404254">
                <rect fill="#f2f5e9" fill-opacity="0.5" stroke="#606060" stroke-width=".5" x="0" y="0" width="60" height="60"/>
                <use id="zoomplus" xlink:href="#zoomPlus" x="17" y="9" onmousedown="handleZoom(evt,'in')"/>
                <use id="zoomminus" xlink:href="#zoomMin" x="42" y="9" onmousedown="handleZoom(evt,'out')"/>
                <use id="reset" xlink:href="#resetDef" x="30" y="36" onmousedown="handleReset()"/>
                <g id="arrowUp" xlink:href="#dirArrow" transform="translate(30 24)" onmousedown="handlePan(0,-1)">
                  <use xlink:href="#rim" fill="#404040">
                        <set attributeName="fill" to="#808080" begin="arrowUp.mouseover" end="arrowUp.mouseout"/>
                  </use>
                  <path fill="none" stroke="white" stroke-width="1.5" d="M0,-3.0v7 M-2.5,-0.5L0,-3.0L2.5,-0.5"/>
                </g>
                <g id="arrowRight" xlink:href="#dirArrow" transform="rotate(90) translate(36 -43)" onmousedown="handlePan(1,0)">
                  <use xlink:href="#rim" fill="#404040">
                        <set attributeName="fill" to="#808080" begin="arrowRight.mouseover" end="arrowRight.mouseout"/>
                  </use>
                  <path fill="none" stroke="white" stroke-width="1.5" d="M0,-3.0v7 M-2.5,-0.5L0,-3.0L2.5,-0.5"/>
                </g>
                <g id="arrowDown" xlink:href="#dirArrow" transform="rotate(180) translate(-30 -48)" onmousedown="handlePan(0,1)">
                  <use xlink:href="#rim" fill="#404040">
                        <set attributeName="fill" to="#808080" begin="arrowDown.mouseover" end="arrowDown.mouseout"/>
                  </use>
                  <path fill="none" stroke="white" stroke-width="1.5" d="M0,-3.0v7 M-2.5,-0.5L0,-3.0L2.5,-0.5"/>
                </g>
                <g id="arrowLeft" xlink:href="#dirArrow" transform="rotate(270) translate(-36 17)" onmousedown="handlePan(-1,0)">
                  <use xlink:href="#rim" fill="#404040">
                        <set attributeName="fill" to="#808080" begin="arrowLeft.mouseover" end="arrowLeft.mouseout"/>
                  </use>
                  <path fill="none" stroke="white" stroke-width="1.5" d="M0,-3.0v7 M-2.5,-0.5L0,-3.0L2.5,-0.5"/>
                </g>
        </g>
        <svg viewBox="0 0 15 15" width="100%" height="30px" preserveAspectRatio="xMaxYMin meet">
         <g id="arrow_out" transform="scale(0.3 0.3)">
          <a xlink:href="quickjs_8c_a89f38938cee8077ce1fbba07946ed185_icgraph_org.svg" target="_base">
           <rect id="button" ry="5" rx="5" y="6" x="6" height="38" width="38"
                fill="#f2f5e9" fill-opacity="0.5" stroke="#606060" stroke-width="1.0"/>
           <path id="arrow"
             d="M 11.500037,31.436501 C 11.940474,20.09759 22.043105,11.32322 32.158766,21.979434 L 37.068811,17.246167 C 37.068811,17.246167 37.088388,32 37.088388,32 L 22.160133,31.978069 C 22.160133,31.978069 26.997745,27.140456 26.997745,27.140456 C 18.528582,18.264221 13.291696,25.230495 11.500037,31.436501 z"
             style="fill:#404040;"/>
          </a>
         </g>
        </svg>
</svg>
