<?xml version="1.0" encoding="UTF-8" standalone="no"?>
<!DOCTYPE svg PUBLIC "-//W3C//DTD SVG 1.1//EN"
 "http://www.w3.org/Graphics/SVG/1.1/DTD/svg11.dtd">
<!-- Generated by graphviz version 2.40.1 (20161225.0304)
 -->
<!-- Title: js_async_function_free0 Pages: 1 -->
<svg width="609pt" height="78pt"
 viewBox="0.00 0.00 609.00 77.50" xmlns="http://www.w3.org/2000/svg" xmlns:xlink="http://www.w3.org/1999/xlink">
<g id="graph0" class="graph" transform="scale(1 1) rotate(0) translate(4 73.5)">
<title>js_async_function_free0</title>
<!-- Node49181 -->
<g id="node1" class="node">
<title>Node49181</title>
<polygon fill="#bfbfbf" stroke="#000000" points="0,-22.5 0,-41.5 122,-41.5 122,-22.5 0,-22.5"/>
<text text-anchor="middle" x="61" y="-29.5" font-family="Helvetica,sans-Serif" font-size="10.00" fill="#000000">js_async_function_free0</text>
</g>
<!-- Node49182 -->
<g id="node2" class="node">
<title>Node49182</title>
<g id="a_node2"><a xlink:href="quickjs_8c.html#aee58f0488d619274e9d72be864626298" target="_top" xlink:title="js_async_function_free">
<polygon fill="none" stroke="#000000" points="158,-22.5 158,-41.5 275,-41.5 275,-22.5 158,-22.5"/>
<text text-anchor="middle" x="216.5" y="-29.5" font-family="Helvetica,sans-Serif" font-size="10.00" fill="#000000">js_async_function_free</text>
</a>
</g>
</g>
<!-- Node49181&#45;&gt;Node49182 -->
<g id="edge1" class="edge">
<title>Node49181&#45;&gt;Node49182</title>
<path fill="none" stroke="#191970" d="M132.0932,-32C140.7469,-32 149.5114,-32 157.9536,-32"/>
<polygon fill="#191970" stroke="#191970" points="132.0114,-28.5001 122.0114,-32 132.0114,-35.5001 132.0114,-28.5001"/>
</g>
<!-- Node49183 -->
<g id="node3" class="node">
<title>Node49183</title>
<g id="a_node3"><a xlink:href="quickjs_8c.html#ac931348298547ac227fe8407e91acf54" target="_top" xlink:title="js_async_function_resolve\l_finalizer">
<polygon fill="none" stroke="#000000" points="311,-39 311,-69 443,-69 443,-39 311,-39"/>
<text text-anchor="start" x="319" y="-57" font-family="Helvetica,sans-Serif" font-size="10.00" fill="#000000">js_async_function_resolve</text>
<text text-anchor="middle" x="377" y="-46" font-family="Helvetica,sans-Serif" font-size="10.00" fill="#000000">_finalizer</text>
</a>
</g>
</g>
<!-- Node49182&#45;&gt;Node49183 -->
<g id="edge2" class="edge">
<title>Node49182&#45;&gt;Node49183</title>
<path fill="none" stroke="#191970" d="M285.4954,-41.4573C293.8997,-42.6093 302.4719,-43.7843 310.8335,-44.9305"/>
<polygon fill="#191970" stroke="#191970" points="285.7356,-37.9576 275.3529,-40.0671 284.7849,-44.8927 285.7356,-37.9576"/>
</g>
<!-- Node49184 -->
<g id="node4" class="node">
<title>Node49184</title>
<g id="a_node4"><a xlink:href="quickjs_8c.html#a8029b29b8458274699fbcb7ce42a7100" target="_top" xlink:title="js_async_function_call">
<polygon fill="none" stroke="#000000" points="319,-.5 319,-19.5 435,-19.5 435,-.5 319,-.5"/>
<text text-anchor="middle" x="377" y="-7.5" font-family="Helvetica,sans-Serif" font-size="10.00" fill="#000000">js_async_function_call</text>
</a>
</g>
</g>
<!-- Node49182&#45;&gt;Node49184 -->
<g id="edge3" class="edge">
<title>Node49182&#45;&gt;Node49184</title>
<path fill="none" stroke="#191970" d="M285.489,-22.5436C296.6444,-21.0145 308.096,-19.4448 318.9583,-17.9559"/>
<polygon fill="#191970" stroke="#191970" points="284.7849,-19.1073 275.3529,-23.9329 285.7356,-26.0424 284.7849,-19.1073"/>
</g>
<!-- Node49185 -->
<g id="node5" class="node">
<title>Node49185</title>
<g id="a_node5"><a xlink:href="quickjs_8c.html#a2e66fcf1bc1d19f346317f10ee590621" target="_top" xlink:title="JS_AddIntrinsicPromise">
<polygon fill="none" stroke="#ff0000" points="479,-.5 479,-19.5 601,-19.5 601,-.5 479,-.5"/>
<text text-anchor="middle" x="540" y="-7.5" font-family="Helvetica,sans-Serif" font-size="10.00" fill="#000000">JS_AddIntrinsicPromise</text>
</a>
</g>
</g>
<!-- Node49184&#45;&gt;Node49185 -->
<g id="edge4" class="edge">
<title>Node49184&#45;&gt;Node49185</title>
<path fill="none" stroke="#191970" d="M445.4846,-10C456.609,-10 468.0655,-10 478.996,-10"/>
<polygon fill="#191970" stroke="#191970" points="445.3864,-6.5001 435.3863,-10 445.3863,-13.5001 445.3864,-6.5001"/>
</g>
</g>
</svg>
