<?xml version="1.0" encoding="UTF-8" standalone="no"?>
<!DOCTYPE svg PUBLIC "-//W3C//DTD SVG 1.1//EN"
 "http://www.w3.org/Graphics/SVG/1.1/DTD/svg11.dtd">
<!-- Generated by graphviz version 2.40.1 (20161225.0304)
 -->
<!-- Title: js_async_generator_free Pages: 1 -->
<svg width="615pt" height="161pt"
 viewBox="0.00 0.00 615.00 160.74" xmlns="http://www.w3.org/2000/svg" xmlns:xlink="http://www.w3.org/1999/xlink">
<g id="graph0" class="graph" transform="scale(1 1) rotate(0) translate(4 156.7358)">
<title>js_async_generator_free</title>
<!-- Node302750 -->
<g id="node1" class="node">
<title>Node302750</title>
<polygon fill="#bfbfbf" stroke="#000000" points="0,-19.2358 0,-38.2358 123,-38.2358 123,-19.2358 0,-19.2358"/>
<text text-anchor="middle" x="61.5" y="-26.2358" font-family="Helvetica,sans-Serif" font-size="10.00" fill="#000000">js_async_generator_free</text>
</g>
<!-- Node302751 -->
<g id="node2" class="node">
<title>Node302751</title>
<g id="a_node2"><a xlink:href="quickjs_8c.html#ab3180b5caf3b66ac6db634e41e56a4ef" target="_top" xlink:title="async_func_free">
<polygon fill="none" stroke="#000000" points="159,-57.2358 159,-76.2358 248,-76.2358 248,-57.2358 159,-57.2358"/>
<text text-anchor="middle" x="203.5" y="-64.2358" font-family="Helvetica,sans-Serif" font-size="10.00" fill="#000000">async_func_free</text>
</a>
</g>
</g>
<!-- Node302750&#45;&gt;Node302751 -->
<g id="edge1" class="edge">
<title>Node302750&#45;&gt;Node302751</title>
<path fill="none" stroke="#191970" d="M97.3326,-38.3248C115.6634,-43.2302 138.1784,-49.2553 157.7501,-54.4928"/>
<polygon fill="#191970" stroke="#191970" points="157.114,-57.9457 167.6789,-57.1498 158.9236,-51.1836 157.114,-57.9457"/>
</g>
<!-- Node302757 -->
<g id="node6" class="node">
<title>Node302757</title>
<g id="a_node6"><a xlink:href="quickjs_8c.html#a69e19dda8a93d613203e0baa06f0ed8d" target="_top" xlink:title="js_free_rt">
<polygon fill="none" stroke="#000000" points="550,-19.2358 550,-38.2358 607,-38.2358 607,-19.2358 550,-19.2358"/>
<text text-anchor="middle" x="578.5" y="-26.2358" font-family="Helvetica,sans-Serif" font-size="10.00" fill="#000000">js_free_rt</text>
</a>
</g>
</g>
<!-- Node302750&#45;&gt;Node302757 -->
<g id="edge9" class="edge">
<title>Node302750&#45;&gt;Node302757</title>
<path fill="none" stroke="#191970" d="M121.5133,-19.2114C208.5071,-6.9875 374.5022,10.3831 514,-9.7358 523.5033,-11.1063 533.558,-13.5575 542.829,-16.2535"/>
<polygon fill="#191970" stroke="#191970" points="541.9309,-19.639 552.5181,-19.2353 543.99,-12.9487 541.9309,-19.639"/>
</g>
<!-- Node302758 -->
<g id="node7" class="node">
<title>Node302758</title>
<g id="a_node7"><a xlink:href="quickjs_8h.html#ab8db583fa5e7c2b1935854a42859daed" target="_top" xlink:title="JS_FreeValueRT">
<polygon fill="none" stroke="#000000" points="284,-19.2358 284,-38.2358 376,-38.2358 376,-19.2358 284,-19.2358"/>
<text text-anchor="middle" x="330" y="-26.2358" font-family="Helvetica,sans-Serif" font-size="10.00" fill="#000000">JS_FreeValueRT</text>
</a>
</g>
</g>
<!-- Node302750&#45;&gt;Node302758 -->
<g id="edge10" class="edge">
<title>Node302750&#45;&gt;Node302758</title>
<path fill="none" stroke="#191970" d="M123.0993,-28.7358C168.3929,-28.7358 229.4748,-28.7358 273.5155,-28.7358"/>
<polygon fill="#191970" stroke="#191970" points="273.7621,-32.2359 283.762,-28.7358 273.762,-25.2359 273.7621,-32.2359"/>
</g>
<!-- Node302752 -->
<g id="node3" class="node">
<title>Node302752</title>
<g id="a_node3"><a xlink:href="quickjs_8c.html#a1782043fce951bd4f0d91c7796b31e24" target="_top" xlink:title="close_var_refs">
<polygon fill="none" stroke="#000000" points="290,-95.2358 290,-114.2358 370,-114.2358 370,-95.2358 290,-95.2358"/>
<text text-anchor="middle" x="330" y="-102.2358" font-family="Helvetica,sans-Serif" font-size="10.00" fill="#000000">close_var_refs</text>
</a>
</g>
</g>
<!-- Node302751&#45;&gt;Node302752 -->
<g id="edge2" class="edge">
<title>Node302751&#45;&gt;Node302752</title>
<path fill="none" stroke="#191970" d="M235.4213,-76.3248C251.4516,-81.1402 271.0738,-87.0346 288.2816,-92.2038"/>
<polygon fill="#191970" stroke="#191970" points="287.5047,-95.6248 298.0889,-95.1498 289.5187,-88.9208 287.5047,-95.6248"/>
</g>
<!-- Node302751&#45;&gt;Node302757 -->
<g id="edge5" class="edge">
<title>Node302751&#45;&gt;Node302757</title>
<path fill="none" stroke="#191970" d="M248.0875,-67.1444C308.7274,-66.989 420.3794,-64.1722 514,-47.7358 523.0222,-46.1518 532.5734,-43.7537 541.4818,-41.1895"/>
<polygon fill="#191970" stroke="#191970" points="542.6399,-44.496 551.2039,-38.2583 540.6192,-37.794 542.6399,-44.496"/>
</g>
<!-- Node302751&#45;&gt;Node302758 -->
<g id="edge6" class="edge">
<title>Node302751&#45;&gt;Node302758</title>
<path fill="none" stroke="#191970" d="M235.4213,-57.1468C251.4516,-52.3313 271.0738,-46.4369 288.2816,-41.2678"/>
<polygon fill="#191970" stroke="#191970" points="289.5187,-44.5507 298.0889,-38.3217 287.5047,-37.8467 289.5187,-44.5507"/>
</g>
<!-- Node302753 -->
<g id="node4" class="node">
<title>Node302753</title>
<g id="a_node4"><a xlink:href="quickjs_8c.html#a9780456a71703c53244b88831bc8fb7a" target="_top" xlink:title="add_gc_object">
<polygon fill="none" stroke="#ff0000" points="423,-133.2358 423,-152.2358 503,-152.2358 503,-133.2358 423,-133.2358"/>
<text text-anchor="middle" x="463" y="-140.2358" font-family="Helvetica,sans-Serif" font-size="10.00" fill="#000000">add_gc_object</text>
</a>
</g>
</g>
<!-- Node302752&#45;&gt;Node302753 -->
<g id="edge3" class="edge">
<title>Node302752&#45;&gt;Node302753</title>
<path fill="none" stroke="#191970" d="M363.5615,-114.3248C380.573,-119.1852 401.4319,-125.1449 419.6446,-130.3485"/>
<polygon fill="#191970" stroke="#191970" points="418.8724,-133.7679 429.4492,-133.1498 420.7955,-127.0372 418.8724,-133.7679"/>
</g>
<!-- Node302756 -->
<g id="node5" class="node">
<title>Node302756</title>
<g id="a_node5"><a xlink:href="quickjs_8h.html#a43f4842ac4151b79ccd82e23216e87ad" target="_top" xlink:title="JS_DupValueRT">
<polygon fill="none" stroke="#000000" points="418,-95.2358 418,-114.2358 508,-114.2358 508,-95.2358 418,-95.2358"/>
<text text-anchor="middle" x="463" y="-102.2358" font-family="Helvetica,sans-Serif" font-size="10.00" fill="#000000">JS_DupValueRT</text>
</a>
</g>
</g>
<!-- Node302752&#45;&gt;Node302756 -->
<g id="edge4" class="edge">
<title>Node302752&#45;&gt;Node302756</title>
<path fill="none" stroke="#191970" d="M370.2653,-104.7358C381.9726,-104.7358 394.9718,-104.7358 407.4431,-104.7358"/>
<polygon fill="#191970" stroke="#191970" points="407.7548,-108.2359 417.7548,-104.7358 407.7547,-101.2359 407.7548,-108.2359"/>
</g>
<!-- Node302759 -->
<g id="node8" class="node">
<title>Node302759</title>
<g id="a_node8"><a xlink:href="quickjs_8c.html#ab1ea3fad7d138be12144a38be4d36423" target="_top" xlink:title="__JS_FreeValueRT">
<polygon fill="none" stroke="#ff0000" points="412,-19.2358 412,-38.2358 514,-38.2358 514,-19.2358 412,-19.2358"/>
<text text-anchor="middle" x="463" y="-26.2358" font-family="Helvetica,sans-Serif" font-size="10.00" fill="#000000">__JS_FreeValueRT</text>
</a>
</g>
</g>
<!-- Node302758&#45;&gt;Node302759 -->
<g id="edge7" class="edge">
<title>Node302758&#45;&gt;Node302759</title>
<path fill="none" stroke="#191970" d="M376.1437,-28.7358C384.4482,-28.7358 393.2214,-28.7358 401.8726,-28.7358"/>
<polygon fill="#191970" stroke="#191970" points="401.9369,-32.2359 411.9368,-28.7358 401.9368,-25.2359 401.9369,-32.2359"/>
</g>
<!-- Node302759&#45;&gt;Node302757 -->
<g id="edge8" class="edge">
<title>Node302759&#45;&gt;Node302757</title>
<path fill="none" stroke="#191970" d="M514.3326,-28.7358C522.7947,-28.7358 531.4429,-28.7358 539.5383,-28.7358"/>
<polygon fill="#191970" stroke="#191970" points="539.7999,-32.2359 549.7999,-28.7358 539.7998,-25.2359 539.7999,-32.2359"/>
</g>
</g>
</svg>
