<?xml version="1.0" encoding="UTF-8" standalone="no"?>
<!DOCTYPE svg PUBLIC "-//W3C//DTD SVG 1.1//EN"
 "http://www.w3.org/Graphics/SVG/1.1/DTD/svg11.dtd">
<!-- Generated by graphviz version 2.40.1 (20161225.0304)
 -->
<!-- Title: js_bound_function_finalizer Pages: 1 -->
<svg width="640pt" height="104pt"
 viewBox="0.00 0.00 640.00 104.00" xmlns="http://www.w3.org/2000/svg" xmlns:xlink="http://www.w3.org/1999/xlink">
<g id="graph0" class="graph" transform="scale(1 1) rotate(0) translate(4 100)">
<title>js_bound_function_finalizer</title>
<!-- Node148374 -->
<g id="node1" class="node">
<title>Node148374</title>
<polygon fill="#bfbfbf" stroke="#000000" points="0,-76.5 0,-95.5 134,-95.5 134,-76.5 0,-76.5"/>
<text text-anchor="middle" x="67" y="-83.5" font-family="Helvetica,sans-Serif" font-size="10.00" fill="#000000">js_bound_function_finalizer</text>
</g>
<!-- Node148375 -->
<g id="node2" class="node">
<title>Node148375</title>
<g id="a_node2"><a xlink:href="quickjs_8c.html#a69e19dda8a93d613203e0baa06f0ed8d" target="_top" xlink:title="js_free_rt">
<polygon fill="none" stroke="#000000" points="575,-76.5 575,-95.5 632,-95.5 632,-76.5 575,-76.5"/>
<text text-anchor="middle" x="603.5" y="-83.5" font-family="Helvetica,sans-Serif" font-size="10.00" fill="#000000">js_free_rt</text>
</a>
</g>
</g>
<!-- Node148374&#45;&gt;Node148375 -->
<g id="edge1" class="edge">
<title>Node148374&#45;&gt;Node148375</title>
<path fill="none" stroke="#191970" d="M134.3338,-86.2372C208.305,-86.485 330.6169,-86.8572 436,-87 481.7777,-87.062 493.2236,-87.3548 539,-87 547.3598,-86.9352 556.3286,-86.8232 564.8403,-86.6969"/>
<polygon fill="#191970" stroke="#191970" points="564.9808,-90.1953 574.9245,-86.5382 564.8706,-83.1961 564.9808,-90.1953"/>
</g>
<!-- Node148376 -->
<g id="node3" class="node">
<title>Node148376</title>
<g id="a_node3"><a xlink:href="quickjs_8h.html#ab8db583fa5e7c2b1935854a42859daed" target="_top" xlink:title="JS_FreeValueRT">
<polygon fill="none" stroke="#000000" points="170,-57.5 170,-76.5 262,-76.5 262,-57.5 170,-57.5"/>
<text text-anchor="middle" x="216" y="-64.5" font-family="Helvetica,sans-Serif" font-size="10.00" fill="#000000">JS_FreeValueRT</text>
</a>
</g>
</g>
<!-- Node148374&#45;&gt;Node148376 -->
<g id="edge2" class="edge">
<title>Node148374&#45;&gt;Node148376</title>
<path fill="none" stroke="#191970" d="M134.09,-77.4449C142.6568,-76.3525 151.3555,-75.2433 159.7271,-74.1757"/>
<polygon fill="#191970" stroke="#191970" points="160.2685,-77.6351 169.7454,-72.8982 159.383,-70.6914 160.2685,-77.6351"/>
</g>
<!-- Node148377 -->
<g id="node4" class="node">
<title>Node148377</title>
<g id="a_node4"><a xlink:href="quickjs_8c.html#ab1ea3fad7d138be12144a38be4d36423" target="_top" xlink:title="__JS_FreeValueRT">
<polygon fill="none" stroke="#000000" points="298,-47.5 298,-66.5 400,-66.5 400,-47.5 298,-47.5"/>
<text text-anchor="middle" x="349" y="-54.5" font-family="Helvetica,sans-Serif" font-size="10.00" fill="#000000">__JS_FreeValueRT</text>
</a>
</g>
</g>
<!-- Node148376&#45;&gt;Node148377 -->
<g id="edge3" class="edge">
<title>Node148376&#45;&gt;Node148377</title>
<path fill="none" stroke="#191970" d="M262.1437,-63.5305C270.4482,-62.9062 279.2214,-62.2465 287.8726,-61.596"/>
<polygon fill="#191970" stroke="#191970" points="288.2274,-65.0793 297.9368,-60.8393 287.7025,-58.099 288.2274,-65.0793"/>
</g>
<!-- Node148377&#45;&gt;Node148375 -->
<g id="edge6" class="edge">
<title>Node148377&#45;&gt;Node148375</title>
<path fill="none" stroke="#191970" d="M400.0626,-62.8821C411.8637,-64.238 424.3688,-65.6719 436,-67 480.1386,-72.0401 530.8252,-77.7834 564.7755,-81.6239"/>
<polygon fill="#191970" stroke="#191970" points="564.4187,-85.1058 574.7487,-82.7518 565.2054,-78.1501 564.4187,-85.1058"/>
</g>
<!-- Node148378 -->
<g id="node5" class="node">
<title>Node148378</title>
<g id="a_node5"><a xlink:href="quickjs_8c.html#a58c8965dad50b15b75918a09f3d9dc7c" target="_top" xlink:title="JS_FreeAtomStruct">
<polygon fill="none" stroke="#ff0000" points="436,-38.5 436,-57.5 539,-57.5 539,-38.5 436,-38.5"/>
<text text-anchor="middle" x="487.5" y="-45.5" font-family="Helvetica,sans-Serif" font-size="10.00" fill="#000000">JS_FreeAtomStruct</text>
</a>
</g>
</g>
<!-- Node148377&#45;&gt;Node148378 -->
<g id="edge4" class="edge">
<title>Node148377&#45;&gt;Node148378</title>
<path fill="none" stroke="#191970" d="M400.1788,-53.6743C408.3963,-53.1403 416.9787,-52.5826 425.4177,-52.0342"/>
<polygon fill="#191970" stroke="#191970" points="425.8541,-55.5133 435.6061,-51.3722 425.4001,-48.5281 425.8541,-55.5133"/>
</g>
<!-- Node148380 -->
<g id="node6" class="node">
<title>Node148380</title>
<g id="a_node6"><a xlink:href="quickjs_8c.html#a8defed3434f60d6b5d6a7ea202cc8f9d" target="_top" xlink:title="free_zero_refcount">
<polygon fill="none" stroke="#ff0000" points="438.5,-.5 438.5,-19.5 536.5,-19.5 536.5,-.5 438.5,-.5"/>
<text text-anchor="middle" x="487.5" y="-7.5" font-family="Helvetica,sans-Serif" font-size="10.00" fill="#000000">free_zero_refcount</text>
</a>
</g>
</g>
<!-- Node148377&#45;&gt;Node148380 -->
<g id="edge7" class="edge">
<title>Node148377&#45;&gt;Node148380</title>
<path fill="none" stroke="#191970" d="M377.0275,-47.4888C397.8215,-40.4324 426.4119,-30.7303 449.2974,-22.9641"/>
<polygon fill="#191970" stroke="#191970" points="450.6939,-26.1863 459.0388,-19.6583 448.4444,-19.5575 450.6939,-26.1863"/>
</g>
<!-- Node148378&#45;&gt;Node148375 -->
<g id="edge5" class="edge">
<title>Node148378&#45;&gt;Node148375</title>
<path fill="none" stroke="#191970" d="M516.7717,-57.589C531.3068,-62.3505 549.0622,-68.1669 564.7134,-73.294"/>
<polygon fill="#191970" stroke="#191970" points="564.0468,-76.7586 574.6395,-76.5457 566.226,-70.1065 564.0468,-76.7586"/>
</g>
</g>
</svg>
