<?xml version="1.0" encoding="UTF-8" standalone="no"?>
<!DOCTYPE svg PUBLIC "-//W3C//DTD SVG 1.1//EN"
 "http://www.w3.org/Graphics/SVG/1.1/DTD/svg11.dtd">
<!-- Generated by graphviz version 2.40.1 (20161225.0304)
 -->
<!-- Title: JS_SetPropertyStr Pages: 1 -->
<svg width="481pt" height="240pt"
 viewBox="0.00 0.00 481.00 240.00" xmlns="http://www.w3.org/2000/svg" xmlns:xlink="http://www.w3.org/1999/xlink">
<g id="graph0" class="graph" transform="scale(1 1) rotate(0) translate(4 236)">
<title>JS_SetPropertyStr</title>
<!-- Node201433 -->
<g id="node1" class="node">
<title>Node201433</title>
<polygon fill="#bfbfbf" stroke="#000000" points="0,-60.5 0,-79.5 98,-79.5 98,-60.5 0,-60.5"/>
<text text-anchor="middle" x="49" y="-67.5" font-family="Helvetica,sans-Serif" font-size="10.00" fill="#000000">JS_SetPropertyStr</text>
</g>
<!-- Node201434 -->
<g id="node2" class="node">
<title>Node201434</title>
<g id="a_node2"><a xlink:href="quickjs-libc_8c.html#a5802fe689f97b693173247111a01a76a" target="_top" xlink:title="js_set_error_object">
<polygon fill="none" stroke="#000000" points="139.5,-136.5 139.5,-155.5 238.5,-155.5 238.5,-136.5 139.5,-136.5"/>
<text text-anchor="middle" x="189" y="-143.5" font-family="Helvetica,sans-Serif" font-size="10.00" fill="#000000">js_set_error_object</text>
</a>
</g>
</g>
<!-- Node201433&#45;&gt;Node201434 -->
<g id="edge1" class="edge">
<title>Node201433&#45;&gt;Node201434</title>
<path fill="none" stroke="#191970" d="M75.6279,-84.4551C103.7532,-99.7232 147.2953,-123.3603 171.4129,-136.4527"/>
<polygon fill="#191970" stroke="#191970" points="77.1895,-81.3204 66.7311,-79.6255 73.8498,-87.4724 77.1895,-81.3204"/>
</g>
<!-- Node201439 -->
<g id="node7" class="node">
<title>Node201439</title>
<g id="a_node7"><a xlink:href="quickjs-libc_8c.html#ad04466feec6822a3b838baf229f6dfa0" target="_top" xlink:title="js_std_add_helpers">
<polygon fill="none" stroke="#000000" points="138.5,-60.5 138.5,-79.5 239.5,-79.5 239.5,-60.5 138.5,-60.5"/>
<text text-anchor="middle" x="189" y="-67.5" font-family="Helvetica,sans-Serif" font-size="10.00" fill="#000000">js_std_add_helpers</text>
</a>
</g>
</g>
<!-- Node201433&#45;&gt;Node201439 -->
<g id="edge6" class="edge">
<title>Node201433&#45;&gt;Node201439</title>
<path fill="none" stroke="#191970" d="M108.5156,-70C118.3937,-70 128.5568,-70 138.1939,-70"/>
<polygon fill="#191970" stroke="#191970" points="108.3588,-66.5001 98.3588,-70 108.3587,-73.5001 108.3588,-66.5001"/>
</g>
<!-- Node201445 -->
<g id="node11" class="node">
<title>Node201445</title>
<g id="a_node11"><a xlink:href="structqjs_1_1js__property__traits_3_01const_01char_01_5_01_4.html#ad7131d2b5de0ffc36fba2524b6d88f11" target="_top" xlink:title="qjs::js_property_traits\l\&lt; const char * \&gt;::set\l_property">
<polygon fill="none" stroke="#000000" points="134,-.5 134,-41.5 244,-41.5 244,-.5 134,-.5"/>
<text text-anchor="start" x="142" y="-29.5" font-family="Helvetica,sans-Serif" font-size="10.00" fill="#000000">qjs::js_property_traits</text>
<text text-anchor="start" x="142" y="-18.5" font-family="Helvetica,sans-Serif" font-size="10.00" fill="#000000">&lt; const char * &gt;::set</text>
<text text-anchor="middle" x="189" y="-7.5" font-family="Helvetica,sans-Serif" font-size="10.00" fill="#000000">_property</text>
</a>
</g>
</g>
<!-- Node201433&#45;&gt;Node201445 -->
<g id="edge10" class="edge">
<title>Node201433&#45;&gt;Node201445</title>
<path fill="none" stroke="#191970" d="M86.0348,-57.0378C100.7002,-51.9049 117.8673,-45.8964 133.9336,-40.2732"/>
<polygon fill="#191970" stroke="#191970" points="84.6081,-53.8289 76.3258,-60.436 86.9206,-60.4359 84.6081,-53.8289"/>
</g>
<!-- Node201435 -->
<g id="node3" class="node">
<title>Node201435</title>
<g id="a_node3"><a xlink:href="quickjs-libc_8c.html#a51bfedac363e39a4273635aa7810425a" target="_top" xlink:title="js_std_fdopen">
<polygon fill="none" stroke="#000000" points="280,-212.5 280,-231.5 357,-231.5 357,-212.5 280,-212.5"/>
<text text-anchor="middle" x="318.5" y="-219.5" font-family="Helvetica,sans-Serif" font-size="10.00" fill="#000000">js_std_fdopen</text>
</a>
</g>
</g>
<!-- Node201434&#45;&gt;Node201435 -->
<g id="edge2" class="edge">
<title>Node201434&#45;&gt;Node201435</title>
<path fill="none" stroke="#191970" d="M211.9444,-161.2749C230.1147,-173.1496 256.2955,-189.7714 280,-203 285.7277,-206.1964 292.0669,-209.4404 297.9204,-212.3216"/>
<polygon fill="#191970" stroke="#191970" points="213.5062,-158.113 203.2283,-155.5411 209.6591,-163.961 213.5062,-158.113"/>
</g>
<!-- Node201436 -->
<g id="node4" class="node">
<title>Node201436</title>
<g id="a_node4"><a xlink:href="quickjs-libc_8c.html#a7af79ae13a636de55a6d58309c0cfa1e" target="_top" xlink:title="js_std_open">
<polygon fill="none" stroke="#000000" points="284,-174.5 284,-193.5 353,-193.5 353,-174.5 284,-174.5"/>
<text text-anchor="middle" x="318.5" y="-181.5" font-family="Helvetica,sans-Serif" font-size="10.00" fill="#000000">js_std_open</text>
</a>
</g>
</g>
<!-- Node201434&#45;&gt;Node201436 -->
<g id="edge3" class="edge">
<title>Node201434&#45;&gt;Node201436</title>
<path fill="none" stroke="#191970" d="M231.719,-158.5353C249.336,-163.7048 269.4232,-169.5991 285.8321,-174.4141"/>
<polygon fill="#191970" stroke="#191970" points="232.2592,-155.0463 221.6783,-155.589 230.2882,-161.7631 232.2592,-155.0463"/>
</g>
<!-- Node201437 -->
<g id="node5" class="node">
<title>Node201437</title>
<g id="a_node5"><a xlink:href="quickjs-libc_8c.html#af872be4f158af25e3b412e2be297abcf" target="_top" xlink:title="js_std_popen">
<polygon fill="none" stroke="#000000" points="281.5,-136.5 281.5,-155.5 355.5,-155.5 355.5,-136.5 281.5,-136.5"/>
<text text-anchor="middle" x="318.5" y="-143.5" font-family="Helvetica,sans-Serif" font-size="10.00" fill="#000000">js_std_popen</text>
</a>
</g>
</g>
<!-- Node201434&#45;&gt;Node201437 -->
<g id="edge4" class="edge">
<title>Node201434&#45;&gt;Node201437</title>
<path fill="none" stroke="#191970" d="M248.7573,-146C259.8113,-146 271.0606,-146 281.2061,-146"/>
<polygon fill="#191970" stroke="#191970" points="248.6978,-142.5001 238.6977,-146 248.6977,-149.5001 248.6978,-142.5001"/>
</g>
<!-- Node201438 -->
<g id="node6" class="node">
<title>Node201438</title>
<g id="a_node6"><a xlink:href="quickjs-libc_8c.html#ab6571176bd6ffba18dcc966ffb1c7234" target="_top" xlink:title="js_std_tmpfile">
<polygon fill="none" stroke="#000000" points="280,-98.5 280,-117.5 357,-117.5 357,-98.5 280,-98.5"/>
<text text-anchor="middle" x="318.5" y="-105.5" font-family="Helvetica,sans-Serif" font-size="10.00" fill="#000000">js_std_tmpfile</text>
</a>
</g>
</g>
<!-- Node201434&#45;&gt;Node201438 -->
<g id="edge5" class="edge">
<title>Node201434&#45;&gt;Node201438</title>
<path fill="none" stroke="#191970" d="M231.719,-133.4647C249.336,-128.2952 269.4232,-122.4009 285.8321,-117.5859"/>
<polygon fill="#191970" stroke="#191970" points="230.2882,-130.2369 221.6783,-136.411 232.2592,-136.9537 230.2882,-130.2369"/>
</g>
<!-- Node201440 -->
<g id="node8" class="node">
<title>Node201440</title>
<g id="a_node8"><a xlink:href="qjs_8cpp.html#a3c04138a5bfe5d72780bb7e82a18e627" target="_top" xlink:title="main">
<polygon fill="none" stroke="#000000" points="299.5,-60.5 299.5,-79.5 337.5,-79.5 337.5,-60.5 299.5,-60.5"/>
<text text-anchor="middle" x="318.5" y="-67.5" font-family="Helvetica,sans-Serif" font-size="10.00" fill="#000000">main</text>
</a>
</g>
</g>
<!-- Node201439&#45;&gt;Node201440 -->
<g id="edge7" class="edge">
<title>Node201439&#45;&gt;Node201440</title>
<path fill="none" stroke="#191970" d="M250.1864,-70C267.9488,-70 286.07,-70 299.1814,-70"/>
<polygon fill="#191970" stroke="#191970" points="249.8102,-66.5001 239.8101,-70 249.8101,-73.5001 249.8102,-66.5001"/>
</g>
<!-- Node201441 -->
<g id="node9" class="node">
<title>Node201441</title>
<g id="a_node9"><a xlink:href="quickjs-libc_8c.html#a1fbb3adc15e7b967479fc1940e99b67a" target="_top" xlink:title="worker_func">
<polygon fill="none" stroke="#000000" points="283.5,-22.5 283.5,-41.5 353.5,-41.5 353.5,-22.5 283.5,-22.5"/>
<text text-anchor="middle" x="318.5" y="-29.5" font-family="Helvetica,sans-Serif" font-size="10.00" fill="#000000">worker_func</text>
</a>
</g>
</g>
<!-- Node201439&#45;&gt;Node201441 -->
<g id="edge8" class="edge">
<title>Node201439&#45;&gt;Node201441</title>
<path fill="none" stroke="#191970" d="M231.719,-57.4647C249.336,-52.2952 269.4232,-46.4009 285.8321,-41.5859"/>
<polygon fill="#191970" stroke="#191970" points="230.2882,-54.2369 221.6783,-60.411 232.2592,-60.9537 230.2882,-54.2369"/>
</g>
<!-- Node201442 -->
<g id="node10" class="node">
<title>Node201442</title>
<g id="a_node10"><a xlink:href="quickjs-libc_8c.html#aff1e6131e8bf8b7eb25307623ad669e7" target="_top" xlink:title="js_worker_ctor">
<polygon fill="none" stroke="#ff0000" points="393,-22.5 393,-41.5 473,-41.5 473,-22.5 393,-22.5"/>
<text text-anchor="middle" x="433" y="-29.5" font-family="Helvetica,sans-Serif" font-size="10.00" fill="#000000">js_worker_ctor</text>
</a>
</g>
</g>
<!-- Node201441&#45;&gt;Node201442 -->
<g id="edge9" class="edge">
<title>Node201441&#45;&gt;Node201442</title>
<path fill="none" stroke="#191970" d="M363.9191,-32C373.4708,-32 383.482,-32 392.8253,-32"/>
<polygon fill="#191970" stroke="#191970" points="363.7881,-28.5001 353.7881,-32 363.788,-35.5001 363.7881,-28.5001"/>
</g>
</g>
</svg>
