<?xml version="1.0" encoding="UTF-8" standalone="no"?>
<!DOCTYPE svg PUBLIC "-//W3C//DTD SVG 1.1//EN"
 "http://www.w3.org/Graphics/SVG/1.1/DTD/svg11.dtd">
<!-- Generated by graphviz version 2.40.1 (20161225.0304)
 -->
<!-- Title: define_var Pages: 1 -->
<svg width="759pt" height="406pt"
 viewBox="0.00 0.00 759.00 406.00" xmlns="http://www.w3.org/2000/svg" xmlns:xlink="http://www.w3.org/1999/xlink">
<g id="graph0" class="graph" transform="scale(1 1) rotate(0) translate(4 402)">
<title>define_var</title>
<!-- Node310026 -->
<g id="node1" class="node">
<title>Node310026</title>
<polygon fill="#bfbfbf" stroke="#000000" points="0,-66.5 0,-85.5 62,-85.5 62,-66.5 0,-66.5"/>
<text text-anchor="middle" x="31" y="-73.5" font-family="Helvetica,sans-Serif" font-size="10.00" fill="#000000">define_var</text>
</g>
<!-- Node310027 -->
<g id="node2" class="node">
<title>Node310027</title>
<g id="a_node2"><a xlink:href="quickjs_8c.html#a53e971ab3c46da0b7d48481b0696e138" target="_top" xlink:title="js_define_var">
<polygon fill="none" stroke="#000000" points="98,-173.5 98,-192.5 172,-192.5 172,-173.5 98,-173.5"/>
<text text-anchor="middle" x="135" y="-180.5" font-family="Helvetica,sans-Serif" font-size="10.00" fill="#000000">js_define_var</text>
</a>
</g>
</g>
<!-- Node310026&#45;&gt;Node310027 -->
<g id="edge1" class="edge">
<title>Node310026&#45;&gt;Node310027</title>
<path fill="none" stroke="#191970" d="M47.6943,-93.1759C69.837,-115.9573 108.1633,-155.3892 125.725,-173.4574"/>
<polygon fill="#191970" stroke="#191970" points="50.0773,-90.606 40.5977,-85.8745 45.0577,-95.4849 50.0773,-90.606"/>
</g>
<!-- Node310030 -->
<g id="node5" class="node">
<title>Node310030</title>
<g id="a_node5"><a xlink:href="quickjs_8c.html#a00eb789430243c24dab4a63ad6a79653" target="_top" xlink:title="js_parse_class">
<polygon fill="none" stroke="#000000" points="524,-104.5 524,-123.5 606,-123.5 606,-104.5 524,-104.5"/>
<text text-anchor="middle" x="565" y="-111.5" font-family="Helvetica,sans-Serif" font-size="10.00" fill="#000000">js_parse_class</text>
</a>
</g>
</g>
<!-- Node310026&#45;&gt;Node310030 -->
<g id="edge25" class="edge">
<title>Node310026&#45;&gt;Node310030</title>
<path fill="none" stroke="#191970" d="M72.2829,-78.9377C171.8969,-86.0264 424.5402,-104.0047 523.9329,-111.0776"/>
<polygon fill="#191970" stroke="#191970" points="72.2415,-75.426 62.0182,-78.2073 71.7445,-82.4084 72.2415,-75.426"/>
</g>
<!-- Node310031 -->
<g id="node6" class="node">
<title>Node310031</title>
<g id="a_node6"><a xlink:href="quickjs_8c.html#a9d844c16dcc71701436848074337d32c" target="_top" xlink:title="js_parse_statement\l_or_decl">
<polygon fill="none" stroke="#ff0000" points="649,-250 649,-280 751,-280 751,-250 649,-250"/>
<text text-anchor="start" x="657" y="-268" font-family="Helvetica,sans-Serif" font-size="10.00" fill="#000000">js_parse_statement</text>
<text text-anchor="middle" x="700" y="-257" font-family="Helvetica,sans-Serif" font-size="10.00" fill="#000000">_or_decl</text>
</a>
</g>
</g>
<!-- Node310026&#45;&gt;Node310031 -->
<g id="edge28" class="edge">
<title>Node310026&#45;&gt;Node310031</title>
<path fill="none" stroke="#191970" d="M35.1326,-95.7568C51.048,-165.7879 115.1563,-398 265.5,-398 265.5,-398 265.5,-398 420,-398 528.7091,-398 640.1951,-315.1916 682.3913,-280.2568"/>
<polygon fill="#191970" stroke="#191970" points="38.4746,-94.6564 32.916,-85.6368 31.6367,-96.1541 38.4746,-94.6564"/>
</g>
<!-- Node310038 -->
<g id="node7" class="node">
<title>Node310038</title>
<g id="a_node7"><a xlink:href="quickjs_8c.html#a498e1d5c7de1b59c1630e9847cde1e41" target="_top" xlink:title="js_parse_export">
<polygon fill="none" stroke="#ff0000" points="657,-66.5 657,-85.5 743,-85.5 743,-66.5 657,-66.5"/>
<text text-anchor="middle" x="700" y="-73.5" font-family="Helvetica,sans-Serif" font-size="10.00" fill="#000000">js_parse_export</text>
</a>
</g>
</g>
<!-- Node310026&#45;&gt;Node310038 -->
<g id="edge26" class="edge">
<title>Node310026&#45;&gt;Node310038</title>
<path fill="none" stroke="#191970" d="M57.0994,-61.5688C99.479,-39.5264 186.4894,0 265.5,0 265.5,0 265.5,0 420,0 520.2362,0 633.8302,-45.924 679.4457,-66.3745"/>
<polygon fill="#191970" stroke="#191970" points="55.2294,-58.5986 48.0332,-66.3745 58.5079,-64.7834 55.2294,-58.5986"/>
</g>
<!-- Node310036 -->
<g id="node10" class="node">
<title>Node310036</title>
<g id="a_node10"><a xlink:href="quickjs_8c.html#acc9eb677cab8dfcf45f59381f8a19601" target="_top" xlink:title="js_parse_function_decl2">
<polygon fill="none" stroke="#ff0000" points="359,-28.5 359,-47.5 481,-47.5 481,-28.5 359,-28.5"/>
<text text-anchor="middle" x="420" y="-35.5" font-family="Helvetica,sans-Serif" font-size="10.00" fill="#000000">js_parse_function_decl2</text>
</a>
</g>
</g>
<!-- Node310026&#45;&gt;Node310036 -->
<g id="edge27" class="edge">
<title>Node310026&#45;&gt;Node310036</title>
<path fill="none" stroke="#191970" d="M72.2757,-66.4871C80.7484,-64.7851 89.6347,-63.1805 98,-62 188.339,-49.2514 293.9555,-43.0124 358.9123,-40.1587"/>
<polygon fill="#191970" stroke="#191970" points="71.282,-63.119 62.2087,-68.5896 72.7131,-69.9712 71.282,-63.119"/>
</g>
<!-- Node310028 -->
<g id="node3" class="node">
<title>Node310028</title>
<g id="a_node3"><a xlink:href="quickjs_8c.html#a26be546cf89c4580ba9020e8fc43a759" target="_top" xlink:title="js_parse_destructuring\l_element">
<polygon fill="none" stroke="#000000" points="208,-168 208,-198 323,-198 323,-168 208,-168"/>
<text text-anchor="start" x="216" y="-186" font-family="Helvetica,sans-Serif" font-size="10.00" fill="#000000">js_parse_destructuring</text>
<text text-anchor="middle" x="265.5" y="-175" font-family="Helvetica,sans-Serif" font-size="10.00" fill="#000000">_element</text>
</a>
</g>
</g>
<!-- Node310027&#45;&gt;Node310028 -->
<g id="edge2" class="edge">
<title>Node310027&#45;&gt;Node310028</title>
<path fill="none" stroke="#191970" d="M182.2946,-183C190.5979,-183 199.3219,-183 207.8691,-183"/>
<polygon fill="#191970" stroke="#191970" points="182.047,-179.5001 172.047,-183 182.047,-186.5001 182.047,-179.5001"/>
</g>
<!-- Node310027&#45;&gt;Node310031 -->
<g id="edge24" class="edge">
<title>Node310027&#45;&gt;Node310031</title>
<path fill="none" stroke="#191970" d="M148.7101,-200.8577C161.9932,-216.7094 183.6589,-239.011 208,-250 356.3745,-316.9851 556.3687,-292.5837 648.9963,-275.7119"/>
<polygon fill="#191970" stroke="#191970" points="151.2333,-198.4112 142.2292,-192.8276 145.786,-202.8076 151.2333,-198.4112"/>
</g>
<!-- Node310033 -->
<g id="node8" class="node">
<title>Node310033</title>
<g id="a_node8"><a xlink:href="quickjs_8c.html#ac188b916dd086803591a67de7e7a85f6" target="_top" xlink:title="js_parse_for_in_of">
<polygon fill="none" stroke="#000000" points="517,-236.5 517,-255.5 613,-255.5 613,-236.5 517,-236.5"/>
<text text-anchor="middle" x="565" y="-243.5" font-family="Helvetica,sans-Serif" font-size="10.00" fill="#000000">js_parse_for_in_of</text>
</a>
</g>
</g>
<!-- Node310027&#45;&gt;Node310033 -->
<g id="edge23" class="edge">
<title>Node310027&#45;&gt;Node310033</title>
<path fill="none" stroke="#191970" d="M155.4096,-198.627C169.4001,-208.3974 188.8309,-220.1931 208,-226 314.6414,-258.3049 447.2511,-255.1401 516.9832,-250.3638"/>
<polygon fill="#191970" stroke="#191970" points="157.2118,-195.6108 147.059,-192.5823 153.1072,-201.2811 157.2118,-195.6108"/>
</g>
<!-- Node310063 -->
<g id="node9" class="node">
<title>Node310063</title>
<g id="a_node9"><a xlink:href="quickjs_8c.html#a42924858317b848c3aea0a0a978fab3a" target="_top" xlink:title="js_parse_var">
<polygon fill="none" stroke="#000000" points="529,-170.5 529,-189.5 601,-189.5 601,-170.5 529,-170.5"/>
<text text-anchor="middle" x="565" y="-177.5" font-family="Helvetica,sans-Serif" font-size="10.00" fill="#000000">js_parse_var</text>
</a>
</g>
</g>
<!-- Node310027&#45;&gt;Node310063 -->
<g id="edge22" class="edge">
<title>Node310027&#45;&gt;Node310063</title>
<path fill="none" stroke="#191970" d="M167.6343,-169.7817C229.5696,-146.5559 368.0655,-103.5533 481,-133 508.8129,-140.252 537.1711,-158.9757 552.7868,-170.4823"/>
<polygon fill="#191970" stroke="#191970" points="166.1085,-166.618 158.0199,-173.4609 168.6103,-173.1557 166.1085,-166.618"/>
</g>
<!-- Node310028&#45;&gt;Node310028 -->
<g id="edge3" class="edge">
<title>Node310028&#45;&gt;Node310028</title>
<path fill="none" stroke="#191970" d="M242.4006,-208.4579C245.2675,-213.179 252.9673,-216.5 265.5,-216.5 286.0664,-216.5 293.6181,-207.5566 288.1552,-198.159"/>
<polygon fill="#191970" stroke="#191970" points="245.9105,-208.3006 242.8448,-198.159 238.917,-207.9988 245.9105,-208.3006"/>
</g>
<!-- Node310029 -->
<g id="node4" class="node">
<title>Node310029</title>
<g id="a_node4"><a xlink:href="quickjs_8c.html#acdcc62310b4f6f73fa7bc7267b18b1d4" target="_top" xlink:title="js_parse_postfix_expr">
<polygon fill="none" stroke="#ff0000" points="364,-142.5 364,-161.5 476,-161.5 476,-142.5 364,-142.5"/>
<text text-anchor="middle" x="420" y="-149.5" font-family="Helvetica,sans-Serif" font-size="10.00" fill="#000000">js_parse_postfix_expr</text>
</a>
</g>
</g>
<!-- Node310028&#45;&gt;Node310029 -->
<g id="edge4" class="edge">
<title>Node310028&#45;&gt;Node310029</title>
<path fill="none" stroke="#191970" d="M319.912,-165.6017C334.1547,-162.3987 349.5354,-159.2993 363.866,-156.7424"/>
<polygon fill="#191970" stroke="#191970" points="318.7279,-162.2831 309.7735,-167.946 320.305,-169.1031 318.7279,-162.2831"/>
</g>
<!-- Node310028&#45;&gt;Node310031 -->
<g id="edge18" class="edge">
<title>Node310028&#45;&gt;Node310031</title>
<path fill="none" stroke="#191970" d="M301.2382,-203.029C318.3158,-211.9581 339.2896,-222.014 359,-229 426.8842,-253.0603 445.4294,-256.9495 517,-265 561.3583,-269.9895 612.1483,-269.5023 648.9489,-268.047"/>
<polygon fill="#191970" stroke="#191970" points="302.6564,-199.819 292.1843,-198.211 299.3679,-205.9985 302.6564,-199.819"/>
</g>
<!-- Node310028&#45;&gt;Node310033 -->
<g id="edge17" class="edge">
<title>Node310028&#45;&gt;Node310033</title>
<path fill="none" stroke="#191970" d="M333.3958,-197.5643C342.0128,-199.4007 350.7119,-201.2486 359,-203 413.8691,-214.5949 477.0016,-227.7448 518.7607,-236.4162"/>
<polygon fill="#191970" stroke="#191970" points="333.8576,-194.0842 323.3474,-195.4205 332.397,-200.9301 333.8576,-194.0842"/>
</g>
<!-- Node310028&#45;&gt;Node310063 -->
<g id="edge14" class="edge">
<title>Node310028&#45;&gt;Node310063</title>
<path fill="none" stroke="#191970" d="M333.3796,-187.8684C341.9993,-188.3358 350.7035,-188.7341 359,-189 413.1944,-190.7371 426.855,-191.8923 481,-189 496.6711,-188.1629 513.9168,-186.4532 528.6831,-184.7467"/>
<polygon fill="#191970" stroke="#191970" points="333.5131,-184.3704 323.3291,-187.2918 333.1122,-191.3589 333.5131,-184.3704"/>
</g>
<!-- Node310028&#45;&gt;Node310036 -->
<g id="edge19" class="edge">
<title>Node310028&#45;&gt;Node310036</title>
<path fill="none" stroke="#191970" d="M289.4062,-160.5638C323.5933,-128.4787 385.0195,-70.8296 409.5068,-47.848"/>
<polygon fill="#191970" stroke="#191970" points="286.6387,-158.3611 281.7422,-167.7565 291.4291,-163.4653 286.6387,-158.3611"/>
</g>
<!-- Node310029&#45;&gt;Node310028 -->
<g id="edge10" class="edge">
<title>Node310029&#45;&gt;Node310028</title>
<path fill="none" stroke="#191970" d="M387.3537,-164.1796C368.6916,-168.9865 344.7467,-174.0981 323.0301,-178.0073"/>
<polygon fill="#191970" stroke="#191970" points="388.3825,-167.5274 397.1303,-161.5501 386.5644,-160.7676 388.3825,-167.5274"/>
</g>
<!-- Node310029&#45;&gt;Node310029 -->
<g id="edge11" class="edge">
<title>Node310029&#45;&gt;Node310029</title>
<path fill="none" stroke="#191970" d="M393.1208,-170.6539C394.2444,-175.9368 403.2041,-180 420,-180 445.5938,-180 452.9919,-170.5653 442.1946,-161.7571"/>
<polygon fill="#191970" stroke="#191970" points="396.2433,-172.2361 397.8054,-161.7571 390.0494,-168.9747 396.2433,-172.2361"/>
</g>
<!-- Node310029&#45;&gt;Node310030 -->
<g id="edge5" class="edge">
<title>Node310029&#45;&gt;Node310030</title>
<path fill="none" stroke="#191970" d="M448.1924,-139.1379C469.7141,-132.0652 499.685,-123.9842 523.879,-118.6232"/>
<polygon fill="#191970" stroke="#191970" points="446.9829,-135.8525 438.6594,-142.4076 449.254,-142.4739 446.9829,-135.8525"/>
</g>
<!-- Node310029&#45;&gt;Node310033 -->
<g id="edge12" class="edge">
<title>Node310029&#45;&gt;Node310033</title>
<path fill="none" stroke="#191970" d="M443.3125,-167.1129C473.4502,-186.6505 525.0466,-220.0992 550.2598,-236.4443"/>
<polygon fill="#191970" stroke="#191970" points="444.9963,-164.0334 434.7013,-161.5305 441.1885,-169.9071 444.9963,-164.0334"/>
</g>
<!-- Node310030&#45;&gt;Node310029 -->
<g id="edge6" class="edge">
<title>Node310030&#45;&gt;Node310029</title>
<path fill="none" stroke="#191970" d="M536.7924,-126.8671C519.5337,-132.5382 496.8458,-138.8569 476.0608,-143.9015"/>
<polygon fill="#191970" stroke="#191970" points="537.9468,-130.1713 546.2712,-123.6174 535.6766,-123.5497 537.9468,-130.1713"/>
</g>
<!-- Node310030&#45;&gt;Node310031 -->
<g id="edge7" class="edge">
<title>Node310030&#45;&gt;Node310031</title>
<path fill="none" stroke="#191970" d="M583.0521,-130.8564C592.2356,-139.6347 603.4463,-150.6679 613,-161 641.1277,-191.4193 671.7009,-229.1683 688.0623,-249.7908"/>
<polygon fill="#191970" stroke="#191970" points="585.2641,-128.1308 575.5962,-123.797 580.4513,-133.2139 585.2641,-128.1308"/>
</g>
<!-- Node310030&#45;&gt;Node310038 -->
<g id="edge9" class="edge">
<title>Node310030&#45;&gt;Node310038</title>
<path fill="none" stroke="#191970" d="M608.7625,-101.6817C627.3106,-96.4607 648.5991,-90.4684 665.9447,-85.5859"/>
<polygon fill="#191970" stroke="#191970" points="607.7438,-98.3323 599.0662,-104.411 609.6405,-105.0705 607.7438,-98.3323"/>
</g>
<!-- Node310031&#45;&gt;Node310031 -->
<g id="edge8" class="edge">
<title>Node310031&#45;&gt;Node310031</title>
<path fill="none" stroke="#191970" d="M676.1898,-290.4579C679.145,-295.179 687.0817,-298.5 700,-298.5 721.1992,-298.5 728.9833,-289.5566 723.3523,-280.159"/>
<polygon fill="#191970" stroke="#191970" points="679.7,-290.3046 676.6477,-280.159 672.7069,-289.9936 679.7,-290.3046"/>
</g>
<!-- Node310033&#45;&gt;Node310031 -->
<g id="edge13" class="edge">
<title>Node310033&#45;&gt;Node310031</title>
<path fill="none" stroke="#191970" d="M623.4959,-254.2328C631.9152,-255.4177 640.5247,-256.6294 648.7878,-257.7924"/>
<polygon fill="#191970" stroke="#191970" points="623.747,-250.7337 613.3568,-252.8058 622.7714,-257.6654 623.747,-250.7337"/>
</g>
<!-- Node310063&#45;&gt;Node310031 -->
<g id="edge15" class="edge">
<title>Node310063&#45;&gt;Node310031</title>
<path fill="none" stroke="#191970" d="M588.9137,-195.0567C613.4478,-210.5041 651.4041,-234.4026 675.9778,-249.8749"/>
<polygon fill="#191970" stroke="#191970" points="590.551,-191.9517 580.2238,-189.5854 586.8213,-197.8754 590.551,-191.9517"/>
</g>
<!-- Node310063&#45;&gt;Node310038 -->
<g id="edge16" class="edge">
<title>Node310063&#45;&gt;Node310038</title>
<path fill="none" stroke="#191970" d="M585.507,-164.202C613.8932,-142.3341 664.288,-103.5115 687.5716,-85.5745"/>
<polygon fill="#191970" stroke="#191970" points="583.2444,-161.5269 577.4585,-170.4023 587.5164,-167.0722 583.2444,-161.5269"/>
</g>
<!-- Node310036&#45;&gt;Node310030 -->
<g id="edge20" class="edge">
<title>Node310036&#45;&gt;Node310030</title>
<path fill="none" stroke="#191970" d="M457.0305,-51.3377C465.0527,-54.5666 473.4051,-58.1937 481,-62 506.7606,-74.9101 534.8862,-93.2702 551.1785,-104.3673"/>
<polygon fill="#191970" stroke="#191970" points="458.0701,-47.9864 447.4819,-47.6115 455.5253,-54.5075 458.0701,-47.9864"/>
</g>
<!-- Node310036&#45;&gt;Node310038 -->
<g id="edge21" class="edge">
<title>Node310036&#45;&gt;Node310038</title>
<path fill="none" stroke="#191970" d="M491.3087,-47.6776C543.5388,-54.766 612.7269,-64.1558 656.8146,-70.1391"/>
<polygon fill="#191970" stroke="#191970" points="491.4811,-44.169 481.1012,-46.2923 490.5396,-51.1054 491.4811,-44.169"/>
</g>
</g>
</svg>
