<?xml version="1.0" encoding="UTF-8" standalone="no"?>
<!DOCTYPE svg PUBLIC "-//W3C//DTD SVG 1.1//EN"
 "http://www.w3.org/Graphics/SVG/1.1/DTD/svg11.dtd">
<!-- Generated by graphviz version 2.40.1 (20161225.0304)
 -->
<!-- Title: JS_GetIterator Pages: 1 -->
<svg width="881pt" height="408pt"
 viewBox="0.00 0.00 881.00 408.00" xmlns="http://www.w3.org/2000/svg" xmlns:xlink="http://www.w3.org/1999/xlink">
<g id="graph0" class="graph" transform="scale(1 1) rotate(0) translate(4 404)">
<title>JS_GetIterator</title>
<!-- Node277497 -->
<g id="node1" class="node">
<title>Node277497</title>
<polygon fill="#bfbfbf" stroke="#000000" points="0,-133.5 0,-152.5 80,-152.5 80,-133.5 0,-133.5"/>
<text text-anchor="middle" x="40" y="-140.5" font-family="Helvetica,sans-Serif" font-size="10.00" fill="#000000">JS_GetIterator</text>
</g>
<!-- Node277498 -->
<g id="node2" class="node">
<title>Node277498</title>
<g id="a_node2"><a xlink:href="quickjs_8c.html#ac66ebcf9a12193b322ea242e7a4db180" target="_top" xlink:title="JS_CreateAsyncFromSyncIterator">
<polygon fill="none" stroke="#000000" points="116,-266.5 116,-285.5 283,-285.5 283,-266.5 116,-266.5"/>
<text text-anchor="middle" x="199.5" y="-273.5" font-family="Helvetica,sans-Serif" font-size="10.00" fill="#000000">JS_CreateAsyncFromSyncIterator</text>
</a>
</g>
</g>
<!-- Node277497&#45;&gt;Node277498 -->
<g id="edge1" class="edge">
<title>Node277497&#45;&gt;Node277498</title>
<path fill="none" stroke="#191970" d="M49.5176,-152.5538C63.6056,-166.54 91.038,-193.1854 116,-214 136.075,-230.7397 160.1472,-248.3734 177.2762,-260.5371"/>
<polygon fill="#191970" stroke="#191970" points="175.3531,-263.4636 185.5427,-266.3655 179.3868,-257.7426 175.3531,-263.4636"/>
</g>
<!-- Node277500 -->
<g id="node4" class="node">
<title>Node277500</title>
<g id="a_node4"><a xlink:href="quickjs_8h.html#afaa20c47565bc704c6c85f3d77254e7d" target="_top" xlink:title="JS_FreeValue">
<polygon fill="none" stroke="#000000" points="670,-209.5 670,-228.5 748,-228.5 748,-209.5 670,-209.5"/>
<text text-anchor="middle" x="709" y="-216.5" font-family="Helvetica,sans-Serif" font-size="10.00" fill="#000000">JS_FreeValue</text>
</a>
</g>
</g>
<!-- Node277497&#45;&gt;Node277500 -->
<g id="edge12" class="edge">
<title>Node277497&#45;&gt;Node277500</title>
<path fill="none" stroke="#191970" d="M66.7465,-152.5602C81.159,-157.337 99.3539,-162.7727 116,-166 315.1491,-204.6111 557.4747,-215.1706 659.728,-217.9963"/>
<polygon fill="#191970" stroke="#191970" points="659.6713,-221.4959 669.7601,-218.2609 659.8559,-214.4984 659.6713,-221.4959"/>
</g>
<!-- Node277537 -->
<g id="node6" class="node">
<title>Node277537</title>
<g id="a_node6"><a xlink:href="quickjs_8h.html#a89b7c8686c7eee70b86be722ee4730ad" target="_top" xlink:title="JS_GetProperty">
<polygon fill="none" stroke="#000000" points="356,-380.5 356,-399.5 442,-399.5 442,-380.5 356,-380.5"/>
<text text-anchor="middle" x="399" y="-387.5" font-family="Helvetica,sans-Serif" font-size="10.00" fill="#000000">JS_GetProperty</text>
</a>
</g>
</g>
<!-- Node277497&#45;&gt;Node277537 -->
<g id="edge19" class="edge">
<title>Node277497&#45;&gt;Node277537</title>
<path fill="none" stroke="#191970" d="M42.1554,-152.7508C48.5543,-179.4508 69.9364,-254.452 116,-295 181.7777,-352.9015 284.1237,-375.7598 346.0357,-384.6069"/>
<polygon fill="#191970" stroke="#191970" points="345.6065,-388.0806 355.9864,-385.9578 346.5482,-381.1443 345.6065,-388.0806"/>
</g>
<!-- Node277546 -->
<g id="node8" class="node">
<title>Node277546</title>
<g id="a_node8"><a xlink:href="quickjs_8h.html#ad80a83d73e9b7d872b88fbf2943aebe9" target="_top" xlink:title="JS_IsException">
<polygon fill="none" stroke="#000000" points="356,-152.5 356,-171.5 442,-171.5 442,-152.5 356,-152.5"/>
<text text-anchor="middle" x="399" y="-159.5" font-family="Helvetica,sans-Serif" font-size="10.00" fill="#000000">JS_IsException</text>
</a>
</g>
</g>
<!-- Node277497&#45;&gt;Node277546 -->
<g id="edge20" class="edge">
<title>Node277497&#45;&gt;Node277546</title>
<path fill="none" stroke="#191970" d="M80.1369,-145.1242C145.0106,-148.5577 272.9485,-155.3288 345.4951,-159.1683"/>
<polygon fill="#191970" stroke="#191970" points="345.6116,-162.6792 355.7827,-159.7127 345.9817,-155.689 345.6116,-162.6792"/>
</g>
<!-- Node277927 -->
<g id="node11" class="node">
<title>Node277927</title>
<g id="a_node11"><a xlink:href="quickjs_8c.html#aa049793cc8648d35fe81876a2543ca4e" target="_top" xlink:title="JS_GetIterator2">
<polygon fill="none" stroke="#000000" points="156.5,-114.5 156.5,-133.5 242.5,-133.5 242.5,-114.5 156.5,-114.5"/>
<text text-anchor="middle" x="199.5" y="-121.5" font-family="Helvetica,sans-Serif" font-size="10.00" fill="#000000">JS_GetIterator2</text>
</a>
</g>
</g>
<!-- Node277497&#45;&gt;Node277927 -->
<g id="edge13" class="edge">
<title>Node277497&#45;&gt;Node277927</title>
<path fill="none" stroke="#191970" d="M80.2486,-138.2055C100.3252,-135.8139 124.8701,-132.8901 146.4616,-130.318"/>
<polygon fill="#191970" stroke="#191970" points="146.9526,-133.7844 156.4684,-129.126 146.1245,-126.8335 146.9526,-133.7844"/>
</g>
<!-- Node277704 -->
<g id="node15" class="node">
<title>Node277704</title>
<g id="a_node15"><a xlink:href="quickjs_8c.html#a1ca9cdb1fa2ffc3e6506e92b200e490f" target="_top" xlink:title="JS_IsFunction">
<polygon fill="none" stroke="#000000" points="159.5,-76.5 159.5,-95.5 239.5,-95.5 239.5,-76.5 159.5,-76.5"/>
<text text-anchor="middle" x="199.5" y="-83.5" font-family="Helvetica,sans-Serif" font-size="10.00" fill="#000000">JS_IsFunction</text>
</a>
</g>
</g>
<!-- Node277497&#45;&gt;Node277704 -->
<g id="edge21" class="edge">
<title>Node277497&#45;&gt;Node277704</title>
<path fill="none" stroke="#191970" d="M56.3943,-133.3552C71.4528,-124.8515 94.6108,-112.6551 116,-105 126.6098,-101.2028 138.2568,-97.9886 149.3967,-95.3449"/>
<polygon fill="#191970" stroke="#191970" points="150.4569,-98.6937 159.4404,-93.0772 148.9151,-91.8656 150.4569,-98.6937"/>
</g>
<!-- Node277701 -->
<g id="node16" class="node">
<title>Node277701</title>
<g id="a_node16"><a xlink:href="quickjs_8h.html#a149f24b67e745bad93573b3b4c80db4c" target="_top" xlink:title="JS_IsNull">
<polygon fill="none" stroke="#000000" points="170,-38.5 170,-57.5 229,-57.5 229,-38.5 170,-38.5"/>
<text text-anchor="middle" x="199.5" y="-45.5" font-family="Helvetica,sans-Serif" font-size="10.00" fill="#000000">JS_IsNull</text>
</a>
</g>
</g>
<!-- Node277497&#45;&gt;Node277701 -->
<g id="edge22" class="edge">
<title>Node277497&#45;&gt;Node277701</title>
<path fill="none" stroke="#191970" d="M46.7381,-133.3515C58.6987,-116.9967 85.2912,-83.9588 116,-67 129.3001,-59.6551 145.288,-55.1465 159.6983,-52.3802"/>
<polygon fill="#191970" stroke="#191970" points="160.5775,-55.7811 169.8514,-50.6582 159.4069,-48.8797 160.5775,-55.7811"/>
</g>
<!-- Node277702 -->
<g id="node17" class="node">
<title>Node277702</title>
<g id="a_node17"><a xlink:href="quickjs_8h.html#a4e407128a9605afb77523e49e9a627fd" target="_top" xlink:title="JS_IsUndefined">
<polygon fill="none" stroke="#000000" points="156.5,-.5 156.5,-19.5 242.5,-19.5 242.5,-.5 156.5,-.5"/>
<text text-anchor="middle" x="199.5" y="-7.5" font-family="Helvetica,sans-Serif" font-size="10.00" fill="#000000">JS_IsUndefined</text>
</a>
</g>
</g>
<!-- Node277497&#45;&gt;Node277702 -->
<g id="edge23" class="edge">
<title>Node277497&#45;&gt;Node277702</title>
<path fill="none" stroke="#191970" d="M43.5647,-133.2311C52.2307,-110.9328 76.6281,-56.1249 116,-29 124.9985,-22.8006 135.713,-18.5948 146.4163,-15.7488"/>
<polygon fill="#191970" stroke="#191970" points="147.2326,-19.1525 156.1931,-13.4994 145.663,-12.3308 147.2326,-19.1525"/>
</g>
<!-- Node277499 -->
<g id="node3" class="node">
<title>Node277499</title>
<g id="a_node3"><a xlink:href="quickjs_8h.html#a775522f2d084fc8fa0fcb33f390006b4" target="_top" xlink:title="JS_DupValue">
<polygon fill="none" stroke="#000000" points="670.5,-361.5 670.5,-380.5 747.5,-380.5 747.5,-361.5 670.5,-361.5"/>
<text text-anchor="middle" x="709" y="-368.5" font-family="Helvetica,sans-Serif" font-size="10.00" fill="#000000">JS_DupValue</text>
</a>
</g>
</g>
<!-- Node277498&#45;&gt;Node277499 -->
<g id="edge2" class="edge">
<title>Node277498&#45;&gt;Node277499</title>
<path fill="none" stroke="#191970" d="M271.7051,-285.6251C275.626,-287.1708 279.421,-288.951 283,-291 304.3362,-303.2151 297.1889,-321.6546 319,-333 377.258,-363.3038 569.4497,-369.5126 660.4331,-370.7338"/>
<polygon fill="#191970" stroke="#191970" points="660.4469,-374.2342 670.488,-370.8539 660.5305,-367.2347 660.4469,-374.2342"/>
</g>
<!-- Node277498&#45;&gt;Node277500 -->
<g id="edge3" class="edge">
<title>Node277498&#45;&gt;Node277500</title>
<path fill="none" stroke="#191970" d="M255.0298,-266.4548C275.1428,-263.187 298.0589,-259.6825 319,-257 441.287,-241.3355 585.8822,-228.8058 659.9178,-222.8227"/>
<polygon fill="#191970" stroke="#191970" points="660.1988,-226.3115 669.8866,-222.0223 659.6385,-219.334 660.1988,-226.3115"/>
</g>
<!-- Node277498&#45;&gt;Node277537 -->
<g id="edge5" class="edge">
<title>Node277498&#45;&gt;Node277537</title>
<path fill="none" stroke="#191970" d="M212.5843,-285.5756C229.0806,-297.6804 258.2744,-319.2086 283,-338 299.1381,-350.2649 300.9858,-356.7073 319,-366 327.7036,-370.4898 337.3831,-374.281 346.9176,-377.4298"/>
<polygon fill="#191970" stroke="#191970" points="346.1662,-380.8612 356.7542,-380.481 348.2401,-374.1754 346.1662,-380.8612"/>
</g>
<!-- Node277498&#45;&gt;Node277546 -->
<g id="edge9" class="edge">
<title>Node277498&#45;&gt;Node277546</title>
<path fill="none" stroke="#191970" d="M216.1661,-266.4765C251.0785,-246.5265 332.0839,-200.2378 373.5486,-176.5437"/>
<polygon fill="#191970" stroke="#191970" points="375.2951,-179.5769 382.241,-171.5766 371.8221,-173.4991 375.2951,-179.5769"/>
</g>
<!-- Node277762 -->
<g id="node9" class="node">
<title>Node277762</title>
<g id="a_node9"><a xlink:href="quickjs_8c.html#a659dc0db7e440fd6eb012d613627faa3" target="_top" xlink:title="JS_NewObjectClass">
<polygon fill="none" stroke="#ff0000" points="345,-304.5 345,-323.5 453,-323.5 453,-304.5 345,-304.5"/>
<text text-anchor="middle" x="399" y="-311.5" font-family="Helvetica,sans-Serif" font-size="10.00" fill="#000000">JS_NewObjectClass</text>
</a>
</g>
</g>
<!-- Node277498&#45;&gt;Node277762 -->
<g id="edge10" class="edge">
<title>Node277498&#45;&gt;Node277762</title>
<path fill="none" stroke="#191970" d="M249.5848,-285.54C276.739,-290.7122 310.4857,-297.1401 339.0332,-302.5778"/>
<polygon fill="#191970" stroke="#191970" points="338.4163,-306.0231 348.8946,-304.4561 339.7262,-299.1467 338.4163,-306.0231"/>
</g>
<!-- Node277764 -->
<g id="node10" class="node">
<title>Node277764</title>
<g id="a_node10"><a xlink:href="quickjs_8c.html#a0ddf716409e51648f0d59e7521150d19" target="_top" xlink:title="JS_SetOpaque">
<polygon fill="none" stroke="#000000" points="357.5,-266.5 357.5,-285.5 440.5,-285.5 440.5,-266.5 357.5,-266.5"/>
<text text-anchor="middle" x="399" y="-273.5" font-family="Helvetica,sans-Serif" font-size="10.00" fill="#000000">JS_SetOpaque</text>
</a>
</g>
</g>
<!-- Node277498&#45;&gt;Node277764 -->
<g id="edge11" class="edge">
<title>Node277498&#45;&gt;Node277764</title>
<path fill="none" stroke="#191970" d="M283.2388,-276C304.9317,-276 327.6619,-276 347.1802,-276"/>
<polygon fill="#191970" stroke="#191970" points="347.3681,-279.5001 357.368,-276 347.368,-272.5001 347.3681,-279.5001"/>
</g>
<!-- Node277501 -->
<g id="node5" class="node">
<title>Node277501</title>
<g id="a_node5"><a xlink:href="quickjs_8c.html#aa059f309c30fd5166d16c82a97973146" target="_top" xlink:title="__JS_FreeValue">
<polygon fill="none" stroke="#ff0000" points="784,-209.5 784,-228.5 873,-228.5 873,-209.5 784,-209.5"/>
<text text-anchor="middle" x="828.5" y="-216.5" font-family="Helvetica,sans-Serif" font-size="10.00" fill="#000000">__JS_FreeValue</text>
</a>
</g>
</g>
<!-- Node277500&#45;&gt;Node277501 -->
<g id="edge4" class="edge">
<title>Node277500&#45;&gt;Node277501</title>
<path fill="none" stroke="#191970" d="M748.1288,-219C756.3481,-219 765.1608,-219 773.8298,-219"/>
<polygon fill="#191970" stroke="#191970" points="773.8964,-222.5001 783.8964,-219 773.8964,-215.5001 773.8964,-222.5001"/>
</g>
<!-- Node277538 -->
<g id="node7" class="node">
<title>Node277538</title>
<g id="a_node7"><a xlink:href="quickjs_8c.html#a5762c57ae0c9937e986040c01222833a" target="_top" xlink:title="JS_GetPropertyInternal">
<polygon fill="none" stroke="#ff0000" points="515,-380.5 515,-399.5 634,-399.5 634,-380.5 515,-380.5"/>
<text text-anchor="middle" x="574.5" y="-387.5" font-family="Helvetica,sans-Serif" font-size="10.00" fill="#000000">JS_GetPropertyInternal</text>
</a>
</g>
</g>
<!-- Node277537&#45;&gt;Node277538 -->
<g id="edge6" class="edge">
<title>Node277537&#45;&gt;Node277538</title>
<path fill="none" stroke="#191970" d="M442.382,-390C461.1367,-390 483.5607,-390 504.5634,-390"/>
<polygon fill="#191970" stroke="#191970" points="504.7374,-393.5001 514.7374,-390 504.7373,-386.5001 504.7374,-393.5001"/>
</g>
<!-- Node277538&#45;&gt;Node277499 -->
<g id="edge7" class="edge">
<title>Node277538&#45;&gt;Node277499</title>
<path fill="none" stroke="#191970" d="M634.2769,-381.5557C642.9559,-380.3297 651.8029,-379.0799 660.2302,-377.8894"/>
<polygon fill="#191970" stroke="#191970" points="660.8499,-381.3367 670.262,-376.4723 659.8707,-374.4055 660.8499,-381.3367"/>
</g>
<!-- Node277538&#45;&gt;Node277500 -->
<g id="edge8" class="edge">
<title>Node277538&#45;&gt;Node277500</title>
<path fill="none" stroke="#191970" d="M582.1167,-380.3163C603.9407,-352.5699 666.9351,-272.4803 695.1023,-236.6692"/>
<polygon fill="#191970" stroke="#191970" points="698.0356,-238.6013 701.4669,-228.5774 692.5335,-234.2736 698.0356,-238.6013"/>
</g>
<!-- Node277927&#45;&gt;Node277500 -->
<g id="edge15" class="edge">
<title>Node277927&#45;&gt;Node277500</title>
<path fill="none" stroke="#191970" d="M242.9141,-124.2352C298.1465,-125.1546 396.3011,-128.8685 479,-143 549.4692,-155.0417 566.6631,-161.9863 634,-186 649.4183,-191.4985 666.129,-198.7213 679.8552,-205.0075"/>
<polygon fill="#191970" stroke="#191970" points="678.7179,-208.3385 689.2613,-209.3812 681.6694,-201.9911 678.7179,-208.3385"/>
</g>
<!-- Node277927&#45;&gt;Node277546 -->
<g id="edge16" class="edge">
<title>Node277927&#45;&gt;Node277546</title>
<path fill="none" stroke="#191970" d="M242.7885,-132.2454C272.9835,-137.9969 313.4705,-145.7087 345.6599,-151.84"/>
<polygon fill="#191970" stroke="#191970" points="345.3176,-155.3376 355.796,-153.7707 346.6275,-148.4613 345.3176,-155.3376"/>
</g>
<!-- Node277781 -->
<g id="node12" class="node">
<title>Node277781</title>
<g id="a_node12"><a xlink:href="quickjs_8c.html#a1a4c02a29525d5cb2085dd8bca3af350" target="_top" xlink:title="JS_Call">
<polygon fill="none" stroke="#ff0000" points="373.5,-.5 373.5,-19.5 424.5,-19.5 424.5,-.5 373.5,-.5"/>
<text text-anchor="middle" x="399" y="-7.5" font-family="Helvetica,sans-Serif" font-size="10.00" fill="#000000">JS_Call</text>
</a>
</g>
</g>
<!-- Node277927&#45;&gt;Node277781 -->
<g id="edge14" class="edge">
<title>Node277927&#45;&gt;Node277781</title>
<path fill="none" stroke="#191970" d="M242.6716,-121.6397C256.7349,-119.038 271.6351,-114.1169 283,-105 312.1542,-81.6126 289.9566,-52.5248 319,-29 331.4378,-18.9255 348.3271,-14.0312 363.3825,-11.712"/>
<polygon fill="#191970" stroke="#191970" points="363.9326,-15.1709 373.4352,-10.4857 363.085,-8.2224 363.9326,-15.1709"/>
</g>
<!-- Node277780 -->
<g id="node13" class="node">
<title>Node277780</title>
<g id="a_node13"><a xlink:href="quickjs_8h.html#a3d68fe446df2d9c7d1900b16371bff5b" target="_top" xlink:title="JS_IsObject">
<polygon fill="none" stroke="#000000" points="363.5,-76.5 363.5,-95.5 434.5,-95.5 434.5,-76.5 363.5,-76.5"/>
<text text-anchor="middle" x="399" y="-83.5" font-family="Helvetica,sans-Serif" font-size="10.00" fill="#000000">JS_IsObject</text>
</a>
</g>
</g>
<!-- Node277927&#45;&gt;Node277780 -->
<g id="edge17" class="edge">
<title>Node277927&#45;&gt;Node277780</title>
<path fill="none" stroke="#191970" d="M242.7885,-115.7546C275.5029,-109.5233 320.2983,-100.9908 353.5332,-94.6603"/>
<polygon fill="#191970" stroke="#191970" points="354.2817,-98.0808 363.4502,-92.7714 352.9719,-91.2044 354.2817,-98.0808"/>
</g>
<!-- Node277735 -->
<g id="node14" class="node">
<title>Node277735</title>
<g id="a_node14"><a xlink:href="quickjs_8c.html#a726b00d108e0a0f4d958c36c2e426a64" target="_top" xlink:title="JS_ThrowTypeErrorNotAnObject">
<polygon fill="none" stroke="#000000" points="319,-38.5 319,-57.5 479,-57.5 479,-38.5 319,-38.5"/>
<text text-anchor="middle" x="399" y="-45.5" font-family="Helvetica,sans-Serif" font-size="10.00" fill="#000000">JS_ThrowTypeErrorNotAnObject</text>
</a>
</g>
</g>
<!-- Node277927&#45;&gt;Node277735 -->
<g id="edge18" class="edge">
<title>Node277927&#45;&gt;Node277735</title>
<path fill="none" stroke="#191970" d="M242.9077,-119.118C256.3758,-116.3206 270.8588,-111.9206 283,-105 303.2115,-93.4792 298.8431,-78.6161 319,-67 322.8613,-64.7748 326.9705,-62.8098 331.2098,-61.0746"/>
<polygon fill="#191970" stroke="#191970" points="332.4567,-64.3454 340.6523,-57.6311 330.0584,-57.769 332.4567,-64.3454"/>
</g>
</g>
</svg>
