<?xml version="1.0" encoding="UTF-8" standalone="no"?>
<!DOCTYPE svg PUBLIC "-//W3C//DTD SVG 1.1//EN"
 "http://www.w3.org/Graphics/SVG/1.1/DTD/svg11.dtd">
<!-- Generated by graphviz version 2.40.1 (20161225.0304)
 -->
<!-- Title: bc_put_sleb128 Pages: 1 -->
<svg width="441pt" height="28pt"
 viewBox="0.00 0.00 441.00 28.00" xmlns="http://www.w3.org/2000/svg" xmlns:xlink="http://www.w3.org/1999/xlink">
<g id="graph0" class="graph" transform="scale(1 1) rotate(0) translate(4 24)">
<title>bc_put_sleb128</title>
<!-- Node354173 -->
<g id="node1" class="node">
<title>Node354173</title>
<polygon fill="#bfbfbf" stroke="#000000" points="0,-.5 0,-19.5 85,-19.5 85,-.5 0,-.5"/>
<text text-anchor="middle" x="42.5" y="-7.5" font-family="Helvetica,sans-Serif" font-size="10.00" fill="#000000">bc_put_sleb128</text>
</g>
<!-- Node354174 -->
<g id="node2" class="node">
<title>Node354174</title>
<g id="a_node2"><a xlink:href="quickjs_8c.html#a6adbc9d495ea79b1764fc21ed895e636" target="_top" xlink:title="dbuf_put_sleb128">
<polygon fill="none" stroke="#000000" points="121,-.5 121,-19.5 214,-19.5 214,-.5 121,-.5"/>
<text text-anchor="middle" x="167.5" y="-7.5" font-family="Helvetica,sans-Serif" font-size="10.00" fill="#000000">dbuf_put_sleb128</text>
</a>
</g>
</g>
<!-- Node354173&#45;&gt;Node354174 -->
<g id="edge1" class="edge">
<title>Node354173&#45;&gt;Node354174</title>
<path fill="none" stroke="#191970" d="M85.1683,-10C93.3139,-10 101.9609,-10 110.4715,-10"/>
<polygon fill="#191970" stroke="#191970" points="110.7422,-13.5001 120.7421,-10 110.7421,-6.5001 110.7422,-13.5001"/>
</g>
<!-- Node354175 -->
<g id="node3" class="node">
<title>Node354175</title>
<g id="a_node3"><a xlink:href="quickjs_8c.html#af9b9e3f8ca5a82349d1925fca4683c38" target="_top" xlink:title="dbuf_put_leb128">
<polygon fill="none" stroke="#000000" points="250,-.5 250,-19.5 338,-19.5 338,-.5 250,-.5"/>
<text text-anchor="middle" x="294" y="-7.5" font-family="Helvetica,sans-Serif" font-size="10.00" fill="#000000">dbuf_put_leb128</text>
</a>
</g>
</g>
<!-- Node354174&#45;&gt;Node354175 -->
<g id="edge2" class="edge">
<title>Node354174&#45;&gt;Node354175</title>
<path fill="none" stroke="#191970" d="M214.2445,-10C222.5506,-10 231.265,-10 239.7581,-10"/>
<polygon fill="#191970" stroke="#191970" points="239.966,-13.5001 249.9659,-10 239.9659,-6.5001 239.966,-13.5001"/>
</g>
<!-- Node354176 -->
<g id="node4" class="node">
<title>Node354176</title>
<g id="a_node4"><a xlink:href="cutils_8h.html#aeed81d4787ccdbd55baa9b5fd6717e88" target="_top" xlink:title="dbuf_putc">
<polygon fill="none" stroke="#ff0000" points="374,-.5 374,-19.5 433,-19.5 433,-.5 374,-.5"/>
<text text-anchor="middle" x="403.5" y="-7.5" font-family="Helvetica,sans-Serif" font-size="10.00" fill="#000000">dbuf_putc</text>
</a>
</g>
</g>
<!-- Node354175&#45;&gt;Node354176 -->
<g id="edge3" class="edge">
<title>Node354175&#45;&gt;Node354176</title>
<path fill="none" stroke="#191970" d="M338.2222,-10C346.6526,-10 355.4291,-10 363.7109,-10"/>
<polygon fill="#191970" stroke="#191970" points="363.8734,-13.5001 373.8734,-10 363.8733,-6.5001 363.8734,-13.5001"/>
</g>
</g>
</svg>
