<?xml version="1.0" encoding="UTF-8" standalone="no"?>
<!DOCTYPE svg PUBLIC "-//W3C//DTD SVG 1.1//EN"
 "http://www.w3.org/Graphics/SVG/1.1/DTD/svg11.dtd">
<!-- Generated by graphviz version 2.40.1 (20161225.0304)
 -->
<!-- Title: bc_get_u64 Pages: 1 -->
<!--zoomable 313 -->
<svg id="main" version="1.1" xmlns="http://www.w3.org/2000/svg" xmlns:xlink="http://www.w3.org/1999/xlink" xml:space="preserve" onload="init(evt)">
<style type="text/css"><![CDATA[
.edge:hover path { stroke: red; }
.edge:hover polygon { stroke: red; fill: red; }
]]></style>
<script type="text/javascript"><![CDATA[
var edges = document.getElementsByTagName('g');
if (edges && edges.length) {
  for (var i=0;i<edges.length;i++) {
    if (edges[i].id.substr(0,4)=='edge') {
      edges[i].setAttribute('class','edge');
    }
  }
}
]]></script>
        <defs>
                <circle id="rim" cx="0" cy="0" r="7"/>
                <circle id="rim2" cx="0" cy="0" r="3.5"/>
                <g id="zoomPlus">
                        <use xlink:href="#rim" fill="#404040">
                                <set attributeName="fill" to="#808080" begin="zoomplus.mouseover" end="zoomplus.mouseout"/>
                        </use>
                        <path d="M-4,0h8M0,-4v8" fill="none" stroke="white" stroke-width="1.5" pointer-events="none"/>
                </g>
                <g id="zoomMin">
                        <use xlink:href="#rim" fill="#404040">
                                <set attributeName="fill" to="#808080" begin="zoomminus.mouseover" end="zoomminus.mouseout"/>
                        </use>
                        <path d="M-4,0h8" fill="none" stroke="white" stroke-width="1.5" pointer-events="none"/>
                </g>
                <g id="dirArrow">
                        <path fill="none" stroke="white" stroke-width="1.5" d="M0,-3.0v7 M-2.5,-0.5L0,-3.0L2.5,-0.5"/>
                </g>
               <g id="resetDef">
                       <use xlink:href="#rim2" fill="#404040">
                               <set attributeName="fill" to="#808080" begin="reset.mouseover" end="reset.mouseout"/>
                       </use>
               </g>
        </defs>

<script type="text/javascript">
var viewWidth = 696;
var viewHeight = 313;
var sectionId = 'dynsection-1304';
</script>
<script xlink:href="svgpan.js"/>
<svg id="graph" class="graph">
<g id="viewport">
<title>bc_get_u64</title>
<!-- Node357202 -->
<g id="node1" class="node">
<title>Node357202</title>
<polygon fill="#bfbfbf" stroke="#000000" points="0,-171.5 0,-190.5 67,-190.5 67,-171.5 0,-171.5"/>
<text text-anchor="middle" x="33.5" y="-178.5" font-family="Helvetica,sans-Serif" font-size="10.00" fill="#000000">bc_get_u64</text>
</g>
<!-- Node357203 -->
<g id="node2" class="node">
<title>Node357203</title>
<g id="a_node2"><a xlink:href="quickjs_8c.html#a4b8ef2bb3b35e4a5f6ed8bd837a50e7c" target="_top" xlink:title="JS_ReadObjectRec">
<polygon fill="none" stroke="#000000" points="276,-171.5 276,-190.5 380,-190.5 380,-171.5 276,-171.5"/>
<text text-anchor="middle" x="328" y="-178.5" font-family="Helvetica,sans-Serif" font-size="10.00" fill="#000000">JS_ReadObjectRec</text>
</a>
</g>
</g>
<!-- Node357202&#45;&gt;Node357203 -->
<g id="edge1" class="edge">
<title>Node357202&#45;&gt;Node357203</title>
<path fill="none" stroke="#191970" d="M77.379,-181C130.3631,-181 219.3777,-181 275.8263,-181"/>
<polygon fill="#191970" stroke="#191970" points="77.2829,-177.5001 67.2829,-181 77.2829,-184.5001 77.2829,-177.5001"/>
</g>
<!-- Node357214 -->
<g id="node13" class="node">
<title>Node357214</title>
<g id="a_node13"><a xlink:href="quickjs_8c.html#a808ad95bb98b44a5a4fd6ac9af1b6d53" target="_top" xlink:title="JS_ReadSharedArrayBuffer">
<polygon fill="none" stroke="#000000" points="103,-152.5 103,-171.5 240,-171.5 240,-152.5 103,-152.5"/>
<text text-anchor="middle" x="171.5" y="-159.5" font-family="Helvetica,sans-Serif" font-size="10.00" fill="#000000">JS_ReadSharedArrayBuffer</text>
</a>
</g>
</g>
<!-- Node357202&#45;&gt;Node357214 -->
<g id="edge19" class="edge">
<title>Node357202&#45;&gt;Node357214</title>
<path fill="none" stroke="#191970" d="M77.3019,-174.9693C85.4962,-173.8411 94.24,-172.6372 102.9738,-171.4348"/>
<polygon fill="#191970" stroke="#191970" points="76.6877,-171.5208 67.2586,-176.3521 77.6426,-178.4553 76.6877,-171.5208"/>
</g>
<!-- Node357204 -->
<g id="node3" class="node">
<title>Node357204</title>
<g id="a_node3"><a xlink:href="quickjs_8c.html#a367627778ac537f4bb1f0fd07a2dee1b" target="_top" xlink:title="JS_ReadFunctionTag">
<polygon fill="none" stroke="#000000" points="416,-285.5 416,-304.5 527,-304.5 527,-285.5 416,-285.5"/>
<text text-anchor="middle" x="471.5" y="-292.5" font-family="Helvetica,sans-Serif" font-size="10.00" fill="#000000">JS_ReadFunctionTag</text>
</a>
</g>
</g>
<!-- Node357203&#45;&gt;Node357204 -->
<g id="edge2" class="edge">
<title>Node357203&#45;&gt;Node357204</title>
<path fill="none" stroke="#191970" d="M345.1721,-198.4546C361.2598,-217.8499 387.1078,-248.2053 416,-267 429.1471,-275.5523 446.5608,-280.6908 458.3502,-285.387"/>
<polygon fill="#191970" stroke="#191970" points="347.7691,-196.1031 338.693,-190.6372 342.3795,-200.57 347.7691,-196.1031"/>
</g>
<!-- Node357205 -->
<g id="node4" class="node">
<title>Node357205</title>
<g id="a_node4"><a xlink:href="quickjs_8c.html#a21c7b14be807f7ce7f71c19e2e80380c" target="_top" xlink:title="JS_ReadModule">
<polygon fill="none" stroke="#000000" points="427,-247.5 427,-266.5 516,-266.5 516,-247.5 427,-247.5"/>
<text text-anchor="middle" x="471.5" y="-254.5" font-family="Helvetica,sans-Serif" font-size="10.00" fill="#000000">JS_ReadModule</text>
</a>
</g>
</g>
<!-- Node357203&#45;&gt;Node357205 -->
<g id="edge4" class="edge">
<title>Node357203&#45;&gt;Node357205</title>
<path fill="none" stroke="#191970" d="M359.5616,-196.061C375.8537,-206.3735 396.384,-219.4685 416,-229 430.8396,-236.2106 449.1229,-241.9039 460.5489,-247.3934"/>
<polygon fill="#191970" stroke="#191970" points="361.3066,-193.0238 350.9792,-190.6584 357.5775,-198.9478 361.3066,-193.0238"/>
</g>
<!-- Node357206 -->
<g id="node5" class="node">
<title>Node357206</title>
<g id="a_node5"><a xlink:href="quickjs_8c.html#ad0e3230c3896c2048283a9302f184fb4" target="_top" xlink:title="JS_ReadObjectTag">
<polygon fill="none" stroke="#000000" points="420.5,-209.5 420.5,-228.5 522.5,-228.5 522.5,-209.5 420.5,-209.5"/>
<text text-anchor="middle" x="471.5" y="-216.5" font-family="Helvetica,sans-Serif" font-size="10.00" fill="#000000">JS_ReadObjectTag</text>
</a>
</g>
</g>
<!-- Node357203&#45;&gt;Node357206 -->
<g id="edge6" class="edge">
<title>Node357203&#45;&gt;Node357206</title>
<path fill="none" stroke="#191970" d="M390.2146,-190.7782C413.0063,-196.5577 437.1047,-203.6058 453.0897,-209.428"/>
<polygon fill="#191970" stroke="#191970" points="390.7606,-187.3078 380.2127,-188.3039 389.0796,-194.103 390.7606,-187.3078"/>
</g>
<!-- Node357207 -->
<g id="node6" class="node">
<title>Node357207</title>
<g id="a_node6"><a xlink:href="quickjs_8c.html#a18da561cb430d36d47200cd3ab394984" target="_top" xlink:title="JS_ReadArray">
<polygon fill="none" stroke="#000000" points="431.5,-171.5 431.5,-190.5 511.5,-190.5 511.5,-171.5 431.5,-171.5"/>
<text text-anchor="middle" x="471.5" y="-178.5" font-family="Helvetica,sans-Serif" font-size="10.00" fill="#000000">JS_ReadArray</text>
</a>
</g>
</g>
<!-- Node357203&#45;&gt;Node357207 -->
<g id="edge8" class="edge">
<title>Node357203&#45;&gt;Node357207</title>
<path fill="none" stroke="#191970" d="M390.2204,-174.3032C404.1242,-174.1471 418.5141,-174.3344 431.2514,-174.8651"/>
<polygon fill="#191970" stroke="#191970" points="390.1502,-170.8038 380.2127,-174.4775 390.2722,-177.8027 390.1502,-170.8038"/>
</g>
<!-- Node357208 -->
<g id="node7" class="node">
<title>Node357208</title>
<g id="a_node7"><a xlink:href="quickjs_8c.html#a00910faacc776e3c2c225aa117aab450" target="_top" xlink:title="JS_ReadTypedArray">
<polygon fill="none" stroke="#000000" points="418,-133.5 418,-152.5 525,-152.5 525,-133.5 418,-133.5"/>
<text text-anchor="middle" x="471.5" y="-140.5" font-family="Helvetica,sans-Serif" font-size="10.00" fill="#000000">JS_ReadTypedArray</text>
</a>
</g>
</g>
<!-- Node357203&#45;&gt;Node357208 -->
<g id="edge10" class="edge">
<title>Node357203&#45;&gt;Node357208</title>
<path fill="none" stroke="#191970" d="M356.1034,-168.0707C373.6777,-162.244 396.8864,-155.7423 417.8794,-150.6445"/>
<polygon fill="#191970" stroke="#191970" points="354.7707,-164.8282 346.4663,-171.4076 357.0611,-171.4429 354.7707,-164.8282"/>
</g>
<!-- Node357209 -->
<g id="node8" class="node">
<title>Node357209</title>
<g id="a_node8"><a xlink:href="quickjs_8c.html#a8fce6f70a6fc880eabcdb9883e3753f2" target="_top" xlink:title="JS_ReadDate">
<polygon fill="none" stroke="#000000" points="432.5,-95.5 432.5,-114.5 510.5,-114.5 510.5,-95.5 432.5,-95.5"/>
<text text-anchor="middle" x="471.5" y="-102.5" font-family="Helvetica,sans-Serif" font-size="10.00" fill="#000000">JS_ReadDate</text>
</a>
</g>
</g>
<!-- Node357203&#45;&gt;Node357209 -->
<g id="edge12" class="edge">
<title>Node357203&#45;&gt;Node357209</title>
<path fill="none" stroke="#191970" d="M342.1126,-163.8686C358.979,-148.8841 388.3948,-128.4134 416,-115 421.2214,-112.4629 426.869,-110.1137 432.4943,-108.0938"/>
<polygon fill="#191970" stroke="#191970" points="339.3198,-161.6965 334.5125,-171.1379 344.1583,-166.7551 339.3198,-161.6965"/>
</g>
<!-- Node357210 -->
<g id="node9" class="node">
<title>Node357210</title>
<g id="a_node9"><a xlink:href="quickjs_8c.html#aa329df3dbab623ec017b77cb77bcce2f" target="_top" xlink:title="JS_ReadObjectValue">
<polygon fill="none" stroke="#000000" points="416.5,-57.5 416.5,-76.5 526.5,-76.5 526.5,-57.5 416.5,-57.5"/>
<text text-anchor="middle" x="471.5" y="-64.5" font-family="Helvetica,sans-Serif" font-size="10.00" fill="#000000">JS_ReadObjectValue</text>
</a>
</g>
</g>
<!-- Node357203&#45;&gt;Node357210 -->
<g id="edge14" class="edge">
<title>Node357203&#45;&gt;Node357210</title>
<path fill="none" stroke="#191970" d="M336.6062,-162.5967C350.8464,-139.0085 381.2171,-99.6266 416,-77 416.2561,-76.8334 416.5138,-76.6681 416.7731,-76.5041"/>
<polygon fill="#191970" stroke="#191970" points="333.5273,-160.9313 331.6695,-171.362 339.6264,-164.3665 333.5273,-160.9313"/>
</g>
<!-- Node357211 -->
<g id="node10" class="node">
<title>Node357211</title>
<g id="a_node10"><a xlink:href="quickjs_8c.html#a12be2ea9c010752715072489497594e9" target="_top" xlink:title="JS_ReadObject">
<polygon fill="none" stroke="#000000" points="428.5,-19.5 428.5,-38.5 514.5,-38.5 514.5,-19.5 428.5,-19.5"/>
<text text-anchor="middle" x="471.5" y="-26.5" font-family="Helvetica,sans-Serif" font-size="10.00" fill="#000000">JS_ReadObject</text>
</a>
</g>
</g>
<!-- Node357203&#45;&gt;Node357211 -->
<g id="edge16" class="edge">
<title>Node357203&#45;&gt;Node357211</title>
<path fill="none" stroke="#191970" d="M335.6942,-162.084C348.2977,-133.3837 376.0053,-78.9156 416,-48 420.9958,-44.1383 426.8271,-41.0327 432.7962,-38.5434"/>
<polygon fill="#191970" stroke="#191970" points="332.4251,-160.828 331.7394,-171.4006 338.8686,-163.5632 332.4251,-160.828"/>
</g>
<!-- Node357204&#45;&gt;Node357203 -->
<g id="edge3" class="edge">
<title>Node357204&#45;&gt;Node357203</title>
<path fill="none" stroke="#191970" d="M408.3641,-279.6631C371.7763,-252.7153 341.7955,-210.3321 331.6695,-190.638"/>
<polygon fill="#191970" stroke="#191970" points="406.5615,-282.6723 416.7731,-285.4959 410.5511,-276.9205 406.5615,-282.6723"/>
</g>
<!-- Node357205&#45;&gt;Node357203 -->
<g id="edge5" class="edge">
<title>Node357205&#45;&gt;Node357203</title>
<path fill="none" stroke="#191970" d="M417.645,-247.7866C417.0924,-247.5265 416.5439,-247.2643 416,-247 383.5829,-231.2485 348.6689,-205.7649 334.5125,-190.8621"/>
<polygon fill="#191970" stroke="#191970" points="416.3106,-251.0227 426.8782,-251.7818 419.0905,-244.5983 416.3106,-251.0227"/>
</g>
<!-- Node357206&#45;&gt;Node357203 -->
<g id="edge7" class="edge">
<title>Node357206&#45;&gt;Node357203</title>
<path fill="none" stroke="#191970" d="M410.6027,-209.5548C387.4529,-203.7214 362.7602,-196.523 346.4663,-190.5924"/>
<polygon fill="#191970" stroke="#191970" points="409.8541,-212.9749 420.4005,-211.9635 411.5253,-206.1773 409.8541,-212.9749"/>
</g>
<!-- Node357207&#45;&gt;Node357203 -->
<g id="edge9" class="edge">
<title>Node357207&#45;&gt;Node357203</title>
<path fill="none" stroke="#191970" d="M420.9325,-187.4814C407.7371,-187.8253 393.4917,-187.839 380.2127,-187.5225"/>
<polygon fill="#191970" stroke="#191970" points="421.3745,-190.9687 431.2514,-187.1349 421.1395,-183.9726 421.3745,-190.9687"/>
</g>
<!-- Node357208&#45;&gt;Node357203 -->
<g id="edge11" class="edge">
<title>Node357208&#45;&gt;Node357203</title>
<path fill="none" stroke="#191970" d="M443.5086,-155.8921C425.5277,-161.8588 401.615,-168.5387 380.2127,-173.6961"/>
<polygon fill="#191970" stroke="#191970" points="444.787,-159.1534 453.0897,-152.572 442.4949,-152.5393 444.787,-159.1534"/>
</g>
<!-- Node357209&#45;&gt;Node357203 -->
<g id="edge13" class="edge">
<title>Node357209&#45;&gt;Node357203</title>
<path fill="none" stroke="#191970" d="M451.1869,-118.6496C440.469,-122.9428 427.2457,-127.5357 416,-133 392.7514,-144.2966 368.2185,-160.5987 350.9792,-171.3416"/>
<polygon fill="#191970" stroke="#191970" points="452.756,-121.7845 460.5489,-114.6066 449.9808,-115.3581 452.756,-121.7845"/>
</g>
<!-- Node357210&#45;&gt;Node357203 -->
<g id="edge15" class="edge">
<title>Node357210&#45;&gt;Node357203</title>
<path fill="none" stroke="#191970" d="M448.9353,-80.1451C438.3763,-83.9984 425.963,-88.519 416,-95 382.8322,-116.576 353.6764,-153.3873 338.693,-171.3628"/>
<polygon fill="#191970" stroke="#191970" points="450.2168,-83.4026 458.3502,-76.613 447.758,-76.8486 450.2168,-83.4026"/>
</g>
<!-- Node357212 -->
<g id="node11" class="node">
<title>Node357212</title>
<g id="a_node11"><a xlink:href="quickjs-libc_8c.html#a9fa4c190ba56314c7ed9b00bbc7ad0f9" target="_top" xlink:title="handle_posted_message">
<polygon fill="none" stroke="#000000" points="563,-38.5 563,-57.5 688,-57.5 688,-38.5 563,-38.5"/>
<text text-anchor="middle" x="625.5" y="-45.5" font-family="Helvetica,sans-Serif" font-size="10.00" fill="#000000">handle_posted_message</text>
</a>
</g>
</g>
<!-- Node357211&#45;&gt;Node357212 -->
<g id="edge17" class="edge">
<title>Node357211&#45;&gt;Node357212</title>
<path fill="none" stroke="#191970" d="M524.8872,-35.5867C537.1728,-37.1025 550.3463,-38.7278 562.9803,-40.2865"/>
<polygon fill="#191970" stroke="#191970" points="525.1608,-32.094 514.8074,-34.3431 524.3036,-39.0414 525.1608,-32.094"/>
</g>
<!-- Node357213 -->
<g id="node12" class="node">
<title>Node357213</title>
<g id="a_node12"><a xlink:href="quickjs-libc_8c.html#ab1b439d304c2125490b47ef262b5df67" target="_top" xlink:title="js_std_eval_binary">
<polygon fill="none" stroke="#000000" points="576.5,-.5 576.5,-19.5 674.5,-19.5 674.5,-.5 576.5,-.5"/>
<text text-anchor="middle" x="625.5" y="-7.5" font-family="Helvetica,sans-Serif" font-size="10.00" fill="#000000">js_std_eval_binary</text>
</a>
</g>
</g>
<!-- Node357211&#45;&gt;Node357213 -->
<g id="edge18" class="edge">
<title>Node357211&#45;&gt;Node357213</title>
<path fill="none" stroke="#191970" d="M524.9442,-22.4062C541.6139,-20.3496 559.9136,-18.0918 576.2796,-16.0726"/>
<polygon fill="#191970" stroke="#191970" points="524.3036,-18.9586 514.8074,-23.6569 525.1608,-25.906 524.3036,-18.9586"/>
</g>
<!-- Node357214&#45;&gt;Node357203 -->
<g id="edge20" class="edge">
<title>Node357214&#45;&gt;Node357203</title>
<path fill="none" stroke="#191970" d="M250.3073,-171.5677C258.9838,-172.621 267.6512,-173.6733 275.8827,-174.6727"/>
<polygon fill="#191970" stroke="#191970" points="250.4921,-168.0645 240.1432,-170.3337 249.6484,-175.0135 250.4921,-168.0645"/>
</g>
</g>
</svg>
        <g id="navigator" transform="translate(0 0)" fill="#404254">
                <rect fill="#f2f5e9" fill-opacity="0.5" stroke="#606060" stroke-width=".5" x="0" y="0" width="60" height="60"/>
                <use id="zoomplus" xlink:href="#zoomPlus" x="17" y="9" onmousedown="handleZoom(evt,'in')"/>
                <use id="zoomminus" xlink:href="#zoomMin" x="42" y="9" onmousedown="handleZoom(evt,'out')"/>
                <use id="reset" xlink:href="#resetDef" x="30" y="36" onmousedown="handleReset()"/>
                <g id="arrowUp" xlink:href="#dirArrow" transform="translate(30 24)" onmousedown="handlePan(0,-1)">
                  <use xlink:href="#rim" fill="#404040">
                        <set attributeName="fill" to="#808080" begin="arrowUp.mouseover" end="arrowUp.mouseout"/>
                  </use>
                  <path fill="none" stroke="white" stroke-width="1.5" d="M0,-3.0v7 M-2.5,-0.5L0,-3.0L2.5,-0.5"/>
                </g>
                <g id="arrowRight" xlink:href="#dirArrow" transform="rotate(90) translate(36 -43)" onmousedown="handlePan(1,0)">
                  <use xlink:href="#rim" fill="#404040">
                        <set attributeName="fill" to="#808080" begin="arrowRight.mouseover" end="arrowRight.mouseout"/>
                  </use>
                  <path fill="none" stroke="white" stroke-width="1.5" d="M0,-3.0v7 M-2.5,-0.5L0,-3.0L2.5,-0.5"/>
                </g>
                <g id="arrowDown" xlink:href="#dirArrow" transform="rotate(180) translate(-30 -48)" onmousedown="handlePan(0,1)">
                  <use xlink:href="#rim" fill="#404040">
                        <set attributeName="fill" to="#808080" begin="arrowDown.mouseover" end="arrowDown.mouseout"/>
                  </use>
                  <path fill="none" stroke="white" stroke-width="1.5" d="M0,-3.0v7 M-2.5,-0.5L0,-3.0L2.5,-0.5"/>
                </g>
                <g id="arrowLeft" xlink:href="#dirArrow" transform="rotate(270) translate(-36 17)" onmousedown="handlePan(-1,0)">
                  <use xlink:href="#rim" fill="#404040">
                        <set attributeName="fill" to="#808080" begin="arrowLeft.mouseover" end="arrowLeft.mouseout"/>
                  </use>
                  <path fill="none" stroke="white" stroke-width="1.5" d="M0,-3.0v7 M-2.5,-0.5L0,-3.0L2.5,-0.5"/>
                </g>
        </g>
        <svg viewBox="0 0 15 15" width="100%" height="30px" preserveAspectRatio="xMaxYMin meet">
         <g id="arrow_out" transform="scale(0.3 0.3)">
          <a xlink:href="quickjs_8c_acde90ec09be2051ca056c973ac9c2a38_icgraph_org.svg" target="_base">
           <rect id="button" ry="5" rx="5" y="6" x="6" height="38" width="38"
                fill="#f2f5e9" fill-opacity="0.5" stroke="#606060" stroke-width="1.0"/>
           <path id="arrow"
             d="M 11.500037,31.436501 C 11.940474,20.09759 22.043105,11.32322 32.158766,21.979434 L 37.068811,17.246167 C 37.068811,17.246167 37.088388,32 37.088388,32 L 22.160133,31.978069 C 22.160133,31.978069 26.997745,27.140456 26.997745,27.140456 C 18.528582,18.264221 13.291696,25.230495 11.500037,31.436501 z"
             style="fill:#404040;"/>
          </a>
         </g>
        </svg>
</svg>
