<?xml version="1.0" encoding="UTF-8" standalone="no"?>
<!DOCTYPE svg PUBLIC "-//W3C//DTD SVG 1.1//EN"
 "http://www.w3.org/Graphics/SVG/1.1/DTD/svg11.dtd">
<!-- Generated by graphviz version 2.40.1 (20161225.0304)
 -->
<!-- Title: js_create_module_bytecode_function Pages: 1 -->
<!--zoomable 66 -->
<svg id="main" version="1.1" xmlns="http://www.w3.org/2000/svg" xmlns:xlink="http://www.w3.org/1999/xlink" xml:space="preserve" onload="init(evt)">
<style type="text/css"><![CDATA[
.edge:hover path { stroke: red; }
.edge:hover polygon { stroke: red; fill: red; }
]]></style>
<script type="text/javascript"><![CDATA[
var edges = document.getElementsByTagName('g');
if (edges && edges.length) {
  for (var i=0;i<edges.length;i++) {
    if (edges[i].id.substr(0,4)=='edge') {
      edges[i].setAttribute('class','edge');
    }
  }
}
]]></script>
        <defs>
                <circle id="rim" cx="0" cy="0" r="7"/>
                <circle id="rim2" cx="0" cy="0" r="3.5"/>
                <g id="zoomPlus">
                        <use xlink:href="#rim" fill="#404040">
                                <set attributeName="fill" to="#808080" begin="zoomplus.mouseover" end="zoomplus.mouseout"/>
                        </use>
                        <path d="M-4,0h8M0,-4v8" fill="none" stroke="white" stroke-width="1.5" pointer-events="none"/>
                </g>
                <g id="zoomMin">
                        <use xlink:href="#rim" fill="#404040">
                                <set attributeName="fill" to="#808080" begin="zoomminus.mouseover" end="zoomminus.mouseout"/>
                        </use>
                        <path d="M-4,0h8" fill="none" stroke="white" stroke-width="1.5" pointer-events="none"/>
                </g>
                <g id="dirArrow">
                        <path fill="none" stroke="white" stroke-width="1.5" d="M0,-3.0v7 M-2.5,-0.5L0,-3.0L2.5,-0.5"/>
                </g>
               <g id="resetDef">
                       <use xlink:href="#rim2" fill="#404040">
                               <set attributeName="fill" to="#808080" begin="reset.mouseover" end="reset.mouseout"/>
                       </use>
               </g>
        </defs>

<script type="text/javascript">
var viewWidth = 606;
var viewHeight = 66;
var sectionId = 'dynsection-1133';
</script>
<script xlink:href="svgpan.js"/>
<svg id="graph" class="graph">
<g id="viewport">
<title>js_create_module_bytecode_function</title>
<!-- Node339627 -->
<g id="node1" class="node">
<title>Node339627</title>
<polygon fill="#bfbfbf" stroke="#000000" points="0,-14 0,-44 138,-44 138,-14 0,-14"/>
<text text-anchor="start" x="8" y="-32" font-family="Helvetica,sans-Serif" font-size="10.00" fill="#000000">js_create_module_bytecode</text>
<text text-anchor="middle" x="69" y="-21" font-family="Helvetica,sans-Serif" font-size="10.00" fill="#000000">_function</text>
</g>
<!-- Node339628 -->
<g id="node2" class="node">
<title>Node339628</title>
<g id="a_node2"><a xlink:href="quickjs_8c.html#a2d91a9da16cf07ff3b9ec053b870c335" target="_top" xlink:title="js_create_module_function">
<polygon fill="none" stroke="#000000" points="174,-19.5 174,-38.5 307,-38.5 307,-19.5 174,-19.5"/>
<text text-anchor="middle" x="240.5" y="-26.5" font-family="Helvetica,sans-Serif" font-size="10.00" fill="#000000">js_create_module_function</text>
</a>
</g>
</g>
<!-- Node339627&#45;&gt;Node339628 -->
<g id="edge1" class="edge">
<title>Node339627&#45;&gt;Node339628</title>
<path fill="none" stroke="#191970" d="M148.5038,-29C156.952,-29 165.4816,-29 173.762,-29"/>
<polygon fill="#191970" stroke="#191970" points="148.2613,-25.5001 138.2613,-29 148.2612,-32.5001 148.2613,-25.5001"/>
</g>
<!-- Node339628&#45;&gt;Node339628 -->
<g id="edge2" class="edge">
<title>Node339628&#45;&gt;Node339628</title>
<path fill="none" stroke="#191970" d="M209.8114,-47.2746C210.6864,-52.741 220.9159,-57 240.5,-57 269.6484,-57 278.0742,-47.5653 265.7772,-38.7571"/>
<polygon fill="#191970" stroke="#191970" points="212.8144,-49.0745 215.2228,-38.7571 206.906,-45.3207 212.8144,-49.0745"/>
</g>
<!-- Node339629 -->
<g id="node3" class="node">
<title>Node339629</title>
<g id="a_node3"><a xlink:href="quickjs_8c.html#a5d217acce00892ab2b50a1dcc1eb4cc8" target="_top" xlink:title="JS_EvalFunctionInternal">
<polygon fill="none" stroke="#000000" points="343,-19.5 343,-38.5 466,-38.5 466,-19.5 343,-19.5"/>
<text text-anchor="middle" x="404.5" y="-26.5" font-family="Helvetica,sans-Serif" font-size="10.00" fill="#000000">JS_EvalFunctionInternal</text>
</a>
</g>
</g>
<!-- Node339628&#45;&gt;Node339629 -->
<g id="edge3" class="edge">
<title>Node339628&#45;&gt;Node339629</title>
<path fill="none" stroke="#191970" d="M317.2378,-29C325.8338,-29 334.5073,-29 342.8783,-29"/>
<polygon fill="#191970" stroke="#191970" points="317.2051,-25.5001 307.2051,-29 317.205,-32.5001 317.2051,-25.5001"/>
</g>
<!-- Node339630 -->
<g id="node4" class="node">
<title>Node339630</title>
<g id="a_node4"><a xlink:href="quickjs_8c.html#af38ab3d672d41db0fa7a75b5c24149e4" target="_top" xlink:title="JS_EvalFunction">
<polygon fill="none" stroke="#ff0000" points="504.5,-38.5 504.5,-57.5 595.5,-57.5 595.5,-38.5 504.5,-38.5"/>
<text text-anchor="middle" x="550" y="-45.5" font-family="Helvetica,sans-Serif" font-size="10.00" fill="#000000">JS_EvalFunction</text>
</a>
</g>
</g>
<!-- Node339629&#45;&gt;Node339630 -->
<g id="edge4" class="edge">
<title>Node339629&#45;&gt;Node339630</title>
<path fill="none" stroke="#191970" d="M476.3947,-38.3883C485.8196,-39.6191 495.2636,-40.8523 504.094,-42.0054"/>
<polygon fill="#191970" stroke="#191970" points="476.5741,-34.8821 466.2051,-37.0577 475.6677,-41.8232 476.5741,-34.8821"/>
</g>
<!-- Node339808 -->
<g id="node5" class="node">
<title>Node339808</title>
<g id="a_node5"><a xlink:href="quickjs_8c.html#a46a8a7e155cfd0af984f6725f060f0d6" target="_top" xlink:title="__JS_EvalInternal">
<polygon fill="none" stroke="#ff0000" points="502,-.5 502,-19.5 598,-19.5 598,-.5 502,-.5"/>
<text text-anchor="middle" x="550" y="-7.5" font-family="Helvetica,sans-Serif" font-size="10.00" fill="#000000">__JS_EvalInternal</text>
</a>
</g>
</g>
<!-- Node339629&#45;&gt;Node339808 -->
<g id="edge5" class="edge">
<title>Node339629&#45;&gt;Node339808</title>
<path fill="none" stroke="#191970" d="M476.336,-19.6194C484.9978,-18.4883 493.6769,-17.3549 501.8821,-16.2834"/>
<polygon fill="#191970" stroke="#191970" points="475.6677,-16.1768 466.2051,-20.9423 476.5741,-23.1179 475.6677,-16.1768"/>
</g>
</g>
</svg>
        <g id="navigator" transform="translate(0 0)" fill="#404254">
                <rect fill="#f2f5e9" fill-opacity="0.5" stroke="#606060" stroke-width=".5" x="0" y="0" width="60" height="60"/>
                <use id="zoomplus" xlink:href="#zoomPlus" x="17" y="9" onmousedown="handleZoom(evt,'in')"/>
                <use id="zoomminus" xlink:href="#zoomMin" x="42" y="9" onmousedown="handleZoom(evt,'out')"/>
                <use id="reset" xlink:href="#resetDef" x="30" y="36" onmousedown="handleReset()"/>
                <g id="arrowUp" xlink:href="#dirArrow" transform="translate(30 24)" onmousedown="handlePan(0,-1)">
                  <use xlink:href="#rim" fill="#404040">
                        <set attributeName="fill" to="#808080" begin="arrowUp.mouseover" end="arrowUp.mouseout"/>
                  </use>
                  <path fill="none" stroke="white" stroke-width="1.5" d="M0,-3.0v7 M-2.5,-0.5L0,-3.0L2.5,-0.5"/>
                </g>
                <g id="arrowRight" xlink:href="#dirArrow" transform="rotate(90) translate(36 -43)" onmousedown="handlePan(1,0)">
                  <use xlink:href="#rim" fill="#404040">
                        <set attributeName="fill" to="#808080" begin="arrowRight.mouseover" end="arrowRight.mouseout"/>
                  </use>
                  <path fill="none" stroke="white" stroke-width="1.5" d="M0,-3.0v7 M-2.5,-0.5L0,-3.0L2.5,-0.5"/>
                </g>
                <g id="arrowDown" xlink:href="#dirArrow" transform="rotate(180) translate(-30 -48)" onmousedown="handlePan(0,1)">
                  <use xlink:href="#rim" fill="#404040">
                        <set attributeName="fill" to="#808080" begin="arrowDown.mouseover" end="arrowDown.mouseout"/>
                  </use>
                  <path fill="none" stroke="white" stroke-width="1.5" d="M0,-3.0v7 M-2.5,-0.5L0,-3.0L2.5,-0.5"/>
                </g>
                <g id="arrowLeft" xlink:href="#dirArrow" transform="rotate(270) translate(-36 17)" onmousedown="handlePan(-1,0)">
                  <use xlink:href="#rim" fill="#404040">
                        <set attributeName="fill" to="#808080" begin="arrowLeft.mouseover" end="arrowLeft.mouseout"/>
                  </use>
                  <path fill="none" stroke="white" stroke-width="1.5" d="M0,-3.0v7 M-2.5,-0.5L0,-3.0L2.5,-0.5"/>
                </g>
        </g>
        <svg viewBox="0 0 15 15" width="100%" height="30px" preserveAspectRatio="xMaxYMin meet">
         <g id="arrow_out" transform="scale(0.3 0.3)">
          <a xlink:href="quickjs_8c_a6e67f3bc70778c4c816db73e18d47d03_icgraph_org.svg" target="_base">
           <rect id="button" ry="5" rx="5" y="6" x="6" height="38" width="38"
                fill="#f2f5e9" fill-opacity="0.5" stroke="#606060" stroke-width="1.0"/>
           <path id="arrow"
             d="M 11.500037,31.436501 C 11.940474,20.09759 22.043105,11.32322 32.158766,21.979434 L 37.068811,17.246167 C 37.068811,17.246167 37.088388,32 37.088388,32 L 22.160133,31.978069 C 22.160133,31.978069 26.997745,27.140456 26.997745,27.140456 C 18.528582,18.264221 13.291696,25.230495 11.500037,31.436501 z"
             style="fill:#404040;"/>
          </a>
         </g>
        </svg>
</svg>
