<?xml version="1.0" encoding="UTF-8" standalone="no"?>
<!DOCTYPE svg PUBLIC "-//W3C//DTD SVG 1.1//EN"
 "http://www.w3.org/Graphics/SVG/1.1/DTD/svg11.dtd">
<!-- Generated by graphviz version 2.40.1 (20161225.0304)
 -->
<!-- Title: js_find_loaded_module Pages: 1 -->
<!--zoomable 131 -->
<svg id="main" version="1.1" xmlns="http://www.w3.org/2000/svg" xmlns:xlink="http://www.w3.org/1999/xlink" xml:space="preserve" onload="init(evt)">
<style type="text/css"><![CDATA[
.edge:hover path { stroke: red; }
.edge:hover polygon { stroke: red; fill: red; }
]]></style>
<script type="text/javascript"><![CDATA[
var edges = document.getElementsByTagName('g');
if (edges && edges.length) {
  for (var i=0;i<edges.length;i++) {
    if (edges[i].id.substr(0,4)=='edge') {
      edges[i].setAttribute('class','edge');
    }
  }
}
]]></script>
        <defs>
                <circle id="rim" cx="0" cy="0" r="7"/>
                <circle id="rim2" cx="0" cy="0" r="3.5"/>
                <g id="zoomPlus">
                        <use xlink:href="#rim" fill="#404040">
                                <set attributeName="fill" to="#808080" begin="zoomplus.mouseover" end="zoomplus.mouseout"/>
                        </use>
                        <path d="M-4,0h8M0,-4v8" fill="none" stroke="white" stroke-width="1.5" pointer-events="none"/>
                </g>
                <g id="zoomMin">
                        <use xlink:href="#rim" fill="#404040">
                                <set attributeName="fill" to="#808080" begin="zoomminus.mouseover" end="zoomminus.mouseout"/>
                        </use>
                        <path d="M-4,0h8" fill="none" stroke="white" stroke-width="1.5" pointer-events="none"/>
                </g>
                <g id="dirArrow">
                        <path fill="none" stroke="white" stroke-width="1.5" d="M0,-3.0v7 M-2.5,-0.5L0,-3.0L2.5,-0.5"/>
                </g>
               <g id="resetDef">
                       <use xlink:href="#rim2" fill="#404040">
                               <set attributeName="fill" to="#808080" begin="reset.mouseover" end="reset.mouseout"/>
                       </use>
               </g>
        </defs>

<script type="text/javascript">
var viewWidth = 574;
var viewHeight = 131;
var sectionId = 'dynsection-1106';
</script>
<script xlink:href="svgpan.js"/>
<svg id="graph" class="graph">
<g id="viewport">
<title>js_find_loaded_module</title>
<!-- Node329297 -->
<g id="node1" class="node">
<title>Node329297</title>
<polygon fill="#bfbfbf" stroke="#000000" points="0,-28.5 0,-47.5 116,-47.5 116,-28.5 0,-28.5"/>
<text text-anchor="middle" x="58" y="-35.5" font-family="Helvetica,sans-Serif" font-size="10.00" fill="#000000">js_find_loaded_module</text>
</g>
<!-- Node329298 -->
<g id="node2" class="node">
<title>Node329298</title>
<g id="a_node2"><a xlink:href="quickjs_8c.html#a23b6e7c4e6a3bddc1cdd2139dcdf1283" target="_top" xlink:title="js_host_resolve_imported\l_module">
<polygon fill="none" stroke="#000000" points="152,-51 152,-81 280,-81 280,-51 152,-51"/>
<text text-anchor="start" x="160" y="-69" font-family="Helvetica,sans-Serif" font-size="10.00" fill="#000000">js_host_resolve_imported</text>
<text text-anchor="middle" x="216" y="-58" font-family="Helvetica,sans-Serif" font-size="10.00" fill="#000000">_module</text>
</a>
</g>
</g>
<!-- Node329297&#45;&gt;Node329298 -->
<g id="edge1" class="edge">
<title>Node329297&#45;&gt;Node329298</title>
<path fill="none" stroke="#191970" d="M122.0599,-49.3524C131.9156,-51.099 142.0933,-52.9026 151.9489,-54.6492"/>
<polygon fill="#191970" stroke="#191970" points="122.3901,-45.8564 111.9327,-47.5577 121.1685,-52.749 122.3901,-45.8564"/>
</g>
<!-- Node329902 -->
<g id="node6" class="node">
<title>Node329902</title>
<g id="a_node6"><a xlink:href="quickjs_8c.html#a2c15f4e9fa1344bb2d7caca8e21b34f4" target="_top" xlink:title="js_import_meta">
<polygon fill="none" stroke="#000000" points="174.5,-6.5 174.5,-25.5 257.5,-25.5 257.5,-6.5 174.5,-6.5"/>
<text text-anchor="middle" x="216" y="-13.5" font-family="Helvetica,sans-Serif" font-size="10.00" fill="#000000">js_import_meta</text>
</a>
</g>
</g>
<!-- Node329297&#45;&gt;Node329902 -->
<g id="edge7" class="edge">
<title>Node329297&#45;&gt;Node329902</title>
<path fill="none" stroke="#191970" d="M126.3948,-28.4767C142.6389,-26.2148 159.4922,-23.8682 174.14,-21.8286"/>
<polygon fill="#191970" stroke="#191970" points="125.8062,-25.0248 116.3845,-29.8705 126.7716,-31.9579 125.8062,-25.0248"/>
</g>
<!-- Node329299 -->
<g id="node3" class="node">
<title>Node329299</title>
<g id="a_node3"><a xlink:href="quickjs_8c.html#a041f16b68daf31525cd76aa4794073ef" target="_top" xlink:title="js_resolve_module">
<polygon fill="none" stroke="#000000" points="316,-56.5 316,-75.5 414,-75.5 414,-56.5 316,-56.5"/>
<text text-anchor="middle" x="365" y="-63.5" font-family="Helvetica,sans-Serif" font-size="10.00" fill="#000000">js_resolve_module</text>
</a>
</g>
</g>
<!-- Node329298&#45;&gt;Node329299 -->
<g id="edge2" class="edge">
<title>Node329298&#45;&gt;Node329299</title>
<path fill="none" stroke="#191970" d="M290.2289,-66C298.9224,-66 307.6207,-66 315.8505,-66"/>
<polygon fill="#191970" stroke="#191970" points="290.0542,-62.5001 280.0541,-66 290.0541,-69.5001 290.0542,-62.5001"/>
</g>
<!-- Node329300 -->
<g id="node4" class="node">
<title>Node329300</title>
<g id="a_node4"><a xlink:href="quickjs_8c.html#a6357b7fdae71c70c140e78e6c20cb5c2" target="_top" xlink:title="js_dynamic_import_job">
<polygon fill="none" stroke="#ff0000" points="450,-103.5 450,-122.5 566,-122.5 566,-103.5 450,-103.5"/>
<text text-anchor="middle" x="508" y="-110.5" font-family="Helvetica,sans-Serif" font-size="10.00" fill="#000000">js_dynamic_import_job</text>
</a>
</g>
</g>
<!-- Node329298&#45;&gt;Node329300 -->
<g id="edge6" class="edge">
<title>Node329298&#45;&gt;Node329300</title>
<path fill="none" stroke="#191970" d="M258.4023,-84.9191C275.8875,-91.8622 296.572,-98.9968 316,-103 360.2973,-112.1276 411.4915,-114.3943 449.8716,-114.5059"/>
<polygon fill="#191970" stroke="#191970" points="259.627,-81.6387 249.0457,-81.1026 256.9832,-88.1203 259.627,-81.6387"/>
</g>
<!-- Node329299&#45;&gt;Node329299 -->
<g id="edge3" class="edge">
<title>Node329299&#45;&gt;Node329299</title>
<path fill="none" stroke="#191970" d="M338.4941,-84.6539C339.6021,-89.9368 348.4374,-94 365,-94 390.2383,-94 397.5337,-84.5653 386.8863,-75.7571"/>
<polygon fill="#191970" stroke="#191970" points="341.6117,-86.2449 343.1137,-75.7571 335.3992,-83.0192 341.6117,-86.2449"/>
</g>
<!-- Node329299&#45;&gt;Node329300 -->
<g id="edge4" class="edge">
<title>Node329299&#45;&gt;Node329300</title>
<path fill="none" stroke="#191970" d="M403.6368,-78.6988C427.2348,-86.4548 456.9368,-96.217 478.614,-103.3417"/>
<polygon fill="#191970" stroke="#191970" points="404.5311,-75.3086 393.9382,-75.5112 402.3454,-81.9586 404.5311,-75.3086"/>
</g>
<!-- Node329477 -->
<g id="node5" class="node">
<title>Node329477</title>
<g id="a_node5"><a xlink:href="quickjs_8c.html#a46a8a7e155cfd0af984f6725f060f0d6" target="_top" xlink:title="__JS_EvalInternal">
<polygon fill="none" stroke="#ff0000" points="460,-56.5 460,-75.5 556,-75.5 556,-56.5 460,-56.5"/>
<text text-anchor="middle" x="508" y="-63.5" font-family="Helvetica,sans-Serif" font-size="10.00" fill="#000000">__JS_EvalInternal</text>
</a>
</g>
</g>
<!-- Node329299&#45;&gt;Node329477 -->
<g id="edge5" class="edge">
<title>Node329299&#45;&gt;Node329477</title>
<path fill="none" stroke="#191970" d="M424.3885,-66C436.1376,-66 448.336,-66 459.6646,-66"/>
<polygon fill="#191970" stroke="#191970" points="424.2125,-62.5001 414.2125,-66 424.2125,-69.5001 424.2125,-62.5001"/>
</g>
<!-- Node329302 -->
<g id="node7" class="node">
<title>Node329302</title>
<g id="a_node7"><a xlink:href="quickjs_8c.html#ac2894ff4edcdb4e6841bcce9c76081e3" target="_top" xlink:title="JS_CallInternal">
<polygon fill="none" stroke="#ff0000" points="323.5,-.5 323.5,-19.5 406.5,-19.5 406.5,-.5 323.5,-.5"/>
<text text-anchor="middle" x="365" y="-7.5" font-family="Helvetica,sans-Serif" font-size="10.00" fill="#000000">JS_CallInternal</text>
</a>
</g>
</g>
<!-- Node329902&#45;&gt;Node329302 -->
<g id="edge8" class="edge">
<title>Node329902&#45;&gt;Node329302</title>
<path fill="none" stroke="#191970" d="M267.6823,-13.9188C285.9175,-13.1845 306.1715,-12.3689 323.4596,-11.6728"/>
<polygon fill="#191970" stroke="#191970" points="267.3559,-10.429 257.5048,-14.3287 267.6376,-17.4234 267.3559,-10.429"/>
</g>
<!-- Node329302&#45;&gt;Node329302 -->
<g id="edge9" class="edge">
<title>Node329302&#45;&gt;Node329302</title>
<path fill="none" stroke="#191970" d="M338.4941,-28.6539C339.6021,-33.9368 348.4374,-38 365,-38 390.2383,-38 397.5337,-28.5653 386.8863,-19.7571"/>
<polygon fill="#191970" stroke="#191970" points="341.6117,-30.2449 343.1137,-19.7571 335.3992,-27.0192 341.6117,-30.2449"/>
</g>
</g>
</svg>
        <g id="navigator" transform="translate(0 0)" fill="#404254">
                <rect fill="#f2f5e9" fill-opacity="0.5" stroke="#606060" stroke-width=".5" x="0" y="0" width="60" height="60"/>
                <use id="zoomplus" xlink:href="#zoomPlus" x="17" y="9" onmousedown="handleZoom(evt,'in')"/>
                <use id="zoomminus" xlink:href="#zoomMin" x="42" y="9" onmousedown="handleZoom(evt,'out')"/>
                <use id="reset" xlink:href="#resetDef" x="30" y="36" onmousedown="handleReset()"/>
                <g id="arrowUp" xlink:href="#dirArrow" transform="translate(30 24)" onmousedown="handlePan(0,-1)">
                  <use xlink:href="#rim" fill="#404040">
                        <set attributeName="fill" to="#808080" begin="arrowUp.mouseover" end="arrowUp.mouseout"/>
                  </use>
                  <path fill="none" stroke="white" stroke-width="1.5" d="M0,-3.0v7 M-2.5,-0.5L0,-3.0L2.5,-0.5"/>
                </g>
                <g id="arrowRight" xlink:href="#dirArrow" transform="rotate(90) translate(36 -43)" onmousedown="handlePan(1,0)">
                  <use xlink:href="#rim" fill="#404040">
                        <set attributeName="fill" to="#808080" begin="arrowRight.mouseover" end="arrowRight.mouseout"/>
                  </use>
                  <path fill="none" stroke="white" stroke-width="1.5" d="M0,-3.0v7 M-2.5,-0.5L0,-3.0L2.5,-0.5"/>
                </g>
                <g id="arrowDown" xlink:href="#dirArrow" transform="rotate(180) translate(-30 -48)" onmousedown="handlePan(0,1)">
                  <use xlink:href="#rim" fill="#404040">
                        <set attributeName="fill" to="#808080" begin="arrowDown.mouseover" end="arrowDown.mouseout"/>
                  </use>
                  <path fill="none" stroke="white" stroke-width="1.5" d="M0,-3.0v7 M-2.5,-0.5L0,-3.0L2.5,-0.5"/>
                </g>
                <g id="arrowLeft" xlink:href="#dirArrow" transform="rotate(270) translate(-36 17)" onmousedown="handlePan(-1,0)">
                  <use xlink:href="#rim" fill="#404040">
                        <set attributeName="fill" to="#808080" begin="arrowLeft.mouseover" end="arrowLeft.mouseout"/>
                  </use>
                  <path fill="none" stroke="white" stroke-width="1.5" d="M0,-3.0v7 M-2.5,-0.5L0,-3.0L2.5,-0.5"/>
                </g>
        </g>
        <svg viewBox="0 0 15 15" width="100%" height="30px" preserveAspectRatio="xMaxYMin meet">
         <g id="arrow_out" transform="scale(0.3 0.3)">
          <a xlink:href="quickjs_8c_a0a31a11db1d2054a132f4879d1f3c8cc_icgraph_org.svg" target="_base">
           <rect id="button" ry="5" rx="5" y="6" x="6" height="38" width="38"
                fill="#f2f5e9" fill-opacity="0.5" stroke="#606060" stroke-width="1.0"/>
           <path id="arrow"
             d="M 11.500037,31.436501 C 11.940474,20.09759 22.043105,11.32322 32.158766,21.979434 L 37.068811,17.246167 C 37.068811,17.246167 37.088388,32 37.088388,32 L 22.160133,31.978069 C 22.160133,31.978069 26.997745,27.140456 26.997745,27.140456 C 18.528582,18.264221 13.291696,25.230495 11.500037,31.436501 z"
             style="fill:#404040;"/>
          </a>
         </g>
        </svg>
</svg>
