<?xml version="1.0" encoding="UTF-8" standalone="no"?>
<!DOCTYPE svg PUBLIC "-//W3C//DTD SVG 1.1//EN"
 "http://www.w3.org/Graphics/SVG/1.1/DTD/svg11.dtd">
<!-- Generated by graphviz version 2.40.1 (20161225.0304)
 -->
<!-- Title: set_date_fields Pages: 1 -->
<svg width="316pt" height="180pt"
 viewBox="0.00 0.00 316.00 180.00" xmlns="http://www.w3.org/2000/svg" xmlns:xlink="http://www.w3.org/1999/xlink">
<g id="graph0" class="graph" transform="scale(1 1) rotate(0) translate(4 176)">
<title>set_date_fields</title>
<!-- Node464122 -->
<g id="node1" class="node">
<title>Node464122</title>
<polygon fill="#bfbfbf" stroke="#000000" points="0,-76.5 0,-95.5 83,-95.5 83,-76.5 0,-76.5"/>
<text text-anchor="middle" x="41.5" y="-83.5" font-family="Helvetica,sans-Serif" font-size="10.00" fill="#000000">set_date_fields</text>
</g>
<!-- Node464123 -->
<g id="node2" class="node">
<title>Node464123</title>
<g id="a_node2"><a xlink:href="quickjs_8c.html#a3f5def6f020bd1c429735f0b1d079b5e" target="_top" xlink:title="days_from_year">
<polygon fill="none" stroke="#000000" points="126,-152.5 126,-171.5 212,-171.5 212,-152.5 126,-152.5"/>
<text text-anchor="middle" x="169" y="-159.5" font-family="Helvetica,sans-Serif" font-size="10.00" fill="#000000">days_from_year</text>
</a>
</g>
</g>
<!-- Node464122&#45;&gt;Node464123 -->
<g id="edge1" class="edge">
<title>Node464122&#45;&gt;Node464123</title>
<path fill="none" stroke="#191970" d="M52.4046,-95.5202C66.8463,-107.7638 93.4771,-129.1016 119,-143 122.6699,-144.9984 126.5946,-146.8814 130.5711,-148.6277"/>
<polygon fill="#191970" stroke="#191970" points="129.2684,-151.8763 139.848,-152.4445 131.9318,-145.4028 129.2684,-151.8763"/>
</g>
<!-- Node464125 -->
<g id="node4" class="node">
<title>Node464125</title>
<g id="a_node4"><a xlink:href="quickjs_8c.html#a021e07d41b6d7239b3b44e7cbdff7a15" target="_top" xlink:title="days_in_year">
<polygon fill="none" stroke="#000000" points="132,-114.5 132,-133.5 206,-133.5 206,-114.5 132,-114.5"/>
<text text-anchor="middle" x="169" y="-121.5" font-family="Helvetica,sans-Serif" font-size="10.00" fill="#000000">days_in_year</text>
</a>
</g>
</g>
<!-- Node464122&#45;&gt;Node464125 -->
<g id="edge3" class="edge">
<title>Node464122&#45;&gt;Node464125</title>
<path fill="none" stroke="#191970" d="M73.6736,-95.589C89.8307,-100.4044 109.608,-106.2988 126.9518,-111.468"/>
<polygon fill="#191970" stroke="#191970" points="126.2535,-114.912 136.8367,-114.4141 128.2529,-108.2036 126.2535,-114.912"/>
</g>
<!-- Node464126 -->
<g id="node5" class="node">
<title>Node464126</title>
<g id="a_node5"><a xlink:href="quickjs_8c.html#adecade3bf915770c66e0a27bc3458343" target="_top" xlink:title="getTimezoneOffset">
<polygon fill="none" stroke="#000000" points="119,-76.5 119,-95.5 219,-95.5 219,-76.5 119,-76.5"/>
<text text-anchor="middle" x="169" y="-83.5" font-family="Helvetica,sans-Serif" font-size="10.00" fill="#000000">getTimezoneOffset</text>
</a>
</g>
</g>
<!-- Node464122&#45;&gt;Node464126 -->
<g id="edge4" class="edge">
<title>Node464122&#45;&gt;Node464126</title>
<path fill="none" stroke="#191970" d="M83.2483,-86C91.3914,-86 100.0805,-86 108.6858,-86"/>
<polygon fill="#191970" stroke="#191970" points="108.7116,-89.5001 118.7116,-86 108.7116,-82.5001 108.7116,-89.5001"/>
</g>
<!-- Node464127 -->
<g id="node6" class="node">
<title>Node464127</title>
<g id="a_node6"><a xlink:href="quickjs_8c.html#a5fe9e1898e97028fbd772ebc1e914ba8" target="_top" xlink:title="math_mod">
<polygon fill="none" stroke="#000000" points="138,-38.5 138,-57.5 200,-57.5 200,-38.5 138,-38.5"/>
<text text-anchor="middle" x="169" y="-45.5" font-family="Helvetica,sans-Serif" font-size="10.00" fill="#000000">math_mod</text>
</a>
</g>
</g>
<!-- Node464122&#45;&gt;Node464127 -->
<g id="edge5" class="edge">
<title>Node464122&#45;&gt;Node464127</title>
<path fill="none" stroke="#191970" d="M73.6736,-76.411C90.0773,-71.522 110.2127,-65.5209 127.7445,-60.2958"/>
<polygon fill="#191970" stroke="#191970" points="129.1345,-63.5337 137.7182,-57.3232 127.135,-56.8253 129.1345,-63.5337"/>
</g>
<!-- Node464128 -->
<g id="node7" class="node">
<title>Node464128</title>
<g id="a_node7"><a xlink:href="quickjs_8c.html#a478ea24cf629522a55e209b2619334c7" target="_top" xlink:title="time_clip">
<polygon fill="none" stroke="#000000" points="141,-.5 141,-19.5 197,-19.5 197,-.5 141,-.5"/>
<text text-anchor="middle" x="169" y="-7.5" font-family="Helvetica,sans-Serif" font-size="10.00" fill="#000000">time_clip</text>
</a>
</g>
</g>
<!-- Node464122&#45;&gt;Node464128 -->
<g id="edge6" class="edge">
<title>Node464122&#45;&gt;Node464128</title>
<path fill="none" stroke="#191970" d="M52.4046,-76.4798C66.8463,-64.2362 93.4771,-42.8984 119,-29 122.9605,-26.8433 127.2176,-24.8212 131.5163,-22.9601"/>
<polygon fill="#191970" stroke="#191970" points="132.945,-26.1576 140.8944,-19.1536 130.3123,-19.6716 132.945,-26.1576"/>
</g>
<!-- Node464124 -->
<g id="node3" class="node">
<title>Node464124</title>
<g id="a_node3"><a xlink:href="quickjs_8c.html#ad1e54b2564697a7a9d7838321308dd54" target="_top" xlink:title="floor_div">
<polygon fill="none" stroke="#000000" points="255,-152.5 255,-171.5 308,-171.5 308,-152.5 255,-152.5"/>
<text text-anchor="middle" x="281.5" y="-159.5" font-family="Helvetica,sans-Serif" font-size="10.00" fill="#000000">floor_div</text>
</a>
</g>
</g>
<!-- Node464123&#45;&gt;Node464124 -->
<g id="edge2" class="edge">
<title>Node464123&#45;&gt;Node464124</title>
<path fill="none" stroke="#191970" d="M212.1737,-162C222.9554,-162 234.4157,-162 244.8481,-162"/>
<polygon fill="#191970" stroke="#191970" points="244.8747,-165.5001 254.8747,-162 244.8747,-158.5001 244.8747,-165.5001"/>
</g>
</g>
</svg>
