<?xml version="1.0" encoding="UTF-8" standalone="no"?>
<!DOCTYPE svg PUBLIC "-//W3C//DTD SVG 1.1//EN"
 "http://www.w3.org/Graphics/SVG/1.1/DTD/svg11.dtd">
<!-- Generated by graphviz version 2.40.1 (20161225.0304)
 -->
<!-- Title: get_with_scope_opcode Pages: 1 -->
<!--zoomable 46 -->
<svg id="main" version="1.1" xmlns="http://www.w3.org/2000/svg" xmlns:xlink="http://www.w3.org/1999/xlink" xml:space="preserve" onload="init(evt)">
<style type="text/css"><![CDATA[
.edge:hover path { stroke: red; }
.edge:hover polygon { stroke: red; fill: red; }
]]></style>
<script type="text/javascript"><![CDATA[
var edges = document.getElementsByTagName('g');
if (edges && edges.length) {
  for (var i=0;i<edges.length;i++) {
    if (edges[i].id.substr(0,4)=='edge') {
      edges[i].setAttribute('class','edge');
    }
  }
}
]]></script>
        <defs>
                <circle id="rim" cx="0" cy="0" r="7"/>
                <circle id="rim2" cx="0" cy="0" r="3.5"/>
                <g id="zoomPlus">
                        <use xlink:href="#rim" fill="#404040">
                                <set attributeName="fill" to="#808080" begin="zoomplus.mouseover" end="zoomplus.mouseout"/>
                        </use>
                        <path d="M-4,0h8M0,-4v8" fill="none" stroke="white" stroke-width="1.5" pointer-events="none"/>
                </g>
                <g id="zoomMin">
                        <use xlink:href="#rim" fill="#404040">
                                <set attributeName="fill" to="#808080" begin="zoomminus.mouseover" end="zoomminus.mouseout"/>
                        </use>
                        <path d="M-4,0h8" fill="none" stroke="white" stroke-width="1.5" pointer-events="none"/>
                </g>
                <g id="dirArrow">
                        <path fill="none" stroke="white" stroke-width="1.5" d="M0,-3.0v7 M-2.5,-0.5L0,-3.0L2.5,-0.5"/>
                </g>
               <g id="resetDef">
                       <use xlink:href="#rim2" fill="#404040">
                               <set attributeName="fill" to="#808080" begin="reset.mouseover" end="reset.mouseout"/>
                       </use>
               </g>
        </defs>

<script type="text/javascript">
var viewWidth = 524;
var viewHeight = 46;
var sectionId = 'dynsection-1171';
</script>
<script xlink:href="svgpan.js"/>
<svg id="graph" class="graph">
<g id="viewport">
<title>get_with_scope_opcode</title>
<!-- Node348562 -->
<g id="node1" class="node">
<title>Node348562</title>
<polygon fill="#bfbfbf" stroke="#000000" points="0,-.5 0,-19.5 122,-19.5 122,-.5 0,-.5"/>
<text text-anchor="middle" x="61" y="-7.5" font-family="Helvetica,sans-Serif" font-size="10.00" fill="#000000">get_with_scope_opcode</text>
</g>
<!-- Node348563 -->
<g id="node2" class="node">
<title>Node348563</title>
<g id="a_node2"><a xlink:href="quickjs_8c.html#a7858f1fc9afe7bc3548a21f983d015da" target="_top" xlink:title="resolve_scope_var">
<polygon fill="none" stroke="#000000" points="158,-.5 158,-19.5 256,-19.5 256,-.5 158,-.5"/>
<text text-anchor="middle" x="207" y="-7.5" font-family="Helvetica,sans-Serif" font-size="10.00" fill="#000000">resolve_scope_var</text>
</a>
</g>
</g>
<!-- Node348562&#45;&gt;Node348563 -->
<g id="edge1" class="edge">
<title>Node348562&#45;&gt;Node348563</title>
<path fill="none" stroke="#191970" d="M132.1664,-10C140.8042,-10 149.4762,-10 157.6983,-10"/>
<polygon fill="#191970" stroke="#191970" points="132.0712,-6.5001 122.0712,-10 132.0712,-13.5001 132.0712,-6.5001"/>
</g>
<!-- Node348564 -->
<g id="node3" class="node">
<title>Node348564</title>
<g id="a_node3"><a xlink:href="quickjs_8c.html#a7a4eedc4cc552a71e165f4d28ad43985" target="_top" xlink:title="resolve_variables">
<polygon fill="none" stroke="#000000" points="292,-.5 292,-19.5 384,-19.5 384,-.5 292,-.5"/>
<text text-anchor="middle" x="338" y="-7.5" font-family="Helvetica,sans-Serif" font-size="10.00" fill="#000000">resolve_variables</text>
</a>
</g>
</g>
<!-- Node348563&#45;&gt;Node348564 -->
<g id="edge2" class="edge">
<title>Node348563&#45;&gt;Node348564</title>
<path fill="none" stroke="#191970" d="M266.3709,-10C274.8359,-10 283.4386,-10 291.6069,-10"/>
<polygon fill="#191970" stroke="#191970" points="266.1523,-6.5001 256.1523,-10 266.1522,-13.5001 266.1523,-6.5001"/>
</g>
<!-- Node348565 -->
<g id="node4" class="node">
<title>Node348565</title>
<g id="a_node4"><a xlink:href="quickjs_8c.html#a97fcc747d8b1c3644174745d2e2739be" target="_top" xlink:title="js_create_function">
<polygon fill="none" stroke="#ff0000" points="420,-.5 420,-19.5 516,-19.5 516,-.5 420,-.5"/>
<text text-anchor="middle" x="468" y="-7.5" font-family="Helvetica,sans-Serif" font-size="10.00" fill="#000000">js_create_function</text>
</a>
</g>
</g>
<!-- Node348564&#45;&gt;Node348565 -->
<g id="edge3" class="edge">
<title>Node348564&#45;&gt;Node348565</title>
<path fill="none" stroke="#191970" d="M394.3757,-10C402.8315,-10 411.4855,-10 419.7516,-10"/>
<polygon fill="#191970" stroke="#191970" points="394.1992,-6.5001 384.1992,-10 394.1991,-13.5001 394.1992,-6.5001"/>
</g>
<!-- Node348565&#45;&gt;Node348565 -->
<g id="edge4" class="edge">
<title>Node348565&#45;&gt;Node348565</title>
<path fill="none" stroke="#191970" d="M443.8186,-29.0292C445.1376,-34.128 453.1981,-38 468,-38 491.1055,-38 497.7844,-28.5653 488.0368,-19.7571"/>
<polygon fill="#191970" stroke="#191970" points="447.0776,-30.3148 447.9632,-19.7571 440.687,-27.4582 447.0776,-30.3148"/>
</g>
</g>
</svg>
        <g id="navigator" transform="translate(0 0)" fill="#404254">
                <rect fill="#f2f5e9" fill-opacity="0.5" stroke="#606060" stroke-width=".5" x="0" y="0" width="60" height="60"/>
                <use id="zoomplus" xlink:href="#zoomPlus" x="17" y="9" onmousedown="handleZoom(evt,'in')"/>
                <use id="zoomminus" xlink:href="#zoomMin" x="42" y="9" onmousedown="handleZoom(evt,'out')"/>
                <use id="reset" xlink:href="#resetDef" x="30" y="36" onmousedown="handleReset()"/>
                <g id="arrowUp" xlink:href="#dirArrow" transform="translate(30 24)" onmousedown="handlePan(0,-1)">
                  <use xlink:href="#rim" fill="#404040">
                        <set attributeName="fill" to="#808080" begin="arrowUp.mouseover" end="arrowUp.mouseout"/>
                  </use>
                  <path fill="none" stroke="white" stroke-width="1.5" d="M0,-3.0v7 M-2.5,-0.5L0,-3.0L2.5,-0.5"/>
                </g>
                <g id="arrowRight" xlink:href="#dirArrow" transform="rotate(90) translate(36 -43)" onmousedown="handlePan(1,0)">
                  <use xlink:href="#rim" fill="#404040">
                        <set attributeName="fill" to="#808080" begin="arrowRight.mouseover" end="arrowRight.mouseout"/>
                  </use>
                  <path fill="none" stroke="white" stroke-width="1.5" d="M0,-3.0v7 M-2.5,-0.5L0,-3.0L2.5,-0.5"/>
                </g>
                <g id="arrowDown" xlink:href="#dirArrow" transform="rotate(180) translate(-30 -48)" onmousedown="handlePan(0,1)">
                  <use xlink:href="#rim" fill="#404040">
                        <set attributeName="fill" to="#808080" begin="arrowDown.mouseover" end="arrowDown.mouseout"/>
                  </use>
                  <path fill="none" stroke="white" stroke-width="1.5" d="M0,-3.0v7 M-2.5,-0.5L0,-3.0L2.5,-0.5"/>
                </g>
                <g id="arrowLeft" xlink:href="#dirArrow" transform="rotate(270) translate(-36 17)" onmousedown="handlePan(-1,0)">
                  <use xlink:href="#rim" fill="#404040">
                        <set attributeName="fill" to="#808080" begin="arrowLeft.mouseover" end="arrowLeft.mouseout"/>
                  </use>
                  <path fill="none" stroke="white" stroke-width="1.5" d="M0,-3.0v7 M-2.5,-0.5L0,-3.0L2.5,-0.5"/>
                </g>
        </g>
        <svg viewBox="0 0 15 15" width="100%" height="30px" preserveAspectRatio="xMaxYMin meet">
         <g id="arrow_out" transform="scale(0.3 0.3)">
          <a xlink:href="quickjs_8c_a169ce004a01995f262e73c34f866d5a9_icgraph_org.svg" target="_base">
           <rect id="button" ry="5" rx="5" y="6" x="6" height="38" width="38"
                fill="#f2f5e9" fill-opacity="0.5" stroke="#606060" stroke-width="1.0"/>
           <path id="arrow"
             d="M 11.500037,31.436501 C 11.940474,20.09759 22.043105,11.32322 32.158766,21.979434 L 37.068811,17.246167 C 37.068811,17.246167 37.088388,32 37.088388,32 L 22.160133,31.978069 C 22.160133,31.978069 26.997745,27.140456 26.997745,27.140456 C 18.528582,18.264221 13.291696,25.230495 11.500037,31.436501 z"
             style="fill:#404040;"/>
          </a>
         </g>
        </svg>
</svg>
