<?xml version="1.0" encoding="UTF-8" standalone="no"?>
<!DOCTYPE svg PUBLIC "-//W3C//DTD SVG 1.1//EN"
 "http://www.w3.org/Graphics/SVG/1.1/DTD/svg11.dtd">
<!-- Generated by graphviz version 2.40.1 (20161225.0304)
 -->
<!-- Title: find_private_class_field Pages: 1 -->
<!--zoomable 208 -->
<svg id="main" version="1.1" xmlns="http://www.w3.org/2000/svg" xmlns:xlink="http://www.w3.org/1999/xlink" xml:space="preserve" onload="init(evt)">
<style type="text/css"><![CDATA[
.edge:hover path { stroke: red; }
.edge:hover polygon { stroke: red; fill: red; }
]]></style>
<script type="text/javascript"><![CDATA[
var edges = document.getElementsByTagName('g');
if (edges && edges.length) {
  for (var i=0;i<edges.length;i++) {
    if (edges[i].id.substr(0,4)=='edge') {
      edges[i].setAttribute('class','edge');
    }
  }
}
]]></script>
        <defs>
                <circle id="rim" cx="0" cy="0" r="7"/>
                <circle id="rim2" cx="0" cy="0" r="3.5"/>
                <g id="zoomPlus">
                        <use xlink:href="#rim" fill="#404040">
                                <set attributeName="fill" to="#808080" begin="zoomplus.mouseover" end="zoomplus.mouseout"/>
                        </use>
                        <path d="M-4,0h8M0,-4v8" fill="none" stroke="white" stroke-width="1.5" pointer-events="none"/>
                </g>
                <g id="zoomMin">
                        <use xlink:href="#rim" fill="#404040">
                                <set attributeName="fill" to="#808080" begin="zoomminus.mouseover" end="zoomminus.mouseout"/>
                        </use>
                        <path d="M-4,0h8" fill="none" stroke="white" stroke-width="1.5" pointer-events="none"/>
                </g>
                <g id="dirArrow">
                        <path fill="none" stroke="white" stroke-width="1.5" d="M0,-3.0v7 M-2.5,-0.5L0,-3.0L2.5,-0.5"/>
                </g>
               <g id="resetDef">
                       <use xlink:href="#rim2" fill="#404040">
                               <set attributeName="fill" to="#808080" begin="reset.mouseover" end="reset.mouseout"/>
                       </use>
               </g>
        </defs>

<script type="text/javascript">
var viewWidth = 790;
var viewHeight = 208;
var sectionId = 'dynsection-1021';
</script>
<script xlink:href="svgpan.js"/>
<svg id="graph" class="graph">
<g id="viewport">
<title>find_private_class_field</title>
<!-- Node316924 -->
<g id="node1" class="node">
<title>Node316924</title>
<polygon fill="#bfbfbf" stroke="#000000" points="0,-83 0,-113 95,-113 95,-83 0,-83"/>
<text text-anchor="start" x="8" y="-101" font-family="Helvetica,sans-Serif" font-size="10.00" fill="#000000">find_private_class</text>
<text text-anchor="middle" x="47.5" y="-90" font-family="Helvetica,sans-Serif" font-size="10.00" fill="#000000">_field</text>
</g>
<!-- Node316925 -->
<g id="node2" class="node">
<title>Node316925</title>
<g id="a_node2"><a xlink:href="quickjs_8c.html#a00eb789430243c24dab4a63ad6a79653" target="_top" xlink:title="js_parse_class">
<polygon fill="none" stroke="#000000" points="131,-88.5 131,-107.5 213,-107.5 213,-88.5 131,-88.5"/>
<text text-anchor="middle" x="172" y="-95.5" font-family="Helvetica,sans-Serif" font-size="10.00" fill="#000000">js_parse_class</text>
</a>
</g>
</g>
<!-- Node316924&#45;&gt;Node316925 -->
<g id="edge1" class="edge">
<title>Node316924&#45;&gt;Node316925</title>
<path fill="none" stroke="#191970" d="M105.5253,-98C114.003,-98 122.5857,-98 130.6406,-98"/>
<polygon fill="#191970" stroke="#191970" points="105.2789,-94.5001 95.2789,-98 105.2789,-101.5001 105.2789,-94.5001"/>
</g>
<!-- Node316926 -->
<g id="node3" class="node">
<title>Node316926</title>
<g id="a_node3"><a xlink:href="quickjs_8c.html#acdcc62310b4f6f73fa7bc7267b18b1d4" target="_top" xlink:title="js_parse_postfix_expr">
<polygon fill="none" stroke="#000000" points="249,-113.5 249,-132.5 361,-132.5 361,-113.5 249,-113.5"/>
<text text-anchor="middle" x="305" y="-120.5" font-family="Helvetica,sans-Serif" font-size="10.00" fill="#000000">js_parse_postfix_expr</text>
</a>
</g>
</g>
<!-- Node316925&#45;&gt;Node316926 -->
<g id="edge2" class="edge">
<title>Node316925&#45;&gt;Node316926</title>
<path fill="none" stroke="#191970" d="M223.4545,-101.0778C243.797,-104.4733 266.1219,-109.1238 282.2617,-113.4942"/>
<polygon fill="#191970" stroke="#191970" points="223.7785,-97.5855 213.353,-99.4718 222.6793,-104.4987 223.7785,-97.5855"/>
</g>
<!-- Node316929 -->
<g id="node6" class="node">
<title>Node316929</title>
<g id="a_node6"><a xlink:href="quickjs_8c.html#a9d844c16dcc71701436848074337d32c" target="_top" xlink:title="js_parse_statement\l_or_decl">
<polygon fill="none" stroke="#ff0000" points="680,-114 680,-144 782,-144 782,-114 680,-114"/>
<text text-anchor="start" x="688" y="-132" font-family="Helvetica,sans-Serif" font-size="10.00" fill="#000000">js_parse_statement</text>
<text text-anchor="middle" x="731" y="-121" font-family="Helvetica,sans-Serif" font-size="10.00" fill="#000000">_or_decl</text>
</a>
</g>
</g>
<!-- Node316925&#45;&gt;Node316929 -->
<g id="edge15" class="edge">
<title>Node316925&#45;&gt;Node316929</title>
<path fill="none" stroke="#191970" d="M221.7001,-86.3734C288.0799,-72.464 409.249,-52.7357 512,-67 575.7978,-75.8567 647.1381,-98.5704 690.5516,-113.9045"/>
<polygon fill="#191970" stroke="#191970" points="220.9677,-82.9508 211.9204,-88.4641 222.4312,-89.7961 220.9677,-82.9508"/>
</g>
<!-- Node316936 -->
<g id="node8" class="node">
<title>Node316936</title>
<g id="a_node8"><a xlink:href="quickjs_8c.html#a498e1d5c7de1b59c1630e9847cde1e41" target="_top" xlink:title="js_parse_export">
<polygon fill="none" stroke="#ff0000" points="262,-.5 262,-19.5 348,-19.5 348,-.5 262,-.5"/>
<text text-anchor="middle" x="305" y="-7.5" font-family="Helvetica,sans-Serif" font-size="10.00" fill="#000000">js_parse_export</text>
</a>
</g>
</g>
<!-- Node316925&#45;&gt;Node316936 -->
<g id="edge16" class="edge">
<title>Node316925&#45;&gt;Node316936</title>
<path fill="none" stroke="#191970" d="M189.177,-81.2213C204.09,-67.2928 226.7321,-47.6273 249,-34 258.1123,-28.4235 268.7511,-23.5115 278.2935,-19.6077"/>
<polygon fill="#191970" stroke="#191970" points="186.5736,-78.8671 181.7386,-88.2944 191.3973,-83.9399 186.5736,-78.8671"/>
</g>
<!-- Node316926&#45;&gt;Node316925 -->
<g id="edge3" class="edge">
<title>Node316926&#45;&gt;Node316925</title>
<path fill="none" stroke="#191970" d="M239.1094,-117.3643C223.1911,-114.3853 207.2261,-110.8818 194.8635,-107.5397"/>
<polygon fill="#191970" stroke="#191970" points="238.5197,-120.8143 248.9823,-119.1453 239.7624,-113.9255 238.5197,-120.8143"/>
</g>
<!-- Node316926&#45;&gt;Node316926 -->
<g id="edge12" class="edge">
<title>Node316926&#45;&gt;Node316926</title>
<path fill="none" stroke="#191970" d="M280.4465,-142.0292C281.7858,-147.128 289.9703,-151 305,-151 328.4609,-151 335.2426,-141.5653 325.345,-132.7571"/>
<polygon fill="#191970" stroke="#191970" points="283.709,-143.3096 284.655,-132.7571 277.3348,-140.4164 283.709,-143.3096"/>
</g>
<!-- Node316927 -->
<g id="node4" class="node">
<title>Node316927</title>
<g id="a_node4"><a xlink:href="quickjs_8c.html#a26be546cf89c4580ba9020e8fc43a759" target="_top" xlink:title="js_parse_destructuring\l_element">
<polygon fill="none" stroke="#ff0000" points="397,-133 397,-163 512,-163 512,-133 397,-133"/>
<text text-anchor="start" x="405" y="-151" font-family="Helvetica,sans-Serif" font-size="10.00" fill="#000000">js_parse_destructuring</text>
<text text-anchor="middle" x="454.5" y="-140" font-family="Helvetica,sans-Serif" font-size="10.00" fill="#000000">_element</text>
</a>
</g>
</g>
<!-- Node316926&#45;&gt;Node316927 -->
<g id="edge4" class="edge">
<title>Node316926&#45;&gt;Node316927</title>
<path fill="none" stroke="#191970" d="M371.2162,-127.3622C381.8792,-129.0468 392.7769,-130.956 403.0261,-132.942"/>
<polygon fill="#191970" stroke="#191970" points="371.5066,-123.8661 361.0936,-125.8206 370.4527,-130.7864 371.5066,-123.8661"/>
</g>
<!-- Node316931 -->
<g id="node5" class="node">
<title>Node316931</title>
<g id="a_node5"><a xlink:href="quickjs_8c.html#ac188b916dd086803591a67de7e7a85f6" target="_top" xlink:title="js_parse_for_in_of">
<polygon fill="none" stroke="#000000" points="548,-157.5 548,-176.5 644,-176.5 644,-157.5 548,-157.5"/>
<text text-anchor="middle" x="596" y="-164.5" font-family="Helvetica,sans-Serif" font-size="10.00" fill="#000000">js_parse_for_in_of</text>
</a>
</g>
</g>
<!-- Node316926&#45;&gt;Node316931 -->
<g id="edge11" class="edge">
<title>Node316926&#45;&gt;Node316931</title>
<path fill="none" stroke="#191970" d="M321.1519,-140.1014C338.1759,-156.7678 366.6846,-181.0125 397,-191 457.4842,-210.9267 533.1842,-190.1004 571.4387,-176.6026"/>
<polygon fill="#191970" stroke="#191970" points="323.2792,-137.2748 313.7596,-132.6242 318.3012,-142.1962 323.2792,-137.2748"/>
</g>
<!-- Node316948 -->
<g id="node7" class="node">
<title>Node316948</title>
<g id="a_node7"><a xlink:href="quickjs_8c.html#af99673e7430294cf15dc24dc5dac227f" target="_top" xlink:title="js_parse_unary">
<polygon fill="none" stroke="#ff0000" points="413,-76.5 413,-95.5 496,-95.5 496,-76.5 413,-76.5"/>
<text text-anchor="middle" x="454.5" y="-83.5" font-family="Helvetica,sans-Serif" font-size="10.00" fill="#000000">js_parse_unary</text>
</a>
</g>
</g>
<!-- Node316926&#45;&gt;Node316948 -->
<g id="edge13" class="edge">
<title>Node316926&#45;&gt;Node316948</title>
<path fill="none" stroke="#191970" d="M353.4605,-111.0064C373.6761,-106.0032 396.8315,-100.2725 415.871,-95.5604"/>
<polygon fill="#191970" stroke="#191970" points="352.3662,-107.6716 343.5,-113.4716 354.048,-114.4666 352.3662,-107.6716"/>
</g>
<!-- Node316927&#45;&gt;Node316926 -->
<g id="edge6" class="edge">
<title>Node316927&#45;&gt;Node316926</title>
<path fill="none" stroke="#191970" d="M386.888,-143.4162C366.9214,-140.2312 346.2692,-136.2841 330.7,-132.5397"/>
<polygon fill="#191970" stroke="#191970" points="386.5055,-146.8985 396.9216,-144.9606 387.5705,-139.98 386.5055,-146.8985"/>
</g>
<!-- Node316927&#45;&gt;Node316927 -->
<g id="edge5" class="edge">
<title>Node316927&#45;&gt;Node316927</title>
<path fill="none" stroke="#191970" d="M429.6237,-173.4579C432.7112,-178.179 441.0033,-181.5 454.5,-181.5 476.6484,-181.5 484.7811,-172.5566 478.8979,-163.159"/>
<polygon fill="#191970" stroke="#191970" points="433.1342,-173.3107 430.1021,-163.159 426.1418,-172.9858 433.1342,-173.3107"/>
</g>
<!-- Node316927&#45;&gt;Node316931 -->
<g id="edge7" class="edge">
<title>Node316927&#45;&gt;Node316931</title>
<path fill="none" stroke="#191970" d="M522.2162,-157.0926C530.9243,-158.2619 539.6939,-159.4395 547.9959,-160.5542"/>
<polygon fill="#191970" stroke="#191970" points="522.4303,-153.5901 512.0535,-155.728 521.4987,-160.5278 522.4303,-153.5901"/>
</g>
<!-- Node316927&#45;&gt;Node316929 -->
<g id="edge10" class="edge">
<title>Node316927&#45;&gt;Node316929</title>
<path fill="none" stroke="#191970" d="M522.2637,-143.3435C570.9617,-139.9972 635.5891,-135.5563 679.9603,-132.5073"/>
<polygon fill="#191970" stroke="#191970" points="521.8634,-139.8627 512.1269,-144.0401 522.3433,-146.8462 521.8634,-139.8627"/>
</g>
<!-- Node316931&#45;&gt;Node316929 -->
<g id="edge8" class="edge">
<title>Node316931&#45;&gt;Node316929</title>
<path fill="none" stroke="#191970" d="M639.9622,-154.6254C652.6945,-151.0415 666.7041,-147.0981 679.836,-143.4017"/>
<polygon fill="#191970" stroke="#191970" points="638.7438,-151.3323 630.0662,-157.411 640.6405,-158.0705 638.7438,-151.3323"/>
</g>
<!-- Node316929&#45;&gt;Node316929 -->
<g id="edge9" class="edge">
<title>Node316929&#45;&gt;Node316929</title>
<path fill="none" stroke="#191970" d="M707.1898,-154.4579C710.145,-159.179 718.0817,-162.5 731,-162.5 752.1992,-162.5 759.9833,-153.5566 754.3523,-144.159"/>
<polygon fill="#191970" stroke="#191970" points="710.7,-154.3046 707.6477,-144.159 703.7069,-153.9936 710.7,-154.3046"/>
</g>
<!-- Node316948&#45;&gt;Node316948 -->
<g id="edge14" class="edge">
<title>Node316948&#45;&gt;Node316948</title>
<path fill="none" stroke="#191970" d="M428.4584,-105.0292C429.8789,-110.128 438.5594,-114 454.5,-114 479.3828,-114 486.5755,-104.5653 476.0781,-95.7571"/>
<polygon fill="#191970" stroke="#191970" points="431.738,-106.2855 432.9219,-95.7571 425.4308,-103.2493 431.738,-106.2855"/>
</g>
</g>
</svg>
        <g id="navigator" transform="translate(0 0)" fill="#404254">
                <rect fill="#f2f5e9" fill-opacity="0.5" stroke="#606060" stroke-width=".5" x="0" y="0" width="60" height="60"/>
                <use id="zoomplus" xlink:href="#zoomPlus" x="17" y="9" onmousedown="handleZoom(evt,'in')"/>
                <use id="zoomminus" xlink:href="#zoomMin" x="42" y="9" onmousedown="handleZoom(evt,'out')"/>
                <use id="reset" xlink:href="#resetDef" x="30" y="36" onmousedown="handleReset()"/>
                <g id="arrowUp" xlink:href="#dirArrow" transform="translate(30 24)" onmousedown="handlePan(0,-1)">
                  <use xlink:href="#rim" fill="#404040">
                        <set attributeName="fill" to="#808080" begin="arrowUp.mouseover" end="arrowUp.mouseout"/>
                  </use>
                  <path fill="none" stroke="white" stroke-width="1.5" d="M0,-3.0v7 M-2.5,-0.5L0,-3.0L2.5,-0.5"/>
                </g>
                <g id="arrowRight" xlink:href="#dirArrow" transform="rotate(90) translate(36 -43)" onmousedown="handlePan(1,0)">
                  <use xlink:href="#rim" fill="#404040">
                        <set attributeName="fill" to="#808080" begin="arrowRight.mouseover" end="arrowRight.mouseout"/>
                  </use>
                  <path fill="none" stroke="white" stroke-width="1.5" d="M0,-3.0v7 M-2.5,-0.5L0,-3.0L2.5,-0.5"/>
                </g>
                <g id="arrowDown" xlink:href="#dirArrow" transform="rotate(180) translate(-30 -48)" onmousedown="handlePan(0,1)">
                  <use xlink:href="#rim" fill="#404040">
                        <set attributeName="fill" to="#808080" begin="arrowDown.mouseover" end="arrowDown.mouseout"/>
                  </use>
                  <path fill="none" stroke="white" stroke-width="1.5" d="M0,-3.0v7 M-2.5,-0.5L0,-3.0L2.5,-0.5"/>
                </g>
                <g id="arrowLeft" xlink:href="#dirArrow" transform="rotate(270) translate(-36 17)" onmousedown="handlePan(-1,0)">
                  <use xlink:href="#rim" fill="#404040">
                        <set attributeName="fill" to="#808080" begin="arrowLeft.mouseover" end="arrowLeft.mouseout"/>
                  </use>
                  <path fill="none" stroke="white" stroke-width="1.5" d="M0,-3.0v7 M-2.5,-0.5L0,-3.0L2.5,-0.5"/>
                </g>
        </g>
        <svg viewBox="0 0 15 15" width="100%" height="30px" preserveAspectRatio="xMaxYMin meet">
         <g id="arrow_out" transform="scale(0.3 0.3)">
          <a xlink:href="quickjs_8c_a9df30a86be1d9bcb432872ef6de0109c_icgraph_org.svg" target="_base">
           <rect id="button" ry="5" rx="5" y="6" x="6" height="38" width="38"
                fill="#f2f5e9" fill-opacity="0.5" stroke="#606060" stroke-width="1.0"/>
           <path id="arrow"
             d="M 11.500037,31.436501 C 11.940474,20.09759 22.043105,11.32322 32.158766,21.979434 L 37.068811,17.246167 C 37.068811,17.246167 37.088388,32 37.088388,32 L 22.160133,31.978069 C 22.160133,31.978069 26.997745,27.140456 26.997745,27.140456 C 18.528582,18.264221 13.291696,25.230495 11.500037,31.436501 z"
             style="fill:#404040;"/>
          </a>
         </g>
        </svg>
</svg>
