<?xml version="1.0" encoding="UTF-8" standalone="no"?>
<!DOCTYPE svg PUBLIC "-//W3C//DTD SVG 1.1//EN"
 "http://www.w3.org/Graphics/SVG/1.1/DTD/svg11.dtd">
<!-- Generated by graphviz version 2.40.1 (20161225.0304)
 -->
<!-- Title: js_parse_string Pages: 1 -->
<svg width="505pt" height="256pt"
 viewBox="0.00 0.00 505.00 256.00" xmlns="http://www.w3.org/2000/svg" xmlns:xlink="http://www.w3.org/1999/xlink">
<g id="graph0" class="graph" transform="scale(1 1) rotate(0) translate(4 252)">
<title>js_parse_string</title>
<!-- Node307951 -->
<g id="node1" class="node">
<title>Node307951</title>
<polygon fill="#bfbfbf" stroke="#000000" points="0,-95.5 0,-114.5 83,-114.5 83,-95.5 0,-95.5"/>
<text text-anchor="middle" x="41.5" y="-102.5" font-family="Helvetica,sans-Serif" font-size="10.00" fill="#000000">js_parse_string</text>
</g>
<!-- Node307952 -->
<g id="node2" class="node">
<title>Node307952</title>
<g id="a_node2"><a xlink:href="libregexp_8h.html#adca92c15688d39a0e06cd92f870d25d2" target="_top" xlink:title="lre_parse_escape">
<polygon fill="none" stroke="#000000" points="121,-190.5 121,-209.5 214,-209.5 214,-190.5 121,-190.5"/>
<text text-anchor="middle" x="167.5" y="-197.5" font-family="Helvetica,sans-Serif" font-size="10.00" fill="#000000">lre_parse_escape</text>
</a>
</g>
</g>
<!-- Node307951&#45;&gt;Node307952 -->
<g id="edge1" class="edge">
<title>Node307951&#45;&gt;Node307952</title>
<path fill="none" stroke="#191970" d="M49.1147,-114.6671C61.9969,-130.4635 89.5757,-161.9525 119,-181 121.9358,-182.9004 125.0913,-184.6603 128.3332,-186.2786"/>
<polygon fill="#191970" stroke="#191970" points="127.034,-189.5323 137.5878,-190.4641 129.9186,-183.1542 127.034,-189.5323"/>
</g>
<!-- Node307955 -->
<g id="node5" class="node">
<title>Node307955</title>
<g id="a_node5"><a xlink:href="quickjs_8c.html#accfc3d1dcaa88c88402cb245ccaf4fdb" target="_top" xlink:title="string_buffer_end">
<polygon fill="none" stroke="#000000" points="121.5,-152.5 121.5,-171.5 213.5,-171.5 213.5,-152.5 121.5,-152.5"/>
<text text-anchor="middle" x="167.5" y="-159.5" font-family="Helvetica,sans-Serif" font-size="10.00" fill="#000000">string_buffer_end</text>
</a>
</g>
</g>
<!-- Node307951&#45;&gt;Node307955 -->
<g id="edge4" class="edge">
<title>Node307951&#45;&gt;Node307955</title>
<path fill="none" stroke="#191970" d="M60.089,-114.6521C75.6628,-122.608 98.5639,-134.0052 119,-143 123.2109,-144.8534 127.6636,-146.7205 132.0956,-148.5227"/>
<polygon fill="#191970" stroke="#191970" points="131.078,-151.8848 141.6633,-152.3338 133.6684,-145.3817 131.078,-151.8848"/>
</g>
<!-- Node307968 -->
<g id="node9" class="node">
<title>Node307968</title>
<g id="a_node9"><a xlink:href="quickjs_8c.html#a266b4993a59d9e34537386e62b9f3d4f" target="_top" xlink:title="string_buffer_free">
<polygon fill="none" stroke="#000000" points="121.5,-114.5 121.5,-133.5 213.5,-133.5 213.5,-114.5 121.5,-114.5"/>
<text text-anchor="middle" x="167.5" y="-121.5" font-family="Helvetica,sans-Serif" font-size="10.00" fill="#000000">string_buffer_free</text>
</a>
</g>
</g>
<!-- Node307951&#45;&gt;Node307968 -->
<g id="edge8" class="edge">
<title>Node307951&#45;&gt;Node307968</title>
<path fill="none" stroke="#191970" d="M83.1063,-111.274C92.0553,-112.6234 101.6578,-114.0714 111.0631,-115.4897"/>
<polygon fill="#191970" stroke="#191970" points="110.741,-118.9806 121.1512,-117.0109 111.7849,-112.0589 110.741,-118.9806"/>
</g>
<!-- Node307971 -->
<g id="node10" class="node">
<title>Node307971</title>
<g id="a_node10"><a xlink:href="quickjs_8c.html#a9c11961b0adafedd064b294612d0c2f3" target="_top" xlink:title="string_buffer_init">
<polygon fill="none" stroke="#ff0000" points="123,-76.5 123,-95.5 212,-95.5 212,-76.5 123,-76.5"/>
<text text-anchor="middle" x="167.5" y="-83.5" font-family="Helvetica,sans-Serif" font-size="10.00" fill="#000000">string_buffer_init</text>
</a>
</g>
</g>
<!-- Node307951&#45;&gt;Node307971 -->
<g id="edge10" class="edge">
<title>Node307951&#45;&gt;Node307971</title>
<path fill="none" stroke="#191970" d="M83.1063,-98.726C92.5761,-97.298 102.7777,-95.7597 112.703,-94.263"/>
<polygon fill="#191970" stroke="#191970" points="113.5377,-97.6768 122.904,-92.7248 112.4938,-90.7551 113.5377,-97.6768"/>
</g>
<!-- Node307983 -->
<g id="node11" class="node">
<title>Node307983</title>
<g id="a_node11"><a xlink:href="quickjs_8c.html#a8d79794c85d33dd8409cdb39f2c2fc74" target="_top" xlink:title="string_buffer_putc">
<polygon fill="none" stroke="#000000" points="120,-38.5 120,-57.5 215,-57.5 215,-38.5 120,-38.5"/>
<text text-anchor="middle" x="167.5" y="-45.5" font-family="Helvetica,sans-Serif" font-size="10.00" fill="#000000">string_buffer_putc</text>
</a>
</g>
</g>
<!-- Node307951&#45;&gt;Node307983 -->
<g id="edge11" class="edge">
<title>Node307951&#45;&gt;Node307983</title>
<path fill="none" stroke="#191970" d="M60.089,-95.3479C75.6628,-87.392 98.5639,-75.9948 119,-67 123.2109,-65.1466 127.6636,-63.2795 132.0956,-61.4773"/>
<polygon fill="#191970" stroke="#191970" points="133.6684,-64.6183 141.6633,-57.6662 131.078,-58.1152 133.6684,-64.6183"/>
</g>
<!-- Node307982 -->
<g id="node13" class="node">
<title>Node307982</title>
<g id="a_node13"><a xlink:href="cutils_8h.html#a69529af6d6911dd0ead90eef221b2e10" target="_top" xlink:title="unicode_from_utf8">
<polygon fill="none" stroke="#000000" points="119,-.5 119,-19.5 216,-19.5 216,-.5 119,-.5"/>
<text text-anchor="middle" x="167.5" y="-7.5" font-family="Helvetica,sans-Serif" font-size="10.00" fill="#000000">unicode_from_utf8</text>
</a>
</g>
</g>
<!-- Node307951&#45;&gt;Node307982 -->
<g id="edge13" class="edge">
<title>Node307951&#45;&gt;Node307982</title>
<path fill="none" stroke="#191970" d="M49.1147,-95.3329C61.9969,-79.5365 89.5757,-48.0475 119,-29 121.9358,-27.0996 125.0913,-25.3397 128.3332,-23.7214"/>
<polygon fill="#191970" stroke="#191970" points="129.9186,-26.8458 137.5878,-19.5359 127.034,-20.4677 129.9186,-26.8458"/>
</g>
<!-- Node307953 -->
<g id="node3" class="node">
<title>Node307953</title>
<g id="a_node3"><a xlink:href="cutils_8h.html#a6dbaeca250de641ec4e4530808f69df8" target="_top" xlink:title="from_hex">
<polygon fill="none" stroke="#000000" points="276,-228.5 276,-247.5 333,-247.5 333,-228.5 276,-228.5"/>
<text text-anchor="middle" x="304.5" y="-235.5" font-family="Helvetica,sans-Serif" font-size="10.00" fill="#000000">from_hex</text>
</a>
</g>
</g>
<!-- Node307952&#45;&gt;Node307953 -->
<g id="edge2" class="edge">
<title>Node307952&#45;&gt;Node307953</title>
<path fill="none" stroke="#191970" d="M202.0709,-209.589C221.6005,-215.006 246.0527,-221.7883 266.1678,-227.3677"/>
<polygon fill="#191970" stroke="#191970" points="265.3754,-230.78 275.9471,-230.0802 267.2464,-224.0347 265.3754,-230.78"/>
</g>
<!-- Node307954 -->
<g id="node4" class="node">
<title>Node307954</title>
<g id="a_node4"><a xlink:href="libregexp_8c.html#ab3ca6381d29dea396b12acd7f755c51a" target="_top" xlink:title="is_digit">
<polygon fill="none" stroke="#000000" points="281,-190.5 281,-209.5 328,-209.5 328,-190.5 281,-190.5"/>
<text text-anchor="middle" x="304.5" y="-197.5" font-family="Helvetica,sans-Serif" font-size="10.00" fill="#000000">is_digit</text>
</a>
</g>
</g>
<!-- Node307952&#45;&gt;Node307954 -->
<g id="edge3" class="edge">
<title>Node307952&#45;&gt;Node307954</title>
<path fill="none" stroke="#191970" d="M214.2645,-200C232.8802,-200 253.8853,-200 270.9426,-200"/>
<polygon fill="#191970" stroke="#191970" points="270.9964,-203.5001 280.9963,-200 270.9963,-196.5001 270.9964,-203.5001"/>
</g>
<!-- Node307956 -->
<g id="node6" class="node">
<title>Node307956</title>
<g id="a_node6"><a xlink:href="quickjs_8c.html#a260bfa297ff6cb5bd18e229afaa54663" target="_top" xlink:title="JS_AtomToString">
<polygon fill="none" stroke="#000000" points="257.5,-152.5 257.5,-171.5 351.5,-171.5 351.5,-152.5 257.5,-152.5"/>
<text text-anchor="middle" x="304.5" y="-159.5" font-family="Helvetica,sans-Serif" font-size="10.00" fill="#000000">JS_AtomToString</text>
</a>
</g>
</g>
<!-- Node307955&#45;&gt;Node307956 -->
<g id="edge5" class="edge">
<title>Node307955&#45;&gt;Node307956</title>
<path fill="none" stroke="#191970" d="M213.5001,-162C224.3319,-162 236.0081,-162 247.2667,-162"/>
<polygon fill="#191970" stroke="#191970" points="247.4528,-165.5001 257.4527,-162 247.4527,-158.5001 247.4528,-165.5001"/>
</g>
<!-- Node307969 -->
<g id="node8" class="node">
<title>Node307969</title>
<g id="a_node8"><a xlink:href="quickjs_8c.html#a80e54dcf9ac687d4ccc2f90273565f30" target="_top" xlink:title="js_free">
<polygon fill="none" stroke="#ff0000" points="281.5,-114.5 281.5,-133.5 327.5,-133.5 327.5,-114.5 281.5,-114.5"/>
<text text-anchor="middle" x="304.5" y="-121.5" font-family="Helvetica,sans-Serif" font-size="10.00" fill="#000000">js_free</text>
</a>
</g>
</g>
<!-- Node307955&#45;&gt;Node307969 -->
<g id="edge7" class="edge">
<title>Node307955&#45;&gt;Node307969</title>
<path fill="none" stroke="#191970" d="M202.0709,-152.411C223.3246,-146.5158 250.4083,-139.0035 271.3873,-133.1845"/>
<polygon fill="#191970" stroke="#191970" points="272.4427,-136.524 281.1434,-130.4785 270.5717,-129.7787 272.4427,-136.524"/>
</g>
<!-- Node307957 -->
<g id="node7" class="node">
<title>Node307957</title>
<g id="a_node7"><a xlink:href="quickjs_8c.html#a06ff303a11e6641cbf1f6634e6a61811" target="_top" xlink:title="__JS_AtomToValue">
<polygon fill="none" stroke="#ff0000" points="393,-152.5 393,-171.5 497,-171.5 497,-152.5 393,-152.5"/>
<text text-anchor="middle" x="445" y="-159.5" font-family="Helvetica,sans-Serif" font-size="10.00" fill="#000000">__JS_AtomToValue</text>
</a>
</g>
</g>
<!-- Node307956&#45;&gt;Node307957 -->
<g id="edge6" class="edge">
<title>Node307956&#45;&gt;Node307957</title>
<path fill="none" stroke="#191970" d="M351.6753,-162C361.6005,-162 372.2169,-162 382.6016,-162"/>
<polygon fill="#191970" stroke="#191970" points="382.8749,-165.5001 392.8749,-162 382.8748,-158.5001 382.8749,-165.5001"/>
</g>
<!-- Node307968&#45;&gt;Node307969 -->
<g id="edge9" class="edge">
<title>Node307968&#45;&gt;Node307969</title>
<path fill="none" stroke="#191970" d="M213.5001,-124C232.426,-124 253.9297,-124 271.2799,-124"/>
<polygon fill="#191970" stroke="#191970" points="271.4861,-127.5001 281.486,-124 271.486,-120.5001 271.4861,-127.5001"/>
</g>
<!-- Node307973 -->
<g id="node12" class="node">
<title>Node307973</title>
<g id="a_node12"><a xlink:href="quickjs_8c.html#a9b8fb6b5ce638616691f7bf7881fa57d" target="_top" xlink:title="string_buffer_putc16">
<polygon fill="none" stroke="#ff0000" points="252,-38.5 252,-57.5 357,-57.5 357,-38.5 252,-38.5"/>
<text text-anchor="middle" x="304.5" y="-45.5" font-family="Helvetica,sans-Serif" font-size="10.00" fill="#000000">string_buffer_putc16</text>
</a>
</g>
</g>
<!-- Node307983&#45;&gt;Node307973 -->
<g id="edge12" class="edge">
<title>Node307983&#45;&gt;Node307973</title>
<path fill="none" stroke="#191970" d="M215.0315,-48C223.6787,-48 232.8193,-48 241.8247,-48"/>
<polygon fill="#191970" stroke="#191970" points="241.9011,-51.5001 251.9011,-48 241.9011,-44.5001 241.9011,-51.5001"/>
</g>
</g>
</svg>
