<?xml version="1.0" encoding="UTF-8" standalone="no"?>
<!DOCTYPE svg PUBLIC "-//W3C//DTD SVG 1.1//EN"
 "http://www.w3.org/Graphics/SVG/1.1/DTD/svg11.dtd">
<!-- Generated by graphviz version 2.40.1 (20161225.0304)
 -->
<!-- Title: JS_GetPropertyUint32 Pages: 1 -->
<svg width="793pt" height="286pt"
 viewBox="0.00 0.00 793.00 286.45" xmlns="http://www.w3.org/2000/svg" xmlns:xlink="http://www.w3.org/1999/xlink">
<g id="graph0" class="graph" transform="scale(1 1) rotate(0) translate(4 282.4465)">
<title>JS_GetPropertyUint32</title>
<!-- Node57404 -->
<g id="node1" class="node">
<title>Node57404</title>
<polygon fill="#bfbfbf" stroke="#000000" points="0,-163.9465 0,-182.9465 115,-182.9465 115,-163.9465 0,-163.9465"/>
<text text-anchor="middle" x="57.5" y="-170.9465" font-family="Helvetica,sans-Serif" font-size="10.00" fill="#000000">JS_GetPropertyUint32</text>
</g>
<!-- Node57405 -->
<g id="node2" class="node">
<title>Node57405</title>
<g id="a_node2"><a xlink:href="quickjs_8c.html#a90d6e607f6917d817c1e997bd2e6ed07" target="_top" xlink:title="JS_GetPropertyValue">
<polygon fill="none" stroke="#000000" points="151,-144.9465 151,-163.9465 262,-163.9465 262,-144.9465 151,-144.9465"/>
<text text-anchor="middle" x="206.5" y="-151.9465" font-family="Helvetica,sans-Serif" font-size="10.00" fill="#000000">JS_GetPropertyValue</text>
</a>
</g>
</g>
<!-- Node57404&#45;&gt;Node57405 -->
<g id="edge1" class="edge">
<title>Node57404&#45;&gt;Node57405</title>
<path fill="none" stroke="#191970" d="M115.1073,-166.1006C123.3745,-165.0464 131.9347,-163.9548 140.3509,-162.8816"/>
<polygon fill="#191970" stroke="#191970" points="141.0392,-166.3223 150.5161,-161.5854 140.1537,-159.3785 141.0392,-166.3223"/>
</g>
<!-- Node57529 -->
<g id="node13" class="node">
<title>Node57529</title>
<g id="a_node13"><a xlink:href="quickjs_8h.html#a88259aa0da61ac754402c64ccecee116" target="_top" xlink:title="JS_NewUint32">
<polygon fill="none" stroke="#000000" points="303,-258.9465 303,-277.9465 386,-277.9465 386,-258.9465 303,-258.9465"/>
<text text-anchor="middle" x="344.5" y="-265.9465" font-family="Helvetica,sans-Serif" font-size="10.00" fill="#000000">JS_NewUint32</text>
</a>
</g>
</g>
<!-- Node57404&#45;&gt;Node57529 -->
<g id="edge19" class="edge">
<title>Node57404&#45;&gt;Node57529</title>
<path fill="none" stroke="#191970" d="M86.3327,-182.9904C138.3352,-200.2038 247.8294,-236.4475 306.1074,-255.7382"/>
<polygon fill="#191970" stroke="#191970" points="305.0932,-259.0891 315.6865,-258.9089 307.2929,-252.4437 305.0932,-259.0891"/>
</g>
<!-- Node57406 -->
<g id="node3" class="node">
<title>Node57406</title>
<g id="a_node3"><a xlink:href="quickjs_8h.html#a9bf98b18de88b4199910a43e933eb97d" target="_top" xlink:title="__JS_NewFloat64">
<polygon fill="none" stroke="#000000" points="438,-220.9465 438,-239.9465 535,-239.9465 535,-220.9465 438,-220.9465"/>
<text text-anchor="middle" x="486.5" y="-227.9465" font-family="Helvetica,sans-Serif" font-size="10.00" fill="#000000">__JS_NewFloat64</text>
</a>
</g>
</g>
<!-- Node57405&#45;&gt;Node57406 -->
<g id="edge2" class="edge">
<title>Node57405&#45;&gt;Node57406</title>
<path fill="none" stroke="#191970" d="M219.6612,-164.1486C236.7685,-176.2182 268.0121,-196.4517 298,-206.4465 339.9103,-220.4149 389.5525,-226.3368 427.3701,-228.8082"/>
<polygon fill="#191970" stroke="#191970" points="427.5182,-232.323 437.7068,-229.4176 427.9302,-225.3351 427.5182,-232.323"/>
</g>
<!-- Node57407 -->
<g id="node4" class="node">
<title>Node57407</title>
<g id="a_node4"><a xlink:href="quickjs_8h.html#a775522f2d084fc8fa0fcb33f390006b4" target="_top" xlink:title="JS_DupValue">
<polygon fill="none" stroke="#000000" points="582.5,-11.9465 582.5,-30.9465 659.5,-30.9465 659.5,-11.9465 582.5,-11.9465"/>
<text text-anchor="middle" x="621" y="-18.9465" font-family="Helvetica,sans-Serif" font-size="10.00" fill="#000000">JS_DupValue</text>
</a>
</g>
</g>
<!-- Node57405&#45;&gt;Node57407 -->
<g id="edge3" class="edge">
<title>Node57405&#45;&gt;Node57407</title>
<path fill="none" stroke="#191970" d="M210.2462,-144.923C220.2469,-120.9762 250.1163,-58.3897 298,-33.4465 385.749,12.263 505.8446,.701 572.1052,-10.9251"/>
<polygon fill="#191970" stroke="#191970" points="571.7977,-14.4269 582.2642,-12.7828 573.0569,-7.541 571.7977,-14.4269"/>
</g>
<!-- Node57408 -->
<g id="node5" class="node">
<title>Node57408</title>
<g id="a_node5"><a xlink:href="quickjs_8c.html#ab7fc45a99935a1c0ba50b0216d9401a9" target="_top" xlink:title="JS_FreeAtom">
<polygon fill="none" stroke="#000000" points="306,-144.9465 306,-163.9465 383,-163.9465 383,-144.9465 306,-144.9465"/>
<text text-anchor="middle" x="344.5" y="-151.9465" font-family="Helvetica,sans-Serif" font-size="10.00" fill="#000000">JS_FreeAtom</text>
</a>
</g>
</g>
<!-- Node57405&#45;&gt;Node57408 -->
<g id="edge4" class="edge">
<title>Node57405&#45;&gt;Node57408</title>
<path fill="none" stroke="#191970" d="M262.2321,-154.4465C273.343,-154.4465 284.9308,-154.4465 295.7838,-154.4465"/>
<polygon fill="#191970" stroke="#191970" points="295.9246,-157.9466 305.9246,-154.4465 295.9245,-150.9466 295.9246,-157.9466"/>
</g>
<!-- Node57414 -->
<g id="node8" class="node">
<title>Node57414</title>
<g id="a_node8"><a xlink:href="quickjs_8h.html#afaa20c47565bc704c6c85f3d77254e7d" target="_top" xlink:title="JS_FreeValue">
<polygon fill="none" stroke="#000000" points="582,-49.9465 582,-68.9465 660,-68.9465 660,-49.9465 582,-49.9465"/>
<text text-anchor="middle" x="621" y="-56.9465" font-family="Helvetica,sans-Serif" font-size="10.00" fill="#000000">JS_FreeValue</text>
</a>
</g>
</g>
<!-- Node57405&#45;&gt;Node57414 -->
<g id="edge7" class="edge">
<title>Node57405&#45;&gt;Node57414</title>
<path fill="none" stroke="#191970" d="M212.0368,-144.7592C224.3579,-124.3159 256.2758,-77.1897 298,-59.4465 388.3749,-21.0147 506.2618,-35.1657 571.7231,-47.9412"/>
<polygon fill="#191970" stroke="#191970" points="571.2716,-51.4207 581.7669,-49.9715 572.6587,-44.5595 571.2716,-51.4207"/>
</g>
<!-- Node57445 -->
<g id="node10" class="node">
<title>Node57445</title>
<g id="a_node10"><a xlink:href="quickjs_8h.html#a89b7c8686c7eee70b86be722ee4730ad" target="_top" xlink:title="JS_GetProperty">
<polygon fill="none" stroke="#000000" points="301.5,-68.9465 301.5,-87.9465 387.5,-87.9465 387.5,-68.9465 301.5,-68.9465"/>
<text text-anchor="middle" x="344.5" y="-75.9465" font-family="Helvetica,sans-Serif" font-size="10.00" fill="#000000">JS_GetProperty</text>
</a>
</g>
</g>
<!-- Node57405&#45;&gt;Node57445 -->
<g id="edge9" class="edge">
<title>Node57405&#45;&gt;Node57445</title>
<path fill="none" stroke="#191970" d="M220.331,-144.7952C237.8849,-132.7918 269.3364,-112.0974 298,-97.4465 301.5672,-95.6232 305.3514,-93.8425 309.16,-92.1478"/>
<polygon fill="#191970" stroke="#191970" points="310.7413,-95.2785 318.5674,-88.1369 307.9959,-88.8393 310.7413,-95.2785"/>
</g>
<!-- Node57454 -->
<g id="node12" class="node">
<title>Node57454</title>
<g id="a_node12"><a xlink:href="quickjs_8h.html#a2050bc428da1c65ac7eb87c3fa3b0392" target="_top" xlink:title="JS_NewInt32">
<polygon fill="none" stroke="#000000" points="583,-182.9465 583,-201.9465 659,-201.9465 659,-182.9465 583,-182.9465"/>
<text text-anchor="middle" x="621" y="-189.9465" font-family="Helvetica,sans-Serif" font-size="10.00" fill="#000000">JS_NewInt32</text>
</a>
</g>
</g>
<!-- Node57405&#45;&gt;Node57454 -->
<g id="edge14" class="edge">
<title>Node57405&#45;&gt;Node57454</title>
<path fill="none" stroke="#191970" d="M246.3692,-164.0447C262.3336,-167.5415 280.9513,-171.1873 298,-173.4465 394.7961,-186.2735 509.0586,-190.4412 572.4417,-191.7952"/>
<polygon fill="#191970" stroke="#191970" points="572.4748,-195.2965 582.5425,-191.9962 572.6141,-188.2978 572.4748,-195.2965"/>
</g>
<!-- Node57405&#45;&gt;Node57529 -->
<g id="edge15" class="edge">
<title>Node57405&#45;&gt;Node57529</title>
<path fill="none" stroke="#191970" d="M214.5347,-164.0786C229.5624,-181.6709 263.5314,-219.4835 298,-244.4465 302.6906,-247.8436 307.9287,-251.0371 313.1506,-253.9177"/>
<polygon fill="#191970" stroke="#191970" points="311.9252,-257.2257 322.4111,-258.7413 315.159,-251.0174 311.9252,-257.2257"/>
</g>
<!-- Node57637 -->
<g id="node14" class="node">
<title>Node57637</title>
<g id="a_node14"><a xlink:href="quickjs_8c.html#a859d5c989a2aaecef1653b3ac279e108" target="_top" xlink:title="JS_ValueToAtom">
<polygon fill="none" stroke="#ff0000" points="298,-106.9465 298,-125.9465 391,-125.9465 391,-106.9465 298,-106.9465"/>
<text text-anchor="middle" x="344.5" y="-113.9465" font-family="Helvetica,sans-Serif" font-size="10.00" fill="#000000">JS_ValueToAtom</text>
</a>
</g>
</g>
<!-- Node57405&#45;&gt;Node57637 -->
<g id="edge18" class="edge">
<title>Node57405&#45;&gt;Node57637</title>
<path fill="none" stroke="#191970" d="M241.3232,-144.8575C259.1377,-139.9521 281.0184,-133.9269 300.0389,-128.6894"/>
<polygon fill="#191970" stroke="#191970" points="300.976,-132.0617 309.6879,-126.0325 299.1175,-125.3129 300.976,-132.0617"/>
</g>
<!-- Node57409 -->
<g id="node6" class="node">
<title>Node57409</title>
<g id="a_node6"><a xlink:href="quickjs_8c.html#a7f6796ee7a195631366f57c713a33f65" target="_top" xlink:title="__JS_AtomIsConst">
<polygon fill="none" stroke="#000000" points="435.5,-106.9465 435.5,-125.9465 537.5,-125.9465 537.5,-106.9465 435.5,-106.9465"/>
<text text-anchor="middle" x="486.5" y="-113.9465" font-family="Helvetica,sans-Serif" font-size="10.00" fill="#000000">__JS_AtomIsConst</text>
</a>
</g>
</g>
<!-- Node57408&#45;&gt;Node57409 -->
<g id="edge5" class="edge">
<title>Node57408&#45;&gt;Node57409</title>
<path fill="none" stroke="#191970" d="M380.3326,-144.8575C398.6634,-139.9521 421.1784,-133.9269 440.7501,-128.6894"/>
<polygon fill="#191970" stroke="#191970" points="441.9236,-131.9987 450.6789,-126.0325 440.114,-125.2366 441.9236,-131.9987"/>
</g>
<!-- Node57410 -->
<g id="node7" class="node">
<title>Node57410</title>
<g id="a_node7"><a xlink:href="quickjs_8c.html#a0bbd9e3ecd55e3ea6c9d44bfda382095" target="_top" xlink:title="__JS_FreeAtom">
<polygon fill="none" stroke="#ff0000" points="443,-144.9465 443,-163.9465 530,-163.9465 530,-144.9465 443,-144.9465"/>
<text text-anchor="middle" x="486.5" y="-151.9465" font-family="Helvetica,sans-Serif" font-size="10.00" fill="#000000">__JS_FreeAtom</text>
</a>
</g>
</g>
<!-- Node57408&#45;&gt;Node57410 -->
<g id="edge6" class="edge">
<title>Node57408&#45;&gt;Node57410</title>
<path fill="none" stroke="#191970" d="M383.3021,-154.4465C398.6027,-154.4465 416.4343,-154.4465 432.9283,-154.4465"/>
<polygon fill="#191970" stroke="#191970" points="432.9908,-157.9466 442.9908,-154.4465 432.9907,-150.9466 432.9908,-157.9466"/>
</g>
<!-- Node57415 -->
<g id="node9" class="node">
<title>Node57415</title>
<g id="a_node9"><a xlink:href="quickjs_8c.html#aa059f309c30fd5166d16c82a97973146" target="_top" xlink:title="__JS_FreeValue">
<polygon fill="none" stroke="#ff0000" points="696,-49.9465 696,-68.9465 785,-68.9465 785,-49.9465 696,-49.9465"/>
<text text-anchor="middle" x="740.5" y="-56.9465" font-family="Helvetica,sans-Serif" font-size="10.00" fill="#000000">__JS_FreeValue</text>
</a>
</g>
</g>
<!-- Node57414&#45;&gt;Node57415 -->
<g id="edge8" class="edge">
<title>Node57414&#45;&gt;Node57415</title>
<path fill="none" stroke="#191970" d="M660.1288,-59.4465C668.3481,-59.4465 677.1608,-59.4465 685.8298,-59.4465"/>
<polygon fill="#191970" stroke="#191970" points="685.8964,-62.9466 695.8964,-59.4465 685.8964,-55.9466 685.8964,-62.9466"/>
</g>
<!-- Node57446 -->
<g id="node11" class="node">
<title>Node57446</title>
<g id="a_node11"><a xlink:href="quickjs_8c.html#a5762c57ae0c9937e986040c01222833a" target="_top" xlink:title="JS_GetPropertyInternal">
<polygon fill="none" stroke="#ff0000" points="427,-68.9465 427,-87.9465 546,-87.9465 546,-68.9465 427,-68.9465"/>
<text text-anchor="middle" x="486.5" y="-75.9465" font-family="Helvetica,sans-Serif" font-size="10.00" fill="#000000">JS_GetPropertyInternal</text>
</a>
</g>
</g>
<!-- Node57445&#45;&gt;Node57446 -->
<g id="edge10" class="edge">
<title>Node57445&#45;&gt;Node57446</title>
<path fill="none" stroke="#191970" d="M387.8763,-78.4465C397.0169,-78.4465 406.8812,-78.4465 416.7145,-78.4465"/>
<polygon fill="#191970" stroke="#191970" points="416.9189,-81.9466 426.9189,-78.4465 416.9189,-74.9466 416.9189,-81.9466"/>
</g>
<!-- Node57446&#45;&gt;Node57407 -->
<g id="edge11" class="edge">
<title>Node57446&#45;&gt;Node57407</title>
<path fill="none" stroke="#191970" d="M509.0123,-68.906C530.9307,-59.6172 564.4529,-45.4107 589.1111,-34.9608"/>
<polygon fill="#191970" stroke="#191970" points="590.5727,-38.1428 598.4143,-31.0182 587.8412,-31.6976 590.5727,-38.1428"/>
</g>
<!-- Node57446&#45;&gt;Node57414 -->
<g id="edge12" class="edge">
<title>Node57446&#45;&gt;Node57414</title>
<path fill="none" stroke="#191970" d="M546.2769,-70.0022C554.8561,-68.7903 563.5996,-67.5551 571.9395,-66.377"/>
<polygon fill="#191970" stroke="#191970" points="572.4619,-69.838 581.874,-64.9736 571.4827,-62.9069 572.4619,-69.838"/>
</g>
<!-- Node57446&#45;&gt;Node57454 -->
<g id="edge13" class="edge">
<title>Node57446&#45;&gt;Node57454</title>
<path fill="none" stroke="#191970" d="M527.6989,-88.0475C534.1336,-90.5298 540.4733,-93.6182 546,-97.4465 575.2106,-117.6803 598.5557,-152.6345 611.0387,-174.0332"/>
<polygon fill="#191970" stroke="#191970" points="608.0288,-175.8211 615.9919,-182.8097 614.1249,-172.3806 608.0288,-175.8211"/>
</g>
<!-- Node57529&#45;&gt;Node57406 -->
<g id="edge16" class="edge">
<title>Node57529&#45;&gt;Node57406</title>
<path fill="none" stroke="#191970" d="M380.3326,-258.8575C398.6634,-253.9521 421.1784,-247.9269 440.7501,-242.6894"/>
<polygon fill="#191970" stroke="#191970" points="441.9236,-245.9987 450.6789,-240.0325 440.114,-239.2366 441.9236,-245.9987"/>
</g>
<!-- Node57529&#45;&gt;Node57454 -->
<g id="edge17" class="edge">
<title>Node57529&#45;&gt;Node57454</title>
<path fill="none" stroke="#191970" d="M386.1596,-271.0545C428.0068,-272.1924 493.6237,-269.8785 546,-249.4465 568.671,-240.6026 590.3253,-222.7828 604.4857,-209.4091"/>
<polygon fill="#191970" stroke="#191970" points="607.206,-211.6444 611.9082,-202.1502 602.3116,-206.6398 607.206,-211.6444"/>
</g>
</g>
</svg>
