<?xml version="1.0" encoding="UTF-8" standalone="no"?>
<!DOCTYPE svg PUBLIC "-//W3C//DTD SVG 1.1//EN"
 "http://www.w3.org/Graphics/SVG/1.1/DTD/svg11.dtd">
<!-- Generated by graphviz version 2.40.1 (20161225.0304)
 -->
<!-- Title: JS_AddModuleExportList Pages: 1 -->
<!--zoomable 256 -->
<svg id="main" version="1.1" xmlns="http://www.w3.org/2000/svg" xmlns:xlink="http://www.w3.org/1999/xlink" xml:space="preserve" onload="init(evt)">
<style type="text/css"><![CDATA[
.edge:hover path { stroke: red; }
.edge:hover polygon { stroke: red; fill: red; }
]]></style>
<script type="text/javascript"><![CDATA[
var edges = document.getElementsByTagName('g');
if (edges && edges.length) {
  for (var i=0;i<edges.length;i++) {
    if (edges[i].id.substr(0,4)=='edge') {
      edges[i].setAttribute('class','edge');
    }
  }
}
]]></script>
        <defs>
                <circle id="rim" cx="0" cy="0" r="7"/>
                <circle id="rim2" cx="0" cy="0" r="3.5"/>
                <g id="zoomPlus">
                        <use xlink:href="#rim" fill="#404040">
                                <set attributeName="fill" to="#808080" begin="zoomplus.mouseover" end="zoomplus.mouseout"/>
                        </use>
                        <path d="M-4,0h8M0,-4v8" fill="none" stroke="white" stroke-width="1.5" pointer-events="none"/>
                </g>
                <g id="zoomMin">
                        <use xlink:href="#rim" fill="#404040">
                                <set attributeName="fill" to="#808080" begin="zoomminus.mouseover" end="zoomminus.mouseout"/>
                        </use>
                        <path d="M-4,0h8" fill="none" stroke="white" stroke-width="1.5" pointer-events="none"/>
                </g>
                <g id="dirArrow">
                        <path fill="none" stroke="white" stroke-width="1.5" d="M0,-3.0v7 M-2.5,-0.5L0,-3.0L2.5,-0.5"/>
                </g>
               <g id="resetDef">
                       <use xlink:href="#rim2" fill="#404040">
                               <set attributeName="fill" to="#808080" begin="reset.mouseover" end="reset.mouseout"/>
                       </use>
               </g>
        </defs>

<script type="text/javascript">
var viewWidth = 682;
var viewHeight = 256;
var sectionId = 'dynsection-1367';
</script>
<script xlink:href="svgpan.js"/>
<svg id="graph" class="graph">
<g id="viewport">
<title>JS_AddModuleExportList</title>
<!-- Node365285 -->
<g id="node1" class="node">
<title>Node365285</title>
<polygon fill="#bfbfbf" stroke="#000000" points="0,-67.5 0,-86.5 127,-86.5 127,-67.5 0,-67.5"/>
<text text-anchor="middle" x="63.5" y="-74.5" font-family="Helvetica,sans-Serif" font-size="10.00" fill="#000000">JS_AddModuleExportList</text>
</g>
<!-- Node365286 -->
<g id="node2" class="node">
<title>Node365286</title>
<g id="a_node2"><a xlink:href="quickjs_8c.html#a369af749a1fb181216fe8a8b55f841b0" target="_top" xlink:title="JS_AddModuleExport">
<polygon fill="none" stroke="#000000" points="163,-67.5 163,-86.5 274,-86.5 274,-67.5 163,-67.5"/>
<text text-anchor="middle" x="218.5" y="-74.5" font-family="Helvetica,sans-Serif" font-size="10.00" fill="#000000">JS_AddModuleExport</text>
</a>
</g>
</g>
<!-- Node365285&#45;&gt;Node365286 -->
<g id="edge1" class="edge">
<title>Node365285&#45;&gt;Node365286</title>
<path fill="none" stroke="#191970" d="M127.4393,-77C135.7394,-77 144.2536,-77 152.5851,-77"/>
<polygon fill="#191970" stroke="#191970" points="152.6305,-80.5001 162.6304,-77 152.6304,-73.5001 152.6305,-80.5001"/>
</g>
<!-- Node365287 -->
<g id="node3" class="node">
<title>Node365287</title>
<g id="a_node3"><a xlink:href="quickjs_8c.html#aaea4bacf94d0db93f4a13f6e88860ad0" target="_top" xlink:title="add_export_entry2">
<polygon fill="none" stroke="#000000" points="310,-152.5 310,-171.5 407,-171.5 407,-152.5 310,-152.5"/>
<text text-anchor="middle" x="358.5" y="-159.5" font-family="Helvetica,sans-Serif" font-size="10.00" fill="#000000">add_export_entry2</text>
</a>
</g>
</g>
<!-- Node365286&#45;&gt;Node365287 -->
<g id="edge2" class="edge">
<title>Node365286&#45;&gt;Node365287</title>
<path fill="none" stroke="#191970" d="M234.2876,-86.5854C258.5499,-101.316 305.2007,-129.6397 333.9141,-147.0729"/>
<polygon fill="#191970" stroke="#191970" points="332.1909,-150.1212 342.5553,-152.3193 335.8238,-144.1377 332.1909,-150.1212"/>
</g>
<!-- Node365298 -->
<g id="node9" class="node">
<title>Node365298</title>
<g id="a_node9"><a xlink:href="quickjs_8c.html#ab7fc45a99935a1c0ba50b0216d9401a9" target="_top" xlink:title="JS_FreeAtom">
<polygon fill="none" stroke="#000000" points="320,-67.5 320,-86.5 397,-86.5 397,-67.5 320,-67.5"/>
<text text-anchor="middle" x="358.5" y="-74.5" font-family="Helvetica,sans-Serif" font-size="10.00" fill="#000000">JS_FreeAtom</text>
</a>
</g>
</g>
<!-- Node365286&#45;&gt;Node365298 -->
<g id="edge8" class="edge">
<title>Node365286&#45;&gt;Node365298</title>
<path fill="none" stroke="#191970" d="M274.234,-77C285.9102,-77 298.1395,-77 309.5466,-77"/>
<polygon fill="#191970" stroke="#191970" points="309.752,-80.5001 319.752,-77 309.7519,-73.5001 309.752,-80.5001"/>
</g>
<!-- Node365303 -->
<g id="node11" class="node">
<title>Node365303</title>
<g id="a_node11"><a xlink:href="quickjs_8c.html#aa2ef5af1544a3012f91a80c98c326b8f" target="_top" xlink:title="JS_NewAtom">
<polygon fill="none" stroke="#000000" points="320,-10.5 320,-29.5 397,-29.5 397,-10.5 320,-10.5"/>
<text text-anchor="middle" x="358.5" y="-17.5" font-family="Helvetica,sans-Serif" font-size="10.00" fill="#000000">JS_NewAtom</text>
</a>
</g>
</g>
<!-- Node365286&#45;&gt;Node365303 -->
<g id="edge11" class="edge">
<title>Node365286&#45;&gt;Node365303</title>
<path fill="none" stroke="#191970" d="M241.9329,-67.4595C264.8485,-58.1295 299.9496,-43.8384 325.6472,-33.3758"/>
<polygon fill="#191970" stroke="#191970" points="327.0487,-36.5842 334.9907,-29.5716 324.4091,-30.1009 327.0487,-36.5842"/>
</g>
<!-- Node365288 -->
<g id="node4" class="node">
<title>Node365288</title>
<g id="a_node4"><a xlink:href="quickjs_8c.html#af5a10beab08419072e00fedfe4e467af" target="_top" xlink:title="find_export_entry">
<polygon fill="none" stroke="#000000" points="443.5,-228.5 443.5,-247.5 535.5,-247.5 535.5,-228.5 443.5,-228.5"/>
<text text-anchor="middle" x="489.5" y="-235.5" font-family="Helvetica,sans-Serif" font-size="10.00" fill="#000000">find_export_entry</text>
</a>
</g>
</g>
<!-- Node365287&#45;&gt;Node365288 -->
<g id="edge3" class="edge">
<title>Node365287&#45;&gt;Node365288</title>
<path fill="none" stroke="#191970" d="M370.8725,-171.5407C386.9016,-183.615 415.9982,-204.5742 443,-219 446.5335,-220.8878 450.2961,-222.7098 454.0919,-224.429"/>
<polygon fill="#191970" stroke="#191970" points="452.9148,-227.7327 463.484,-228.4692 455.681,-221.3024 452.9148,-227.7327"/>
</g>
<!-- Node365289 -->
<g id="node5" class="node">
<title>Node365289</title>
<g id="a_node5"><a xlink:href="quickjs_8c.html#ab18048ab5eea3e47109a5473f78515bc" target="_top" xlink:title="JS_AtomGetStr">
<polygon fill="none" stroke="#ff0000" points="446.5,-190.5 446.5,-209.5 532.5,-209.5 532.5,-190.5 446.5,-190.5"/>
<text text-anchor="middle" x="489.5" y="-197.5" font-family="Helvetica,sans-Serif" font-size="10.00" fill="#000000">JS_AtomGetStr</text>
</a>
</g>
</g>
<!-- Node365287&#45;&gt;Node365289 -->
<g id="edge4" class="edge">
<title>Node365287&#45;&gt;Node365289</title>
<path fill="none" stroke="#191970" d="M391.5568,-171.589C408.3125,-176.4494 428.8577,-182.4091 446.7965,-187.6127"/>
<polygon fill="#191970" stroke="#191970" points="445.8745,-190.9895 456.4537,-190.4141 447.8247,-184.2666 445.8745,-190.9895"/>
</g>
<!-- Node365295 -->
<g id="node6" class="node">
<title>Node365295</title>
<g id="a_node6"><a xlink:href="quickjs_8c.html#abbf44eaeace1104a6bef718fbf5700fe" target="_top" xlink:title="JS_DupAtom">
<polygon fill="none" stroke="#000000" points="452,-152.5 452,-171.5 527,-171.5 527,-152.5 452,-152.5"/>
<text text-anchor="middle" x="489.5" y="-159.5" font-family="Helvetica,sans-Serif" font-size="10.00" fill="#000000">JS_DupAtom</text>
</a>
</g>
</g>
<!-- Node365287&#45;&gt;Node365295 -->
<g id="edge5" class="edge">
<title>Node365287&#45;&gt;Node365295</title>
<path fill="none" stroke="#191970" d="M407.2796,-162C418.5299,-162 430.4856,-162 441.694,-162"/>
<polygon fill="#191970" stroke="#191970" points="441.7358,-165.5001 451.7357,-162 441.7357,-158.5001 441.7358,-165.5001"/>
</g>
<!-- Node365297 -->
<g id="node8" class="node">
<title>Node365297</title>
<g id="a_node8"><a xlink:href="quickjs_8c.html#afa610f3175e9cb11fdceac95071099b5" target="_top" xlink:title="js_resize_array">
<polygon fill="none" stroke="#000000" points="448,-114.5 448,-133.5 531,-133.5 531,-114.5 448,-114.5"/>
<text text-anchor="middle" x="489.5" y="-121.5" font-family="Helvetica,sans-Serif" font-size="10.00" fill="#000000">js_resize_array</text>
</a>
</g>
</g>
<!-- Node365287&#45;&gt;Node365297 -->
<g id="edge7" class="edge">
<title>Node365287&#45;&gt;Node365297</title>
<path fill="none" stroke="#191970" d="M391.5568,-152.411C408.3125,-147.5506 428.8577,-141.5909 446.7965,-136.3873"/>
<polygon fill="#191970" stroke="#191970" points="447.8247,-139.7334 456.4537,-133.5859 445.8745,-133.0105 447.8247,-139.7334"/>
</g>
<!-- Node365296 -->
<g id="node7" class="node">
<title>Node365296</title>
<g id="a_node7"><a xlink:href="quickjs_8c.html#a7f6796ee7a195631366f57c713a33f65" target="_top" xlink:title="__JS_AtomIsConst">
<polygon fill="none" stroke="#000000" points="572,-114.5 572,-133.5 674,-133.5 674,-114.5 572,-114.5"/>
<text text-anchor="middle" x="623" y="-121.5" font-family="Helvetica,sans-Serif" font-size="10.00" fill="#000000">__JS_AtomIsConst</text>
</a>
</g>
</g>
<!-- Node365295&#45;&gt;Node365296 -->
<g id="edge6" class="edge">
<title>Node365295&#45;&gt;Node365296</title>
<path fill="none" stroke="#191970" d="M523.1877,-152.411C540.2632,-147.5506 561.2004,-141.5909 579.4816,-136.3873"/>
<polygon fill="#191970" stroke="#191970" points="580.6634,-139.69 589.3231,-133.5859 578.7469,-132.9574 580.6634,-139.69"/>
</g>
<!-- Node365298&#45;&gt;Node365296 -->
<g id="edge9" class="edge">
<title>Node365298&#45;&gt;Node365296</title>
<path fill="none" stroke="#191970" d="M397.0454,-82.4157C433.0755,-87.6352 488.323,-96.0414 536,-105 547.5168,-107.164 559.8405,-109.7122 571.4838,-112.2274"/>
<polygon fill="#191970" stroke="#191970" points="570.9863,-115.7012 581.5032,-114.4187 572.4819,-108.8629 570.9863,-115.7012"/>
</g>
<!-- Node365299 -->
<g id="node10" class="node">
<title>Node365299</title>
<g id="a_node10"><a xlink:href="quickjs_8c.html#a0bbd9e3ecd55e3ea6c9d44bfda382095" target="_top" xlink:title="__JS_FreeAtom">
<polygon fill="none" stroke="#ff0000" points="446,-38.5 446,-57.5 533,-57.5 533,-38.5 446,-38.5"/>
<text text-anchor="middle" x="489.5" y="-45.5" font-family="Helvetica,sans-Serif" font-size="10.00" fill="#000000">__JS_FreeAtom</text>
</a>
</g>
</g>
<!-- Node365298&#45;&gt;Node365299 -->
<g id="edge10" class="edge">
<title>Node365298&#45;&gt;Node365299</title>
<path fill="none" stroke="#191970" d="M397.0958,-68.4559C409.3647,-65.7399 423.158,-62.6864 436.2708,-59.7836"/>
<polygon fill="#191970" stroke="#191970" points="437.1219,-63.18 446.129,-57.6012 435.6089,-56.3454 437.1219,-63.18"/>
</g>
<!-- Node365304 -->
<g id="node12" class="node">
<title>Node365304</title>
<g id="a_node12"><a xlink:href="quickjs_8c.html#a522741f41afb1d0da0aa55968cd8579e" target="_top" xlink:title="JS_NewAtomLen">
<polygon fill="none" stroke="#ff0000" points="443,-.5 443,-19.5 536,-19.5 536,-.5 443,-.5"/>
<text text-anchor="middle" x="489.5" y="-7.5" font-family="Helvetica,sans-Serif" font-size="10.00" fill="#000000">JS_NewAtomLen</text>
</a>
</g>
</g>
<!-- Node365303&#45;&gt;Node365304 -->
<g id="edge12" class="edge">
<title>Node365303&#45;&gt;Node365304</title>
<path fill="none" stroke="#191970" d="M397.0958,-17.0538C408.2987,-16.1986 420.7725,-15.2464 432.8387,-14.3253"/>
<polygon fill="#191970" stroke="#191970" points="433.137,-17.8128 442.8416,-13.5617 432.6042,-10.8331 433.137,-17.8128"/>
</g>
</g>
</svg>
        <g id="navigator" transform="translate(0 0)" fill="#404254">
                <rect fill="#f2f5e9" fill-opacity="0.5" stroke="#606060" stroke-width=".5" x="0" y="0" width="60" height="60"/>
                <use id="zoomplus" xlink:href="#zoomPlus" x="17" y="9" onmousedown="handleZoom(evt,'in')"/>
                <use id="zoomminus" xlink:href="#zoomMin" x="42" y="9" onmousedown="handleZoom(evt,'out')"/>
                <use id="reset" xlink:href="#resetDef" x="30" y="36" onmousedown="handleReset()"/>
                <g id="arrowUp" xlink:href="#dirArrow" transform="translate(30 24)" onmousedown="handlePan(0,-1)">
                  <use xlink:href="#rim" fill="#404040">
                        <set attributeName="fill" to="#808080" begin="arrowUp.mouseover" end="arrowUp.mouseout"/>
                  </use>
                  <path fill="none" stroke="white" stroke-width="1.5" d="M0,-3.0v7 M-2.5,-0.5L0,-3.0L2.5,-0.5"/>
                </g>
                <g id="arrowRight" xlink:href="#dirArrow" transform="rotate(90) translate(36 -43)" onmousedown="handlePan(1,0)">
                  <use xlink:href="#rim" fill="#404040">
                        <set attributeName="fill" to="#808080" begin="arrowRight.mouseover" end="arrowRight.mouseout"/>
                  </use>
                  <path fill="none" stroke="white" stroke-width="1.5" d="M0,-3.0v7 M-2.5,-0.5L0,-3.0L2.5,-0.5"/>
                </g>
                <g id="arrowDown" xlink:href="#dirArrow" transform="rotate(180) translate(-30 -48)" onmousedown="handlePan(0,1)">
                  <use xlink:href="#rim" fill="#404040">
                        <set attributeName="fill" to="#808080" begin="arrowDown.mouseover" end="arrowDown.mouseout"/>
                  </use>
                  <path fill="none" stroke="white" stroke-width="1.5" d="M0,-3.0v7 M-2.5,-0.5L0,-3.0L2.5,-0.5"/>
                </g>
                <g id="arrowLeft" xlink:href="#dirArrow" transform="rotate(270) translate(-36 17)" onmousedown="handlePan(-1,0)">
                  <use xlink:href="#rim" fill="#404040">
                        <set attributeName="fill" to="#808080" begin="arrowLeft.mouseover" end="arrowLeft.mouseout"/>
                  </use>
                  <path fill="none" stroke="white" stroke-width="1.5" d="M0,-3.0v7 M-2.5,-0.5L0,-3.0L2.5,-0.5"/>
                </g>
        </g>
        <svg viewBox="0 0 15 15" width="100%" height="30px" preserveAspectRatio="xMaxYMin meet">
         <g id="arrow_out" transform="scale(0.3 0.3)">
          <a xlink:href="quickjs_8c_ac7a9b88dd7ca1a70cd0ecd9a28905e25_cgraph_org.svg" target="_base">
           <rect id="button" ry="5" rx="5" y="6" x="6" height="38" width="38"
                fill="#f2f5e9" fill-opacity="0.5" stroke="#606060" stroke-width="1.0"/>
           <path id="arrow"
             d="M 11.500037,31.436501 C 11.940474,20.09759 22.043105,11.32322 32.158766,21.979434 L 37.068811,17.246167 C 37.068811,17.246167 37.088388,32 37.088388,32 L 22.160133,31.978069 C 22.160133,31.978069 26.997745,27.140456 26.997745,27.140456 C 18.528582,18.264221 13.291696,25.230495 11.500037,31.436501 z"
             style="fill:#404040;"/>
          </a>
         </g>
        </svg>
</svg>
