<?xml version="1.0" encoding="UTF-8" standalone="no"?>
<!DOCTYPE svg PUBLIC "-//W3C//DTD SVG 1.1//EN"
 "http://www.w3.org/Graphics/SVG/1.1/DTD/svg11.dtd">
<!-- Generated by graphviz version 2.40.1 (20161225.0304)
 -->
<!-- Title: js_string_fromCharCode Pages: 1 -->
<svg width="528pt" height="199pt"
 viewBox="0.00 0.00 528.00 199.00" xmlns="http://www.w3.org/2000/svg" xmlns:xlink="http://www.w3.org/1999/xlink">
<g id="graph0" class="graph" transform="scale(1 1) rotate(0) translate(4 195)">
<title>js_string_fromCharCode</title>
<!-- Node406214 -->
<g id="node1" class="node">
<title>Node406214</title>
<polygon fill="#bfbfbf" stroke="#000000" points="0,-76.5 0,-95.5 122,-95.5 122,-76.5 0,-76.5"/>
<text text-anchor="middle" x="61" y="-83.5" font-family="Helvetica,sans-Serif" font-size="10.00" fill="#000000">js_string_fromCharCode</text>
</g>
<!-- Node406215 -->
<g id="node2" class="node">
<title>Node406215</title>
<g id="a_node2"><a xlink:href="quickjs_8c.html#a4073bd2b4f247bf6077cd956759193b9" target="_top" xlink:title="JS_ToInt32">
<polygon fill="none" stroke="#000000" points="177,-152.5 177,-171.5 244,-171.5 244,-152.5 177,-152.5"/>
<text text-anchor="middle" x="210.5" y="-159.5" font-family="Helvetica,sans-Serif" font-size="10.00" fill="#000000">JS_ToInt32</text>
</a>
</g>
</g>
<!-- Node406214&#45;&gt;Node406215 -->
<g id="edge1" class="edge">
<title>Node406214&#45;&gt;Node406215</title>
<path fill="none" stroke="#191970" d="M75.3329,-95.5581C93.8705,-107.6509 127.4165,-128.6296 158,-143 162.3755,-145.0559 167.0388,-147.0319 171.7117,-148.8811"/>
<polygon fill="#191970" stroke="#191970" points="170.6363,-152.2164 181.2278,-152.4837 173.1148,-145.6698 170.6363,-152.2164"/>
</g>
<!-- Node406282 -->
<g id="node7" class="node">
<title>Node406282</title>
<g id="a_node7"><a xlink:href="quickjs_8c.html#accfc3d1dcaa88c88402cb245ccaf4fdb" target="_top" xlink:title="string_buffer_end">
<polygon fill="none" stroke="#ff0000" points="164.5,-114.5 164.5,-133.5 256.5,-133.5 256.5,-114.5 164.5,-114.5"/>
<text text-anchor="middle" x="210.5" y="-121.5" font-family="Helvetica,sans-Serif" font-size="10.00" fill="#000000">string_buffer_end</text>
</a>
</g>
</g>
<!-- Node406214&#45;&gt;Node406282 -->
<g id="edge6" class="edge">
<title>Node406214&#45;&gt;Node406282</title>
<path fill="none" stroke="#191970" d="M98.7252,-95.589C118.2756,-100.5583 142.3466,-106.6767 163.1374,-111.9613"/>
<polygon fill="#191970" stroke="#191970" points="162.4921,-115.4085 173.0461,-114.4799 164.2165,-108.6243 162.4921,-115.4085"/>
</g>
<!-- Node406283 -->
<g id="node8" class="node">
<title>Node406283</title>
<g id="a_node8"><a xlink:href="quickjs_8c.html#a266b4993a59d9e34537386e62b9f3d4f" target="_top" xlink:title="string_buffer_free">
<polygon fill="none" stroke="#ff0000" points="164.5,-76.5 164.5,-95.5 256.5,-95.5 256.5,-76.5 164.5,-76.5"/>
<text text-anchor="middle" x="210.5" y="-83.5" font-family="Helvetica,sans-Serif" font-size="10.00" fill="#000000">string_buffer_free</text>
</a>
</g>
</g>
<!-- Node406214&#45;&gt;Node406283 -->
<g id="edge7" class="edge">
<title>Node406214&#45;&gt;Node406283</title>
<path fill="none" stroke="#191970" d="M122.2387,-86C132.7619,-86 143.6547,-86 154.045,-86"/>
<polygon fill="#191970" stroke="#191970" points="154.2355,-89.5001 164.2355,-86 154.2354,-82.5001 154.2355,-89.5001"/>
</g>
<!-- Node406284 -->
<g id="node9" class="node">
<title>Node406284</title>
<g id="a_node9"><a xlink:href="quickjs_8c.html#a9c11961b0adafedd064b294612d0c2f3" target="_top" xlink:title="string_buffer_init">
<polygon fill="none" stroke="#ff0000" points="166,-38.5 166,-57.5 255,-57.5 255,-38.5 166,-38.5"/>
<text text-anchor="middle" x="210.5" y="-45.5" font-family="Helvetica,sans-Serif" font-size="10.00" fill="#000000">string_buffer_init</text>
</a>
</g>
</g>
<!-- Node406214&#45;&gt;Node406284 -->
<g id="edge8" class="edge">
<title>Node406214&#45;&gt;Node406284</title>
<path fill="none" stroke="#191970" d="M98.7252,-76.411C118.2756,-71.4417 142.3466,-65.3233 163.1374,-60.0387"/>
<polygon fill="#191970" stroke="#191970" points="164.2165,-63.3757 173.0461,-57.5201 162.4921,-56.5915 164.2165,-63.3757"/>
</g>
<!-- Node406286 -->
<g id="node10" class="node">
<title>Node406286</title>
<g id="a_node10"><a xlink:href="quickjs_8c.html#a9b8fb6b5ce638616691f7bf7881fa57d" target="_top" xlink:title="string_buffer_putc16">
<polygon fill="none" stroke="#ff0000" points="158,-.5 158,-19.5 263,-19.5 263,-.5 158,-.5"/>
<text text-anchor="middle" x="210.5" y="-7.5" font-family="Helvetica,sans-Serif" font-size="10.00" fill="#000000">string_buffer_putc16</text>
</a>
</g>
</g>
<!-- Node406214&#45;&gt;Node406286 -->
<g id="edge9" class="edge">
<title>Node406214&#45;&gt;Node406286</title>
<path fill="none" stroke="#191970" d="M75.3329,-76.4419C93.8705,-64.3491 127.4165,-43.3704 158,-29 162.3755,-26.9441 167.0388,-24.9681 171.7117,-23.1189"/>
<polygon fill="#191970" stroke="#191970" points="173.1148,-26.3302 181.2278,-19.5163 170.6363,-19.7836 173.1148,-26.3302"/>
</g>
<!-- Node406216 -->
<g id="node3" class="node">
<title>Node406216</title>
<g id="a_node3"><a xlink:href="quickjs_8h.html#a775522f2d084fc8fa0fcb33f390006b4" target="_top" xlink:title="JS_DupValue">
<polygon fill="none" stroke="#000000" points="303.5,-171.5 303.5,-190.5 380.5,-190.5 380.5,-171.5 303.5,-171.5"/>
<text text-anchor="middle" x="342" y="-178.5" font-family="Helvetica,sans-Serif" font-size="10.00" fill="#000000">JS_DupValue</text>
</a>
</g>
</g>
<!-- Node406215&#45;&gt;Node406216 -->
<g id="edge2" class="edge">
<title>Node406215&#45;&gt;Node406216</title>
<path fill="none" stroke="#191970" d="M244.0232,-166.8437C259.0209,-169.0106 276.9907,-171.607 293.4218,-173.9811"/>
<polygon fill="#191970" stroke="#191970" points="293.0157,-177.4587 303.4134,-175.4248 294.0167,-170.5306 293.0157,-177.4587"/>
</g>
<!-- Node406217 -->
<g id="node4" class="node">
<title>Node406217</title>
<g id="a_node4"><a xlink:href="quickjs_8c.html#a643088ab23784b7f3c6ff94c37228256" target="_top" xlink:title="JS_ToInt32Free">
<polygon fill="none" stroke="#000000" points="299,-133.5 299,-152.5 385,-152.5 385,-133.5 299,-133.5"/>
<text text-anchor="middle" x="342" y="-140.5" font-family="Helvetica,sans-Serif" font-size="10.00" fill="#000000">JS_ToInt32Free</text>
</a>
</g>
</g>
<!-- Node406215&#45;&gt;Node406217 -->
<g id="edge3" class="edge">
<title>Node406215&#45;&gt;Node406217</title>
<path fill="none" stroke="#191970" d="M244.0232,-157.1563C257.5014,-155.2089 273.3799,-152.9147 288.3849,-150.7467"/>
<polygon fill="#191970" stroke="#191970" points="289.1965,-154.1658 298.5932,-149.2717 288.1955,-147.2378 289.1965,-154.1658"/>
</g>
<!-- Node406218 -->
<g id="node5" class="node">
<title>Node406218</title>
<g id="a_node5"><a xlink:href="quickjs_8h.html#ad80a83d73e9b7d872b88fbf2943aebe9" target="_top" xlink:title="JS_IsException">
<polygon fill="none" stroke="#000000" points="427.5,-152.5 427.5,-171.5 513.5,-171.5 513.5,-152.5 427.5,-152.5"/>
<text text-anchor="middle" x="470.5" y="-159.5" font-family="Helvetica,sans-Serif" font-size="10.00" fill="#000000">JS_IsException</text>
</a>
</g>
</g>
<!-- Node406217&#45;&gt;Node406218 -->
<g id="edge4" class="edge">
<title>Node406217&#45;&gt;Node406218</title>
<path fill="none" stroke="#191970" d="M385.1461,-149.3796C395.4232,-150.8991 406.5107,-152.5385 417.1834,-154.1166"/>
<polygon fill="#191970" stroke="#191970" points="416.8446,-157.6045 427.249,-155.6049 417.8686,-150.6798 416.8446,-157.6045"/>
</g>
<!-- Node406219 -->
<g id="node6" class="node">
<title>Node406219</title>
<g id="a_node6"><a xlink:href="quickjs_8c.html#ae738291483438efefca5c9fa4d269504" target="_top" xlink:title="JS_ToNumberFree">
<polygon fill="none" stroke="#ff0000" points="421,-114.5 421,-133.5 520,-133.5 520,-114.5 421,-114.5"/>
<text text-anchor="middle" x="470.5" y="-121.5" font-family="Helvetica,sans-Serif" font-size="10.00" fill="#000000">JS_ToNumberFree</text>
</a>
</g>
</g>
<!-- Node406217&#45;&gt;Node406219 -->
<g id="edge5" class="edge">
<title>Node406217&#45;&gt;Node406219</title>
<path fill="none" stroke="#191970" d="M385.1461,-136.6204C393.3213,-135.4116 402.0093,-134.127 410.5934,-132.8578"/>
<polygon fill="#191970" stroke="#191970" points="411.2053,-136.3055 420.5858,-131.3803 410.1813,-129.3807 411.2053,-136.3055"/>
</g>
</g>
</svg>
