<?xml version="1.0" encoding="UTF-8" standalone="no"?>
<!DOCTYPE svg PUBLIC "-//W3C//DTD SVG 1.1//EN"
 "http://www.w3.org/Graphics/SVG/1.1/DTD/svg11.dtd">
<!-- Generated by graphviz version 2.40.1 (20161225.0304)
 -->
<!-- Title: js_async_generator_next Pages: 1 -->
<svg width="813pt" height="1126pt"
 viewBox="0.00 0.00 813.00 1126.44" xmlns="http://www.w3.org/2000/svg" xmlns:xlink="http://www.w3.org/1999/xlink">
<g id="graph0" class="graph" transform="scale(1 1) rotate(0) translate(4 1122.4398)">
<title>js_async_generator_next</title>
<!-- Node305972 -->
<g id="node1" class="node">
<title>Node305972</title>
<polygon fill="#bfbfbf" stroke="#000000" points="0,-114.5 0,-133.5 125,-133.5 125,-114.5 0,-114.5"/>
<text text-anchor="middle" x="62.5" y="-121.5" font-family="Helvetica,sans-Serif" font-size="10.00" fill="#000000">js_async_generator_next</text>
</g>
<!-- Node305973 -->
<g id="node2" class="node">
<title>Node305973</title>
<g id="a_node2"><a xlink:href="quickjs_8c.html#a1a4c02a29525d5cb2085dd8bca3af350" target="_top" xlink:title="JS_Call">
<polygon fill="none" stroke="#000000" points="202.5,-589.5 202.5,-608.5 253.5,-608.5 253.5,-589.5 202.5,-589.5"/>
<text text-anchor="middle" x="228" y="-596.5" font-family="Helvetica,sans-Serif" font-size="10.00" fill="#000000">JS_Call</text>
</a>
</g>
</g>
<!-- Node305972&#45;&gt;Node305973 -->
<g id="edge1" class="edge">
<title>Node305972&#45;&gt;Node305973</title>
<path fill="none" stroke="#191970" d="M65.9567,-133.9211C86.5274,-192.9609 192.8847,-498.216 221.1145,-579.2381"/>
<polygon fill="#191970" stroke="#191970" points="217.9669,-580.8419 224.5623,-589.1335 224.5772,-578.5387 217.9669,-580.8419"/>
</g>
<!-- Node306026 -->
<g id="node10" class="node">
<title>Node306026</title>
<g id="a_node10"><a xlink:href="quickjs_8h.html#afaa20c47565bc704c6c85f3d77254e7d" target="_top" xlink:title="JS_FreeValue">
<polygon fill="none" stroke="#ff0000" points="727,-589.5 727,-608.5 805,-608.5 805,-589.5 727,-589.5"/>
<text text-anchor="middle" x="766" y="-596.5" font-family="Helvetica,sans-Serif" font-size="10.00" fill="#000000">JS_FreeValue</text>
</a>
</g>
</g>
<!-- Node305972&#45;&gt;Node306026 -->
<g id="edge46" class="edge">
<title>Node305972&#45;&gt;Node306026</title>
<path fill="none" stroke="#191970" d="M110.3379,-114.46C171.044,-103.2037 279.1021,-86 372.5,-86 372.5,-86 372.5,-86 509.5,-86 598.0173,-86 636.7725,-98.0379 691,-168 742.1169,-233.949 760.737,-504.1888 764.988,-579.459"/>
<polygon fill="#191970" stroke="#191970" points="761.4936,-579.6603 765.5315,-589.4555 768.4833,-579.2802 761.4936,-579.6603"/>
</g>
<!-- Node306005 -->
<g id="node11" class="node">
<title>Node306005</title>
<g id="a_node11"><a xlink:href="quickjs_8h.html#a775522f2d084fc8fa0fcb33f390006b4" target="_top" xlink:title="JS_DupValue">
<polygon fill="none" stroke="#000000" points="609.5,-855.5 609.5,-874.5 686.5,-874.5 686.5,-855.5 609.5,-855.5"/>
<text text-anchor="middle" x="648" y="-862.5" font-family="Helvetica,sans-Serif" font-size="10.00" fill="#000000">JS_DupValue</text>
</a>
</g>
</g>
<!-- Node305972&#45;&gt;Node306005 -->
<g id="edge45" class="edge">
<title>Node305972&#45;&gt;Node306005</title>
<path fill="none" stroke="#191970" d="M62.6976,-133.5458C65.0212,-217.195 94.1146,-826.5965 450,-1005 497.2807,-1028.7016 526.7426,-1036.8048 569,-1005 612.6661,-972.1349 570.4373,-927.2295 604.8693,-882.3917"/>
<polygon fill="#191970" stroke="#191970" points="607.7163,-884.452 611.6462,-874.6129 602.4384,-879.8537 607.7163,-884.452"/>
</g>
<!-- Node306044 -->
<g id="node12" class="node">
<title>Node306044</title>
<g id="a_node12"><a xlink:href="quickjs_8h.html#ad80a83d73e9b7d872b88fbf2943aebe9" target="_top" xlink:title="JS_IsException">
<polygon fill="none" stroke="#000000" points="605,-447.5 605,-466.5 691,-466.5 691,-447.5 605,-447.5"/>
<text text-anchor="middle" x="648" y="-454.5" font-family="Helvetica,sans-Serif" font-size="10.00" fill="#000000">JS_IsException</text>
</a>
</g>
</g>
<!-- Node305972&#45;&gt;Node306044 -->
<g id="edge48" class="edge">
<title>Node305972&#45;&gt;Node306044</title>
<path fill="none" stroke="#191970" d="M125.2378,-122.6617C245.72,-121.4065 503.3788,-125.4986 569,-181 609.1359,-214.9463 636.7657,-380.3367 645.2491,-437.5106"/>
<polygon fill="#191970" stroke="#191970" points="641.7889,-438.0377 646.6886,-447.4315 648.7164,-437.0326 641.7889,-438.0377"/>
</g>
<!-- Node306340 -->
<g id="node29" class="node">
<title>Node306340</title>
<g id="a_node29"><a xlink:href="quickjs_8c.html#a8551eaac7ef616910807cebdc515760d" target="_top" xlink:title="JS_GetException">
<polygon fill="none" stroke="#000000" points="181.5,-38.5 181.5,-57.5 274.5,-57.5 274.5,-38.5 181.5,-38.5"/>
<text text-anchor="middle" x="228" y="-45.5" font-family="Helvetica,sans-Serif" font-size="10.00" fill="#000000">JS_GetException</text>
</a>
</g>
</g>
<!-- Node305972&#45;&gt;Node306340 -->
<g id="edge47" class="edge">
<title>Node305972&#45;&gt;Node306340</title>
<path fill="none" stroke="#191970" d="M78.8761,-114.4325C98.1394,-103.3966 131.2688,-85.0939 161,-72 169.9799,-68.0452 179.8359,-64.2345 189.1604,-60.859"/>
<polygon fill="#191970" stroke="#191970" points="190.3653,-64.1454 198.626,-57.5113 188.0312,-57.546 190.3653,-64.1454"/>
</g>
<!-- Node306343 -->
<g id="node30" class="node">
<title>Node306343</title>
<g id="a_node30"><a xlink:href="quickjs_8c.html#a2287eaf81466a0d408341cdae08ed673" target="_top" xlink:title="JS_NewPromiseCapability">
<polygon fill="none" stroke="#ff0000" points="161,-.5 161,-19.5 295,-19.5 295,-.5 161,-.5"/>
<text text-anchor="middle" x="228" y="-7.5" font-family="Helvetica,sans-Serif" font-size="10.00" fill="#000000">JS_NewPromiseCapability</text>
</a>
</g>
</g>
<!-- Node305972&#45;&gt;Node306343 -->
<g id="edge49" class="edge">
<title>Node305972&#45;&gt;Node306343</title>
<path fill="none" stroke="#191970" d="M69.7715,-114.3223C84.7087,-95.1257 120.8371,-52.0929 161,-29 164.8782,-26.7701 169.0349,-24.7879 173.3086,-23.0284"/>
<polygon fill="#191970" stroke="#191970" points="174.6236,-26.2738 182.7888,-19.5224 172.1956,-19.7084 174.6236,-26.2738"/>
</g>
<!-- Node305974 -->
<g id="node3" class="node">
<title>Node305974</title>
<g id="a_node3"><a xlink:href="quickjs_8c.html#ac2894ff4edcdb4e6841bcce9c76081e3" target="_top" xlink:title="JS_CallInternal">
<polygon fill="none" stroke="#ff0000" points="331,-589.5 331,-608.5 414,-608.5 414,-589.5 331,-589.5"/>
<text text-anchor="middle" x="372.5" y="-596.5" font-family="Helvetica,sans-Serif" font-size="10.00" fill="#000000">JS_CallInternal</text>
</a>
</g>
</g>
<!-- Node305973&#45;&gt;Node305974 -->
<g id="edge2" class="edge">
<title>Node305973&#45;&gt;Node305974</title>
<path fill="none" stroke="#191970" d="M253.5011,-593.7085C272.05,-592.3384 297.8032,-591.9336 320.6093,-592.4941"/>
<polygon fill="#191970" stroke="#191970" points="320.7378,-595.9998 330.844,-592.8195 320.9603,-589.0034 320.7378,-595.9998"/>
</g>
<!-- Node305974&#45;&gt;Node305973 -->
<g id="edge40" class="edge">
<title>Node305974&#45;&gt;Node305973</title>
<path fill="none" stroke="#191970" d="M330.844,-605.1805C309.569,-606.0212 283.953,-605.9311 263.6085,-604.9102"/>
<polygon fill="#191970" stroke="#191970" points="263.6963,-601.4091 253.5011,-604.2915 263.2685,-608.396 263.6963,-601.4091"/>
</g>
<!-- Node305974&#45;&gt;Node305974 -->
<g id="edge41" class="edge">
<title>Node305974&#45;&gt;Node305974</title>
<path fill="none" stroke="#191970" d="M351.5385,-608.7571C341.3409,-617.5653 348.3281,-627 372.5,-627 387.9851,-627 396.4176,-623.128 397.7975,-618.0292"/>
<polygon fill="#191970" stroke="#191970" points="400.8681,-616.3329 393.4615,-608.7571 394.5272,-619.2982 400.8681,-616.3329"/>
</g>
<!-- Node305975 -->
<g id="node4" class="node">
<title>Node305975</title>
<g id="a_node4"><a xlink:href="quickjs_8c.html#a853f0924d441ea4225488f37c8b69f9a" target="_top" xlink:title="__attribute__">
<polygon fill="none" stroke="#000000" points="611.5,-599.5 611.5,-618.5 684.5,-618.5 684.5,-599.5 611.5,-599.5"/>
<text text-anchor="middle" x="648" y="-606.5" font-family="Helvetica,sans-Serif" font-size="10.00" fill="#000000">__attribute__</text>
</a>
</g>
</g>
<!-- Node305974&#45;&gt;Node305975 -->
<g id="edge3" class="edge">
<title>Node305974&#45;&gt;Node305975</title>
<path fill="none" stroke="#191970" d="M386.8872,-589.4372C401.904,-580.0761 426.4978,-566.4518 450,-561 501.5209,-549.0487 518.0697,-546.7404 569,-561 591.3494,-567.2574 613.6588,-581.7631 628.8411,-593.201"/>
<polygon fill="#191970" stroke="#191970" points="626.867,-596.1001 636.9031,-599.4954 631.1749,-590.5826 626.867,-596.1001"/>
</g>
<!-- Node305976 -->
<g id="node5" class="node">
<title>Node305976</title>
<g id="a_node5"><a xlink:href="quickjs_8c.html#a877fcb7651d95b411ce70e62b7f4a1f0" target="_top" xlink:title="__JS_AtomFromUInt32">
<polygon fill="none" stroke="#000000" points="450,-380.5 450,-399.5 569,-399.5 569,-380.5 450,-380.5"/>
<text text-anchor="middle" x="509.5" y="-387.5" font-family="Helvetica,sans-Serif" font-size="10.00" fill="#000000">__JS_AtomFromUInt32</text>
</a>
</g>
</g>
<!-- Node305974&#45;&gt;Node305976 -->
<g id="edge4" class="edge">
<title>Node305974&#45;&gt;Node305976</title>
<path fill="none" stroke="#191970" d="M373.9244,-589.0787C378.788,-558.6957 397.4527,-465.8527 450,-414 453.9642,-410.0882 458.6496,-406.789 463.6233,-404.0122"/>
<polygon fill="#191970" stroke="#191970" points="465.3273,-407.0756 472.7938,-399.5587 462.2694,-400.7788 465.3273,-407.0756"/>
</g>
<!-- Node305977 -->
<g id="node6" class="node">
<title>Node305977</title>
<g id="a_node6"><a xlink:href="quickjs_8h.html#a9bf98b18de88b4199910a43e933eb97d" target="_top" xlink:title="__JS_NewFloat64">
<polygon fill="none" stroke="#000000" points="461,-342.5 461,-361.5 558,-361.5 558,-342.5 461,-342.5"/>
<text text-anchor="middle" x="509.5" y="-349.5" font-family="Helvetica,sans-Serif" font-size="10.00" fill="#000000">__JS_NewFloat64</text>
</a>
</g>
</g>
<!-- Node305974&#45;&gt;Node305977 -->
<g id="edge5" class="edge">
<title>Node305974&#45;&gt;Node305977</title>
<path fill="none" stroke="#191970" d="M372.8402,-589.1625C374.5882,-554.1864 385.2568,-434.5522 450,-371 451.48,-369.5472 453.0709,-368.2055 454.748,-366.9663"/>
<polygon fill="#191970" stroke="#191970" points="456.9537,-369.7251 463.7358,-361.5855 453.358,-363.7192 456.9537,-369.7251"/>
</g>
<!-- Node305978 -->
<g id="node7" class="node">
<title>Node305978</title>
<g id="a_node7"><a xlink:href="quickjs_8c.html#a74547db03bf739a52c83a326b32db997" target="_top" xlink:title="add_property">
<polygon fill="none" stroke="#ff0000" points="611.5,-1083.5 611.5,-1102.5 684.5,-1102.5 684.5,-1083.5 611.5,-1083.5"/>
<text text-anchor="middle" x="648" y="-1090.5" font-family="Helvetica,sans-Serif" font-size="10.00" fill="#000000">add_property</text>
</a>
</g>
</g>
<!-- Node305974&#45;&gt;Node305978 -->
<g id="edge6" class="edge">
<title>Node305974&#45;&gt;Node305978</title>
<path fill="none" stroke="#191970" d="M373.2636,-608.5865C378.6147,-674.5842 411.4065,-1059.9891 450,-1093 494.8344,-1131.3491 568.549,-1118.2772 612.2672,-1105.4958"/>
<polygon fill="#191970" stroke="#191970" points="613.3752,-1108.8169 621.9095,-1102.5387 611.3228,-1102.1246 613.3752,-1108.8169"/>
</g>
<!-- Node306034 -->
<g id="node8" class="node">
<title>Node306034</title>
<g id="a_node8"><a xlink:href="quickjs_8c.html#a4956f45ffd2849b96dc051277264f87a" target="_top" xlink:title="build_arg_list">
<polygon fill="none" stroke="#ff0000" points="472.5,-760.5 472.5,-779.5 546.5,-779.5 546.5,-760.5 472.5,-760.5"/>
<text text-anchor="middle" x="509.5" y="-767.5" font-family="Helvetica,sans-Serif" font-size="10.00" fill="#000000">build_arg_list</text>
</a>
</g>
</g>
<!-- Node305974&#45;&gt;Node306034 -->
<g id="edge7" class="edge">
<title>Node305974&#45;&gt;Node306034</title>
<path fill="none" stroke="#191970" d="M374.6996,-608.8204C381.2292,-635.6981 403.0434,-711.1115 450,-751 453.7784,-754.2096 458.1049,-756.8789 462.6633,-759.0983"/>
<polygon fill="#191970" stroke="#191970" points="461.6652,-762.4727 472.2442,-763.0514 464.3351,-756.0018 461.6652,-762.4727"/>
</g>
<!-- Node306035 -->
<g id="node9" class="node">
<title>Node306035</title>
<g id="a_node9"><a xlink:href="quickjs_8c.html#ac864482356b3efc2d0b0a509fcfa4c7c" target="_top" xlink:title="free_arg_list">
<polygon fill="none" stroke="#ff0000" points="613,-760.5 613,-779.5 683,-779.5 683,-760.5 613,-760.5"/>
<text text-anchor="middle" x="648" y="-767.5" font-family="Helvetica,sans-Serif" font-size="10.00" fill="#000000">free_arg_list</text>
</a>
</g>
</g>
<!-- Node305974&#45;&gt;Node306035 -->
<g id="edge16" class="edge">
<title>Node305974&#45;&gt;Node306035</title>
<path fill="none" stroke="#191970" d="M372.8957,-608.8017C375.3252,-663.4825 390.1576,-930.1305 450,-979 490.9647,-1012.4533 526.9995,-1011.1433 569,-979 617.6309,-941.7823 581.7398,-902.6488 605,-846 613.4079,-825.5231 626.2135,-803.6804 635.6649,-788.6916"/>
<polygon fill="#191970" stroke="#191970" points="638.8444,-790.2184 641.3115,-779.9148 632.9574,-786.431 638.8444,-790.2184"/>
</g>
<!-- Node305974&#45;&gt;Node306026 -->
<g id="edge43" class="edge">
<title>Node305974&#45;&gt;Node306026</title>
<path fill="none" stroke="#191970" d="M372.6977,-589.379C374.0963,-531.9917 384.4574,-235.5076 450,-181 536.1486,-109.3558 625.8863,-163.8152 691,-255 729.1173,-308.3792 756.035,-514.0251 763.742,-579.1208"/>
<polygon fill="#191970" stroke="#191970" points="760.2896,-579.7336 764.9207,-589.2626 767.2427,-578.9254 760.2896,-579.7336"/>
</g>
<!-- Node305974&#45;&gt;Node306005 -->
<g id="edge42" class="edge">
<title>Node305974&#45;&gt;Node306005</title>
<path fill="none" stroke="#191970" d="M373.7697,-608.6193C379.7701,-652.4596 406.8103,-832.5979 450,-865 496.2031,-899.6627 567.0553,-888.8227 610.294,-877.2795"/>
<polygon fill="#191970" stroke="#191970" points="611.4545,-880.589 620.1339,-874.5128 609.5598,-873.8503 611.4545,-880.589"/>
</g>
<!-- Node305974&#45;&gt;Node306044 -->
<g id="edge44" class="edge">
<title>Node305974&#45;&gt;Node306044</title>
<path fill="none" stroke="#191970" d="M373.9698,-589.1881C378.7872,-560.9604 396.9578,-479.4944 450,-447 500.1604,-416.2711 571.5949,-431.0291 613.5412,-444.2349"/>
<polygon fill="#191970" stroke="#191970" points="612.694,-447.6408 623.287,-447.4434 614.8831,-440.9918 612.694,-447.6408"/>
</g>
<!-- Node306131 -->
<g id="node13" class="node">
<title>Node306131</title>
<g id="a_node13"><a xlink:href="quickjs_8c.html#a61c8dfb5e807af1b6ff7d8ca61576dda" target="_top" xlink:title="build_backtrace">
<polygon fill="none" stroke="#ff0000" points="467,-304.5 467,-323.5 552,-323.5 552,-304.5 467,-304.5"/>
<text text-anchor="middle" x="509.5" y="-311.5" font-family="Helvetica,sans-Serif" font-size="10.00" fill="#000000">build_backtrace</text>
</a>
</g>
</g>
<!-- Node305974&#45;&gt;Node306131 -->
<g id="edge12" class="edge">
<title>Node305974&#45;&gt;Node306131</title>
<path fill="none" stroke="#191970" d="M374.0674,-589.3787C381.2632,-546.3008 412.3967,-371.578 450,-333 452.3464,-330.5928 454.997,-328.49 457.8437,-326.6531"/>
<polygon fill="#191970" stroke="#191970" points="459.6475,-329.6589 466.8643,-321.9021 456.3854,-323.4655 459.6475,-329.6589"/>
</g>
<!-- Node306219 -->
<g id="node14" class="node">
<title>Node306219</title>
<g id="a_node14"><a xlink:href="quickjs_8c.html#a344894112559c2ba75043fd10bcfa02f" target="_top" xlink:title="close_lexical_var">
<polygon fill="none" stroke="#ff0000" points="463.5,-836.5 463.5,-855.5 555.5,-855.5 555.5,-836.5 463.5,-836.5"/>
<text text-anchor="middle" x="509.5" y="-843.5" font-family="Helvetica,sans-Serif" font-size="10.00" fill="#000000">close_lexical_var</text>
</a>
</g>
</g>
<!-- Node305974&#45;&gt;Node306219 -->
<g id="edge13" class="edge">
<title>Node305974&#45;&gt;Node306219</title>
<path fill="none" stroke="#191970" d="M372.8402,-608.8375C374.5882,-643.8136 385.2568,-763.4478 450,-827 451.48,-828.4528 453.0709,-829.7945 454.748,-831.0337"/>
<polygon fill="#191970" stroke="#191970" points="453.358,-834.2808 463.7358,-836.4145 456.9537,-828.2749 453.358,-834.2808"/>
</g>
<!-- Node306220 -->
<g id="node15" class="node">
<title>Node306220</title>
<g id="a_node15"><a xlink:href="quickjs_8c.html#a1782043fce951bd4f0d91c7796b31e24" target="_top" xlink:title="close_var_refs">
<polygon fill="none" stroke="#ff0000" points="469.5,-266.5 469.5,-285.5 549.5,-285.5 549.5,-266.5 469.5,-266.5"/>
<text text-anchor="middle" x="509.5" y="-273.5" font-family="Helvetica,sans-Serif" font-size="10.00" fill="#000000">close_var_refs</text>
</a>
</g>
</g>
<!-- Node305974&#45;&gt;Node306220 -->
<g id="edge15" class="edge">
<title>Node305974&#45;&gt;Node306220</title>
<path fill="none" stroke="#191970" d="M373.7046,-589.2995C379.7076,-542.4235 407.7934,-339.7946 450,-295 452.9699,-291.848 456.4612,-289.2171 460.239,-287.0213"/>
<polygon fill="#191970" stroke="#191970" points="461.9273,-290.0944 469.4633,-282.6472 458.9281,-283.7694 461.9273,-290.0944"/>
</g>
<!-- Node306023 -->
<g id="node16" class="node">
<title>Node306023</title>
<g id="a_node16"><a xlink:href="quickjs_8c.html#a9e7b4bccf927d811b0f99b40b08c0472" target="_top" xlink:title="free_var_ref">
<polygon fill="none" stroke="#ff0000" points="475.5,-228.5 475.5,-247.5 543.5,-247.5 543.5,-228.5 475.5,-228.5"/>
<text text-anchor="middle" x="509.5" y="-235.5" font-family="Helvetica,sans-Serif" font-size="10.00" fill="#000000">free_var_ref</text>
</a>
</g>
</g>
<!-- Node305974&#45;&gt;Node306023 -->
<g id="edge17" class="edge">
<title>Node305974&#45;&gt;Node306023</title>
<path fill="none" stroke="#191970" d="M373.3949,-589.4566C378.2635,-539.467 403.0855,-308.1459 450,-257 454.3293,-252.2802 459.828,-248.727 465.7261,-246.0531"/>
<polygon fill="#191970" stroke="#191970" points="467.0543,-249.2936 475.2127,-242.5341 464.6197,-242.7306 467.0543,-249.2936"/>
</g>
<!-- Node306222 -->
<g id="node17" class="node">
<title>Node306222</title>
<g id="a_node17"><a xlink:href="cutils_8h.html#a7c82a3ee025fee89db5b11ff5b7691b8" target="_top" xlink:title="get_i16">
<polygon fill="none" stroke="#000000" points="485.5,-950.5 485.5,-969.5 533.5,-969.5 533.5,-950.5 485.5,-950.5"/>
<text text-anchor="middle" x="509.5" y="-957.5" font-family="Helvetica,sans-Serif" font-size="10.00" fill="#000000">get_i16</text>
</a>
</g>
</g>
<!-- Node305974&#45;&gt;Node306222 -->
<g id="edge18" class="edge">
<title>Node305974&#45;&gt;Node306222</title>
<path fill="none" stroke="#191970" d="M373.3949,-608.5434C378.2635,-658.533 403.0855,-889.8541 450,-941 456.6211,-948.2182 465.9774,-952.7081 475.3145,-955.4964"/>
<polygon fill="#191970" stroke="#191970" points="474.7668,-958.9644 485.3082,-957.9026 476.4054,-952.1589 474.7668,-958.9644"/>
</g>
<!-- Node306223 -->
<g id="node18" class="node">
<title>Node306223</title>
<g id="a_node18"><a xlink:href="cutils_8h.html#a288ee4e688944e23500af2ecc813c306" target="_top" xlink:title="get_i8">
<polygon fill="none" stroke="#000000" points="488,-912.5 488,-931.5 531,-931.5 531,-912.5 488,-912.5"/>
<text text-anchor="middle" x="509.5" y="-919.5" font-family="Helvetica,sans-Serif" font-size="10.00" fill="#000000">get_i8</text>
</a>
</g>
</g>
<!-- Node305974&#45;&gt;Node306223 -->
<g id="edge19" class="edge">
<title>Node305974&#45;&gt;Node306223</title>
<path fill="none" stroke="#191970" d="M373.8394,-608.7863C380.3615,-655.1755 410.1091,-852.5643 450,-898 457.3511,-906.3729 468.042,-911.8669 478.3403,-915.4533"/>
<polygon fill="#191970" stroke="#191970" points="477.388,-918.8216 487.9718,-918.3391 479.3971,-912.1161 477.388,-918.8216"/>
</g>
<!-- Node306224 -->
<g id="node19" class="node">
<title>Node306224</title>
<g id="a_node19"><a xlink:href="cutils_8h.html#ad587834d17e95461893d59661e5e9676" target="_top" xlink:title="get_u16">
<polygon fill="none" stroke="#000000" points="484,-798.5 484,-817.5 535,-817.5 535,-798.5 484,-798.5"/>
<text text-anchor="middle" x="509.5" y="-805.5" font-family="Helvetica,sans-Serif" font-size="10.00" fill="#000000">get_u16</text>
</a>
</g>
</g>
<!-- Node305974&#45;&gt;Node306224 -->
<g id="edge20" class="edge">
<title>Node305974&#45;&gt;Node306224</title>
<path fill="none" stroke="#191970" d="M373.6096,-608.9204C377.6328,-640.161 394.2879,-737.4828 450,-789 456.7101,-795.2049 465.4511,-799.3835 474.1584,-802.1976"/>
<polygon fill="#191970" stroke="#191970" points="473.2973,-805.5905 483.8648,-804.8302 475.1297,-798.8345 473.2973,-805.5905"/>
</g>
<!-- Node306019 -->
<g id="node20" class="node">
<title>Node306019</title>
<g id="a_node20"><a xlink:href="cutils_8h.html#a941262a5f72fda2ec43ae7911e97a0dc" target="_top" xlink:title="get_u32">
<polygon fill="none" stroke="#000000" points="484,-684.5 484,-703.5 535,-703.5 535,-684.5 484,-684.5"/>
<text text-anchor="middle" x="509.5" y="-691.5" font-family="Helvetica,sans-Serif" font-size="10.00" fill="#000000">get_u32</text>
</a>
</g>
</g>
<!-- Node305974&#45;&gt;Node306019 -->
<g id="edge21" class="edge">
<title>Node305974&#45;&gt;Node306019</title>
<path fill="none" stroke="#191970" d="M379.7774,-608.6231C392.3769,-624.6424 419.8174,-656.8107 450,-675 457.3292,-679.4169 465.7937,-682.9161 473.9972,-685.6438"/>
<polygon fill="#191970" stroke="#191970" points="473.1953,-689.0577 483.7802,-688.598 475.219,-682.3566 473.1953,-689.0577"/>
</g>
<!-- Node306225 -->
<g id="node21" class="node">
<title>Node306225</title>
<g id="a_node21"><a xlink:href="quickjs_8c.html#a37fe43b6649456a848bd54846450b995" target="_top" xlink:title="get_var_ref">
<polygon fill="none" stroke="#ff0000" points="477,-646.5 477,-665.5 542,-665.5 542,-646.5 477,-646.5"/>
<text text-anchor="middle" x="509.5" y="-653.5" font-family="Helvetica,sans-Serif" font-size="10.00" fill="#000000">get_var_ref</text>
</a>
</g>
</g>
<!-- Node305974&#45;&gt;Node306225 -->
<g id="edge22" class="edge">
<title>Node305974&#45;&gt;Node306225</title>
<path fill="none" stroke="#191970" d="M390.0166,-608.5098C405.5088,-616.6963 428.8684,-628.4988 450,-637 455.4781,-639.2038 461.3178,-641.3297 467.1173,-643.3112"/>
<polygon fill="#191970" stroke="#191970" points="466.1757,-646.6861 476.7688,-646.4977 468.3703,-640.039 466.1757,-646.6861"/>
</g>
<!-- Node306168 -->
<g id="node22" class="node">
<title>Node306168</title>
<g id="a_node22"><a xlink:href="list_8h.html#a663527a4d757540b2177bef0db1ce5c0" target="_top" xlink:title="init_list_head">
<polygon fill="none" stroke="#000000" points="472.5,-608.5 472.5,-627.5 546.5,-627.5 546.5,-608.5 472.5,-608.5"/>
<text text-anchor="middle" x="509.5" y="-615.5" font-family="Helvetica,sans-Serif" font-size="10.00" fill="#000000">init_list_head</text>
</a>
</g>
</g>
<!-- Node305974&#45;&gt;Node306168 -->
<g id="edge23" class="edge">
<title>Node305974&#45;&gt;Node306168</title>
<path fill="none" stroke="#191970" d="M414.3489,-604.8039C429.4537,-606.8987 446.6067,-609.2776 462.1491,-611.4331"/>
<polygon fill="#191970" stroke="#191970" points="461.7064,-614.9051 472.0924,-612.8121 462.6681,-607.9715 461.7064,-614.9051"/>
</g>
<!-- Node306226 -->
<g id="node23" class="node">
<title>Node306226</title>
<g id="a_node23"><a xlink:href="quickjs_8c.html#a2bb0a2ca3b8320f3ff778c65034fce49" target="_top" xlink:title="is_backtrace_needed">
<polygon fill="none" stroke="#ff0000" points="455,-570.5 455,-589.5 564,-589.5 564,-570.5 455,-570.5"/>
<text text-anchor="middle" x="509.5" y="-577.5" font-family="Helvetica,sans-Serif" font-size="10.00" fill="#000000">is_backtrace_needed</text>
</a>
</g>
</g>
<!-- Node305974&#45;&gt;Node306226 -->
<g id="edge24" class="edge">
<title>Node305974&#45;&gt;Node306226</title>
<path fill="none" stroke="#191970" d="M414.3489,-593.1961C423.9097,-591.8702 434.2912,-590.4304 444.5654,-589.0055"/>
<polygon fill="#191970" stroke="#191970" points="445.3451,-592.431 454.7695,-587.5904 444.3835,-585.4973 445.3451,-592.431"/>
</g>
<!-- Node306152 -->
<g id="node24" class="node">
<title>Node306152</title>
<g id="a_node24"><a xlink:href="quickjs_8c.html#a686cf78f8b0361621ee2ba6182195c31" target="_top" xlink:title="is_strict_mode">
<polygon fill="none" stroke="#000000" points="469.5,-494.5 469.5,-513.5 549.5,-513.5 549.5,-494.5 469.5,-494.5"/>
<text text-anchor="middle" x="509.5" y="-501.5" font-family="Helvetica,sans-Serif" font-size="10.00" fill="#000000">is_strict_mode</text>
</a>
</g>
</g>
<!-- Node305974&#45;&gt;Node306152 -->
<g id="edge25" class="edge">
<title>Node305974&#45;&gt;Node306152</title>
<path fill="none" stroke="#191970" d="M381.1411,-589.072C394.5877,-574.1255 421.9069,-545.7121 450,-528 456.2834,-524.0384 463.3308,-520.5122 470.3178,-517.4634"/>
<polygon fill="#191970" stroke="#191970" points="471.8049,-520.6365 479.7306,-513.6056 469.1503,-514.1594 471.8049,-520.6365"/>
</g>
<!-- Node306228 -->
<g id="node25" class="node">
<title>Node306228</title>
<g id="a_node25"><a xlink:href="quickjs_8c.html#ae8ff05447c0d51fe277baccf616dc7c6" target="_top" xlink:title="js_add_slow">
<polygon fill="none" stroke="#ff0000" points="474,-190.5 474,-209.5 545,-209.5 545,-190.5 474,-190.5"/>
<text text-anchor="middle" x="509.5" y="-197.5" font-family="Helvetica,sans-Serif" font-size="10.00" fill="#000000">js_add_slow</text>
</a>
</g>
</g>
<!-- Node305974&#45;&gt;Node306228 -->
<g id="edge26" class="edge">
<title>Node305974&#45;&gt;Node306228</title>
<path fill="none" stroke="#191970" d="M373.1605,-589.4757C377.0303,-536.304 398.3935,-276.4987 450,-219 453.9905,-214.5539 459.0191,-211.1415 464.4543,-208.5238"/>
<polygon fill="#191970" stroke="#191970" points="465.8438,-211.7384 473.8735,-204.8265 463.2861,-205.2225 465.8438,-211.7384"/>
</g>
<!-- Node306235 -->
<g id="node26" class="node">
<title>Node306235</title>
<g id="a_node26"><a xlink:href="quickjs_8c.html#a6a21784a40b8684f2e779bd460dd13b2" target="_top" xlink:title="JS_AddBrand">
<polygon fill="none" stroke="#ff0000" points="471,-1064.5 471,-1083.5 548,-1083.5 548,-1064.5 471,-1064.5"/>
<text text-anchor="middle" x="509.5" y="-1071.5" font-family="Helvetica,sans-Serif" font-size="10.00" fill="#000000">JS_AddBrand</text>
</a>
</g>
</g>
<!-- Node305974&#45;&gt;Node306235 -->
<g id="edge29" class="edge">
<title>Node305974&#45;&gt;Node306235</title>
<path fill="none" stroke="#191970" d="M373.5482,-608.6063C379.6467,-663.4771 411.6193,-937.3982 450,-1012 459.3257,-1030.1267 475.6473,-1046.5664 488.8397,-1057.9557"/>
<polygon fill="#191970" stroke="#191970" points="486.6293,-1060.6696 496.559,-1064.3645 491.1008,-1055.2839 486.6293,-1060.6696"/>
</g>
<!-- Node306238 -->
<g id="node27" class="node">
<title>Node306238</title>
<g id="a_node27"><a xlink:href="quickjs_8c.html#a43208b0746998d2b6b9b8bd1ef8b5f99" target="_top" xlink:title="js_append_enumerate">
<polygon fill="none" stroke="#ff0000" points="453.5,-722.5 453.5,-741.5 565.5,-741.5 565.5,-722.5 453.5,-722.5"/>
<text text-anchor="middle" x="509.5" y="-729.5" font-family="Helvetica,sans-Serif" font-size="10.00" fill="#000000">js_append_enumerate</text>
</a>
</g>
</g>
<!-- Node305974&#45;&gt;Node306238 -->
<g id="edge34" class="edge">
<title>Node305974&#45;&gt;Node306238</title>
<path fill="none" stroke="#191970" d="M376.3574,-608.5395C385.6622,-630.3552 411.4572,-684.2182 450,-713 452.6066,-714.9464 455.4193,-716.6976 458.3542,-718.2726"/>
<polygon fill="#191970" stroke="#191970" points="456.8964,-721.4545 467.4407,-722.4877 459.8421,-715.1045 456.8964,-721.4545"/>
</g>
<!-- Node306067 -->
<g id="node28" class="node">
<title>Node306067</title>
<g id="a_node28"><a xlink:href="quickjs_8c.html#a260bfa297ff6cb5bd18e229afaa54663" target="_top" xlink:title="JS_AtomToString">
<polygon fill="none" stroke="#ff0000" points="462.5,-456.5 462.5,-475.5 556.5,-475.5 556.5,-456.5 462.5,-456.5"/>
<text text-anchor="middle" x="509.5" y="-463.5" font-family="Helvetica,sans-Serif" font-size="10.00" fill="#000000">JS_AtomToString</text>
</a>
</g>
</g>
<!-- Node305974&#45;&gt;Node306067 -->
<g id="edge39" class="edge">
<title>Node305974&#45;&gt;Node306067</title>
<path fill="none" stroke="#191970" d="M376.3574,-589.4605C385.6622,-567.6448 411.4572,-513.7818 450,-485 452.6066,-483.0536 455.4193,-481.3024 458.3542,-479.7274"/>
<polygon fill="#191970" stroke="#191970" points="459.8421,-482.8955 467.4407,-475.5123 456.8964,-476.5455 459.8421,-482.8955"/>
</g>
<!-- Node306034&#45;&gt;Node306035 -->
<g id="edge8" class="edge">
<title>Node306034&#45;&gt;Node306035</title>
<path fill="none" stroke="#191970" d="M546.6155,-770C563.8429,-770 584.4796,-770 602.6245,-770"/>
<polygon fill="#191970" stroke="#191970" points="602.6923,-773.5001 612.6922,-770 602.6922,-766.5001 602.6923,-773.5001"/>
</g>
<!-- Node306034&#45;&gt;Node306005 -->
<g id="edge10" class="edge">
<title>Node306034&#45;&gt;Node306005</title>
<path fill="none" stroke="#191970" d="M546.5081,-778.9248C554.228,-781.5701 562.1074,-784.8911 569,-789 595.0318,-804.5184 619.2457,-830.1376 633.8308,-847.2868"/>
<polygon fill="#191970" stroke="#191970" points="631.464,-849.9163 640.5387,-855.3844 636.8546,-845.4507 631.464,-849.9163"/>
</g>
<!-- Node306034&#45;&gt;Node306044 -->
<g id="edge11" class="edge">
<title>Node306034&#45;&gt;Node306044</title>
<path fill="none" stroke="#191970" d="M546.5888,-764.5889C554.9385,-761.7633 563.072,-757.4813 569,-751 618.4862,-696.8953 585.7012,-660.7372 605,-590 616.1776,-549.03 632.1673,-501.9227 641.1667,-476.2143"/>
<polygon fill="#191970" stroke="#191970" points="644.5367,-477.1816 644.5612,-466.5868 637.9351,-474.8539 644.5367,-477.1816"/>
</g>
<!-- Node306035&#45;&gt;Node306026 -->
<g id="edge9" class="edge">
<title>Node306035&#45;&gt;Node306026</title>
<path fill="none" stroke="#191970" d="M656.6335,-760.3333C665.6076,-750.1121 679.8708,-733.3717 691,-718 715.9222,-683.5772 741.6187,-640.9644 755.5202,-617.2031"/>
<polygon fill="#191970" stroke="#191970" points="758.5642,-618.9309 760.5616,-608.526 752.5116,-615.4143 758.5642,-618.9309"/>
</g>
<!-- Node306219&#45;&gt;Node306005 -->
<g id="edge14" class="edge">
<title>Node306219&#45;&gt;Node306005</title>
<path fill="none" stroke="#191970" d="M555.6185,-852.3267C569.6759,-854.2552 585.17,-856.3807 599.387,-858.3311"/>
<polygon fill="#191970" stroke="#191970" points="599.0917,-861.8233 609.4747,-859.7149 600.0432,-854.8882 599.0917,-861.8233"/>
</g>
<!-- Node306228&#45;&gt;Node306026 -->
<g id="edge27" class="edge">
<title>Node306228&#45;&gt;Node306026</title>
<path fill="none" stroke="#191970" d="M545.0595,-206.5961C553.5408,-209.3956 562.1185,-213.3687 569,-219 691.8806,-319.556 746.875,-516.9782 761.7018,-579.5157"/>
<polygon fill="#191970" stroke="#191970" points="758.2929,-580.3094 763.9441,-589.2713 765.1151,-578.7414 758.2929,-580.3094"/>
</g>
<!-- Node306228&#45;&gt;Node306044 -->
<g id="edge28" class="edge">
<title>Node306228&#45;&gt;Node306044</title>
<path fill="none" stroke="#191970" d="M545.1069,-205.232C553.8868,-208.0476 562.5973,-212.3697 569,-219 610.0512,-261.5105 586.2194,-290.9676 605,-347 615.8639,-379.4126 630.8148,-416.2614 639.9219,-438.0213"/>
<polygon fill="#191970" stroke="#191970" points="636.7688,-439.5519 643.8797,-447.4059 643.2186,-436.8317 636.7688,-439.5519"/>
</g>
<!-- Node306235&#45;&gt;Node305978 -->
<g id="edge30" class="edge">
<title>Node306235&#45;&gt;Node305978</title>
<path fill="none" stroke="#191970" d="M548.08,-1079.2926C564.3858,-1081.5295 583.5347,-1084.1564 600.6828,-1086.5088"/>
<polygon fill="#191970" stroke="#191970" points="600.675,-1090.0405 611.058,-1087.9321 601.6265,-1083.1054 600.675,-1090.0405"/>
</g>
<!-- Node306235&#45;&gt;Node306026 -->
<g id="edge32" class="edge">
<title>Node306235&#45;&gt;Node306026</title>
<path fill="none" stroke="#191970" d="M542.4294,-1064.4469C551.5926,-1060.8327 561.1698,-1056.0796 569,-1050 641.3202,-993.8485 651.5412,-966.6209 691,-884 735.7123,-790.3791 756.6484,-666.2543 763.4208,-618.6919"/>
<polygon fill="#191970" stroke="#191970" points="766.9206,-618.9315 764.8125,-608.5485 759.9856,-617.9799 766.9206,-618.9315"/>
</g>
<!-- Node306235&#45;&gt;Node306005 -->
<g id="edge31" class="edge">
<title>Node306235&#45;&gt;Node306005</title>
<path fill="none" stroke="#191970" d="M546.1757,-1064.4103C554.4387,-1060.9196 562.6358,-1056.237 569,-1050 581.6427,-1037.61 623.8109,-928.8081 640.8077,-884.0777"/>
<polygon fill="#191970" stroke="#191970" points="644.1142,-885.2292 644.3821,-874.6378 637.5677,-882.7504 644.1142,-885.2292"/>
</g>
<!-- Node306235&#45;&gt;Node306044 -->
<g id="edge33" class="edge">
<title>Node306235&#45;&gt;Node306044</title>
<path fill="none" stroke="#191970" d="M517.8137,-1064.2673C531.2524,-1047.9032 557.4106,-1013.2918 569,-979 624.5911,-814.5123 570.0816,-760.0802 605,-590 613.4979,-548.6083 630.3292,-501.9928 640.226,-476.4092"/>
<polygon fill="#191970" stroke="#191970" points="643.5986,-477.3963 643.9985,-466.809 637.0836,-474.8362 643.5986,-477.3963"/>
</g>
<!-- Node306238&#45;&gt;Node305975 -->
<g id="edge35" class="edge">
<title>Node306238&#45;&gt;Node305975</title>
<path fill="none" stroke="#191970" d="M550.7609,-722.4876C557.1881,-719.9946 563.5092,-716.8797 569,-713 601.0821,-690.3313 625.9227,-650.7129 638.6296,-627.4688"/>
<polygon fill="#191970" stroke="#191970" points="641.7354,-629.0826 643.3183,-618.6067 635.548,-625.809 641.7354,-629.0826"/>
</g>
<!-- Node306238&#45;&gt;Node306026 -->
<g id="edge37" class="edge">
<title>Node306238&#45;&gt;Node306026</title>
<path fill="none" stroke="#191970" d="M543.6402,-722.4882C552.063,-719.7642 560.9687,-716.5562 569,-713 635.0035,-683.7741 707.1207,-638.2101 743.018,-614.5067"/>
<polygon fill="#191970" stroke="#191970" points="745.3555,-617.1555 751.7436,-608.7031 741.4788,-611.3269 745.3555,-617.1555"/>
</g>
<!-- Node306238&#45;&gt;Node306005 -->
<g id="edge36" class="edge">
<title>Node306238&#45;&gt;Node306005</title>
<path fill="none" stroke="#191970" d="M551.5287,-741.5534C557.7224,-744.0311 563.7695,-747.1305 569,-751 586.9136,-764.2526 620.2167,-817.9277 637.2943,-846.6507"/>
<polygon fill="#191970" stroke="#191970" points="634.324,-848.5042 642.4182,-855.3405 640.3539,-844.9487 634.324,-848.5042"/>
</g>
<!-- Node306238&#45;&gt;Node306044 -->
<g id="edge38" class="edge">
<title>Node306238&#45;&gt;Node306044</title>
<path fill="none" stroke="#191970" d="M555.7212,-722.4289C560.6358,-719.9696 565.2131,-716.8803 569,-713 608.7832,-672.2356 588.2371,-644.4376 605,-590 617.4979,-549.4133 633.0027,-502.1653 641.5632,-476.3294"/>
<polygon fill="#191970" stroke="#191970" points="644.9476,-477.2431 644.7778,-466.6496 638.3044,-475.0369 644.9476,-477.2431"/>
</g>
</g>
</svg>
