<?xml version="1.0" encoding="UTF-8" standalone="no"?>
<!DOCTYPE svg PUBLIC "-//W3C//DTD SVG 1.1//EN"
 "http://www.w3.org/Graphics/SVG/1.1/DTD/svg11.dtd">
<!-- Generated by graphviz version 2.40.1 (20161225.0304)
 -->
<!-- Title: JS_NewStringLen Pages: 1 -->
<!--zoomable 330 -->
<svg id="main" version="1.1" xmlns="http://www.w3.org/2000/svg" xmlns:xlink="http://www.w3.org/1999/xlink" xml:space="preserve" onload="init(evt)">
<style type="text/css"><![CDATA[
.edge:hover path { stroke: red; }
.edge:hover polygon { stroke: red; fill: red; }
]]></style>
<script type="text/javascript"><![CDATA[
var edges = document.getElementsByTagName('g');
if (edges && edges.length) {
  for (var i=0;i<edges.length;i++) {
    if (edges[i].id.substr(0,4)=='edge') {
      edges[i].setAttribute('class','edge');
    }
  }
}
]]></script>
        <defs>
                <circle id="rim" cx="0" cy="0" r="7"/>
                <circle id="rim2" cx="0" cy="0" r="3.5"/>
                <g id="zoomPlus">
                        <use xlink:href="#rim" fill="#404040">
                                <set attributeName="fill" to="#808080" begin="zoomplus.mouseover" end="zoomplus.mouseout"/>
                        </use>
                        <path d="M-4,0h8M0,-4v8" fill="none" stroke="white" stroke-width="1.5" pointer-events="none"/>
                </g>
                <g id="zoomMin">
                        <use xlink:href="#rim" fill="#404040">
                                <set attributeName="fill" to="#808080" begin="zoomminus.mouseover" end="zoomminus.mouseout"/>
                        </use>
                        <path d="M-4,0h8" fill="none" stroke="white" stroke-width="1.5" pointer-events="none"/>
                </g>
                <g id="dirArrow">
                        <path fill="none" stroke="white" stroke-width="1.5" d="M0,-3.0v7 M-2.5,-0.5L0,-3.0L2.5,-0.5"/>
                </g>
               <g id="resetDef">
                       <use xlink:href="#rim2" fill="#404040">
                               <set attributeName="fill" to="#808080" begin="reset.mouseover" end="reset.mouseout"/>
                       </use>
               </g>
        </defs>

<script type="text/javascript">
var viewWidth = 807;
var viewHeight = 330;
var sectionId = 'dynsection-341';
</script>
<script xlink:href="svgpan.js"/>
<svg id="graph" class="graph">
<g id="viewport">
<title>JS_NewStringLen</title>
<!-- Node109407 -->
<g id="node1" class="node">
<title>Node109407</title>
<polygon fill="#bfbfbf" stroke="#000000" points="0,-152.5 0,-171.5 95,-171.5 95,-152.5 0,-152.5"/>
<text text-anchor="middle" x="47.5" y="-159.5" font-family="Helvetica,sans-Serif" font-size="10.00" fill="#000000">JS_NewStringLen</text>
</g>
<!-- Node109408 -->
<g id="node2" class="node">
<title>Node109408</title>
<g id="a_node2"><a xlink:href="quickjs_8c.html#a853f0924d441ea4225488f37c8b69f9a" target="_top" xlink:title="__attribute__">
<polygon fill="none" stroke="#000000" points="726,-190.5 726,-209.5 799,-209.5 799,-190.5 726,-190.5"/>
<text text-anchor="middle" x="762.5" y="-197.5" font-family="Helvetica,sans-Serif" font-size="10.00" fill="#000000">__attribute__</text>
</a>
</g>
</g>
<!-- Node109407&#45;&gt;Node109408 -->
<g id="edge1" class="edge">
<title>Node109407&#45;&gt;Node109408</title>
<path fill="none" stroke="#191970" d="M50.3395,-171.8672C58.254,-197.3712 83.1844,-265.5385 131,-295 207.3945,-342.0705 242.2684,-314 332,-314 332,-314 332,-314 480,-314 576.7103,-314 603.5868,-300.424 690,-257 711.0482,-246.4229 731.8492,-229.1769 745.7352,-216.4207"/>
<polygon fill="#191970" stroke="#191970" points="748.1865,-218.9199 753.0615,-209.5133 743.3845,-213.8267 748.1865,-218.9199"/>
</g>
<!-- Node109409 -->
<g id="node3" class="node">
<title>Node109409</title>
<g id="a_node3"><a xlink:href="quickjs_8c.html#aa923510185fe24e3083baf7405b09f51" target="_top" xlink:title="js_new_string8">
<polygon fill="none" stroke="#000000" points="142.5,-266.5 142.5,-285.5 224.5,-285.5 224.5,-266.5 142.5,-266.5"/>
<text text-anchor="middle" x="183.5" y="-273.5" font-family="Helvetica,sans-Serif" font-size="10.00" fill="#000000">js_new_string8</text>
</a>
</g>
</g>
<!-- Node109407&#45;&gt;Node109409 -->
<g id="edge2" class="edge">
<title>Node109407&#45;&gt;Node109409</title>
<path fill="none" stroke="#191970" d="M53.4377,-171.5021C65.6929,-190.383 95.6236,-232.8761 131,-257 133.8492,-258.9429 136.9205,-260.7128 140.0971,-262.3202"/>
<polygon fill="#191970" stroke="#191970" points="138.6756,-265.5185 149.2313,-266.4286 141.5471,-259.1346 138.6756,-265.5185"/>
</g>
<!-- Node109419 -->
<g id="node9" class="node">
<title>Node109419</title>
<g id="a_node9"><a xlink:href="quickjs_8c.html#accfc3d1dcaa88c88402cb245ccaf4fdb" target="_top" xlink:title="string_buffer_end">
<polygon fill="none" stroke="#000000" points="137.5,-228.5 137.5,-247.5 229.5,-247.5 229.5,-228.5 137.5,-228.5"/>
<text text-anchor="middle" x="183.5" y="-235.5" font-family="Helvetica,sans-Serif" font-size="10.00" fill="#000000">string_buffer_end</text>
</a>
</g>
</g>
<!-- Node109407&#45;&gt;Node109419 -->
<g id="edge9" class="edge">
<title>Node109407&#45;&gt;Node109419</title>
<path fill="none" stroke="#191970" d="M59.3452,-171.5148C75.0091,-183.7525 103.814,-205.084 131,-219 134.9906,-221.0427 139.2529,-222.9675 143.5584,-224.7503"/>
<polygon fill="#191970" stroke="#191970" points="142.376,-228.0459 152.9643,-228.417 144.9185,-221.5239 142.376,-228.0459"/>
</g>
<!-- Node109422 -->
<g id="node12" class="node">
<title>Node109422</title>
<g id="a_node12"><a xlink:href="quickjs_8c.html#a266b4993a59d9e34537386e62b9f3d4f" target="_top" xlink:title="string_buffer_free">
<polygon fill="none" stroke="#000000" points="137.5,-190.5 137.5,-209.5 229.5,-209.5 229.5,-190.5 137.5,-190.5"/>
<text text-anchor="middle" x="183.5" y="-197.5" font-family="Helvetica,sans-Serif" font-size="10.00" fill="#000000">string_buffer_free</text>
</a>
</g>
</g>
<!-- Node109407&#45;&gt;Node109422 -->
<g id="edge13" class="edge">
<title>Node109407&#45;&gt;Node109422</title>
<path fill="none" stroke="#191970" d="M81.8185,-171.589C99.2943,-176.4719 120.7407,-182.4643 139.4251,-187.685"/>
<polygon fill="#191970" stroke="#191970" points="138.6194,-191.0938 149.1924,-190.4141 140.5032,-184.3521 138.6194,-191.0938"/>
</g>
<!-- Node109423 -->
<g id="node13" class="node">
<title>Node109423</title>
<g id="a_node13"><a xlink:href="quickjs_8c.html#a9c11961b0adafedd064b294612d0c2f3" target="_top" xlink:title="string_buffer_init">
<polygon fill="none" stroke="#000000" points="139,-152.5 139,-171.5 228,-171.5 228,-152.5 139,-152.5"/>
<text text-anchor="middle" x="183.5" y="-159.5" font-family="Helvetica,sans-Serif" font-size="10.00" fill="#000000">string_buffer_init</text>
</a>
</g>
</g>
<!-- Node109407&#45;&gt;Node109423 -->
<g id="edge15" class="edge">
<title>Node109407&#45;&gt;Node109423</title>
<path fill="none" stroke="#191970" d="M95.0662,-162C105.9743,-162 117.6558,-162 128.8366,-162"/>
<polygon fill="#191970" stroke="#191970" points="128.9274,-165.5001 138.9273,-162 128.9273,-158.5001 128.9274,-165.5001"/>
</g>
<!-- Node109425 -->
<g id="node15" class="node">
<title>Node109425</title>
<g id="a_node15"><a xlink:href="quickjs_8c.html#a9b8fb6b5ce638616691f7bf7881fa57d" target="_top" xlink:title="string_buffer_putc16">
<polygon fill="none" stroke="#000000" points="131,-114.5 131,-133.5 236,-133.5 236,-114.5 131,-114.5"/>
<text text-anchor="middle" x="183.5" y="-121.5" font-family="Helvetica,sans-Serif" font-size="10.00" fill="#000000">string_buffer_putc16</text>
</a>
</g>
</g>
<!-- Node109407&#45;&gt;Node109425 -->
<g id="edge18" class="edge">
<title>Node109407&#45;&gt;Node109425</title>
<path fill="none" stroke="#191970" d="M81.8185,-152.411C99.2943,-147.5281 120.7407,-141.5357 139.4251,-136.315"/>
<polygon fill="#191970" stroke="#191970" points="140.5032,-139.6479 149.1924,-133.5859 138.6194,-132.9062 140.5032,-139.6479"/>
</g>
<!-- Node109432 -->
<g id="node19" class="node">
<title>Node109432</title>
<g id="a_node19"><a xlink:href="quickjs_8c.html#a874fcee73f61cc997ec1d10cc6711554" target="_top" xlink:title="string_buffer_putc8">
<polygon fill="none" stroke="#000000" points="282,-76.5 282,-95.5 382,-95.5 382,-76.5 282,-76.5"/>
<text text-anchor="middle" x="332" y="-83.5" font-family="Helvetica,sans-Serif" font-size="10.00" fill="#000000">string_buffer_putc8</text>
</a>
</g>
</g>
<!-- Node109407&#45;&gt;Node109432 -->
<g id="edge24" class="edge">
<title>Node109407&#45;&gt;Node109432</title>
<path fill="none" stroke="#191970" d="M57.8476,-152.3058C72.7248,-139.0248 101.6153,-115.6136 131,-105 176.2831,-88.6441 230.8392,-84.37 271.6804,-83.9213"/>
<polygon fill="#191970" stroke="#191970" points="271.7672,-87.4211 281.7543,-83.8846 271.7416,-80.4211 271.7672,-87.4211"/>
</g>
<!-- Node109433 -->
<g id="node20" class="node">
<title>Node109433</title>
<g id="a_node20"><a xlink:href="quickjs_8c.html#a0b130652cf11eb0eb9f7e3ee6c5d7c6a" target="_top" xlink:title="string_buffer_write8">
<polygon fill="none" stroke="#000000" points="281,-38.5 281,-57.5 383,-57.5 383,-38.5 281,-38.5"/>
<text text-anchor="middle" x="332" y="-45.5" font-family="Helvetica,sans-Serif" font-size="10.00" fill="#000000">string_buffer_write8</text>
</a>
</g>
</g>
<!-- Node109407&#45;&gt;Node109433 -->
<g id="edge26" class="edge">
<title>Node109407&#45;&gt;Node109433</title>
<path fill="none" stroke="#191970" d="M54.2521,-152.3413C67.0229,-134.899 96.5457,-98.3486 131,-81 174.3849,-59.1546 229.0798,-51.2513 270.4574,-48.6178"/>
<polygon fill="#191970" stroke="#191970" points="270.8823,-52.0999 280.6752,-48.0566 270.4983,-45.1104 270.8823,-52.0999"/>
</g>
<!-- Node109434 -->
<g id="node21" class="node">
<title>Node109434</title>
<g id="a_node21"><a xlink:href="cutils_8h.html#a69529af6d6911dd0ead90eef221b2e10" target="_top" xlink:title="unicode_from_utf8">
<polygon fill="none" stroke="#000000" points="135,-.5 135,-19.5 232,-19.5 232,-.5 135,-.5"/>
<text text-anchor="middle" x="183.5" y="-7.5" font-family="Helvetica,sans-Serif" font-size="10.00" fill="#000000">unicode_from_utf8</text>
</a>
</g>
</g>
<!-- Node109407&#45;&gt;Node109434 -->
<g id="edge28" class="edge">
<title>Node109407&#45;&gt;Node109434</title>
<path fill="none" stroke="#191970" d="M51.5063,-152.3312C61.5937,-129.0366 90.1811,-69.1402 131,-34 135.4764,-30.1464 140.6743,-26.7951 146.0242,-23.9191"/>
<polygon fill="#191970" stroke="#191970" points="147.6063,-27.0417 155.0708,-19.5229 144.5467,-20.7457 147.6063,-27.0417"/>
</g>
<!-- Node109410 -->
<g id="node4" class="node">
<title>Node109410</title>
<g id="a_node4"><a xlink:href="quickjs_8c.html#ad303a9bc56766627b5fca41574933930" target="_top" xlink:title="js_alloc_string">
<polygon fill="none" stroke="#000000" points="440.5,-209.5 440.5,-228.5 519.5,-228.5 519.5,-209.5 440.5,-209.5"/>
<text text-anchor="middle" x="480" y="-216.5" font-family="Helvetica,sans-Serif" font-size="10.00" fill="#000000">js_alloc_string</text>
</a>
</g>
</g>
<!-- Node109409&#45;&gt;Node109410 -->
<g id="edge3" class="edge">
<title>Node109409&#45;&gt;Node109410</title>
<path fill="none" stroke="#191970" d="M224.7512,-276.9661C267.47,-276.8817 335.72,-273.6874 392,-257 409.3453,-251.857 411.4657,-245.3435 428,-238 432.4854,-236.0079 437.2503,-234.0545 442.0047,-232.2038"/>
<polygon fill="#191970" stroke="#191970" points="443.5313,-235.3689 451.6563,-228.5693 441.0644,-228.818 443.5313,-235.3689"/>
</g>
<!-- Node109413 -->
<g id="node7" class="node">
<title>Node109413</title>
<g id="a_node7"><a xlink:href="quickjs_8c.html#a260bfa297ff6cb5bd18e229afaa54663" target="_top" xlink:title="JS_AtomToString">
<polygon fill="none" stroke="#000000" points="285,-228.5 285,-247.5 379,-247.5 379,-228.5 285,-228.5"/>
<text text-anchor="middle" x="332" y="-235.5" font-family="Helvetica,sans-Serif" font-size="10.00" fill="#000000">JS_AtomToString</text>
</a>
</g>
</g>
<!-- Node109409&#45;&gt;Node109413 -->
<g id="edge7" class="edge">
<title>Node109409&#45;&gt;Node109413</title>
<path fill="none" stroke="#191970" d="M220.9728,-266.411C240.3925,-261.4417 264.3025,-255.3233 284.9542,-250.0387"/>
<polygon fill="#191970" stroke="#191970" points="285.9765,-253.3899 294.7966,-247.5201 284.2411,-246.6084 285.9765,-253.3899"/>
</g>
<!-- Node109411 -->
<g id="node5" class="node">
<title>Node109411</title>
<g id="a_node5"><a xlink:href="quickjs_8c.html#a5837dfc67b8f09e0579a28c827b39d93" target="_top" xlink:title="js_alloc_string_rt">
<polygon fill="none" stroke="#000000" points="584,-228.5 584,-247.5 674,-247.5 674,-228.5 584,-228.5"/>
<text text-anchor="middle" x="629" y="-235.5" font-family="Helvetica,sans-Serif" font-size="10.00" fill="#000000">js_alloc_string_rt</text>
</a>
</g>
</g>
<!-- Node109410&#45;&gt;Node109411 -->
<g id="edge4" class="edge">
<title>Node109410&#45;&gt;Node109411</title>
<path fill="none" stroke="#191970" d="M519.5381,-224.0418C536.1193,-226.1561 555.6887,-228.6516 573.6618,-230.9434"/>
<polygon fill="#191970" stroke="#191970" points="573.3756,-234.4352 583.7381,-232.2283 574.2612,-227.4914 573.3756,-234.4352"/>
</g>
<!-- Node109412 -->
<g id="node6" class="node">
<title>Node109412</title>
<g id="a_node6"><a xlink:href="quickjs_8c.html#a344d6c0e45d9bf3861fd9269724045a2" target="_top" xlink:title="JS_ThrowOutOfMemory">
<polygon fill="none" stroke="#000000" points="568,-190.5 568,-209.5 690,-209.5 690,-190.5 568,-190.5"/>
<text text-anchor="middle" x="629" y="-197.5" font-family="Helvetica,sans-Serif" font-size="10.00" fill="#000000">JS_ThrowOutOfMemory</text>
</a>
</g>
</g>
<!-- Node109410&#45;&gt;Node109412 -->
<g id="edge5" class="edge">
<title>Node109410&#45;&gt;Node109412</title>
<path fill="none" stroke="#191970" d="M519.5381,-213.9582C531.3549,-212.4514 544.6894,-210.751 557.8822,-209.0687"/>
<polygon fill="#191970" stroke="#191970" points="558.4388,-212.5262 567.9157,-207.7893 557.5532,-205.5824 558.4388,-212.5262"/>
</g>
<!-- Node109412&#45;&gt;Node109408 -->
<g id="edge6" class="edge">
<title>Node109412&#45;&gt;Node109408</title>
<path fill="none" stroke="#191970" d="M690.2799,-200C698.8587,-200 707.5588,-200 715.8083,-200"/>
<polygon fill="#191970" stroke="#191970" points="715.9737,-203.5001 725.9737,-200 715.9736,-196.5001 715.9737,-203.5001"/>
</g>
<!-- Node109414 -->
<g id="node8" class="node">
<title>Node109414</title>
<g id="a_node8"><a xlink:href="quickjs_8c.html#a06ff303a11e6641cbf1f6634e6a61811" target="_top" xlink:title="__JS_AtomToValue">
<polygon fill="none" stroke="#ff0000" points="428,-247.5 428,-266.5 532,-266.5 532,-247.5 428,-247.5"/>
<text text-anchor="middle" x="480" y="-254.5" font-family="Helvetica,sans-Serif" font-size="10.00" fill="#000000">__JS_AtomToValue</text>
</a>
</g>
</g>
<!-- Node109413&#45;&gt;Node109414 -->
<g id="edge8" class="edge">
<title>Node109413&#45;&gt;Node109414</title>
<path fill="none" stroke="#191970" d="M379.235,-244.064C391.4506,-245.6322 404.7907,-247.3448 417.6495,-248.9955"/>
<polygon fill="#191970" stroke="#191970" points="417.4638,-252.5003 427.8281,-250.3023 418.3552,-245.5573 417.4638,-252.5003"/>
</g>
<!-- Node109419&#45;&gt;Node109413 -->
<g id="edge10" class="edge">
<title>Node109419&#45;&gt;Node109413</title>
<path fill="none" stroke="#191970" d="M229.6723,-238C243.9229,-238 259.7917,-238 274.6978,-238"/>
<polygon fill="#191970" stroke="#191970" points="274.832,-241.5001 284.832,-238 274.8319,-234.5001 274.832,-241.5001"/>
</g>
<!-- Node109420 -->
<g id="node10" class="node">
<title>Node109420</title>
<g id="a_node10"><a xlink:href="quickjs_8c.html#a80e54dcf9ac687d4ccc2f90273565f30" target="_top" xlink:title="js_free">
<polygon fill="none" stroke="#000000" points="309,-190.5 309,-209.5 355,-209.5 355,-190.5 309,-190.5"/>
<text text-anchor="middle" x="332" y="-197.5" font-family="Helvetica,sans-Serif" font-size="10.00" fill="#000000">js_free</text>
</a>
</g>
</g>
<!-- Node109419&#45;&gt;Node109420 -->
<g id="edge11" class="edge">
<title>Node109419&#45;&gt;Node109420</title>
<path fill="none" stroke="#191970" d="M220.9728,-228.411C245.0732,-222.2439 276.0894,-214.3071 299.2109,-208.3905"/>
<polygon fill="#191970" stroke="#191970" points="300.0888,-211.7787 308.9089,-205.9088 298.3534,-204.9972 300.0888,-211.7787"/>
</g>
<!-- Node109421 -->
<g id="node11" class="node">
<title>Node109421</title>
<g id="a_node11"><a xlink:href="quickjs_8c.html#a69e19dda8a93d613203e0baa06f0ed8d" target="_top" xlink:title="js_free_rt">
<polygon fill="none" stroke="#000000" points="451.5,-171.5 451.5,-190.5 508.5,-190.5 508.5,-171.5 451.5,-171.5"/>
<text text-anchor="middle" x="480" y="-178.5" font-family="Helvetica,sans-Serif" font-size="10.00" fill="#000000">js_free_rt</text>
</a>
</g>
</g>
<!-- Node109420&#45;&gt;Node109421 -->
<g id="edge12" class="edge">
<title>Node109420&#45;&gt;Node109421</title>
<path fill="none" stroke="#191970" d="M355.125,-197.0313C378.1935,-194.0697 414.0467,-189.467 441.4287,-185.9517"/>
<polygon fill="#191970" stroke="#191970" points="441.9912,-189.4083 451.4641,-184.6634 441.0998,-182.4653 441.9912,-189.4083"/>
</g>
<!-- Node109422&#45;&gt;Node109420 -->
<g id="edge14" class="edge">
<title>Node109422&#45;&gt;Node109420</title>
<path fill="none" stroke="#191970" d="M229.6723,-200C252.0034,-200 278.3081,-200 298.6553,-200"/>
<polygon fill="#191970" stroke="#191970" points="298.7,-203.5001 308.6999,-200 298.6999,-196.5001 298.7,-203.5001"/>
</g>
<!-- Node109424 -->
<g id="node14" class="node">
<title>Node109424</title>
<g id="a_node14"><a xlink:href="quickjs_8c.html#ac43dee2ed14e80248f1af195bd3d8181" target="_top" xlink:title="string_buffer_init2">
<polygon fill="none" stroke="#000000" points="285,-152.5 285,-171.5 379,-171.5 379,-152.5 285,-152.5"/>
<text text-anchor="middle" x="332" y="-159.5" font-family="Helvetica,sans-Serif" font-size="10.00" fill="#000000">string_buffer_init2</text>
</a>
</g>
</g>
<!-- Node109423&#45;&gt;Node109424 -->
<g id="edge16" class="edge">
<title>Node109423&#45;&gt;Node109424</title>
<path fill="none" stroke="#191970" d="M228.0549,-162C242.772,-162 259.3527,-162 274.8769,-162"/>
<polygon fill="#191970" stroke="#191970" points="274.8958,-165.5001 284.8957,-162 274.8957,-158.5001 274.8958,-165.5001"/>
</g>
<!-- Node109424&#45;&gt;Node109410 -->
<g id="edge17" class="edge">
<title>Node109424&#45;&gt;Node109410</title>
<path fill="none" stroke="#191970" d="M365.7059,-171.509C374.3849,-174.2731 383.6334,-177.5006 392,-181 408.6905,-187.981 411.4657,-192.6565 428,-200 432.4854,-201.9921 437.2503,-203.9455 442.0047,-205.7962"/>
<polygon fill="#191970" stroke="#191970" points="441.0644,-209.182 451.6563,-209.4307 443.5313,-202.6311 441.0644,-209.182"/>
</g>
<!-- Node109426 -->
<g id="node16" class="node">
<title>Node109426</title>
<g id="a_node16"><a xlink:href="quickjs_8c.html#a08e52b8382e2347db73c950c39af413c" target="_top" xlink:title="string_buffer_putc_slow">
<polygon fill="none" stroke="#000000" points="272,-114.5 272,-133.5 392,-133.5 392,-114.5 272,-114.5"/>
<text text-anchor="middle" x="332" y="-121.5" font-family="Helvetica,sans-Serif" font-size="10.00" fill="#000000">string_buffer_putc_slow</text>
</a>
</g>
</g>
<!-- Node109425&#45;&gt;Node109426 -->
<g id="edge19" class="edge">
<title>Node109425&#45;&gt;Node109426</title>
<path fill="none" stroke="#191970" d="M236.2737,-124C244.5425,-124 253.2001,-124 261.7856,-124"/>
<polygon fill="#191970" stroke="#191970" points="261.8034,-127.5001 271.8034,-124 261.8034,-120.5001 261.8034,-127.5001"/>
</g>
<!-- Node109427 -->
<g id="node17" class="node">
<title>Node109427</title>
<g id="a_node17"><a xlink:href="quickjs_8c.html#a317ccdca83843c76330ace89fb055b56" target="_top" xlink:title="string_buffer_realloc">
<polygon fill="none" stroke="#ff0000" points="428,-76.5 428,-95.5 532,-95.5 532,-76.5 428,-76.5"/>
<text text-anchor="middle" x="480" y="-83.5" font-family="Helvetica,sans-Serif" font-size="10.00" fill="#000000">string_buffer_realloc</text>
</a>
</g>
</g>
<!-- Node109426&#45;&gt;Node109427 -->
<g id="edge20" class="edge">
<title>Node109426&#45;&gt;Node109427</title>
<path fill="none" stroke="#191970" d="M369.3466,-114.411C388.7009,-109.4417 412.5304,-103.3233 433.1126,-98.0387"/>
<polygon fill="#191970" stroke="#191970" points="434.1065,-101.3971 442.9219,-95.5201 432.3656,-94.617 434.1065,-101.3971"/>
</g>
<!-- Node109431 -->
<g id="node18" class="node">
<title>Node109431</title>
<g id="a_node18"><a xlink:href="quickjs_8c.html#a3a6ad85d7c6ef1ba1854e51b762ee0ea" target="_top" xlink:title="string_buffer_widen">
<polygon fill="none" stroke="#ff0000" points="578.5,-114.5 578.5,-133.5 679.5,-133.5 679.5,-114.5 578.5,-114.5"/>
<text text-anchor="middle" x="629" y="-121.5" font-family="Helvetica,sans-Serif" font-size="10.00" fill="#000000">string_buffer_widen</text>
</a>
</g>
</g>
<!-- Node109426&#45;&gt;Node109431 -->
<g id="edge23" class="edge">
<title>Node109426&#45;&gt;Node109431</title>
<path fill="none" stroke="#191970" d="M392.1024,-124C443.3223,-124 516.602,-124 568.0604,-124"/>
<polygon fill="#191970" stroke="#191970" points="568.3709,-127.5001 578.3708,-124 568.3708,-120.5001 568.3709,-127.5001"/>
</g>
<!-- Node109427&#45;&gt;Node109408 -->
<g id="edge21" class="edge">
<title>Node109427&#45;&gt;Node109408</title>
<path fill="none" stroke="#191970" d="M532.14,-79.5104C576.8178,-76.4567 641.4515,-78.1885 690,-105 721.0267,-122.1349 742.9296,-158.7066 754.0688,-181.1431"/>
<polygon fill="#191970" stroke="#191970" points="750.9796,-182.7974 758.4235,-190.3365 757.3058,-179.8007 750.9796,-182.7974"/>
</g>
<!-- Node109427&#45;&gt;Node109431 -->
<g id="edge22" class="edge">
<title>Node109427&#45;&gt;Node109431</title>
<path fill="none" stroke="#191970" d="M517.599,-95.589C537.084,-100.5583 561.0745,-106.6767 581.7958,-111.9613"/>
<polygon fill="#191970" stroke="#191970" points="581.1166,-115.4001 591.6714,-114.4799 582.8465,-108.6172 581.1166,-115.4001"/>
</g>
<!-- Node109432&#45;&gt;Node109427 -->
<g id="edge25" class="edge">
<title>Node109432&#45;&gt;Node109427</title>
<path fill="none" stroke="#191970" d="M382.106,-86C393.5214,-86 405.7865,-86 417.6427,-86"/>
<polygon fill="#191970" stroke="#191970" points="417.9248,-89.5001 427.9248,-86 417.9248,-82.5001 417.9248,-89.5001"/>
</g>
<!-- Node109433&#45;&gt;Node109427 -->
<g id="edge27" class="edge">
<title>Node109433&#45;&gt;Node109427</title>
<path fill="none" stroke="#191970" d="M369.3466,-57.589C388.7009,-62.5583 412.5304,-68.6767 433.1126,-73.9613"/>
<polygon fill="#191970" stroke="#191970" points="432.3656,-77.383 442.9219,-76.4799 434.1065,-70.6029 432.3656,-77.383"/>
</g>
</g>
</svg>
        <g id="navigator" transform="translate(0 0)" fill="#404254">
                <rect fill="#f2f5e9" fill-opacity="0.5" stroke="#606060" stroke-width=".5" x="0" y="0" width="60" height="60"/>
                <use id="zoomplus" xlink:href="#zoomPlus" x="17" y="9" onmousedown="handleZoom(evt,'in')"/>
                <use id="zoomminus" xlink:href="#zoomMin" x="42" y="9" onmousedown="handleZoom(evt,'out')"/>
                <use id="reset" xlink:href="#resetDef" x="30" y="36" onmousedown="handleReset()"/>
                <g id="arrowUp" xlink:href="#dirArrow" transform="translate(30 24)" onmousedown="handlePan(0,-1)">
                  <use xlink:href="#rim" fill="#404040">
                        <set attributeName="fill" to="#808080" begin="arrowUp.mouseover" end="arrowUp.mouseout"/>
                  </use>
                  <path fill="none" stroke="white" stroke-width="1.5" d="M0,-3.0v7 M-2.5,-0.5L0,-3.0L2.5,-0.5"/>
                </g>
                <g id="arrowRight" xlink:href="#dirArrow" transform="rotate(90) translate(36 -43)" onmousedown="handlePan(1,0)">
                  <use xlink:href="#rim" fill="#404040">
                        <set attributeName="fill" to="#808080" begin="arrowRight.mouseover" end="arrowRight.mouseout"/>
                  </use>
                  <path fill="none" stroke="white" stroke-width="1.5" d="M0,-3.0v7 M-2.5,-0.5L0,-3.0L2.5,-0.5"/>
                </g>
                <g id="arrowDown" xlink:href="#dirArrow" transform="rotate(180) translate(-30 -48)" onmousedown="handlePan(0,1)">
                  <use xlink:href="#rim" fill="#404040">
                        <set attributeName="fill" to="#808080" begin="arrowDown.mouseover" end="arrowDown.mouseout"/>
                  </use>
                  <path fill="none" stroke="white" stroke-width="1.5" d="M0,-3.0v7 M-2.5,-0.5L0,-3.0L2.5,-0.5"/>
                </g>
                <g id="arrowLeft" xlink:href="#dirArrow" transform="rotate(270) translate(-36 17)" onmousedown="handlePan(-1,0)">
                  <use xlink:href="#rim" fill="#404040">
                        <set attributeName="fill" to="#808080" begin="arrowLeft.mouseover" end="arrowLeft.mouseout"/>
                  </use>
                  <path fill="none" stroke="white" stroke-width="1.5" d="M0,-3.0v7 M-2.5,-0.5L0,-3.0L2.5,-0.5"/>
                </g>
        </g>
        <svg viewBox="0 0 15 15" width="100%" height="30px" preserveAspectRatio="xMaxYMin meet">
         <g id="arrow_out" transform="scale(0.3 0.3)">
          <a xlink:href="quickjs_8c_ac34cc554aab1e98c45a7f845fff64385_cgraph_org.svg" target="_base">
           <rect id="button" ry="5" rx="5" y="6" x="6" height="38" width="38"
                fill="#f2f5e9" fill-opacity="0.5" stroke="#606060" stroke-width="1.0"/>
           <path id="arrow"
             d="M 11.500037,31.436501 C 11.940474,20.09759 22.043105,11.32322 32.158766,21.979434 L 37.068811,17.246167 C 37.068811,17.246167 37.088388,32 37.088388,32 L 22.160133,31.978069 C 22.160133,31.978069 26.997745,27.140456 26.997745,27.140456 C 18.528582,18.264221 13.291696,25.230495 11.500037,31.436501 z"
             style="fill:#404040;"/>
          </a>
         </g>
        </svg>
</svg>
