<?xml version="1.0" encoding="UTF-8" standalone="no"?>
<!DOCTYPE svg PUBLIC "-//W3C//DTD SVG 1.1//EN"
 "http://www.w3.org/Graphics/SVG/1.1/DTD/svg11.dtd">
<!-- Generated by graphviz version 2.40.1 (20161225.0304)
 -->
<!-- Title: js_global_decodeURI Pages: 1 -->
<svg width="783pt" height="368pt"
 viewBox="0.00 0.00 783.00 367.90" xmlns="http://www.w3.org/2000/svg" xmlns:xlink="http://www.w3.org/1999/xlink">
<g id="graph0" class="graph" transform="scale(1 1) rotate(0) translate(4 363.897)">
<title>js_global_decodeURI</title>
<!-- Node460842 -->
<g id="node1" class="node">
<title>Node460842</title>
<polygon fill="#bfbfbf" stroke="#000000" points="0,-171.5 0,-190.5 110,-190.5 110,-171.5 0,-171.5"/>
<text text-anchor="middle" x="55" y="-178.5" font-family="Helvetica,sans-Serif" font-size="10.00" fill="#000000">js_global_decodeURI</text>
</g>
<!-- Node460843 -->
<g id="node2" class="node">
<title>Node460843</title>
<g id="a_node2"><a xlink:href="quickjs_8c.html#a8a7c186e12bc42411f459e3ebb1ba8d4" target="_top" xlink:title="hex_decode">
<polygon fill="none" stroke="#000000" points="159,-304.5 159,-323.5 228,-323.5 228,-304.5 159,-304.5"/>
<text text-anchor="middle" x="193.5" y="-311.5" font-family="Helvetica,sans-Serif" font-size="10.00" fill="#000000">hex_decode</text>
</a>
</g>
</g>
<!-- Node460842&#45;&gt;Node460843 -->
<g id="edge1" class="edge">
<title>Node460842&#45;&gt;Node460843</title>
<path fill="none" stroke="#191970" d="M60.3214,-190.6435C72.6691,-212.208 105.3396,-264.8013 146,-295 148.3396,-296.7377 150.8599,-298.342 153.476,-299.8187"/>
<polygon fill="#191970" stroke="#191970" points="152.1033,-303.0448 162.6167,-304.3556 155.2154,-296.7746 152.1033,-303.0448"/>
</g>
<!-- Node460844 -->
<g id="node3" class="node">
<title>Node460844</title>
<g id="a_node3"><a xlink:href="quickjs_8c.html#a80398f847e2e83c2613b638719bf6fda" target="_top" xlink:title="string_get">
<polygon fill="none" stroke="#000000" points="435.5,-304.5 435.5,-323.5 494.5,-323.5 494.5,-304.5 435.5,-304.5"/>
<text text-anchor="middle" x="465" y="-311.5" font-family="Helvetica,sans-Serif" font-size="10.00" fill="#000000">string_get</text>
</a>
</g>
</g>
<!-- Node460842&#45;&gt;Node460844 -->
<g id="edge29" class="edge">
<title>Node460842&#45;&gt;Node460844</title>
<path fill="none" stroke="#191970" d="M57.3159,-190.8743C64.5717,-219.2712 89.8102,-301.1499 146,-333 238.355,-385.3495 370.8684,-348.8266 431.91,-327.0401"/>
<polygon fill="#191970" stroke="#191970" points="433.2347,-330.2823 441.4208,-323.5564 430.8271,-323.7094 433.2347,-330.2823"/>
</g>
<!-- Node460847 -->
<g id="node6" class="node">
<title>Node460847</title>
<g id="a_node6"><a xlink:href="quickjs_8c.html#a48f67c8ef99da3869075b6f8a1daaf17" target="_top" xlink:title="isURIReserved">
<polygon fill="none" stroke="#000000" points="151.5,-266.5 151.5,-285.5 235.5,-285.5 235.5,-266.5 151.5,-266.5"/>
<text text-anchor="middle" x="193.5" y="-273.5" font-family="Helvetica,sans-Serif" font-size="10.00" fill="#000000">isURIReserved</text>
</a>
</g>
</g>
<!-- Node460842&#45;&gt;Node460847 -->
<g id="edge6" class="edge">
<title>Node460842&#45;&gt;Node460847</title>
<path fill="none" stroke="#191970" d="M65.9686,-190.7093C82.5632,-205.1254 115.3713,-232.5745 146,-252 151.4276,-255.4423 157.4127,-258.786 163.2517,-261.8304"/>
<polygon fill="#191970" stroke="#191970" points="161.7,-264.9677 172.2057,-266.3393 164.8484,-258.7156 161.7,-264.9677"/>
</g>
<!-- Node460848 -->
<g id="node7" class="node">
<title>Node460848</title>
<g id="a_node7"><a xlink:href="quickjs_8h.html#afaa20c47565bc704c6c85f3d77254e7d" target="_top" xlink:title="JS_FreeValue">
<polygon fill="none" stroke="#000000" points="426,-228.5 426,-247.5 504,-247.5 504,-228.5 426,-228.5"/>
<text text-anchor="middle" x="465" y="-235.5" font-family="Helvetica,sans-Serif" font-size="10.00" fill="#000000">JS_FreeValue</text>
</a>
</g>
</g>
<!-- Node460842&#45;&gt;Node460848 -->
<g id="edge7" class="edge">
<title>Node460842&#45;&gt;Node460848</title>
<path fill="none" stroke="#191970" d="M94.2486,-190.534C110.2316,-194.1788 128.9297,-198.1417 146,-201 240.8001,-216.8738 352.5908,-228.1479 415.4928,-233.8184"/>
<polygon fill="#191970" stroke="#191970" points="415.2609,-237.3115 425.5322,-234.7131 415.8824,-230.3391 415.2609,-237.3115"/>
</g>
<!-- Node460885 -->
<g id="node10" class="node">
<title>Node460885</title>
<g id="a_node10"><a xlink:href="quickjs_8h.html#ad80a83d73e9b7d872b88fbf2943aebe9" target="_top" xlink:title="JS_IsException">
<polygon fill="none" stroke="#000000" points="422,-190.5 422,-209.5 508,-209.5 508,-190.5 422,-190.5"/>
<text text-anchor="middle" x="465" y="-197.5" font-family="Helvetica,sans-Serif" font-size="10.00" fill="#000000">JS_IsException</text>
</a>
</g>
</g>
<!-- Node460842&#45;&gt;Node460885 -->
<g id="edge10" class="edge">
<title>Node460842&#45;&gt;Node460885</title>
<path fill="none" stroke="#191970" d="M110.2944,-183.5624C189.3671,-187.2268 333.7786,-193.919 411.7225,-197.531"/>
<polygon fill="#191970" stroke="#191970" points="411.6559,-201.0316 421.8072,-197.9984 411.98,-194.0391 411.6559,-201.0316"/>
</g>
<!-- Node460886 -->
<g id="node11" class="node">
<title>Node460886</title>
<g id="a_node11"><a xlink:href="quickjs_8c.html#a7bcb8e1a20cbc8374a5f9ba4a2088cec" target="_top" xlink:title="JS_ToString">
<polygon fill="none" stroke="#000000" points="158,-152.5 158,-171.5 229,-171.5 229,-152.5 158,-152.5"/>
<text text-anchor="middle" x="193.5" y="-159.5" font-family="Helvetica,sans-Serif" font-size="10.00" fill="#000000">JS_ToString</text>
</a>
</g>
</g>
<!-- Node460842&#45;&gt;Node460886 -->
<g id="edge11" class="edge">
<title>Node460842&#45;&gt;Node460886</title>
<path fill="none" stroke="#191970" d="M110.1368,-173.4361C122.506,-171.7393 135.5024,-169.9563 147.4559,-168.3165"/>
<polygon fill="#191970" stroke="#191970" points="148.2184,-171.7448 157.6499,-166.9181 147.2669,-164.8097 148.2184,-171.7448"/>
</g>
<!-- Node460900 -->
<g id="node18" class="node">
<title>Node460900</title>
<g id="a_node18"><a xlink:href="quickjs_8c.html#accfc3d1dcaa88c88402cb245ccaf4fdb" target="_top" xlink:title="string_buffer_end">
<polygon fill="none" stroke="#ff0000" points="283.5,-67.5 283.5,-86.5 375.5,-86.5 375.5,-67.5 283.5,-67.5"/>
<text text-anchor="middle" x="329.5" y="-74.5" font-family="Helvetica,sans-Serif" font-size="10.00" fill="#000000">string_buffer_end</text>
</a>
</g>
</g>
<!-- Node460842&#45;&gt;Node460900 -->
<g id="edge23" class="edge">
<title>Node460842&#45;&gt;Node460900</title>
<path fill="none" stroke="#191970" d="M76.9404,-171.4737C95.2945,-163.5925 122.2203,-152.2347 146,-143 196.05,-123.5633 254.5106,-102.8796 291.7536,-89.953"/>
<polygon fill="#191970" stroke="#191970" points="293.3658,-93.0988 301.6708,-86.5203 291.076,-86.4839 293.3658,-93.0988"/>
</g>
<!-- Node460901 -->
<g id="node19" class="node">
<title>Node460901</title>
<g id="a_node19"><a xlink:href="quickjs_8c.html#a266b4993a59d9e34537386e62b9f3d4f" target="_top" xlink:title="string_buffer_free">
<polygon fill="none" stroke="#ff0000" points="147.5,-76.5 147.5,-95.5 239.5,-95.5 239.5,-76.5 147.5,-76.5"/>
<text text-anchor="middle" x="193.5" y="-83.5" font-family="Helvetica,sans-Serif" font-size="10.00" fill="#000000">string_buffer_free</text>
</a>
</g>
</g>
<!-- Node460842&#45;&gt;Node460901 -->
<g id="edge25" class="edge">
<title>Node460842&#45;&gt;Node460901</title>
<path fill="none" stroke="#191970" d="M65.9686,-171.2907C82.5632,-156.8746 115.3713,-129.4255 146,-110 151.4276,-106.5577 157.4127,-103.214 163.2517,-100.1696"/>
<polygon fill="#191970" stroke="#191970" points="164.8484,-103.2844 172.2057,-95.6607 161.7,-97.0323 164.8484,-103.2844"/>
</g>
<!-- Node460902 -->
<g id="node20" class="node">
<title>Node460902</title>
<g id="a_node20"><a xlink:href="quickjs_8c.html#a9c11961b0adafedd064b294612d0c2f3" target="_top" xlink:title="string_buffer_init">
<polygon fill="none" stroke="#ff0000" points="149,-38.5 149,-57.5 238,-57.5 238,-38.5 149,-38.5"/>
<text text-anchor="middle" x="193.5" y="-45.5" font-family="Helvetica,sans-Serif" font-size="10.00" fill="#000000">string_buffer_init</text>
</a>
</g>
</g>
<!-- Node460842&#45;&gt;Node460902 -->
<g id="edge26" class="edge">
<title>Node460842&#45;&gt;Node460902</title>
<path fill="none" stroke="#191970" d="M60.3214,-171.3565C72.6691,-149.792 105.3396,-97.1987 146,-67 148.3396,-65.2623 150.8599,-63.658 153.476,-62.1813"/>
<polygon fill="#191970" stroke="#191970" points="155.2154,-65.2254 162.6167,-57.6444 152.1033,-58.9552 155.2154,-65.2254"/>
</g>
<!-- Node461279 -->
<g id="node21" class="node">
<title>Node461279</title>
<g id="a_node21"><a xlink:href="quickjs_8c.html#a8d79794c85d33dd8409cdb39f2c2fc74" target="_top" xlink:title="string_buffer_putc">
<polygon fill="none" stroke="#000000" points="146,-.5 146,-19.5 241,-19.5 241,-.5 146,-.5"/>
<text text-anchor="middle" x="193.5" y="-7.5" font-family="Helvetica,sans-Serif" font-size="10.00" fill="#000000">string_buffer_putc</text>
</a>
</g>
</g>
<!-- Node460842&#45;&gt;Node461279 -->
<g id="edge27" class="edge">
<title>Node460842&#45;&gt;Node461279</title>
<path fill="none" stroke="#191970" d="M58.2632,-171.3498C67.669,-144.9071 97.3152,-70.5022 146,-29 147.9517,-27.3362 150.0674,-25.8061 152.2854,-24.4005"/>
<polygon fill="#191970" stroke="#191970" points="154.0796,-27.4094 161.2156,-19.5782 150.7535,-21.2501 154.0796,-27.4094"/>
</g>
<!-- Node460843&#45;&gt;Node460844 -->
<g id="edge2" class="edge">
<title>Node460843&#45;&gt;Node460844</title>
<path fill="none" stroke="#191970" d="M228.1614,-314C278.5531,-314 371.8193,-314 425.0381,-314"/>
<polygon fill="#191970" stroke="#191970" points="425.1234,-317.5001 435.1234,-314 425.1233,-310.5001 425.1234,-317.5001"/>
</g>
<!-- Node460845 -->
<g id="node4" class="node">
<title>Node460845</title>
<g id="a_node4"><a xlink:href="quickjs_8c.html#a4c6ca4ab4c034e7c2423ce5b974f5a46" target="_top" xlink:title="string_get_hex">
<polygon fill="none" stroke="#000000" points="289.5,-266.5 289.5,-285.5 369.5,-285.5 369.5,-266.5 289.5,-266.5"/>
<text text-anchor="middle" x="329.5" y="-273.5" font-family="Helvetica,sans-Serif" font-size="10.00" fill="#000000">string_get_hex</text>
</a>
</g>
</g>
<!-- Node460843&#45;&gt;Node460845 -->
<g id="edge3" class="edge">
<title>Node460843&#45;&gt;Node460845</title>
<path fill="none" stroke="#191970" d="M227.8185,-304.411C245.2943,-299.5281 266.7407,-293.5357 285.4251,-288.315"/>
<polygon fill="#191970" stroke="#191970" points="286.5032,-291.6479 295.1924,-285.5859 284.6194,-284.9062 286.5032,-291.6479"/>
</g>
<!-- Node460845&#45;&gt;Node460844 -->
<g id="edge5" class="edge">
<title>Node460845&#45;&gt;Node460844</title>
<path fill="none" stroke="#191970" d="M363.6924,-285.589C382.5194,-290.8689 405.9718,-297.446 425.5691,-302.9419"/>
<polygon fill="#191970" stroke="#191970" points="424.8473,-306.3744 435.4209,-305.7048 426.7375,-299.6345 424.8473,-306.3744"/>
</g>
<!-- Node460846 -->
<g id="node5" class="node">
<title>Node460846</title>
<g id="a_node5"><a xlink:href="cutils_8h.html#a6dbaeca250de641ec4e4530808f69df8" target="_top" xlink:title="from_hex">
<polygon fill="none" stroke="#000000" points="436.5,-266.5 436.5,-285.5 493.5,-285.5 493.5,-266.5 436.5,-266.5"/>
<text text-anchor="middle" x="465" y="-273.5" font-family="Helvetica,sans-Serif" font-size="10.00" fill="#000000">from_hex</text>
</a>
</g>
</g>
<!-- Node460845&#45;&gt;Node460846 -->
<g id="edge4" class="edge">
<title>Node460845&#45;&gt;Node460846</title>
<path fill="none" stroke="#191970" d="M369.7876,-276C387.4888,-276 408.2007,-276 425.7782,-276"/>
<polygon fill="#191970" stroke="#191970" points="426.2627,-279.5001 436.2626,-276 426.2626,-272.5001 426.2627,-279.5001"/>
</g>
<!-- Node460849 -->
<g id="node8" class="node">
<title>Node460849</title>
<g id="a_node8"><a xlink:href="quickjs_8c.html#aa059f309c30fd5166d16c82a97973146" target="_top" xlink:title="__JS_FreeValue">
<polygon fill="none" stroke="#000000" points="548,-228.5 548,-247.5 637,-247.5 637,-228.5 548,-228.5"/>
<text text-anchor="middle" x="592.5" y="-235.5" font-family="Helvetica,sans-Serif" font-size="10.00" fill="#000000">__JS_FreeValue</text>
</a>
</g>
</g>
<!-- Node460848&#45;&gt;Node460849 -->
<g id="edge8" class="edge">
<title>Node460848&#45;&gt;Node460849</title>
<path fill="none" stroke="#191970" d="M504.2946,-238C514.8263,-238 526.4077,-238 537.6161,-238"/>
<polygon fill="#191970" stroke="#191970" points="537.764,-241.5001 547.764,-238 537.7639,-234.5001 537.764,-241.5001"/>
</g>
<!-- Node460850 -->
<g id="node9" class="node">
<title>Node460850</title>
<g id="a_node9"><a xlink:href="quickjs_8c.html#ab1ea3fad7d138be12144a38be4d36423" target="_top" xlink:title="__JS_FreeValueRT">
<polygon fill="none" stroke="#ff0000" points="673,-228.5 673,-247.5 775,-247.5 775,-228.5 673,-228.5"/>
<text text-anchor="middle" x="724" y="-235.5" font-family="Helvetica,sans-Serif" font-size="10.00" fill="#000000">__JS_FreeValueRT</text>
</a>
</g>
</g>
<!-- Node460849&#45;&gt;Node460850 -->
<g id="edge9" class="edge">
<title>Node460849&#45;&gt;Node460850</title>
<path fill="none" stroke="#191970" d="M637.0199,-238C645.2672,-238 654.0138,-238 662.6583,-238"/>
<polygon fill="#191970" stroke="#191970" points="662.7233,-241.5001 672.7233,-238 662.7232,-234.5001 662.7233,-241.5001"/>
</g>
<!-- Node460887 -->
<g id="node12" class="node">
<title>Node460887</title>
<g id="a_node12"><a xlink:href="quickjs_8c.html#a46d6ebdd8c73102fd9e02a89b1f1d09a" target="_top" xlink:title="JS_ToStringInternal">
<polygon fill="none" stroke="#000000" points="278,-124.5 278,-143.5 381,-143.5 381,-124.5 278,-124.5"/>
<text text-anchor="middle" x="329.5" y="-131.5" font-family="Helvetica,sans-Serif" font-size="10.00" fill="#000000">JS_ToStringInternal</text>
</a>
</g>
</g>
<!-- Node460886&#45;&gt;Node460887 -->
<g id="edge12" class="edge">
<title>Node460886&#45;&gt;Node460887</title>
<path fill="none" stroke="#191970" d="M229.2324,-154.6433C242.6606,-151.8787 258.2743,-148.6641 273.1255,-145.6065"/>
<polygon fill="#191970" stroke="#191970" points="274.1603,-148.967 283.249,-143.5223 272.7486,-142.1108 274.1603,-148.967"/>
</g>
<!-- Node460887&#45;&gt;Node460848 -->
<g id="edge17" class="edge">
<title>Node460887&#45;&gt;Node460848</title>
<path fill="none" stroke="#191970" d="M337.3394,-143.6487C351.7325,-160.8334 384.0257,-196.9977 418,-219 420.8949,-220.8748 424.0049,-222.6209 427.1962,-224.2336"/>
<polygon fill="#191970" stroke="#191970" points="425.7472,-227.4196 436.2945,-228.4221 428.6745,-221.061 425.7472,-227.4196"/>
</g>
<!-- Node460887&#45;&gt;Node460885 -->
<g id="edge18" class="edge">
<title>Node460887&#45;&gt;Node460885</title>
<path fill="none" stroke="#191970" d="M346.2017,-143.5409C363.801,-153.4347 392.4558,-169.0932 418,-181 422.0584,-182.8917 426.3599,-184.7819 430.6477,-186.5965"/>
<polygon fill="#191970" stroke="#191970" points="429.3336,-189.8405 439.9127,-190.4195 432.0037,-183.3697 429.3336,-189.8405"/>
</g>
<!-- Node460887&#45;&gt;Node460887 -->
<g id="edge22" class="edge">
<title>Node460887&#45;&gt;Node460887</title>
<path fill="none" stroke="#191970" d="M308.8467,-143.7571C298.7992,-152.5653 305.6836,-162 329.5,-162 344.7574,-162 353.0659,-158.128 354.4255,-153.0292"/>
<polygon fill="#191970" stroke="#191970" points="357.5169,-151.3747 350.1533,-143.7571 351.1593,-154.304 357.5169,-151.3747"/>
</g>
<!-- Node460888 -->
<g id="node13" class="node">
<title>Node460888</title>
<g id="a_node13"><a xlink:href="quickjs_8c.html#a260bfa297ff6cb5bd18e229afaa54663" target="_top" xlink:title="JS_AtomToString">
<polygon fill="none" stroke="#ff0000" points="418,-.5 418,-19.5 512,-19.5 512,-.5 418,-.5"/>
<text text-anchor="middle" x="465" y="-7.5" font-family="Helvetica,sans-Serif" font-size="10.00" fill="#000000">JS_AtomToString</text>
</a>
</g>
</g>
<!-- Node460887&#45;&gt;Node460888 -->
<g id="edge13" class="edge">
<title>Node460887&#45;&gt;Node460888</title>
<path fill="none" stroke="#191970" d="M346.6513,-124.3712C357.7382,-117.5225 371.9254,-107.5178 382,-96 404.2558,-70.556 392.8317,-51.567 418,-29 419.7037,-27.4724 421.5462,-26.059 423.4817,-24.7526"/>
<polygon fill="#191970" stroke="#191970" points="425.4471,-27.6617 432.4208,-19.6856 421.9952,-21.572 425.4471,-27.6617"/>
</g>
<!-- Node460914 -->
<g id="node14" class="node">
<title>Node460914</title>
<g id="a_node14"><a xlink:href="quickjs_8c.html#a6508a2922531adcb280bbff485a9a44a" target="_top" xlink:title="js_dtoa">
<polygon fill="none" stroke="#ff0000" points="441,-38.5 441,-57.5 489,-57.5 489,-38.5 441,-38.5"/>
<text text-anchor="middle" x="465" y="-45.5" font-family="Helvetica,sans-Serif" font-size="10.00" fill="#000000">js_dtoa</text>
</a>
</g>
</g>
<!-- Node460887&#45;&gt;Node460914 -->
<g id="edge14" class="edge">
<title>Node460887&#45;&gt;Node460914</title>
<path fill="none" stroke="#191970" d="M342.715,-124.4026C363.5347,-109.3405 403.1307,-80.9457 418,-72 423.5642,-68.6524 429.6499,-65.3189 435.5419,-62.2482"/>
<polygon fill="#191970" stroke="#191970" points="437.2102,-65.3264 444.5386,-57.6749 434.0382,-59.0864 437.2102,-65.3264"/>
</g>
<!-- Node460893 -->
<g id="node15" class="node">
<title>Node460893</title>
<g id="a_node15"><a xlink:href="quickjs_8c.html#a0ee6a3654a6016393fac5e1c108f403a" target="_top" xlink:title="JS_NewString">
<polygon fill="none" stroke="#ff0000" points="552.5,-57.5 552.5,-76.5 632.5,-76.5 632.5,-57.5 552.5,-57.5"/>
<text text-anchor="middle" x="592.5" y="-64.5" font-family="Helvetica,sans-Serif" font-size="10.00" fill="#000000">JS_NewString</text>
</a>
</g>
</g>
<!-- Node460887&#45;&gt;Node460893 -->
<g id="edge19" class="edge">
<title>Node460887&#45;&gt;Node460893</title>
<path fill="none" stroke="#191970" d="M366.9022,-124.4717C413.7014,-112.5495 493.8914,-92.1208 544.9881,-79.1038"/>
<polygon fill="#191970" stroke="#191970" points="545.9746,-82.4643 554.801,-76.6039 544.2465,-75.681 545.9746,-82.4643"/>
</g>
<!-- Node460892 -->
<g id="node16" class="node">
<title>Node460892</title>
<g id="a_node16"><a xlink:href="quickjs_8h.html#a775522f2d084fc8fa0fcb33f390006b4" target="_top" xlink:title="JS_DupValue">
<polygon fill="none" stroke="#000000" points="554,-133.5 554,-152.5 631,-152.5 631,-133.5 554,-133.5"/>
<text text-anchor="middle" x="592.5" y="-140.5" font-family="Helvetica,sans-Serif" font-size="10.00" fill="#000000">JS_DupValue</text>
</a>
</g>
</g>
<!-- Node460887&#45;&gt;Node460892 -->
<g id="edge16" class="edge">
<title>Node460887&#45;&gt;Node460892</title>
<path fill="none" stroke="#191970" d="M381.1465,-135.7674C428.2935,-137.3808 497.4808,-139.7484 543.7101,-141.3304"/>
<polygon fill="#191970" stroke="#191970" points="543.6718,-144.831 553.7857,-141.6752 543.9112,-137.8351 543.6718,-144.831"/>
</g>
<!-- Node460921 -->
<g id="node17" class="node">
<title>Node460921</title>
<g id="a_node17"><a xlink:href="quickjs_8c.html#a2b8df609710fa689dd50b4bd18df2493" target="_top" xlink:title="JS_ToPrimitive">
<polygon fill="none" stroke="#ff0000" points="423.5,-152.5 423.5,-171.5 506.5,-171.5 506.5,-152.5 423.5,-152.5"/>
<text text-anchor="middle" x="465" y="-159.5" font-family="Helvetica,sans-Serif" font-size="10.00" fill="#000000">JS_ToPrimitive</text>
</a>
</g>
</g>
<!-- Node460887&#45;&gt;Node460921 -->
<g id="edge20" class="edge">
<title>Node460887&#45;&gt;Node460921</title>
<path fill="none" stroke="#191970" d="M375.7524,-143.5577C387.9724,-146.0829 401.2333,-148.8231 413.7027,-151.3998"/>
<polygon fill="#191970" stroke="#191970" points="412.9968,-154.8278 423.4983,-153.424 414.4135,-147.9727 412.9968,-154.8278"/>
</g>
<!-- Node460914&#45;&gt;Node460893 -->
<g id="edge15" class="edge">
<title>Node460914&#45;&gt;Node460893</title>
<path fill="none" stroke="#191970" d="M489.2819,-51.6185C504.2787,-53.8533 524.0796,-56.804 542.3249,-59.5229"/>
<polygon fill="#191970" stroke="#191970" points="541.8541,-62.9913 552.2608,-61.0036 542.8859,-56.0678 541.8541,-62.9913"/>
</g>
<!-- Node460921&#45;&gt;Node460892 -->
<g id="edge21" class="edge">
<title>Node460921&#45;&gt;Node460892</title>
<path fill="none" stroke="#191970" d="M506.7483,-155.7787C518.55,-154.02 531.4983,-152.0905 543.6766,-150.2757"/>
<polygon fill="#191970" stroke="#191970" points="544.3083,-153.7203 553.6831,-148.7845 543.2765,-146.7967 544.3083,-153.7203"/>
</g>
<!-- Node460900&#45;&gt;Node460888 -->
<g id="edge24" class="edge">
<title>Node460900&#45;&gt;Node460888</title>
<path fill="none" stroke="#191970" d="M345.85,-67.4088C363.3975,-57.2874 392.2299,-41.15 418,-29 422.0501,-27.0905 426.3466,-25.1896 430.6317,-23.3692"/>
<polygon fill="#191970" stroke="#191970" points="431.9893,-26.5953 439.894,-19.5408 429.3154,-20.1261 431.9893,-26.5953"/>
</g>
<!-- Node460904 -->
<g id="node22" class="node">
<title>Node460904</title>
<g id="a_node22"><a xlink:href="quickjs_8c.html#a9b8fb6b5ce638616691f7bf7881fa57d" target="_top" xlink:title="string_buffer_putc16">
<polygon fill="none" stroke="#ff0000" points="277,-.5 277,-19.5 382,-19.5 382,-.5 277,-.5"/>
<text text-anchor="middle" x="329.5" y="-7.5" font-family="Helvetica,sans-Serif" font-size="10.00" fill="#000000">string_buffer_putc16</text>
</a>
</g>
</g>
<!-- Node461279&#45;&gt;Node460904 -->
<g id="edge28" class="edge">
<title>Node461279&#45;&gt;Node460904</title>
<path fill="none" stroke="#191970" d="M241.0662,-10C249.3245,-10 258.026,-10 266.618,-10"/>
<polygon fill="#191970" stroke="#191970" points="266.6208,-13.5001 276.6207,-10 266.6207,-6.5001 266.6208,-13.5001"/>
</g>
</g>
</svg>
