<?xml version="1.0" encoding="UTF-8" standalone="no"?>
<!DOCTYPE svg PUBLIC "-//W3C//DTD SVG 1.1//EN"
 "http://www.w3.org/Graphics/SVG/1.1/DTD/svg11.dtd">
<!-- Generated by graphviz version 2.40.1 (20161225.0304)
 -->
<!-- Title: JS_ToQuotedString Pages: 1 -->
<!--zoomable 66 -->
<svg id="main" version="1.1" xmlns="http://www.w3.org/2000/svg" xmlns:xlink="http://www.w3.org/1999/xlink" xml:space="preserve" onload="init(evt)">
<style type="text/css"><![CDATA[
.edge:hover path { stroke: red; }
.edge:hover polygon { stroke: red; fill: red; }
]]></style>
<script type="text/javascript"><![CDATA[
var edges = document.getElementsByTagName('g');
if (edges && edges.length) {
  for (var i=0;i<edges.length;i++) {
    if (edges[i].id.substr(0,4)=='edge') {
      edges[i].setAttribute('class','edge');
    }
  }
}
]]></script>
        <defs>
                <circle id="rim" cx="0" cy="0" r="7"/>
                <circle id="rim2" cx="0" cy="0" r="3.5"/>
                <g id="zoomPlus">
                        <use xlink:href="#rim" fill="#404040">
                                <set attributeName="fill" to="#808080" begin="zoomplus.mouseover" end="zoomplus.mouseout"/>
                        </use>
                        <path d="M-4,0h8M0,-4v8" fill="none" stroke="white" stroke-width="1.5" pointer-events="none"/>
                </g>
                <g id="zoomMin">
                        <use xlink:href="#rim" fill="#404040">
                                <set attributeName="fill" to="#808080" begin="zoomminus.mouseover" end="zoomminus.mouseout"/>
                        </use>
                        <path d="M-4,0h8" fill="none" stroke="white" stroke-width="1.5" pointer-events="none"/>
                </g>
                <g id="dirArrow">
                        <path fill="none" stroke="white" stroke-width="1.5" d="M0,-3.0v7 M-2.5,-0.5L0,-3.0L2.5,-0.5"/>
                </g>
               <g id="resetDef">
                       <use xlink:href="#rim2" fill="#404040">
                               <set attributeName="fill" to="#808080" begin="reset.mouseover" end="reset.mouseout"/>
                       </use>
               </g>
        </defs>

<script type="text/javascript">
var viewWidth = 514;
var viewHeight = 66;
var sectionId = 'dynsection-740';
</script>
<script xlink:href="svgpan.js"/>
<svg id="graph" class="graph">
<g id="viewport">
<title>JS_ToQuotedString</title>
<!-- Node257334 -->
<g id="node1" class="node">
<title>Node257334</title>
<polygon fill="#bfbfbf" stroke="#000000" points="0,-19.5 0,-38.5 102,-38.5 102,-19.5 0,-19.5"/>
<text text-anchor="middle" x="51" y="-26.5" font-family="Helvetica,sans-Serif" font-size="10.00" fill="#000000">JS_ToQuotedString</text>
</g>
<!-- Node257335 -->
<g id="node2" class="node">
<title>Node257335</title>
<g id="a_node2"><a xlink:href="quickjs_8c.html#ac35792540c2fe73eb3ca6c6a69593e26" target="_top" xlink:title="js_string___quote">
<polygon fill="none" stroke="#000000" points="152.5,-38.5 152.5,-57.5 245.5,-57.5 245.5,-38.5 152.5,-38.5"/>
<text text-anchor="middle" x="199" y="-45.5" font-family="Helvetica,sans-Serif" font-size="10.00" fill="#000000">js_string___quote</text>
</a>
</g>
</g>
<!-- Node257334&#45;&gt;Node257335 -->
<g id="edge1" class="edge">
<title>Node257334&#45;&gt;Node257335</title>
<path fill="none" stroke="#191970" d="M112.3864,-36.8807C125.6955,-38.5893 139.5654,-40.3699 152.2052,-41.9926"/>
<polygon fill="#191970" stroke="#191970" points="112.7122,-33.3939 102.3479,-35.592 111.8208,-40.3369 112.7122,-33.3939"/>
</g>
<!-- Node257336 -->
<g id="node3" class="node">
<title>Node257336</title>
<g id="a_node3"><a xlink:href="quickjs_8c.html#ac5732685af4e38c0c0122b2ab25908e1" target="_top" xlink:title="JS_ToQuotedStringFree">
<polygon fill="none" stroke="#000000" points="138,-.5 138,-19.5 260,-19.5 260,-.5 138,-.5"/>
<text text-anchor="middle" x="199" y="-7.5" font-family="Helvetica,sans-Serif" font-size="10.00" fill="#000000">JS_ToQuotedStringFree</text>
</a>
</g>
</g>
<!-- Node257334&#45;&gt;Node257336 -->
<g id="edge2" class="edge">
<title>Node257334&#45;&gt;Node257336</title>
<path fill="none" stroke="#191970" d="M112.4368,-21.1128C120.8228,-20.0363 129.4306,-18.9312 137.8121,-17.8552"/>
<polygon fill="#191970" stroke="#191970" points="111.8208,-17.6631 102.3479,-22.408 112.7122,-24.6061 111.8208,-17.6631"/>
</g>
<!-- Node257337 -->
<g id="node4" class="node">
<title>Node257337</title>
<g id="a_node4"><a xlink:href="quickjs_8c.html#a60d84dd116a9d7d912d08f298a4734dd" target="_top" xlink:title="js_json_to_str">
<polygon fill="none" stroke="#000000" points="296,-.5 296,-19.5 373,-19.5 373,-.5 296,-.5"/>
<text text-anchor="middle" x="334.5" y="-7.5" font-family="Helvetica,sans-Serif" font-size="10.00" fill="#000000">js_json_to_str</text>
</a>
</g>
</g>
<!-- Node257336&#45;&gt;Node257337 -->
<g id="edge3" class="edge">
<title>Node257336&#45;&gt;Node257337</title>
<path fill="none" stroke="#191970" d="M270.071,-10C278.9813,-10 287.8147,-10 295.953,-10"/>
<polygon fill="#191970" stroke="#191970" points="270.0114,-6.5001 260.0114,-10 270.0113,-13.5001 270.0114,-6.5001"/>
</g>
<!-- Node257337&#45;&gt;Node257337 -->
<g id="edge4" class="edge">
<title>Node257337&#45;&gt;Node257337</title>
<path fill="none" stroke="#191970" d="M311.8066,-29.0292C313.0445,-34.128 320.6089,-38 334.5,-38 356.1836,-38 362.4515,-28.5653 353.3037,-19.7571"/>
<polygon fill="#191970" stroke="#191970" points="315.0553,-30.3325 315.6963,-19.7571 308.6003,-27.6246 315.0553,-30.3325"/>
</g>
<!-- Node257338 -->
<g id="node5" class="node">
<title>Node257338</title>
<g id="a_node5"><a xlink:href="quickjs_8c.html#a343a343b16bc3c9875050e99ee0d2884" target="_top" xlink:title="JS_JSONStringify">
<polygon fill="none" stroke="#ff0000" points="409,-.5 409,-19.5 506,-19.5 506,-.5 409,-.5"/>
<text text-anchor="middle" x="457.5" y="-7.5" font-family="Helvetica,sans-Serif" font-size="10.00" fill="#000000">JS_JSONStringify</text>
</a>
</g>
</g>
<!-- Node257337&#45;&gt;Node257338 -->
<g id="edge5" class="edge">
<title>Node257337&#45;&gt;Node257338</title>
<path fill="none" stroke="#191970" d="M383.1116,-10C391.5085,-10 400.2409,-10 408.6442,-10"/>
<polygon fill="#191970" stroke="#191970" points="383.0805,-6.5001 373.0805,-10 383.0805,-13.5001 383.0805,-6.5001"/>
</g>
</g>
</svg>
        <g id="navigator" transform="translate(0 0)" fill="#404254">
                <rect fill="#f2f5e9" fill-opacity="0.5" stroke="#606060" stroke-width=".5" x="0" y="0" width="60" height="60"/>
                <use id="zoomplus" xlink:href="#zoomPlus" x="17" y="9" onmousedown="handleZoom(evt,'in')"/>
                <use id="zoomminus" xlink:href="#zoomMin" x="42" y="9" onmousedown="handleZoom(evt,'out')"/>
                <use id="reset" xlink:href="#resetDef" x="30" y="36" onmousedown="handleReset()"/>
                <g id="arrowUp" xlink:href="#dirArrow" transform="translate(30 24)" onmousedown="handlePan(0,-1)">
                  <use xlink:href="#rim" fill="#404040">
                        <set attributeName="fill" to="#808080" begin="arrowUp.mouseover" end="arrowUp.mouseout"/>
                  </use>
                  <path fill="none" stroke="white" stroke-width="1.5" d="M0,-3.0v7 M-2.5,-0.5L0,-3.0L2.5,-0.5"/>
                </g>
                <g id="arrowRight" xlink:href="#dirArrow" transform="rotate(90) translate(36 -43)" onmousedown="handlePan(1,0)">
                  <use xlink:href="#rim" fill="#404040">
                        <set attributeName="fill" to="#808080" begin="arrowRight.mouseover" end="arrowRight.mouseout"/>
                  </use>
                  <path fill="none" stroke="white" stroke-width="1.5" d="M0,-3.0v7 M-2.5,-0.5L0,-3.0L2.5,-0.5"/>
                </g>
                <g id="arrowDown" xlink:href="#dirArrow" transform="rotate(180) translate(-30 -48)" onmousedown="handlePan(0,1)">
                  <use xlink:href="#rim" fill="#404040">
                        <set attributeName="fill" to="#808080" begin="arrowDown.mouseover" end="arrowDown.mouseout"/>
                  </use>
                  <path fill="none" stroke="white" stroke-width="1.5" d="M0,-3.0v7 M-2.5,-0.5L0,-3.0L2.5,-0.5"/>
                </g>
                <g id="arrowLeft" xlink:href="#dirArrow" transform="rotate(270) translate(-36 17)" onmousedown="handlePan(-1,0)">
                  <use xlink:href="#rim" fill="#404040">
                        <set attributeName="fill" to="#808080" begin="arrowLeft.mouseover" end="arrowLeft.mouseout"/>
                  </use>
                  <path fill="none" stroke="white" stroke-width="1.5" d="M0,-3.0v7 M-2.5,-0.5L0,-3.0L2.5,-0.5"/>
                </g>
        </g>
        <svg viewBox="0 0 15 15" width="100%" height="30px" preserveAspectRatio="xMaxYMin meet">
         <g id="arrow_out" transform="scale(0.3 0.3)">
          <a xlink:href="quickjs_8c_ae5057ca2d025c62cc64ba12541f7925b_icgraph_org.svg" target="_base">
           <rect id="button" ry="5" rx="5" y="6" x="6" height="38" width="38"
                fill="#f2f5e9" fill-opacity="0.5" stroke="#606060" stroke-width="1.0"/>
           <path id="arrow"
             d="M 11.500037,31.436501 C 11.940474,20.09759 22.043105,11.32322 32.158766,21.979434 L 37.068811,17.246167 C 37.068811,17.246167 37.088388,32 37.088388,32 L 22.160133,31.978069 C 22.160133,31.978069 26.997745,27.140456 26.997745,27.140456 C 18.528582,18.264221 13.291696,25.230495 11.500037,31.436501 z"
             style="fill:#404040;"/>
          </a>
         </g>
        </svg>
</svg>
