<?xml version="1.0" encoding="UTF-8" standalone="no"?>
<!DOCTYPE svg PUBLIC "-//W3C//DTD SVG 1.1//EN"
 "http://www.w3.org/Graphics/SVG/1.1/DTD/svg11.dtd">
<!-- Generated by graphviz version 2.40.1 (20161225.0304)
 -->
<!-- Title: js_operator_instanceof Pages: 1 -->
<!--zoomable 995 -->
<svg id="main" version="1.1" xmlns="http://www.w3.org/2000/svg" xmlns:xlink="http://www.w3.org/1999/xlink" xml:space="preserve" onload="init(evt)">
<style type="text/css"><![CDATA[
.edge:hover path { stroke: red; }
.edge:hover polygon { stroke: red; fill: red; }
]]></style>
<script type="text/javascript"><![CDATA[
var edges = document.getElementsByTagName('g');
if (edges && edges.length) {
  for (var i=0;i<edges.length;i++) {
    if (edges[i].id.substr(0,4)=='edge') {
      edges[i].setAttribute('class','edge');
    }
  }
}
]]></script>
        <defs>
                <circle id="rim" cx="0" cy="0" r="7"/>
                <circle id="rim2" cx="0" cy="0" r="3.5"/>
                <g id="zoomPlus">
                        <use xlink:href="#rim" fill="#404040">
                                <set attributeName="fill" to="#808080" begin="zoomplus.mouseover" end="zoomplus.mouseout"/>
                        </use>
                        <path d="M-4,0h8M0,-4v8" fill="none" stroke="white" stroke-width="1.5" pointer-events="none"/>
                </g>
                <g id="zoomMin">
                        <use xlink:href="#rim" fill="#404040">
                                <set attributeName="fill" to="#808080" begin="zoomminus.mouseover" end="zoomminus.mouseout"/>
                        </use>
                        <path d="M-4,0h8" fill="none" stroke="white" stroke-width="1.5" pointer-events="none"/>
                </g>
                <g id="dirArrow">
                        <path fill="none" stroke="white" stroke-width="1.5" d="M0,-3.0v7 M-2.5,-0.5L0,-3.0L2.5,-0.5"/>
                </g>
               <g id="resetDef">
                       <use xlink:href="#rim2" fill="#404040">
                               <set attributeName="fill" to="#808080" begin="reset.mouseover" end="reset.mouseout"/>
                       </use>
               </g>
        </defs>

<script type="text/javascript">
var viewWidth = 581;
var viewHeight = 995;
var sectionId = 'dynsection-778';
</script>
<script xlink:href="svgpan.js"/>
<svg id="graph" class="graph">
<g id="viewport">
<title>js_operator_instanceof</title>
<!-- Node267514 -->
<g id="node1" class="node">
<title>Node267514</title>
<polygon fill="#bfbfbf" stroke="#000000" points="0,-340.5 0,-359.5 115,-359.5 115,-340.5 0,-340.5"/>
<text text-anchor="middle" x="57.5" y="-347.5" font-family="Helvetica,sans-Serif" font-size="10.00" fill="#000000">js_operator_instanceof</text>
</g>
<!-- Node267515 -->
<g id="node2" class="node">
<title>Node267515</title>
<g id="a_node2"><a xlink:href="quickjs_8c.html#ac2894ff4edcdb4e6841bcce9c76081e3" target="_top" xlink:title="JS_CallInternal">
<polygon fill="none" stroke="#000000" points="151,-340.5 151,-359.5 234,-359.5 234,-340.5 151,-340.5"/>
<text text-anchor="middle" x="192.5" y="-347.5" font-family="Helvetica,sans-Serif" font-size="10.00" fill="#000000">JS_CallInternal</text>
</a>
</g>
</g>
<!-- Node267514&#45;&gt;Node267515 -->
<g id="edge1" class="edge">
<title>Node267514&#45;&gt;Node267515</title>
<path fill="none" stroke="#191970" d="M125.3687,-350C134.1054,-350 142.834,-350 150.9688,-350"/>
<polygon fill="#191970" stroke="#191970" points="125.1438,-346.5001 115.1437,-350 125.1437,-353.5001 125.1438,-346.5001"/>
</g>
<!-- Node267515&#45;&gt;Node267515 -->
<g id="edge40" class="edge">
<title>Node267515&#45;&gt;Node267515</title>
<path fill="none" stroke="#191970" d="M167.5745,-369.0292C168.9341,-374.128 177.2426,-378 192.5,-378 216.3164,-378 223.2008,-368.5653 213.1533,-359.7571"/>
<polygon fill="#191970" stroke="#191970" points="170.8407,-370.304 171.8467,-359.7571 164.4831,-367.3747 170.8407,-370.304"/>
</g>
<!-- Node267516 -->
<g id="node3" class="node">
<title>Node267516</title>
<g id="a_node3"><a xlink:href="quickjs_8c.html#ade71a22dc56e7371392393df663b28b3" target="_top" xlink:title="async_func_resume">
<polygon fill="none" stroke="#000000" points="285,-874.5 285,-893.5 389,-893.5 389,-874.5 285,-874.5"/>
<text text-anchor="middle" x="337" y="-881.5" font-family="Helvetica,sans-Serif" font-size="10.00" fill="#000000">async_func_resume</text>
</a>
</g>
</g>
<!-- Node267515&#45;&gt;Node267516 -->
<g id="edge2" class="edge">
<title>Node267515&#45;&gt;Node267516</title>
<path fill="none" stroke="#191970" d="M197.7489,-369.3972C221.3253,-456.524 317.0372,-810.2275 334.3189,-874.092"/>
<polygon fill="#191970" stroke="#191970" points="201.122,-368.463 195.1314,-359.7244 194.365,-370.2915 201.122,-368.463"/>
</g>
<!-- Node267533 -->
<g id="node8" class="node">
<title>Node267533</title>
<g id="a_node8"><a xlink:href="quickjs_8c.html#a1a4c02a29525d5cb2085dd8bca3af350" target="_top" xlink:title="JS_Call">
<polygon fill="none" stroke="#ff0000" points="311.5,-378.5 311.5,-397.5 362.5,-397.5 362.5,-378.5 311.5,-378.5"/>
<text text-anchor="middle" x="337" y="-385.5" font-family="Helvetica,sans-Serif" font-size="10.00" fill="#000000">JS_Call</text>
</a>
</g>
</g>
<!-- Node267515&#45;&gt;Node267533 -->
<g id="edge7" class="edge">
<title>Node267515&#45;&gt;Node267533</title>
<path fill="none" stroke="#191970" d="M244.3524,-357.1309C270.197,-363.291 299.8346,-371.6885 318.4855,-378.4368"/>
<polygon fill="#191970" stroke="#191970" points="244.8269,-353.6484 234.2954,-354.8052 243.2497,-360.4684 244.8269,-353.6484"/>
</g>
<!-- Node267614 -->
<g id="node29" class="node">
<title>Node267614</title>
<g id="a_node29"><a xlink:href="quickjs_8c.html#ad35594576a14c10812efaf958c99af8a" target="_top" xlink:title="JS_CallConstructorInternal">
<polygon fill="none" stroke="#ff0000" points="270,-264.5 270,-283.5 404,-283.5 404,-264.5 270,-264.5"/>
<text text-anchor="middle" x="337" y="-271.5" font-family="Helvetica,sans-Serif" font-size="10.00" fill="#000000">JS_CallConstructorInternal</text>
</a>
</g>
</g>
<!-- Node267515&#45;&gt;Node267614 -->
<g id="edge34" class="edge">
<title>Node267515&#45;&gt;Node267614</title>
<path fill="none" stroke="#191970" d="M204.5491,-332.5463C219.0695,-317.2145 244.6856,-296.3922 270,-284 270.3258,-283.8405 270.6531,-283.6822 270.9819,-283.525"/>
<polygon fill="#191970" stroke="#191970" points="201.627,-330.572 197.6961,-340.4106 206.9045,-335.1708 201.627,-330.572"/>
</g>
<!-- Node267628 -->
<g id="node30" class="node">
<title>Node267628</title>
<g id="a_node30"><a xlink:href="quickjs_8c.html#a75f6ee5e4235a7dc99889f3d2eb2c147" target="_top" xlink:title="JS_CallFree">
<polygon fill="none" stroke="#ff0000" points="301.5,-302.5 301.5,-321.5 372.5,-321.5 372.5,-302.5 301.5,-302.5"/>
<text text-anchor="middle" x="337" y="-309.5" font-family="Helvetica,sans-Serif" font-size="10.00" fill="#000000">JS_CallFree</text>
</a>
</g>
</g>
<!-- Node267515&#45;&gt;Node267628 -->
<g id="edge36" class="edge">
<title>Node267515&#45;&gt;Node267628</title>
<path fill="none" stroke="#191970" d="M220.6305,-337.1263C243.6733,-329.5295 276.4179,-320.7723 301.3055,-315.4723"/>
<polygon fill="#191970" stroke="#191970" points="219.4119,-333.8441 211.095,-340.4076 221.6897,-340.4632 219.4119,-333.8441"/>
</g>
<!-- Node267517 -->
<g id="node4" class="node">
<title>Node267517</title>
<g id="a_node4"><a xlink:href="quickjs_8c.html#ac90552b1f1659acb3dae9a4c62479a30" target="_top" xlink:title="js_generator_function_call">
<polygon fill="none" stroke="#ff0000" points="441.5,-967.5 441.5,-986.5 571.5,-986.5 571.5,-967.5 441.5,-967.5"/>
<text text-anchor="middle" x="506.5" y="-974.5" font-family="Helvetica,sans-Serif" font-size="10.00" fill="#000000">js_generator_function_call</text>
</a>
</g>
</g>
<!-- Node267516&#45;&gt;Node267517 -->
<g id="edge3" class="edge">
<title>Node267516&#45;&gt;Node267517</title>
<path fill="none" stroke="#191970" d="M355.4671,-900.3133C375.1641,-916.9499 407.8865,-942.4617 440,-958 447.782,-961.7654 456.4469,-964.9157 464.8825,-967.499"/>
<polygon fill="#191970" stroke="#191970" points="357.488,-897.4351 347.6226,-893.5717 352.9255,-902.7439 357.488,-897.4351"/>
</g>
<!-- Node267526 -->
<g id="node5" class="node">
<title>Node267526</title>
<g id="a_node5"><a xlink:href="quickjs_8c.html#a1bf6b62983e8fff99c0a5d5a9f486115" target="_top" xlink:title="js_async_function_resume">
<polygon fill="none" stroke="#ff0000" points="440,-830.5 440,-849.5 573,-849.5 573,-830.5 440,-830.5"/>
<text text-anchor="middle" x="506.5" y="-837.5" font-family="Helvetica,sans-Serif" font-size="10.00" fill="#000000">js_async_function_resume</text>
</a>
</g>
</g>
<!-- Node267516&#45;&gt;Node267526 -->
<g id="edge4" class="edge">
<title>Node267516&#45;&gt;Node267526</title>
<path fill="none" stroke="#191970" d="M383.4651,-871.9383C410.6496,-864.8815 444.4877,-856.0976 469.7928,-849.5287"/>
<polygon fill="#191970" stroke="#191970" points="382.5787,-868.5523 373.779,-874.4527 384.3376,-875.3277 382.5787,-868.5523"/>
</g>
<!-- Node267531 -->
<g id="node6" class="node">
<title>Node267531</title>
<g id="a_node6"><a xlink:href="quickjs_8c.html#a89b019c704a2d2914bc30b30a72040b3" target="_top" xlink:title="js_async_generator\l_resume_next">
<polygon fill="none" stroke="#000000" points="456,-918 456,-948 557,-948 557,-918 456,-918"/>
<text text-anchor="start" x="464" y="-936" font-family="Helvetica,sans-Serif" font-size="10.00" fill="#000000">js_async_generator</text>
<text text-anchor="middle" x="506.5" y="-925" font-family="Helvetica,sans-Serif" font-size="10.00" fill="#000000">_resume_next</text>
</a>
</g>
</g>
<!-- Node267516&#45;&gt;Node267531 -->
<g id="edge5" class="edge">
<title>Node267516&#45;&gt;Node267531</title>
<path fill="none" stroke="#191970" d="M379.9372,-896.4125C403.0226,-903.0862 431.6309,-911.3564 455.805,-918.3448"/>
<polygon fill="#191970" stroke="#191970" points="380.6623,-892.9789 370.0837,-893.564 378.7183,-899.7036 380.6623,-892.9789"/>
</g>
<!-- Node267532 -->
<g id="node7" class="node">
<title>Node267532</title>
<g id="a_node7"><a xlink:href="quickjs_8c.html#ae19867da709929c072f05e90301835a4" target="_top" xlink:title="js_async_generator\l_function_call">
<polygon fill="none" stroke="#ff0000" points="456,-869 456,-899 557,-899 557,-869 456,-869"/>
<text text-anchor="start" x="464" y="-887" font-family="Helvetica,sans-Serif" font-size="10.00" fill="#000000">js_async_generator</text>
<text text-anchor="middle" x="506.5" y="-876" font-family="Helvetica,sans-Serif" font-size="10.00" fill="#000000">_function_call</text>
</a>
</g>
</g>
<!-- Node267516&#45;&gt;Node267532 -->
<g id="edge6" class="edge">
<title>Node267516&#45;&gt;Node267532</title>
<path fill="none" stroke="#191970" d="M399.388,-884C417.9885,-884 438.1368,-884 455.8866,-884"/>
<polygon fill="#191970" stroke="#191970" points="399.2387,-880.5001 389.2387,-884 399.2386,-887.5001 399.2387,-880.5001"/>
</g>
<!-- Node267533&#45;&gt;Node267515 -->
<g id="edge16" class="edge">
<title>Node267533&#45;&gt;Node267515</title>
<path fill="none" stroke="#191970" d="M301.4088,-384.5497C272.8289,-378.469 233.8374,-367.8129 211.095,-359.5924"/>
<polygon fill="#191970" stroke="#191970" points="300.923,-388.0222 311.4179,-386.57 302.3081,-381.1605 300.923,-388.0222"/>
</g>
<!-- Node267533&#45;&gt;Node267526 -->
<g id="edge17" class="edge">
<title>Node267533&#45;&gt;Node267526</title>
<path fill="none" stroke="#191970" d="M339.0847,-407.927C347.4965,-484.64 381.3319,-759.645 440,-821 443.6512,-824.8184 448.0118,-827.8855 452.73,-830.3468"/>
<polygon fill="#191970" stroke="#191970" points="342.5382,-407.3053 337.9903,-397.7362 335.5782,-408.0528 342.5382,-407.3053"/>
</g>
<!-- Node267534 -->
<g id="node9" class="node">
<title>Node267534</title>
<g id="a_node9"><a xlink:href="structqjs_1_1js__traits_3_01std_1_1function_3_01R_07Args_8_8_8_08_4_01_4.html#abc36cacd670b6b5f1773734a0586a02b" target="_top" xlink:title="qjs::js_traits\&lt; std\l::function\&lt; R(Args...)\l\&gt; \&gt;::unwrap">
<polygon fill="none" stroke="#000000" points="452,-392.5 452,-433.5 561,-433.5 561,-392.5 452,-392.5"/>
<text text-anchor="start" x="460" y="-421.5" font-family="Helvetica,sans-Serif" font-size="10.00" fill="#000000">qjs::js_traits&lt; std</text>
<text text-anchor="start" x="460" y="-410.5" font-family="Helvetica,sans-Serif" font-size="10.00" fill="#000000">::function&lt; R(Args...)</text>
<text text-anchor="middle" x="506.5" y="-399.5" font-family="Helvetica,sans-Serif" font-size="10.00" fill="#000000">&gt; &gt;::unwrap</text>
</a>
</g>
</g>
<!-- Node267533&#45;&gt;Node267534 -->
<g id="edge8" class="edge">
<title>Node267533&#45;&gt;Node267534</title>
<path fill="none" stroke="#191970" d="M372.7116,-393.2672C395.6128,-396.645 425.7972,-401.0969 451.6986,-404.9172"/>
<polygon fill="#191970" stroke="#191970" points="373.1471,-389.7936 362.7434,-391.797 372.1256,-396.7187 373.1471,-389.7936"/>
</g>
<!-- Node267535 -->
<g id="node10" class="node">
<title>Node267535</title>
<g id="a_node10"><a xlink:href="quickjs-libc_8c.html#abb1cbe3fdf905e81f603a3a0bfce475a" target="_top" xlink:title="call_handler">
<polygon fill="none" stroke="#000000" points="472.5,-354.5 472.5,-373.5 540.5,-373.5 540.5,-354.5 472.5,-354.5"/>
<text text-anchor="middle" x="506.5" y="-361.5" font-family="Helvetica,sans-Serif" font-size="10.00" fill="#000000">call_handler</text>
</a>
</g>
</g>
<!-- Node267533&#45;&gt;Node267535 -->
<g id="edge9" class="edge">
<title>Node267533&#45;&gt;Node267535</title>
<path fill="none" stroke="#191970" d="M372.9702,-382.9069C402.3013,-378.7538 443.4516,-372.9272 472.2948,-368.8432"/>
<polygon fill="#191970" stroke="#191970" points="372.1539,-379.4875 362.7434,-384.3549 373.1354,-386.4183 372.1539,-379.4875"/>
</g>
<!-- Node267536 -->
<g id="node11" class="node">
<title>Node267536</title>
<g id="a_node11"><a xlink:href="quickjs-libc_8c.html#a9fa4c190ba56314c7ed9b00bbc7ad0f9" target="_top" xlink:title="handle_posted_message">
<polygon fill="none" stroke="#000000" points="444,-316.5 444,-335.5 569,-335.5 569,-316.5 444,-316.5"/>
<text text-anchor="middle" x="506.5" y="-323.5" font-family="Helvetica,sans-Serif" font-size="10.00" fill="#000000">handle_posted_message</text>
</a>
</g>
</g>
<!-- Node267533&#45;&gt;Node267536 -->
<g id="edge10" class="edge">
<title>Node267533&#45;&gt;Node267536</title>
<path fill="none" stroke="#191970" d="M372.3423,-376.395C382.6658,-372.723 393.8882,-368.4527 404,-364 420.5575,-356.709 423.2121,-351.7435 440,-345 448.9135,-341.4196 458.7502,-338.2214 468.0626,-335.5163"/>
<polygon fill="#191970" stroke="#191970" points="371.0809,-373.128 362.7855,-379.7188 373.3804,-379.7396 371.0809,-373.128"/>
</g>
<!-- Node267537 -->
<g id="node12" class="node">
<title>Node267537</title>
<g id="a_node12"><a xlink:href="quickjs_8c.html#aa049793cc8648d35fe81876a2543ca4e" target="_top" xlink:title="JS_GetIterator2">
<polygon fill="none" stroke="#ff0000" points="463.5,-278.5 463.5,-297.5 549.5,-297.5 549.5,-278.5 463.5,-278.5"/>
<text text-anchor="middle" x="506.5" y="-285.5" font-family="Helvetica,sans-Serif" font-size="10.00" fill="#000000">JS_GetIterator2</text>
</a>
</g>
</g>
<!-- Node267533&#45;&gt;Node267537 -->
<g id="edge11" class="edge">
<title>Node267533&#45;&gt;Node267537</title>
<path fill="none" stroke="#191970" d="M372.3224,-380.1664C383.2689,-376.5326 394.8475,-371.3368 404,-364 427.3787,-345.2593 416.0187,-324.9631 440,-307 446.8232,-301.8891 454.9768,-298.1517 463.198,-295.4191"/>
<polygon fill="#191970" stroke="#191970" points="371.1201,-376.8724 362.5349,-383.081 373.118,-383.5813 371.1201,-376.8724"/>
</g>
<!-- Node267569 -->
<g id="node13" class="node">
<title>Node267569</title>
<g id="a_node13"><a xlink:href="quickjs_8c.html#ad6303fbd3add4afa0cb64b0aa6d431ce" target="_top" xlink:title="JS_IteratorNext2">
<polygon fill="none" stroke="#ff0000" points="461,-240.5 461,-259.5 552,-259.5 552,-240.5 461,-240.5"/>
<text text-anchor="middle" x="506.5" y="-247.5" font-family="Helvetica,sans-Serif" font-size="10.00" fill="#000000">JS_IteratorNext2</text>
</a>
</g>
</g>
<!-- Node267533&#45;&gt;Node267569 -->
<g id="edge12" class="edge">
<title>Node267533&#45;&gt;Node267569</title>
<path fill="none" stroke="#191970" d="M372.3781,-381.4933C383.6487,-377.9274 395.4083,-372.4362 404,-364 436.2175,-332.3654 406.7613,-299.5599 440,-269 445.9221,-263.5551 453.2995,-259.6589 460.9646,-256.8736"/>
<polygon fill="#191970" stroke="#191970" points="371.4055,-378.1308 362.6914,-384.157 373.2615,-384.8802 371.4055,-378.1308"/>
</g>
<!-- Node267573 -->
<g id="node14" class="node">
<title>Node267573</title>
<g id="a_node14"><a xlink:href="quickjs_8c.html#a62424fefab7bcc97f49c978205c7a1c1" target="_top" xlink:title="js_for_await_of_next">
<polygon fill="none" stroke="#000000" points="453,-792.5 453,-811.5 560,-811.5 560,-792.5 453,-792.5"/>
<text text-anchor="middle" x="506.5" y="-799.5" font-family="Helvetica,sans-Serif" font-size="10.00" fill="#000000">js_for_await_of_next</text>
</a>
</g>
</g>
<!-- Node267533&#45;&gt;Node267573 -->
<g id="edge13" class="edge">
<title>Node267533&#45;&gt;Node267573</title>
<path fill="none" stroke="#191970" d="M344.5257,-407.4189C358.0233,-442.8427 386.5623,-520.5268 404,-588 426.052,-673.3277 380.7352,-717.7712 440,-783 443.6334,-786.9991 448.0443,-790.1793 452.847,-792.705"/>
<polygon fill="#191970" stroke="#191970" points="347.7,-405.9215 340.8486,-397.8401 341.1649,-408.4303 347.7,-405.9215"/>
</g>
<!-- Node267574 -->
<g id="node15" class="node">
<title>Node267574</title>
<g id="a_node15"><a xlink:href="quickjs_8c.html#afd4ef2d701fa0702f321925b61c57bbf" target="_top" xlink:title="js_call_bound_function">
<polygon fill="none" stroke="#ff0000" points="448.5,-202.5 448.5,-221.5 564.5,-221.5 564.5,-202.5 448.5,-202.5"/>
<text text-anchor="middle" x="506.5" y="-209.5" font-family="Helvetica,sans-Serif" font-size="10.00" fill="#000000">js_call_bound_function</text>
</a>
</g>
</g>
<!-- Node267533&#45;&gt;Node267574 -->
<g id="edge15" class="edge">
<title>Node267533&#45;&gt;Node267574</title>
<path fill="none" stroke="#191970" d="M372.5957,-382.049C383.9874,-378.5241 395.7665,-372.9166 404,-364 445.5441,-319.0088 397.0013,-274.6031 440,-231 443.7939,-227.1528 448.3088,-224.071 453.174,-221.6045"/>
<polygon fill="#191970" stroke="#191970" points="371.5576,-378.7031 362.7834,-384.6414 373.3457,-385.4709 371.5576,-378.7031"/>
</g>
<!-- Node267575 -->
<g id="node16" class="node">
<title>Node267575</title>
<g id="a_node16"><a xlink:href="quickjs_8c.html#a3e852026d167fa03c673f86697dd3e67" target="_top" xlink:title="js_async_generator\l_resolve_or_reject">
<polygon fill="none" stroke="#ff0000" points="456,-153 456,-183 557,-183 557,-153 456,-153"/>
<text text-anchor="start" x="464" y="-171" font-family="Helvetica,sans-Serif" font-size="10.00" fill="#000000">js_async_generator</text>
<text text-anchor="middle" x="506.5" y="-160" font-family="Helvetica,sans-Serif" font-size="10.00" fill="#000000">_resolve_or_reject</text>
</a>
</g>
</g>
<!-- Node267533&#45;&gt;Node267575 -->
<g id="edge18" class="edge">
<title>Node267533&#45;&gt;Node267575</title>
<path fill="none" stroke="#191970" d="M372.6186,-382.3939C384.119,-378.897 395.9604,-373.219 404,-364 455.0458,-305.4652 389.4131,-251.9318 440,-193 444.3382,-187.9462 449.8051,-183.9121 455.7315,-180.6924"/>
<polygon fill="#191970" stroke="#191970" points="371.5194,-379.0625 362.7041,-384.9397 373.2604,-385.8426 371.5194,-379.0625"/>
</g>
<!-- Node267578 -->
<g id="node17" class="node">
<title>Node267578</title>
<g id="a_node17"><a xlink:href="quickjs_8c.html#a2355fabf91f59212ea65baba1b0b7c1b" target="_top" xlink:title="js_async_generator_next">
<polygon fill="none" stroke="#000000" points="444,-114.5 444,-133.5 569,-133.5 569,-114.5 444,-114.5"/>
<text text-anchor="middle" x="506.5" y="-121.5" font-family="Helvetica,sans-Serif" font-size="10.00" fill="#000000">js_async_generator_next</text>
</a>
</g>
</g>
<!-- Node267533&#45;&gt;Node267578 -->
<g id="edge19" class="edge">
<title>Node267533&#45;&gt;Node267578</title>
<path fill="none" stroke="#191970" d="M372.5865,-382.6778C384.1931,-379.2065 396.1101,-373.4722 404,-364 467.4112,-287.8717 374.6377,-218.4598 440,-144 443.8176,-139.651 448.5415,-136.2298 453.6976,-133.5413"/>
<polygon fill="#191970" stroke="#191970" points="371.427,-379.36 362.5757,-385.1828 373.1263,-386.1506 371.427,-379.36"/>
</g>
<!-- Node267579 -->
<g id="node18" class="node">
<title>Node267579</title>
<g id="a_node18"><a xlink:href="quickjs_8c.html#a6357b7fdae71c70c140e78e6c20cb5c2" target="_top" xlink:title="js_dynamic_import_job">
<polygon fill="none" stroke="#ff0000" points="448.5,-754.5 448.5,-773.5 564.5,-773.5 564.5,-754.5 448.5,-754.5"/>
<text text-anchor="middle" x="506.5" y="-761.5" font-family="Helvetica,sans-Serif" font-size="10.00" fill="#000000">js_dynamic_import_job</text>
</a>
</g>
</g>
<!-- Node267533&#45;&gt;Node267579 -->
<g id="edge20" class="edge">
<title>Node267533&#45;&gt;Node267579</title>
<path fill="none" stroke="#191970" d="M344.241,-407.4957C357.2837,-443.0423 385.1211,-520.9157 404,-588 423.3933,-656.9118 390.7356,-693.0582 440,-745 443.6356,-748.8332 447.986,-751.9101 452.698,-754.3773"/>
<polygon fill="#191970" stroke="#191970" points="347.4392,-406.0524 340.6945,-397.8817 340.8718,-408.4751 347.4392,-406.0524"/>
</g>
<!-- Node267581 -->
<g id="node19" class="node">
<title>Node267581</title>
<g id="a_node19"><a xlink:href="quickjs_8c.html#a8d4b24969540aff427939eeda47f451d" target="_top" xlink:title="js_function_apply">
<polygon fill="none" stroke="#ff0000" points="460.5,-76.5 460.5,-95.5 552.5,-95.5 552.5,-76.5 460.5,-76.5"/>
<text text-anchor="middle" x="506.5" y="-83.5" font-family="Helvetica,sans-Serif" font-size="10.00" fill="#000000">js_function_apply</text>
</a>
</g>
</g>
<!-- Node267533&#45;&gt;Node267581 -->
<g id="edge21" class="edge">
<title>Node267533&#45;&gt;Node267581</title>
<path fill="none" stroke="#191970" d="M372.7146,-382.7832C384.3331,-379.3217 396.2248,-373.5665 404,-364 477.2998,-273.813 363.7789,-192.7321 440,-105 445.3549,-98.8364 452.557,-94.6066 460.2472,-91.7183"/>
<polygon fill="#191970" stroke="#191970" points="371.5474,-379.4666 362.6852,-385.2729 373.2339,-386.2605 371.5474,-379.4666"/>
</g>
<!-- Node267584 -->
<g id="node20" class="node">
<title>Node267584</title>
<g id="a_node20"><a xlink:href="quickjs_8c.html#a677ad630a103e1f3d5129e0549112b50" target="_top" xlink:title="js_function_call">
<polygon fill="none" stroke="#000000" points="464.5,-716.5 464.5,-735.5 548.5,-735.5 548.5,-716.5 464.5,-716.5"/>
<text text-anchor="middle" x="506.5" y="-723.5" font-family="Helvetica,sans-Serif" font-size="10.00" fill="#000000">js_function_call</text>
</a>
</g>
</g>
<!-- Node267533&#45;&gt;Node267584 -->
<g id="edge23" class="edge">
<title>Node267533&#45;&gt;Node267584</title>
<path fill="none" stroke="#191970" d="M343.6153,-407.1229C355.8581,-442.6484 382.7386,-521.284 404,-588 420.7779,-640.6473 400.627,-668.2314 440,-707 446.6735,-713.571 455.4538,-717.9017 464.4376,-720.7472"/>
<polygon fill="#191970" stroke="#191970" points="346.8797,-405.8532 340.3081,-397.5427 340.2629,-408.1374 346.8797,-405.8532"/>
</g>
<!-- Node267540 -->
<g id="node21" class="node">
<title>Node267540</title>
<g id="a_node21"><a xlink:href="quickjs_8c.html#a5e32da9a43002cb96dcbd62a1a340144" target="_top" xlink:title="js_array_from">
<polygon fill="none" stroke="#000000" points="468.5,-678.5 468.5,-697.5 544.5,-697.5 544.5,-678.5 468.5,-678.5"/>
<text text-anchor="middle" x="506.5" y="-685.5" font-family="Helvetica,sans-Serif" font-size="10.00" fill="#000000">js_array_from</text>
</a>
</g>
</g>
<!-- Node267533&#45;&gt;Node267540 -->
<g id="edge24" class="edge">
<title>Node267533&#45;&gt;Node267540</title>
<path fill="none" stroke="#191970" d="M343.5433,-407.3208C364.5972,-469.2814 429.8129,-659.531 440,-669 447.7393,-676.1937 458.0157,-680.6868 468.1705,-683.486"/>
<polygon fill="#191970" stroke="#191970" points="346.7776,-405.9597 340.2501,-397.6145 340.1487,-408.2089 346.7776,-405.9597"/>
</g>
<!-- Node267566 -->
<g id="node22" class="node">
<title>Node267566</title>
<g id="a_node22"><a xlink:href="quickjs_8c.html#aa0bbf08a7e91459c68a312fba7016c6d" target="_top" xlink:title="js_array_every">
<polygon fill="none" stroke="#000000" points="466.5,-640.5 466.5,-659.5 546.5,-659.5 546.5,-640.5 466.5,-640.5"/>
<text text-anchor="middle" x="506.5" y="-647.5" font-family="Helvetica,sans-Serif" font-size="10.00" fill="#000000">js_array_every</text>
</a>
</g>
</g>
<!-- Node267533&#45;&gt;Node267566 -->
<g id="edge25" class="edge">
<title>Node267533&#45;&gt;Node267566</title>
<path fill="none" stroke="#191970" d="M342.8036,-407.3014C358.7383,-459.1162 404.3498,-599.4734 440,-631 447.3755,-637.5224 456.849,-641.8158 466.3197,-644.639"/>
<polygon fill="#191970" stroke="#191970" points="346.129,-406.2066 339.868,-397.6597 339.4325,-408.2455 346.129,-406.2066"/>
</g>
<!-- Node267585 -->
<g id="node23" class="node">
<title>Node267585</title>
<g id="a_node23"><a xlink:href="quickjs_8c.html#a36c1692489542a86dd79a7d39ab8ff95" target="_top" xlink:title="js_array_reduce">
<polygon fill="none" stroke="#000000" points="463.5,-602.5 463.5,-621.5 549.5,-621.5 549.5,-602.5 463.5,-602.5"/>
<text text-anchor="middle" x="506.5" y="-609.5" font-family="Helvetica,sans-Serif" font-size="10.00" fill="#000000">js_array_reduce</text>
</a>
</g>
</g>
<!-- Node267533&#45;&gt;Node267585 -->
<g id="edge26" class="edge">
<title>Node267533&#45;&gt;Node267585</title>
<path fill="none" stroke="#191970" d="M341.2704,-407.7068C351.1682,-448.587 379.5889,-542.9626 440,-593 446.7504,-598.5912 455.0583,-602.5386 463.4866,-605.3251"/>
<polygon fill="#191970" stroke="#191970" points="344.6634,-406.8442 339.0048,-397.8871 337.8426,-408.418 344.6634,-406.8442"/>
</g>
<!-- Node267586 -->
<g id="node24" class="node">
<title>Node267586</title>
<g id="a_node24"><a xlink:href="quickjs_8c.html#a9dd41b086da4e13b3487cc9c6e2af2b8" target="_top" xlink:title="js_array_find">
<polygon fill="none" stroke="#000000" points="470.5,-564.5 470.5,-583.5 542.5,-583.5 542.5,-564.5 470.5,-564.5"/>
<text text-anchor="middle" x="506.5" y="-571.5" font-family="Helvetica,sans-Serif" font-size="10.00" fill="#000000">js_array_find</text>
</a>
</g>
</g>
<!-- Node267533&#45;&gt;Node267586 -->
<g id="edge27" class="edge">
<title>Node267533&#45;&gt;Node267586</title>
<path fill="none" stroke="#191970" d="M343.4738,-407.1144C356.2539,-441.9216 388.0755,-515.6724 440,-555 448.8059,-561.6696 459.871,-565.9992 470.4343,-568.8094"/>
<polygon fill="#191970" stroke="#191970" points="346.7569,-405.9003 340.1177,-397.6436 340.1589,-408.2384 346.7569,-405.9003"/>
</g>
<!-- Node267587 -->
<g id="node25" class="node">
<title>Node267587</title>
<g id="a_node25"><a xlink:href="quickjs_8c.html#ad90c33b4aae1181151bda4a98ac2ef23" target="_top" xlink:title="JS_FlattenIntoArray">
<polygon fill="none" stroke="#ff0000" points="454.5,-508.5 454.5,-527.5 558.5,-527.5 558.5,-508.5 454.5,-508.5"/>
<text text-anchor="middle" x="506.5" y="-515.5" font-family="Helvetica,sans-Serif" font-size="10.00" fill="#000000">JS_FlattenIntoArray</text>
</a>
</g>
</g>
<!-- Node267533&#45;&gt;Node267587 -->
<g id="edge28" class="edge">
<title>Node267533&#45;&gt;Node267587</title>
<path fill="none" stroke="#191970" d="M348.9424,-406.0895C366.1536,-430.7432 400.2662,-474.6099 440,-499 446.2421,-502.8317 453.2853,-505.9161 460.3932,-508.3918"/>
<polygon fill="#191970" stroke="#191970" points="351.722,-403.9532 343.1971,-397.6622 345.9382,-407.8963 351.722,-403.9532"/>
</g>
<!-- Node267589 -->
<g id="node26" class="node">
<title>Node267589</title>
<g id="a_node26"><a xlink:href="quickjs_8c.html#aed1bf9ce4b9e3a82388679dd6ec7635b" target="_top" xlink:title="js_string_replace">
<polygon fill="none" stroke="#000000" points="461.5,-38.5 461.5,-57.5 551.5,-57.5 551.5,-38.5 461.5,-38.5"/>
<text text-anchor="middle" x="506.5" y="-45.5" font-family="Helvetica,sans-Serif" font-size="10.00" fill="#000000">js_string_replace</text>
</a>
</g>
</g>
<!-- Node267533&#45;&gt;Node267589 -->
<g id="edge30" class="edge">
<title>Node267533&#45;&gt;Node267589</title>
<path fill="none" stroke="#191970" d="M362.7835,-372.8288C377.3369,-362.8465 394.4685,-348.4185 404,-331 460.8458,-227.117 362.4507,-156.4942 440,-67 445.5828,-60.5573 453.1841,-56.2268 461.2547,-53.3324"/>
<polygon fill="#191970" stroke="#191970" points="360.6138,-370.065 354.1461,-378.4566 364.4353,-375.9299 360.6138,-370.065"/>
</g>
<!-- Node267590 -->
<g id="node27" class="node">
<title>Node267590</title>
<g id="a_node27"><a xlink:href="quickjs_8c.html#a624282391413d4c5a030adbd8b77aa80" target="_top" xlink:title="internalize_json_property">
<polygon fill="none" stroke="#ff0000" points="444,-452.5 444,-471.5 569,-471.5 569,-452.5 444,-452.5"/>
<text text-anchor="middle" x="506.5" y="-459.5" font-family="Helvetica,sans-Serif" font-size="10.00" fill="#000000">internalize_json_property</text>
</a>
</g>
</g>
<!-- Node267533&#45;&gt;Node267590 -->
<g id="edge31" class="edge">
<title>Node267533&#45;&gt;Node267590</title>
<path fill="none" stroke="#191970" d="M361.2006,-402.8192C381.6373,-414.8649 411.9699,-431.6618 440,-443 448.7935,-446.557 458.4925,-449.728 467.7008,-452.4125"/>
<polygon fill="#191970" stroke="#191970" points="362.9314,-399.7763 352.551,-397.6557 359.3434,-405.7868 362.9314,-399.7763"/>
</g>
<!-- Node267592 -->
<g id="node28" class="node">
<title>Node267592</title>
<g id="a_node28"><a xlink:href="quickjs_8c.html#a0da6493b4bc0edb7ddddfab807241d0b" target="_top" xlink:title="js_json_check">
<polygon fill="none" stroke="#ff0000" points="467,-.5 467,-19.5 546,-19.5 546,-.5 467,-.5"/>
<text text-anchor="middle" x="506.5" y="-7.5" font-family="Helvetica,sans-Serif" font-size="10.00" fill="#000000">js_json_check</text>
</a>
</g>
</g>
<!-- Node267533&#45;&gt;Node267592 -->
<g id="edge33" class="edge">
<title>Node267533&#45;&gt;Node267592</title>
<path fill="none" stroke="#191970" d="M362.8906,-372.8868C377.4819,-362.9251 394.6158,-348.4983 404,-331 467.8847,-211.8768 352.3449,-131.8989 440,-29 446.774,-21.0479 456.6242,-16.3064 466.6773,-13.5117"/>
<polygon fill="#191970" stroke="#191970" points="360.7158,-370.1253 354.226,-378.4999 364.5217,-376.0003 360.7158,-370.1253"/>
</g>
<!-- Node267573&#45;&gt;Node267515 -->
<g id="edge14" class="edge">
<title>Node267573&#45;&gt;Node267515</title>
<path fill="none" stroke="#191970" d="M447.3504,-787.9188C444.7708,-786.4399 442.3033,-784.8058 440,-783 284.296,-660.927 209.3658,-411.8041 195.0642,-359.6903"/>
<polygon fill="#191970" stroke="#191970" points="445.9552,-791.1323 456.4772,-792.3721 449.0249,-784.8413 445.9552,-791.1323"/>
</g>
<!-- Node267581&#45;&gt;Node267515 -->
<g id="edge22" class="edge">
<title>Node267581&#45;&gt;Node267515</title>
<path fill="none" stroke="#191970" d="M450.9527,-96.201C446.8686,-98.572 443.131,-101.4676 440,-105 372.5344,-181.1149 478.3365,-261.5798 404,-331 358.3292,-373.6503 280.4173,-368.1517 232.9801,-359.5664"/>
<polygon fill="#191970" stroke="#191970" points="452.7723,-99.2138 460.3458,-91.8047 449.805,-92.8738 452.7723,-99.2138"/>
</g>
<!-- Node267587&#45;&gt;Node267587 -->
<g id="edge29" class="edge">
<title>Node267587&#45;&gt;Node267587</title>
<path fill="none" stroke="#191970" d="M475.0629,-536.2746C475.9592,-541.741 486.4382,-546 506.5,-546 536.3594,-546 544.9906,-536.5653 532.3937,-527.7571"/>
<polygon fill="#191970" stroke="#191970" points="478.085,-538.0475 480.6063,-527.7571 472.2181,-534.2291 478.085,-538.0475"/>
</g>
<!-- Node267590&#45;&gt;Node267590 -->
<g id="edge32" class="edge">
<title>Node267590&#45;&gt;Node267590</title>
<path fill="none" stroke="#191970" d="M475.0629,-480.2746C475.9592,-485.741 486.4382,-490 506.5,-490 536.3594,-490 544.9906,-480.5653 532.3937,-471.7571"/>
<polygon fill="#191970" stroke="#191970" points="478.085,-482.0475 480.6063,-471.7571 472.2181,-478.2291 478.085,-482.0475"/>
</g>
<!-- Node267614&#45;&gt;Node267515 -->
<g id="edge35" class="edge">
<title>Node267614&#45;&gt;Node267515</title>
<path fill="none" stroke="#191970" d="M312.6333,-286.6763C299.5753,-290.7533 283.4528,-295.4145 270,-302 248.3984,-312.5746 226.5771,-329.288 211.6182,-340.2863"/>
<polygon fill="#191970" stroke="#191970" points="313.9199,-289.9381 322.3391,-283.5063 311.7466,-283.284 313.9199,-289.9381"/>
</g>
<!-- Node267628&#45;&gt;Node267515 -->
<g id="edge37" class="edge">
<title>Node267628&#45;&gt;Node267515</title>
<path fill="none" stroke="#191970" d="M308.7961,-324.8979C287.5982,-331.8825 258.2201,-339.8432 234.2954,-345.1948"/>
<polygon fill="#191970" stroke="#191970" points="310.1689,-328.127 318.4855,-321.5632 307.8909,-321.508 310.1689,-328.127"/>
</g>
<!-- Node267628&#45;&gt;Node267589 -->
<g id="edge39" class="edge">
<title>Node267628&#45;&gt;Node267589</title>
<path fill="none" stroke="#191970" d="M382.4133,-306.6486C390.5737,-303.7571 398.2871,-299.4326 404,-293 471.5406,-216.9517 372.5344,-143.1149 440,-67 445.6547,-60.6203 453.288,-56.3179 461.3674,-53.4312"/>
<polygon fill="#191970" stroke="#191970" points="381.3708,-303.3063 372.7214,-309.425 383.2986,-310.0357 381.3708,-303.3063"/>
</g>
<!-- Node267628&#45;&gt;Node267592 -->
<g id="edge38" class="edge">
<title>Node267628&#45;&gt;Node267592</title>
<path fill="none" stroke="#191970" d="M382.5267,-306.7482C390.6784,-303.8491 398.3596,-299.4962 404,-293 481.6376,-203.5823 362.4507,-118.4942 440,-29 446.8409,-21.1054 456.7125,-16.3823 466.7647,-13.5868"/>
<polygon fill="#191970" stroke="#191970" points="381.4844,-303.4059 372.8353,-309.525 383.4125,-310.1351 381.4844,-303.4059"/>
</g>
</g>
</svg>
        <g id="navigator" transform="translate(0 0)" fill="#404254">
                <rect fill="#f2f5e9" fill-opacity="0.5" stroke="#606060" stroke-width=".5" x="0" y="0" width="60" height="60"/>
                <use id="zoomplus" xlink:href="#zoomPlus" x="17" y="9" onmousedown="handleZoom(evt,'in')"/>
                <use id="zoomminus" xlink:href="#zoomMin" x="42" y="9" onmousedown="handleZoom(evt,'out')"/>
                <use id="reset" xlink:href="#resetDef" x="30" y="36" onmousedown="handleReset()"/>
                <g id="arrowUp" xlink:href="#dirArrow" transform="translate(30 24)" onmousedown="handlePan(0,-1)">
                  <use xlink:href="#rim" fill="#404040">
                        <set attributeName="fill" to="#808080" begin="arrowUp.mouseover" end="arrowUp.mouseout"/>
                  </use>
                  <path fill="none" stroke="white" stroke-width="1.5" d="M0,-3.0v7 M-2.5,-0.5L0,-3.0L2.5,-0.5"/>
                </g>
                <g id="arrowRight" xlink:href="#dirArrow" transform="rotate(90) translate(36 -43)" onmousedown="handlePan(1,0)">
                  <use xlink:href="#rim" fill="#404040">
                        <set attributeName="fill" to="#808080" begin="arrowRight.mouseover" end="arrowRight.mouseout"/>
                  </use>
                  <path fill="none" stroke="white" stroke-width="1.5" d="M0,-3.0v7 M-2.5,-0.5L0,-3.0L2.5,-0.5"/>
                </g>
                <g id="arrowDown" xlink:href="#dirArrow" transform="rotate(180) translate(-30 -48)" onmousedown="handlePan(0,1)">
                  <use xlink:href="#rim" fill="#404040">
                        <set attributeName="fill" to="#808080" begin="arrowDown.mouseover" end="arrowDown.mouseout"/>
                  </use>
                  <path fill="none" stroke="white" stroke-width="1.5" d="M0,-3.0v7 M-2.5,-0.5L0,-3.0L2.5,-0.5"/>
                </g>
                <g id="arrowLeft" xlink:href="#dirArrow" transform="rotate(270) translate(-36 17)" onmousedown="handlePan(-1,0)">
                  <use xlink:href="#rim" fill="#404040">
                        <set attributeName="fill" to="#808080" begin="arrowLeft.mouseover" end="arrowLeft.mouseout"/>
                  </use>
                  <path fill="none" stroke="white" stroke-width="1.5" d="M0,-3.0v7 M-2.5,-0.5L0,-3.0L2.5,-0.5"/>
                </g>
        </g>
        <svg viewBox="0 0 15 15" width="100%" height="30px" preserveAspectRatio="xMaxYMin meet">
         <g id="arrow_out" transform="scale(0.3 0.3)">
          <a xlink:href="quickjs_8c_afa66b10f653bc03ae3a338509e26e906_icgraph_org.svg" target="_base">
           <rect id="button" ry="5" rx="5" y="6" x="6" height="38" width="38"
                fill="#f2f5e9" fill-opacity="0.5" stroke="#606060" stroke-width="1.0"/>
           <path id="arrow"
             d="M 11.500037,31.436501 C 11.940474,20.09759 22.043105,11.32322 32.158766,21.979434 L 37.068811,17.246167 C 37.068811,17.246167 37.088388,32 37.088388,32 L 22.160133,31.978069 C 22.160133,31.978069 26.997745,27.140456 26.997745,27.140456 C 18.528582,18.264221 13.291696,25.230495 11.500037,31.436501 z"
             style="fill:#404040;"/>
          </a>
         </g>
        </svg>
</svg>
