<?xml version="1.0" encoding="UTF-8" standalone="no"?>
<!DOCTYPE svg PUBLIC "-//W3C//DTD SVG 1.1//EN"
 "http://www.w3.org/Graphics/SVG/1.1/DTD/svg11.dtd">
<!-- Generated by graphviz version 2.40.1 (20161225.0304)
 -->
<!-- Title: JS_AddIntrinsicProxy Pages: 1 -->
<svg width="466pt" height="28pt"
 viewBox="0.00 0.00 466.00 28.00" xmlns="http://www.w3.org/2000/svg" xmlns:xlink="http://www.w3.org/1999/xlink">
<g id="graph0" class="graph" transform="scale(1 1) rotate(0) translate(4 24)">
<title>JS_AddIntrinsicProxy</title>
<!-- Node9663 -->
<g id="node1" class="node">
<title>Node9663</title>
<polygon fill="#bfbfbf" stroke="#000000" points="0,-.5 0,-19.5 111,-19.5 111,-.5 0,-.5"/>
<text text-anchor="middle" x="55.5" y="-7.5" font-family="Helvetica,sans-Serif" font-size="10.00" fill="#000000">JS_AddIntrinsicProxy</text>
</g>
<!-- Node9664 -->
<g id="node2" class="node">
<title>Node9664</title>
<g id="a_node2"><a xlink:href="quickjs_8c.html#ad8aedb643b8753b7a15f6cb2df61945e" target="_top" xlink:title="JS_NewContext">
<polygon fill="none" stroke="#000000" points="147,-.5 147,-19.5 236,-19.5 236,-.5 147,-.5"/>
<text text-anchor="middle" x="191.5" y="-7.5" font-family="Helvetica,sans-Serif" font-size="10.00" fill="#000000">JS_NewContext</text>
</a>
</g>
</g>
<!-- Node9663&#45;&gt;Node9664 -->
<g id="edge1" class="edge">
<title>Node9663&#45;&gt;Node9664</title>
<path fill="none" stroke="#191970" d="M121.3248,-10C129.9894,-10 138.7011,-10 146.8964,-10"/>
<polygon fill="#191970" stroke="#191970" points="121.2088,-6.5001 111.2088,-10 121.2088,-13.5001 121.2088,-6.5001"/>
</g>
<!-- Node9665 -->
<g id="node3" class="node">
<title>Node9665</title>
<g id="a_node3"><a xlink:href="quickjs-libc_8c.html#a1fbb3adc15e7b967479fc1940e99b67a" target="_top" xlink:title="worker_func">
<polygon fill="none" stroke="#000000" points="272,-.5 272,-19.5 342,-19.5 342,-.5 272,-.5"/>
<text text-anchor="middle" x="307" y="-7.5" font-family="Helvetica,sans-Serif" font-size="10.00" fill="#000000">worker_func</text>
</a>
</g>
</g>
<!-- Node9664&#45;&gt;Node9665 -->
<g id="edge2" class="edge">
<title>Node9664&#45;&gt;Node9665</title>
<path fill="none" stroke="#191970" d="M246.2535,-10C254.9312,-10 263.6994,-10 271.7714,-10"/>
<polygon fill="#191970" stroke="#191970" points="246.1554,-6.5001 236.1553,-10 246.1553,-13.5001 246.1554,-6.5001"/>
</g>
<!-- Node9666 -->
<g id="node4" class="node">
<title>Node9666</title>
<g id="a_node4"><a xlink:href="quickjs-libc_8c.html#aff1e6131e8bf8b7eb25307623ad669e7" target="_top" xlink:title="js_worker_ctor">
<polygon fill="none" stroke="#ff0000" points="378,-.5 378,-19.5 458,-19.5 458,-.5 378,-.5"/>
<text text-anchor="middle" x="418" y="-7.5" font-family="Helvetica,sans-Serif" font-size="10.00" fill="#000000">js_worker_ctor</text>
</a>
</g>
</g>
<!-- Node9665&#45;&gt;Node9666 -->
<g id="edge3" class="edge">
<title>Node9665&#45;&gt;Node9666</title>
<path fill="none" stroke="#191970" d="M352.1986,-10C360.6394,-10 369.4096,-10 377.691,-10"/>
<polygon fill="#191970" stroke="#191970" points="352.1211,-6.5001 342.1211,-10 352.1211,-13.5001 352.1211,-6.5001"/>
</g>
</g>
</svg>
