<?xml version="1.0" encoding="UTF-8" standalone="no"?>
<!DOCTYPE svg PUBLIC "-//W3C//DTD SVG 1.1//EN"
 "http://www.w3.org/Graphics/SVG/1.1/DTD/svg11.dtd">
<!-- Generated by graphviz version 2.40.1 (20161225.0304)
 -->
<!-- Title: JS_WriteString Pages: 1 -->
<!--zoomable 161 -->
<svg id="main" version="1.1" xmlns="http://www.w3.org/2000/svg" xmlns:xlink="http://www.w3.org/1999/xlink" xml:space="preserve" onload="init(evt)">
<style type="text/css"><![CDATA[
.edge:hover path { stroke: red; }
.edge:hover polygon { stroke: red; fill: red; }
]]></style>
<script type="text/javascript"><![CDATA[
var edges = document.getElementsByTagName('g');
if (edges && edges.length) {
  for (var i=0;i<edges.length;i++) {
    if (edges[i].id.substr(0,4)=='edge') {
      edges[i].setAttribute('class','edge');
    }
  }
}
]]></script>
        <defs>
                <circle id="rim" cx="0" cy="0" r="7"/>
                <circle id="rim2" cx="0" cy="0" r="3.5"/>
                <g id="zoomPlus">
                        <use xlink:href="#rim" fill="#404040">
                                <set attributeName="fill" to="#808080" begin="zoomplus.mouseover" end="zoomplus.mouseout"/>
                        </use>
                        <path d="M-4,0h8M0,-4v8" fill="none" stroke="white" stroke-width="1.5" pointer-events="none"/>
                </g>
                <g id="zoomMin">
                        <use xlink:href="#rim" fill="#404040">
                                <set attributeName="fill" to="#808080" begin="zoomminus.mouseover" end="zoomminus.mouseout"/>
                        </use>
                        <path d="M-4,0h8" fill="none" stroke="white" stroke-width="1.5" pointer-events="none"/>
                </g>
                <g id="dirArrow">
                        <path fill="none" stroke="white" stroke-width="1.5" d="M0,-3.0v7 M-2.5,-0.5L0,-3.0L2.5,-0.5"/>
                </g>
               <g id="resetDef">
                       <use xlink:href="#rim2" fill="#404040">
                               <set attributeName="fill" to="#808080" begin="reset.mouseover" end="reset.mouseout"/>
                       </use>
               </g>
        </defs>

<script type="text/javascript">
var viewWidth = 542;
var viewHeight = 161;
var sectionId = 'dynsection-1275';
</script>
<script xlink:href="svgpan.js"/>
<svg id="graph" class="graph">
<g id="viewport">
<title>JS_WriteString</title>
<!-- Node354254 -->
<g id="node1" class="node">
<title>Node354254</title>
<polygon fill="#bfbfbf" stroke="#000000" points="0,-76.5 0,-95.5 83,-95.5 83,-76.5 0,-76.5"/>
<text text-anchor="middle" x="41.5" y="-83.5" font-family="Helvetica,sans-Serif" font-size="10.00" fill="#000000">JS_WriteString</text>
</g>
<!-- Node354255 -->
<g id="node2" class="node">
<title>Node354255</title>
<g id="a_node2"><a xlink:href="quickjs_8c.html#a91942742587df191fbf0f17a2ede99ef" target="_top" xlink:title="JS_WriteObjectAtoms">
<polygon fill="none" stroke="#000000" points="119,-109.5 119,-128.5 233,-128.5 233,-109.5 119,-109.5"/>
<text text-anchor="middle" x="176" y="-116.5" font-family="Helvetica,sans-Serif" font-size="10.00" fill="#000000">JS_WriteObjectAtoms</text>
</a>
</g>
</g>
<!-- Node354254&#45;&gt;Node354255 -->
<g id="edge1" class="edge">
<title>Node354254&#45;&gt;Node354255</title>
<path fill="none" stroke="#191970" d="M90.3,-97.9732C105.7258,-101.758 122.5553,-105.8872 137.1845,-109.4765"/>
<polygon fill="#191970" stroke="#191970" points="90.949,-94.5287 80.403,-95.545 89.2809,-101.3271 90.949,-94.5287"/>
</g>
<!-- Node354259 -->
<g id="node6" class="node">
<title>Node354259</title>
<g id="a_node6"><a xlink:href="quickjs_8c.html#aa9342f7444c1c9f8743d43aa4d7f89e3" target="_top" xlink:title="JS_WriteObjectRec">
<polygon fill="none" stroke="#000000" points="124,-48.5 124,-67.5 228,-67.5 228,-48.5 124,-48.5"/>
<text text-anchor="middle" x="176" y="-55.5" font-family="Helvetica,sans-Serif" font-size="10.00" fill="#000000">JS_WriteObjectRec</text>
</a>
</g>
</g>
<!-- Node354254&#45;&gt;Node354259 -->
<g id="edge5" class="edge">
<title>Node354254&#45;&gt;Node354259</title>
<path fill="none" stroke="#191970" d="M93.2758,-75.2214C105.3703,-72.7036 118.1709,-70.0388 129.9949,-67.5773"/>
<polygon fill="#191970" stroke="#191970" points="92.3961,-71.8294 83.3194,-77.2941 93.8228,-78.6825 92.3961,-71.8294"/>
</g>
<!-- Node354256 -->
<g id="node3" class="node">
<title>Node354256</title>
<g id="a_node3"><a xlink:href="quickjs_8c.html#a431ceb41084feaa6af4e466b8b772ab1" target="_top" xlink:title="JS_WriteObject2">
<polygon fill="none" stroke="#000000" points="277,-114.5 277,-133.5 368,-133.5 368,-114.5 277,-114.5"/>
<text text-anchor="middle" x="322.5" y="-121.5" font-family="Helvetica,sans-Serif" font-size="10.00" fill="#000000">JS_WriteObject2</text>
</a>
</g>
</g>
<!-- Node354255&#45;&gt;Node354256 -->
<g id="edge2" class="edge">
<title>Node354255&#45;&gt;Node354256</title>
<path fill="none" stroke="#191970" d="M243.3434,-121.2984C254.6321,-121.6837 266.1092,-122.0754 276.6927,-122.4366"/>
<polygon fill="#191970" stroke="#191970" points="243.1738,-117.7907 233.0602,-120.9474 242.935,-124.7866 243.1738,-117.7907"/>
</g>
<!-- Node354257 -->
<g id="node4" class="node">
<title>Node354257</title>
<g id="a_node4"><a xlink:href="quickjs-libc_8c.html#ab995f33d3c307ae55a13a18b88023d15" target="_top" xlink:title="js_worker_postMessage">
<polygon fill="none" stroke="#000000" points="412,-133.5 412,-152.5 534,-152.5 534,-133.5 412,-133.5"/>
<text text-anchor="middle" x="473" y="-140.5" font-family="Helvetica,sans-Serif" font-size="10.00" fill="#000000">js_worker_postMessage</text>
</a>
</g>
</g>
<!-- Node354256&#45;&gt;Node354257 -->
<g id="edge3" class="edge">
<title>Node354256&#45;&gt;Node354257</title>
<path fill="none" stroke="#191970" d="M378.3026,-131.0448C389.2032,-132.421 400.6883,-133.8709 411.7545,-135.268"/>
<polygon fill="#191970" stroke="#191970" points="378.423,-127.5324 368.0634,-129.7522 377.5462,-134.4772 378.423,-127.5324"/>
</g>
<!-- Node354258 -->
<g id="node5" class="node">
<title>Node354258</title>
<g id="a_node5"><a xlink:href="quickjs_8c.html#a8c807d481615ed55818787ae89621a37" target="_top" xlink:title="JS_WriteObject">
<polygon fill="none" stroke="#000000" points="430,-95.5 430,-114.5 516,-114.5 516,-95.5 430,-95.5"/>
<text text-anchor="middle" x="473" y="-102.5" font-family="Helvetica,sans-Serif" font-size="10.00" fill="#000000">JS_WriteObject</text>
</a>
</g>
</g>
<!-- Node354256&#45;&gt;Node354258 -->
<g id="edge4" class="edge">
<title>Node354256&#45;&gt;Node354258</title>
<path fill="none" stroke="#191970" d="M378.4404,-116.9378C395.4545,-114.7898 413.881,-112.4635 429.9097,-110.44"/>
<polygon fill="#191970" stroke="#191970" points="377.5462,-113.5228 368.0634,-118.2478 378.423,-120.4676 377.5462,-113.5228"/>
</g>
<!-- Node354259&#45;&gt;Node354256 -->
<g id="edge13" class="edge">
<title>Node354259&#45;&gt;Node354256</title>
<path fill="none" stroke="#191970" d="M202.1132,-72.3168C220.5245,-82.1323 245.9168,-95.1154 269,-105 276.7922,-108.3368 285.3868,-111.5759 293.3651,-114.4064"/>
<polygon fill="#191970" stroke="#191970" points="203.6356,-69.1615 193.1709,-67.5058 200.3191,-75.326 203.6356,-69.1615"/>
</g>
<!-- Node354259&#45;&gt;Node354259 -->
<g id="edge12" class="edge">
<title>Node354259&#45;&gt;Node354259</title>
<path fill="none" stroke="#191970" d="M151.0745,-77.0292C152.4341,-82.128 160.7426,-86 176,-86 199.8164,-86 206.7008,-76.5653 196.6533,-67.7571"/>
<polygon fill="#191970" stroke="#191970" points="154.3407,-78.304 155.3467,-67.7571 147.9831,-75.3747 154.3407,-78.304"/>
</g>
<!-- Node354260 -->
<g id="node7" class="node">
<title>Node354260</title>
<g id="a_node7"><a xlink:href="quickjs_8c.html#aba35628e2e963dca8fa201e6708046d6" target="_top" xlink:title="JS_WriteArray">
<polygon fill="none" stroke="#000000" points="282.5,-76.5 282.5,-95.5 362.5,-95.5 362.5,-76.5 282.5,-76.5"/>
<text text-anchor="middle" x="322.5" y="-83.5" font-family="Helvetica,sans-Serif" font-size="10.00" fill="#000000">JS_WriteArray</text>
</a>
</g>
</g>
<!-- Node354259&#45;&gt;Node354260 -->
<g id="edge6" class="edge">
<title>Node354259&#45;&gt;Node354260</title>
<path fill="none" stroke="#191970" d="M238.2084,-63.2083C259.8353,-67.0711 282.7765,-71.9858 299.2563,-76.4663"/>
<polygon fill="#191970" stroke="#191970" points="238.5124,-59.7091 228.0629,-61.4581 237.3223,-66.6072 238.5124,-59.7091"/>
</g>
<!-- Node354261 -->
<g id="node8" class="node">
<title>Node354261</title>
<g id="a_node8"><a xlink:href="quickjs_8c.html#a3da261d6aeb1d35f3fb47a0076752a57" target="_top" xlink:title="JS_WriteObjectTag">
<polygon fill="none" stroke="#000000" points="271.5,-38.5 271.5,-57.5 373.5,-57.5 373.5,-38.5 271.5,-38.5"/>
<text text-anchor="middle" x="322.5" y="-45.5" font-family="Helvetica,sans-Serif" font-size="10.00" fill="#000000">JS_WriteObjectTag</text>
</a>
</g>
</g>
<!-- Node354259&#45;&gt;Node354261 -->
<g id="edge8" class="edge">
<title>Node354259&#45;&gt;Node354261</title>
<path fill="none" stroke="#191970" d="M232.7722,-47.5289C245.4869,-46.4194 258.9003,-45.5462 271.3699,-45.0214"/>
<polygon fill="#191970" stroke="#191970" points="232.3862,-44.0497 222.7563,-48.4672 233.0392,-51.0191 232.3862,-44.0497"/>
</g>
<!-- Node354262 -->
<g id="node9" class="node">
<title>Node354262</title>
<g id="a_node9"><a xlink:href="quickjs_8c.html#ab24f0a3286c69433ab7e48dcc39c36cb" target="_top" xlink:title="JS_WriteTypedArray">
<polygon fill="none" stroke="#000000" points="269,-.5 269,-19.5 376,-19.5 376,-.5 269,-.5"/>
<text text-anchor="middle" x="322.5" y="-7.5" font-family="Helvetica,sans-Serif" font-size="10.00" fill="#000000">JS_WriteTypedArray</text>
</a>
</g>
</g>
<!-- Node354259&#45;&gt;Node354262 -->
<g id="edge10" class="edge">
<title>Node354259&#45;&gt;Node354262</title>
<path fill="none" stroke="#191970" d="M200.9865,-44.5861C220.9253,-36.5507 249.4615,-26.8103 273.8703,-19.5343"/>
<polygon fill="#191970" stroke="#191970" points="199.5444,-41.3955 191.6781,-48.4928 202.2534,-47.8501 199.5444,-41.3955"/>
</g>
<!-- Node354260&#45;&gt;Node354259 -->
<g id="edge7" class="edge">
<title>Node354260&#45;&gt;Node354259</title>
<path fill="none" stroke="#191970" d="M272.2715,-82.8445C247.4856,-78.7859 218.785,-72.8485 199.2134,-67.5254"/>
<polygon fill="#191970" stroke="#191970" points="271.8382,-86.3193 282.2593,-84.4086 272.9212,-79.4035 271.8382,-86.3193"/>
</g>
<!-- Node354261&#45;&gt;Node354259 -->
<g id="edge9" class="edge">
<title>Node354261&#45;&gt;Node354259</title>
<path fill="none" stroke="#191970" d="M265.7396,-58.4701C253.3378,-59.5524 240.2708,-60.41 228.0629,-60.9387"/>
<polygon fill="#191970" stroke="#191970" points="266.338,-61.9294 275.9672,-57.5103 265.6839,-54.96 266.338,-61.9294"/>
</g>
<!-- Node354262&#45;&gt;Node354259 -->
<g id="edge11" class="edge">
<title>Node354262&#45;&gt;Node354259</title>
<path fill="none" stroke="#191970" d="M297.4582,-23.4362C277.5636,-31.4506 249.1348,-41.1558 224.7824,-48.4202"/>
<polygon fill="#191970" stroke="#191970" points="298.8823,-26.6343 306.7502,-19.5388 296.1748,-20.1791 298.8823,-26.6343"/>
</g>
</g>
</svg>
        <g id="navigator" transform="translate(0 0)" fill="#404254">
                <rect fill="#f2f5e9" fill-opacity="0.5" stroke="#606060" stroke-width=".5" x="0" y="0" width="60" height="60"/>
                <use id="zoomplus" xlink:href="#zoomPlus" x="17" y="9" onmousedown="handleZoom(evt,'in')"/>
                <use id="zoomminus" xlink:href="#zoomMin" x="42" y="9" onmousedown="handleZoom(evt,'out')"/>
                <use id="reset" xlink:href="#resetDef" x="30" y="36" onmousedown="handleReset()"/>
                <g id="arrowUp" xlink:href="#dirArrow" transform="translate(30 24)" onmousedown="handlePan(0,-1)">
                  <use xlink:href="#rim" fill="#404040">
                        <set attributeName="fill" to="#808080" begin="arrowUp.mouseover" end="arrowUp.mouseout"/>
                  </use>
                  <path fill="none" stroke="white" stroke-width="1.5" d="M0,-3.0v7 M-2.5,-0.5L0,-3.0L2.5,-0.5"/>
                </g>
                <g id="arrowRight" xlink:href="#dirArrow" transform="rotate(90) translate(36 -43)" onmousedown="handlePan(1,0)">
                  <use xlink:href="#rim" fill="#404040">
                        <set attributeName="fill" to="#808080" begin="arrowRight.mouseover" end="arrowRight.mouseout"/>
                  </use>
                  <path fill="none" stroke="white" stroke-width="1.5" d="M0,-3.0v7 M-2.5,-0.5L0,-3.0L2.5,-0.5"/>
                </g>
                <g id="arrowDown" xlink:href="#dirArrow" transform="rotate(180) translate(-30 -48)" onmousedown="handlePan(0,1)">
                  <use xlink:href="#rim" fill="#404040">
                        <set attributeName="fill" to="#808080" begin="arrowDown.mouseover" end="arrowDown.mouseout"/>
                  </use>
                  <path fill="none" stroke="white" stroke-width="1.5" d="M0,-3.0v7 M-2.5,-0.5L0,-3.0L2.5,-0.5"/>
                </g>
                <g id="arrowLeft" xlink:href="#dirArrow" transform="rotate(270) translate(-36 17)" onmousedown="handlePan(-1,0)">
                  <use xlink:href="#rim" fill="#404040">
                        <set attributeName="fill" to="#808080" begin="arrowLeft.mouseover" end="arrowLeft.mouseout"/>
                  </use>
                  <path fill="none" stroke="white" stroke-width="1.5" d="M0,-3.0v7 M-2.5,-0.5L0,-3.0L2.5,-0.5"/>
                </g>
        </g>
        <svg viewBox="0 0 15 15" width="100%" height="30px" preserveAspectRatio="xMaxYMin meet">
         <g id="arrow_out" transform="scale(0.3 0.3)">
          <a xlink:href="quickjs_8c_a0c946fdd3a6def82765db148f99b8fba_icgraph_org.svg" target="_base">
           <rect id="button" ry="5" rx="5" y="6" x="6" height="38" width="38"
                fill="#f2f5e9" fill-opacity="0.5" stroke="#606060" stroke-width="1.0"/>
           <path id="arrow"
             d="M 11.500037,31.436501 C 11.940474,20.09759 22.043105,11.32322 32.158766,21.979434 L 37.068811,17.246167 C 37.068811,17.246167 37.088388,32 37.088388,32 L 22.160133,31.978069 C 22.160133,31.978069 26.997745,27.140456 26.997745,27.140456 C 18.528582,18.264221 13.291696,25.230495 11.500037,31.436501 z"
             style="fill:#404040;"/>
          </a>
         </g>
        </svg>
</svg>
