<?xml version="1.0" encoding="UTF-8" standalone="no"?>
<!DOCTYPE svg PUBLIC "-//W3C//DTD SVG 1.1//EN"
 "http://www.w3.org/Graphics/SVG/1.1/DTD/svg11.dtd">
<!-- Generated by graphviz version 2.40.1 (20161225.0304)
 -->
<!-- Title: free_property Pages: 1 -->
<svg width="577pt" height="256pt"
 viewBox="0.00 0.00 577.00 256.00" xmlns="http://www.w3.org/2000/svg" xmlns:xlink="http://www.w3.org/1999/xlink">
<g id="graph0" class="graph" transform="scale(1 1) rotate(0) translate(4 252)">
<title>free_property</title>
<!-- Node145597 -->
<g id="node1" class="node">
<title>Node145597</title>
<polygon fill="#bfbfbf" stroke="#000000" points="0,-171.5 0,-190.5 74,-190.5 74,-171.5 0,-171.5"/>
<text text-anchor="middle" x="37" y="-178.5" font-family="Helvetica,sans-Serif" font-size="10.00" fill="#000000">free_property</text>
</g>
<!-- Node145598 -->
<g id="node2" class="node">
<title>Node145598</title>
<g id="a_node2"><a xlink:href="quickjs_8c.html#a9e7b4bccf927d811b0f99b40b08c0472" target="_top" xlink:title="free_var_ref">
<polygon fill="none" stroke="#000000" points="117.5,-171.5 117.5,-190.5 185.5,-190.5 185.5,-171.5 117.5,-171.5"/>
<text text-anchor="middle" x="151.5" y="-178.5" font-family="Helvetica,sans-Serif" font-size="10.00" fill="#000000">free_var_ref</text>
</a>
</g>
</g>
<!-- Node145597&#45;&gt;Node145598 -->
<g id="edge1" class="edge">
<title>Node145597&#45;&gt;Node145598</title>
<path fill="none" stroke="#191970" d="M74.1749,-181C84.6656,-181 96.1861,-181 107.0572,-181"/>
<polygon fill="#191970" stroke="#191970" points="107.2263,-184.5001 117.2262,-181 107.2262,-177.5001 107.2263,-184.5001"/>
</g>
<!-- Node145600 -->
<g id="node4" class="node">
<title>Node145600</title>
<g id="a_node4"><a xlink:href="quickjs_8h.html#ab8db583fa5e7c2b1935854a42859daed" target="_top" xlink:title="JS_FreeValueRT">
<polygon fill="none" stroke="#000000" points="237.5,-228.5 237.5,-247.5 329.5,-247.5 329.5,-228.5 237.5,-228.5"/>
<text text-anchor="middle" x="283.5" y="-235.5" font-family="Helvetica,sans-Serif" font-size="10.00" fill="#000000">JS_FreeValueRT</text>
</a>
</g>
</g>
<!-- Node145597&#45;&gt;Node145600 -->
<g id="edge15" class="edge">
<title>Node145597&#45;&gt;Node145600</title>
<path fill="none" stroke="#191970" d="M72.5749,-190.5561C84.4517,-193.6672 97.7739,-197.0712 110,-200 149.1332,-209.3744 193.4548,-219.066 227.5058,-226.3154"/>
<polygon fill="#191970" stroke="#191970" points="227.2178,-229.8321 237.7265,-228.4838 228.6706,-222.9845 227.2178,-229.8321"/>
</g>
<!-- Node145632 -->
<g id="node8" class="node">
<title>Node145632</title>
<g id="a_node8"><a xlink:href="quickjs_8c.html#af2bcf1faee5b5dd948692540d9cce73e" target="_top" xlink:title="js_autoinit_free">
<polygon fill="none" stroke="#000000" points="110,-114.5 110,-133.5 193,-133.5 193,-114.5 110,-114.5"/>
<text text-anchor="middle" x="151.5" y="-121.5" font-family="Helvetica,sans-Serif" font-size="10.00" fill="#000000">js_autoinit_free</text>
</a>
</g>
</g>
<!-- Node145597&#45;&gt;Node145632 -->
<g id="edge9" class="edge">
<title>Node145597&#45;&gt;Node145632</title>
<path fill="none" stroke="#191970" d="M56.1647,-171.4595C74.4936,-162.335 102.3543,-148.4656 123.2313,-138.0726"/>
<polygon fill="#191970" stroke="#191970" points="124.8805,-141.1614 132.2728,-133.5716 121.7609,-134.895 124.8805,-141.1614"/>
</g>
<!-- Node145599 -->
<g id="node3" class="node">
<title>Node145599</title>
<g id="a_node3"><a xlink:href="quickjs_8c.html#a69e19dda8a93d613203e0baa06f0ed8d" target="_top" xlink:title="js_free_rt">
<polygon fill="none" stroke="#000000" points="512,-190.5 512,-209.5 569,-209.5 569,-190.5 512,-190.5"/>
<text text-anchor="middle" x="540.5" y="-197.5" font-family="Helvetica,sans-Serif" font-size="10.00" fill="#000000">js_free_rt</text>
</a>
</g>
</g>
<!-- Node145598&#45;&gt;Node145599 -->
<g id="edge2" class="edge">
<title>Node145598&#45;&gt;Node145599</title>
<path fill="none" stroke="#191970" d="M185.6802,-182.6695C257.9242,-186.1981 425.7272,-194.3941 501.787,-198.1091"/>
<polygon fill="#191970" stroke="#191970" points="501.7321,-201.6105 511.891,-198.6026 502.0737,-194.6189 501.7321,-201.6105"/>
</g>
<!-- Node145598&#45;&gt;Node145600 -->
<g id="edge3" class="edge">
<title>Node145598&#45;&gt;Node145600</title>
<path fill="none" stroke="#191970" d="M173.5938,-190.5405C195.0097,-199.7883 227.713,-213.9102 251.8821,-224.3468"/>
<polygon fill="#191970" stroke="#191970" points="250.7659,-227.6772 261.3341,-228.4284 253.541,-221.2507 250.7659,-227.6772"/>
</g>
<!-- Node145617 -->
<g id="node6" class="node">
<title>Node145617</title>
<g id="a_node6"><a xlink:href="list_8h.html#ab60d5d18869ebeb5d6ab694289576fa7" target="_top" xlink:title="list_del">
<polygon fill="none" stroke="#000000" points="517,-76.5 517,-95.5 564,-95.5 564,-76.5 517,-76.5"/>
<text text-anchor="middle" x="540.5" y="-83.5" font-family="Helvetica,sans-Serif" font-size="10.00" fill="#000000">list_del</text>
</a>
</g>
</g>
<!-- Node145598&#45;&gt;Node145617 -->
<g id="edge6" class="edge">
<title>Node145598&#45;&gt;Node145617</title>
<path fill="none" stroke="#191970" d="M162.6195,-171.2071C171.0918,-163.653 182.9688,-152.8623 193,-143 209.5895,-126.6898 208.1658,-115.3524 229,-105 320.7735,-59.3984 446.9787,-70.8097 506.6385,-79.8802"/>
<polygon fill="#191970" stroke="#191970" points="506.2166,-83.357 516.6431,-81.4758 507.3192,-76.4444 506.2166,-83.357"/>
</g>
<!-- Node145616 -->
<g id="node7" class="node">
<title>Node145616</title>
<g id="a_node7"><a xlink:href="quickjs_8c.html#adfb3133f30938e2db9b525ade5fc09cf" target="_top" xlink:title="remove_gc_object">
<polygon fill="none" stroke="#000000" points="377,-114.5 377,-133.5 473,-133.5 473,-114.5 377,-114.5"/>
<text text-anchor="middle" x="425" y="-121.5" font-family="Helvetica,sans-Serif" font-size="10.00" fill="#000000">remove_gc_object</text>
</a>
</g>
</g>
<!-- Node145598&#45;&gt;Node145616 -->
<g id="edge7" class="edge">
<title>Node145598&#45;&gt;Node145616</title>
<path fill="none" stroke="#191970" d="M185.5616,-174.2088C222.9738,-166.7148 284.8148,-154.2253 338,-143 348.8866,-140.7023 360.5281,-138.1948 371.6395,-135.7771"/>
<polygon fill="#191970" stroke="#191970" points="372.6343,-139.1425 381.658,-133.5907 371.1417,-132.3035 372.6343,-139.1425"/>
</g>
<!-- Node145601 -->
<g id="node5" class="node">
<title>Node145601</title>
<g id="a_node5"><a xlink:href="quickjs_8c.html#ab1ea3fad7d138be12144a38be4d36423" target="_top" xlink:title="__JS_FreeValueRT">
<polygon fill="none" stroke="#ff0000" points="374,-228.5 374,-247.5 476,-247.5 476,-228.5 374,-228.5"/>
<text text-anchor="middle" x="425" y="-235.5" font-family="Helvetica,sans-Serif" font-size="10.00" fill="#000000">__JS_FreeValueRT</text>
</a>
</g>
</g>
<!-- Node145600&#45;&gt;Node145601 -->
<g id="edge4" class="edge">
<title>Node145600&#45;&gt;Node145601</title>
<path fill="none" stroke="#191970" d="M329.8324,-238C340.5699,-238 352.1626,-238 363.4386,-238"/>
<polygon fill="#191970" stroke="#191970" points="363.6714,-241.5001 373.6714,-238 363.6714,-234.5001 363.6714,-241.5001"/>
</g>
<!-- Node145601&#45;&gt;Node145599 -->
<g id="edge5" class="edge">
<title>Node145601&#45;&gt;Node145599</title>
<path fill="none" stroke="#191970" d="M454.1455,-228.411C468.618,-223.6495 486.2969,-217.8331 501.8805,-212.706"/>
<polygon fill="#191970" stroke="#191970" points="503.3587,-215.9043 511.7639,-209.4543 501.1709,-209.2549 503.3587,-215.9043"/>
</g>
<!-- Node145616&#45;&gt;Node145617 -->
<g id="edge8" class="edge">
<title>Node145616&#45;&gt;Node145617</title>
<path fill="none" stroke="#191970" d="M454.1455,-114.411C470.1947,-109.1308 490.187,-102.5532 506.8924,-97.057"/>
<polygon fill="#191970" stroke="#191970" points="508.3992,-100.2459 516.8045,-93.7959 506.2115,-93.5965 508.3992,-100.2459"/>
</g>
<!-- Node145633 -->
<g id="node9" class="node">
<title>Node145633</title>
<g id="a_node9"><a xlink:href="quickjs_8c.html#ab47c18f4aa00970629cc8e69fe2fdb51" target="_top" xlink:title="js_autoinit_get_realm">
<polygon fill="none" stroke="#000000" points="229,-.5 229,-19.5 338,-19.5 338,-.5 229,-.5"/>
<text text-anchor="middle" x="283.5" y="-7.5" font-family="Helvetica,sans-Serif" font-size="10.00" fill="#000000">js_autoinit_get_realm</text>
</a>
</g>
</g>
<!-- Node145632&#45;&gt;Node145633 -->
<g id="edge10" class="edge">
<title>Node145632&#45;&gt;Node145633</title>
<path fill="none" stroke="#191970" d="M157.6436,-114.3548C169.4975,-96.4044 197.1826,-57.5587 229,-34 234.1801,-30.1645 240.0694,-26.7738 246.0152,-23.8386"/>
<polygon fill="#191970" stroke="#191970" points="247.6628,-26.9342 255.3115,-19.6028 244.7604,-20.5642 247.6628,-26.9342"/>
</g>
<!-- Node145624 -->
<g id="node10" class="node">
<title>Node145624</title>
<g id="a_node10"><a xlink:href="quickjs_8c.html#a1b4fe6eb1b7bcaec6713bd5ac2921f1b" target="_top" xlink:title="JS_FreeContext">
<polygon fill="none" stroke="#ff0000" points="239.5,-114.5 239.5,-133.5 327.5,-133.5 327.5,-114.5 239.5,-114.5"/>
<text text-anchor="middle" x="283.5" y="-121.5" font-family="Helvetica,sans-Serif" font-size="10.00" fill="#000000">JS_FreeContext</text>
</a>
</g>
</g>
<!-- Node145632&#45;&gt;Node145624 -->
<g id="edge11" class="edge">
<title>Node145632&#45;&gt;Node145624</title>
<path fill="none" stroke="#191970" d="M193.2656,-124C204.5988,-124 217.0391,-124 228.9643,-124"/>
<polygon fill="#191970" stroke="#191970" points="229.2706,-127.5001 239.2706,-124 229.2705,-120.5001 229.2706,-127.5001"/>
</g>
<!-- Node145624&#45;&gt;Node145599 -->
<g id="edge12" class="edge">
<title>Node145624&#45;&gt;Node145599</title>
<path fill="none" stroke="#191970" d="M315.789,-133.5485C363.1846,-147.5643 451.4395,-173.663 502.0957,-188.6431"/>
<polygon fill="#191970" stroke="#191970" points="501.1204,-192.0044 511.7024,-191.484 503.1055,-185.2918 501.1204,-192.0044"/>
</g>
<!-- Node145624&#45;&gt;Node145617 -->
<g id="edge13" class="edge">
<title>Node145624&#45;&gt;Node145617</title>
<path fill="none" stroke="#191970" d="M324.7977,-114.4825C340.1838,-111.1606 357.8345,-107.6134 374,-105 419.742,-97.605 473.0115,-92.0575 506.7385,-88.9209"/>
<polygon fill="#191970" stroke="#191970" points="507.327,-92.3818 516.9678,-87.9879 506.6912,-85.4107 507.327,-92.3818"/>
</g>
<!-- Node145624&#45;&gt;Node145616 -->
<g id="edge14" class="edge">
<title>Node145624&#45;&gt;Node145616</title>
<path fill="none" stroke="#191970" d="M327.8832,-124C340.1622,-124 353.6777,-124 366.6228,-124"/>
<polygon fill="#191970" stroke="#191970" points="366.8478,-127.5001 376.8477,-124 366.8477,-120.5001 366.8478,-127.5001"/>
</g>
</g>
</svg>
