<?xml version="1.0" encoding="UTF-8" standalone="no"?>
<!DOCTYPE svg PUBLIC "-//W3C//DTD SVG 1.1//EN"
 "http://www.w3.org/Graphics/SVG/1.1/DTD/svg11.dtd">
<!-- Generated by graphviz version 2.40.1 (20161225.0304)
 -->
<!-- Title: find_hashed_shape_proto Pages: 1 -->
<svg width="659pt" height="1011pt"
 viewBox="0.00 0.00 659.00 1010.50" xmlns="http://www.w3.org/2000/svg" xmlns:xlink="http://www.w3.org/1999/xlink">
<g id="graph0" class="graph" transform="scale(1 1) rotate(0) translate(4 1006.5)">
<title>find_hashed_shape_proto</title>
<!-- Node129217 -->
<g id="node1" class="node">
<title>Node129217</title>
<polygon fill="#bfbfbf" stroke="#000000" points="0,-446 0,-465 128,-465 128,-446 0,-446"/>
<text text-anchor="middle" x="64" y="-453" font-family="Helvetica,sans-Serif" font-size="10.00" fill="#000000">find_hashed_shape_proto</text>
</g>
<!-- Node129218 -->
<g id="node2" class="node">
<title>Node129218</title>
<g id="a_node2"><a xlink:href="quickjs_8c.html#a73738c650f11459db0d7af3dcdf8316b" target="_top" xlink:title="JS_NewObjectProtoClass">
<polygon fill="none" stroke="#000000" points="164,-446 164,-465 295,-465 295,-446 164,-446"/>
<text text-anchor="middle" x="229.5" y="-453" font-family="Helvetica,sans-Serif" font-size="10.00" fill="#000000">JS_NewObjectProtoClass</text>
</a>
</g>
</g>
<!-- Node129217&#45;&gt;Node129218 -->
<g id="edge1" class="edge">
<title>Node129217&#45;&gt;Node129218</title>
<path fill="none" stroke="#191970" d="M138.6382,-455.5C147.0474,-455.5 155.5694,-455.5 163.8523,-455.5"/>
<polygon fill="#191970" stroke="#191970" points="138.4606,-452.0001 128.4605,-455.5 138.4605,-459.0001 138.4606,-452.0001"/>
</g>
<!-- Node129219 -->
<g id="node3" class="node">
<title>Node129219</title>
<g id="a_node3"><a xlink:href="quickjs-libc_8c.html#a8129754877bdfb4d22f64dae5ba8e778" target="_top" xlink:title="js_worker_ctor_internal">
<polygon fill="none" stroke="#000000" points="342.5,-919 342.5,-938 459.5,-938 459.5,-919 342.5,-919"/>
<text text-anchor="middle" x="401" y="-926" font-family="Helvetica,sans-Serif" font-size="10.00" fill="#000000">js_worker_ctor_internal</text>
</a>
</g>
</g>
<!-- Node129218&#45;&gt;Node129219 -->
<g id="edge2" class="edge">
<title>Node129218&#45;&gt;Node129219</title>
<path fill="none" stroke="#191970" d="M230.1622,-475.3933C233.0794,-537.9882 248.669,-734.6891 331,-868.5 344.5043,-890.4482 368.7093,-908.5211 384.8143,-918.912"/>
<polygon fill="#191970" stroke="#191970" points="233.6438,-474.8646 229.7416,-465.0145 226.6495,-475.1481 233.6438,-474.8646"/>
</g>
<!-- Node129225 -->
<g id="node5" class="node">
<title>Node129225</title>
<g id="a_node5"><a xlink:href="quickjs_8c.html#a659dc0db7e440fd6eb012d613627faa3" target="_top" xlink:title="JS_NewObjectClass">
<polygon fill="none" stroke="#ff0000" points="347,-840 347,-859 455,-859 455,-840 347,-840"/>
<text text-anchor="middle" x="401" y="-847" font-family="Helvetica,sans-Serif" font-size="10.00" fill="#000000">JS_NewObjectClass</text>
</a>
</g>
</g>
<!-- Node129218&#45;&gt;Node129225 -->
<g id="edge4" class="edge">
<title>Node129218&#45;&gt;Node129225</title>
<path fill="none" stroke="#191970" d="M231.3928,-475.3101C237.4368,-530.1357 260.2272,-686.7932 331,-792.5 344.7761,-813.0761 368.2118,-829.9661 384.1359,-839.8821"/>
<polygon fill="#191970" stroke="#191970" points="234.8585,-474.7973 230.346,-465.2115 227.8958,-475.5191 234.8585,-474.7973"/>
</g>
<!-- Node129829 -->
<g id="node11" class="node">
<title>Node129829</title>
<g id="a_node11"><a xlink:href="quickjs_8c.html#a884d294acbf5be675ffc760e38bd0521" target="_top" xlink:title="JS_NewObjectProto">
<polygon fill="none" stroke="#ff0000" points="348,-731 348,-750 454,-750 454,-731 348,-731"/>
<text text-anchor="middle" x="401" y="-738" font-family="Helvetica,sans-Serif" font-size="10.00" fill="#000000">JS_NewObjectProto</text>
</a>
</g>
</g>
<!-- Node129218&#45;&gt;Node129829 -->
<g id="edge10" class="edge">
<title>Node129218&#45;&gt;Node129829</title>
<path fill="none" stroke="#191970" d="M231.536,-475.1605C237.5539,-523.2573 259.5743,-647.9165 331,-716.5 337.5795,-722.8177 345.8938,-727.4771 354.4745,-730.9121"/>
<polygon fill="#191970" stroke="#191970" points="235.0028,-474.6706 230.38,-465.1375 228.0489,-475.4727 235.0028,-474.6706"/>
</g>
<!-- Node129469 -->
<g id="node12" class="node">
<title>Node129469</title>
<g id="a_node12"><a xlink:href="quickjs_8c.html#a36322a209de4ef17f939e6d128578d7f" target="_top" xlink:title="js_op_define_class">
<polygon fill="none" stroke="#ff0000" points="529,-721 529,-740 629,-740 629,-721 529,-721"/>
<text text-anchor="middle" x="579" y="-728" font-family="Helvetica,sans-Serif" font-size="10.00" fill="#000000">js_op_define_class</text>
</a>
</g>
</g>
<!-- Node129218&#45;&gt;Node129469 -->
<g id="edge25" class="edge">
<title>Node129218&#45;&gt;Node129469</title>
<path fill="none" stroke="#191970" d="M233.0224,-475.2186C244.4993,-537.0098 282.8668,-724.8256 331,-759.5 394.5708,-805.2954 431.3758,-769.9806 507,-749.5 518.4801,-746.3909 531.0077,-743.0627 542.3473,-740.0743"/>
<polygon fill="#191970" stroke="#191970" points="236.4348,-474.4217 231.196,-465.2128 229.5486,-475.6787 236.4348,-474.4217"/>
</g>
<!-- Node129386 -->
<g id="node13" class="node">
<title>Node129386</title>
<g id="a_node13"><a xlink:href="quickjs_8c.html#a7efb53c2f76fd5cc0e584449437ec09c" target="_top" xlink:title="JS_AddIntrinsicBasicObjects">
<polygon fill="none" stroke="#ff0000" points="507,-664 507,-683 651,-683 651,-664 507,-664"/>
<text text-anchor="middle" x="579" y="-671" font-family="Helvetica,sans-Serif" font-size="10.00" fill="#000000">JS_AddIntrinsicBasicObjects</text>
</a>
</g>
</g>
<!-- Node129218&#45;&gt;Node129386 -->
<g id="edge36" class="edge">
<title>Node129218&#45;&gt;Node129386</title>
<path fill="none" stroke="#191970" d="M231.3542,-475.3663C236.86,-521.5556 257.6374,-635.8554 331,-683.5 400.9275,-728.9137 506.8325,-699.9614 554.3759,-683.1177"/>
<polygon fill="#191970" stroke="#191970" points="234.8075,-474.7424 230.2608,-465.1727 227.8474,-475.489 234.8075,-474.7424"/>
</g>
<!-- Node129264 -->
<g id="node14" class="node">
<title>Node129264</title>
<g id="a_node14"><a xlink:href="quickjs_8c.html#a4c9489297c684663f30e517204a9ec14" target="_top" xlink:title="JS_AddIntrinsicBaseObjects">
<polygon fill="none" stroke="#ff0000" points="508,-617 508,-636 650,-636 650,-617 508,-617"/>
<text text-anchor="middle" x="579" y="-624" font-family="Helvetica,sans-Serif" font-size="10.00" fill="#000000">JS_AddIntrinsicBaseObjects</text>
</a>
</g>
</g>
<!-- Node129218&#45;&gt;Node129264 -->
<g id="edge37" class="edge">
<title>Node129218&#45;&gt;Node129264</title>
<path fill="none" stroke="#191970" d="M240.6586,-474.0074C257.11,-499.6217 290.3602,-545.4352 331,-569.5 348.0585,-579.6012 463.1224,-603.5606 530.3677,-616.9781"/>
<polygon fill="#191970" stroke="#191970" points="243.4637,-471.8917 235.1955,-465.2669 237.5278,-475.6019 243.4637,-471.8917"/>
</g>
<!-- Node129832 -->
<g id="node15" class="node">
<title>Node129832</title>
<g id="a_node15"><a xlink:href="quickjs_8c.html#afc0d8ea75588216ec132a6e1655524a7" target="_top" xlink:title="JS_NewObject">
<polygon fill="none" stroke="#ff0000" points="359.5,-655 359.5,-674 442.5,-674 442.5,-655 359.5,-655"/>
<text text-anchor="middle" x="401" y="-662" font-family="Helvetica,sans-Serif" font-size="10.00" fill="#000000">JS_NewObject</text>
</a>
</g>
</g>
<!-- Node129218&#45;&gt;Node129832 -->
<g id="edge14" class="edge">
<title>Node129218&#45;&gt;Node129832</title>
<path fill="none" stroke="#191970" d="M234.3631,-475.1182C244.9911,-513.8076 274.0233,-600.1184 331,-645.5 339.0769,-651.9332 349.1616,-656.1946 359.1391,-659.0153"/>
<polygon fill="#191970" stroke="#191970" points="237.6679,-473.9224 231.7446,-465.1381 230.8971,-475.6989 237.6679,-473.9224"/>
</g>
<!-- Node129377 -->
<g id="node16" class="node">
<title>Node129377</title>
<g id="a_node16"><a xlink:href="quickjs_8c.html#a21cfe4c4fc9372dc0b95b37667cff0c9" target="_top" xlink:title="JS_NewCFunction3">
<polygon fill="none" stroke="#ff0000" points="349,-617 349,-636 453,-636 453,-617 349,-617"/>
<text text-anchor="middle" x="401" y="-624" font-family="Helvetica,sans-Serif" font-size="10.00" fill="#000000">JS_NewCFunction3</text>
</a>
</g>
</g>
<!-- Node129218&#45;&gt;Node129377 -->
<g id="edge17" class="edge">
<title>Node129218&#45;&gt;Node129377</title>
<path fill="none" stroke="#191970" d="M237.8091,-474.6599C252.2829,-505.8642 285.0278,-567.668 331,-602.5 339.2943,-608.7844 349.3478,-613.4947 359.2169,-616.9978"/>
<polygon fill="#191970" stroke="#191970" points="240.9065,-473.0142 233.6083,-465.3339 234.5241,-475.8891 240.9065,-473.0142"/>
</g>
<!-- Node129388 -->
<g id="node17" class="node">
<title>Node129388</title>
<g id="a_node17"><a xlink:href="quickjs_8c.html#ac048b0ff95f3f0cb7c189e87f74df753" target="_top" xlink:title="JS_NewCFunctionData">
<polygon fill="none" stroke="#ff0000" points="341,-503 341,-522 461,-522 461,-503 341,-503"/>
<text text-anchor="middle" x="401" y="-510" font-family="Helvetica,sans-Serif" font-size="10.00" fill="#000000">JS_NewCFunctionData</text>
</a>
</g>
</g>
<!-- Node129218&#45;&gt;Node129388 -->
<g id="edge20" class="edge">
<title>Node129218&#45;&gt;Node129388</title>
<path fill="none" stroke="#191970" d="M262.5168,-468.751C282.2342,-476.4406 307.865,-486.0475 331,-493.5 341.4278,-496.8591 352.8525,-500.1295 363.3922,-502.9834"/>
<polygon fill="#191970" stroke="#191970" points="263.6573,-465.4387 253.07,-465.0374 261.0962,-471.9534 263.6573,-465.4387"/>
</g>
<!-- Node129397 -->
<g id="node18" class="node">
<title>Node129397</title>
<g id="a_node18"><a xlink:href="quickjs_8c.html#aeafb37b03b5560171754f8c4505b0f6b" target="_top" xlink:title="JS_ThrowError2">
<polygon fill="none" stroke="#ff0000" points="357.5,-465 357.5,-484 444.5,-484 444.5,-465 357.5,-465"/>
<text text-anchor="middle" x="401" y="-472" font-family="Helvetica,sans-Serif" font-size="10.00" fill="#000000">JS_ThrowError2</text>
</a>
</g>
</g>
<!-- Node129218&#45;&gt;Node129397 -->
<g id="edge21" class="edge">
<title>Node129218&#45;&gt;Node129397</title>
<path fill="none" stroke="#191970" d="M305.6545,-463.9369C323.3617,-465.8987 341.6216,-467.9216 357.3629,-469.6656"/>
<polygon fill="#191970" stroke="#191970" points="305.6405,-460.4141 295.3159,-462.7916 304.8697,-467.3715 305.6405,-460.4141"/>
</g>
<!-- Node129471 -->
<g id="node19" class="node">
<title>Node129471</title>
<g id="a_node19"><a xlink:href="quickjs_8c.html#a04d312757919ff6b4d79cd0c2c3e5bb2" target="_top" xlink:title="js_build_arguments">
<polygon fill="none" stroke="#ff0000" points="350.5,-427 350.5,-446 451.5,-446 451.5,-427 350.5,-427"/>
<text text-anchor="middle" x="401" y="-434" font-family="Helvetica,sans-Serif" font-size="10.00" fill="#000000">js_build_arguments</text>
</a>
</g>
</g>
<!-- Node129218&#45;&gt;Node129471 -->
<g id="edge22" class="edge">
<title>Node129218&#45;&gt;Node129471</title>
<path fill="none" stroke="#191970" d="M305.6816,-447.0601C320.7806,-445.3873 336.2803,-443.6701 350.2766,-442.1195"/>
<polygon fill="#191970" stroke="#191970" points="304.8697,-443.6285 295.3159,-448.2084 305.6405,-450.5859 304.8697,-443.6285"/>
</g>
<!-- Node129445 -->
<g id="node20" class="node">
<title>Node129445</title>
<g id="a_node20"><a xlink:href="quickjs_8c.html#a1c459034f2971c4abc3a8d6d4693ef5f" target="_top" xlink:title="js_build_mapped_arguments">
<polygon fill="none" stroke="#ff0000" points="331,-389 331,-408 471,-408 471,-389 331,-389"/>
<text text-anchor="middle" x="401" y="-396" font-family="Helvetica,sans-Serif" font-size="10.00" fill="#000000">js_build_mapped_arguments</text>
</a>
</g>
</g>
<!-- Node129218&#45;&gt;Node129445 -->
<g id="edge23" class="edge">
<title>Node129218&#45;&gt;Node129445</title>
<path fill="none" stroke="#191970" d="M262.5168,-442.249C282.2342,-434.5594 307.865,-424.9525 331,-417.5 341.4278,-414.1409 352.8525,-410.8705 363.3922,-408.0166"/>
<polygon fill="#191970" stroke="#191970" points="261.0962,-439.0466 253.07,-445.9626 263.6573,-445.5613 261.0962,-439.0466"/>
</g>
<!-- Node129472 -->
<g id="node21" class="node">
<title>Node129472</title>
<g id="a_node21"><a xlink:href="quickjs_8c.html#aa40a5354bee3b56e05a71244910bcc78" target="_top" xlink:title="build_for_in_iterator">
<polygon fill="none" stroke="#ff0000" points="350.5,-351 350.5,-370 451.5,-370 451.5,-351 350.5,-351"/>
<text text-anchor="middle" x="401" y="-358" font-family="Helvetica,sans-Serif" font-size="10.00" fill="#000000">build_for_in_iterator</text>
</a>
</g>
</g>
<!-- Node129218&#45;&gt;Node129472 -->
<g id="edge24" class="edge">
<title>Node129218&#45;&gt;Node129472</title>
<path fill="none" stroke="#191970" d="M247.2224,-438.8931C266.4612,-421.7078 298.7712,-395.2227 331,-379.5 338.8091,-375.6904 347.4939,-372.554 356.0151,-370.0049"/>
<polygon fill="#191970" stroke="#191970" points="244.6223,-436.5269 239.5828,-445.8464 249.3341,-441.7037 244.6223,-436.5269"/>
</g>
<!-- Node129794 -->
<g id="node22" class="node">
<title>Node129794</title>
<g id="a_node22"><a xlink:href="quickjs_8c.html#a93dbf502b17d1328c524401335f60499" target="_top" xlink:title="js_create_from_ctor">
<polygon fill="none" stroke="#ff0000" points="349.5,-313 349.5,-332 452.5,-332 452.5,-313 349.5,-313"/>
<text text-anchor="middle" x="401" y="-320" font-family="Helvetica,sans-Serif" font-size="10.00" fill="#000000">js_create_from_ctor</text>
</a>
</g>
</g>
<!-- Node129218&#45;&gt;Node129794 -->
<g id="edge26" class="edge">
<title>Node129218&#45;&gt;Node129794</title>
<path fill="none" stroke="#191970" d="M240.791,-437.2115C257.4008,-411.8586 290.8388,-366.3552 331,-341.5 337.2105,-337.6564 344.2,-334.5792 351.2967,-332.1183"/>
<polygon fill="#191970" stroke="#191970" points="237.7027,-435.5447 235.2702,-445.8565 243.6023,-439.3123 237.7027,-435.5447"/>
</g>
<!-- Node129835 -->
<g id="node23" class="node">
<title>Node129835</title>
<g id="a_node23"><a xlink:href="quickjs_8c.html#a7068f4cd630e0bb554ea300ddb389715" target="_top" xlink:title="js_async_function_resolve\l_create">
<polygon fill="none" stroke="#ff0000" points="335,-263.5 335,-293.5 467,-293.5 467,-263.5 335,-263.5"/>
<text text-anchor="start" x="343" y="-281.5" font-family="Helvetica,sans-Serif" font-size="10.00" fill="#000000">js_async_function_resolve</text>
<text text-anchor="middle" x="401" y="-270.5" font-family="Helvetica,sans-Serif" font-size="10.00" fill="#000000">_create</text>
</a>
</g>
</g>
<!-- Node129218&#45;&gt;Node129835 -->
<g id="edge27" class="edge">
<title>Node129218&#45;&gt;Node129835</title>
<path fill="none" stroke="#191970" d="M237.4784,-436.216C251.665,-404.1945 284.2469,-339.9752 331,-303.5 335.8837,-299.6899 341.397,-296.4296 347.1321,-293.647"/>
<polygon fill="#191970" stroke="#191970" points="234.1119,-435.1851 233.3785,-445.7545 240.543,-437.9493 234.1119,-435.1851"/>
</g>
<!-- Node129836 -->
<g id="node24" class="node">
<title>Node129836</title>
<g id="a_node24"><a xlink:href="quickjs_8c.html#a6e67f3bc70778c4c816db73e18d47d03" target="_top" xlink:title="js_create_module_bytecode\l_function">
<polygon fill="none" stroke="#ff0000" points="332,-214.5 332,-244.5 470,-244.5 470,-214.5 332,-214.5"/>
<text text-anchor="start" x="340" y="-232.5" font-family="Helvetica,sans-Serif" font-size="10.00" fill="#000000">js_create_module_bytecode</text>
<text text-anchor="middle" x="401" y="-221.5" font-family="Helvetica,sans-Serif" font-size="10.00" fill="#000000">_function</text>
</a>
</g>
</g>
<!-- Node129218&#45;&gt;Node129836 -->
<g id="edge28" class="edge">
<title>Node129218&#45;&gt;Node129836</title>
<path fill="none" stroke="#191970" d="M233.9817,-436.0705C244.1864,-396.113 272.8974,-304.2275 331,-253.5 334.9679,-250.0358 339.4603,-247.0656 344.2075,-244.52"/>
<polygon fill="#191970" stroke="#191970" points="230.557,-435.3414 231.5852,-445.8862 237.3572,-437.0017 230.557,-435.3414"/>
</g>
<!-- Node129279 -->
<g id="node25" class="node">
<title>Node129279</title>
<g id="a_node25"><a xlink:href="quickjs_8c.html#a8fce6f70a6fc880eabcdb9883e3753f2" target="_top" xlink:title="JS_ReadDate">
<polygon fill="none" stroke="#ff0000" points="362,-176 362,-195 440,-195 440,-176 362,-176"/>
<text text-anchor="middle" x="401" y="-183" font-family="Helvetica,sans-Serif" font-size="10.00" fill="#000000">JS_ReadDate</text>
</a>
</g>
</g>
<!-- Node129218&#45;&gt;Node129279 -->
<g id="edge29" class="edge">
<title>Node129218&#45;&gt;Node129279</title>
<path fill="none" stroke="#191970" d="M231.5924,-435.6694C237.6722,-388.2906 259.7055,-267.7629 331,-204.5 339.5712,-196.8943 350.8939,-192.295 361.9289,-189.5258"/>
<polygon fill="#191970" stroke="#191970" points="228.0902,-435.4828 230.3952,-445.8239 235.0421,-436.3025 228.0902,-435.4828"/>
</g>
<!-- Node129524 -->
<g id="node26" class="node">
<title>Node129524</title>
<g id="a_node26"><a xlink:href="quickjs_8c.html#ac6d5606ba25525b3a03981eefbe98e13" target="_top" xlink:title="js_function_bind">
<polygon fill="none" stroke="#000000" points="357.5,-138 357.5,-157 444.5,-157 444.5,-138 357.5,-138"/>
<text text-anchor="middle" x="401" y="-145" font-family="Helvetica,sans-Serif" font-size="10.00" fill="#000000">js_function_bind</text>
</a>
</g>
</g>
<!-- Node129218&#45;&gt;Node129524 -->
<g id="edge30" class="edge">
<title>Node129218&#45;&gt;Node129524</title>
<path fill="none" stroke="#191970" d="M230.4023,-435.5674C233.8748,-383.3099 250.6222,-241.2361 331,-166.5 338.2854,-159.726 347.7404,-155.3234 357.3322,-152.4738"/>
<polygon fill="#191970" stroke="#191970" points="226.8931,-435.6325 229.8205,-445.8149 233.8818,-436.0294 226.8931,-435.6325"/>
</g>
<!-- Node129263 -->
<g id="node27" class="node">
<title>Node129263</title>
<g id="a_node27"><a xlink:href="quickjs_8c.html#ad25358fc5ae69ab218abde24d52b7767" target="_top" xlink:title="js_error_constructor">
<polygon fill="none" stroke="#000000" points="349.5,-541 349.5,-560 452.5,-560 452.5,-541 349.5,-541"/>
<text text-anchor="middle" x="401" y="-548" font-family="Helvetica,sans-Serif" font-size="10.00" fill="#000000">js_error_constructor</text>
</a>
</g>
</g>
<!-- Node129218&#45;&gt;Node129263 -->
<g id="edge31" class="edge">
<title>Node129218&#45;&gt;Node129263</title>
<path fill="none" stroke="#191970" d="M247.2224,-472.1069C266.4612,-489.2922 298.7712,-515.7773 331,-531.5 338.8091,-535.3096 347.4939,-538.446 356.0151,-540.9951"/>
<polygon fill="#191970" stroke="#191970" points="249.3341,-469.2963 239.5828,-465.1536 244.6223,-474.4731 249.3341,-469.2963"/>
</g>
<!-- Node129525 -->
<g id="node28" class="node">
<title>Node129525</title>
<g id="a_node28"><a xlink:href="quickjs_8c.html#a57af8ddae60fbd0080e34d23ce2a04a6" target="_top" xlink:title="js_aggregate_error\l_constructor">
<polygon fill="none" stroke="#ff0000" points="352.5,-88.5 352.5,-118.5 449.5,-118.5 449.5,-88.5 352.5,-88.5"/>
<text text-anchor="start" x="360.5" y="-106.5" font-family="Helvetica,sans-Serif" font-size="10.00" fill="#000000">js_aggregate_error</text>
<text text-anchor="middle" x="401" y="-95.5" font-family="Helvetica,sans-Serif" font-size="10.00" fill="#000000">_constructor</text>
</a>
</g>
</g>
<!-- Node129218&#45;&gt;Node129525 -->
<g id="edge33" class="edge">
<title>Node129218&#45;&gt;Node129525</title>
<path fill="none" stroke="#191970" d="M233.2204,-435.8172C245.5738,-372.3326 286.9516,-174.441 331,-128.5 336.8945,-122.3523 344.4023,-117.7128 352.2999,-114.2125"/>
<polygon fill="#191970" stroke="#191970" points="229.7643,-435.256 231.3148,-445.7367 236.6386,-436.5766 229.7643,-435.256"/>
</g>
<!-- Node129838 -->
<g id="node29" class="node">
<title>Node129838</title>
<g id="a_node29"><a xlink:href="quickjs_8c.html#aabd74747b51e480d80dc19914e74a3a5" target="_top" xlink:title="js_proxy_constructor">
<polygon fill="none" stroke="#ff0000" points="347.5,-50 347.5,-69 454.5,-69 454.5,-50 347.5,-50"/>
<text text-anchor="middle" x="401" y="-57" font-family="Helvetica,sans-Serif" font-size="10.00" fill="#000000">js_proxy_constructor</text>
</a>
</g>
</g>
<!-- Node129218&#45;&gt;Node129838 -->
<g id="edge34" class="edge">
<title>Node129218&#45;&gt;Node129838</title>
<path fill="none" stroke="#191970" d="M232.1775,-435.926C242.1069,-366.1037 278.955,-130.6517 331,-78.5 335.6255,-73.8651 341.26,-70.3291 347.3029,-67.637"/>
<polygon fill="#191970" stroke="#191970" points="228.6893,-435.5988 230.7715,-445.987 235.6219,-436.5676 228.6893,-435.5988"/>
</g>
<!-- Node129394 -->
<g id="node30" class="node">
<title>Node129394</title>
<g id="a_node30"><a xlink:href="quickjs_8c.html#a37cac335cb6abd3c24e162ad57f418f1" target="_top" xlink:title="js_create_resolving\l_functions">
<polygon fill="none" stroke="#ff0000" points="350.5,-.5 350.5,-30.5 451.5,-30.5 451.5,-.5 350.5,-.5"/>
<text text-anchor="start" x="358.5" y="-18.5" font-family="Helvetica,sans-Serif" font-size="10.00" fill="#000000">js_create_resolving</text>
<text text-anchor="middle" x="401" y="-7.5" font-family="Helvetica,sans-Serif" font-size="10.00" fill="#000000">_functions</text>
</a>
</g>
</g>
<!-- Node129218&#45;&gt;Node129394 -->
<g id="edge35" class="edge">
<title>Node129218&#45;&gt;Node129394</title>
<path fill="none" stroke="#191970" d="M231.865,-435.5698C241.0633,-361.1545 276.6579,-100.7582 331,-40.5 336.2718,-34.6542 343.0058,-30.1749 350.2057,-26.7427"/>
<polygon fill="#191970" stroke="#191970" points="228.3469,-435.5081 230.6165,-445.857 235.2959,-436.3515 228.3469,-435.5081"/>
</g>
<!-- Node129220 -->
<g id="node4" class="node">
<title>Node129220</title>
<g id="a_node4"><a xlink:href="quickjs-libc_8c.html#aff1e6131e8bf8b7eb25307623ad669e7" target="_top" xlink:title="js_worker_ctor">
<polygon fill="none" stroke="#ff0000" points="539,-983 539,-1002 619,-1002 619,-983 539,-983"/>
<text text-anchor="middle" x="579" y="-990" font-family="Helvetica,sans-Serif" font-size="10.00" fill="#000000">js_worker_ctor</text>
</a>
</g>
</g>
<!-- Node129219&#45;&gt;Node129220 -->
<g id="edge3" class="edge">
<title>Node129219&#45;&gt;Node129220</title>
<path fill="none" stroke="#191970" d="M430.3239,-942.2932C451.3614,-951.8553 480.5465,-964.4467 507,-973.5 517.1521,-976.9744 528.2897,-980.1931 538.7065,-982.9567"/>
<polygon fill="#191970" stroke="#191970" points="431.5332,-938.9972 420.985,-938.0042 428.6117,-945.3584 431.5332,-938.9972"/>
</g>
<!-- Node129226 -->
<g id="node6" class="node">
<title>Node129226</title>
<g id="a_node6"><a xlink:href="structqjs_1_1js__traits_3_01std_1_1shared__ptr_3_01T_01_4_01_4.html#a046f811ae16e0cb24170a8425f3e8780" target="_top" xlink:title="Create a JSValue from std::shared_ptr&lt;T&gt;. ">
<polygon fill="none" stroke="#000000" points="515,-857.5 515,-887.5 643,-887.5 643,-857.5 515,-857.5"/>
<text text-anchor="start" x="523" y="-875.5" font-family="Helvetica,sans-Serif" font-size="10.00" fill="#000000">qjs::js_traits&lt; std</text>
<text text-anchor="middle" x="579" y="-864.5" font-family="Helvetica,sans-Serif" font-size="10.00" fill="#000000">::shared_ptr&lt; T &gt; &gt;::wrap</text>
</a>
</g>
</g>
<!-- Node129225&#45;&gt;Node129226 -->
<g id="edge5" class="edge">
<title>Node129225&#45;&gt;Node129226</title>
<path fill="none" stroke="#191970" d="M465.7265,-857.8635C481.7682,-859.9363 498.9491,-862.1564 514.958,-864.2249"/>
<polygon fill="#191970" stroke="#191970" points="465.7392,-854.3362 455.3731,-856.5257 464.8421,-861.2784 465.7392,-854.3362"/>
</g>
<!-- Node129227 -->
<g id="node7" class="node">
<title>Node129227</title>
<g id="a_node7"><a xlink:href="structqjs_1_1js__traits_3_01std_1_1function_3_01R_07Args_8_8_8_08_4_01_4.html#a6812a672334111ba5228e64816e55490" target="_top" xlink:title="Convert from function object functor to JSValue. ">
<polygon fill="none" stroke="#000000" points="524.5,-797 524.5,-838 633.5,-838 633.5,-797 524.5,-797"/>
<text text-anchor="start" x="532.5" y="-826" font-family="Helvetica,sans-Serif" font-size="10.00" fill="#000000">qjs::js_traits&lt; std</text>
<text text-anchor="start" x="532.5" y="-815" font-family="Helvetica,sans-Serif" font-size="10.00" fill="#000000">::function&lt; R(Args...)</text>
<text text-anchor="middle" x="579" y="-804" font-family="Helvetica,sans-Serif" font-size="10.00" fill="#000000">&gt; &gt;::wrap</text>
</a>
</g>
</g>
<!-- Node129225&#45;&gt;Node129227 -->
<g id="edge6" class="edge">
<title>Node129225&#45;&gt;Node129227</title>
<path fill="none" stroke="#191970" d="M463.7716,-838.2152C483.5639,-834.6571 505.2565,-830.7573 524.429,-827.3105"/>
<polygon fill="#191970" stroke="#191970" points="463.1468,-834.7713 453.9239,-839.9856 464.3855,-841.6609 463.1468,-834.7713"/>
</g>
<!-- Node129228 -->
<g id="node8" class="node">
<title>Node129228</title>
<g id="a_node8"><a xlink:href="quickjs-libc_8c.html#a4f611dfcb682754b3f25bb3e06f61ab5" target="_top" xlink:title="js_new_std_file">
<polygon fill="none" stroke="#ff0000" points="537,-759 537,-778 621,-778 621,-759 537,-759"/>
<text text-anchor="middle" x="579" y="-766" font-family="Helvetica,sans-Serif" font-size="10.00" fill="#000000">js_new_std_file</text>
</a>
</g>
</g>
<!-- Node129225&#45;&gt;Node129228 -->
<g id="edge7" class="edge">
<title>Node129225&#45;&gt;Node129228</title>
<path fill="none" stroke="#191970" d="M423.2062,-834.0962C444.0376,-820.2436 476.4711,-800.1787 507,-787.5 516.432,-783.5829 526.8992,-780.274 536.8646,-777.571"/>
<polygon fill="#191970" stroke="#191970" points="421.0951,-831.2984 414.7642,-839.7938 425.0111,-837.1006 421.0951,-831.2984"/>
</g>
<!-- Node129235 -->
<g id="node9" class="node">
<title>Node129235</title>
<g id="a_node9"><a xlink:href="quickjs-libc_8c.html#acd6d7f2e207ed1d263e55bed721a7288" target="_top" xlink:title="js_os_setTimeout">
<polygon fill="none" stroke="#000000" points="532,-945 532,-964 626,-964 626,-945 532,-945"/>
<text text-anchor="middle" x="579" y="-952" font-family="Helvetica,sans-Serif" font-size="10.00" fill="#000000">js_os_setTimeout</text>
</a>
</g>
</g>
<!-- Node129225&#45;&gt;Node129235 -->
<g id="edge8" class="edge">
<title>Node129225&#45;&gt;Node129235</title>
<path fill="none" stroke="#191970" d="M420.3858,-865.9716C448.2734,-889.5514 497.4254,-930.6387 507,-935.5 514.7233,-939.4213 523.3356,-942.5914 531.8427,-945.1351"/>
<polygon fill="#191970" stroke="#191970" points="422.3736,-863.0685 412.481,-859.2752 417.8489,-868.4096 422.3736,-863.0685"/>
</g>
<!-- Node129236 -->
<g id="node10" class="node">
<title>Node129236</title>
<g id="a_node10"><a xlink:href="quickjs_8c.html#a06af1db79158e3c5a51f04bb6749411c" target="_top" xlink:title="JS_NewError">
<polygon fill="none" stroke="#000000" points="541.5,-907 541.5,-926 616.5,-926 616.5,-907 541.5,-907"/>
<text text-anchor="middle" x="579" y="-914" font-family="Helvetica,sans-Serif" font-size="10.00" fill="#000000">JS_NewError</text>
</a>
</g>
</g>
<!-- Node129225&#45;&gt;Node129236 -->
<g id="edge9" class="edge">
<title>Node129225&#45;&gt;Node129236</title>
<path fill="none" stroke="#191970" d="M428.7782,-863.6252C449.8598,-873.9625 479.7645,-887.8166 507,-897.5 517.9628,-901.3978 530.1163,-904.9033 541.2684,-907.8105"/>
<polygon fill="#191970" stroke="#191970" points="430.2681,-860.4574 419.7541,-859.1507 427.1584,-866.7287 430.2681,-860.4574"/>
</g>
<!-- Node129829&#45;&gt;Node129469 -->
<g id="edge11" class="edge">
<title>Node129829&#45;&gt;Node129469</title>
<path fill="none" stroke="#191970" d="M464.6003,-736.9269C485.7565,-735.7384 509.0027,-734.4324 528.9823,-733.31"/>
<polygon fill="#191970" stroke="#191970" points="464.1938,-733.4442 454.4059,-737.4997 464.5865,-740.4332 464.1938,-733.4442"/>
</g>
<!-- Node129829&#45;&gt;Node129386 -->
<g id="edge12" class="edge">
<title>Node129829&#45;&gt;Node129386</title>
<path fill="none" stroke="#191970" d="M439.5879,-727.6454C449.8335,-724.1299 460.8656,-720.2523 471,-716.5 500.5244,-705.5685 534.1704,-691.9922 555.9513,-683.0538"/>
<polygon fill="#191970" stroke="#191970" points="438.399,-724.3528 430.0607,-730.889 440.6551,-730.9792 438.399,-724.3528"/>
</g>
<!-- Node129829&#45;&gt;Node129264 -->
<g id="edge13" class="edge">
<title>Node129829&#45;&gt;Node129264</title>
<path fill="none" stroke="#191970" d="M420.8414,-724.3387C451.1991,-699.6205 505.8176,-655.1868 507,-654.5 519.873,-647.0222 535.1189,-640.765 548.2599,-636.0757"/>
<polygon fill="#191970" stroke="#191970" points="418.531,-721.7065 412.9869,-730.735 422.9512,-727.1344 418.531,-721.7065"/>
</g>
<!-- Node129832&#45;&gt;Node129386 -->
<g id="edge15" class="edge">
<title>Node129832&#45;&gt;Node129386</title>
<path fill="none" stroke="#191970" d="M452.9233,-667.1253C469.7828,-667.9778 488.8038,-668.9395 506.8632,-669.8526"/>
<polygon fill="#191970" stroke="#191970" points="452.8971,-663.6196 442.7331,-666.6101 452.5436,-670.6107 452.8971,-663.6196"/>
</g>
<!-- Node129832&#45;&gt;Node129264 -->
<g id="edge16" class="edge">
<title>Node129832&#45;&gt;Node129264</title>
<path fill="none" stroke="#191970" d="M452.7387,-653.4547C478.6107,-647.9314 509.6094,-641.3137 534.4168,-636.0178"/>
<polygon fill="#191970" stroke="#191970" points="451.782,-650.08 442.7331,-655.5907 453.2435,-656.9257 451.782,-650.08"/>
</g>
<!-- Node129377&#45;&gt;Node129386 -->
<g id="edge18" class="edge">
<title>Node129377&#45;&gt;Node129386</title>
<path fill="none" stroke="#191970" d="M446.783,-638.5888C476.6176,-646.4664 515.0083,-656.6033 542.7276,-663.9224"/>
<polygon fill="#191970" stroke="#191970" points="447.5831,-635.1802 437.021,-636.0112 445.796,-641.9482 447.5831,-635.1802"/>
</g>
<!-- Node129377&#45;&gt;Node129264 -->
<g id="edge19" class="edge">
<title>Node129377&#45;&gt;Node129264</title>
<path fill="none" stroke="#191970" d="M463.6411,-626.5C477.9205,-626.5 493.1949,-626.5 507.8023,-626.5"/>
<polygon fill="#191970" stroke="#191970" points="463.4432,-623.0001 453.4431,-626.5 463.4431,-630.0001 463.4432,-623.0001"/>
</g>
<!-- Node129263&#45;&gt;Node129264 -->
<g id="edge32" class="edge">
<title>Node129263&#45;&gt;Node129264</title>
<path fill="none" stroke="#191970" d="M440.9152,-563.2726C450.8305,-566.6947 461.3732,-570.5484 471,-574.5 503.3423,-587.776 539.7471,-606.0218 560.9536,-616.997"/>
<polygon fill="#191970" stroke="#191970" points="441.8605,-559.8975 431.2662,-560.0066 439.6162,-566.528 441.8605,-559.8975"/>
</g>
</g>
</svg>
