<?xml version="1.0" encoding="UTF-8" standalone="no"?>
<!DOCTYPE svg PUBLIC "-//W3C//DTD SVG 1.1//EN"
 "http://www.w3.org/Graphics/SVG/1.1/DTD/svg11.dtd">
<!-- Generated by graphviz version 2.40.1 (20161225.0304)
 -->
<!-- Title: check_regexp_g_flag Pages: 1 -->
<svg width="1132pt" height="981pt"
 viewBox="0.00 0.00 1132.00 981.00" xmlns="http://www.w3.org/2000/svg" xmlns:xlink="http://www.w3.org/1999/xlink">
<g id="graph0" class="graph" transform="scale(1 1) rotate(0) translate(4 977.0013)">
<title>check_regexp_g_flag</title>
<!-- Node411050 -->
<g id="node1" class="node">
<title>Node411050</title>
<polygon fill="#bfbfbf" stroke="#000000" points="0,-171.5 0,-190.5 109,-190.5 109,-171.5 0,-171.5"/>
<text text-anchor="middle" x="54.5" y="-178.5" font-family="Helvetica,sans-Serif" font-size="10.00" fill="#000000">check_regexp_g_flag</text>
</g>
<!-- Node411051 -->
<g id="node2" class="node">
<title>Node411051</title>
<g id="a_node2"><a xlink:href="quickjs_8h.html#afaa20c47565bc704c6c85f3d77254e7d" target="_top" xlink:title="JS_FreeValue">
<polygon fill="none" stroke="#000000" points="779,-841.5 779,-860.5 857,-860.5 857,-841.5 779,-841.5"/>
<text text-anchor="middle" x="818" y="-848.5" font-family="Helvetica,sans-Serif" font-size="10.00" fill="#000000">JS_FreeValue</text>
</a>
</g>
</g>
<!-- Node411050&#45;&gt;Node411051 -->
<g id="edge1" class="edge">
<title>Node411050&#45;&gt;Node411051</title>
<path fill="none" stroke="#191970" d="M55.868,-190.7274C68.2623,-276.9973 164.4074,-908 325,-908 325,-908 325,-908 463.5,-908 586.5311,-908 619.2175,-909.0853 739,-881 755.5957,-877.1088 773.4002,-870.5701 787.8977,-864.5886"/>
<polygon fill="#191970" stroke="#191970" points="789.5132,-867.7052 797.3506,-860.576 786.778,-861.2617 789.5132,-867.7052"/>
</g>
<!-- Node411088 -->
<g id="node5" class="node">
<title>Node411088</title>
<g id="a_node5"><a xlink:href="quickjs_8h.html#a89b7c8686c7eee70b86be722ee4730ad" target="_top" xlink:title="JS_GetProperty">
<polygon fill="none" stroke="#000000" points="282,-342.5 282,-361.5 368,-361.5 368,-342.5 282,-342.5"/>
<text text-anchor="middle" x="325" y="-349.5" font-family="Helvetica,sans-Serif" font-size="10.00" fill="#000000">JS_GetProperty</text>
</a>
</g>
</g>
<!-- Node411050&#45;&gt;Node411088 -->
<g id="edge4" class="edge">
<title>Node411050&#45;&gt;Node411088</title>
<path fill="none" stroke="#191970" d="M64.5156,-190.6539C80.6269,-205.8872 113.6743,-235.9314 145,-257 194.659,-290.399 257.3955,-321.1863 294.1704,-338.1992"/>
<polygon fill="#191970" stroke="#191970" points="292.8306,-341.4352 303.3794,-342.4221 295.7485,-335.0723 292.8306,-341.4352"/>
</g>
<!-- Node411097 -->
<g id="node11" class="node">
<title>Node411097</title>
<g id="a_node11"><a xlink:href="quickjs_8h.html#ad80a83d73e9b7d872b88fbf2943aebe9" target="_top" xlink:title="JS_IsException">
<polygon fill="none" stroke="#000000" points="775,-190.5 775,-209.5 861,-209.5 861,-190.5 775,-190.5"/>
<text text-anchor="middle" x="818" y="-197.5" font-family="Helvetica,sans-Serif" font-size="10.00" fill="#000000">JS_IsException</text>
</a>
</g>
</g>
<!-- Node411050&#45;&gt;Node411097 -->
<g id="edge34" class="edge">
<title>Node411050&#45;&gt;Node411097</title>
<path fill="none" stroke="#191970" d="M81.3648,-171.4595C129.5306,-155.233 234.0531,-124 325,-124 325,-124 325,-124 463.5,-124 582.397,-124 718.841,-165.3783 782.2036,-187.0713"/>
<polygon fill="#191970" stroke="#191970" points="781.1368,-190.4058 791.7316,-190.3745 783.4298,-183.792 781.1368,-190.4058"/>
</g>
<!-- Node411254 -->
<g id="node12" class="node">
<title>Node411254</title>
<g id="a_node12"><a xlink:href="quickjs_8h.html#a4e407128a9605afb77523e49e9a627fd" target="_top" xlink:title="JS_IsUndefined">
<polygon fill="none" stroke="#000000" points="775,-152.5 775,-171.5 861,-171.5 861,-152.5 775,-152.5"/>
<text text-anchor="middle" x="818" y="-159.5" font-family="Helvetica,sans-Serif" font-size="10.00" fill="#000000">JS_IsUndefined</text>
</a>
</g>
</g>
<!-- Node411050&#45;&gt;Node411254 -->
<g id="edge36" class="edge">
<title>Node411050&#45;&gt;Node411254</title>
<path fill="none" stroke="#191970" d="M67.9412,-171.3733C85.0571,-159.5389 115.9108,-139.6021 145,-128 221.3037,-97.5666 242.8511,-86 325,-86 325,-86 325,-86 463.5,-86 587.3591,-86 619.9253,-93.9075 739,-128 756.5454,-133.0234 775.3453,-141.0005 790.2022,-147.9657"/>
<polygon fill="#191970" stroke="#191970" points="788.8135,-151.1815 799.3431,-152.3555 791.8439,-144.8714 788.8135,-151.1815"/>
</g>
<!-- Node411482 -->
<g id="node24" class="node">
<title>Node411482</title>
<g id="a_node24"><a xlink:href="quickjs_8c.html#a34780713146b6995321c8880802b7d9d" target="_top" xlink:title="js_is_regexp">
<polygon fill="none" stroke="#000000" points="160,-228.5 160,-247.5 231,-247.5 231,-228.5 160,-228.5"/>
<text text-anchor="middle" x="195.5" y="-235.5" font-family="Helvetica,sans-Serif" font-size="10.00" fill="#000000">js_is_regexp</text>
</a>
</g>
</g>
<!-- Node411050&#45;&gt;Node411482 -->
<g id="edge26" class="edge">
<title>Node411050&#45;&gt;Node411482</title>
<path fill="none" stroke="#191970" d="M78.1002,-190.5405C101.1796,-199.8705 136.5313,-214.1616 162.4126,-224.6242"/>
<polygon fill="#191970" stroke="#191970" points="161.2399,-227.9253 171.8228,-228.4284 163.8635,-221.4355 161.2399,-227.9253"/>
</g>
<!-- Node411253 -->
<g id="node28" class="node">
<title>Node411253</title>
<g id="a_node28"><a xlink:href="quickjs_8h.html#a149f24b67e745bad93573b3b4c80db4c" target="_top" xlink:title="JS_IsNull">
<polygon fill="none" stroke="#000000" points="166,-38.5 166,-57.5 225,-57.5 225,-38.5 166,-38.5"/>
<text text-anchor="middle" x="195.5" y="-45.5" font-family="Helvetica,sans-Serif" font-size="10.00" fill="#000000">JS_IsNull</text>
</a>
</g>
</g>
<!-- Node411050&#45;&gt;Node411253 -->
<g id="edge35" class="edge">
<title>Node411050&#45;&gt;Node411253</title>
<path fill="none" stroke="#191970" d="M60.4103,-171.3527C73.4397,-150.7474 106.5499,-101.888 145,-72 149.7625,-68.298 155.1884,-64.9792 160.6751,-62.0755"/>
<polygon fill="#191970" stroke="#191970" points="162.4123,-65.1222 169.8598,-57.5866 159.3385,-58.8332 162.4123,-65.1222"/>
</g>
<!-- Node411305 -->
<g id="node29" class="node">
<title>Node411305</title>
<g id="a_node29"><a xlink:href="quickjs_8c.html#a38cad713b74c445668210ea8614bfb65" target="_top" xlink:title="JS_ToStringFree">
<polygon fill="none" stroke="#ff0000" points="418.5,-936.5 418.5,-955.5 508.5,-955.5 508.5,-936.5 418.5,-936.5"/>
<text text-anchor="middle" x="463.5" y="-943.5" font-family="Helvetica,sans-Serif" font-size="10.00" fill="#000000">JS_ToStringFree</text>
</a>
</g>
</g>
<!-- Node411050&#45;&gt;Node411305 -->
<g id="edge37" class="edge">
<title>Node411050&#45;&gt;Node411305</title>
<path fill="none" stroke="#191970" d="M54.9521,-190.6852C58.9358,-274.0515 89.2248,-868.7502 145,-922 219.0101,-992.659 351.8078,-973.9242 420.1906,-957.9554"/>
<polygon fill="#191970" stroke="#191970" points="421.3017,-961.2875 430.1959,-955.5304 419.6528,-954.4844 421.3017,-961.2875"/>
</g>
<!-- Node411485 -->
<g id="node30" class="node">
<title>Node411485</title>
<g id="a_node30"><a xlink:href="quickjs_8c.html#a646c73cb7ff4b6af11529c2524d90a43" target="_top" xlink:title="string_indexof_char">
<polygon fill="none" stroke="#000000" points="145,-.5 145,-19.5 246,-19.5 246,-.5 145,-.5"/>
<text text-anchor="middle" x="195.5" y="-7.5" font-family="Helvetica,sans-Serif" font-size="10.00" fill="#000000">string_indexof_char</text>
</a>
</g>
</g>
<!-- Node411050&#45;&gt;Node411485 -->
<g id="edge39" class="edge">
<title>Node411050&#45;&gt;Node411485</title>
<path fill="none" stroke="#191970" d="M59.1791,-171.352C73.9224,-141.2778 119.9162,-49.9915 145,-29 147.0115,-27.3167 149.187,-25.7743 151.4668,-24.3622"/>
<polygon fill="#191970" stroke="#191970" points="153.424,-27.2877 160.6491,-19.5386 150.1685,-21.0907 153.424,-27.2877"/>
</g>
<!-- Node411052 -->
<g id="node3" class="node">
<title>Node411052</title>
<g id="a_node3"><a xlink:href="quickjs_8c.html#aa059f309c30fd5166d16c82a97973146" target="_top" xlink:title="__JS_FreeValue">
<polygon fill="none" stroke="#000000" points="897,-841.5 897,-860.5 986,-860.5 986,-841.5 897,-841.5"/>
<text text-anchor="middle" x="941.5" y="-848.5" font-family="Helvetica,sans-Serif" font-size="10.00" fill="#000000">__JS_FreeValue</text>
</a>
</g>
</g>
<!-- Node411051&#45;&gt;Node411052 -->
<g id="edge2" class="edge">
<title>Node411051&#45;&gt;Node411052</title>
<path fill="none" stroke="#191970" d="M857.0762,-851C866.412,-851 876.5507,-851 886.4566,-851"/>
<polygon fill="#191970" stroke="#191970" points="886.6517,-854.5001 896.6517,-851 886.6517,-847.5001 886.6517,-854.5001"/>
</g>
<!-- Node411053 -->
<g id="node4" class="node">
<title>Node411053</title>
<g id="a_node4"><a xlink:href="quickjs_8c.html#ab1ea3fad7d138be12144a38be4d36423" target="_top" xlink:title="__JS_FreeValueRT">
<polygon fill="none" stroke="#ff0000" points="1022,-841.5 1022,-860.5 1124,-860.5 1124,-841.5 1022,-841.5"/>
<text text-anchor="middle" x="1073" y="-848.5" font-family="Helvetica,sans-Serif" font-size="10.00" fill="#000000">__JS_FreeValueRT</text>
</a>
</g>
</g>
<!-- Node411052&#45;&gt;Node411053 -->
<g id="edge3" class="edge">
<title>Node411052&#45;&gt;Node411053</title>
<path fill="none" stroke="#191970" d="M986.0199,-851C994.2672,-851 1003.0138,-851 1011.6583,-851"/>
<polygon fill="#191970" stroke="#191970" points="1011.7233,-854.5001 1021.7233,-851 1011.7232,-847.5001 1011.7233,-854.5001"/>
</g>
<!-- Node411089 -->
<g id="node6" class="node">
<title>Node411089</title>
<g id="a_node6"><a xlink:href="quickjs_8c.html#a5762c57ae0c9937e986040c01222833a" target="_top" xlink:title="JS_GetPropertyInternal">
<polygon fill="none" stroke="#ff0000" points="404,-532.5 404,-551.5 523,-551.5 523,-532.5 404,-532.5"/>
<text text-anchor="middle" x="463.5" y="-539.5" font-family="Helvetica,sans-Serif" font-size="10.00" fill="#000000">JS_GetPropertyInternal</text>
</a>
</g>
</g>
<!-- Node411088&#45;&gt;Node411089 -->
<g id="edge5" class="edge">
<title>Node411088&#45;&gt;Node411089</title>
<path fill="none" stroke="#191970" d="M332.0586,-361.6833C354.0028,-391.7873 421.2828,-484.0847 450.1345,-523.6647"/>
<polygon fill="#191970" stroke="#191970" points="447.5706,-526.0891 456.2895,-532.1083 453.2272,-521.9657 447.5706,-526.0891"/>
</g>
<!-- Node411089&#45;&gt;Node411051 -->
<g id="edge17" class="edge">
<title>Node411089&#45;&gt;Node411051</title>
<path fill="none" stroke="#191970" d="M464.9244,-551.5411C472.2915,-599.4717 507.7128,-813.1701 559,-851 624.4067,-899.2446 726.5669,-879.3625 780.9746,-863.5056"/>
<polygon fill="#191970" stroke="#191970" points="781.9986,-866.8525 790.5583,-860.6089 779.9733,-860.1519 781.9986,-866.8525"/>
</g>
<!-- Node411090 -->
<g id="node7" class="node">
<title>Node411090</title>
<g id="a_node7"><a xlink:href="quickjs_8c.html#a288254c06a39c9fca740a7abdad2834e" target="_top" xlink:title="__JS_AtomIsTaggedInt">
<polygon fill="none" stroke="#000000" points="589.5,-570.5 589.5,-589.5 708.5,-589.5 708.5,-570.5 589.5,-570.5"/>
<text text-anchor="middle" x="649" y="-577.5" font-family="Helvetica,sans-Serif" font-size="10.00" fill="#000000">__JS_AtomIsTaggedInt</text>
</a>
</g>
</g>
<!-- Node411089&#45;&gt;Node411090 -->
<g id="edge6" class="edge">
<title>Node411089&#45;&gt;Node411090</title>
<path fill="none" stroke="#191970" d="M510.3095,-551.589C535.3395,-556.7165 566.3414,-563.0672 592.6822,-568.4632"/>
<polygon fill="#191970" stroke="#191970" points="592.0281,-571.9018 602.5271,-570.4799 593.433,-565.0442 592.0281,-571.9018"/>
</g>
<!-- Node411091 -->
<g id="node8" class="node">
<title>Node411091</title>
<g id="a_node8"><a xlink:href="quickjs_8c.html#a89f38938cee8077ce1fbba07946ed185" target="_top" xlink:title="__JS_AtomToUInt32">
<polygon fill="none" stroke="#000000" points="595,-532.5 595,-551.5 703,-551.5 703,-532.5 595,-532.5"/>
<text text-anchor="middle" x="649" y="-539.5" font-family="Helvetica,sans-Serif" font-size="10.00" fill="#000000">__JS_AtomToUInt32</text>
</a>
</g>
</g>
<!-- Node411089&#45;&gt;Node411091 -->
<g id="edge7" class="edge">
<title>Node411089&#45;&gt;Node411091</title>
<path fill="none" stroke="#191970" d="M523.2144,-542C542.786,-542 564.6151,-542 584.5227,-542"/>
<polygon fill="#191970" stroke="#191970" points="584.7359,-545.5001 594.7359,-542 584.7358,-538.5001 584.7359,-545.5001"/>
</g>
<!-- Node411092 -->
<g id="node9" class="node">
<title>Node411092</title>
<g id="a_node9"><a xlink:href="quickjs_8c.html#a06b76f5124fd985e35f4c652fd018d6d" target="_top" xlink:title="find_own_property">
<polygon fill="none" stroke="#ff0000" points="601,-494.5 601,-513.5 697,-513.5 697,-494.5 601,-494.5"/>
<text text-anchor="middle" x="649" y="-501.5" font-family="Helvetica,sans-Serif" font-size="10.00" fill="#000000">find_own_property</text>
</a>
</g>
</g>
<!-- Node411089&#45;&gt;Node411092 -->
<g id="edge8" class="edge">
<title>Node411089&#45;&gt;Node411092</title>
<path fill="none" stroke="#191970" d="M510.3095,-532.411C535.3395,-527.2835 566.3414,-520.9328 592.6822,-515.5368"/>
<polygon fill="#191970" stroke="#191970" points="593.433,-518.9558 602.5271,-513.5201 592.0281,-512.0982 593.433,-518.9558"/>
</g>
<!-- Node411093 -->
<g id="node10" class="node">
<title>Node411093</title>
<g id="a_node10"><a xlink:href="quickjs_8c.html#add3eea1f6d626963ade3c28a1fd563d1" target="_top" xlink:title="JS_AtomIsNumericIndex">
<polygon fill="none" stroke="#ff0000" points="586,-228.5 586,-247.5 712,-247.5 712,-228.5 586,-228.5"/>
<text text-anchor="middle" x="649" y="-235.5" font-family="Helvetica,sans-Serif" font-size="10.00" fill="#000000">JS_AtomIsNumericIndex</text>
</a>
</g>
</g>
<!-- Node411089&#45;&gt;Node411093 -->
<g id="edge9" class="edge">
<title>Node411089&#45;&gt;Node411093</title>
<path fill="none" stroke="#191970" d="M464.9832,-532.4085C470.8629,-497.1082 495.3891,-372.4535 559,-295 574.3638,-276.2928 597.5437,-261.8147 616.531,-252.1313"/>
<polygon fill="#191970" stroke="#191970" points="618.287,-255.1689 625.7379,-247.6366 615.2161,-248.8785 618.287,-255.1689"/>
</g>
<!-- Node411271 -->
<g id="node13" class="node">
<title>Node411271</title>
<g id="a_node13"><a xlink:href="quickjs_8c.html#a23b7fe57d08a1b3b39ba556f9cbb6c76" target="_top" xlink:title="JS_AutoInitProperty">
<polygon fill="none" stroke="#ff0000" points="597,-456.5 597,-475.5 701,-475.5 701,-456.5 597,-456.5"/>
<text text-anchor="middle" x="649" y="-463.5" font-family="Helvetica,sans-Serif" font-size="10.00" fill="#000000">JS_AutoInitProperty</text>
</a>
</g>
</g>
<!-- Node411089&#45;&gt;Node411271 -->
<g id="edge13" class="edge">
<title>Node411089&#45;&gt;Node411271</title>
<path fill="none" stroke="#191970" d="M476.3786,-532.4086C494.083,-519.6829 527.3547,-497.3863 559,-485 567.8296,-481.544 577.4048,-478.6691 586.9048,-476.2915"/>
<polygon fill="#191970" stroke="#191970" points="587.803,-479.676 596.7431,-473.9905 586.2088,-472.8599 587.803,-479.676"/>
</g>
<!-- Node411150 -->
<g id="node14" class="node">
<title>Node411150</title>
<g id="a_node14"><a xlink:href="quickjs_8c.html#a75f6ee5e4235a7dc99889f3d2eb2c147" target="_top" xlink:title="JS_CallFree">
<polygon fill="none" stroke="#ff0000" points="613.5,-822.5 613.5,-841.5 684.5,-841.5 684.5,-822.5 613.5,-822.5"/>
<text text-anchor="middle" x="649" y="-829.5" font-family="Helvetica,sans-Serif" font-size="10.00" fill="#000000">JS_CallFree</text>
</a>
</g>
</g>
<!-- Node411089&#45;&gt;Node411150 -->
<g id="edge14" class="edge">
<title>Node411089&#45;&gt;Node411150</title>
<path fill="none" stroke="#191970" d="M465.5698,-551.6224C475.1963,-595.5017 516.9032,-776.0766 559,-813 571.1135,-823.6248 587.6591,-828.8259 603.2614,-831.2282"/>
<polygon fill="#191970" stroke="#191970" points="602.9771,-834.719 613.322,-832.4315 603.8085,-827.7686 602.9771,-834.719"/>
</g>
<!-- Node411105 -->
<g id="node15" class="node">
<title>Node411105</title>
<g id="a_node15"><a xlink:href="quickjs_8h.html#a775522f2d084fc8fa0fcb33f390006b4" target="_top" xlink:title="JS_DupValue">
<polygon fill="none" stroke="#000000" points="610.5,-418.5 610.5,-437.5 687.5,-437.5 687.5,-418.5 610.5,-418.5"/>
<text text-anchor="middle" x="649" y="-425.5" font-family="Helvetica,sans-Serif" font-size="10.00" fill="#000000">JS_DupValue</text>
</a>
</g>
</g>
<!-- Node411089&#45;&gt;Node411105 -->
<g id="edge16" class="edge">
<title>Node411089&#45;&gt;Node411105</title>
<path fill="none" stroke="#191970" d="M470.1333,-532.3817C484.1168,-512.9016 518.674,-468.7907 559,-447 571.549,-440.219 586.2974,-435.8569 600.1827,-433.0512"/>
<polygon fill="#191970" stroke="#191970" points="600.8731,-436.4833 610.0971,-431.271 599.6359,-429.5935 600.8731,-436.4833"/>
</g>
<!-- Node411173 -->
<g id="node16" class="node">
<title>Node411173</title>
<g id="a_node16"><a xlink:href="quickjs_8c.html#aeb97957655d979e9fe56c955da2b2d4b" target="_top" xlink:title="JS_GetPropertyUint32">
<polygon fill="none" stroke="#ff0000" points="591.5,-380.5 591.5,-399.5 706.5,-399.5 706.5,-380.5 591.5,-380.5"/>
<text text-anchor="middle" x="649" y="-387.5" font-family="Helvetica,sans-Serif" font-size="10.00" fill="#000000">JS_GetPropertyUint32</text>
</a>
</g>
</g>
<!-- Node411089&#45;&gt;Node411173 -->
<g id="edge18" class="edge">
<title>Node411089&#45;&gt;Node411173</title>
<path fill="none" stroke="#191970" d="M467.3934,-532.4229C478.0039,-507.6189 509.9561,-440.9961 559,-409 565.8462,-404.5336 573.5528,-401.0936 581.5021,-398.4483"/>
<polygon fill="#191970" stroke="#191970" points="582.6556,-401.7578 591.2773,-395.6 580.6974,-395.0372 582.6556,-401.7578"/>
</g>
<!-- Node411273 -->
<g id="node17" class="node">
<title>Node411273</title>
<g id="a_node17"><a xlink:href="quickjs_8c.html#a93550bf785e919d0881399712c54cb34" target="_top" xlink:title="JS_GetPrototypePrimitive">
<polygon fill="none" stroke="#000000" points="584,-342.5 584,-361.5 714,-361.5 714,-342.5 584,-342.5"/>
<text text-anchor="middle" x="649" y="-349.5" font-family="Helvetica,sans-Serif" font-size="10.00" fill="#000000">JS_GetPrototypePrimitive</text>
</a>
</g>
</g>
<!-- Node411089&#45;&gt;Node411273 -->
<g id="edge19" class="edge">
<title>Node411089&#45;&gt;Node411273</title>
<path fill="none" stroke="#191970" d="M465.8495,-532.3703C473.5537,-502.9645 500.9542,-413.7468 559,-371 563.5809,-367.6265 568.6298,-364.8239 573.9277,-362.4987"/>
<polygon fill="#191970" stroke="#191970" points="575.5698,-365.6197 583.6854,-358.8088 573.0938,-359.0722 575.5698,-365.6197"/>
</g>
<!-- Node411354 -->
<g id="node18" class="node">
<title>Node411354</title>
<g id="a_node18"><a xlink:href="quickjs_8h.html#aaab426b47c95d00479b7355b1cf7f56c" target="_top" xlink:title="JS_IsUninitialized">
<polygon fill="none" stroke="#000000" points="601.5,-304.5 601.5,-323.5 696.5,-323.5 696.5,-304.5 601.5,-304.5"/>
<text text-anchor="middle" x="649" y="-311.5" font-family="Helvetica,sans-Serif" font-size="10.00" fill="#000000">JS_IsUninitialized</text>
</a>
</g>
</g>
<!-- Node411089&#45;&gt;Node411354 -->
<g id="edge20" class="edge">
<title>Node411089&#45;&gt;Node411354</title>
<path fill="none" stroke="#191970" d="M464.8393,-532.2314C469.9914,-498.6198 491.7335,-386.8553 559,-333 568.1597,-325.6665 579.4756,-320.9775 590.9553,-318.019"/>
<polygon fill="#191970" stroke="#191970" points="592,-321.3742 601.0356,-315.8417 590.5221,-314.532 592,-321.3742"/>
</g>
<!-- Node411480 -->
<g id="node19" class="node">
<title>Node411480</title>
<g id="a_node19"><a xlink:href="quickjs_8c.html#a077ffa6455c0d7831bd4547542b5f2f7" target="_top" xlink:title="js_new_string_char">
<polygon fill="none" stroke="#ff0000" points="598.5,-784.5 598.5,-803.5 699.5,-803.5 699.5,-784.5 598.5,-784.5"/>
<text text-anchor="middle" x="649" y="-791.5" font-family="Helvetica,sans-Serif" font-size="10.00" fill="#000000">js_new_string_char</text>
</a>
</g>
</g>
<!-- Node411089&#45;&gt;Node411480 -->
<g id="edge21" class="edge">
<title>Node411089&#45;&gt;Node411480</title>
<path fill="none" stroke="#191970" d="M464.3492,-551.8435C468.0153,-587.9209 485.7974,-713.9737 559,-775 567.4521,-782.0462 577.8746,-786.6757 588.5945,-789.6791"/>
<polygon fill="#191970" stroke="#191970" points="587.9392,-793.1204 598.4749,-792.0028 589.5418,-786.3063 587.9392,-793.1204"/>
</g>
<!-- Node411098 -->
<g id="node20" class="node">
<title>Node411098</title>
<g id="a_node20"><a xlink:href="quickjs_8h.html#a2050bc428da1c65ac7eb87c3fa3b0392" target="_top" xlink:title="JS_NewInt32">
<polygon fill="none" stroke="#000000" points="611,-746.5 611,-765.5 687,-765.5 687,-746.5 611,-746.5"/>
<text text-anchor="middle" x="649" y="-753.5" font-family="Helvetica,sans-Serif" font-size="10.00" fill="#000000">JS_NewInt32</text>
</a>
</g>
</g>
<!-- Node411089&#45;&gt;Node411098 -->
<g id="edge22" class="edge">
<title>Node411089&#45;&gt;Node411098</title>
<path fill="none" stroke="#191970" d="M465.2674,-551.9439C471.5385,-584.1476 495.8323,-686.3639 559,-736 570.8619,-745.3208 586.1885,-750.4894 600.8209,-753.2997"/>
<polygon fill="#191970" stroke="#191970" points="600.3624,-756.7707 610.7891,-754.8906 601.4657,-749.8582 600.3624,-756.7707"/>
</g>
<!-- Node411274 -->
<g id="node21" class="node">
<title>Node411274</title>
<g id="a_node21"><a xlink:href="quickjs_8c.html#ab8d0b87c9eed4eb6c054b6f4e1731554" target="_top" xlink:title="JS_ThrowReferenceErrorNot\lDefined">
<polygon fill="none" stroke="#ff0000" points="577.5,-697 577.5,-727 720.5,-727 720.5,-697 577.5,-697"/>
<text text-anchor="start" x="585.5" y="-715" font-family="Helvetica,sans-Serif" font-size="10.00" fill="#000000">JS_ThrowReferenceErrorNot</text>
<text text-anchor="middle" x="649" y="-704" font-family="Helvetica,sans-Serif" font-size="10.00" fill="#000000">Defined</text>
</a>
</g>
</g>
<!-- Node411089&#45;&gt;Node411274 -->
<g id="edge23" class="edge">
<title>Node411089&#45;&gt;Node411274</title>
<path fill="none" stroke="#191970" d="M467.1142,-551.8648C477.2546,-578.1297 508.57,-650.2565 559,-687 561.9941,-689.1815 565.1704,-691.1727 568.4727,-692.9902"/>
<polygon fill="#191970" stroke="#191970" points="566.9503,-696.1419 577.4694,-697.4072 570.0353,-689.8583 566.9503,-696.1419"/>
</g>
<!-- Node411355 -->
<g id="node22" class="node">
<title>Node411355</title>
<g id="a_node22"><a xlink:href="quickjs_8c.html#a75ac132a3af4de01e1fadeb0bede6ee7" target="_top" xlink:title="JS_ThrowReferenceErrorUninitialized">
<polygon fill="none" stroke="#ff0000" points="559,-658.5 559,-677.5 739,-677.5 739,-658.5 559,-658.5"/>
<text text-anchor="middle" x="649" y="-665.5" font-family="Helvetica,sans-Serif" font-size="10.00" fill="#000000">JS_ThrowReferenceErrorUninitialized</text>
</a>
</g>
</g>
<!-- Node411089&#45;&gt;Node411355 -->
<g id="edge24" class="edge">
<title>Node411089&#45;&gt;Node411355</title>
<path fill="none" stroke="#191970" d="M469.2626,-551.7311C482.3324,-572.8881 516.4221,-623.1634 559,-648 563.6662,-650.7219 568.6664,-653.0737 573.8313,-655.1058"/>
<polygon fill="#191970" stroke="#191970" points="572.6747,-658.4091 583.2695,-658.4289 574.9995,-651.8064 572.6747,-658.4091"/>
</g>
<!-- Node411279 -->
<g id="node23" class="node">
<title>Node411279</title>
<g id="a_node23"><a xlink:href="quickjs_8c.html#a033dd3ebd29c4eb9f0baff1dd0fec0b1" target="_top" xlink:title="JS_ThrowTypeErrorDetached\lArrayBuffer">
<polygon fill="none" stroke="#000000" points="576,-609 576,-639 722,-639 722,-609 576,-609"/>
<text text-anchor="start" x="584" y="-627" font-family="Helvetica,sans-Serif" font-size="10.00" fill="#000000">JS_ThrowTypeErrorDetached</text>
<text text-anchor="middle" x="649" y="-616" font-family="Helvetica,sans-Serif" font-size="10.00" fill="#000000">ArrayBuffer</text>
</a>
</g>
</g>
<!-- Node411089&#45;&gt;Node411279 -->
<g id="edge25" class="edge">
<title>Node411089&#45;&gt;Node411279</title>
<path fill="none" stroke="#191970" d="M476.8028,-551.514C494.7159,-563.948 527.9373,-585.7008 559,-599 564.6743,-601.4294 570.6508,-603.689 576.7142,-605.7756"/>
<polygon fill="#191970" stroke="#191970" points="575.6903,-609.1232 586.2831,-608.9118 577.8705,-602.4714 575.6903,-609.1232"/>
</g>
<!-- Node411093&#45;&gt;Node411051 -->
<g id="edge10" class="edge">
<title>Node411093&#45;&gt;Node411051</title>
<path fill="none" stroke="#191970" d="M712.0273,-244.63C722.2653,-248.3473 731.8415,-253.8671 739,-262 777.6048,-305.8596 809.7467,-733.2982 816.6352,-831.1255"/>
<polygon fill="#191970" stroke="#191970" points="813.147,-831.4185 817.3334,-841.1512 820.1301,-830.9321 813.147,-831.4185"/>
</g>
<!-- Node411093&#45;&gt;Node411097 -->
<g id="edge11" class="edge">
<title>Node411093&#45;&gt;Node411097</title>
<path fill="none" stroke="#191970" d="M691.6458,-228.411C714.1481,-223.3513 741.9482,-217.1004 765.7379,-211.7512"/>
<polygon fill="#191970" stroke="#191970" points="766.6723,-215.1286 775.6608,-209.5201 765.1366,-208.2991 766.6723,-215.1286"/>
</g>
<!-- Node411093&#45;&gt;Node411254 -->
<g id="edge12" class="edge">
<title>Node411093&#45;&gt;Node411254</title>
<path fill="none" stroke="#191970" d="M669.9314,-228.4634C694.9116,-217.0978 737.9583,-197.5617 775,-181 778.8558,-179.276 782.9098,-177.4727 786.9244,-175.6924"/>
<polygon fill="#191970" stroke="#191970" points="788.3798,-178.8758 796.1083,-171.6288 785.5473,-172.4745 788.3798,-178.8758"/>
</g>
<!-- Node411150&#45;&gt;Node411051 -->
<g id="edge15" class="edge">
<title>Node411150&#45;&gt;Node411051</title>
<path fill="none" stroke="#191970" d="M684.8406,-836.0294C709.3265,-838.7823 742.0816,-842.4648 768.9775,-845.4886"/>
<polygon fill="#191970" stroke="#191970" points="768.6409,-848.9727 778.9693,-846.6119 769.423,-842.0165 768.6409,-848.9727"/>
</g>
<!-- Node411482&#45;&gt;Node411088 -->
<g id="edge28" class="edge">
<title>Node411482&#45;&gt;Node411088</title>
<path fill="none" stroke="#191970" d="M203.0594,-247.5697C217.2071,-265.0608 249.2277,-302.7147 282,-328 286.2898,-331.3097 291.0908,-334.4516 295.8872,-337.3059"/>
<polygon fill="#191970" stroke="#191970" points="294.5366,-340.5617 304.9692,-342.4089 297.9656,-334.459 294.5366,-340.5617"/>
</g>
<!-- Node411482&#45;&gt;Node411097 -->
<g id="edge29" class="edge">
<title>Node411482&#45;&gt;Node411097</title>
<path fill="none" stroke="#191970" d="M231.2041,-235.8205C335.6118,-229.447 640.796,-210.8173 764.7467,-203.2508"/>
<polygon fill="#191970" stroke="#191970" points="764.994,-206.7423 774.7622,-202.6394 764.5674,-199.7553 764.994,-206.7423"/>
</g>
<!-- Node411482&#45;&gt;Node411254 -->
<g id="edge31" class="edge">
<title>Node411482&#45;&gt;Node411254</title>
<path fill="none" stroke="#191970" d="M205.9458,-228.2893C221.2612,-214.7577 251.3325,-190.7912 282,-181 451.6285,-126.8427 666.9256,-142.9944 765.0076,-154.6336"/>
<polygon fill="#191970" stroke="#191970" points="764.623,-158.1125 774.9732,-155.849 765.4705,-151.164 764.623,-158.1125"/>
</g>
<!-- Node411483 -->
<g id="node25" class="node">
<title>Node411483</title>
<g id="a_node25"><a xlink:href="quickjs_8c.html#a82de8d310598980dd9ab473ce2c8dd1c" target="_top" xlink:title="js_get_regexp">
<polygon fill="none" stroke="#ff0000" points="286.5,-190.5 286.5,-209.5 363.5,-209.5 363.5,-190.5 286.5,-190.5"/>
<text text-anchor="middle" x="325" y="-197.5" font-family="Helvetica,sans-Serif" font-size="10.00" fill="#000000">js_get_regexp</text>
</a>
</g>
</g>
<!-- Node411482&#45;&gt;Node411483 -->
<g id="edge27" class="edge">
<title>Node411482&#45;&gt;Node411483</title>
<path fill="none" stroke="#191970" d="M228.1783,-228.411C244.5888,-223.5956 264.6763,-217.7012 282.2922,-212.532"/>
<polygon fill="#191970" stroke="#191970" points="283.7222,-215.7601 292.3321,-209.5859 281.7512,-209.0433 283.7222,-215.7601"/>
</g>
<!-- Node411332 -->
<g id="node26" class="node">
<title>Node411332</title>
<g id="a_node26"><a xlink:href="quickjs_8h.html#a3d68fe446df2d9c7d1900b16371bff5b" target="_top" xlink:title="JS_IsObject">
<polygon fill="none" stroke="#000000" points="289.5,-266.5 289.5,-285.5 360.5,-285.5 360.5,-266.5 289.5,-266.5"/>
<text text-anchor="middle" x="325" y="-273.5" font-family="Helvetica,sans-Serif" font-size="10.00" fill="#000000">JS_IsObject</text>
</a>
</g>
</g>
<!-- Node411482&#45;&gt;Node411332 -->
<g id="edge30" class="edge">
<title>Node411482&#45;&gt;Node411332</title>
<path fill="none" stroke="#191970" d="M228.1783,-247.589C244.5888,-252.4044 264.6763,-258.2988 282.2922,-263.468"/>
<polygon fill="#191970" stroke="#191970" points="281.7512,-266.9567 292.3321,-266.4141 283.7222,-260.2399 281.7512,-266.9567"/>
</g>
<!-- Node411255 -->
<g id="node27" class="node">
<title>Node411255</title>
<g id="a_node27"><a xlink:href="quickjs_8c.html#a2bf30c9cddfe98a32535843202495069" target="_top" xlink:title="JS_ToBoolFree">
<polygon fill="none" stroke="#000000" points="421.5,-285.5 421.5,-304.5 505.5,-304.5 505.5,-285.5 421.5,-285.5"/>
<text text-anchor="middle" x="463.5" y="-292.5" font-family="Helvetica,sans-Serif" font-size="10.00" fill="#000000">JS_ToBoolFree</text>
</a>
</g>
</g>
<!-- Node411482&#45;&gt;Node411255 -->
<g id="edge32" class="edge">
<title>Node411482&#45;&gt;Node411255</title>
<path fill="none" stroke="#191970" d="M205.6457,-247.6298C220.8245,-261.2994 250.9916,-285.702 282,-295 324.211,-307.6572 374.4692,-306.4853 411.385,-302.8164"/>
<polygon fill="#191970" stroke="#191970" points="411.8624,-306.2852 421.4255,-301.7248 411.1058,-299.3262 411.8624,-306.2852"/>
</g>
<!-- Node411255&#45;&gt;Node411051 -->
<g id="edge33" class="edge">
<title>Node411255&#45;&gt;Node411051</title>
<path fill="none" stroke="#191970" d="M488.5033,-285.4407C541.7867,-266.8715 667.4796,-232.9233 739,-295 780.5682,-331.0794 810.2723,-736.141 816.6982,-831.1445"/>
<polygon fill="#191970" stroke="#191970" points="813.2076,-831.4028 817.3657,-841.1476 820.192,-830.9367 813.2076,-831.4028"/>
</g>
<!-- Node411305&#45;&gt;Node411051 -->
<g id="edge38" class="edge">
<title>Node411305&#45;&gt;Node411051</title>
<path fill="none" stroke="#191970" d="M508.5528,-950.5637C564.9232,-954.411 663.2489,-954.8792 739,-922 765.937,-910.3082 789.9299,-885.6897 804.2187,-868.7502"/>
<polygon fill="#191970" stroke="#191970" points="807.172,-870.6662 810.7704,-860.7011 801.7431,-866.2472 807.172,-870.6662"/>
</g>
</g>
</svg>
