<?xml version="1.0" encoding="UTF-8" standalone="no"?>
<!DOCTYPE svg PUBLIC "-//W3C//DTD SVG 1.1//EN"
 "http://www.w3.org/Graphics/SVG/1.1/DTD/svg11.dtd">
<!-- Generated by graphviz version 2.40.1 (20161225.0304)
 -->
<!-- Title: JS_ToBoolFree Pages: 1 -->
<svg width="469pt" height="28pt"
 viewBox="0.00 0.00 469.00 28.00" xmlns="http://www.w3.org/2000/svg" xmlns:xlink="http://www.w3.org/1999/xlink">
<g id="graph0" class="graph" transform="scale(1 1) rotate(0) translate(4 24)">
<title>JS_ToBoolFree</title>
<!-- Node227476 -->
<g id="node1" class="node">
<title>Node227476</title>
<polygon fill="#bfbfbf" stroke="#000000" points="0,-.5 0,-19.5 84,-19.5 84,-.5 0,-.5"/>
<text text-anchor="middle" x="42" y="-7.5" font-family="Helvetica,sans-Serif" font-size="10.00" fill="#000000">JS_ToBoolFree</text>
</g>
<!-- Node227477 -->
<g id="node2" class="node">
<title>Node227477</title>
<g id="a_node2"><a xlink:href="quickjs_8h.html#afaa20c47565bc704c6c85f3d77254e7d" target="_top" xlink:title="JS_FreeValue">
<polygon fill="none" stroke="#000000" points="120,-.5 120,-19.5 198,-19.5 198,-.5 120,-.5"/>
<text text-anchor="middle" x="159" y="-7.5" font-family="Helvetica,sans-Serif" font-size="10.00" fill="#000000">JS_FreeValue</text>
</a>
</g>
</g>
<!-- Node227476&#45;&gt;Node227477 -->
<g id="edge1" class="edge">
<title>Node227476&#45;&gt;Node227477</title>
<path fill="none" stroke="#191970" d="M84.2397,-10C92.5229,-10 101.2785,-10 109.7671,-10"/>
<polygon fill="#191970" stroke="#191970" points="109.9391,-13.5001 119.939,-10 109.939,-6.5001 109.9391,-13.5001"/>
</g>
<!-- Node227478 -->
<g id="node3" class="node">
<title>Node227478</title>
<g id="a_node3"><a xlink:href="quickjs_8c.html#aa059f309c30fd5166d16c82a97973146" target="_top" xlink:title="__JS_FreeValue">
<polygon fill="none" stroke="#000000" points="234,-.5 234,-19.5 323,-19.5 323,-.5 234,-.5"/>
<text text-anchor="middle" x="278.5" y="-7.5" font-family="Helvetica,sans-Serif" font-size="10.00" fill="#000000">__JS_FreeValue</text>
</a>
</g>
</g>
<!-- Node227477&#45;&gt;Node227478 -->
<g id="edge2" class="edge">
<title>Node227477&#45;&gt;Node227478</title>
<path fill="none" stroke="#191970" d="M198.1288,-10C206.3481,-10 215.1608,-10 223.8298,-10"/>
<polygon fill="#191970" stroke="#191970" points="223.8964,-13.5001 233.8964,-10 223.8964,-6.5001 223.8964,-13.5001"/>
</g>
<!-- Node227479 -->
<g id="node4" class="node">
<title>Node227479</title>
<g id="a_node4"><a xlink:href="quickjs_8c.html#ab1ea3fad7d138be12144a38be4d36423" target="_top" xlink:title="__JS_FreeValueRT">
<polygon fill="none" stroke="#ff0000" points="359,-.5 359,-19.5 461,-19.5 461,-.5 359,-.5"/>
<text text-anchor="middle" x="410" y="-7.5" font-family="Helvetica,sans-Serif" font-size="10.00" fill="#000000">__JS_FreeValueRT</text>
</a>
</g>
</g>
<!-- Node227478&#45;&gt;Node227479 -->
<g id="edge3" class="edge">
<title>Node227478&#45;&gt;Node227479</title>
<path fill="none" stroke="#191970" d="M323.0199,-10C331.2672,-10 340.0138,-10 348.6583,-10"/>
<polygon fill="#191970" stroke="#191970" points="348.7233,-13.5001 358.7233,-10 348.7232,-6.5001 348.7233,-13.5001"/>
</g>
</g>
</svg>
