<?xml version="1.0" encoding="UTF-8" standalone="no"?>
<!DOCTYPE svg PUBLIC "-//W3C//DTD SVG 1.1//EN"
 "http://www.w3.org/Graphics/SVG/1.1/DTD/svg11.dtd">
<!-- Generated by graphviz version 2.40.1 (20161225.0304)
 -->
<!-- Title: js_object_keys Pages: 1 -->
<svg width="774pt" height="446pt"
 viewBox="0.00 0.00 774.00 446.00" xmlns="http://www.w3.org/2000/svg" xmlns:xlink="http://www.w3.org/1999/xlink">
<g id="graph0" class="graph" transform="scale(1 1) rotate(0) translate(4 442)">
<title>js_object_keys</title>
<!-- Node375886 -->
<g id="node1" class="node">
<title>Node375886</title>
<polygon fill="#bfbfbf" stroke="#000000" points="0,-190.5 0,-209.5 82,-209.5 82,-190.5 0,-190.5"/>
<text text-anchor="middle" x="41" y="-197.5" font-family="Helvetica,sans-Serif" font-size="10.00" fill="#000000">js_object_keys</text>
</g>
<!-- Node375887 -->
<g id="node2" class="node">
<title>Node375887</title>
<g id="a_node2"><a xlink:href="quickjs_8c.html#a79c9d633e8f9d5fd70546406b9e6f176" target="_top" xlink:title="JS_GetOwnPropertyNames2">
<polygon fill="none" stroke="#000000" points="118,-190.5 118,-209.5 261,-209.5 261,-190.5 118,-190.5"/>
<text text-anchor="middle" x="189.5" y="-197.5" font-family="Helvetica,sans-Serif" font-size="10.00" fill="#000000">JS_GetOwnPropertyNames2</text>
</a>
</g>
</g>
<!-- Node375886&#45;&gt;Node375887 -->
<g id="edge1" class="edge">
<title>Node375886&#45;&gt;Node375887</title>
<path fill="none" stroke="#191970" d="M82.3655,-200C90.3227,-200 98.9112,-200 107.6416,-200"/>
<polygon fill="#191970" stroke="#191970" points="107.9261,-203.5001 117.9261,-200 107.9261,-196.5001 107.9261,-203.5001"/>
</g>
<!-- Node375888 -->
<g id="node3" class="node">
<title>Node375888</title>
<g id="a_node3"><a xlink:href="quickjs_8c.html#afa67965c1017685fc6783776d6d0d4d7" target="_top" xlink:title="JS_AtomToValue">
<polygon fill="none" stroke="#000000" points="335.5,-399.5 335.5,-418.5 428.5,-418.5 428.5,-399.5 335.5,-399.5"/>
<text text-anchor="middle" x="382" y="-406.5" font-family="Helvetica,sans-Serif" font-size="10.00" fill="#000000">JS_AtomToValue</text>
</a>
</g>
</g>
<!-- Node375887&#45;&gt;Node375888 -->
<g id="edge2" class="edge">
<title>Node375887&#45;&gt;Node375888</title>
<path fill="none" stroke="#191970" d="M193.2793,-209.9029C204.6787,-238.5817 241.3946,-322.7211 297,-371 309.3155,-381.6928 325.1271,-389.8598 339.7659,-395.831"/>
<polygon fill="#191970" stroke="#191970" points="338.5777,-399.1238 349.1678,-399.4423 341.0877,-392.5893 338.5777,-399.1238"/>
</g>
<!-- Node375917 -->
<g id="node5" class="node">
<title>Node375917</title>
<g id="a_node5"><a xlink:href="quickjs_8c.html#aa44ddb5f94a842c9c5152a17032de580" target="_top" xlink:title="JS_CreateDataPropertyUint32">
<polygon fill="none" stroke="#000000" points="307.5,-342.5 307.5,-361.5 456.5,-361.5 456.5,-342.5 307.5,-342.5"/>
<text text-anchor="middle" x="382" y="-349.5" font-family="Helvetica,sans-Serif" font-size="10.00" fill="#000000">JS_CreateDataPropertyUint32</text>
</a>
</g>
</g>
<!-- Node375887&#45;&gt;Node375917 -->
<g id="edge4" class="edge">
<title>Node375887&#45;&gt;Node375917</title>
<path fill="none" stroke="#191970" d="M194.8498,-209.7211C208.537,-233.6656 247.2782,-295.8691 297,-328 304.0351,-332.5462 311.938,-336.2449 320.018,-339.251"/>
<polygon fill="#191970" stroke="#191970" points="318.9491,-342.5841 329.5433,-342.4709 321.1908,-335.9528 318.9491,-342.5841"/>
</g>
<!-- Node375942 -->
<g id="node7" class="node">
<title>Node375942</title>
<g id="a_node7"><a xlink:href="quickjs_8h.html#afaa20c47565bc704c6c85f3d77254e7d" target="_top" xlink:title="JS_FreeValue">
<polygon fill="none" stroke="#ff0000" points="688,-304.5 688,-323.5 766,-323.5 766,-304.5 688,-304.5"/>
<text text-anchor="middle" x="727" y="-311.5" font-family="Helvetica,sans-Serif" font-size="10.00" fill="#000000">JS_FreeValue</text>
</a>
</g>
</g>
<!-- Node375887&#45;&gt;Node375942 -->
<g id="edge11" class="edge">
<title>Node375887&#45;&gt;Node375942</title>
<path fill="none" stroke="#191970" d="M198.4271,-209.6836C215.5451,-227.5104 255.0277,-265.1458 297,-281 427.4762,-330.2848 595.7506,-325.3172 677.7272,-318.9563"/>
<polygon fill="#191970" stroke="#191970" points="678.0804,-322.4392 687.7622,-318.1367 677.5105,-315.4625 678.0804,-322.4392"/>
</g>
<!-- Node376193 -->
<g id="node9" class="node">
<title>Node376193</title>
<g id="a_node9"><a xlink:href="quickjs_8c.html#adfe21c674d998ca6586b7f7400352dc4" target="_top" xlink:title="js_free_desc">
<polygon fill="none" stroke="#000000" points="541.5,-266.5 541.5,-285.5 613.5,-285.5 613.5,-266.5 541.5,-266.5"/>
<text text-anchor="middle" x="577.5" y="-273.5" font-family="Helvetica,sans-Serif" font-size="10.00" fill="#000000">js_free_desc</text>
</a>
</g>
</g>
<!-- Node375887&#45;&gt;Node376193 -->
<g id="edge8" class="edge">
<title>Node375887&#45;&gt;Node376193</title>
<path fill="none" stroke="#191970" d="M202.9561,-209.5558C222.5665,-222.8989 260.6347,-246.638 297,-257 376.985,-279.7912 474.7628,-280.6601 531.2119,-278.6927"/>
<polygon fill="#191970" stroke="#191970" points="531.4031,-282.188 541.2576,-278.297 531.1276,-275.1934 531.4031,-282.188"/>
</g>
<!-- Node376190 -->
<g id="node10" class="node">
<title>Node376190</title>
<g id="a_node10"><a xlink:href="quickjs_8c.html#a6b42cd922447e1eb6bfc52761895a174" target="_top" xlink:title="js_free_prop_enum">
<polygon fill="none" stroke="#ff0000" points="528,-219.5 528,-238.5 627,-238.5 627,-219.5 528,-219.5"/>
<text text-anchor="middle" x="577.5" y="-226.5" font-family="Helvetica,sans-Serif" font-size="10.00" fill="#000000">js_free_prop_enum</text>
</a>
</g>
</g>
<!-- Node375887&#45;&gt;Node376190 -->
<g id="edge10" class="edge">
<title>Node375887&#45;&gt;Node376190</title>
<path fill="none" stroke="#191970" d="M261.1132,-204.4712C317.1686,-208.0755 397.0794,-213.4432 467,-219 483.4581,-220.308 501.2823,-221.8611 517.7129,-223.3486"/>
<polygon fill="#191970" stroke="#191970" points="517.4617,-226.8401 527.7385,-224.2634 518.0979,-219.8691 517.4617,-226.8401"/>
</g>
<!-- Node376181 -->
<g id="node11" class="node">
<title>Node376181</title>
<g id="a_node11"><a xlink:href="quickjs_8c.html#ad13892c0a0f11781b566808876658099" target="_top" xlink:title="JS_GetOwnPropertyInternal">
<polygon fill="none" stroke="#ff0000" points="508,-162.5 508,-181.5 647,-181.5 647,-162.5 508,-162.5"/>
<text text-anchor="middle" x="577.5" y="-169.5" font-family="Helvetica,sans-Serif" font-size="10.00" fill="#000000">JS_GetOwnPropertyInternal</text>
</a>
</g>
</g>
<!-- Node375887&#45;&gt;Node376181 -->
<g id="edge12" class="edge">
<title>Node375887&#45;&gt;Node376181</title>
<path fill="none" stroke="#191970" d="M256.2155,-190.4725C269.6953,-188.784 283.7847,-187.1884 297,-186 364.547,-179.9256 441.4993,-176.3191 497.696,-174.292"/>
<polygon fill="#191970" stroke="#191970" points="498.0699,-177.7811 507.9407,-173.9316 497.8238,-170.7854 498.0699,-177.7811"/>
</g>
<!-- Node376191 -->
<g id="node12" class="node">
<title>Node376191</title>
<g id="a_node12"><a xlink:href="quickjs_8c.html#a176ac5ff56a118a0b1b2566798d28823" target="_top" xlink:title="JS_GetOwnPropertyNamesInternal">
<polygon fill="none" stroke="#ff0000" points="297,-228.5 297,-247.5 467,-247.5 467,-228.5 297,-228.5"/>
<text text-anchor="middle" x="382" y="-235.5" font-family="Helvetica,sans-Serif" font-size="10.00" fill="#000000">JS_GetOwnPropertyNamesInternal</text>
</a>
</g>
</g>
<!-- Node375887&#45;&gt;Node376191 -->
<g id="edge13" class="edge">
<title>Node375887&#45;&gt;Node376191</title>
<path fill="none" stroke="#191970" d="M238.0759,-209.589C264.1649,-214.739 296.5058,-221.1232 323.9179,-226.5344"/>
<polygon fill="#191970" stroke="#191970" points="323.2849,-229.977 333.7734,-228.4799 324.6406,-223.1095 323.2849,-229.977"/>
</g>
<!-- Node376010 -->
<g id="node13" class="node">
<title>Node376010</title>
<g id="a_node13"><a xlink:href="quickjs_8h.html#a89b7c8686c7eee70b86be722ee4730ad" target="_top" xlink:title="JS_GetProperty">
<polygon fill="none" stroke="#ff0000" points="339,-114.5 339,-133.5 425,-133.5 425,-114.5 339,-114.5"/>
<text text-anchor="middle" x="382" y="-121.5" font-family="Helvetica,sans-Serif" font-size="10.00" fill="#000000">JS_GetProperty</text>
</a>
</g>
</g>
<!-- Node375887&#45;&gt;Node376010 -->
<g id="edge17" class="edge">
<title>Node375887&#45;&gt;Node376010</title>
<path fill="none" stroke="#191970" d="M206.9588,-190.374C227.8873,-179.1149 264.2444,-160.4365 297,-148 308.4235,-143.6627 320.9713,-139.7002 332.8365,-136.2994"/>
<polygon fill="#191970" stroke="#191970" points="333.9091,-139.6339 342.6031,-133.5789 332.0307,-132.8907 333.9091,-139.6339"/>
</g>
<!-- Node375976 -->
<g id="node14" class="node">
<title>Node375976</title>
<g id="a_node14"><a xlink:href="quickjs_8h.html#ad80a83d73e9b7d872b88fbf2943aebe9" target="_top" xlink:title="JS_IsException">
<polygon fill="none" stroke="#000000" points="534.5,-57.5 534.5,-76.5 620.5,-76.5 620.5,-57.5 534.5,-57.5"/>
<text text-anchor="middle" x="577.5" y="-64.5" font-family="Helvetica,sans-Serif" font-size="10.00" fill="#000000">JS_IsException</text>
</a>
</g>
</g>
<!-- Node375887&#45;&gt;Node375976 -->
<g id="edge18" class="edge">
<title>Node375887&#45;&gt;Node375976</title>
<path fill="none" stroke="#191970" d="M193.7121,-190.1582C205.4837,-164.0968 241.5414,-93.4835 297,-67 372.4488,-30.9704 472.8634,-43.2687 530.8195,-55.2768"/>
<polygon fill="#191970" stroke="#191970" points="530.2719,-58.7391 540.7851,-57.4261 531.7477,-51.8965 530.2719,-58.7391"/>
</g>
<!-- Node376092 -->
<g id="node15" class="node">
<title>Node376092</title>
<g id="a_node15"><a xlink:href="quickjs_8c.html#ad4ba09e4c7ab9f28c144182e1aacf1f6" target="_top" xlink:title="JS_NewArray">
<polygon fill="none" stroke="#ff0000" points="343.5,-.5 343.5,-19.5 420.5,-19.5 420.5,-.5 343.5,-.5"/>
<text text-anchor="middle" x="382" y="-7.5" font-family="Helvetica,sans-Serif" font-size="10.00" fill="#000000">JS_NewArray</text>
</a>
</g>
</g>
<!-- Node375887&#45;&gt;Node376092 -->
<g id="edge19" class="edge">
<title>Node375887&#45;&gt;Node376092</title>
<path fill="none" stroke="#191970" d="M192.8933,-190.4026C203.4765,-161.8911 238.7036,-77.0116 297,-34 307.6125,-26.17 320.6884,-20.8923 333.3745,-17.3357"/>
<polygon fill="#191970" stroke="#191970" points="334.5527,-20.6493 343.4106,-14.8365 332.8611,-13.8567 334.5527,-20.6493"/>
</g>
<!-- Node376118 -->
<g id="node16" class="node">
<title>Node376118</title>
<g id="a_node16"><a xlink:href="quickjs_8c.html#a710289a14c2810467e5b448d3c28bd55" target="_top" xlink:title="JS_ToObject">
<polygon fill="none" stroke="#ff0000" points="345,-76.5 345,-95.5 419,-95.5 419,-76.5 345,-76.5"/>
<text text-anchor="middle" x="382" y="-83.5" font-family="Helvetica,sans-Serif" font-size="10.00" fill="#000000">JS_ToObject</text>
</a>
</g>
</g>
<!-- Node375887&#45;&gt;Node376118 -->
<g id="edge20" class="edge">
<title>Node375887&#45;&gt;Node376118</title>
<path fill="none" stroke="#191970" d="M197.2816,-190.4471C213.6028,-171.0879 253.517,-127.1881 297,-105 308.5843,-99.0888 321.9791,-95.005 334.6602,-92.1878"/>
<polygon fill="#191970" stroke="#191970" points="335.512,-95.5868 344.6289,-90.1894 334.136,-88.7233 335.512,-95.5868"/>
</g>
<!-- Node375889 -->
<g id="node4" class="node">
<title>Node375889</title>
<g id="a_node4"><a xlink:href="quickjs_8c.html#a06ff303a11e6641cbf1f6634e6a61811" target="_top" xlink:title="__JS_AtomToValue">
<polygon fill="none" stroke="#ff0000" points="525.5,-418.5 525.5,-437.5 629.5,-437.5 629.5,-418.5 525.5,-418.5"/>
<text text-anchor="middle" x="577.5" y="-425.5" font-family="Helvetica,sans-Serif" font-size="10.00" fill="#000000">__JS_AtomToValue</text>
</a>
</g>
</g>
<!-- Node375888&#45;&gt;Node375889 -->
<g id="edge3" class="edge">
<title>Node375888&#45;&gt;Node375889</title>
<path fill="none" stroke="#191970" d="M428.8271,-413.551C454.6832,-416.0638 487.1344,-419.2177 515.1164,-421.9371"/>
<polygon fill="#191970" stroke="#191970" points="514.9112,-425.4336 525.2029,-422.9174 515.5884,-418.4664 514.9112,-425.4336"/>
</g>
<!-- Node375918 -->
<g id="node6" class="node">
<title>Node375918</title>
<g id="a_node6"><a xlink:href="quickjs_8c.html#a0c61bd5a64c743e81188bb528b78e715" target="_top" xlink:title="JS_DefinePropertyValueValue">
<polygon fill="none" stroke="#ff0000" points="503,-380.5 503,-399.5 652,-399.5 652,-380.5 503,-380.5"/>
<text text-anchor="middle" x="577.5" y="-387.5" font-family="Helvetica,sans-Serif" font-size="10.00" fill="#000000">JS_DefinePropertyValueValue</text>
</a>
</g>
</g>
<!-- Node375917&#45;&gt;Node375918 -->
<g id="edge5" class="edge">
<title>Node375917&#45;&gt;Node375918</title>
<path fill="none" stroke="#191970" d="M431.0806,-361.54C457.5741,-366.6896 490.4717,-373.084 518.3688,-378.5065"/>
<polygon fill="#191970" stroke="#191970" points="517.9151,-381.9837 528.3992,-380.4561 519.2508,-375.1123 517.9151,-381.9837"/>
</g>
<!-- Node376318 -->
<g id="node8" class="node">
<title>Node376318</title>
<g id="a_node8"><a xlink:href="quickjs_8h.html#a6acbc709e59969eac6775f9b253b438f" target="_top" xlink:title="JS_NewInt64">
<polygon fill="none" stroke="#ff0000" points="539.5,-342.5 539.5,-361.5 615.5,-361.5 615.5,-342.5 539.5,-342.5"/>
<text text-anchor="middle" x="577.5" y="-349.5" font-family="Helvetica,sans-Serif" font-size="10.00" fill="#000000">JS_NewInt64</text>
</a>
</g>
</g>
<!-- Node375917&#45;&gt;Node376318 -->
<g id="edge7" class="edge">
<title>Node375917&#45;&gt;Node376318</title>
<path fill="none" stroke="#191970" d="M456.747,-352C481.1277,-352 507.5326,-352 529.4154,-352"/>
<polygon fill="#191970" stroke="#191970" points="529.446,-355.5001 539.4459,-352 529.4459,-348.5001 529.446,-355.5001"/>
</g>
<!-- Node375918&#45;&gt;Node375942 -->
<g id="edge6" class="edge">
<title>Node375918&#45;&gt;Node375942</title>
<path fill="none" stroke="#191970" d="M626.5876,-380.4671C635.2719,-377.9484 644.0665,-374.8303 652,-371 673.6684,-360.5386 695.2024,-343.2752 709.5997,-330.4835"/>
<polygon fill="#191970" stroke="#191970" points="712.1682,-332.8781 717.199,-323.5538 707.4516,-327.7057 712.1682,-332.8781"/>
</g>
<!-- Node376193&#45;&gt;Node375942 -->
<g id="edge9" class="edge">
<title>Node376193&#45;&gt;Node375942</title>
<path fill="none" stroke="#191970" d="M613.6898,-285.1987C633.5337,-290.2427 658.3703,-296.5557 679.7295,-301.9848"/>
<polygon fill="#191970" stroke="#191970" points="679.0282,-305.4177 689.5822,-304.4891 680.7527,-298.6334 679.0282,-305.4177"/>
</g>
<!-- Node376191&#45;&gt;Node376193 -->
<g id="edge14" class="edge">
<title>Node376191&#45;&gt;Node376193</title>
<path fill="none" stroke="#191970" d="M431.0806,-247.54C461.8713,-253.5249 501.312,-261.1911 531.4999,-267.0588"/>
<polygon fill="#191970" stroke="#191970" points="530.8729,-270.5024 541.357,-268.9748 532.2085,-263.631 530.8729,-270.5024"/>
</g>
<!-- Node376191&#45;&gt;Node376190 -->
<g id="edge15" class="edge">
<title>Node376191&#45;&gt;Node376190</title>
<path fill="none" stroke="#191970" d="M467.1804,-234.0787C484.1464,-233.2976 501.626,-232.4929 517.5289,-231.7608"/>
<polygon fill="#191970" stroke="#191970" points="517.9021,-235.2474 527.7305,-231.2912 517.5801,-228.2548 517.9021,-235.2474"/>
</g>
<!-- Node376191&#45;&gt;Node376181 -->
<g id="edge16" class="edge">
<title>Node376191&#45;&gt;Node376181</title>
<path fill="none" stroke="#191970" d="M410.4274,-228.403C444.5495,-216.8835 501.8909,-197.5253 539.7138,-184.7565"/>
<polygon fill="#191970" stroke="#191970" points="541.0004,-188.0163 549.3555,-181.5015 538.7613,-181.384 541.0004,-188.0163"/>
</g>
<!-- Node376118&#45;&gt;Node375976 -->
<g id="edge21" class="edge">
<title>Node376118&#45;&gt;Node375976</title>
<path fill="none" stroke="#191970" d="M419.2322,-82.3815C448.9506,-79.4933 490.9728,-75.4093 524.2485,-72.1753"/>
<polygon fill="#191970" stroke="#191970" points="524.6569,-75.6522 534.2714,-71.2012 523.9797,-68.6851 524.6569,-75.6522"/>
</g>
</g>
</svg>
