<?xml version="1.0" encoding="UTF-8" standalone="no"?>
<!DOCTYPE svg PUBLIC "-//W3C//DTD SVG 1.1//EN"
 "http://www.w3.org/Graphics/SVG/1.1/DTD/svg11.dtd">
<!-- Generated by graphviz version 2.40.1 (20161225.0304)
 -->
<!-- Title: JS_ToPrimitive Pages: 1 -->
<!--zoomable 838 -->
<svg id="main" version="1.1" xmlns="http://www.w3.org/2000/svg" xmlns:xlink="http://www.w3.org/1999/xlink" xml:space="preserve" onload="init(evt)">
<style type="text/css"><![CDATA[
.edge:hover path { stroke: red; }
.edge:hover polygon { stroke: red; fill: red; }
]]></style>
<script type="text/javascript"><![CDATA[
var edges = document.getElementsByTagName('g');
if (edges && edges.length) {
  for (var i=0;i<edges.length;i++) {
    if (edges[i].id.substr(0,4)=='edge') {
      edges[i].setAttribute('class','edge');
    }
  }
}
]]></script>
        <defs>
                <circle id="rim" cx="0" cy="0" r="7"/>
                <circle id="rim2" cx="0" cy="0" r="3.5"/>
                <g id="zoomPlus">
                        <use xlink:href="#rim" fill="#404040">
                                <set attributeName="fill" to="#808080" begin="zoomplus.mouseover" end="zoomplus.mouseout"/>
                        </use>
                        <path d="M-4,0h8M0,-4v8" fill="none" stroke="white" stroke-width="1.5" pointer-events="none"/>
                </g>
                <g id="zoomMin">
                        <use xlink:href="#rim" fill="#404040">
                                <set attributeName="fill" to="#808080" begin="zoomminus.mouseover" end="zoomminus.mouseout"/>
                        </use>
                        <path d="M-4,0h8" fill="none" stroke="white" stroke-width="1.5" pointer-events="none"/>
                </g>
                <g id="dirArrow">
                        <path fill="none" stroke="white" stroke-width="1.5" d="M0,-3.0v7 M-2.5,-0.5L0,-3.0L2.5,-0.5"/>
                </g>
               <g id="resetDef">
                       <use xlink:href="#rim2" fill="#404040">
                               <set attributeName="fill" to="#808080" begin="reset.mouseover" end="reset.mouseout"/>
                       </use>
               </g>
        </defs>

<script type="text/javascript">
var viewWidth = 735;
var viewHeight = 838;
var sectionId = 'dynsection-660';
</script>
<script xlink:href="svgpan.js"/>
<svg id="graph" class="graph">
<g id="viewport">
<title>JS_ToPrimitive</title>
<!-- Node226872 -->
<g id="node1" class="node">
<title>Node226872</title>
<polygon fill="#bfbfbf" stroke="#000000" points="0,-665.5 0,-684.5 83,-684.5 83,-665.5 0,-665.5"/>
<text text-anchor="middle" x="41.5" y="-672.5" font-family="Helvetica,sans-Serif" font-size="10.00" fill="#000000">JS_ToPrimitive</text>
</g>
<!-- Node226873 -->
<g id="node2" class="node">
<title>Node226873</title>
<g id="a_node2"><a xlink:href="quickjs_8c.html#a7e4e02ec8849f3beaf28dc0613bb4016" target="_top" xlink:title="js_date_constructor">
<polygon fill="none" stroke="#000000" points="137,-787.5 137,-806.5 239,-806.5 239,-787.5 137,-787.5"/>
<text text-anchor="middle" x="188" y="-794.5" font-family="Helvetica,sans-Serif" font-size="10.00" fill="#000000">js_date_constructor</text>
</a>
</g>
</g>
<!-- Node226872&#45;&gt;Node226873 -->
<g id="edge1" class="edge">
<title>Node226872&#45;&gt;Node226873</title>
<path fill="none" stroke="#191970" d="M60.9219,-691.1739C91.9076,-716.9777 151.5746,-766.6663 176.5578,-787.4713"/>
<polygon fill="#191970" stroke="#191970" points="62.9197,-688.2829 52.9956,-684.5731 58.4402,-693.662 62.9197,-688.2829"/>
</g>
<!-- Node226881 -->
<g id="node5" class="node">
<title>Node226881</title>
<g id="a_node5"><a xlink:href="quickjs_8c.html#a4da0393f32562bb05dff7ef63fff68f9" target="_top" xlink:title="js_date_Symbol_toPrimitive">
<polygon fill="none" stroke="#000000" points="119,-684.5 119,-703.5 257,-703.5 257,-684.5 119,-684.5"/>
<text text-anchor="middle" x="188" y="-691.5" font-family="Helvetica,sans-Serif" font-size="10.00" fill="#000000">js_date_Symbol_toPrimitive</text>
</a>
</g>
</g>
<!-- Node226872&#45;&gt;Node226881 -->
<g id="edge4" class="edge">
<title>Node226872&#45;&gt;Node226881</title>
<path fill="none" stroke="#191970" d="M93.0441,-681.6849C101.4009,-682.7687 110.1721,-683.9063 118.8657,-685.0338"/>
<polygon fill="#191970" stroke="#191970" points="93.4563,-678.2091 83.0892,-680.3938 92.5559,-685.151 93.4563,-678.2091"/>
</g>
<!-- Node226882 -->
<g id="node6" class="node">
<title>Node226882</title>
<g id="a_node6"><a xlink:href="quickjs_8c.html#a6afb985e2e6663773d15dc05b286922a" target="_top" xlink:title="js_date_toJSON">
<polygon fill="none" stroke="#000000" points="143.5,-646.5 143.5,-665.5 232.5,-665.5 232.5,-646.5 143.5,-646.5"/>
<text text-anchor="middle" x="188" y="-653.5" font-family="Helvetica,sans-Serif" font-size="10.00" fill="#000000">js_date_toJSON</text>
</a>
</g>
</g>
<!-- Node226872&#45;&gt;Node226882 -->
<g id="edge5" class="edge">
<title>Node226872&#45;&gt;Node226882</title>
<path fill="none" stroke="#191970" d="M93.09,-668.3091C109.5381,-666.1759 127.5873,-663.8351 143.4889,-661.7728"/>
<polygon fill="#191970" stroke="#191970" points="92.5559,-664.849 83.0892,-669.6062 93.4563,-671.7909 92.5559,-664.849"/>
</g>
<!-- Node226883 -->
<g id="node7" class="node">
<title>Node226883</title>
<g id="a_node7"><a xlink:href="quickjs_8c.html#a46d6ebdd8c73102fd9e02a89b1f1d09a" target="_top" xlink:title="JS_ToStringInternal">
<polygon fill="none" stroke="#000000" points="136.5,-460.5 136.5,-479.5 239.5,-479.5 239.5,-460.5 136.5,-460.5"/>
<text text-anchor="middle" x="188" y="-467.5" font-family="Helvetica,sans-Serif" font-size="10.00" fill="#000000">JS_ToStringInternal</text>
</a>
</g>
</g>
<!-- Node226872&#45;&gt;Node226883 -->
<g id="edge6" class="edge">
<title>Node226872&#45;&gt;Node226883</title>
<path fill="none" stroke="#191970" d="M54.19,-657.2427C84.0303,-615.4867 157.8725,-512.1579 180.9749,-479.8304"/>
<polygon fill="#191970" stroke="#191970" points="51.3362,-655.2164 48.3695,-665.3874 57.0314,-659.2864 51.3362,-655.2164"/>
</g>
<!-- Node226874 -->
<g id="node3" class="node">
<title>Node226874</title>
<g id="a_node3"><a xlink:href="quickjs_8c.html#a8ecbf5799518b7bfc3fefd47c7a0dd4e" target="_top" xlink:title="JS_AddIntrinsicDate">
<polygon fill="none" stroke="#000000" points="293,-798.5 293,-817.5 400,-817.5 400,-798.5 293,-798.5"/>
<text text-anchor="middle" x="346.5" y="-805.5" font-family="Helvetica,sans-Serif" font-size="10.00" fill="#000000">JS_AddIntrinsicDate</text>
</a>
</g>
</g>
<!-- Node226873&#45;&gt;Node226874 -->
<g id="edge2" class="edge">
<title>Node226873&#45;&gt;Node226874</title>
<path fill="none" stroke="#191970" d="M249.3022,-801.2544C263.6602,-802.2509 278.8478,-803.3049 292.8426,-804.2761"/>
<polygon fill="#191970" stroke="#191970" points="249.2412,-797.7418 239.0229,-800.541 248.7565,-804.7251 249.2412,-797.7418"/>
</g>
<!-- Node226875 -->
<g id="node4" class="node">
<title>Node226875</title>
<g id="a_node4"><a xlink:href="quickjs_8c.html#ad8aedb643b8753b7a15f6cb2df61945e" target="_top" xlink:title="JS_NewContext">
<polygon fill="none" stroke="#ff0000" points="457,-810.5 457,-829.5 546,-829.5 546,-810.5 457,-810.5"/>
<text text-anchor="middle" x="501.5" y="-817.5" font-family="Helvetica,sans-Serif" font-size="10.00" fill="#000000">JS_NewContext</text>
</a>
</g>
</g>
<!-- Node226874&#45;&gt;Node226875 -->
<g id="edge3" class="edge">
<title>Node226874&#45;&gt;Node226875</title>
<path fill="none" stroke="#191970" d="M410.3863,-812.946C425.9793,-814.1532 442.3314,-815.4192 456.8098,-816.5401"/>
<polygon fill="#191970" stroke="#191970" points="410.5168,-809.4458 400.2765,-812.1633 409.9764,-816.4249 410.5168,-809.4458"/>
</g>
<!-- Node226883&#45;&gt;Node226883 -->
<g id="edge7" class="edge">
<title>Node226883&#45;&gt;Node226883</title>
<path fill="none" stroke="#191970" d="M160.7475,-488.6539C161.8867,-493.9368 170.9708,-498 188,-498 213.9492,-498 221.4502,-488.5653 210.5028,-479.7571"/>
<polygon fill="#191970" stroke="#191970" points="163.8752,-490.227 165.4972,-479.7571 157.7001,-486.9303 163.8752,-490.227"/>
</g>
<!-- Node226884 -->
<g id="node8" class="node">
<title>Node226884</title>
<g id="a_node8"><a xlink:href="quickjs_8c.html#a7bcb8e1a20cbc8374a5f9ba4a2088cec" target="_top" xlink:title="JS_ToString">
<polygon fill="none" stroke="#ff0000" points="311,-399.5 311,-418.5 382,-418.5 382,-399.5 311,-399.5"/>
<text text-anchor="middle" x="346.5" y="-406.5" font-family="Helvetica,sans-Serif" font-size="10.00" fill="#000000">JS_ToString</text>
</a>
</g>
</g>
<!-- Node226883&#45;&gt;Node226884 -->
<g id="edge8" class="edge">
<title>Node226883&#45;&gt;Node226884</title>
<path fill="none" stroke="#191970" d="M222.3822,-456.7677C252.2991,-445.254 294.9382,-428.844 321.6473,-418.5648"/>
<polygon fill="#191970" stroke="#191970" points="220.8412,-453.6105 212.7656,-460.4688 223.3555,-460.1434 220.8412,-453.6105"/>
</g>
<!-- Node227472 -->
<g id="node30" class="node">
<title>Node227472</title>
<g id="a_node30"><a xlink:href="quickjs_8c.html#a35fd5681625c6d902357336edb6801e5" target="_top" xlink:title="JS_ToPropertyKey">
<polygon fill="none" stroke="#ff0000" points="297,-460.5 297,-479.5 396,-479.5 396,-460.5 297,-460.5"/>
<text text-anchor="middle" x="346.5" y="-467.5" font-family="Helvetica,sans-Serif" font-size="10.00" fill="#000000">JS_ToPropertyKey</text>
</a>
</g>
</g>
<!-- Node226883&#45;&gt;Node227472 -->
<g id="edge35" class="edge">
<title>Node226883&#45;&gt;Node227472</title>
<path fill="none" stroke="#191970" d="M249.9671,-470C265.5342,-470 282.0365,-470 296.91,-470"/>
<polygon fill="#191970" stroke="#191970" points="249.8989,-466.5001 239.8988,-470 249.8988,-473.5001 249.8989,-466.5001"/>
</g>
<!-- Node226885 -->
<g id="node9" class="node">
<title>Node226885</title>
<g id="a_node9"><a xlink:href="quickjs_8c.html#ab4e100a9cde5f7ec87c92f5e766dbbab" target="_top" xlink:title="JS_AtomIsNumericIndex1">
<polygon fill="none" stroke="#ff0000" points="436,-658.5 436,-677.5 567,-677.5 567,-658.5 436,-658.5"/>
<text text-anchor="middle" x="501.5" y="-665.5" font-family="Helvetica,sans-Serif" font-size="10.00" fill="#000000">JS_AtomIsNumericIndex1</text>
</a>
</g>
</g>
<!-- Node226884&#45;&gt;Node226885 -->
<g id="edge9" class="edge">
<title>Node226884&#45;&gt;Node226885</title>
<path fill="none" stroke="#191970" d="M373.2179,-424.1766C383.1114,-431.1121 393.4925,-440.2063 400,-451 446.1809,-527.5984 376.0766,-582.5983 436,-649 439.4903,-652.8677 443.7158,-655.9671 448.3206,-658.4481"/>
<polygon fill="#191970" stroke="#191970" points="375.0446,-421.1893 364.7588,-418.649 371.2154,-427.0491 375.0446,-421.1893"/>
</g>
<!-- Node227417 -->
<g id="node10" class="node">
<title>Node227417</title>
<g id="a_node10"><a xlink:href="quickjs_8c.html#af3ad59b9801a4ec68f41a50ab5762ccb" target="_top" xlink:title="string_buffer_concat\l_value">
<polygon fill="none" stroke="#ff0000" points="449,-609 449,-639 554,-639 554,-609 449,-609"/>
<text text-anchor="start" x="457" y="-627" font-family="Helvetica,sans-Serif" font-size="10.00" fill="#000000">string_buffer_concat</text>
<text text-anchor="middle" x="501.5" y="-616" font-family="Helvetica,sans-Serif" font-size="10.00" fill="#000000">_value</text>
</a>
</g>
</g>
<!-- Node226884&#45;&gt;Node227417 -->
<g id="edge10" class="edge">
<title>Node226884&#45;&gt;Node227417</title>
<path fill="none" stroke="#191970" d="M372.6834,-424.2252C382.5935,-431.2092 393.1288,-440.3253 400,-451 436.6404,-507.9227 391.2406,-548.213 436,-599 439.6215,-603.1092 443.9937,-606.5462 448.7407,-609.4204"/>
<polygon fill="#191970" stroke="#191970" points="374.5166,-421.2415 364.2433,-418.6511 370.6589,-427.0826 374.5166,-421.2415"/>
</g>
<!-- Node227418 -->
<g id="node11" class="node">
<title>Node227418</title>
<g id="a_node11"><a xlink:href="quickjs_8c.html#af49e67b73f845dc1f9c3ee648dd9f95c" target="_top" xlink:title="JS_ToCStringLen2">
<polygon fill="none" stroke="#ff0000" points="452,-570.5 452,-589.5 551,-589.5 551,-570.5 452,-570.5"/>
<text text-anchor="middle" x="501.5" y="-577.5" font-family="Helvetica,sans-Serif" font-size="10.00" fill="#000000">JS_ToCStringLen2</text>
</a>
</g>
</g>
<!-- Node226884&#45;&gt;Node227418 -->
<g id="edge11" class="edge">
<title>Node226884&#45;&gt;Node227418</title>
<path fill="none" stroke="#191970" d="M371.7728,-424.2521C381.7283,-431.3269 392.541,-440.5025 400,-451 428.5747,-491.2152 401.4829,-520.753 436,-556 442.1857,-562.3165 450.1697,-566.9822 458.4235,-570.4249"/>
<polygon fill="#191970" stroke="#191970" points="373.6033,-421.2654 363.3505,-418.5951 369.7003,-427.0763 373.6033,-421.2654"/>
</g>
<!-- Node227450 -->
<g id="node12" class="node">
<title>Node227450</title>
<g id="a_node12"><a xlink:href="quickjs_8c.html#a38cad713b74c445668210ea8614bfb65" target="_top" xlink:title="JS_ToStringFree">
<polygon fill="none" stroke="#ff0000" points="456.5,-494.5 456.5,-513.5 546.5,-513.5 546.5,-494.5 456.5,-494.5"/>
<text text-anchor="middle" x="501.5" y="-501.5" font-family="Helvetica,sans-Serif" font-size="10.00" fill="#000000">JS_ToStringFree</text>
</a>
</g>
</g>
<!-- Node226884&#45;&gt;Node227450 -->
<g id="edge12" class="edge">
<title>Node226884&#45;&gt;Node227450</title>
<path fill="none" stroke="#191970" d="M366.9825,-424.9824C376.966,-432.7973 389.1346,-442.3593 400,-451 416.0806,-463.7881 418.1159,-469.8865 436,-480 446.2257,-485.7827 458.1061,-490.6289 468.9191,-494.418"/>
<polygon fill="#191970" stroke="#191970" points="368.8931,-422.0335 358.8592,-418.6316 364.5816,-427.5482 368.8931,-422.0335"/>
</g>
<!-- Node226959 -->
<g id="node13" class="node">
<title>Node226959</title>
<g id="a_node13"><a xlink:href="quickjs_8c.html#aed1bf9ce4b9e3a82388679dd6ec7635b" target="_top" xlink:title="js_string_replace">
<polygon fill="none" stroke="#000000" points="620,-498.5 620,-517.5 710,-517.5 710,-498.5 620,-498.5"/>
<text text-anchor="middle" x="665" y="-505.5" font-family="Helvetica,sans-Serif" font-size="10.00" fill="#000000">js_string_replace</text>
</a>
</g>
</g>
<!-- Node226884&#45;&gt;Node226959 -->
<g id="edge27" class="edge">
<title>Node226884&#45;&gt;Node226959</title>
<path fill="none" stroke="#191970" d="M370.4708,-424.3121C380.4787,-431.5375 391.685,-440.8105 400,-451 422.6198,-478.719 405.5662,-504.1909 436,-523 501.4111,-563.4263 598.3523,-534.3717 642.1041,-517.6231"/>
<polygon fill="#191970" stroke="#191970" points="372.3037,-421.3243 362.0872,-418.5181 368.3238,-427.0829 372.3037,-421.3243"/>
</g>
<!-- Node227457 -->
<g id="node14" class="node">
<title>Node227457</title>
<g id="a_node14"><a xlink:href="quickjs_8c.html#a4d1d0760c9f9efcb8c0a8db414e46c8a" target="_top" xlink:title="JS_ToStringCheckObject">
<polygon fill="none" stroke="#ff0000" points="437.5,-380.5 437.5,-399.5 565.5,-399.5 565.5,-380.5 437.5,-380.5"/>
<text text-anchor="middle" x="501.5" y="-387.5" font-family="Helvetica,sans-Serif" font-size="10.00" fill="#000000">JS_ToStringCheckObject</text>
</a>
</g>
</g>
<!-- Node226884&#45;&gt;Node227457 -->
<g id="edge14" class="edge">
<title>Node226884&#45;&gt;Node227457</title>
<path fill="none" stroke="#191970" d="M392.0736,-403.4136C406.2957,-401.6702 422.256,-399.7138 437.4977,-397.8454"/>
<polygon fill="#191970" stroke="#191970" points="391.56,-399.9502 382.0601,-404.641 392.4117,-406.8982 391.56,-399.9502"/>
</g>
<!-- Node227148 -->
<g id="node15" class="node">
<title>Node227148</title>
<g id="a_node15"><a xlink:href="quickjs_8c.html#a7e93a76184ec9bc88adb834f83f679d8" target="_top" xlink:title="js_string_indexOf">
<polygon fill="none" stroke="#000000" points="619,-451.5 619,-470.5 711,-470.5 711,-451.5 619,-451.5"/>
<text text-anchor="middle" x="665" y="-458.5" font-family="Helvetica,sans-Serif" font-size="10.00" fill="#000000">js_string_indexOf</text>
</a>
</g>
</g>
<!-- Node226884&#45;&gt;Node227148 -->
<g id="edge24" class="edge">
<title>Node226884&#45;&gt;Node227148</title>
<path fill="none" stroke="#191970" d="M392.1078,-416.4462C452.4508,-426.2981 558.2386,-443.5696 618.8516,-453.4656"/>
<polygon fill="#191970" stroke="#191970" points="392.5422,-412.9708 382.1089,-414.8137 391.4142,-419.8794 392.5422,-412.9708"/>
</g>
<!-- Node227221 -->
<g id="node16" class="node">
<title>Node227221</title>
<g id="a_node16"><a xlink:href="quickjs_8c.html#a507292e60d4d33781303b635d3f42fd1" target="_top" xlink:title="js_string_includes">
<polygon fill="none" stroke="#000000" points="617.5,-394.5 617.5,-413.5 712.5,-413.5 712.5,-394.5 617.5,-394.5"/>
<text text-anchor="middle" x="665" y="-401.5" font-family="Helvetica,sans-Serif" font-size="10.00" fill="#000000">js_string_includes</text>
</a>
</g>
</g>
<!-- Node226884&#45;&gt;Node227221 -->
<g id="edge25" class="edge">
<title>Node226884&#45;&gt;Node227221</title>
<path fill="none" stroke="#191970" d="M392.2482,-409.6792C436.8501,-410.1809 506.5943,-410.54 567,-409 583.3493,-408.5832 601.2178,-407.7759 617.1671,-406.9295"/>
<polygon fill="#191970" stroke="#191970" points="392.0649,-406.1768 382.0237,-409.5566 391.981,-413.1763 392.0649,-406.1768"/>
</g>
<!-- Node227218 -->
<g id="node17" class="node">
<title>Node227218</title>
<g id="a_node17"><a xlink:href="quickjs_8c.html#afe038ef522a8c7c8862cfe18a0c0a785" target="_top" xlink:title="js_string_pad">
<polygon fill="none" stroke="#000000" points="628,-347.5 628,-366.5 702,-366.5 702,-347.5 628,-347.5"/>
<text text-anchor="middle" x="665" y="-354.5" font-family="Helvetica,sans-Serif" font-size="10.00" fill="#000000">js_string_pad</text>
</a>
</g>
</g>
<!-- Node226884&#45;&gt;Node227218 -->
<g id="edge29" class="edge">
<title>Node226884&#45;&gt;Node227218</title>
<path fill="none" stroke="#191970" d="M373.0435,-394.8976C390.4376,-386.3774 413.9565,-376.1913 436,-371 502.2976,-355.3868 582.2015,-354.3853 627.9537,-355.4415"/>
<polygon fill="#191970" stroke="#191970" points="371.419,-391.7968 364.0584,-399.4174 374.5647,-398.0502 371.419,-391.7968"/>
</g>
<!-- Node227462 -->
<g id="node18" class="node">
<title>Node227462</title>
<g id="a_node18"><a xlink:href="quickjs_8c.html#a96177f318d170980abe8c9c41cdb52d5" target="_top" xlink:title="js_string_localeCompare">
<polygon fill="none" stroke="#000000" points="603,-309.5 603,-328.5 727,-328.5 727,-309.5 603,-309.5"/>
<text text-anchor="middle" x="665" y="-316.5" font-family="Helvetica,sans-Serif" font-size="10.00" fill="#000000">js_string_localeCompare</text>
</a>
</g>
</g>
<!-- Node226884&#45;&gt;Node227462 -->
<g id="edge30" class="edge">
<title>Node226884&#45;&gt;Node227462</title>
<path fill="none" stroke="#191970" d="M365.8993,-392.8168C383.1697,-379.3335 409.7031,-360.8058 436,-351 490.1632,-330.8031 555.8498,-323.2027 602.9584,-320.4182"/>
<polygon fill="#191970" stroke="#191970" points="363.3789,-390.3512 357.7626,-399.3349 367.7554,-395.8144 363.3789,-390.3512"/>
</g>
<!-- Node226949 -->
<g id="node19" class="node">
<title>Node226949</title>
<g id="a_node19"><a xlink:href="quickjs_8c.html#a6357b7fdae71c70c140e78e6c20cb5c2" target="_top" xlink:title="js_dynamic_import_job">
<polygon fill="none" stroke="#ff0000" points="443.5,-266.5 443.5,-285.5 559.5,-285.5 559.5,-266.5 443.5,-266.5"/>
<text text-anchor="middle" x="501.5" y="-273.5" font-family="Helvetica,sans-Serif" font-size="10.00" fill="#000000">js_dynamic_import_job</text>
</a>
</g>
</g>
<!-- Node226884&#45;&gt;Node226949 -->
<g id="edge19" class="edge">
<title>Node226884&#45;&gt;Node226949</title>
<path fill="none" stroke="#191970" d="M357.2406,-390.5773C372.0971,-366.584 401.0773,-324.788 436,-300 444.5921,-293.9014 454.909,-289.1761 464.7862,-285.595"/>
<polygon fill="#191970" stroke="#191970" points="354.0932,-389.0189 351.9257,-399.3897 360.0874,-392.6342 354.0932,-389.0189"/>
</g>
<!-- Node226916 -->
<g id="node20" class="node">
<title>Node226916</title>
<g id="a_node20"><a xlink:href="quickjs_8c.html#ad25358fc5ae69ab218abde24d52b7767" target="_top" xlink:title="js_error_constructor">
<polygon fill="none" stroke="#ff0000" points="450,-228.5 450,-247.5 553,-247.5 553,-228.5 450,-228.5"/>
<text text-anchor="middle" x="501.5" y="-235.5" font-family="Helvetica,sans-Serif" font-size="10.00" fill="#000000">js_error_constructor</text>
</a>
</g>
</g>
<!-- Node226884&#45;&gt;Node226916 -->
<g id="edge20" class="edge">
<title>Node226884&#45;&gt;Node226916</title>
<path fill="none" stroke="#191970" d="M352.5064,-389.8832C363.6439,-357.5811 390.5901,-292.2781 436,-257 440.9556,-253.1501 446.6668,-250.0799 452.6082,-247.6316"/>
<polygon fill="#191970" stroke="#191970" points="349.1491,-388.8883 349.3316,-399.4816 355.7949,-391.0866 349.1491,-388.8883"/>
</g>
<!-- Node227067 -->
<g id="node21" class="node">
<title>Node227067</title>
<g id="a_node21"><a xlink:href="quickjs_8c.html#a4f8035820871c730dd7e98d46e137bc1" target="_top" xlink:title="js_array_join">
<polygon fill="none" stroke="#000000" points="466,-190.5 466,-209.5 537,-209.5 537,-190.5 466,-190.5"/>
<text text-anchor="middle" x="501.5" y="-197.5" font-family="Helvetica,sans-Serif" font-size="10.00" fill="#000000">js_array_join</text>
</a>
</g>
</g>
<!-- Node226884&#45;&gt;Node227067 -->
<g id="edge21" class="edge">
<title>Node226884&#45;&gt;Node227067</title>
<path fill="none" stroke="#191970" d="M350.1392,-389.5053C358.3507,-351.0367 381.9776,-265.1014 436,-219 444.3761,-211.852 455.3107,-207.39 465.8394,-204.6058"/>
<polygon fill="#191970" stroke="#191970" points="346.6845,-388.9319 348.1437,-399.4258 353.5471,-390.3124 346.6845,-388.9319"/>
</g>
<!-- Node227168 -->
<g id="node22" class="node">
<title>Node227168</title>
<g id="a_node22"><a xlink:href="quickjs_8c.html#a341f4d5925a607eeaad8d3cbb03e9de1" target="_top" xlink:title="js_array_cmp_generic">
<polygon fill="none" stroke="#ff0000" points="445.5,-152.5 445.5,-171.5 557.5,-171.5 557.5,-152.5 445.5,-152.5"/>
<text text-anchor="middle" x="501.5" y="-159.5" font-family="Helvetica,sans-Serif" font-size="10.00" fill="#000000">js_array_cmp_generic</text>
</a>
</g>
</g>
<!-- Node226884&#45;&gt;Node227168 -->
<g id="edge22" class="edge">
<title>Node226884&#45;&gt;Node227168</title>
<path fill="none" stroke="#191970" d="M348.4855,-389.0212C353.9574,-344.8335 373.2865,-238.2091 436,-181 440.2862,-177.09 445.3313,-173.9806 450.6878,-171.5088"/>
<polygon fill="#191970" stroke="#191970" points="344.9953,-388.7382 347.352,-399.0675 351.9512,-389.523 344.9953,-388.7382"/>
</g>
<!-- Node227261 -->
<g id="node23" class="node">
<title>Node227261</title>
<g id="a_node23"><a xlink:href="quickjs_8c.html#ab834bcc157945cd4dd8873c0d9d70c6a" target="_top" xlink:title="js_string_constructor">
<polygon fill="none" stroke="#ff0000" points="448,-114.5 448,-133.5 555,-133.5 555,-114.5 448,-114.5"/>
<text text-anchor="middle" x="501.5" y="-121.5" font-family="Helvetica,sans-Serif" font-size="10.00" fill="#000000">js_string_constructor</text>
</a>
</g>
</g>
<!-- Node226884&#45;&gt;Node227261 -->
<g id="edge23" class="edge">
<title>Node226884&#45;&gt;Node227261</title>
<path fill="none" stroke="#191970" d="M350.6284,-389.4051C362.6542,-334.0673 399.1449,-178.3303 436,-143 440.0172,-139.149 444.7672,-136.0716 449.8454,-133.6135"/>
<polygon fill="#191970" stroke="#191970" points="347.1724,-388.8291 348.4991,-399.3405 354.017,-390.296 347.1724,-388.8291"/>
</g>
<!-- Node226990 -->
<g id="node24" class="node">
<title>Node226990</title>
<g id="a_node24"><a xlink:href="quickjs_8c.html#a48c74f10715547bf679361ae42e2a97f" target="_top" xlink:title="js_string_match">
<polygon fill="none" stroke="#000000" points="458.5,-76.5 458.5,-95.5 544.5,-95.5 544.5,-76.5 458.5,-76.5"/>
<text text-anchor="middle" x="501.5" y="-83.5" font-family="Helvetica,sans-Serif" font-size="10.00" fill="#000000">js_string_match</text>
</a>
</g>
</g>
<!-- Node226884&#45;&gt;Node226990 -->
<g id="edge26" class="edge">
<title>Node226884&#45;&gt;Node226990</title>
<path fill="none" stroke="#191970" d="M349.8139,-389.066C360.3158,-328.1695 394.6187,-146.2165 436,-105 442.124,-98.9004 450.0815,-94.7345 458.3288,-91.8955"/>
<polygon fill="#191970" stroke="#191970" points="346.3062,-388.817 348.0845,-399.2616 353.2077,-389.9878 346.3062,-388.817"/>
</g>
<!-- Node227182 -->
<g id="node25" class="node">
<title>Node227182</title>
<g id="a_node25"><a xlink:href="quickjs_8c.html#a99f359a90bf2aa7902ec554d726d4fda" target="_top" xlink:title="js_string_split">
<polygon fill="none" stroke="#000000" points="463,-38.5 463,-57.5 540,-57.5 540,-38.5 463,-38.5"/>
<text text-anchor="middle" x="501.5" y="-45.5" font-family="Helvetica,sans-Serif" font-size="10.00" fill="#000000">js_string_split</text>
</a>
</g>
</g>
<!-- Node226884&#45;&gt;Node227182 -->
<g id="edge28" class="edge">
<title>Node226884&#45;&gt;Node227182</title>
<path fill="none" stroke="#191970" d="M349.0986,-389.2087C358.1016,-323.532 389.9476,-114.2832 436,-67 443.1873,-59.6206 453.0543,-55.0626 462.9496,-52.2604"/>
<polygon fill="#191970" stroke="#191970" points="345.5895,-389.0427 347.7258,-399.4199 352.5271,-389.9754 345.5895,-389.0427"/>
</g>
<!-- Node227464 -->
<g id="node26" class="node">
<title>Node227464</title>
<g id="a_node26"><a xlink:href="quickjs_8c.html#a79e4344ecf9b38111a8100787d977fb2" target="_top" xlink:title="JS_ToUTF32String">
<polygon fill="none" stroke="#ff0000" points="451,-.5 451,-19.5 552,-19.5 552,-.5 451,-.5"/>
<text text-anchor="middle" x="501.5" y="-7.5" font-family="Helvetica,sans-Serif" font-size="10.00" fill="#000000">JS_ToUTF32String</text>
</a>
</g>
</g>
<!-- Node226884&#45;&gt;Node227464 -->
<g id="edge31" class="edge">
<title>Node226884&#45;&gt;Node227464</title>
<path fill="none" stroke="#191970" d="M348.5296,-389.3276C356.1515,-319.1456 385.2509,-82.4065 436,-29 440.1596,-24.6226 445.2614,-21.2352 450.765,-18.6172"/>
<polygon fill="#191970" stroke="#191970" points="345.0314,-389.1262 347.4563,-399.4398 351.9923,-389.8651 345.0314,-389.1262"/>
</g>
<!-- Node227264 -->
<g id="node27" class="node">
<title>Node227264</title>
<g id="a_node27"><a xlink:href="quickjs_8c.html#a233052710c228313122c39c231a23ddf" target="_top" xlink:title="js_regexp_constructor">
<polygon fill="none" stroke="#ff0000" points="445,-772.5 445,-791.5 558,-791.5 558,-772.5 445,-772.5"/>
<text text-anchor="middle" x="501.5" y="-779.5" font-family="Helvetica,sans-Serif" font-size="10.00" fill="#000000">js_regexp_constructor</text>
</a>
</g>
</g>
<!-- Node226884&#45;&gt;Node227264 -->
<g id="edge32" class="edge">
<title>Node226884&#45;&gt;Node227264</title>
<path fill="none" stroke="#191970" d="M373.7952,-424.1173C383.6736,-431.0046 393.8911,-440.0803 400,-451 468.1501,-572.8195 345.8973,-656.3888 436,-763 439.21,-766.7981 443.1298,-769.8614 447.44,-772.3288"/>
<polygon fill="#191970" stroke="#191970" points="375.6121,-421.1242 365.3134,-418.6367 371.813,-427.0036 375.6121,-421.1242"/>
</g>
<!-- Node227020 -->
<g id="node28" class="node">
<title>Node227020</title>
<g id="a_node28"><a xlink:href="quickjs_8c.html#af55de7fe1d3513a7230dfbfc1cbeec62" target="_top" xlink:title="js_regexp_compile">
<polygon fill="none" stroke="#000000" points="452.5,-734.5 452.5,-753.5 550.5,-753.5 550.5,-734.5 452.5,-734.5"/>
<text text-anchor="middle" x="501.5" y="-741.5" font-family="Helvetica,sans-Serif" font-size="10.00" fill="#000000">js_regexp_compile</text>
</a>
</g>
</g>
<!-- Node226884&#45;&gt;Node227020 -->
<g id="edge33" class="edge">
<title>Node226884&#45;&gt;Node227020</title>
<path fill="none" stroke="#191970" d="M373.4908,-424.0166C383.4234,-430.9292 393.76,-440.0494 400,-451 460.8092,-557.7149 355.9805,-631.8189 436,-725 440.3969,-730.1201 446.083,-733.9021 452.2663,-736.6881"/>
<polygon fill="#191970" stroke="#191970" points="375.2786,-421.0048 364.9793,-418.5197 371.4809,-426.8851 375.2786,-421.0048"/>
</g>
<!-- Node227021 -->
<g id="node29" class="node">
<title>Node227021</title>
<g id="a_node29"><a xlink:href="quickjs_8c.html#a9eb2d90f27f684820f9de13189502b7c" target="_top" xlink:title="js_regexp_exec">
<polygon fill="none" stroke="#ff0000" points="459,-696.5 459,-715.5 544,-715.5 544,-696.5 459,-696.5"/>
<text text-anchor="middle" x="501.5" y="-703.5" font-family="Helvetica,sans-Serif" font-size="10.00" fill="#000000">js_regexp_exec</text>
</a>
</g>
</g>
<!-- Node226884&#45;&gt;Node227021 -->
<g id="edge34" class="edge">
<title>Node226884&#45;&gt;Node227021</title>
<path fill="none" stroke="#191970" d="M373.3753,-424.0832C383.2914,-431.0053 393.6468,-440.1147 400,-451 453.4832,-542.6364 366.0441,-607.2263 436,-687 441.933,-693.7657 450.1161,-698.1888 458.6905,-701.064"/>
<polygon fill="#191970" stroke="#191970" points="375.1796,-421.0817 364.886,-418.5735 371.3688,-426.9535 375.1796,-421.0817"/>
</g>
<!-- Node227450&#45;&gt;Node226959 -->
<g id="edge13" class="edge">
<title>Node227450&#45;&gt;Node226959</title>
<path fill="none" stroke="#191970" d="M556.7581,-505.3519C577.2582,-505.8534 600.2502,-506.4159 619.7538,-506.8931"/>
<polygon fill="#191970" stroke="#191970" points="556.6925,-501.8493 546.6099,-505.1036 556.5213,-508.8472 556.6925,-501.8493"/>
</g>
<!-- Node227457&#45;&gt;Node227148 -->
<g id="edge15" class="edge">
<title>Node227457&#45;&gt;Node227148</title>
<path fill="none" stroke="#191970" d="M532.9855,-403.6726C565.2952,-417.7031 614.724,-439.1676 643.0385,-451.4632"/>
<polygon fill="#191970" stroke="#191970" points="534.117,-400.3482 523.5503,-399.5754 531.3287,-406.769 534.117,-400.3482"/>
</g>
<!-- Node227457&#45;&gt;Node227221 -->
<g id="edge16" class="edge">
<title>Node227457&#45;&gt;Node227221</title>
<path fill="none" stroke="#191970" d="M575.8687,-396.368C590.0078,-397.5786 604.4437,-398.8148 617.4662,-399.9298"/>
<polygon fill="#191970" stroke="#191970" points="575.9124,-392.859 565.6503,-395.493 575.3152,-399.8335 575.9124,-392.859"/>
</g>
<!-- Node227457&#45;&gt;Node227218 -->
<g id="edge17" class="edge">
<title>Node227457&#45;&gt;Node227218</title>
<path fill="none" stroke="#191970" d="M558.7686,-378.4412C581.7233,-373.8081 607.5148,-368.6025 627.936,-364.4808"/>
<polygon fill="#191970" stroke="#191970" points="557.9008,-375.0457 548.791,-380.455 559.2858,-381.9073 557.9008,-375.0457"/>
</g>
<!-- Node227457&#45;&gt;Node227462 -->
<g id="edge18" class="edge">
<title>Node227457&#45;&gt;Node227462</title>
<path fill="none" stroke="#191970" d="M526.8222,-375.4432C547.0089,-364.2302 576.2326,-348.8595 603,-338 611.5544,-334.5295 620.9898,-331.3329 629.8642,-328.5908"/>
<polygon fill="#191970" stroke="#191970" points="524.9612,-372.4742 517.9569,-380.4234 528.3897,-378.5771 524.9612,-372.4742"/>
</g>
</g>
</svg>
        <g id="navigator" transform="translate(0 0)" fill="#404254">
                <rect fill="#f2f5e9" fill-opacity="0.5" stroke="#606060" stroke-width=".5" x="0" y="0" width="60" height="60"/>
                <use id="zoomplus" xlink:href="#zoomPlus" x="17" y="9" onmousedown="handleZoom(evt,'in')"/>
                <use id="zoomminus" xlink:href="#zoomMin" x="42" y="9" onmousedown="handleZoom(evt,'out')"/>
                <use id="reset" xlink:href="#resetDef" x="30" y="36" onmousedown="handleReset()"/>
                <g id="arrowUp" xlink:href="#dirArrow" transform="translate(30 24)" onmousedown="handlePan(0,-1)">
                  <use xlink:href="#rim" fill="#404040">
                        <set attributeName="fill" to="#808080" begin="arrowUp.mouseover" end="arrowUp.mouseout"/>
                  </use>
                  <path fill="none" stroke="white" stroke-width="1.5" d="M0,-3.0v7 M-2.5,-0.5L0,-3.0L2.5,-0.5"/>
                </g>
                <g id="arrowRight" xlink:href="#dirArrow" transform="rotate(90) translate(36 -43)" onmousedown="handlePan(1,0)">
                  <use xlink:href="#rim" fill="#404040">
                        <set attributeName="fill" to="#808080" begin="arrowRight.mouseover" end="arrowRight.mouseout"/>
                  </use>
                  <path fill="none" stroke="white" stroke-width="1.5" d="M0,-3.0v7 M-2.5,-0.5L0,-3.0L2.5,-0.5"/>
                </g>
                <g id="arrowDown" xlink:href="#dirArrow" transform="rotate(180) translate(-30 -48)" onmousedown="handlePan(0,1)">
                  <use xlink:href="#rim" fill="#404040">
                        <set attributeName="fill" to="#808080" begin="arrowDown.mouseover" end="arrowDown.mouseout"/>
                  </use>
                  <path fill="none" stroke="white" stroke-width="1.5" d="M0,-3.0v7 M-2.5,-0.5L0,-3.0L2.5,-0.5"/>
                </g>
                <g id="arrowLeft" xlink:href="#dirArrow" transform="rotate(270) translate(-36 17)" onmousedown="handlePan(-1,0)">
                  <use xlink:href="#rim" fill="#404040">
                        <set attributeName="fill" to="#808080" begin="arrowLeft.mouseover" end="arrowLeft.mouseout"/>
                  </use>
                  <path fill="none" stroke="white" stroke-width="1.5" d="M0,-3.0v7 M-2.5,-0.5L0,-3.0L2.5,-0.5"/>
                </g>
        </g>
        <svg viewBox="0 0 15 15" width="100%" height="30px" preserveAspectRatio="xMaxYMin meet">
         <g id="arrow_out" transform="scale(0.3 0.3)">
          <a xlink:href="quickjs_8c_a2b8df609710fa689dd50b4bd18df2493_icgraph_org.svg" target="_base">
           <rect id="button" ry="5" rx="5" y="6" x="6" height="38" width="38"
                fill="#f2f5e9" fill-opacity="0.5" stroke="#606060" stroke-width="1.0"/>
           <path id="arrow"
             d="M 11.500037,31.436501 C 11.940474,20.09759 22.043105,11.32322 32.158766,21.979434 L 37.068811,17.246167 C 37.068811,17.246167 37.088388,32 37.088388,32 L 22.160133,31.978069 C 22.160133,31.978069 26.997745,27.140456 26.997745,27.140456 C 18.528582,18.264221 13.291696,25.230495 11.500037,31.436501 z"
             style="fill:#404040;"/>
          </a>
         </g>
        </svg>
</svg>
