<?xml version="1.0" encoding="UTF-8" standalone="no"?>
<!DOCTYPE svg PUBLIC "-//W3C//DTD SVG 1.1//EN"
 "http://www.w3.org/Graphics/SVG/1.1/DTD/svg11.dtd">
<!-- Generated by graphviz version 2.40.1 (20161225.0304)
 -->
<!-- Title: free_var_ref Pages: 1 -->
<!--zoomable 133 -->
<svg id="main" version="1.1" xmlns="http://www.w3.org/2000/svg" xmlns:xlink="http://www.w3.org/1999/xlink" xml:space="preserve" onload="init(evt)">
<style type="text/css"><![CDATA[
.edge:hover path { stroke: red; }
.edge:hover polygon { stroke: red; fill: red; }
]]></style>
<script type="text/javascript"><![CDATA[
var edges = document.getElementsByTagName('g');
if (edges && edges.length) {
  for (var i=0;i<edges.length;i++) {
    if (edges[i].id.substr(0,4)=='edge') {
      edges[i].setAttribute('class','edge');
    }
  }
}
]]></script>
        <defs>
                <circle id="rim" cx="0" cy="0" r="7"/>
                <circle id="rim2" cx="0" cy="0" r="3.5"/>
                <g id="zoomPlus">
                        <use xlink:href="#rim" fill="#404040">
                                <set attributeName="fill" to="#808080" begin="zoomplus.mouseover" end="zoomplus.mouseout"/>
                        </use>
                        <path d="M-4,0h8M0,-4v8" fill="none" stroke="white" stroke-width="1.5" pointer-events="none"/>
                </g>
                <g id="zoomMin">
                        <use xlink:href="#rim" fill="#404040">
                                <set attributeName="fill" to="#808080" begin="zoomminus.mouseover" end="zoomminus.mouseout"/>
                        </use>
                        <path d="M-4,0h8" fill="none" stroke="white" stroke-width="1.5" pointer-events="none"/>
                </g>
                <g id="dirArrow">
                        <path fill="none" stroke="white" stroke-width="1.5" d="M0,-3.0v7 M-2.5,-0.5L0,-3.0L2.5,-0.5"/>
                </g>
               <g id="resetDef">
                       <use xlink:href="#rim2" fill="#404040">
                               <set attributeName="fill" to="#808080" begin="reset.mouseover" end="reset.mouseout"/>
                       </use>
               </g>
        </defs>

<script type="text/javascript">
var viewWidth = 578;
var viewHeight = 133;
var sectionId = 'dynsection-80';
</script>
<script xlink:href="svgpan.js"/>
<svg id="graph" class="graph">
<g id="viewport">
<title>free_var_ref</title>
<!-- Node28667 -->
<g id="node1" class="node">
<title>Node28667</title>
<polygon fill="#bfbfbf" stroke="#000000" points="0,-57.5 0,-76.5 68,-76.5 68,-57.5 0,-57.5"/>
<text text-anchor="middle" x="34" y="-64.5" font-family="Helvetica,sans-Serif" font-size="10.00" fill="#000000">free_var_ref</text>
</g>
<!-- Node28668 -->
<g id="node2" class="node">
<title>Node28668</title>
<g id="a_node2"><a xlink:href="quickjs_8c.html#a69e19dda8a93d613203e0baa06f0ed8d" target="_top" xlink:title="js_free_rt">
<polygon fill="none" stroke="#000000" points="513,-90.5 513,-109.5 570,-109.5 570,-90.5 513,-90.5"/>
<text text-anchor="middle" x="541.5" y="-97.5" font-family="Helvetica,sans-Serif" font-size="10.00" fill="#000000">js_free_rt</text>
</a>
</g>
</g>
<!-- Node28667&#45;&gt;Node28668 -->
<g id="edge1" class="edge">
<title>Node28667&#45;&gt;Node28668</title>
<path fill="none" stroke="#191970" d="M47.1017,-76.7262C60.5731,-86.0723 82.5558,-99.5547 104,-105 247.0931,-141.3352 425.0866,-119.6161 502.5075,-107.0501"/>
<polygon fill="#191970" stroke="#191970" points="503.461,-110.4396 512.7504,-105.3447 502.3113,-103.5346 503.461,-110.4396"/>
</g>
<!-- Node28669 -->
<g id="node3" class="node">
<title>Node28669</title>
<g id="a_node3"><a xlink:href="quickjs_8h.html#ab8db583fa5e7c2b1935854a42859daed" target="_top" xlink:title="JS_FreeValueRT">
<polygon fill="none" stroke="#000000" points="106,-76.5 106,-95.5 198,-95.5 198,-76.5 106,-76.5"/>
<text text-anchor="middle" x="152" y="-83.5" font-family="Helvetica,sans-Serif" font-size="10.00" fill="#000000">JS_FreeValueRT</text>
</a>
</g>
</g>
<!-- Node28667&#45;&gt;Node28669 -->
<g id="edge2" class="edge">
<title>Node28667&#45;&gt;Node28669</title>
<path fill="none" stroke="#191970" d="M68.1305,-72.4956C76.7281,-73.8799 86.1881,-75.4032 95.5618,-76.9125"/>
<polygon fill="#191970" stroke="#191970" points="95.2251,-80.4033 105.6543,-78.5376 96.3379,-73.4923 95.2251,-80.4033"/>
</g>
<!-- Node28688 -->
<g id="node7" class="node">
<title>Node28688</title>
<g id="a_node7"><a xlink:href="list_8h.html#ab60d5d18869ebeb5d6ab694289576fa7" target="_top" xlink:title="list_del">
<polygon fill="none" stroke="#000000" points="263.5,-19.5 263.5,-38.5 310.5,-38.5 310.5,-19.5 263.5,-19.5"/>
<text text-anchor="middle" x="287" y="-26.5" font-family="Helvetica,sans-Serif" font-size="10.00" fill="#000000">list_del</text>
</a>
</g>
</g>
<!-- Node28667&#45;&gt;Node28688 -->
<g id="edge8" class="edge">
<title>Node28667&#45;&gt;Node28688</title>
<path fill="none" stroke="#191970" d="M68.1207,-61.8752C116.6251,-54.5899 204.9717,-41.3205 253.2642,-34.067"/>
<polygon fill="#191970" stroke="#191970" points="253.847,-37.5189 263.2162,-32.5723 252.8072,-30.5965 253.847,-37.5189"/>
</g>
<!-- Node28695 -->
<g id="node8" class="node">
<title>Node28695</title>
<g id="a_node8"><a xlink:href="quickjs_8c.html#adfb3133f30938e2db9b525ade5fc09cf" target="_top" xlink:title="remove_gc_object">
<polygon fill="none" stroke="#000000" points="104,-.5 104,-19.5 200,-19.5 200,-.5 104,-.5"/>
<text text-anchor="middle" x="152" y="-7.5" font-family="Helvetica,sans-Serif" font-size="10.00" fill="#000000">remove_gc_object</text>
</a>
</g>
</g>
<!-- Node28667&#45;&gt;Node28695 -->
<g id="edge9" class="edge">
<title>Node28667&#45;&gt;Node28695</title>
<path fill="none" stroke="#191970" d="M53.7505,-57.4595C72.7248,-48.2939 101.6109,-34.3405 123.1575,-23.9324"/>
<polygon fill="#191970" stroke="#191970" points="124.7029,-27.0729 132.185,-19.5716 121.6581,-20.7698 124.7029,-27.0729"/>
</g>
<!-- Node28670 -->
<g id="node4" class="node">
<title>Node28670</title>
<g id="a_node4"><a xlink:href="quickjs_8c.html#ab1ea3fad7d138be12144a38be4d36423" target="_top" xlink:title="__JS_FreeValueRT">
<polygon fill="none" stroke="#000000" points="236,-66.5 236,-85.5 338,-85.5 338,-66.5 236,-66.5"/>
<text text-anchor="middle" x="287" y="-73.5" font-family="Helvetica,sans-Serif" font-size="10.00" fill="#000000">__JS_FreeValueRT</text>
</a>
</g>
</g>
<!-- Node28669&#45;&gt;Node28670 -->
<g id="edge3" class="edge">
<title>Node28669&#45;&gt;Node28670</title>
<path fill="none" stroke="#191970" d="M198.0818,-82.5865C206.8504,-81.937 216.157,-81.2476 225.3195,-80.5689"/>
<polygon fill="#191970" stroke="#191970" points="225.8525,-84.0391 235.5666,-79.8099 225.3354,-77.0582 225.8525,-84.0391"/>
</g>
<!-- Node28670&#45;&gt;Node28668 -->
<g id="edge6" class="edge">
<title>Node28670&#45;&gt;Node28668</title>
<path fill="none" stroke="#191970" d="M338.1957,-80.8279C386.8412,-85.4153 458.9087,-92.2114 502.8944,-96.3594"/>
<polygon fill="#191970" stroke="#191970" points="502.6207,-99.849 512.9052,-97.3034 503.278,-92.8799 502.6207,-99.849"/>
</g>
<!-- Node28671 -->
<g id="node5" class="node">
<title>Node28671</title>
<g id="a_node5"><a xlink:href="quickjs_8c.html#a58c8965dad50b15b75918a09f3d9dc7c" target="_top" xlink:title="JS_FreeAtomStruct">
<polygon fill="none" stroke="#ff0000" points="374,-52.5 374,-71.5 477,-71.5 477,-52.5 374,-52.5"/>
<text text-anchor="middle" x="425.5" y="-59.5" font-family="Helvetica,sans-Serif" font-size="10.00" fill="#000000">JS_FreeAtomStruct</text>
</a>
</g>
</g>
<!-- Node28670&#45;&gt;Node28671 -->
<g id="edge4" class="edge">
<title>Node28670&#45;&gt;Node28671</title>
<path fill="none" stroke="#191970" d="M338.1788,-70.8267C346.3963,-69.996 354.9787,-69.1285 363.4177,-68.2755"/>
<polygon fill="#191970" stroke="#191970" points="364.0088,-71.7336 373.6061,-67.2456 363.3047,-64.7691 364.0088,-71.7336"/>
</g>
<!-- Node28673 -->
<g id="node6" class="node">
<title>Node28673</title>
<g id="a_node6"><a xlink:href="quickjs_8c.html#a8defed3434f60d6b5d6a7ea202cc8f9d" target="_top" xlink:title="free_zero_refcount">
<polygon fill="none" stroke="#ff0000" points="376.5,-14.5 376.5,-33.5 474.5,-33.5 474.5,-14.5 376.5,-14.5"/>
<text text-anchor="middle" x="425.5" y="-21.5" font-family="Helvetica,sans-Serif" font-size="10.00" fill="#000000">free_zero_refcount</text>
</a>
</g>
</g>
<!-- Node28670&#45;&gt;Node28673 -->
<g id="edge7" class="edge">
<title>Node28670&#45;&gt;Node28673</title>
<path fill="none" stroke="#191970" d="M312.1043,-66.4085C329.4705,-59.7904 353.1205,-50.8113 374,-43 379.1882,-41.059 384.6753,-39.02 390.0582,-37.0274"/>
<polygon fill="#191970" stroke="#191970" points="391.3799,-40.2705 399.5477,-33.5223 388.9544,-33.7041 391.3799,-40.2705"/>
</g>
<!-- Node28671&#45;&gt;Node28668 -->
<g id="edge5" class="edge">
<title>Node28671&#45;&gt;Node28668</title>
<path fill="none" stroke="#191970" d="M454.7717,-71.589C469.3068,-76.3505 487.0622,-82.1669 502.7134,-87.294"/>
<polygon fill="#191970" stroke="#191970" points="502.0468,-90.7586 512.6395,-90.5457 504.226,-84.1065 502.0468,-90.7586"/>
</g>
<!-- Node28695&#45;&gt;Node28688 -->
<g id="edge10" class="edge">
<title>Node28695&#45;&gt;Node28688</title>
<path fill="none" stroke="#191970" d="M200.3568,-16.8058C217.8586,-19.269 237.2322,-21.9956 253.2135,-24.2449"/>
<polygon fill="#191970" stroke="#191970" points="252.7816,-27.7185 263.1718,-25.6464 253.7572,-20.7868 252.7816,-27.7185"/>
</g>
</g>
</svg>
        <g id="navigator" transform="translate(0 0)" fill="#404254">
                <rect fill="#f2f5e9" fill-opacity="0.5" stroke="#606060" stroke-width=".5" x="0" y="0" width="60" height="60"/>
                <use id="zoomplus" xlink:href="#zoomPlus" x="17" y="9" onmousedown="handleZoom(evt,'in')"/>
                <use id="zoomminus" xlink:href="#zoomMin" x="42" y="9" onmousedown="handleZoom(evt,'out')"/>
                <use id="reset" xlink:href="#resetDef" x="30" y="36" onmousedown="handleReset()"/>
                <g id="arrowUp" xlink:href="#dirArrow" transform="translate(30 24)" onmousedown="handlePan(0,-1)">
                  <use xlink:href="#rim" fill="#404040">
                        <set attributeName="fill" to="#808080" begin="arrowUp.mouseover" end="arrowUp.mouseout"/>
                  </use>
                  <path fill="none" stroke="white" stroke-width="1.5" d="M0,-3.0v7 M-2.5,-0.5L0,-3.0L2.5,-0.5"/>
                </g>
                <g id="arrowRight" xlink:href="#dirArrow" transform="rotate(90) translate(36 -43)" onmousedown="handlePan(1,0)">
                  <use xlink:href="#rim" fill="#404040">
                        <set attributeName="fill" to="#808080" begin="arrowRight.mouseover" end="arrowRight.mouseout"/>
                  </use>
                  <path fill="none" stroke="white" stroke-width="1.5" d="M0,-3.0v7 M-2.5,-0.5L0,-3.0L2.5,-0.5"/>
                </g>
                <g id="arrowDown" xlink:href="#dirArrow" transform="rotate(180) translate(-30 -48)" onmousedown="handlePan(0,1)">
                  <use xlink:href="#rim" fill="#404040">
                        <set attributeName="fill" to="#808080" begin="arrowDown.mouseover" end="arrowDown.mouseout"/>
                  </use>
                  <path fill="none" stroke="white" stroke-width="1.5" d="M0,-3.0v7 M-2.5,-0.5L0,-3.0L2.5,-0.5"/>
                </g>
                <g id="arrowLeft" xlink:href="#dirArrow" transform="rotate(270) translate(-36 17)" onmousedown="handlePan(-1,0)">
                  <use xlink:href="#rim" fill="#404040">
                        <set attributeName="fill" to="#808080" begin="arrowLeft.mouseover" end="arrowLeft.mouseout"/>
                  </use>
                  <path fill="none" stroke="white" stroke-width="1.5" d="M0,-3.0v7 M-2.5,-0.5L0,-3.0L2.5,-0.5"/>
                </g>
        </g>
        <svg viewBox="0 0 15 15" width="100%" height="30px" preserveAspectRatio="xMaxYMin meet">
         <g id="arrow_out" transform="scale(0.3 0.3)">
          <a xlink:href="quickjs_8c_a9e7b4bccf927d811b0f99b40b08c0472_cgraph_org.svg" target="_base">
           <rect id="button" ry="5" rx="5" y="6" x="6" height="38" width="38"
                fill="#f2f5e9" fill-opacity="0.5" stroke="#606060" stroke-width="1.0"/>
           <path id="arrow"
             d="M 11.500037,31.436501 C 11.940474,20.09759 22.043105,11.32322 32.158766,21.979434 L 37.068811,17.246167 C 37.068811,17.246167 37.088388,32 37.088388,32 L 22.160133,31.978069 C 22.160133,31.978069 26.997745,27.140456 26.997745,27.140456 C 18.528582,18.264221 13.291696,25.230495 11.500037,31.436501 z"
             style="fill:#404040;"/>
          </a>
         </g>
        </svg>
</svg>
