<?xml version="1.0" encoding="UTF-8" standalone="no"?>
<!DOCTYPE svg PUBLIC "-//W3C//DTD SVG 1.1//EN"
 "http://www.w3.org/Graphics/SVG/1.1/DTD/svg11.dtd">
<!-- Generated by graphviz version 2.40.1 (20161225.0304)
 -->
<!-- Title: JS_ToNumber Pages: 1 -->
<!--zoomable 294 -->
<svg id="main" version="1.1" xmlns="http://www.w3.org/2000/svg" xmlns:xlink="http://www.w3.org/1999/xlink" xml:space="preserve" onload="init(evt)">
<style type="text/css"><![CDATA[
.edge:hover path { stroke: red; }
.edge:hover polygon { stroke: red; fill: red; }
]]></style>
<script type="text/javascript"><![CDATA[
var edges = document.getElementsByTagName('g');
if (edges && edges.length) {
  for (var i=0;i<edges.length;i++) {
    if (edges[i].id.substr(0,4)=='edge') {
      edges[i].setAttribute('class','edge');
    }
  }
}
]]></script>
        <defs>
                <circle id="rim" cx="0" cy="0" r="7"/>
                <circle id="rim2" cx="0" cy="0" r="3.5"/>
                <g id="zoomPlus">
                        <use xlink:href="#rim" fill="#404040">
                                <set attributeName="fill" to="#808080" begin="zoomplus.mouseover" end="zoomplus.mouseout"/>
                        </use>
                        <path d="M-4,0h8M0,-4v8" fill="none" stroke="white" stroke-width="1.5" pointer-events="none"/>
                </g>
                <g id="zoomMin">
                        <use xlink:href="#rim" fill="#404040">
                                <set attributeName="fill" to="#808080" begin="zoomminus.mouseover" end="zoomminus.mouseout"/>
                        </use>
                        <path d="M-4,0h8" fill="none" stroke="white" stroke-width="1.5" pointer-events="none"/>
                </g>
                <g id="dirArrow">
                        <path fill="none" stroke="white" stroke-width="1.5" d="M0,-3.0v7 M-2.5,-0.5L0,-3.0L2.5,-0.5"/>
                </g>
               <g id="resetDef">
                       <use xlink:href="#rim2" fill="#404040">
                               <set attributeName="fill" to="#808080" begin="reset.mouseover" end="reset.mouseout"/>
                       </use>
               </g>
        </defs>

<script type="text/javascript">
var viewWidth = 637;
var viewHeight = 294;
var sectionId = 'dynsection-90';
</script>
<script xlink:href="svgpan.js"/>
<svg id="graph" class="graph">
<g id="viewport">
<title>JS_ToNumber</title>
<!-- Node31998 -->
<g id="node1" class="node">
<title>Node31998</title>
<polygon fill="#bfbfbf" stroke="#000000" points="0,-152.5 0,-171.5 80,-171.5 80,-152.5 0,-152.5"/>
<text text-anchor="middle" x="40" y="-159.5" font-family="Helvetica,sans-Serif" font-size="10.00" fill="#000000">JS_ToNumber</text>
</g>
<!-- Node31999 -->
<g id="node2" class="node">
<title>Node31999</title>
<g id="a_node2"><a xlink:href="quickjs_8h.html#a775522f2d084fc8fa0fcb33f390006b4" target="_top" xlink:title="JS_DupValue">
<polygon fill="none" stroke="#000000" points="127,-171.5 127,-190.5 204,-190.5 204,-171.5 127,-171.5"/>
<text text-anchor="middle" x="165.5" y="-178.5" font-family="Helvetica,sans-Serif" font-size="10.00" fill="#000000">JS_DupValue</text>
</a>
</g>
</g>
<!-- Node31998&#45;&gt;Node31999 -->
<g id="edge1" class="edge">
<title>Node31998&#45;&gt;Node31999</title>
<path fill="none" stroke="#191970" d="M80.054,-168.064C91.711,-169.8288 104.5757,-171.7764 116.7072,-173.613"/>
<polygon fill="#191970" stroke="#191970" points="116.2713,-177.0869 126.6826,-175.1233 117.3192,-170.1657 116.2713,-177.0869"/>
</g>
<!-- Node32000 -->
<g id="node3" class="node">
<title>Node32000</title>
<g id="a_node3"><a xlink:href="quickjs_8c.html#ae738291483438efefca5c9fa4d269504" target="_top" xlink:title="JS_ToNumberFree">
<polygon fill="none" stroke="#000000" points="116,-133.5 116,-152.5 215,-152.5 215,-133.5 116,-133.5"/>
<text text-anchor="middle" x="165.5" y="-140.5" font-family="Helvetica,sans-Serif" font-size="10.00" fill="#000000">JS_ToNumberFree</text>
</a>
</g>
</g>
<!-- Node31998&#45;&gt;Node32000 -->
<g id="edge2" class="edge">
<title>Node31998&#45;&gt;Node32000</title>
<path fill="none" stroke="#191970" d="M80.054,-155.936C88.2005,-154.7027 96.9367,-153.3801 105.6004,-152.0685"/>
<polygon fill="#191970" stroke="#191970" points="106.3343,-155.4973 115.6977,-150.5398 105.2864,-148.5762 106.3343,-155.4973"/>
</g>
<!-- Node32001 -->
<g id="node4" class="node">
<title>Node32001</title>
<g id="a_node4"><a xlink:href="quickjs_8c.html#a0315f23b9804563f376c47edef2967fd" target="_top" xlink:title="JS_ToNumberHintFree">
<polygon fill="none" stroke="#000000" points="251,-133.5 251,-152.5 368,-152.5 368,-133.5 251,-133.5"/>
<text text-anchor="middle" x="309.5" y="-140.5" font-family="Helvetica,sans-Serif" font-size="10.00" fill="#000000">JS_ToNumberHintFree</text>
</a>
</g>
</g>
<!-- Node32000&#45;&gt;Node32001 -->
<g id="edge3" class="edge">
<title>Node32000&#45;&gt;Node32001</title>
<path fill="none" stroke="#191970" d="M215.0566,-143C223.36,-143 232.1058,-143 240.7878,-143"/>
<polygon fill="#191970" stroke="#191970" points="240.92,-146.5001 250.92,-143 240.9199,-139.5001 240.92,-146.5001"/>
</g>
<!-- Node32002 -->
<g id="node5" class="node">
<title>Node32002</title>
<g id="a_node5"><a xlink:href="quickjs_8h.html#a2050bc428da1c65ac7eb87c3fa3b0392" target="_top" xlink:title="JS_NewInt32">
<polygon fill="none" stroke="#000000" points="417.5,-266.5 417.5,-285.5 493.5,-285.5 493.5,-266.5 417.5,-266.5"/>
<text text-anchor="middle" x="455.5" y="-273.5" font-family="Helvetica,sans-Serif" font-size="10.00" fill="#000000">JS_NewInt32</text>
</a>
</g>
</g>
<!-- Node32001&#45;&gt;Node32002 -->
<g id="edge4" class="edge">
<title>Node32001&#45;&gt;Node32002</title>
<path fill="none" stroke="#191970" d="M315.758,-152.6508C329.5313,-173.2629 364.412,-222.1347 404,-252 408.8934,-255.6916 414.4456,-259.0051 420.0485,-261.9066"/>
<polygon fill="#191970" stroke="#191970" points="418.8874,-265.2312 429.4181,-266.3946 421.9114,-258.918 418.8874,-265.2312"/>
</g>
<!-- Node32003 -->
<g id="node6" class="node">
<title>Node32003</title>
<g id="a_node6"><a xlink:href="quickjs_8c.html#abac33881bb91f8c31106f616d81b67e8" target="_top" xlink:title="JS_ToPrimitiveFree">
<polygon fill="none" stroke="#ff0000" points="404,-190.5 404,-209.5 507,-209.5 507,-190.5 404,-190.5"/>
<text text-anchor="middle" x="455.5" y="-197.5" font-family="Helvetica,sans-Serif" font-size="10.00" fill="#000000">JS_ToPrimitiveFree</text>
</a>
</g>
</g>
<!-- Node32001&#45;&gt;Node32003 -->
<g id="edge5" class="edge">
<title>Node32001&#45;&gt;Node32003</title>
<path fill="none" stroke="#191970" d="M333.9371,-152.5405C357.9401,-161.9116 394.763,-176.2876 421.5929,-186.7623"/>
<polygon fill="#191970" stroke="#191970" points="420.395,-190.0519 430.9832,-190.4284 422.9408,-183.5312 420.395,-190.0519"/>
</g>
<!-- Node32093 -->
<g id="node7" class="node">
<title>Node32093</title>
<g id="a_node7"><a xlink:href="quickjs_8h.html#ad80a83d73e9b7d872b88fbf2943aebe9" target="_top" xlink:title="JS_IsException">
<polygon fill="none" stroke="#000000" points="543,-209.5 543,-228.5 629,-228.5 629,-209.5 543,-209.5"/>
<text text-anchor="middle" x="586" y="-216.5" font-family="Helvetica,sans-Serif" font-size="10.00" fill="#000000">JS_IsException</text>
</a>
</g>
</g>
<!-- Node32001&#45;&gt;Node32093 -->
<g id="edge8" class="edge">
<title>Node32001&#45;&gt;Node32093</title>
<path fill="none" stroke="#191970" d="M317.3475,-152.6269C332.1354,-169.91 366.0715,-205.6405 404,-219 445.4069,-233.5847 495.4768,-232.3384 532.6101,-228.149"/>
<polygon fill="#191970" stroke="#191970" points="533.227,-231.5995 542.7226,-226.9 532.3689,-224.6523 533.227,-231.5995"/>
</g>
<!-- Node32082 -->
<g id="node8" class="node">
<title>Node32082</title>
<g id="a_node8"><a xlink:href="quickjs_8h.html#afaa20c47565bc704c6c85f3d77254e7d" target="_top" xlink:title="JS_FreeValue">
<polygon fill="none" stroke="#ff0000" points="547,-152.5 547,-171.5 625,-171.5 625,-152.5 547,-152.5"/>
<text text-anchor="middle" x="586" y="-159.5" font-family="Helvetica,sans-Serif" font-size="10.00" fill="#000000">JS_FreeValue</text>
</a>
</g>
</g>
<!-- Node32001&#45;&gt;Node32082 -->
<g id="edge10" class="edge">
<title>Node32001&#45;&gt;Node32082</title>
<path fill="none" stroke="#191970" d="M368.1385,-147.0294C418.2044,-150.4697 489.4008,-155.3621 536.609,-158.606"/>
<polygon fill="#191970" stroke="#191970" points="536.379,-162.0984 546.5954,-159.2923 536.8589,-155.1149 536.379,-162.0984"/>
</g>
<!-- Node32376 -->
<g id="node9" class="node">
<title>Node32376</title>
<g id="a_node9"><a xlink:href="quickjs_8h.html#a1e7f56471f8608df9405987087a56070" target="_top" xlink:title="JS_ToCStringLen">
<polygon fill="none" stroke="#ff0000" points="408.5,-114.5 408.5,-133.5 502.5,-133.5 502.5,-114.5 408.5,-114.5"/>
<text text-anchor="middle" x="455.5" y="-121.5" font-family="Helvetica,sans-Serif" font-size="10.00" fill="#000000">JS_ToCStringLen</text>
</a>
</g>
</g>
<!-- Node32001&#45;&gt;Node32376 -->
<g id="edge9" class="edge">
<title>Node32001&#45;&gt;Node32376</title>
<path fill="none" stroke="#191970" d="M368.0425,-135.3815C377.9343,-134.0942 388.1951,-132.7589 398.0584,-131.4753"/>
<polygon fill="#191970" stroke="#191970" points="398.6963,-134.9219 408.161,-130.1606 397.7929,-127.9804 398.6963,-134.9219"/>
</g>
<!-- Node32423 -->
<g id="node10" class="node">
<title>Node32423</title>
<g id="a_node10"><a xlink:href="quickjs_8c.html#a55c008c257c5802e77f5fec646e3ebf1" target="_top" xlink:title="skip_spaces">
<polygon fill="none" stroke="#ff0000" points="420,-76.5 420,-95.5 491,-95.5 491,-76.5 420,-76.5"/>
<text text-anchor="middle" x="455.5" y="-83.5" font-family="Helvetica,sans-Serif" font-size="10.00" fill="#000000">skip_spaces</text>
</a>
</g>
</g>
<!-- Node32001&#45;&gt;Node32423 -->
<g id="edge11" class="edge">
<title>Node32001&#45;&gt;Node32423</title>
<path fill="none" stroke="#191970" d="M332.7273,-133.4424C351.8112,-125.6422 379.5803,-114.4121 404,-105 409.1131,-103.0292 414.5275,-100.9852 419.8498,-99.0003"/>
<polygon fill="#191970" stroke="#191970" points="421.0841,-102.2756 429.2456,-95.5199 418.6525,-95.7115 421.0841,-102.2756"/>
</g>
<!-- Node32425 -->
<g id="node11" class="node">
<title>Node32425</title>
<g id="a_node11"><a xlink:href="quickjs_8c.html#a40bcef4994dba57dfb34b6eed66daef0" target="_top" xlink:title="js_atof">
<polygon fill="none" stroke="#ff0000" points="432.5,-38.5 432.5,-57.5 478.5,-57.5 478.5,-38.5 432.5,-38.5"/>
<text text-anchor="middle" x="455.5" y="-45.5" font-family="Helvetica,sans-Serif" font-size="10.00" fill="#000000">js_atof</text>
</a>
</g>
</g>
<!-- Node32001&#45;&gt;Node32425 -->
<g id="edge12" class="edge">
<title>Node32001&#45;&gt;Node32425</title>
<path fill="none" stroke="#191970" d="M319.19,-133.3896C335.4803,-117.6748 369.9267,-86.3005 404,-67 409.8226,-63.7018 416.3257,-60.7835 422.6979,-58.2847"/>
<polygon fill="#191970" stroke="#191970" points="424.2948,-61.4277 432.487,-54.7093 421.8931,-54.8526 424.2948,-61.4277"/>
</g>
<!-- Node32225 -->
<g id="node12" class="node">
<title>Node32225</title>
<g id="a_node12"><a xlink:href="quickjs_8c.html#ae0bc4f65da64810facb2cb9e476eda2e" target="_top" xlink:title="JS_FreeCString">
<polygon fill="none" stroke="#000000" points="412.5,-.5 412.5,-19.5 498.5,-19.5 498.5,-.5 412.5,-.5"/>
<text text-anchor="middle" x="455.5" y="-7.5" font-family="Helvetica,sans-Serif" font-size="10.00" fill="#000000">JS_FreeCString</text>
</a>
</g>
</g>
<!-- Node32001&#45;&gt;Node32225 -->
<g id="edge13" class="edge">
<title>Node32001&#45;&gt;Node32225</title>
<path fill="none" stroke="#191970" d="M315.0635,-133.2861C327.9628,-111.5774 362.0367,-58.7082 404,-29 406.6835,-27.1002 409.579,-25.3674 412.5806,-23.7911"/>
<polygon fill="#191970" stroke="#191970" points="414.1958,-26.9003 421.7983,-19.521 411.2534,-20.5487 414.1958,-26.9003"/>
</g>
<!-- Node32003&#45;&gt;Node32093 -->
<g id="edge6" class="edge">
<title>Node32003&#45;&gt;Node32093</title>
<path fill="none" stroke="#191970" d="M507.0771,-207.5093C515.485,-208.7334 524.21,-210.0038 532.6593,-211.2339"/>
<polygon fill="#191970" stroke="#191970" points="532.389,-214.7314 542.7889,-212.7087 533.3975,-207.8044 532.389,-214.7314"/>
</g>
<!-- Node32003&#45;&gt;Node32082 -->
<g id="edge7" class="edge">
<title>Node32003&#45;&gt;Node32082</title>
<path fill="none" stroke="#191970" d="M488.4307,-190.411C505.1224,-185.5506 525.5892,-179.5909 543.4595,-174.3873"/>
<polygon fill="#191970" stroke="#191970" points="544.4572,-177.7422 553.0799,-171.5859 542.5001,-171.0213 544.4572,-177.7422"/>
</g>
<!-- Node32225&#45;&gt;Node32082 -->
<g id="edge14" class="edge">
<title>Node32225&#45;&gt;Node32082</title>
<path fill="none" stroke="#191970" d="M491.3096,-19.5653C496.9229,-22.0581 502.3853,-25.1592 507,-29 544.5229,-60.2302 568.5897,-114.1674 579.391,-142.8184"/>
<polygon fill="#191970" stroke="#191970" points="576.1867,-144.2495 582.8816,-152.461 582.7687,-141.8668 576.1867,-144.2495"/>
</g>
</g>
</svg>
        <g id="navigator" transform="translate(0 0)" fill="#404254">
                <rect fill="#f2f5e9" fill-opacity="0.5" stroke="#606060" stroke-width=".5" x="0" y="0" width="60" height="60"/>
                <use id="zoomplus" xlink:href="#zoomPlus" x="17" y="9" onmousedown="handleZoom(evt,'in')"/>
                <use id="zoomminus" xlink:href="#zoomMin" x="42" y="9" onmousedown="handleZoom(evt,'out')"/>
                <use id="reset" xlink:href="#resetDef" x="30" y="36" onmousedown="handleReset()"/>
                <g id="arrowUp" xlink:href="#dirArrow" transform="translate(30 24)" onmousedown="handlePan(0,-1)">
                  <use xlink:href="#rim" fill="#404040">
                        <set attributeName="fill" to="#808080" begin="arrowUp.mouseover" end="arrowUp.mouseout"/>
                  </use>
                  <path fill="none" stroke="white" stroke-width="1.5" d="M0,-3.0v7 M-2.5,-0.5L0,-3.0L2.5,-0.5"/>
                </g>
                <g id="arrowRight" xlink:href="#dirArrow" transform="rotate(90) translate(36 -43)" onmousedown="handlePan(1,0)">
                  <use xlink:href="#rim" fill="#404040">
                        <set attributeName="fill" to="#808080" begin="arrowRight.mouseover" end="arrowRight.mouseout"/>
                  </use>
                  <path fill="none" stroke="white" stroke-width="1.5" d="M0,-3.0v7 M-2.5,-0.5L0,-3.0L2.5,-0.5"/>
                </g>
                <g id="arrowDown" xlink:href="#dirArrow" transform="rotate(180) translate(-30 -48)" onmousedown="handlePan(0,1)">
                  <use xlink:href="#rim" fill="#404040">
                        <set attributeName="fill" to="#808080" begin="arrowDown.mouseover" end="arrowDown.mouseout"/>
                  </use>
                  <path fill="none" stroke="white" stroke-width="1.5" d="M0,-3.0v7 M-2.5,-0.5L0,-3.0L2.5,-0.5"/>
                </g>
                <g id="arrowLeft" xlink:href="#dirArrow" transform="rotate(270) translate(-36 17)" onmousedown="handlePan(-1,0)">
                  <use xlink:href="#rim" fill="#404040">
                        <set attributeName="fill" to="#808080" begin="arrowLeft.mouseover" end="arrowLeft.mouseout"/>
                  </use>
                  <path fill="none" stroke="white" stroke-width="1.5" d="M0,-3.0v7 M-2.5,-0.5L0,-3.0L2.5,-0.5"/>
                </g>
        </g>
        <svg viewBox="0 0 15 15" width="100%" height="30px" preserveAspectRatio="xMaxYMin meet">
         <g id="arrow_out" transform="scale(0.3 0.3)">
          <a xlink:href="quickjs_8c_a1be6d78cdf2c36e34930631587f98d44_cgraph_org.svg" target="_base">
           <rect id="button" ry="5" rx="5" y="6" x="6" height="38" width="38"
                fill="#f2f5e9" fill-opacity="0.5" stroke="#606060" stroke-width="1.0"/>
           <path id="arrow"
             d="M 11.500037,31.436501 C 11.940474,20.09759 22.043105,11.32322 32.158766,21.979434 L 37.068811,17.246167 C 37.068811,17.246167 37.088388,32 37.088388,32 L 22.160133,31.978069 C 22.160133,31.978069 26.997745,27.140456 26.997745,27.140456 C 18.528582,18.264221 13.291696,25.230495 11.500037,31.436501 z"
             style="fill:#404040;"/>
          </a>
         </g>
        </svg>
</svg>
