<?xml version="1.0" encoding="UTF-8" standalone="no"?>
<!DOCTYPE svg PUBLIC "-//W3C//DTD SVG 1.1//EN"
 "http://www.w3.org/Graphics/SVG/1.1/DTD/svg11.dtd">
<!-- Generated by graphviz version 2.40.1 (20161225.0304)
 -->
<!-- Title: JS_ToQuotedStringFree Pages: 1 -->
<!--zoomable 370 -->
<svg id="main" version="1.1" xmlns="http://www.w3.org/2000/svg" xmlns:xlink="http://www.w3.org/1999/xlink" xml:space="preserve" onload="init(evt)">
<style type="text/css"><![CDATA[
.edge:hover path { stroke: red; }
.edge:hover polygon { stroke: red; fill: red; }
]]></style>
<script type="text/javascript"><![CDATA[
var edges = document.getElementsByTagName('g');
if (edges && edges.length) {
  for (var i=0;i<edges.length;i++) {
    if (edges[i].id.substr(0,4)=='edge') {
      edges[i].setAttribute('class','edge');
    }
  }
}
]]></script>
        <defs>
                <circle id="rim" cx="0" cy="0" r="7"/>
                <circle id="rim2" cx="0" cy="0" r="3.5"/>
                <g id="zoomPlus">
                        <use xlink:href="#rim" fill="#404040">
                                <set attributeName="fill" to="#808080" begin="zoomplus.mouseover" end="zoomplus.mouseout"/>
                        </use>
                        <path d="M-4,0h8M0,-4v8" fill="none" stroke="white" stroke-width="1.5" pointer-events="none"/>
                </g>
                <g id="zoomMin">
                        <use xlink:href="#rim" fill="#404040">
                                <set attributeName="fill" to="#808080" begin="zoomminus.mouseover" end="zoomminus.mouseout"/>
                        </use>
                        <path d="M-4,0h8" fill="none" stroke="white" stroke-width="1.5" pointer-events="none"/>
                </g>
                <g id="dirArrow">
                        <path fill="none" stroke="white" stroke-width="1.5" d="M0,-3.0v7 M-2.5,-0.5L0,-3.0L2.5,-0.5"/>
                </g>
               <g id="resetDef">
                       <use xlink:href="#rim2" fill="#404040">
                               <set attributeName="fill" to="#808080" begin="reset.mouseover" end="reset.mouseout"/>
                       </use>
               </g>
        </defs>

<script type="text/javascript">
var viewWidth = 711;
var viewHeight = 370;
var sectionId = 'dynsection-1628';
</script>
<script xlink:href="svgpan.js"/>
<svg id="graph" class="graph">
<g id="viewport">
<title>JS_ToQuotedStringFree</title>
<!-- Node432977 -->
<g id="node1" class="node">
<title>Node432977</title>
<polygon fill="#bfbfbf" stroke="#000000" points="0,-209.5 0,-228.5 122,-228.5 122,-209.5 0,-209.5"/>
<text text-anchor="middle" x="61" y="-216.5" font-family="Helvetica,sans-Serif" font-size="10.00" fill="#000000">JS_ToQuotedStringFree</text>
</g>
<!-- Node432978 -->
<g id="node2" class="node">
<title>Node432978</title>
<g id="a_node2"><a xlink:href="quickjs_8h.html#afaa20c47565bc704c6c85f3d77254e7d" target="_top" xlink:title="JS_FreeValue">
<polygon fill="none" stroke="#000000" points="321,-342.5 321,-361.5 399,-361.5 399,-342.5 321,-342.5"/>
<text text-anchor="middle" x="360" y="-349.5" font-family="Helvetica,sans-Serif" font-size="10.00" fill="#000000">JS_FreeValue</text>
</a>
</g>
</g>
<!-- Node432977&#45;&gt;Node432978 -->
<g id="edge1" class="edge">
<title>Node432977&#45;&gt;Node432978</title>
<path fill="none" stroke="#191970" d="M78.2509,-228.5834C116.5352,-249.5781 211.8727,-300.358 296,-333 301.8856,-335.2837 308.164,-337.4557 314.4016,-339.4602"/>
<polygon fill="#191970" stroke="#191970" points="313.5198,-342.851 324.1076,-342.4642 315.5895,-336.164 313.5198,-342.851"/>
</g>
<!-- Node433015 -->
<g id="node5" class="node">
<title>Node433015</title>
<g id="a_node5"><a xlink:href="quickjs_8c.html#ae5057ca2d025c62cc64ba12541f7925b" target="_top" xlink:title="JS_ToQuotedString">
<polygon fill="none" stroke="#000000" points="158,-190.5 158,-209.5 260,-209.5 260,-190.5 158,-190.5"/>
<text text-anchor="middle" x="209" y="-197.5" font-family="Helvetica,sans-Serif" font-size="10.00" fill="#000000">JS_ToQuotedString</text>
</a>
</g>
</g>
<!-- Node432977&#45;&gt;Node433015 -->
<g id="edge4" class="edge">
<title>Node432977&#45;&gt;Node433015</title>
<path fill="none" stroke="#191970" d="M122.0517,-211.1623C130.6364,-210.0602 139.4609,-208.9273 148.0438,-207.8255"/>
<polygon fill="#191970" stroke="#191970" points="148.5065,-211.2949 157.9794,-206.5499 147.6151,-204.3519 148.5065,-211.2949"/>
</g>
<!-- Node432979 -->
<g id="node3" class="node">
<title>Node432979</title>
<g id="a_node3"><a xlink:href="quickjs_8c.html#aa059f309c30fd5166d16c82a97973146" target="_top" xlink:title="__JS_FreeValue">
<polygon fill="none" stroke="#000000" points="468,-342.5 468,-361.5 557,-361.5 557,-342.5 468,-342.5"/>
<text text-anchor="middle" x="512.5" y="-349.5" font-family="Helvetica,sans-Serif" font-size="10.00" fill="#000000">__JS_FreeValue</text>
</a>
</g>
</g>
<!-- Node432978&#45;&gt;Node432979 -->
<g id="edge2" class="edge">
<title>Node432978&#45;&gt;Node432979</title>
<path fill="none" stroke="#191970" d="M399.2725,-352C417.0766,-352 438.4295,-352 457.7703,-352"/>
<polygon fill="#191970" stroke="#191970" points="457.9711,-355.5001 467.9711,-352 457.9711,-348.5001 457.9711,-355.5001"/>
</g>
<!-- Node432980 -->
<g id="node4" class="node">
<title>Node432980</title>
<g id="a_node4"><a xlink:href="quickjs_8c.html#ab1ea3fad7d138be12144a38be4d36423" target="_top" xlink:title="__JS_FreeValueRT">
<polygon fill="none" stroke="#ff0000" points="601,-342.5 601,-361.5 703,-361.5 703,-342.5 601,-342.5"/>
<text text-anchor="middle" x="652" y="-349.5" font-family="Helvetica,sans-Serif" font-size="10.00" fill="#000000">__JS_FreeValueRT</text>
</a>
</g>
</g>
<!-- Node432979&#45;&gt;Node432980 -->
<g id="edge3" class="edge">
<title>Node432979&#45;&gt;Node432980</title>
<path fill="none" stroke="#191970" d="M557.0222,-352C567.6448,-352 579.1695,-352 590.4078,-352"/>
<polygon fill="#191970" stroke="#191970" points="590.6141,-355.5001 600.6141,-352 590.6141,-348.5001 590.6141,-355.5001"/>
</g>
<!-- Node433015&#45;&gt;Node432978 -->
<g id="edge5" class="edge">
<title>Node433015&#45;&gt;Node432978</title>
<path fill="none" stroke="#191970" d="M215.0404,-209.6253C233.7926,-239.4534 290.1078,-328.6125 296,-333 300.5319,-336.3746 305.6587,-339.1529 310.9894,-341.4398"/>
<polygon fill="#191970" stroke="#191970" points="310.1274,-344.853 320.7205,-345.0478 312.561,-338.2896 310.1274,-344.853"/>
</g>
<!-- Node433016 -->
<g id="node6" class="node">
<title>Node433016</title>
<g id="a_node6"><a xlink:href="quickjs_8h.html#ad80a83d73e9b7d872b88fbf2943aebe9" target="_top" xlink:title="JS_IsException">
<polygon fill="none" stroke="#000000" points="317,-304.5 317,-323.5 403,-323.5 403,-304.5 317,-304.5"/>
<text text-anchor="middle" x="360" y="-311.5" font-family="Helvetica,sans-Serif" font-size="10.00" fill="#000000">JS_IsException</text>
</a>
</g>
</g>
<!-- Node433015&#45;&gt;Node433016 -->
<g id="edge6" class="edge">
<title>Node433015&#45;&gt;Node433016</title>
<path fill="none" stroke="#191970" d="M215.1672,-209.6719C227.9013,-228.8583 259.0269,-271.8734 296,-295 299.5928,-297.2473 303.4648,-299.2402 307.463,-301.0056"/>
<polygon fill="#191970" stroke="#191970" points="306.3615,-304.3331 316.9491,-304.7245 308.9165,-297.816 306.3615,-304.3331"/>
</g>
<!-- Node433017 -->
<g id="node7" class="node">
<title>Node433017</title>
<g id="a_node7"><a xlink:href="quickjs_8c.html#a4d1d0760c9f9efcb8c0a8db414e46c8a" target="_top" xlink:title="JS_ToStringCheckObject">
<polygon fill="none" stroke="#000000" points="296,-266.5 296,-285.5 424,-285.5 424,-266.5 296,-266.5"/>
<text text-anchor="middle" x="360" y="-273.5" font-family="Helvetica,sans-Serif" font-size="10.00" fill="#000000">JS_ToStringCheckObject</text>
</a>
</g>
</g>
<!-- Node433015&#45;&gt;Node433017 -->
<g id="edge7" class="edge">
<title>Node433015&#45;&gt;Node433017</title>
<path fill="none" stroke="#191970" d="M221.0081,-209.5148C237.2043,-221.9497 267.3334,-243.7036 296,-257 300.9286,-259.2861 306.1981,-261.3719 311.5184,-263.2543"/>
<polygon fill="#191970" stroke="#191970" points="310.4937,-266.6019 321.0871,-266.4222 312.6938,-259.9566 310.4937,-266.6019"/>
</g>
<!-- Node433032 -->
<g id="node9" class="node">
<title>Node433032</title>
<g id="a_node9"><a xlink:href="quickjs_8c.html#accfc3d1dcaa88c88402cb245ccaf4fdb" target="_top" xlink:title="string_buffer_end">
<polygon fill="none" stroke="#ff0000" points="314,-228.5 314,-247.5 406,-247.5 406,-228.5 314,-228.5"/>
<text text-anchor="middle" x="360" y="-235.5" font-family="Helvetica,sans-Serif" font-size="10.00" fill="#000000">string_buffer_end</text>
</a>
</g>
</g>
<!-- Node433015&#45;&gt;Node433032 -->
<g id="edge9" class="edge">
<title>Node433015&#45;&gt;Node433032</title>
<path fill="none" stroke="#191970" d="M247.1037,-209.589C266.94,-214.5809 291.3839,-220.7324 312.4483,-226.0334"/>
<polygon fill="#191970" stroke="#191970" points="311.6185,-229.4336 322.1703,-228.4799 313.3269,-222.6452 311.6185,-229.4336"/>
</g>
<!-- Node433033 -->
<g id="node10" class="node">
<title>Node433033</title>
<g id="a_node10"><a xlink:href="quickjs_8c.html#a266b4993a59d9e34537386e62b9f3d4f" target="_top" xlink:title="string_buffer_free">
<polygon fill="none" stroke="#ff0000" points="314,-190.5 314,-209.5 406,-209.5 406,-190.5 314,-190.5"/>
<text text-anchor="middle" x="360" y="-197.5" font-family="Helvetica,sans-Serif" font-size="10.00" fill="#000000">string_buffer_free</text>
</a>
</g>
</g>
<!-- Node433015&#45;&gt;Node433033 -->
<g id="edge10" class="edge">
<title>Node433015&#45;&gt;Node433033</title>
<path fill="none" stroke="#191970" d="M260.1217,-200C274.0979,-200 289.3227,-200 303.5766,-200"/>
<polygon fill="#191970" stroke="#191970" points="303.7525,-203.5001 313.7524,-200 303.7524,-196.5001 303.7525,-203.5001"/>
</g>
<!-- Node433034 -->
<g id="node11" class="node">
<title>Node433034</title>
<g id="a_node11"><a xlink:href="quickjs_8c.html#a9c11961b0adafedd064b294612d0c2f3" target="_top" xlink:title="string_buffer_init">
<polygon fill="none" stroke="#ff0000" points="315.5,-152.5 315.5,-171.5 404.5,-171.5 404.5,-152.5 315.5,-152.5"/>
<text text-anchor="middle" x="360" y="-159.5" font-family="Helvetica,sans-Serif" font-size="10.00" fill="#000000">string_buffer_init</text>
</a>
</g>
</g>
<!-- Node433015&#45;&gt;Node433034 -->
<g id="edge11" class="edge">
<title>Node433015&#45;&gt;Node433034</title>
<path fill="none" stroke="#191970" d="M247.1037,-190.411C266.94,-185.4191 291.3839,-179.2676 312.4483,-173.9666"/>
<polygon fill="#191970" stroke="#191970" points="313.3269,-177.3548 322.1703,-171.5201 311.6185,-170.5664 313.3269,-177.3548"/>
</g>
<!-- Node433410 -->
<g id="node12" class="node">
<title>Node433410</title>
<g id="a_node12"><a xlink:href="quickjs_8c.html#a8d79794c85d33dd8409cdb39f2c2fc74" target="_top" xlink:title="string_buffer_putc">
<polygon fill="none" stroke="#000000" points="312.5,-114.5 312.5,-133.5 407.5,-133.5 407.5,-114.5 312.5,-114.5"/>
<text text-anchor="middle" x="360" y="-121.5" font-family="Helvetica,sans-Serif" font-size="10.00" fill="#000000">string_buffer_putc</text>
</a>
</g>
</g>
<!-- Node433015&#45;&gt;Node433410 -->
<g id="edge12" class="edge">
<title>Node433015&#45;&gt;Node433410</title>
<path fill="none" stroke="#191970" d="M221.0081,-190.4852C237.2043,-178.0503 267.3334,-156.2964 296,-143 300.9286,-140.7139 306.1981,-138.6281 311.5184,-136.7457"/>
<polygon fill="#191970" stroke="#191970" points="312.6938,-140.0434 321.0871,-133.5778 310.4937,-133.3981 312.6938,-140.0434"/>
</g>
<!-- Node433043 -->
<g id="node14" class="node">
<title>Node433043</title>
<g id="a_node14"><a xlink:href="quickjs_8c.html#a874fcee73f61cc997ec1d10cc6711554" target="_top" xlink:title="string_buffer_putc8">
<polygon fill="none" stroke="#ff0000" points="310,-76.5 310,-95.5 410,-95.5 410,-76.5 310,-76.5"/>
<text text-anchor="middle" x="360" y="-83.5" font-family="Helvetica,sans-Serif" font-size="10.00" fill="#000000">string_buffer_putc8</text>
</a>
</g>
</g>
<!-- Node433015&#45;&gt;Node433043 -->
<g id="edge14" class="edge">
<title>Node433015&#45;&gt;Node433043</title>
<path fill="none" stroke="#191970" d="M215.1672,-190.3281C227.9013,-171.1417 259.0269,-128.1266 296,-105 299.3855,-102.8824 303.019,-100.9906 306.7723,-99.3022"/>
<polygon fill="#191970" stroke="#191970" points="308.2843,-102.4674 316.2761,-95.5117 305.691,-95.9655 308.2843,-102.4674"/>
</g>
<!-- Node433411 -->
<g id="node15" class="node">
<title>Node433411</title>
<g id="a_node15"><a xlink:href="quickjs_8c.html#a64bdafbabe72b0b23fa14ef7329690c9" target="_top" xlink:title="string_buffer_puts8">
<polygon fill="none" stroke="#000000" points="310,-38.5 310,-57.5 410,-57.5 410,-38.5 310,-38.5"/>
<text text-anchor="middle" x="360" y="-45.5" font-family="Helvetica,sans-Serif" font-size="10.00" fill="#000000">string_buffer_puts8</text>
</a>
</g>
</g>
<!-- Node433015&#45;&gt;Node433411 -->
<g id="edge15" class="edge">
<title>Node433015&#45;&gt;Node433411</title>
<path fill="none" stroke="#191970" d="M212.5813,-190.2898C222.1353,-165.7461 250.633,-100.7815 296,-67 298.5216,-65.1223 301.2274,-63.4293 304.05,-61.9028"/>
<polygon fill="#191970" stroke="#191970" points="305.7829,-64.9571 313.3799,-57.5722 302.8358,-58.6077 305.7829,-64.9571"/>
</g>
<!-- Node433412 -->
<g id="node17" class="node">
<title>Node433412</title>
<g id="a_node17"><a xlink:href="quickjs_8c.html#ae94a3705c1c334ae8719767ae53719c2" target="_top" xlink:title="string_getc">
<polygon fill="none" stroke="#000000" points="327.5,-.5 327.5,-19.5 392.5,-19.5 392.5,-.5 327.5,-.5"/>
<text text-anchor="middle" x="360" y="-7.5" font-family="Helvetica,sans-Serif" font-size="10.00" fill="#000000">string_getc</text>
</a>
</g>
</g>
<!-- Node433015&#45;&gt;Node433412 -->
<g id="edge17" class="edge">
<title>Node433015&#45;&gt;Node433412</title>
<path fill="none" stroke="#191970" d="M211.1131,-190.1753C217.9104,-160.9775 241.9915,-73.9735 296,-29 302.1999,-23.8373 309.7601,-20.0774 317.4823,-17.3391"/>
<polygon fill="#191970" stroke="#191970" points="318.698,-20.6282 327.2604,-14.3884 316.6756,-13.9267 318.698,-20.6282"/>
</g>
<!-- Node433018 -->
<g id="node8" class="node">
<title>Node433018</title>
<g id="a_node8"><a xlink:href="quickjs_8c.html#a7bcb8e1a20cbc8374a5f9ba4a2088cec" target="_top" xlink:title="JS_ToString">
<polygon fill="none" stroke="#ff0000" points="477,-266.5 477,-285.5 548,-285.5 548,-266.5 477,-266.5"/>
<text text-anchor="middle" x="512.5" y="-273.5" font-family="Helvetica,sans-Serif" font-size="10.00" fill="#000000">JS_ToString</text>
</a>
</g>
</g>
<!-- Node433017&#45;&gt;Node433018 -->
<g id="edge8" class="edge">
<title>Node433017&#45;&gt;Node433018</title>
<path fill="none" stroke="#191970" d="M424.2317,-276C438.3624,-276 453.0579,-276 466.3109,-276"/>
<polygon fill="#191970" stroke="#191970" points="466.592,-279.5001 476.5919,-276 466.5919,-272.5001 466.592,-279.5001"/>
</g>
<!-- Node433036 -->
<g id="node13" class="node">
<title>Node433036</title>
<g id="a_node13"><a xlink:href="quickjs_8c.html#a9b8fb6b5ce638616691f7bf7881fa57d" target="_top" xlink:title="string_buffer_putc16">
<polygon fill="none" stroke="#ff0000" points="460,-114.5 460,-133.5 565,-133.5 565,-114.5 460,-114.5"/>
<text text-anchor="middle" x="512.5" y="-121.5" font-family="Helvetica,sans-Serif" font-size="10.00" fill="#000000">string_buffer_putc16</text>
</a>
</g>
</g>
<!-- Node433410&#45;&gt;Node433036 -->
<g id="edge13" class="edge">
<title>Node433410&#45;&gt;Node433036</title>
<path fill="none" stroke="#191970" d="M407.8335,-124C421.1183,-124 435.7459,-124 449.7465,-124"/>
<polygon fill="#191970" stroke="#191970" points="449.8021,-127.5001 459.8021,-124 449.8021,-120.5001 449.8021,-127.5001"/>
</g>
<!-- Node433044 -->
<g id="node16" class="node">
<title>Node433044</title>
<g id="a_node16"><a xlink:href="quickjs_8c.html#a0b130652cf11eb0eb9f7e3ee6c5d7c6a" target="_top" xlink:title="string_buffer_write8">
<polygon fill="none" stroke="#ff0000" points="461.5,-38.5 461.5,-57.5 563.5,-57.5 563.5,-38.5 461.5,-38.5"/>
<text text-anchor="middle" x="512.5" y="-45.5" font-family="Helvetica,sans-Serif" font-size="10.00" fill="#000000">string_buffer_write8</text>
</a>
</g>
</g>
<!-- Node433411&#45;&gt;Node433044 -->
<g id="edge16" class="edge">
<title>Node433411&#45;&gt;Node433044</title>
<path fill="none" stroke="#191970" d="M410.3568,-48C423.4233,-48 437.641,-48 451.2019,-48"/>
<polygon fill="#191970" stroke="#191970" points="451.4141,-51.5001 461.414,-48 451.414,-44.5001 451.4141,-51.5001"/>
</g>
</g>
</svg>
        <g id="navigator" transform="translate(0 0)" fill="#404254">
                <rect fill="#f2f5e9" fill-opacity="0.5" stroke="#606060" stroke-width=".5" x="0" y="0" width="60" height="60"/>
                <use id="zoomplus" xlink:href="#zoomPlus" x="17" y="9" onmousedown="handleZoom(evt,'in')"/>
                <use id="zoomminus" xlink:href="#zoomMin" x="42" y="9" onmousedown="handleZoom(evt,'out')"/>
                <use id="reset" xlink:href="#resetDef" x="30" y="36" onmousedown="handleReset()"/>
                <g id="arrowUp" xlink:href="#dirArrow" transform="translate(30 24)" onmousedown="handlePan(0,-1)">
                  <use xlink:href="#rim" fill="#404040">
                        <set attributeName="fill" to="#808080" begin="arrowUp.mouseover" end="arrowUp.mouseout"/>
                  </use>
                  <path fill="none" stroke="white" stroke-width="1.5" d="M0,-3.0v7 M-2.5,-0.5L0,-3.0L2.5,-0.5"/>
                </g>
                <g id="arrowRight" xlink:href="#dirArrow" transform="rotate(90) translate(36 -43)" onmousedown="handlePan(1,0)">
                  <use xlink:href="#rim" fill="#404040">
                        <set attributeName="fill" to="#808080" begin="arrowRight.mouseover" end="arrowRight.mouseout"/>
                  </use>
                  <path fill="none" stroke="white" stroke-width="1.5" d="M0,-3.0v7 M-2.5,-0.5L0,-3.0L2.5,-0.5"/>
                </g>
                <g id="arrowDown" xlink:href="#dirArrow" transform="rotate(180) translate(-30 -48)" onmousedown="handlePan(0,1)">
                  <use xlink:href="#rim" fill="#404040">
                        <set attributeName="fill" to="#808080" begin="arrowDown.mouseover" end="arrowDown.mouseout"/>
                  </use>
                  <path fill="none" stroke="white" stroke-width="1.5" d="M0,-3.0v7 M-2.5,-0.5L0,-3.0L2.5,-0.5"/>
                </g>
                <g id="arrowLeft" xlink:href="#dirArrow" transform="rotate(270) translate(-36 17)" onmousedown="handlePan(-1,0)">
                  <use xlink:href="#rim" fill="#404040">
                        <set attributeName="fill" to="#808080" begin="arrowLeft.mouseover" end="arrowLeft.mouseout"/>
                  </use>
                  <path fill="none" stroke="white" stroke-width="1.5" d="M0,-3.0v7 M-2.5,-0.5L0,-3.0L2.5,-0.5"/>
                </g>
        </g>
        <svg viewBox="0 0 15 15" width="100%" height="30px" preserveAspectRatio="xMaxYMin meet">
         <g id="arrow_out" transform="scale(0.3 0.3)">
          <a xlink:href="quickjs_8c_ac5732685af4e38c0c0122b2ab25908e1_cgraph_org.svg" target="_base">
           <rect id="button" ry="5" rx="5" y="6" x="6" height="38" width="38"
                fill="#f2f5e9" fill-opacity="0.5" stroke="#606060" stroke-width="1.0"/>
           <path id="arrow"
             d="M 11.500037,31.436501 C 11.940474,20.09759 22.043105,11.32322 32.158766,21.979434 L 37.068811,17.246167 C 37.068811,17.246167 37.088388,32 37.088388,32 L 22.160133,31.978069 C 22.160133,31.978069 26.997745,27.140456 26.997745,27.140456 C 18.528582,18.264221 13.291696,25.230495 11.500037,31.436501 z"
             style="fill:#404040;"/>
          </a>
         </g>
        </svg>
</svg>
