<?xml version="1.0" encoding="UTF-8" standalone="no"?>
<!DOCTYPE svg PUBLIC "-//W3C//DTD SVG 1.1//EN"
 "http://www.w3.org/Graphics/SVG/1.1/DTD/svg11.dtd">
<!-- Generated by graphviz version 2.40.1 (20161225.0304)
 -->
<!-- Title: JS_SetPropertyInt64 Pages: 1 -->
<svg width="672pt" height="408pt"
 viewBox="0.00 0.00 672.00 408.00" xmlns="http://www.w3.org/2000/svg" xmlns:xlink="http://www.w3.org/1999/xlink">
<g id="graph0" class="graph" transform="scale(1 1) rotate(0) translate(4 404)">
<title>JS_SetPropertyInt64</title>
<!-- Node61419 -->
<g id="node1" class="node">
<title>Node61419</title>
<polygon fill="#bfbfbf" stroke="#000000" points="0,-190.5 0,-209.5 107,-209.5 107,-190.5 0,-190.5"/>
<text text-anchor="middle" x="53.5" y="-197.5" font-family="Helvetica,sans-Serif" font-size="10.00" fill="#000000">JS_SetPropertyInt64</text>
</g>
<!-- Node61420 -->
<g id="node2" class="node">
<title>Node61420</title>
<g id="a_node2"><a xlink:href="quickjs_8c.html#ae2647134d809434118ae04182c0169cb" target="_top" xlink:title="js_array_fill">
<polygon fill="none" stroke="#000000" points="177,-380.5 177,-399.5 243,-399.5 243,-380.5 177,-380.5"/>
<text text-anchor="middle" x="210" y="-387.5" font-family="Helvetica,sans-Serif" font-size="10.00" fill="#000000">js_array_fill</text>
</a>
</g>
</g>
<!-- Node61419&#45;&gt;Node61420 -->
<g id="edge1" class="edge">
<title>Node61419&#45;&gt;Node61420</title>
<path fill="none" stroke="#191970" d="M58.9577,-219.6005C69.5187,-254.0319 95.9553,-325.552 143,-366 152.5563,-374.2163 165.1339,-379.6953 176.808,-383.3139"/>
<polygon fill="#191970" stroke="#191970" points="62.2584,-218.4185 56.0807,-209.8111 55.5425,-220.3923 62.2584,-218.4185"/>
</g>
<!-- Node61421 -->
<g id="node3" class="node">
<title>Node61421</title>
<g id="a_node3"><a xlink:href="quickjs_8c.html#a3d640b89712ebda808c0c3eca9849674" target="_top" xlink:title="js_array_push">
<polygon fill="none" stroke="#000000" points="327,-190.5 327,-209.5 404,-209.5 404,-190.5 327,-190.5"/>
<text text-anchor="middle" x="365.5" y="-197.5" font-family="Helvetica,sans-Serif" font-size="10.00" fill="#000000">js_array_push</text>
</a>
</g>
</g>
<!-- Node61419&#45;&gt;Node61421 -->
<g id="edge2" class="edge">
<title>Node61419&#45;&gt;Node61421</title>
<path fill="none" stroke="#191970" d="M99.6,-188.289C113.4569,-185.2917 128.7624,-182.4946 143,-181 202.2301,-174.7823 217.7771,-174.7143 277,-181 294.5021,-182.8576 313.6294,-186.7265 329.6097,-190.4913"/>
<polygon fill="#191970" stroke="#191970" points="98.7911,-184.8834 89.802,-190.4911 100.3262,-191.713 98.7911,-184.8834"/>
</g>
<!-- Node61423 -->
<g id="node5" class="node">
<title>Node61423</title>
<g id="a_node5"><a xlink:href="quickjs_8c.html#a343a343b16bc3c9875050e99ee0d2884" target="_top" xlink:title="JS_JSONStringify">
<polygon fill="none" stroke="#ff0000" points="567,-304.5 567,-323.5 664,-323.5 664,-304.5 567,-304.5"/>
<text text-anchor="middle" x="615.5" y="-311.5" font-family="Helvetica,sans-Serif" font-size="10.00" fill="#000000">JS_JSONStringify</text>
</a>
</g>
</g>
<!-- Node61419&#45;&gt;Node61423 -->
<g id="edge15" class="edge">
<title>Node61419&#45;&gt;Node61423</title>
<path fill="none" stroke="#191970" d="M61.3933,-219.2601C74.0035,-247.2356 101.5711,-298.2485 143,-321 292.0338,-402.8449 509.4394,-347.5836 586.8358,-323.5688"/>
<polygon fill="#191970" stroke="#191970" points="64.4737,-217.5652 57.2949,-209.7732 58.0477,-220.3412 64.4737,-217.5652"/>
</g>
<!-- Node61425 -->
<g id="node6" class="node">
<title>Node61425</title>
<g id="a_node6"><a xlink:href="quickjs_8c.html#a8235fb13f196d6ef5002daed858b7eeb" target="_top" xlink:title="js_array_reverse">
<polygon fill="none" stroke="#000000" points="165.5,-266.5 165.5,-285.5 254.5,-285.5 254.5,-266.5 165.5,-266.5"/>
<text text-anchor="middle" x="210" y="-273.5" font-family="Helvetica,sans-Serif" font-size="10.00" fill="#000000">js_array_reverse</text>
</a>
</g>
</g>
<!-- Node61419&#45;&gt;Node61425 -->
<g id="edge6" class="edge">
<title>Node61419&#45;&gt;Node61425</title>
<path fill="none" stroke="#191970" d="M74.2026,-215.655C91.7377,-228.2932 117.9523,-245.763 143,-257 151.1632,-260.6622 160.2054,-263.7948 168.9363,-266.3979"/>
<polygon fill="#191970" stroke="#191970" points="76.0091,-212.6394 65.8761,-209.545 71.8677,-218.283 76.0091,-212.6394"/>
</g>
<!-- Node61426 -->
<g id="node7" class="node">
<title>Node61426</title>
<g id="a_node7"><a xlink:href="quickjs_8c.html#a70b7ec8358ab99b905686d5bf80950cc" target="_top" xlink:title="js_array_slice">
<polygon fill="none" stroke="#000000" points="327,-304.5 327,-323.5 404,-323.5 404,-304.5 327,-304.5"/>
<text text-anchor="middle" x="365.5" y="-311.5" font-family="Helvetica,sans-Serif" font-size="10.00" fill="#000000">js_array_slice</text>
</a>
</g>
</g>
<!-- Node61419&#45;&gt;Node61426 -->
<g id="edge7" class="edge">
<title>Node61419&#45;&gt;Node61426</title>
<path fill="none" stroke="#191970" d="M64.6535,-218.3478C79.4461,-240.8242 107.8323,-278.0037 143,-295 202.1661,-323.5946 280.5248,-322.6531 326.7232,-318.7522"/>
<polygon fill="#191970" stroke="#191970" points="67.485,-216.2777 59.1659,-209.7169 61.5778,-220.0336 67.485,-216.2777"/>
</g>
<!-- Node61427 -->
<g id="node8" class="node">
<title>Node61427</title>
<g id="a_node8"><a xlink:href="quickjs_8c.html#a874518d6b2fb6ff79531c4a9652202f3" target="_top" xlink:title="js_array_sort">
<polygon fill="none" stroke="#000000" points="173.5,-190.5 173.5,-209.5 246.5,-209.5 246.5,-190.5 173.5,-190.5"/>
<text text-anchor="middle" x="210" y="-197.5" font-family="Helvetica,sans-Serif" font-size="10.00" fill="#000000">js_array_sort</text>
</a>
</g>
</g>
<!-- Node61419&#45;&gt;Node61427 -->
<g id="edge8" class="edge">
<title>Node61419&#45;&gt;Node61427</title>
<path fill="none" stroke="#191970" d="M117.4665,-200C136.4736,-200 156.6445,-200 173.2861,-200"/>
<polygon fill="#191970" stroke="#191970" points="117.3585,-196.5001 107.3584,-200 117.3584,-203.5001 117.3585,-196.5001"/>
</g>
<!-- Node61428 -->
<g id="node9" class="node">
<title>Node61428</title>
<g id="a_node9"><a xlink:href="quickjs_8c.html#a6c99d7581e100a5de07c9a24f4c7d34a" target="_top" xlink:title="JS_CopySubArray">
<polygon fill="none" stroke="#000000" points="161,-228.5 161,-247.5 259,-247.5 259,-228.5 161,-228.5"/>
<text text-anchor="middle" x="210" y="-235.5" font-family="Helvetica,sans-Serif" font-size="10.00" fill="#000000">JS_CopySubArray</text>
</a>
</g>
</g>
<!-- Node61419&#45;&gt;Node61428 -->
<g id="edge9" class="edge">
<title>Node61419&#45;&gt;Node61428</title>
<path fill="none" stroke="#191970" d="M102.7892,-211.968C124.7203,-217.2931 150.1849,-223.4762 170.7924,-228.4799"/>
<polygon fill="#191970" stroke="#191970" points="103.5351,-208.5475 92.9916,-209.589 101.8833,-215.3498 103.5351,-208.5475"/>
</g>
<!-- Node61431 -->
<g id="node12" class="node">
<title>Node61431</title>
<g id="a_node12"><a xlink:href="quickjs_8c.html#a41fc4304b39616e7be3500fe6ec881c2" target="_top" xlink:title="js_regexp_Symbol_match">
<polygon fill="none" stroke="#000000" points="145.5,-114.5 145.5,-133.5 274.5,-133.5 274.5,-114.5 145.5,-114.5"/>
<text text-anchor="middle" x="210" y="-121.5" font-family="Helvetica,sans-Serif" font-size="10.00" fill="#000000">js_regexp_Symbol_match</text>
</a>
</g>
</g>
<!-- Node61419&#45;&gt;Node61431 -->
<g id="edge16" class="edge">
<title>Node61419&#45;&gt;Node61431</title>
<path fill="none" stroke="#191970" d="M76.7757,-184.8959C94.4795,-173.8018 119.687,-158.8376 143,-148 154.6524,-142.5831 167.8948,-137.6065 179.5123,-133.6065"/>
<polygon fill="#191970" stroke="#191970" points="74.8216,-181.9906 68.2514,-190.3023 78.5708,-187.902 74.8216,-181.9906"/>
</g>
<!-- Node61432 -->
<g id="node13" class="node">
<title>Node61432</title>
<g id="a_node13"><a xlink:href="quickjs_8c.html#a6a77bcdb9f7f18c13c108c99a198708b" target="_top" xlink:title="js_regexp_Symbol_replace">
<polygon fill="none" stroke="#000000" points="143,-76.5 143,-95.5 277,-95.5 277,-76.5 143,-76.5"/>
<text text-anchor="middle" x="210" y="-83.5" font-family="Helvetica,sans-Serif" font-size="10.00" fill="#000000">js_regexp_Symbol_replace</text>
</a>
</g>
</g>
<!-- Node61419&#45;&gt;Node61432 -->
<g id="edge17" class="edge">
<title>Node61419&#45;&gt;Node61432</title>
<path fill="none" stroke="#191970" d="M65.6969,-182.0459C81.2,-160.5873 109.9536,-125.0688 143,-105 149.3039,-101.1717 156.4077,-98.0891 163.5723,-95.6141"/>
<polygon fill="#191970" stroke="#191970" points="62.784,-180.1036 59.8901,-190.2956 68.5082,-184.1327 62.784,-180.1036"/>
</g>
<!-- Node61433 -->
<g id="node14" class="node">
<title>Node61433</title>
<g id="a_node14"><a xlink:href="quickjs_8c.html#a79872a6d9d139e36d5d1894d16132024" target="_top" xlink:title="js_regexp_Symbol_split">
<polygon fill="none" stroke="#000000" points="150,-38.5 150,-57.5 270,-57.5 270,-38.5 150,-38.5"/>
<text text-anchor="middle" x="210" y="-45.5" font-family="Helvetica,sans-Serif" font-size="10.00" fill="#000000">js_regexp_Symbol_split</text>
</a>
</g>
</g>
<!-- Node61419&#45;&gt;Node61433 -->
<g id="edge18" class="edge">
<title>Node61419&#45;&gt;Node61433</title>
<path fill="none" stroke="#191970" d="M61.2116,-180.8161C73.8794,-151.761 101.8628,-96.8301 143,-67 148.3834,-63.0963 154.5462,-59.9929 160.9051,-57.5263"/>
<polygon fill="#191970" stroke="#191970" points="57.8923,-179.6806 57.2415,-190.2555 64.3448,-182.3945 57.8923,-179.6806"/>
</g>
<!-- Node61434 -->
<g id="node15" class="node">
<title>Node61434</title>
<g id="a_node15"><a xlink:href="quickjs_8c.html#a5f46f50deddd4e3a23da24e8173db28e" target="_top" xlink:title="js_typed_array_from">
<polygon fill="none" stroke="#000000" points="157.5,-.5 157.5,-19.5 262.5,-19.5 262.5,-.5 157.5,-.5"/>
<text text-anchor="middle" x="210" y="-7.5" font-family="Helvetica,sans-Serif" font-size="10.00" fill="#000000">js_typed_array_from</text>
</a>
</g>
</g>
<!-- Node61419&#45;&gt;Node61434 -->
<g id="edge19" class="edge">
<title>Node61419&#45;&gt;Node61434</title>
<path fill="none" stroke="#191970" d="M58.241,-180.4551C67.9005,-144.8589 93.2778,-69.4119 143,-29 147.7851,-25.1109 153.3227,-22.0173 159.1232,-19.5566"/>
<polygon fill="#191970" stroke="#191970" points="54.8516,-179.5823 55.7383,-190.1399 61.629,-181.3337 54.8516,-179.5823"/>
</g>
<!-- Node61422 -->
<g id="node4" class="node">
<title>Node61422</title>
<g id="a_node4"><a xlink:href="quickjs_8c.html#a60d84dd116a9d7d912d08f298a4734dd" target="_top" xlink:title="js_json_to_str">
<polygon fill="none" stroke="#000000" points="454,-266.5 454,-285.5 531,-285.5 531,-266.5 454,-266.5"/>
<text text-anchor="middle" x="492.5" y="-273.5" font-family="Helvetica,sans-Serif" font-size="10.00" fill="#000000">js_json_to_str</text>
</a>
</g>
</g>
<!-- Node61421&#45;&gt;Node61422 -->
<g id="edge3" class="edge">
<title>Node61421&#45;&gt;Node61422</title>
<path fill="none" stroke="#191970" d="M406.2153,-213.3159C410.2733,-215.0619 414.2681,-216.9604 418,-219 442.8655,-232.5895 468.3466,-254.0384 482.1192,-266.3848"/>
<polygon fill="#191970" stroke="#191970" points="407.3109,-209.9847 396.7261,-209.5244 404.7136,-216.485 407.3109,-209.9847"/>
</g>
<!-- Node61422&#45;&gt;Node61422 -->
<g id="edge4" class="edge">
<title>Node61422&#45;&gt;Node61422</title>
<path fill="none" stroke="#191970" d="M469.8066,-295.0292C471.0445,-300.128 478.6089,-304 492.5,-304 514.1836,-304 520.4515,-294.5653 511.3037,-285.7571"/>
<polygon fill="#191970" stroke="#191970" points="473.0553,-296.3325 473.6963,-285.7571 466.6003,-293.6246 473.0553,-296.3325"/>
</g>
<!-- Node61422&#45;&gt;Node61423 -->
<g id="edge5" class="edge">
<title>Node61422&#45;&gt;Node61423</title>
<path fill="none" stroke="#191970" d="M533.5445,-288.6804C550.1638,-293.8148 569.0322,-299.6441 584.4718,-304.4141"/>
<polygon fill="#191970" stroke="#191970" points="534.1257,-285.1968 523.5381,-285.589 532.0594,-291.8849 534.1257,-285.1968"/>
</g>
<!-- Node61428&#45;&gt;Node61421 -->
<g id="edge13" class="edge">
<title>Node61428&#45;&gt;Node61421</title>
<path fill="none" stroke="#191970" d="M259.0123,-226.0227C280.8902,-220.6763 306.301,-214.4666 326.812,-209.4543"/>
<polygon fill="#191970" stroke="#191970" points="258.1225,-222.6371 249.2392,-228.411 259.7843,-229.437 258.1225,-222.6371"/>
</g>
<!-- Node61428&#45;&gt;Node61426 -->
<g id="edge14" class="edge">
<title>Node61428&#45;&gt;Node61426</title>
<path fill="none" stroke="#191970" d="M265.5347,-251.1505C269.5252,-252.875 273.3929,-254.8163 277,-257 296.9016,-269.0482 293.538,-282.2538 313,-295 318.7573,-298.7706 325.3593,-301.9111 331.8947,-304.4811"/>
<polygon fill="#191970" stroke="#191970" points="266.6559,-247.8318 256.066,-247.5082 264.1427,-254.3651 266.6559,-247.8318"/>
</g>
<!-- Node61429 -->
<g id="node10" class="node">
<title>Node61429</title>
<g id="a_node10"><a xlink:href="quickjs_8c.html#a93380da0068e066053740a43c8d8f15a" target="_top" xlink:title="js_array_copyWithin">
<polygon fill="none" stroke="#000000" points="313,-228.5 313,-247.5 418,-247.5 418,-228.5 313,-228.5"/>
<text text-anchor="middle" x="365.5" y="-235.5" font-family="Helvetica,sans-Serif" font-size="10.00" fill="#000000">js_array_copyWithin</text>
</a>
</g>
</g>
<!-- Node61428&#45;&gt;Node61429 -->
<g id="edge10" class="edge">
<title>Node61428&#45;&gt;Node61429</title>
<path fill="none" stroke="#191970" d="M269.4257,-238C283.7211,-238 298.8929,-238 312.8548,-238"/>
<polygon fill="#191970" stroke="#191970" points="269.2012,-234.5001 259.2012,-238 269.2011,-241.5001 269.2012,-234.5001"/>
</g>
<!-- Node61430 -->
<g id="node11" class="node">
<title>Node61430</title>
<g id="a_node11"><a xlink:href="quickjs_8c.html#a01281ea66186a034a0e9021ee8c9f945" target="_top" xlink:title="js_array_pop">
<polygon fill="none" stroke="#000000" points="329.5,-266.5 329.5,-285.5 401.5,-285.5 401.5,-266.5 329.5,-266.5"/>
<text text-anchor="middle" x="365.5" y="-273.5" font-family="Helvetica,sans-Serif" font-size="10.00" fill="#000000">js_array_pop</text>
</a>
</g>
</g>
<!-- Node61428&#45;&gt;Node61430 -->
<g id="edge11" class="edge">
<title>Node61428&#45;&gt;Node61430</title>
<path fill="none" stroke="#191970" d="M259.0862,-249.9954C281.9034,-255.5712 308.5502,-262.083 329.471,-267.1955"/>
<polygon fill="#191970" stroke="#191970" points="259.7843,-246.563 249.2392,-247.589 258.1225,-253.3629 259.7843,-246.563"/>
</g>
<!-- Node61430&#45;&gt;Node61422 -->
<g id="edge12" class="edge">
<title>Node61430&#45;&gt;Node61422</title>
<path fill="none" stroke="#191970" d="M411.7956,-276C425.5481,-276 440.4649,-276 453.6895,-276"/>
<polygon fill="#191970" stroke="#191970" points="411.5534,-272.5001 401.5534,-276 411.5534,-279.5001 411.5534,-272.5001"/>
</g>
</g>
</svg>
