<?xml version="1.0" encoding="UTF-8" standalone="no"?>
<!DOCTYPE svg PUBLIC "-//W3C//DTD SVG 1.1//EN"
 "http://www.w3.org/Graphics/SVG/1.1/DTD/svg11.dtd">
<!-- Generated by graphviz version 2.40.1 (20161225.0304)
 -->
<!-- Title: js_typed_array_finalizer Pages: 1 -->
<svg width="625pt" height="130pt"
 viewBox="0.00 0.00 625.00 130.29" xmlns="http://www.w3.org/2000/svg" xmlns:xlink="http://www.w3.org/1999/xlink">
<g id="graph0" class="graph" transform="scale(1 1) rotate(0) translate(4 126.2936)">
<title>js_typed_array_finalizer</title>
<!-- Node482087 -->
<g id="node1" class="node">
<title>Node482087</title>
<polygon fill="#bfbfbf" stroke="#000000" points="0,-57.5 0,-76.5 119,-76.5 119,-57.5 0,-57.5"/>
<text text-anchor="middle" x="59.5" y="-64.5" font-family="Helvetica,sans-Serif" font-size="10.00" fill="#000000">js_typed_array_finalizer</text>
</g>
<!-- Node482088 -->
<g id="node2" class="node">
<title>Node482088</title>
<g id="a_node2"><a xlink:href="quickjs_8c.html#a69e19dda8a93d613203e0baa06f0ed8d" target="_top" xlink:title="js_free_rt">
<polygon fill="none" stroke="#000000" points="560,-95.5 560,-114.5 617,-114.5 617,-95.5 560,-95.5"/>
<text text-anchor="middle" x="588.5" y="-102.5" font-family="Helvetica,sans-Serif" font-size="10.00" fill="#000000">js_free_rt</text>
</a>
</g>
</g>
<!-- Node482087&#45;&gt;Node482088 -->
<g id="edge1" class="edge">
<title>Node482087&#45;&gt;Node482088</title>
<path fill="none" stroke="#191970" d="M77.9091,-76.6453C96.7038,-85.9284 127.0113,-99.3629 155,-105 298.2193,-133.8452 473.4954,-118.945 549.8628,-110.0562"/>
<polygon fill="#191970" stroke="#191970" points="550.4552,-113.5103 559.9686,-108.847 549.6235,-106.5599 550.4552,-113.5103"/>
</g>
<!-- Node482089 -->
<g id="node3" class="node">
<title>Node482089</title>
<g id="a_node3"><a xlink:href="quickjs_8h.html#ab8db583fa5e7c2b1935854a42859daed" target="_top" xlink:title="JS_FreeValueRT">
<polygon fill="none" stroke="#000000" points="155,-76.5 155,-95.5 247,-95.5 247,-76.5 155,-76.5"/>
<text text-anchor="middle" x="201" y="-83.5" font-family="Helvetica,sans-Serif" font-size="10.00" fill="#000000">JS_FreeValueRT</text>
</a>
</g>
</g>
<!-- Node482087&#45;&gt;Node482089 -->
<g id="edge2" class="edge">
<title>Node482087&#45;&gt;Node482089</title>
<path fill="none" stroke="#191970" d="M119.0986,-75.0026C127.5827,-76.1418 136.2862,-77.3105 144.7045,-78.4409"/>
<polygon fill="#191970" stroke="#191970" points="144.4208,-81.9341 154.7976,-79.7962 145.3524,-74.9964 144.4208,-81.9341"/>
</g>
<!-- Node482125 -->
<g id="node7" class="node">
<title>Node482125</title>
<g id="a_node7"><a xlink:href="quickjs_8c.html#a29960f49209111586a80ae87454f2bb8" target="_top" xlink:title="JS_IsLiveObject">
<polygon fill="none" stroke="#000000" points="156.5,-38.5 156.5,-57.5 245.5,-57.5 245.5,-38.5 156.5,-38.5"/>
<text text-anchor="middle" x="201" y="-45.5" font-family="Helvetica,sans-Serif" font-size="10.00" fill="#000000">JS_IsLiveObject</text>
</a>
</g>
</g>
<!-- Node482087&#45;&gt;Node482125 -->
<g id="edge8" class="edge">
<title>Node482087&#45;&gt;Node482125</title>
<path fill="none" stroke="#191970" d="M119.0986,-58.9974C128.0016,-57.8019 137.1463,-56.574 145.9495,-55.3919"/>
<polygon fill="#191970" stroke="#191970" points="146.6466,-58.8298 156.0918,-54.0301 145.715,-51.8921 146.6466,-58.8298"/>
</g>
<!-- Node482105 -->
<g id="node9" class="node">
<title>Node482105</title>
<g id="a_node9"><a xlink:href="list_8h.html#ab60d5d18869ebeb5d6ab694289576fa7" target="_top" xlink:title="list_del">
<polygon fill="none" stroke="#000000" points="177.5,-.5 177.5,-19.5 224.5,-19.5 224.5,-.5 177.5,-.5"/>
<text text-anchor="middle" x="201" y="-7.5" font-family="Helvetica,sans-Serif" font-size="10.00" fill="#000000">list_del</text>
</a>
</g>
</g>
<!-- Node482087&#45;&gt;Node482105 -->
<g id="edge10" class="edge">
<title>Node482087&#45;&gt;Node482105</title>
<path fill="none" stroke="#191970" d="M83.1839,-57.4595C106.3451,-48.1295 141.8222,-33.8384 167.7952,-23.3758"/>
<polygon fill="#191970" stroke="#191970" points="169.2709,-26.5547 177.2388,-19.5716 166.6553,-20.0617 169.2709,-26.5547"/>
</g>
<!-- Node482090 -->
<g id="node4" class="node">
<title>Node482090</title>
<g id="a_node4"><a xlink:href="quickjs_8c.html#ab1ea3fad7d138be12144a38be4d36423" target="_top" xlink:title="__JS_FreeValueRT">
<polygon fill="none" stroke="#000000" points="283,-76.5 283,-95.5 385,-95.5 385,-76.5 283,-76.5"/>
<text text-anchor="middle" x="334" y="-83.5" font-family="Helvetica,sans-Serif" font-size="10.00" fill="#000000">__JS_FreeValueRT</text>
</a>
</g>
</g>
<!-- Node482089&#45;&gt;Node482090 -->
<g id="edge3" class="edge">
<title>Node482089&#45;&gt;Node482090</title>
<path fill="none" stroke="#191970" d="M247.1437,-86C255.4482,-86 264.2214,-86 272.8726,-86"/>
<polygon fill="#191970" stroke="#191970" points="272.9369,-89.5001 282.9368,-86 272.9368,-82.5001 272.9369,-89.5001"/>
</g>
<!-- Node482090&#45;&gt;Node482088 -->
<g id="edge5" class="edge">
<title>Node482090&#45;&gt;Node482088</title>
<path fill="none" stroke="#191970" d="M385.1957,-89.8221C433.8412,-93.4538 505.9087,-98.834 549.8944,-102.1179"/>
<polygon fill="#191970" stroke="#191970" points="549.6724,-105.6109 559.9052,-102.8652 550.1936,-98.6304 549.6724,-105.6109"/>
</g>
<!-- Node482091 -->
<g id="node5" class="node">
<title>Node482091</title>
<g id="a_node5"><a xlink:href="quickjs_8c.html#a8defed3434f60d6b5d6a7ea202cc8f9d" target="_top" xlink:title="free_zero_refcount">
<polygon fill="none" stroke="#ff0000" points="423.5,-57.5 423.5,-76.5 521.5,-76.5 521.5,-57.5 423.5,-57.5"/>
<text text-anchor="middle" x="472.5" y="-64.5" font-family="Helvetica,sans-Serif" font-size="10.00" fill="#000000">free_zero_refcount</text>
</a>
</g>
</g>
<!-- Node482090&#45;&gt;Node482091 -->
<g id="edge4" class="edge">
<title>Node482090&#45;&gt;Node482091</title>
<path fill="none" stroke="#191970" d="M385.1788,-78.9791C394.3462,-77.7215 403.968,-76.4015 413.3379,-75.1161"/>
<polygon fill="#191970" stroke="#191970" points="413.9416,-78.5662 423.3731,-73.7394 412.9902,-71.6311 413.9416,-78.5662"/>
</g>
<!-- Node482099 -->
<g id="node6" class="node">
<title>Node482099</title>
<g id="a_node6"><a xlink:href="quickjs_8c.html#a58c8965dad50b15b75918a09f3d9dc7c" target="_top" xlink:title="JS_FreeAtomStruct">
<polygon fill="none" stroke="#ff0000" points="421,-19.5 421,-38.5 524,-38.5 524,-19.5 421,-19.5"/>
<text text-anchor="middle" x="472.5" y="-26.5" font-family="Helvetica,sans-Serif" font-size="10.00" fill="#000000">JS_FreeAtomStruct</text>
</a>
</g>
</g>
<!-- Node482090&#45;&gt;Node482099 -->
<g id="edge6" class="edge">
<title>Node482090&#45;&gt;Node482099</title>
<path fill="none" stroke="#191970" d="M361.5245,-76.485C369.2047,-73.6311 377.4979,-70.3603 385,-67 401.511,-59.6044 404.4772,-55.3693 421,-48 425.4443,-46.0178 430.1646,-44.0704 434.8739,-42.2229"/>
<polygon fill="#191970" stroke="#191970" points="436.3281,-45.4146 444.4333,-38.5914 433.8422,-38.8708 436.3281,-45.4146"/>
</g>
<!-- Node482099&#45;&gt;Node482088 -->
<g id="edge7" class="edge">
<title>Node482099&#45;&gt;Node482088</title>
<path fill="none" stroke="#191970" d="M504.1276,-38.5651C510.9035,-41.185 517.8643,-44.3338 524,-48 542.3104,-58.9408 560.2537,-75.4009 572.5471,-87.8245"/>
<polygon fill="#191970" stroke="#191970" points="570.2979,-90.5345 579.7568,-95.3072 575.3387,-85.6775 570.2979,-90.5345"/>
</g>
<!-- Node482126 -->
<g id="node8" class="node">
<title>Node482126</title>
<g id="a_node8"><a xlink:href="quickjs_8h.html#a3d68fe446df2d9c7d1900b16371bff5b" target="_top" xlink:title="JS_IsObject">
<polygon fill="none" stroke="#000000" points="298.5,-38.5 298.5,-57.5 369.5,-57.5 369.5,-38.5 298.5,-38.5"/>
<text text-anchor="middle" x="334" y="-45.5" font-family="Helvetica,sans-Serif" font-size="10.00" fill="#000000">JS_IsObject</text>
</a>
</g>
</g>
<!-- Node482125&#45;&gt;Node482126 -->
<g id="edge9" class="edge">
<title>Node482125&#45;&gt;Node482126</title>
<path fill="none" stroke="#191970" d="M245.6571,-48C259.368,-48 274.4727,-48 288.2553,-48"/>
<polygon fill="#191970" stroke="#191970" points="288.4923,-51.5001 298.4922,-48 288.4922,-44.5001 288.4923,-51.5001"/>
</g>
</g>
</svg>
