<?xml version="1.0" encoding="UTF-8" standalone="no"?>
<!DOCTYPE svg PUBLIC "-//W3C//DTD SVG 1.1//EN"
 "http://www.w3.org/Graphics/SVG/1.1/DTD/svg11.dtd">
<!-- Generated by graphviz version 2.40.1 (20161225.0304)
 -->
<!-- Title: JS_AddIntrinsicStringNormalize Pages: 1 -->
<svg width="510pt" height="28pt"
 viewBox="0.00 0.00 510.00 28.00" xmlns="http://www.w3.org/2000/svg" xmlns:xlink="http://www.w3.org/1999/xlink">
<g id="graph0" class="graph" transform="scale(1 1) rotate(0) translate(4 24)">
<title>JS_AddIntrinsicStringNormalize</title>
<!-- Node7738 -->
<g id="node1" class="node">
<title>Node7738</title>
<polygon fill="#bfbfbf" stroke="#000000" points="0,-.5 0,-19.5 155,-19.5 155,-.5 0,-.5"/>
<text text-anchor="middle" x="77.5" y="-7.5" font-family="Helvetica,sans-Serif" font-size="10.00" fill="#000000">JS_AddIntrinsicStringNormalize</text>
</g>
<!-- Node7739 -->
<g id="node2" class="node">
<title>Node7739</title>
<g id="a_node2"><a xlink:href="quickjs_8c.html#ad8aedb643b8753b7a15f6cb2df61945e" target="_top" xlink:title="JS_NewContext">
<polygon fill="none" stroke="#000000" points="191,-.5 191,-19.5 280,-19.5 280,-.5 191,-.5"/>
<text text-anchor="middle" x="235.5" y="-7.5" font-family="Helvetica,sans-Serif" font-size="10.00" fill="#000000">JS_NewContext</text>
</a>
</g>
</g>
<!-- Node7738&#45;&gt;Node7739 -->
<g id="edge1" class="edge">
<title>Node7738&#45;&gt;Node7739</title>
<path fill="none" stroke="#191970" d="M165.3683,-10C174.0708,-10 182.6278,-10 190.6099,-10"/>
<polygon fill="#191970" stroke="#191970" points="165.1114,-6.5001 155.1114,-10 165.1114,-13.5001 165.1114,-6.5001"/>
</g>
<!-- Node7740 -->
<g id="node3" class="node">
<title>Node7740</title>
<g id="a_node3"><a xlink:href="quickjs-libc_8c.html#a1fbb3adc15e7b967479fc1940e99b67a" target="_top" xlink:title="worker_func">
<polygon fill="none" stroke="#000000" points="316,-.5 316,-19.5 386,-19.5 386,-.5 316,-.5"/>
<text text-anchor="middle" x="351" y="-7.5" font-family="Helvetica,sans-Serif" font-size="10.00" fill="#000000">worker_func</text>
</a>
</g>
</g>
<!-- Node7739&#45;&gt;Node7740 -->
<g id="edge2" class="edge">
<title>Node7739&#45;&gt;Node7740</title>
<path fill="none" stroke="#191970" d="M290.2535,-10C298.9312,-10 307.6994,-10 315.7714,-10"/>
<polygon fill="#191970" stroke="#191970" points="290.1554,-6.5001 280.1553,-10 290.1553,-13.5001 290.1554,-6.5001"/>
</g>
<!-- Node7741 -->
<g id="node4" class="node">
<title>Node7741</title>
<g id="a_node4"><a xlink:href="quickjs-libc_8c.html#aff1e6131e8bf8b7eb25307623ad669e7" target="_top" xlink:title="js_worker_ctor">
<polygon fill="none" stroke="#ff0000" points="422,-.5 422,-19.5 502,-19.5 502,-.5 422,-.5"/>
<text text-anchor="middle" x="462" y="-7.5" font-family="Helvetica,sans-Serif" font-size="10.00" fill="#000000">js_worker_ctor</text>
</a>
</g>
</g>
<!-- Node7740&#45;&gt;Node7741 -->
<g id="edge3" class="edge">
<title>Node7740&#45;&gt;Node7741</title>
<path fill="none" stroke="#191970" d="M396.1986,-10C404.6394,-10 413.4096,-10 421.691,-10"/>
<polygon fill="#191970" stroke="#191970" points="396.1211,-6.5001 386.1211,-10 396.1211,-13.5001 396.1211,-6.5001"/>
</g>
</g>
</svg>
