<?xml version="1.0" encoding="UTF-8" standalone="no"?>
<!DOCTYPE svg PUBLIC "-//W3C//DTD SVG 1.1//EN"
 "http://www.w3.org/Graphics/SVG/1.1/DTD/svg11.dtd">
<!-- Generated by graphviz version 2.40.1 (20161225.0304)
 -->
<!-- Title: js_proxy_revoke Pages: 1 -->
<svg width="411pt" height="28pt"
 viewBox="0.00 0.00 411.00 28.00" xmlns="http://www.w3.org/2000/svg" xmlns:xlink="http://www.w3.org/1999/xlink">
<g id="graph0" class="graph" transform="scale(1 1) rotate(0) translate(4 24)">
<title>js_proxy_revoke</title>
<!-- Node444246 -->
<g id="node1" class="node">
<title>Node444246</title>
<polygon fill="#bfbfbf" stroke="#000000" points="0,-.5 0,-19.5 88,-19.5 88,-.5 0,-.5"/>
<text text-anchor="middle" x="44" y="-7.5" font-family="Helvetica,sans-Serif" font-size="10.00" fill="#000000">js_proxy_revoke</text>
</g>
<!-- Node444247 -->
<g id="node2" class="node">
<title>Node444247</title>
<g id="a_node2"><a xlink:href="quickjs_8c.html#adf2952dd52aa03ebcd2e60880eb1b05c" target="_top" xlink:title="js_proxy_revoke_constructor">
<polygon fill="none" stroke="#000000" points="124,-.5 124,-19.5 266,-19.5 266,-.5 124,-.5"/>
<text text-anchor="middle" x="195" y="-7.5" font-family="Helvetica,sans-Serif" font-size="10.00" fill="#000000">js_proxy_revoke_constructor</text>
</a>
</g>
</g>
<!-- Node444246&#45;&gt;Node444247 -->
<g id="edge1" class="edge">
<title>Node444246&#45;&gt;Node444247</title>
<path fill="none" stroke="#191970" d="M98.3475,-10C106.635,-10 115.2924,-10 123.8741,-10"/>
<polygon fill="#191970" stroke="#191970" points="98.0814,-6.5001 88.0814,-10 98.0813,-13.5001 98.0814,-6.5001"/>
</g>
<!-- Node444248 -->
<g id="node3" class="node">
<title>Node444248</title>
<g id="a_node3"><a xlink:href="quickjs_8c.html#a537862df2984a40ceb9be7878c497cd2" target="_top" xlink:title="js_proxy_revocable">
<polygon fill="none" stroke="#000000" points="302,-.5 302,-19.5 403,-19.5 403,-.5 302,-.5"/>
<text text-anchor="middle" x="352.5" y="-7.5" font-family="Helvetica,sans-Serif" font-size="10.00" fill="#000000">js_proxy_revocable</text>
</a>
</g>
</g>
<!-- Node444247&#45;&gt;Node444248 -->
<g id="edge2" class="edge">
<title>Node444247&#45;&gt;Node444248</title>
<path fill="none" stroke="#191970" d="M276.4325,-10C285.0026,-10 293.5303,-10 301.6089,-10"/>
<polygon fill="#191970" stroke="#191970" points="276.3768,-6.5001 266.3768,-10 276.3768,-13.5001 276.3768,-6.5001"/>
</g>
</g>
</svg>
