<?xml version="1.0" encoding="UTF-8" standalone="no"?>
<!DOCTYPE svg PUBLIC "-//W3C//DTD SVG 1.1//EN"
 "http://www.w3.org/Graphics/SVG/1.1/DTD/svg11.dtd">
<!-- Generated by graphviz version 2.40.1 (20161225.0304)
 -->
<!-- Title: JS_AddIntrinsicEval Pages: 1 -->
<svg width="460pt" height="28pt"
 viewBox="0.00 0.00 460.00 28.00" xmlns="http://www.w3.org/2000/svg" xmlns:xlink="http://www.w3.org/1999/xlink">
<g id="graph0" class="graph" transform="scale(1 1) rotate(0) translate(4 24)">
<title>JS_AddIntrinsicEval</title>
<!-- Node7296 -->
<g id="node1" class="node">
<title>Node7296</title>
<polygon fill="#bfbfbf" stroke="#000000" points="0,-.5 0,-19.5 105,-19.5 105,-.5 0,-.5"/>
<text text-anchor="middle" x="52.5" y="-7.5" font-family="Helvetica,sans-Serif" font-size="10.00" fill="#000000">JS_AddIntrinsicEval</text>
</g>
<!-- Node7297 -->
<g id="node2" class="node">
<title>Node7297</title>
<g id="a_node2"><a xlink:href="quickjs_8c.html#ad8aedb643b8753b7a15f6cb2df61945e" target="_top" xlink:title="JS_NewContext">
<polygon fill="none" stroke="#000000" points="141,-.5 141,-19.5 230,-19.5 230,-.5 141,-.5"/>
<text text-anchor="middle" x="185.5" y="-7.5" font-family="Helvetica,sans-Serif" font-size="10.00" fill="#000000">JS_NewContext</text>
</a>
</g>
</g>
<!-- Node7296&#45;&gt;Node7297 -->
<g id="edge1" class="edge">
<title>Node7296&#45;&gt;Node7297</title>
<path fill="none" stroke="#191970" d="M115.0996,-10C123.7114,-10 132.4107,-10 140.6171,-10"/>
<polygon fill="#191970" stroke="#191970" points="115.0652,-6.5001 105.0651,-10 115.0651,-13.5001 115.0652,-6.5001"/>
</g>
<!-- Node7298 -->
<g id="node3" class="node">
<title>Node7298</title>
<g id="a_node3"><a xlink:href="quickjs-libc_8c.html#a1fbb3adc15e7b967479fc1940e99b67a" target="_top" xlink:title="worker_func">
<polygon fill="none" stroke="#000000" points="266,-.5 266,-19.5 336,-19.5 336,-.5 266,-.5"/>
<text text-anchor="middle" x="301" y="-7.5" font-family="Helvetica,sans-Serif" font-size="10.00" fill="#000000">worker_func</text>
</a>
</g>
</g>
<!-- Node7297&#45;&gt;Node7298 -->
<g id="edge2" class="edge">
<title>Node7297&#45;&gt;Node7298</title>
<path fill="none" stroke="#191970" d="M240.2535,-10C248.9312,-10 257.6994,-10 265.7714,-10"/>
<polygon fill="#191970" stroke="#191970" points="240.1554,-6.5001 230.1553,-10 240.1553,-13.5001 240.1554,-6.5001"/>
</g>
<!-- Node7299 -->
<g id="node4" class="node">
<title>Node7299</title>
<g id="a_node4"><a xlink:href="quickjs-libc_8c.html#aff1e6131e8bf8b7eb25307623ad669e7" target="_top" xlink:title="js_worker_ctor">
<polygon fill="none" stroke="#ff0000" points="372,-.5 372,-19.5 452,-19.5 452,-.5 372,-.5"/>
<text text-anchor="middle" x="412" y="-7.5" font-family="Helvetica,sans-Serif" font-size="10.00" fill="#000000">js_worker_ctor</text>
</a>
</g>
</g>
<!-- Node7298&#45;&gt;Node7299 -->
<g id="edge3" class="edge">
<title>Node7298&#45;&gt;Node7299</title>
<path fill="none" stroke="#191970" d="M346.1986,-10C354.6394,-10 363.4096,-10 371.691,-10"/>
<polygon fill="#191970" stroke="#191970" points="346.1211,-6.5001 336.1211,-10 346.1211,-13.5001 346.1211,-6.5001"/>
</g>
</g>
</svg>
