<?xml version="1.0" encoding="UTF-8" standalone="no"?>
<!DOCTYPE svg PUBLIC "-//W3C//DTD SVG 1.1//EN"
 "http://www.w3.org/Graphics/SVG/1.1/DTD/svg11.dtd">
<!-- Generated by graphviz version 2.40.1 (20161225.0304)
 -->
<!-- Title: js_async_from_sync_iterator_unwrap Pages: 1 -->
<svg width="407pt" height="50pt"
 viewBox="0.00 0.00 407.00 50.00" xmlns="http://www.w3.org/2000/svg" xmlns:xlink="http://www.w3.org/1999/xlink">
<g id="graph0" class="graph" transform="scale(1 1) rotate(0) translate(4 46)">
<title>js_async_from_sync_iterator_unwrap</title>
<!-- Node459461 -->
<g id="node1" class="node">
<title>Node459461</title>
<polygon fill="#bfbfbf" stroke="#000000" points="0,-6 0,-36 107,-36 107,-6 0,-6"/>
<text text-anchor="start" x="8" y="-24" font-family="Helvetica,sans-Serif" font-size="10.00" fill="#000000">js_async_from_sync</text>
<text text-anchor="middle" x="53.5" y="-13" font-family="Helvetica,sans-Serif" font-size="10.00" fill="#000000">_iterator_unwrap</text>
</g>
<!-- Node459462 -->
<g id="node2" class="node">
<title>Node459462</title>
<g id="a_node2"><a xlink:href="quickjs_8c.html#affd006b08d57cbfbfbfb8f146575c6d9" target="_top" xlink:title="js_async_from_sync\l_iterator_unwrap_func\l_create">
<polygon fill="none" stroke="#000000" points="143,-.5 143,-41.5 256,-41.5 256,-.5 143,-.5"/>
<text text-anchor="start" x="151" y="-29.5" font-family="Helvetica,sans-Serif" font-size="10.00" fill="#000000">js_async_from_sync</text>
<text text-anchor="start" x="151" y="-18.5" font-family="Helvetica,sans-Serif" font-size="10.00" fill="#000000">_iterator_unwrap_func</text>
<text text-anchor="middle" x="199.5" y="-7.5" font-family="Helvetica,sans-Serif" font-size="10.00" fill="#000000">_create</text>
</a>
</g>
</g>
<!-- Node459461&#45;&gt;Node459462 -->
<g id="edge1" class="edge">
<title>Node459461&#45;&gt;Node459462</title>
<path fill="none" stroke="#191970" d="M117.2027,-21C125.6312,-21 134.2279,-21 142.5332,-21"/>
<polygon fill="#191970" stroke="#191970" points="117.036,-17.5001 107.036,-21 117.0359,-24.5001 117.036,-17.5001"/>
</g>
<!-- Node459463 -->
<g id="node3" class="node">
<title>Node459463</title>
<g id="a_node3"><a xlink:href="quickjs_8c.html#aa45afa6d2861615f29444c9614ce766a" target="_top" xlink:title="js_async_from_sync\l_iterator_next">
<polygon fill="none" stroke="#000000" points="292,-6 292,-36 399,-36 399,-6 292,-6"/>
<text text-anchor="start" x="300" y="-24" font-family="Helvetica,sans-Serif" font-size="10.00" fill="#000000">js_async_from_sync</text>
<text text-anchor="middle" x="345.5" y="-13" font-family="Helvetica,sans-Serif" font-size="10.00" fill="#000000">_iterator_next</text>
</a>
</g>
</g>
<!-- Node459462&#45;&gt;Node459463 -->
<g id="edge2" class="edge">
<title>Node459462&#45;&gt;Node459463</title>
<path fill="none" stroke="#191970" d="M266.6174,-21C275.0908,-21 283.6706,-21 291.8961,-21"/>
<polygon fill="#191970" stroke="#191970" points="266.3655,-17.5001 256.3655,-21 266.3654,-24.5001 266.3655,-17.5001"/>
</g>
</g>
</svg>
