<?xml version="1.0" encoding="UTF-8" standalone="no"?>
<!DOCTYPE svg PUBLIC "-//W3C//DTD SVG 1.1//EN"
 "http://www.w3.org/Graphics/SVG/1.1/DTD/svg11.dtd">
<!-- Generated by graphviz version 2.40.1 (20161225.0304)
 -->
<!-- Title: get_date_field Pages: 1 -->
<!--zoomable 208 -->
<svg id="main" version="1.1" xmlns="http://www.w3.org/2000/svg" xmlns:xlink="http://www.w3.org/1999/xlink" xml:space="preserve" onload="init(evt)">
<style type="text/css"><![CDATA[
.edge:hover path { stroke: red; }
.edge:hover polygon { stroke: red; fill: red; }
]]></style>
<script type="text/javascript"><![CDATA[
var edges = document.getElementsByTagName('g');
if (edges && edges.length) {
  for (var i=0;i<edges.length;i++) {
    if (edges[i].id.substr(0,4)=='edge') {
      edges[i].setAttribute('class','edge');
    }
  }
}
]]></script>
        <defs>
                <circle id="rim" cx="0" cy="0" r="7"/>
                <circle id="rim2" cx="0" cy="0" r="3.5"/>
                <g id="zoomPlus">
                        <use xlink:href="#rim" fill="#404040">
                                <set attributeName="fill" to="#808080" begin="zoomplus.mouseover" end="zoomplus.mouseout"/>
                        </use>
                        <path d="M-4,0h8M0,-4v8" fill="none" stroke="white" stroke-width="1.5" pointer-events="none"/>
                </g>
                <g id="zoomMin">
                        <use xlink:href="#rim" fill="#404040">
                                <set attributeName="fill" to="#808080" begin="zoomminus.mouseover" end="zoomminus.mouseout"/>
                        </use>
                        <path d="M-4,0h8" fill="none" stroke="white" stroke-width="1.5" pointer-events="none"/>
                </g>
                <g id="dirArrow">
                        <path fill="none" stroke="white" stroke-width="1.5" d="M0,-3.0v7 M-2.5,-0.5L0,-3.0L2.5,-0.5"/>
                </g>
               <g id="resetDef">
                       <use xlink:href="#rim2" fill="#404040">
                               <set attributeName="fill" to="#808080" begin="reset.mouseover" end="reset.mouseout"/>
                       </use>
               </g>
        </defs>

<script type="text/javascript">
var viewWidth = 551;
var viewHeight = 208;
var sectionId = 'dynsection-1787';
</script>
<script xlink:href="svgpan.js"/>
<svg id="graph" class="graph">
<g id="viewport">
<title>get_date_field</title>
<!-- Node464142 -->
<g id="node1" class="node">
<title>Node464142</title>
<polygon fill="#bfbfbf" stroke="#000000" points="0,-66.5 0,-85.5 77,-85.5 77,-66.5 0,-66.5"/>
<text text-anchor="middle" x="38.5" y="-73.5" font-family="Helvetica,sans-Serif" font-size="10.00" fill="#000000">get_date_field</text>
</g>
<!-- Node464143 -->
<g id="node2" class="node">
<title>Node464143</title>
<g id="a_node2"><a xlink:href="quickjs_8c.html#af947cce291c0879ea04c45f257d7e540" target="_top" xlink:title="get_date_fields">
<polygon fill="none" stroke="#000000" points="113,-85.5 113,-104.5 196,-104.5 196,-85.5 113,-85.5"/>
<text text-anchor="middle" x="154.5" y="-92.5" font-family="Helvetica,sans-Serif" font-size="10.00" fill="#000000">get_date_fields</text>
</a>
</g>
</g>
<!-- Node464142&#45;&gt;Node464143 -->
<g id="edge1" class="edge">
<title>Node464142&#45;&gt;Node464143</title>
<path fill="none" stroke="#191970" d="M77.1263,-82.3267C85.3688,-83.6768 94.2011,-85.1235 102.8433,-86.539"/>
<polygon fill="#191970" stroke="#191970" points="102.4201,-90.0162 112.8543,-88.1787 103.5516,-83.1083 102.4201,-90.0162"/>
</g>
<!-- Node464414 -->
<g id="node12" class="node">
<title>Node464414</title>
<g id="a_node12"><a xlink:href="quickjs_8h.html#a6acbc709e59969eac6775f9b253b438f" target="_top" xlink:title="JS_NewInt64">
<polygon fill="none" stroke="#ff0000" points="116.5,-47.5 116.5,-66.5 192.5,-66.5 192.5,-47.5 116.5,-47.5"/>
<text text-anchor="middle" x="154.5" y="-54.5" font-family="Helvetica,sans-Serif" font-size="10.00" fill="#000000">JS_NewInt64</text>
</a>
</g>
</g>
<!-- Node464142&#45;&gt;Node464414 -->
<g id="edge13" class="edge">
<title>Node464142&#45;&gt;Node464414</title>
<path fill="none" stroke="#191970" d="M77.1263,-69.6733C86.5181,-68.135 96.6756,-66.4712 106.445,-64.8711"/>
<polygon fill="#191970" stroke="#191970" points="107.1342,-68.3049 116.4369,-63.2345 106.0027,-61.397 107.1342,-68.3049"/>
</g>
<!-- Node464144 -->
<g id="node3" class="node">
<title>Node464144</title>
<g id="a_node3"><a xlink:href="quickjs_8c.html#a021e07d41b6d7239b3b44e7cbdff7a15" target="_top" xlink:title="days_in_year">
<polygon fill="none" stroke="#000000" points="374,-76.5 374,-95.5 448,-95.5 448,-76.5 374,-76.5"/>
<text text-anchor="middle" x="411" y="-83.5" font-family="Helvetica,sans-Serif" font-size="10.00" fill="#000000">days_in_year</text>
</a>
</g>
</g>
<!-- Node464143&#45;&gt;Node464144 -->
<g id="edge2" class="edge">
<title>Node464143&#45;&gt;Node464144</title>
<path fill="none" stroke="#191970" d="M196.282,-93.534C242.174,-91.9237 315.7152,-89.3433 363.6941,-87.6599"/>
<polygon fill="#191970" stroke="#191970" points="363.9505,-91.1531 373.8216,-87.3045 363.705,-84.1574 363.9505,-91.1531"/>
</g>
<!-- Node464145 -->
<g id="node4" class="node">
<title>Node464145</title>
<g id="a_node4"><a xlink:href="quickjs_8c.html#adecade3bf915770c66e0a27bc3458343" target="_top" xlink:title="getTimezoneOffset">
<polygon fill="none" stroke="#000000" points="232,-123.5 232,-142.5 332,-142.5 332,-123.5 232,-123.5"/>
<text text-anchor="middle" x="282" y="-130.5" font-family="Helvetica,sans-Serif" font-size="10.00" fill="#000000">getTimezoneOffset</text>
</a>
</g>
</g>
<!-- Node464143&#45;&gt;Node464145 -->
<g id="edge3" class="edge">
<title>Node464143&#45;&gt;Node464145</title>
<path fill="none" stroke="#191970" d="M186.6736,-104.589C202.8307,-109.4044 222.608,-115.2988 239.9518,-120.468"/>
<polygon fill="#191970" stroke="#191970" points="239.2535,-123.912 249.8367,-123.4141 241.2529,-117.2036 239.2535,-123.912"/>
</g>
<!-- Node464146 -->
<g id="node5" class="node">
<title>Node464146</title>
<g id="a_node5"><a xlink:href="quickjs_8c.html#a5ec6b290012ff91cab9950078724eea2" target="_top" xlink:title="JS_ThisTimeValue">
<polygon fill="none" stroke="#000000" points="232.5,-161.5 232.5,-180.5 331.5,-180.5 331.5,-161.5 232.5,-161.5"/>
<text text-anchor="middle" x="282" y="-168.5" font-family="Helvetica,sans-Serif" font-size="10.00" fill="#000000">JS_ThisTimeValue</text>
</a>
</g>
</g>
<!-- Node464143&#45;&gt;Node464146 -->
<g id="edge4" class="edge">
<title>Node464143&#45;&gt;Node464146</title>
<path fill="none" stroke="#191970" d="M165.4046,-104.5202C179.8463,-116.7638 206.4771,-138.1016 232,-152 235.6699,-153.9984 239.5946,-155.8814 243.5711,-157.6277"/>
<polygon fill="#191970" stroke="#191970" points="242.2684,-160.8763 252.848,-161.4445 244.9318,-154.4028 242.2684,-160.8763"/>
</g>
<!-- Node464578 -->
<g id="node8" class="node">
<title>Node464578</title>
<g id="a_node8"><a xlink:href="quickjs_8c.html#a5fe9e1898e97028fbd772ebc1e914ba8" target="_top" xlink:title="math_mod">
<polygon fill="none" stroke="#000000" points="251,-47.5 251,-66.5 313,-66.5 313,-47.5 251,-47.5"/>
<text text-anchor="middle" x="282" y="-54.5" font-family="Helvetica,sans-Serif" font-size="10.00" fill="#000000">math_mod</text>
</a>
</g>
</g>
<!-- Node464143&#45;&gt;Node464578 -->
<g id="edge7" class="edge">
<title>Node464143&#45;&gt;Node464578</title>
<path fill="none" stroke="#191970" d="M186.6736,-85.411C203.0773,-80.522 223.2127,-74.5209 240.7445,-69.2958"/>
<polygon fill="#191970" stroke="#191970" points="242.1345,-72.5337 250.7182,-66.3232 240.135,-65.8253 242.1345,-72.5337"/>
</g>
<!-- Node464579 -->
<g id="node9" class="node">
<title>Node464579</title>
<g id="a_node9"><a xlink:href="quickjs_8c.html#ad184eda067dc335c96fe9074d2da9a3d" target="_top" xlink:title="year_from_days">
<polygon fill="none" stroke="#000000" points="239,-9.5 239,-28.5 325,-28.5 325,-9.5 239,-9.5"/>
<text text-anchor="middle" x="282" y="-16.5" font-family="Helvetica,sans-Serif" font-size="10.00" fill="#000000">year_from_days</text>
</a>
</g>
</g>
<!-- Node464143&#45;&gt;Node464579 -->
<g id="edge8" class="edge">
<title>Node464143&#45;&gt;Node464579</title>
<path fill="none" stroke="#191970" d="M179.4984,-85.4318C185.1564,-82.7641 190.9728,-79.5957 196,-76 214.9225,-62.4658 212.64,-50.9005 232,-38 234.8689,-36.0883 237.9572,-34.3315 241.141,-32.7249"/>
<polygon fill="#191970" stroke="#191970" points="242.5999,-35.9064 250.2635,-28.5907 239.7104,-29.5306 242.5999,-35.9064"/>
</g>
<!-- Node464147 -->
<g id="node6" class="node">
<title>Node464147</title>
<g id="a_node6"><a xlink:href="quickjs_8h.html#ab995df176086f2a2a06ab777d4c4ef28" target="_top" xlink:title="JS_IsNumber">
<polygon fill="none" stroke="#000000" points="372.5,-180.5 372.5,-199.5 449.5,-199.5 449.5,-180.5 372.5,-180.5"/>
<text text-anchor="middle" x="411" y="-187.5" font-family="Helvetica,sans-Serif" font-size="10.00" fill="#000000">JS_IsNumber</text>
</a>
</g>
</g>
<!-- Node464146&#45;&gt;Node464147 -->
<g id="edge5" class="edge">
<title>Node464146&#45;&gt;Node464147</title>
<path fill="none" stroke="#191970" d="M331.5058,-178.2916C341.5253,-179.7673 352.0558,-181.3183 362.0558,-182.7912"/>
<polygon fill="#191970" stroke="#191970" points="361.8378,-186.2967 372.2411,-184.2913 362.8579,-179.3715 361.8378,-186.2967"/>
</g>
<!-- Node464148 -->
<g id="node7" class="node">
<title>Node464148</title>
<g id="a_node7"><a xlink:href="quickjs_8c.html#a8cc9386cd04cfa067d0c6bf588c6bb58" target="_top" xlink:title="JS_ToFloat64">
<polygon fill="none" stroke="#ff0000" points="372.5,-142.5 372.5,-161.5 449.5,-161.5 449.5,-142.5 372.5,-142.5"/>
<text text-anchor="middle" x="411" y="-149.5" font-family="Helvetica,sans-Serif" font-size="10.00" fill="#000000">JS_ToFloat64</text>
</a>
</g>
</g>
<!-- Node464146&#45;&gt;Node464148 -->
<g id="edge6" class="edge">
<title>Node464146&#45;&gt;Node464148</title>
<path fill="none" stroke="#191970" d="M331.5058,-163.7084C341.5253,-162.2327 352.0558,-160.6817 362.0558,-159.2088"/>
<polygon fill="#191970" stroke="#191970" points="362.8579,-162.6285 372.2411,-157.7087 361.8378,-155.7033 362.8579,-162.6285"/>
</g>
<!-- Node464579&#45;&gt;Node464144 -->
<g id="edge11" class="edge">
<title>Node464579&#45;&gt;Node464144</title>
<path fill="none" stroke="#191970" d="M309.892,-28.5673C317.1993,-31.3521 324.9917,-34.5751 332,-38 351.7672,-47.6602 373.0188,-60.7396 388.496,-70.8056"/>
<polygon fill="#191970" stroke="#191970" points="386.6109,-73.7549 396.8867,-76.3355 390.463,-67.9101 386.6109,-73.7549"/>
</g>
<!-- Node464580 -->
<g id="node10" class="node">
<title>Node464580</title>
<g id="a_node10"><a xlink:href="quickjs_8c.html#a3f5def6f020bd1c429735f0b1d079b5e" target="_top" xlink:title="days_from_year">
<polygon fill="none" stroke="#000000" points="368,-19.5 368,-38.5 454,-38.5 454,-19.5 368,-19.5"/>
<text text-anchor="middle" x="411" y="-26.5" font-family="Helvetica,sans-Serif" font-size="10.00" fill="#000000">days_from_year</text>
</a>
</g>
</g>
<!-- Node464579&#45;&gt;Node464580 -->
<g id="edge9" class="edge">
<title>Node464579&#45;&gt;Node464580</title>
<path fill="none" stroke="#191970" d="M325.314,-22.3577C335.6311,-23.1574 346.7617,-24.0203 357.476,-24.8509"/>
<polygon fill="#191970" stroke="#191970" points="357.3401,-28.3507 367.5807,-25.6342 357.8812,-21.3717 357.3401,-28.3507"/>
</g>
<!-- Node464581 -->
<g id="node11" class="node">
<title>Node464581</title>
<g id="a_node11"><a xlink:href="quickjs_8c.html#ad1e54b2564697a7a9d7838321308dd54" target="_top" xlink:title="floor_div">
<polygon fill="none" stroke="#000000" points="490,-.5 490,-19.5 543,-19.5 543,-.5 490,-.5"/>
<text text-anchor="middle" x="516.5" y="-7.5" font-family="Helvetica,sans-Serif" font-size="10.00" fill="#000000">floor_div</text>
</a>
</g>
</g>
<!-- Node464579&#45;&gt;Node464581 -->
<g id="edge12" class="edge">
<title>Node464579&#45;&gt;Node464581</title>
<path fill="none" stroke="#191970" d="M325.2401,-13.5852C338.8957,-12.1143 354.0577,-10.7276 368,-10 406.116,-8.011 449.81,-8.3225 479.8834,-8.9389"/>
<polygon fill="#191970" stroke="#191970" points="479.8444,-12.4388 489.9212,-9.1664 480.0031,-5.4406 479.8444,-12.4388"/>
</g>
<!-- Node464580&#45;&gt;Node464581 -->
<g id="edge10" class="edge">
<title>Node464580&#45;&gt;Node464581</title>
<path fill="none" stroke="#191970" d="M454.2153,-21.2172C462.6977,-19.6895 471.5203,-18.1006 479.7661,-16.6156"/>
<polygon fill="#191970" stroke="#191970" points="480.6119,-20.0197 489.8332,-14.8026 479.3711,-13.1305 480.6119,-20.0197"/>
</g>
</g>
</svg>
        <g id="navigator" transform="translate(0 0)" fill="#404254">
                <rect fill="#f2f5e9" fill-opacity="0.5" stroke="#606060" stroke-width=".5" x="0" y="0" width="60" height="60"/>
                <use id="zoomplus" xlink:href="#zoomPlus" x="17" y="9" onmousedown="handleZoom(evt,'in')"/>
                <use id="zoomminus" xlink:href="#zoomMin" x="42" y="9" onmousedown="handleZoom(evt,'out')"/>
                <use id="reset" xlink:href="#resetDef" x="30" y="36" onmousedown="handleReset()"/>
                <g id="arrowUp" xlink:href="#dirArrow" transform="translate(30 24)" onmousedown="handlePan(0,-1)">
                  <use xlink:href="#rim" fill="#404040">
                        <set attributeName="fill" to="#808080" begin="arrowUp.mouseover" end="arrowUp.mouseout"/>
                  </use>
                  <path fill="none" stroke="white" stroke-width="1.5" d="M0,-3.0v7 M-2.5,-0.5L0,-3.0L2.5,-0.5"/>
                </g>
                <g id="arrowRight" xlink:href="#dirArrow" transform="rotate(90) translate(36 -43)" onmousedown="handlePan(1,0)">
                  <use xlink:href="#rim" fill="#404040">
                        <set attributeName="fill" to="#808080" begin="arrowRight.mouseover" end="arrowRight.mouseout"/>
                  </use>
                  <path fill="none" stroke="white" stroke-width="1.5" d="M0,-3.0v7 M-2.5,-0.5L0,-3.0L2.5,-0.5"/>
                </g>
                <g id="arrowDown" xlink:href="#dirArrow" transform="rotate(180) translate(-30 -48)" onmousedown="handlePan(0,1)">
                  <use xlink:href="#rim" fill="#404040">
                        <set attributeName="fill" to="#808080" begin="arrowDown.mouseover" end="arrowDown.mouseout"/>
                  </use>
                  <path fill="none" stroke="white" stroke-width="1.5" d="M0,-3.0v7 M-2.5,-0.5L0,-3.0L2.5,-0.5"/>
                </g>
                <g id="arrowLeft" xlink:href="#dirArrow" transform="rotate(270) translate(-36 17)" onmousedown="handlePan(-1,0)">
                  <use xlink:href="#rim" fill="#404040">
                        <set attributeName="fill" to="#808080" begin="arrowLeft.mouseover" end="arrowLeft.mouseout"/>
                  </use>
                  <path fill="none" stroke="white" stroke-width="1.5" d="M0,-3.0v7 M-2.5,-0.5L0,-3.0L2.5,-0.5"/>
                </g>
        </g>
        <svg viewBox="0 0 15 15" width="100%" height="30px" preserveAspectRatio="xMaxYMin meet">
         <g id="arrow_out" transform="scale(0.3 0.3)">
          <a xlink:href="quickjs_8c_a937f8b17cb6d260cec8239dfb462035e_cgraph_org.svg" target="_base">
           <rect id="button" ry="5" rx="5" y="6" x="6" height="38" width="38"
                fill="#f2f5e9" fill-opacity="0.5" stroke="#606060" stroke-width="1.0"/>
           <path id="arrow"
             d="M 11.500037,31.436501 C 11.940474,20.09759 22.043105,11.32322 32.158766,21.979434 L 37.068811,17.246167 C 37.068811,17.246167 37.088388,32 37.088388,32 L 22.160133,31.978069 C 22.160133,31.978069 26.997745,27.140456 26.997745,27.140456 C 18.528582,18.264221 13.291696,25.230495 11.500037,31.436501 z"
             style="fill:#404040;"/>
          </a>
         </g>
        </svg>
</svg>
