<?xml version="1.0" encoding="UTF-8" standalone="no"?>
<!DOCTYPE svg PUBLIC "-//W3C//DTD SVG 1.1//EN"
 "http://www.w3.org/Graphics/SVG/1.1/DTD/svg11.dtd">
<!-- Generated by graphviz version 2.40.1 (20161225.0304)
 -->
<!-- Title: js_promise_all_resolve_element Pages: 1 -->
<!--zoomable 595 -->
<svg id="main" version="1.1" xmlns="http://www.w3.org/2000/svg" xmlns:xlink="http://www.w3.org/1999/xlink" xml:space="preserve" onload="init(evt)">
<style type="text/css"><![CDATA[
.edge:hover path { stroke: red; }
.edge:hover polygon { stroke: red; fill: red; }
]]></style>
<script type="text/javascript"><![CDATA[
var edges = document.getElementsByTagName('g');
if (edges && edges.length) {
  for (var i=0;i<edges.length;i++) {
    if (edges[i].id.substr(0,4)=='edge') {
      edges[i].setAttribute('class','edge');
    }
  }
}
]]></script>
        <defs>
                <circle id="rim" cx="0" cy="0" r="7"/>
                <circle id="rim2" cx="0" cy="0" r="3.5"/>
                <g id="zoomPlus">
                        <use xlink:href="#rim" fill="#404040">
                                <set attributeName="fill" to="#808080" begin="zoomplus.mouseover" end="zoomplus.mouseout"/>
                        </use>
                        <path d="M-4,0h8M0,-4v8" fill="none" stroke="white" stroke-width="1.5" pointer-events="none"/>
                </g>
                <g id="zoomMin">
                        <use xlink:href="#rim" fill="#404040">
                                <set attributeName="fill" to="#808080" begin="zoomminus.mouseover" end="zoomminus.mouseout"/>
                        </use>
                        <path d="M-4,0h8" fill="none" stroke="white" stroke-width="1.5" pointer-events="none"/>
                </g>
                <g id="dirArrow">
                        <path fill="none" stroke="white" stroke-width="1.5" d="M0,-3.0v7 M-2.5,-0.5L0,-3.0L2.5,-0.5"/>
                </g>
               <g id="resetDef">
                       <use xlink:href="#rim2" fill="#404040">
                               <set attributeName="fill" to="#808080" begin="reset.mouseover" end="reset.mouseout"/>
                       </use>
               </g>
        </defs>

<script type="text/javascript">
var viewWidth = 1020;
var viewHeight = 595;
var sectionId = 'dynsection-1735';
</script>
<script xlink:href="svgpan.js"/>
<svg id="graph" class="graph">
<g id="viewport">
<title>js_promise_all_resolve_element</title>
<!-- Node455915 -->
<g id="node1" class="node">
<title>Node455915</title>
<polygon fill="#bfbfbf" stroke="#000000" points="0,-299 0,-329 116,-329 116,-299 0,-299"/>
<text text-anchor="start" x="8" y="-317" font-family="Helvetica,sans-Serif" font-size="10.00" fill="#000000">js_promise_all_resolve</text>
<text text-anchor="middle" x="58" y="-306" font-family="Helvetica,sans-Serif" font-size="10.00" fill="#000000">_element</text>
</g>
<!-- Node455916 -->
<g id="node2" class="node">
<title>Node455916</title>
<g id="a_node2"><a xlink:href="quickjs_8c.html#a57af8ddae60fbd0080e34d23ce2a04a6" target="_top" xlink:title="js_aggregate_error\l_constructor">
<polygon fill="none" stroke="#000000" points="177,-381 177,-411 274,-411 274,-381 177,-381"/>
<text text-anchor="start" x="185" y="-399" font-family="Helvetica,sans-Serif" font-size="10.00" fill="#000000">js_aggregate_error</text>
<text text-anchor="middle" x="225.5" y="-388" font-family="Helvetica,sans-Serif" font-size="10.00" fill="#000000">_constructor</text>
</a>
</g>
</g>
<!-- Node455915&#45;&gt;Node455916 -->
<g id="edge1" class="edge">
<title>Node455915&#45;&gt;Node455916</title>
<path fill="none" stroke="#191970" d="M83.5048,-329.1797C102.1735,-340.0254 128.2804,-354.647 152,-366 159.9486,-369.8044 168.5115,-373.5799 176.8862,-377.1034"/>
<polygon fill="#191970" stroke="#191970" points="175.64,-380.3755 186.2186,-380.9628 178.3151,-373.9068 175.64,-380.3755"/>
</g>
<!-- Node455917 -->
<g id="node3" class="node">
<title>Node455917</title>
<g id="a_node3"><a xlink:href="quickjs_8c.html#a0a8765bd4012467d9139bc24aabcb3ca" target="_top" xlink:title="JS_DefinePropertyValue">
<polygon fill="none" stroke="#000000" points="349,-342.5 349,-361.5 473,-361.5 473,-342.5 349,-342.5"/>
<text text-anchor="middle" x="411" y="-349.5" font-family="Helvetica,sans-Serif" font-size="10.00" fill="#000000">JS_DefinePropertyValue</text>
</a>
</g>
</g>
<!-- Node455915&#45;&gt;Node455917 -->
<g id="edge17" class="edge">
<title>Node455915&#45;&gt;Node455917</title>
<path fill="none" stroke="#191970" d="M116.0983,-323.1673C127.9603,-324.8941 140.3698,-326.5962 152,-328 214.9406,-335.5973 286.7404,-342.0797 338.7537,-346.3852"/>
<polygon fill="#191970" stroke="#191970" points="338.6311,-349.8868 348.884,-347.217 339.204,-342.9103 338.6311,-349.8868"/>
</g>
<!-- Node455944 -->
<g id="node5" class="node">
<title>Node455944</title>
<g id="a_node5"><a xlink:href="quickjs_8h.html#a775522f2d084fc8fa0fcb33f390006b4" target="_top" xlink:title="JS_DupValue">
<polygon fill="none" stroke="#000000" points="674.5,-380.5 674.5,-399.5 751.5,-399.5 751.5,-380.5 674.5,-380.5"/>
<text text-anchor="middle" x="713" y="-387.5" font-family="Helvetica,sans-Serif" font-size="10.00" fill="#000000">JS_DupValue</text>
</a>
</g>
</g>
<!-- Node455915&#45;&gt;Node455944 -->
<g id="edge21" class="edge">
<title>Node455915&#45;&gt;Node455944</title>
<path fill="none" stroke="#191970" d="M116.2931,-312.8557C199.1478,-312.0723 355.518,-313.7117 487,-333 553.626,-342.774 629.132,-363.9273 673.8188,-377.5353"/>
<polygon fill="#191970" stroke="#191970" points="672.8248,-380.8913 683.4118,-380.4852 674.8823,-374.2005 672.8248,-380.8913"/>
</g>
<!-- Node455945 -->
<g id="node6" class="node">
<title>Node455945</title>
<g id="a_node6"><a xlink:href="quickjs_8h.html#afaa20c47565bc704c6c85f3d77254e7d" target="_top" xlink:title="JS_FreeValue">
<polygon fill="none" stroke="#ff0000" points="808,-418.5 808,-437.5 886,-437.5 886,-418.5 808,-418.5"/>
<text text-anchor="middle" x="847" y="-425.5" font-family="Helvetica,sans-Serif" font-size="10.00" fill="#000000">JS_FreeValue</text>
</a>
</g>
</g>
<!-- Node455915&#45;&gt;Node455945 -->
<g id="edge22" class="edge">
<title>Node455915&#45;&gt;Node455945</title>
<path fill="none" stroke="#191970" d="M60.2137,-329.0748C66.604,-366.5466 88.8397,-463.9138 152,-506 265.9818,-581.9507 640.2613,-534.4286 768,-485 791.689,-475.8335 814.7731,-457.8041 829.8087,-444.4659"/>
<polygon fill="#191970" stroke="#191970" points="832.271,-446.957 837.2866,-437.6245 827.5459,-441.7923 832.271,-446.957"/>
</g>
<!-- Node455981 -->
<g id="node7" class="node">
<title>Node455981</title>
<g id="a_node7"><a xlink:href="quickjs_8h.html#ad80a83d73e9b7d872b88fbf2943aebe9" target="_top" xlink:title="JS_IsException">
<polygon fill="none" stroke="#000000" points="926,-304.5 926,-323.5 1012,-323.5 1012,-304.5 926,-304.5"/>
<text text-anchor="middle" x="969" y="-311.5" font-family="Helvetica,sans-Serif" font-size="10.00" fill="#000000">JS_IsException</text>
</a>
</g>
</g>
<!-- Node455915&#45;&gt;Node455981 -->
<g id="edge23" class="edge">
<title>Node455915&#45;&gt;Node455981</title>
<path fill="none" stroke="#191970" d="M59.4405,-329.2431C64.1935,-370.319 83.2501,-483.8545 152,-538 243.6136,-610.1524 294.3852,-580 411,-580 411,-580 411,-580 713,-580 804.0168,-580 828.1235,-543.7484 890,-477 930.1439,-433.6954 953.9001,-366.2225 963.7113,-333.334"/>
<polygon fill="#191970" stroke="#191970" points="967.113,-334.1687 966.5075,-323.5912 960.3846,-332.2376 967.113,-334.1687"/>
</g>
<!-- Node456159 -->
<g id="node12" class="node">
<title>Node456159</title>
<g id="a_node12"><a xlink:href="quickjs_8c.html#a1a4c02a29525d5cb2085dd8bca3af350" target="_top" xlink:title="JS_Call">
<polygon fill="none" stroke="#ff0000" points="200,-114.5 200,-133.5 251,-133.5 251,-114.5 200,-114.5"/>
<text text-anchor="middle" x="225.5" y="-121.5" font-family="Helvetica,sans-Serif" font-size="10.00" fill="#000000">JS_Call</text>
</a>
</g>
</g>
<!-- Node455915&#45;&gt;Node456159 -->
<g id="edge16" class="edge">
<title>Node455915&#45;&gt;Node456159</title>
<path fill="none" stroke="#191970" d="M62.4724,-298.6918C72.7684,-266.1149 101.2408,-189.5179 152,-148 162.7403,-139.2151 176.7904,-133.6116 189.7264,-130.0526"/>
<polygon fill="#191970" stroke="#191970" points="190.8841,-133.3734 199.7774,-127.615 189.2342,-126.5706 190.8841,-133.3734"/>
</g>
<!-- Node456150 -->
<g id="node13" class="node">
<title>Node456150</title>
<g id="a_node13"><a xlink:href="quickjs_8c.html#a12aed667595f49667e0095f0a028e0d4" target="_top" xlink:title="JS_DefinePropertyValueUint32">
<polygon fill="none" stroke="#ff0000" points="335,-.5 335,-19.5 487,-19.5 487,-.5 335,-.5"/>
<text text-anchor="middle" x="411" y="-7.5" font-family="Helvetica,sans-Serif" font-size="10.00" fill="#000000">JS_DefinePropertyValueUint32</text>
</a>
</g>
</g>
<!-- Node455915&#45;&gt;Node456150 -->
<g id="edge18" class="edge">
<title>Node455915&#45;&gt;Node456150</title>
<path fill="none" stroke="#191970" d="M64.5073,-298.5655C77.1058,-270.6165 107.5574,-211.6832 152,-181 207.5318,-142.6608 249.7347,-189.1152 299,-143 336.2465,-108.1351 298.6888,-69.838 335,-34 339.0007,-30.0514 343.6456,-26.7516 348.6295,-23.9942"/>
<polygon fill="#191970" stroke="#191970" points="350.3674,-27.0436 357.9005,-19.5935 347.3657,-20.7198 350.3674,-27.0436"/>
</g>
<!-- Node456286 -->
<g id="node15" class="node">
<title>Node456286</title>
<g id="a_node15"><a xlink:href="quickjs_8h.html#a93abffa925714e249a6aa2f4ae7900f6" target="_top" xlink:title="JS_NewBool">
<polygon fill="none" stroke="#000000" points="188.5,-76.5 188.5,-95.5 262.5,-95.5 262.5,-76.5 188.5,-76.5"/>
<text text-anchor="middle" x="225.5" y="-83.5" font-family="Helvetica,sans-Serif" font-size="10.00" fill="#000000">JS_NewBool</text>
</a>
</g>
</g>
<!-- Node455915&#45;&gt;Node456286 -->
<g id="edge24" class="edge">
<title>Node455915&#45;&gt;Node456286</title>
<path fill="none" stroke="#191970" d="M60.2337,-298.9627C66.7682,-260.47 89.4959,-157.7057 152,-105 159.5529,-98.6311 168.9846,-94.363 178.5472,-91.5114"/>
<polygon fill="#191970" stroke="#191970" points="179.6355,-94.847 188.4865,-89.0238 177.9359,-88.0565 179.6355,-94.847"/>
</g>
<!-- Node456315 -->
<g id="node16" class="node">
<title>Node456315</title>
<g id="a_node16"><a xlink:href="quickjs_8c.html#afc0d8ea75588216ec132a6e1655524a7" target="_top" xlink:title="JS_NewObject">
<polygon fill="none" stroke="#000000" points="184,-443.5 184,-462.5 267,-462.5 267,-443.5 184,-443.5"/>
<text text-anchor="middle" x="225.5" y="-450.5" font-family="Helvetica,sans-Serif" font-size="10.00" fill="#000000">JS_NewObject</text>
</a>
</g>
</g>
<!-- Node455915&#45;&gt;Node456315 -->
<g id="edge25" class="edge">
<title>Node455915&#45;&gt;Node456315</title>
<path fill="none" stroke="#191970" d="M67.9091,-329.0042C83.4716,-351.5845 115.6448,-394.4759 152,-421 162.2769,-428.4978 174.5854,-434.721 186.1644,-439.6239"/>
<polygon fill="#191970" stroke="#191970" points="185.0745,-442.9577 195.6587,-443.4308 187.6796,-436.4605 185.0745,-442.9577"/>
</g>
<!-- Node455988 -->
<g id="node17" class="node">
<title>Node455988</title>
<g id="a_node17"><a xlink:href="quickjs_8c.html#a0ee6a3654a6016393fac5e1c108f403a" target="_top" xlink:title="JS_NewString">
<polygon fill="none" stroke="#ff0000" points="185.5,-38.5 185.5,-57.5 265.5,-57.5 265.5,-38.5 185.5,-38.5"/>
<text text-anchor="middle" x="225.5" y="-45.5" font-family="Helvetica,sans-Serif" font-size="10.00" fill="#000000">JS_NewString</text>
</a>
</g>
</g>
<!-- Node455915&#45;&gt;Node455988 -->
<g id="edge27" class="edge">
<title>Node455915&#45;&gt;Node455988</title>
<path fill="none" stroke="#191970" d="M59.088,-298.8577C63.0271,-255.7074 80.3751,-131.1061 152,-67 158.6359,-61.0607 166.8894,-56.933 175.4442,-54.0744"/>
<polygon fill="#191970" stroke="#191970" points="176.4727,-57.4211 185.1607,-51.3572 174.5875,-50.6797 176.4727,-57.4211"/>
</g>
<!-- Node456348 -->
<g id="node18" class="node">
<title>Node456348</title>
<g id="a_node18"><a xlink:href="quickjs_8c.html#a525bb5bdbab2566313d9bcd876838d9d" target="_top" xlink:title="JS_ToBool">
<polygon fill="none" stroke="#000000" points="540,-456.5 540,-475.5 605,-475.5 605,-456.5 540,-456.5"/>
<text text-anchor="middle" x="572.5" y="-463.5" font-family="Helvetica,sans-Serif" font-size="10.00" fill="#000000">JS_ToBool</text>
</a>
</g>
</g>
<!-- Node455915&#45;&gt;Node456348 -->
<g id="edge28" class="edge">
<title>Node455915&#45;&gt;Node456348</title>
<path fill="none" stroke="#191970" d="M61.8641,-329.0529C71.123,-361.6817 97.934,-438.6645 152,-472 274.6714,-547.6354 458.1644,-503.067 535.7569,-478.694"/>
<polygon fill="#191970" stroke="#191970" points="537.1031,-481.9377 545.5526,-475.5459 534.9613,-475.2734 537.1031,-481.9377"/>
</g>
<!-- Node456187 -->
<g id="node20" class="node">
<title>Node456187</title>
<g id="a_node20"><a xlink:href="quickjs_8c.html#a4073bd2b4f247bf6077cd956759193b9" target="_top" xlink:title="JS_ToInt32">
<polygon fill="none" stroke="#000000" points="539,-266.5 539,-285.5 606,-285.5 606,-266.5 539,-266.5"/>
<text text-anchor="middle" x="572.5" y="-273.5" font-family="Helvetica,sans-Serif" font-size="10.00" fill="#000000">JS_ToInt32</text>
</a>
</g>
</g>
<!-- Node455915&#45;&gt;Node456187 -->
<g id="edge32" class="edge">
<title>Node455915&#45;&gt;Node456187</title>
<path fill="none" stroke="#191970" d="M116.0623,-304.51C127.927,-302.8081 140.3468,-301.1978 152,-300 289.0324,-285.9143 452.1001,-279.5628 528.6759,-277.1904"/>
<polygon fill="#191970" stroke="#191970" points="529.0056,-280.6821 538.8953,-276.8816 528.7941,-273.6853 529.0056,-280.6821"/>
</g>
<!-- Node456349 -->
<g id="node21" class="node">
<title>Node456349</title>
<g id="a_node21"><a xlink:href="quickjs_8c.html#ae34b58b803dc65ed20305c6201ca711b" target="_top" xlink:title="remainingElementsCount_add">
<polygon fill="none" stroke="#000000" points="152,-190.5 152,-209.5 299,-209.5 299,-190.5 152,-190.5"/>
<text text-anchor="middle" x="225.5" y="-197.5" font-family="Helvetica,sans-Serif" font-size="10.00" fill="#000000">remainingElementsCount_add</text>
</a>
</g>
</g>
<!-- Node455915&#45;&gt;Node456349 -->
<g id="edge35" class="edge">
<title>Node455915&#45;&gt;Node456349</title>
<path fill="none" stroke="#191970" d="M80.2427,-298.8617C112.2919,-277.0491 171.1234,-237.0085 203.2029,-215.1753"/>
<polygon fill="#191970" stroke="#191970" points="205.1994,-218.0503 211.4971,-209.5304 201.2608,-212.2634 205.1994,-218.0503"/>
</g>
<!-- Node455916&#45;&gt;Node455917 -->
<g id="edge2" class="edge">
<title>Node455916&#45;&gt;Node455917</title>
<path fill="none" stroke="#191970" d="M274.2379,-384.4395C300.8896,-378.1178 333.853,-370.299 360.7395,-363.9216"/>
<polygon fill="#191970" stroke="#191970" points="361.7985,-367.2676 370.7207,-361.5541 360.1829,-360.4566 361.7985,-367.2676"/>
</g>
<!-- Node455916&#45;&gt;Node455944 -->
<g id="edge13" class="edge">
<title>Node455916&#45;&gt;Node455944</title>
<path fill="none" stroke="#191970" d="M274.0256,-395.4028C367.343,-394.2542 570.8296,-391.7498 664.291,-390.5995"/>
<polygon fill="#191970" stroke="#191970" points="664.3703,-394.0989 674.3264,-390.476 664.2841,-387.0994 664.3703,-394.0989"/>
</g>
<!-- Node455916&#45;&gt;Node455981 -->
<g id="edge14" class="edge">
<title>Node455916&#45;&gt;Node455981</title>
<path fill="none" stroke="#191970" d="M274.0374,-401.8682C339.2212,-410.3564 451.024,-427.2286 487,-447 507.3884,-458.2049 501.6287,-475.8075 523,-485 623.0281,-528.0253 660.3497,-501.3772 768,-485 824.1456,-476.4584 845.4285,-482.1947 890,-447 928.3144,-416.7461 952.0487,-362.3987 962.5906,-333.4278"/>
<polygon fill="#191970" stroke="#191970" points="966.0052,-334.2649 965.9878,-323.67 959.3944,-331.9632 966.0052,-334.2649"/>
</g>
<!-- Node456139 -->
<g id="node11" class="node">
<title>Node456139</title>
<g id="a_node11"><a xlink:href="quickjs_8c.html#a73738c650f11459db0d7af3dcdf8316b" target="_top" xlink:title="JS_NewObjectProtoClass">
<polygon fill="none" stroke="#ff0000" points="345.5,-456.5 345.5,-475.5 476.5,-475.5 476.5,-456.5 345.5,-456.5"/>
<text text-anchor="middle" x="411" y="-463.5" font-family="Helvetica,sans-Serif" font-size="10.00" fill="#000000">JS_NewObjectProtoClass</text>
</a>
</g>
</g>
<!-- Node455916&#45;&gt;Node456139 -->
<g id="edge15" class="edge">
<title>Node455916&#45;&gt;Node456139</title>
<path fill="none" stroke="#191970" d="M259.2141,-411.1085C280.7055,-420.5033 309.2553,-432.5501 335,-442 345.84,-445.9789 357.689,-449.9141 368.7371,-453.4113"/>
<polygon fill="#191970" stroke="#191970" points="368.0178,-456.8531 378.6064,-456.4885 370.1015,-450.1704 368.0178,-456.8531"/>
</g>
<!-- Node455918 -->
<g id="node4" class="node">
<title>Node455918</title>
<g id="a_node4"><a xlink:href="quickjs_8c.html#ab50618f1bf78e444caa6da0e3e2785d7" target="_top" xlink:title="JS_DefineProperty">
<polygon fill="none" stroke="#ff0000" points="523,-228.5 523,-247.5 622,-247.5 622,-228.5 523,-228.5"/>
<text text-anchor="middle" x="572.5" y="-235.5" font-family="Helvetica,sans-Serif" font-size="10.00" fill="#000000">JS_DefineProperty</text>
</a>
</g>
</g>
<!-- Node455917&#45;&gt;Node455918 -->
<g id="edge3" class="edge">
<title>Node455917&#45;&gt;Node455918</title>
<path fill="none" stroke="#191970" d="M420.0381,-342.4199C438.0689,-323.7716 480.4466,-282.2181 523,-257 526.2393,-255.0803 529.7073,-253.289 533.2482,-251.634"/>
<polygon fill="#191970" stroke="#191970" points="534.8797,-254.7424 542.6842,-247.5772 532.1149,-248.3115 534.8797,-254.7424"/>
</g>
<!-- Node455917&#45;&gt;Node455945 -->
<g id="edge12" class="edge">
<title>Node455917&#45;&gt;Node455945</title>
<path fill="none" stroke="#191970" d="M445.8981,-361.5267C493.4896,-374.179 581.5772,-396.3927 658,-409 704.9921,-416.7522 759.1149,-421.8046 797.367,-424.7362"/>
<polygon fill="#191970" stroke="#191970" points="797.4837,-428.2545 807.7161,-425.5073 798.0038,-421.2738 797.4837,-428.2545"/>
</g>
<!-- Node455918&#45;&gt;Node455944 -->
<g id="edge4" class="edge">
<title>Node455918&#45;&gt;Node455944</title>
<path fill="none" stroke="#191970" d="M608.9165,-247.5821C613.7597,-250.0479 618.3155,-253.1362 622,-257 657.2085,-293.9219 623.6304,-328.296 658,-366 661.4642,-369.8003 665.6373,-373.0274 670.117,-375.761"/>
<polygon fill="#191970" stroke="#191970" points="668.5235,-378.8774 679.0039,-380.4305 671.7795,-372.6807 668.5235,-378.8774"/>
</g>
<!-- Node455918&#45;&gt;Node455945 -->
<g id="edge5" class="edge">
<title>Node455918&#45;&gt;Node455945</title>
<path fill="none" stroke="#191970" d="M607.3956,-247.6101C612.6741,-250.0914 617.7625,-253.177 622,-257 648.2694,-280.6996 631.8035,-304.2198 658,-328 696.8662,-363.2814 721.9051,-345.888 768,-371 789.6788,-382.8104 812.3197,-399.6841 827.7775,-412.0073"/>
<polygon fill="#191970" stroke="#191970" points="825.6012,-414.7486 835.5744,-418.3243 830.0078,-409.3096 825.6012,-414.7486"/>
</g>
<!-- Node455918&#45;&gt;Node455981 -->
<g id="edge6" class="edge">
<title>Node455918&#45;&gt;Node455981</title>
<path fill="none" stroke="#191970" d="M614.1816,-247.5903C628.0932,-250.7036 643.6933,-254.1004 658,-257 748.3293,-275.3077 853.9516,-294.1199 915.9499,-304.8995"/>
<polygon fill="#191970" stroke="#191970" points="915.4373,-308.3628 925.8884,-306.6236 916.6339,-301.4658 915.4373,-308.3628"/>
</g>
<!-- Node456041 -->
<g id="node8" class="node">
<title>Node456041</title>
<g id="a_node8"><a xlink:href="quickjs_8h.html#a2050bc428da1c65ac7eb87c3fa3b0392" target="_top" xlink:title="JS_NewInt32">
<polygon fill="none" stroke="#000000" points="675,-76.5 675,-95.5 751,-95.5 751,-76.5 675,-76.5"/>
<text text-anchor="middle" x="713" y="-83.5" font-family="Helvetica,sans-Serif" font-size="10.00" fill="#000000">JS_NewInt32</text>
</a>
</g>
</g>
<!-- Node455918&#45;&gt;Node456041 -->
<g id="edge7" class="edge">
<title>Node455918&#45;&gt;Node456041</title>
<path fill="none" stroke="#191970" d="M581.2889,-228.4917C604.451,-203.4338 667.4156,-135.3155 697.1046,-103.1965"/>
<polygon fill="#191970" stroke="#191970" points="699.9968,-105.2239 704.2144,-95.5047 694.8564,-100.4724 699.9968,-105.2239"/>
</g>
<!-- Node456189 -->
<g id="node9" class="node">
<title>Node456189</title>
<g id="a_node9"><a xlink:href="quickjs_8c.html#aee75cc1546e19479e3ccda58f3b50a96" target="_top" xlink:title="JS_SetPropertyValue">
<polygon fill="none" stroke="#ff0000" points="658,-228.5 658,-247.5 768,-247.5 768,-228.5 658,-228.5"/>
<text text-anchor="middle" x="713" y="-235.5" font-family="Helvetica,sans-Serif" font-size="10.00" fill="#000000">JS_SetPropertyValue</text>
</a>
</g>
</g>
<!-- Node455918&#45;&gt;Node456189 -->
<g id="edge8" class="edge">
<title>Node455918&#45;&gt;Node456189</title>
<path fill="none" stroke="#191970" d="M622.035,-238C630.3257,-238 639.039,-238 647.6536,-238"/>
<polygon fill="#191970" stroke="#191970" points="647.6897,-241.5001 657.6897,-238 647.6897,-234.5001 647.6897,-241.5001"/>
</g>
<!-- Node456189&#45;&gt;Node455945 -->
<g id="edge9" class="edge">
<title>Node456189&#45;&gt;Node455945</title>
<path fill="none" stroke="#191970" d="M719.8293,-247.6833C741.0605,-277.7873 806.1545,-370.0847 834.0688,-409.6647"/>
<polygon fill="#191970" stroke="#191970" points="831.4,-411.9535 840.0238,-418.1083 837.1205,-407.919 831.4,-411.9535"/>
</g>
<!-- Node456091 -->
<g id="node10" class="node">
<title>Node456091</title>
<g id="a_node10"><a xlink:href="quickjs_8c.html#a643088ab23784b7f3c6ff94c37228256" target="_top" xlink:title="JS_ToInt32Free">
<polygon fill="none" stroke="#ff0000" points="804,-247.5 804,-266.5 890,-266.5 890,-247.5 804,-247.5"/>
<text text-anchor="middle" x="847" y="-254.5" font-family="Helvetica,sans-Serif" font-size="10.00" fill="#000000">JS_ToInt32Free</text>
</a>
</g>
</g>
<!-- Node456189&#45;&gt;Node456091 -->
<g id="edge10" class="edge">
<title>Node456189&#45;&gt;Node456091</title>
<path fill="none" stroke="#191970" d="M768.2766,-245.8377C776.6822,-247.0296 785.3419,-248.2574 793.7041,-249.4431"/>
<polygon fill="#191970" stroke="#191970" points="793.3272,-252.9246 803.7195,-250.8632 794.31,-245.9939 793.3272,-252.9246"/>
</g>
<!-- Node456091&#45;&gt;Node455981 -->
<g id="edge11" class="edge">
<title>Node456091&#45;&gt;Node455981</title>
<path fill="none" stroke="#191970" d="M867.4201,-266.5405C887.0375,-275.7061 916.9028,-289.6595 939.1798,-300.0676"/>
<polygon fill="#191970" stroke="#191970" points="937.9718,-303.3664 948.5133,-304.4284 940.9349,-297.0244 937.9718,-303.3664"/>
</g>
<!-- Node456064 -->
<g id="node14" class="node">
<title>Node456064</title>
<g id="a_node14"><a xlink:href="quickjs_8h.html#a88259aa0da61ac754402c64ccecee116" target="_top" xlink:title="JS_NewUint32">
<polygon fill="none" stroke="#ff0000" points="531,-76.5 531,-95.5 614,-95.5 614,-76.5 531,-76.5"/>
<text text-anchor="middle" x="572.5" y="-83.5" font-family="Helvetica,sans-Serif" font-size="10.00" fill="#000000">JS_NewUint32</text>
</a>
</g>
</g>
<!-- Node456150&#45;&gt;Node456064 -->
<g id="edge19" class="edge">
<title>Node456150&#45;&gt;Node456064</title>
<path fill="none" stroke="#191970" d="M431.4541,-19.6255C459.607,-32.8739 510.4776,-56.813 542.8164,-72.0313"/>
<polygon fill="#191970" stroke="#191970" points="541.6735,-75.3615 552.212,-76.4527 544.6541,-69.0278 541.6735,-75.3615"/>
</g>
<!-- Node456064&#45;&gt;Node456041 -->
<g id="edge20" class="edge">
<title>Node456064&#45;&gt;Node456041</title>
<path fill="none" stroke="#191970" d="M614.2742,-86C630.0667,-86 648.1703,-86 664.5262,-86"/>
<polygon fill="#191970" stroke="#191970" points="664.9802,-89.5001 674.9801,-86 664.9801,-82.5001 664.9802,-89.5001"/>
</g>
<!-- Node456315&#45;&gt;Node456139 -->
<g id="edge26" class="edge">
<title>Node456315&#45;&gt;Node456139</title>
<path fill="none" stroke="#191970" d="M267.1298,-455.9175C287.2286,-457.326 311.9848,-459.0609 335.261,-460.6921"/>
<polygon fill="#191970" stroke="#191970" points="335.2571,-464.2004 345.4773,-461.4081 335.7465,-457.2175 335.2571,-464.2004"/>
</g>
<!-- Node456348&#45;&gt;Node455944 -->
<g id="edge29" class="edge">
<title>Node456348&#45;&gt;Node455944</title>
<path fill="none" stroke="#191970" d="M590.2944,-456.3745C614.5754,-443.2403 658.2809,-419.599 686.445,-404.3642"/>
<polygon fill="#191970" stroke="#191970" points="688.2196,-407.3836 695.3501,-399.5473 684.8892,-401.2267 688.2196,-407.3836"/>
</g>
<!-- Node456168 -->
<g id="node19" class="node">
<title>Node456168</title>
<g id="a_node19"><a xlink:href="quickjs_8c.html#a2bf30c9cddfe98a32535843202495069" target="_top" xlink:title="JS_ToBoolFree">
<polygon fill="none" stroke="#000000" points="671,-456.5 671,-475.5 755,-475.5 755,-456.5 671,-456.5"/>
<text text-anchor="middle" x="713" y="-463.5" font-family="Helvetica,sans-Serif" font-size="10.00" fill="#000000">JS_ToBoolFree</text>
</a>
</g>
</g>
<!-- Node456348&#45;&gt;Node456168 -->
<g id="edge30" class="edge">
<title>Node456348&#45;&gt;Node456168</title>
<path fill="none" stroke="#191970" d="M605.0867,-466C621.6391,-466 642.1522,-466 660.8343,-466"/>
<polygon fill="#191970" stroke="#191970" points="660.9882,-469.5001 670.9881,-466 660.9881,-462.5001 660.9882,-469.5001"/>
</g>
<!-- Node456168&#45;&gt;Node455945 -->
<g id="edge31" class="edge">
<title>Node456168&#45;&gt;Node455945</title>
<path fill="none" stroke="#191970" d="M746.8139,-456.411C764.0326,-451.5281 785.1637,-445.5357 803.5733,-440.315"/>
<polygon fill="#191970" stroke="#191970" points="804.5312,-443.6815 813.197,-437.5859 802.6214,-436.947 804.5312,-443.6815"/>
</g>
<!-- Node456187&#45;&gt;Node455944 -->
<g id="edge33" class="edge">
<title>Node456187&#45;&gt;Node455944</title>
<path fill="none" stroke="#191970" d="M599.8425,-285.5849C607.6359,-289.2374 615.7091,-294.0034 622,-300 646.1857,-323.0542 633.3581,-343.434 658,-366 662.1778,-369.8258 667.0621,-373.1092 672.1644,-375.9079"/>
<polygon fill="#191970" stroke="#191970" points="670.9544,-379.2112 681.4783,-380.4347 674.0143,-372.9154 670.9544,-379.2112"/>
</g>
<!-- Node456187&#45;&gt;Node456091 -->
<g id="edge34" class="edge">
<title>Node456187&#45;&gt;Node456091</title>
<path fill="none" stroke="#191970" d="M606.1591,-273.6702C652.9258,-270.4332 738.0561,-264.5407 793.5586,-260.699"/>
<polygon fill="#191970" stroke="#191970" points="793.8271,-264.1889 803.5615,-260.0067 793.3436,-257.2056 793.8271,-264.1889"/>
</g>
<!-- Node456349&#45;&gt;Node455981 -->
<g id="edge38" class="edge">
<title>Node456349&#45;&gt;Node455981</title>
<path fill="none" stroke="#191970" d="M279.0978,-190.46C347.1015,-179.2037 468.111,-162 572.5,-162 572.5,-162 572.5,-162 713,-162 817.7153,-162 917.017,-257.1917 953.8943,-296.912"/>
<polygon fill="#191970" stroke="#191970" points="951.4751,-299.4538 960.7955,-304.4917 956.6512,-294.7411 951.4751,-299.4538"/>
</g>
<!-- Node456349&#45;&gt;Node456041 -->
<g id="edge39" class="edge">
<title>Node456349&#45;&gt;Node456041</title>
<path fill="none" stroke="#191970" d="M276.1152,-190.4526C284.5594,-187.0183 292.6297,-182.3488 299,-176 335.1363,-139.9857 293.653,-96.8879 335,-67 438.3756,7.7255 495.1194,-53.8955 622,-67 636.4686,-68.4943 652.0283,-71.2914 666.1177,-74.2887"/>
<polygon fill="#191970" stroke="#191970" points="665.5607,-77.75 676.0805,-76.4908 667.0716,-70.9149 665.5607,-77.75"/>
</g>
<!-- Node456349&#45;&gt;Node456091 -->
<g id="edge43" class="edge">
<title>Node456349&#45;&gt;Node456091</title>
<path fill="none" stroke="#191970" d="M299.2029,-193.1327C404.7965,-185.4049 604.4385,-178.6832 768,-219 787.5797,-223.8263 808.0545,-233.8363 823.2526,-242.3712"/>
<polygon fill="#191970" stroke="#191970" points="821.5726,-245.4429 831.9785,-247.4352 825.0863,-239.3886 821.5726,-245.4429"/>
</g>
<!-- Node456062 -->
<g id="node22" class="node">
<title>Node456062</title>
<g id="a_node22"><a xlink:href="quickjs_8c.html#aeb97957655d979e9fe56c955da2b2d4b" target="_top" xlink:title="JS_GetPropertyUint32">
<polygon fill="none" stroke="#ff0000" points="353.5,-76.5 353.5,-95.5 468.5,-95.5 468.5,-76.5 353.5,-76.5"/>
<text text-anchor="middle" x="411" y="-83.5" font-family="Helvetica,sans-Serif" font-size="10.00" fill="#000000">JS_GetPropertyUint32</text>
</a>
</g>
</g>
<!-- Node456349&#45;&gt;Node456062 -->
<g id="edge36" class="edge">
<title>Node456349&#45;&gt;Node456062</title>
<path fill="none" stroke="#191970" d="M273.4553,-190.3748C282.637,-186.9395 291.6615,-182.2894 299,-176 325.8638,-152.9763 307.3399,-127.0607 335,-105 337.7961,-102.7699 340.8197,-100.7975 343.9946,-99.0534"/>
<polygon fill="#191970" stroke="#191970" points="345.6991,-102.1203 353.2791,-94.718 342.7374,-95.7777 345.6991,-102.1203"/>
</g>
<!-- Node456350 -->
<g id="node23" class="node">
<title>Node456350</title>
<g id="a_node23"><a xlink:href="quickjs_8c.html#aae909eaec829081b270012adfcd717a4" target="_top" xlink:title="JS_SetPropertyUint32">
<polygon fill="none" stroke="#000000" points="354,-114.5 354,-133.5 468,-133.5 468,-114.5 354,-114.5"/>
<text text-anchor="middle" x="411" y="-121.5" font-family="Helvetica,sans-Serif" font-size="10.00" fill="#000000">JS_SetPropertyUint32</text>
</a>
</g>
</g>
<!-- Node456349&#45;&gt;Node456350 -->
<g id="edge40" class="edge">
<title>Node456349&#45;&gt;Node456350</title>
<path fill="none" stroke="#191970" d="M263.1612,-190.443C274.9871,-186.7281 287.8568,-181.9198 299,-176 316.9006,-166.4904 317.0533,-157.4223 335,-148 343.456,-143.5605 352.8771,-139.7702 362.1281,-136.6018"/>
<polygon fill="#191970" stroke="#191970" points="363.2188,-139.9277 371.6595,-133.5241 361.0678,-133.2663 363.2188,-139.9277"/>
</g>
<!-- Node456062&#45;&gt;Node456064 -->
<g id="edge37" class="edge">
<title>Node456062&#45;&gt;Node456064</title>
<path fill="none" stroke="#191970" d="M468.849,-86C485.7884,-86 504.1935,-86 520.7294,-86"/>
<polygon fill="#191970" stroke="#191970" points="520.7539,-89.5001 530.7539,-86 520.7539,-82.5001 520.7539,-89.5001"/>
</g>
<!-- Node456350&#45;&gt;Node456189 -->
<g id="edge42" class="edge">
<title>Node456350&#45;&gt;Node456189</title>
<path fill="none" stroke="#191970" d="M436.2289,-133.5235C490.0781,-153.8507 616.3654,-201.522 677.9674,-224.7758"/>
<polygon fill="#191970" stroke="#191970" points="677.0388,-228.1663 687.6305,-228.4234 679.511,-221.6173 677.0388,-228.1663"/>
</g>
<!-- Node456350&#45;&gt;Node456064 -->
<g id="edge41" class="edge">
<title>Node456350&#45;&gt;Node456064</title>
<path fill="none" stroke="#191970" d="M451.7533,-114.411C473.1609,-109.3739 499.5862,-103.1562 522.2525,-97.8229"/>
<polygon fill="#191970" stroke="#191970" points="523.1073,-101.2175 532.0398,-95.5201 521.5039,-94.4036 523.1073,-101.2175"/>
</g>
</g>
</svg>
        <g id="navigator" transform="translate(0 0)" fill="#404254">
                <rect fill="#f2f5e9" fill-opacity="0.5" stroke="#606060" stroke-width=".5" x="0" y="0" width="60" height="60"/>
                <use id="zoomplus" xlink:href="#zoomPlus" x="17" y="9" onmousedown="handleZoom(evt,'in')"/>
                <use id="zoomminus" xlink:href="#zoomMin" x="42" y="9" onmousedown="handleZoom(evt,'out')"/>
                <use id="reset" xlink:href="#resetDef" x="30" y="36" onmousedown="handleReset()"/>
                <g id="arrowUp" xlink:href="#dirArrow" transform="translate(30 24)" onmousedown="handlePan(0,-1)">
                  <use xlink:href="#rim" fill="#404040">
                        <set attributeName="fill" to="#808080" begin="arrowUp.mouseover" end="arrowUp.mouseout"/>
                  </use>
                  <path fill="none" stroke="white" stroke-width="1.5" d="M0,-3.0v7 M-2.5,-0.5L0,-3.0L2.5,-0.5"/>
                </g>
                <g id="arrowRight" xlink:href="#dirArrow" transform="rotate(90) translate(36 -43)" onmousedown="handlePan(1,0)">
                  <use xlink:href="#rim" fill="#404040">
                        <set attributeName="fill" to="#808080" begin="arrowRight.mouseover" end="arrowRight.mouseout"/>
                  </use>
                  <path fill="none" stroke="white" stroke-width="1.5" d="M0,-3.0v7 M-2.5,-0.5L0,-3.0L2.5,-0.5"/>
                </g>
                <g id="arrowDown" xlink:href="#dirArrow" transform="rotate(180) translate(-30 -48)" onmousedown="handlePan(0,1)">
                  <use xlink:href="#rim" fill="#404040">
                        <set attributeName="fill" to="#808080" begin="arrowDown.mouseover" end="arrowDown.mouseout"/>
                  </use>
                  <path fill="none" stroke="white" stroke-width="1.5" d="M0,-3.0v7 M-2.5,-0.5L0,-3.0L2.5,-0.5"/>
                </g>
                <g id="arrowLeft" xlink:href="#dirArrow" transform="rotate(270) translate(-36 17)" onmousedown="handlePan(-1,0)">
                  <use xlink:href="#rim" fill="#404040">
                        <set attributeName="fill" to="#808080" begin="arrowLeft.mouseover" end="arrowLeft.mouseout"/>
                  </use>
                  <path fill="none" stroke="white" stroke-width="1.5" d="M0,-3.0v7 M-2.5,-0.5L0,-3.0L2.5,-0.5"/>
                </g>
        </g>
        <svg viewBox="0 0 15 15" width="100%" height="30px" preserveAspectRatio="xMaxYMin meet">
         <g id="arrow_out" transform="scale(0.3 0.3)">
          <a xlink:href="quickjs_8c_a0bfdeb7e158aebcb79b7c9367a60be80_cgraph_org.svg" target="_base">
           <rect id="button" ry="5" rx="5" y="6" x="6" height="38" width="38"
                fill="#f2f5e9" fill-opacity="0.5" stroke="#606060" stroke-width="1.0"/>
           <path id="arrow"
             d="M 11.500037,31.436501 C 11.940474,20.09759 22.043105,11.32322 32.158766,21.979434 L 37.068811,17.246167 C 37.068811,17.246167 37.088388,32 37.088388,32 L 22.160133,31.978069 C 22.160133,31.978069 26.997745,27.140456 26.997745,27.140456 C 18.528582,18.264221 13.291696,25.230495 11.500037,31.436501 z"
             style="fill:#404040;"/>
          </a>
         </g>
        </svg>
</svg>
