<?xml version="1.0" encoding="UTF-8" standalone="no"?>
<!DOCTYPE svg PUBLIC "-//W3C//DTD SVG 1.1//EN"
 "http://www.w3.org/Graphics/SVG/1.1/DTD/svg11.dtd">
<!-- Generated by graphviz version 2.40.1 (20161225.0304)
 -->
<!-- Title: JS_NewObjectClass Pages: 1 -->
<!--zoomable 370 -->
<svg id="main" version="1.1" xmlns="http://www.w3.org/2000/svg" xmlns:xlink="http://www.w3.org/1999/xlink" xml:space="preserve" onload="init(evt)">
<style type="text/css"><![CDATA[
.edge:hover path { stroke: red; }
.edge:hover polygon { stroke: red; fill: red; }
]]></style>
<script type="text/javascript"><![CDATA[
var edges = document.getElementsByTagName('g');
if (edges && edges.length) {
  for (var i=0;i<edges.length;i++) {
    if (edges[i].id.substr(0,4)=='edge') {
      edges[i].setAttribute('class','edge');
    }
  }
}
]]></script>
        <defs>
                <circle id="rim" cx="0" cy="0" r="7"/>
                <circle id="rim2" cx="0" cy="0" r="3.5"/>
                <g id="zoomPlus">
                        <use xlink:href="#rim" fill="#404040">
                                <set attributeName="fill" to="#808080" begin="zoomplus.mouseover" end="zoomplus.mouseout"/>
                        </use>
                        <path d="M-4,0h8M0,-4v8" fill="none" stroke="white" stroke-width="1.5" pointer-events="none"/>
                </g>
                <g id="zoomMin">
                        <use xlink:href="#rim" fill="#404040">
                                <set attributeName="fill" to="#808080" begin="zoomminus.mouseover" end="zoomminus.mouseout"/>
                        </use>
                        <path d="M-4,0h8" fill="none" stroke="white" stroke-width="1.5" pointer-events="none"/>
                </g>
                <g id="dirArrow">
                        <path fill="none" stroke="white" stroke-width="1.5" d="M0,-3.0v7 M-2.5,-0.5L0,-3.0L2.5,-0.5"/>
                </g>
               <g id="resetDef">
                       <use xlink:href="#rim2" fill="#404040">
                               <set attributeName="fill" to="#808080" begin="reset.mouseover" end="reset.mouseout"/>
                       </use>
               </g>
        </defs>

<script type="text/javascript">
var viewWidth = 709;
var viewHeight = 370;
var sectionId = 'dynsection-156';
</script>
<script xlink:href="svgpan.js"/>
<svg id="graph" class="graph">
<g id="viewport">
<title>JS_NewObjectClass</title>
<!-- Node51921 -->
<g id="node1" class="node">
<title>Node51921</title>
<polygon fill="#bfbfbf" stroke="#000000" points="0,-190.5 0,-209.5 108,-209.5 108,-190.5 0,-190.5"/>
<text text-anchor="middle" x="54" y="-197.5" font-family="Helvetica,sans-Serif" font-size="10.00" fill="#000000">JS_NewObjectClass</text>
</g>
<!-- Node51922 -->
<g id="node2" class="node">
<title>Node51922</title>
<g id="a_node2"><a xlink:href="quickjs_8c.html#a73738c650f11459db0d7af3dcdf8316b" target="_top" xlink:title="JS_NewObjectProtoClass">
<polygon fill="none" stroke="#000000" points="144,-190.5 144,-209.5 275,-209.5 275,-190.5 144,-190.5"/>
<text text-anchor="middle" x="209.5" y="-197.5" font-family="Helvetica,sans-Serif" font-size="10.00" fill="#000000">JS_NewObjectProtoClass</text>
</a>
</g>
</g>
<!-- Node51921&#45;&gt;Node51922 -->
<g id="edge1" class="edge">
<title>Node51921&#45;&gt;Node51922</title>
<path fill="none" stroke="#191970" d="M108.3864,-200C116.6327,-200 125.2656,-200 133.864,-200"/>
<polygon fill="#191970" stroke="#191970" points="133.9167,-203.5001 143.9167,-200 133.9167,-196.5001 133.9167,-203.5001"/>
</g>
<!-- Node51923 -->
<g id="node3" class="node">
<title>Node51923</title>
<g id="a_node3"><a xlink:href="quickjs_8c.html#aad24bdf2bcbb0ce55462fe6074dac8a5" target="_top" xlink:title="find_hashed_shape_proto">
<polygon fill="none" stroke="#000000" points="313.5,-304.5 313.5,-323.5 441.5,-323.5 441.5,-304.5 313.5,-304.5"/>
<text text-anchor="middle" x="377.5" y="-311.5" font-family="Helvetica,sans-Serif" font-size="10.00" fill="#000000">find_hashed_shape_proto</text>
</a>
</g>
</g>
<!-- Node51922&#45;&gt;Node51923 -->
<g id="edge2" class="edge">
<title>Node51922&#45;&gt;Node51923</title>
<path fill="none" stroke="#191970" d="M221.338,-209.6219C239.9271,-224.555 277.3233,-253.8913 311,-276 323.6668,-284.3157 338.2332,-292.7576 350.4982,-299.5657"/>
<polygon fill="#191970" stroke="#191970" points="348.908,-302.6853 359.3592,-304.4242 352.2735,-296.5474 348.908,-302.6853"/>
</g>
<!-- Node51927 -->
<g id="node6" class="node">
<title>Node51927</title>
<g id="a_node6"><a xlink:href="quickjs_8c.html#aab0be018b8f7bdcff45226f502c3f820" target="_top" xlink:title="get_proto_obj">
<polygon fill="none" stroke="#000000" points="340,-95.5 340,-114.5 415,-114.5 415,-95.5 340,-95.5"/>
<text text-anchor="middle" x="377.5" y="-102.5" font-family="Helvetica,sans-Serif" font-size="10.00" fill="#000000">get_proto_obj</text>
</a>
</g>
</g>
<!-- Node51922&#45;&gt;Node51927 -->
<g id="edge5" class="edge">
<title>Node51922&#45;&gt;Node51927</title>
<path fill="none" stroke="#191970" d="M219.609,-190.3998C236.9618,-174.4142 274.1224,-142.2942 311,-124 316.9983,-121.0244 323.5389,-118.4435 330.1009,-116.2267"/>
<polygon fill="#191970" stroke="#191970" points="331.1693,-119.5598 339.6696,-113.2356 329.0808,-112.8786 331.1693,-119.5598"/>
</g>
<!-- Node51928 -->
<g id="node7" class="node">
<title>Node51928</title>
<g id="a_node7"><a xlink:href="quickjs_8c.html#aed229eb80b3b03a2275471dee93c69d6" target="_top" xlink:title="js_dup_shape">
<polygon fill="none" stroke="#000000" points="614,-162.5 614,-181.5 691,-181.5 691,-162.5 614,-162.5"/>
<text text-anchor="middle" x="652.5" y="-169.5" font-family="Helvetica,sans-Serif" font-size="10.00" fill="#000000">js_dup_shape</text>
</a>
</g>
</g>
<!-- Node51922&#45;&gt;Node51928 -->
<g id="edge6" class="edge">
<title>Node51922&#45;&gt;Node51928</title>
<path fill="none" stroke="#191970" d="M275.3153,-197.5618C347.2746,-194.6511 465.9516,-189.133 568,-181 579.602,-180.0754 592.078,-178.8659 603.7875,-177.635"/>
<polygon fill="#191970" stroke="#191970" points="604.2706,-181.1033 613.8391,-176.5544 603.5223,-174.1434 604.2706,-181.1033"/>
</g>
<!-- Node51929 -->
<g id="node8" class="node">
<title>Node51929</title>
<g id="a_node8"><a xlink:href="quickjs_8c.html#ad6926e49955be5e10423f6df8d8cff3e" target="_top" xlink:title="js_new_shape">
<polygon fill="none" stroke="#000000" points="338,-247.5 338,-266.5 417,-266.5 417,-247.5 338,-247.5"/>
<text text-anchor="middle" x="377.5" y="-254.5" font-family="Helvetica,sans-Serif" font-size="10.00" fill="#000000">js_new_shape</text>
</a>
</g>
</g>
<!-- Node51922&#45;&gt;Node51929 -->
<g id="edge7" class="edge">
<title>Node51922&#45;&gt;Node51929</title>
<path fill="none" stroke="#191970" d="M237.6194,-209.5405C265.6028,-219.0349 308.7285,-233.6668 339.6962,-244.1737"/>
<polygon fill="#191970" stroke="#191970" points="338.6945,-247.5298 349.2888,-247.4284 340.9436,-240.9009 338.6945,-247.5298"/>
</g>
<!-- Node51944 -->
<g id="node11" class="node">
<title>Node51944</title>
<g id="a_node11"><a xlink:href="quickjs_8c.html#a030c2e98b1775a7e3bdd13be1400b1fe" target="_top" xlink:title="JS_NewObjectFromShape">
<polygon fill="none" stroke="#000000" points="311,-133.5 311,-152.5 444,-152.5 444,-133.5 311,-133.5"/>
<text text-anchor="middle" x="377.5" y="-140.5" font-family="Helvetica,sans-Serif" font-size="10.00" fill="#000000">JS_NewObjectFromShape</text>
</a>
</g>
</g>
<!-- Node51922&#45;&gt;Node51944 -->
<g id="edge11" class="edge">
<title>Node51922&#45;&gt;Node51944</title>
<path fill="none" stroke="#191970" d="M237.6194,-190.4595C265.6028,-180.9651 308.7285,-166.3332 339.6962,-155.8263"/>
<polygon fill="#191970" stroke="#191970" points="340.9436,-159.0991 349.2888,-152.5716 338.6945,-152.4702 340.9436,-159.0991"/>
</g>
<!-- Node51924 -->
<g id="node4" class="node">
<title>Node51924</title>
<g id="a_node4"><a xlink:href="quickjs_8c.html#a8291bf195606b5d1b0faed795b6dc3ff" target="_top" xlink:title="get_shape_hash">
<polygon fill="none" stroke="#000000" points="480,-342.5 480,-361.5 568,-361.5 568,-342.5 480,-342.5"/>
<text text-anchor="middle" x="524" y="-349.5" font-family="Helvetica,sans-Serif" font-size="10.00" fill="#000000">get_shape_hash</text>
</a>
</g>
</g>
<!-- Node51923&#45;&gt;Node51924 -->
<g id="edge3" class="edge">
<title>Node51923&#45;&gt;Node51924</title>
<path fill="none" stroke="#191970" d="M414.4681,-323.589C433.6262,-328.5583 457.2142,-334.6767 477.5878,-339.9613"/>
<polygon fill="#191970" stroke="#191970" points="476.7392,-343.357 487.2977,-342.4799 478.4968,-336.5812 476.7392,-343.357"/>
</g>
<!-- Node51925 -->
<g id="node5" class="node">
<title>Node51925</title>
<g id="a_node5"><a xlink:href="quickjs_8c.html#afeaafcef811076df11d1552bcc7f6a2a" target="_top" xlink:title="shape_initial_hash">
<polygon fill="none" stroke="#ff0000" points="604,-294.5 604,-313.5 701,-313.5 701,-294.5 604,-294.5"/>
<text text-anchor="middle" x="652.5" y="-301.5" font-family="Helvetica,sans-Serif" font-size="10.00" fill="#000000">shape_initial_hash</text>
</a>
</g>
</g>
<!-- Node51923&#45;&gt;Node51925 -->
<g id="edge4" class="edge">
<title>Node51923&#45;&gt;Node51925</title>
<path fill="none" stroke="#191970" d="M441.6282,-311.6681C487.5678,-309.9975 548.9607,-307.7651 593.6516,-306.1399"/>
<polygon fill="#191970" stroke="#191970" points="593.9098,-309.633 603.776,-305.7718 593.6554,-302.6376 593.9098,-309.633"/>
</g>
<!-- Node51930 -->
<g id="node9" class="node">
<title>Node51930</title>
<g id="a_node9"><a xlink:href="quickjs_8c.html#a1030d2020be7d911eb62869f21cc3b70" target="_top" xlink:title="js_new_shape2">
<polygon fill="none" stroke="#ff0000" points="482,-266.5 482,-285.5 566,-285.5 566,-266.5 482,-266.5"/>
<text text-anchor="middle" x="524" y="-273.5" font-family="Helvetica,sans-Serif" font-size="10.00" fill="#000000">js_new_shape2</text>
</a>
</g>
</g>
<!-- Node51929&#45;&gt;Node51930 -->
<g id="edge8" class="edge">
<title>Node51929&#45;&gt;Node51930</title>
<path fill="none" stroke="#191970" d="M417.145,-262.1417C433.9406,-264.3199 453.7457,-266.8885 471.7132,-269.2188"/>
<polygon fill="#191970" stroke="#191970" points="471.3911,-272.7062 481.7582,-270.5215 472.2915,-265.7644 471.3911,-272.7062"/>
</g>
<!-- Node51930&#45;&gt;Node51925 -->
<g id="edge10" class="edge">
<title>Node51930&#45;&gt;Node51925</title>
<path fill="none" stroke="#191970" d="M566.0757,-285.1682C576.4992,-287.4395 587.8102,-289.9042 598.7086,-292.2789"/>
<polygon fill="#191970" stroke="#191970" points="598.0481,-295.7171 608.564,-294.4264 599.5385,-288.8775 598.0481,-295.7171"/>
</g>
<!-- Node51931 -->
<g id="node10" class="node">
<title>Node51931</title>
<g id="a_node10"><a xlink:href="quickjs_8c.html#a9780456a71703c53244b88831bc8fb7a" target="_top" xlink:title="add_gc_object">
<polygon fill="none" stroke="#ff0000" points="612.5,-247.5 612.5,-266.5 692.5,-266.5 692.5,-247.5 612.5,-247.5"/>
<text text-anchor="middle" x="652.5" y="-254.5" font-family="Helvetica,sans-Serif" font-size="10.00" fill="#000000">add_gc_object</text>
</a>
</g>
</g>
<!-- Node51930&#45;&gt;Node51931 -->
<g id="edge9" class="edge">
<title>Node51930&#45;&gt;Node51931</title>
<path fill="none" stroke="#191970" d="M566.0757,-269.7787C577.5113,-268.0878 590.0152,-266.239 601.8705,-264.4861"/>
<polygon fill="#191970" stroke="#191970" points="602.6983,-267.9018 612.0788,-262.9767 601.6743,-260.9771 602.6983,-267.9018"/>
</g>
<!-- Node51944&#45;&gt;Node51931 -->
<g id="edge12" class="edge">
<title>Node51944&#45;&gt;Node51931</title>
<path fill="none" stroke="#191970" d="M400.4733,-152.5235C449.306,-172.7668 563.5576,-220.1293 619.9025,-243.4869"/>
<polygon fill="#191970" stroke="#191970" points="618.8206,-246.8271 629.3986,-247.4234 621.5013,-240.3607 618.8206,-246.8271"/>
</g>
<!-- Node51945 -->
<g id="node12" class="node">
<title>Node51945</title>
<g id="a_node12"><a xlink:href="quickjs_8c.html#a74547db03bf739a52c83a326b32db997" target="_top" xlink:title="add_property">
<polygon fill="none" stroke="#ff0000" points="487.5,-114.5 487.5,-133.5 560.5,-133.5 560.5,-114.5 487.5,-114.5"/>
<text text-anchor="middle" x="524" y="-121.5" font-family="Helvetica,sans-Serif" font-size="10.00" fill="#000000">add_property</text>
</a>
</g>
</g>
<!-- Node51944&#45;&gt;Node51945 -->
<g id="edge13" class="edge">
<title>Node51944&#45;&gt;Node51945</title>
<path fill="none" stroke="#191970" d="M444.3194,-134.334C455.4127,-132.8953 466.7042,-131.4309 477.1657,-130.0741"/>
<polygon fill="#191970" stroke="#191970" points="477.8457,-133.5153 487.3125,-128.7581 476.9453,-126.5734 477.8457,-133.5153"/>
</g>
<!-- Node51960 -->
<g id="node13" class="node">
<title>Node51960</title>
<g id="a_node13"><a xlink:href="quickjs_8c.html#a3a9f27520d96cf58aa5bd7359e9cddee" target="_top" xlink:title="js_free_shape">
<polygon fill="none" stroke="#ff0000" points="614,-95.5 614,-114.5 691,-114.5 691,-95.5 614,-95.5"/>
<text text-anchor="middle" x="652.5" y="-102.5" font-family="Helvetica,sans-Serif" font-size="10.00" fill="#000000">js_free_shape</text>
</a>
</g>
</g>
<!-- Node51944&#45;&gt;Node51960 -->
<g id="edge17" class="edge">
<title>Node51944&#45;&gt;Node51960</title>
<path fill="none" stroke="#191970" d="M415.9374,-133.4837C425.2498,-130.7786 435.0865,-127.5804 444,-124 460.7879,-117.2565 462.439,-109.3498 480,-105 520.8772,-94.8748 568.8945,-95.873 603.8743,-98.8296"/>
<polygon fill="#191970" stroke="#191970" points="603.552,-102.3147 613.8326,-99.7536 604.1988,-95.3446 603.552,-102.3147"/>
</g>
<!-- Node51954 -->
<g id="node14" class="node">
<title>Node51954</title>
<g id="a_node14"><a xlink:href="quickjs_8c.html#a80e54dcf9ac687d4ccc2f90273565f30" target="_top" xlink:title="js_free">
<polygon fill="none" stroke="#ff0000" points="501,-38.5 501,-57.5 547,-57.5 547,-38.5 501,-38.5"/>
<text text-anchor="middle" x="524" y="-45.5" font-family="Helvetica,sans-Serif" font-size="10.00" fill="#000000">js_free</text>
</a>
</g>
</g>
<!-- Node51944&#45;&gt;Node51954 -->
<g id="edge16" class="edge">
<title>Node51944&#45;&gt;Node51954</title>
<path fill="none" stroke="#191970" d="M426.1829,-133.3682C432.5011,-130.9174 438.632,-127.8466 444,-124 466.8484,-107.627 459.0969,-90.7932 480,-72 483.8642,-68.5258 488.3199,-65.3665 492.8809,-62.5642"/>
<polygon fill="#191970" stroke="#191970" points="494.6561,-65.5814 501.6538,-57.6264 491.2226,-59.4813 494.6561,-65.5814"/>
</g>
<!-- Node51987 -->
<g id="node15" class="node">
<title>Node51987</title>
<g id="a_node15"><a xlink:href="quickjs_8h.html#a2050bc428da1c65ac7eb87c3fa3b0392" target="_top" xlink:title="JS_NewInt32">
<polygon fill="none" stroke="#000000" points="486,-.5 486,-19.5 562,-19.5 562,-.5 486,-.5"/>
<text text-anchor="middle" x="524" y="-7.5" font-family="Helvetica,sans-Serif" font-size="10.00" fill="#000000">JS_NewInt32</text>
</a>
</g>
</g>
<!-- Node51944&#45;&gt;Node51987 -->
<g id="edge18" class="edge">
<title>Node51944&#45;&gt;Node51987</title>
<path fill="none" stroke="#191970" d="M429.4604,-133.4788C434.7677,-131.0068 439.7573,-127.9008 444,-124 477.2387,-93.4401 448.8056,-61.6439 480,-29 481.3796,-27.5562 482.8873,-26.2162 484.4869,-24.9731"/>
<polygon fill="#191970" stroke="#191970" points="486.504,-27.8387 493.0834,-19.5344 482.7614,-21.9232 486.504,-27.8387"/>
</g>
<!-- Node51988 -->
<g id="node16" class="node">
<title>Node51988</title>
<g id="a_node16"><a xlink:href="quickjs_8c.html#a85321334e4bec66bfc03451897a03a3b" target="_top" xlink:title="js_trigger_gc">
<polygon fill="none" stroke="#ff0000" points="488,-152.5 488,-171.5 560,-171.5 560,-152.5 488,-152.5"/>
<text text-anchor="middle" x="524" y="-159.5" font-family="Helvetica,sans-Serif" font-size="10.00" fill="#000000">js_trigger_gc</text>
</a>
</g>
</g>
<!-- Node51944&#45;&gt;Node51988 -->
<g id="edge19" class="edge">
<title>Node51944&#45;&gt;Node51988</title>
<path fill="none" stroke="#191970" d="M444.3194,-151.666C455.5259,-153.1194 466.9347,-154.599 477.4857,-155.9674"/>
<polygon fill="#191970" stroke="#191970" points="477.3444,-159.4783 487.7115,-157.2936 478.2448,-152.5365 477.3444,-159.4783"/>
</g>
<!-- Node51945&#45;&gt;Node51928 -->
<g id="edge14" class="edge">
<title>Node51945&#45;&gt;Node51928</title>
<path fill="none" stroke="#191970" d="M549.6951,-133.5982C569.1303,-140.858 596.0346,-150.9079 617.4453,-158.9056"/>
<polygon fill="#191970" stroke="#191970" points="616.2569,-162.1979 626.8495,-162.4185 618.7065,-155.6404 616.2569,-162.1979"/>
</g>
<!-- Node51945&#45;&gt;Node51960 -->
<g id="edge15" class="edge">
<title>Node51945&#45;&gt;Node51960</title>
<path fill="none" stroke="#191970" d="M560.8229,-118.5554C574.1908,-116.5788 589.5088,-114.3139 603.747,-112.2086"/>
<polygon fill="#191970" stroke="#191970" points="604.5,-115.6354 613.8804,-110.7103 603.476,-108.7107 604.5,-115.6354"/>
</g>
</g>
</svg>
        <g id="navigator" transform="translate(0 0)" fill="#404254">
                <rect fill="#f2f5e9" fill-opacity="0.5" stroke="#606060" stroke-width=".5" x="0" y="0" width="60" height="60"/>
                <use id="zoomplus" xlink:href="#zoomPlus" x="17" y="9" onmousedown="handleZoom(evt,'in')"/>
                <use id="zoomminus" xlink:href="#zoomMin" x="42" y="9" onmousedown="handleZoom(evt,'out')"/>
                <use id="reset" xlink:href="#resetDef" x="30" y="36" onmousedown="handleReset()"/>
                <g id="arrowUp" xlink:href="#dirArrow" transform="translate(30 24)" onmousedown="handlePan(0,-1)">
                  <use xlink:href="#rim" fill="#404040">
                        <set attributeName="fill" to="#808080" begin="arrowUp.mouseover" end="arrowUp.mouseout"/>
                  </use>
                  <path fill="none" stroke="white" stroke-width="1.5" d="M0,-3.0v7 M-2.5,-0.5L0,-3.0L2.5,-0.5"/>
                </g>
                <g id="arrowRight" xlink:href="#dirArrow" transform="rotate(90) translate(36 -43)" onmousedown="handlePan(1,0)">
                  <use xlink:href="#rim" fill="#404040">
                        <set attributeName="fill" to="#808080" begin="arrowRight.mouseover" end="arrowRight.mouseout"/>
                  </use>
                  <path fill="none" stroke="white" stroke-width="1.5" d="M0,-3.0v7 M-2.5,-0.5L0,-3.0L2.5,-0.5"/>
                </g>
                <g id="arrowDown" xlink:href="#dirArrow" transform="rotate(180) translate(-30 -48)" onmousedown="handlePan(0,1)">
                  <use xlink:href="#rim" fill="#404040">
                        <set attributeName="fill" to="#808080" begin="arrowDown.mouseover" end="arrowDown.mouseout"/>
                  </use>
                  <path fill="none" stroke="white" stroke-width="1.5" d="M0,-3.0v7 M-2.5,-0.5L0,-3.0L2.5,-0.5"/>
                </g>
                <g id="arrowLeft" xlink:href="#dirArrow" transform="rotate(270) translate(-36 17)" onmousedown="handlePan(-1,0)">
                  <use xlink:href="#rim" fill="#404040">
                        <set attributeName="fill" to="#808080" begin="arrowLeft.mouseover" end="arrowLeft.mouseout"/>
                  </use>
                  <path fill="none" stroke="white" stroke-width="1.5" d="M0,-3.0v7 M-2.5,-0.5L0,-3.0L2.5,-0.5"/>
                </g>
        </g>
        <svg viewBox="0 0 15 15" width="100%" height="30px" preserveAspectRatio="xMaxYMin meet">
         <g id="arrow_out" transform="scale(0.3 0.3)">
          <a xlink:href="quickjs_8h_a659dc0db7e440fd6eb012d613627faa3_cgraph_org.svg" target="_base">
           <rect id="button" ry="5" rx="5" y="6" x="6" height="38" width="38"
                fill="#f2f5e9" fill-opacity="0.5" stroke="#606060" stroke-width="1.0"/>
           <path id="arrow"
             d="M 11.500037,31.436501 C 11.940474,20.09759 22.043105,11.32322 32.158766,21.979434 L 37.068811,17.246167 C 37.068811,17.246167 37.088388,32 37.088388,32 L 22.160133,31.978069 C 22.160133,31.978069 26.997745,27.140456 26.997745,27.140456 C 18.528582,18.264221 13.291696,25.230495 11.500037,31.436501 z"
             style="fill:#404040;"/>
          </a>
         </g>
        </svg>
</svg>
