<?xml version="1.0" encoding="UTF-8" standalone="no"?>
<!DOCTYPE svg PUBLIC "-//W3C//DTD SVG 1.1//EN"
 "http://www.w3.org/Graphics/SVG/1.1/DTD/svg11.dtd">
<!-- Generated by graphviz version 2.40.1 (20161225.0304)
 -->
<!-- Title: js_is_standard_regexp Pages: 1 -->
<svg width="1011pt" height="882pt"
 viewBox="0.00 0.00 1011.00 881.89" xmlns="http://www.w3.org/2000/svg" xmlns:xlink="http://www.w3.org/1999/xlink">
<g id="graph0" class="graph" transform="scale(1 1) rotate(0) translate(4 877.8853)">
<title>js_is_standard_regexp</title>
<!-- Node427789 -->
<g id="node1" class="node">
<title>Node427789</title>
<polygon fill="#bfbfbf" stroke="#000000" points="0,-759.3853 0,-778.3853 114,-778.3853 114,-759.3853 0,-759.3853"/>
<text text-anchor="middle" x="57" y="-766.3853" font-family="Helvetica,sans-Serif" font-size="10.00" fill="#000000">js_is_standard_regexp</text>
</g>
<!-- Node427790 -->
<g id="node2" class="node">
<title>Node427790</title>
<g id="a_node2"><a xlink:href="quickjs_8h.html#afaa20c47565bc704c6c85f3d77254e7d" target="_top" xlink:title="JS_FreeValue">
<polygon fill="none" stroke="#000000" points="641.5,-227.3853 641.5,-246.3853 719.5,-246.3853 719.5,-227.3853 641.5,-227.3853"/>
<text text-anchor="middle" x="680.5" y="-234.3853" font-family="Helvetica,sans-Serif" font-size="10.00" fill="#000000">JS_FreeValue</text>
</a>
</g>
</g>
<!-- Node427789&#45;&gt;Node427790 -->
<g id="edge1" class="edge">
<title>Node427789&#45;&gt;Node427790</title>
<path fill="none" stroke="#191970" d="M58.3378,-759.1051C69.413,-679.7152 148.6401,-141.479 273,-49.8853 385.0094,32.612 469.9173,3.2676 585,-74.8853 636.4236,-109.8072 664.1809,-182.3917 675.0305,-217.3008"/>
<polygon fill="#191970" stroke="#191970" points="671.7713,-218.6216 677.9675,-227.2156 678.483,-216.6334 671.7713,-218.6216"/>
</g>
<!-- Node427827 -->
<g id="node5" class="node">
<title>Node427827</title>
<g id="a_node5"><a xlink:href="quickjs_8h.html#a89b7c8686c7eee70b86be722ee4730ad" target="_top" xlink:title="JS_GetProperty">
<polygon fill="none" stroke="#000000" points="306,-816.3853 306,-835.3853 392,-835.3853 392,-816.3853 306,-816.3853"/>
<text text-anchor="middle" x="349" y="-823.3853" font-family="Helvetica,sans-Serif" font-size="10.00" fill="#000000">JS_GetProperty</text>
</a>
</g>
</g>
<!-- Node427789&#45;&gt;Node427827 -->
<g id="edge4" class="edge">
<title>Node427789&#45;&gt;Node427827</title>
<path fill="none" stroke="#191970" d="M75.688,-778.4299C94.088,-787.3634 123.2422,-800.2934 150,-806.8853 198.3596,-818.7989 255.0357,-823.3262 295.5074,-825.0045"/>
<polygon fill="#191970" stroke="#191970" points="295.5694,-828.5091 305.6919,-825.3811 295.8281,-821.5139 295.5694,-828.5091"/>
</g>
<!-- Node428072 -->
<g id="node11" class="node">
<title>Node428072</title>
<g id="a_node11"><a xlink:href="quickjs_8c.html#ac9b42f78cab1ed108c007cb019a33692" target="_top" xlink:title="JS_IsCFunction">
<polygon fill="none" stroke="#000000" points="150,-778.3853 150,-797.3853 237,-797.3853 237,-778.3853 150,-778.3853"/>
<text text-anchor="middle" x="193.5" y="-785.3853" font-family="Helvetica,sans-Serif" font-size="10.00" fill="#000000">JS_IsCFunction</text>
</a>
</g>
</g>
<!-- Node427789&#45;&gt;Node428072 -->
<g id="edge11" class="edge">
<title>Node427789&#45;&gt;Node428072</title>
<path fill="none" stroke="#191970" d="M114.0974,-776.8329C122.6152,-778.0185 131.3713,-779.2373 139.8153,-780.4127"/>
<polygon fill="#191970" stroke="#191970" points="139.5364,-783.9075 149.9235,-781.8197 140.5016,-776.9744 139.5364,-783.9075"/>
</g>
<!-- Node427836 -->
<g id="node12" class="node">
<title>Node427836</title>
<g id="a_node12"><a xlink:href="quickjs_8h.html#ad80a83d73e9b7d872b88fbf2943aebe9" target="_top" xlink:title="JS_IsException">
<polygon fill="none" stroke="#000000" points="306,-854.3853 306,-873.3853 392,-873.3853 392,-854.3853 306,-854.3853"/>
<text text-anchor="middle" x="349" y="-861.3853" font-family="Helvetica,sans-Serif" font-size="10.00" fill="#000000">JS_IsException</text>
</a>
</g>
</g>
<!-- Node427789&#45;&gt;Node427836 -->
<g id="edge12" class="edge">
<title>Node427789&#45;&gt;Node427836</title>
<path fill="none" stroke="#191970" d="M68.8097,-778.5326C85.7178,-791.8196 118.2946,-815.5094 150,-827.8853 197.3369,-846.3628 254.7569,-855.4542 295.7278,-859.8666"/>
<polygon fill="#191970" stroke="#191970" points="295.4702,-863.3583 305.7736,-860.8904 296.18,-856.3944 295.4702,-863.3583"/>
</g>
<!-- Node428221 -->
<g id="node13" class="node">
<title>Node428221</title>
<g id="a_node13"><a xlink:href="quickjs_8c.html#a9eb2d90f27f684820f9de13189502b7c" target="_top" xlink:title="js_regexp_exec">
<polygon fill="none" stroke="#000000" points="151,-455.3853 151,-474.3853 236,-474.3853 236,-455.3853 151,-455.3853"/>
<text text-anchor="middle" x="193.5" y="-462.3853" font-family="Helvetica,sans-Serif" font-size="10.00" fill="#000000">js_regexp_exec</text>
</a>
</g>
</g>
<!-- Node427789&#45;&gt;Node428221 -->
<g id="edge13" class="edge">
<title>Node427789&#45;&gt;Node428221</title>
<path fill="none" stroke="#191970" d="M61.387,-759.115C80.7615,-715.9658 158.851,-542.0522 184.9542,-483.9176"/>
<polygon fill="#191970" stroke="#191970" points="188.2941,-485.0239 189.1974,-474.4676 181.9083,-482.1565 188.2941,-485.0239"/>
</g>
<!-- Node428005 -->
<g id="node30" class="node">
<title>Node428005</title>
<g id="a_node30"><a xlink:href="quickjs_8c.html#a24be89a128d1cd7c0908604815b2b854" target="_top" xlink:title="js_same_value">
<polygon fill="none" stroke="#ff0000" points="152.5,-740.3853 152.5,-759.3853 234.5,-759.3853 234.5,-740.3853 152.5,-740.3853"/>
<text text-anchor="middle" x="193.5" y="-747.3853" font-family="Helvetica,sans-Serif" font-size="10.00" fill="#000000">js_same_value</text>
</a>
</g>
</g>
<!-- Node427789&#45;&gt;Node428005 -->
<g id="edge39" class="edge">
<title>Node427789&#45;&gt;Node428005</title>
<path fill="none" stroke="#191970" d="M114.0974,-760.9377C123.4394,-759.6373 133.0679,-758.2971 142.2571,-757.018"/>
<polygon fill="#191970" stroke="#191970" points="142.9847,-760.4505 152.4067,-755.6052 142.0196,-753.5174 142.9847,-760.4505"/>
</g>
<!-- Node427791 -->
<g id="node3" class="node">
<title>Node427791</title>
<g id="a_node3"><a xlink:href="quickjs_8c.html#aa059f309c30fd5166d16c82a97973146" target="_top" xlink:title="__JS_FreeValue">
<polygon fill="none" stroke="#000000" points="776,-227.3853 776,-246.3853 865,-246.3853 865,-227.3853 776,-227.3853"/>
<text text-anchor="middle" x="820.5" y="-234.3853" font-family="Helvetica,sans-Serif" font-size="10.00" fill="#000000">__JS_FreeValue</text>
</a>
</g>
</g>
<!-- Node427790&#45;&gt;Node427791 -->
<g id="edge2" class="edge">
<title>Node427790&#45;&gt;Node427791</title>
<path fill="none" stroke="#191970" d="M719.8704,-236.8853C733.9984,-236.8853 750.2,-236.8853 765.4155,-236.8853"/>
<polygon fill="#191970" stroke="#191970" points="765.7543,-240.3854 775.7542,-236.8853 765.7542,-233.3854 765.7543,-240.3854"/>
</g>
<!-- Node427792 -->
<g id="node4" class="node">
<title>Node427792</title>
<g id="a_node4"><a xlink:href="quickjs_8c.html#ab1ea3fad7d138be12144a38be4d36423" target="_top" xlink:title="__JS_FreeValueRT">
<polygon fill="none" stroke="#ff0000" points="901,-227.3853 901,-246.3853 1003,-246.3853 1003,-227.3853 901,-227.3853"/>
<text text-anchor="middle" x="952" y="-234.3853" font-family="Helvetica,sans-Serif" font-size="10.00" fill="#000000">__JS_FreeValueRT</text>
</a>
</g>
</g>
<!-- Node427791&#45;&gt;Node427792 -->
<g id="edge3" class="edge">
<title>Node427791&#45;&gt;Node427792</title>
<path fill="none" stroke="#191970" d="M865.0199,-236.8853C873.2672,-236.8853 882.0138,-236.8853 890.6583,-236.8853"/>
<polygon fill="#191970" stroke="#191970" points="890.7233,-240.3854 900.7233,-236.8853 890.7232,-233.3854 890.7233,-240.3854"/>
</g>
<!-- Node427828 -->
<g id="node6" class="node">
<title>Node427828</title>
<g id="a_node6"><a xlink:href="quickjs_8c.html#a5762c57ae0c9937e986040c01222833a" target="_top" xlink:title="JS_GetPropertyInternal">
<polygon fill="none" stroke="#ff0000" points="463.5,-778.3853 463.5,-797.3853 582.5,-797.3853 582.5,-778.3853 463.5,-778.3853"/>
<text text-anchor="middle" x="523" y="-785.3853" font-family="Helvetica,sans-Serif" font-size="10.00" fill="#000000">JS_GetPropertyInternal</text>
</a>
</g>
</g>
<!-- Node427827&#45;&gt;Node427828 -->
<g id="edge5" class="edge">
<title>Node427827&#45;&gt;Node427828</title>
<path fill="none" stroke="#191970" d="M392.0112,-816.492C415.3623,-811.3924 444.4507,-805.0397 469.2806,-799.6171"/>
<polygon fill="#191970" stroke="#191970" points="470.252,-802.9875 479.275,-797.4344 468.7584,-796.1487 470.252,-802.9875"/>
</g>
<!-- Node427828&#45;&gt;Node427790 -->
<g id="edge9" class="edge">
<title>Node427828&#45;&gt;Node427790</title>
<path fill="none" stroke="#191970" d="M531.0154,-778.3179C544.3269,-761.9206 570.9185,-726.9161 585,-692.8853 651.2253,-532.8383 673.4799,-321.4745 678.987,-256.6349"/>
<polygon fill="#191970" stroke="#191970" points="682.4823,-256.8338 679.8037,-246.5831 675.5053,-256.2668 682.4823,-256.8338"/>
</g>
<!-- Node427829 -->
<g id="node7" class="node">
<title>Node427829</title>
<g id="a_node7"><a xlink:href="quickjs_8c.html#a288254c06a39c9fca740a7abdad2834e" target="_top" xlink:title="__JS_AtomIsTaggedInt">
<polygon fill="none" stroke="#000000" points="621,-816.3853 621,-835.3853 740,-835.3853 740,-816.3853 621,-816.3853"/>
<text text-anchor="middle" x="680.5" y="-823.3853" font-family="Helvetica,sans-Serif" font-size="10.00" fill="#000000">__JS_AtomIsTaggedInt</text>
</a>
</g>
</g>
<!-- Node427828&#45;&gt;Node427829 -->
<g id="edge6" class="edge">
<title>Node427828&#45;&gt;Node427829</title>
<path fill="none" stroke="#191970" d="M562.7439,-797.4743C583.5277,-802.4888 609.1611,-808.6733 631.1995,-813.9905"/>
<polygon fill="#191970" stroke="#191970" points="630.4999,-817.4221 641.0419,-816.3652 632.1417,-810.6174 630.4999,-817.4221"/>
</g>
<!-- Node427830 -->
<g id="node8" class="node">
<title>Node427830</title>
<g id="a_node8"><a xlink:href="quickjs_8c.html#a89f38938cee8077ce1fbba07946ed185" target="_top" xlink:title="__JS_AtomToUInt32">
<polygon fill="none" stroke="#000000" points="626.5,-778.3853 626.5,-797.3853 734.5,-797.3853 734.5,-778.3853 626.5,-778.3853"/>
<text text-anchor="middle" x="680.5" y="-785.3853" font-family="Helvetica,sans-Serif" font-size="10.00" fill="#000000">__JS_AtomToUInt32</text>
</a>
</g>
</g>
<!-- Node427828&#45;&gt;Node427830 -->
<g id="edge7" class="edge">
<title>Node427828&#45;&gt;Node427830</title>
<path fill="none" stroke="#191970" d="M582.544,-787.8853C593.5487,-787.8853 605.0862,-787.8853 616.2238,-787.8853"/>
<polygon fill="#191970" stroke="#191970" points="616.313,-791.3854 626.3129,-787.8853 616.3129,-784.3854 616.313,-791.3854"/>
</g>
<!-- Node427844 -->
<g id="node9" class="node">
<title>Node427844</title>
<g id="a_node9"><a xlink:href="quickjs_8h.html#a775522f2d084fc8fa0fcb33f390006b4" target="_top" xlink:title="JS_DupValue">
<polygon fill="none" stroke="#000000" points="642,-683.3853 642,-702.3853 719,-702.3853 719,-683.3853 642,-683.3853"/>
<text text-anchor="middle" x="680.5" y="-690.3853" font-family="Helvetica,sans-Serif" font-size="10.00" fill="#000000">JS_DupValue</text>
</a>
</g>
</g>
<!-- Node427828&#45;&gt;Node427844 -->
<g id="edge8" class="edge">
<title>Node427828&#45;&gt;Node427844</title>
<path fill="none" stroke="#191970" d="M538.9687,-778.2534C566.4438,-761.6811 622.8511,-727.6576 655.5495,-707.9348"/>
<polygon fill="#191970" stroke="#191970" points="657.7339,-710.7047 664.489,-702.5427 654.1184,-704.7106 657.7339,-710.7047"/>
</g>
<!-- Node427837 -->
<g id="node10" class="node">
<title>Node427837</title>
<g id="a_node10"><a xlink:href="quickjs_8h.html#a2050bc428da1c65ac7eb87c3fa3b0392" target="_top" xlink:title="JS_NewInt32">
<polygon fill="none" stroke="#000000" points="642.5,-740.3853 642.5,-759.3853 718.5,-759.3853 718.5,-740.3853 642.5,-740.3853"/>
<text text-anchor="middle" x="680.5" y="-747.3853" font-family="Helvetica,sans-Serif" font-size="10.00" fill="#000000">JS_NewInt32</text>
</a>
</g>
</g>
<!-- Node427828&#45;&gt;Node427837 -->
<g id="edge10" class="edge">
<title>Node427828&#45;&gt;Node427837</title>
<path fill="none" stroke="#191970" d="M562.7439,-778.2963C583.9229,-773.1864 610.1375,-766.8616 632.4524,-761.4777"/>
<polygon fill="#191970" stroke="#191970" points="633.4986,-764.8258 642.3988,-759.078 631.8568,-758.0211 633.4986,-764.8258"/>
</g>
<!-- Node428221&#45;&gt;Node427790 -->
<g id="edge23" class="edge">
<title>Node428221&#45;&gt;Node427790</title>
<path fill="none" stroke="#191970" d="M193.9496,-455.0804C196.6794,-400.382 212.9719,-133.6545 273,-84.8853 400.0561,18.3401 604.1735,-162.2914 663.7014,-220.026"/>
<polygon fill="#191970" stroke="#191970" points="661.5326,-222.8019 671.1183,-227.3146 666.439,-217.8091 661.5326,-222.8019"/>
</g>
<!-- Node428221&#45;&gt;Node427827 -->
<g id="edge25" class="edge">
<title>Node428221&#45;&gt;Node427827</title>
<path fill="none" stroke="#191970" d="M193.9418,-474.5311C196.1495,-513.7831 208.624,-664.151 273,-763.8853 285.6225,-783.4406 306.4324,-799.7887 323.0881,-810.7796"/>
<polygon fill="#191970" stroke="#191970" points="321.5149,-813.9261 331.8355,-816.3208 325.2608,-808.0128 321.5149,-813.9261"/>
</g>
<!-- Node428221&#45;&gt;Node427844 -->
<g id="edge21" class="edge">
<title>Node428221&#45;&gt;Node427844</title>
<path fill="none" stroke="#191970" d="M197.3905,-474.616C206.7956,-496.8341 232.9825,-551.485 273,-578.8853 276.6801,-581.405 580.7509,-653.5297 585,-654.8853 606.9035,-661.873 630.9499,-671.4526 649.4339,-679.2451"/>
<polygon fill="#191970" stroke="#191970" points="648.2448,-682.543 658.8162,-683.248 650.9918,-676.1045 648.2448,-682.543"/>
</g>
<!-- Node428221&#45;&gt;Node427837 -->
<g id="edge28" class="edge">
<title>Node428221&#45;&gt;Node427837</title>
<path fill="none" stroke="#191970" d="M194.8787,-474.4628C201.3709,-518.1189 230.3746,-697.5649 273,-730.8853 327.5769,-773.5481 536.6928,-762.104 632.2974,-754.3326"/>
<polygon fill="#191970" stroke="#191970" points="632.6082,-757.8189 642.283,-753.5005 632.0269,-750.8431 632.6082,-757.8189"/>
</g>
<!-- Node428221&#45;&gt;Node427836 -->
<g id="edge26" class="edge">
<title>Node428221&#45;&gt;Node427836</title>
<path fill="none" stroke="#191970" d="M194.9078,-474.6121C203.1848,-531.2418 246.0734,-816.8947 273,-844.8853 279.2341,-851.3658 287.3176,-855.7662 295.8792,-858.7287"/>
<polygon fill="#191970" stroke="#191970" points="295.1007,-862.1457 305.6757,-861.4967 297.0042,-855.4094 295.1007,-862.1457"/>
</g>
<!-- Node427853 -->
<g id="node14" class="node">
<title>Node427853</title>
<g id="a_node14"><a xlink:href="quickjs_8c.html#a853f0924d441ea4225488f37c8b69f9a" target="_top" xlink:title="__attribute__">
<polygon fill="none" stroke="#000000" points="312.5,-94.3853 312.5,-113.3853 385.5,-113.3853 385.5,-94.3853 312.5,-94.3853"/>
<text text-anchor="middle" x="349" y="-101.3853" font-family="Helvetica,sans-Serif" font-size="10.00" fill="#000000">__attribute__</text>
</a>
</g>
</g>
<!-- Node428221&#45;&gt;Node427853 -->
<g id="edge14" class="edge">
<title>Node428221&#45;&gt;Node427853</title>
<path fill="none" stroke="#191970" d="M194.5067,-455.1482C199.857,-405.1845 226.4761,-177.9965 273,-127.8853 280.8639,-119.415 291.6875,-113.9171 302.702,-110.3537"/>
<polygon fill="#191970" stroke="#191970" points="303.649,-113.7232 312.361,-107.694 301.7907,-106.9744 303.649,-113.7232"/>
</g>
<!-- Node427797 -->
<g id="node15" class="node">
<title>Node427797</title>
<g id="a_node15"><a xlink:href="cutils_8h.html#a941262a5f72fda2ec43ae7911e97a0dc" target="_top" xlink:title="get_u32">
<polygon fill="none" stroke="#000000" points="323.5,-702.3853 323.5,-721.3853 374.5,-721.3853 374.5,-702.3853 323.5,-702.3853"/>
<text text-anchor="middle" x="349" y="-709.3853" font-family="Helvetica,sans-Serif" font-size="10.00" fill="#000000">get_u32</text>
</a>
</g>
</g>
<!-- Node428221&#45;&gt;Node427797 -->
<g id="edge15" class="edge">
<title>Node428221&#45;&gt;Node427797</title>
<path fill="none" stroke="#191970" d="M194.0024,-474.5248C196.3134,-508.7937 208.7895,-625.9814 273,-687.8853 283.9014,-698.3951 299.3712,-704.3052 313.5112,-707.6275"/>
<polygon fill="#191970" stroke="#191970" points="312.9965,-711.0937 323.488,-709.6182 314.3662,-704.2291 312.9965,-711.0937"/>
</g>
<!-- Node427946 -->
<g id="node16" class="node">
<title>Node427946</title>
<g id="a_node16"><a xlink:href="quickjs_8c.html#a0a8765bd4012467d9139bc24aabcb3ca" target="_top" xlink:title="JS_DefinePropertyValue">
<polygon fill="none" stroke="#ff0000" points="461,-227.3853 461,-246.3853 585,-246.3853 585,-227.3853 461,-227.3853"/>
<text text-anchor="middle" x="523" y="-234.3853" font-family="Helvetica,sans-Serif" font-size="10.00" fill="#000000">JS_DefinePropertyValue</text>
</a>
</g>
</g>
<!-- Node428221&#45;&gt;Node427946 -->
<g id="edge16" class="edge">
<title>Node428221&#45;&gt;Node427946</title>
<path fill="none" stroke="#191970" d="M194.4757,-455.2093C199.4965,-407.5614 224.0993,-198.6423 273,-160.8853 326.4715,-119.5991 361.0855,-139.0062 425,-160.8853 458.8916,-172.487 490.1242,-201.1102 507.8385,-219.7294"/>
<polygon fill="#191970" stroke="#191970" points="505.4253,-222.2753 514.7794,-227.2504 510.5695,-217.5279 505.4253,-222.2753"/>
</g>
<!-- Node428222 -->
<g id="node17" class="node">
<title>Node428222</title>
<g id="a_node17"><a xlink:href="quickjs_8c.html#a841f4cb887e4d9e03e94a0697255e578" target="_top" xlink:title="JS_DefinePropertyValueStr">
<polygon fill="none" stroke="#ff0000" points="280.5,-322.3853 280.5,-341.3853 417.5,-341.3853 417.5,-322.3853 280.5,-322.3853"/>
<text text-anchor="middle" x="349" y="-329.3853" font-family="Helvetica,sans-Serif" font-size="10.00" fill="#000000">JS_DefinePropertyValueStr</text>
</a>
</g>
</g>
<!-- Node428221&#45;&gt;Node428222 -->
<g id="edge18" class="edge">
<title>Node428221&#45;&gt;Node428222</title>
<path fill="none" stroke="#191970" d="M197.402,-455.1712C206.8312,-432.9883 233.0654,-378.4063 273,-350.8853 275.8872,-348.8956 278.9636,-347.1139 282.162,-345.5186"/>
<polygon fill="#191970" stroke="#191970" points="283.6577,-348.685 291.4422,-341.498 280.8749,-342.2619 283.6577,-348.685"/>
</g>
<!-- Node428061 -->
<g id="node18" class="node">
<title>Node428061</title>
<g id="a_node18"><a xlink:href="quickjs_8c.html#a12aed667595f49667e0095f0a028e0d4" target="_top" xlink:title="JS_DefinePropertyValueUint32">
<polygon fill="none" stroke="#ff0000" points="273,-626.3853 273,-645.3853 425,-645.3853 425,-626.3853 273,-626.3853"/>
<text text-anchor="middle" x="349" y="-633.3853" font-family="Helvetica,sans-Serif" font-size="10.00" fill="#000000">JS_DefinePropertyValueUint32</text>
</a>
</g>
</g>
<!-- Node428221&#45;&gt;Node428061 -->
<g id="edge20" class="edge">
<title>Node428221&#45;&gt;Node428061</title>
<path fill="none" stroke="#191970" d="M195.9296,-474.3974C203.0701,-500.429 226.4735,-573.4497 273,-611.8853 278.1604,-616.1483 284.0843,-619.6572 290.2989,-622.5447"/>
<polygon fill="#191970" stroke="#191970" points="288.977,-625.7854 299.557,-626.3462 291.6359,-619.31 288.977,-625.7854"/>
</g>
<!-- Node427811 -->
<g id="node19" class="node">
<title>Node427811</title>
<g id="a_node19"><a xlink:href="quickjs_8c.html#a80e54dcf9ac687d4ccc2f90273565f30" target="_top" xlink:title="js_free">
<polygon fill="none" stroke="#ff0000" points="326,-550.3853 326,-569.3853 372,-569.3853 372,-550.3853 326,-550.3853"/>
<text text-anchor="middle" x="349" y="-557.3853" font-family="Helvetica,sans-Serif" font-size="10.00" fill="#000000">js_free</text>
</a>
</g>
</g>
<!-- Node428221&#45;&gt;Node427811 -->
<g id="edge22" class="edge">
<title>Node428221&#45;&gt;Node427811</title>
<path fill="none" stroke="#191970" d="M200.694,-474.4544C213.4254,-490.6893 241.5652,-523.5514 273,-540.8853 286.0971,-548.1073 301.9661,-552.6307 315.8088,-555.4412"/>
<polygon fill="#191970" stroke="#191970" points="315.4562,-558.9343 325.9199,-557.2729 316.704,-552.0464 315.4562,-558.9343"/>
</g>
<!-- Node428223 -->
<g id="node20" class="node">
<title>Node428223</title>
<g id="a_node20"><a xlink:href="quickjs_8c.html#a82de8d310598980dd9ab473ce2c8dd1c" target="_top" xlink:title="js_get_regexp">
<polygon fill="none" stroke="#ff0000" points="310.5,-512.3853 310.5,-531.3853 387.5,-531.3853 387.5,-512.3853 310.5,-512.3853"/>
<text text-anchor="middle" x="349" y="-519.3853" font-family="Helvetica,sans-Serif" font-size="10.00" fill="#000000">js_get_regexp</text>
</a>
</g>
</g>
<!-- Node428221&#45;&gt;Node428223 -->
<g id="edge24" class="edge">
<title>Node428221&#45;&gt;Node428223</title>
<path fill="none" stroke="#191970" d="M211.0573,-474.5409C226.8815,-482.9347 250.977,-494.9601 273,-502.8853 281.74,-506.0305 291.2259,-508.8498 300.4376,-511.2932"/>
<polygon fill="#191970" stroke="#191970" points="299.7232,-514.7229 310.2773,-513.7948 301.448,-507.9387 299.7232,-514.7229"/>
</g>
<!-- Node428054 -->
<g id="node21" class="node">
<title>Node428054</title>
<g id="a_node21"><a xlink:href="quickjs_8c.html#ad4ba09e4c7ab9f28c144182e1aacf1f6" target="_top" xlink:title="JS_NewArray">
<polygon fill="none" stroke="#ff0000" points="310.5,-474.3853 310.5,-493.3853 387.5,-493.3853 387.5,-474.3853 310.5,-474.3853"/>
<text text-anchor="middle" x="349" y="-481.3853" font-family="Helvetica,sans-Serif" font-size="10.00" fill="#000000">JS_NewArray</text>
</a>
</g>
</g>
<!-- Node428221&#45;&gt;Node428054 -->
<g id="edge27" class="edge">
<title>Node428221&#45;&gt;Node428054</title>
<path fill="none" stroke="#191970" d="M236.4027,-470.1274C256.2439,-472.5517 279.9025,-475.4425 300.4003,-477.9471"/>
<polygon fill="#191970" stroke="#191970" points="300.1346,-481.4405 310.4853,-479.1793 300.9837,-474.4922 300.1346,-481.4405"/>
</g>
<!-- Node428100 -->
<g id="node22" class="node">
<title>Node428100</title>
<g id="a_node22"><a xlink:href="quickjs_8c.html#a884d294acbf5be675ffc760e38bd0521" target="_top" xlink:title="JS_NewObjectProto">
<polygon fill="none" stroke="#ff0000" points="296,-398.3853 296,-417.3853 402,-417.3853 402,-398.3853 296,-398.3853"/>
<text text-anchor="middle" x="349" y="-405.3853" font-family="Helvetica,sans-Serif" font-size="10.00" fill="#000000">JS_NewObjectProto</text>
</a>
</g>
</g>
<!-- Node428221&#45;&gt;Node428100 -->
<g id="edge29" class="edge">
<title>Node428221&#45;&gt;Node428100</title>
<path fill="none" stroke="#191970" d="M215.2309,-455.2604C231.0975,-448.3816 253.2041,-439.1038 273,-431.8853 283.8484,-427.9294 295.7003,-424.0022 306.7486,-420.5054"/>
<polygon fill="#191970" stroke="#191970" points="308.1135,-423.7461 316.6173,-417.4266 306.0287,-417.0637 308.1135,-423.7461"/>
</g>
<!-- Node428076 -->
<g id="node23" class="node">
<title>Node428076</title>
<g id="a_node23"><a xlink:href="quickjs_8h.html#af763b173e78debf2075670ca2c128a30" target="_top" xlink:title="JS_SetProperty">
<polygon fill="none" stroke="#ff0000" points="306,-360.3853 306,-379.3853 392,-379.3853 392,-360.3853 306,-360.3853"/>
<text text-anchor="middle" x="349" y="-367.3853" font-family="Helvetica,sans-Serif" font-size="10.00" fill="#000000">JS_SetProperty</text>
</a>
</g>
</g>
<!-- Node428221&#45;&gt;Node428076 -->
<g id="edge30" class="edge">
<title>Node428221&#45;&gt;Node428076</title>
<path fill="none" stroke="#191970" d="M200.694,-455.3162C213.4254,-439.0812 241.5652,-406.2192 273,-388.8853 280.1124,-384.9633 288.0422,-381.8372 296.0211,-379.3491"/>
<polygon fill="#191970" stroke="#191970" points="297.0471,-382.6964 305.7262,-376.6199 295.1521,-375.9578 297.0471,-382.6964"/>
</g>
<!-- Node428225 -->
<g id="node24" class="node">
<title>Node428225</title>
<g id="a_node24"><a xlink:href="quickjs_8c.html#a011157b8ff30c8418be989eadf509c92" target="_top" xlink:title="js_sub_string">
<polygon fill="none" stroke="#ff0000" points="486,-664.3853 486,-683.3853 560,-683.3853 560,-664.3853 486,-664.3853"/>
<text text-anchor="middle" x="523" y="-671.3853" font-family="Helvetica,sans-Serif" font-size="10.00" fill="#000000">js_sub_string</text>
</a>
</g>
</g>
<!-- Node428221&#45;&gt;Node428225 -->
<g id="edge31" class="edge">
<title>Node428221&#45;&gt;Node428225</title>
<path fill="none" stroke="#191970" d="M194.1675,-474.4826C196.9583,-506.4595 210.6629,-609.8927 273,-654.8853 332.3527,-697.7238 421.6037,-692.4809 475.8632,-683.8397"/>
<polygon fill="#191970" stroke="#191970" points="476.6262,-687.2604 485.9007,-682.1386 475.4564,-680.3588 476.6262,-687.2604"/>
</g>
<!-- Node428064 -->
<g id="node25" class="node">
<title>Node428064</title>
<g id="a_node25"><a xlink:href="quickjs_8c.html#a07acd485a57197356906928a788a0644" target="_top" xlink:title="JS_ToLengthFree">
<polygon fill="none" stroke="#ff0000" points="476,-351.3853 476,-370.3853 570,-370.3853 570,-351.3853 476,-351.3853"/>
<text text-anchor="middle" x="523" y="-358.3853" font-family="Helvetica,sans-Serif" font-size="10.00" fill="#000000">JS_ToLengthFree</text>
</a>
</g>
</g>
<!-- Node428221&#45;&gt;Node428064 -->
<g id="edge33" class="edge">
<title>Node428221&#45;&gt;Node428064</title>
<path fill="none" stroke="#191970" d="M236.3479,-463.3158C283.9472,-460.3425 362.3448,-451.7434 425,-426.8853 455.2581,-414.8806 485.6615,-392.3969 504.4024,-377.0393"/>
<polygon fill="#191970" stroke="#191970" points="506.7328,-379.653 512.15,-370.5478 502.2371,-374.2874 506.7328,-379.653"/>
</g>
<!-- Node427860 -->
<g id="node26" class="node">
<title>Node427860</title>
<g id="a_node26"><a xlink:href="quickjs_8c.html#a7bcb8e1a20cbc8374a5f9ba4a2088cec" target="_top" xlink:title="JS_ToString">
<polygon fill="none" stroke="#ff0000" points="313.5,-284.3853 313.5,-303.3853 384.5,-303.3853 384.5,-284.3853 313.5,-284.3853"/>
<text text-anchor="middle" x="349" y="-291.3853" font-family="Helvetica,sans-Serif" font-size="10.00" fill="#000000">JS_ToString</text>
</a>
</g>
</g>
<!-- Node428221&#45;&gt;Node427860 -->
<g id="edge35" class="edge">
<title>Node428221&#45;&gt;Node427860</title>
<path fill="none" stroke="#191970" d="M195.6099,-455.2895C202.0548,-428.3334 224.0961,-351.3865 273,-312.8853 281.7543,-305.9931 292.6885,-301.5664 303.5109,-298.7329"/>
<polygon fill="#191970" stroke="#191970" points="304.3459,-302.1329 313.3527,-296.5537 302.8325,-295.2984 304.3459,-302.1329"/>
</g>
<!-- Node428226 -->
<g id="node27" class="node">
<title>Node428226</title>
<g id="a_node27"><a xlink:href="libregexp_8h.html#a55d8c60c9c812ae3e3e23e608b830ce3" target="_top" xlink:title="lre_exec">
<polygon fill="none" stroke="#ff0000" points="322.5,-246.3853 322.5,-265.3853 375.5,-265.3853 375.5,-246.3853 322.5,-246.3853"/>
<text text-anchor="middle" x="349" y="-253.3853" font-family="Helvetica,sans-Serif" font-size="10.00" fill="#000000">lre_exec</text>
</a>
</g>
</g>
<!-- Node428221&#45;&gt;Node428226 -->
<g id="edge36" class="edge">
<title>Node428221&#45;&gt;Node428226</title>
<path fill="none" stroke="#191970" d="M194.5305,-455.2474C198.4007,-424.0172 214.957,-324.7491 273,-274.8853 283.8515,-265.5629 298.6166,-260.6937 312.247,-258.192"/>
<polygon fill="#191970" stroke="#191970" points="312.9803,-261.6219 322.3655,-256.7059 311.9631,-254.6962 312.9803,-261.6219"/>
</g>
<!-- Node428234 -->
<g id="node28" class="node">
<title>Node428234</title>
<g id="a_node28"><a xlink:href="libregexp_8h.html#a901e8c0ab6941f09e79fc9d8a9494717" target="_top" xlink:title="lre_get_capture_count">
<polygon fill="none" stroke="#000000" points="292.5,-208.3853 292.5,-227.3853 405.5,-227.3853 405.5,-208.3853 292.5,-208.3853"/>
<text text-anchor="middle" x="349" y="-215.3853" font-family="Helvetica,sans-Serif" font-size="10.00" fill="#000000">lre_get_capture_count</text>
</a>
</g>
</g>
<!-- Node428221&#45;&gt;Node428234 -->
<g id="edge37" class="edge">
<title>Node428221&#45;&gt;Node428234</title>
<path fill="none" stroke="#191970" d="M193.7746,-455.3795C195.3174,-420.518 205.522,-298.5156 273,-236.8853 276.0205,-234.1265 279.3804,-231.7537 282.9583,-229.7143"/>
<polygon fill="#191970" stroke="#191970" points="284.7056,-232.7589 292.2314,-225.3015 281.6977,-226.4381 284.7056,-232.7589"/>
</g>
<!-- Node428235 -->
<g id="node29" class="node">
<title>Node428235</title>
<g id="a_node29"><a xlink:href="libregexp_8h.html#a3bf39330d9dde9c1c41f1a73504a7386" target="_top" xlink:title="lre_get_flags">
<polygon fill="none" stroke="#000000" points="313,-170.3853 313,-189.3853 385,-189.3853 385,-170.3853 313,-170.3853"/>
<text text-anchor="middle" x="349" y="-177.3853" font-family="Helvetica,sans-Serif" font-size="10.00" fill="#000000">lre_get_flags</text>
</a>
</g>
</g>
<!-- Node428221&#45;&gt;Node428235 -->
<g id="edge38" class="edge">
<title>Node428221&#45;&gt;Node428235</title>
<path fill="none" stroke="#191970" d="M195.0865,-455.2038C202.3756,-411.8652 233.971,-236.1798 273,-198.8853 281.1307,-191.1159 291.9379,-186.3833 302.8443,-183.5363"/>
<polygon fill="#191970" stroke="#191970" points="303.7598,-186.92 312.8144,-181.4187 302.3054,-180.0727 303.7598,-186.92"/>
</g>
<!-- Node427946&#45;&gt;Node427790 -->
<g id="edge17" class="edge">
<title>Node427946&#45;&gt;Node427790</title>
<path fill="none" stroke="#191970" d="M585.2482,-236.8853C600.4701,-236.8853 616.5532,-236.8853 631.0822,-236.8853"/>
<polygon fill="#191970" stroke="#191970" points="631.3524,-240.3854 641.3524,-236.8853 631.3524,-233.3854 631.3524,-240.3854"/>
</g>
<!-- Node428222&#45;&gt;Node427946 -->
<g id="edge19" class="edge">
<title>Node428222&#45;&gt;Node427946</title>
<path fill="none" stroke="#191970" d="M399.9135,-322.2735C408.5064,-319.779 417.171,-316.6894 425,-312.8853 456.5454,-297.5574 487.6245,-270.9646 506.0585,-253.6489"/>
<polygon fill="#191970" stroke="#191970" points="508.5754,-256.0845 513.372,-246.6376 503.7312,-251.0315 508.5754,-256.0845"/>
</g>
<!-- Node428225&#45;&gt;Node427844 -->
<g id="edge32" class="edge">
<title>Node428225&#45;&gt;Node427844</title>
<path fill="none" stroke="#191970" d="M560.3253,-678.388C581.7202,-680.969 608.8178,-684.2379 631.8642,-687.0181"/>
<polygon fill="#191970" stroke="#191970" points="631.4506,-690.4935 641.7978,-688.2164 632.289,-683.5439 631.4506,-690.4935"/>
</g>
<!-- Node428064&#45;&gt;Node427790 -->
<g id="edge34" class="edge">
<title>Node428064&#45;&gt;Node427790</title>
<path fill="none" stroke="#191970" d="M535.0972,-351.3611C561.9434,-330.2251 626.7501,-279.2026 660.0279,-253.003"/>
<polygon fill="#191970" stroke="#191970" points="662.4523,-255.5489 668.1443,-246.6129 658.1221,-250.0489 662.4523,-255.5489"/>
</g>
<!-- Node428005&#45;&gt;Node427844 -->
<g id="edge40" class="edge">
<title>Node428005&#45;&gt;Node427844</title>
<path fill="none" stroke="#191970" d="M234.5616,-747.3339C280.9024,-744.2643 358.499,-738.5511 425,-730.8853 497.1049,-722.5734 580.1622,-709.5826 631.5023,-701.1514"/>
<polygon fill="#191970" stroke="#191970" points="632.3513,-704.5587 641.6477,-699.4768 631.2112,-697.6522 632.3513,-704.5587"/>
</g>
</g>
</svg>
