<?xml version="1.0" encoding="UTF-8" standalone="no"?>
<!DOCTYPE svg PUBLIC "-//W3C//DTD SVG 1.1//EN"
 "http://www.w3.org/Graphics/SVG/1.1/DTD/svg11.dtd">
<!-- Generated by graphviz version 2.40.1 (20161225.0304)
 -->
<!-- Title: js_get_fast_array Pages: 1 -->
<svg width="537pt" height="294pt"
 viewBox="0.00 0.00 537.00 294.00" xmlns="http://www.w3.org/2000/svg" xmlns:xlink="http://www.w3.org/1999/xlink">
<g id="graph0" class="graph" transform="scale(1 1) rotate(0) translate(4 290)">
<title>js_get_fast_array</title>
<!-- Node45476 -->
<g id="node1" class="node">
<title>Node45476</title>
<polygon fill="#bfbfbf" stroke="#000000" points="0,-95.5 0,-114.5 92,-114.5 92,-95.5 0,-95.5"/>
<text text-anchor="middle" x="46" y="-102.5" font-family="Helvetica,sans-Serif" font-size="10.00" fill="#000000">js_get_fast_array</text>
</g>
<!-- Node45477 -->
<g id="node2" class="node">
<title>Node45477</title>
<g id="a_node2"><a xlink:href="quickjs_8c.html#a43208b0746998d2b6b9b8bd1ef8b5f99" target="_top" xlink:title="js_append_enumerate">
<polygon fill="none" stroke="#000000" points="128,-190.5 128,-209.5 240,-209.5 240,-190.5 128,-190.5"/>
<text text-anchor="middle" x="184" y="-197.5" font-family="Helvetica,sans-Serif" font-size="10.00" fill="#000000">js_append_enumerate</text>
</a>
</g>
</g>
<!-- Node45476&#45;&gt;Node45477 -->
<g id="edge1" class="edge">
<title>Node45476&#45;&gt;Node45477</title>
<path fill="none" stroke="#191970" d="M60.4886,-122.1171C75.7352,-139.1654 101.2018,-165.0357 128,-181 134.2623,-184.7306 141.3584,-187.8533 148.3443,-190.4185"/>
<polygon fill="#191970" stroke="#191970" points="63.0804,-119.7641 53.8638,-114.5387 57.8102,-124.3711 63.0804,-119.7641"/>
</g>
<!-- Node45740 -->
<g id="node8" class="node">
<title>Node45740</title>
<g id="a_node8"><a xlink:href="quickjs_8c.html#a2ef89587b2e4287d4bd0417788c8e21e" target="_top" xlink:title="js_array_includes">
<polygon fill="none" stroke="#ff0000" points="138,-152.5 138,-171.5 230,-171.5 230,-152.5 138,-152.5"/>
<text text-anchor="middle" x="184" y="-159.5" font-family="Helvetica,sans-Serif" font-size="10.00" fill="#000000">js_array_includes</text>
</a>
</g>
</g>
<!-- Node45476&#45;&gt;Node45740 -->
<g id="edge11" class="edge">
<title>Node45476&#45;&gt;Node45740</title>
<path fill="none" stroke="#191970" d="M74.4303,-119.087C90.0624,-126.6002 109.9037,-135.7611 128,-143 136.293,-146.3174 145.417,-149.5744 153.8494,-152.4289"/>
<polygon fill="#191970" stroke="#191970" points="75.819,-115.8706 65.2943,-114.6537 72.763,-122.1683 75.819,-115.8706"/>
</g>
<!-- Node45741 -->
<g id="node9" class="node">
<title>Node45741</title>
<g id="a_node9"><a xlink:href="quickjs_8c.html#af4bd013e63a5d5d55e4d4700d80de12e" target="_top" xlink:title="js_array_indexOf">
<polygon fill="none" stroke="#000000" points="139,-114.5 139,-133.5 229,-133.5 229,-114.5 139,-114.5"/>
<text text-anchor="middle" x="184" y="-121.5" font-family="Helvetica,sans-Serif" font-size="10.00" fill="#000000">js_array_indexOf</text>
</a>
</g>
</g>
<!-- Node45476&#45;&gt;Node45741 -->
<g id="edge12" class="edge">
<title>Node45476&#45;&gt;Node45741</title>
<path fill="none" stroke="#191970" d="M102.3989,-112.7651C114.5718,-114.441 127.2863,-116.1916 138.9569,-117.7984"/>
<polygon fill="#191970" stroke="#191970" points="102.7199,-109.2763 92.3359,-111.3796 101.765,-116.2109 102.7199,-109.2763"/>
</g>
<!-- Node45599 -->
<g id="node10" class="node">
<title>Node45599</title>
<g id="a_node10"><a xlink:href="quickjs_8c.html#a01281ea66186a034a0e9021ee8c9f945" target="_top" xlink:title="js_array_pop">
<polygon fill="none" stroke="#ff0000" points="148,-76.5 148,-95.5 220,-95.5 220,-76.5 148,-76.5"/>
<text text-anchor="middle" x="184" y="-83.5" font-family="Helvetica,sans-Serif" font-size="10.00" fill="#000000">js_array_pop</text>
</a>
</g>
</g>
<!-- Node45476&#45;&gt;Node45599 -->
<g id="edge13" class="edge">
<title>Node45476&#45;&gt;Node45599</title>
<path fill="none" stroke="#191970" d="M102.6729,-97.1972C117.8483,-95.1078 133.8459,-92.9053 147.5997,-91.0116"/>
<polygon fill="#191970" stroke="#191970" points="101.765,-93.7891 92.3359,-98.6204 102.7199,-100.7237 101.765,-93.7891"/>
</g>
<!-- Node45603 -->
<g id="node11" class="node">
<title>Node45603</title>
<g id="a_node11"><a xlink:href="quickjs_8c.html#a8235fb13f196d6ef5002daed858b7eeb" target="_top" xlink:title="js_array_reverse">
<polygon fill="none" stroke="#000000" points="139.5,-38.5 139.5,-57.5 228.5,-57.5 228.5,-38.5 139.5,-38.5"/>
<text text-anchor="middle" x="184" y="-45.5" font-family="Helvetica,sans-Serif" font-size="10.00" fill="#000000">js_array_reverse</text>
</a>
</g>
</g>
<!-- Node45476&#45;&gt;Node45603 -->
<g id="edge14" class="edge">
<title>Node45476&#45;&gt;Node45603</title>
<path fill="none" stroke="#191970" d="M74.4303,-90.913C90.0624,-83.3998 109.9037,-74.2389 128,-67 136.293,-63.6826 145.417,-60.4256 153.8494,-57.5711"/>
<polygon fill="#191970" stroke="#191970" points="72.763,-87.8317 65.2943,-95.3463 75.819,-94.1294 72.763,-87.8317"/>
</g>
<!-- Node45581 -->
<g id="node12" class="node">
<title>Node45581</title>
<g id="a_node12"><a xlink:href="quickjs_8c.html#a70b7ec8358ab99b905686d5bf80950cc" target="_top" xlink:title="js_array_slice">
<polygon fill="none" stroke="#000000" points="145.5,-.5 145.5,-19.5 222.5,-19.5 222.5,-.5 145.5,-.5"/>
<text text-anchor="middle" x="184" y="-7.5" font-family="Helvetica,sans-Serif" font-size="10.00" fill="#000000">js_array_slice</text>
</a>
</g>
</g>
<!-- Node45476&#45;&gt;Node45581 -->
<g id="edge15" class="edge">
<title>Node45476&#45;&gt;Node45581</title>
<path fill="none" stroke="#191970" d="M60.4886,-87.8829C75.7352,-70.8346 101.2018,-44.9643 128,-29 134.2623,-25.2694 141.3584,-22.1467 148.3443,-19.5815"/>
<polygon fill="#191970" stroke="#191970" points="57.8102,-85.6289 53.8638,-95.4613 63.0804,-90.2359 57.8102,-85.6289"/>
</g>
<!-- Node45478 -->
<g id="node3" class="node">
<title>Node45478</title>
<g id="a_node3"><a xlink:href="quickjs_8c.html#ac2894ff4edcdb4e6841bcce9c76081e3" target="_top" xlink:title="JS_CallInternal">
<polygon fill="none" stroke="#000000" points="276,-190.5 276,-209.5 359,-209.5 359,-190.5 276,-190.5"/>
<text text-anchor="middle" x="317.5" y="-197.5" font-family="Helvetica,sans-Serif" font-size="10.00" fill="#000000">JS_CallInternal</text>
</a>
</g>
</g>
<!-- Node45477&#45;&gt;Node45478 -->
<g id="edge2" class="edge">
<title>Node45477&#45;&gt;Node45478</title>
<path fill="none" stroke="#191970" d="M250.4045,-200C259.1057,-200 267.8148,-200 275.9402,-200"/>
<polygon fill="#191970" stroke="#191970" points="250.2291,-196.5001 240.2291,-200 250.2291,-203.5001 250.2291,-196.5001"/>
</g>
<!-- Node45478&#45;&gt;Node45478 -->
<g id="edge10" class="edge">
<title>Node45478&#45;&gt;Node45478</title>
<path fill="none" stroke="#191970" d="M292.9465,-219.0292C294.2858,-224.128 302.4703,-228 317.5,-228 340.9609,-228 347.7426,-218.5653 337.845,-209.7571"/>
<polygon fill="#191970" stroke="#191970" points="296.209,-220.3096 297.155,-209.7571 289.8348,-217.4164 296.209,-220.3096"/>
</g>
<!-- Node45479 -->
<g id="node4" class="node">
<title>Node45479</title>
<g id="a_node4"><a xlink:href="quickjs_8c.html#ade71a22dc56e7371392393df663b28b3" target="_top" xlink:title="async_func_resume">
<polygon fill="none" stroke="#ff0000" points="410,-266.5 410,-285.5 514,-285.5 514,-266.5 410,-266.5"/>
<text text-anchor="middle" x="462" y="-273.5" font-family="Helvetica,sans-Serif" font-size="10.00" fill="#000000">async_func_resume</text>
</a>
</g>
</g>
<!-- Node45478&#45;&gt;Node45479 -->
<g id="edge3" class="edge">
<title>Node45478&#45;&gt;Node45479</title>
<path fill="none" stroke="#191970" d="M336.1674,-216.7317C351.1367,-229.3741 373.1804,-246.3186 395,-257 402.7101,-260.7743 411.2971,-263.9165 419.6815,-266.487"/>
<polygon fill="#191970" stroke="#191970" points="338.08,-213.7585 328.2264,-209.8651 333.5014,-219.0535 338.08,-213.7585"/>
</g>
<!-- Node45496 -->
<g id="node5" class="node">
<title>Node45496</title>
<g id="a_node5"><a xlink:href="quickjs_8c.html#a1a4c02a29525d5cb2085dd8bca3af350" target="_top" xlink:title="JS_Call">
<polygon fill="none" stroke="#ff0000" points="436.5,-228.5 436.5,-247.5 487.5,-247.5 487.5,-228.5 436.5,-228.5"/>
<text text-anchor="middle" x="462" y="-235.5" font-family="Helvetica,sans-Serif" font-size="10.00" fill="#000000">JS_Call</text>
</a>
</g>
</g>
<!-- Node45478&#45;&gt;Node45496 -->
<g id="edge4" class="edge">
<title>Node45478&#45;&gt;Node45496</title>
<path fill="none" stroke="#191970" d="M369.3524,-207.1309C395.197,-213.291 424.8346,-221.6885 443.4855,-228.4368"/>
<polygon fill="#191970" stroke="#191970" points="369.8269,-203.6484 359.2954,-204.8052 368.2497,-210.4684 369.8269,-203.6484"/>
</g>
<!-- Node45576 -->
<g id="node6" class="node">
<title>Node45576</title>
<g id="a_node6"><a xlink:href="quickjs_8c.html#ad35594576a14c10812efaf958c99af8a" target="_top" xlink:title="JS_CallConstructorInternal">
<polygon fill="none" stroke="#ff0000" points="395,-190.5 395,-209.5 529,-209.5 529,-190.5 395,-190.5"/>
<text text-anchor="middle" x="462" y="-197.5" font-family="Helvetica,sans-Serif" font-size="10.00" fill="#000000">JS_CallConstructorInternal</text>
</a>
</g>
</g>
<!-- Node45478&#45;&gt;Node45576 -->
<g id="edge6" class="edge">
<title>Node45478&#45;&gt;Node45576</title>
<path fill="none" stroke="#191970" d="M369.5209,-193.4909C377.7845,-193.2892 386.4321,-193.2142 394.9815,-193.2658"/>
<polygon fill="#191970" stroke="#191970" points="369.1798,-189.9998 359.2954,-193.814 369.401,-196.9963 369.1798,-189.9998"/>
</g>
<!-- Node45590 -->
<g id="node7" class="node">
<title>Node45590</title>
<g id="a_node7"><a xlink:href="quickjs_8c.html#a75f6ee5e4235a7dc99889f3d2eb2c147" target="_top" xlink:title="JS_CallFree">
<polygon fill="none" stroke="#ff0000" points="426.5,-152.5 426.5,-171.5 497.5,-171.5 497.5,-152.5 426.5,-152.5"/>
<text text-anchor="middle" x="462" y="-159.5" font-family="Helvetica,sans-Serif" font-size="10.00" fill="#000000">JS_CallFree</text>
</a>
</g>
</g>
<!-- Node45478&#45;&gt;Node45590 -->
<g id="edge8" class="edge">
<title>Node45478&#45;&gt;Node45590</title>
<path fill="none" stroke="#191970" d="M345.6305,-187.1263C368.6733,-179.5295 401.4179,-170.7723 426.3055,-165.4723"/>
<polygon fill="#191970" stroke="#191970" points="344.4119,-183.8441 336.095,-190.4076 346.6897,-190.4632 344.4119,-183.8441"/>
</g>
<!-- Node45496&#45;&gt;Node45478 -->
<g id="edge5" class="edge">
<title>Node45496&#45;&gt;Node45478</title>
<path fill="none" stroke="#191970" d="M426.4088,-234.5497C397.8289,-228.469 358.8374,-217.8129 336.095,-209.5924"/>
<polygon fill="#191970" stroke="#191970" points="425.923,-238.0222 436.4179,-236.57 427.3081,-231.1605 425.923,-238.0222"/>
</g>
<!-- Node45576&#45;&gt;Node45478 -->
<g id="edge7" class="edge">
<title>Node45576&#45;&gt;Node45478</title>
<path fill="none" stroke="#191970" d="M384.7059,-206.7354C375.9651,-206.6845 367.3232,-206.5014 359.2954,-206.186"/>
<polygon fill="#191970" stroke="#191970" points="384.9819,-210.2354 394.9815,-206.7342 384.981,-203.2354 384.9819,-210.2354"/>
</g>
<!-- Node45590&#45;&gt;Node45478 -->
<g id="edge9" class="edge">
<title>Node45590&#45;&gt;Node45478</title>
<path fill="none" stroke="#191970" d="M433.7961,-174.8979C412.5982,-181.8825 383.2201,-189.8432 359.2954,-195.1948"/>
<polygon fill="#191970" stroke="#191970" points="435.1689,-178.127 443.4855,-171.5632 432.8909,-171.508 435.1689,-178.127"/>
</g>
</g>
</svg>
