<?xml version="1.0" encoding="UTF-8" standalone="no"?>
<!DOCTYPE svg PUBLIC "-//W3C//DTD SVG 1.1//EN"
 "http://www.w3.org/Graphics/SVG/1.1/DTD/svg11.dtd">
<!-- Generated by graphviz version 2.40.1 (20161225.0304)
 -->
<!-- Title: js_free_port Pages: 1 -->
<!--zoomable 199 -->
<svg id="main" version="1.1" xmlns="http://www.w3.org/2000/svg" xmlns:xlink="http://www.w3.org/1999/xlink" xml:space="preserve" onload="init(evt)">
<style type="text/css"><![CDATA[
.edge:hover path { stroke: red; }
.edge:hover polygon { stroke: red; fill: red; }
]]></style>
<script type="text/javascript"><![CDATA[
var edges = document.getElementsByTagName('g');
if (edges && edges.length) {
  for (var i=0;i<edges.length;i++) {
    if (edges[i].id.substr(0,4)=='edge') {
      edges[i].setAttribute('class','edge');
    }
  }
}
]]></script>
        <defs>
                <circle id="rim" cx="0" cy="0" r="7"/>
                <circle id="rim2" cx="0" cy="0" r="3.5"/>
                <g id="zoomPlus">
                        <use xlink:href="#rim" fill="#404040">
                                <set attributeName="fill" to="#808080" begin="zoomplus.mouseover" end="zoomplus.mouseout"/>
                        </use>
                        <path d="M-4,0h8M0,-4v8" fill="none" stroke="white" stroke-width="1.5" pointer-events="none"/>
                </g>
                <g id="zoomMin">
                        <use xlink:href="#rim" fill="#404040">
                                <set attributeName="fill" to="#808080" begin="zoomminus.mouseover" end="zoomminus.mouseout"/>
                        </use>
                        <path d="M-4,0h8" fill="none" stroke="white" stroke-width="1.5" pointer-events="none"/>
                </g>
                <g id="dirArrow">
                        <path fill="none" stroke="white" stroke-width="1.5" d="M0,-3.0v7 M-2.5,-0.5L0,-3.0L2.5,-0.5"/>
                </g>
               <g id="resetDef">
                       <use xlink:href="#rim2" fill="#404040">
                               <set attributeName="fill" to="#808080" begin="reset.mouseover" end="reset.mouseout"/>
                       </use>
               </g>
        </defs>

<script type="text/javascript">
var viewWidth = 622;
var viewHeight = 199;
var sectionId = 'dynsection-125';
</script>
<script xlink:href="svgpan.js"/>
<svg id="graph" class="graph">
<g id="viewport">
<title>js_free_port</title>
<!-- Node26864 -->
<g id="node1" class="node">
<title>Node26864</title>
<polygon fill="#bfbfbf" stroke="#000000" points="0,-95.5 0,-114.5 68,-114.5 68,-95.5 0,-95.5"/>
<text text-anchor="middle" x="34" y="-102.5" font-family="Helvetica,sans-Serif" font-size="10.00" fill="#000000">js_free_port</text>
</g>
<!-- Node26865 -->
<g id="node2" class="node">
<title>Node26865</title>
<g id="a_node2"><a xlink:href="quickjs-libc_8c.html#a2c8234980adfda2a29db3b01cbdc8362" target="_top" xlink:title="js_free_message_pipe">
<polygon fill="none" stroke="#000000" points="104,-152.5 104,-171.5 218,-171.5 218,-152.5 104,-152.5"/>
<text text-anchor="middle" x="161" y="-159.5" font-family="Helvetica,sans-Serif" font-size="10.00" fill="#000000">js_free_message_pipe</text>
</a>
</g>
</g>
<!-- Node26864&#45;&gt;Node26865 -->
<g id="edge1" class="edge">
<title>Node26864&#45;&gt;Node26865</title>
<path fill="none" stroke="#191970" d="M53.8116,-114.6115C67.7728,-121.3178 86.9441,-130.393 104,-138 111.8081,-141.4825 120.2734,-145.1204 128.2316,-148.4802"/>
<polygon fill="#191970" stroke="#191970" points="127.0336,-151.7731 137.6092,-152.4114 129.74,-145.3174 127.0336,-151.7731"/>
</g>
<!-- Node26869 -->
<g id="node6" class="node">
<title>Node26869</title>
<g id="a_node6"><a xlink:href="quickjs_8c.html#a69e19dda8a93d613203e0baa06f0ed8d" target="_top" xlink:title="js_free_rt">
<polygon fill="none" stroke="#000000" points="544,-76.5 544,-95.5 601,-95.5 601,-76.5 544,-76.5"/>
<text text-anchor="middle" x="572.5" y="-83.5" font-family="Helvetica,sans-Serif" font-size="10.00" fill="#000000">js_free_rt</text>
</a>
</g>
</g>
<!-- Node26864&#45;&gt;Node26869 -->
<g id="edge6" class="edge">
<title>Node26864&#45;&gt;Node26869</title>
<path fill="none" stroke="#191970" d="M68.2567,-105.4796C105.2127,-105.885 165.7852,-106.2246 218,-105 341.2127,-102.1103 371.9908,-99.6464 495,-92 507.6273,-91.2151 521.3997,-90.2004 533.7849,-89.2295"/>
<polygon fill="#191970" stroke="#191970" points="534.1167,-92.7142 543.8068,-88.4302 533.5601,-85.7364 534.1167,-92.7142"/>
</g>
<!-- Node26870 -->
<g id="node7" class="node">
<title>Node26870</title>
<g id="a_node7"><a xlink:href="quickjs_8h.html#ab8db583fa5e7c2b1935854a42859daed" target="_top" xlink:title="JS_FreeValueRT">
<polygon fill="none" stroke="#000000" points="115,-76.5 115,-95.5 207,-95.5 207,-76.5 115,-76.5"/>
<text text-anchor="middle" x="161" y="-83.5" font-family="Helvetica,sans-Serif" font-size="10.00" fill="#000000">JS_FreeValueRT</text>
</a>
</g>
</g>
<!-- Node26864&#45;&gt;Node26870 -->
<g id="edge7" class="edge">
<title>Node26864&#45;&gt;Node26870</title>
<path fill="none" stroke="#191970" d="M68.0337,-99.9083C79.397,-98.2083 92.3778,-96.2663 104.9622,-94.3836"/>
<polygon fill="#191970" stroke="#191970" points="105.5592,-97.8333 114.9312,-92.8922 104.5234,-90.9104 105.5592,-97.8333"/>
</g>
<!-- Node26881 -->
<g id="node11" class="node">
<title>Node26881</title>
<g id="a_node11"><a xlink:href="list_8h.html#ab60d5d18869ebeb5d6ab694289576fa7" target="_top" xlink:title="list_del">
<polygon fill="none" stroke="#000000" points="137.5,-38.5 137.5,-57.5 184.5,-57.5 184.5,-38.5 137.5,-38.5"/>
<text text-anchor="middle" x="161" y="-45.5" font-family="Helvetica,sans-Serif" font-size="10.00" fill="#000000">list_del</text>
</a>
</g>
</g>
<!-- Node26864&#45;&gt;Node26881 -->
<g id="edge13" class="edge">
<title>Node26864&#45;&gt;Node26881</title>
<path fill="none" stroke="#191970" d="M49.7256,-95.425C63.657,-87.1967 84.7197,-75.3694 104,-67 111.5352,-63.729 119.8283,-60.6725 127.6999,-58.0081"/>
<polygon fill="#191970" stroke="#191970" points="128.9362,-61.2864 137.3566,-54.8562 126.7641,-54.6319 128.9362,-61.2864"/>
</g>
<!-- Node26866 -->
<g id="node3" class="node">
<title>Node26866</title>
<g id="a_node3"><a xlink:href="quickjs-libc_8c.html#aa790fd732a5386c363726ddb72bb20e2" target="_top" xlink:title="atomic_add_int">
<polygon fill="none" stroke="#000000" points="531,-171.5 531,-190.5 614,-190.5 614,-171.5 531,-171.5"/>
<text text-anchor="middle" x="572.5" y="-178.5" font-family="Helvetica,sans-Serif" font-size="10.00" fill="#000000">atomic_add_int</text>
</a>
</g>
</g>
<!-- Node26865&#45;&gt;Node26866 -->
<g id="edge2" class="edge">
<title>Node26865&#45;&gt;Node26866</title>
<path fill="none" stroke="#191970" d="M198.7426,-171.5096C215.5406,-175.2746 235.6368,-179.1434 254,-181 347.674,-190.471 457.6389,-187.3433 520.7837,-184.1864"/>
<polygon fill="#191970" stroke="#191970" points="521.0787,-187.6758 530.8834,-183.661 520.715,-180.6853 521.0787,-187.6758"/>
</g>
<!-- Node26867 -->
<g id="node4" class="node">
<title>Node26867</title>
<g id="a_node4"><a xlink:href="quickjs-libc_8c.html#a787c84066ba712c7487df7459615276f" target="_top" xlink:title="js_free_message">
<polygon fill="none" stroke="#000000" points="259.5,-152.5 259.5,-171.5 350.5,-171.5 350.5,-152.5 259.5,-152.5"/>
<text text-anchor="middle" x="305" y="-159.5" font-family="Helvetica,sans-Serif" font-size="10.00" fill="#000000">js_free_message</text>
</a>
</g>
</g>
<!-- Node26865&#45;&gt;Node26867 -->
<g id="edge3" class="edge">
<title>Node26865&#45;&gt;Node26867</title>
<path fill="none" stroke="#191970" d="M218.3264,-162C228.4551,-162 238.9884,-162 249.0778,-162"/>
<polygon fill="#191970" stroke="#191970" points="249.3958,-165.5001 259.3958,-162 249.3957,-158.5001 249.3958,-165.5001"/>
</g>
<!-- Node26868 -->
<g id="node5" class="node">
<title>Node26868</title>
<g id="a_node5"><a xlink:href="quickjs-libc_8c.html#ad959df16227c19d0348cc639ccde3e5f" target="_top" xlink:title="js_sab_free">
<polygon fill="none" stroke="#000000" points="410,-152.5 410,-171.5 477,-171.5 477,-152.5 410,-152.5"/>
<text text-anchor="middle" x="443.5" y="-159.5" font-family="Helvetica,sans-Serif" font-size="10.00" fill="#000000">js_sab_free</text>
</a>
</g>
</g>
<!-- Node26867&#45;&gt;Node26868 -->
<g id="edge4" class="edge">
<title>Node26867&#45;&gt;Node26868</title>
<path fill="none" stroke="#191970" d="M350.7339,-162C366.3546,-162 383.7868,-162 399.2856,-162"/>
<polygon fill="#191970" stroke="#191970" points="399.6607,-165.5001 409.6606,-162 399.6606,-158.5001 399.6607,-165.5001"/>
</g>
<!-- Node26868&#45;&gt;Node26866 -->
<g id="edge5" class="edge">
<title>Node26868&#45;&gt;Node26866</title>
<path fill="none" stroke="#191970" d="M477.0565,-166.9424C490.4006,-168.9078 506.0605,-171.2143 520.7927,-173.3842"/>
<polygon fill="#191970" stroke="#191970" points="520.4006,-176.8641 530.8039,-174.8587 521.4207,-169.9388 520.4006,-176.8641"/>
</g>
<!-- Node26871 -->
<g id="node8" class="node">
<title>Node26871</title>
<g id="a_node8"><a xlink:href="quickjs_8c.html#ab1ea3fad7d138be12144a38be4d36423" target="_top" xlink:title="__JS_FreeValueRT">
<polygon fill="none" stroke="#000000" points="254,-57.5 254,-76.5 356,-76.5 356,-57.5 254,-57.5"/>
<text text-anchor="middle" x="305" y="-64.5" font-family="Helvetica,sans-Serif" font-size="10.00" fill="#000000">__JS_FreeValueRT</text>
</a>
</g>
</g>
<!-- Node26870&#45;&gt;Node26871 -->
<g id="edge8" class="edge">
<title>Node26870&#45;&gt;Node26871</title>
<path fill="none" stroke="#191970" d="M207.3551,-79.8837C218.9813,-78.3497 231.6337,-76.6803 243.8586,-75.0673"/>
<polygon fill="#191970" stroke="#191970" points="244.5389,-78.5079 253.9951,-73.7298 243.6231,-71.5681 244.5389,-78.5079"/>
</g>
<!-- Node26871&#45;&gt;Node26869 -->
<g id="edge11" class="edge">
<title>Node26871&#45;&gt;Node26869</title>
<path fill="none" stroke="#191970" d="M356.2602,-70.6409C408.0213,-74.3174 486.8244,-79.9146 533.6417,-83.24"/>
<polygon fill="#191970" stroke="#191970" points="533.4669,-86.7363 543.6897,-83.9537 533.9629,-79.7539 533.4669,-86.7363"/>
</g>
<!-- Node26872 -->
<g id="node9" class="node">
<title>Node26872</title>
<g id="a_node9"><a xlink:href="quickjs_8c.html#a58c8965dad50b15b75918a09f3d9dc7c" target="_top" xlink:title="JS_FreeAtomStruct">
<polygon fill="none" stroke="#ff0000" points="392,-38.5 392,-57.5 495,-57.5 495,-38.5 392,-38.5"/>
<text text-anchor="middle" x="443.5" y="-45.5" font-family="Helvetica,sans-Serif" font-size="10.00" fill="#000000">JS_FreeAtomStruct</text>
</a>
</g>
</g>
<!-- Node26871&#45;&gt;Node26872 -->
<g id="edge9" class="edge">
<title>Node26871&#45;&gt;Node26872</title>
<path fill="none" stroke="#191970" d="M356.1788,-59.9791C364.4866,-58.8394 373.1674,-57.6485 381.6959,-56.4785"/>
<polygon fill="#191970" stroke="#191970" points="382.1746,-59.9457 391.6061,-55.119 381.2231,-53.0107 382.1746,-59.9457"/>
</g>
<!-- Node26874 -->
<g id="node10" class="node">
<title>Node26874</title>
<g id="a_node10"><a xlink:href="quickjs_8c.html#a8defed3434f60d6b5d6a7ea202cc8f9d" target="_top" xlink:title="free_zero_refcount">
<polygon fill="none" stroke="#ff0000" points="394.5,-.5 394.5,-19.5 492.5,-19.5 492.5,-.5 394.5,-.5"/>
<text text-anchor="middle" x="443.5" y="-7.5" font-family="Helvetica,sans-Serif" font-size="10.00" fill="#000000">free_zero_refcount</text>
</a>
</g>
</g>
<!-- Node26871&#45;&gt;Node26874 -->
<g id="edge12" class="edge">
<title>Node26871&#45;&gt;Node26874</title>
<path fill="none" stroke="#191970" d="M325.9508,-57.4392C343.4831,-49.5376 369.2175,-38.169 392,-29 396.8487,-27.0486 401.9835,-25.0613 407.0593,-23.143"/>
<polygon fill="#191970" stroke="#191970" points="408.5084,-26.3382 416.6569,-19.5668 406.0642,-19.7788 408.5084,-26.3382"/>
</g>
<!-- Node26872&#45;&gt;Node26869 -->
<g id="edge10" class="edge">
<title>Node26872&#45;&gt;Node26869</title>
<path fill="none" stroke="#191970" d="M476.0521,-57.589C493.7673,-62.8074 515.7839,-69.2929 534.3073,-74.7494"/>
<polygon fill="#191970" stroke="#191970" points="533.3293,-78.11 543.9107,-77.5784 535.3073,-71.3952 533.3293,-78.11"/>
</g>
</g>
</svg>
        <g id="navigator" transform="translate(0 0)" fill="#404254">
                <rect fill="#f2f5e9" fill-opacity="0.5" stroke="#606060" stroke-width=".5" x="0" y="0" width="60" height="60"/>
                <use id="zoomplus" xlink:href="#zoomPlus" x="17" y="9" onmousedown="handleZoom(evt,'in')"/>
                <use id="zoomminus" xlink:href="#zoomMin" x="42" y="9" onmousedown="handleZoom(evt,'out')"/>
                <use id="reset" xlink:href="#resetDef" x="30" y="36" onmousedown="handleReset()"/>
                <g id="arrowUp" xlink:href="#dirArrow" transform="translate(30 24)" onmousedown="handlePan(0,-1)">
                  <use xlink:href="#rim" fill="#404040">
                        <set attributeName="fill" to="#808080" begin="arrowUp.mouseover" end="arrowUp.mouseout"/>
                  </use>
                  <path fill="none" stroke="white" stroke-width="1.5" d="M0,-3.0v7 M-2.5,-0.5L0,-3.0L2.5,-0.5"/>
                </g>
                <g id="arrowRight" xlink:href="#dirArrow" transform="rotate(90) translate(36 -43)" onmousedown="handlePan(1,0)">
                  <use xlink:href="#rim" fill="#404040">
                        <set attributeName="fill" to="#808080" begin="arrowRight.mouseover" end="arrowRight.mouseout"/>
                  </use>
                  <path fill="none" stroke="white" stroke-width="1.5" d="M0,-3.0v7 M-2.5,-0.5L0,-3.0L2.5,-0.5"/>
                </g>
                <g id="arrowDown" xlink:href="#dirArrow" transform="rotate(180) translate(-30 -48)" onmousedown="handlePan(0,1)">
                  <use xlink:href="#rim" fill="#404040">
                        <set attributeName="fill" to="#808080" begin="arrowDown.mouseover" end="arrowDown.mouseout"/>
                  </use>
                  <path fill="none" stroke="white" stroke-width="1.5" d="M0,-3.0v7 M-2.5,-0.5L0,-3.0L2.5,-0.5"/>
                </g>
                <g id="arrowLeft" xlink:href="#dirArrow" transform="rotate(270) translate(-36 17)" onmousedown="handlePan(-1,0)">
                  <use xlink:href="#rim" fill="#404040">
                        <set attributeName="fill" to="#808080" begin="arrowLeft.mouseover" end="arrowLeft.mouseout"/>
                  </use>
                  <path fill="none" stroke="white" stroke-width="1.5" d="M0,-3.0v7 M-2.5,-0.5L0,-3.0L2.5,-0.5"/>
                </g>
        </g>
        <svg viewBox="0 0 15 15" width="100%" height="30px" preserveAspectRatio="xMaxYMin meet">
         <g id="arrow_out" transform="scale(0.3 0.3)">
          <a xlink:href="quickjs-libc_8c_a23e6bef6353d5de8d3103a30b107965e_cgraph_org.svg" target="_base">
           <rect id="button" ry="5" rx="5" y="6" x="6" height="38" width="38"
                fill="#f2f5e9" fill-opacity="0.5" stroke="#606060" stroke-width="1.0"/>
           <path id="arrow"
             d="M 11.500037,31.436501 C 11.940474,20.09759 22.043105,11.32322 32.158766,21.979434 L 37.068811,17.246167 C 37.068811,17.246167 37.088388,32 37.088388,32 L 22.160133,31.978069 C 22.160133,31.978069 26.997745,27.140456 26.997745,27.140456 C 18.528582,18.264221 13.291696,25.230495 11.500037,31.436501 z"
             style="fill:#404040;"/>
          </a>
         </g>
        </svg>
</svg>
