<?xml version="1.0" encoding="UTF-8" standalone="no"?>
<!DOCTYPE svg PUBLIC "-//W3C//DTD SVG 1.1//EN"
 "http://www.w3.org/Graphics/SVG/1.1/DTD/svg11.dtd">
<!-- Generated by graphviz version 2.40.1 (20161225.0304)
 -->
<!-- Title: remainingElementsCount_add Pages: 1 -->
<svg width="715pt" height="387pt"
 viewBox="0.00 0.00 715.00 387.35" xmlns="http://www.w3.org/2000/svg" xmlns:xlink="http://www.w3.org/1999/xlink">
<g id="graph0" class="graph" transform="scale(1 1) rotate(0) translate(4 383.3516)">
<title>remainingElementsCount_add</title>
<!-- Node455479 -->
<g id="node1" class="node">
<title>Node455479</title>
<polygon fill="#bfbfbf" stroke="#000000" points="0,-55.8516 0,-74.8516 147,-74.8516 147,-55.8516 0,-55.8516"/>
<text text-anchor="middle" x="73.5" y="-62.8516" font-family="Helvetica,sans-Serif" font-size="10.00" fill="#000000">remainingElementsCount_add</text>
</g>
<!-- Node455480 -->
<g id="node2" class="node">
<title>Node455480</title>
<g id="a_node2"><a xlink:href="quickjs_8c.html#aeb97957655d979e9fe56c955da2b2d4b" target="_top" xlink:title="JS_GetPropertyUint32">
<polygon fill="none" stroke="#000000" points="183,-226.8516 183,-245.8516 298,-245.8516 298,-226.8516 183,-226.8516"/>
<text text-anchor="middle" x="240.5" y="-233.8516" font-family="Helvetica,sans-Serif" font-size="10.00" fill="#000000">JS_GetPropertyUint32</text>
</a>
</g>
</g>
<!-- Node455479&#45;&gt;Node455480 -->
<g id="edge1" class="edge">
<title>Node455479&#45;&gt;Node455480</title>
<path fill="none" stroke="#191970" d="M82.9571,-75.0352C110.2842,-103.0169 189.6,-184.2325 224.1239,-219.5833"/>
<polygon fill="#191970" stroke="#191970" points="221.6557,-222.0653 231.1466,-226.7741 226.6637,-217.1744 221.6557,-222.0653"/>
</g>
<!-- Node455530 -->
<g id="node9" class="node">
<title>Node455530</title>
<g id="a_node9"><a xlink:href="quickjs_8h.html#a2050bc428da1c65ac7eb87c3fa3b0392" target="_top" xlink:title="JS_NewInt32">
<polygon fill="none" stroke="#000000" points="620.5,-207.8516 620.5,-226.8516 696.5,-226.8516 696.5,-207.8516 620.5,-207.8516"/>
<text text-anchor="middle" x="658.5" y="-214.8516" font-family="Helvetica,sans-Serif" font-size="10.00" fill="#000000">JS_NewInt32</text>
</a>
</g>
</g>
<!-- Node455479&#45;&gt;Node455530 -->
<g id="edge16" class="edge">
<title>Node455479&#45;&gt;Node455530</title>
<path fill="none" stroke="#191970" d="M147.1284,-59.9532C268.3091,-52.4073 503.405,-43.803 574,-84.3516 617.7333,-109.4713 642.3007,-167.3875 652.626,-197.8356"/>
<polygon fill="#191970" stroke="#191970" points="649.4037,-199.2488 655.7948,-207.6989 656.0682,-197.1076 649.4037,-199.2488"/>
</g>
<!-- Node455529 -->
<g id="node12" class="node">
<title>Node455529</title>
<g id="a_node12"><a xlink:href="quickjs_8h.html#ad80a83d73e9b7d872b88fbf2943aebe9" target="_top" xlink:title="JS_IsException">
<polygon fill="none" stroke="#000000" points="615.5,-17.8516 615.5,-36.8516 701.5,-36.8516 701.5,-17.8516 615.5,-17.8516"/>
<text text-anchor="middle" x="658.5" y="-24.8516" font-family="Helvetica,sans-Serif" font-size="10.00" fill="#000000">JS_IsException</text>
</a>
</g>
</g>
<!-- Node455479&#45;&gt;Node455529 -->
<g id="edge15" class="edge">
<title>Node455479&#45;&gt;Node455529</title>
<path fill="none" stroke="#191970" d="M105.3211,-55.837C127.0239,-49.6893 156.5222,-41.997 183,-37.3516 354.6336,-7.2395 400.8093,10.8795 574,-8.3516 587.2073,-9.8181 601.366,-12.5364 614.2453,-15.4674"/>
<polygon fill="#191970" stroke="#191970" points="613.7193,-18.9398 624.2573,-17.8438 615.3359,-12.129 613.7193,-18.9398"/>
</g>
<!-- Node455911 -->
<g id="node13" class="node">
<title>Node455911</title>
<g id="a_node13"><a xlink:href="quickjs_8c.html#aae909eaec829081b270012adfcd717a4" target="_top" xlink:title="JS_SetPropertyUint32">
<polygon fill="none" stroke="#000000" points="183.5,-112.8516 183.5,-131.8516 297.5,-131.8516 297.5,-112.8516 183.5,-112.8516"/>
<text text-anchor="middle" x="240.5" y="-119.8516" font-family="Helvetica,sans-Serif" font-size="10.00" fill="#000000">JS_SetPropertyUint32</text>
</a>
</g>
</g>
<!-- Node455479&#45;&gt;Node455911 -->
<g id="edge17" class="edge">
<title>Node455479&#45;&gt;Node455911</title>
<path fill="none" stroke="#191970" d="M101.452,-74.8921C129.2688,-84.3865 172.1378,-99.0184 202.9212,-109.5253"/>
<polygon fill="#191970" stroke="#191970" points="201.8622,-112.8621 212.4568,-112.7799 204.1234,-106.2373 201.8622,-112.8621"/>
</g>
<!-- Node455603 -->
<g id="node15" class="node">
<title>Node455603</title>
<g id="a_node15"><a xlink:href="quickjs_8c.html#a643088ab23784b7f3c6ff94c37228256" target="_top" xlink:title="JS_ToInt32Free">
<polygon fill="none" stroke="#ff0000" points="484.5,-17.8516 484.5,-36.8516 570.5,-36.8516 570.5,-17.8516 484.5,-17.8516"/>
<text text-anchor="middle" x="527.5" y="-24.8516" font-family="Helvetica,sans-Serif" font-size="10.00" fill="#000000">JS_ToInt32Free</text>
</a>
</g>
</g>
<!-- Node455479&#45;&gt;Node455603 -->
<g id="edge25" class="edge">
<title>Node455479&#45;&gt;Node455603</title>
<path fill="none" stroke="#191970" d="M143.2363,-55.8246C156.4283,-54.1957 170.126,-52.622 183,-51.3516 286.0029,-41.1875 406.7506,-33.8176 474.4675,-30.0956"/>
<polygon fill="#191970" stroke="#191970" points="474.6724,-33.5897 484.4674,-29.5513 474.2919,-26.6 474.6724,-33.5897"/>
</g>
<!-- Node455481 -->
<g id="node3" class="node">
<title>Node455481</title>
<g id="a_node3"><a xlink:href="quickjs_8c.html#a90d6e607f6917d817c1e997bd2e6ed07" target="_top" xlink:title="JS_GetPropertyValue">
<polygon fill="none" stroke="#000000" points="334,-226.8516 334,-245.8516 445,-245.8516 445,-226.8516 334,-226.8516"/>
<text text-anchor="middle" x="389.5" y="-233.8516" font-family="Helvetica,sans-Serif" font-size="10.00" fill="#000000">JS_GetPropertyValue</text>
</a>
</g>
</g>
<!-- Node455480&#45;&gt;Node455481 -->
<g id="edge2" class="edge">
<title>Node455480&#45;&gt;Node455481</title>
<path fill="none" stroke="#191970" d="M298.1073,-236.3516C306.3745,-236.3516 314.9347,-236.3516 323.3509,-236.3516"/>
<polygon fill="#191970" stroke="#191970" points="323.5161,-239.8517 333.5161,-236.3516 323.5161,-232.8517 323.5161,-239.8517"/>
</g>
<!-- Node455673 -->
<g id="node10" class="node">
<title>Node455673</title>
<g id="a_node10"><a xlink:href="quickjs_8h.html#a88259aa0da61ac754402c64ccecee116" target="_top" xlink:title="JS_NewUint32">
<polygon fill="none" stroke="#000000" points="486,-359.8516 486,-378.8516 569,-378.8516 569,-359.8516 486,-359.8516"/>
<text text-anchor="middle" x="527.5" y="-366.8516" font-family="Helvetica,sans-Serif" font-size="10.00" fill="#000000">JS_NewUint32</text>
</a>
</g>
</g>
<!-- Node455480&#45;&gt;Node455673 -->
<g id="edge14" class="edge">
<title>Node455480&#45;&gt;Node455673</title>
<path fill="none" stroke="#191970" d="M249.0306,-246.0357C264.3646,-262.8461 298.3275,-297.4366 334,-316.3516 378.9643,-340.1934 435.6382,-354.0851 476.0063,-361.618"/>
<polygon fill="#191970" stroke="#191970" points="475.4393,-365.0721 485.901,-363.3983 476.6789,-358.1827 475.4393,-365.0721"/>
</g>
<!-- Node455482 -->
<g id="node4" class="node">
<title>Node455482</title>
<g id="a_node4"><a xlink:href="quickjs_8h.html#a9bf98b18de88b4199910a43e933eb97d" target="_top" xlink:title="__JS_NewFloat64">
<polygon fill="none" stroke="#000000" points="610,-302.8516 610,-321.8516 707,-321.8516 707,-302.8516 610,-302.8516"/>
<text text-anchor="middle" x="658.5" y="-309.8516" font-family="Helvetica,sans-Serif" font-size="10.00" fill="#000000">__JS_NewFloat64</text>
</a>
</g>
</g>
<!-- Node455481&#45;&gt;Node455482 -->
<g id="edge3" class="edge">
<title>Node455481&#45;&gt;Node455482</title>
<path fill="none" stroke="#191970" d="M445.2178,-244.5489C482.2563,-250.7932 531.6822,-260.6622 574,-274.3516 593.5179,-280.6654 614.56,-290.1191 630.7638,-298.0173"/>
<polygon fill="#191970" stroke="#191970" points="629.658,-301.3762 640.1708,-302.6921 632.7732,-295.1075 629.658,-301.3762"/>
</g>
<!-- Node455483 -->
<g id="node5" class="node">
<title>Node455483</title>
<g id="a_node5"><a xlink:href="quickjs_8h.html#a775522f2d084fc8fa0fcb33f390006b4" target="_top" xlink:title="JS_DupValue">
<polygon fill="none" stroke="#000000" points="489,-321.8516 489,-340.8516 566,-340.8516 566,-321.8516 489,-321.8516"/>
<text text-anchor="middle" x="527.5" y="-328.8516" font-family="Helvetica,sans-Serif" font-size="10.00" fill="#000000">JS_DupValue</text>
</a>
</g>
</g>
<!-- Node455481&#45;&gt;Node455483 -->
<g id="edge4" class="edge">
<title>Node455481&#45;&gt;Node455483</title>
<path fill="none" stroke="#191970" d="M398.8952,-245.8579C414.6868,-261.4229 448.0657,-292.5869 481,-312.3516 484.178,-314.2588 487.5824,-316.0564 491.0504,-317.7282"/>
<polygon fill="#191970" stroke="#191970" points="489.7096,-320.9626 500.2674,-321.8489 492.5667,-314.5722 489.7096,-320.9626"/>
</g>
<!-- Node455484 -->
<g id="node6" class="node">
<title>Node455484</title>
<g id="a_node6"><a xlink:href="quickjs_8c.html#ab7fc45a99935a1c0ba50b0216d9401a9" target="_top" xlink:title="JS_FreeAtom">
<polygon fill="none" stroke="#ff0000" points="489,-93.8516 489,-112.8516 566,-112.8516 566,-93.8516 489,-93.8516"/>
<text text-anchor="middle" x="527.5" y="-100.8516" font-family="Helvetica,sans-Serif" font-size="10.00" fill="#000000">JS_FreeAtom</text>
</a>
</g>
</g>
<!-- Node455481&#45;&gt;Node455484 -->
<g id="edge5" class="edge">
<title>Node455481&#45;&gt;Node455484</title>
<path fill="none" stroke="#191970" d="M394.8805,-226.7312C407.3571,-205.2139 440.3241,-152.711 481,-122.3516 483.3587,-120.5911 485.9037,-118.9646 488.5449,-117.4673"/>
<polygon fill="#191970" stroke="#191970" points="490.3786,-120.4639 497.7642,-112.8676 487.2535,-114.2002 490.3786,-120.4639"/>
</g>
<!-- Node455490 -->
<g id="node7" class="node">
<title>Node455490</title>
<g id="a_node7"><a xlink:href="quickjs_8h.html#afaa20c47565bc704c6c85f3d77254e7d" target="_top" xlink:title="JS_FreeValue">
<polygon fill="none" stroke="#ff0000" points="488.5,-169.8516 488.5,-188.8516 566.5,-188.8516 566.5,-169.8516 488.5,-169.8516"/>
<text text-anchor="middle" x="527.5" y="-176.8516" font-family="Helvetica,sans-Serif" font-size="10.00" fill="#000000">JS_FreeValue</text>
</a>
</g>
</g>
<!-- Node455481&#45;&gt;Node455490 -->
<g id="edge6" class="edge">
<title>Node455481&#45;&gt;Node455490</title>
<path fill="none" stroke="#191970" d="M412.5981,-226.8111C435.0869,-217.5222 469.4814,-203.3158 494.7813,-192.8659"/>
<polygon fill="#191970" stroke="#191970" points="496.4201,-195.9758 504.3265,-188.9232 493.7477,-189.506 496.4201,-195.9758"/>
</g>
<!-- Node455521 -->
<g id="node8" class="node">
<title>Node455521</title>
<g id="a_node8"><a xlink:href="quickjs_8h.html#a89b7c8686c7eee70b86be722ee4730ad" target="_top" xlink:title="JS_GetProperty">
<polygon fill="none" stroke="#ff0000" points="484.5,-283.8516 484.5,-302.8516 570.5,-302.8516 570.5,-283.8516 484.5,-283.8516"/>
<text text-anchor="middle" x="527.5" y="-290.8516" font-family="Helvetica,sans-Serif" font-size="10.00" fill="#000000">JS_GetProperty</text>
</a>
</g>
</g>
<!-- Node455481&#45;&gt;Node455521 -->
<g id="edge7" class="edge">
<title>Node455481&#45;&gt;Node455521</title>
<path fill="none" stroke="#191970" d="M412.5981,-245.8921C435.0869,-255.181 469.4814,-269.3874 494.7813,-279.8373"/>
<polygon fill="#191970" stroke="#191970" points="493.7477,-283.1972 504.3265,-283.7799 496.4201,-276.7274 493.7477,-283.1972"/>
</g>
<!-- Node455481&#45;&gt;Node455530 -->
<g id="edge8" class="edge">
<title>Node455481&#45;&gt;Node455530</title>
<path fill="none" stroke="#191970" d="M445.237,-232.4148C493.8807,-228.979 563.7465,-224.0442 610.0901,-220.7709"/>
<polygon fill="#191970" stroke="#191970" points="610.4536,-224.254 620.1821,-220.0581 609.9603,-217.2714 610.4536,-224.254"/>
</g>
<!-- Node455481&#45;&gt;Node455673 -->
<g id="edge9" class="edge">
<title>Node455481&#45;&gt;Node455673</title>
<path fill="none" stroke="#191970" d="M401.9628,-246.2008C413.9151,-256.044 432.0122,-272.0254 445,-288.3516 464.8371,-313.2875 456.9673,-329.4294 481,-350.3516 482.7636,-351.8869 484.6679,-353.3091 486.664,-354.6249"/>
<polygon fill="#191970" stroke="#191970" points="485.4118,-357.9333 495.8524,-359.7344 488.8138,-351.8156 485.4118,-357.9333"/>
</g>
<!-- Node455712 -->
<g id="node11" class="node">
<title>Node455712</title>
<g id="a_node11"><a xlink:href="quickjs_8c.html#a859d5c989a2aaecef1653b3ac279e108" target="_top" xlink:title="JS_ValueToAtom">
<polygon fill="none" stroke="#ff0000" points="481,-131.8516 481,-150.8516 574,-150.8516 574,-131.8516 481,-131.8516"/>
<text text-anchor="middle" x="527.5" y="-138.8516" font-family="Helvetica,sans-Serif" font-size="10.00" fill="#000000">JS_ValueToAtom</text>
</a>
</g>
</g>
<!-- Node455481&#45;&gt;Node455712 -->
<g id="edge12" class="edge">
<title>Node455481&#45;&gt;Node455712</title>
<path fill="none" stroke="#191970" d="M398.8952,-226.8453C414.6868,-211.2803 448.0657,-180.1163 481,-160.3516 484.178,-158.4444 487.5824,-156.6468 491.0504,-154.9749"/>
<polygon fill="#191970" stroke="#191970" points="492.5667,-158.131 500.2674,-150.8543 489.7096,-151.7406 492.5667,-158.131"/>
</g>
<!-- Node455673&#45;&gt;Node455482 -->
<g id="edge11" class="edge">
<title>Node455673&#45;&gt;Node455482</title>
<path fill="none" stroke="#191970" d="M551.2219,-359.8439C558.5475,-356.8582 566.6267,-353.5147 574,-350.3516 592.1177,-342.5791 612.2557,-333.5389 628.3267,-326.2264"/>
<polygon fill="#191970" stroke="#191970" points="630.1096,-329.26 637.7532,-321.9234 627.2027,-322.8921 630.1096,-329.26"/>
</g>
<!-- Node455673&#45;&gt;Node455530 -->
<g id="edge10" class="edge">
<title>Node455673&#45;&gt;Node455530</title>
<path fill="none" stroke="#191970" d="M558.5478,-359.8251C564.0445,-357.2879 569.4555,-354.1614 574,-350.3516 596.9614,-331.1019 593.9406,-318.6473 610,-293.3516 622.5051,-273.6542 636.8911,-251.1281 646.7277,-235.7457"/>
<polygon fill="#191970" stroke="#191970" points="649.7666,-237.4902 652.207,-227.1803 643.8699,-233.718 649.7666,-237.4902"/>
</g>
<!-- Node455712&#45;&gt;Node455529 -->
<g id="edge13" class="edge">
<title>Node455712&#45;&gt;Node455529</title>
<path fill="none" stroke="#191970" d="M556.6025,-131.8491C562.6245,-129.2398 568.7322,-126.0795 574,-122.3516 604.4489,-100.8034 631.5198,-66.3065 646.404,-45.3464"/>
<polygon fill="#191970" stroke="#191970" points="649.3584,-47.2279 652.1825,-37.0164 643.6068,-43.2379 649.3584,-47.2279"/>
</g>
<!-- Node455911&#45;&gt;Node455673 -->
<g id="edge18" class="edge">
<title>Node455911&#45;&gt;Node455673</title>
<path fill="none" stroke="#191970" d="M245.3746,-132.1783C257.5327,-155.8952 291.3142,-217.1301 334,-255.3516 375.937,-292.9026 399.5034,-283.2026 445,-316.3516 462.7873,-329.3115 462.4997,-338.4316 481,-350.3516 483.7857,-352.1465 486.769,-353.8272 489.8299,-355.388"/>
<polygon fill="#191970" stroke="#191970" points="488.581,-358.667 499.1248,-359.7052 491.5298,-352.3184 488.581,-358.667"/>
</g>
<!-- Node455685 -->
<g id="node14" class="node">
<title>Node455685</title>
<g id="a_node14"><a xlink:href="quickjs_8c.html#aee75cc1546e19479e3ccda58f3b50a96" target="_top" xlink:title="JS_SetPropertyValue">
<polygon fill="none" stroke="#ff0000" points="334.5,-112.8516 334.5,-131.8516 444.5,-131.8516 444.5,-112.8516 334.5,-112.8516"/>
<text text-anchor="middle" x="389.5" y="-119.8516" font-family="Helvetica,sans-Serif" font-size="10.00" fill="#000000">JS_SetPropertyValue</text>
</a>
</g>
</g>
<!-- Node455911&#45;&gt;Node455685 -->
<g id="edge19" class="edge">
<title>Node455911&#45;&gt;Node455685</title>
<path fill="none" stroke="#191970" d="M297.6812,-122.3516C306.2932,-122.3516 315.232,-122.3516 324.002,-122.3516"/>
<polygon fill="#191970" stroke="#191970" points="324.19,-125.8517 334.1899,-122.3516 324.1899,-118.8517 324.19,-125.8517"/>
</g>
<!-- Node455685&#45;&gt;Node455484 -->
<g id="edge20" class="edge">
<title>Node455685&#45;&gt;Node455484</title>
<path fill="none" stroke="#191970" d="M444.8347,-114.733C455.9724,-113.1996 467.605,-111.598 478.508,-110.0969"/>
<polygon fill="#191970" stroke="#191970" points="479.2687,-113.5252 488.6978,-108.6939 478.3139,-106.5907 479.2687,-113.5252"/>
</g>
<!-- Node455685&#45;&gt;Node455490 -->
<g id="edge21" class="edge">
<title>Node455685&#45;&gt;Node455490</title>
<path fill="none" stroke="#191970" d="M412.4231,-131.9142C430.9211,-139.6205 457.6208,-150.7206 481,-160.3516 485.2887,-162.1183 489.8026,-163.9711 494.2629,-165.7979"/>
<polygon fill="#191970" stroke="#191970" points="493.2528,-169.1661 503.8335,-169.712 495.9026,-162.687 493.2528,-169.1661"/>
</g>
<!-- Node455685&#45;&gt;Node455712 -->
<g id="edge24" class="edge">
<title>Node455685&#45;&gt;Node455712</title>
<path fill="none" stroke="#191970" d="M444.8347,-129.9701C453.2577,-131.1298 461.9637,-132.3285 470.4232,-133.4932"/>
<polygon fill="#191970" stroke="#191970" points="470.2,-136.9954 480.5839,-134.8921 471.1548,-130.0608 470.2,-136.9954"/>
</g>
<!-- Node455685&#45;&gt;Node455603 -->
<g id="edge22" class="edge">
<title>Node455685&#45;&gt;Node455603</title>
<path fill="none" stroke="#191970" d="M403.4916,-112.7197C427.3584,-96.2897 476.142,-62.7067 504.8963,-42.9121"/>
<polygon fill="#191970" stroke="#191970" points="507.219,-45.5623 513.4714,-37.009 503.2498,-39.7965 507.219,-45.5623"/>
</g>
<!-- Node455603&#45;&gt;Node455529 -->
<g id="edge23" class="edge">
<title>Node455603&#45;&gt;Node455529</title>
<path fill="none" stroke="#191970" d="M570.7574,-27.3516C581.7127,-27.3516 593.6101,-27.3516 605.0055,-27.3516"/>
<polygon fill="#191970" stroke="#191970" points="605.2881,-30.8517 615.2881,-27.3516 605.288,-23.8517 605.2881,-30.8517"/>
</g>
</g>
</svg>
