<?xml version="1.0" encoding="UTF-8" standalone="no"?>
<!DOCTYPE svg PUBLIC "-//W3C//DTD SVG 1.1//EN"
 "http://www.w3.org/Graphics/SVG/1.1/DTD/svg11.dtd">
<!-- Generated by graphviz version 2.40.1 (20161225.0304)
 -->
<!-- Title: JS_VALUE_IS_NAN Pages: 1 -->
<svg width="1578pt" height="1634pt"
 viewBox="0.00 0.00 1578.00 1634.00" xmlns="http://www.w3.org/2000/svg" xmlns:xlink="http://www.w3.org/1999/xlink">
<g id="graph0" class="graph" transform="scale(1 1) rotate(0) translate(4 1630.0006)">
<title>JS_VALUE_IS_NAN</title>
<!-- Node629 -->
<g id="node1" class="node">
<title>Node629</title>
<polygon fill="#bfbfbf" stroke="#000000" points="0,-601.5 0,-620.5 109,-620.5 109,-601.5 0,-601.5"/>
<text text-anchor="middle" x="54.5" y="-608.5" font-family="Helvetica,sans-Serif" font-size="10.00" fill="#000000">JS_VALUE_IS_NAN</text>
</g>
<!-- Node630 -->
<g id="node2" class="node">
<title>Node630</title>
<g id="a_node2"><a xlink:href="quickjs_8c.html#a75a3798e2045f6e403c1ef467126d1fb" target="_top" xlink:title="next_token">
<polygon fill="none" stroke="#ff0000" points="145,-601.5 145,-620.5 210,-620.5 210,-601.5 145,-601.5"/>
<text text-anchor="middle" x="177.5" y="-608.5" font-family="Helvetica,sans-Serif" font-size="10.00" fill="#000000">next_token</text>
</a>
</g>
</g>
<!-- Node629&#45;&gt;Node630 -->
<g id="edge1" class="edge">
<title>Node629&#45;&gt;Node630</title>
<path fill="none" stroke="#191970" d="M119.2075,-611C128.1029,-611 136.9087,-611 144.8776,-611"/>
<polygon fill="#191970" stroke="#191970" points="119.1659,-607.5001 109.1659,-611 119.1659,-614.5001 119.1659,-607.5001"/>
</g>
<!-- Node631 -->
<g id="node3" class="node">
<title>Node631</title>
<g id="a_node3"><a xlink:href="quickjs_8c.html#a08f5927b79691c477c726fc5d309cfef" target="_top" xlink:title="is_let">
<polygon fill="none" stroke="#ff0000" points="596,-380.5 596,-399.5 636,-399.5 636,-380.5 596,-380.5"/>
<text text-anchor="middle" x="616" y="-387.5" font-family="Helvetica,sans-Serif" font-size="10.00" fill="#000000">is_let</text>
</a>
</g>
</g>
<!-- Node630&#45;&gt;Node631 -->
<g id="edge2" class="edge">
<title>Node630&#45;&gt;Node631</title>
<path fill="none" stroke="#191970" d="M181.0117,-591.1986C187.7151,-559.5424 205.4466,-497.867 246,-466 354.7966,-380.5074 535.6033,-384.3144 595.8065,-388.2945"/>
<polygon fill="#191970" stroke="#191970" points="177.5026,-590.9067 179.0192,-601.3924 184.3726,-592.2496 177.5026,-590.9067"/>
</g>
<!-- Node632 -->
<g id="node4" class="node">
<title>Node632</title>
<g id="a_node4"><a xlink:href="quickjs_8c.html#ac188b916dd086803591a67de7e7a85f6" target="_top" xlink:title="js_parse_for_in_of">
<polygon fill="none" stroke="#ff0000" points="1047,-582.5 1047,-601.5 1143,-601.5 1143,-582.5 1047,-582.5"/>
<text text-anchor="middle" x="1095" y="-589.5" font-family="Helvetica,sans-Serif" font-size="10.00" fill="#000000">js_parse_for_in_of</text>
</a>
</g>
</g>
<!-- Node630&#45;&gt;Node632 -->
<g id="edge75" class="edge">
<title>Node630&#45;&gt;Node632</title>
<path fill="none" stroke="#191970" d="M180.4256,-591.2252C188.577,-538.7579 213.1251,-397.8538 246,-366 315.5187,-298.6407 360.7006,-314 457.5,-314 457.5,-314 457.5,-314 780,-314 945.9367,-314 1065.7142,-533.5471 1090.3268,-582.4306"/>
<polygon fill="#191970" stroke="#191970" points="176.9416,-590.8558 178.8992,-601.2682 183.8621,-591.9077 176.9416,-590.8558"/>
</g>
<!-- Node648 -->
<g id="node5" class="node">
<title>Node648</title>
<g id="a_node5"><a xlink:href="quickjs_8c.html#a253917187cfb6b3db09d355b31edb3d5" target="_top" xlink:title="js_parse_array_literal">
<polygon fill="none" stroke="#000000" points="561.5,-1000.5 561.5,-1019.5 670.5,-1019.5 670.5,-1000.5 561.5,-1000.5"/>
<text text-anchor="middle" x="616" y="-1007.5" font-family="Helvetica,sans-Serif" font-size="10.00" fill="#000000">js_parse_array_literal</text>
</a>
</g>
</g>
<!-- Node630&#45;&gt;Node648 -->
<g id="edge4" class="edge">
<title>Node630&#45;&gt;Node648</title>
<path fill="none" stroke="#191970" d="M179.1082,-630.6909C184.9195,-697.9843 206.5959,-917.8116 246,-975 318.6461,-1080.4335 402.676,-1120.5015 519,-1067 541.3362,-1056.7268 534.0615,-1037.8849 555,-1025 558.4366,-1022.8852 562.154,-1021.0684 565.9993,-1019.5076"/>
<polygon fill="#191970" stroke="#191970" points="182.5856,-630.2753 178.2585,-620.6044 175.6104,-630.8629 182.5856,-630.2753"/>
</g>
<!-- Node639 -->
<g id="node6" class="node">
<title>Node639</title>
<g id="a_node6"><a xlink:href="quickjs_8c.html#acdcc62310b4f6f73fa7bc7267b18b1d4" target="_top" xlink:title="js_parse_postfix_expr">
<polygon fill="none" stroke="#ff0000" points="724,-810.5 724,-829.5 836,-829.5 836,-810.5 724,-810.5"/>
<text text-anchor="middle" x="780" y="-817.5" font-family="Helvetica,sans-Serif" font-size="10.00" fill="#000000">js_parse_postfix_expr</text>
</a>
</g>
</g>
<!-- Node630&#45;&gt;Node639 -->
<g id="edge83" class="edge">
<title>Node630&#45;&gt;Node639</title>
<path fill="none" stroke="#191970" d="M191.9476,-628.906C204.745,-643.6964 224.6647,-664.2615 246,-677 402.9803,-770.7273 622.0297,-804.1476 723.8449,-815.1136"/>
<polygon fill="#191970" stroke="#191970" points="194.391,-626.3732 185.2788,-620.9677 189.0313,-630.8758 194.391,-626.3732"/>
</g>
<!-- Node637 -->
<g id="node7" class="node">
<title>Node637</title>
<g id="a_node7"><a xlink:href="quickjs_8c.html#a00eb789430243c24dab4a63ad6a79653" target="_top" xlink:title="js_parse_class">
<polygon fill="none" stroke="#ff0000" points="1366,-810.5 1366,-829.5 1448,-829.5 1448,-810.5 1366,-810.5"/>
<text text-anchor="middle" x="1407" y="-817.5" font-family="Helvetica,sans-Serif" font-size="10.00" fill="#000000">js_parse_class</text>
</a>
</g>
</g>
<!-- Node630&#45;&gt;Node637 -->
<g id="edge35" class="edge">
<title>Node630&#45;&gt;Node637</title>
<path fill="none" stroke="#191970" d="M178.4782,-591.1709C182.1961,-524.4935 197.7676,-310.0378 246,-265 315.262,-200.3256 362.7371,-238 457.5,-238 457.5,-238 457.5,-238 1095,-238 1222.3634,-238 1261.0741,-294.8989 1330,-402 1375.9236,-473.3588 1401.4819,-753.9001 1406.1997,-810.1491"/>
<polygon fill="#191970" stroke="#191970" points="174.9811,-591.0269 177.948,-601.1978 181.9713,-591.3966 174.9811,-591.0269"/>
</g>
<!-- Node638 -->
<g id="node8" class="node">
<title>Node638</title>
<g id="a_node8"><a xlink:href="quickjs_8c.html#a498e1d5c7de1b59c1630e9847cde1e41" target="_top" xlink:title="js_parse_export">
<polygon fill="none" stroke="#ff0000" points="1484,-810.5 1484,-829.5 1570,-829.5 1570,-810.5 1484,-810.5"/>
<text text-anchor="middle" x="1527" y="-817.5" font-family="Helvetica,sans-Serif" font-size="10.00" fill="#000000">js_parse_export</text>
</a>
</g>
</g>
<!-- Node630&#45;&gt;Node638 -->
<g id="edge67" class="edge">
<title>Node630&#45;&gt;Node638</title>
<path fill="none" stroke="#191970" d="M178.8921,-591.213C185.3181,-502.2862 213.2014,-142.3165 246,-105 310.2706,-31.8764 360.1461,-48 457.5,-48 457.5,-48 457.5,-48 1261,-48 1348.8439,-48 1393.0323,-43.4792 1448,-112 1493.9513,-169.2812 1522.636,-729.6482 1526.5419,-810.3396"/>
<polygon fill="#191970" stroke="#191970" points="175.3935,-591.0705 178.1722,-601.2945 182.3757,-591.5692 175.3935,-591.0705"/>
</g>
<!-- Node640 -->
<g id="node9" class="node">
<title>Node640</title>
<g id="a_node9"><a xlink:href="quickjs_8c.html#a26be546cf89c4580ba9020e8fc43a759" target="_top" xlink:title="js_parse_destructuring\l_element">
<polygon fill="none" stroke="#ff0000" points="883,-696 883,-726 998,-726 998,-696 883,-696"/>
<text text-anchor="start" x="891" y="-714" font-family="Helvetica,sans-Serif" font-size="10.00" fill="#000000">js_parse_destructuring</text>
<text text-anchor="middle" x="940.5" y="-703" font-family="Helvetica,sans-Serif" font-size="10.00" fill="#000000">_element</text>
</a>
</g>
</g>
<!-- Node630&#45;&gt;Node640 -->
<g id="edge41" class="edge">
<title>Node630&#45;&gt;Node640</title>
<path fill="none" stroke="#191970" d="M220.6254,-611.4108C257.6563,-612.0607 312.4303,-613.7291 360,-618 577.7303,-637.5483 632.5796,-644.4263 847,-687 859.6572,-689.5131 873.1593,-692.6857 885.8528,-695.8937"/>
<polygon fill="#191970" stroke="#191970" points="220.2558,-607.9046 210.2018,-611.2466 220.1454,-614.9038 220.2558,-607.9046"/>
</g>
<!-- Node636 -->
<g id="node10" class="node">
<title>Node636</title>
<g id="a_node10"><a xlink:href="quickjs_8c.html#acc9eb677cab8dfcf45f59381f8a19601" target="_top" xlink:title="js_parse_function_decl2">
<polygon fill="none" stroke="#ff0000" points="1034,-866.5 1034,-885.5 1156,-885.5 1156,-866.5 1034,-866.5"/>
<text text-anchor="middle" x="1095" y="-873.5" font-family="Helvetica,sans-Serif" font-size="10.00" fill="#000000">js_parse_function_decl2</text>
</a>
</g>
</g>
<!-- Node630&#45;&gt;Node636 -->
<g id="edge79" class="edge">
<title>Node630&#45;&gt;Node636</title>
<path fill="none" stroke="#191970" d="M178.6406,-630.9377C184.8269,-737.0889 215.2124,-1233.3043 246,-1294 303.1622,-1406.6914 331.1399,-1484 457.5,-1484 457.5,-1484 457.5,-1484 780,-1484 1061.748,-1484 1091.7993,-962.9009 1094.7081,-885.5502"/>
<polygon fill="#191970" stroke="#191970" points="182.1194,-630.469 178.0481,-620.6877 175.1311,-630.873 182.1194,-630.469"/>
</g>
<!-- Node656 -->
<g id="node11" class="node">
<title>Node656</title>
<g id="a_node11"><a xlink:href="quickjs_8c.html#adf95ddf430ef93fd9efea1cc2f8a2fbe" target="_top" xlink:title="js_parse_class_default_ctor">
<polygon fill="none" stroke="#000000" points="1192,-411.5 1192,-430.5 1330,-430.5 1330,-411.5 1192,-411.5"/>
<text text-anchor="middle" x="1261" y="-418.5" font-family="Helvetica,sans-Serif" font-size="10.00" fill="#000000">js_parse_class_default_ctor</text>
</a>
</g>
</g>
<!-- Node630&#45;&gt;Node656 -->
<g id="edge36" class="edge">
<title>Node630&#45;&gt;Node656</title>
<path fill="none" stroke="#191970" d="M179.1775,-591.0971C184.7188,-530.3203 204.4965,-348.9143 246,-310 315.4529,-244.8799 362.2931,-276 457.5,-276 457.5,-276 457.5,-276 940.5,-276 1072.4154,-276 1209.892,-379.2275 1249.6329,-411.4861"/>
<polygon fill="#191970" stroke="#191970" points="175.6721,-591.0061 178.2815,-601.2745 182.6451,-591.62 175.6721,-591.0061"/>
</g>
<!-- Node647 -->
<g id="node12" class="node">
<title>Node647</title>
<g id="a_node12"><a xlink:href="quickjs_8c.html#a4fa2fc1719feb03edf64eaf034103fd2" target="_top" xlink:title="js_parse_assign_expr">
<polygon fill="none" stroke="#ff0000" points="402,-1142.5 402,-1161.5 513,-1161.5 513,-1142.5 402,-1142.5"/>
<text text-anchor="middle" x="457.5" y="-1149.5" font-family="Helvetica,sans-Serif" font-size="10.00" fill="#000000">js_parse_assign_expr</text>
</a>
</g>
</g>
<!-- Node630&#45;&gt;Node647 -->
<g id="edge20" class="edge">
<title>Node630&#45;&gt;Node647</title>
<path fill="none" stroke="#191970" d="M178.9826,-630.9627C185.6464,-718.3553 213.9042,-1064.4548 246,-1100 284.8982,-1143.0788 353.1899,-1153.1923 401.6406,-1154.385"/>
<polygon fill="#191970" stroke="#191970" points="182.459,-630.5162 178.2172,-620.8075 175.4788,-631.0423 182.459,-630.5162"/>
</g>
<!-- Node646 -->
<g id="node13" class="node">
<title>Node646</title>
<g id="a_node13"><a xlink:href="quickjs_8c.html#abd2cbff624ea609dbf883fb1a2f048cd" target="_top" xlink:title="js_parse_cond_expr">
<polygon fill="none" stroke="#000000" points="728,-1398.5 728,-1417.5 832,-1417.5 832,-1398.5 728,-1398.5"/>
<text text-anchor="middle" x="780" y="-1405.5" font-family="Helvetica,sans-Serif" font-size="10.00" fill="#000000">js_parse_cond_expr</text>
</a>
</g>
</g>
<!-- Node630&#45;&gt;Node646 -->
<g id="edge39" class="edge">
<title>Node630&#45;&gt;Node646</title>
<path fill="none" stroke="#191970" d="M177.687,-631.0642C178.8629,-724.0214 187.2693,-1112.6675 246,-1216 326.4787,-1357.5966 396.8202,-1374.1984 555,-1413 612.8694,-1427.1954 681.6368,-1422.704 727.7826,-1416.752"/>
<polygon fill="#191970" stroke="#191970" points="181.184,-630.7653 177.5724,-620.8051 174.1844,-630.8436 181.184,-630.7653"/>
</g>
<!-- Node649 -->
<g id="node14" class="node">
<title>Node649</title>
<g id="a_node14"><a xlink:href="quickjs_8c.html#a1cef6995e7ec0c736babe92589cf441f" target="_top" xlink:title="js_parse_expr2">
<polygon fill="none" stroke="#ff0000" points="574.5,-1360.5 574.5,-1379.5 657.5,-1379.5 657.5,-1360.5 574.5,-1360.5"/>
<text text-anchor="middle" x="616" y="-1367.5" font-family="Helvetica,sans-Serif" font-size="10.00" fill="#000000">js_parse_expr2</text>
</a>
</g>
</g>
<!-- Node630&#45;&gt;Node649 -->
<g id="edge68" class="edge">
<title>Node630&#45;&gt;Node649</title>
<path fill="none" stroke="#191970" d="M178.3737,-630.7166C182.3711,-715.2017 200.7051,-1046.5448 246,-1139 287.6176,-1223.949 316.2958,-1239.0531 396,-1290 452.6729,-1326.2253 528.0168,-1349.0478 574.2046,-1360.6568"/>
<polygon fill="#191970" stroke="#191970" points="181.8679,-630.5069 177.9122,-620.6783 174.8753,-630.8285 181.8679,-630.5069"/>
</g>
<!-- Node653 -->
<g id="node15" class="node">
<title>Node653</title>
<g id="a_node15"><a xlink:href="quickjs_8c.html#aee6d0acd87f136d43f157ae1426436e6" target="_top" xlink:title="js_parse_object_literal">
<polygon fill="none" stroke="#000000" points="559.5,-848.5 559.5,-867.5 672.5,-867.5 672.5,-848.5 559.5,-848.5"/>
<text text-anchor="middle" x="616" y="-855.5" font-family="Helvetica,sans-Serif" font-size="10.00" fill="#000000">js_parse_object_literal</text>
</a>
</g>
</g>
<!-- Node630&#45;&gt;Node653 -->
<g id="edge82" class="edge">
<title>Node630&#45;&gt;Node653</title>
<path fill="none" stroke="#191970" d="M178.6017,-630.8824C181.8714,-669.2993 194.8191,-753.6637 246,-796 292.7992,-834.7119 467.7825,-849.9249 559.3436,-855.3319"/>
<polygon fill="#191970" stroke="#191970" points="182.0663,-630.2591 177.866,-620.5325 175.0839,-630.7555 182.0663,-630.2591"/>
</g>
<!-- Node634 -->
<g id="node16" class="node">
<title>Node634</title>
<g id="a_node16"><a xlink:href="quickjs_8c.html#acc0cac53be5317d9cab6a79afcd7da48" target="_top" xlink:title="js_parse_block">
<polygon fill="none" stroke="#ff0000" points="416.5,-1038.5 416.5,-1057.5 498.5,-1057.5 498.5,-1038.5 416.5,-1038.5"/>
<text text-anchor="middle" x="457.5" y="-1045.5" font-family="Helvetica,sans-Serif" font-size="10.00" fill="#000000">js_parse_block</text>
</a>
</g>
</g>
<!-- Node630&#45;&gt;Node634 -->
<g id="edge34" class="edge">
<title>Node630&#45;&gt;Node634</title>
<path fill="none" stroke="#191970" d="M179.9937,-630.8092C187.8181,-690.5831 213.3194,-867.9265 246,-915 292.0097,-981.2729 382.811,-1021.4527 429.0278,-1038.471"/>
<polygon fill="#191970" stroke="#191970" points="183.4513,-630.2551 178.7039,-620.7834 176.5086,-631.1483 183.4513,-630.2551"/>
</g>
<!-- Node645 -->
<g id="node17" class="node">
<title>Node645</title>
<g id="a_node17"><a xlink:href="quickjs_8c.html#a2a6a8f6738ae03f046617522b9781245" target="_top" xlink:title="js_parse_coalesce_expr">
<polygon fill="none" stroke="#000000" points="555,-1531.5 555,-1550.5 677,-1550.5 677,-1531.5 555,-1531.5"/>
<text text-anchor="middle" x="616" y="-1538.5" font-family="Helvetica,sans-Serif" font-size="10.00" fill="#000000">js_parse_coalesce_expr</text>
</a>
</g>
</g>
<!-- Node630&#45;&gt;Node645 -->
<g id="edge37" class="edge">
<title>Node630&#45;&gt;Node645</title>
<path fill="none" stroke="#191970" d="M178.3226,-630.8444C183.7226,-759.012 214.8472,-1465.6201 246,-1498 266.9888,-1519.8156 455.2278,-1532.7229 554.819,-1538.0821"/>
<polygon fill="#191970" stroke="#191970" points="181.8078,-630.4151 177.8928,-620.5701 174.8139,-630.7077 181.8078,-630.4151"/>
</g>
<!-- Node643 -->
<g id="node18" class="node">
<title>Node643</title>
<g id="a_node18"><a xlink:href="quickjs_8c.html#a2ecfb6abb190101748202a8aa5821fba" target="_top" xlink:title="js_parse_delete">
<polygon fill="none" stroke="#ff0000" points="260.5,-.5 260.5,-19.5 345.5,-19.5 345.5,-.5 260.5,-.5"/>
<text text-anchor="middle" x="303" y="-7.5" font-family="Helvetica,sans-Serif" font-size="10.00" fill="#000000">js_parse_delete</text>
</a>
</g>
</g>
<!-- Node630&#45;&gt;Node643 -->
<g id="edge40" class="edge">
<title>Node630&#45;&gt;Node643</title>
<path fill="none" stroke="#191970" d="M178.6661,-591.3456C184.5084,-495.4672 211.6788,-79.5982 246,-34 250.7783,-27.6517 257.5568,-22.9682 264.7801,-19.5174"/>
<polygon fill="#191970" stroke="#191970" points="175.1678,-591.2131 178.0603,-601.4054 182.1552,-591.6339 175.1678,-591.2131"/>
</g>
<!-- Node668 -->
<g id="node19" class="node">
<title>Node668</title>
<g id="a_node19"><a xlink:href="quickjs_8c.html#ab10609a91c359ea5d3051f7bb646af83" target="_top" xlink:title="js_parse_destructuring_var">
<polygon fill="none" stroke="#000000" points="713,-696.5 713,-715.5 847,-715.5 847,-696.5 713,-696.5"/>
<text text-anchor="middle" x="780" y="-703.5" font-family="Helvetica,sans-Serif" font-size="10.00" fill="#000000">js_parse_destructuring_var</text>
</a>
</g>
</g>
<!-- Node630&#45;&gt;Node668 -->
<g id="edge42" class="edge">
<title>Node630&#45;&gt;Node668</title>
<path fill="none" stroke="#191970" d="M220.277,-617.7449C325.6109,-634.3536 597.773,-677.2671 719.5464,-696.4679"/>
<polygon fill="#191970" stroke="#191970" points="220.744,-614.2754 210.3209,-616.1751 219.6537,-621.19 220.744,-614.2754"/>
</g>
<!-- Node669 -->
<g id="node20" class="node">
<title>Node669</title>
<g id="a_node20"><a xlink:href="quickjs_8c.html#a64f81788f15df1683a1f8c3919cfd6fd" target="_top" xlink:title="js_parse_directives">
<polygon fill="none" stroke="#000000" points="565.5,-418.5 565.5,-437.5 666.5,-437.5 666.5,-418.5 565.5,-418.5"/>
<text text-anchor="middle" x="616" y="-425.5" font-family="Helvetica,sans-Serif" font-size="10.00" fill="#000000">js_parse_directives</text>
</a>
</g>
</g>
<!-- Node630&#45;&gt;Node669 -->
<g id="edge44" class="edge">
<title>Node630&#45;&gt;Node669</title>
<path fill="none" stroke="#191970" d="M187.3656,-592.5981C202.0815,-565.817 229.7828,-518.0795 246,-507 297.5234,-471.7995 476.3784,-445.3332 565.1759,-434.0262"/>
<polygon fill="#191970" stroke="#191970" points="184.2766,-590.9524 182.5768,-601.41 190.4271,-594.2949 184.2766,-590.9524"/>
</g>
<!-- Node658 -->
<g id="node21" class="node">
<title>Node658</title>
<g id="a_node21"><a xlink:href="quickjs_8c.html#aec05caae64451720670d1a56040110b3" target="_top" xlink:title="js_parse_program">
<polygon fill="none" stroke="#ff0000" points="733,-348.5 733,-367.5 827,-367.5 827,-348.5 733,-348.5"/>
<text text-anchor="middle" x="780" y="-355.5" font-family="Helvetica,sans-Serif" font-size="10.00" fill="#000000">js_parse_program</text>
</a>
</g>
</g>
<!-- Node630&#45;&gt;Node658 -->
<g id="edge84" class="edge">
<title>Node630&#45;&gt;Node658</title>
<path fill="none" stroke="#191970" d="M181.417,-591.4854C191.0479,-545.4955 217.2047,-432.3529 246,-408 318.6966,-346.5188 616.0085,-351.3571 732.6881,-355.7919"/>
<polygon fill="#191970" stroke="#191970" points="177.9633,-590.9046 179.3795,-601.4043 184.8201,-592.3131 177.9633,-590.9046"/>
</g>
<!-- Node670 -->
<g id="node22" class="node">
<title>Node670</title>
<g id="a_node22"><a xlink:href="quickjs_8c.html#aeca8ed71e1eef8ec809afab744958c28" target="_top" xlink:title="js_parse_expect">
<polygon fill="none" stroke="#ff0000" points="259,-886.5 259,-905.5 347,-905.5 347,-886.5 259,-886.5"/>
<text text-anchor="middle" x="303" y="-893.5" font-family="Helvetica,sans-Serif" font-size="10.00" fill="#000000">js_parse_expect</text>
</a>
</g>
</g>
<!-- Node630&#45;&gt;Node670 -->
<g id="edge47" class="edge">
<title>Node630&#45;&gt;Node670</title>
<path fill="none" stroke="#191970" d="M180.5057,-630.5955C187.3143,-670.9038 206.4869,-765.1033 246,-834 258.0752,-855.0548 278.4572,-874.8734 291.2959,-886.206"/>
<polygon fill="#191970" stroke="#191970" points="183.9271,-629.8278 178.8748,-620.5152 177.017,-630.9459 183.9271,-629.8278"/>
</g>
<!-- Node671 -->
<g id="node23" class="node">
<title>Node671</title>
<g id="a_node23"><a xlink:href="quickjs_8c.html#aa24f7964f6d938a05c3c3c03af5a01e9" target="_top" xlink:title="js_parse_import">
<polygon fill="none" stroke="#ff0000" points="414.5,-190.5 414.5,-209.5 500.5,-209.5 500.5,-190.5 414.5,-190.5"/>
<text text-anchor="middle" x="457.5" y="-197.5" font-family="Helvetica,sans-Serif" font-size="10.00" fill="#000000">js_parse_import</text>
</a>
</g>
</g>
<!-- Node630&#45;&gt;Node671 -->
<g id="edge80" class="edge">
<title>Node630&#45;&gt;Node671</title>
<path fill="none" stroke="#191970" d="M178.0012,-591.1897C180.2499,-519.4665 191.8328,-274.8988 246,-224 290.8394,-181.8662 366.8187,-184.3871 414.4643,-191.2996"/>
<polygon fill="#191970" stroke="#191970" points="174.4938,-591.402 177.7067,-601.4979 181.4909,-591.602 174.4938,-591.402"/>
</g>
<!-- Node652 -->
<g id="node24" class="node">
<title>Node652</title>
<g id="a_node24"><a xlink:href="quickjs_8c.html#a42234753f3193f37ce45b3c0ca4c25cd" target="_top" xlink:title="js_parse_property_name">
<polygon fill="none" stroke="#000000" points="396,-696.5 396,-715.5 519,-715.5 519,-696.5 396,-696.5"/>
<text text-anchor="middle" x="457.5" y="-703.5" font-family="Helvetica,sans-Serif" font-size="10.00" fill="#000000">js_parse_property_name</text>
</a>
</g>
</g>
<!-- Node630&#45;&gt;Node652 -->
<g id="edge85" class="edge">
<title>Node630&#45;&gt;Node652</title>
<path fill="none" stroke="#191970" d="M204.1363,-625.0882C216.6348,-631.371 231.8615,-638.5641 246,-644 304.5729,-666.5196 374.899,-685.6308 417.8811,-696.4586"/>
<polygon fill="#191970" stroke="#191970" points="205.6705,-621.9418 195.1735,-620.5053 202.4837,-628.1743 205.6705,-621.9418"/>
</g>
<!-- Node672 -->
<g id="node25" class="node">
<title>Node672</title>
<g id="a_node25"><a xlink:href="quickjs_8c.html#a02cbd69384985a4e904190810cf45641" target="_top" xlink:title="js_parse_expect_semi">
<polygon fill="none" stroke="#ff0000" points="246,-152.5 246,-171.5 360,-171.5 360,-152.5 246,-152.5"/>
<text text-anchor="middle" x="303" y="-159.5" font-family="Helvetica,sans-Serif" font-size="10.00" fill="#000000">js_parse_expect_semi</text>
</a>
</g>
</g>
<!-- Node630&#45;&gt;Node672 -->
<g id="edge63" class="edge">
<title>Node630&#45;&gt;Node672</title>
<path fill="none" stroke="#191970" d="M178.2189,-590.7528C181.28,-515.1299 195.4823,-250.2862 246,-186 250.9757,-179.6682 257.9283,-174.9865 265.2724,-171.5315"/>
<polygon fill="#191970" stroke="#191970" points="174.704,-591.079 177.8194,-601.2054 181.6989,-591.3464 174.704,-591.079"/>
</g>
<!-- Node644 -->
<g id="node26" class="node">
<title>Node644</title>
<g id="a_node26"><a xlink:href="quickjs_8c.html#ab1c84e1eb8a5f06b9257c3c9b5a6f024" target="_top" xlink:title="js_parse_expr_binary">
<polygon fill="none" stroke="#000000" points="248.5,-1550.5 248.5,-1569.5 357.5,-1569.5 357.5,-1550.5 248.5,-1550.5"/>
<text text-anchor="middle" x="303" y="-1557.5" font-family="Helvetica,sans-Serif" font-size="10.00" fill="#000000">js_parse_expr_binary</text>
</a>
</g>
</g>
<!-- Node630&#45;&gt;Node644 -->
<g id="edge69" class="edge">
<title>Node630&#45;&gt;Node644</title>
<path fill="none" stroke="#191970" d="M177.7451,-631.0447C179.4719,-759.1233 191.3821,-1459.9934 246,-1536 250.574,-1542.3652 257.1743,-1547.0518 264.2733,-1550.4995"/>
<polygon fill="#191970" stroke="#191970" points="181.2412,-630.7145 177.6122,-620.7606 174.2418,-630.8051 181.2412,-630.7145"/>
</g>
<!-- Node655 -->
<g id="node27" class="node">
<title>Node655</title>
<g id="a_node27"><a xlink:href="quickjs_8c.html#a2af8c0e05d949d0ae23d94c8e73e5494" target="_top" xlink:title="js_parse_logical_and_or">
<polygon fill="none" stroke="#000000" points="397,-1588.5 397,-1607.5 518,-1607.5 518,-1588.5 397,-1588.5"/>
<text text-anchor="middle" x="457.5" y="-1595.5" font-family="Helvetica,sans-Serif" font-size="10.00" fill="#000000">js_parse_logical_and_or</text>
</a>
</g>
</g>
<!-- Node630&#45;&gt;Node655 -->
<g id="edge81" class="edge">
<title>Node630&#45;&gt;Node655</title>
<path fill="none" stroke="#191970" d="M178.1232,-630.9528C182.4894,-767.7503 209.3921,-1562.6849 246,-1597 296.6326,-1644.4614 387.783,-1622.3882 432.0264,-1607.5832"/>
<polygon fill="#191970" stroke="#191970" points="181.6135,-630.5884 177.7992,-620.704 174.617,-630.8096 181.6135,-630.5884"/>
</g>
<!-- Node673 -->
<g id="node28" class="node">
<title>Node673</title>
<g id="a_node28"><a xlink:href="quickjs_8c.html#a736435f0774c85e09f2817c97ec47bbf" target="_top" xlink:title="js_parse_from_clause">
<polygon fill="none" stroke="#000000" points="247,-114.5 247,-133.5 359,-133.5 359,-114.5 247,-114.5"/>
<text text-anchor="middle" x="303" y="-121.5" font-family="Helvetica,sans-Serif" font-size="10.00" fill="#000000">js_parse_from_clause</text>
</a>
</g>
</g>
<!-- Node630&#45;&gt;Node673 -->
<g id="edge76" class="edge">
<title>Node630&#45;&gt;Node673</title>
<path fill="none" stroke="#191970" d="M177.7219,-591.1852C179.0098,-511.138 187.7073,-212.6034 246,-143 249.2148,-139.1614 253.2279,-136.0944 257.627,-133.6444"/>
<polygon fill="#191970" stroke="#191970" points="174.22,-591.3092 177.5807,-601.3569 181.2193,-591.4065 174.22,-591.3092"/>
</g>
<!-- Node674 -->
<g id="node29" class="node">
<title>Node674</title>
<g id="a_node29"><a xlink:href="quickjs_8c.html#aba7eb7aae2eb61bfccb4565ee626cd18" target="_top" xlink:title="js_parse_seek_token">
<polygon fill="none" stroke="#000000" points="403,-500.5 403,-519.5 512,-519.5 512,-500.5 403,-500.5"/>
<text text-anchor="middle" x="457.5" y="-507.5" font-family="Helvetica,sans-Serif" font-size="10.00" fill="#000000">js_parse_seek_token</text>
</a>
</g>
</g>
<!-- Node630&#45;&gt;Node674 -->
<g id="edge86" class="edge">
<title>Node630&#45;&gt;Node674</title>
<path fill="none" stroke="#191970" d="M189.3838,-593.0932C201.5106,-576.401 221.9315,-552.29 246,-540 295.0487,-514.9545 358.361,-508.871 402.8845,-508.1782"/>
<polygon fill="#191970" stroke="#191970" points="186.3827,-591.2777 183.5295,-601.4811 192.1229,-595.284 186.3827,-591.2777"/>
</g>
<!-- Node675 -->
<g id="node30" class="node">
<title>Node675</title>
<g id="a_node30"><a xlink:href="quickjs_8c.html#ac00298085baf11a4a7bd600cf5de2e6d" target="_top" xlink:title="js_parse_skip_parens\l_token">
<polygon fill="none" stroke="#ff0000" points="560.5,-571 560.5,-601 671.5,-601 671.5,-571 560.5,-571"/>
<text text-anchor="start" x="568.5" y="-589" font-family="Helvetica,sans-Serif" font-size="10.00" fill="#000000">js_parse_skip_parens</text>
<text text-anchor="middle" x="616" y="-578" font-family="Helvetica,sans-Serif" font-size="10.00" fill="#000000">_token</text>
</a>
</g>
</g>
<!-- Node630&#45;&gt;Node675 -->
<g id="edge95" class="edge">
<title>Node630&#45;&gt;Node675</title>
<path fill="none" stroke="#191970" d="M201.2758,-596.2737C214.0272,-589.2376 230.3096,-581.5824 246,-578 355.1488,-553.0792 487.1326,-565.7902 560.2964,-576.4497"/>
<polygon fill="#191970" stroke="#191970" points="199.1987,-593.4309 192.2811,-601.4558 202.6932,-599.4963 199.1987,-593.4309"/>
</g>
<!-- Node631&#45;&gt;Node632 -->
<g id="edge3" class="edge">
<title>Node631&#45;&gt;Node632</title>
<path fill="none" stroke="#191970" d="M646.255,-394.0315C713.3634,-403.9715 878.2137,-433.956 998,-502 1036.5513,-523.8989 1072.1068,-563.9321 1087.272,-582.3097"/>
<polygon fill="#191970" stroke="#191970" points="646.7421,-390.5656 636.3455,-392.6055 645.745,-397.4943 646.7421,-390.5656"/>
</g>
<!-- Node648&#45;&gt;Node639 -->
<g id="edge5" class="edge">
<title>Node648&#45;&gt;Node639</title>
<path fill="none" stroke="#191970" d="M631.1643,-992.4316C664.8726,-953.3793 745.1208,-860.4088 771.4619,-829.8917"/>
<polygon fill="#191970" stroke="#191970" points="628.2429,-990.4597 624.3583,-1000.3167 633.5419,-995.0336 628.2429,-990.4597"/>
</g>
<!-- Node639&#45;&gt;Node632 -->
<g id="edge18" class="edge">
<title>Node639&#45;&gt;Node632</title>
<path fill="none" stroke="#191970" d="M833.6882,-808.154C889.5267,-795.0308 972.322,-773.0676 998,-753 1051.995,-710.8024 1082.677,-629.4963 1091.9599,-601.6394"/>
<polygon fill="#191970" stroke="#191970" points="832.8879,-804.7466 823.9401,-810.4199 834.4728,-811.5649 832.8879,-804.7466"/>
</g>
<!-- Node639&#45;&gt;Node639 -->
<g id="edge19" class="edge">
<title>Node639&#45;&gt;Node639</title>
<path fill="none" stroke="#191970" d="M750.0599,-838.2746C750.9135,-843.741 760.8936,-848 780,-848 808.4375,-848 816.6577,-838.5653 804.6606,-829.7571"/>
<polygon fill="#191970" stroke="#191970" points="753.0458,-840.1007 755.3394,-829.7571 747.096,-836.4128 753.0458,-840.1007"/>
</g>
<!-- Node639&#45;&gt;Node637 -->
<g id="edge6" class="edge">
<title>Node639&#45;&gt;Node637</title>
<path fill="none" stroke="#191970" d="M846.3894,-815.6484C976.135,-812.2044 1259.9096,-812.4695 1365.9459,-816.4436"/>
<polygon fill="#191970" stroke="#191970" points="846.091,-812.1554 836.1939,-815.9364 846.2887,-819.1526 846.091,-812.1554"/>
</g>
<!-- Node639&#45;&gt;Node640 -->
<g id="edge9" class="edge">
<title>Node639&#45;&gt;Node640</title>
<path fill="none" stroke="#191970" d="M802.931,-806.7614C816.4526,-801.7315 833.5017,-795.6812 847,-787 866.2974,-774.5892 866.1708,-765.5948 883,-750 891.8705,-741.7801 901.8845,-733.1978 911.0405,-726.0326"/>
<polygon fill="#191970" stroke="#191970" points="801.4685,-803.574 793.3957,-810.4356 803.9854,-810.1059 801.4685,-803.574"/>
</g>
<!-- Node637&#45;&gt;Node639 -->
<g id="edge8" class="edge">
<title>Node637&#45;&gt;Node639</title>
<path fill="none" stroke="#191970" d="M1355.9002,-823.9051C1239.8182,-827.6447 956.9889,-827.6976 836.1939,-824.0636"/>
<polygon fill="#191970" stroke="#191970" points="1356.0733,-827.4013 1365.9459,-823.5564 1355.8305,-820.4055 1356.0733,-827.4013"/>
</g>
<!-- Node637&#45;&gt;Node638 -->
<g id="edge7" class="edge">
<title>Node637&#45;&gt;Node638</title>
<path fill="none" stroke="#191970" d="M1458.5012,-820C1466.9996,-820 1475.7303,-820 1483.9924,-820"/>
<polygon fill="#191970" stroke="#191970" points="1458.2972,-816.5001 1448.2972,-820 1458.2972,-823.5001 1458.2972,-816.5001"/>
</g>
<!-- Node640&#45;&gt;Node632 -->
<g id="edge11" class="edge">
<title>Node640&#45;&gt;Node632</title>
<path fill="none" stroke="#191970" d="M968.139,-689.7117C1001.8659,-663.7343 1057.461,-620.9136 1082.3115,-601.773"/>
<polygon fill="#191970" stroke="#191970" points="965.8542,-687.0536 960.0675,-695.9286 970.1257,-692.5993 965.8542,-687.0536"/>
</g>
<!-- Node640&#45;&gt;Node639 -->
<g id="edge17" class="edge">
<title>Node640&#45;&gt;Node639</title>
<path fill="none" stroke="#191970" d="M922.2841,-733.1318C910.7667,-743.7011 895.7097,-756.2226 883,-768 866.1708,-783.5948 866.2974,-792.5892 847,-805 843.5706,-807.2055 839.9121,-809.2413 836.1404,-811.095"/>
<polygon fill="#191970" stroke="#191970" points="924.7827,-735.5857 929.6199,-726.1596 919.9602,-730.5118 924.7827,-735.5857"/>
</g>
<!-- Node640&#45;&gt;Node640 -->
<g id="edge10" class="edge">
<title>Node640&#45;&gt;Node640</title>
<path fill="none" stroke="#191970" d="M913.1361,-736.4579C916.5323,-741.179 925.6536,-744.5 940.5,-744.5 964.8633,-744.5 973.8092,-735.5566 967.3377,-726.159"/>
<polygon fill="#191970" stroke="#191970" points="916.6473,-736.3246 913.6623,-726.159 909.6565,-735.9673 916.6473,-736.3246"/>
</g>
<!-- Node640&#45;&gt;Node636 -->
<g id="edge12" class="edge">
<title>Node640&#45;&gt;Node636</title>
<path fill="none" stroke="#191970" d="M961.9807,-733.9405C996.3373,-770.6321 1062.2096,-840.9811 1086.0821,-866.4761"/>
<polygon fill="#191970" stroke="#191970" points="964.1479,-731.1343 954.7581,-726.2271 959.0382,-735.9188 964.1479,-731.1343"/>
</g>
<!-- Node636&#45;&gt;Node637 -->
<g id="edge13" class="edge">
<title>Node636&#45;&gt;Node637</title>
<path fill="none" stroke="#191970" d="M1166.3607,-868.8115C1213.1997,-863.3996 1275.6253,-854.8678 1330,-843 1346.357,-839.4299 1364.2982,-834.1531 1378.7444,-829.554"/>
<polygon fill="#191970" stroke="#191970" points="1165.8526,-865.3466 1156.3113,-869.9525 1166.6423,-872.3019 1165.8526,-865.3466"/>
</g>
<!-- Node636&#45;&gt;Node638 -->
<g id="edge16" class="edge">
<title>Node636&#45;&gt;Node638</title>
<path fill="none" stroke="#191970" d="M1166.1942,-877.822C1212.9647,-878.0513 1275.3766,-876.5184 1330,-869 1390.2272,-860.7103 1458.7356,-841.3441 1497.0191,-829.5926"/>
<polygon fill="#191970" stroke="#191970" points="1166.1874,-874.322 1156.1607,-877.7448 1166.1334,-881.3218 1166.1874,-874.322"/>
</g>
<!-- Node636&#45;&gt;Node656 -->
<g id="edge14" class="edge">
<title>Node636&#45;&gt;Node656</title>
<path fill="none" stroke="#191970" d="M1101.9239,-857.0219C1130.2103,-779.4898 1236.489,-488.1837 1257.4113,-430.8365"/>
<polygon fill="#191970" stroke="#191970" points="1098.6066,-855.9028 1098.4671,-866.4967 1105.1826,-858.302 1098.6066,-855.9028"/>
</g>
<!-- Node656&#45;&gt;Node637 -->
<g id="edge15" class="edge">
<title>Node656&#45;&gt;Node637</title>
<path fill="none" stroke="#191970" d="M1295.0719,-435.187C1307.8216,-442.1066 1321.3058,-451.6464 1330,-464 1371.4888,-522.9517 1400.1531,-759.2795 1405.927,-810.2709"/>
<polygon fill="#191970" stroke="#191970" points="1296.5016,-431.9882 1285.997,-430.6088 1293.3487,-438.2379 1296.5016,-431.9882"/>
</g>
<!-- Node647&#45;&gt;Node632 -->
<g id="edge29" class="edge">
<title>Node647&#45;&gt;Node632</title>
<path fill="none" stroke="#191970" d="M521.5466,-1140.6088C576.2125,-1130.2522 650.1185,-1114.5619 677,-1101 682.5414,-1098.2043 842.5482,-960.3248 847,-956 918.772,-886.2747 941.8028,-871.7932 998,-789 1043.3893,-722.1296 1080.1243,-630.9125 1091.4111,-601.532"/>
<polygon fill="#191970" stroke="#191970" points="520.762,-1137.1949 511.5788,-1142.4789 522.0528,-1144.0749 520.762,-1137.1949"/>
</g>
<!-- Node647&#45;&gt;Node648 -->
<g id="edge21" class="edge">
<title>Node647&#45;&gt;Node648</title>
<path fill="none" stroke="#191970" d="M479.8956,-1136.3045C492.4191,-1126.7809 507.7277,-1113.8224 519,-1100 540.117,-1074.1057 529.9492,-1056.1111 555,-1034 562.0818,-1027.7493 570.9836,-1023.0289 579.781,-1019.5037"/>
<polygon fill="#191970" stroke="#191970" points="477.7188,-1133.561 471.7542,-1142.3173 481.8775,-1139.1918 477.7188,-1133.561"/>
</g>
<!-- Node647&#45;&gt;Node639 -->
<g id="edge33" class="edge">
<title>Node647&#45;&gt;Node639</title>
<path fill="none" stroke="#191970" d="M476.4848,-1135.8227C502.362,-1113.8659 546.4789,-1076.7999 555,-1072 605.0912,-1043.7838 634.0013,-1067.1628 677,-1029 742.0469,-971.2686 770.4851,-863.0924 777.9258,-829.923"/>
<polygon fill="#191970" stroke="#191970" points="474.1454,-1133.2175 468.7922,-1142.3605 478.6787,-1138.5514 474.1454,-1133.2175"/>
</g>
<!-- Node647&#45;&gt;Node637 -->
<g id="edge23" class="edge">
<title>Node647&#45;&gt;Node637</title>
<path fill="none" stroke="#191970" d="M523.0214,-1160.9228C704.3118,-1184.1063 1207.2848,-1237.7821 1330,-1138 1380.0227,-1097.3256 1401.8761,-878.7508 1406.1853,-829.7519"/>
<polygon fill="#191970" stroke="#191970" points="523.4545,-1157.4498 513.089,-1159.6419 522.5591,-1164.3923 523.4545,-1157.4498"/>
</g>
<!-- Node647&#45;&gt;Node638 -->
<g id="edge27" class="edge">
<title>Node647&#45;&gt;Node638</title>
<path fill="none" stroke="#191970" d="M487.4667,-1165.6262C543.6179,-1189.8756 669.032,-1238 780,-1238 780,-1238 780,-1238 1261,-1238 1461.4202,-1238 1517.3633,-891.7353 1525.7978,-829.5159"/>
<polygon fill="#191970" stroke="#191970" points="488.6838,-1162.3383 478.1197,-1161.5321 485.8753,-1168.7502 488.6838,-1162.3383"/>
</g>
<!-- Node647&#45;&gt;Node640 -->
<g id="edge26" class="edge">
<title>Node647&#45;&gt;Node640</title>
<path fill="none" stroke="#191970" d="M488.4611,-1138.2293C507.551,-1129.8469 532.5869,-1119.0473 555,-1110 608.7357,-1088.3091 629.901,-1097.7595 677,-1064 725.38,-1029.3224 811.9995,-905.1469 847,-857 880.4503,-810.9855 915.4722,-753.3357 931.5127,-726.3114"/>
<polygon fill="#191970" stroke="#191970" points="486.8047,-1135.1344 479.0657,-1142.3703 489.6279,-1141.5398 486.8047,-1135.1344"/>
</g>
<!-- Node647&#45;&gt;Node636 -->
<g id="edge30" class="edge">
<title>Node647&#45;&gt;Node636</title>
<path fill="none" stroke="#191970" d="M523.374,-1153.8626C567.4586,-1153.6384 626.4424,-1150.4822 677,-1138 834.1382,-1099.204 869.8515,-1064.8711 998,-966 1032.5577,-939.3375 1069.2505,-902.6763 1085.8733,-885.5451"/>
<polygon fill="#191970" stroke="#191970" points="523.3537,-1150.3625 513.3544,-1153.8646 523.3552,-1157.3625 523.3537,-1150.3625"/>
</g>
<!-- Node647&#45;&gt;Node647 -->
<g id="edge22" class="edge">
<title>Node647&#45;&gt;Node647</title>
<path fill="none" stroke="#191970" d="M428.7542,-1170.6539C429.9558,-1175.9368 439.5377,-1180 457.5,-1180 484.8711,-1180 492.7831,-1170.5653 481.2359,-1161.7571"/>
<polygon fill="#191970" stroke="#191970" points="431.9072,-1172.1879 433.7641,-1161.7571 425.8077,-1168.7532 431.9072,-1172.1879"/>
</g>
<!-- Node647&#45;&gt;Node646 -->
<g id="edge24" class="edge">
<title>Node647&#45;&gt;Node646</title>
<path fill="none" stroke="#191970" d="M478.4207,-1168.8494C497.4094,-1188.0286 526.6899,-1219.0507 555,-1243 632.6594,-1308.6971 737.7101,-1373.5683 770.0895,-1398.3432"/>
<polygon fill="#191970" stroke="#191970" points="480.743,-1166.2226 471.1876,-1161.6459 475.8034,-1171.1825 480.743,-1166.2226"/>
</g>
<!-- Node647&#45;&gt;Node649 -->
<g id="edge28" class="edge">
<title>Node647&#45;&gt;Node649</title>
<path fill="none" stroke="#191970" d="M462.2593,-1171.4877C472.6253,-1210.0202 500.7801,-1296.4959 555,-1346 561.8076,-1352.2155 570.4141,-1356.9004 578.9997,-1360.4011"/>
<polygon fill="#191970" stroke="#191970" points="465.5858,-1170.3705 459.7015,-1161.56 458.8072,-1172.117 465.5858,-1170.3705"/>
</g>
<!-- Node647&#45;&gt;Node653 -->
<g id="edge31" class="edge">
<title>Node647&#45;&gt;Node653</title>
<path fill="none" stroke="#191970" d="M471.9313,-1134.2007C485.1213,-1117.4603 504.6939,-1091.3922 519,-1067 524.6159,-1057.4248 593.4371,-907.2856 611.6187,-867.5738"/>
<polygon fill="#191970" stroke="#191970" points="468.8338,-1132.4713 465.3342,-1142.4715 474.3062,-1136.8363 468.8338,-1132.4713"/>
</g>
<!-- Node646&#45;&gt;Node647 -->
<g id="edge25" class="edge">
<title>Node646&#45;&gt;Node647</title>
<path fill="none" stroke="#191970" d="M746.4362,-1393.6729C701.1563,-1368.4327 618.8269,-1314.9953 555,-1261 516.3103,-1228.2699 475.808,-1182.33 462.2402,-1161.6673"/>
<polygon fill="#191970" stroke="#191970" points="744.7939,-1396.7638 755.249,-1398.479 748.1454,-1390.6183 744.7939,-1396.7638"/>
</g>
<!-- Node653&#45;&gt;Node639 -->
<g id="edge32" class="edge">
<title>Node653&#45;&gt;Node639</title>
<path fill="none" stroke="#191970" d="M667.341,-846.1039C690.3929,-840.7626 717.2211,-834.5463 738.9135,-829.5201"/>
<polygon fill="#191970" stroke="#191970" points="666.336,-842.744 657.3841,-848.411 667.9161,-849.5633 666.336,-842.744"/>
</g>
<!-- Node645&#45;&gt;Node646 -->
<g id="edge38" class="edge">
<title>Node645&#45;&gt;Node646</title>
<path fill="none" stroke="#191970" d="M635.7092,-1525.0163C670.0276,-1497.1849 739.7752,-1440.6214 767.8699,-1417.8372"/>
<polygon fill="#191970" stroke="#191970" points="633.3568,-1522.4177 627.7945,-1531.435 637.766,-1527.8546 633.3568,-1522.4177"/>
</g>
<!-- Node668&#45;&gt;Node640 -->
<g id="edge43" class="edge">
<title>Node668&#45;&gt;Node640</title>
<path fill="none" stroke="#191970" d="M857.2078,-708.4052C865.8257,-708.6737 874.4905,-708.9436 882.8038,-709.2026"/>
<polygon fill="#191970" stroke="#191970" points="857.2407,-704.9046 847.1365,-708.0915 857.0226,-711.9013 857.2407,-704.9046"/>
</g>
<!-- Node669&#45;&gt;Node636 -->
<g id="edge45" class="edge">
<title>Node669&#45;&gt;Node636</title>
<path fill="none" stroke="#191970" d="M646.5134,-441.9061C716.6279,-475.1488 891.3782,-565.5086 998,-686 1050.0322,-744.8007 1082.4078,-836.513 1091.9998,-866.3021"/>
<polygon fill="#191970" stroke="#191970" points="647.8721,-438.6775 637.3324,-437.5973 644.898,-445.0143 647.8721,-438.6775"/>
</g>
<!-- Node669&#45;&gt;Node658 -->
<g id="edge46" class="edge">
<title>Node669&#45;&gt;Node658</title>
<path fill="none" stroke="#191970" d="M659.6776,-415.3176C665.5517,-413.3442 671.4587,-411.2187 677,-409 708.1207,-396.5392 742.7539,-378.4693 762.8868,-367.5187"/>
<polygon fill="#191970" stroke="#191970" points="658.3293,-412.0752 649.8932,-418.4848 660.4851,-418.735 658.3293,-412.0752"/>
</g>
<!-- Node670&#45;&gt;Node632 -->
<g id="edge54" class="edge">
<title>Node670&#45;&gt;Node632</title>
<path fill="none" stroke="#191970" d="M308.2074,-876.5939C319.3642,-837.6038 348.4913,-748.2558 396,-687 451.2584,-615.752 469.8488,-590.6488 555,-561 739.681,-496.696 981.2365,-557.5257 1064.9228,-582.4552"/>
<polygon fill="#191970" stroke="#191970" points="304.7898,-875.8201 305.4824,-886.3922 311.5339,-877.6957 304.7898,-875.8201"/>
</g>
<!-- Node670&#45;&gt;Node648 -->
<g id="edge48" class="edge">
<title>Node670&#45;&gt;Node648</title>
<path fill="none" stroke="#191970" d="M315.5519,-913.918C331.5394,-935.1551 361.2958,-969.7114 396,-986 448.3448,-1010.5684 515.1789,-1014.5445 561.375,-1013.6491"/>
<polygon fill="#191970" stroke="#191970" points="318.2926,-911.7362 309.5689,-905.7239 312.6392,-915.8641 318.2926,-911.7362"/>
</g>
<!-- Node670&#45;&gt;Node639 -->
<g id="edge58" class="edge">
<title>Node670&#45;&gt;Node639</title>
<path fill="none" stroke="#191970" d="M357.2413,-900.779C431.1323,-905.6071 566.8388,-908.4512 677,-877 712.1775,-866.9567 748.5189,-843.0907 767.198,-829.6423"/>
<polygon fill="#191970" stroke="#191970" points="357.4518,-897.2853 347.2344,-900.0879 356.9694,-904.2687 357.4518,-897.2853"/>
</g>
<!-- Node670&#45;&gt;Node637 -->
<g id="edge50" class="edge">
<title>Node670&#45;&gt;Node637</title>
<path fill="none" stroke="#191970" d="M353.7136,-908.6315C355.8521,-909.3886 357.9557,-910.1783 360,-911 376.9826,-917.8267 378.8618,-924.5739 396,-931 515.5749,-975.8352 556.5596,-948.5448 677,-991 800.722,-1034.6119 809.3164,-1124 940.5,-1124 940.5,-1124 940.5,-1124 1095,-1124 1267.8089,-1124 1380.696,-881.8045 1402.9549,-829.7703"/>
<polygon fill="#191970" stroke="#191970" points="354.7823,-905.2987 344.1898,-905.5217 352.6094,-911.9529 354.7823,-905.2987"/>
</g>
<!-- Node670&#45;&gt;Node638 -->
<g id="edge53" class="edge">
<title>Node670&#45;&gt;Node638</title>
<path fill="none" stroke="#191970" d="M306.9035,-915.4527C319.0106,-974.0962 357.4345,-1147.6676 396,-1189 467.7314,-1265.8779 510.8544,-1276 616,-1276 616,-1276 616,-1276 1261,-1276 1358.3374,-1276 1395.219,-1243.7847 1448,-1162 1485.5873,-1103.7581 1518.7583,-878.9418 1525.6782,-829.6069"/>
<polygon fill="#191970" stroke="#191970" points="310.3246,-914.7118 304.8976,-905.6124 303.4656,-916.11 310.3246,-914.7118"/>
</g>
<!-- Node670&#45;&gt;Node640 -->
<g id="edge52" class="edge">
<title>Node670&#45;&gt;Node640</title>
<path fill="none" stroke="#191970" d="M340.0982,-883.1093C357.0696,-877.3476 377.4815,-870.6069 396,-865 594.8505,-804.7929 648.1012,-802.0475 847,-742 863.208,-737.1068 880.8632,-731.3621 896.4223,-726.1562"/>
<polygon fill="#191970" stroke="#191970" points="338.8756,-879.8283 330.5435,-886.3726 341.1381,-886.4526 338.8756,-879.8283"/>
</g>
<!-- Node670&#45;&gt;Node636 -->
<g id="edge55" class="edge">
<title>Node670&#45;&gt;Node636</title>
<path fill="none" stroke="#191970" d="M348.9275,-907.8927C363.835,-911.2097 380.5219,-914.3545 396,-916 450.3603,-921.7791 464.3348,-916.3994 519,-916 731.9059,-914.4444 788.2034,-945.2869 998,-909 1024.6424,-904.3919 1053.8432,-893.6221 1073.1719,-885.6322"/>
<polygon fill="#191970" stroke="#191970" points="349.4589,-904.4234 338.9279,-905.5851 347.8848,-911.2441 349.4589,-904.4234"/>
</g>
<!-- Node670&#45;&gt;Node646 -->
<g id="edge51" class="edge">
<title>Node670&#45;&gt;Node646</title>
<path fill="none" stroke="#191970" d="M305.6662,-915.9418C315.4923,-987.1513 351.4343,-1227.9494 396,-1290 444.5611,-1357.6136 475.9956,-1362.7685 555,-1389 611.9227,-1407.8998 681.1734,-1410.9951 727.6839,-1410.4263"/>
<polygon fill="#191970" stroke="#191970" points="309.0871,-915.1228 304.2709,-905.6859 302.151,-916.0664 309.0871,-915.1228"/>
</g>
<!-- Node670&#45;&gt;Node653 -->
<g id="edge57" class="edge">
<title>Node670&#45;&gt;Node653</title>
<path fill="none" stroke="#191970" d="M357.3723,-887.4347C370.0368,-885.5453 383.479,-883.6247 396,-882 451.4379,-874.8064 514.9256,-868.0371 559.4045,-863.5336"/>
<polygon fill="#191970" stroke="#191970" points="356.7807,-883.9843 347.4148,-888.9371 357.8251,-890.906 356.7807,-883.9843"/>
</g>
<!-- Node670&#45;&gt;Node634 -->
<g id="edge49" class="edge">
<title>Node670&#45;&gt;Node634</title>
<path fill="none" stroke="#191970" d="M315.5669,-913.8481C339.7188,-948.0717 390.7101,-1019.9176 396,-1024 403.894,-1030.092 413.5254,-1034.8152 422.8016,-1038.3964"/>
<polygon fill="#191970" stroke="#191970" points="318.4096,-911.806 309.7869,-905.6498 312.6885,-915.8396 318.4096,-911.806"/>
</g>
<!-- Node670&#45;&gt;Node671 -->
<g id="edge56" class="edge">
<title>Node670&#45;&gt;Node671</title>
<path fill="none" stroke="#191970" d="M307.2949,-876.6522C330.3365,-772.853 438.8732,-283.9112 455.3905,-209.5032"/>
<polygon fill="#191970" stroke="#191970" points="303.8756,-875.9051 305.1253,-886.426 310.7092,-877.4221 303.8756,-875.9051"/>
</g>
<!-- Node670&#45;&gt;Node652 -->
<g id="edge59" class="edge">
<title>Node670&#45;&gt;Node652</title>
<path fill="none" stroke="#191970" d="M309.0079,-876.5298C320.5092,-842.3025 348.7785,-771.0914 396,-730 403.1763,-723.7553 412.1639,-719.0371 421.034,-715.512"/>
<polygon fill="#191970" stroke="#191970" points="305.6087,-875.6661 305.8601,-886.2579 312.2688,-877.8211 305.6087,-875.6661"/>
</g>
<!-- Node652&#45;&gt;Node637 -->
<g id="edge60" class="edge">
<title>Node652&#45;&gt;Node637</title>
<path fill="none" stroke="#191970" d="M464.7216,-686.948C477.6994,-655.4373 508.067,-592.7958 555,-561 700.097,-462.7007 765.2405,-478 940.5,-478 940.5,-478 940.5,-478 1095,-478 1280.254,-478 1384.8455,-755.2605 1403.844,-810.496"/>
<polygon fill="#191970" stroke="#191970" points="461.4254,-685.7654 460.9883,-696.3512 467.9314,-688.3485 461.4254,-685.7654"/>
</g>
<!-- Node652&#45;&gt;Node640 -->
<g id="edge61" class="edge">
<title>Node652&#45;&gt;Node640</title>
<path fill="none" stroke="#191970" d="M526.3414,-716.8559C535.947,-718.0868 545.7068,-719.1883 555,-720 684.3045,-731.2942 717.5614,-734.6369 847,-725 858.6215,-724.1348 870.9887,-722.6726 882.794,-721.0111"/>
<polygon fill="#191970" stroke="#191970" points="526.7879,-713.3845 516.4132,-715.5331 525.8633,-720.3232 526.7879,-713.3845"/>
</g>
<!-- Node652&#45;&gt;Node653 -->
<g id="edge62" class="edge">
<title>Node652&#45;&gt;Node653</title>
<path fill="none" stroke="#191970" d="M475.0111,-722.793C508.3275,-754.7431 579.8525,-823.3349 606.0889,-848.4953"/>
<polygon fill="#191970" stroke="#191970" points="477.055,-719.9037 467.4149,-715.5083 472.2099,-724.956 477.055,-719.9037"/>
</g>
<!-- Node672&#45;&gt;Node637 -->
<g id="edge64" class="edge">
<title>Node672&#45;&gt;Node637</title>
<path fill="none" stroke="#191970" d="M370.3757,-162C433.7629,-162 531.3242,-162 616,-162 616,-162 616,-162 1095,-162 1203.0183,-162 1258.7205,-142.8385 1330,-224 1370.5337,-270.1532 1401.6535,-735.7605 1406.3776,-810.0344"/>
<polygon fill="#191970" stroke="#191970" points="370.1153,-158.5001 360.1152,-162 370.1152,-165.5001 370.1153,-158.5001"/>
</g>
<!-- Node672&#45;&gt;Node638 -->
<g id="edge65" class="edge">
<title>Node672&#45;&gt;Node638</title>
<path fill="none" stroke="#191970" d="M361.3924,-150.633C424.0695,-139.4371 526.6838,-124 616,-124 616,-124 616,-124 1261,-124 1294.9935,-124 1307.9256,-131.149 1330,-157 1422.0108,-264.7526 1511.7978,-737.2892 1525.2655,-810.4654"/>
<polygon fill="#191970" stroke="#191970" points="360.5212,-147.2338 351.3051,-152.46 361.7689,-154.1217 360.5212,-147.2338"/>
</g>
<!-- Node672&#45;&gt;Node671 -->
<g id="edge66" class="edge">
<title>Node672&#45;&gt;Node671</title>
<path fill="none" stroke="#191970" d="M351.9521,-174.04C373.5365,-179.3488 398.541,-185.4988 418.7935,-190.4799"/>
<polygon fill="#191970" stroke="#191970" points="352.5334,-170.5787 341.9869,-171.589 350.8615,-177.3762 352.5334,-170.5787"/>
</g>
<!-- Node644&#45;&gt;Node645 -->
<g id="edge70" class="edge">
<title>Node644&#45;&gt;Node645</title>
<path fill="none" stroke="#191970" d="M367.8416,-1556.0639C422.7895,-1552.7284 501.0163,-1547.9798 554.8783,-1544.7103"/>
<polygon fill="#191970" stroke="#191970" points="367.29,-1552.5909 357.5204,-1556.6905 367.7142,-1559.578 367.29,-1552.5909"/>
</g>
<!-- Node644&#45;&gt;Node644 -->
<g id="edge71" class="edge">
<title>Node644&#45;&gt;Node644</title>
<path fill="none" stroke="#191970" d="M279.9346,-1579.0292C281.1928,-1584.128 288.8812,-1588 303,-1588 325.0391,-1588 331.4097,-1578.5653 322.112,-1569.7571"/>
<polygon fill="#191970" stroke="#191970" points="283.1854,-1580.3286 283.888,-1569.7571 276.7463,-1577.5831 283.1854,-1580.3286"/>
</g>
<!-- Node644&#45;&gt;Node655 -->
<g id="edge72" class="edge">
<title>Node644&#45;&gt;Node655</title>
<path fill="none" stroke="#191970" d="M351.9521,-1572.04C373.5365,-1577.3488 398.541,-1583.4988 418.7935,-1588.4799"/>
<polygon fill="#191970" stroke="#191970" points="352.5334,-1568.5787 341.9869,-1569.589 350.8615,-1575.3762 352.5334,-1568.5787"/>
</g>
<!-- Node655&#45;&gt;Node645 -->
<g id="edge73" class="edge">
<title>Node655&#45;&gt;Node645</title>
<path fill="none" stroke="#191970" d="M493.4502,-1585.0715C522.6139,-1574.5836 563.0664,-1560.0361 589.3841,-1550.5716"/>
<polygon fill="#191970" stroke="#191970" points="492.2549,-1581.7819 484.0293,-1588.4595 494.6238,-1588.3689 492.2549,-1581.7819"/>
</g>
<!-- Node655&#45;&gt;Node655 -->
<g id="edge74" class="edge">
<title>Node655&#45;&gt;Node655</title>
<path fill="none" stroke="#191970" d="M428.7542,-1616.6539C429.9558,-1621.9368 439.5377,-1626 457.5,-1626 484.8711,-1626 492.7831,-1616.5653 481.2359,-1607.7571"/>
<polygon fill="#191970" stroke="#191970" points="431.9072,-1618.1879 433.7641,-1607.7571 425.8077,-1614.7532 431.9072,-1618.1879"/>
</g>
<!-- Node673&#45;&gt;Node638 -->
<g id="edge77" class="edge">
<title>Node673&#45;&gt;Node638</title>
<path fill="none" stroke="#191970" d="M361.3924,-112.633C424.0695,-101.4371 526.6838,-86 616,-86 616,-86 616,-86 1261,-86 1364.5565,-86 1401.5502,-132.4453 1448,-225 1502.8035,-334.2001 1523.493,-742.5976 1526.5816,-810.4253"/>
<polygon fill="#191970" stroke="#191970" points="360.5212,-109.2338 351.3051,-114.46 361.7689,-116.1217 360.5212,-109.2338"/>
</g>
<!-- Node673&#45;&gt;Node671 -->
<g id="edge78" class="edge">
<title>Node673&#45;&gt;Node671</title>
<path fill="none" stroke="#191970" d="M345.1071,-136.9312C350.1862,-138.8138 355.2522,-140.849 360,-143 390.8978,-156.9984 424.5616,-178.1079 443.1426,-190.3245"/>
<polygon fill="#191970" stroke="#191970" points="345.9987,-133.5344 335.4039,-133.5085 343.6701,-140.1357 345.9987,-133.5344"/>
</g>
<!-- Node674&#45;&gt;Node631 -->
<g id="edge87" class="edge">
<title>Node674&#45;&gt;Node631</title>
<path fill="none" stroke="#191970" d="M470.2406,-492.0682C487.1477,-469.5373 519.0796,-431.1462 555,-409 567.5576,-401.2578 583.5318,-396.4319 595.983,-393.5818"/>
<polygon fill="#191970" stroke="#191970" points="467.2267,-490.2596 464.1368,-500.3938 472.8721,-494.3984 467.2267,-490.2596"/>
</g>
<!-- Node674&#45;&gt;Node636 -->
<g id="edge90" class="edge">
<title>Node674&#45;&gt;Node636</title>
<path fill="none" stroke="#191970" d="M464.5958,-529.1197C488.4379,-590.2508 572.1771,-781.3603 713,-857 822.0971,-915.5989 974.9771,-898.9013 1049.9453,-885.5161"/>
<polygon fill="#191970" stroke="#191970" points="467.7856,-527.6617 460.9496,-519.5673 461.2459,-530.158 467.7856,-527.6617"/>
</g>
<!-- Node674&#45;&gt;Node656 -->
<g id="edge88" class="edge">
<title>Node674&#45;&gt;Node656</title>
<path fill="none" stroke="#191970" d="M512.0474,-498.4176C526.0272,-495.5573 541.0533,-492.5769 555,-490 624.9821,-477.0695 642.3511,-472.569 713,-464 884.474,-443.2018 1087.4145,-430.3182 1191.6072,-424.5543"/>
<polygon fill="#191970" stroke="#191970" points="511.1707,-495.0247 502.0833,-500.4716 512.584,-501.8805 511.1707,-495.0247"/>
</g>
<!-- Node674&#45;&gt;Node669 -->
<g id="edge89" class="edge">
<title>Node674&#45;&gt;Node669</title>
<path fill="none" stroke="#191970" d="M488.034,-495.9366C498.1026,-490.9521 509.221,-485.0657 519,-479 535.9959,-468.4578 537.537,-461.7491 555,-452 565.0362,-446.3971 576.6482,-441.4795 587.0303,-437.5786"/>
<polygon fill="#191970" stroke="#191970" points="486.2565,-492.9085 478.7803,-500.4157 489.3062,-499.2092 486.2565,-492.9085"/>
</g>
<!-- Node674&#45;&gt;Node675 -->
<g id="edge91" class="edge">
<title>Node674&#45;&gt;Node675</title>
<path fill="none" stroke="#191970" d="M486.7795,-524.0394C514.5612,-537.3606 556.1819,-557.3175 584.6322,-570.9593"/>
<polygon fill="#191970" stroke="#191970" points="488.1044,-520.7932 477.5741,-519.6255 485.0779,-527.1051 488.1044,-520.7932"/>
</g>
<!-- Node675&#45;&gt;Node632 -->
<g id="edge93" class="edge">
<title>Node675&#45;&gt;Node632</title>
<path fill="none" stroke="#191970" d="M681.9302,-586.8258C779.5634,-588.0488 960.3254,-590.3131 1046.6569,-591.3944"/>
<polygon fill="#191970" stroke="#191970" points="681.9279,-583.3256 671.8848,-586.7 681.8402,-590.3251 681.9279,-583.3256"/>
</g>
<!-- Node675&#45;&gt;Node639 -->
<g id="edge94" class="edge">
<title>Node675&#45;&gt;Node639</title>
<path fill="none" stroke="#191970" d="M639.0052,-608.5824C651.1815,-621.2523 665.8726,-637.743 677,-654 696.9837,-683.1959 694.7565,-694.6862 713,-725 732.5648,-757.5094 759.5274,-793.5047 772.4708,-810.3335"/>
<polygon fill="#191970" stroke="#191970" points="641.299,-605.9222 631.803,-601.2236 636.2962,-610.8184 641.299,-605.9222"/>
</g>
<!-- Node675&#45;&gt;Node640 -->
<g id="edge92" class="edge">
<title>Node675&#45;&gt;Node640</title>
<path fill="none" stroke="#191970" d="M681.3629,-600.3956C728.5251,-611.935 793.1127,-630.137 847,-654 873.2484,-665.6236 901.062,-683.3662 919.4621,-695.9652"/>
<polygon fill="#191970" stroke="#191970" points="682.1155,-596.9768 671.5736,-598.0347 680.4743,-603.7817 682.1155,-596.9768"/>
</g>
</g>
</svg>
