<?xml version="1.0" encoding="UTF-8" standalone="no"?>
<!DOCTYPE svg PUBLIC "-//W3C//DTD SVG 1.1//EN"
 "http://www.w3.org/Graphics/SVG/1.1/DTD/svg11.dtd">
<!-- Generated by graphviz version 2.40.1 (20161225.0304)
 -->
<!-- Title: free_token Pages: 1 -->
<svg width="599pt" height="104pt"
 viewBox="0.00 0.00 599.00 104.00" xmlns="http://www.w3.org/2000/svg" xmlns:xlink="http://www.w3.org/1999/xlink">
<g id="graph0" class="graph" transform="scale(1 1) rotate(0) translate(4 100)">
<title>free_token</title>
<!-- Node307005 -->
<g id="node1" class="node">
<title>Node307005</title>
<polygon fill="#bfbfbf" stroke="#000000" points="0,-19.5 0,-38.5 62,-38.5 62,-19.5 0,-19.5"/>
<text text-anchor="middle" x="31" y="-26.5" font-family="Helvetica,sans-Serif" font-size="10.00" fill="#000000">free_token</text>
</g>
<!-- Node307006 -->
<g id="node2" class="node">
<title>Node307006</title>
<g id="a_node2"><a xlink:href="quickjs_8c.html#ab7fc45a99935a1c0ba50b0216d9401a9" target="_top" xlink:title="JS_FreeAtom">
<polygon fill="none" stroke="#000000" points="98.5,-38.5 98.5,-57.5 175.5,-57.5 175.5,-38.5 98.5,-38.5"/>
<text text-anchor="middle" x="137" y="-45.5" font-family="Helvetica,sans-Serif" font-size="10.00" fill="#000000">JS_FreeAtom</text>
</a>
</g>
</g>
<!-- Node307005&#45;&gt;Node307006 -->
<g id="edge1" class="edge">
<title>Node307005&#45;&gt;Node307006</title>
<path fill="none" stroke="#191970" d="M62.2302,-34.5979C70.4831,-36.0772 79.5884,-37.7092 88.5212,-39.3104"/>
<polygon fill="#191970" stroke="#191970" points="88.0179,-42.7759 98.4786,-41.0952 89.253,-35.8857 88.0179,-42.7759"/>
</g>
<!-- Node307012 -->
<g id="node6" class="node">
<title>Node307012</title>
<g id="a_node6"><a xlink:href="quickjs_8h.html#afaa20c47565bc704c6c85f3d77254e7d" target="_top" xlink:title="JS_FreeValue">
<polygon fill="none" stroke="#000000" points="98,-.5 98,-19.5 176,-19.5 176,-.5 98,-.5"/>
<text text-anchor="middle" x="137" y="-7.5" font-family="Helvetica,sans-Serif" font-size="10.00" fill="#000000">JS_FreeValue</text>
</a>
</g>
</g>
<!-- Node307005&#45;&gt;Node307012 -->
<g id="edge5" class="edge">
<title>Node307005&#45;&gt;Node307012</title>
<path fill="none" stroke="#191970" d="M62.2302,-23.4021C70.2188,-21.9702 79.006,-20.3951 87.6624,-18.8435"/>
<polygon fill="#191970" stroke="#191970" points="88.4828,-22.2523 97.7084,-17.0428 87.2477,-15.3622 88.4828,-22.2523"/>
</g>
<!-- Node307007 -->
<g id="node3" class="node">
<title>Node307007</title>
<g id="a_node3"><a xlink:href="quickjs_8c.html#a7f6796ee7a195631366f57c713a33f65" target="_top" xlink:title="__JS_AtomIsConst">
<polygon fill="none" stroke="#000000" points="212,-76.5 212,-95.5 314,-95.5 314,-76.5 212,-76.5"/>
<text text-anchor="middle" x="263" y="-83.5" font-family="Helvetica,sans-Serif" font-size="10.00" fill="#000000">__JS_AtomIsConst</text>
</a>
</g>
</g>
<!-- Node307006&#45;&gt;Node307007 -->
<g id="edge2" class="edge">
<title>Node307006&#45;&gt;Node307007</title>
<path fill="none" stroke="#191970" d="M168.7951,-57.589C184.7621,-62.4044 204.3067,-68.2988 221.4465,-73.468"/>
<polygon fill="#191970" stroke="#191970" points="220.6304,-76.8775 231.2151,-76.4141 222.6516,-70.1756 220.6304,-76.8775"/>
</g>
<!-- Node307008 -->
<g id="node4" class="node">
<title>Node307008</title>
<g id="a_node4"><a xlink:href="quickjs_8c.html#a0bbd9e3ecd55e3ea6c9d44bfda382095" target="_top" xlink:title="__JS_FreeAtom">
<polygon fill="none" stroke="#000000" points="357.5,-38.5 357.5,-57.5 444.5,-57.5 444.5,-38.5 357.5,-38.5"/>
<text text-anchor="middle" x="401" y="-45.5" font-family="Helvetica,sans-Serif" font-size="10.00" fill="#000000">__JS_FreeAtom</text>
</a>
</g>
</g>
<!-- Node307006&#45;&gt;Node307008 -->
<g id="edge3" class="edge">
<title>Node307006&#45;&gt;Node307008</title>
<path fill="none" stroke="#191970" d="M175.6706,-48C220.9588,-48 296.2557,-48 347.2195,-48"/>
<polygon fill="#191970" stroke="#191970" points="347.3885,-51.5001 357.3884,-48 347.3884,-44.5001 347.3885,-51.5001"/>
</g>
<!-- Node307009 -->
<g id="node5" class="node">
<title>Node307009</title>
<g id="a_node5"><a xlink:href="quickjs_8c.html#a58c8965dad50b15b75918a09f3d9dc7c" target="_top" xlink:title="JS_FreeAtomStruct">
<polygon fill="none" stroke="#ff0000" points="488,-19.5 488,-38.5 591,-38.5 591,-19.5 488,-19.5"/>
<text text-anchor="middle" x="539.5" y="-26.5" font-family="Helvetica,sans-Serif" font-size="10.00" fill="#000000">JS_FreeAtomStruct</text>
</a>
</g>
</g>
<!-- Node307008&#45;&gt;Node307009 -->
<g id="edge4" class="edge">
<title>Node307008&#45;&gt;Node307009</title>
<path fill="none" stroke="#191970" d="M444.8223,-41.9883C455.2585,-40.5566 466.5896,-39.0022 477.6647,-37.4828"/>
<polygon fill="#191970" stroke="#191970" points="478.2993,-40.9286 487.7308,-36.1019 477.3478,-33.9936 478.2993,-40.9286"/>
</g>
<!-- Node307013 -->
<g id="node7" class="node">
<title>Node307013</title>
<g id="a_node7"><a xlink:href="quickjs_8c.html#aa059f309c30fd5166d16c82a97973146" target="_top" xlink:title="__JS_FreeValue">
<polygon fill="none" stroke="#000000" points="218.5,-.5 218.5,-19.5 307.5,-19.5 307.5,-.5 218.5,-.5"/>
<text text-anchor="middle" x="263" y="-7.5" font-family="Helvetica,sans-Serif" font-size="10.00" fill="#000000">__JS_FreeValue</text>
</a>
</g>
</g>
<!-- Node307012&#45;&gt;Node307013 -->
<g id="edge6" class="edge">
<title>Node307012&#45;&gt;Node307013</title>
<path fill="none" stroke="#191970" d="M176.1765,-10C186.2497,-10 197.2758,-10 207.9886,-10"/>
<polygon fill="#191970" stroke="#191970" points="208.1225,-13.5001 218.1225,-10 208.1224,-6.5001 208.1225,-13.5001"/>
</g>
<!-- Node307014 -->
<g id="node8" class="node">
<title>Node307014</title>
<g id="a_node8"><a xlink:href="quickjs_8c.html#ab1ea3fad7d138be12144a38be4d36423" target="_top" xlink:title="__JS_FreeValueRT">
<polygon fill="none" stroke="#ff0000" points="350,-.5 350,-19.5 452,-19.5 452,-.5 350,-.5"/>
<text text-anchor="middle" x="401" y="-7.5" font-family="Helvetica,sans-Serif" font-size="10.00" fill="#000000">__JS_FreeValueRT</text>
</a>
</g>
</g>
<!-- Node307013&#45;&gt;Node307014 -->
<g id="edge7" class="edge">
<title>Node307013&#45;&gt;Node307014</title>
<path fill="none" stroke="#191970" d="M307.8046,-10C317.9436,-10 328.8806,-10 339.5721,-10"/>
<polygon fill="#191970" stroke="#191970" points="339.7135,-13.5001 349.7135,-10 339.7135,-6.5001 339.7135,-13.5001"/>
</g>
<!-- Node307014&#45;&gt;Node307009 -->
<g id="edge8" class="edge">
<title>Node307014&#45;&gt;Node307009</title>
<path fill="none" stroke="#191970" d="M452.1788,-17.0209C460.4866,-18.1606 469.1674,-19.3515 477.6959,-20.5215"/>
<polygon fill="#191970" stroke="#191970" points="477.2231,-23.9893 487.6061,-21.881 478.1746,-17.0543 477.2231,-23.9893"/>
</g>
</g>
</svg>
