<?xml version="1.0" encoding="UTF-8" standalone="no"?>
<!DOCTYPE svg PUBLIC "-//W3C//DTD SVG 1.1//EN"
 "http://www.w3.org/Graphics/SVG/1.1/DTD/svg11.dtd">
<!-- Generated by graphviz version 2.40.1 (20161225.0304)
 -->
<!-- Title: JS_NewAtomInt64 Pages: 1 -->
<!--zoomable 769 -->
<svg id="main" version="1.1" xmlns="http://www.w3.org/2000/svg" xmlns:xlink="http://www.w3.org/1999/xlink" xml:space="preserve" onload="init(evt)">
<style type="text/css"><![CDATA[
.edge:hover path { stroke: red; }
.edge:hover polygon { stroke: red; fill: red; }
]]></style>
<script type="text/javascript"><![CDATA[
var edges = document.getElementsByTagName('g');
if (edges && edges.length) {
  for (var i=0;i<edges.length;i++) {
    if (edges[i].id.substr(0,4)=='edge') {
      edges[i].setAttribute('class','edge');
    }
  }
}
]]></script>
        <defs>
                <circle id="rim" cx="0" cy="0" r="7"/>
                <circle id="rim2" cx="0" cy="0" r="3.5"/>
                <g id="zoomPlus">
                        <use xlink:href="#rim" fill="#404040">
                                <set attributeName="fill" to="#808080" begin="zoomplus.mouseover" end="zoomplus.mouseout"/>
                        </use>
                        <path d="M-4,0h8M0,-4v8" fill="none" stroke="white" stroke-width="1.5" pointer-events="none"/>
                </g>
                <g id="zoomMin">
                        <use xlink:href="#rim" fill="#404040">
                                <set attributeName="fill" to="#808080" begin="zoomminus.mouseover" end="zoomminus.mouseout"/>
                        </use>
                        <path d="M-4,0h8" fill="none" stroke="white" stroke-width="1.5" pointer-events="none"/>
                </g>
                <g id="dirArrow">
                        <path fill="none" stroke="white" stroke-width="1.5" d="M0,-3.0v7 M-2.5,-0.5L0,-3.0L2.5,-0.5"/>
                </g>
               <g id="resetDef">
                       <use xlink:href="#rim2" fill="#404040">
                               <set attributeName="fill" to="#808080" begin="reset.mouseover" end="reset.mouseout"/>
                       </use>
               </g>
        </defs>

<script type="text/javascript">
var viewWidth = 665;
var viewHeight = 769;
var sectionId = 'dynsection-254';
</script>
<script xlink:href="svgpan.js"/>
<svg id="graph" class="graph">
<g id="viewport">
<title>JS_NewAtomInt64</title>
<!-- Node86242 -->
<g id="node1" class="node">
<title>Node86242</title>
<polygon fill="#bfbfbf" stroke="#000000" points="0,-513.5 0,-532.5 99,-532.5 99,-513.5 0,-513.5"/>
<text text-anchor="middle" x="49.5" y="-520.5" font-family="Helvetica,sans-Serif" font-size="10.00" fill="#000000">JS_NewAtomInt64</text>
</g>
<!-- Node86243 -->
<g id="node2" class="node">
<title>Node86243</title>
<g id="a_node2"><a xlink:href="quickjs_8c.html#a877fcb7651d95b411ce70e62b7f4a1f0" target="_top" xlink:title="__JS_AtomFromUInt32">
<polygon fill="none" stroke="#000000" points="135,-570.5 135,-589.5 254,-589.5 254,-570.5 135,-570.5"/>
<text text-anchor="middle" x="194.5" y="-577.5" font-family="Helvetica,sans-Serif" font-size="10.00" fill="#000000">__JS_AtomFromUInt32</text>
</a>
</g>
</g>
<!-- Node86242&#45;&gt;Node86243 -->
<g id="edge1" class="edge">
<title>Node86242&#45;&gt;Node86243</title>
<path fill="none" stroke="#191970" d="M69.2822,-532.5309C86.4484,-540.6223 112.076,-552.2755 135,-561 140.6484,-563.1497 146.6576,-565.264 152.6028,-567.2563"/>
<polygon fill="#191970" stroke="#191970" points="151.8801,-570.7021 162.4725,-570.4789 154.0528,-564.0478 151.8801,-570.7021"/>
</g>
<!-- Node86244 -->
<g id="node3" class="node">
<title>Node86244</title>
<g id="a_node3"><a xlink:href="quickjs_8c.html#acd08798ec15cc37c60d2e7d70007c6a8" target="_top" xlink:title="__JS_NewAtom">
<polygon fill="none" stroke="#000000" points="150.5,-532.5 150.5,-551.5 238.5,-551.5 238.5,-532.5 150.5,-532.5"/>
<text text-anchor="middle" x="194.5" y="-539.5" font-family="Helvetica,sans-Serif" font-size="10.00" fill="#000000">__JS_NewAtom</text>
</a>
</g>
</g>
<!-- Node86242&#45;&gt;Node86244 -->
<g id="edge2" class="edge">
<title>Node86242&#45;&gt;Node86244</title>
<path fill="none" stroke="#191970" d="M99.4008,-529.5387C112.5874,-531.2666 126.8824,-533.1398 140.2853,-534.896"/>
<polygon fill="#191970" stroke="#191970" points="139.9576,-538.3829 150.3276,-536.2119 140.8671,-531.4422 139.9576,-538.3829"/>
</g>
<!-- Node86260 -->
<g id="node19" class="node">
<title>Node86260</title>
<g id="a_node19"><a xlink:href="quickjs_8h.html#ad80a83d73e9b7d872b88fbf2943aebe9" target="_top" xlink:title="JS_IsException">
<polygon fill="none" stroke="#000000" points="151.5,-494.5 151.5,-513.5 237.5,-513.5 237.5,-494.5 151.5,-494.5"/>
<text text-anchor="middle" x="194.5" y="-501.5" font-family="Helvetica,sans-Serif" font-size="10.00" fill="#000000">JS_IsException</text>
</a>
</g>
</g>
<!-- Node86242&#45;&gt;Node86260 -->
<g id="edge22" class="edge">
<title>Node86242&#45;&gt;Node86260</title>
<path fill="none" stroke="#191970" d="M99.4008,-516.4613C112.8485,-514.6992 127.4489,-512.786 141.0804,-510.9998"/>
<polygon fill="#191970" stroke="#191970" points="141.8201,-514.4329 151.2805,-509.6632 140.9105,-507.4922 141.8201,-514.4329"/>
</g>
<!-- Node86261 -->
<g id="node20" class="node">
<title>Node86261</title>
<g id="a_node20"><a xlink:href="quickjs_8c.html#a0ee6a3654a6016393fac5e1c108f403a" target="_top" xlink:title="JS_NewString">
<polygon fill="none" stroke="#000000" points="154.5,-304.5 154.5,-323.5 234.5,-323.5 234.5,-304.5 154.5,-304.5"/>
<text text-anchor="middle" x="194.5" y="-311.5" font-family="Helvetica,sans-Serif" font-size="10.00" fill="#000000">JS_NewString</text>
</a>
</g>
</g>
<!-- Node86242&#45;&gt;Node86261 -->
<g id="edge23" class="edge">
<title>Node86242&#45;&gt;Node86261</title>
<path fill="none" stroke="#191970" d="M56.1071,-513.4766C78.6115,-481.0393 152.5133,-374.5188 182.0958,-331.8791"/>
<polygon fill="#191970" stroke="#191970" points="185.0294,-333.7907 187.8541,-323.5793 179.278,-329.8005 185.0294,-333.7907"/>
</g>
<!-- Node86245 -->
<g id="node4" class="node">
<title>Node86245</title>
<g id="a_node4"><a xlink:href="quickjs_8c.html#a7f6796ee7a195631366f57c713a33f65" target="_top" xlink:title="__JS_AtomIsConst">
<polygon fill="none" stroke="#000000" points="294.5,-703.5 294.5,-722.5 396.5,-722.5 396.5,-703.5 294.5,-703.5"/>
<text text-anchor="middle" x="345.5" y="-710.5" font-family="Helvetica,sans-Serif" font-size="10.00" fill="#000000">__JS_AtomIsConst</text>
</a>
</g>
</g>
<!-- Node86244&#45;&gt;Node86245 -->
<g id="edge3" class="edge">
<title>Node86244&#45;&gt;Node86245</title>
<path fill="none" stroke="#191970" d="M238.7206,-550.4954C244.4091,-553.1128 249.7283,-556.5327 254,-561 296.3223,-605.26 248.139,-649.3035 290,-694 291.3576,-695.4495 292.8303,-696.7884 294.3928,-698.0252"/>
<polygon fill="#191970" stroke="#191970" points="292.52,-700.982 302.836,-703.397 296.2776,-695.076 292.52,-700.982"/>
</g>
<!-- Node86246 -->
<g id="node5" class="node">
<title>Node86246</title>
<g id="a_node5"><a xlink:href="quickjs_8c.html#ad7824788e3ed6ecfd045f02398647753" target="_top" xlink:title="atom_get_free">
<polygon fill="none" stroke="#000000" points="306,-665.5 306,-684.5 385,-684.5 385,-665.5 306,-665.5"/>
<text text-anchor="middle" x="345.5" y="-672.5" font-family="Helvetica,sans-Serif" font-size="10.00" fill="#000000">atom_get_free</text>
</a>
</g>
</g>
<!-- Node86244&#45;&gt;Node86246 -->
<g id="edge4" class="edge">
<title>Node86244&#45;&gt;Node86246</title>
<path fill="none" stroke="#191970" d="M238.5661,-551.0935C244.2084,-553.6254 249.5555,-556.8621 254,-561 285.5312,-590.3562 259.9608,-620.1188 290,-651 293.7022,-654.806 298.1079,-658.0448 302.7946,-660.7922"/>
<polygon fill="#191970" stroke="#191970" points="301.5417,-664.0814 312.0426,-665.4894 304.7117,-657.8403 301.5417,-664.0814"/>
</g>
<!-- Node86247 -->
<g id="node6" class="node">
<title>Node86247</title>
<g id="a_node6"><a xlink:href="quickjs_8c.html#aba70a7ff210dcedf19125863f2b12d4e" target="_top" xlink:title="atom_set_free">
<polygon fill="none" stroke="#000000" points="578,-541.5 578,-560.5 657,-560.5 657,-541.5 578,-541.5"/>
<text text-anchor="middle" x="617.5" y="-548.5" font-family="Helvetica,sans-Serif" font-size="10.00" fill="#000000">atom_set_free</text>
</a>
</g>
</g>
<!-- Node86244&#45;&gt;Node86247 -->
<g id="edge5" class="edge">
<title>Node86244&#45;&gt;Node86247</title>
<path fill="none" stroke="#191970" d="M234.1591,-551.5727C241.0487,-554.0873 247.9392,-557.1938 254,-561 273.7016,-573.3726 269.959,-587.185 290,-599 348.131,-633.2705 370.0581,-628.4876 437,-637 483.2939,-642.8868 499.488,-656.2485 542,-637 572.4679,-623.2048 595.5126,-590.3653 607.7222,-569.4929"/>
<polygon fill="#191970" stroke="#191970" points="610.8692,-571.0362 612.6943,-560.5998 604.7593,-567.6202 610.8692,-571.0362"/>
</g>
<!-- Node86248 -->
<g id="node7" class="node">
<title>Node86248</title>
<g id="a_node7"><a xlink:href="quickjs_8c.html#a745328cb78cc898a3e105bc7bd7aee38" target="_top" xlink:title="hash_string">
<polygon fill="none" stroke="#000000" points="312,-570.5 312,-589.5 379,-589.5 379,-570.5 312,-570.5"/>
<text text-anchor="middle" x="345.5" y="-577.5" font-family="Helvetica,sans-Serif" font-size="10.00" fill="#000000">hash_string</text>
</a>
</g>
</g>
<!-- Node86244&#45;&gt;Node86248 -->
<g id="edge6" class="edge">
<title>Node86244&#45;&gt;Node86248</title>
<path fill="none" stroke="#191970" d="M232.6037,-551.589C253.742,-556.9086 280.1126,-563.5449 302.0502,-569.0656"/>
<polygon fill="#191970" stroke="#191970" points="301.2312,-572.4686 311.783,-571.5149 302.9395,-565.6802 301.2312,-572.4686"/>
</g>
<!-- Node86251 -->
<g id="node10" class="node">
<title>Node86251</title>
<g id="a_node10"><a xlink:href="quickjs_8c.html#a69e19dda8a93d613203e0baa06f0ed8d" target="_top" xlink:title="js_free_rt">
<polygon fill="none" stroke="#000000" points="589,-484.5 589,-503.5 646,-503.5 646,-484.5 589,-484.5"/>
<text text-anchor="middle" x="617.5" y="-491.5" font-family="Helvetica,sans-Serif" font-size="10.00" fill="#000000">js_free_rt</text>
</a>
</g>
</g>
<!-- Node86244&#45;&gt;Node86251 -->
<g id="edge9" class="edge">
<title>Node86244&#45;&gt;Node86251</title>
<path fill="none" stroke="#191970" d="M238.6395,-532.5169C244.205,-530.0437 249.5113,-526.927 254,-523 282.1298,-498.39 258.4172,-466.9866 290,-447 387.2434,-385.4613 532.8643,-449.0296 591.5833,-479.5769"/>
<polygon fill="#191970" stroke="#191970" points="590.0853,-482.7443 600.5586,-484.3443 593.369,-476.5622 590.0853,-482.7443"/>
</g>
<!-- Node86252 -->
<g id="node11" class="node">
<title>Node86252</title>
<g id="a_node11"><a xlink:href="quickjs_8c.html#aa506aaf9df272c0e9e541bbf0138b483" target="_top" xlink:title="js_free_string">
<polygon fill="none" stroke="#000000" points="308,-532.5 308,-551.5 383,-551.5 383,-532.5 308,-532.5"/>
<text text-anchor="middle" x="345.5" y="-539.5" font-family="Helvetica,sans-Serif" font-size="10.00" fill="#000000">js_free_string</text>
</a>
</g>
</g>
<!-- Node86244&#45;&gt;Node86252 -->
<g id="edge10" class="edge">
<title>Node86244&#45;&gt;Node86252</title>
<path fill="none" stroke="#191970" d="M238.5814,-542C257.0904,-542 278.6657,-542 297.5684,-542"/>
<polygon fill="#191970" stroke="#191970" points="297.7585,-545.5001 307.7585,-542 297.7585,-538.5001 297.7585,-545.5001"/>
</g>
<!-- Node86254 -->
<g id="node13" class="node">
<title>Node86254</title>
<g id="a_node13"><a xlink:href="quickjs_8c.html#ab7f82c24ed28f06191bf5a51f78bb710" target="_top" xlink:title="js_get_atom_index">
<polygon fill="none" stroke="#000000" points="296.5,-456.5 296.5,-475.5 394.5,-475.5 394.5,-456.5 296.5,-456.5"/>
<text text-anchor="middle" x="345.5" y="-463.5" font-family="Helvetica,sans-Serif" font-size="10.00" fill="#000000">js_get_atom_index</text>
</a>
</g>
</g>
<!-- Node86244&#45;&gt;Node86254 -->
<g id="edge15" class="edge">
<title>Node86244&#45;&gt;Node86254</title>
<path fill="none" stroke="#191970" d="M234.1591,-532.4273C241.0487,-529.9127 247.9392,-526.8062 254,-523 273.7016,-510.6274 270.4278,-497.5763 290,-485 293.1407,-482.9819 296.5199,-481.1522 300.0049,-479.4983"/>
<polygon fill="#191970" stroke="#191970" points="301.5446,-482.6472 309.3859,-475.5222 298.8129,-476.2022 301.5446,-482.6472"/>
</g>
<!-- Node86255 -->
<g id="node14" class="node">
<title>Node86255</title>
<g id="a_node14"><a xlink:href="quickjs_8c.html#ac8b63cf5ecd077231532b9ad543aad23" target="_top" xlink:title="JS_ResizeAtomHash">
<polygon fill="none" stroke="#000000" points="290,-494.5 290,-513.5 401,-513.5 401,-494.5 290,-494.5"/>
<text text-anchor="middle" x="345.5" y="-501.5" font-family="Helvetica,sans-Serif" font-size="10.00" fill="#000000">JS_ResizeAtomHash</text>
</a>
</g>
</g>
<!-- Node86244&#45;&gt;Node86255 -->
<g id="edge16" class="edge">
<title>Node86244&#45;&gt;Node86255</title>
<path fill="none" stroke="#191970" d="M232.6037,-532.411C252.44,-527.4191 276.8839,-521.2676 297.9483,-515.9666"/>
<polygon fill="#191970" stroke="#191970" points="298.8269,-519.3548 307.6703,-513.5201 297.1185,-512.5664 298.8269,-519.3548"/>
</g>
<!-- Node86256 -->
<g id="node15" class="node">
<title>Node86256</title>
<g id="a_node15"><a xlink:href="quickjs_8c.html#aa3b85ecf2f1fbd87cb38b78548286017" target="_top" xlink:title="js_string_memcmp">
<polygon fill="none" stroke="#000000" points="296,-380.5 296,-399.5 395,-399.5 395,-380.5 296,-380.5"/>
<text text-anchor="middle" x="345.5" y="-387.5" font-family="Helvetica,sans-Serif" font-size="10.00" fill="#000000">js_string_memcmp</text>
</a>
</g>
</g>
<!-- Node86244&#45;&gt;Node86256 -->
<g id="edge18" class="edge">
<title>Node86244&#45;&gt;Node86256</title>
<path fill="none" stroke="#191970" d="M238.5022,-533.29C244.2218,-530.7031 249.6078,-527.3489 254,-523 290.2535,-487.1037 255.5681,-451.6471 290,-414 293.497,-410.1764 297.7088,-406.9351 302.2297,-404.1936"/>
<polygon fill="#191970" stroke="#191970" points="303.95,-407.2438 311.1979,-399.516 300.7128,-401.0373 303.95,-407.2438"/>
</g>
<!-- Node86259 -->
<g id="node18" class="node">
<title>Node86259</title>
<g id="a_node18"><a xlink:href="cutils_8h.html#a94f155fcce337a2b9d4719ed8042cbbe" target="_top" xlink:title="max_int">
<polygon fill="none" stroke="#000000" points="320,-741.5 320,-760.5 371,-760.5 371,-741.5 320,-741.5"/>
<text text-anchor="middle" x="345.5" y="-748.5" font-family="Helvetica,sans-Serif" font-size="10.00" fill="#000000">max_int</text>
</a>
</g>
</g>
<!-- Node86244&#45;&gt;Node86259 -->
<g id="edge21" class="edge">
<title>Node86244&#45;&gt;Node86259</title>
<path fill="none" stroke="#191970" d="M238.6558,-550.14C244.4247,-552.8049 249.7843,-556.3327 254,-561 306.0587,-618.6358 238.5419,-673.8273 290,-732 295.3139,-738.0072 302.6103,-742.1165 310.1668,-744.9272"/>
<polygon fill="#191970" stroke="#191970" points="309.1621,-748.2798 319.7477,-747.8378 311.1969,-741.5821 309.1621,-748.2798"/>
</g>
<!-- Node86249 -->
<g id="node8" class="node">
<title>Node86249</title>
<g id="a_node8"><a xlink:href="quickjs_8c.html#a8f1b36a26bf6d179e43696a67e8e0fff" target="_top" xlink:title="hash_string16">
<polygon fill="none" stroke="#000000" points="451,-608.5 451,-627.5 528,-627.5 528,-608.5 451,-608.5"/>
<text text-anchor="middle" x="489.5" y="-615.5" font-family="Helvetica,sans-Serif" font-size="10.00" fill="#000000">hash_string16</text>
</a>
</g>
</g>
<!-- Node86248&#45;&gt;Node86249 -->
<g id="edge7" class="edge">
<title>Node86248&#45;&gt;Node86249</title>
<path fill="none" stroke="#191970" d="M379.2616,-588.9093C398.4073,-593.9616 422.6347,-600.355 443.498,-605.8606"/>
<polygon fill="#191970" stroke="#191970" points="442.8706,-609.3148 453.4327,-608.4822 444.6568,-602.5465 442.8706,-609.3148"/>
</g>
<!-- Node86250 -->
<g id="node9" class="node">
<title>Node86250</title>
<g id="a_node9"><a xlink:href="quickjs_8c.html#a7f3a538c8f7ee373cfe88625181739ad" target="_top" xlink:title="hash_string8">
<polygon fill="none" stroke="#000000" points="453.5,-570.5 453.5,-589.5 525.5,-589.5 525.5,-570.5 453.5,-570.5"/>
<text text-anchor="middle" x="489.5" y="-577.5" font-family="Helvetica,sans-Serif" font-size="10.00" fill="#000000">hash_string8</text>
</a>
</g>
</g>
<!-- Node86248&#45;&gt;Node86250 -->
<g id="edge8" class="edge">
<title>Node86248&#45;&gt;Node86250</title>
<path fill="none" stroke="#191970" d="M379.2616,-580C398.3202,-580 422.4145,-580 443.2133,-580"/>
<polygon fill="#191970" stroke="#191970" points="443.4328,-583.5001 453.4327,-580 443.4327,-576.5001 443.4328,-583.5001"/>
</g>
<!-- Node86252&#45;&gt;Node86251 -->
<g id="edge11" class="edge">
<title>Node86252&#45;&gt;Node86251</title>
<path fill="none" stroke="#191970" d="M383.2643,-533.7561C399.7339,-530.265 419.2886,-526.26 437,-523 485.723,-514.0321 542.1353,-505.2188 578.7461,-499.7056"/>
<polygon fill="#191970" stroke="#191970" points="579.6113,-503.1151 588.9826,-498.1724 578.5744,-496.1923 579.6113,-503.1151"/>
</g>
<!-- Node86253 -->
<g id="node12" class="node">
<title>Node86253</title>
<g id="a_node12"><a xlink:href="quickjs_8c.html#a58c8965dad50b15b75918a09f3d9dc7c" target="_top" xlink:title="JS_FreeAtomStruct">
<polygon fill="none" stroke="#000000" points="438,-532.5 438,-551.5 541,-551.5 541,-532.5 438,-532.5"/>
<text text-anchor="middle" x="489.5" y="-539.5" font-family="Helvetica,sans-Serif" font-size="10.00" fill="#000000">JS_FreeAtomStruct</text>
</a>
</g>
</g>
<!-- Node86252&#45;&gt;Node86253 -->
<g id="edge12" class="edge">
<title>Node86252&#45;&gt;Node86253</title>
<path fill="none" stroke="#191970" d="M383.3343,-542C396.8754,-542 412.5153,-542 427.5578,-542"/>
<polygon fill="#191970" stroke="#191970" points="427.8432,-545.5001 437.8432,-542 427.8432,-538.5001 427.8432,-545.5001"/>
</g>
<!-- Node86253&#45;&gt;Node86247 -->
<g id="edge13" class="edge">
<title>Node86253&#45;&gt;Node86247</title>
<path fill="none" stroke="#191970" d="M541.1935,-545.6347C549.9706,-546.2518 559.0687,-546.8915 567.7932,-547.505"/>
<polygon fill="#191970" stroke="#191970" points="567.601,-551 577.8219,-548.2101 568.0921,-544.0173 567.601,-551"/>
</g>
<!-- Node86253&#45;&gt;Node86251 -->
<g id="edge14" class="edge">
<title>Node86253&#45;&gt;Node86251</title>
<path fill="none" stroke="#191970" d="M515.0951,-532.4018C534.4547,-525.142 561.2544,-515.0921 582.5817,-507.0944"/>
<polygon fill="#191970" stroke="#191970" points="583.8149,-510.37 591.9493,-503.5815 581.357,-503.8157 583.8149,-510.37"/>
</g>
<!-- Node86255&#45;&gt;Node86251 -->
<g id="edge17" class="edge">
<title>Node86255&#45;&gt;Node86251</title>
<path fill="none" stroke="#191970" d="M398.5653,-494.4859C411.1246,-492.6217 424.5013,-490.9507 437,-490 483.5323,-486.4607 495.3497,-488.7651 542,-490 553.9754,-490.317 567.0079,-490.9164 578.8219,-491.5565"/>
<polygon fill="#191970" stroke="#191970" points="578.651,-495.0523 588.833,-492.1234 579.0469,-488.0635 578.651,-495.0523"/>
</g>
<!-- Node86257 -->
<g id="node16" class="node">
<title>Node86257</title>
<g id="a_node16"><a xlink:href="quickjs_8c.html#a98e9fec451d6851cae6d0d92ea860a26" target="_top" xlink:title="memcmp16">
<polygon fill="none" stroke="#000000" points="455.5,-380.5 455.5,-399.5 523.5,-399.5 523.5,-380.5 455.5,-380.5"/>
<text text-anchor="middle" x="489.5" y="-387.5" font-family="Helvetica,sans-Serif" font-size="10.00" fill="#000000">memcmp16</text>
</a>
</g>
</g>
<!-- Node86256&#45;&gt;Node86257 -->
<g id="edge19" class="edge">
<title>Node86256&#45;&gt;Node86257</title>
<path fill="none" stroke="#191970" d="M395.0566,-390C411.3405,-390 429.3261,-390 445.1943,-390"/>
<polygon fill="#191970" stroke="#191970" points="445.2771,-393.5001 455.277,-390 445.277,-386.5001 445.2771,-393.5001"/>
</g>
<!-- Node86258 -->
<g id="node17" class="node">
<title>Node86258</title>
<g id="a_node17"><a xlink:href="quickjs_8c.html#add253cbbb280615066466e7fb8bef776" target="_top" xlink:title="memcmp16_8">
<polygon fill="none" stroke="#000000" points="450.5,-342.5 450.5,-361.5 528.5,-361.5 528.5,-342.5 450.5,-342.5"/>
<text text-anchor="middle" x="489.5" y="-349.5" font-family="Helvetica,sans-Serif" font-size="10.00" fill="#000000">memcmp16_8</text>
</a>
</g>
</g>
<!-- Node86256&#45;&gt;Node86258 -->
<g id="edge20" class="edge">
<title>Node86256&#45;&gt;Node86258</title>
<path fill="none" stroke="#191970" d="M381.8373,-380.411C400.5829,-375.4642 423.6432,-369.3789 443.6066,-364.1108"/>
<polygon fill="#191970" stroke="#191970" points="444.6481,-367.4558 453.424,-361.5201 442.8619,-360.6875 444.6481,-367.4558"/>
</g>
<!-- Node86262 -->
<g id="node21" class="node">
<title>Node86262</title>
<g id="a_node21"><a xlink:href="quickjs_8c.html#ac34cc554aab1e98c45a7f845fff64385" target="_top" xlink:title="JS_NewStringLen">
<polygon fill="none" stroke="#000000" points="298,-171.5 298,-190.5 393,-190.5 393,-171.5 298,-171.5"/>
<text text-anchor="middle" x="345.5" y="-178.5" font-family="Helvetica,sans-Serif" font-size="10.00" fill="#000000">JS_NewStringLen</text>
</a>
</g>
</g>
<!-- Node86261&#45;&gt;Node86262 -->
<g id="edge24" class="edge">
<title>Node86261&#45;&gt;Node86262</title>
<path fill="none" stroke="#191970" d="M205.3595,-304.435C230.8106,-282.0178 294.5703,-225.8586 326.5651,-197.6778"/>
<polygon fill="#191970" stroke="#191970" points="329.1406,-200.0733 334.3315,-190.8372 324.5139,-194.8204 329.1406,-200.0733"/>
</g>
<!-- Node86263 -->
<g id="node22" class="node">
<title>Node86263</title>
<g id="a_node22"><a xlink:href="quickjs_8c.html#a853f0924d441ea4225488f37c8b69f9a" target="_top" xlink:title="__attribute__">
<polygon fill="none" stroke="#000000" points="453,-304.5 453,-323.5 526,-323.5 526,-304.5 453,-304.5"/>
<text text-anchor="middle" x="489.5" y="-311.5" font-family="Helvetica,sans-Serif" font-size="10.00" fill="#000000">__attribute__</text>
</a>
</g>
</g>
<!-- Node86262&#45;&gt;Node86263 -->
<g id="edge25" class="edge">
<title>Node86262&#45;&gt;Node86263</title>
<path fill="none" stroke="#191970" d="M350.7931,-190.74C363.0908,-212.5022 395.7153,-265.4737 437,-295 439.6412,-296.889 442.4902,-298.6089 445.4473,-300.1717"/>
<polygon fill="#191970" stroke="#191970" points="444.0002,-303.3587 454.5436,-304.4007 446.9512,-297.0111 444.0002,-303.3587"/>
</g>
<!-- Node86264 -->
<g id="node23" class="node">
<title>Node86264</title>
<g id="a_node23"><a xlink:href="quickjs_8c.html#aa923510185fe24e3083baf7405b09f51" target="_top" xlink:title="js_new_string8">
<polygon fill="none" stroke="#ff0000" points="448.5,-266.5 448.5,-285.5 530.5,-285.5 530.5,-266.5 448.5,-266.5"/>
<text text-anchor="middle" x="489.5" y="-273.5" font-family="Helvetica,sans-Serif" font-size="10.00" fill="#000000">js_new_string8</text>
</a>
</g>
</g>
<!-- Node86262&#45;&gt;Node86264 -->
<g id="edge26" class="edge">
<title>Node86262&#45;&gt;Node86264</title>
<path fill="none" stroke="#191970" d="M354.8066,-190.6574C370.4708,-206.4397 403.6707,-237.9089 437,-257 440.4958,-259.0024 444.2404,-260.8555 448.0607,-262.5548"/>
<polygon fill="#191970" stroke="#191970" points="447.0339,-265.9162 457.6147,-266.4601 449.6825,-259.4366 447.0339,-265.9162"/>
</g>
<!-- Node86273 -->
<g id="node24" class="node">
<title>Node86273</title>
<g id="a_node24"><a xlink:href="quickjs_8c.html#a9c11961b0adafedd064b294612d0c2f3" target="_top" xlink:title="string_buffer_init">
<polygon fill="none" stroke="#ff0000" points="445,-228.5 445,-247.5 534,-247.5 534,-228.5 445,-228.5"/>
<text text-anchor="middle" x="489.5" y="-235.5" font-family="Helvetica,sans-Serif" font-size="10.00" fill="#000000">string_buffer_init</text>
</a>
</g>
</g>
<!-- Node86262&#45;&gt;Node86273 -->
<g id="edge27" class="edge">
<title>Node86262&#45;&gt;Node86273</title>
<path fill="none" stroke="#191970" d="M367.5712,-190.5035C386.0322,-198.371 413.1091,-209.7217 437,-219 442.139,-220.9958 447.5859,-223.0426 452.9502,-225.0192"/>
<polygon fill="#191970" stroke="#191970" points="451.8385,-228.3392 462.4325,-228.4752 454.2356,-221.7624 451.8385,-228.3392"/>
</g>
<!-- Node86275 -->
<g id="node25" class="node">
<title>Node86275</title>
<g id="a_node25"><a xlink:href="quickjs_8c.html#a0b130652cf11eb0eb9f7e3ee6c5d7c6a" target="_top" xlink:title="string_buffer_write8">
<polygon fill="none" stroke="#ff0000" points="438.5,-190.5 438.5,-209.5 540.5,-209.5 540.5,-190.5 438.5,-190.5"/>
<text text-anchor="middle" x="489.5" y="-197.5" font-family="Helvetica,sans-Serif" font-size="10.00" fill="#000000">string_buffer_write8</text>
</a>
</g>
</g>
<!-- Node86262&#45;&gt;Node86275 -->
<g id="edge28" class="edge">
<title>Node86262&#45;&gt;Node86275</title>
<path fill="none" stroke="#191970" d="M393.0501,-187.274C404.2017,-188.7454 416.2413,-190.3339 427.9084,-191.8733"/>
<polygon fill="#191970" stroke="#191970" points="427.6618,-195.371 438.0337,-193.2093 428.5775,-188.4312 427.6618,-195.371"/>
</g>
<!-- Node86281 -->
<g id="node26" class="node">
<title>Node86281</title>
<g id="a_node26"><a xlink:href="quickjs_8c.html#a874fcee73f61cc997ec1d10cc6711554" target="_top" xlink:title="string_buffer_putc8">
<polygon fill="none" stroke="#ff0000" points="439.5,-152.5 439.5,-171.5 539.5,-171.5 539.5,-152.5 439.5,-152.5"/>
<text text-anchor="middle" x="489.5" y="-159.5" font-family="Helvetica,sans-Serif" font-size="10.00" fill="#000000">string_buffer_putc8</text>
</a>
</g>
</g>
<!-- Node86262&#45;&gt;Node86281 -->
<g id="edge29" class="edge">
<title>Node86262&#45;&gt;Node86281</title>
<path fill="none" stroke="#191970" d="M393.0501,-174.726C404.5703,-173.206 417.0382,-171.5609 429.0642,-169.9742"/>
<polygon fill="#191970" stroke="#191970" points="429.5753,-173.4372 439.0315,-168.659 428.6595,-166.4973 429.5753,-173.4372"/>
</g>
<!-- Node86282 -->
<g id="node27" class="node">
<title>Node86282</title>
<g id="a_node27"><a xlink:href="cutils_8h.html#a69529af6d6911dd0ead90eef221b2e10" target="_top" xlink:title="unicode_from_utf8">
<polygon fill="none" stroke="#000000" points="441,-114.5 441,-133.5 538,-133.5 538,-114.5 441,-114.5"/>
<text text-anchor="middle" x="489.5" y="-121.5" font-family="Helvetica,sans-Serif" font-size="10.00" fill="#000000">unicode_from_utf8</text>
</a>
</g>
</g>
<!-- Node86262&#45;&gt;Node86282 -->
<g id="edge30" class="edge">
<title>Node86262&#45;&gt;Node86282</title>
<path fill="none" stroke="#191970" d="M367.5712,-171.4965C386.0322,-163.629 413.1091,-152.2783 437,-143 442.139,-141.0042 447.5859,-138.9574 452.9502,-136.9808"/>
<polygon fill="#191970" stroke="#191970" points="454.2356,-140.2376 462.4325,-133.5248 451.8385,-133.6608 454.2356,-140.2376"/>
</g>
<!-- Node86283 -->
<g id="node28" class="node">
<title>Node86283</title>
<g id="a_node28"><a xlink:href="quickjs_8c.html#a9b8fb6b5ce638616691f7bf7881fa57d" target="_top" xlink:title="string_buffer_putc16">
<polygon fill="none" stroke="#ff0000" points="437,-76.5 437,-95.5 542,-95.5 542,-76.5 437,-76.5"/>
<text text-anchor="middle" x="489.5" y="-83.5" font-family="Helvetica,sans-Serif" font-size="10.00" fill="#000000">string_buffer_putc16</text>
</a>
</g>
</g>
<!-- Node86262&#45;&gt;Node86283 -->
<g id="edge31" class="edge">
<title>Node86262&#45;&gt;Node86283</title>
<path fill="none" stroke="#191970" d="M354.8066,-171.3426C370.4708,-155.5603 403.6707,-124.0911 437,-105 440.4958,-102.9976 444.2404,-101.1445 448.0607,-99.4452"/>
<polygon fill="#191970" stroke="#191970" points="449.6825,-102.5634 457.6147,-95.5399 447.0339,-96.0838 449.6825,-102.5634"/>
</g>
<!-- Node86285 -->
<g id="node29" class="node">
<title>Node86285</title>
<g id="a_node29"><a xlink:href="quickjs_8c.html#accfc3d1dcaa88c88402cb245ccaf4fdb" target="_top" xlink:title="string_buffer_end">
<polygon fill="none" stroke="#ff0000" points="443.5,-38.5 443.5,-57.5 535.5,-57.5 535.5,-38.5 443.5,-38.5"/>
<text text-anchor="middle" x="489.5" y="-45.5" font-family="Helvetica,sans-Serif" font-size="10.00" fill="#000000">string_buffer_end</text>
</a>
</g>
</g>
<!-- Node86262&#45;&gt;Node86285 -->
<g id="edge32" class="edge">
<title>Node86262&#45;&gt;Node86285</title>
<path fill="none" stroke="#191970" d="M350.7931,-171.26C363.0908,-149.4978 395.7153,-96.5263 437,-67 439.6412,-65.111 442.4902,-63.3911 445.4473,-61.8283"/>
<polygon fill="#191970" stroke="#191970" points="446.9512,-64.9889 454.5436,-57.5993 444.0002,-58.6413 446.9512,-64.9889"/>
</g>
<!-- Node86286 -->
<g id="node30" class="node">
<title>Node86286</title>
<g id="a_node30"><a xlink:href="quickjs_8c.html#a266b4993a59d9e34537386e62b9f3d4f" target="_top" xlink:title="string_buffer_free">
<polygon fill="none" stroke="#ff0000" points="443.5,-.5 443.5,-19.5 535.5,-19.5 535.5,-.5 443.5,-.5"/>
<text text-anchor="middle" x="489.5" y="-7.5" font-family="Helvetica,sans-Serif" font-size="10.00" fill="#000000">string_buffer_free</text>
</a>
</g>
</g>
<!-- Node86262&#45;&gt;Node86286 -->
<g id="edge33" class="edge">
<title>Node86262&#45;&gt;Node86286</title>
<path fill="none" stroke="#191970" d="M348.7245,-171.2638C358.0372,-144.601 387.5108,-69.6861 437,-29 439.1375,-27.2427 441.4511,-25.6411 443.8749,-24.1823"/>
<polygon fill="#191970" stroke="#191970" points="445.7109,-27.1745 453.017,-19.5017 442.5207,-20.9436 445.7109,-27.1745"/>
</g>
</g>
</svg>
        <g id="navigator" transform="translate(0 0)" fill="#404254">
                <rect fill="#f2f5e9" fill-opacity="0.5" stroke="#606060" stroke-width=".5" x="0" y="0" width="60" height="60"/>
                <use id="zoomplus" xlink:href="#zoomPlus" x="17" y="9" onmousedown="handleZoom(evt,'in')"/>
                <use id="zoomminus" xlink:href="#zoomMin" x="42" y="9" onmousedown="handleZoom(evt,'out')"/>
                <use id="reset" xlink:href="#resetDef" x="30" y="36" onmousedown="handleReset()"/>
                <g id="arrowUp" xlink:href="#dirArrow" transform="translate(30 24)" onmousedown="handlePan(0,-1)">
                  <use xlink:href="#rim" fill="#404040">
                        <set attributeName="fill" to="#808080" begin="arrowUp.mouseover" end="arrowUp.mouseout"/>
                  </use>
                  <path fill="none" stroke="white" stroke-width="1.5" d="M0,-3.0v7 M-2.5,-0.5L0,-3.0L2.5,-0.5"/>
                </g>
                <g id="arrowRight" xlink:href="#dirArrow" transform="rotate(90) translate(36 -43)" onmousedown="handlePan(1,0)">
                  <use xlink:href="#rim" fill="#404040">
                        <set attributeName="fill" to="#808080" begin="arrowRight.mouseover" end="arrowRight.mouseout"/>
                  </use>
                  <path fill="none" stroke="white" stroke-width="1.5" d="M0,-3.0v7 M-2.5,-0.5L0,-3.0L2.5,-0.5"/>
                </g>
                <g id="arrowDown" xlink:href="#dirArrow" transform="rotate(180) translate(-30 -48)" onmousedown="handlePan(0,1)">
                  <use xlink:href="#rim" fill="#404040">
                        <set attributeName="fill" to="#808080" begin="arrowDown.mouseover" end="arrowDown.mouseout"/>
                  </use>
                  <path fill="none" stroke="white" stroke-width="1.5" d="M0,-3.0v7 M-2.5,-0.5L0,-3.0L2.5,-0.5"/>
                </g>
                <g id="arrowLeft" xlink:href="#dirArrow" transform="rotate(270) translate(-36 17)" onmousedown="handlePan(-1,0)">
                  <use xlink:href="#rim" fill="#404040">
                        <set attributeName="fill" to="#808080" begin="arrowLeft.mouseover" end="arrowLeft.mouseout"/>
                  </use>
                  <path fill="none" stroke="white" stroke-width="1.5" d="M0,-3.0v7 M-2.5,-0.5L0,-3.0L2.5,-0.5"/>
                </g>
        </g>
        <svg viewBox="0 0 15 15" width="100%" height="30px" preserveAspectRatio="xMaxYMin meet">
         <g id="arrow_out" transform="scale(0.3 0.3)">
          <a xlink:href="quickjs_8c_aa641af3a921335927dab07dc83285917_cgraph_org.svg" target="_base">
           <rect id="button" ry="5" rx="5" y="6" x="6" height="38" width="38"
                fill="#f2f5e9" fill-opacity="0.5" stroke="#606060" stroke-width="1.0"/>
           <path id="arrow"
             d="M 11.500037,31.436501 C 11.940474,20.09759 22.043105,11.32322 32.158766,21.979434 L 37.068811,17.246167 C 37.068811,17.246167 37.088388,32 37.088388,32 L 22.160133,31.978069 C 22.160133,31.978069 26.997745,27.140456 26.997745,27.140456 C 18.528582,18.264221 13.291696,25.230495 11.500037,31.436501 z"
             style="fill:#404040;"/>
          </a>
         </g>
        </svg>
</svg>
