<?xml version="1.0" encoding="UTF-8" standalone="no"?>
<!DOCTYPE svg PUBLIC "-//W3C//DTD SVG 1.1//EN"
 "http://www.w3.org/Graphics/SVG/1.1/DTD/svg11.dtd">
<!-- Generated by graphviz version 2.40.1 (20161225.0304)
 -->
<!-- Title: add_brand Pages: 1 -->
<svg width="757pt" height="208pt"
 viewBox="0.00 0.00 757.00 207.69" xmlns="http://www.w3.org/2000/svg" xmlns:xlink="http://www.w3.org/1999/xlink">
<g id="graph0" class="graph" transform="scale(1 1) rotate(0) translate(4 203.6939)">
<title>add_brand</title>
<!-- Node317682 -->
<g id="node1" class="node">
<title>Node317682</title>
<polygon fill="#bfbfbf" stroke="#000000" points="0,-88.5 0,-107.5 62,-107.5 62,-88.5 0,-88.5"/>
<text text-anchor="middle" x="31" y="-95.5" font-family="Helvetica,sans-Serif" font-size="10.00" fill="#000000">add_brand</text>
</g>
<!-- Node317683 -->
<g id="node2" class="node">
<title>Node317683</title>
<g id="a_node2"><a xlink:href="quickjs_8c.html#a00eb789430243c24dab4a63ad6a79653" target="_top" xlink:title="js_parse_class">
<polygon fill="none" stroke="#000000" points="98,-88.5 98,-107.5 180,-107.5 180,-88.5 98,-88.5"/>
<text text-anchor="middle" x="139" y="-95.5" font-family="Helvetica,sans-Serif" font-size="10.00" fill="#000000">js_parse_class</text>
</a>
</g>
</g>
<!-- Node317682&#45;&gt;Node317683 -->
<g id="edge1" class="edge">
<title>Node317682&#45;&gt;Node317683</title>
<path fill="none" stroke="#191970" d="M72.4651,-98C80.7659,-98 89.4849,-98 97.7774,-98"/>
<polygon fill="#191970" stroke="#191970" points="72.2381,-94.5001 62.2381,-98 72.238,-101.5001 72.2381,-94.5001"/>
</g>
<!-- Node317684 -->
<g id="node3" class="node">
<title>Node317684</title>
<g id="a_node3"><a xlink:href="quickjs_8c.html#acdcc62310b4f6f73fa7bc7267b18b1d4" target="_top" xlink:title="js_parse_postfix_expr">
<polygon fill="none" stroke="#000000" points="216,-113.5 216,-132.5 328,-132.5 328,-113.5 216,-113.5"/>
<text text-anchor="middle" x="272" y="-120.5" font-family="Helvetica,sans-Serif" font-size="10.00" fill="#000000">js_parse_postfix_expr</text>
</a>
</g>
</g>
<!-- Node317683&#45;&gt;Node317684 -->
<g id="edge2" class="edge">
<title>Node317683&#45;&gt;Node317684</title>
<path fill="none" stroke="#191970" d="M190.4545,-101.0778C210.797,-104.4733 233.1219,-109.1238 249.2617,-113.4942"/>
<polygon fill="#191970" stroke="#191970" points="190.7785,-97.5855 180.353,-99.4718 189.6793,-104.4987 190.7785,-97.5855"/>
</g>
<!-- Node317687 -->
<g id="node6" class="node">
<title>Node317687</title>
<g id="a_node6"><a xlink:href="quickjs_8c.html#a9d844c16dcc71701436848074337d32c" target="_top" xlink:title="js_parse_statement\l_or_decl">
<polygon fill="none" stroke="#ff0000" points="647,-114 647,-144 749,-144 749,-114 647,-114"/>
<text text-anchor="start" x="655" y="-132" font-family="Helvetica,sans-Serif" font-size="10.00" fill="#000000">js_parse_statement</text>
<text text-anchor="middle" x="698" y="-121" font-family="Helvetica,sans-Serif" font-size="10.00" fill="#000000">_or_decl</text>
</a>
</g>
</g>
<!-- Node317683&#45;&gt;Node317687 -->
<g id="edge15" class="edge">
<title>Node317683&#45;&gt;Node317687</title>
<path fill="none" stroke="#191970" d="M188.7001,-86.3734C255.0799,-72.464 376.249,-52.7357 479,-67 542.7978,-75.8567 614.1381,-98.5704 657.5516,-113.9045"/>
<polygon fill="#191970" stroke="#191970" points="187.9677,-82.9508 178.9204,-88.4641 189.4312,-89.7961 187.9677,-82.9508"/>
</g>
<!-- Node317694 -->
<g id="node8" class="node">
<title>Node317694</title>
<g id="a_node8"><a xlink:href="quickjs_8c.html#a498e1d5c7de1b59c1630e9847cde1e41" target="_top" xlink:title="js_parse_export">
<polygon fill="none" stroke="#ff0000" points="229,-.5 229,-19.5 315,-19.5 315,-.5 229,-.5"/>
<text text-anchor="middle" x="272" y="-7.5" font-family="Helvetica,sans-Serif" font-size="10.00" fill="#000000">js_parse_export</text>
</a>
</g>
</g>
<!-- Node317683&#45;&gt;Node317694 -->
<g id="edge16" class="edge">
<title>Node317683&#45;&gt;Node317694</title>
<path fill="none" stroke="#191970" d="M156.177,-81.2213C171.09,-67.2928 193.7321,-47.6273 216,-34 225.1123,-28.4235 235.7511,-23.5115 245.2935,-19.6077"/>
<polygon fill="#191970" stroke="#191970" points="153.5736,-78.8671 148.7386,-88.2944 158.3973,-83.9399 153.5736,-78.8671"/>
</g>
<!-- Node317684&#45;&gt;Node317683 -->
<g id="edge3" class="edge">
<title>Node317684&#45;&gt;Node317683</title>
<path fill="none" stroke="#191970" d="M206.1094,-117.3643C190.1911,-114.3853 174.2261,-110.8818 161.8635,-107.5397"/>
<polygon fill="#191970" stroke="#191970" points="205.5197,-120.8143 215.9823,-119.1453 206.7624,-113.9255 205.5197,-120.8143"/>
</g>
<!-- Node317684&#45;&gt;Node317684 -->
<g id="edge12" class="edge">
<title>Node317684&#45;&gt;Node317684</title>
<path fill="none" stroke="#191970" d="M247.4465,-142.0292C248.7858,-147.128 256.9703,-151 272,-151 295.4609,-151 302.2426,-141.5653 292.345,-132.7571"/>
<polygon fill="#191970" stroke="#191970" points="250.709,-143.3096 251.655,-132.7571 244.3348,-140.4164 250.709,-143.3096"/>
</g>
<!-- Node317685 -->
<g id="node4" class="node">
<title>Node317685</title>
<g id="a_node4"><a xlink:href="quickjs_8c.html#a26be546cf89c4580ba9020e8fc43a759" target="_top" xlink:title="js_parse_destructuring\l_element">
<polygon fill="none" stroke="#ff0000" points="364,-133 364,-163 479,-163 479,-133 364,-133"/>
<text text-anchor="start" x="372" y="-151" font-family="Helvetica,sans-Serif" font-size="10.00" fill="#000000">js_parse_destructuring</text>
<text text-anchor="middle" x="421.5" y="-140" font-family="Helvetica,sans-Serif" font-size="10.00" fill="#000000">_element</text>
</a>
</g>
</g>
<!-- Node317684&#45;&gt;Node317685 -->
<g id="edge4" class="edge">
<title>Node317684&#45;&gt;Node317685</title>
<path fill="none" stroke="#191970" d="M338.2162,-127.3622C348.8792,-129.0468 359.7769,-130.956 370.0261,-132.942"/>
<polygon fill="#191970" stroke="#191970" points="338.5066,-123.8661 328.0936,-125.8206 337.4527,-130.7864 338.5066,-123.8661"/>
</g>
<!-- Node317689 -->
<g id="node5" class="node">
<title>Node317689</title>
<g id="a_node5"><a xlink:href="quickjs_8c.html#ac188b916dd086803591a67de7e7a85f6" target="_top" xlink:title="js_parse_for_in_of">
<polygon fill="none" stroke="#000000" points="515,-157.5 515,-176.5 611,-176.5 611,-157.5 515,-157.5"/>
<text text-anchor="middle" x="563" y="-164.5" font-family="Helvetica,sans-Serif" font-size="10.00" fill="#000000">js_parse_for_in_of</text>
</a>
</g>
</g>
<!-- Node317684&#45;&gt;Node317689 -->
<g id="edge11" class="edge">
<title>Node317684&#45;&gt;Node317689</title>
<path fill="none" stroke="#191970" d="M288.1519,-140.1014C305.1759,-156.7678 333.6846,-181.0125 364,-191 424.4842,-210.9267 500.1842,-190.1004 538.4387,-176.6026"/>
<polygon fill="#191970" stroke="#191970" points="290.2792,-137.2748 280.7596,-132.6242 285.3012,-142.1962 290.2792,-137.2748"/>
</g>
<!-- Node317706 -->
<g id="node7" class="node">
<title>Node317706</title>
<g id="a_node7"><a xlink:href="quickjs_8c.html#af99673e7430294cf15dc24dc5dac227f" target="_top" xlink:title="js_parse_unary">
<polygon fill="none" stroke="#ff0000" points="380,-76.5 380,-95.5 463,-95.5 463,-76.5 380,-76.5"/>
<text text-anchor="middle" x="421.5" y="-83.5" font-family="Helvetica,sans-Serif" font-size="10.00" fill="#000000">js_parse_unary</text>
</a>
</g>
</g>
<!-- Node317684&#45;&gt;Node317706 -->
<g id="edge13" class="edge">
<title>Node317684&#45;&gt;Node317706</title>
<path fill="none" stroke="#191970" d="M320.4605,-111.0064C340.6761,-106.0032 363.8315,-100.2725 382.871,-95.5604"/>
<polygon fill="#191970" stroke="#191970" points="319.3662,-107.6716 310.5,-113.4716 321.048,-114.4666 319.3662,-107.6716"/>
</g>
<!-- Node317685&#45;&gt;Node317684 -->
<g id="edge6" class="edge">
<title>Node317685&#45;&gt;Node317684</title>
<path fill="none" stroke="#191970" d="M353.888,-143.4162C333.9214,-140.2312 313.2692,-136.2841 297.7,-132.5397"/>
<polygon fill="#191970" stroke="#191970" points="353.5055,-146.8985 363.9216,-144.9606 354.5705,-139.98 353.5055,-146.8985"/>
</g>
<!-- Node317685&#45;&gt;Node317685 -->
<g id="edge5" class="edge">
<title>Node317685&#45;&gt;Node317685</title>
<path fill="none" stroke="#191970" d="M396.6237,-173.4579C399.7112,-178.179 408.0033,-181.5 421.5,-181.5 443.6484,-181.5 451.7811,-172.5566 445.8979,-163.159"/>
<polygon fill="#191970" stroke="#191970" points="400.1342,-173.3107 397.1021,-163.159 393.1418,-172.9858 400.1342,-173.3107"/>
</g>
<!-- Node317685&#45;&gt;Node317689 -->
<g id="edge7" class="edge">
<title>Node317685&#45;&gt;Node317689</title>
<path fill="none" stroke="#191970" d="M489.2162,-157.0926C497.9243,-158.2619 506.6939,-159.4395 514.9959,-160.5542"/>
<polygon fill="#191970" stroke="#191970" points="489.4303,-153.5901 479.0535,-155.728 488.4987,-160.5278 489.4303,-153.5901"/>
</g>
<!-- Node317685&#45;&gt;Node317687 -->
<g id="edge10" class="edge">
<title>Node317685&#45;&gt;Node317687</title>
<path fill="none" stroke="#191970" d="M489.2637,-143.3435C537.9617,-139.9972 602.5891,-135.5563 646.9603,-132.5073"/>
<polygon fill="#191970" stroke="#191970" points="488.8634,-139.8627 479.1269,-144.0401 489.3433,-146.8462 488.8634,-139.8627"/>
</g>
<!-- Node317689&#45;&gt;Node317687 -->
<g id="edge8" class="edge">
<title>Node317689&#45;&gt;Node317687</title>
<path fill="none" stroke="#191970" d="M606.9622,-154.6254C619.6945,-151.0415 633.7041,-147.0981 646.836,-143.4017"/>
<polygon fill="#191970" stroke="#191970" points="605.7438,-151.3323 597.0662,-157.411 607.6405,-158.0705 605.7438,-151.3323"/>
</g>
<!-- Node317687&#45;&gt;Node317687 -->
<g id="edge9" class="edge">
<title>Node317687&#45;&gt;Node317687</title>
<path fill="none" stroke="#191970" d="M674.1898,-154.4579C677.145,-159.179 685.0817,-162.5 698,-162.5 719.1992,-162.5 726.9833,-153.5566 721.3523,-144.159"/>
<polygon fill="#191970" stroke="#191970" points="677.7,-154.3046 674.6477,-144.159 670.7069,-153.9936 677.7,-154.3046"/>
</g>
<!-- Node317706&#45;&gt;Node317706 -->
<g id="edge14" class="edge">
<title>Node317706&#45;&gt;Node317706</title>
<path fill="none" stroke="#191970" d="M395.4584,-105.0292C396.8789,-110.128 405.5594,-114 421.5,-114 446.3828,-114 453.5755,-104.5653 443.0781,-95.7571"/>
<polygon fill="#191970" stroke="#191970" points="398.738,-106.2855 399.9219,-95.7571 392.4308,-103.2493 398.738,-106.2855"/>
</g>
</g>
</svg>
