<?xml version="1.0" encoding="UTF-8" standalone="no"?>
<!DOCTYPE svg PUBLIC "-//W3C//DTD SVG 1.1//EN"
 "http://www.w3.org/Graphics/SVG/1.1/DTD/svg11.dtd">
<!-- Generated by graphviz version 2.40.1 (20161225.0304)
 -->
<!-- Title: js_dynamic_import_job Pages: 1 -->
<svg width="785pt" height="976pt"
 viewBox="0.00 0.00 785.00 975.98" xmlns="http://www.w3.org/2000/svg" xmlns:xlink="http://www.w3.org/1999/xlink">
<g id="graph0" class="graph" transform="scale(1 1) rotate(0) translate(4 971.9848)">
<title>js_dynamic_import_job</title>
<!-- Node343265 -->
<g id="node1" class="node">
<title>Node343265</title>
<polygon fill="#bfbfbf" stroke="#000000" points="0,-279.2847 0,-298.2847 116,-298.2847 116,-279.2847 0,-279.2847"/>
<text text-anchor="middle" x="58" y="-286.2847" font-family="Helvetica,sans-Serif" font-size="10.00" fill="#000000">js_dynamic_import_job</text>
</g>
<!-- Node343266 -->
<g id="node2" class="node">
<title>Node343266</title>
<g id="a_node2"><a xlink:href="quickjs_8c.html#a1a4c02a29525d5cb2085dd8bca3af350" target="_top" xlink:title="JS_Call">
<polygon fill="none" stroke="#000000" points="175.5,-678.2847 175.5,-697.2847 226.5,-697.2847 226.5,-678.2847 175.5,-678.2847"/>
<text text-anchor="middle" x="201" y="-685.2847" font-family="Helvetica,sans-Serif" font-size="10.00" fill="#000000">JS_Call</text>
</a>
</g>
</g>
<!-- Node343265&#45;&gt;Node343266 -->
<g id="edge1" class="edge">
<title>Node343265&#45;&gt;Node343266</title>
<path fill="none" stroke="#191970" d="M61.5349,-298.6477C80.3531,-351.1546 168.858,-598.1018 194.2028,-668.8191"/>
<polygon fill="#191970" stroke="#191970" points="190.92,-670.0336 197.5887,-678.2665 197.5096,-667.6719 190.92,-670.0336"/>
</g>
<!-- Node343298 -->
<g id="node9" class="node">
<title>Node343298</title>
<g id="a_node9"><a xlink:href="quickjs_8h.html#a775522f2d084fc8fa0fcb33f390006b4" target="_top" xlink:title="JS_DupValue">
<polygon fill="none" stroke="#000000" points="679,-526.2847 679,-545.2847 756,-545.2847 756,-526.2847 679,-526.2847"/>
<text text-anchor="middle" x="717.5" y="-533.2847" font-family="Helvetica,sans-Serif" font-size="10.00" fill="#000000">JS_DupValue</text>
</a>
</g>
</g>
<!-- Node343265&#45;&gt;Node343298 -->
<g id="edge22" class="edge">
<title>Node343265&#45;&gt;Node343298</title>
<path fill="none" stroke="#191970" d="M69.3719,-298.391C86.2985,-312.2075 119.6138,-337.5852 152,-351.7847 348.7605,-438.0526 427.4049,-373.7375 622,-464.7847 652.0211,-478.831 681.9204,-503.1558 700.0604,-519.3601"/>
<polygon fill="#191970" stroke="#191970" points="697.7784,-522.0159 707.5258,-526.1678 702.4951,-516.8435 697.7784,-522.0159"/>
</g>
<!-- Node343337 -->
<g id="node10" class="node">
<title>Node343337</title>
<g id="a_node10"><a xlink:href="quickjs_8h.html#ad80a83d73e9b7d872b88fbf2943aebe9" target="_top" xlink:title="JS_IsException">
<polygon fill="none" stroke="#000000" points="674.5,-640.2847 674.5,-659.2847 760.5,-659.2847 760.5,-640.2847 674.5,-640.2847"/>
<text text-anchor="middle" x="717.5" y="-647.2847" font-family="Helvetica,sans-Serif" font-size="10.00" fill="#000000">JS_IsException</text>
</a>
</g>
</g>
<!-- Node343265&#45;&gt;Node343337 -->
<g id="edge47" class="edge">
<title>Node343265&#45;&gt;Node343337</title>
<path fill="none" stroke="#191970" d="M58.9425,-298.4711C64.619,-354.9963 95.9066,-641.9595 152,-706.7847 292.648,-869.3265 436.623,-929.5829 622,-820.7847 678.6081,-787.5613 704.1453,-707.2171 713.2833,-669.7024"/>
<polygon fill="#191970" stroke="#191970" points="716.7911,-670.0632 715.609,-659.5345 709.9673,-668.5024 716.7911,-670.0632"/>
</g>
<!-- Node343318 -->
<g id="node11" class="node">
<title>Node343318</title>
<g id="a_node11"><a xlink:href="quickjs_8c.html#ab7fc45a99935a1c0ba50b0216d9401a9" target="_top" xlink:title="JS_FreeAtom">
<polygon fill="none" stroke="#ff0000" points="497.5,-374.2847 497.5,-393.2847 574.5,-393.2847 574.5,-374.2847 497.5,-374.2847"/>
<text text-anchor="middle" x="536" y="-381.2847" font-family="Helvetica,sans-Serif" font-size="10.00" fill="#000000">JS_FreeAtom</text>
</a>
</g>
</g>
<!-- Node343265&#45;&gt;Node343318 -->
<g id="edge29" class="edge">
<title>Node343265&#45;&gt;Node343318</title>
<path fill="none" stroke="#191970" d="M77.6953,-298.3482C96.3944,-307.0392 125.5042,-319.5724 152,-326.7847 269.7669,-358.8414 413.0757,-374.0679 486.858,-380.2339"/>
<polygon fill="#191970" stroke="#191970" points="486.9768,-383.7551 497.2281,-381.0788 487.5453,-376.7782 486.9768,-383.7551"/>
</g>
<!-- Node343319 -->
<g id="node12" class="node">
<title>Node343319</title>
<g id="a_node12"><a xlink:href="quickjs_8h.html#afaa20c47565bc704c6c85f3d77254e7d" target="_top" xlink:title="JS_FreeValue">
<polygon fill="none" stroke="#ff0000" points="678.5,-222.2847 678.5,-241.2847 756.5,-241.2847 756.5,-222.2847 678.5,-222.2847"/>
<text text-anchor="middle" x="717.5" y="-229.2847" font-family="Helvetica,sans-Serif" font-size="10.00" fill="#000000">JS_FreeValue</text>
</a>
</g>
</g>
<!-- Node343265&#45;&gt;Node343319 -->
<g id="edge30" class="edge">
<title>Node343265&#45;&gt;Node343319</title>
<path fill="none" stroke="#191970" d="M62.5096,-279.0927C74.0934,-255.1597 107.1614,-192.6092 152,-156.7847 188.8863,-127.3137 206.8082,-134.8531 250,-115.7847 339.6783,-76.1932 354.2833,-43.9506 450,-22.7847 524.6413,-6.2792 557.6865,18.5376 622,-22.7847 688.8565,-65.7408 709.4907,-168.3907 715.3559,-211.8275"/>
<polygon fill="#191970" stroke="#191970" points="711.9081,-212.4681 716.597,-221.9689 718.8563,-211.6178 711.9081,-212.4681"/>
</g>
<!-- Node343398 -->
<g id="node15" class="node">
<title>Node343398</title>
<g id="a_node15"><a xlink:href="quickjs_8c.html#a859d5c989a2aaecef1653b3ac279e108" target="_top" xlink:title="JS_ValueToAtom">
<polygon fill="none" stroke="#ff0000" points="489.5,-906.2847 489.5,-925.2847 582.5,-925.2847 582.5,-906.2847 489.5,-906.2847"/>
<text text-anchor="middle" x="536" y="-913.2847" font-family="Helvetica,sans-Serif" font-size="10.00" fill="#000000">JS_ValueToAtom</text>
</a>
</g>
</g>
<!-- Node343265&#45;&gt;Node343398 -->
<g id="edge53" class="edge">
<title>Node343265&#45;&gt;Node343398</title>
<path fill="none" stroke="#191970" d="M58.129,-298.3304C59.2451,-365.8872 69.3602,-771.5394 152,-853.7847 238.8428,-940.213 395.4686,-935.2758 479.3442,-925.0668"/>
<polygon fill="#191970" stroke="#191970" points="479.977,-928.5144 489.4493,-923.7681 479.0847,-921.5715 479.977,-928.5144"/>
</g>
<!-- Node343669 -->
<g id="node16" class="node">
<title>Node343669</title>
<g id="a_node16"><a xlink:href="quickjs_8c.html#af38ab3d672d41db0fa7a75b5c24149e4" target="_top" xlink:title="JS_EvalFunction">
<polygon fill="none" stroke="#000000" points="155.5,-298.2847 155.5,-317.2847 246.5,-317.2847 246.5,-298.2847 155.5,-298.2847"/>
<text text-anchor="middle" x="201" y="-305.2847" font-family="Helvetica,sans-Serif" font-size="10.00" fill="#000000">JS_EvalFunction</text>
</a>
</g>
</g>
<!-- Node343265&#45;&gt;Node343669 -->
<g id="edge23" class="edge">
<title>Node343265&#45;&gt;Node343669</title>
<path fill="none" stroke="#191970" d="M116.1636,-296.5127C125.7035,-297.7802 135.5719,-299.0914 145.0564,-300.3516"/>
<polygon fill="#191970" stroke="#191970" points="144.79,-303.8469 155.1639,-301.6946 145.712,-296.9079 144.79,-303.8469"/>
</g>
<!-- Node343314 -->
<g id="node18" class="node">
<title>Node343314</title>
<g id="a_node18"><a xlink:href="quickjs_8c.html#adcabee55726eddca24893a78515c7ba2" target="_top" xlink:title="js_free_modules">
<polygon fill="none" stroke="#ff0000" points="492,-260.2847 492,-279.2847 580,-279.2847 580,-260.2847 492,-260.2847"/>
<text text-anchor="middle" x="536" y="-267.2847" font-family="Helvetica,sans-Serif" font-size="10.00" fill="#000000">js_free_modules</text>
</a>
</g>
</g>
<!-- Node343265&#45;&gt;Node343314 -->
<g id="edge28" class="edge">
<title>Node343265&#45;&gt;Node343314</title>
<path fill="none" stroke="#191970" d="M116.1343,-286.4739C209.3276,-282.7696 390.8764,-275.5532 481.6274,-271.9459"/>
<polygon fill="#191970" stroke="#191970" points="481.852,-275.4399 491.705,-271.5454 481.5739,-268.4454 481.852,-275.4399"/>
</g>
<!-- Node343675 -->
<g id="node19" class="node">
<title>Node343675</title>
<g id="a_node19"><a xlink:href="quickjs_8c.html#a2f5aeb4e31e2001c555335ae5172165b" target="_top" xlink:title="js_get_module_ns">
<polygon fill="none" stroke="#ff0000" points="302.5,-469.2847 302.5,-488.2847 397.5,-488.2847 397.5,-469.2847 302.5,-469.2847"/>
<text text-anchor="middle" x="350" y="-476.2847" font-family="Helvetica,sans-Serif" font-size="10.00" fill="#000000">js_get_module_ns</text>
</a>
</g>
</g>
<!-- Node343265&#45;&gt;Node343675 -->
<g id="edge31" class="edge">
<title>Node343265&#45;&gt;Node343675</title>
<path fill="none" stroke="#191970" d="M61.2198,-298.5553C70.5496,-325.2474 100.2781,-399.7998 152,-435.7847 193.214,-464.4589 250.0202,-474.5256 292.2203,-477.8203"/>
<polygon fill="#191970" stroke="#191970" points="292.1309,-481.3221 302.344,-478.5038 292.6025,-474.338 292.1309,-481.3221"/>
</g>
<!-- Node343612 -->
<g id="node20" class="node">
<title>Node343612</title>
<g id="a_node20"><a xlink:href="quickjs_8c.html#a8551eaac7ef616910807cebdc515760d" target="_top" xlink:title="JS_GetException">
<polygon fill="none" stroke="#000000" points="154.5,-87.2847 154.5,-106.2847 247.5,-106.2847 247.5,-87.2847 154.5,-87.2847"/>
<text text-anchor="middle" x="201" y="-94.2847" font-family="Helvetica,sans-Serif" font-size="10.00" fill="#000000">JS_GetException</text>
</a>
</g>
</g>
<!-- Node343265&#45;&gt;Node343612 -->
<g id="edge35" class="edge">
<title>Node343265&#45;&gt;Node343612</title>
<path fill="none" stroke="#191970" d="M61.0776,-279.1351C70.43,-251.1752 101.0331,-169.0385 152,-120.7847 155.8564,-117.1336 160.3736,-113.9306 165.0774,-111.1546"/>
<polygon fill="#191970" stroke="#191970" points="167.0101,-114.0926 174.2281,-106.3369 163.749,-107.8986 167.0101,-114.0926"/>
</g>
<!-- Node343688 -->
<g id="node21" class="node">
<title>Node343688</title>
<g id="a_node21"><a xlink:href="quickjs_8c.html#a23b6e7c4e6a3bddc1cdd2139dcdf1283" target="_top" xlink:title="js_host_resolve_imported\l_module">
<polygon fill="none" stroke="#000000" points="286,-160.7847 286,-190.7847 414,-190.7847 414,-160.7847 286,-160.7847"/>
<text text-anchor="start" x="294" y="-178.7847" font-family="Helvetica,sans-Serif" font-size="10.00" fill="#000000">js_host_resolve_imported</text>
<text text-anchor="middle" x="350" y="-167.7847" font-family="Helvetica,sans-Serif" font-size="10.00" fill="#000000">_module</text>
</a>
</g>
</g>
<!-- Node343265&#45;&gt;Node343688 -->
<g id="edge36" class="edge">
<title>Node343265&#45;&gt;Node343688</title>
<path fill="none" stroke="#191970" d="M82.8958,-279.1504C131.203,-260.4561 238.4204,-218.9644 301.3388,-194.6159"/>
<polygon fill="#191970" stroke="#191970" points="302.9778,-197.7346 311.0407,-190.8614 300.4515,-191.2064 302.9778,-197.7346"/>
</g>
<!-- Node343621 -->
<g id="node28" class="node">
<title>Node343621</title>
<g id="a_node28"><a xlink:href="quickjs_8h.html#aa53b9197dc6d5770e3a080c1e335f7cb" target="_top" xlink:title="JS_IsString">
<polygon fill="none" stroke="#000000" points="167,-49.2847 167,-68.2847 235,-68.2847 235,-49.2847 167,-49.2847"/>
<text text-anchor="middle" x="201" y="-56.2847" font-family="Helvetica,sans-Serif" font-size="10.00" fill="#000000">JS_IsString</text>
</a>
</g>
</g>
<!-- Node343265&#45;&gt;Node343621 -->
<g id="edge48" class="edge">
<title>Node343265&#45;&gt;Node343621</title>
<path fill="none" stroke="#191970" d="M59.6556,-278.8564C65.6953,-245.6532 89.5516,-137.2339 152,-77.7847 153.8504,-76.0232 155.8821,-74.4197 158.0335,-72.9608"/>
<polygon fill="#191970" stroke="#191970" points="159.8017,-75.9819 166.7934,-68.0216 156.3636,-69.8844 159.8017,-75.9819"/>
</g>
<!-- Node343695 -->
<g id="node29" class="node">
<title>Node343695</title>
<g id="a_node29"><a xlink:href="quickjs_8c.html#a041f16b68daf31525cd76aa4794073ef" target="_top" xlink:title="js_resolve_module">
<polygon fill="none" stroke="#000000" points="152,-166.2847 152,-185.2847 250,-185.2847 250,-166.2847 152,-166.2847"/>
<text text-anchor="middle" x="201" y="-173.2847" font-family="Helvetica,sans-Serif" font-size="10.00" fill="#000000">js_resolve_module</text>
</a>
</g>
</g>
<!-- Node343265&#45;&gt;Node343695 -->
<g id="edge49" class="edge">
<title>Node343265&#45;&gt;Node343695</title>
<path fill="none" stroke="#191970" d="M70.1921,-279.1504C94.7815,-259.7195 150.5391,-215.6594 180.7074,-191.8201"/>
<polygon fill="#191970" stroke="#191970" points="183.1627,-194.3408 188.8388,-185.3946 178.8227,-188.8485 183.1627,-194.3408"/>
</g>
<!-- Node343358 -->
<g id="node30" class="node">
<title>Node343358</title>
<g id="a_node30"><a xlink:href="quickjs_8c.html#a7bcb8e1a20cbc8374a5f9ba4a2088cec" target="_top" xlink:title="JS_ToString">
<polygon fill="none" stroke="#ff0000" points="165.5,-11.2847 165.5,-30.2847 236.5,-30.2847 236.5,-11.2847 165.5,-11.2847"/>
<text text-anchor="middle" x="201" y="-18.2847" font-family="Helvetica,sans-Serif" font-size="10.00" fill="#000000">JS_ToString</text>
</a>
</g>
</g>
<!-- Node343265&#45;&gt;Node343358 -->
<g id="edge52" class="edge">
<title>Node343265&#45;&gt;Node343358</title>
<path fill="none" stroke="#191970" d="M58.8591,-279.1881C62.6172,-242.7855 80.766,-111.6581 152,-39.7847 153.4451,-38.3266 155.0148,-36.978 156.6758,-35.731"/>
<polygon fill="#191970" stroke="#191970" points="158.8678,-38.4942 165.5901,-30.3051 155.2283,-32.5147 158.8678,-38.4942"/>
</g>
<!-- Node343267 -->
<g id="node3" class="node">
<title>Node343267</title>
<g id="a_node3"><a xlink:href="quickjs_8c.html#ac2894ff4edcdb4e6841bcce9c76081e3" target="_top" xlink:title="JS_CallInternal">
<polygon fill="none" stroke="#ff0000" points="308.5,-678.2847 308.5,-697.2847 391.5,-697.2847 391.5,-678.2847 308.5,-678.2847"/>
<text text-anchor="middle" x="350" y="-685.2847" font-family="Helvetica,sans-Serif" font-size="10.00" fill="#000000">JS_CallInternal</text>
</a>
</g>
</g>
<!-- Node343266&#45;&gt;Node343267 -->
<g id="edge2" class="edge">
<title>Node343266&#45;&gt;Node343267</title>
<path fill="none" stroke="#191970" d="M226.614,-682.5427C246.2714,-681.0973 274.0585,-680.691 298.2874,-681.3235"/>
<polygon fill="#191970" stroke="#191970" points="298.3092,-684.8261 308.4194,-681.6582 298.5404,-677.8299 298.3092,-684.8261"/>
</g>
<!-- Node343267&#45;&gt;Node343266 -->
<g id="edge10" class="edge">
<title>Node343267&#45;&gt;Node343266</title>
<path fill="none" stroke="#191970" d="M308.4194,-693.9111C285.8558,-694.8239 258.2494,-694.7346 236.6731,-693.643"/>
<polygon fill="#191970" stroke="#191970" points="236.8094,-690.1449 226.614,-693.0267 236.3812,-697.1318 236.8094,-690.1449"/>
</g>
<!-- Node343267&#45;&gt;Node343267 -->
<g id="edge11" class="edge">
<title>Node343267&#45;&gt;Node343267</title>
<path fill="none" stroke="#191970" d="M327.1889,-697.5417C316.0916,-706.3499 323.6953,-715.7847 350,-715.7847 367.2625,-715.7847 376.4711,-711.7215 377.6258,-706.4386"/>
<polygon fill="#191970" stroke="#191970" points="380.6488,-704.6707 372.8111,-697.5417 374.4924,-708.0023 380.6488,-704.6707"/>
</g>
<!-- Node343268 -->
<g id="node4" class="node">
<title>Node343268</title>
<g id="a_node4"><a xlink:href="quickjs_8c.html#a853f0924d441ea4225488f37c8b69f9a" target="_top" xlink:title="__attribute__">
<polygon fill="none" stroke="#000000" points="499.5,-754.2847 499.5,-773.2847 572.5,-773.2847 572.5,-754.2847 499.5,-754.2847"/>
<text text-anchor="middle" x="536" y="-761.2847" font-family="Helvetica,sans-Serif" font-size="10.00" fill="#000000">__attribute__</text>
</a>
</g>
</g>
<!-- Node343267&#45;&gt;Node343268 -->
<g id="edge3" class="edge">
<title>Node343267&#45;&gt;Node343268</title>
<path fill="none" stroke="#191970" d="M363.5784,-697.3004C382.2224,-709.9404 417.1808,-732.1401 450,-744.7847 462.3844,-749.5561 476.257,-753.2762 489.1851,-756.1093"/>
<polygon fill="#191970" stroke="#191970" points="488.8036,-759.6042 499.3042,-758.1944 490.2164,-752.7482 488.8036,-759.6042"/>
</g>
<!-- Node343269 -->
<g id="node5" class="node">
<title>Node343269</title>
<g id="a_node5"><a xlink:href="quickjs_8c.html#a877fcb7651d95b411ce70e62b7f4a1f0" target="_top" xlink:title="__JS_AtomFromUInt32">
<polygon fill="none" stroke="#000000" points="658,-877.2847 658,-896.2847 777,-896.2847 777,-877.2847 658,-877.2847"/>
<text text-anchor="middle" x="717.5" y="-884.2847" font-family="Helvetica,sans-Serif" font-size="10.00" fill="#000000">__JS_AtomFromUInt32</text>
</a>
</g>
</g>
<!-- Node343267&#45;&gt;Node343269 -->
<g id="edge4" class="edge">
<title>Node343267&#45;&gt;Node343269</title>
<path fill="none" stroke="#191970" d="M354.4425,-697.6293C366.1893,-722.4882 400.5929,-788.1318 450,-820.7847 509.5743,-860.157 590.6344,-876.0536 647.8622,-882.4651"/>
<polygon fill="#191970" stroke="#191970" points="647.5916,-885.9559 657.9027,-883.5204 648.3234,-878.9942 647.5916,-885.9559"/>
</g>
<!-- Node343270 -->
<g id="node6" class="node">
<title>Node343270</title>
<g id="a_node6"><a xlink:href="quickjs_8h.html#a9bf98b18de88b4199910a43e933eb97d" target="_top" xlink:title="__JS_NewFloat64">
<polygon fill="none" stroke="#000000" points="487.5,-716.2847 487.5,-735.2847 584.5,-735.2847 584.5,-716.2847 487.5,-716.2847"/>
<text text-anchor="middle" x="536" y="-723.2847" font-family="Helvetica,sans-Serif" font-size="10.00" fill="#000000">__JS_NewFloat64</text>
</a>
</g>
</g>
<!-- Node343267&#45;&gt;Node343270 -->
<g id="edge5" class="edge">
<title>Node343267&#45;&gt;Node343270</title>
<path fill="none" stroke="#191970" d="M391.742,-696.3126C417.5934,-701.5941 451.1292,-708.4455 479.3598,-714.213"/>
<polygon fill="#191970" stroke="#191970" points="478.9982,-717.7114 489.4964,-716.2839 480.3994,-710.853 478.9982,-717.7114"/>
</g>
<!-- Node343271 -->
<g id="node7" class="node">
<title>Node343271</title>
<g id="a_node7"><a xlink:href="quickjs_8c.html#a74547db03bf739a52c83a326b32db997" target="_top" xlink:title="add_property">
<polygon fill="none" stroke="#ff0000" points="499.5,-792.2847 499.5,-811.2847 572.5,-811.2847 572.5,-792.2847 499.5,-792.2847"/>
<text text-anchor="middle" x="536" y="-799.2847" font-family="Helvetica,sans-Serif" font-size="10.00" fill="#000000">add_property</text>
</a>
</g>
</g>
<!-- Node343267&#45;&gt;Node343271 -->
<g id="edge6" class="edge">
<title>Node343267&#45;&gt;Node343271</title>
<path fill="none" stroke="#191970" d="M357.075,-697.3635C371.9554,-716.7705 408.5569,-760.7539 450,-782.7847 462.05,-789.1904 476.1509,-793.439 489.4079,-796.2559"/>
<polygon fill="#191970" stroke="#191970" points="488.8554,-799.7135 499.3332,-798.143 490.163,-792.8367 488.8554,-799.7135"/>
</g>
<!-- Node343327 -->
<g id="node8" class="node">
<title>Node343327</title>
<g id="a_node8"><a xlink:href="quickjs_8c.html#a4956f45ffd2849b96dc051277264f87a" target="_top" xlink:title="build_arg_list">
<polygon fill="none" stroke="#ff0000" points="499,-640.2847 499,-659.2847 573,-659.2847 573,-640.2847 499,-640.2847"/>
<text text-anchor="middle" x="536" y="-647.2847" font-family="Helvetica,sans-Serif" font-size="10.00" fill="#000000">build_arg_list</text>
</a>
</g>
</g>
<!-- Node343267&#45;&gt;Node343327 -->
<g id="edge7" class="edge">
<title>Node343267&#45;&gt;Node343327</title>
<path fill="none" stroke="#191970" d="M391.742,-679.2567C420.6108,-673.3588 459.0627,-665.5031 489.0076,-659.3853"/>
<polygon fill="#191970" stroke="#191970" points="489.7136,-662.8134 498.8106,-657.3825 488.3124,-655.9551 489.7136,-662.8134"/>
</g>
<!-- Node343267&#45;&gt;Node343298 -->
<g id="edge12" class="edge">
<title>Node343267&#45;&gt;Node343298</title>
<path fill="none" stroke="#191970" d="M363.9507,-678.1872C382.7311,-665.6606 417.5435,-643.8056 450,-630.7847 523.1315,-601.4458 548.5866,-616.4108 622,-587.7847 647.8469,-577.7062 675.4886,-562.0636 694.3475,-550.566"/>
<polygon fill="#191970" stroke="#191970" points="696.1954,-553.5385 702.8537,-545.2972 692.5093,-547.5876 696.1954,-553.5385"/>
</g>
<!-- Node343267&#45;&gt;Node343337 -->
<g id="edge15" class="edge">
<title>Node343267&#45;&gt;Node343337</title>
<path fill="none" stroke="#191970" d="M391.6389,-686.5143C445.1496,-684.5068 540.8304,-679.6496 622,-668.7847 636.157,-666.8897 651.372,-664.1759 665.4044,-661.3902"/>
<polygon fill="#191970" stroke="#191970" points="666.2801,-664.7838 675.3812,-659.3597 664.884,-657.9244 666.2801,-664.7838"/>
</g>
<!-- Node343267&#45;&gt;Node343318 -->
<g id="edge13" class="edge">
<title>Node343267&#45;&gt;Node343318</title>
<path fill="none" stroke="#191970" d="M355.4882,-678.0525C370.3365,-651.7993 412.6942,-577.4169 450,-516.7847 475.554,-475.2524 506.9745,-427.4361 523.8701,-401.9737"/>
<polygon fill="#191970" stroke="#191970" points="526.969,-403.6343 529.5918,-393.3692 521.1401,-399.7583 526.969,-403.6343"/>
</g>
<!-- Node343267&#45;&gt;Node343319 -->
<g id="edge14" class="edge">
<title>Node343267&#45;&gt;Node343319</title>
<path fill="none" stroke="#191970" d="M356.4592,-678.2179C370.7173,-657.9231 407.0491,-610.5552 450,-587.7847 518.7718,-551.3251 564.332,-607.0653 622,-554.7847 668.3864,-512.7317 703.9924,-315.0224 714.3959,-251.4935"/>
<polygon fill="#191970" stroke="#191970" points="717.8604,-251.9934 715.9941,-241.5643 710.9493,-250.8809 717.8604,-251.9934"/>
</g>
<!-- Node343389 -->
<g id="node13" class="node">
<title>Node343389</title>
<g id="a_node13"><a xlink:href="quickjs_8h.html#a4e407128a9605afb77523e49e9a627fd" target="_top" xlink:title="JS_IsUndefined">
<polygon fill="none" stroke="#000000" points="493,-526.2847 493,-545.2847 579,-545.2847 579,-526.2847 493,-526.2847"/>
<text text-anchor="middle" x="536" y="-533.2847" font-family="Helvetica,sans-Serif" font-size="10.00" fill="#000000">JS_IsUndefined</text>
</a>
</g>
</g>
<!-- Node343267&#45;&gt;Node343389 -->
<g id="edge16" class="edge">
<title>Node343267&#45;&gt;Node343389</title>
<path fill="none" stroke="#191970" d="M354.7843,-678.0474C367.0777,-654.0659 402.1936,-591.7847 450,-559.7847 459.7638,-553.2491 471.285,-548.4797 482.667,-545.0036"/>
<polygon fill="#191970" stroke="#191970" points="483.8752,-548.3011 492.5858,-542.2698 482.0152,-541.5527 483.8752,-548.3011"/>
</g>
<!-- Node343410 -->
<g id="node14" class="node">
<title>Node343410</title>
<g id="a_node14"><a xlink:href="quickjs_8c.html#a35fd5681625c6d902357336edb6801e5" target="_top" xlink:title="JS_ToPropertyKey">
<polygon fill="none" stroke="#ff0000" points="668,-934.2847 668,-953.2847 767,-953.2847 767,-934.2847 668,-934.2847"/>
<text text-anchor="middle" x="717.5" y="-941.2847" font-family="Helvetica,sans-Serif" font-size="10.00" fill="#000000">JS_ToPropertyKey</text>
</a>
</g>
</g>
<!-- Node343267&#45;&gt;Node343410 -->
<g id="edge17" class="edge">
<title>Node343267&#45;&gt;Node343410</title>
<path fill="none" stroke="#191970" d="M350.4116,-697.346C352.6199,-735.3343 366.3801,-876.3573 450,-934.7847 516.6553,-981.3585 617.177,-968.465 674.1195,-955.6418"/>
<polygon fill="#191970" stroke="#191970" points="674.9544,-959.041 683.8882,-953.3456 673.3526,-952.2267 674.9544,-959.041"/>
</g>
<!-- Node343267&#45;&gt;Node343398 -->
<g id="edge18" class="edge">
<title>Node343267&#45;&gt;Node343398</title>
<path fill="none" stroke="#191970" d="M351.8555,-697.6347C358.5788,-730.5304 384.7904,-837.5707 450,-891.7847 458.4872,-898.8408 468.9062,-903.8284 479.5257,-907.3523"/>
<polygon fill="#191970" stroke="#191970" points="478.7053,-910.7587 489.2851,-910.1944 480.6626,-904.0379 478.7053,-910.7587"/>
</g>
<!-- Node343327&#45;&gt;Node343298 -->
<g id="edge8" class="edge">
<title>Node343327&#45;&gt;Node343298</title>
<path fill="none" stroke="#191970" d="M573.0954,-643.5494C588.8584,-639.8791 607.0167,-634.2436 622,-625.7847 655.5031,-606.8702 686.3623,-573.7457 703.4865,-553.3898"/>
<polygon fill="#191970" stroke="#191970" points="706.3046,-555.4734 709.9522,-545.5263 700.8976,-551.0276 706.3046,-555.4734"/>
</g>
<!-- Node343327&#45;&gt;Node343337 -->
<g id="edge9" class="edge">
<title>Node343327&#45;&gt;Node343337</title>
<path fill="none" stroke="#191970" d="M573.1672,-649.7847C599.422,-649.7847 634.9989,-649.7847 664.2611,-649.7847"/>
<polygon fill="#191970" stroke="#191970" points="664.3225,-653.2848 674.3225,-649.7847 664.3225,-646.2848 664.3225,-653.2848"/>
</g>
<!-- Node343398&#45;&gt;Node343269 -->
<g id="edge19" class="edge">
<title>Node343398&#45;&gt;Node343269</title>
<path fill="none" stroke="#191970" d="M582.7408,-908.3165C602.597,-905.1438 626.1622,-901.3786 647.9903,-897.8909"/>
<polygon fill="#191970" stroke="#191970" points="648.5552,-901.3451 657.8777,-896.3111 647.4507,-894.4328 648.5552,-901.3451"/>
</g>
<!-- Node343398&#45;&gt;Node343337 -->
<g id="edge20" class="edge">
<title>Node343398&#45;&gt;Node343337</title>
<path fill="none" stroke="#191970" d="M554.5745,-906.1322C573.5889,-895.4731 602.974,-876.7436 622,-853.7847 670.3732,-795.4122 700.2489,-708.4602 711.902,-669.6888"/>
<polygon fill="#191970" stroke="#191970" points="715.3784,-670.2696 714.8205,-659.6895 708.6588,-668.3083 715.3784,-670.2696"/>
</g>
<!-- Node343398&#45;&gt;Node343410 -->
<g id="edge21" class="edge">
<title>Node343398&#45;&gt;Node343410</title>
<path fill="none" stroke="#191970" d="M582.7408,-922.9954C605.533,-926.5115 633.2121,-930.7816 657.5415,-934.5349"/>
<polygon fill="#191970" stroke="#191970" points="657.3226,-938.0424 667.7393,-936.1081 658.3899,-931.1243 657.3226,-938.0424"/>
</g>
<!-- Node343670 -->
<g id="node17" class="node">
<title>Node343670</title>
<g id="a_node17"><a xlink:href="quickjs_8c.html#a5d217acce00892ab2b50a1dcc1eb4cc8" target="_top" xlink:title="JS_EvalFunctionInternal">
<polygon fill="none" stroke="#ff0000" points="288.5,-298.2847 288.5,-317.2847 411.5,-317.2847 411.5,-298.2847 288.5,-298.2847"/>
<text text-anchor="middle" x="350" y="-305.2847" font-family="Helvetica,sans-Serif" font-size="10.00" fill="#000000">JS_EvalFunctionInternal</text>
</a>
</g>
</g>
<!-- Node343669&#45;&gt;Node343670 -->
<g id="edge24" class="edge">
<title>Node343669&#45;&gt;Node343670</title>
<path fill="none" stroke="#191970" d="M246.5145,-307.7847C256.5023,-307.7847 267.3134,-307.7847 278.0537,-307.7847"/>
<polygon fill="#191970" stroke="#191970" points="278.3003,-311.2848 288.3003,-307.7847 278.3002,-304.2848 278.3003,-311.2848"/>
</g>
<!-- Node343670&#45;&gt;Node343337 -->
<g id="edge26" class="edge">
<title>Node343670&#45;&gt;Node343337</title>
<path fill="none" stroke="#191970" d="M411.7421,-312.8484C482.7591,-319.9779 593.2824,-335.507 622,-364.7847 682.1838,-426.1424 626.6481,-474.7602 658,-554.7847 669.4083,-583.9039 689.9405,-613.9004 703.6459,-632.1979"/>
<polygon fill="#191970" stroke="#191970" points="700.9002,-634.3691 709.7558,-640.1854 706.4601,-630.1161 700.9002,-634.3691"/>
</g>
<!-- Node343670&#45;&gt;Node343319 -->
<g id="edge25" class="edge">
<title>Node343670&#45;&gt;Node343319</title>
<path fill="none" stroke="#191970" d="M411.7315,-311.5222C467.8662,-313.0531 552.3286,-310.6364 622,-288.7847 650.3407,-279.8959 679.1042,-261.1085 697.5495,-247.5279"/>
<polygon fill="#191970" stroke="#191970" points="699.8616,-250.1677 705.7285,-241.3456 695.6405,-244.5835 699.8616,-250.1677"/>
</g>
<!-- Node343670&#45;&gt;Node343314 -->
<g id="edge27" class="edge">
<title>Node343670&#45;&gt;Node343314</title>
<path fill="none" stroke="#191970" d="M396.9357,-298.1957C422.7966,-292.9123 455.0153,-286.3299 481.9273,-280.8318"/>
<polygon fill="#191970" stroke="#191970" points="482.8604,-284.2135 491.9574,-278.7826 481.4592,-277.3552 482.8604,-284.2135"/>
</g>
<!-- Node343675&#45;&gt;Node343298 -->
<g id="edge32" class="edge">
<title>Node343675&#45;&gt;Node343298</title>
<path fill="none" stroke="#191970" d="M397.6239,-472.9137C452.6754,-467.662 545.5178,-463.5618 622,-483.7847 649.6048,-491.0837 677.9267,-507.9095 696.4824,-520.457"/>
<polygon fill="#191970" stroke="#191970" points="694.5524,-523.3779 704.7611,-526.2124 698.5482,-517.6304 694.5524,-523.3779"/>
</g>
<!-- Node343675&#45;&gt;Node343337 -->
<g id="edge33" class="edge">
<title>Node343675&#45;&gt;Node343337</title>
<path fill="none" stroke="#191970" d="M397.6905,-480.9606C465.3863,-484.7961 585.2183,-494.5646 622,-516.7847 645.2524,-530.8316 687.0183,-598.0415 706.6913,-631.2"/>
<polygon fill="#191970" stroke="#191970" points="703.7455,-633.0952 711.8323,-639.9401 709.7791,-629.5461 703.7455,-633.0952"/>
</g>
<!-- Node343675&#45;&gt;Node343389 -->
<g id="edge34" class="edge">
<title>Node343675&#45;&gt;Node343389</title>
<path fill="none" stroke="#191970" d="M377.9069,-488.3808C397.9025,-495.1616 425.5142,-504.3323 450,-511.7847 463.1171,-515.7769 477.4368,-519.8756 490.562,-523.5305"/>
<polygon fill="#191970" stroke="#191970" points="489.7554,-526.9387 500.3265,-526.2298 491.6206,-520.1918 489.7554,-526.9387"/>
</g>
<!-- Node343688&#45;&gt;Node343318 -->
<g id="edge43" class="edge">
<title>Node343688&#45;&gt;Node343318</title>
<path fill="none" stroke="#191970" d="M363.2105,-190.8208C382.2961,-212.5193 418.7261,-253.8441 450,-288.7847 474.4277,-316.0764 503.0049,-347.5562 520.2913,-366.5496"/>
<polygon fill="#191970" stroke="#191970" points="517.8529,-369.0702 527.1737,-374.1073 523.0285,-364.3571 517.8529,-369.0702"/>
</g>
<!-- Node343436 -->
<g id="node22" class="node">
<title>Node343436</title>
<g id="a_node22"><a xlink:href="quickjs_8c.html#a4b66ebf3abee5d29490343fbe360ec5a" target="_top" xlink:title="JS_AtomToCString">
<polygon fill="none" stroke="#ff0000" points="485.5,-222.2847 485.5,-241.2847 586.5,-241.2847 586.5,-222.2847 485.5,-222.2847"/>
<text text-anchor="middle" x="536" y="-229.2847" font-family="Helvetica,sans-Serif" font-size="10.00" fill="#000000">JS_AtomToCString</text>
</a>
</g>
</g>
<!-- Node343688&#45;&gt;Node343436 -->
<g id="edge37" class="edge">
<title>Node343688&#45;&gt;Node343436</title>
<path fill="none" stroke="#191970" d="M387.1066,-190.8948C405.7717,-198.1402 428.8657,-206.572 450,-212.7847 458.7263,-215.3499 468.0406,-217.7488 477.1984,-219.9203"/>
<polygon fill="#191970" stroke="#191970" points="476.5089,-223.353 487.039,-222.1843 478.0784,-216.5312 476.5089,-223.353"/>
</g>
<!-- Node343689 -->
<g id="node23" class="node">
<title>Node343689</title>
<g id="a_node23"><a xlink:href="quickjs_8c.html#a412ab329319b697a75481a981199fa73" target="_top" xlink:title="js_default_module_normalize_name">
<polygon fill="none" stroke="#ff0000" points="450,-108.2847 450,-127.2847 622,-127.2847 622,-108.2847 450,-108.2847"/>
<text text-anchor="middle" x="536" y="-115.2847" font-family="Helvetica,sans-Serif" font-size="10.00" fill="#000000">js_default_module_normalize_name</text>
</a>
</g>
</g>
<!-- Node343688&#45;&gt;Node343689 -->
<g id="edge40" class="edge">
<title>Node343688&#45;&gt;Node343689</title>
<path fill="none" stroke="#191970" d="M384.7069,-160.7231C403.7359,-152.8548 427.8888,-143.495 450,-136.7847 458.5046,-134.2037 467.5808,-131.8152 476.5305,-129.665"/>
<polygon fill="#191970" stroke="#191970" points="477.5943,-133.0112 486.5441,-127.3408 476.0117,-126.1924 477.5943,-133.0112"/>
</g>
<!-- Node343639 -->
<g id="node24" class="node">
<title>Node343639</title>
<g id="a_node24"><a xlink:href="quickjs_8c.html#a0a31a11db1d2054a132f4879d1f3c8cc" target="_top" xlink:title="js_find_loaded_module">
<polygon fill="none" stroke="#000000" points="478,-70.2847 478,-89.2847 594,-89.2847 594,-70.2847 478,-70.2847"/>
<text text-anchor="middle" x="536" y="-77.2847" font-family="Helvetica,sans-Serif" font-size="10.00" fill="#000000">js_find_loaded_module</text>
</a>
</g>
</g>
<!-- Node343688&#45;&gt;Node343639 -->
<g id="edge41" class="edge">
<title>Node343688&#45;&gt;Node343639</title>
<path fill="none" stroke="#191970" d="M365.1725,-160.578C383.6135,-142.9895 416.4465,-114.4504 450,-98.7847 455.7281,-96.1103 461.8491,-93.8042 468.0867,-91.8171"/>
<polygon fill="#191970" stroke="#191970" points="469.3201,-95.1035 477.9449,-88.9502 467.3653,-88.382 469.3201,-95.1035"/>
</g>
<!-- Node343284 -->
<g id="node25" class="node">
<title>Node343284</title>
<g id="a_node25"><a xlink:href="quickjs_8c.html#a80e54dcf9ac687d4ccc2f90273565f30" target="_top" xlink:title="js_free">
<polygon fill="none" stroke="#ff0000" points="513,-32.2847 513,-51.2847 559,-51.2847 559,-32.2847 513,-32.2847"/>
<text text-anchor="middle" x="536" y="-39.2847" font-family="Helvetica,sans-Serif" font-size="10.00" fill="#000000">js_free</text>
</a>
</g>
</g>
<!-- Node343688&#45;&gt;Node343284 -->
<g id="edge42" class="edge">
<title>Node343688&#45;&gt;Node343284</title>
<path fill="none" stroke="#191970" d="M358.6086,-160.7341C373.7144,-135.7733 407.4686,-86.0627 450,-60.7847 465.8923,-51.3393 485.956,-46.5777 502.706,-44.1826"/>
<polygon fill="#191970" stroke="#191970" points="503.1349,-47.6563 512.6401,-42.9764 502.2911,-40.7074 503.1349,-47.6563"/>
</g>
<!-- Node343353 -->
<g id="node26" class="node">
<title>Node343353</title>
<g id="a_node26"><a xlink:href="quickjs_8c.html#ae0bc4f65da64810facb2cb9e476eda2e" target="_top" xlink:title="JS_FreeCString">
<polygon fill="none" stroke="#000000" points="493,-146.2847 493,-165.2847 579,-165.2847 579,-146.2847 493,-146.2847"/>
<text text-anchor="middle" x="536" y="-153.2847" font-family="Helvetica,sans-Serif" font-size="10.00" fill="#000000">JS_FreeCString</text>
</a>
</g>
</g>
<!-- Node343688&#45;&gt;Node343353 -->
<g id="edge44" class="edge">
<title>Node343688&#45;&gt;Node343353</title>
<path fill="none" stroke="#191970" d="M414.0106,-168.9018C436.4067,-166.4936 461.295,-163.8175 482.7201,-161.5137"/>
<polygon fill="#191970" stroke="#191970" points="483.365,-164.9646 492.9335,-160.4155 482.6166,-158.0047 483.365,-164.9646"/>
</g>
<!-- Node343692 -->
<g id="node27" class="node">
<title>Node343692</title>
<g id="a_node27"><a xlink:href="quickjs_8c.html#aa2ef5af1544a3012f91a80c98c326b8f" target="_top" xlink:title="JS_NewAtom">
<polygon fill="none" stroke="#ff0000" points="497.5,-184.2847 497.5,-203.2847 574.5,-203.2847 574.5,-184.2847 497.5,-184.2847"/>
<text text-anchor="middle" x="536" y="-191.2847" font-family="Helvetica,sans-Serif" font-size="10.00" fill="#000000">JS_NewAtom</text>
</a>
</g>
</g>
<!-- Node343688&#45;&gt;Node343692 -->
<g id="edge46" class="edge">
<title>Node343688&#45;&gt;Node343692</title>
<path fill="none" stroke="#191970" d="M414.0106,-181.9793C438.0684,-184.3074 465.0018,-186.9139 487.4292,-189.0843"/>
<polygon fill="#191970" stroke="#191970" points="487.0994,-192.5686 497.3901,-190.0482 487.7738,-185.6012 487.0994,-192.5686"/>
</g>
<!-- Node343436&#45;&gt;Node343337 -->
<g id="edge39" class="edge">
<title>Node343436&#45;&gt;Node343337</title>
<path fill="none" stroke="#191970" d="M586.8342,-232.7035C599.9868,-235.4456 612.9706,-240.8084 622,-250.7847 667.6495,-301.2215 635.3965,-490.6221 658,-554.7847 668.3915,-584.2821 689.1834,-614.182 703.2232,-632.3551"/>
<polygon fill="#191970" stroke="#191970" points="700.5468,-634.6131 709.4979,-640.2813 706.0352,-630.2682 700.5468,-634.6131"/>
</g>
<!-- Node343436&#45;&gt;Node343319 -->
<g id="edge38" class="edge">
<title>Node343436&#45;&gt;Node343319</title>
<path fill="none" stroke="#191970" d="M586.5579,-231.7847C612.0944,-231.7847 642.9519,-231.7847 668.2962,-231.7847"/>
<polygon fill="#191970" stroke="#191970" points="668.4296,-235.2848 678.4296,-231.7847 668.4295,-228.2848 668.4296,-235.2848"/>
</g>
<!-- Node343353&#45;&gt;Node343319 -->
<g id="edge45" class="edge">
<title>Node343353&#45;&gt;Node343319</title>
<path fill="none" stroke="#191970" d="M579.2396,-162.5195C593.1741,-165.4289 608.4982,-169.4267 622,-174.7847 649.1449,-185.5566 677.5504,-203.4969 696.2514,-216.375"/>
<polygon fill="#191970" stroke="#191970" points="694.4082,-219.3573 704.6043,-222.2367 698.4292,-213.6274 694.4082,-219.3573"/>
</g>
<!-- Node343695&#45;&gt;Node343688 -->
<g id="edge50" class="edge">
<title>Node343695&#45;&gt;Node343688</title>
<path fill="none" stroke="#191970" d="M250.2011,-175.7847C258.4261,-175.7847 267.1179,-175.7847 275.8042,-175.7847"/>
<polygon fill="#191970" stroke="#191970" points="275.9704,-179.2848 285.9704,-175.7847 275.9703,-172.2848 275.9704,-179.2848"/>
</g>
<!-- Node343695&#45;&gt;Node343695 -->
<g id="edge51" class="edge">
<title>Node343695&#45;&gt;Node343695</title>
<path fill="none" stroke="#191970" d="M179.1137,-185.5417C168.4663,-194.3499 175.7617,-203.7847 201,-203.7847 217.5626,-203.7847 226.3979,-199.7215 227.5059,-194.4386"/>
<polygon fill="#191970" stroke="#191970" points="230.6008,-192.8038 222.8863,-185.5417 224.3883,-196.0296 230.6008,-192.8038"/>
</g>
</g>
</svg>
