<?xml version="1.0" encoding="UTF-8" standalone="no"?>
<!DOCTYPE svg PUBLIC "-//W3C//DTD SVG 1.1//EN"
 "http://www.w3.org/Graphics/SVG/1.1/DTD/svg11.dtd">
<!-- Generated by graphviz version 2.40.1 (20161225.0304)
 -->
<!-- Title: js_atof Pages: 1 -->
<svg width="1596pt" height="1080pt"
 viewBox="0.00 0.00 1596.00 1079.82" xmlns="http://www.w3.org/2000/svg" xmlns:xlink="http://www.w3.org/1999/xlink">
<g id="graph0" class="graph" transform="scale(1 1) rotate(0) translate(4 1075.816)">
<title>js_atof</title>
<!-- Node230044 -->
<g id="node1" class="node">
<title>Node230044</title>
<polygon fill="#bfbfbf" stroke="#000000" points="0,-976.316 0,-995.316 46,-995.316 46,-976.316 0,-976.316"/>
<text text-anchor="middle" x="23" y="-983.316" font-family="Helvetica,sans-Serif" font-size="10.00" fill="#000000">js_atof</text>
</g>
<!-- Node230045 -->
<g id="node2" class="node">
<title>Node230045</title>
<g id="a_node2"><a xlink:href="quickjs_8c.html#abb21478f7d3d0ff964efbe82a673daef" target="_top" xlink:title="js_parseFloat">
<polygon fill="none" stroke="#000000" points="103,-1052.316 103,-1071.316 178,-1071.316 178,-1052.316 103,-1052.316"/>
<text text-anchor="middle" x="140.5" y="-1059.316" font-family="Helvetica,sans-Serif" font-size="10.00" fill="#000000">js_parseFloat</text>
</a>
</g>
</g>
<!-- Node230044&#45;&gt;Node230045 -->
<g id="edge1" class="edge">
<title>Node230044&#45;&gt;Node230045</title>
<path fill="none" stroke="#191970" d="M37.5127,-1003.6275C48.551,-1016.1449 64.7412,-1032.4448 82,-1042.816 88.4071,-1046.6662 95.6842,-1049.8314 102.8766,-1052.3984"/>
<polygon fill="#191970" stroke="#191970" points="39.8943,-1001.026 30.7441,-995.6852 34.5666,-1005.5665 39.8943,-1001.026"/>
</g>
<!-- Node230046 -->
<g id="node3" class="node">
<title>Node230046</title>
<g id="a_node3"><a xlink:href="quickjs_8c.html#aed39bc2ad38569d153500dc6ae23cd6c" target="_top" xlink:title="js_parseInt">
<polygon fill="none" stroke="#000000" points="108,-1014.316 108,-1033.316 173,-1033.316 173,-1014.316 108,-1014.316"/>
<text text-anchor="middle" x="140.5" y="-1021.316" font-family="Helvetica,sans-Serif" font-size="10.00" fill="#000000">js_parseInt</text>
</a>
</g>
</g>
<!-- Node230044&#45;&gt;Node230046 -->
<g id="edge2" class="edge">
<title>Node230044&#45;&gt;Node230046</title>
<path fill="none" stroke="#191970" d="M55.9189,-996.4622C73.2386,-1002.0634 94.2979,-1008.8741 111.0701,-1014.2983"/>
<polygon fill="#191970" stroke="#191970" points="56.806,-993.0706 46.2142,-993.3236 54.652,-999.731 56.806,-993.0706"/>
</g>
<!-- Node230047 -->
<g id="node4" class="node">
<title>Node230047</title>
<g id="a_node4"><a xlink:href="quickjs_8c.html#a0315f23b9804563f376c47edef2967fd" target="_top" xlink:title="JS_ToNumberHintFree">
<polygon fill="none" stroke="#000000" points="82,-976.316 82,-995.316 199,-995.316 199,-976.316 82,-976.316"/>
<text text-anchor="middle" x="140.5" y="-983.316" font-family="Helvetica,sans-Serif" font-size="10.00" fill="#000000">JS_ToNumberHintFree</text>
</a>
</g>
</g>
<!-- Node230044&#45;&gt;Node230047 -->
<g id="edge3" class="edge">
<title>Node230044&#45;&gt;Node230047</title>
<path fill="none" stroke="#191970" d="M56.4827,-985.816C64.4098,-985.816 73.0951,-985.816 81.7796,-985.816"/>
<polygon fill="#191970" stroke="#191970" points="56.2143,-982.3161 46.2142,-985.816 56.2142,-989.3161 56.2143,-982.3161"/>
</g>
<!-- Node230649 -->
<g id="node7" class="node">
<title>Node230649</title>
<g id="a_node7"><a xlink:href="quickjs_8c.html#a7fbd31397bde22dfa2b876b945f9afb4" target="_top" xlink:title="json_next_token">
<polygon fill="none" stroke="#000000" points="96.5,-919.316 96.5,-938.316 184.5,-938.316 184.5,-919.316 96.5,-919.316"/>
<text text-anchor="middle" x="140.5" y="-926.316" font-family="Helvetica,sans-Serif" font-size="10.00" fill="#000000">json_next_token</text>
</a>
</g>
</g>
<!-- Node230044&#45;&gt;Node230649 -->
<g id="edge6" class="edge">
<title>Node230044&#45;&gt;Node230649</title>
<path fill="none" stroke="#191970" d="M51.9363,-971.7788C73.3441,-961.3938 101.9376,-947.5229 120.769,-938.3877"/>
<polygon fill="#191970" stroke="#191970" points="50.1365,-968.7618 42.6669,-976.2755 53.1917,-975.0599 50.1365,-968.7618"/>
</g>
<!-- Node230651 -->
<g id="node11" class="node">
<title>Node230651</title>
<g id="a_node11"><a xlink:href="quickjs_8c.html#a75a3798e2045f6e403c1ef467126d1fb" target="_top" xlink:title="next_token">
<polygon fill="none" stroke="#ff0000" points="108,-511.316 108,-530.316 173,-530.316 173,-511.316 108,-511.316"/>
<text text-anchor="middle" x="140.5" y="-518.316" font-family="Helvetica,sans-Serif" font-size="10.00" fill="#000000">next_token</text>
</a>
</g>
</g>
<!-- Node230044&#45;&gt;Node230651 -->
<g id="edge13" class="edge">
<title>Node230044&#45;&gt;Node230651</title>
<path fill="none" stroke="#191970" d="M27.907,-966.3967C47.9836,-886.9449 123.4924,-588.1229 138.0593,-530.4748"/>
<polygon fill="#191970" stroke="#191970" points="24.5108,-965.5511 25.4542,-976.1039 31.2975,-967.2661 24.5108,-965.5511"/>
</g>
<!-- Node230048 -->
<g id="node5" class="node">
<title>Node230048</title>
<g id="a_node5"><a xlink:href="quickjs_8c.html#ae738291483438efefca5c9fa4d269504" target="_top" xlink:title="JS_ToNumberFree">
<polygon fill="none" stroke="#ff0000" points="240,-1024.316 240,-1043.316 339,-1043.316 339,-1024.316 240,-1024.316"/>
<text text-anchor="middle" x="289.5" y="-1031.316" font-family="Helvetica,sans-Serif" font-size="10.00" fill="#000000">JS_ToNumberFree</text>
</a>
</g>
</g>
<!-- Node230047&#45;&gt;Node230048 -->
<g id="edge4" class="edge">
<title>Node230047&#45;&gt;Node230048</title>
<path fill="none" stroke="#191970" d="M179.8678,-998.4983C204.9131,-1006.5666 236.829,-1016.8482 259.7574,-1024.2345"/>
<polygon fill="#191970" stroke="#191970" points="180.8858,-995.1492 170.2943,-995.4142 178.7393,-1001.812 180.8858,-995.1492"/>
</g>
<!-- Node230647 -->
<g id="node6" class="node">
<title>Node230647</title>
<g id="a_node6"><a xlink:href="quickjs_8c.html#a95c291df13743182541d687be697e59d" target="_top" xlink:title="JS_ToNumericFree">
<polygon fill="none" stroke="#ff0000" points="239,-986.316 239,-1005.316 340,-1005.316 340,-986.316 239,-986.316"/>
<text text-anchor="middle" x="289.5" y="-993.316" font-family="Helvetica,sans-Serif" font-size="10.00" fill="#000000">JS_ToNumericFree</text>
</a>
</g>
</g>
<!-- Node230047&#45;&gt;Node230647 -->
<g id="edge5" class="edge">
<title>Node230047&#45;&gt;Node230647</title>
<path fill="none" stroke="#191970" d="M209.5589,-990.4509C219.3899,-991.1107 229.348,-991.779 238.7435,-992.4096"/>
<polygon fill="#191970" stroke="#191970" points="209.6007,-986.9459 199.3887,-989.7683 209.1319,-993.9302 209.6007,-986.9459"/>
</g>
<!-- Node230650 -->
<g id="node8" class="node">
<title>Node230650</title>
<g id="a_node8"><a xlink:href="quickjs_8c.html#ae66a7542eaaa25e85eeb8427eca70eae" target="_top" xlink:title="json_parse_expect">
<polygon fill="none" stroke="#000000" points="240.5,-910.316 240.5,-929.316 338.5,-929.316 338.5,-910.316 240.5,-910.316"/>
<text text-anchor="middle" x="289.5" y="-917.316" font-family="Helvetica,sans-Serif" font-size="10.00" fill="#000000">json_parse_expect</text>
</a>
</g>
</g>
<!-- Node230649&#45;&gt;Node230650 -->
<g id="edge7" class="edge">
<title>Node230649&#45;&gt;Node230650</title>
<path fill="none" stroke="#191970" d="M194.895,-925.5304C209.7887,-924.6308 225.8411,-923.6612 240.4183,-922.7807"/>
<polygon fill="#191970" stroke="#191970" points="194.5722,-922.0435 184.8015,-926.1401 194.9944,-929.0307 194.5722,-922.0435"/>
</g>
<!-- Node230379 -->
<g id="node9" class="node">
<title>Node230379</title>
<g id="a_node9"><a xlink:href="quickjs_8c.html#a756c1ab5dee9a6dd07723d7a075e2a53" target="_top" xlink:title="json_parse_value">
<polygon fill="none" stroke="#000000" points="403,-892.316 403,-911.316 495,-911.316 495,-892.316 403,-892.316"/>
<text text-anchor="middle" x="449" y="-899.316" font-family="Helvetica,sans-Serif" font-size="10.00" fill="#000000">json_parse_value</text>
</a>
</g>
</g>
<!-- Node230649&#45;&gt;Node230379 -->
<g id="edge11" class="edge">
<title>Node230649&#45;&gt;Node230379</title>
<path fill="none" stroke="#191970" d="M175.5432,-915.8091C193.1209,-909.9632 214.8987,-903.7314 235,-900.816 292.3589,-892.4972 359.2779,-894.6883 402.8062,-897.6694"/>
<polygon fill="#191970" stroke="#191970" points="174.0462,-912.6224 165.7235,-919.1785 176.3182,-919.2435 174.0462,-912.6224"/>
</g>
<!-- Node230380 -->
<g id="node10" class="node">
<title>Node230380</title>
<g id="a_node10"><a xlink:href="quickjs_8c.html#a2ce39fc64f8e4a7a0e19bf5527df730f" target="_top" xlink:title="JS_ParseJSON2">
<polygon fill="none" stroke="#ff0000" points="564.5,-920.316 564.5,-939.316 656.5,-939.316 656.5,-920.316 564.5,-920.316"/>
<text text-anchor="middle" x="610.5" y="-927.316" font-family="Helvetica,sans-Serif" font-size="10.00" fill="#000000">JS_ParseJSON2</text>
</a>
</g>
</g>
<!-- Node230649&#45;&gt;Node230380 -->
<g id="edge12" class="edge">
<title>Node230649&#45;&gt;Node230380</title>
<path fill="none" stroke="#191970" d="M194.9377,-935.5669C208.0364,-936.917 222.0002,-938.1301 235,-938.816 360.6031,-945.4432 392.3701,-944.9134 518,-938.816 533.1489,-938.0808 549.6443,-936.6721 564.4549,-935.1836"/>
<polygon fill="#191970" stroke="#191970" points="194.97,-932.0503 184.6533,-934.4621 194.2223,-939.0102 194.97,-932.0503"/>
</g>
<!-- Node230650&#45;&gt;Node230379 -->
<g id="edge8" class="edge">
<title>Node230650&#45;&gt;Node230379</title>
<path fill="none" stroke="#191970" d="M348.7251,-913.1323C366.6557,-911.1088 386.0716,-908.9177 402.9998,-907.0073"/>
<polygon fill="#191970" stroke="#191970" points="348.2011,-909.6692 338.6567,-914.2686 348.9862,-916.625 348.2011,-909.6692"/>
</g>
<!-- Node230379&#45;&gt;Node230379 -->
<g id="edge9" class="edge">
<title>Node230379&#45;&gt;Node230379</title>
<path fill="none" stroke="#191970" d="M419.5076,-920.47C420.7404,-925.7528 430.5712,-929.816 449,-929.816 477.082,-929.816 485.1995,-920.3813 473.3524,-911.5731"/>
<polygon fill="#191970" stroke="#191970" points="422.6757,-921.9828 424.6476,-911.5731 416.6145,-918.481 422.6757,-921.9828"/>
</g>
<!-- Node230379&#45;&gt;Node230380 -->
<g id="edge10" class="edge">
<title>Node230379&#45;&gt;Node230380</title>
<path fill="none" stroke="#191970" d="M505.1944,-911.5587C524.5693,-914.9178 546.0286,-918.6383 564.4932,-921.8396"/>
<polygon fill="#191970" stroke="#191970" points="505.7304,-908.0995 495.2794,-909.8397 504.5345,-914.9966 505.7304,-908.0995"/>
</g>
<!-- Node230652 -->
<g id="node12" class="node">
<title>Node230652</title>
<g id="a_node12"><a xlink:href="quickjs_8c.html#aeca8ed71e1eef8ec809afab744958c28" target="_top" xlink:title="js_parse_expect">
<polygon fill="none" stroke="#ff0000" points="245.5,-350.316 245.5,-369.316 333.5,-369.316 333.5,-350.316 245.5,-350.316"/>
<text text-anchor="middle" x="289.5" y="-357.316" font-family="Helvetica,sans-Serif" font-size="10.00" fill="#000000">js_parse_expect</text>
</a>
</g>
</g>
<!-- Node230651&#45;&gt;Node230652 -->
<g id="edge14" class="edge">
<title>Node230651&#45;&gt;Node230652</title>
<path fill="none" stroke="#191970" d="M154.698,-503.4378C172.7774,-481.5473 205.2481,-443.0209 235,-411.816 249.6195,-396.4826 267.5608,-379.7321 278.7653,-369.4982"/>
<polygon fill="#191970" stroke="#191970" points="151.947,-501.2728 148.2991,-511.2198 157.3539,-505.7187 151.947,-501.2728"/>
</g>
<!-- Node230335 -->
<g id="node13" class="node">
<title>Node230335</title>
<g id="a_node13"><a xlink:href="quickjs_8c.html#a035daca514f14aacc1e0cff81d8e423a" target="_top" xlink:title="js_parse_template">
<polygon fill="none" stroke="#000000" points="401,-454.316 401,-473.316 497,-473.316 497,-454.316 401,-454.316"/>
<text text-anchor="middle" x="449" y="-461.316" font-family="Helvetica,sans-Serif" font-size="10.00" fill="#000000">js_parse_template</text>
</a>
</g>
</g>
<!-- Node230651&#45;&gt;Node230335 -->
<g id="edge48" class="edge">
<title>Node230651&#45;&gt;Node230335</title>
<path fill="none" stroke="#191970" d="M183.3517,-512.8985C240.4203,-502.3543 341.0881,-483.7544 400.7595,-472.7292"/>
<polygon fill="#191970" stroke="#191970" points="182.4205,-509.5113 173.2228,-514.77 183.6923,-516.3948 182.4205,-509.5113"/>
</g>
<!-- Node230310 -->
<g id="node14" class="node">
<title>Node230310</title>
<g id="a_node14"><a xlink:href="quickjs_8c.html#acdcc62310b4f6f73fa7bc7267b18b1d4" target="_top" xlink:title="js_parse_postfix_expr">
<polygon fill="none" stroke="#ff0000" points="714,-461.316 714,-480.316 826,-480.316 826,-461.316 714,-461.316"/>
<text text-anchor="middle" x="770" y="-468.316" font-family="Helvetica,sans-Serif" font-size="10.00" fill="#000000">js_parse_postfix_expr</text>
</a>
</g>
</g>
<!-- Node230651&#45;&gt;Node230310 -->
<g id="edge64" class="edge">
<title>Node230651&#45;&gt;Node230310</title>
<path fill="none" stroke="#191970" d="M183.1482,-524.0434C273.5313,-529.8304 490.5276,-538.1395 667,-500.816 692.5107,-495.4206 720.9235,-486.9543 741.4347,-480.3894"/>
<polygon fill="#191970" stroke="#191970" points="183.2281,-520.5411 173.0182,-523.3709 182.7643,-527.5257 183.2281,-520.5411"/>
</g>
<!-- Node230311 -->
<g id="node15" class="node">
<title>Node230311</title>
<g id="a_node15"><a xlink:href="quickjs_8c.html#a00eb789430243c24dab4a63ad6a79653" target="_top" xlink:title="js_parse_class">
<polygon fill="none" stroke="#ff0000" points="889.5,-150.316 889.5,-169.316 971.5,-169.316 971.5,-150.316 889.5,-150.316"/>
<text text-anchor="middle" x="930.5" y="-157.316" font-family="Helvetica,sans-Serif" font-size="10.00" fill="#000000">js_parse_class</text>
</a>
</g>
</g>
<!-- Node230651&#45;&gt;Node230311 -->
<g id="edge59" class="edge">
<title>Node230651&#45;&gt;Node230311</title>
<path fill="none" stroke="#191970" d="M142.2865,-501.0745C149.4446,-426.2765 178.4336,-161.5723 235,-102.816 303.2646,-31.9087 350.5729,-45.816 449,-45.816 449,-45.816 449,-45.816 610.5,-45.816 711.5202,-45.816 745.5383,-21.9226 837,-64.816 878.2748,-84.173 911.3938,-129.9953 924.4672,-150.0884"/>
<polygon fill="#191970" stroke="#191970" points="138.801,-500.7566 141.3559,-511.0388 145.7707,-501.4076 138.801,-500.7566"/>
</g>
<!-- Node230323 -->
<g id="node16" class="node">
<title>Node230323</title>
<g id="a_node16"><a xlink:href="quickjs_8c.html#a26be546cf89c4580ba9020e8fc43a759" target="_top" xlink:title="js_parse_destructuring\l_element">
<polygon fill="none" stroke="#ff0000" points="873,-455.816 873,-485.816 988,-485.816 988,-455.816 873,-455.816"/>
<text text-anchor="start" x="881" y="-473.816" font-family="Helvetica,sans-Serif" font-size="10.00" fill="#000000">js_parse_destructuring</text>
<text text-anchor="middle" x="930.5" y="-462.816" font-family="Helvetica,sans-Serif" font-size="10.00" fill="#000000">_element</text>
</a>
</g>
</g>
<!-- Node230651&#45;&gt;Node230323 -->
<g id="edge63" class="edge">
<title>Node230651&#45;&gt;Node230323</title>
<path fill="none" stroke="#191970" d="M156.2708,-537.9501C173.801,-555.9744 203.7799,-583.889 235,-599.816 322.3788,-644.3926 350.9076,-653.816 449,-653.816 449,-653.816 449,-653.816 610.5,-653.816 712.5736,-653.816 751.7394,-671.9377 837,-615.816 885.7884,-583.7017 914.5009,-516.3803 925.414,-486.1208"/>
<polygon fill="#191970" stroke="#191970" points="158.56,-535.2782 149.1327,-530.4432 153.4872,-540.1019 158.56,-535.2782"/>
</g>
<!-- Node230325 -->
<g id="node17" class="node">
<title>Node230325</title>
<g id="a_node17"><a xlink:href="quickjs_8c.html#af99673e7430294cf15dc24dc5dac227f" target="_top" xlink:title="js_parse_unary">
<polygon fill="none" stroke="#000000" points="889,-664.316 889,-683.316 972,-683.316 972,-664.316 889,-664.316"/>
<text text-anchor="middle" x="930.5" y="-671.316" font-family="Helvetica,sans-Serif" font-size="10.00" fill="#000000">js_parse_unary</text>
</a>
</g>
</g>
<!-- Node230651&#45;&gt;Node230325 -->
<g id="edge66" class="edge">
<title>Node230651&#45;&gt;Node230325</title>
<path fill="none" stroke="#191970" d="M150.6253,-539.3317C165.6272,-564.9867 196.2105,-610.9837 235,-635.816 317.8,-688.823 350.6863,-691.816 449,-691.816 449,-691.816 449,-691.816 610.5,-691.816 710.519,-691.816 827.8456,-682.9418 888.8642,-677.6554"/>
<polygon fill="#191970" stroke="#191970" points="153.6371,-537.5474 145.654,-530.5817 147.5508,-541.0054 153.6371,-537.5474"/>
</g>
<!-- Node230326 -->
<g id="node18" class="node">
<title>Node230326</title>
<g id="a_node18"><a xlink:href="quickjs_8c.html#a2ecfb6abb190101748202a8aa5821fba" target="_top" xlink:title="js_parse_delete">
<polygon fill="none" stroke="#000000" points="1036,-664.316 1036,-683.316 1121,-683.316 1121,-664.316 1036,-664.316"/>
<text text-anchor="middle" x="1078.5" y="-671.316" font-family="Helvetica,sans-Serif" font-size="10.00" fill="#000000">js_parse_delete</text>
</a>
</g>
</g>
<!-- Node230651&#45;&gt;Node230326 -->
<g id="edge65" class="edge">
<title>Node230651&#45;&gt;Node230326</title>
<path fill="none" stroke="#191970" d="M147.0146,-540.1981C159.0335,-572.9221 187.8633,-638.9603 235,-673.816 314.049,-732.2698 350.6863,-729.816 449,-729.816 449,-729.816 449,-729.816 770,-729.816 867.2562,-729.816 893.4743,-733.6997 988,-710.816 1013.9013,-704.5456 1042.0713,-692.05 1059.9855,-683.3232"/>
<polygon fill="#191970" stroke="#191970" points="150.21,-538.7355 143.581,-530.4707 143.6092,-541.0655 150.21,-538.7355"/>
</g>
<!-- Node230327 -->
<g id="node19" class="node">
<title>Node230327</title>
<g id="a_node19"><a xlink:href="quickjs_8c.html#ab1c84e1eb8a5f06b9257c3c9b5a6f024" target="_top" xlink:title="js_parse_expr_binary">
<polygon fill="none" stroke="#000000" points="1024,-721.316 1024,-740.316 1133,-740.316 1133,-721.316 1024,-721.316"/>
<text text-anchor="middle" x="1078.5" y="-728.316" font-family="Helvetica,sans-Serif" font-size="10.00" fill="#000000">js_parse_expr_binary</text>
</a>
</g>
</g>
<!-- Node230651&#45;&gt;Node230327 -->
<g id="edge67" class="edge">
<title>Node230651&#45;&gt;Node230327</title>
<path fill="none" stroke="#191970" d="M144.4374,-540.4267C153.328,-579.4668 178.726,-667.0771 235,-712.816 311.2052,-774.7549 350.7979,-767.816 449,-767.816 449,-767.816 449,-767.816 770,-767.816 862.2423,-767.816 968.9019,-751.3073 1029.5613,-740.3445"/>
<polygon fill="#191970" stroke="#191970" points="147.8425,-539.6131 142.3142,-530.5749 140.9996,-541.0879 147.8425,-539.6131"/>
</g>
<!-- Node230328 -->
<g id="node20" class="node">
<title>Node230328</title>
<g id="a_node20"><a xlink:href="quickjs_8c.html#a2af8c0e05d949d0ae23d94c8e73e5494" target="_top" xlink:title="js_parse_logical_and_or">
<polygon fill="none" stroke="#000000" points="1169,-740.316 1169,-759.316 1290,-759.316 1290,-740.316 1169,-740.316"/>
<text text-anchor="middle" x="1229.5" y="-747.316" font-family="Helvetica,sans-Serif" font-size="10.00" fill="#000000">js_parse_logical_and_or</text>
</a>
</g>
</g>
<!-- Node230651&#45;&gt;Node230328 -->
<g id="edge68" class="edge">
<title>Node230651&#45;&gt;Node230328</title>
<path fill="none" stroke="#191970" d="M142.598,-540.7257C148.4348,-585.7163 169.0499,-695.7409 235,-752.816 309.0913,-816.9368 351.0154,-805.816 449,-805.816 449,-805.816 449,-805.816 930.5,-805.816 1030.0512,-805.816 1145.1093,-775.454 1198.8633,-759.4428"/>
<polygon fill="#191970" stroke="#191970" points="146.0426,-540.0511 141.3896,-530.5328 139.0913,-540.8753 146.0426,-540.0511"/>
</g>
<!-- Node230329 -->
<g id="node21" class="node">
<title>Node230329</title>
<g id="a_node21"><a xlink:href="quickjs_8c.html#a2a6a8f6738ae03f046617522b9781245" target="_top" xlink:title="js_parse_coalesce_expr">
<polygon fill="none" stroke="#000000" points="1326,-702.316 1326,-721.316 1448,-721.316 1448,-702.316 1326,-702.316"/>
<text text-anchor="middle" x="1387" y="-709.316" font-family="Helvetica,sans-Serif" font-size="10.00" fill="#000000">js_parse_coalesce_expr</text>
</a>
</g>
</g>
<!-- Node230651&#45;&gt;Node230329 -->
<g id="edge69" class="edge">
<title>Node230651&#45;&gt;Node230329</title>
<path fill="none" stroke="#191970" d="M141.5114,-500.7745C146.0865,-418.5037 167.637,-107.9877 235,-42.816 304.2646,24.1953 352.6252,-7.816 449,-7.816 449,-7.816 449,-7.816 1078.5,-7.816 1237.4631,-7.816 1367.7465,-617.5755 1385.049,-702.132"/>
<polygon fill="#191970" stroke="#191970" points="137.993,-501.0282 140.9561,-511.2003 144.9831,-501.4006 137.993,-501.0282"/>
</g>
<!-- Node230330 -->
<g id="node22" class="node">
<title>Node230330</title>
<g id="a_node22"><a xlink:href="quickjs_8c.html#abd2cbff624ea609dbf883fb1a2f048cd" target="_top" xlink:title="js_parse_cond_expr">
<polygon fill="none" stroke="#ff0000" points="1484,-702.316 1484,-721.316 1588,-721.316 1588,-702.316 1484,-702.316"/>
<text text-anchor="middle" x="1536" y="-709.316" font-family="Helvetica,sans-Serif" font-size="10.00" fill="#000000">js_parse_cond_expr</text>
</a>
</g>
</g>
<!-- Node230651&#45;&gt;Node230330 -->
<g id="edge70" class="edge">
<title>Node230651&#45;&gt;Node230330</title>
<path fill="none" stroke="#191970" d="M141.2488,-540.6036C144.2558,-590.6523 159.3394,-723.1709 235,-791.816 307.4898,-857.5844 351.1213,-843.816 449,-843.816 449,-843.816 449,-843.816 1229.5,-843.816 1353.195,-843.816 1483.7505,-752.0061 1523.6899,-721.5223"/>
<polygon fill="#191970" stroke="#191970" points="144.7376,-540.2912 140.743,-530.4783 137.7463,-540.6405 144.7376,-540.2912"/>
</g>
<!-- Node230336 -->
<g id="node23" class="node">
<title>Node230336</title>
<g id="a_node23"><a xlink:href="quickjs_8c.html#a42234753f3193f37ce45b3c0ca4c25cd" target="_top" xlink:title="js_parse_property_name">
<polygon fill="none" stroke="#000000" points="387.5,-188.316 387.5,-207.316 510.5,-207.316 510.5,-188.316 387.5,-188.316"/>
<text text-anchor="middle" x="449" y="-195.316" font-family="Helvetica,sans-Serif" font-size="10.00" fill="#000000">js_parse_property_name</text>
</a>
</g>
</g>
<!-- Node230651&#45;&gt;Node230336 -->
<g id="edge49" class="edge">
<title>Node230651&#45;&gt;Node230336</title>
<path fill="none" stroke="#191970" d="M144.5674,-500.9842C153.9307,-459.6372 180.5099,-363.0712 235,-302.816 282.6043,-250.1751 362.4685,-220.9413 410.0047,-207.3777"/>
<polygon fill="#191970" stroke="#191970" points="141.1174,-500.3791 142.4179,-510.8938 147.9583,-501.863 141.1174,-500.3791"/>
</g>
<!-- Node230321 -->
<g id="node24" class="node">
<title>Node230321</title>
<g id="a_node24"><a xlink:href="quickjs_8c.html#aee6d0acd87f136d43f157ae1426436e6" target="_top" xlink:title="js_parse_object_literal">
<polygon fill="none" stroke="#000000" points="554,-340.316 554,-359.316 667,-359.316 667,-340.316 554,-340.316"/>
<text text-anchor="middle" x="610.5" y="-347.316" font-family="Helvetica,sans-Serif" font-size="10.00" fill="#000000">js_parse_object_literal</text>
</a>
</g>
</g>
<!-- Node230651&#45;&gt;Node230321 -->
<g id="edge57" class="edge">
<title>Node230651&#45;&gt;Node230321</title>
<path fill="none" stroke="#191970" d="M171.4312,-507.1263C189.7867,-499.1525 213.583,-489.0746 235,-480.816 362.5529,-431.6304 517.4236,-380.1639 581.052,-359.3678"/>
<polygon fill="#191970" stroke="#191970" points="169.87,-503.9889 162.107,-511.199 172.6719,-510.4036 169.87,-503.9889"/>
</g>
<!-- Node230332 -->
<g id="node25" class="node">
<title>Node230332</title>
<g id="a_node25"><a xlink:href="quickjs_8c.html#a253917187cfb6b3db09d355b31edb3d5" target="_top" xlink:title="js_parse_array_literal">
<polygon fill="none" stroke="#000000" points="394.5,-492.316 394.5,-511.316 503.5,-511.316 503.5,-492.316 394.5,-492.316"/>
<text text-anchor="middle" x="449" y="-499.316" font-family="Helvetica,sans-Serif" font-size="10.00" fill="#000000">js_parse_array_literal</text>
</a>
</g>
</g>
<!-- Node230651&#45;&gt;Node230332 -->
<g id="edge60" class="edge">
<title>Node230651&#45;&gt;Node230332</title>
<path fill="none" stroke="#191970" d="M183.3466,-518.1772C238.4311,-514.7846 334.1419,-508.89 394.3932,-505.1792"/>
<polygon fill="#191970" stroke="#191970" points="182.9887,-514.6925 173.2228,-518.8007 183.4191,-521.6793 182.9887,-514.6925"/>
</g>
<!-- Node230653 -->
<g id="node26" class="node">
<title>Node230653</title>
<g id="a_node26"><a xlink:href="quickjs_8c.html#a02cbd69384985a4e904190810cf45641" target="_top" xlink:title="js_parse_expect_semi">
<polygon fill="none" stroke="#ff0000" points="713,-74.316 713,-93.316 827,-93.316 827,-74.316 713,-74.316"/>
<text text-anchor="middle" x="770" y="-81.316" font-family="Helvetica,sans-Serif" font-size="10.00" fill="#000000">js_parse_expect_semi</text>
</a>
</g>
</g>
<!-- Node230651&#45;&gt;Node230653 -->
<g id="edge46" class="edge">
<title>Node230651&#45;&gt;Node230653</title>
<path fill="none" stroke="#191970" d="M143.0813,-500.8983C152.3971,-431.8772 186.3245,-204.2955 235,-151.816 298.512,-83.3407 587.942,-80.294 712.6046,-82.2845"/>
<polygon fill="#191970" stroke="#191970" points="139.5575,-500.8474 141.7135,-511.2206 146.4968,-501.767 139.5575,-500.8474"/>
</g>
<!-- Node230654 -->
<g id="node27" class="node">
<title>Node230654</title>
<g id="a_node27"><a xlink:href="quickjs_8c.html#aba7eb7aae2eb61bfccb4565ee626cd18" target="_top" xlink:title="js_parse_seek_token">
<polygon fill="none" stroke="#ff0000" points="235,-312.316 235,-331.316 344,-331.316 344,-312.316 235,-312.316"/>
<text text-anchor="middle" x="289.5" y="-319.316" font-family="Helvetica,sans-Serif" font-size="10.00" fill="#000000">js_parse_seek_token</text>
</a>
</g>
</g>
<!-- Node230651&#45;&gt;Node230654 -->
<g id="edge50" class="edge">
<title>Node230651&#45;&gt;Node230654</title>
<path fill="none" stroke="#191970" d="M145.6208,-501.0586C156.1433,-464.2911 183.6372,-385.0889 235,-340.816 239.478,-336.9561 244.7868,-333.8662 250.3055,-331.3964"/>
<polygon fill="#191970" stroke="#191970" points="142.1582,-500.4519 142.8924,-511.0212 148.9096,-502.3009 142.1582,-500.4519"/>
</g>
<!-- Node230655 -->
<g id="node28" class="node">
<title>Node230655</title>
<g id="a_node28"><a xlink:href="quickjs_8c.html#ac00298085baf11a4a7bd600cf5de2e6d" target="_top" xlink:title="js_parse_skip_parens\l_token">
<polygon fill="none" stroke="#ff0000" points="555,-556.816 555,-586.816 666,-586.816 666,-556.816 555,-556.816"/>
<text text-anchor="start" x="563" y="-574.816" font-family="Helvetica,sans-Serif" font-size="10.00" fill="#000000">js_parse_skip_parens</text>
<text text-anchor="middle" x="610.5" y="-563.816" font-family="Helvetica,sans-Serif" font-size="10.00" fill="#000000">_token</text>
</a>
</g>
</g>
<!-- Node230651&#45;&gt;Node230655 -->
<g id="edge56" class="edge">
<title>Node230651&#45;&gt;Node230655</title>
<path fill="none" stroke="#191970" d="M171.6268,-534.2338C189.759,-541.3994 213.2661,-549.5926 235,-553.816 346.9577,-575.5723 481.0372,-576.0136 554.8686,-574.1021"/>
<polygon fill="#191970" stroke="#191970" points="172.734,-530.906 162.1517,-530.3904 170.1028,-537.3927 172.734,-530.906"/>
</g>
<!-- Node230318 -->
<g id="node29" class="node">
<title>Node230318</title>
<g id="a_node29"><a xlink:href="quickjs_8c.html#adf95ddf430ef93fd9efea1cc2f8a2fbe" target="_top" xlink:title="js_parse_class_default_ctor">
<polygon fill="none" stroke="#000000" points="380,-112.316 380,-131.316 518,-131.316 518,-112.316 380,-112.316"/>
<text text-anchor="middle" x="449" y="-119.316" font-family="Helvetica,sans-Serif" font-size="10.00" fill="#000000">js_parse_class_default_ctor</text>
</a>
</g>
</g>
<!-- Node230651&#45;&gt;Node230318 -->
<g id="edge58" class="edge">
<title>Node230651&#45;&gt;Node230318</title>
<path fill="none" stroke="#191970" d="M142.0577,-500.7853C146.9644,-449.8879 166.1413,-313.6286 235,-228.816 279.509,-173.9947 359.274,-144.7982 407.8431,-131.3686"/>
<polygon fill="#191970" stroke="#191970" points="138.5436,-500.7925 141.1541,-511.0607 145.5167,-501.4058 138.5436,-500.7925"/>
</g>
<!-- Node230658 -->
<g id="node30" class="node">
<title>Node230658</title>
<g id="a_node30"><a xlink:href="quickjs_8c.html#ab10609a91c359ea5d3051f7bb646af83" target="_top" xlink:title="js_parse_destructuring_var">
<polygon fill="none" stroke="#000000" points="703,-587.316 703,-606.316 837,-606.316 837,-587.316 703,-587.316"/>
<text text-anchor="middle" x="770" y="-594.316" font-family="Helvetica,sans-Serif" font-size="10.00" fill="#000000">js_parse_destructuring_var</text>
</a>
</g>
</g>
<!-- Node230651&#45;&gt;Node230658 -->
<g id="edge61" class="edge">
<title>Node230651&#45;&gt;Node230658</title>
<path fill="none" stroke="#191970" d="M161.3073,-536.2864C179.6748,-549.0353 207.7037,-566.3466 235,-574.816 396.8105,-625.0221 599.3802,-614.8934 702.666,-604.8908"/>
<polygon fill="#191970" stroke="#191970" points="163.2887,-533.4007 153.1122,-530.4532 159.2294,-539.1036 163.2887,-533.4007"/>
</g>
<!-- Node230652&#45;&gt;Node230335 -->
<g id="edge15" class="edge">
<title>Node230652&#45;&gt;Node230335</title>
<path fill="none" stroke="#191970" d="M312.8672,-375.0523C346.2375,-396.811 406.5698,-436.1499 434.3161,-454.2416"/>
<polygon fill="#191970" stroke="#191970" points="314.5078,-371.9438 304.2195,-369.4137 310.6845,-377.8074 314.5078,-371.9438"/>
</g>
<!-- Node230652&#45;&gt;Node230310 -->
<g id="edge44" class="edge">
<title>Node230652&#45;&gt;Node230310</title>
<path fill="none" stroke="#191970" d="M340.9156,-371.6935C436.7403,-393.8299 640.8481,-440.9807 728.5461,-461.2398"/>
<polygon fill="#191970" stroke="#191970" points="341.4142,-368.2166 330.883,-369.3759 339.8386,-375.037 341.4142,-368.2166"/>
</g>
<!-- Node230652&#45;&gt;Node230311 -->
<g id="edge40" class="edge">
<title>Node230652&#45;&gt;Node230311</title>
<path fill="none" stroke="#191970" d="M340.1499,-344.5547C341.5196,-343.3983 342.8095,-342.1543 344,-340.816 393.0212,-285.7078 323.2716,-225.953 380,-178.816 418.8446,-146.5391 768.4419,-154.5937 889.4775,-158.396"/>
<polygon fill="#191970" stroke="#191970" points="337.9551,-341.8112 331.5702,-350.2659 341.834,-347.6382 337.9551,-341.8112"/>
</g>
<!-- Node230652&#45;&gt;Node230323 -->
<g id="edge43" class="edge">
<title>Node230652&#45;&gt;Node230323</title>
<path fill="none" stroke="#191970" d="M332.5625,-347.7572C403.4356,-329.8432 548.6085,-301.3173 667,-330.816 765.7722,-355.4264 868.1616,-424.7407 910.421,-455.6315"/>
<polygon fill="#191970" stroke="#191970" points="331.4642,-344.4259 322.6569,-350.3151 333.2145,-351.2036 331.4642,-344.4259"/>
</g>
<!-- Node230652&#45;&gt;Node230330 -->
<g id="edge45" class="edge">
<title>Node230652&#45;&gt;Node230330</title>
<path fill="none" stroke="#191970" d="M331.1574,-346.6217C335.5649,-344.8346 339.9223,-342.8936 344,-340.816 361.3567,-331.9728 361.7495,-322.6259 380,-315.816 543.3355,-254.8701 595.6644,-273.816 770,-273.816 770,-273.816 770,-273.816 1229.5,-273.816 1446.2131,-273.816 1522.5848,-638.2073 1534.3354,-702.2604"/>
<polygon fill="#191970" stroke="#191970" points="329.6245,-343.4599 321.5177,-350.2812 332.109,-350.0041 329.6245,-343.4599"/>
</g>
<!-- Node230652&#45;&gt;Node230336 -->
<g id="edge34" class="edge">
<title>Node230652&#45;&gt;Node230336</title>
<path fill="none" stroke="#191970" d="M339.4574,-344.8795C341.072,-343.632 342.5954,-342.2804 344,-340.816 382.2493,-300.9384 341.7366,-261.6801 380,-221.816 386.0601,-215.5024 393.8661,-210.8487 402.0365,-207.4188"/>
<polygon fill="#191970" stroke="#191970" points="337.398,-342.0385 330.752,-350.2896 341.0929,-347.9839 337.398,-342.0385"/>
</g>
<!-- Node230652&#45;&gt;Node230321 -->
<g id="edge39" class="edge">
<title>Node230652&#45;&gt;Node230321</title>
<path fill="none" stroke="#191970" d="M343.9393,-358.1201C402.3678,-356.2999 494.7461,-353.4221 553.9697,-351.5771"/>
<polygon fill="#191970" stroke="#191970" points="343.6828,-354.6263 333.7967,-358.4361 343.9008,-361.6229 343.6828,-354.6263"/>
</g>
<!-- Node230652&#45;&gt;Node230332 -->
<g id="edge41" class="edge">
<title>Node230652&#45;&gt;Node230332</title>
<path fill="none" stroke="#191970" d="M298.2965,-378.7481C311.9131,-405.9455 340.6832,-455.7686 380,-482.816 385.6302,-486.6892 392.026,-489.7752 398.5986,-492.2333"/>
<polygon fill="#191970" stroke="#191970" points="301.3391,-377.0006 293.8294,-369.5269 295.0394,-380.0525 301.3391,-377.0006"/>
</g>
<!-- Node230335&#45;&gt;Node230310 -->
<g id="edge16" class="edge">
<title>Node230335&#45;&gt;Node230310</title>
<path fill="none" stroke="#191970" d="M507.2738,-465.0868C565.9453,-466.3662 655.8344,-468.3264 713.7683,-469.5898"/>
<polygon fill="#191970" stroke="#191970" points="507.1309,-461.583 497.0569,-464.864 506.9782,-468.5813 507.1309,-461.583"/>
</g>
<!-- Node230310&#45;&gt;Node230310 -->
<g id="edge22" class="edge">
<title>Node230310&#45;&gt;Node230310</title>
<path fill="none" stroke="#191970" d="M740.5076,-489.47C741.7404,-494.7528 751.5712,-498.816 770,-498.816 798.082,-498.816 806.1995,-489.3813 794.3524,-480.5731"/>
<polygon fill="#191970" stroke="#191970" points="743.6757,-490.9828 745.6476,-480.5731 737.6145,-487.481 743.6757,-490.9828"/>
</g>
<!-- Node230310&#45;&gt;Node230311 -->
<g id="edge17" class="edge">
<title>Node230310&#45;&gt;Node230311</title>
<path fill="none" stroke="#191970" d="M778.1444,-451.8542C806.2389,-392.5531 898.7604,-213.3801 924.0578,-169.4351"/>
<polygon fill="#191970" stroke="#191970" points="774.849,-450.6404 773.8091,-461.1841 781.1972,-453.5902 774.849,-450.6404"/>
</g>
<!-- Node230310&#45;&gt;Node230323 -->
<g id="edge19" class="edge">
<title>Node230310&#45;&gt;Node230323</title>
<path fill="none" stroke="#191970" d="M836.1969,-464.1589C848.3293,-463.9971 860.9041,-464.0468 872.7649,-464.3079"/>
<polygon fill="#191970" stroke="#191970" points="836.0688,-460.6606 826.1351,-464.3445 836.198,-467.6594 836.0688,-460.6606"/>
</g>
<!-- Node230310&#45;&gt;Node230325 -->
<g id="edge23" class="edge">
<title>Node230310&#45;&gt;Node230325</title>
<path fill="none" stroke="#191970" d="M783.9027,-488.4001C816.5946,-529.7488 897.4935,-632.0695 922.8035,-664.0816"/>
<polygon fill="#191970" stroke="#191970" points="786.4736,-486.0085 777.526,-480.3349 780.9826,-490.35 786.4736,-486.0085"/>
</g>
<!-- Node230311&#45;&gt;Node230310 -->
<g id="edge18" class="edge">
<title>Node230311&#45;&gt;Node230310</title>
<path fill="none" stroke="#191970" d="M922.2621,-178.9753C894.0743,-238.4376 801.8293,-417.0727 776.4906,-461.1129"/>
<polygon fill="#191970" stroke="#191970" points="925.5749,-180.1518 926.6183,-169.6085 919.2277,-177.1999 925.5749,-180.1518"/>
</g>
<!-- Node230323&#45;&gt;Node230310 -->
<g id="edge21" class="edge">
<title>Node230323&#45;&gt;Node230310</title>
<path fill="none" stroke="#191970" d="M862.6593,-477.4938C850.4893,-477.6365 837.9292,-477.5678 826.1351,-477.2875"/>
<polygon fill="#191970" stroke="#191970" points="862.825,-480.9916 872.7649,-477.3242 862.7075,-473.9926 862.825,-480.9916"/>
</g>
<!-- Node230323&#45;&gt;Node230323 -->
<g id="edge20" class="edge">
<title>Node230323&#45;&gt;Node230323</title>
<path fill="none" stroke="#191970" d="M904.2022,-496.2739C907.4661,-500.995 916.2321,-504.316 930.5,-504.316 953.9141,-504.316 962.5114,-495.3726 956.2921,-485.975"/>
<polygon fill="#191970" stroke="#191970" points="907.7132,-496.1347 904.7079,-485.975 900.7216,-495.7913 907.7132,-496.1347"/>
</g>
<!-- Node230325&#45;&gt;Node230325 -->
<g id="edge26" class="edge">
<title>Node230325&#45;&gt;Node230325</title>
<path fill="none" stroke="#191970" d="M902.8742,-692.47C904.0289,-697.7528 913.2375,-701.816 930.5,-701.816 956.8047,-701.816 964.4084,-692.3813 953.3111,-683.5731"/>
<polygon fill="#191970" stroke="#191970" points="906.0076,-694.0337 907.6889,-683.5731 899.8512,-690.702 906.0076,-694.0337"/>
</g>
<!-- Node230325&#45;&gt;Node230326 -->
<g id="edge24" class="edge">
<title>Node230325&#45;&gt;Node230326</title>
<path fill="none" stroke="#191970" d="M982.2059,-667.346C999.7556,-666.8925 1019.1504,-666.9899 1035.9071,-667.6383"/>
<polygon fill="#191970" stroke="#191970" points="982,-663.8508 972.1201,-667.6767 982.2295,-670.847 982,-663.8508"/>
</g>
<!-- Node230325&#45;&gt;Node230327 -->
<g id="edge27" class="edge">
<title>Node230325&#45;&gt;Node230327</title>
<path fill="none" stroke="#191970" d="M964.7814,-687.019C991.9563,-697.485 1029.2867,-711.8623 1053.6473,-721.2444"/>
<polygon fill="#191970" stroke="#191970" points="965.8616,-683.6845 955.2719,-683.3566 963.3458,-690.2168 965.8616,-683.6845"/>
</g>
<!-- Node230326&#45;&gt;Node230325 -->
<g id="edge25" class="edge">
<title>Node230326&#45;&gt;Node230325</title>
<path fill="none" stroke="#191970" d="M1025.77,-680.3118C1008.1505,-680.744 988.7727,-680.6251 972.1201,-679.9554"/>
<polygon fill="#191970" stroke="#191970" points="1026.0218,-683.8058 1035.9071,-679.9938 1025.8022,-676.8092 1026.0218,-683.8058"/>
</g>
<!-- Node230327&#45;&gt;Node230327 -->
<g id="edge28" class="edge">
<title>Node230327&#45;&gt;Node230327</title>
<path fill="none" stroke="#191970" d="M1050.8742,-749.47C1052.0289,-754.7528 1061.2375,-758.816 1078.5,-758.816 1104.8047,-758.816 1112.4084,-749.3813 1101.3111,-740.5731"/>
<polygon fill="#191970" stroke="#191970" points="1054.0076,-751.0337 1055.6889,-740.5731 1047.8512,-747.702 1054.0076,-751.0337"/>
</g>
<!-- Node230327&#45;&gt;Node230328 -->
<g id="edge29" class="edge">
<title>Node230327&#45;&gt;Node230328</title>
<path fill="none" stroke="#191970" d="M1142.9953,-738.9313C1151.5971,-740.0137 1160.3937,-741.1205 1168.9254,-742.1941"/>
<polygon fill="#191970" stroke="#191970" points="1143.3732,-735.4514 1133.0145,-737.6755 1142.4992,-742.3966 1143.3732,-735.4514"/>
</g>
<!-- Node230327&#45;&gt;Node230329 -->
<g id="edge33" class="edge">
<title>Node230327&#45;&gt;Node230329</title>
<path fill="none" stroke="#191970" d="M1143.4105,-726.8183C1197.2004,-723.5055 1273.1097,-718.8304 1325.8372,-715.583"/>
<polygon fill="#191970" stroke="#191970" points="1143.064,-723.3329 1133.2981,-727.4411 1143.4944,-730.3197 1143.064,-723.3329"/>
</g>
<!-- Node230328&#45;&gt;Node230328 -->
<g id="edge30" class="edge">
<title>Node230328&#45;&gt;Node230328</title>
<path fill="none" stroke="#191970" d="M1201.5009,-768.47C1202.6712,-773.7528 1212.0043,-777.816 1229.5,-777.816 1256.1602,-777.816 1263.8666,-768.3813 1252.6194,-759.5731"/>
<polygon fill="#191970" stroke="#191970" points="1204.6403,-770.024 1206.3806,-759.5731 1198.5029,-766.6577 1204.6403,-770.024"/>
</g>
<!-- Node230328&#45;&gt;Node230329 -->
<g id="edge31" class="edge">
<title>Node230328&#45;&gt;Node230329</title>
<path fill="none" stroke="#191970" d="M1279.1041,-737.8481C1301.1753,-732.5229 1326.8027,-726.3398 1347.5419,-721.3361"/>
<polygon fill="#191970" stroke="#191970" points="1278.1441,-734.4792 1269.2439,-740.227 1279.7859,-741.2839 1278.1441,-734.4792"/>
</g>
<!-- Node230329&#45;&gt;Node230330 -->
<g id="edge32" class="edge">
<title>Node230329&#45;&gt;Node230330</title>
<path fill="none" stroke="#191970" d="M1458.1541,-711.816C1466.8227,-711.816 1475.5518,-711.816 1483.8707,-711.816"/>
<polygon fill="#191970" stroke="#191970" points="1458.034,-708.3161 1448.0339,-711.816 1458.0339,-715.3161 1458.034,-708.3161"/>
</g>
<!-- Node230336&#45;&gt;Node230311 -->
<g id="edge37" class="edge">
<title>Node230336&#45;&gt;Node230311</title>
<path fill="none" stroke="#191970" d="M520.8216,-195.2419C598.8204,-192.0108 727.0013,-185.4311 837,-173.816 854.139,-172.0063 872.948,-169.3259 889.1738,-166.7935"/>
<polygon fill="#191970" stroke="#191970" points="520.4747,-191.753 510.6253,-195.657 520.7595,-198.7472 520.4747,-191.753"/>
</g>
<!-- Node230336&#45;&gt;Node230323 -->
<g id="edge38" class="edge">
<title>Node230336&#45;&gt;Node230323</title>
<path fill="none" stroke="#191970" d="M519.6187,-209.0594C617.5003,-225.7913 787.917,-259.4248 837,-297.816 890.7833,-339.8837 917.5981,-421.8115 926.7559,-455.6419"/>
<polygon fill="#191970" stroke="#191970" points="519.952,-205.5661 509.508,-207.347 518.7831,-212.4678 519.952,-205.5661"/>
</g>
<!-- Node230336&#45;&gt;Node230321 -->
<g id="edge35" class="edge">
<title>Node230336&#45;&gt;Node230321</title>
<path fill="none" stroke="#191970" d="M466.4131,-214.2049C500.1711,-245.977 573.5551,-315.0443 600.4013,-340.3114"/>
<polygon fill="#191970" stroke="#191970" points="468.7834,-211.6293 459.1025,-207.3243 463.9858,-216.7267 468.7834,-211.6293"/>
</g>
<!-- Node230321&#45;&gt;Node230310 -->
<g id="edge36" class="edge">
<title>Node230321&#45;&gt;Node230310</title>
<path fill="none" stroke="#191970" d="M647.9849,-363.5185C654.5342,-366.5281 661.1248,-369.979 667,-373.816 706.8978,-399.873 745.4763,-442.1425 761.8226,-461.0884"/>
<polygon fill="#191970" stroke="#191970" points="649.0755,-360.1773 638.507,-359.4313 646.3036,-366.6051 649.0755,-360.1773"/>
</g>
<!-- Node230332&#45;&gt;Node230310 -->
<g id="edge42" class="edge">
<title>Node230332&#45;&gt;Node230310</title>
<path fill="none" stroke="#191970" d="M514.0798,-495.5311C572.7248,-489.8675 658.0548,-481.627 713.7913,-476.2443"/>
<polygon fill="#191970" stroke="#191970" points="513.4344,-492.077 503.8171,-496.5222 514.1073,-499.0446 513.4344,-492.077"/>
</g>
<!-- Node230653&#45;&gt;Node230311 -->
<g id="edge47" class="edge">
<title>Node230653&#45;&gt;Node230311</title>
<path fill="none" stroke="#191970" d="M809.7149,-96.831C818.7947,-100.1392 828.3232,-103.8811 837,-107.816 865.4188,-120.704 896.805,-139.071 915.025,-150.1755"/>
<polygon fill="#191970" stroke="#191970" points="810.6947,-93.465 800.1,-93.423 808.3561,-100.0628 810.6947,-93.465"/>
</g>
<!-- Node230654&#45;&gt;Node230655 -->
<g id="edge51" class="edge">
<title>Node230654&#45;&gt;Node230655</title>
<path fill="none" stroke="#191970" d="M330.1401,-334.9528C334.87,-336.784 339.58,-338.7509 344,-340.816 425.6241,-378.9531 451.4692,-384.0659 518,-444.816 555.6673,-479.2106 587.6616,-531.1221 602.1721,-556.607"/>
<polygon fill="#191970" stroke="#191970" points="331.0834,-331.5703 320.49,-331.3962 328.6627,-338.1385 331.0834,-331.5703"/>
</g>
<!-- Node230654&#45;&gt;Node230318 -->
<g id="edge54" class="edge">
<title>Node230654&#45;&gt;Node230318</title>
<path fill="none" stroke="#191970" d="M294.2839,-302.4984C304.1602,-266.5491 330.1681,-189.1087 380,-145.816 387.2766,-139.4943 396.314,-134.8109 405.4255,-131.3501"/>
<polygon fill="#191970" stroke="#191970" points="290.8807,-301.6784 291.7283,-312.2392 297.6515,-303.4548 290.8807,-301.6784"/>
</g>
<!-- Node230655&#45;&gt;Node230310 -->
<g id="edge53" class="edge">
<title>Node230655&#45;&gt;Node230310</title>
<path fill="none" stroke="#191970" d="M649.6103,-551.8065C655.5006,-548.5758 661.4559,-545.1834 667,-541.816 700.4135,-521.5217 737.7609,-494.665 756.991,-480.5074"/>
<polygon fill="#191970" stroke="#191970" points="647.6225,-548.9016 640.4762,-556.7234 650.9405,-555.0653 647.6225,-548.9016"/>
</g>
<!-- Node230655&#45;&gt;Node230323 -->
<g id="edge52" class="edge">
<title>Node230655&#45;&gt;Node230323</title>
<path fill="none" stroke="#191970" d="M676.1127,-555.1635C721.625,-543.1538 783.4465,-525.9262 837,-507.816 856.3488,-501.2729 877.5416,-492.9821 894.8514,-485.9079"/>
<polygon fill="#191970" stroke="#191970" points="675.1513,-551.7972 666.3674,-557.7211 676.9283,-558.5679 675.1513,-551.7972"/>
</g>
<!-- Node230318&#45;&gt;Node230311 -->
<g id="edge55" class="edge">
<title>Node230318&#45;&gt;Node230311</title>
<path fill="none" stroke="#191970" d="M528.4899,-124.7119C607.0351,-128.0491 730.5341,-134.574 837,-145.816 854.139,-147.6258 872.948,-150.3062 889.1738,-152.8385"/>
<polygon fill="#191970" stroke="#191970" points="528.3252,-121.2021 518.1878,-124.2816 528.0329,-128.196 528.3252,-121.2021"/>
</g>
<!-- Node230658&#45;&gt;Node230323 -->
<g id="edge62" class="edge">
<title>Node230658&#45;&gt;Node230323</title>
<path fill="none" stroke="#191970" d="M795.2182,-581.9206C808.0489,-574.023 823.7017,-563.8895 837,-553.816 865.8946,-531.9286 896.8799,-503.2766 914.9321,-485.9999"/>
<polygon fill="#191970" stroke="#191970" points="793.181,-579.0627 786.4482,-587.2432 796.8129,-585.0468 793.181,-579.0627"/>
</g>
</g>
</svg>
