<?xml version="1.0" encoding="UTF-8" standalone="no"?>
<!DOCTYPE svg PUBLIC "-//W3C//DTD SVG 1.1//EN"
 "http://www.w3.org/Graphics/SVG/1.1/DTD/svg11.dtd">
<!-- Generated by graphviz version 2.40.1 (20161225.0304)
 -->
<!-- Title: js_std_urlGet Pages: 1 -->
<!--zoomable 788 -->
<svg id="main" version="1.1" xmlns="http://www.w3.org/2000/svg" xmlns:xlink="http://www.w3.org/1999/xlink" xml:space="preserve" onload="init(evt)">
<style type="text/css"><![CDATA[
.edge:hover path { stroke: red; }
.edge:hover polygon { stroke: red; fill: red; }
]]></style>
<script type="text/javascript"><![CDATA[
var edges = document.getElementsByTagName('g');
if (edges && edges.length) {
  for (var i=0;i<edges.length;i++) {
    if (edges[i].id.substr(0,4)=='edge') {
      edges[i].setAttribute('class','edge');
    }
  }
}
]]></script>
        <defs>
                <circle id="rim" cx="0" cy="0" r="7"/>
                <circle id="rim2" cx="0" cy="0" r="3.5"/>
                <g id="zoomPlus">
                        <use xlink:href="#rim" fill="#404040">
                                <set attributeName="fill" to="#808080" begin="zoomplus.mouseover" end="zoomplus.mouseout"/>
                        </use>
                        <path d="M-4,0h8M0,-4v8" fill="none" stroke="white" stroke-width="1.5" pointer-events="none"/>
                </g>
                <g id="zoomMin">
                        <use xlink:href="#rim" fill="#404040">
                                <set attributeName="fill" to="#808080" begin="zoomminus.mouseover" end="zoomminus.mouseout"/>
                        </use>
                        <path d="M-4,0h8" fill="none" stroke="white" stroke-width="1.5" pointer-events="none"/>
                </g>
                <g id="dirArrow">
                        <path fill="none" stroke="white" stroke-width="1.5" d="M0,-3.0v7 M-2.5,-0.5L0,-3.0L2.5,-0.5"/>
                </g>
               <g id="resetDef">
                       <use xlink:href="#rim2" fill="#404040">
                               <set attributeName="fill" to="#808080" begin="reset.mouseover" end="reset.mouseout"/>
                       </use>
               </g>
        </defs>

<script type="text/javascript">
var viewWidth = 634;
var viewHeight = 788;
var sectionId = 'dynsection-56';
</script>
<script xlink:href="svgpan.js"/>
<svg id="graph" class="graph">
<g id="viewport">
<title>js_std_urlGet</title>
<!-- Node10832 -->
<g id="node1" class="node">
<title>Node10832</title>
<polygon fill="#bfbfbf" stroke="#000000" points="0,-380.5 0,-399.5 74,-399.5 74,-380.5 0,-380.5"/>
<text text-anchor="middle" x="37" y="-387.5" font-family="Helvetica,sans-Serif" font-size="10.00" fill="#000000">js_std_urlGet</text>
</g>
<!-- Node10833 -->
<g id="node2" class="node">
<title>Node10833</title>
<g id="a_node2"><a xlink:href="cutils_8h.html#a7e3df12bda422b64b14ec2fc2f487c5f" target="_top" xlink:title="__attribute__">
<polygon fill="none" stroke="#000000" points="142,-760.5 142,-779.5 215,-779.5 215,-760.5 142,-760.5"/>
<text text-anchor="middle" x="178.5" y="-767.5" font-family="Helvetica,sans-Serif" font-size="10.00" fill="#000000">__attribute__</text>
</a>
</g>
</g>
<!-- Node10832&#45;&gt;Node10833 -->
<g id="edge1" class="edge">
<title>Node10832&#45;&gt;Node10833</title>
<path fill="none" stroke="#191970" d="M37.6225,-399.7516C41.1442,-451.9075 60.2102,-697.5411 110,-751 115.9247,-757.3613 123.7748,-761.6604 132.0424,-764.5505"/>
<polygon fill="#191970" stroke="#191970" points="131.2735,-767.9705 141.8492,-767.3353 133.1856,-761.2367 131.2735,-767.9705"/>
</g>
<!-- Node10834 -->
<g id="node3" class="node">
<title>Node10834</title>
<g id="a_node3"><a xlink:href="cutils_8h.html#a1fed0a329cb7bb0e04283285037921a4" target="_top" xlink:title="dbuf_error">
<polygon fill="none" stroke="#000000" points="148.5,-722.5 148.5,-741.5 208.5,-741.5 208.5,-722.5 148.5,-722.5"/>
<text text-anchor="middle" x="178.5" y="-729.5" font-family="Helvetica,sans-Serif" font-size="10.00" fill="#000000">dbuf_error</text>
</a>
</g>
</g>
<!-- Node10832&#45;&gt;Node10834 -->
<g id="edge2" class="edge">
<title>Node10832&#45;&gt;Node10834</title>
<path fill="none" stroke="#191970" d="M37.8652,-399.6771C42.4041,-448.3318 64.9875,-665.7592 110,-713 117.4838,-720.8543 127.905,-725.5548 138.3638,-728.3414"/>
<polygon fill="#191970" stroke="#191970" points="137.7975,-731.7994 148.3082,-730.4671 139.2608,-724.954 137.7975,-731.7994"/>
</g>
<!-- Node10835 -->
<g id="node4" class="node">
<title>Node10835</title>
<g id="a_node4"><a xlink:href="cutils_8h.html#a8a3b715fc2146312b777c4e3db546b55" target="_top" xlink:title="dbuf_free">
<polygon fill="none" stroke="#000000" points="150,-684.5 150,-703.5 207,-703.5 207,-684.5 150,-684.5"/>
<text text-anchor="middle" x="178.5" y="-691.5" font-family="Helvetica,sans-Serif" font-size="10.00" fill="#000000">dbuf_free</text>
</a>
</g>
</g>
<!-- Node10832&#45;&gt;Node10835 -->
<g id="edge3" class="edge">
<title>Node10832&#45;&gt;Node10835</title>
<path fill="none" stroke="#191970" d="M38.3084,-399.791C44.4572,-444.4604 71.7934,-628.5261 110,-670 117.8441,-678.5149 128.8807,-684.0093 139.808,-687.5544"/>
<polygon fill="#191970" stroke="#191970" points="139.1468,-691.0028 149.7178,-690.2928 141.0113,-684.2556 139.1468,-691.0028"/>
</g>
<!-- Node10836 -->
<g id="node5" class="node">
<title>Node10836</title>
<g id="a_node5"><a xlink:href="cutils_8h.html#ad1cfaae47347ae771136b5a9bbda49aa" target="_top" xlink:title="dbuf_put">
<polygon fill="none" stroke="#000000" points="455,-608.5 455,-627.5 509,-627.5 509,-608.5 455,-608.5"/>
<text text-anchor="middle" x="482" y="-615.5" font-family="Helvetica,sans-Serif" font-size="10.00" fill="#000000">dbuf_put</text>
</a>
</g>
</g>
<!-- Node10832&#45;&gt;Node10836 -->
<g id="edge4" class="edge">
<title>Node10832&#45;&gt;Node10836</title>
<path fill="none" stroke="#191970" d="M38.3353,-399.7672C44.3103,-441.8813 70.0604,-607.1566 110,-637 162.8706,-676.5056 341.5072,-645.1668 407,-637 419.6,-635.4288 433.1212,-632.4272 445.1652,-629.2659"/>
<polygon fill="#191970" stroke="#191970" points="446.1641,-632.6213 454.8821,-626.6007 444.3124,-625.8706 446.1641,-632.6213"/>
</g>
<!-- Node10838 -->
<g id="node7" class="node">
<title>Node10838</title>
<g id="a_node7"><a xlink:href="cutils_8h.html#aeed81d4787ccdbd55baa9b5fd6717e88" target="_top" xlink:title="dbuf_putc">
<polygon fill="none" stroke="#000000" points="315.5,-608.5 315.5,-627.5 374.5,-627.5 374.5,-608.5 315.5,-608.5"/>
<text text-anchor="middle" x="345" y="-615.5" font-family="Helvetica,sans-Serif" font-size="10.00" fill="#000000">dbuf_putc</text>
</a>
</g>
</g>
<!-- Node10832&#45;&gt;Node10838 -->
<g id="edge6" class="edge">
<title>Node10832&#45;&gt;Node10838</title>
<path fill="none" stroke="#191970" d="M38.4399,-399.7871C43.1281,-428.0657 60.6106,-510.5665 110,-553 124.9411,-565.8368 242.3935,-594.3702 305.3861,-608.9877"/>
<polygon fill="#191970" stroke="#191970" points="304.842,-612.4541 315.3731,-611.2945 306.4174,-605.6337 304.842,-612.4541"/>
</g>
<!-- Node10839 -->
<g id="node8" class="node">
<title>Node10839</title>
<g id="a_node8"><a xlink:href="cutils_8h.html#a98c263f386a9b5533df32892c18febfc" target="_top" xlink:title="dbuf_putstr">
<polygon fill="none" stroke="#000000" points="312.5,-570.5 312.5,-589.5 377.5,-589.5 377.5,-570.5 312.5,-570.5"/>
<text text-anchor="middle" x="345" y="-577.5" font-family="Helvetica,sans-Serif" font-size="10.00" fill="#000000">dbuf_putstr</text>
</a>
</g>
</g>
<!-- Node10832&#45;&gt;Node10839 -->
<g id="edge8" class="edge">
<title>Node10832&#45;&gt;Node10839</title>
<path fill="none" stroke="#191970" d="M39.6903,-399.7621C46.8336,-423.8001 68.6198,-486.2002 110,-518 139.9047,-540.9811 242.6377,-562.0997 301.9036,-572.7506"/>
<polygon fill="#191970" stroke="#191970" points="301.6263,-576.2559 312.0835,-574.5541 302.8474,-569.3633 301.6263,-576.2559"/>
</g>
<!-- Node10840 -->
<g id="node9" class="node">
<title>Node10840</title>
<g id="a_node9"><a xlink:href="quickjs-libc_8c.html#ad94572b16428965bd7780a285c188c77" target="_top" xlink:title="get_bool_option">
<polygon fill="none" stroke="#000000" points="136,-380.5 136,-399.5 221,-399.5 221,-380.5 136,-380.5"/>
<text text-anchor="middle" x="178.5" y="-387.5" font-family="Helvetica,sans-Serif" font-size="10.00" fill="#000000">get_bool_option</text>
</a>
</g>
</g>
<!-- Node10832&#45;&gt;Node10840 -->
<g id="edge10" class="edge">
<title>Node10832&#45;&gt;Node10840</title>
<path fill="none" stroke="#191970" d="M74.1775,-390C89.8414,-390 108.3635,-390 125.4214,-390"/>
<polygon fill="#191970" stroke="#191970" points="125.8145,-393.5001 135.8144,-390 125.8144,-386.5001 125.8145,-393.5001"/>
</g>
<!-- Node10841 -->
<g id="node10" class="node">
<title>Node10841</title>
<g id="a_node10"><a xlink:href="quickjs_8h.html#afaa20c47565bc704c6c85f3d77254e7d" target="_top" xlink:title="JS_FreeValue">
<polygon fill="none" stroke="#ff0000" points="443,-475.5 443,-494.5 521,-494.5 521,-475.5 443,-475.5"/>
<text text-anchor="middle" x="482" y="-482.5" font-family="Helvetica,sans-Serif" font-size="10.00" fill="#000000">JS_FreeValue</text>
</a>
</g>
</g>
<!-- Node10832&#45;&gt;Node10841 -->
<g id="edge30" class="edge">
<title>Node10832&#45;&gt;Node10841</title>
<path fill="none" stroke="#191970" d="M41.7442,-399.5475C51.655,-418.4532 76.4488,-460.666 110,-482 126.67,-492.5999 263.3789,-520.7067 283,-523 337.7385,-529.3977 353.397,-535.8045 407,-523 425.7504,-518.5209 445.1156,-508.5496 459.4708,-499.945"/>
<polygon fill="#191970" stroke="#191970" points="461.4834,-502.8149 468.1239,-494.5594 457.7845,-496.872 461.4834,-502.8149"/>
</g>
<!-- Node10910 -->
<g id="node14" class="node">
<title>Node10910</title>
<g id="a_node14"><a xlink:href="quickjs_8h.html#ad80a83d73e9b7d872b88fbf2943aebe9" target="_top" xlink:title="JS_IsException">
<polygon fill="none" stroke="#000000" points="302,-190.5 302,-209.5 388,-209.5 388,-190.5 302,-190.5"/>
<text text-anchor="middle" x="345" y="-197.5" font-family="Helvetica,sans-Serif" font-size="10.00" fill="#000000">JS_IsException</text>
</a>
</g>
</g>
<!-- Node10832&#45;&gt;Node10910 -->
<g id="edge31" class="edge">
<title>Node10832&#45;&gt;Node10910</title>
<path fill="none" stroke="#191970" d="M73.2403,-380.3967C132.895,-364.557 245.3989,-334.537 247,-333 285.3299,-296.2042 245.2697,-256.4104 283,-219 285.8855,-216.139 289.1898,-213.707 292.7374,-211.64"/>
<polygon fill="#191970" stroke="#191970" points="294.4548,-214.6981 301.9573,-207.2172 291.4272,-208.3867 294.4548,-214.6981"/>
</g>
<!-- Node11268 -->
<g id="node17" class="node">
<title>Node11268</title>
<g id="a_node17"><a xlink:href="quickjs-libc_8c.html#a05faf7ad5bf041ae72b75bf310302de2" target="_top" xlink:title="http_get_header_line">
<polygon fill="none" stroke="#000000" points="125,-608.5 125,-627.5 232,-627.5 232,-608.5 125,-608.5"/>
<text text-anchor="middle" x="178.5" y="-615.5" font-family="Helvetica,sans-Serif" font-size="10.00" fill="#000000">http_get_header_line</text>
</a>
</g>
</g>
<!-- Node10832&#45;&gt;Node11268 -->
<g id="edge18" class="edge">
<title>Node10832&#45;&gt;Node11268</title>
<path fill="none" stroke="#191970" d="M37.6025,-399.6359C40.132,-431.8545 52.6235,-537.0035 110,-594 113.9671,-597.9408 118.6171,-601.2366 123.594,-603.9924"/>
<polygon fill="#191970" stroke="#191970" points="122.2956,-607.2507 132.8287,-608.3927 125.3067,-600.9314 122.2956,-607.2507"/>
</g>
<!-- Node11269 -->
<g id="node18" class="node">
<title>Node11269</title>
<g id="a_node18"><a xlink:href="quickjs-libc_8c.html#aba868ba34ac6269e167db5369274cd89" target="_top" xlink:title="http_get_status">
<polygon fill="none" stroke="#000000" points="136.5,-304.5 136.5,-323.5 220.5,-323.5 220.5,-304.5 136.5,-304.5"/>
<text text-anchor="middle" x="178.5" y="-311.5" font-family="Helvetica,sans-Serif" font-size="10.00" fill="#000000">http_get_status</text>
</a>
</g>
</g>
<!-- Node10832&#45;&gt;Node11269 -->
<g id="edge20" class="edge">
<title>Node10832&#45;&gt;Node11269</title>
<path fill="none" stroke="#191970" d="M48.2278,-380.4571C62.0276,-369.1061 86.5122,-350.1677 110,-338 118.0482,-333.8307 126.9815,-330.1096 135.6673,-326.914"/>
<polygon fill="#191970" stroke="#191970" points="137.0296,-330.1453 145.3082,-323.5335 134.7134,-323.5397 137.0296,-330.1453"/>
</g>
<!-- Node11270 -->
<g id="node19" class="node">
<title>Node11270</title>
<g id="a_node19"><a xlink:href="quickjs_8c.html#a841f4cb887e4d9e03e94a0697255e578" target="_top" xlink:title="JS_DefinePropertyValueStr">
<polygon fill="none" stroke="#000000" points="110,-418.5 110,-437.5 247,-437.5 247,-418.5 110,-418.5"/>
<text text-anchor="middle" x="178.5" y="-425.5" font-family="Helvetica,sans-Serif" font-size="10.00" fill="#000000">JS_DefinePropertyValueStr</text>
</a>
</g>
</g>
<!-- Node10832&#45;&gt;Node11270 -->
<g id="edge21" class="edge">
<title>Node10832&#45;&gt;Node11270</title>
<path fill="none" stroke="#191970" d="M72.7064,-399.589C90.9727,-404.4944 113.4084,-410.5196 132.9112,-415.7571"/>
<polygon fill="#191970" stroke="#191970" points="132.2394,-419.2006 142.805,-418.4141 134.055,-412.4401 132.2394,-419.2006"/>
</g>
<!-- Node10863 -->
<g id="node21" class="node">
<title>Node10863</title>
<g id="a_node21"><a xlink:href="quickjs_8c.html#a80e54dcf9ac687d4ccc2f90273565f30" target="_top" xlink:title="js_free">
<polygon fill="none" stroke="#000000" points="155.5,-266.5 155.5,-285.5 201.5,-285.5 201.5,-266.5 155.5,-266.5"/>
<text text-anchor="middle" x="178.5" y="-273.5" font-family="Helvetica,sans-Serif" font-size="10.00" fill="#000000">js_free</text>
</a>
</g>
</g>
<!-- Node10832&#45;&gt;Node10863 -->
<g id="edge26" class="edge">
<title>Node10832&#45;&gt;Node10863</title>
<path fill="none" stroke="#191970" d="M41.7303,-380.2503C51.616,-360.9242 76.3669,-317.6701 110,-295 120.4479,-287.9577 133.4571,-283.5105 145.3229,-280.7086"/>
<polygon fill="#191970" stroke="#191970" points="146.2719,-284.0869 155.363,-278.646 144.8632,-277.2301 146.2719,-284.0869"/>
</g>
<!-- Node11018 -->
<g id="node23" class="node">
<title>Node11018</title>
<g id="a_node23"><a xlink:href="quickjs_8c.html#ae0bc4f65da64810facb2cb9e476eda2e" target="_top" xlink:title="JS_FreeCString">
<polygon fill="none" stroke="#000000" points="302,-494.5 302,-513.5 388,-513.5 388,-494.5 302,-494.5"/>
<text text-anchor="middle" x="345" y="-501.5" font-family="Helvetica,sans-Serif" font-size="10.00" fill="#000000">JS_FreeCString</text>
</a>
</g>
</g>
<!-- Node10832&#45;&gt;Node11018 -->
<g id="edge28" class="edge">
<title>Node10832&#45;&gt;Node11018</title>
<path fill="none" stroke="#191970" d="M46.4672,-399.6106C59.573,-412.3581 84.523,-434.6792 110,-447 168.7483,-475.4111 242.7954,-490.3352 291.9023,-497.676"/>
<polygon fill="#191970" stroke="#191970" points="291.5911,-501.1672 301.9881,-499.1294 292.5896,-494.2388 291.5911,-501.1672"/>
</g>
<!-- Node11008 -->
<g id="node24" class="node">
<title>Node11008</title>
<g id="a_node24"><a xlink:href="quickjs_8h.html#a149f24b67e745bad93573b3b4c80db4c" target="_top" xlink:title="JS_IsNull">
<polygon fill="none" stroke="#000000" points="149,-228.5 149,-247.5 208,-247.5 208,-228.5 149,-228.5"/>
<text text-anchor="middle" x="178.5" y="-235.5" font-family="Helvetica,sans-Serif" font-size="10.00" fill="#000000">JS_IsNull</text>
</a>
</g>
</g>
<!-- Node10832&#45;&gt;Node11008 -->
<g id="edge32" class="edge">
<title>Node10832&#45;&gt;Node11008</title>
<path fill="none" stroke="#191970" d="M39.4969,-380.2584C46.3213,-355.6412 67.6662,-290.5181 110,-257 118.2728,-250.45 128.6605,-246.1558 138.8276,-243.3412"/>
<polygon fill="#191970" stroke="#191970" points="139.8997,-246.6848 148.8347,-240.9912 138.2993,-239.8702 139.8997,-246.6848"/>
</g>
<!-- Node11271 -->
<g id="node25" class="node">
<title>Node11271</title>
<g id="a_node25"><a xlink:href="quickjs_8c.html#afd4c101057712f68796803cf81501264" target="_top" xlink:title="JS_NewArrayBufferCopy">
<polygon fill="none" stroke="#ff0000" points="115,-190.5 115,-209.5 242,-209.5 242,-190.5 115,-190.5"/>
<text text-anchor="middle" x="178.5" y="-197.5" font-family="Helvetica,sans-Serif" font-size="10.00" fill="#000000">JS_NewArrayBufferCopy</text>
</a>
</g>
</g>
<!-- Node10832&#45;&gt;Node11271 -->
<g id="edge33" class="edge">
<title>Node10832&#45;&gt;Node11271</title>
<path fill="none" stroke="#191970" d="M38.2229,-380.1644C42.3899,-350.9364 58.7472,-263.8564 110,-219 111.9502,-217.2931 114.0415,-215.7385 116.2374,-214.3225"/>
<polygon fill="#191970" stroke="#191970" points="118.0069,-217.3449 125.1499,-209.52 114.6863,-211.1826 118.0069,-217.3449"/>
</g>
<!-- Node10929 -->
<g id="node26" class="node">
<title>Node10929</title>
<g id="a_node26"><a xlink:href="quickjs_8h.html#a2050bc428da1c65ac7eb87c3fa3b0392" target="_top" xlink:title="JS_NewInt32">
<polygon fill="none" stroke="#000000" points="140.5,-152.5 140.5,-171.5 216.5,-171.5 216.5,-152.5 140.5,-152.5"/>
<text text-anchor="middle" x="178.5" y="-159.5" font-family="Helvetica,sans-Serif" font-size="10.00" fill="#000000">JS_NewInt32</text>
</a>
</g>
</g>
<!-- Node10832&#45;&gt;Node10929 -->
<g id="edge34" class="edge">
<title>Node10832&#45;&gt;Node10929</title>
<path fill="none" stroke="#191970" d="M37.3518,-380.4434C39.0951,-347.5245 49.4075,-237.7502 110,-181 115.8268,-175.5427 123.0826,-171.6302 130.6732,-168.8303"/>
<polygon fill="#191970" stroke="#191970" points="131.8538,-172.1291 140.3847,-165.8462 129.7977,-165.4379 131.8538,-172.1291"/>
</g>
<!-- Node11093 -->
<g id="node27" class="node">
<title>Node11093</title>
<g id="a_node27"><a xlink:href="quickjs_8c.html#afc0d8ea75588216ec132a6e1655524a7" target="_top" xlink:title="JS_NewObject">
<polygon fill="none" stroke="#ff0000" points="137,-114.5 137,-133.5 220,-133.5 220,-114.5 137,-114.5"/>
<text text-anchor="middle" x="178.5" y="-121.5" font-family="Helvetica,sans-Serif" font-size="10.00" fill="#000000">JS_NewObject</text>
</a>
</g>
</g>
<!-- Node10832&#45;&gt;Node11093 -->
<g id="edge35" class="edge">
<title>Node10832&#45;&gt;Node11093</title>
<path fill="none" stroke="#191970" d="M38.5542,-380.4877C45.4421,-339.4372 74.4504,-177.9575 110,-143 114.9072,-138.1746 120.9269,-134.5498 127.3416,-131.8317"/>
<polygon fill="#191970" stroke="#191970" points="128.6621,-135.0776 136.939,-128.4637 126.3441,-128.4725 128.6621,-135.0776"/>
</g>
<!-- Node10884 -->
<g id="node28" class="node">
<title>Node10884</title>
<g id="a_node28"><a xlink:href="quickjs_8c.html#ac34cc554aab1e98c45a7f845fff64385" target="_top" xlink:title="JS_NewStringLen">
<polygon fill="none" stroke="#ff0000" points="131,-76.5 131,-95.5 226,-95.5 226,-76.5 131,-76.5"/>
<text text-anchor="middle" x="178.5" y="-83.5" font-family="Helvetica,sans-Serif" font-size="10.00" fill="#000000">JS_NewStringLen</text>
</a>
</g>
</g>
<!-- Node10832&#45;&gt;Node10884 -->
<g id="edge36" class="edge">
<title>Node10832&#45;&gt;Node10884</title>
<path fill="none" stroke="#191970" d="M38.1825,-380.2797C43.8669,-335.0931 69.7736,-146.0318 110,-105 113.3857,-101.5465 117.34,-98.7051 121.6094,-96.3693"/>
<polygon fill="#191970" stroke="#191970" points="123.0597,-99.5548 130.7345,-92.2508 120.18,-93.1746 123.0597,-99.5548"/>
</g>
<!-- Node11274 -->
<g id="node29" class="node">
<title>Node11274</title>
<g id="a_node29"><a xlink:href="quickjs-libc_8c.html#abc010e21334ba999f6ad18a681caf4fb" target="_top" xlink:title="js_std_dbuf_init">
<polygon fill="none" stroke="#ff0000" points="136,-38.5 136,-57.5 221,-57.5 221,-38.5 136,-38.5"/>
<text text-anchor="middle" x="178.5" y="-45.5" font-family="Helvetica,sans-Serif" font-size="10.00" fill="#000000">js_std_dbuf_init</text>
</a>
</g>
</g>
<!-- Node10832&#45;&gt;Node11274 -->
<g id="edge37" class="edge">
<title>Node10832&#45;&gt;Node11274</title>
<path fill="none" stroke="#191970" d="M37.8652,-380.3229C42.4041,-331.6682 64.9875,-114.2408 110,-67 114.5254,-62.2506 120.1249,-58.6543 126.1572,-55.9371"/>
<polygon fill="#191970" stroke="#191970" points="127.7249,-59.0897 135.9008,-52.3514 125.3073,-52.5205 127.7249,-59.0897"/>
</g>
<!-- Node11001 -->
<g id="node30" class="node">
<title>Node11001</title>
<g id="a_node30"><a xlink:href="quickjs_8h.html#af931f06630ab719b5f82a16eb27effd1" target="_top" xlink:title="JS_ToCString">
<polygon fill="none" stroke="#ff0000" points="139.5,-.5 139.5,-19.5 217.5,-19.5 217.5,-.5 139.5,-.5"/>
<text text-anchor="middle" x="178.5" y="-7.5" font-family="Helvetica,sans-Serif" font-size="10.00" fill="#000000">JS_ToCString</text>
</a>
</g>
</g>
<!-- Node10832&#45;&gt;Node11001 -->
<g id="edge38" class="edge">
<title>Node10832&#45;&gt;Node11001</title>
<path fill="none" stroke="#191970" d="M37.6225,-380.2484C41.1442,-328.0925 60.2102,-82.4589 110,-29 115.3819,-23.2215 122.3526,-19.1447 129.7818,-16.2798"/>
<polygon fill="#191970" stroke="#191970" points="130.8675,-19.6074 139.3522,-13.2623 128.7625,-12.9314 130.8675,-19.6074"/>
</g>
<!-- Node10837 -->
<g id="node6" class="node">
<title>Node10837</title>
<g id="a_node6"><a xlink:href="cutils_8h.html#ac0b9ce26415947e972d6781d9f2fb11b" target="_top" xlink:title="dbuf_realloc">
<polygon fill="none" stroke="#000000" points="557,-608.5 557,-627.5 626,-627.5 626,-608.5 557,-608.5"/>
<text text-anchor="middle" x="591.5" y="-615.5" font-family="Helvetica,sans-Serif" font-size="10.00" fill="#000000">dbuf_realloc</text>
</a>
</g>
</g>
<!-- Node10836&#45;&gt;Node10837 -->
<g id="edge5" class="edge">
<title>Node10836&#45;&gt;Node10837</title>
<path fill="none" stroke="#191970" d="M509.0674,-618C520.4613,-618 534.0257,-618 546.8286,-618"/>
<polygon fill="#191970" stroke="#191970" points="546.877,-621.5001 556.877,-618 546.877,-614.5001 546.877,-621.5001"/>
</g>
<!-- Node10838&#45;&gt;Node10836 -->
<g id="edge7" class="edge">
<title>Node10838&#45;&gt;Node10836</title>
<path fill="none" stroke="#191970" d="M374.727,-618C395.1513,-618 422.4327,-618 444.3717,-618"/>
<polygon fill="#191970" stroke="#191970" points="444.6592,-621.5001 454.6592,-618 444.6591,-614.5001 444.6592,-621.5001"/>
</g>
<!-- Node10839&#45;&gt;Node10836 -->
<g id="edge9" class="edge">
<title>Node10839&#45;&gt;Node10836</title>
<path fill="none" stroke="#191970" d="M377.8149,-589.1019C398.0875,-594.725 424.1454,-601.9527 445.1293,-607.7731"/>
<polygon fill="#191970" stroke="#191970" points="444.4037,-611.2039 454.9754,-610.5041 446.2747,-604.4586 444.4037,-611.2039"/>
</g>
<!-- Node10840&#45;&gt;Node10841 -->
<g id="edge11" class="edge">
<title>Node10840&#45;&gt;Node10841</title>
<path fill="none" stroke="#191970" d="M221.0522,-397.6389C267.5991,-406.6755 343.9768,-423.5139 407,-447 424.1144,-453.3778 442.416,-462.5991 456.6557,-470.3606"/>
<polygon fill="#191970" stroke="#191970" points="455.3602,-473.645 465.8005,-475.4479 458.7632,-467.5278 455.3602,-473.645"/>
</g>
<!-- Node10878 -->
<g id="node11" class="node">
<title>Node10878</title>
<g id="a_node11"><a xlink:href="quickjs_8c.html#a04f589361a4fbc30d997402e92a50de2" target="_top" xlink:title="JS_GetPropertyStr">
<polygon fill="none" stroke="#ff0000" points="295.5,-304.5 295.5,-323.5 394.5,-323.5 394.5,-304.5 295.5,-304.5"/>
<text text-anchor="middle" x="345" y="-311.5" font-family="Helvetica,sans-Serif" font-size="10.00" fill="#000000">JS_GetPropertyStr</text>
</a>
</g>
</g>
<!-- Node10840&#45;&gt;Node10878 -->
<g id="edge12" class="edge">
<title>Node10840&#45;&gt;Node10878</title>
<path fill="none" stroke="#191970" d="M212.5286,-380.4954C223.8336,-376.712 236.2675,-371.8496 247,-366 264.7979,-356.2996 265.3612,-347.9869 283,-338 290.0622,-334.0014 297.9221,-330.3889 305.6088,-327.2519"/>
<polygon fill="#191970" stroke="#191970" points="307.1221,-330.4191 315.1796,-323.5395 304.5906,-323.8928 307.1221,-330.4191"/>
</g>
<!-- Node10840&#45;&gt;Node10910 -->
<g id="edge15" class="edge">
<title>Node10840&#45;&gt;Node10910</title>
<path fill="none" stroke="#191970" d="M221.1499,-382.2836C230.7638,-378.7362 240.1403,-373.5582 247,-366 292.2053,-316.1911 236.8166,-267.9033 283,-219 285.8322,-216.001 289.1238,-213.4712 292.6852,-211.3378"/>
<polygon fill="#191970" stroke="#191970" points="294.5269,-214.334 301.9859,-206.8097 291.4628,-208.0403 294.5269,-214.334"/>
</g>
<!-- Node11007 -->
<g id="node15" class="node">
<title>Node11007</title>
<g id="a_node15"><a xlink:href="quickjs_8h.html#a4e407128a9605afb77523e49e9a627fd" target="_top" xlink:title="JS_IsUndefined">
<polygon fill="none" stroke="#000000" points="302,-266.5 302,-285.5 388,-285.5 388,-266.5 302,-266.5"/>
<text text-anchor="middle" x="345" y="-273.5" font-family="Helvetica,sans-Serif" font-size="10.00" fill="#000000">JS_IsUndefined</text>
</a>
</g>
</g>
<!-- Node10840&#45;&gt;Node11007 -->
<g id="edge16" class="edge">
<title>Node10840&#45;&gt;Node11007</title>
<path fill="none" stroke="#191970" d="M221.0733,-380.7185C230.3583,-377.2332 239.6058,-372.4756 247,-366 273.6161,-342.6904 255.9272,-317.7776 283,-295 285.929,-292.5357 289.1735,-290.3909 292.5982,-288.5241"/>
<polygon fill="#191970" stroke="#191970" points="294.3689,-291.5622 301.9912,-284.2036 291.4436,-285.2027 294.3689,-291.5622"/>
</g>
<!-- Node11267 -->
<g id="node16" class="node">
<title>Node11267</title>
<g id="a_node16"><a xlink:href="quickjs_8c.html#a525bb5bdbab2566313d9bcd876838d9d" target="_top" xlink:title="JS_ToBool">
<polygon fill="none" stroke="#ff0000" points="312.5,-228.5 312.5,-247.5 377.5,-247.5 377.5,-228.5 312.5,-228.5"/>
<text text-anchor="middle" x="345" y="-235.5" font-family="Helvetica,sans-Serif" font-size="10.00" fill="#000000">JS_ToBool</text>
</a>
</g>
</g>
<!-- Node10840&#45;&gt;Node11267 -->
<g id="edge17" class="edge">
<title>Node10840&#45;&gt;Node11267</title>
<path fill="none" stroke="#191970" d="M221.0962,-381.7647C230.5978,-378.233 239.9362,-373.1922 247,-366 282.7492,-329.6013 246.5366,-292.6831 283,-257 288.4211,-251.6949 295.2832,-247.8661 302.4523,-245.1041"/>
<polygon fill="#191970" stroke="#191970" points="303.8479,-248.3329 312.3121,-241.9605 301.7215,-241.6636 303.8479,-248.3329"/>
</g>
<!-- Node10879 -->
<g id="node12" class="node">
<title>Node10879</title>
<g id="a_node12"><a xlink:href="quickjs_8c.html#aa2ef5af1544a3012f91a80c98c326b8f" target="_top" xlink:title="JS_NewAtom">
<polygon fill="none" stroke="#ff0000" points="443.5,-399.5 443.5,-418.5 520.5,-418.5 520.5,-399.5 443.5,-399.5"/>
<text text-anchor="middle" x="482" y="-406.5" font-family="Helvetica,sans-Serif" font-size="10.00" fill="#000000">JS_NewAtom</text>
</a>
</g>
</g>
<!-- Node10878&#45;&gt;Node10879 -->
<g id="edge13" class="edge">
<title>Node10878&#45;&gt;Node10879</title>
<path fill="none" stroke="#191970" d="M358.8902,-323.6319C382.584,-340.0619 431.0142,-373.6449 459.5601,-393.4395"/>
<polygon fill="#191970" stroke="#191970" points="457.861,-396.5204 468.073,-399.3426 461.8498,-390.7681 457.861,-396.5204"/>
</g>
<!-- Node10860 -->
<g id="node13" class="node">
<title>Node10860</title>
<g id="a_node13"><a xlink:href="quickjs_8c.html#ab7fc45a99935a1c0ba50b0216d9401a9" target="_top" xlink:title="JS_FreeAtom">
<polygon fill="none" stroke="#ff0000" points="443.5,-323.5 443.5,-342.5 520.5,-342.5 520.5,-323.5 443.5,-323.5"/>
<text text-anchor="middle" x="482" y="-330.5" font-family="Helvetica,sans-Serif" font-size="10.00" fill="#000000">JS_FreeAtom</text>
</a>
</g>
</g>
<!-- Node10878&#45;&gt;Node10860 -->
<g id="edge14" class="edge">
<title>Node10878&#45;&gt;Node10860</title>
<path fill="none" stroke="#191970" d="M394.8477,-320.9132C407.2801,-322.6374 420.5999,-324.4847 432.9914,-326.2032"/>
<polygon fill="#191970" stroke="#191970" points="432.756,-329.704 443.1421,-327.6109 433.7177,-322.7703 432.756,-329.704"/>
</g>
<!-- Node11268&#45;&gt;Node10838 -->
<g id="edge19" class="edge">
<title>Node11268&#45;&gt;Node10838</title>
<path fill="none" stroke="#191970" d="M232.0981,-618C255.7901,-618 283.1676,-618 305.0294,-618"/>
<polygon fill="#191970" stroke="#191970" points="305.2782,-621.5001 315.2781,-618 305.2781,-614.5001 305.2782,-621.5001"/>
</g>
<!-- Node11270&#45;&gt;Node10879 -->
<g id="edge22" class="edge">
<title>Node11270&#45;&gt;Node10879</title>
<path fill="none" stroke="#191970" d="M247.3688,-423.6886C303.8634,-420.1519 382.4654,-415.2312 432.7923,-412.0805"/>
<polygon fill="#191970" stroke="#191970" points="433.3225,-415.5543 443.0842,-411.4362 432.8851,-408.568 433.3225,-415.5543"/>
</g>
<!-- Node11270&#45;&gt;Node10860 -->
<g id="edge25" class="edge">
<title>Node11270&#45;&gt;Node10860</title>
<path fill="none" stroke="#191970" d="M214.1349,-418.4228C224.7374,-415.4905 236.3619,-412.194 247,-409 317.017,-387.9779 398.0031,-361.2483 444.2936,-345.7372"/>
<polygon fill="#191970" stroke="#191970" points="445.5387,-349.0113 453.9049,-342.5107 443.3109,-342.3752 445.5387,-349.0113"/>
</g>
<!-- Node10985 -->
<g id="node20" class="node">
<title>Node10985</title>
<g id="a_node20"><a xlink:href="quickjs_8c.html#a0a8765bd4012467d9139bc24aabcb3ca" target="_top" xlink:title="JS_DefinePropertyValue">
<polygon fill="none" stroke="#ff0000" points="283,-456.5 283,-475.5 407,-475.5 407,-456.5 283,-456.5"/>
<text text-anchor="middle" x="345" y="-463.5" font-family="Helvetica,sans-Serif" font-size="10.00" fill="#000000">JS_DefinePropertyValue</text>
</a>
</g>
</g>
<!-- Node11270&#45;&gt;Node10985 -->
<g id="edge23" class="edge">
<title>Node11270&#45;&gt;Node10985</title>
<path fill="none" stroke="#191970" d="M220.515,-437.589C242.6844,-442.6487 270.0732,-448.8996 293.511,-454.2488"/>
<polygon fill="#191970" stroke="#191970" points="292.759,-457.6671 303.2871,-456.4799 294.3166,-450.8425 292.759,-457.6671"/>
</g>
<!-- Node10985&#45;&gt;Node10841 -->
<g id="edge24" class="edge">
<title>Node10985&#45;&gt;Node10841</title>
<path fill="none" stroke="#191970" d="M407.0865,-474.6105C415.7437,-475.8112 424.5388,-477.0309 432.9121,-478.1922"/>
<polygon fill="#191970" stroke="#191970" points="432.4928,-481.6675 442.8788,-479.5744 433.4545,-474.7338 432.4928,-481.6675"/>
</g>
<!-- Node10846 -->
<g id="node22" class="node">
<title>Node10846</title>
<g id="a_node22"><a xlink:href="quickjs_8c.html#a69e19dda8a93d613203e0baa06f0ed8d" target="_top" xlink:title="js_free_rt">
<polygon fill="none" stroke="#000000" points="316.5,-152.5 316.5,-171.5 373.5,-171.5 373.5,-152.5 316.5,-152.5"/>
<text text-anchor="middle" x="345" y="-159.5" font-family="Helvetica,sans-Serif" font-size="10.00" fill="#000000">js_free_rt</text>
</a>
</g>
</g>
<!-- Node10863&#45;&gt;Node10846 -->
<g id="edge27" class="edge">
<title>Node10863&#45;&gt;Node10846</title>
<path fill="none" stroke="#191970" d="M201.722,-274.4219C216.1712,-272.354 234.3461,-267.6473 247,-257 275.5986,-232.9364 254.7264,-205.4446 283,-181 289.672,-175.2315 298.067,-171.2143 306.5054,-168.4167"/>
<polygon fill="#191970" stroke="#191970" points="307.6475,-171.7315 316.3308,-165.6608 305.7571,-164.9915 307.6475,-171.7315"/>
</g>
<!-- Node11018&#45;&gt;Node10841 -->
<g id="edge29" class="edge">
<title>Node11018&#45;&gt;Node10841</title>
<path fill="none" stroke="#191970" d="M388.3477,-497.9883C402.3517,-496.0461 417.9844,-493.8781 432.4044,-491.8782"/>
<polygon fill="#191970" stroke="#191970" points="433.2252,-495.298 442.6495,-490.4574 432.2635,-488.3643 433.2252,-495.298"/>
</g>
</g>
</svg>
        <g id="navigator" transform="translate(0 0)" fill="#404254">
                <rect fill="#f2f5e9" fill-opacity="0.5" stroke="#606060" stroke-width=".5" x="0" y="0" width="60" height="60"/>
                <use id="zoomplus" xlink:href="#zoomPlus" x="17" y="9" onmousedown="handleZoom(evt,'in')"/>
                <use id="zoomminus" xlink:href="#zoomMin" x="42" y="9" onmousedown="handleZoom(evt,'out')"/>
                <use id="reset" xlink:href="#resetDef" x="30" y="36" onmousedown="handleReset()"/>
                <g id="arrowUp" xlink:href="#dirArrow" transform="translate(30 24)" onmousedown="handlePan(0,-1)">
                  <use xlink:href="#rim" fill="#404040">
                        <set attributeName="fill" to="#808080" begin="arrowUp.mouseover" end="arrowUp.mouseout"/>
                  </use>
                  <path fill="none" stroke="white" stroke-width="1.5" d="M0,-3.0v7 M-2.5,-0.5L0,-3.0L2.5,-0.5"/>
                </g>
                <g id="arrowRight" xlink:href="#dirArrow" transform="rotate(90) translate(36 -43)" onmousedown="handlePan(1,0)">
                  <use xlink:href="#rim" fill="#404040">
                        <set attributeName="fill" to="#808080" begin="arrowRight.mouseover" end="arrowRight.mouseout"/>
                  </use>
                  <path fill="none" stroke="white" stroke-width="1.5" d="M0,-3.0v7 M-2.5,-0.5L0,-3.0L2.5,-0.5"/>
                </g>
                <g id="arrowDown" xlink:href="#dirArrow" transform="rotate(180) translate(-30 -48)" onmousedown="handlePan(0,1)">
                  <use xlink:href="#rim" fill="#404040">
                        <set attributeName="fill" to="#808080" begin="arrowDown.mouseover" end="arrowDown.mouseout"/>
                  </use>
                  <path fill="none" stroke="white" stroke-width="1.5" d="M0,-3.0v7 M-2.5,-0.5L0,-3.0L2.5,-0.5"/>
                </g>
                <g id="arrowLeft" xlink:href="#dirArrow" transform="rotate(270) translate(-36 17)" onmousedown="handlePan(-1,0)">
                  <use xlink:href="#rim" fill="#404040">
                        <set attributeName="fill" to="#808080" begin="arrowLeft.mouseover" end="arrowLeft.mouseout"/>
                  </use>
                  <path fill="none" stroke="white" stroke-width="1.5" d="M0,-3.0v7 M-2.5,-0.5L0,-3.0L2.5,-0.5"/>
                </g>
        </g>
        <svg viewBox="0 0 15 15" width="100%" height="30px" preserveAspectRatio="xMaxYMin meet">
         <g id="arrow_out" transform="scale(0.3 0.3)">
          <a xlink:href="quickjs-libc_8c_a7aebce2172c6aa4a6645aef600a69e6b_cgraph_org.svg" target="_base">
           <rect id="button" ry="5" rx="5" y="6" x="6" height="38" width="38"
                fill="#f2f5e9" fill-opacity="0.5" stroke="#606060" stroke-width="1.0"/>
           <path id="arrow"
             d="M 11.500037,31.436501 C 11.940474,20.09759 22.043105,11.32322 32.158766,21.979434 L 37.068811,17.246167 C 37.068811,17.246167 37.088388,32 37.088388,32 L 22.160133,31.978069 C 22.160133,31.978069 26.997745,27.140456 26.997745,27.140456 C 18.528582,18.264221 13.291696,25.230495 11.500037,31.436501 z"
             style="fill:#404040;"/>
          </a>
         </g>
        </svg>
</svg>
