<?xml version="1.0" encoding="UTF-8" standalone="no"?>
<!DOCTYPE svg PUBLIC "-//W3C//DTD SVG 1.1//EN"
 "http://www.w3.org/Graphics/SVG/1.1/DTD/svg11.dtd">
<!-- Generated by graphviz version 2.40.1 (20161225.0304)
 -->
<!-- Title: delete_property Pages: 1 -->
<svg width="859pt" height="522pt"
 viewBox="0.00 0.00 859.00 522.00" xmlns="http://www.w3.org/2000/svg" xmlns:xlink="http://www.w3.org/1999/xlink">
<g id="graph0" class="graph" transform="scale(1 1) rotate(0) translate(4 518)">
<title>delete_property</title>
<!-- Node194621 -->
<g id="node1" class="node">
<title>Node194621</title>
<polygon fill="#bfbfbf" stroke="#000000" points="0,-133.5 0,-152.5 83,-152.5 83,-133.5 0,-133.5"/>
<text text-anchor="middle" x="41.5" y="-140.5" font-family="Helvetica,sans-Serif" font-size="10.00" fill="#000000">delete_property</text>
</g>
<!-- Node194622 -->
<g id="node2" class="node">
<title>Node194622</title>
<g id="a_node2"><a xlink:href="quickjs_8c.html#ab638a184d14e8b02ab3ea38b393c7cad" target="_top" xlink:title="compact_properties">
<polygon fill="none" stroke="#000000" points="437.5,-380.5 437.5,-399.5 539.5,-399.5 539.5,-380.5 437.5,-380.5"/>
<text text-anchor="middle" x="488.5" y="-387.5" font-family="Helvetica,sans-Serif" font-size="10.00" fill="#000000">compact_properties</text>
</a>
</g>
</g>
<!-- Node194621&#45;&gt;Node194622 -->
<g id="edge1" class="edge">
<title>Node194621&#45;&gt;Node194622</title>
<path fill="none" stroke="#191970" d="M42.5861,-152.6348C46.5397,-182.9332 63.0106,-276.9882 119,-323 206.9738,-395.2965 346.8995,-400.1301 426.9381,-395.9028"/>
<polygon fill="#191970" stroke="#191970" points="427.5719,-399.3714 437.3465,-395.2839 427.1564,-392.3837 427.5719,-399.3714"/>
</g>
<!-- Node194636 -->
<g id="node15" class="node">
<title>Node194636</title>
<g id="a_node15"><a xlink:href="quickjs_8c.html#ac93c982cb636a5430b191d104083af3e" target="_top" xlink:title="convert_fast_array\l_to_array">
<polygon fill="none" stroke="#000000" points="126.5,-283 126.5,-313 224.5,-313 224.5,-283 126.5,-283"/>
<text text-anchor="start" x="134.5" y="-301" font-family="Helvetica,sans-Serif" font-size="10.00" fill="#000000">convert_fast_array</text>
<text text-anchor="middle" x="175.5" y="-290" font-family="Helvetica,sans-Serif" font-size="10.00" fill="#000000">_to_array</text>
</a>
</g>
</g>
<!-- Node194621&#45;&gt;Node194636 -->
<g id="edge14" class="edge">
<title>Node194621&#45;&gt;Node194636</title>
<path fill="none" stroke="#191970" d="M49.8571,-152.735C64.0475,-169.2582 93.7716,-203.8397 119,-233 131.1177,-247.0062 144.7365,-262.6761 155.5669,-275.1205"/>
<polygon fill="#191970" stroke="#191970" points="153.0315,-277.5386 162.2375,-282.7826 158.311,-272.9422 153.0315,-277.5386"/>
</g>
<!-- Node194641 -->
<g id="node19" class="node">
<title>Node194641</title>
<g id="a_node19"><a xlink:href="quickjs_8c.html#a643df594b75933007bcdbb071b5ea8c5" target="_top" xlink:title="get_shape_prop">
<polygon fill="none" stroke="#000000" points="594,-190.5 594,-209.5 680,-209.5 680,-190.5 594,-190.5"/>
<text text-anchor="middle" x="637" y="-197.5" font-family="Helvetica,sans-Serif" font-size="10.00" fill="#000000">get_shape_prop</text>
</a>
</g>
</g>
<!-- Node194621&#45;&gt;Node194641 -->
<g id="edge40" class="edge">
<title>Node194621&#45;&gt;Node194641</title>
<path fill="none" stroke="#191970" d="M83.3744,-147.0081C189.1245,-157.1303 466.8377,-183.7124 583.8294,-194.9106"/>
<polygon fill="#191970" stroke="#191970" points="583.6858,-198.4128 593.9738,-195.8816 584.3528,-191.4446 583.6858,-198.4128"/>
</g>
<!-- Node194682 -->
<g id="node21" class="node">
<title>Node194682</title>
<g id="a_node21"><a xlink:href="quickjs_8c.html#a3dd8e78607dbc729614deacf55901b95" target="_top" xlink:title="js_shape_prepare_update">
<polygon fill="none" stroke="#000000" points="268,-228.5 268,-247.5 396,-247.5 396,-228.5 268,-228.5"/>
<text text-anchor="middle" x="332" y="-235.5" font-family="Helvetica,sans-Serif" font-size="10.00" fill="#000000">js_shape_prepare_update</text>
</a>
</g>
</g>
<!-- Node194621&#45;&gt;Node194682 -->
<g id="edge47" class="edge">
<title>Node194621&#45;&gt;Node194682</title>
<path fill="none" stroke="#191970" d="M61.9578,-152.5031C77.4312,-159.4959 99.3054,-168.9689 119,-176 175.0281,-196.0024 240.9915,-214.4392 284.5018,-225.9173"/>
<polygon fill="#191970" stroke="#191970" points="283.6849,-229.3214 294.2455,-228.4704 285.4592,-222.5499 283.6849,-229.3214"/>
</g>
<!-- Node194678 -->
<g id="node24" class="node">
<title>Node194678</title>
<g id="a_node24"><a xlink:href="quickjs_8c.html#af4274494e2e45f9018154ffcbb7e89e4" target="_top" xlink:title="free_property">
<polygon fill="none" stroke="#ff0000" points="138.5,-114.5 138.5,-133.5 212.5,-133.5 212.5,-114.5 138.5,-114.5"/>
<text text-anchor="middle" x="175.5" y="-121.5" font-family="Helvetica,sans-Serif" font-size="10.00" fill="#000000">free_property</text>
</a>
</g>
</g>
<!-- Node194621&#45;&gt;Node194678 -->
<g id="edge39" class="edge">
<title>Node194621&#45;&gt;Node194678</title>
<path fill="none" stroke="#191970" d="M83.1639,-137.0924C97.5212,-135.0567 113.6987,-132.7629 128.4552,-130.6705"/>
<polygon fill="#191970" stroke="#191970" points="128.9947,-134.1291 138.4043,-129.2598 128.0119,-127.1985 128.9947,-134.1291"/>
</g>
<!-- Node194683 -->
<g id="node25" class="node">
<title>Node194683</title>
<g id="a_node25"><a xlink:href="quickjs_8c.html#aae16c5cdefab4e9dd9866993a7f0150e" target="_top" xlink:title="JS_AtomIsArrayIndex">
<polygon fill="none" stroke="#000000" points="119,-76.5 119,-95.5 232,-95.5 232,-76.5 119,-76.5"/>
<text text-anchor="middle" x="175.5" y="-83.5" font-family="Helvetica,sans-Serif" font-size="10.00" fill="#000000">JS_AtomIsArrayIndex</text>
</a>
</g>
</g>
<!-- Node194621&#45;&gt;Node194683 -->
<g id="edge41" class="edge">
<title>Node194621&#45;&gt;Node194683</title>
<path fill="none" stroke="#191970" d="M59.3564,-133.4091C74.8696,-125.2802 98.0727,-113.6057 119,-105 124.1445,-102.8845 129.6194,-100.8197 135.0593,-98.8777"/>
<polygon fill="#191970" stroke="#191970" points="136.4283,-102.1077 144.7341,-95.5301 134.1393,-95.4925 136.4283,-102.1077"/>
</g>
<!-- Node194673 -->
<g id="node29" class="node">
<title>Node194673</title>
<g id="a_node29"><a xlink:href="quickjs_8c.html#ab7fc45a99935a1c0ba50b0216d9401a9" target="_top" xlink:title="JS_FreeAtom">
<polygon fill="none" stroke="#ff0000" points="137,-38.5 137,-57.5 214,-57.5 214,-38.5 137,-38.5"/>
<text text-anchor="middle" x="175.5" y="-45.5" font-family="Helvetica,sans-Serif" font-size="10.00" fill="#000000">JS_FreeAtom</text>
</a>
</g>
</g>
<!-- Node194621&#45;&gt;Node194673 -->
<g id="edge45" class="edge">
<title>Node194621&#45;&gt;Node194673</title>
<path fill="none" stroke="#191970" d="M48.8079,-133.4272C61.4524,-117.4819 88.9575,-85.4198 119,-67 122.3774,-64.9292 126.0081,-63.0529 129.7408,-61.3592"/>
<polygon fill="#191970" stroke="#191970" points="131.2095,-64.5401 139.1434,-57.5185 128.5624,-58.0599 131.2095,-64.5401"/>
</g>
<!-- Node194674 -->
<g id="node30" class="node">
<title>Node194674</title>
<g id="a_node30"><a xlink:href="quickjs_8h.html#afaa20c47565bc704c6c85f3d77254e7d" target="_top" xlink:title="JS_FreeValue">
<polygon fill="none" stroke="#ff0000" points="136.5,-.5 136.5,-19.5 214.5,-19.5 214.5,-.5 136.5,-.5"/>
<text text-anchor="middle" x="175.5" y="-7.5" font-family="Helvetica,sans-Serif" font-size="10.00" fill="#000000">JS_FreeValue</text>
</a>
</g>
</g>
<!-- Node194621&#45;&gt;Node194674 -->
<g id="edge46" class="edge">
<title>Node194621&#45;&gt;Node194674</title>
<path fill="none" stroke="#191970" d="M45.5292,-133.1746C55.0156,-111.2375 80.8693,-57.9313 119,-29 121.597,-27.0296 124.4103,-25.2564 127.3474,-23.6617"/>
<polygon fill="#191970" stroke="#191970" points="128.8724,-26.8123 136.4374,-19.3947 125.8979,-20.4758 128.8724,-26.8123"/>
</g>
<!-- Node194623 -->
<g id="node3" class="node">
<title>Node194623</title>
<g id="a_node3"><a xlink:href="quickjs_8c.html#a7da0cfa6f27af0e1b9599d7f359edbe2" target="_top" xlink:title="get_alloc_from_shape">
<polygon fill="none" stroke="#000000" points="581,-266.5 581,-285.5 693,-285.5 693,-266.5 581,-266.5"/>
<text text-anchor="middle" x="637" y="-273.5" font-family="Helvetica,sans-Serif" font-size="10.00" fill="#000000">get_alloc_from_shape</text>
</a>
</g>
</g>
<!-- Node194622&#45;&gt;Node194623 -->
<g id="edge2" class="edge">
<title>Node194622&#45;&gt;Node194623</title>
<path fill="none" stroke="#191970" d="M530.1392,-380.3779C535.5271,-377.9236 540.6676,-374.8492 545,-371 572.9406,-346.1754 553.0929,-319.8622 581,-295 582.9116,-293.2969 584.9822,-291.7454 587.1627,-290.332"/>
<polygon fill="#191970" stroke="#191970" points="588.888,-293.3779 596.0133,-285.537 585.5535,-287.2231 588.888,-293.3779"/>
</g>
<!-- Node194624 -->
<g id="node4" class="node">
<title>Node194624</title>
<g id="a_node4"><a xlink:href="quickjs_8c.html#a8b6c89e0f589df709eb31a92b7fac32a" target="_top" xlink:title="get_shape_from_alloc">
<polygon fill="none" stroke="#000000" points="581,-228.5 581,-247.5 693,-247.5 693,-228.5 581,-228.5"/>
<text text-anchor="middle" x="637" y="-235.5" font-family="Helvetica,sans-Serif" font-size="10.00" fill="#000000">get_shape_from_alloc</text>
</a>
</g>
</g>
<!-- Node194622&#45;&gt;Node194624 -->
<g id="edge3" class="edge">
<title>Node194622&#45;&gt;Node194624</title>
<path fill="none" stroke="#191970" d="M531.4895,-380.4896C536.4847,-378.022 541.1577,-374.9141 545,-371 582.2211,-333.083 543.83,-294.9672 581,-257 582.4274,-255.5419 583.9708,-254.1957 585.6034,-252.9529"/>
<polygon fill="#191970" stroke="#191970" points="587.697,-255.7745 594.3876,-247.5594 584.0343,-249.8092 587.697,-255.7745"/>
</g>
<!-- Node194625 -->
<g id="node5" class="node">
<title>Node194625</title>
<g id="a_node5"><a xlink:href="quickjs_8c.html#ab54e821a9b1b55dc16c4494bd410b698" target="_top" xlink:title="get_shape_size">
<polygon fill="none" stroke="#000000" points="594.5,-342.5 594.5,-361.5 679.5,-361.5 679.5,-342.5 594.5,-342.5"/>
<text text-anchor="middle" x="637" y="-349.5" font-family="Helvetica,sans-Serif" font-size="10.00" fill="#000000">get_shape_size</text>
</a>
</g>
</g>
<!-- Node194622&#45;&gt;Node194625 -->
<g id="edge4" class="edge">
<title>Node194622&#45;&gt;Node194625</title>
<path fill="none" stroke="#191970" d="M525.9728,-380.411C545.3925,-375.4417 569.3025,-369.3233 589.9542,-364.0387"/>
<polygon fill="#191970" stroke="#191970" points="590.9765,-367.3899 599.7966,-361.5201 589.2411,-360.6084 590.9765,-367.3899"/>
</g>
<!-- Node194626 -->
<g id="node6" class="node">
<title>Node194626</title>
<g id="a_node6"><a xlink:href="quickjs_8c.html#a80e54dcf9ac687d4ccc2f90273565f30" target="_top" xlink:title="js_free">
<polygon fill="none" stroke="#000000" points="614,-494.5 614,-513.5 660,-513.5 660,-494.5 614,-494.5"/>
<text text-anchor="middle" x="637" y="-501.5" font-family="Helvetica,sans-Serif" font-size="10.00" fill="#000000">js_free</text>
</a>
</g>
</g>
<!-- Node194622&#45;&gt;Node194626 -->
<g id="edge5" class="edge">
<title>Node194622&#45;&gt;Node194626</title>
<path fill="none" stroke="#191970" d="M521.591,-399.5399C529.9296,-403.0908 538.3818,-407.8146 545,-414 570.8485,-438.158 554.2688,-461.8225 581,-485 587.5624,-490.69 595.9033,-494.6942 604.1306,-497.5055"/>
<polygon fill="#191970" stroke="#191970" points="603.4026,-500.9389 613.9825,-500.3761 605.3609,-494.2183 603.4026,-500.9389"/>
</g>
<!-- Node194628 -->
<g id="node8" class="node">
<title>Node194628</title>
<g id="a_node8"><a xlink:href="quickjs_8c.html#a78b7f6b85f2739b551ff54f16156128b" target="_top" xlink:title="js_malloc">
<polygon fill="none" stroke="#000000" points="608,-304.5 608,-323.5 666,-323.5 666,-304.5 608,-304.5"/>
<text text-anchor="middle" x="637" y="-311.5" font-family="Helvetica,sans-Serif" font-size="10.00" fill="#000000">js_malloc</text>
</a>
</g>
</g>
<!-- Node194622&#45;&gt;Node194628 -->
<g id="edge7" class="edge">
<title>Node194622&#45;&gt;Node194628</title>
<path fill="none" stroke="#191970" d="M525.5631,-380.4383C532.3029,-377.9043 539.0694,-374.7881 545,-371 564.6063,-358.4769 561.4106,-345.5495 581,-333 586.3327,-329.5837 592.3471,-326.7106 598.4049,-324.3173"/>
<polygon fill="#191970" stroke="#191970" points="599.6253,-327.598 607.8684,-320.9421 597.2738,-321.0048 599.6253,-327.598"/>
</g>
<!-- Node194632 -->
<g id="node11" class="node">
<title>Node194632</title>
<g id="a_node11"><a xlink:href="list_8h.html#a3a5d0733570b2fafc18f4c71a2968ea5" target="_top" xlink:title="list_add_tail">
<polygon fill="none" stroke="#000000" points="603,-418.5 603,-437.5 671,-437.5 671,-418.5 603,-418.5"/>
<text text-anchor="middle" x="637" y="-425.5" font-family="Helvetica,sans-Serif" font-size="10.00" fill="#000000">list_add_tail</text>
</a>
</g>
</g>
<!-- Node194622&#45;&gt;Node194632 -->
<g id="edge10" class="edge">
<title>Node194622&#45;&gt;Node194632</title>
<path fill="none" stroke="#191970" d="M525.9728,-399.589C546.3708,-404.8087 571.7231,-411.2961 593.0497,-416.7535"/>
<polygon fill="#191970" stroke="#191970" points="592.2882,-420.1713 602.8437,-419.2597 594.0236,-413.3898 592.2882,-420.1713"/>
</g>
<!-- Node194634 -->
<g id="node13" class="node">
<title>Node194634</title>
<g id="a_node13"><a xlink:href="list_8h.html#ab60d5d18869ebeb5d6ab694289576fa7" target="_top" xlink:title="list_del">
<polygon fill="none" stroke="#000000" points="613.5,-380.5 613.5,-399.5 660.5,-399.5 660.5,-380.5 613.5,-380.5"/>
<text text-anchor="middle" x="637" y="-387.5" font-family="Helvetica,sans-Serif" font-size="10.00" fill="#000000">list_del</text>
</a>
</g>
</g>
<!-- Node194622&#45;&gt;Node194634 -->
<g id="edge12" class="edge">
<title>Node194622&#45;&gt;Node194634</title>
<path fill="none" stroke="#191970" d="M539.6053,-390C560.6027,-390 584.3439,-390 603.1294,-390"/>
<polygon fill="#191970" stroke="#191970" points="603.2824,-393.5001 613.2824,-390 603.2824,-386.5001 603.2824,-393.5001"/>
</g>
<!-- Node194635 -->
<g id="node14" class="node">
<title>Node194635</title>
<g id="a_node14"><a xlink:href="cutils_8h.html#a94f155fcce337a2b9d4719ed8042cbbe" target="_top" xlink:title="max_int">
<polygon fill="none" stroke="#000000" points="611.5,-456.5 611.5,-475.5 662.5,-475.5 662.5,-456.5 611.5,-456.5"/>
<text text-anchor="middle" x="637" y="-463.5" font-family="Helvetica,sans-Serif" font-size="10.00" fill="#000000">max_int</text>
</a>
</g>
</g>
<!-- Node194622&#45;&gt;Node194635 -->
<g id="edge13" class="edge">
<title>Node194622&#45;&gt;Node194635</title>
<path fill="none" stroke="#191970" d="M516.1753,-399.5659C525.6679,-403.4076 536.1277,-408.2904 545,-414 563.2522,-425.7459 562.3225,-435.9428 581,-447 587.4381,-450.8114 594.7488,-453.9926 601.9136,-456.5934"/>
<polygon fill="#191970" stroke="#191970" points="600.9039,-459.9461 611.4975,-459.7849 603.1156,-453.3046 600.9039,-459.9461"/>
</g>
<!-- Node194627 -->
<g id="node7" class="node">
<title>Node194627</title>
<g id="a_node7"><a xlink:href="quickjs_8c.html#a69e19dda8a93d613203e0baa06f0ed8d" target="_top" xlink:title="js_free_rt">
<polygon fill="none" stroke="#000000" points="761.5,-494.5 761.5,-513.5 818.5,-513.5 818.5,-494.5 761.5,-494.5"/>
<text text-anchor="middle" x="790" y="-501.5" font-family="Helvetica,sans-Serif" font-size="10.00" fill="#000000">js_free_rt</text>
</a>
</g>
</g>
<!-- Node194626&#45;&gt;Node194627 -->
<g id="edge6" class="edge">
<title>Node194626&#45;&gt;Node194627</title>
<path fill="none" stroke="#191970" d="M660.2374,-504C684.3601,-504 722.51,-504 751.2133,-504"/>
<polygon fill="#191970" stroke="#191970" points="751.3173,-507.5001 761.3173,-504 751.3172,-500.5001 751.3173,-507.5001"/>
</g>
<!-- Node194629 -->
<g id="node9" class="node">
<title>Node194629</title>
<g id="a_node9"><a xlink:href="quickjs_8c.html#a4b710876403548c1ad3edc7a7719c559" target="_top" xlink:title="js_malloc_rt">
<polygon fill="none" stroke="#000000" points="755.5,-323.5 755.5,-342.5 824.5,-342.5 824.5,-323.5 755.5,-323.5"/>
<text text-anchor="middle" x="790" y="-330.5" font-family="Helvetica,sans-Serif" font-size="10.00" fill="#000000">js_malloc_rt</text>
</a>
</g>
</g>
<!-- Node194628&#45;&gt;Node194629 -->
<g id="edge8" class="edge">
<title>Node194628&#45;&gt;Node194629</title>
<path fill="none" stroke="#191970" d="M666.1383,-317.6185C688.4658,-320.3912 719.6674,-324.2659 745.168,-327.4326"/>
<polygon fill="#191970" stroke="#191970" points="744.9903,-330.9374 755.3454,-328.6965 745.853,-323.9907 744.9903,-330.9374"/>
</g>
<!-- Node194630 -->
<g id="node10" class="node">
<title>Node194630</title>
<g id="a_node10"><a xlink:href="quickjs_8c.html#a344d6c0e45d9bf3861fd9269724045a2" target="_top" xlink:title="JS_ThrowOutOfMemory">
<polygon fill="none" stroke="#ff0000" points="729,-285.5 729,-304.5 851,-304.5 851,-285.5 729,-285.5"/>
<text text-anchor="middle" x="790" y="-292.5" font-family="Helvetica,sans-Serif" font-size="10.00" fill="#000000">JS_ThrowOutOfMemory</text>
</a>
</g>
</g>
<!-- Node194628&#45;&gt;Node194630 -->
<g id="edge9" class="edge">
<title>Node194628&#45;&gt;Node194630</title>
<path fill="none" stroke="#191970" d="M666.1383,-310.3815C681.2045,-308.5106 700.3113,-306.1378 718.9806,-303.8194"/>
<polygon fill="#191970" stroke="#191970" points="719.4858,-307.2836 728.9782,-302.5779 718.623,-300.337 719.4858,-307.2836"/>
</g>
<!-- Node194633 -->
<g id="node12" class="node">
<title>Node194633</title>
<g id="a_node12"><a xlink:href="list_8h.html#a16286d5bff74a27aec51a3134ffc7b43" target="_top" xlink:title="__list_add">
<polygon fill="none" stroke="#000000" points="759.5,-418.5 759.5,-437.5 820.5,-437.5 820.5,-418.5 759.5,-418.5"/>
<text text-anchor="middle" x="790" y="-425.5" font-family="Helvetica,sans-Serif" font-size="10.00" fill="#000000">__list_add</text>
</a>
</g>
</g>
<!-- Node194632&#45;&gt;Node194633 -->
<g id="edge11" class="edge">
<title>Node194632&#45;&gt;Node194633</title>
<path fill="none" stroke="#191970" d="M671.3362,-428C694.4636,-428 725.0679,-428 749.4032,-428"/>
<polygon fill="#191970" stroke="#191970" points="749.4088,-431.5001 759.4088,-428 749.4087,-424.5001 749.4088,-431.5001"/>
</g>
<!-- Node194636&#45;&gt;Node194626 -->
<g id="edge24" class="edge">
<title>Node194636&#45;&gt;Node194626</title>
<path fill="none" stroke="#191970" d="M197.7285,-313.0846C216.1142,-325.219 243.1471,-342.283 268,-355 402.0969,-423.6163 440.0435,-431.8829 581,-485 588.4815,-487.8193 596.5934,-490.6815 604.2597,-493.2997"/>
<polygon fill="#191970" stroke="#191970" points="603.3968,-496.7022 613.9909,-496.5768 605.6309,-490.0683 603.3968,-496.7022"/>
</g>
<!-- Node194637 -->
<g id="node16" class="node">
<title>Node194637</title>
<g id="a_node16"><a xlink:href="quickjs_8c.html#a877fcb7651d95b411ce70e62b7f4a1f0" target="_top" xlink:title="__JS_AtomFromUInt32">
<polygon fill="none" stroke="#000000" points="272.5,-266.5 272.5,-285.5 391.5,-285.5 391.5,-266.5 272.5,-266.5"/>
<text text-anchor="middle" x="332" y="-273.5" font-family="Helvetica,sans-Serif" font-size="10.00" fill="#000000">__JS_AtomFromUInt32</text>
</a>
</g>
</g>
<!-- Node194636&#45;&gt;Node194637 -->
<g id="edge15" class="edge">
<title>Node194636&#45;&gt;Node194637</title>
<path fill="none" stroke="#191970" d="M224.5882,-291.0994C236.542,-289.419 249.5553,-287.5897 262.2654,-285.8029"/>
<polygon fill="#191970" stroke="#191970" points="262.9522,-289.2409 272.3675,-284.3828 261.9777,-282.3091 262.9522,-289.2409"/>
</g>
<!-- Node194638 -->
<g id="node17" class="node">
<title>Node194638</title>
<g id="a_node17"><a xlink:href="quickjs_8c.html#a74547db03bf739a52c83a326b32db997" target="_top" xlink:title="add_property">
<polygon fill="none" stroke="#ff0000" points="295.5,-304.5 295.5,-323.5 368.5,-323.5 368.5,-304.5 295.5,-304.5"/>
<text text-anchor="middle" x="332" y="-311.5" font-family="Helvetica,sans-Serif" font-size="10.00" fill="#000000">add_property</text>
</a>
</g>
</g>
<!-- Node194636&#45;&gt;Node194638 -->
<g id="edge16" class="edge">
<title>Node194636&#45;&gt;Node194638</title>
<path fill="none" stroke="#191970" d="M224.5882,-303.0186C243.8884,-304.9918 265.9506,-307.2473 285.0389,-309.1989"/>
<polygon fill="#191970" stroke="#191970" points="284.7051,-312.6829 295.0093,-310.2182 285.4171,-305.7192 284.7051,-312.6829"/>
</g>
<!-- Node194636&#45;&gt;Node194682 -->
<g id="edge25" class="edge">
<title>Node194636&#45;&gt;Node194682</title>
<path fill="none" stroke="#191970" d="M206.7666,-282.9375C224.4985,-274.7014 247.231,-264.6497 268,-257 274.0668,-254.7654 280.5284,-252.6026 286.9247,-250.5863"/>
<polygon fill="#191970" stroke="#191970" points="288.3168,-253.8207 296.8561,-247.5492 286.2697,-247.1267 288.3168,-253.8207"/>
</g>
<!-- Node194647 -->
<g id="node23" class="node">
<title>Node194647</title>
<g id="a_node23"><a xlink:href="quickjs_8c.html#aa80740ff93b724ea7e0c280826f4a25a" target="_top" xlink:title="resize_properties">
<polygon fill="none" stroke="#ff0000" points="443,-342.5 443,-361.5 534,-361.5 534,-342.5 443,-342.5"/>
<text text-anchor="middle" x="488.5" y="-349.5" font-family="Helvetica,sans-Serif" font-size="10.00" fill="#000000">resize_properties</text>
</a>
</g>
</g>
<!-- Node194636&#45;&gt;Node194647 -->
<g id="edge30" class="edge">
<title>Node194636&#45;&gt;Node194647</title>
<path fill="none" stroke="#191970" d="M208.6398,-313.0866C225.9697,-320.3169 247.7424,-328.3882 268,-333 323.09,-345.5417 387.6431,-349.9442 432.6121,-351.42"/>
<polygon fill="#191970" stroke="#191970" points="432.6531,-354.9225 442.7504,-351.714 432.8561,-347.9255 432.6531,-354.9225"/>
</g>
<!-- Node194651 -->
<g id="node18" class="node">
<title>Node194651</title>
<g id="a_node18"><a xlink:href="quickjs_8c.html#a8e34657169da77ae6a386311351ed3de" target="_top" xlink:title="js_clone_shape">
<polygon fill="none" stroke="#ff0000" points="446.5,-304.5 446.5,-323.5 530.5,-323.5 530.5,-304.5 446.5,-304.5"/>
<text text-anchor="middle" x="488.5" y="-311.5" font-family="Helvetica,sans-Serif" font-size="10.00" fill="#000000">js_clone_shape</text>
</a>
</g>
</g>
<!-- Node194638&#45;&gt;Node194651 -->
<g id="edge17" class="edge">
<title>Node194638&#45;&gt;Node194651</title>
<path fill="none" stroke="#191970" d="M368.6923,-314C388.7366,-314 413.9059,-314 435.995,-314"/>
<polygon fill="#191970" stroke="#191970" points="436.2254,-317.5001 446.2254,-314 436.2253,-310.5001 436.2254,-317.5001"/>
</g>
<!-- Node194655 -->
<g id="node20" class="node">
<title>Node194655</title>
<g id="a_node20"><a xlink:href="quickjs_8c.html#a3a9f27520d96cf58aa5bd7359e9cddee" target="_top" xlink:title="js_free_shape">
<polygon fill="none" stroke="#ff0000" points="450,-266.5 450,-285.5 527,-285.5 527,-266.5 450,-266.5"/>
<text text-anchor="middle" x="488.5" y="-273.5" font-family="Helvetica,sans-Serif" font-size="10.00" fill="#000000">js_free_shape</text>
</a>
</g>
</g>
<!-- Node194638&#45;&gt;Node194655 -->
<g id="edge23" class="edge">
<title>Node194638&#45;&gt;Node194655</title>
<path fill="none" stroke="#191970" d="M368.6923,-305.0907C389.941,-299.9312 416.9493,-293.3733 439.9419,-287.7905"/>
<polygon fill="#191970" stroke="#191970" points="440.9621,-291.1445 449.8538,-285.3837 439.3103,-284.3422 440.9621,-291.1445"/>
</g>
<!-- Node194651&#45;&gt;Node194623 -->
<g id="edge18" class="edge">
<title>Node194651&#45;&gt;Node194623</title>
<path fill="none" stroke="#191970" d="M525.9728,-304.411C545.3925,-299.4417 569.3025,-293.3233 589.9542,-288.0387"/>
<polygon fill="#191970" stroke="#191970" points="590.9765,-291.3899 599.7966,-285.5201 589.2411,-284.6084 590.9765,-291.3899"/>
</g>
<!-- Node194651&#45;&gt;Node194624 -->
<g id="edge19" class="edge">
<title>Node194651&#45;&gt;Node194624</title>
<path fill="none" stroke="#191970" d="M525.5631,-304.4383C532.3029,-301.9043 539.0694,-298.7881 545,-295 564.6063,-282.4769 561.4106,-269.5495 581,-257 584.1229,-254.9994 587.4796,-253.185 590.9419,-251.5442"/>
<polygon fill="#191970" stroke="#191970" points="592.4208,-254.7189 600.2653,-247.5975 589.692,-248.2727 592.4208,-254.7189"/>
</g>
<!-- Node194651&#45;&gt;Node194625 -->
<g id="edge21" class="edge">
<title>Node194651&#45;&gt;Node194625</title>
<path fill="none" stroke="#191970" d="M525.9728,-323.589C545.3925,-328.5583 569.3025,-334.6767 589.9542,-339.9613"/>
<polygon fill="#191970" stroke="#191970" points="589.2411,-343.3916 599.7966,-342.4799 590.9765,-336.6101 589.2411,-343.3916"/>
</g>
<!-- Node194651&#45;&gt;Node194628 -->
<g id="edge22" class="edge">
<title>Node194651&#45;&gt;Node194628</title>
<path fill="none" stroke="#191970" d="M530.6569,-314C551.7831,-314 577.2017,-314 597.8897,-314"/>
<polygon fill="#191970" stroke="#191970" points="597.9269,-317.5001 607.9268,-314 597.9268,-310.5001 597.9269,-317.5001"/>
</g>
<!-- Node194651&#45;&gt;Node194641 -->
<g id="edge20" class="edge">
<title>Node194651&#45;&gt;Node194641</title>
<path fill="none" stroke="#191970" d="M530.1392,-304.3779C535.5271,-301.9236 540.6676,-298.8492 545,-295 572.9406,-270.1754 553.0929,-243.8622 581,-219 582.9116,-217.2969 584.9822,-215.7454 587.1627,-214.332"/>
<polygon fill="#191970" stroke="#191970" points="588.888,-217.3779 596.0133,-209.537 585.5535,-211.2231 588.888,-217.3779"/>
</g>
<!-- Node194682&#45;&gt;Node194651 -->
<g id="edge27" class="edge">
<title>Node194682&#45;&gt;Node194651</title>
<path fill="none" stroke="#191970" d="M375.6685,-247.6011C382.7406,-250.0898 389.7768,-253.1802 396,-257 415.8274,-269.17 412.3937,-282.4769 432,-295 435.1507,-297.0124 438.5372,-298.8352 442.0303,-300.4819"/>
<polygon fill="#191970" stroke="#191970" points="440.862,-303.7874 451.4369,-304.4383 443.576,-297.3349 440.862,-303.7874"/>
</g>
<!-- Node194682&#45;&gt;Node194641 -->
<g id="edge26" class="edge">
<title>Node194682&#45;&gt;Node194641</title>
<path fill="none" stroke="#191970" d="M377.1485,-228.4757C394.2682,-225.1137 413.9765,-221.5416 432,-219 483.2253,-211.7765 542.0548,-206.6477 583.5164,-203.554"/>
<polygon fill="#191970" stroke="#191970" points="583.9502,-207.0317 593.6681,-202.8112 583.4393,-200.0503 583.9502,-207.0317"/>
</g>
<!-- Node194682&#45;&gt;Node194655 -->
<g id="edge28" class="edge">
<title>Node194682&#45;&gt;Node194655</title>
<path fill="none" stroke="#191970" d="M371.4916,-247.589C392.3005,-252.6416 418.0017,-258.8822 440.0114,-264.2264"/>
<polygon fill="#191970" stroke="#191970" points="439.2899,-267.6529 449.8334,-266.6113 440.9417,-260.8505 439.2899,-267.6529"/>
</g>
<!-- Node194646 -->
<g id="node22" class="node">
<title>Node194646</title>
<g id="a_node22"><a xlink:href="quickjs_8c.html#ae5e76f4be6214208cc91f10a192fc810" target="_top" xlink:title="js_shape_hash_unlink">
<polygon fill="none" stroke="#ff0000" points="432,-228.5 432,-247.5 545,-247.5 545,-228.5 432,-228.5"/>
<text text-anchor="middle" x="488.5" y="-235.5" font-family="Helvetica,sans-Serif" font-size="10.00" fill="#000000">js_shape_hash_unlink</text>
</a>
</g>
</g>
<!-- Node194682&#45;&gt;Node194646 -->
<g id="edge29" class="edge">
<title>Node194682&#45;&gt;Node194646</title>
<path fill="none" stroke="#191970" d="M396.1061,-238C404.5079,-238 413.1346,-238 421.5815,-238"/>
<polygon fill="#191970" stroke="#191970" points="421.7683,-241.5001 431.7683,-238 421.7682,-234.5001 421.7683,-241.5001"/>
</g>
<!-- Node194647&#45;&gt;Node194623 -->
<g id="edge31" class="edge">
<title>Node194647&#45;&gt;Node194623</title>
<path fill="none" stroke="#191970" d="M525.5631,-342.4383C532.3029,-339.9043 539.0694,-336.7881 545,-333 564.6063,-320.4769 561.4106,-307.5495 581,-295 584.1229,-292.9994 587.4796,-291.185 590.9419,-289.5442"/>
<polygon fill="#191970" stroke="#191970" points="592.4208,-292.7189 600.2653,-285.5975 589.692,-286.2727 592.4208,-292.7189"/>
</g>
<!-- Node194647&#45;&gt;Node194624 -->
<g id="edge32" class="edge">
<title>Node194647&#45;&gt;Node194624</title>
<path fill="none" stroke="#191970" d="M530.1392,-342.3779C535.5271,-339.9236 540.6676,-336.8492 545,-333 572.9406,-308.1754 553.0929,-281.8622 581,-257 582.9116,-255.2969 584.9822,-253.7454 587.1627,-252.332"/>
<polygon fill="#191970" stroke="#191970" points="588.888,-255.3779 596.0133,-247.537 585.5535,-249.2231 588.888,-255.3779"/>
</g>
<!-- Node194647&#45;&gt;Node194625 -->
<g id="edge33" class="edge">
<title>Node194647&#45;&gt;Node194625</title>
<path fill="none" stroke="#191970" d="M534.2666,-352C549.9958,-352 567.735,-352 583.991,-352"/>
<polygon fill="#191970" stroke="#191970" points="584.4234,-355.5001 594.4233,-352 584.4233,-348.5001 584.4234,-355.5001"/>
</g>
<!-- Node194647&#45;&gt;Node194626 -->
<g id="edge34" class="edge">
<title>Node194647&#45;&gt;Node194626</title>
<path fill="none" stroke="#191970" d="M531.4895,-361.5104C536.4847,-363.978 541.1577,-367.0859 545,-371 582.2211,-408.917 543.83,-447.0328 581,-485 587.2462,-491.3802 595.7115,-495.6182 604.1672,-498.4332"/>
<polygon fill="#191970" stroke="#191970" points="603.3853,-501.8481 613.9556,-501.1271 605.2428,-495.099 603.3853,-501.8481"/>
</g>
<!-- Node194647&#45;&gt;Node194628 -->
<g id="edge35" class="edge">
<title>Node194647&#45;&gt;Node194628</title>
<path fill="none" stroke="#191970" d="M525.9728,-342.411C548.0278,-336.7673 575.8747,-329.6415 598.1626,-323.9382"/>
<polygon fill="#191970" stroke="#191970" points="599.1509,-327.2982 607.971,-321.4283 597.4155,-320.5167 599.1509,-327.2982"/>
</g>
<!-- Node194647&#45;&gt;Node194632 -->
<g id="edge36" class="edge">
<title>Node194647&#45;&gt;Node194632</title>
<path fill="none" stroke="#191970" d="M525.5631,-361.5617C532.3029,-364.0957 539.0694,-367.2119 545,-371 564.6063,-383.5231 561.4106,-396.4505 581,-409 584.8483,-411.4653 589.0515,-413.6478 593.3699,-415.5712"/>
<polygon fill="#191970" stroke="#191970" points="592.3292,-418.9241 602.9144,-419.3773 594.9221,-412.4221 592.3292,-418.9241"/>
</g>
<!-- Node194647&#45;&gt;Node194634 -->
<g id="edge37" class="edge">
<title>Node194647&#45;&gt;Node194634</title>
<path fill="none" stroke="#191970" d="M525.9728,-361.589C549.9235,-367.7178 580.7044,-375.5944 603.7792,-381.499"/>
<polygon fill="#191970" stroke="#191970" points="602.9142,-384.8904 613.4697,-383.9788 604.6496,-378.1089 602.9142,-384.8904"/>
</g>
<!-- Node194647&#45;&gt;Node194635 -->
<g id="edge38" class="edge">
<title>Node194647&#45;&gt;Node194635</title>
<path fill="none" stroke="#191970" d="M530.1392,-361.6221C535.5271,-364.0764 540.6676,-367.1508 545,-371 572.9406,-395.8246 553.0929,-422.1378 581,-447 586.8631,-452.2234 594.2214,-456.0216 601.6582,-458.7799"/>
<polygon fill="#191970" stroke="#191970" points="600.7709,-462.17 611.3606,-461.8395 602.8762,-455.494 600.7709,-462.17"/>
</g>
<!-- Node194640 -->
<g id="node26" class="node">
<title>Node194640</title>
<g id="a_node26"><a xlink:href="quickjs_8c.html#a288254c06a39c9fca740a7abdad2834e" target="_top" xlink:title="__JS_AtomIsTaggedInt">
<polygon fill="none" stroke="#000000" points="272.5,-114.5 272.5,-133.5 391.5,-133.5 391.5,-114.5 272.5,-114.5"/>
<text text-anchor="middle" x="332" y="-121.5" font-family="Helvetica,sans-Serif" font-size="10.00" fill="#000000">__JS_AtomIsTaggedInt</text>
</a>
</g>
</g>
<!-- Node194683&#45;&gt;Node194640 -->
<g id="edge42" class="edge">
<title>Node194683&#45;&gt;Node194640</title>
<path fill="none" stroke="#191970" d="M214.9916,-95.589C235.6434,-100.6035 261.114,-106.7881 283.0125,-112.1053"/>
<polygon fill="#191970" stroke="#191970" points="282.2489,-115.5215 292.7924,-114.4799 283.9007,-108.7191 282.2489,-115.5215"/>
</g>
<!-- Node194684 -->
<g id="node27" class="node">
<title>Node194684</title>
<g id="a_node27"><a xlink:href="quickjs_8c.html#a89f38938cee8077ce1fbba07946ed185" target="_top" xlink:title="__JS_AtomToUInt32">
<polygon fill="none" stroke="#000000" points="278,-76.5 278,-95.5 386,-95.5 386,-76.5 278,-76.5"/>
<text text-anchor="middle" x="332" y="-83.5" font-family="Helvetica,sans-Serif" font-size="10.00" fill="#000000">__JS_AtomToUInt32</text>
</a>
</g>
</g>
<!-- Node194683&#45;&gt;Node194684 -->
<g id="edge43" class="edge">
<title>Node194683&#45;&gt;Node194684</title>
<path fill="none" stroke="#191970" d="M232.0001,-86C243.5798,-86 255.8497,-86 267.6807,-86"/>
<polygon fill="#191970" stroke="#191970" points="267.9362,-89.5001 277.9361,-86 267.9361,-82.5001 267.9362,-89.5001"/>
</g>
<!-- Node194685 -->
<g id="node28" class="node">
<title>Node194685</title>
<g id="a_node28"><a xlink:href="quickjs_8c.html#a1eaea8fa2599700598076ea84f1afcf3" target="_top" xlink:title="is_num_string">
<polygon fill="none" stroke="#ff0000" points="293.5,-38.5 293.5,-57.5 370.5,-57.5 370.5,-38.5 293.5,-38.5"/>
<text text-anchor="middle" x="332" y="-45.5" font-family="Helvetica,sans-Serif" font-size="10.00" fill="#000000">is_num_string</text>
</a>
</g>
</g>
<!-- Node194683&#45;&gt;Node194685 -->
<g id="edge44" class="edge">
<title>Node194683&#45;&gt;Node194685</title>
<path fill="none" stroke="#191970" d="M214.9916,-76.411C235.8005,-71.3584 261.5017,-65.1178 283.5114,-59.7736"/>
<polygon fill="#191970" stroke="#191970" points="284.4417,-63.1495 293.3334,-57.3887 282.7899,-56.3471 284.4417,-63.1495"/>
</g>
</g>
</svg>
