<?xml version="1.0" encoding="UTF-8" standalone="no"?>
<!DOCTYPE svg PUBLIC "-//W3C//DTD SVG 1.1//EN"
 "http://www.w3.org/Graphics/SVG/1.1/DTD/svg11.dtd">
<!-- Generated by graphviz version 2.40.1 (20161225.0304)
 -->
<!-- Title: js_parse_destructuring_var Pages: 1 -->
<!--zoomable 626 -->
<svg id="main" version="1.1" xmlns="http://www.w3.org/2000/svg" xmlns:xlink="http://www.w3.org/1999/xlink" xml:space="preserve" onload="init(evt)">
<style type="text/css"><![CDATA[
.edge:hover path { stroke: red; }
.edge:hover polygon { stroke: red; fill: red; }
]]></style>
<script type="text/javascript"><![CDATA[
var edges = document.getElementsByTagName('g');
if (edges && edges.length) {
  for (var i=0;i<edges.length;i++) {
    if (edges[i].id.substr(0,4)=='edge') {
      edges[i].setAttribute('class','edge');
    }
  }
}
]]></script>
        <defs>
                <circle id="rim" cx="0" cy="0" r="7"/>
                <circle id="rim2" cx="0" cy="0" r="3.5"/>
                <g id="zoomPlus">
                        <use xlink:href="#rim" fill="#404040">
                                <set attributeName="fill" to="#808080" begin="zoomplus.mouseover" end="zoomplus.mouseout"/>
                        </use>
                        <path d="M-4,0h8M0,-4v8" fill="none" stroke="white" stroke-width="1.5" pointer-events="none"/>
                </g>
                <g id="zoomMin">
                        <use xlink:href="#rim" fill="#404040">
                                <set attributeName="fill" to="#808080" begin="zoomminus.mouseover" end="zoomminus.mouseout"/>
                        </use>
                        <path d="M-4,0h8" fill="none" stroke="white" stroke-width="1.5" pointer-events="none"/>
                </g>
                <g id="dirArrow">
                        <path fill="none" stroke="white" stroke-width="1.5" d="M0,-3.0v7 M-2.5,-0.5L0,-3.0L2.5,-0.5"/>
                </g>
               <g id="resetDef">
                       <use xlink:href="#rim2" fill="#404040">
                               <set attributeName="fill" to="#808080" begin="reset.mouseover" end="reset.mouseout"/>
                       </use>
               </g>
        </defs>

<script type="text/javascript">
var viewWidth = 998;
var viewHeight = 626;
var sectionId = 'dynsection-1051';
</script>
<script xlink:href="svgpan.js"/>
<svg id="graph" class="graph">
<g id="viewport">
<title>js_parse_destructuring_var</title>
<!-- Node319946 -->
<g id="node1" class="node">
<title>Node319946</title>
<polygon fill="#bfbfbf" stroke="#000000" points="0,-538.1243 0,-557.1243 134,-557.1243 134,-538.1243 0,-538.1243"/>
<text text-anchor="middle" x="67" y="-545.1243" font-family="Helvetica,sans-Serif" font-size="10.00" fill="#000000">js_parse_destructuring_var</text>
</g>
<!-- Node319947 -->
<g id="node2" class="node">
<title>Node319947</title>
<g id="a_node2"><a xlink:href="quickjs_8c.html#abbf44eaeace1104a6bef718fbf5700fe" target="_top" xlink:title="JS_DupAtom">
<polygon fill="none" stroke="#000000" points="197,-598.1243 197,-617.1243 272,-617.1243 272,-598.1243 197,-598.1243"/>
<text text-anchor="middle" x="234.5" y="-605.1243" font-family="Helvetica,sans-Serif" font-size="10.00" fill="#000000">JS_DupAtom</text>
</a>
</g>
</g>
<!-- Node319946&#45;&gt;Node319947 -->
<g id="edge1" class="edge">
<title>Node319946&#45;&gt;Node319947</title>
<path fill="none" stroke="#191970" d="M93.5409,-557.1315C121.7587,-567.2394 166.574,-583.2926 198.0821,-594.5791"/>
<polygon fill="#191970" stroke="#191970" points="197.2119,-597.9851 207.8065,-598.0625 199.5726,-591.3952 197.2119,-597.9851"/>
</g>
<!-- Node319949 -->
<g id="node4" class="node">
<title>Node319949</title>
<g id="a_node4"><a xlink:href="quickjs_8c.html#ab7fc45a99935a1c0ba50b0216d9401a9" target="_top" xlink:title="JS_FreeAtom">
<polygon fill="none" stroke="#000000" points="520.5,-550.1243 520.5,-569.1243 597.5,-569.1243 597.5,-550.1243 520.5,-550.1243"/>
<text text-anchor="middle" x="559" y="-557.1243" font-family="Helvetica,sans-Serif" font-size="10.00" fill="#000000">JS_FreeAtom</text>
</a>
</g>
</g>
<!-- Node319946&#45;&gt;Node319949 -->
<g id="edge3" class="edge">
<title>Node319946&#45;&gt;Node319949</title>
<path fill="none" stroke="#191970" d="M134.1219,-549.2615C234.6668,-551.7138 421.996,-556.2828 510.4141,-558.4393"/>
<polygon fill="#191970" stroke="#191970" points="510.3575,-561.9389 520.4399,-558.6838 510.5282,-554.941 510.3575,-561.9389"/>
</g>
<!-- Node319954 -->
<g id="node8" class="node">
<title>Node319954</title>
<g id="a_node8"><a xlink:href="quickjs_8c.html#ae158688d1a291870802ba7b327192c25" target="_top" xlink:title="js_parse_check_duplicate\l_parameter">
<polygon fill="none" stroke="#000000" points="170,-510.6243 170,-540.6243 299,-540.6243 299,-510.6243 170,-510.6243"/>
<text text-anchor="start" x="178" y="-528.6243" font-family="Helvetica,sans-Serif" font-size="10.00" fill="#000000">js_parse_check_duplicate</text>
<text text-anchor="middle" x="234.5" y="-517.6243" font-family="Helvetica,sans-Serif" font-size="10.00" fill="#000000">_parameter</text>
</a>
</g>
</g>
<!-- Node319946&#45;&gt;Node319954 -->
<g id="edge8" class="edge">
<title>Node319946&#45;&gt;Node319954</title>
<path fill="none" stroke="#191970" d="M134.1635,-538.8029C142.6023,-537.6945 151.2752,-536.5553 159.8206,-535.433"/>
<polygon fill="#191970" stroke="#191970" points="160.3129,-538.8985 169.772,-534.1259 159.4013,-531.9581 160.3129,-538.8985"/>
</g>
<!-- Node319955 -->
<g id="node9" class="node">
<title>Node319955</title>
<g id="a_node9"><a xlink:href="quickjs_8c.html#a75a3798e2045f6e403c1ef467126d1fb" target="_top" xlink:title="next_token">
<polygon fill="none" stroke="#000000" points="202,-275.1243 202,-294.1243 267,-294.1243 267,-275.1243 202,-275.1243"/>
<text text-anchor="middle" x="234.5" y="-282.1243" font-family="Helvetica,sans-Serif" font-size="10.00" fill="#000000">next_token</text>
</a>
</g>
</g>
<!-- Node319946&#45;&gt;Node319955 -->
<g id="edge9" class="edge">
<title>Node319946&#45;&gt;Node319955</title>
<path fill="none" stroke="#191970" d="M73.1601,-537.9521C97.8859,-499.1289 190.1627,-354.2405 222.8948,-302.8463"/>
<polygon fill="#191970" stroke="#191970" points="225.8641,-304.6993 228.2839,-294.3845 219.9599,-300.939 225.8641,-304.6993"/>
</g>
<!-- Node319948 -->
<g id="node3" class="node">
<title>Node319948</title>
<g id="a_node3"><a xlink:href="quickjs_8c.html#a7f6796ee7a195631366f57c713a33f65" target="_top" xlink:title="__JS_AtomIsConst">
<polygon fill="none" stroke="#000000" points="656,-574.1243 656,-593.1243 758,-593.1243 758,-574.1243 656,-574.1243"/>
<text text-anchor="middle" x="707" y="-581.1243" font-family="Helvetica,sans-Serif" font-size="10.00" fill="#000000">__JS_AtomIsConst</text>
</a>
</g>
</g>
<!-- Node319947&#45;&gt;Node319948 -->
<g id="edge2" class="edge">
<title>Node319947&#45;&gt;Node319948</title>
<path fill="none" stroke="#191970" d="M272.3679,-605.7009C353.9028,-601.5594 546.693,-591.7669 645.8133,-586.7322"/>
<polygon fill="#191970" stroke="#191970" points="646.1661,-590.2189 655.9756,-586.216 645.8109,-583.2279 646.1661,-590.2189"/>
</g>
<!-- Node319949&#45;&gt;Node319948 -->
<g id="edge4" class="edge">
<title>Node319949&#45;&gt;Node319948</title>
<path fill="none" stroke="#191970" d="M597.8853,-565.93C612.5666,-568.3108 629.6484,-571.0808 645.8776,-573.7126"/>
<polygon fill="#191970" stroke="#191970" points="645.412,-577.1827 655.8434,-575.3287 646.5326,-570.273 645.412,-577.1827"/>
</g>
<!-- Node319950 -->
<g id="node5" class="node">
<title>Node319950</title>
<g id="a_node5"><a xlink:href="quickjs_8c.html#a0bbd9e3ecd55e3ea6c9d44bfda382095" target="_top" xlink:title="__JS_FreeAtom">
<polygon fill="none" stroke="#000000" points="663.5,-498.1243 663.5,-517.1243 750.5,-517.1243 750.5,-498.1243 663.5,-498.1243"/>
<text text-anchor="middle" x="707" y="-505.1243" font-family="Helvetica,sans-Serif" font-size="10.00" fill="#000000">__JS_FreeAtom</text>
</a>
</g>
</g>
<!-- Node319949&#45;&gt;Node319950 -->
<g id="edge5" class="edge">
<title>Node319949&#45;&gt;Node319950</title>
<path fill="none" stroke="#191970" d="M586.1455,-550.0867C609.7504,-541.7931 644.1607,-529.703 670.2324,-520.5427"/>
<polygon fill="#191970" stroke="#191970" points="671.502,-523.8064 679.7764,-517.1894 669.1816,-517.2022 671.502,-523.8064"/>
</g>
<!-- Node319951 -->
<g id="node6" class="node">
<title>Node319951</title>
<g id="a_node6"><a xlink:href="quickjs_8c.html#a58c8965dad50b15b75918a09f3d9dc7c" target="_top" xlink:title="JS_FreeAtomStruct">
<polygon fill="none" stroke="#ff0000" points="794,-441.1243 794,-460.1243 897,-460.1243 897,-441.1243 794,-441.1243"/>
<text text-anchor="middle" x="845.5" y="-448.1243" font-family="Helvetica,sans-Serif" font-size="10.00" fill="#000000">JS_FreeAtomStruct</text>
</a>
</g>
</g>
<!-- Node319950&#45;&gt;Node319951 -->
<g id="edge6" class="edge">
<title>Node319950&#45;&gt;Node319951</title>
<path fill="none" stroke="#191970" d="M730.1818,-498.0838C752.752,-488.795 787.2712,-474.5885 812.6627,-464.1386"/>
<polygon fill="#191970" stroke="#191970" points="814.3272,-467.2385 822.2426,-460.196 811.663,-460.7652 814.3272,-467.2385"/>
</g>
<!-- Node319953 -->
<g id="node7" class="node">
<title>Node319953</title>
<g id="a_node7"><a xlink:href="quickjs_8c.html#a69e19dda8a93d613203e0baa06f0ed8d" target="_top" xlink:title="js_free_rt">
<polygon fill="none" stroke="#000000" points="933,-389.1243 933,-408.1243 990,-408.1243 990,-389.1243 933,-389.1243"/>
<text text-anchor="middle" x="961.5" y="-396.1243" font-family="Helvetica,sans-Serif" font-size="10.00" fill="#000000">js_free_rt</text>
</a>
</g>
</g>
<!-- Node319951&#45;&gt;Node319953 -->
<g id="edge7" class="edge">
<title>Node319951&#45;&gt;Node319953</title>
<path fill="none" stroke="#191970" d="M866.7762,-441.0867C884.6506,-433.0741 910.43,-421.5178 930.5835,-412.4834"/>
<polygon fill="#191970" stroke="#191970" points="932.2725,-415.562 939.9659,-408.2776 929.409,-409.1744 932.2725,-415.562"/>
</g>
<!-- Node319956 -->
<g id="node10" class="node">
<title>Node319956</title>
<g id="a_node10"><a xlink:href="quickjs_8c.html#a7cd95e5ed87d4b27630af7944855779f" target="_top" xlink:title="free_token">
<polygon fill="none" stroke="#000000" points="367.5,-522.1243 367.5,-541.1243 429.5,-541.1243 429.5,-522.1243 367.5,-522.1243"/>
<text text-anchor="middle" x="398.5" y="-529.1243" font-family="Helvetica,sans-Serif" font-size="10.00" fill="#000000">free_token</text>
</a>
</g>
</g>
<!-- Node319955&#45;&gt;Node319956 -->
<g id="edge10" class="edge">
<title>Node319955&#45;&gt;Node319956</title>
<path fill="none" stroke="#191970" d="M235.8868,-294.5615C241.3463,-329.8741 264.6251,-450.5035 335,-512.6243 341.4487,-518.3167 349.5454,-522.3047 357.778,-525.0984"/>
<polygon fill="#191970" stroke="#191970" points="356.8367,-528.4695 367.414,-527.8599 358.7652,-521.7403 356.8367,-528.4695"/>
</g>
<!-- Node319957 -->
<g id="node11" class="node">
<title>Node319957</title>
<g id="a_node11"><a xlink:href="quickjs_8h.html#afaa20c47565bc704c6c85f3d77254e7d" target="_top" xlink:title="JS_FreeValue">
<polygon fill="none" stroke="#ff0000" points="520,-503.1243 520,-522.1243 598,-522.1243 598,-503.1243 520,-503.1243"/>
<text text-anchor="middle" x="559" y="-510.1243" font-family="Helvetica,sans-Serif" font-size="10.00" fill="#000000">JS_FreeValue</text>
</a>
</g>
</g>
<!-- Node319955&#45;&gt;Node319957 -->
<g id="edge25" class="edge">
<title>Node319955&#45;&gt;Node319957</title>
<path fill="none" stroke="#191970" d="M245.1559,-294.3548C262.6911,-309.9113 299.2599,-340.4738 335,-358.6243 387.7637,-385.4202 417.384,-359.7471 462,-398.6243 490.1786,-423.1785 473.1304,-446.7237 498,-474.6243 506.4118,-484.0613 517.7204,-491.9808 528.3151,-498.1057"/>
<polygon fill="#191970" stroke="#191970" points="526.8939,-501.3169 537.3511,-503.0193 530.238,-495.1673 526.8939,-501.3169"/>
</g>
<!-- Node319988 -->
<g id="node12" class="node">
<title>Node319988</title>
<g id="a_node12"><a xlink:href="quickjs_8c.html#ab3ca6381d29dea396b12acd7f755c51a" target="_top" xlink:title="is_digit">
<polygon fill="none" stroke="#000000" points="535.5,-446.1243 535.5,-465.1243 582.5,-465.1243 582.5,-446.1243 535.5,-446.1243"/>
<text text-anchor="middle" x="559" y="-453.1243" font-family="Helvetica,sans-Serif" font-size="10.00" fill="#000000">is_digit</text>
</a>
</g>
</g>
<!-- Node319955&#45;&gt;Node319988 -->
<g id="edge13" class="edge">
<title>Node319955&#45;&gt;Node319988</title>
<path fill="none" stroke="#191970" d="M259.1915,-294.2364C279.481,-302.0682 309.0101,-313.3142 335,-322.6243 391.1011,-342.721 416.9634,-326.5998 462,-365.6243 488.7385,-388.7934 470.9795,-413.7848 498,-436.6243 505.7962,-443.2142 515.8705,-447.5215 525.5774,-450.3358"/>
<polygon fill="#191970" stroke="#191970" points="524.9028,-453.7741 535.4491,-452.7611 526.573,-446.9762 524.9028,-453.7741"/>
</g>
<!-- Node319989 -->
<g id="node13" class="node">
<title>Node319989</title>
<g id="a_node13"><a xlink:href="quickjs_8c.html#a40bcef4994dba57dfb34b6eed66daef0" target="_top" xlink:title="js_atof">
<polygon fill="none" stroke="#000000" points="375.5,-294.1243 375.5,-313.1243 421.5,-313.1243 421.5,-294.1243 375.5,-294.1243"/>
<text text-anchor="middle" x="398.5" y="-301.1243" font-family="Helvetica,sans-Serif" font-size="10.00" fill="#000000">js_atof</text>
</a>
</g>
</g>
<!-- Node319955&#45;&gt;Node319989 -->
<g id="edge14" class="edge">
<title>Node319955&#45;&gt;Node319989</title>
<path fill="none" stroke="#191970" d="M267.2937,-288.4236C295.6408,-291.7077 336.4377,-296.4342 364.9916,-299.7423"/>
<polygon fill="#191970" stroke="#191970" points="364.9478,-303.2605 375.2842,-300.9347 365.7535,-296.307 364.9478,-303.2605"/>
</g>
<!-- Node319997 -->
<g id="node19" class="node">
<title>Node319997</title>
<g id="a_node19"><a xlink:href="quickjs_8c.html#af23ec7c9970ceb4671c59da7abd4b078" target="_top" xlink:title="js_check_stack_overflow">
<polygon fill="none" stroke="#000000" points="335,-256.1243 335,-275.1243 462,-275.1243 462,-256.1243 335,-256.1243"/>
<text text-anchor="middle" x="398.5" y="-263.1243" font-family="Helvetica,sans-Serif" font-size="10.00" fill="#000000">js_check_stack_overflow</text>
</a>
</g>
</g>
<!-- Node319955&#45;&gt;Node319997 -->
<g id="edge23" class="edge">
<title>Node319955&#45;&gt;Node319997</title>
<path fill="none" stroke="#191970" d="M267.2937,-280.8251C283.8465,-278.9074 304.6444,-276.4978 324.7708,-274.1661"/>
<polygon fill="#191970" stroke="#191970" points="325.36,-277.6214 334.8907,-272.9937 324.5543,-270.6679 325.36,-277.6214"/>
</g>
<!-- Node319999 -->
<g id="node21" class="node">
<title>Node319999</title>
<g id="a_node21"><a xlink:href="quickjs_8h.html#ad80a83d73e9b7d872b88fbf2943aebe9" target="_top" xlink:title="JS_IsException">
<polygon fill="none" stroke="#000000" points="355.5,-104.1243 355.5,-123.1243 441.5,-123.1243 441.5,-104.1243 355.5,-104.1243"/>
<text text-anchor="middle" x="398.5" y="-111.1243" font-family="Helvetica,sans-Serif" font-size="10.00" fill="#000000">JS_IsException</text>
</a>
</g>
</g>
<!-- Node319955&#45;&gt;Node319999 -->
<g id="edge26" class="edge">
<title>Node319955&#45;&gt;Node319999</title>
<path fill="none" stroke="#191970" d="M238.0507,-275.121C248.5224,-248.4078 281.9143,-172.039 335,-132.6243 338.378,-130.1162 342.0864,-127.937 345.9619,-126.0438"/>
<polygon fill="#191970" stroke="#191970" points="347.3831,-129.243 355.2312,-122.1255 344.6575,-122.7954 347.3831,-129.243"/>
</g>
<!-- Node320000 -->
<g id="node22" class="node">
<title>Node320000</title>
<g id="a_node22"><a xlink:href="quickjs_8c.html#ace438176f9f0e0fea6d6f5cdffb1577e" target="_top" xlink:title="js_parse_string">
<polygon fill="none" stroke="#ff0000" points="357,-66.1243 357,-85.1243 440,-85.1243 440,-66.1243 357,-66.1243"/>
<text text-anchor="middle" x="398.5" y="-73.1243" font-family="Helvetica,sans-Serif" font-size="10.00" fill="#000000">js_parse_string</text>
</a>
</g>
</g>
<!-- Node319955&#45;&gt;Node320000 -->
<g id="edge27" class="edge">
<title>Node319955&#45;&gt;Node320000</title>
<path fill="none" stroke="#191970" d="M236.7441,-275.0522C244.5207,-244.0233 273.2835,-145.302 335,-94.6243 338.749,-91.5459 342.9853,-88.966 347.4466,-86.8041"/>
<polygon fill="#191970" stroke="#191970" points="348.9287,-89.9789 356.8363,-82.9276 346.2574,-83.5086 348.9287,-89.9789"/>
</g>
<!-- Node320001 -->
<g id="node23" class="node">
<title>Node320001</title>
<g id="a_node23"><a xlink:href="libregexp_8h.html#adca92c15688d39a0e06cd92f870d25d2" target="_top" xlink:title="lre_parse_escape">
<polygon fill="none" stroke="#ff0000" points="512.5,-104.1243 512.5,-123.1243 605.5,-123.1243 605.5,-104.1243 512.5,-104.1243"/>
<text text-anchor="middle" x="559" y="-111.1243" font-family="Helvetica,sans-Serif" font-size="10.00" fill="#000000">lre_parse_escape</text>
</a>
</g>
</g>
<!-- Node319955&#45;&gt;Node320001 -->
<g id="edge36" class="edge">
<title>Node319955&#45;&gt;Node320001</title>
<path fill="none" stroke="#191970" d="M243.5118,-275.0658C260.0299,-258.1128 296.9677,-222.7666 335,-203.6243 387.0927,-177.4053 411.7802,-200.2733 462,-170.6243 482.0336,-158.7968 478.2544,-144.9265 498,-132.6243 501.3465,-130.5393 504.9398,-128.667 508.6468,-126.9885"/>
<polygon fill="#191970" stroke="#191970" points="510.0571,-130.1937 518.0198,-123.2048 507.4367,-123.7027 510.0571,-130.1937"/>
</g>
<!-- Node320027 -->
<g id="node24" class="node">
<title>Node320027</title>
<g id="a_node24"><a xlink:href="cutils_8h.html#a69529af6d6911dd0ead90eef221b2e10" target="_top" xlink:title="unicode_from_utf8">
<polygon fill="none" stroke="#000000" points="510.5,-47.1243 510.5,-66.1243 607.5,-66.1243 607.5,-47.1243 510.5,-47.1243"/>
<text text-anchor="middle" x="559" y="-54.1243" font-family="Helvetica,sans-Serif" font-size="10.00" fill="#000000">unicode_from_utf8</text>
</a>
</g>
</g>
<!-- Node319955&#45;&gt;Node320027 -->
<g id="edge41" class="edge">
<title>Node319955&#45;&gt;Node320027</title>
<path fill="none" stroke="#191970" d="M236.6199,-274.9644C246.4926,-230.9445 289.4148,-50.1317 335,-18.6243 396.8204,24.1043 490.6904,-17.813 534.6659,-42.0516"/>
<polygon fill="#191970" stroke="#191970" points="533.0819,-45.1768 543.5078,-47.0611 536.5326,-39.0864 533.0819,-45.1768"/>
</g>
<!-- Node320029 -->
<g id="node25" class="node">
<title>Node320029</title>
<g id="a_node25"><a xlink:href="quickjs_8c.html#a4bd17ae26c9b4e0ab5f7fd320199eb2e" target="_top" xlink:title="js_parse_template_part">
<polygon fill="none" stroke="#ff0000" points="339.5,-28.1243 339.5,-47.1243 457.5,-47.1243 457.5,-28.1243 339.5,-28.1243"/>
<text text-anchor="middle" x="398.5" y="-35.1243" font-family="Helvetica,sans-Serif" font-size="10.00" fill="#000000">js_parse_template_part</text>
</a>
</g>
</g>
<!-- Node319955&#45;&gt;Node320029 -->
<g id="edge30" class="edge">
<title>Node319955&#45;&gt;Node320029</title>
<path fill="none" stroke="#191970" d="M235.8868,-274.6871C241.3463,-239.3746 264.6251,-118.7451 335,-56.6243 336.9249,-54.9252 338.9966,-53.3779 341.175,-51.9689"/>
<polygon fill="#191970" stroke="#191970" points="342.8853,-55.0231 350.0205,-47.1912 339.5586,-48.8641 342.8853,-55.0231"/>
</g>
<!-- Node320030 -->
<g id="node26" class="node">
<title>Node320030</title>
<g id="a_node26"><a xlink:href="quickjs_8h.html#ad668ac56e2bd3498ec0f0eddb574d3ff" target="_top" xlink:title="JS_VALUE_IS_NAN">
<polygon fill="none" stroke="#000000" points="344,-484.1243 344,-503.1243 453,-503.1243 453,-484.1243 344,-484.1243"/>
<text text-anchor="middle" x="398.5" y="-491.1243" font-family="Helvetica,sans-Serif" font-size="10.00" fill="#000000">JS_VALUE_IS_NAN</text>
</a>
</g>
</g>
<!-- Node319955&#45;&gt;Node320030 -->
<g id="edge32" class="edge">
<title>Node319955&#45;&gt;Node320030</title>
<path fill="none" stroke="#191970" d="M236.7441,-294.1965C244.5207,-325.2253 273.2835,-423.9466 335,-474.6243 337.0621,-476.3176 339.2716,-477.86 341.5849,-479.265"/>
<polygon fill="#191970" stroke="#191970" points="340.4311,-482.6054 350.9296,-484.0313 343.6117,-476.3697 340.4311,-482.6054"/>
</g>
<!-- Node320031 -->
<g id="node27" class="node">
<title>Node320031</title>
<g id="a_node27"><a xlink:href="libregexp_8h.html#a542d834d69607ea57c3ca53757c86c43" target="_top" xlink:title="lre_is_space">
<polygon fill="none" stroke="#000000" points="363,-446.1243 363,-465.1243 434,-465.1243 434,-446.1243 363,-446.1243"/>
<text text-anchor="middle" x="398.5" y="-453.1243" font-family="Helvetica,sans-Serif" font-size="10.00" fill="#000000">lre_is_space</text>
</a>
</g>
</g>
<!-- Node319955&#45;&gt;Node320031 -->
<g id="edge33" class="edge">
<title>Node319955&#45;&gt;Node320031</title>
<path fill="none" stroke="#191970" d="M238.0507,-294.1277C248.5224,-320.8408 281.9143,-397.2096 335,-436.6243 340.4626,-440.6802 346.7891,-443.876 353.2891,-446.3928"/>
<polygon fill="#191970" stroke="#191970" points="352.2619,-449.74 362.856,-449.6154 354.4965,-443.1062 352.2619,-449.74"/>
</g>
<!-- Node320032 -->
<g id="node28" class="node">
<title>Node320032</title>
<g id="a_node28"><a xlink:href="libregexp_8h.html#a4737debd233b96f1a317fdb40a3fbd69" target="_top" xlink:title="lre_js_is_ident_first">
<polygon fill="none" stroke="#ff0000" points="348,-408.1243 348,-427.1243 449,-427.1243 449,-408.1243 348,-408.1243"/>
<text text-anchor="middle" x="398.5" y="-415.1243" font-family="Helvetica,sans-Serif" font-size="10.00" fill="#000000">lre_js_is_ident_first</text>
</a>
</g>
</g>
<!-- Node319955&#45;&gt;Node320032 -->
<g id="edge34" class="edge">
<title>Node319955&#45;&gt;Node320032</title>
<path fill="none" stroke="#191970" d="M240.9137,-294.1677C255.3644,-315 292.5419,-364.9711 335,-393.6243 341.1117,-397.7489 348.0287,-401.2908 354.9923,-404.2886"/>
<polygon fill="#191970" stroke="#191970" points="353.86,-407.6048 364.4458,-408.0429 356.4437,-401.0991 353.86,-407.6048"/>
</g>
<!-- Node320037 -->
<g id="node29" class="node">
<title>Node320037</title>
<g id="a_node29"><a xlink:href="libregexp_8h.html#a3dd6ac80b2cc9f7fc7f18a4cb0acdce3" target="_top" xlink:title="lre_js_is_ident_next">
<polygon fill="none" stroke="#ff0000" points="507.5,-142.1243 507.5,-161.1243 610.5,-161.1243 610.5,-142.1243 507.5,-142.1243"/>
<text text-anchor="middle" x="559" y="-149.1243" font-family="Helvetica,sans-Serif" font-size="10.00" fill="#000000">lre_js_is_ident_next</text>
</a>
</g>
</g>
<!-- Node319955&#45;&gt;Node320037 -->
<g id="edge35" class="edge">
<title>Node319955&#45;&gt;Node320037</title>
<path fill="none" stroke="#191970" d="M259.1915,-275.0122C279.481,-267.1805 309.0101,-255.9345 335,-246.6243 391.1011,-226.5277 410.7108,-233.9661 462,-203.6243 480.681,-192.573 479.185,-181.4459 498,-170.6243 501.6778,-168.509 505.6184,-166.6017 509.6611,-164.8873"/>
<polygon fill="#191970" stroke="#191970" points="511.1184,-168.0771 519.2039,-161.2305 508.6136,-161.5406 511.1184,-168.0771"/>
</g>
<!-- Node320039 -->
<g id="node30" class="node">
<title>Node320039</title>
<g id="a_node30"><a xlink:href="quickjs_8c.html#ad91865d0889d1420e3e70d5d497a9bdb" target="_top" xlink:title="parse_ident">
<polygon fill="none" stroke="#ff0000" points="365,-142.1243 365,-161.1243 432,-161.1243 432,-142.1243 365,-142.1243"/>
<text text-anchor="middle" x="398.5" y="-149.1243" font-family="Helvetica,sans-Serif" font-size="10.00" fill="#000000">parse_ident</text>
</a>
</g>
</g>
<!-- Node319955&#45;&gt;Node320039 -->
<g id="edge37" class="edge">
<title>Node319955&#45;&gt;Node320039</title>
<path fill="none" stroke="#191970" d="M240.9137,-275.0809C255.3644,-254.2487 292.5419,-204.2776 335,-175.6243 341.1789,-171.4545 348.1808,-167.88 355.2219,-164.8614"/>
<polygon fill="#191970" stroke="#191970" points="356.7607,-168.0167 364.774,-161.0858 354.1875,-161.5068 356.7607,-168.0167"/>
</g>
<!-- Node319956&#45;&gt;Node319949 -->
<g id="edge11" class="edge">
<title>Node319956&#45;&gt;Node319949</title>
<path fill="none" stroke="#191970" d="M429.827,-537.0895C452.6994,-541.0797 484.1459,-546.5657 510.2846,-551.1257"/>
<polygon fill="#191970" stroke="#191970" points="509.928,-554.6163 520.3807,-552.887 511.1311,-547.7204 509.928,-554.6163"/>
</g>
<!-- Node319956&#45;&gt;Node319957 -->
<g id="edge12" class="edge">
<title>Node319956&#45;&gt;Node319957</title>
<path fill="none" stroke="#191970" d="M429.827,-527.9158C452.5384,-525.2273 483.7034,-521.5379 509.7316,-518.4567"/>
<polygon fill="#191970" stroke="#191970" points="510.2743,-521.917 519.7934,-517.2656 509.4513,-514.9656 510.2743,-521.917"/>
</g>
<!-- Node319989&#45;&gt;Node319953 -->
<g id="edge16" class="edge">
<title>Node319989&#45;&gt;Node319953</title>
<path fill="none" stroke="#191970" d="M421.6322,-307.3786C433.8965,-309.7913 449.0609,-313.456 462,-318.6243 479.2017,-325.4954 480.4603,-333.6686 498,-339.6243 649.0635,-390.9193 841.5761,-398.2219 922.6948,-398.8517"/>
<polygon fill="#191970" stroke="#191970" points="922.9173,-402.3526 932.9336,-398.8995 922.9501,-395.3527 922.9173,-402.3526"/>
</g>
<!-- Node319989&#45;&gt;Node319988 -->
<g id="edge15" class="edge">
<title>Node319989&#45;&gt;Node319988</title>
<path fill="none" stroke="#191970" d="M421.8011,-307.3048C435.1889,-310.5475 451.3982,-316.5637 462,-327.6243 497.3032,-364.4556 461.6185,-400.8577 498,-436.6243 505.4748,-443.9728 515.7433,-448.4851 525.7243,-451.2537"/>
<polygon fill="#191970" stroke="#191970" points="524.9676,-454.6709 535.4954,-453.4816 526.5238,-447.8461 524.9676,-454.6709"/>
</g>
<!-- Node319990 -->
<g id="node14" class="node">
<title>Node319990</title>
<g id="a_node14"><a xlink:href="quickjs_8h.html#ae91f44bd7249613050c18c7133702c67" target="_top" xlink:title="JS_NewFloat64">
<polygon fill="none" stroke="#ff0000" points="516,-408.1243 516,-427.1243 602,-427.1243 602,-408.1243 516,-408.1243"/>
<text text-anchor="middle" x="559" y="-415.1243" font-family="Helvetica,sans-Serif" font-size="10.00" fill="#000000">JS_NewFloat64</text>
</a>
</g>
</g>
<!-- Node319989&#45;&gt;Node319990 -->
<g id="edge17" class="edge">
<title>Node319989&#45;&gt;Node319990</title>
<path fill="none" stroke="#191970" d="M421.7173,-308.1947C434.748,-311.7181 450.623,-317.7181 462,-327.6243 487.1993,-349.566 472.9492,-371.5133 498,-393.6243 502.5368,-397.6287 507.8205,-401.005 513.3452,-403.8414"/>
<polygon fill="#191970" stroke="#191970" points="512.2282,-407.1779 522.781,-408.1206 515.1194,-400.8028 512.2282,-407.1779"/>
</g>
<!-- Node319992 -->
<g id="node15" class="node">
<title>Node319992</title>
<g id="a_node15"><a xlink:href="quickjs_8c.html#afe15bf5b8db2df1ac795c3803a1f67a6" target="_top" xlink:title="js_strtod">
<polygon fill="none" stroke="#000000" points="532,-218.1243 532,-237.1243 586,-237.1243 586,-218.1243 532,-218.1243"/>
<text text-anchor="middle" x="559" y="-225.1243" font-family="Helvetica,sans-Serif" font-size="10.00" fill="#000000">js_strtod</text>
</a>
</g>
</g>
<!-- Node319989&#45;&gt;Node319992 -->
<g id="edge18" class="edge">
<title>Node319989&#45;&gt;Node319992</title>
<path fill="none" stroke="#191970" d="M421.7421,-299.7118C434.3224,-296.8686 449.7491,-292.162 462,-284.6243 481.8143,-272.433 478.2544,-258.9265 498,-246.6243 505.3756,-242.0291 513.9498,-238.467 522.2982,-235.736"/>
<polygon fill="#191970" stroke="#191970" points="523.309,-239.087 531.9095,-232.8998 521.3278,-232.3732 523.309,-239.087"/>
</g>
<!-- Node319993 -->
<g id="node16" class="node">
<title>Node319993</title>
<g id="a_node16"><a xlink:href="quickjs_8c.html#aee06949e4c5ec85b3da174509b93dc65" target="_top" xlink:title="to_digit">
<polygon fill="none" stroke="#000000" points="683,-275.1243 683,-294.1243 731,-294.1243 731,-275.1243 683,-275.1243"/>
<text text-anchor="middle" x="707" y="-282.1243" font-family="Helvetica,sans-Serif" font-size="10.00" fill="#000000">to_digit</text>
</a>
</g>
</g>
<!-- Node319989&#45;&gt;Node319993 -->
<g id="edge22" class="edge">
<title>Node319989&#45;&gt;Node319993</title>
<path fill="none" stroke="#191970" d="M421.7236,-309.9929C462.3516,-320.167 548.7832,-337.4989 620,-322.6243 641.714,-318.0891 664.6425,-307.8197 681.5071,-299.0988"/>
<polygon fill="#191970" stroke="#191970" points="683.5097,-301.9971 690.6809,-294.1981 680.2114,-295.8229 683.5097,-301.9971"/>
</g>
<!-- Node319994 -->
<g id="node17" class="node">
<title>Node319994</title>
<g id="a_node17"><a xlink:href="quickjs_8c.html#a344d6c0e45d9bf3861fd9269724045a2" target="_top" xlink:title="JS_ThrowOutOfMemory">
<polygon fill="none" stroke="#ff0000" points="498,-294.1243 498,-313.1243 620,-313.1243 620,-294.1243 498,-294.1243"/>
<text text-anchor="middle" x="559" y="-301.1243" font-family="Helvetica,sans-Serif" font-size="10.00" fill="#000000">JS_ThrowOutOfMemory</text>
</a>
</g>
</g>
<!-- Node319989&#45;&gt;Node319994 -->
<g id="edge20" class="edge">
<title>Node319989&#45;&gt;Node319994</title>
<path fill="none" stroke="#191970" d="M421.8381,-303.6243C439.2591,-303.6243 464.0522,-303.6243 487.779,-303.6243"/>
<polygon fill="#191970" stroke="#191970" points="487.8577,-307.1244 497.8577,-303.6243 487.8577,-300.1244 487.8577,-307.1244"/>
</g>
<!-- Node319996 -->
<g id="node18" class="node">
<title>Node319996</title>
<g id="a_node18"><a xlink:href="cutils_8h.html#ac86d2d258aae26d8f600c60e9953c9cc" target="_top" xlink:title="strstart">
<polygon fill="none" stroke="#000000" points="535.5,-256.1243 535.5,-275.1243 582.5,-275.1243 582.5,-256.1243 535.5,-256.1243"/>
<text text-anchor="middle" x="559" y="-263.1243" font-family="Helvetica,sans-Serif" font-size="10.00" fill="#000000">strstart</text>
</a>
</g>
</g>
<!-- Node319989&#45;&gt;Node319996 -->
<g id="edge21" class="edge">
<title>Node319989&#45;&gt;Node319996</title>
<path fill="none" stroke="#191970" d="M421.8381,-298.0988C449.0991,-291.6445 494.4125,-280.9161 525.4431,-273.5693"/>
<polygon fill="#191970" stroke="#191970" points="526.4477,-276.9283 535.3723,-271.2184 524.8349,-270.1166 526.4477,-276.9283"/>
</g>
<!-- Node319992&#45;&gt;Node319993 -->
<g id="edge19" class="edge">
<title>Node319992&#45;&gt;Node319993</title>
<path fill="none" stroke="#191970" d="M586.242,-235.4105C596.8643,-238.6281 609.0871,-242.5555 620,-246.6243 639.4939,-253.8925 660.9155,-263.2318 677.6244,-270.8327"/>
<polygon fill="#191970" stroke="#191970" points="676.3194,-274.0848 686.8676,-275.0784 679.2412,-267.7238 676.3194,-274.0848"/>
</g>
<!-- Node319998 -->
<g id="node20" class="node">
<title>Node319998</title>
<g id="a_node20"><a xlink:href="quickjs_8c.html#acad70023f36797496683e579a4d60461" target="_top" xlink:title="js_get_stack_pointer">
<polygon fill="none" stroke="#000000" points="505.5,-180.1243 505.5,-199.1243 612.5,-199.1243 612.5,-180.1243 505.5,-180.1243"/>
<text text-anchor="middle" x="559" y="-187.1243" font-family="Helvetica,sans-Serif" font-size="10.00" fill="#000000">js_get_stack_pointer</text>
</a>
</g>
</g>
<!-- Node319997&#45;&gt;Node319998 -->
<g id="edge24" class="edge">
<title>Node319997&#45;&gt;Node319998</title>
<path fill="none" stroke="#191970" d="M430.942,-256.0491C441.2617,-252.31 452.4647,-247.4922 462,-241.6243 480.4854,-230.2488 479.185,-219.4459 498,-208.6243 501.6778,-206.509 505.6184,-204.6017 509.6611,-202.8873"/>
<polygon fill="#191970" stroke="#191970" points="511.1184,-206.0771 519.2039,-199.2305 508.6136,-199.5406 511.1184,-206.0771"/>
</g>
<!-- Node320000&#45;&gt;Node320001 -->
<g id="edge28" class="edge">
<title>Node320000&#45;&gt;Node320001</title>
<path fill="none" stroke="#191970" d="M439.0009,-85.2133C460.1806,-90.2278 486.3022,-96.4124 508.7604,-101.7296"/>
<polygon fill="#191970" stroke="#191970" points="508.2529,-105.2061 518.7903,-104.1043 509.8657,-98.3945 508.2529,-105.2061"/>
</g>
<!-- Node320000&#45;&gt;Node320027 -->
<g id="edge29" class="edge">
<title>Node320000&#45;&gt;Node320027</title>
<path fill="none" stroke="#191970" d="M440.2505,-70.6819C458.5213,-68.519 480.2815,-65.943 500.1528,-63.5907"/>
<polygon fill="#191970" stroke="#191970" points="500.8244,-67.0357 510.3436,-62.3843 500.0014,-60.0842 500.8244,-67.0357"/>
</g>
<!-- Node320029&#45;&gt;Node320027 -->
<g id="edge31" class="edge">
<title>Node320029&#45;&gt;Node320027</title>
<path fill="none" stroke="#191970" d="M457.8083,-44.6452C471.7485,-46.2955 486.5952,-48.053 500.4996,-49.6991"/>
<polygon fill="#191970" stroke="#191970" points="500.0891,-53.1748 510.4313,-50.8748 500.9121,-46.2234 500.0891,-53.1748"/>
</g>
<!-- Node320039&#45;&gt;Node320001 -->
<g id="edge39" class="edge">
<title>Node320039&#45;&gt;Node320001</title>
<path fill="none" stroke="#191970" d="M432.1461,-143.6583C454.3634,-138.3981 483.8738,-131.4112 508.8404,-125.5001"/>
<polygon fill="#191970" stroke="#191970" points="509.9457,-128.8353 518.8703,-123.1254 508.3329,-122.0236 509.9457,-128.8353"/>
</g>
<!-- Node320039&#45;&gt;Node320027 -->
<g id="edge40" class="edge">
<title>Node320039&#45;&gt;Node320027</title>
<path fill="none" stroke="#191970" d="M432.1901,-145.0526C442.2464,-142.1862 452.9834,-138.1721 462,-132.6243 481.8143,-120.433 479.9802,-109.339 498,-94.6243 508.5703,-85.9928 521.2433,-77.8003 532.2927,-71.2474"/>
<polygon fill="#191970" stroke="#191970" points="534.2013,-74.1869 541.1105,-66.1548 530.7005,-68.1252 534.2013,-74.1869"/>
</g>
<!-- Node320039&#45;&gt;Node320037 -->
<g id="edge38" class="edge">
<title>Node320039&#45;&gt;Node320037</title>
<path fill="none" stroke="#191970" d="M432.1461,-151.6243C451.0381,-151.6243 475.2033,-151.6243 497.3643,-151.6243"/>
<polygon fill="#191970" stroke="#191970" points="497.3792,-155.1244 507.3791,-151.6243 497.3791,-148.1244 497.3792,-155.1244"/>
</g>
</g>
</svg>
        <g id="navigator" transform="translate(0 0)" fill="#404254">
                <rect fill="#f2f5e9" fill-opacity="0.5" stroke="#606060" stroke-width=".5" x="0" y="0" width="60" height="60"/>
                <use id="zoomplus" xlink:href="#zoomPlus" x="17" y="9" onmousedown="handleZoom(evt,'in')"/>
                <use id="zoomminus" xlink:href="#zoomMin" x="42" y="9" onmousedown="handleZoom(evt,'out')"/>
                <use id="reset" xlink:href="#resetDef" x="30" y="36" onmousedown="handleReset()"/>
                <g id="arrowUp" xlink:href="#dirArrow" transform="translate(30 24)" onmousedown="handlePan(0,-1)">
                  <use xlink:href="#rim" fill="#404040">
                        <set attributeName="fill" to="#808080" begin="arrowUp.mouseover" end="arrowUp.mouseout"/>
                  </use>
                  <path fill="none" stroke="white" stroke-width="1.5" d="M0,-3.0v7 M-2.5,-0.5L0,-3.0L2.5,-0.5"/>
                </g>
                <g id="arrowRight" xlink:href="#dirArrow" transform="rotate(90) translate(36 -43)" onmousedown="handlePan(1,0)">
                  <use xlink:href="#rim" fill="#404040">
                        <set attributeName="fill" to="#808080" begin="arrowRight.mouseover" end="arrowRight.mouseout"/>
                  </use>
                  <path fill="none" stroke="white" stroke-width="1.5" d="M0,-3.0v7 M-2.5,-0.5L0,-3.0L2.5,-0.5"/>
                </g>
                <g id="arrowDown" xlink:href="#dirArrow" transform="rotate(180) translate(-30 -48)" onmousedown="handlePan(0,1)">
                  <use xlink:href="#rim" fill="#404040">
                        <set attributeName="fill" to="#808080" begin="arrowDown.mouseover" end="arrowDown.mouseout"/>
                  </use>
                  <path fill="none" stroke="white" stroke-width="1.5" d="M0,-3.0v7 M-2.5,-0.5L0,-3.0L2.5,-0.5"/>
                </g>
                <g id="arrowLeft" xlink:href="#dirArrow" transform="rotate(270) translate(-36 17)" onmousedown="handlePan(-1,0)">
                  <use xlink:href="#rim" fill="#404040">
                        <set attributeName="fill" to="#808080" begin="arrowLeft.mouseover" end="arrowLeft.mouseout"/>
                  </use>
                  <path fill="none" stroke="white" stroke-width="1.5" d="M0,-3.0v7 M-2.5,-0.5L0,-3.0L2.5,-0.5"/>
                </g>
        </g>
        <svg viewBox="0 0 15 15" width="100%" height="30px" preserveAspectRatio="xMaxYMin meet">
         <g id="arrow_out" transform="scale(0.3 0.3)">
          <a xlink:href="quickjs_8c_ab10609a91c359ea5d3051f7bb646af83_cgraph_org.svg" target="_base">
           <rect id="button" ry="5" rx="5" y="6" x="6" height="38" width="38"
                fill="#f2f5e9" fill-opacity="0.5" stroke="#606060" stroke-width="1.0"/>
           <path id="arrow"
             d="M 11.500037,31.436501 C 11.940474,20.09759 22.043105,11.32322 32.158766,21.979434 L 37.068811,17.246167 C 37.068811,17.246167 37.088388,32 37.088388,32 L 22.160133,31.978069 C 22.160133,31.978069 26.997745,27.140456 26.997745,27.140456 C 18.528582,18.264221 13.291696,25.230495 11.500037,31.436501 z"
             style="fill:#404040;"/>
          </a>
         </g>
        </svg>
</svg>
