<?xml version="1.0" encoding="UTF-8" standalone="no"?>
<!DOCTYPE svg PUBLIC "-//W3C//DTD SVG 1.1//EN"
 "http://www.w3.org/Graphics/SVG/1.1/DTD/svg11.dtd">
<!-- Generated by graphviz version 2.40.1 (20161225.0304)
 -->
<!-- Title: push_scope Pages: 1 -->
<!--zoomable 271 -->
<svg id="main" version="1.1" xmlns="http://www.w3.org/2000/svg" xmlns:xlink="http://www.w3.org/1999/xlink" xml:space="preserve" onload="init(evt)">
<style type="text/css"><![CDATA[
.edge:hover path { stroke: red; }
.edge:hover polygon { stroke: red; fill: red; }
]]></style>
<script type="text/javascript"><![CDATA[
var edges = document.getElementsByTagName('g');
if (edges && edges.length) {
  for (var i=0;i<edges.length;i++) {
    if (edges[i].id.substr(0,4)=='edge') {
      edges[i].setAttribute('class','edge');
    }
  }
}
]]></script>
        <defs>
                <circle id="rim" cx="0" cy="0" r="7"/>
                <circle id="rim2" cx="0" cy="0" r="3.5"/>
                <g id="zoomPlus">
                        <use xlink:href="#rim" fill="#404040">
                                <set attributeName="fill" to="#808080" begin="zoomplus.mouseover" end="zoomplus.mouseout"/>
                        </use>
                        <path d="M-4,0h8M0,-4v8" fill="none" stroke="white" stroke-width="1.5" pointer-events="none"/>
                </g>
                <g id="zoomMin">
                        <use xlink:href="#rim" fill="#404040">
                                <set attributeName="fill" to="#808080" begin="zoomminus.mouseover" end="zoomminus.mouseout"/>
                        </use>
                        <path d="M-4,0h8" fill="none" stroke="white" stroke-width="1.5" pointer-events="none"/>
                </g>
                <g id="dirArrow">
                        <path fill="none" stroke="white" stroke-width="1.5" d="M0,-3.0v7 M-2.5,-0.5L0,-3.0L2.5,-0.5"/>
                </g>
               <g id="resetDef">
                       <use xlink:href="#rim2" fill="#404040">
                               <set attributeName="fill" to="#808080" begin="reset.mouseover" end="reset.mouseout"/>
                       </use>
               </g>
        </defs>

<script type="text/javascript">
var viewWidth = 790;
var viewHeight = 271;
var sectionId = 'dynsection-962';
</script>
<script xlink:href="svgpan.js"/>
<svg id="graph" class="graph">
<g id="viewport">
<title>push_scope</title>
<!-- Node309620 -->
<g id="node1" class="node">
<title>Node309620</title>
<polygon fill="#bfbfbf" stroke="#000000" points="0,-148.2842 0,-167.2842 69,-167.2842 69,-148.2842 0,-148.2842"/>
<text text-anchor="middle" x="34.5" y="-155.2842" font-family="Helvetica,sans-Serif" font-size="10.00" fill="#000000">push_scope</text>
</g>
<!-- Node309621 -->
<g id="node2" class="node">
<title>Node309621</title>
<g id="a_node2"><a xlink:href="quickjs_8c.html#a46a8a7e155cfd0af984f6725f060f0d6" target="_top" xlink:title="__JS_EvalInternal">
<polygon fill="none" stroke="#000000" points="105,-243.2842 105,-262.2842 201,-262.2842 201,-243.2842 105,-243.2842"/>
<text text-anchor="middle" x="153" y="-250.2842" font-family="Helvetica,sans-Serif" font-size="10.00" fill="#000000">__JS_EvalInternal</text>
</a>
</g>
</g>
<!-- Node309620&#45;&gt;Node309621 -->
<g id="edge1" class="edge">
<title>Node309620&#45;&gt;Node309621</title>
<path fill="none" stroke="#191970" d="M48.9493,-175.2807C62.3361,-190.7238 83.3876,-213.1488 105,-228.7842 112.6996,-234.3545 121.8837,-239.296 130.147,-243.2255"/>
<polygon fill="#191970" stroke="#191970" points="51.4875,-172.8625 42.3459,-167.507 46.1525,-177.3944 51.4875,-172.8625"/>
</g>
<!-- Node309629 -->
<g id="node5" class="node">
<title>Node309629</title>
<g id="a_node5"><a xlink:href="quickjs_8c.html#acc0cac53be5317d9cab6a79afcd7da48" target="_top" xlink:title="js_parse_block">
<polygon fill="none" stroke="#000000" points="112,-129.2842 112,-148.2842 194,-148.2842 194,-129.2842 112,-129.2842"/>
<text text-anchor="middle" x="153" y="-136.2842" font-family="Helvetica,sans-Serif" font-size="10.00" fill="#000000">js_parse_block</text>
</a>
</g>
</g>
<!-- Node309620&#45;&gt;Node309629 -->
<g id="edge4" class="edge">
<title>Node309620&#45;&gt;Node309629</title>
<path fill="none" stroke="#191970" d="M79.1317,-150.6281C89.8722,-148.906 101.2964,-147.0743 111.8688,-145.3791"/>
<polygon fill="#191970" stroke="#191970" points="78.4134,-147.1985 69.0937,-152.2376 79.5217,-154.1102 78.4134,-147.1985"/>
</g>
<!-- Node309630 -->
<g id="node6" class="node">
<title>Node309630</title>
<g id="a_node6"><a xlink:href="quickjs_8c.html#a9d844c16dcc71701436848074337d32c" target="_top" xlink:title="js_parse_statement\l_or_decl">
<polygon fill="none" stroke="#000000" points="238.5,-85.7842 238.5,-115.7842 340.5,-115.7842 340.5,-85.7842 238.5,-85.7842"/>
<text text-anchor="start" x="246.5" y="-103.7842" font-family="Helvetica,sans-Serif" font-size="10.00" fill="#000000">js_parse_statement</text>
<text text-anchor="middle" x="289.5" y="-92.7842" font-family="Helvetica,sans-Serif" font-size="10.00" fill="#000000">_or_decl</text>
</a>
</g>
</g>
<!-- Node309620&#45;&gt;Node309630 -->
<g id="edge19" class="edge">
<title>Node309620&#45;&gt;Node309630</title>
<path fill="none" stroke="#191970" d="M56.8747,-142.7816C70.2612,-134.5738 87.9396,-125.0334 105,-119.7842 148.703,-106.3375 200.6896,-101.9623 238.3238,-100.7323"/>
<polygon fill="#191970" stroke="#191970" points="54.9263,-139.8726 48.3531,-148.1819 58.6733,-145.7853 54.9263,-139.8726"/>
</g>
<!-- Node309632 -->
<g id="node8" class="node">
<title>Node309632</title>
<g id="a_node8"><a xlink:href="quickjs_8c.html#ac188b916dd086803591a67de7e7a85f6" target="_top" xlink:title="js_parse_for_in_of">
<polygon fill="none" stroke="#000000" points="555,-129.2842 555,-148.2842 651,-148.2842 651,-129.2842 555,-129.2842"/>
<text text-anchor="middle" x="603" y="-136.2842" font-family="Helvetica,sans-Serif" font-size="10.00" fill="#000000">js_parse_for_in_of</text>
</a>
</g>
</g>
<!-- Node309620&#45;&gt;Node309632 -->
<g id="edge17" class="edge">
<title>Node309620&#45;&gt;Node309632</title>
<path fill="none" stroke="#191970" d="M79.6496,-158.3601C113.146,-158.6472 159.9301,-158.7542 201,-157.7842 328.8257,-154.7652 479.3232,-146.3534 554.7598,-141.8015"/>
<polygon fill="#191970" stroke="#191970" points="79.2979,-154.8567 69.2652,-158.2617 79.2315,-161.8564 79.2979,-154.8567"/>
</g>
<!-- Node309634 -->
<g id="node10" class="node">
<title>Node309634</title>
<g id="a_node10"><a xlink:href="quickjs_8c.html#acc9eb677cab8dfcf45f59381f8a19601" target="_top" xlink:title="js_parse_function_decl2">
<polygon fill="none" stroke="#ff0000" points="542,-15.2842 542,-34.2842 664,-34.2842 664,-15.2842 542,-15.2842"/>
<text text-anchor="middle" x="603" y="-22.2842" font-family="Helvetica,sans-Serif" font-size="10.00" fill="#000000">js_parse_function_decl2</text>
</a>
</g>
</g>
<!-- Node309620&#45;&gt;Node309634 -->
<g id="edge18" class="edge">
<title>Node309620&#45;&gt;Node309634</title>
<path fill="none" stroke="#191970" d="M50.8045,-141.0954C64.3086,-128.0665 84.5363,-110.3001 105,-98.7842 216.707,-35.9212 251.5429,-26.7325 378,-5.7842 434.124,3.513 449.377,-.2909 506,-5.7842 525.1297,-7.6401 546.0873,-11.5088 563.6119,-15.2739"/>
<polygon fill="#191970" stroke="#191970" points="48.3324,-138.6176 43.6795,-148.1361 53.2526,-143.5968 48.3324,-138.6176"/>
</g>
<!-- Node309636 -->
<g id="node11" class="node">
<title>Node309636</title>
<g id="a_node11"><a xlink:href="quickjs_8c.html#a00eb789430243c24dab4a63ad6a79653" target="_top" xlink:title="js_parse_class">
<polygon fill="none" stroke="#ff0000" points="700,-53.2842 700,-72.2842 782,-72.2842 782,-53.2842 700,-53.2842"/>
<text text-anchor="middle" x="741" y="-60.2842" font-family="Helvetica,sans-Serif" font-size="10.00" fill="#000000">js_parse_class</text>
</a>
</g>
</g>
<!-- Node309620&#45;&gt;Node309636 -->
<g id="edge16" class="edge">
<title>Node309620&#45;&gt;Node309636</title>
<path fill="none" stroke="#191970" d="M69.4937,-170.7424C118.1297,-187.5616 209.245,-214.7842 289.5,-214.7842 289.5,-214.7842 289.5,-214.7842 442,-214.7842 543.867,-214.7842 578.2655,-212.7977 664,-157.7842 699.0215,-135.3119 725.5523,-91.5631 736.0648,-72.2902"/>
<polygon fill="#191970" stroke="#191970" points="70.3741,-167.3419 59.7793,-167.3247 68.051,-173.9451 70.3741,-167.3419"/>
</g>
<!-- Node309622 -->
<g id="node3" class="node">
<title>Node309622</title>
<g id="a_node3"><a xlink:href="quickjs_8c.html#acbcccb7ec58fd4a024ea1d01e5d04561" target="_top" xlink:title="JS_AddIntrinsicEval">
<polygon fill="none" stroke="#000000" points="237,-243.2842 237,-262.2842 342,-262.2842 342,-243.2842 237,-243.2842"/>
<text text-anchor="middle" x="289.5" y="-250.2842" font-family="Helvetica,sans-Serif" font-size="10.00" fill="#000000">JS_AddIntrinsicEval</text>
</a>
</g>
</g>
<!-- Node309621&#45;&gt;Node309622 -->
<g id="edge2" class="edge">
<title>Node309621&#45;&gt;Node309622</title>
<path fill="none" stroke="#191970" d="M211.2837,-252.7842C219.726,-252.7842 228.3763,-252.7842 236.7026,-252.7842"/>
<polygon fill="#191970" stroke="#191970" points="211.1248,-249.2843 201.1248,-252.7842 211.1248,-256.2843 211.1248,-249.2843"/>
</g>
<!-- Node309623 -->
<g id="node4" class="node">
<title>Node309623</title>
<g id="a_node4"><a xlink:href="quickjs_8c.html#ad8aedb643b8753b7a15f6cb2df61945e" target="_top" xlink:title="JS_NewContext">
<polygon fill="none" stroke="#ff0000" points="397.5,-243.2842 397.5,-262.2842 486.5,-262.2842 486.5,-243.2842 397.5,-243.2842"/>
<text text-anchor="middle" x="442" y="-250.2842" font-family="Helvetica,sans-Serif" font-size="10.00" fill="#000000">JS_NewContext</text>
</a>
</g>
</g>
<!-- Node309622&#45;&gt;Node309623 -->
<g id="edge3" class="edge">
<title>Node309622&#45;&gt;Node309623</title>
<path fill="none" stroke="#191970" d="M352.6448,-252.7842C367.6331,-252.7842 383.318,-252.7842 397.2882,-252.7842"/>
<polygon fill="#191970" stroke="#191970" points="352.4091,-249.2843 342.4091,-252.7842 352.4091,-256.2843 352.4091,-249.2843"/>
</g>
<!-- Node309629&#45;&gt;Node309630 -->
<g id="edge5" class="edge">
<title>Node309629&#45;&gt;Node309630</title>
<path fill="none" stroke="#191970" d="M180.2026,-125.6914C196.8619,-119.9069 218.7127,-113.4789 238.495,-108.4287"/>
<polygon fill="#191970" stroke="#191970" points="178.7698,-122.488 170.5655,-129.1919 181.1597,-129.0674 178.7698,-122.488"/>
</g>
<!-- Node309630&#45;&gt;Node309629 -->
<g id="edge10" class="edge">
<title>Node309630&#45;&gt;Node309629</title>
<path fill="none" stroke="#191970" d="M246.9761,-118.9267C230.1962,-124.2068 210.9858,-129.5398 194.3249,-133.5395"/>
<polygon fill="#191970" stroke="#191970" points="248.0997,-122.2419 256.5374,-115.8345 245.9456,-115.5816 248.0997,-122.2419"/>
</g>
<!-- Node309630&#45;&gt;Node309630 -->
<g id="edge11" class="edge">
<title>Node309630&#45;&gt;Node309630</title>
<path fill="none" stroke="#191970" d="M265.3344,-126.2421C268.3337,-130.9632 276.3889,-134.2842 289.5,-134.2842 311.0156,-134.2842 318.9159,-125.3408 313.2008,-115.9432"/>
<polygon fill="#191970" stroke="#191970" points="268.8447,-126.0909 265.7992,-115.9432 261.8519,-125.7752 268.8447,-126.0909"/>
</g>
<!-- Node309631 -->
<g id="node7" class="node">
<title>Node309631</title>
<g id="a_node7"><a xlink:href="quickjs_8c.html#a729d43e44d20f1ed655cd9f4843995d3" target="_top" xlink:title="js_parse_statement">
<polygon fill="none" stroke="#000000" points="391,-91.2842 391,-110.2842 493,-110.2842 493,-91.2842 391,-91.2842"/>
<text text-anchor="middle" x="442" y="-98.2842" font-family="Helvetica,sans-Serif" font-size="10.00" fill="#000000">js_parse_statement</text>
</a>
</g>
</g>
<!-- Node309630&#45;&gt;Node309631 -->
<g id="edge6" class="edge">
<title>Node309630&#45;&gt;Node309631</title>
<path fill="none" stroke="#191970" d="M350.7459,-94.1517C364.0764,-93.9405 378.044,-94.0141 390.9306,-94.3726"/>
<polygon fill="#191970" stroke="#191970" points="350.6265,-90.6534 340.7045,-94.3689 350.7779,-97.6518 350.6265,-90.6534"/>
</g>
<!-- Node309633 -->
<g id="node9" class="node">
<title>Node309633</title>
<g id="a_node9"><a xlink:href="quickjs_8c.html#ab59a3267a100decc9d2d81eb3297794a" target="_top" xlink:title="js_parse_source_element">
<polygon fill="none" stroke="#ff0000" points="378,-15.2842 378,-34.2842 506,-34.2842 506,-15.2842 378,-15.2842"/>
<text text-anchor="middle" x="442" y="-22.2842" font-family="Helvetica,sans-Serif" font-size="10.00" fill="#000000">js_parse_source_element</text>
</a>
</g>
</g>
<!-- Node309630&#45;&gt;Node309633 -->
<g id="edge12" class="edge">
<title>Node309630&#45;&gt;Node309633</title>
<path fill="none" stroke="#191970" d="M321.2802,-80.3102C337.8199,-70.1219 358.5924,-58.0398 378,-48.7842 389.2465,-43.4207 402.034,-38.4195 413.2064,-34.3856"/>
<polygon fill="#191970" stroke="#191970" points="319.1965,-77.4847 312.5625,-85.7455 322.9,-83.4248 319.1965,-77.4847"/>
</g>
<!-- Node309631&#45;&gt;Node309630 -->
<g id="edge9" class="edge">
<title>Node309631&#45;&gt;Node309630</title>
<path fill="none" stroke="#191970" d="M380.8939,-107.4145C367.5678,-107.6278 353.5987,-107.5561 340.7045,-107.1996"/>
<polygon fill="#191970" stroke="#191970" points="381.0092,-110.9129 390.9306,-107.1958 380.8567,-103.9146 381.0092,-110.9129"/>
</g>
<!-- Node309631&#45;&gt;Node309632 -->
<g id="edge7" class="edge">
<title>Node309631&#45;&gt;Node309632</title>
<path fill="none" stroke="#191970" d="M492.4018,-112.6803C515.032,-118.0216 541.3695,-124.2379 562.665,-129.2642"/>
<polygon fill="#191970" stroke="#191970" points="493.1637,-109.264 482.6271,-110.3732 491.5557,-116.0768 493.1637,-109.264"/>
</g>
<!-- Node309632&#45;&gt;Node309630 -->
<g id="edge8" class="edge">
<title>Node309632&#45;&gt;Node309630</title>
<path fill="none" stroke="#191970" d="M544.957,-135.9169C499.3815,-133.1758 434.4143,-128.1871 378,-119.7842 365.8763,-117.9784 352.9246,-115.5092 340.775,-112.9484"/>
<polygon fill="#191970" stroke="#191970" points="544.7657,-139.4116 554.9528,-136.5008 545.1739,-132.4235 544.7657,-139.4116"/>
</g>
<!-- Node309633&#45;&gt;Node309634 -->
<g id="edge13" class="edge">
<title>Node309633&#45;&gt;Node309634</title>
<path fill="none" stroke="#191970" d="M516.1006,-24.7842C524.683,-24.7842 533.363,-24.7842 541.7471,-24.7842"/>
<polygon fill="#191970" stroke="#191970" points="516.0941,-21.2843 506.0941,-24.7842 516.094,-28.2843 516.0941,-21.2843"/>
</g>
<!-- Node309634&#45;&gt;Node309636 -->
<g id="edge14" class="edge">
<title>Node309634&#45;&gt;Node309636</title>
<path fill="none" stroke="#191970" d="M647.473,-37.0304C666.4946,-42.2683 688.3751,-48.2933 706.1879,-53.1983"/>
<polygon fill="#191970" stroke="#191970" points="648.3936,-33.6537 637.8232,-34.3732 646.5352,-40.4025 648.3936,-33.6537"/>
</g>
<!-- Node309636&#45;&gt;Node309630 -->
<g id="edge15" class="edge">
<title>Node309636&#45;&gt;Node309630</title>
<path fill="none" stroke="#191970" d="M689.5969,-62.9062C619.0443,-63.6575 488.3807,-67.1415 378,-81.7842 365.849,-83.3961 352.8867,-85.7896 340.7354,-88.3388"/>
<polygon fill="#191970" stroke="#191970" points="690.0088,-66.4026 699.9762,-62.8109 689.9445,-59.4029 690.0088,-66.4026"/>
</g>
</g>
</svg>
        <g id="navigator" transform="translate(0 0)" fill="#404254">
                <rect fill="#f2f5e9" fill-opacity="0.5" stroke="#606060" stroke-width=".5" x="0" y="0" width="60" height="60"/>
                <use id="zoomplus" xlink:href="#zoomPlus" x="17" y="9" onmousedown="handleZoom(evt,'in')"/>
                <use id="zoomminus" xlink:href="#zoomMin" x="42" y="9" onmousedown="handleZoom(evt,'out')"/>
                <use id="reset" xlink:href="#resetDef" x="30" y="36" onmousedown="handleReset()"/>
                <g id="arrowUp" xlink:href="#dirArrow" transform="translate(30 24)" onmousedown="handlePan(0,-1)">
                  <use xlink:href="#rim" fill="#404040">
                        <set attributeName="fill" to="#808080" begin="arrowUp.mouseover" end="arrowUp.mouseout"/>
                  </use>
                  <path fill="none" stroke="white" stroke-width="1.5" d="M0,-3.0v7 M-2.5,-0.5L0,-3.0L2.5,-0.5"/>
                </g>
                <g id="arrowRight" xlink:href="#dirArrow" transform="rotate(90) translate(36 -43)" onmousedown="handlePan(1,0)">
                  <use xlink:href="#rim" fill="#404040">
                        <set attributeName="fill" to="#808080" begin="arrowRight.mouseover" end="arrowRight.mouseout"/>
                  </use>
                  <path fill="none" stroke="white" stroke-width="1.5" d="M0,-3.0v7 M-2.5,-0.5L0,-3.0L2.5,-0.5"/>
                </g>
                <g id="arrowDown" xlink:href="#dirArrow" transform="rotate(180) translate(-30 -48)" onmousedown="handlePan(0,1)">
                  <use xlink:href="#rim" fill="#404040">
                        <set attributeName="fill" to="#808080" begin="arrowDown.mouseover" end="arrowDown.mouseout"/>
                  </use>
                  <path fill="none" stroke="white" stroke-width="1.5" d="M0,-3.0v7 M-2.5,-0.5L0,-3.0L2.5,-0.5"/>
                </g>
                <g id="arrowLeft" xlink:href="#dirArrow" transform="rotate(270) translate(-36 17)" onmousedown="handlePan(-1,0)">
                  <use xlink:href="#rim" fill="#404040">
                        <set attributeName="fill" to="#808080" begin="arrowLeft.mouseover" end="arrowLeft.mouseout"/>
                  </use>
                  <path fill="none" stroke="white" stroke-width="1.5" d="M0,-3.0v7 M-2.5,-0.5L0,-3.0L2.5,-0.5"/>
                </g>
        </g>
        <svg viewBox="0 0 15 15" width="100%" height="30px" preserveAspectRatio="xMaxYMin meet">
         <g id="arrow_out" transform="scale(0.3 0.3)">
          <a xlink:href="quickjs_8c_a7d087e9b184f7e0369bab54aafb1c36d_icgraph_org.svg" target="_base">
           <rect id="button" ry="5" rx="5" y="6" x="6" height="38" width="38"
                fill="#f2f5e9" fill-opacity="0.5" stroke="#606060" stroke-width="1.0"/>
           <path id="arrow"
             d="M 11.500037,31.436501 C 11.940474,20.09759 22.043105,11.32322 32.158766,21.979434 L 37.068811,17.246167 C 37.068811,17.246167 37.088388,32 37.088388,32 L 22.160133,31.978069 C 22.160133,31.978069 26.997745,27.140456 26.997745,27.140456 C 18.528582,18.264221 13.291696,25.230495 11.500037,31.436501 z"
             style="fill:#404040;"/>
          </a>
         </g>
        </svg>
</svg>
