<?xml version="1.0" encoding="UTF-8" standalone="no"?>
<!DOCTYPE svg PUBLIC "-//W3C//DTD SVG 1.1//EN"
 "http://www.w3.org/Graphics/SVG/1.1/DTD/svg11.dtd">
<!-- Generated by graphviz version 2.40.1 (20161225.0304)
 -->
<!-- Title: JS_CheckBrand Pages: 1 -->
<svg width="554pt" height="995pt"
 viewBox="0.00 0.00 554.00 995.00" xmlns="http://www.w3.org/2000/svg" xmlns:xlink="http://www.w3.org/1999/xlink">
<g id="graph0" class="graph" transform="scale(1 1) rotate(0) translate(4 991)">
<title>JS_CheckBrand</title>
<!-- Node183245 -->
<g id="node1" class="node">
<title>Node183245</title>
<polygon fill="#bfbfbf" stroke="#000000" points="0,-340.5 0,-359.5 88,-359.5 88,-340.5 0,-340.5"/>
<text text-anchor="middle" x="44" y="-347.5" font-family="Helvetica,sans-Serif" font-size="10.00" fill="#000000">JS_CheckBrand</text>
</g>
<!-- Node183246 -->
<g id="node2" class="node">
<title>Node183246</title>
<g id="a_node2"><a xlink:href="quickjs_8c.html#ac2894ff4edcdb4e6841bcce9c76081e3" target="_top" xlink:title="JS_CallInternal">
<polygon fill="none" stroke="#000000" points="124,-340.5 124,-359.5 207,-359.5 207,-340.5 124,-340.5"/>
<text text-anchor="middle" x="165.5" y="-347.5" font-family="Helvetica,sans-Serif" font-size="10.00" fill="#000000">JS_CallInternal</text>
</a>
</g>
</g>
<!-- Node183245&#45;&gt;Node183246 -->
<g id="edge1" class="edge">
<title>Node183245&#45;&gt;Node183246</title>
<path fill="none" stroke="#191970" d="M98.2216,-350C106.8576,-350 115.6717,-350 123.9548,-350"/>
<polygon fill="#191970" stroke="#191970" points="98.208,-346.5001 88.208,-350 98.208,-353.5001 98.208,-346.5001"/>
</g>
<!-- Node183246&#45;&gt;Node183246 -->
<g id="edge40" class="edge">
<title>Node183246&#45;&gt;Node183246</title>
<path fill="none" stroke="#191970" d="M143.1787,-369.0292C144.3962,-374.128 151.8367,-378 165.5,-378 186.8281,-378 192.9933,-368.5653 183.9955,-359.7571"/>
<polygon fill="#191970" stroke="#191970" points="146.4256,-370.3361 147.0045,-359.7571 139.9548,-367.6661 146.4256,-370.3361"/>
</g>
<!-- Node183247 -->
<g id="node3" class="node">
<title>Node183247</title>
<g id="a_node3"><a xlink:href="quickjs_8c.html#ade71a22dc56e7371392393df663b28b3" target="_top" xlink:title="async_func_resume">
<polygon fill="none" stroke="#000000" points="258,-874.5 258,-893.5 362,-893.5 362,-874.5 258,-874.5"/>
<text text-anchor="middle" x="310" y="-881.5" font-family="Helvetica,sans-Serif" font-size="10.00" fill="#000000">async_func_resume</text>
</a>
</g>
</g>
<!-- Node183246&#45;&gt;Node183247 -->
<g id="edge2" class="edge">
<title>Node183246&#45;&gt;Node183247</title>
<path fill="none" stroke="#191970" d="M170.7489,-369.3972C194.3253,-456.524 290.0372,-810.2275 307.3189,-874.092"/>
<polygon fill="#191970" stroke="#191970" points="174.122,-368.463 168.1314,-359.7244 167.365,-370.2915 174.122,-368.463"/>
</g>
<!-- Node183264 -->
<g id="node8" class="node">
<title>Node183264</title>
<g id="a_node8"><a xlink:href="quickjs_8c.html#a1a4c02a29525d5cb2085dd8bca3af350" target="_top" xlink:title="JS_Call">
<polygon fill="none" stroke="#ff0000" points="284.5,-378.5 284.5,-397.5 335.5,-397.5 335.5,-378.5 284.5,-378.5"/>
<text text-anchor="middle" x="310" y="-385.5" font-family="Helvetica,sans-Serif" font-size="10.00" fill="#000000">JS_Call</text>
</a>
</g>
</g>
<!-- Node183246&#45;&gt;Node183264 -->
<g id="edge7" class="edge">
<title>Node183246&#45;&gt;Node183264</title>
<path fill="none" stroke="#191970" d="M217.3524,-357.1309C243.197,-363.291 272.8346,-371.6885 291.4855,-378.4368"/>
<polygon fill="#191970" stroke="#191970" points="217.8269,-353.6484 207.2954,-354.8052 216.2497,-360.4684 217.8269,-353.6484"/>
</g>
<!-- Node183345 -->
<g id="node29" class="node">
<title>Node183345</title>
<g id="a_node29"><a xlink:href="quickjs_8c.html#ad35594576a14c10812efaf958c99af8a" target="_top" xlink:title="JS_CallConstructorInternal">
<polygon fill="none" stroke="#ff0000" points="243,-264.5 243,-283.5 377,-283.5 377,-264.5 243,-264.5"/>
<text text-anchor="middle" x="310" y="-271.5" font-family="Helvetica,sans-Serif" font-size="10.00" fill="#000000">JS_CallConstructorInternal</text>
</a>
</g>
</g>
<!-- Node183246&#45;&gt;Node183345 -->
<g id="edge34" class="edge">
<title>Node183246&#45;&gt;Node183345</title>
<path fill="none" stroke="#191970" d="M177.5491,-332.5463C192.0695,-317.2145 217.6856,-296.3922 243,-284 243.3258,-283.8405 243.6531,-283.6822 243.9819,-283.525"/>
<polygon fill="#191970" stroke="#191970" points="174.627,-330.572 170.6961,-340.4106 179.9045,-335.1708 174.627,-330.572"/>
</g>
<!-- Node183359 -->
<g id="node30" class="node">
<title>Node183359</title>
<g id="a_node30"><a xlink:href="quickjs_8c.html#a75f6ee5e4235a7dc99889f3d2eb2c147" target="_top" xlink:title="JS_CallFree">
<polygon fill="none" stroke="#ff0000" points="274.5,-302.5 274.5,-321.5 345.5,-321.5 345.5,-302.5 274.5,-302.5"/>
<text text-anchor="middle" x="310" y="-309.5" font-family="Helvetica,sans-Serif" font-size="10.00" fill="#000000">JS_CallFree</text>
</a>
</g>
</g>
<!-- Node183246&#45;&gt;Node183359 -->
<g id="edge36" class="edge">
<title>Node183246&#45;&gt;Node183359</title>
<path fill="none" stroke="#191970" d="M193.6305,-337.1263C216.6733,-329.5295 249.4179,-320.7723 274.3055,-315.4723"/>
<polygon fill="#191970" stroke="#191970" points="192.4119,-333.8441 184.095,-340.4076 194.6897,-340.4632 192.4119,-333.8441"/>
</g>
<!-- Node183248 -->
<g id="node4" class="node">
<title>Node183248</title>
<g id="a_node4"><a xlink:href="quickjs_8c.html#ac90552b1f1659acb3dae9a4c62479a30" target="_top" xlink:title="js_generator_function_call">
<polygon fill="none" stroke="#ff0000" points="414.5,-967.5 414.5,-986.5 544.5,-986.5 544.5,-967.5 414.5,-967.5"/>
<text text-anchor="middle" x="479.5" y="-974.5" font-family="Helvetica,sans-Serif" font-size="10.00" fill="#000000">js_generator_function_call</text>
</a>
</g>
</g>
<!-- Node183247&#45;&gt;Node183248 -->
<g id="edge3" class="edge">
<title>Node183247&#45;&gt;Node183248</title>
<path fill="none" stroke="#191970" d="M328.4671,-900.3133C348.1641,-916.9499 380.8865,-942.4617 413,-958 420.782,-961.7654 429.4469,-964.9157 437.8825,-967.499"/>
<polygon fill="#191970" stroke="#191970" points="330.488,-897.4351 320.6226,-893.5717 325.9255,-902.7439 330.488,-897.4351"/>
</g>
<!-- Node183257 -->
<g id="node5" class="node">
<title>Node183257</title>
<g id="a_node5"><a xlink:href="quickjs_8c.html#a1bf6b62983e8fff99c0a5d5a9f486115" target="_top" xlink:title="js_async_function_resume">
<polygon fill="none" stroke="#ff0000" points="413,-830.5 413,-849.5 546,-849.5 546,-830.5 413,-830.5"/>
<text text-anchor="middle" x="479.5" y="-837.5" font-family="Helvetica,sans-Serif" font-size="10.00" fill="#000000">js_async_function_resume</text>
</a>
</g>
</g>
<!-- Node183247&#45;&gt;Node183257 -->
<g id="edge4" class="edge">
<title>Node183247&#45;&gt;Node183257</title>
<path fill="none" stroke="#191970" d="M356.4651,-871.9383C383.6496,-864.8815 417.4877,-856.0976 442.7928,-849.5287"/>
<polygon fill="#191970" stroke="#191970" points="355.5787,-868.5523 346.779,-874.4527 357.3376,-875.3277 355.5787,-868.5523"/>
</g>
<!-- Node183262 -->
<g id="node6" class="node">
<title>Node183262</title>
<g id="a_node6"><a xlink:href="quickjs_8c.html#a89b019c704a2d2914bc30b30a72040b3" target="_top" xlink:title="js_async_generator\l_resume_next">
<polygon fill="none" stroke="#000000" points="429,-918 429,-948 530,-948 530,-918 429,-918"/>
<text text-anchor="start" x="437" y="-936" font-family="Helvetica,sans-Serif" font-size="10.00" fill="#000000">js_async_generator</text>
<text text-anchor="middle" x="479.5" y="-925" font-family="Helvetica,sans-Serif" font-size="10.00" fill="#000000">_resume_next</text>
</a>
</g>
</g>
<!-- Node183247&#45;&gt;Node183262 -->
<g id="edge5" class="edge">
<title>Node183247&#45;&gt;Node183262</title>
<path fill="none" stroke="#191970" d="M352.9372,-896.4125C376.0226,-903.0862 404.6309,-911.3564 428.805,-918.3448"/>
<polygon fill="#191970" stroke="#191970" points="353.6623,-892.9789 343.0837,-893.564 351.7183,-899.7036 353.6623,-892.9789"/>
</g>
<!-- Node183263 -->
<g id="node7" class="node">
<title>Node183263</title>
<g id="a_node7"><a xlink:href="quickjs_8c.html#ae19867da709929c072f05e90301835a4" target="_top" xlink:title="js_async_generator\l_function_call">
<polygon fill="none" stroke="#ff0000" points="429,-869 429,-899 530,-899 530,-869 429,-869"/>
<text text-anchor="start" x="437" y="-887" font-family="Helvetica,sans-Serif" font-size="10.00" fill="#000000">js_async_generator</text>
<text text-anchor="middle" x="479.5" y="-876" font-family="Helvetica,sans-Serif" font-size="10.00" fill="#000000">_function_call</text>
</a>
</g>
</g>
<!-- Node183247&#45;&gt;Node183263 -->
<g id="edge6" class="edge">
<title>Node183247&#45;&gt;Node183263</title>
<path fill="none" stroke="#191970" d="M372.388,-884C390.9885,-884 411.1368,-884 428.8866,-884"/>
<polygon fill="#191970" stroke="#191970" points="372.2387,-880.5001 362.2387,-884 372.2386,-887.5001 372.2387,-880.5001"/>
</g>
<!-- Node183264&#45;&gt;Node183246 -->
<g id="edge16" class="edge">
<title>Node183264&#45;&gt;Node183246</title>
<path fill="none" stroke="#191970" d="M274.4088,-384.5497C245.8289,-378.469 206.8374,-367.8129 184.095,-359.5924"/>
<polygon fill="#191970" stroke="#191970" points="273.923,-388.0222 284.4179,-386.57 275.3081,-381.1605 273.923,-388.0222"/>
</g>
<!-- Node183264&#45;&gt;Node183257 -->
<g id="edge17" class="edge">
<title>Node183264&#45;&gt;Node183257</title>
<path fill="none" stroke="#191970" d="M312.0847,-407.927C320.4965,-484.64 354.3319,-759.645 413,-821 416.6512,-824.8184 421.0118,-827.8855 425.73,-830.3468"/>
<polygon fill="#191970" stroke="#191970" points="315.5382,-407.3053 310.9903,-397.7362 308.5782,-408.0528 315.5382,-407.3053"/>
</g>
<!-- Node183265 -->
<g id="node9" class="node">
<title>Node183265</title>
<g id="a_node9"><a xlink:href="structqjs_1_1js__traits_3_01std_1_1function_3_01R_07Args_8_8_8_08_4_01_4.html#abc36cacd670b6b5f1773734a0586a02b" target="_top" xlink:title="qjs::js_traits\&lt; std\l::function\&lt; R(Args...)\l\&gt; \&gt;::unwrap">
<polygon fill="none" stroke="#000000" points="425,-392.5 425,-433.5 534,-433.5 534,-392.5 425,-392.5"/>
<text text-anchor="start" x="433" y="-421.5" font-family="Helvetica,sans-Serif" font-size="10.00" fill="#000000">qjs::js_traits&lt; std</text>
<text text-anchor="start" x="433" y="-410.5" font-family="Helvetica,sans-Serif" font-size="10.00" fill="#000000">::function&lt; R(Args...)</text>
<text text-anchor="middle" x="479.5" y="-399.5" font-family="Helvetica,sans-Serif" font-size="10.00" fill="#000000">&gt; &gt;::unwrap</text>
</a>
</g>
</g>
<!-- Node183264&#45;&gt;Node183265 -->
<g id="edge8" class="edge">
<title>Node183264&#45;&gt;Node183265</title>
<path fill="none" stroke="#191970" d="M345.7116,-393.2672C368.6128,-396.645 398.7972,-401.0969 424.6986,-404.9172"/>
<polygon fill="#191970" stroke="#191970" points="346.1471,-389.7936 335.7434,-391.797 345.1256,-396.7187 346.1471,-389.7936"/>
</g>
<!-- Node183266 -->
<g id="node10" class="node">
<title>Node183266</title>
<g id="a_node10"><a xlink:href="quickjs-libc_8c.html#abb1cbe3fdf905e81f603a3a0bfce475a" target="_top" xlink:title="call_handler">
<polygon fill="none" stroke="#000000" points="445.5,-354.5 445.5,-373.5 513.5,-373.5 513.5,-354.5 445.5,-354.5"/>
<text text-anchor="middle" x="479.5" y="-361.5" font-family="Helvetica,sans-Serif" font-size="10.00" fill="#000000">call_handler</text>
</a>
</g>
</g>
<!-- Node183264&#45;&gt;Node183266 -->
<g id="edge9" class="edge">
<title>Node183264&#45;&gt;Node183266</title>
<path fill="none" stroke="#191970" d="M345.9702,-382.9069C375.3013,-378.7538 416.4516,-372.9272 445.2948,-368.8432"/>
<polygon fill="#191970" stroke="#191970" points="345.1539,-379.4875 335.7434,-384.3549 346.1354,-386.4183 345.1539,-379.4875"/>
</g>
<!-- Node183267 -->
<g id="node11" class="node">
<title>Node183267</title>
<g id="a_node11"><a xlink:href="quickjs-libc_8c.html#a9fa4c190ba56314c7ed9b00bbc7ad0f9" target="_top" xlink:title="handle_posted_message">
<polygon fill="none" stroke="#000000" points="417,-316.5 417,-335.5 542,-335.5 542,-316.5 417,-316.5"/>
<text text-anchor="middle" x="479.5" y="-323.5" font-family="Helvetica,sans-Serif" font-size="10.00" fill="#000000">handle_posted_message</text>
</a>
</g>
</g>
<!-- Node183264&#45;&gt;Node183267 -->
<g id="edge10" class="edge">
<title>Node183264&#45;&gt;Node183267</title>
<path fill="none" stroke="#191970" d="M345.3423,-376.395C355.6658,-372.723 366.8882,-368.4527 377,-364 393.5575,-356.709 396.2121,-351.7435 413,-345 421.9135,-341.4196 431.7502,-338.2214 441.0626,-335.5163"/>
<polygon fill="#191970" stroke="#191970" points="344.0809,-373.128 335.7855,-379.7188 346.3804,-379.7396 344.0809,-373.128"/>
</g>
<!-- Node183268 -->
<g id="node12" class="node">
<title>Node183268</title>
<g id="a_node12"><a xlink:href="quickjs_8c.html#aa049793cc8648d35fe81876a2543ca4e" target="_top" xlink:title="JS_GetIterator2">
<polygon fill="none" stroke="#ff0000" points="436.5,-278.5 436.5,-297.5 522.5,-297.5 522.5,-278.5 436.5,-278.5"/>
<text text-anchor="middle" x="479.5" y="-285.5" font-family="Helvetica,sans-Serif" font-size="10.00" fill="#000000">JS_GetIterator2</text>
</a>
</g>
</g>
<!-- Node183264&#45;&gt;Node183268 -->
<g id="edge11" class="edge">
<title>Node183264&#45;&gt;Node183268</title>
<path fill="none" stroke="#191970" d="M345.3224,-380.1664C356.2689,-376.5326 367.8475,-371.3368 377,-364 400.3787,-345.2593 389.0187,-324.9631 413,-307 419.8232,-301.8891 427.9768,-298.1517 436.198,-295.4191"/>
<polygon fill="#191970" stroke="#191970" points="344.1201,-376.8724 335.5349,-383.081 346.118,-383.5813 344.1201,-376.8724"/>
</g>
<!-- Node183300 -->
<g id="node13" class="node">
<title>Node183300</title>
<g id="a_node13"><a xlink:href="quickjs_8c.html#ad6303fbd3add4afa0cb64b0aa6d431ce" target="_top" xlink:title="JS_IteratorNext2">
<polygon fill="none" stroke="#ff0000" points="434,-240.5 434,-259.5 525,-259.5 525,-240.5 434,-240.5"/>
<text text-anchor="middle" x="479.5" y="-247.5" font-family="Helvetica,sans-Serif" font-size="10.00" fill="#000000">JS_IteratorNext2</text>
</a>
</g>
</g>
<!-- Node183264&#45;&gt;Node183300 -->
<g id="edge12" class="edge">
<title>Node183264&#45;&gt;Node183300</title>
<path fill="none" stroke="#191970" d="M345.3781,-381.4933C356.6487,-377.9274 368.4083,-372.4362 377,-364 409.2175,-332.3654 379.7613,-299.5599 413,-269 418.9221,-263.5551 426.2995,-259.6589 433.9646,-256.8736"/>
<polygon fill="#191970" stroke="#191970" points="344.4055,-378.1308 335.6914,-384.157 346.2615,-384.8802 344.4055,-378.1308"/>
</g>
<!-- Node183304 -->
<g id="node14" class="node">
<title>Node183304</title>
<g id="a_node14"><a xlink:href="quickjs_8c.html#a62424fefab7bcc97f49c978205c7a1c1" target="_top" xlink:title="js_for_await_of_next">
<polygon fill="none" stroke="#000000" points="426,-792.5 426,-811.5 533,-811.5 533,-792.5 426,-792.5"/>
<text text-anchor="middle" x="479.5" y="-799.5" font-family="Helvetica,sans-Serif" font-size="10.00" fill="#000000">js_for_await_of_next</text>
</a>
</g>
</g>
<!-- Node183264&#45;&gt;Node183304 -->
<g id="edge13" class="edge">
<title>Node183264&#45;&gt;Node183304</title>
<path fill="none" stroke="#191970" d="M317.5257,-407.4189C331.0233,-442.8427 359.5623,-520.5268 377,-588 399.052,-673.3277 353.7352,-717.7712 413,-783 416.6334,-786.9991 421.0443,-790.1793 425.847,-792.705"/>
<polygon fill="#191970" stroke="#191970" points="320.7,-405.9215 313.8486,-397.8401 314.1649,-408.4303 320.7,-405.9215"/>
</g>
<!-- Node183305 -->
<g id="node15" class="node">
<title>Node183305</title>
<g id="a_node15"><a xlink:href="quickjs_8c.html#afd4ef2d701fa0702f321925b61c57bbf" target="_top" xlink:title="js_call_bound_function">
<polygon fill="none" stroke="#ff0000" points="421.5,-202.5 421.5,-221.5 537.5,-221.5 537.5,-202.5 421.5,-202.5"/>
<text text-anchor="middle" x="479.5" y="-209.5" font-family="Helvetica,sans-Serif" font-size="10.00" fill="#000000">js_call_bound_function</text>
</a>
</g>
</g>
<!-- Node183264&#45;&gt;Node183305 -->
<g id="edge15" class="edge">
<title>Node183264&#45;&gt;Node183305</title>
<path fill="none" stroke="#191970" d="M345.5957,-382.049C356.9874,-378.5241 368.7665,-372.9166 377,-364 418.5441,-319.0088 370.0013,-274.6031 413,-231 416.7939,-227.1528 421.3088,-224.071 426.174,-221.6045"/>
<polygon fill="#191970" stroke="#191970" points="344.5576,-378.7031 335.7834,-384.6414 346.3457,-385.4709 344.5576,-378.7031"/>
</g>
<!-- Node183306 -->
<g id="node16" class="node">
<title>Node183306</title>
<g id="a_node16"><a xlink:href="quickjs_8c.html#a3e852026d167fa03c673f86697dd3e67" target="_top" xlink:title="js_async_generator\l_resolve_or_reject">
<polygon fill="none" stroke="#ff0000" points="429,-153 429,-183 530,-183 530,-153 429,-153"/>
<text text-anchor="start" x="437" y="-171" font-family="Helvetica,sans-Serif" font-size="10.00" fill="#000000">js_async_generator</text>
<text text-anchor="middle" x="479.5" y="-160" font-family="Helvetica,sans-Serif" font-size="10.00" fill="#000000">_resolve_or_reject</text>
</a>
</g>
</g>
<!-- Node183264&#45;&gt;Node183306 -->
<g id="edge18" class="edge">
<title>Node183264&#45;&gt;Node183306</title>
<path fill="none" stroke="#191970" d="M345.6186,-382.3939C357.119,-378.897 368.9604,-373.219 377,-364 428.0458,-305.4652 362.4131,-251.9318 413,-193 417.3382,-187.9462 422.8051,-183.9121 428.7315,-180.6924"/>
<polygon fill="#191970" stroke="#191970" points="344.5194,-379.0625 335.7041,-384.9397 346.2604,-385.8426 344.5194,-379.0625"/>
</g>
<!-- Node183309 -->
<g id="node17" class="node">
<title>Node183309</title>
<g id="a_node17"><a xlink:href="quickjs_8c.html#a2355fabf91f59212ea65baba1b0b7c1b" target="_top" xlink:title="js_async_generator_next">
<polygon fill="none" stroke="#000000" points="417,-114.5 417,-133.5 542,-133.5 542,-114.5 417,-114.5"/>
<text text-anchor="middle" x="479.5" y="-121.5" font-family="Helvetica,sans-Serif" font-size="10.00" fill="#000000">js_async_generator_next</text>
</a>
</g>
</g>
<!-- Node183264&#45;&gt;Node183309 -->
<g id="edge19" class="edge">
<title>Node183264&#45;&gt;Node183309</title>
<path fill="none" stroke="#191970" d="M345.5865,-382.6778C357.1931,-379.2065 369.1101,-373.4722 377,-364 440.4112,-287.8717 347.6377,-218.4598 413,-144 416.8176,-139.651 421.5415,-136.2298 426.6976,-133.5413"/>
<polygon fill="#191970" stroke="#191970" points="344.427,-379.36 335.5757,-385.1828 346.1263,-386.1506 344.427,-379.36"/>
</g>
<!-- Node183310 -->
<g id="node18" class="node">
<title>Node183310</title>
<g id="a_node18"><a xlink:href="quickjs_8c.html#a6357b7fdae71c70c140e78e6c20cb5c2" target="_top" xlink:title="js_dynamic_import_job">
<polygon fill="none" stroke="#ff0000" points="421.5,-754.5 421.5,-773.5 537.5,-773.5 537.5,-754.5 421.5,-754.5"/>
<text text-anchor="middle" x="479.5" y="-761.5" font-family="Helvetica,sans-Serif" font-size="10.00" fill="#000000">js_dynamic_import_job</text>
</a>
</g>
</g>
<!-- Node183264&#45;&gt;Node183310 -->
<g id="edge20" class="edge">
<title>Node183264&#45;&gt;Node183310</title>
<path fill="none" stroke="#191970" d="M317.241,-407.4957C330.2837,-443.0423 358.1211,-520.9157 377,-588 396.3933,-656.9118 363.7356,-693.0582 413,-745 416.6356,-748.8332 420.986,-751.9101 425.698,-754.3773"/>
<polygon fill="#191970" stroke="#191970" points="320.4392,-406.0524 313.6945,-397.8817 313.8718,-408.4751 320.4392,-406.0524"/>
</g>
<!-- Node183312 -->
<g id="node19" class="node">
<title>Node183312</title>
<g id="a_node19"><a xlink:href="quickjs_8c.html#a8d4b24969540aff427939eeda47f451d" target="_top" xlink:title="js_function_apply">
<polygon fill="none" stroke="#ff0000" points="433.5,-76.5 433.5,-95.5 525.5,-95.5 525.5,-76.5 433.5,-76.5"/>
<text text-anchor="middle" x="479.5" y="-83.5" font-family="Helvetica,sans-Serif" font-size="10.00" fill="#000000">js_function_apply</text>
</a>
</g>
</g>
<!-- Node183264&#45;&gt;Node183312 -->
<g id="edge21" class="edge">
<title>Node183264&#45;&gt;Node183312</title>
<path fill="none" stroke="#191970" d="M345.7146,-382.7832C357.3331,-379.3217 369.2248,-373.5665 377,-364 450.2998,-273.813 336.7789,-192.7321 413,-105 418.3549,-98.8364 425.557,-94.6066 433.2472,-91.7183"/>
<polygon fill="#191970" stroke="#191970" points="344.5474,-379.4666 335.6852,-385.2729 346.2339,-386.2605 344.5474,-379.4666"/>
</g>
<!-- Node183315 -->
<g id="node20" class="node">
<title>Node183315</title>
<g id="a_node20"><a xlink:href="quickjs_8c.html#a677ad630a103e1f3d5129e0549112b50" target="_top" xlink:title="js_function_call">
<polygon fill="none" stroke="#000000" points="437.5,-716.5 437.5,-735.5 521.5,-735.5 521.5,-716.5 437.5,-716.5"/>
<text text-anchor="middle" x="479.5" y="-723.5" font-family="Helvetica,sans-Serif" font-size="10.00" fill="#000000">js_function_call</text>
</a>
</g>
</g>
<!-- Node183264&#45;&gt;Node183315 -->
<g id="edge23" class="edge">
<title>Node183264&#45;&gt;Node183315</title>
<path fill="none" stroke="#191970" d="M316.6153,-407.1229C328.8581,-442.6484 355.7386,-521.284 377,-588 393.7779,-640.6473 373.627,-668.2314 413,-707 419.6735,-713.571 428.4538,-717.9017 437.4376,-720.7472"/>
<polygon fill="#191970" stroke="#191970" points="319.8797,-405.8532 313.3081,-397.5427 313.2629,-408.1374 319.8797,-405.8532"/>
</g>
<!-- Node183271 -->
<g id="node21" class="node">
<title>Node183271</title>
<g id="a_node21"><a xlink:href="quickjs_8c.html#a5e32da9a43002cb96dcbd62a1a340144" target="_top" xlink:title="js_array_from">
<polygon fill="none" stroke="#000000" points="441.5,-678.5 441.5,-697.5 517.5,-697.5 517.5,-678.5 441.5,-678.5"/>
<text text-anchor="middle" x="479.5" y="-685.5" font-family="Helvetica,sans-Serif" font-size="10.00" fill="#000000">js_array_from</text>
</a>
</g>
</g>
<!-- Node183264&#45;&gt;Node183271 -->
<g id="edge24" class="edge">
<title>Node183264&#45;&gt;Node183271</title>
<path fill="none" stroke="#191970" d="M316.5433,-407.3208C337.5972,-469.2814 402.8129,-659.531 413,-669 420.7393,-676.1937 431.0157,-680.6868 441.1705,-683.486"/>
<polygon fill="#191970" stroke="#191970" points="319.7776,-405.9597 313.2501,-397.6145 313.1487,-408.2089 319.7776,-405.9597"/>
</g>
<!-- Node183297 -->
<g id="node22" class="node">
<title>Node183297</title>
<g id="a_node22"><a xlink:href="quickjs_8c.html#aa0bbf08a7e91459c68a312fba7016c6d" target="_top" xlink:title="js_array_every">
<polygon fill="none" stroke="#000000" points="439.5,-640.5 439.5,-659.5 519.5,-659.5 519.5,-640.5 439.5,-640.5"/>
<text text-anchor="middle" x="479.5" y="-647.5" font-family="Helvetica,sans-Serif" font-size="10.00" fill="#000000">js_array_every</text>
</a>
</g>
</g>
<!-- Node183264&#45;&gt;Node183297 -->
<g id="edge25" class="edge">
<title>Node183264&#45;&gt;Node183297</title>
<path fill="none" stroke="#191970" d="M315.8036,-407.3014C331.7383,-459.1162 377.3498,-599.4734 413,-631 420.3755,-637.5224 429.849,-641.8158 439.3197,-644.639"/>
<polygon fill="#191970" stroke="#191970" points="319.129,-406.2066 312.868,-397.6597 312.4325,-408.2455 319.129,-406.2066"/>
</g>
<!-- Node183316 -->
<g id="node23" class="node">
<title>Node183316</title>
<g id="a_node23"><a xlink:href="quickjs_8c.html#a36c1692489542a86dd79a7d39ab8ff95" target="_top" xlink:title="js_array_reduce">
<polygon fill="none" stroke="#000000" points="436.5,-602.5 436.5,-621.5 522.5,-621.5 522.5,-602.5 436.5,-602.5"/>
<text text-anchor="middle" x="479.5" y="-609.5" font-family="Helvetica,sans-Serif" font-size="10.00" fill="#000000">js_array_reduce</text>
</a>
</g>
</g>
<!-- Node183264&#45;&gt;Node183316 -->
<g id="edge26" class="edge">
<title>Node183264&#45;&gt;Node183316</title>
<path fill="none" stroke="#191970" d="M314.2704,-407.7068C324.1682,-448.587 352.5889,-542.9626 413,-593 419.7504,-598.5912 428.0583,-602.5386 436.4866,-605.3251"/>
<polygon fill="#191970" stroke="#191970" points="317.6634,-406.8442 312.0048,-397.8871 310.8426,-408.418 317.6634,-406.8442"/>
</g>
<!-- Node183317 -->
<g id="node24" class="node">
<title>Node183317</title>
<g id="a_node24"><a xlink:href="quickjs_8c.html#a9dd41b086da4e13b3487cc9c6e2af2b8" target="_top" xlink:title="js_array_find">
<polygon fill="none" stroke="#000000" points="443.5,-564.5 443.5,-583.5 515.5,-583.5 515.5,-564.5 443.5,-564.5"/>
<text text-anchor="middle" x="479.5" y="-571.5" font-family="Helvetica,sans-Serif" font-size="10.00" fill="#000000">js_array_find</text>
</a>
</g>
</g>
<!-- Node183264&#45;&gt;Node183317 -->
<g id="edge27" class="edge">
<title>Node183264&#45;&gt;Node183317</title>
<path fill="none" stroke="#191970" d="M316.4738,-407.1144C329.2539,-441.9216 361.0755,-515.6724 413,-555 421.8059,-561.6696 432.871,-565.9992 443.4343,-568.8094"/>
<polygon fill="#191970" stroke="#191970" points="319.7569,-405.9003 313.1177,-397.6436 313.1589,-408.2384 319.7569,-405.9003"/>
</g>
<!-- Node183318 -->
<g id="node25" class="node">
<title>Node183318</title>
<g id="a_node25"><a xlink:href="quickjs_8c.html#ad90c33b4aae1181151bda4a98ac2ef23" target="_top" xlink:title="JS_FlattenIntoArray">
<polygon fill="none" stroke="#ff0000" points="427.5,-508.5 427.5,-527.5 531.5,-527.5 531.5,-508.5 427.5,-508.5"/>
<text text-anchor="middle" x="479.5" y="-515.5" font-family="Helvetica,sans-Serif" font-size="10.00" fill="#000000">JS_FlattenIntoArray</text>
</a>
</g>
</g>
<!-- Node183264&#45;&gt;Node183318 -->
<g id="edge28" class="edge">
<title>Node183264&#45;&gt;Node183318</title>
<path fill="none" stroke="#191970" d="M321.9424,-406.0895C339.1536,-430.7432 373.2662,-474.6099 413,-499 419.2421,-502.8317 426.2853,-505.9161 433.3932,-508.3918"/>
<polygon fill="#191970" stroke="#191970" points="324.722,-403.9532 316.1971,-397.6622 318.9382,-407.8963 324.722,-403.9532"/>
</g>
<!-- Node183320 -->
<g id="node26" class="node">
<title>Node183320</title>
<g id="a_node26"><a xlink:href="quickjs_8c.html#aed1bf9ce4b9e3a82388679dd6ec7635b" target="_top" xlink:title="js_string_replace">
<polygon fill="none" stroke="#000000" points="434.5,-38.5 434.5,-57.5 524.5,-57.5 524.5,-38.5 434.5,-38.5"/>
<text text-anchor="middle" x="479.5" y="-45.5" font-family="Helvetica,sans-Serif" font-size="10.00" fill="#000000">js_string_replace</text>
</a>
</g>
</g>
<!-- Node183264&#45;&gt;Node183320 -->
<g id="edge30" class="edge">
<title>Node183264&#45;&gt;Node183320</title>
<path fill="none" stroke="#191970" d="M335.7835,-372.8288C350.3369,-362.8465 367.4685,-348.4185 377,-331 433.8458,-227.117 335.4507,-156.4942 413,-67 418.5828,-60.5573 426.1841,-56.2268 434.2547,-53.3324"/>
<polygon fill="#191970" stroke="#191970" points="333.6138,-370.065 327.1461,-378.4566 337.4353,-375.9299 333.6138,-370.065"/>
</g>
<!-- Node183321 -->
<g id="node27" class="node">
<title>Node183321</title>
<g id="a_node27"><a xlink:href="quickjs_8c.html#a624282391413d4c5a030adbd8b77aa80" target="_top" xlink:title="internalize_json_property">
<polygon fill="none" stroke="#ff0000" points="417,-452.5 417,-471.5 542,-471.5 542,-452.5 417,-452.5"/>
<text text-anchor="middle" x="479.5" y="-459.5" font-family="Helvetica,sans-Serif" font-size="10.00" fill="#000000">internalize_json_property</text>
</a>
</g>
</g>
<!-- Node183264&#45;&gt;Node183321 -->
<g id="edge31" class="edge">
<title>Node183264&#45;&gt;Node183321</title>
<path fill="none" stroke="#191970" d="M334.2006,-402.8192C354.6373,-414.8649 384.9699,-431.6618 413,-443 421.7935,-446.557 431.4925,-449.728 440.7008,-452.4125"/>
<polygon fill="#191970" stroke="#191970" points="335.9314,-399.7763 325.551,-397.6557 332.3434,-405.7868 335.9314,-399.7763"/>
</g>
<!-- Node183323 -->
<g id="node28" class="node">
<title>Node183323</title>
<g id="a_node28"><a xlink:href="quickjs_8c.html#a0da6493b4bc0edb7ddddfab807241d0b" target="_top" xlink:title="js_json_check">
<polygon fill="none" stroke="#ff0000" points="440,-.5 440,-19.5 519,-19.5 519,-.5 440,-.5"/>
<text text-anchor="middle" x="479.5" y="-7.5" font-family="Helvetica,sans-Serif" font-size="10.00" fill="#000000">js_json_check</text>
</a>
</g>
</g>
<!-- Node183264&#45;&gt;Node183323 -->
<g id="edge33" class="edge">
<title>Node183264&#45;&gt;Node183323</title>
<path fill="none" stroke="#191970" d="M335.8906,-372.8868C350.4819,-362.9251 367.6158,-348.4983 377,-331 440.8847,-211.8768 325.3449,-131.8989 413,-29 419.774,-21.0479 429.6242,-16.3064 439.6773,-13.5117"/>
<polygon fill="#191970" stroke="#191970" points="333.7158,-370.1253 327.226,-378.4999 337.5217,-376.0003 333.7158,-370.1253"/>
</g>
<!-- Node183304&#45;&gt;Node183246 -->
<g id="edge14" class="edge">
<title>Node183304&#45;&gt;Node183246</title>
<path fill="none" stroke="#191970" d="M420.3504,-787.9188C417.7708,-786.4399 415.3033,-784.8058 413,-783 257.296,-660.927 182.3658,-411.8041 168.0642,-359.6903"/>
<polygon fill="#191970" stroke="#191970" points="418.9552,-791.1323 429.4772,-792.3721 422.0249,-784.8413 418.9552,-791.1323"/>
</g>
<!-- Node183312&#45;&gt;Node183246 -->
<g id="edge22" class="edge">
<title>Node183312&#45;&gt;Node183246</title>
<path fill="none" stroke="#191970" d="M423.9527,-96.201C419.8686,-98.572 416.131,-101.4676 413,-105 345.5344,-181.1149 451.3365,-261.5798 377,-331 331.3292,-373.6503 253.4173,-368.1517 205.9801,-359.5664"/>
<polygon fill="#191970" stroke="#191970" points="425.7723,-99.2138 433.3458,-91.8047 422.805,-92.8738 425.7723,-99.2138"/>
</g>
<!-- Node183318&#45;&gt;Node183318 -->
<g id="edge29" class="edge">
<title>Node183318&#45;&gt;Node183318</title>
<path fill="none" stroke="#191970" d="M448.0629,-536.2746C448.9592,-541.741 459.4382,-546 479.5,-546 509.3594,-546 517.9906,-536.5653 505.3937,-527.7571"/>
<polygon fill="#191970" stroke="#191970" points="451.085,-538.0475 453.6063,-527.7571 445.2181,-534.2291 451.085,-538.0475"/>
</g>
<!-- Node183321&#45;&gt;Node183321 -->
<g id="edge32" class="edge">
<title>Node183321&#45;&gt;Node183321</title>
<path fill="none" stroke="#191970" d="M448.0629,-480.2746C448.9592,-485.741 459.4382,-490 479.5,-490 509.3594,-490 517.9906,-480.5653 505.3937,-471.7571"/>
<polygon fill="#191970" stroke="#191970" points="451.085,-482.0475 453.6063,-471.7571 445.2181,-478.2291 451.085,-482.0475"/>
</g>
<!-- Node183345&#45;&gt;Node183246 -->
<g id="edge35" class="edge">
<title>Node183345&#45;&gt;Node183246</title>
<path fill="none" stroke="#191970" d="M285.6333,-286.6763C272.5753,-290.7533 256.4528,-295.4145 243,-302 221.3984,-312.5746 199.5771,-329.288 184.6182,-340.2863"/>
<polygon fill="#191970" stroke="#191970" points="286.9199,-289.9381 295.3391,-283.5063 284.7466,-283.284 286.9199,-289.9381"/>
</g>
<!-- Node183359&#45;&gt;Node183246 -->
<g id="edge37" class="edge">
<title>Node183359&#45;&gt;Node183246</title>
<path fill="none" stroke="#191970" d="M281.7961,-324.8979C260.5982,-331.8825 231.2201,-339.8432 207.2954,-345.1948"/>
<polygon fill="#191970" stroke="#191970" points="283.1689,-328.127 291.4855,-321.5632 280.8909,-321.508 283.1689,-328.127"/>
</g>
<!-- Node183359&#45;&gt;Node183320 -->
<g id="edge39" class="edge">
<title>Node183359&#45;&gt;Node183320</title>
<path fill="none" stroke="#191970" d="M355.4133,-306.6486C363.5737,-303.7571 371.2871,-299.4326 377,-293 444.5406,-216.9517 345.5344,-143.1149 413,-67 418.6547,-60.6203 426.288,-56.3179 434.3674,-53.4312"/>
<polygon fill="#191970" stroke="#191970" points="354.3708,-303.3063 345.7214,-309.425 356.2986,-310.0357 354.3708,-303.3063"/>
</g>
<!-- Node183359&#45;&gt;Node183323 -->
<g id="edge38" class="edge">
<title>Node183359&#45;&gt;Node183323</title>
<path fill="none" stroke="#191970" d="M355.5267,-306.7482C363.6784,-303.8491 371.3596,-299.4962 377,-293 454.6376,-203.5823 335.4507,-118.4942 413,-29 419.8409,-21.1054 429.7125,-16.3823 439.7647,-13.5868"/>
<polygon fill="#191970" stroke="#191970" points="354.4844,-303.4059 345.8353,-309.525 356.4125,-310.1351 354.4844,-303.4059"/>
</g>
</g>
</svg>
