<?xml version="1.0" encoding="UTF-8" standalone="no"?>
<!DOCTYPE svg PUBLIC "-//W3C//DTD SVG 1.1//EN"
 "http://www.w3.org/Graphics/SVG/1.1/DTD/svg11.dtd">
<!-- Generated by graphviz version 2.40.1 (20161225.0304)
 -->
<!-- Title: JS_FreeValueRT Pages: 1 -->
<!--zoomable 1090 -->
<svg id="main" version="1.1" xmlns="http://www.w3.org/2000/svg" xmlns:xlink="http://www.w3.org/1999/xlink" xml:space="preserve" onload="init(evt)">
<style type="text/css"><![CDATA[
.edge:hover path { stroke: red; }
.edge:hover polygon { stroke: red; fill: red; }
]]></style>
<script type="text/javascript"><![CDATA[
var edges = document.getElementsByTagName('g');
if (edges && edges.length) {
  for (var i=0;i<edges.length;i++) {
    if (edges[i].id.substr(0,4)=='edge') {
      edges[i].setAttribute('class','edge');
    }
  }
}
]]></script>
        <defs>
                <circle id="rim" cx="0" cy="0" r="7"/>
                <circle id="rim2" cx="0" cy="0" r="3.5"/>
                <g id="zoomPlus">
                        <use xlink:href="#rim" fill="#404040">
                                <set attributeName="fill" to="#808080" begin="zoomplus.mouseover" end="zoomplus.mouseout"/>
                        </use>
                        <path d="M-4,0h8M0,-4v8" fill="none" stroke="white" stroke-width="1.5" pointer-events="none"/>
                </g>
                <g id="zoomMin">
                        <use xlink:href="#rim" fill="#404040">
                                <set attributeName="fill" to="#808080" begin="zoomminus.mouseover" end="zoomminus.mouseout"/>
                        </use>
                        <path d="M-4,0h8" fill="none" stroke="white" stroke-width="1.5" pointer-events="none"/>
                </g>
                <g id="dirArrow">
                        <path fill="none" stroke="white" stroke-width="1.5" d="M0,-3.0v7 M-2.5,-0.5L0,-3.0L2.5,-0.5"/>
                </g>
               <g id="resetDef">
                       <use xlink:href="#rim2" fill="#404040">
                               <set attributeName="fill" to="#808080" begin="reset.mouseover" end="reset.mouseout"/>
                       </use>
               </g>
        </defs>

<script type="text/javascript">
var viewWidth = 608;
var viewHeight = 1090;
var sectionId = 'dynsection-122';
</script>
<script xlink:href="svgpan.js"/>
<svg id="graph" class="graph">
<g id="viewport">
<title>JS_FreeValueRT</title>
<!-- Node38346 -->
<g id="node1" class="node">
<title>Node38346</title>
<polygon fill="#bfbfbf" stroke="#000000" points="0,-524.5 0,-543.5 92,-543.5 92,-524.5 0,-524.5"/>
<text text-anchor="middle" x="46" y="-531.5" font-family="Helvetica,sans-Serif" font-size="10.00" fill="#000000">JS_FreeValueRT</text>
</g>
<!-- Node38347 -->
<g id="node2" class="node">
<title>Node38347</title>
<g id="a_node2"><a xlink:href="quickjs_8c.html#ab3180b5caf3b66ac6db634e41e56a4ef" target="_top" xlink:title="async_func_free">
<polygon fill="none" stroke="#ff0000" points="152,-1024.5 152,-1043.5 241,-1043.5 241,-1024.5 152,-1024.5"/>
<text text-anchor="middle" x="196.5" y="-1031.5" font-family="Helvetica,sans-Serif" font-size="10.00" fill="#000000">async_func_free</text>
</a>
</g>
</g>
<!-- Node38346&#45;&gt;Node38347 -->
<g id="edge1" class="edge">
<title>Node38346&#45;&gt;Node38347</title>
<path fill="none" stroke="#191970" d="M46.8167,-554.1542C50.5042,-635.5727 68.1168,-939.2201 128,-1010 134.1857,-1017.3112 142.7358,-1022.3967 151.7014,-1025.9335"/>
<polygon fill="#191970" stroke="#191970" points="50.2983,-553.6481 46.3704,-543.8083 43.3048,-553.9499 50.2983,-553.6481"/>
</g>
<!-- Node38360 -->
<g id="node5" class="node">
<title>Node38360</title>
<g id="a_node5"><a xlink:href="quickjs_8c.html#a0272417de9a1be37e1fcc3fdccdb859a" target="_top" xlink:title="js_async_function_free0">
<polygon fill="none" stroke="#ff0000" points="478,-986.5 478,-1005.5 600,-1005.5 600,-986.5 478,-986.5"/>
<text text-anchor="middle" x="539" y="-993.5" font-family="Helvetica,sans-Serif" font-size="10.00" fill="#000000">js_async_function_free0</text>
</a>
</g>
</g>
<!-- Node38346&#45;&gt;Node38360 -->
<g id="edge16" class="edge">
<title>Node38346&#45;&gt;Node38360</title>
<path fill="none" stroke="#191970" d="M47.0394,-553.802C51.3453,-627.6871 70.3485,-885.75 128,-939 179.6322,-986.6903 372.5768,-966.0151 442,-977 458.9494,-979.6819 477.4581,-983.1678 493.7217,-986.4202"/>
<polygon fill="#191970" stroke="#191970" points="50.5212,-553.3749 46.4709,-543.5849 43.532,-553.7639 50.5212,-553.3749"/>
</g>
<!-- Node38370 -->
<g id="node6" class="node">
<title>Node38370</title>
<g id="a_node6"><a xlink:href="quickjs_8c.html#a0cf9a02011216d38f2e96ca71f8f274f" target="_top" xlink:title="js_async_generator_free">
<polygon fill="none" stroke="#ff0000" points="310,-986.5 310,-1005.5 433,-1005.5 433,-986.5 310,-986.5"/>
<text text-anchor="middle" x="371.5" y="-993.5" font-family="Helvetica,sans-Serif" font-size="10.00" fill="#000000">js_async_generator_free</text>
</a>
</g>
</g>
<!-- Node38346&#45;&gt;Node38370 -->
<g id="edge17" class="edge">
<title>Node38346&#45;&gt;Node38370</title>
<path fill="none" stroke="#191970" d="M46.6789,-553.9283C49.7708,-631.8487 65.215,-914.4428 128,-972 182.4839,-1021.9474 275.3947,-1015.0849 329.3256,-1005.5641"/>
<polygon fill="#191970" stroke="#191970" points="50.1643,-553.4677 46.2957,-543.6045 43.1691,-553.7275 50.1643,-553.4677"/>
</g>
<!-- Node38372 -->
<g id="node7" class="node">
<title>Node38372</title>
<g id="a_node7"><a xlink:href="quickjs_8c.html#adc4a49d7eb1cc1ec4b3a8c37ab8cb075" target="_top" xlink:title="free_function_bytecode">
<polygon fill="none" stroke="#ff0000" points="137.5,-910.5 137.5,-929.5 255.5,-929.5 255.5,-910.5 137.5,-910.5"/>
<text text-anchor="middle" x="196.5" y="-917.5" font-family="Helvetica,sans-Serif" font-size="10.00" fill="#000000">free_function_bytecode</text>
</a>
</g>
</g>
<!-- Node38346&#45;&gt;Node38372 -->
<g id="edge6" class="edge">
<title>Node38346&#45;&gt;Node38372</title>
<path fill="none" stroke="#191970" d="M47.9872,-553.9439C55.1467,-622.0479 81.678,-844.0591 128,-896 133.6194,-902.301 140.9894,-906.9478 148.8088,-910.3746"/>
<polygon fill="#191970" stroke="#191970" points="51.4419,-553.3226 46.9391,-543.7323 44.4785,-554.0374 51.4419,-553.3226"/>
</g>
<!-- Node38995 -->
<g id="node8" class="node">
<title>Node38995</title>
<g id="a_node8"><a xlink:href="quickjs_8c.html#af4274494e2e45f9018154ffcbb7e89e4" target="_top" xlink:title="free_property">
<polygon fill="none" stroke="#ff0000" points="334.5,-809.5 334.5,-828.5 408.5,-828.5 408.5,-809.5 334.5,-809.5"/>
<text text-anchor="middle" x="371.5" y="-816.5" font-family="Helvetica,sans-Serif" font-size="10.00" fill="#000000">free_property</text>
</a>
</g>
</g>
<!-- Node38346&#45;&gt;Node38995 -->
<g id="edge7" class="edge">
<title>Node38346&#45;&gt;Node38995</title>
<path fill="none" stroke="#191970" d="M47.8337,-553.9658C54.2763,-619.2013 78.2255,-824.1086 128,-863 198.5793,-918.1473 315.7134,-854.2781 356.7512,-828.6781"/>
<polygon fill="#191970" stroke="#191970" points="51.297,-553.4134 46.8608,-543.792 44.3287,-554.0799 51.297,-553.4134"/>
</g>
<!-- Node39057 -->
<g id="node9" class="node">
<title>Node39057</title>
<g id="a_node9"><a xlink:href="quickjs-libc_8c.html#aab7fd6a31fdf4057b761f08b15a38fed" target="_top" xlink:title="free_rw_handler">
<polygon fill="none" stroke="#ff0000" points="153.5,-834.5 153.5,-853.5 239.5,-853.5 239.5,-834.5 153.5,-834.5"/>
<text text-anchor="middle" x="196.5" y="-841.5" font-family="Helvetica,sans-Serif" font-size="10.00" fill="#000000">free_rw_handler</text>
</a>
</g>
</g>
<!-- Node38346&#45;&gt;Node39057 -->
<g id="edge8" class="edge">
<title>Node38346&#45;&gt;Node39057</title>
<path fill="none" stroke="#191970" d="M49.0191,-553.8498C58.3839,-612.9113 88.6882,-785.8489 128,-825 134.9082,-831.8799 144.076,-836.323 153.4509,-839.1781"/>
<polygon fill="#191970" stroke="#191970" points="52.4248,-552.9722 47.4289,-543.6292 45.508,-554.0484 52.4248,-552.9722"/>
</g>
<!-- Node39058 -->
<g id="node10" class="node">
<title>Node39058</title>
<g id="a_node10"><a xlink:href="quickjs-libc_8c.html#a2c759d250bbd9030dba1b8b84543a7e6" target="_top" xlink:title="free_sh">
<polygon fill="none" stroke="#ff0000" points="172,-796.5 172,-815.5 221,-815.5 221,-796.5 172,-796.5"/>
<text text-anchor="middle" x="196.5" y="-803.5" font-family="Helvetica,sans-Serif" font-size="10.00" fill="#000000">free_sh</text>
</a>
</g>
</g>
<!-- Node38346&#45;&gt;Node39058 -->
<g id="edge9" class="edge">
<title>Node38346&#45;&gt;Node39058</title>
<path fill="none" stroke="#191970" d="M49.8801,-553.6965C60.8043,-607.2537 93.2931,-753.7495 128,-787 139.6742,-798.1843 157.3378,-802.8975 171.804,-804.8336"/>
<polygon fill="#191970" stroke="#191970" points="53.2836,-552.868 47.8832,-543.7529 46.4207,-554.2462 53.2836,-552.868"/>
</g>
<!-- Node39059 -->
<g id="node11" class="node">
<title>Node39059</title>
<g id="a_node11"><a xlink:href="quickjs-libc_8c.html#af489c834058ffaebb737bb9e837619aa" target="_top" xlink:title="free_timer">
<polygon fill="none" stroke="#000000" points="166.5,-758.5 166.5,-777.5 226.5,-777.5 226.5,-758.5 166.5,-758.5"/>
<text text-anchor="middle" x="196.5" y="-765.5" font-family="Helvetica,sans-Serif" font-size="10.00" fill="#000000">free_timer</text>
</a>
</g>
</g>
<!-- Node38346&#45;&gt;Node39059 -->
<g id="edge10" class="edge">
<title>Node38346&#45;&gt;Node39059</title>
<path fill="none" stroke="#191970" d="M47.7229,-553.9981C52.4672,-596.3991 69.5494,-695.7899 128,-749 138.4038,-758.4711 153.1255,-763.2747 166.2564,-765.6897"/>
<polygon fill="#191970" stroke="#191970" points="51.1859,-553.4536 46.7067,-543.8522 44.2208,-554.1513 51.1859,-553.4536"/>
</g>
<!-- Node39060 -->
<g id="node12" class="node">
<title>Node39060</title>
<g id="a_node12"><a xlink:href="quickjs_8c.html#a9e7b4bccf927d811b0f99b40b08c0472" target="_top" xlink:title="free_var_ref">
<polygon fill="none" stroke="#ff0000" points="162.5,-720.5 162.5,-739.5 230.5,-739.5 230.5,-720.5 162.5,-720.5"/>
<text text-anchor="middle" x="196.5" y="-727.5" font-family="Helvetica,sans-Serif" font-size="10.00" fill="#000000">free_var_ref</text>
</a>
</g>
</g>
<!-- Node38346&#45;&gt;Node39060 -->
<g id="edge11" class="edge">
<title>Node38346&#45;&gt;Node39060</title>
<path fill="none" stroke="#191970" d="M50.1607,-553.8095C58.6188,-589.2981 81.1271,-663.929 128,-706 137.5653,-714.5854 150.3828,-720.1394 162.3424,-723.7146"/>
<polygon fill="#191970" stroke="#191970" points="53.5075,-552.7398 47.8952,-543.7536 46.6787,-554.2783 53.5075,-552.7398"/>
</g>
<!-- Node39061 -->
<g id="node13" class="node">
<title>Node39061</title>
<g id="a_node13"><a xlink:href="quickjs_8c.html#a21648ca38448a0bc9b61e102f7b46d25" target="_top" xlink:title="js_bytecode_function\l_finalizer">
<polygon fill="none" stroke="#000000" points="317,-696 317,-726 426,-726 426,-696 317,-696"/>
<text text-anchor="start" x="325" y="-714" font-family="Helvetica,sans-Serif" font-size="10.00" fill="#000000">js_bytecode_function</text>
<text text-anchor="middle" x="371.5" y="-703" font-family="Helvetica,sans-Serif" font-size="10.00" fill="#000000">_finalizer</text>
</a>
</g>
</g>
<!-- Node38346&#45;&gt;Node39061 -->
<g id="edge19" class="edge">
<title>Node38346&#45;&gt;Node39061</title>
<path fill="none" stroke="#191970" d="M51.5,-553.3437C61.3446,-584.1548 85.0733,-643.8641 128,-673 157.9586,-693.334 254.737,-703.3907 316.8869,-707.8715"/>
<polygon fill="#191970" stroke="#191970" points="54.8412,-552.3008 48.5882,-543.748 48.1429,-554.3335 54.8412,-552.3008"/>
</g>
<!-- Node39062 -->
<g id="node14" class="node">
<title>Node39062</title>
<g id="a_node14"><a xlink:href="quickjs_8c.html#a44c818f2e1c853a398543ebdd9dcf235" target="_top" xlink:title="js_array_finalizer">
<polygon fill="none" stroke="#000000" points="151.5,-644.5 151.5,-663.5 241.5,-663.5 241.5,-644.5 151.5,-644.5"/>
<text text-anchor="middle" x="196.5" y="-651.5" font-family="Helvetica,sans-Serif" font-size="10.00" fill="#000000">js_array_finalizer</text>
</a>
</g>
</g>
<!-- Node38346&#45;&gt;Node39062 -->
<g id="edge14" class="edge">
<title>Node38346&#45;&gt;Node39062</title>
<path fill="none" stroke="#191970" d="M56.1064,-552.464C69.5423,-575.2748 95.428,-613.6733 128,-635 135.021,-639.5971 143.1453,-643.0925 151.2912,-645.7472"/>
<polygon fill="#191970" stroke="#191970" points="59.123,-550.6885 51.1271,-543.7375 53.0431,-554.1576 59.123,-550.6885"/>
</g>
<!-- Node39063 -->
<g id="node15" class="node">
<title>Node39063</title>
<g id="a_node15"><a xlink:href="quickjs_8c.html#aaf0d869f076df317beb45b62ff39532a" target="_top" xlink:title="js_array_iterator_finalizer">
<polygon fill="none" stroke="#000000" points="134,-606.5 134,-625.5 259,-625.5 259,-606.5 134,-606.5"/>
<text text-anchor="middle" x="196.5" y="-613.5" font-family="Helvetica,sans-Serif" font-size="10.00" fill="#000000">js_array_iterator_finalizer</text>
</a>
</g>
</g>
<!-- Node38346&#45;&gt;Node39063 -->
<g id="edge15" class="edge">
<title>Node38346&#45;&gt;Node39063</title>
<path fill="none" stroke="#191970" d="M63.1185,-550.3547C78.8429,-564.5543 103.3772,-584.7135 128,-597 135.6196,-600.8021 144.1081,-603.9349 152.4435,-606.483"/>
<polygon fill="#191970" stroke="#191970" points="65.4662,-547.7586 55.7449,-543.5458 60.7172,-552.9014 65.4662,-547.7586"/>
</g>
<!-- Node39064 -->
<g id="node16" class="node">
<title>Node39064</title>
<g id="a_node16"><a xlink:href="quickjs_8c.html#aaff26e6df87cc3206d62a574cb754caf" target="_top" xlink:title="js_bound_function_finalizer">
<polygon fill="none" stroke="#000000" points="129.5,-568.5 129.5,-587.5 263.5,-587.5 263.5,-568.5 129.5,-568.5"/>
<text text-anchor="middle" x="196.5" y="-575.5" font-family="Helvetica,sans-Serif" font-size="10.00" fill="#000000">js_bound_function_finalizer</text>
</a>
</g>
</g>
<!-- Node38346&#45;&gt;Node39064 -->
<g id="edge18" class="edge">
<title>Node38346&#45;&gt;Node39064</title>
<path fill="none" stroke="#191970" d="M88.5778,-546.4676C101.2618,-550.1801 115.1929,-554.2562 128,-558 139.6534,-561.4066 152.423,-565.1359 163.7465,-568.4417"/>
<polygon fill="#191970" stroke="#191970" points="89.2988,-543.0318 78.7182,-543.5814 87.3322,-549.7499 89.2988,-543.0318"/>
</g>
<!-- Node39065 -->
<g id="node17" class="node">
<title>Node39065</title>
<g id="a_node17"><a xlink:href="quickjs_8c.html#a4045e60eb443787153f2f1f78e990e08" target="_top" xlink:title="js_for_in_iterator\l_finalizer">
<polygon fill="none" stroke="#000000" points="152,-519 152,-549 241,-549 241,-519 152,-519"/>
<text text-anchor="start" x="160" y="-537" font-family="Helvetica,sans-Serif" font-size="10.00" fill="#000000">js_for_in_iterator</text>
<text text-anchor="middle" x="196.5" y="-526" font-family="Helvetica,sans-Serif" font-size="10.00" fill="#000000">_finalizer</text>
</a>
</g>
</g>
<!-- Node38346&#45;&gt;Node39065 -->
<g id="edge20" class="edge">
<title>Node38346&#45;&gt;Node39065</title>
<path fill="none" stroke="#191970" d="M102.8227,-534C119.0274,-534 136.447,-534 151.8169,-534"/>
<polygon fill="#191970" stroke="#191970" points="102.383,-530.5001 92.383,-534 102.383,-537.5001 102.383,-530.5001"/>
</g>
<!-- Node39066 -->
<g id="node18" class="node">
<title>Node39066</title>
<g id="a_node18"><a xlink:href="quickjs-libc_8c.html#a23e6bef6353d5de8d3103a30b107965e" target="_top" xlink:title="js_free_port">
<polygon fill="none" stroke="#ff0000" points="162.5,-480.5 162.5,-499.5 230.5,-499.5 230.5,-480.5 162.5,-480.5"/>
<text text-anchor="middle" x="196.5" y="-487.5" font-family="Helvetica,sans-Serif" font-size="10.00" fill="#000000">js_free_port</text>
</a>
</g>
</g>
<!-- Node38346&#45;&gt;Node39066 -->
<g id="edge21" class="edge">
<title>Node38346&#45;&gt;Node39066</title>
<path fill="none" stroke="#191970" d="M86.4678,-521.4398C99.6858,-517.3968 114.4491,-512.9443 128,-509 139.1386,-505.7578 151.3329,-502.3349 162.3059,-499.3011"/>
<polygon fill="#191970" stroke="#191970" points="85.2391,-518.1557 76.7067,-524.4365 87.2936,-524.8475 85.2391,-518.1557"/>
</g>
<!-- Node39067 -->
<g id="node19" class="node">
<title>Node39067</title>
<g id="a_node19"><a xlink:href="quickjs_8c.html#a6f921a6312ada5c7da7b485e24d37f54" target="_top" xlink:title="js_free_shape0">
<polygon fill="none" stroke="#ff0000" points="155,-442.5 155,-461.5 238,-461.5 238,-442.5 155,-442.5"/>
<text text-anchor="middle" x="196.5" y="-449.5" font-family="Helvetica,sans-Serif" font-size="10.00" fill="#000000">js_free_shape0</text>
</a>
</g>
</g>
<!-- Node38346&#45;&gt;Node39067 -->
<g id="edge22" class="edge">
<title>Node38346&#45;&gt;Node39067</title>
<path fill="none" stroke="#191970" d="M63.1185,-517.6453C78.8429,-503.4457 103.3772,-483.2865 128,-471 136.3926,-466.8122 145.8393,-463.4363 154.9746,-460.7594"/>
<polygon fill="#191970" stroke="#191970" points="60.7172,-515.0986 55.7449,-524.4542 65.4662,-520.2414 60.7172,-515.0986"/>
</g>
<!-- Node39040 -->
<g id="node20" class="node">
<title>Node39040</title>
<g id="a_node20"><a xlink:href="quickjs_8c.html#ad80a65b72c3a346d8a0047858a5f0b13" target="_top" xlink:title="JS_FreeRuntime">
<polygon fill="none" stroke="#ff0000" points="151.5,-404.5 151.5,-423.5 241.5,-423.5 241.5,-404.5 151.5,-404.5"/>
<text text-anchor="middle" x="196.5" y="-411.5" font-family="Helvetica,sans-Serif" font-size="10.00" fill="#000000">JS_FreeRuntime</text>
</a>
</g>
</g>
<!-- Node38346&#45;&gt;Node39040 -->
<g id="edge23" class="edge">
<title>Node38346&#45;&gt;Node39040</title>
<path fill="none" stroke="#191970" d="M56.1064,-515.536C69.5423,-492.7252 95.428,-454.3267 128,-433 135.021,-428.4029 143.1453,-424.9075 151.2912,-422.2528"/>
<polygon fill="#191970" stroke="#191970" points="53.0431,-513.8424 51.1271,-524.2625 59.123,-517.3115 53.0431,-513.8424"/>
</g>
<!-- Node39077 -->
<g id="node21" class="node">
<title>Node39077</title>
<g id="a_node21"><a xlink:href="quickjs_8c.html#afad8bd4b718f23a93da0799137179cdb" target="_top" xlink:title="js_map_finalizer">
<polygon fill="none" stroke="#000000" points="153,-366.5 153,-385.5 240,-385.5 240,-366.5 153,-366.5"/>
<text text-anchor="middle" x="196.5" y="-373.5" font-family="Helvetica,sans-Serif" font-size="10.00" fill="#000000">js_map_finalizer</text>
</a>
</g>
</g>
<!-- Node38346&#45;&gt;Node39077 -->
<g id="edge24" class="edge">
<title>Node38346&#45;&gt;Node39077</title>
<path fill="none" stroke="#191970" d="M52.1939,-514.3818C62.7684,-484.1188 87.2084,-426.2807 128,-395 135.2471,-389.4426 144.0281,-385.5105 152.8507,-382.7285"/>
<polygon fill="#191970" stroke="#191970" points="48.7685,-513.5896 48.9207,-524.1834 55.408,-515.8069 48.7685,-513.5896"/>
</g>
<!-- Node39078 -->
<g id="node22" class="node">
<title>Node39078</title>
<g id="a_node22"><a xlink:href="quickjs_8c.html#a7ea7031f864981d13b627113ba061760" target="_top" xlink:title="js_map_iterator_finalizer">
<polygon fill="none" stroke="#000000" points="135.5,-328.5 135.5,-347.5 257.5,-347.5 257.5,-328.5 135.5,-328.5"/>
<text text-anchor="middle" x="196.5" y="-335.5" font-family="Helvetica,sans-Serif" font-size="10.00" fill="#000000">js_map_iterator_finalizer</text>
</a>
</g>
</g>
<!-- Node38346&#45;&gt;Node39078 -->
<g id="edge25" class="edge">
<title>Node38346&#45;&gt;Node39078</title>
<path fill="none" stroke="#191970" d="M49.5024,-514.3046C57.0597,-477.703 78.3927,-399.1038 128,-357 132.6105,-353.0869 137.9656,-349.9756 143.6115,-347.5027"/>
<polygon fill="#191970" stroke="#191970" points="46.0457,-513.7458 47.5833,-524.2285 52.9184,-515.075 46.0457,-513.7458"/>
</g>
<!-- Node39079 -->
<g id="node23" class="node">
<title>Node39079</title>
<g id="a_node23"><a xlink:href="quickjs_8c.html#abd6dc9a149834fc4a6cb6235ca03fa1e" target="_top" xlink:title="js_object_data_finalizer">
<polygon fill="none" stroke="#000000" points="137,-290.5 137,-309.5 256,-309.5 256,-290.5 137,-290.5"/>
<text text-anchor="middle" x="196.5" y="-297.5" font-family="Helvetica,sans-Serif" font-size="10.00" fill="#000000">js_object_data_finalizer</text>
</a>
</g>
</g>
<!-- Node38346&#45;&gt;Node39079 -->
<g id="edge26" class="edge">
<title>Node38346&#45;&gt;Node39079</title>
<path fill="none" stroke="#191970" d="M47.7229,-514.0019C52.4672,-471.6009 69.5494,-372.2101 128,-319 132.2893,-315.0953 137.3125,-311.9839 142.6556,-309.5061"/>
<polygon fill="#191970" stroke="#191970" points="44.2208,-513.8487 46.7067,-524.1478 51.1859,-514.5464 44.2208,-513.8487"/>
</g>
<!-- Node39080 -->
<g id="node24" class="node">
<title>Node39080</title>
<g id="a_node24"><a xlink:href="quickjs_8c.html#ae8260c566b9f7776fb2375fa272157fc" target="_top" xlink:title="js_promise_resolve\l_function_finalizer">
<polygon fill="none" stroke="#000000" points="146,-241 146,-271 247,-271 247,-241 146,-241"/>
<text text-anchor="start" x="154" y="-259" font-family="Helvetica,sans-Serif" font-size="10.00" fill="#000000">js_promise_resolve</text>
<text text-anchor="middle" x="196.5" y="-248" font-family="Helvetica,sans-Serif" font-size="10.00" fill="#000000">_function_finalizer</text>
</a>
</g>
</g>
<!-- Node38346&#45;&gt;Node39080 -->
<g id="edge27" class="edge">
<title>Node38346&#45;&gt;Node39080</title>
<path fill="none" stroke="#191970" d="M50.021,-514.4448C61.3073,-461.2508 94.6397,-315.6013 128,-281 133.0085,-275.8052 139.1825,-271.6843 145.7549,-268.4167"/>
<polygon fill="#191970" stroke="#191970" points="46.5771,-513.8144 47.9551,-524.3193 53.4288,-515.2479 46.5771,-513.8144"/>
</g>
<!-- Node39081 -->
<g id="node25" class="node">
<title>Node39081</title>
<g id="a_node25"><a xlink:href="quickjs_8c.html#ac9c75493ffc21eedbbceab3913de681c" target="_top" xlink:title="js_regexp_finalizer">
<polygon fill="none" stroke="#000000" points="147.5,-202.5 147.5,-221.5 245.5,-221.5 245.5,-202.5 147.5,-202.5"/>
<text text-anchor="middle" x="196.5" y="-209.5" font-family="Helvetica,sans-Serif" font-size="10.00" fill="#000000">js_regexp_finalizer</text>
</a>
</g>
</g>
<!-- Node38346&#45;&gt;Node39081 -->
<g id="edge28" class="edge">
<title>Node38346&#45;&gt;Node39081</title>
<path fill="none" stroke="#191970" d="M48.7859,-514.1276C57.6801,-453.4201 87.2207,-272.036 128,-231 133.3935,-225.5725 140.1924,-221.6595 147.3996,-218.8458"/>
<polygon fill="#191970" stroke="#191970" points="45.2834,-513.8956 47.326,-524.2916 52.2123,-514.8908 45.2834,-513.8956"/>
</g>
<!-- Node39082 -->
<g id="node26" class="node">
<title>Node39082</title>
<g id="a_node26"><a xlink:href="quickjs_8c.html#a9dd93ec82f5884a80758b81056e9ad43" target="_top" xlink:title="js_regexp_string_iterator\l_finalizer">
<polygon fill="none" stroke="#000000" points="135,-153 135,-183 258,-183 258,-153 135,-153"/>
<text text-anchor="start" x="143" y="-171" font-family="Helvetica,sans-Serif" font-size="10.00" fill="#000000">js_regexp_string_iterator</text>
<text text-anchor="middle" x="196.5" y="-160" font-family="Helvetica,sans-Serif" font-size="10.00" fill="#000000">_finalizer</text>
</a>
</g>
</g>
<!-- Node38346&#45;&gt;Node39082 -->
<g id="edge29" class="edge">
<title>Node38346&#45;&gt;Node39082</title>
<path fill="none" stroke="#191970" d="M48.3261,-513.9682C56.3066,-448.4223 84.5048,-241.7571 128,-193 131.4552,-189.1268 135.5608,-185.8529 140.0196,-183.0858"/>
<polygon fill="#191970" stroke="#191970" points="44.8167,-513.8397 47.1083,-524.1837 51.7675,-514.6684 44.8167,-513.8397"/>
</g>
<!-- Node39083 -->
<g id="node27" class="node">
<title>Node39083</title>
<g id="a_node27"><a xlink:href="quickjs_8c.html#a2dcb30caae62abdc1f3b1d69dc9acb17" target="_top" xlink:title="js_typed_array_finalizer">
<polygon fill="none" stroke="#000000" points="137,-114.5 137,-133.5 256,-133.5 256,-114.5 137,-114.5"/>
<text text-anchor="middle" x="196.5" y="-121.5" font-family="Helvetica,sans-Serif" font-size="10.00" fill="#000000">js_typed_array_finalizer</text>
</a>
</g>
</g>
<!-- Node38346&#45;&gt;Node39083 -->
<g id="edge30" class="edge">
<title>Node38346&#45;&gt;Node39083</title>
<path fill="none" stroke="#191970" d="M47.5127,-513.7603C53.3092,-441.5542 76.4185,-197.9846 128,-143 131.6308,-139.1297 135.9745,-136.0235 140.6891,-133.5339"/>
<polygon fill="#191970" stroke="#191970" points="43.9895,-513.9228 46.7036,-524.1641 50.9685,-514.4656 43.9895,-513.9228"/>
</g>
<!-- Node39084 -->
<g id="node28" class="node">
<title>Node39084</title>
<g id="a_node28"><a xlink:href="quickjs_8c.html#a33105e4a375518fa0d303fb4eaaa6444" target="_top" xlink:title="map_delete_record">
<polygon fill="none" stroke="#000000" points="147,-76.5 147,-95.5 246,-95.5 246,-76.5 147,-76.5"/>
<text text-anchor="middle" x="196.5" y="-83.5" font-family="Helvetica,sans-Serif" font-size="10.00" fill="#000000">map_delete_record</text>
</a>
</g>
</g>
<!-- Node38346&#45;&gt;Node39084 -->
<g id="edge31" class="edge">
<title>Node38346&#45;&gt;Node39084</title>
<path fill="none" stroke="#191970" d="M47.0726,-514.2857C51.5948,-438.387 71.5498,-166.2617 128,-105 133.1014,-99.4638 139.661,-95.4871 146.6941,-92.6411"/>
<polygon fill="#191970" stroke="#191970" points="43.5728,-514.1842 46.4953,-524.368 50.5613,-514.5844 43.5728,-514.1842"/>
</g>
<!-- Node39085 -->
<g id="node29" class="node">
<title>Node39085</title>
<g id="a_node29"><a xlink:href="quickjs_8c.html#a24b69b04d5b252c4ddb9d85b659b9129" target="_top" xlink:title="promise_reaction_data_free">
<polygon fill="none" stroke="#ff0000" points="128,-38.5 128,-57.5 265,-57.5 265,-38.5 128,-38.5"/>
<text text-anchor="middle" x="196.5" y="-45.5" font-family="Helvetica,sans-Serif" font-size="10.00" fill="#000000">promise_reaction_data_free</text>
</a>
</g>
</g>
<!-- Node38346&#45;&gt;Node39085 -->
<g id="edge32" class="edge">
<title>Node38346&#45;&gt;Node39085</title>
<path fill="none" stroke="#191970" d="M46.7452,-514.1127C50.1542,-433.7892 66.8325,-134.3916 128,-67 131.4837,-63.1619 135.668,-60.0717 140.2294,-57.5874"/>
<polygon fill="#191970" stroke="#191970" points="43.2395,-514.1879 46.3348,-524.3204 50.2338,-514.4691 43.2395,-514.1879"/>
</g>
<!-- Node39086 -->
<g id="node30" class="node">
<title>Node39086</title>
<g id="a_node30"><a xlink:href="quickjs_8c.html#a818cf98b25b3e462b79b5d8f8c6517da" target="_top" xlink:title="reset_weak_ref">
<polygon fill="none" stroke="#ff0000" points="155,-.5 155,-19.5 238,-19.5 238,-.5 155,-.5"/>
<text text-anchor="middle" x="196.5" y="-7.5" font-family="Helvetica,sans-Serif" font-size="10.00" fill="#000000">reset_weak_ref</text>
</a>
</g>
</g>
<!-- Node38346&#45;&gt;Node39086 -->
<g id="edge33" class="edge">
<title>Node38346&#45;&gt;Node39086</title>
<path fill="none" stroke="#191970" d="M46.4565,-514.1386C48.795,-429.8384 62.0498,-102.6055 128,-29 134.9179,-21.2791 144.671,-16.5794 154.654,-13.7495"/>
<polygon fill="#191970" stroke="#191970" points="42.9517,-514.2835 46.1946,-524.3698 49.9494,-514.4626 42.9517,-514.2835"/>
</g>
<!-- Node38348 -->
<g id="node3" class="node">
<title>Node38348</title>
<g id="a_node3"><a xlink:href="quickjs_8c.html#a79e765cc00783901041f08e060c14287" target="_top" xlink:title="free_generator_stack_rt">
<polygon fill="none" stroke="#ff0000" points="312,-1062.5 312,-1081.5 431,-1081.5 431,-1062.5 312,-1062.5"/>
<text text-anchor="middle" x="371.5" y="-1069.5" font-family="Helvetica,sans-Serif" font-size="10.00" fill="#000000">free_generator_stack_rt</text>
</a>
</g>
</g>
<!-- Node38347&#45;&gt;Node38348 -->
<g id="edge2" class="edge">
<title>Node38347&#45;&gt;Node38348</title>
<path fill="none" stroke="#191970" d="M250.6237,-1045.7526C275.3687,-1051.1258 304.3028,-1057.4086 327.6577,-1062.4799"/>
<polygon fill="#191970" stroke="#191970" points="251.1749,-1042.2908 240.6599,-1043.589 249.6894,-1049.1314 251.1749,-1042.2908"/>
</g>
<!-- Node38359 -->
<g id="node4" class="node">
<title>Node38359</title>
<g id="a_node4"><a xlink:href="quickjs_8c.html#a4b282353917b10409ca38b279b0b1dce" target="_top" xlink:title="js_async_function_terminate">
<polygon fill="none" stroke="#ff0000" points="301,-1024.5 301,-1043.5 442,-1043.5 442,-1024.5 301,-1024.5"/>
<text text-anchor="middle" x="371.5" y="-1031.5" font-family="Helvetica,sans-Serif" font-size="10.00" fill="#000000">js_async_function_terminate</text>
</a>
</g>
</g>
<!-- Node38347&#45;&gt;Node38359 -->
<g id="edge3" class="edge">
<title>Node38347&#45;&gt;Node38359</title>
<path fill="none" stroke="#191970" d="M251.174,-1034C266.8861,-1034 284.2498,-1034 300.7829,-1034"/>
<polygon fill="#191970" stroke="#191970" points="251.1127,-1030.5001 241.1127,-1034 251.1127,-1037.5001 251.1127,-1030.5001"/>
</g>
<!-- Node38347&#45;&gt;Node38370 -->
<g id="edge5" class="edge">
<title>Node38347&#45;&gt;Node38370</title>
<path fill="none" stroke="#191970" d="M250.6237,-1022.2474C275.3687,-1016.8742 304.3028,-1010.5914 327.6577,-1005.5201"/>
<polygon fill="#191970" stroke="#191970" points="249.6894,-1018.8686 240.6599,-1024.411 251.1749,-1025.7092 249.6894,-1018.8686"/>
</g>
<!-- Node38359&#45;&gt;Node38360 -->
<g id="edge4" class="edge">
<title>Node38359&#45;&gt;Node38360</title>
<path fill="none" stroke="#191970" d="M423.6201,-1022.1757C447.2347,-1016.8184 474.782,-1010.5689 497.0366,-1005.5201"/>
<polygon fill="#191970" stroke="#191970" points="422.7451,-1018.7852 413.7673,-1024.411 424.2939,-1025.6117 422.7451,-1018.7852"/>
</g>
<!-- Node39060&#45;&gt;Node38995 -->
<g id="edge12" class="edge">
<title>Node39060&#45;&gt;Node38995</title>
<path fill="none" stroke="#191970" d="M240.3407,-739.97C248.695,-742.4786 257.2456,-745.4809 265,-749 302.0727,-765.8241 340.8715,-794.6257 359.7633,-809.4957"/>
<polygon fill="#191970" stroke="#191970" points="241.2575,-736.5921 230.6831,-737.2507 239.3602,-743.3301 241.2575,-736.5921"/>
</g>
<!-- Node39060&#45;&gt;Node39061 -->
<g id="edge13" class="edge">
<title>Node39060&#45;&gt;Node39061</title>
<path fill="none" stroke="#191970" d="M240.8495,-725.1849C263.9235,-722.6797 292.3377,-719.5948 316.7683,-716.9423"/>
<polygon fill="#191970" stroke="#191970" points="240.221,-721.7325 230.6572,-726.2915 240.9766,-728.6916 240.221,-721.7325"/>
</g>
</g>
</svg>
        <g id="navigator" transform="translate(0 0)" fill="#404254">
                <rect fill="#f2f5e9" fill-opacity="0.5" stroke="#606060" stroke-width=".5" x="0" y="0" width="60" height="60"/>
                <use id="zoomplus" xlink:href="#zoomPlus" x="17" y="9" onmousedown="handleZoom(evt,'in')"/>
                <use id="zoomminus" xlink:href="#zoomMin" x="42" y="9" onmousedown="handleZoom(evt,'out')"/>
                <use id="reset" xlink:href="#resetDef" x="30" y="36" onmousedown="handleReset()"/>
                <g id="arrowUp" xlink:href="#dirArrow" transform="translate(30 24)" onmousedown="handlePan(0,-1)">
                  <use xlink:href="#rim" fill="#404040">
                        <set attributeName="fill" to="#808080" begin="arrowUp.mouseover" end="arrowUp.mouseout"/>
                  </use>
                  <path fill="none" stroke="white" stroke-width="1.5" d="M0,-3.0v7 M-2.5,-0.5L0,-3.0L2.5,-0.5"/>
                </g>
                <g id="arrowRight" xlink:href="#dirArrow" transform="rotate(90) translate(36 -43)" onmousedown="handlePan(1,0)">
                  <use xlink:href="#rim" fill="#404040">
                        <set attributeName="fill" to="#808080" begin="arrowRight.mouseover" end="arrowRight.mouseout"/>
                  </use>
                  <path fill="none" stroke="white" stroke-width="1.5" d="M0,-3.0v7 M-2.5,-0.5L0,-3.0L2.5,-0.5"/>
                </g>
                <g id="arrowDown" xlink:href="#dirArrow" transform="rotate(180) translate(-30 -48)" onmousedown="handlePan(0,1)">
                  <use xlink:href="#rim" fill="#404040">
                        <set attributeName="fill" to="#808080" begin="arrowDown.mouseover" end="arrowDown.mouseout"/>
                  </use>
                  <path fill="none" stroke="white" stroke-width="1.5" d="M0,-3.0v7 M-2.5,-0.5L0,-3.0L2.5,-0.5"/>
                </g>
                <g id="arrowLeft" xlink:href="#dirArrow" transform="rotate(270) translate(-36 17)" onmousedown="handlePan(-1,0)">
                  <use xlink:href="#rim" fill="#404040">
                        <set attributeName="fill" to="#808080" begin="arrowLeft.mouseover" end="arrowLeft.mouseout"/>
                  </use>
                  <path fill="none" stroke="white" stroke-width="1.5" d="M0,-3.0v7 M-2.5,-0.5L0,-3.0L2.5,-0.5"/>
                </g>
        </g>
        <svg viewBox="0 0 15 15" width="100%" height="30px" preserveAspectRatio="xMaxYMin meet">
         <g id="arrow_out" transform="scale(0.3 0.3)">
          <a xlink:href="quickjs_8h_ab8db583fa5e7c2b1935854a42859daed_icgraph_org.svg" target="_base">
           <rect id="button" ry="5" rx="5" y="6" x="6" height="38" width="38"
                fill="#f2f5e9" fill-opacity="0.5" stroke="#606060" stroke-width="1.0"/>
           <path id="arrow"
             d="M 11.500037,31.436501 C 11.940474,20.09759 22.043105,11.32322 32.158766,21.979434 L 37.068811,17.246167 C 37.068811,17.246167 37.088388,32 37.088388,32 L 22.160133,31.978069 C 22.160133,31.978069 26.997745,27.140456 26.997745,27.140456 C 18.528582,18.264221 13.291696,25.230495 11.500037,31.436501 z"
             style="fill:#404040;"/>
          </a>
         </g>
        </svg>
</svg>
