<?xml version="1.0" encoding="UTF-8" standalone="no"?>
<!DOCTYPE svg PUBLIC "-//W3C//DTD SVG 1.1//EN"
 "http://www.w3.org/Graphics/SVG/1.1/DTD/svg11.dtd">
<!-- Generated by graphviz version 2.40.1 (20161225.0304)
 -->
<!-- Title: js_typed_array___speciesCreate Pages: 1 -->
<svg width="297pt" height="104pt"
 viewBox="0.00 0.00 297.00 104.00" xmlns="http://www.w3.org/2000/svg" xmlns:xlink="http://www.w3.org/1999/xlink">
<g id="graph0" class="graph" transform="scale(1 1) rotate(0) translate(4 100)">
<title>js_typed_array___speciesCreate</title>
<!-- Node391906 -->
<g id="node1" class="node">
<title>Node391906</title>
<polygon fill="#bfbfbf" stroke="#000000" points="0,-33 0,-63 130,-63 130,-33 0,-33"/>
<text text-anchor="start" x="8" y="-51" font-family="Helvetica,sans-Serif" font-size="10.00" fill="#000000">js_typed_array___species</text>
<text text-anchor="middle" x="65" y="-40" font-family="Helvetica,sans-Serif" font-size="10.00" fill="#000000">Create</text>
</g>
<!-- Node391907 -->
<g id="node2" class="node">
<title>Node391907</title>
<g id="a_node2"><a xlink:href="quickjs_8c.html#aa0bbf08a7e91459c68a312fba7016c6d" target="_top" xlink:title="js_array_every">
<polygon fill="none" stroke="#000000" points="187.5,-76.5 187.5,-95.5 267.5,-95.5 267.5,-76.5 187.5,-76.5"/>
<text text-anchor="middle" x="227.5" y="-83.5" font-family="Helvetica,sans-Serif" font-size="10.00" fill="#000000">js_array_every</text>
</a>
</g>
</g>
<!-- Node391906&#45;&gt;Node391907 -->
<g id="edge1" class="edge">
<title>Node391906&#45;&gt;Node391907</title>
<path fill="none" stroke="#191970" d="M139.3851,-65.3947C155.8213,-69.2382 172.6349,-73.17 187.1096,-76.5549"/>
<polygon fill="#191970" stroke="#191970" points="139.7586,-61.8877 129.2243,-63.0186 138.1646,-68.7038 139.7586,-61.8877"/>
</g>
<!-- Node391908 -->
<g id="node3" class="node">
<title>Node391908</title>
<g id="a_node3"><a xlink:href="quickjs_8c.html#a04f45f4b341a84aa1039cfd862adbcd2" target="_top" xlink:title="js_typed_array_slice">
<polygon fill="none" stroke="#000000" points="174.5,-38.5 174.5,-57.5 280.5,-57.5 280.5,-38.5 174.5,-38.5"/>
<text text-anchor="middle" x="227.5" y="-45.5" font-family="Helvetica,sans-Serif" font-size="10.00" fill="#000000">js_typed_array_slice</text>
</a>
</g>
</g>
<!-- Node391906&#45;&gt;Node391908 -->
<g id="edge2" class="edge">
<title>Node391906&#45;&gt;Node391908</title>
<path fill="none" stroke="#191970" d="M140.2099,-48C151.7217,-48 163.3961,-48 174.302,-48"/>
<polygon fill="#191970" stroke="#191970" points="140.1587,-44.5001 130.1586,-48 140.1586,-51.5001 140.1587,-44.5001"/>
</g>
<!-- Node391909 -->
<g id="node4" class="node">
<title>Node391909</title>
<g id="a_node4"><a xlink:href="quickjs_8c.html#a355310420e303302c981eb7c73a222fb" target="_top" xlink:title="js_typed_array_subarray">
<polygon fill="none" stroke="#000000" points="166,-.5 166,-19.5 289,-19.5 289,-.5 166,-.5"/>
<text text-anchor="middle" x="227.5" y="-7.5" font-family="Helvetica,sans-Serif" font-size="10.00" fill="#000000">js_typed_array_subarray</text>
</a>
</g>
</g>
<!-- Node391906&#45;&gt;Node391909 -->
<g id="edge3" class="edge">
<title>Node391906&#45;&gt;Node391909</title>
<path fill="none" stroke="#191970" d="M139.2921,-30.6271C155.5775,-26.8188 172.2384,-22.9227 186.6321,-19.5568"/>
<polygon fill="#191970" stroke="#191970" points="138.1646,-27.2962 129.2243,-32.9814 139.7586,-34.1123 138.1646,-27.2962"/>
</g>
</g>
</svg>
