<?xml version="1.0" encoding="UTF-8" standalone="no"?>
<!DOCTYPE svg PUBLIC "-//W3C//DTD SVG 1.1//EN"
 "http://www.w3.org/Graphics/SVG/1.1/DTD/svg11.dtd">
<!-- Generated by graphviz version 2.40.1 (20161225.0304)
 -->
<!-- Title: dbuf_put_sleb128 Pages: 1 -->
<!--zoomable 198 -->
<svg id="main" version="1.1" xmlns="http://www.w3.org/2000/svg" xmlns:xlink="http://www.w3.org/1999/xlink" xml:space="preserve" onload="init(evt)">
<style type="text/css"><![CDATA[
.edge:hover path { stroke: red; }
.edge:hover polygon { stroke: red; fill: red; }
]]></style>
<script type="text/javascript"><![CDATA[
var edges = document.getElementsByTagName('g');
if (edges && edges.length) {
  for (var i=0;i<edges.length;i++) {
    if (edges[i].id.substr(0,4)=='edge') {
      edges[i].setAttribute('class','edge');
    }
  }
}
]]></script>
        <defs>
                <circle id="rim" cx="0" cy="0" r="7"/>
                <circle id="rim2" cx="0" cy="0" r="3.5"/>
                <g id="zoomPlus">
                        <use xlink:href="#rim" fill="#404040">
                                <set attributeName="fill" to="#808080" begin="zoomplus.mouseover" end="zoomplus.mouseout"/>
                        </use>
                        <path d="M-4,0h8M0,-4v8" fill="none" stroke="white" stroke-width="1.5" pointer-events="none"/>
                </g>
                <g id="zoomMin">
                        <use xlink:href="#rim" fill="#404040">
                                <set attributeName="fill" to="#808080" begin="zoomminus.mouseover" end="zoomminus.mouseout"/>
                        </use>
                        <path d="M-4,0h8" fill="none" stroke="white" stroke-width="1.5" pointer-events="none"/>
                </g>
                <g id="dirArrow">
                        <path fill="none" stroke="white" stroke-width="1.5" d="M0,-3.0v7 M-2.5,-0.5L0,-3.0L2.5,-0.5"/>
                </g>
               <g id="resetDef">
                       <use xlink:href="#rim2" fill="#404040">
                               <set attributeName="fill" to="#808080" begin="reset.mouseover" end="reset.mouseout"/>
                       </use>
               </g>
        </defs>

<script type="text/javascript">
var viewWidth = 531;
var viewHeight = 198;
var sectionId = 'dynsection-494';
</script>
<script xlink:href="svgpan.js"/>
<svg id="graph" class="graph">
<g id="viewport">
<title>dbuf_put_sleb128</title>
<!-- Node159514 -->
<g id="node1" class="node">
<title>Node159514</title>
<polygon fill="#bfbfbf" stroke="#000000" points="0,-73.5 0,-92.5 93,-92.5 93,-73.5 0,-73.5"/>
<text text-anchor="middle" x="46.5" y="-80.5" font-family="Helvetica,sans-Serif" font-size="10.00" fill="#000000">dbuf_put_sleb128</text>
</g>
<!-- Node159515 -->
<g id="node2" class="node">
<title>Node159515</title>
<g id="a_node2"><a xlink:href="quickjs_8c.html#a27f947bd87f87a0672cb81a01add8a02" target="_top" xlink:title="bc_put_sleb128">
<polygon fill="none" stroke="#000000" points="142,-106.5 142,-125.5 227,-125.5 227,-106.5 142,-106.5"/>
<text text-anchor="middle" x="184.5" y="-113.5" font-family="Helvetica,sans-Serif" font-size="10.00" fill="#000000">bc_put_sleb128</text>
</a>
</g>
</g>
<!-- Node159514&#45;&gt;Node159515 -->
<g id="edge1" class="edge">
<title>Node159514&#45;&gt;Node159515</title>
<path fill="none" stroke="#191970" d="M96.5699,-94.9732C112.3971,-98.758 129.6646,-102.8872 144.6744,-106.4765"/>
<polygon fill="#191970" stroke="#191970" points="96.9551,-91.4667 86.4153,-92.545 95.3271,-98.2748 96.9551,-91.4667"/>
</g>
<!-- Node159523 -->
<g id="node8" class="node">
<title>Node159523</title>
<g id="a_node8"><a xlink:href="quickjs_8c.html#ac8f4450aa771cc138f5fd25086f1c106" target="_top" xlink:title="compute_pc2line_info">
<polygon fill="none" stroke="#000000" points="129,-54.5 129,-73.5 240,-73.5 240,-54.5 129,-54.5"/>
<text text-anchor="middle" x="184.5" y="-61.5" font-family="Helvetica,sans-Serif" font-size="10.00" fill="#000000">compute_pc2line_info</text>
</a>
</g>
</g>
<!-- Node159514&#45;&gt;Node159523 -->
<g id="edge11" class="edge">
<title>Node159514&#45;&gt;Node159523</title>
<path fill="none" stroke="#191970" d="M103.314,-75.1778C111.7188,-74.0206 120.3728,-72.8291 128.7555,-71.675"/>
<polygon fill="#191970" stroke="#191970" points="102.6496,-71.7361 93.2205,-76.5675 103.6045,-78.6707 102.6496,-71.7361"/>
</g>
<!-- Node159516 -->
<g id="node3" class="node">
<title>Node159516</title>
<g id="a_node3"><a xlink:href="quickjs_8c.html#aa9342f7444c1c9f8743d43aa4d7f89e3" target="_top" xlink:title="JS_WriteObjectRec">
<polygon fill="none" stroke="#000000" points="276,-113.5 276,-132.5 380,-132.5 380,-113.5 276,-113.5"/>
<text text-anchor="middle" x="328" y="-120.5" font-family="Helvetica,sans-Serif" font-size="10.00" fill="#000000">JS_WriteObjectRec</text>
</a>
</g>
</g>
<!-- Node159515&#45;&gt;Node159516 -->
<g id="edge2" class="edge">
<title>Node159515&#45;&gt;Node159516</title>
<path fill="none" stroke="#191970" d="M237.4638,-118.5836C249.9971,-119.195 263.3531,-119.8465 275.8499,-120.4561"/>
<polygon fill="#191970" stroke="#191970" points="237.3249,-115.0728 227.1662,-118.0813 236.9838,-122.0644 237.3249,-115.0728"/>
</g>
<!-- Node159516&#45;&gt;Node159516 -->
<g id="edge9" class="edge">
<title>Node159516&#45;&gt;Node159516</title>
<path fill="none" stroke="#191970" d="M301.9584,-142.0292C303.3789,-147.128 312.0594,-151 328,-151 352.8828,-151 360.0755,-141.5653 349.5781,-132.7571"/>
<polygon fill="#191970" stroke="#191970" points="305.238,-143.2855 306.4219,-132.7571 298.9308,-140.2493 305.238,-143.2855"/>
</g>
<!-- Node159517 -->
<g id="node4" class="node">
<title>Node159517</title>
<g id="a_node4"><a xlink:href="quickjs_8c.html#aba35628e2e963dca8fa201e6708046d6" target="_top" xlink:title="JS_WriteArray">
<polygon fill="none" stroke="#000000" points="429.5,-170.5 429.5,-189.5 509.5,-189.5 509.5,-170.5 429.5,-170.5"/>
<text text-anchor="middle" x="469.5" y="-177.5" font-family="Helvetica,sans-Serif" font-size="10.00" fill="#000000">JS_WriteArray</text>
</a>
</g>
</g>
<!-- Node159516&#45;&gt;Node159517 -->
<g id="edge3" class="edge">
<title>Node159516&#45;&gt;Node159517</title>
<path fill="none" stroke="#191970" d="M377.4277,-136.3151C389.9448,-141.4163 403.4109,-147.0528 416,-152 431.4117,-158.0565 449.636,-164.3464 460.3442,-170.4987"/>
<polygon fill="#191970" stroke="#191970" points="378.6542,-133.0358 368.071,-132.5388 376.0343,-139.5271 378.6542,-133.0358"/>
</g>
<!-- Node159518 -->
<g id="node5" class="node">
<title>Node159518</title>
<g id="a_node5"><a xlink:href="quickjs_8c.html#a3da261d6aeb1d35f3fb47a0076752a57" target="_top" xlink:title="JS_WriteObjectTag">
<polygon fill="none" stroke="#000000" points="418.5,-132.5 418.5,-151.5 520.5,-151.5 520.5,-132.5 418.5,-132.5"/>
<text text-anchor="middle" x="469.5" y="-139.5" font-family="Helvetica,sans-Serif" font-size="10.00" fill="#000000">JS_WriteObjectTag</text>
</a>
</g>
</g>
<!-- Node159516&#45;&gt;Node159518 -->
<g id="edge5" class="edge">
<title>Node159516&#45;&gt;Node159518</title>
<path fill="none" stroke="#191970" d="M390.3487,-124.6644C407.624,-126.8086 425.577,-129.5872 440.0092,-132.4365"/>
<polygon fill="#191970" stroke="#191970" points="390.6281,-121.1732 380.2874,-123.4795 389.8093,-128.1251 390.6281,-121.1732"/>
</g>
<!-- Node159519 -->
<g id="node6" class="node">
<title>Node159519</title>
<g id="a_node6"><a xlink:href="quickjs_8c.html#ab24f0a3286c69433ab7e48dcc39c36cb" target="_top" xlink:title="JS_WriteTypedArray">
<polygon fill="none" stroke="#000000" points="416,-94.5 416,-113.5 523,-113.5 523,-94.5 416,-94.5"/>
<text text-anchor="middle" x="469.5" y="-101.5" font-family="Helvetica,sans-Serif" font-size="10.00" fill="#000000">JS_WriteTypedArray</text>
</a>
</g>
</g>
<!-- Node159516&#45;&gt;Node159519 -->
<g id="edge7" class="edge">
<title>Node159516&#45;&gt;Node159519</title>
<path fill="none" stroke="#191970" d="M367.3054,-111.6036C382.3443,-108.9388 399.7629,-106.4493 415.9119,-104.6253"/>
<polygon fill="#191970" stroke="#191970" points="366.5054,-108.1924 357.3189,-113.4705 367.7918,-115.0732 366.5054,-108.1924"/>
</g>
<!-- Node159520 -->
<g id="node7" class="node">
<title>Node159520</title>
<g id="a_node7"><a xlink:href="quickjs_8c.html#a431ceb41084feaa6af4e466b8b772ab1" target="_top" xlink:title="JS_WriteObject2">
<polygon fill="none" stroke="#ff0000" points="424,-56.5 424,-75.5 515,-75.5 515,-56.5 424,-56.5"/>
<text text-anchor="middle" x="469.5" y="-63.5" font-family="Helvetica,sans-Serif" font-size="10.00" fill="#000000">JS_WriteObject2</text>
</a>
</g>
</g>
<!-- Node159516&#45;&gt;Node159520 -->
<g id="edge10" class="edge">
<title>Node159516&#45;&gt;Node159520</title>
<path fill="none" stroke="#191970" d="M358.5181,-109.2291C375.3577,-101.7806 396.7086,-92.5811 416,-85 424.2562,-81.7555 433.3197,-78.4439 441.6024,-75.5135"/>
<polygon fill="#191970" stroke="#191970" points="356.8877,-106.1237 349.1742,-113.3868 359.7335,-112.5191 356.8877,-106.1237"/>
</g>
<!-- Node159517&#45;&gt;Node159516 -->
<g id="edge4" class="edge">
<title>Node159517&#45;&gt;Node159516</title>
<path fill="none" stroke="#191970" d="M419.6851,-171.4313C418.4427,-170.9545 417.2126,-170.4765 416,-170 386.882,-158.5572 353.0721,-143.4274 337.165,-132.6325"/>
<polygon fill="#191970" stroke="#191970" points="418.7759,-174.8269 429.3691,-175.0184 421.2075,-168.2627 418.7759,-174.8269"/>
</g>
<!-- Node159518&#45;&gt;Node159516 -->
<g id="edge6" class="edge">
<title>Node159518&#45;&gt;Node159516</title>
<path fill="none" stroke="#191970" d="M408.1954,-140.4645C390.5329,-138.295 372.0707,-135.4481 357.3189,-132.5295"/>
<polygon fill="#191970" stroke="#191970" points="408.131,-143.9805 418.4684,-141.6591 408.9396,-137.0274 408.131,-143.9805"/>
</g>
<!-- Node159519&#45;&gt;Node159516 -->
<g id="edge8" class="edge">
<title>Node159519&#45;&gt;Node159516</title>
<path fill="none" stroke="#191970" d="M429.8138,-115.4638C414.4564,-118.1748 396.6625,-120.6996 380.2874,-122.5205"/>
<polygon fill="#191970" stroke="#191970" points="430.8198,-118.8366 440.0092,-113.5635 429.5372,-111.9551 430.8198,-118.8366"/>
</g>
<!-- Node159524 -->
<g id="node9" class="node">
<title>Node159524</title>
<g id="a_node9"><a xlink:href="quickjs_8c.html#ad0d311d4ce409584384f835f1a3e185a" target="_top" xlink:title="resolve_labels">
<polygon fill="none" stroke="#000000" points="288.5,-26.5 288.5,-45.5 367.5,-45.5 367.5,-26.5 288.5,-26.5"/>
<text text-anchor="middle" x="328" y="-33.5" font-family="Helvetica,sans-Serif" font-size="10.00" fill="#000000">resolve_labels</text>
</a>
</g>
</g>
<!-- Node159523&#45;&gt;Node159524 -->
<g id="edge12" class="edge">
<title>Node159523&#45;&gt;Node159524</title>
<path fill="none" stroke="#191970" d="M243.7187,-52.4451C258.7261,-49.5169 274.4884,-46.4413 288.2684,-43.7525"/>
<polygon fill="#191970" stroke="#191970" points="242.6278,-49.0919 233.4832,-54.4423 243.9684,-55.9623 242.6278,-49.0919"/>
</g>
<!-- Node159525 -->
<g id="node10" class="node">
<title>Node159525</title>
<g id="a_node10"><a xlink:href="quickjs_8c.html#a97fcc747d8b1c3644174745d2e2739be" target="_top" xlink:title="js_create_function">
<polygon fill="none" stroke="#ff0000" points="421.5,-.5 421.5,-19.5 517.5,-19.5 517.5,-.5 421.5,-.5"/>
<text text-anchor="middle" x="469.5" y="-7.5" font-family="Helvetica,sans-Serif" font-size="10.00" fill="#000000">js_create_function</text>
</a>
</g>
</g>
<!-- Node159524&#45;&gt;Node159525 -->
<g id="edge13" class="edge">
<title>Node159524&#45;&gt;Node159525</title>
<path fill="none" stroke="#191970" d="M377.8534,-26.8397C392.0191,-24.2368 407.4127,-21.4083 421.4681,-18.8257"/>
<polygon fill="#191970" stroke="#191970" points="376.995,-23.4387 367.7922,-28.6884 378.2601,-30.3234 376.995,-23.4387"/>
</g>
<!-- Node159525&#45;&gt;Node159525 -->
<g id="edge14" class="edge">
<title>Node159525&#45;&gt;Node159525</title>
<path fill="none" stroke="#191970" d="M443.4584,-29.0292C444.8789,-34.128 453.5594,-38 469.5,-38 494.3828,-38 501.5755,-28.5653 491.0781,-19.7571"/>
<polygon fill="#191970" stroke="#191970" points="446.738,-30.2855 447.9219,-19.7571 440.4308,-27.2493 446.738,-30.2855"/>
</g>
</g>
</svg>
        <g id="navigator" transform="translate(0 0)" fill="#404254">
                <rect fill="#f2f5e9" fill-opacity="0.5" stroke="#606060" stroke-width=".5" x="0" y="0" width="60" height="60"/>
                <use id="zoomplus" xlink:href="#zoomPlus" x="17" y="9" onmousedown="handleZoom(evt,'in')"/>
                <use id="zoomminus" xlink:href="#zoomMin" x="42" y="9" onmousedown="handleZoom(evt,'out')"/>
                <use id="reset" xlink:href="#resetDef" x="30" y="36" onmousedown="handleReset()"/>
                <g id="arrowUp" xlink:href="#dirArrow" transform="translate(30 24)" onmousedown="handlePan(0,-1)">
                  <use xlink:href="#rim" fill="#404040">
                        <set attributeName="fill" to="#808080" begin="arrowUp.mouseover" end="arrowUp.mouseout"/>
                  </use>
                  <path fill="none" stroke="white" stroke-width="1.5" d="M0,-3.0v7 M-2.5,-0.5L0,-3.0L2.5,-0.5"/>
                </g>
                <g id="arrowRight" xlink:href="#dirArrow" transform="rotate(90) translate(36 -43)" onmousedown="handlePan(1,0)">
                  <use xlink:href="#rim" fill="#404040">
                        <set attributeName="fill" to="#808080" begin="arrowRight.mouseover" end="arrowRight.mouseout"/>
                  </use>
                  <path fill="none" stroke="white" stroke-width="1.5" d="M0,-3.0v7 M-2.5,-0.5L0,-3.0L2.5,-0.5"/>
                </g>
                <g id="arrowDown" xlink:href="#dirArrow" transform="rotate(180) translate(-30 -48)" onmousedown="handlePan(0,1)">
                  <use xlink:href="#rim" fill="#404040">
                        <set attributeName="fill" to="#808080" begin="arrowDown.mouseover" end="arrowDown.mouseout"/>
                  </use>
                  <path fill="none" stroke="white" stroke-width="1.5" d="M0,-3.0v7 M-2.5,-0.5L0,-3.0L2.5,-0.5"/>
                </g>
                <g id="arrowLeft" xlink:href="#dirArrow" transform="rotate(270) translate(-36 17)" onmousedown="handlePan(-1,0)">
                  <use xlink:href="#rim" fill="#404040">
                        <set attributeName="fill" to="#808080" begin="arrowLeft.mouseover" end="arrowLeft.mouseout"/>
                  </use>
                  <path fill="none" stroke="white" stroke-width="1.5" d="M0,-3.0v7 M-2.5,-0.5L0,-3.0L2.5,-0.5"/>
                </g>
        </g>
        <svg viewBox="0 0 15 15" width="100%" height="30px" preserveAspectRatio="xMaxYMin meet">
         <g id="arrow_out" transform="scale(0.3 0.3)">
          <a xlink:href="quickjs_8c_a6adbc9d495ea79b1764fc21ed895e636_icgraph_org.svg" target="_base">
           <rect id="button" ry="5" rx="5" y="6" x="6" height="38" width="38"
                fill="#f2f5e9" fill-opacity="0.5" stroke="#606060" stroke-width="1.0"/>
           <path id="arrow"
             d="M 11.500037,31.436501 C 11.940474,20.09759 22.043105,11.32322 32.158766,21.979434 L 37.068811,17.246167 C 37.068811,17.246167 37.088388,32 37.088388,32 L 22.160133,31.978069 C 22.160133,31.978069 26.997745,27.140456 26.997745,27.140456 C 18.528582,18.264221 13.291696,25.230495 11.500037,31.436501 z"
             style="fill:#404040;"/>
          </a>
         </g>
        </svg>
</svg>
