<?xml version="1.0" encoding="UTF-8" standalone="no"?>
<!DOCTYPE svg PUBLIC "-//W3C//DTD SVG 1.1//EN"
 "http://www.w3.org/Graphics/SVG/1.1/DTD/svg11.dtd">
<!-- Generated by graphviz version 2.40.1 (20161225.0304)
 -->
<!-- Title: JS_NewInt64 Pages: 1 -->
<svg width="217pt" height="66pt"
 viewBox="0.00 0.00 217.00 66.00" xmlns="http://www.w3.org/2000/svg" xmlns:xlink="http://www.w3.org/1999/xlink">
<g id="graph0" class="graph" transform="scale(1 1) rotate(0) translate(4 62)">
<title>JS_NewInt64</title>
<!-- Node27716 -->
<g id="node1" class="node">
<title>Node27716</title>
<polygon fill="#bfbfbf" stroke="#000000" points="0,-19.5 0,-38.5 76,-38.5 76,-19.5 0,-19.5"/>
<text text-anchor="middle" x="38" y="-26.5" font-family="Helvetica,sans-Serif" font-size="10.00" fill="#000000">JS_NewInt64</text>
</g>
<!-- Node27717 -->
<g id="node2" class="node">
<title>Node27717</title>
<g id="a_node2"><a xlink:href="quickjs_8h.html#a9bf98b18de88b4199910a43e933eb97d" target="_top" xlink:title="__JS_NewFloat64">
<polygon fill="none" stroke="#000000" points="112,-38.5 112,-57.5 209,-57.5 209,-38.5 112,-38.5"/>
<text text-anchor="middle" x="160.5" y="-45.5" font-family="Helvetica,sans-Serif" font-size="10.00" fill="#000000">__JS_NewFloat64</text>
</a>
</g>
</g>
<!-- Node27716&#45;&gt;Node27717 -->
<g id="edge1" class="edge">
<title>Node27716&#45;&gt;Node27717</title>
<path fill="none" stroke="#191970" d="M76.0883,-34.9076C84.1653,-36.1603 92.8724,-37.5108 101.5192,-38.852"/>
<polygon fill="#191970" stroke="#191970" points="101.1824,-42.3415 111.6007,-40.4156 102.2553,-35.4242 101.1824,-42.3415"/>
</g>
<!-- Node27718 -->
<g id="node3" class="node">
<title>Node27718</title>
<g id="a_node3"><a xlink:href="quickjs_8h.html#a2050bc428da1c65ac7eb87c3fa3b0392" target="_top" xlink:title="JS_NewInt32">
<polygon fill="none" stroke="#000000" points="122.5,-.5 122.5,-19.5 198.5,-19.5 198.5,-.5 122.5,-.5"/>
<text text-anchor="middle" x="160.5" y="-7.5" font-family="Helvetica,sans-Serif" font-size="10.00" fill="#000000">JS_NewInt32</text>
</a>
</g>
</g>
<!-- Node27716&#45;&gt;Node27718 -->
<g id="edge2" class="edge">
<title>Node27716&#45;&gt;Node27718</title>
<path fill="none" stroke="#191970" d="M76.0883,-23.0924C87.6111,-21.3052 100.4166,-19.3191 112.4996,-17.445"/>
<polygon fill="#191970" stroke="#191970" points="113.0899,-20.8953 122.4353,-15.9039 112.017,-13.978 113.0899,-20.8953"/>
</g>
</g>
</svg>
