<?xml version="1.0" encoding="UTF-8" standalone="no"?>
<!DOCTYPE svg PUBLIC "-//W3C//DTD SVG 1.1//EN"
 "http://www.w3.org/Graphics/SVG/1.1/DTD/svg11.dtd">
<!-- Generated by graphviz version 2.40.1 (20161225.0304)
 -->
<!-- Title: js_string___GetSubstitution Pages: 1 -->
<!--zoomable 870 -->
<svg id="main" version="1.1" xmlns="http://www.w3.org/2000/svg" xmlns:xlink="http://www.w3.org/1999/xlink" xml:space="preserve" onload="init(evt)">
<style type="text/css"><![CDATA[
.edge:hover path { stroke: red; }
.edge:hover polygon { stroke: red; fill: red; }
]]></style>
<script type="text/javascript"><![CDATA[
var edges = document.getElementsByTagName('g');
if (edges && edges.length) {
  for (var i=0;i<edges.length;i++) {
    if (edges[i].id.substr(0,4)=='edge') {
      edges[i].setAttribute('class','edge');
    }
  }
}
]]></script>
        <defs>
                <circle id="rim" cx="0" cy="0" r="7"/>
                <circle id="rim2" cx="0" cy="0" r="3.5"/>
                <g id="zoomPlus">
                        <use xlink:href="#rim" fill="#404040">
                                <set attributeName="fill" to="#808080" begin="zoomplus.mouseover" end="zoomplus.mouseout"/>
                        </use>
                        <path d="M-4,0h8M0,-4v8" fill="none" stroke="white" stroke-width="1.5" pointer-events="none"/>
                </g>
                <g id="zoomMin">
                        <use xlink:href="#rim" fill="#404040">
                                <set attributeName="fill" to="#808080" begin="zoomminus.mouseover" end="zoomminus.mouseout"/>
                        </use>
                        <path d="M-4,0h8" fill="none" stroke="white" stroke-width="1.5" pointer-events="none"/>
                </g>
                <g id="dirArrow">
                        <path fill="none" stroke="white" stroke-width="1.5" d="M0,-3.0v7 M-2.5,-0.5L0,-3.0L2.5,-0.5"/>
                </g>
               <g id="resetDef">
                       <use xlink:href="#rim2" fill="#404040">
                               <set attributeName="fill" to="#808080" begin="reset.mouseover" end="reset.mouseout"/>
                       </use>
               </g>
        </defs>

<script type="text/javascript">
var viewWidth = 586;
var viewHeight = 870;
var sectionId = 'dynsection-1540';
</script>
<script xlink:href="svgpan.js"/>
<svg id="graph" class="graph">
<g id="viewport">
<title>js_string___GetSubstitution</title>
<!-- Node411929 -->
<g id="node1" class="node">
<title>Node411929</title>
<polygon fill="#bfbfbf" stroke="#000000" points="0,-304.5 0,-323.5 137,-323.5 137,-304.5 0,-304.5"/>
<text text-anchor="middle" x="68.5" y="-311.5" font-family="Helvetica,sans-Serif" font-size="10.00" fill="#000000">js_string___GetSubstitution</text>
</g>
<!-- Node411930 -->
<g id="node2" class="node">
<title>Node411930</title>
<g id="a_node2"><a xlink:href="quickjs_8c.html#a718e904644ebc55548a5bdbd44f3adb9" target="_top" xlink:title="js_get_length32">
<polygon fill="none" stroke="#000000" points="330,-842.5 330,-861.5 415,-861.5 415,-842.5 330,-842.5"/>
<text text-anchor="middle" x="372.5" y="-849.5" font-family="Helvetica,sans-Serif" font-size="10.00" fill="#000000">js_get_length32</text>
</a>
</g>
</g>
<!-- Node411929&#45;&gt;Node411930 -->
<g id="edge1" class="edge">
<title>Node411929&#45;&gt;Node411930</title>
<path fill="none" stroke="#191970" d="M69.837,-323.707C77.7936,-380.3693 120.355,-668.265 173,-738 212.858,-790.797 284.7918,-823.0289 330.5199,-839.1844"/>
<polygon fill="#191970" stroke="#191970" points="329.5449,-842.5501 340.1396,-842.4828 331.8154,-835.9285 329.5449,-842.5501"/>
</g>
<!-- Node411977 -->
<g id="node4" class="node">
<title>Node411977</title>
<g id="a_node4"><a xlink:href="quickjs_8h.html#ad80a83d73e9b7d872b88fbf2943aebe9" target="_top" xlink:title="JS_IsException">
<polygon fill="none" stroke="#000000" points="478,-480.5 478,-499.5 564,-499.5 564,-480.5 478,-480.5"/>
<text text-anchor="middle" x="521" y="-487.5" font-family="Helvetica,sans-Serif" font-size="10.00" fill="#000000">JS_IsException</text>
</a>
</g>
</g>
<!-- Node411929&#45;&gt;Node411977 -->
<g id="edge18" class="edge">
<title>Node411929&#45;&gt;Node411977</title>
<path fill="none" stroke="#191970" d="M75.3765,-323.6853C90.5223,-344.2616 128.9388,-392.4522 173,-417 267.7031,-469.7619 396.2379,-484.4881 467.6225,-488.5339"/>
<polygon fill="#191970" stroke="#191970" points="467.5617,-492.0354 477.7291,-489.0566 467.9233,-485.0447 467.5617,-492.0354"/>
</g>
<!-- Node412361 -->
<g id="node6" class="node">
<title>Node412361</title>
<g id="a_node6"><a xlink:href="quickjs_8c.html#a7bb763b31e1c40a04aa0c1d5db0f1191" target="_top" xlink:title="JS_GetPropertyInt64">
<polygon fill="none" stroke="#000000" points="173,-709.5 173,-728.5 281,-728.5 281,-709.5 173,-709.5"/>
<text text-anchor="middle" x="227" y="-716.5" font-family="Helvetica,sans-Serif" font-size="10.00" fill="#000000">JS_GetPropertyInt64</text>
</a>
</g>
</g>
<!-- Node411929&#45;&gt;Node412361 -->
<g id="edge5" class="edge">
<title>Node411929&#45;&gt;Node412361</title>
<path fill="none" stroke="#191970" d="M70.0335,-323.8331C78.5807,-377.5677 121.8009,-635.4496 173,-695 176.177,-698.6952 180.0341,-701.8454 184.2095,-704.5256"/>
<polygon fill="#191970" stroke="#191970" points="182.658,-707.6662 193.1115,-709.3911 186.0153,-701.5238 182.658,-707.6662"/>
</g>
<!-- Node412051 -->
<g id="node8" class="node">
<title>Node412051</title>
<g id="a_node8"><a xlink:href="quickjs_8c.html#a90d6e607f6917d817c1e997bd2e6ed07" target="_top" xlink:title="JS_GetPropertyValue">
<polygon fill="none" stroke="#ff0000" points="317,-690.5 317,-709.5 428,-709.5 428,-690.5 317,-690.5"/>
<text text-anchor="middle" x="372.5" y="-697.5" font-family="Helvetica,sans-Serif" font-size="10.00" fill="#000000">JS_GetPropertyValue</text>
</a>
</g>
</g>
<!-- Node411929&#45;&gt;Node412051 -->
<g id="edge17" class="edge">
<title>Node411929&#45;&gt;Node412051</title>
<path fill="none" stroke="#191970" d="M70.5991,-323.6022C78.6952,-358.984 110.5976,-484.3023 173,-567 222.1677,-632.1586 245.3545,-641.8843 317,-681 320.7711,-683.0589 324.8065,-684.9552 328.9168,-686.6865"/>
<polygon fill="#191970" stroke="#191970" points="327.9649,-690.0714 338.5538,-690.426 330.4972,-683.5455 327.9649,-690.0714"/>
</g>
<!-- Node412291 -->
<g id="node13" class="node">
<title>Node412291</title>
<g id="a_node13"><a xlink:href="quickjs_8h.html#aa53b9197dc6d5770e3a080c1e335f7cb" target="_top" xlink:title="JS_IsString">
<polygon fill="none" stroke="#000000" points="193,-304.5 193,-323.5 261,-323.5 261,-304.5 193,-304.5"/>
<text text-anchor="middle" x="227" y="-311.5" font-family="Helvetica,sans-Serif" font-size="10.00" fill="#000000">JS_IsString</text>
</a>
</g>
</g>
<!-- Node411929&#45;&gt;Node412291 -->
<g id="edge19" class="edge">
<title>Node411929&#45;&gt;Node412291</title>
<path fill="none" stroke="#191970" d="M137.0986,-314C152.4328,-314 168.3089,-314 182.3739,-314"/>
<polygon fill="#191970" stroke="#191970" points="182.7375,-317.5001 192.7375,-314 182.7375,-310.5001 182.7375,-317.5001"/>
</g>
<!-- Node412131 -->
<g id="node14" class="node">
<title>Node412131</title>
<g id="a_node14"><a xlink:href="quickjs_8h.html#a4e407128a9605afb77523e49e9a627fd" target="_top" xlink:title="JS_IsUndefined">
<polygon fill="none" stroke="#000000" points="184,-266.5 184,-285.5 270,-285.5 270,-266.5 184,-266.5"/>
<text text-anchor="middle" x="227" y="-273.5" font-family="Helvetica,sans-Serif" font-size="10.00" fill="#000000">JS_IsUndefined</text>
</a>
</g>
</g>
<!-- Node411929&#45;&gt;Node412131 -->
<g id="edge20" class="edge">
<title>Node411929&#45;&gt;Node412131</title>
<path fill="none" stroke="#191970" d="M108.4962,-304.411C129.412,-299.3965 155.2081,-293.2119 177.3864,-287.8947"/>
<polygon fill="#191970" stroke="#191970" points="178.383,-291.2551 187.2914,-285.5201 176.7509,-284.448 178.383,-291.2551"/>
</g>
<!-- Node412363 -->
<g id="node15" class="node">
<title>Node412363</title>
<g id="a_node15"><a xlink:href="quickjs_8c.html#a011157b8ff30c8418be989eadf509c92" target="_top" xlink:title="js_sub_string">
<polygon fill="none" stroke="#000000" points="190,-538.5 190,-557.5 264,-557.5 264,-538.5 190,-538.5"/>
<text text-anchor="middle" x="227" y="-545.5" font-family="Helvetica,sans-Serif" font-size="10.00" fill="#000000">js_sub_string</text>
</a>
</g>
</g>
<!-- Node411929&#45;&gt;Node412363 -->
<g id="edge21" class="edge">
<title>Node411929&#45;&gt;Node412363</title>
<path fill="none" stroke="#191970" d="M73.6202,-323.6851C87.9299,-350.4516 130.1099,-427.3293 173,-486 184.6356,-501.9167 199.4354,-518.7068 210.5976,-530.7942"/>
<polygon fill="#191970" stroke="#191970" points="208.2725,-533.4319 217.6606,-538.3426 213.3839,-528.6493 208.2725,-533.4319"/>
</g>
<!-- Node412134 -->
<g id="node19" class="node">
<title>Node412134</title>
<g id="a_node19"><a xlink:href="quickjs_8h.html#aa032ee323127468119b3dd2bb1452680" target="_top" xlink:title="JS_ToUint32">
<polygon fill="none" stroke="#ff0000" points="190,-228.5 190,-247.5 264,-247.5 264,-228.5 190,-228.5"/>
<text text-anchor="middle" x="227" y="-235.5" font-family="Helvetica,sans-Serif" font-size="10.00" fill="#000000">JS_ToUint32</text>
</a>
</g>
</g>
<!-- Node411929&#45;&gt;Node412134 -->
<g id="edge28" class="edge">
<title>Node411929&#45;&gt;Node412134</title>
<path fill="none" stroke="#191970" d="M84.0316,-304.4954C104.098,-292.4591 140.3385,-271.5401 173,-257 177.7028,-254.9064 182.7132,-252.8822 187.7142,-250.985"/>
<polygon fill="#191970" stroke="#191970" points="189.0434,-254.2258 197.2365,-247.5083 186.6426,-247.6503 189.0434,-254.2258"/>
</g>
<!-- Node412256 -->
<g id="node20" class="node">
<title>Node412256</title>
<g id="a_node20"><a xlink:href="quickjs_8c.html#a6887ef15fd884e05ddf04ec291b5f3d2" target="_top" xlink:title="string_buffer_concat">
<polygon fill="none" stroke="#ff0000" points="468.5,-328.5 468.5,-347.5 573.5,-347.5 573.5,-328.5 468.5,-328.5"/>
<text text-anchor="middle" x="521" y="-335.5" font-family="Helvetica,sans-Serif" font-size="10.00" fill="#000000">string_buffer_concat</text>
</a>
</g>
</g>
<!-- Node411929&#45;&gt;Node412256 -->
<g id="edge29" class="edge">
<title>Node411929&#45;&gt;Node412256</title>
<path fill="none" stroke="#191970" d="M111.7453,-323.5215C130.4776,-327.2143 152.72,-331.0244 173,-333 272.2451,-342.6681 388.1511,-341.9491 457.9947,-340.2172"/>
<polygon fill="#191970" stroke="#191970" points="458.4739,-343.7059 468.3783,-339.9437 458.2896,-336.7083 458.4739,-343.7059"/>
</g>
<!-- Node412364 -->
<g id="node21" class="node">
<title>Node412364</title>
<g id="a_node21"><a xlink:href="quickjs_8c.html#af3ad59b9801a4ec68f41a50ab5762ccb" target="_top" xlink:title="string_buffer_concat\l_value">
<polygon fill="none" stroke="#000000" points="320,-364 320,-394 425,-394 425,-364 320,-364"/>
<text text-anchor="start" x="328" y="-382" font-family="Helvetica,sans-Serif" font-size="10.00" fill="#000000">string_buffer_concat</text>
<text text-anchor="middle" x="372.5" y="-371" font-family="Helvetica,sans-Serif" font-size="10.00" fill="#000000">_value</text>
</a>
</g>
</g>
<!-- Node411929&#45;&gt;Node412364 -->
<g id="edge30" class="edge">
<title>Node411929&#45;&gt;Node412364</title>
<path fill="none" stroke="#191970" d="M82.9816,-323.5502C102.4999,-335.8574 138.7604,-356.7667 173,-366 217.7009,-378.0544 269.9818,-381.0763 309.8076,-381.2058"/>
<polygon fill="#191970" stroke="#191970" points="309.9214,-384.7056 319.9117,-381.1779 309.902,-377.7056 309.9214,-384.7056"/>
</g>
<!-- Node412365 -->
<g id="node24" class="node">
<title>Node412365</title>
<g id="a_node24"><a xlink:href="quickjs_8c.html#ac91bb65d1f12eadbcc97cecf2860350b" target="_top" xlink:title="string_buffer_concat\l_value_free">
<polygon fill="none" stroke="#ff0000" points="320,-413 320,-443 425,-443 425,-413 320,-413"/>
<text text-anchor="start" x="328" y="-431" font-family="Helvetica,sans-Serif" font-size="10.00" fill="#000000">string_buffer_concat</text>
<text text-anchor="middle" x="372.5" y="-420" font-family="Helvetica,sans-Serif" font-size="10.00" fill="#000000">_value_free</text>
</a>
</g>
</g>
<!-- Node411929&#45;&gt;Node412365 -->
<g id="edge36" class="edge">
<title>Node411929&#45;&gt;Node412365</title>
<path fill="none" stroke="#191970" d="M78.8626,-323.6431C96.6617,-339.6434 134.8251,-371.543 173,-388 216.6607,-406.8218 269.5574,-416.9091 309.9096,-422.2435"/>
<polygon fill="#191970" stroke="#191970" points="309.5262,-425.7228 319.8851,-423.4998 310.4008,-418.7776 309.5262,-425.7228"/>
</g>
<!-- Node412008 -->
<g id="node25" class="node">
<title>Node412008</title>
<g id="a_node25"><a xlink:href="quickjs_8c.html#accfc3d1dcaa88c88402cb245ccaf4fdb" target="_top" xlink:title="string_buffer_end">
<polygon fill="none" stroke="#ff0000" points="181,-190.5 181,-209.5 273,-209.5 273,-190.5 181,-190.5"/>
<text text-anchor="middle" x="227" y="-197.5" font-family="Helvetica,sans-Serif" font-size="10.00" fill="#000000">string_buffer_end</text>
</a>
</g>
</g>
<!-- Node411929&#45;&gt;Node412008 -->
<g id="edge41" class="edge">
<title>Node411929&#45;&gt;Node412008</title>
<path fill="none" stroke="#191970" d="M76.732,-304.2719C93.2034,-285.364 132.1549,-243.3767 173,-219 176.407,-216.9667 180.0646,-215.1055 183.8117,-213.4122"/>
<polygon fill="#191970" stroke="#191970" points="185.2999,-216.5847 193.2191,-209.5464 182.6393,-210.11 185.2999,-216.5847"/>
</g>
<!-- Node412009 -->
<g id="node26" class="node">
<title>Node412009</title>
<g id="a_node26"><a xlink:href="quickjs_8c.html#a266b4993a59d9e34537386e62b9f3d4f" target="_top" xlink:title="string_buffer_free">
<polygon fill="none" stroke="#ff0000" points="181,-152.5 181,-171.5 273,-171.5 273,-152.5 181,-152.5"/>
<text text-anchor="middle" x="227" y="-159.5" font-family="Helvetica,sans-Serif" font-size="10.00" fill="#000000">string_buffer_free</text>
</a>
</g>
</g>
<!-- Node411929&#45;&gt;Node412009 -->
<g id="edge42" class="edge">
<title>Node411929&#45;&gt;Node412009</title>
<path fill="none" stroke="#191970" d="M73.4629,-304.4413C86.4902,-280.2534 124.061,-216.0545 173,-181 175.6662,-179.0902 178.5424,-177.357 181.5301,-175.7867"/>
<polygon fill="#191970" stroke="#191970" points="183.1099,-178.9125 190.7291,-171.5505 180.1819,-172.5543 183.1099,-178.9125"/>
</g>
<!-- Node412010 -->
<g id="node27" class="node">
<title>Node412010</title>
<g id="a_node27"><a xlink:href="quickjs_8c.html#a9c11961b0adafedd064b294612d0c2f3" target="_top" xlink:title="string_buffer_init">
<polygon fill="none" stroke="#ff0000" points="182.5,-114.5 182.5,-133.5 271.5,-133.5 271.5,-114.5 182.5,-114.5"/>
<text text-anchor="middle" x="227" y="-121.5" font-family="Helvetica,sans-Serif" font-size="10.00" fill="#000000">string_buffer_init</text>
</a>
</g>
</g>
<!-- Node411929&#45;&gt;Node412010 -->
<g id="edge43" class="edge">
<title>Node411929&#45;&gt;Node412010</title>
<path fill="none" stroke="#191970" d="M71.7615,-304.2868C81.9458,-275.4006 115.9305,-189.1769 173,-143 175.2454,-141.1832 177.6769,-139.534 180.2233,-138.0378"/>
<polygon fill="#191970" stroke="#191970" points="181.8552,-141.1349 189.2205,-133.519 178.7134,-134.8796 181.8552,-141.1349"/>
</g>
<!-- Node412018 -->
<g id="node28" class="node">
<title>Node412018</title>
<g id="a_node28"><a xlink:href="quickjs_8c.html#a874fcee73f61cc997ec1d10cc6711554" target="_top" xlink:title="string_buffer_putc8">
<polygon fill="none" stroke="#ff0000" points="177,-76.5 177,-95.5 277,-95.5 277,-76.5 177,-76.5"/>
<text text-anchor="middle" x="227" y="-83.5" font-family="Helvetica,sans-Serif" font-size="10.00" fill="#000000">string_buffer_putc8</text>
</a>
</g>
</g>
<!-- Node411929&#45;&gt;Node412018 -->
<g id="edge44" class="edge">
<title>Node411929&#45;&gt;Node412018</title>
<path fill="none" stroke="#191970" d="M70.649,-304.0739C78.339,-270.8947 107.5849,-162.6909 173,-105 174.924,-103.3032 177.009,-101.7554 179.203,-100.3438"/>
<polygon fill="#191970" stroke="#191970" points="180.9556,-103.3752 188.0954,-95.5474 177.6325,-97.2142 180.9556,-103.3752"/>
</g>
<!-- Node412366 -->
<g id="node29" class="node">
<title>Node412366</title>
<g id="a_node29"><a xlink:href="quickjs_8c.html#a80398f847e2e83c2613b638719bf6fda" target="_top" xlink:title="string_get">
<polygon fill="none" stroke="#000000" points="197.5,-38.5 197.5,-57.5 256.5,-57.5 256.5,-38.5 197.5,-38.5"/>
<text text-anchor="middle" x="227" y="-45.5" font-family="Helvetica,sans-Serif" font-size="10.00" fill="#000000">string_get</text>
</a>
</g>
</g>
<!-- Node411929&#45;&gt;Node412366 -->
<g id="edge45" class="edge">
<title>Node411929&#45;&gt;Node412366</title>
<path fill="none" stroke="#191970" d="M69.7615,-304.3891C75.0464,-267.9486 98.6987,-136.8376 173,-67 177.3144,-62.9448 182.5455,-59.748 188.0327,-57.2297"/>
<polygon fill="#191970" stroke="#191970" points="189.3344,-60.4789 197.3928,-53.6005 186.8038,-53.9524 189.3344,-60.4789"/>
</g>
<!-- Node412367 -->
<g id="node30" class="node">
<title>Node412367</title>
<g id="a_node30"><a xlink:href="quickjs_8c.html#a646c73cb7ff4b6af11529c2524d90a43" target="_top" xlink:title="string_indexof_char">
<polygon fill="none" stroke="#000000" points="176.5,-.5 176.5,-19.5 277.5,-19.5 277.5,-.5 176.5,-.5"/>
<text text-anchor="middle" x="227" y="-7.5" font-family="Helvetica,sans-Serif" font-size="10.00" fill="#000000">string_indexof_char</text>
</a>
</g>
</g>
<!-- Node411929&#45;&gt;Node412367 -->
<g id="edge46" class="edge">
<title>Node411929&#45;&gt;Node412367</title>
<path fill="none" stroke="#191970" d="M69.1555,-304.3345C72.3751,-264.4608 89.9187,-110.9983 173,-29 174.6092,-27.4118 176.3589,-25.9558 178.2113,-24.621"/>
<polygon fill="#191970" stroke="#191970" points="180.039,-27.6066 186.8745,-19.5117 176.4829,-21.5771 180.039,-27.6066"/>
</g>
<!-- Node411931 -->
<g id="node3" class="node">
<title>Node411931</title>
<g id="a_node3"><a xlink:href="quickjs_8h.html#a89b7c8686c7eee70b86be722ee4730ad" target="_top" xlink:title="JS_GetProperty">
<polygon fill="none" stroke="#ff0000" points="478,-804.5 478,-823.5 564,-823.5 564,-804.5 478,-804.5"/>
<text text-anchor="middle" x="521" y="-811.5" font-family="Helvetica,sans-Serif" font-size="10.00" fill="#000000">JS_GetProperty</text>
</a>
</g>
</g>
<!-- Node411930&#45;&gt;Node411931 -->
<g id="edge2" class="edge">
<title>Node411930&#45;&gt;Node411931</title>
<path fill="none" stroke="#191970" d="M409.9728,-842.411C429.3925,-837.4417 453.3025,-831.3233 473.9542,-826.0387"/>
<polygon fill="#191970" stroke="#191970" points="474.9765,-829.3899 483.7966,-823.5201 473.2411,-822.6084 474.9765,-829.3899"/>
</g>
<!-- Node411930&#45;&gt;Node411977 -->
<g id="edge3" class="edge">
<title>Node411930&#45;&gt;Node411977</title>
<path fill="none" stroke="#191970" d="M377.4025,-842.2486C388.0958,-820.6051 413.701,-766.6924 428,-719 452.6829,-636.6737 416.971,-600.9384 464,-529 470.5303,-519.0109 480.5989,-510.8939 490.4673,-504.7033"/>
<polygon fill="#191970" stroke="#191970" points="492.4591,-507.5947 499.3666,-499.5612 488.957,-501.5337 492.4591,-507.5947"/>
</g>
<!-- Node412353 -->
<g id="node5" class="node">
<title>Node412353</title>
<g id="a_node5"><a xlink:href="quickjs_8c.html#abb4af1ff2252e70ad0e5a9c25550f548" target="_top" xlink:title="JS_ToUint32Free">
<polygon fill="none" stroke="#ff0000" points="474.5,-842.5 474.5,-861.5 567.5,-861.5 567.5,-842.5 474.5,-842.5"/>
<text text-anchor="middle" x="521" y="-849.5" font-family="Helvetica,sans-Serif" font-size="10.00" fill="#000000">JS_ToUint32Free</text>
</a>
</g>
</g>
<!-- Node411930&#45;&gt;Node412353 -->
<g id="edge4" class="edge">
<title>Node411930&#45;&gt;Node412353</title>
<path fill="none" stroke="#191970" d="M415.0541,-852C430.2402,-852 447.6039,-852 463.8192,-852"/>
<polygon fill="#191970" stroke="#191970" points="464.2748,-855.5001 474.2748,-852 464.2748,-848.5001 464.2748,-855.5001"/>
</g>
<!-- Node412361&#45;&gt;Node411931 -->
<g id="edge7" class="edge">
<title>Node412361&#45;&gt;Node411931</title>
<path fill="none" stroke="#191970" d="M250.1103,-728.6112C268.173,-735.9709 293.9905,-746.158 317,-754 370.9099,-772.3735 433.9328,-790.3927 475.5052,-801.8116"/>
<polygon fill="#191970" stroke="#191970" points="474.7648,-805.2376 485.3338,-804.4981 476.6105,-798.4853 474.7648,-805.2376"/>
</g>
<!-- Node411963 -->
<g id="node7" class="node">
<title>Node411963</title>
<g id="a_node7"><a xlink:href="quickjs_8c.html#ab7fc45a99935a1c0ba50b0216d9401a9" target="_top" xlink:title="JS_FreeAtom">
<polygon fill="none" stroke="#ff0000" points="482.5,-747.5 482.5,-766.5 559.5,-766.5 559.5,-747.5 482.5,-747.5"/>
<text text-anchor="middle" x="521" y="-754.5" font-family="Helvetica,sans-Serif" font-size="10.00" fill="#000000">JS_FreeAtom</text>
</a>
</g>
</g>
<!-- Node412361&#45;&gt;Node411963 -->
<g id="edge6" class="edge">
<title>Node412361&#45;&gt;Node411963</title>
<path fill="none" stroke="#191970" d="M281.1839,-728.507C292.9727,-730.4421 305.3906,-732.3793 317,-734 369.8792,-741.3823 430.7268,-748.0006 472.1097,-752.2211"/>
<polygon fill="#191970" stroke="#191970" points="471.8931,-755.717 482.1947,-753.2415 472.5978,-748.7525 471.8931,-755.717"/>
</g>
<!-- Node412361&#45;&gt;Node412051 -->
<g id="edge8" class="edge">
<title>Node412361&#45;&gt;Node412051</title>
<path fill="none" stroke="#191970" d="M281.1788,-711.9251C289.5412,-710.8331 298.2545,-709.6953 306.8351,-708.5748"/>
<polygon fill="#191970" stroke="#191970" points="307.3553,-712.0367 316.8179,-707.2712 306.4489,-705.0956 307.3553,-712.0367"/>
</g>
<!-- Node411978 -->
<g id="node11" class="node">
<title>Node411978</title>
<g id="a_node11"><a xlink:href="quickjs_8h.html#a2050bc428da1c65ac7eb87c3fa3b0392" target="_top" xlink:title="JS_NewInt32">
<polygon fill="none" stroke="#000000" points="483,-699.5 483,-718.5 559,-718.5 559,-699.5 483,-699.5"/>
<text text-anchor="middle" x="521" y="-706.5" font-family="Helvetica,sans-Serif" font-size="10.00" fill="#000000">JS_NewInt32</text>
</a>
</g>
</g>
<!-- Node412361&#45;&gt;Node411978 -->
<g id="edge16" class="edge">
<title>Node412361&#45;&gt;Node411978</title>
<path fill="none" stroke="#191970" d="M281.2141,-720.5698C321.6901,-721.3604 378.3447,-721.662 428,-719 442.4838,-718.2235 458.1821,-716.7715 472.4842,-715.2099"/>
<polygon fill="#191970" stroke="#191970" points="473.0721,-718.6658 482.6142,-714.0615 472.2836,-711.7103 473.0721,-718.6658"/>
</g>
<!-- Node412362 -->
<g id="node12" class="node">
<title>Node412362</title>
<g id="a_node12"><a xlink:href="quickjs_8c.html#aa641af3a921335927dab07dc83285917" target="_top" xlink:title="JS_NewAtomInt64">
<polygon fill="none" stroke="#ff0000" points="323,-652.5 323,-671.5 422,-671.5 422,-652.5 323,-652.5"/>
<text text-anchor="middle" x="372.5" y="-659.5" font-family="Helvetica,sans-Serif" font-size="10.00" fill="#000000">JS_NewAtomInt64</text>
</a>
</g>
</g>
<!-- Node412361&#45;&gt;Node412362 -->
<g id="edge14" class="edge">
<title>Node412361&#45;&gt;Node412362</title>
<path fill="none" stroke="#191970" d="M248.6515,-709.3575C266.7755,-701.4072 293.3905,-690.013 317,-681 322.2925,-678.9796 327.9054,-676.9401 333.4495,-674.9853"/>
<polygon fill="#191970" stroke="#191970" points="334.9688,-678.163 343.2706,-671.5804 332.6759,-671.5492 334.9688,-678.163"/>
</g>
<!-- Node412051&#45;&gt;Node411931 -->
<g id="edge12" class="edge">
<title>Node412051&#45;&gt;Node411931</title>
<path fill="none" stroke="#191970" d="M383.1863,-709.5057C399.9636,-724.2832 433.7013,-753.4148 464,-776 474.6202,-783.9165 486.7884,-792.1372 497.1474,-798.8991"/>
<polygon fill="#191970" stroke="#191970" points="495.401,-801.9376 505.7006,-804.4214 499.1979,-796.0568 495.401,-801.9376"/>
</g>
<!-- Node412051&#45;&gt;Node411963 -->
<g id="edge10" class="edge">
<title>Node412051&#45;&gt;Node411963</title>
<path fill="none" stroke="#191970" d="M397.3556,-709.5405C421.7696,-718.9116 459.223,-733.2876 486.5123,-743.7623"/>
<polygon fill="#191970" stroke="#191970" points="485.4732,-747.1124 496.0633,-747.4284 487.9817,-740.5773 485.4732,-747.1124"/>
</g>
<!-- Node411985 -->
<g id="node9" class="node">
<title>Node411985</title>
<g id="a_node9"><a xlink:href="quickjs_8h.html#a775522f2d084fc8fa0fcb33f390006b4" target="_top" xlink:title="JS_DupValue">
<polygon fill="none" stroke="#000000" points="482.5,-637.5 482.5,-656.5 559.5,-656.5 559.5,-637.5 482.5,-637.5"/>
<text text-anchor="middle" x="521" y="-644.5" font-family="Helvetica,sans-Serif" font-size="10.00" fill="#000000">JS_DupValue</text>
</a>
</g>
</g>
<!-- Node412051&#45;&gt;Node411985 -->
<g id="edge9" class="edge">
<title>Node412051&#45;&gt;Node411985</title>
<path fill="none" stroke="#191970" d="M400.7734,-690.4468C409.5152,-687.4592 419.1672,-684.1261 428,-681 447.1015,-674.2395 468.3283,-666.4968 485.674,-660.1095"/>
<polygon fill="#191970" stroke="#191970" points="487.2231,-663.2686 495.3931,-656.5231 484.7997,-656.7015 487.2231,-663.2686"/>
</g>
<!-- Node411941 -->
<g id="node10" class="node">
<title>Node411941</title>
<g id="a_node10"><a xlink:href="quickjs_8h.html#afaa20c47565bc704c6c85f3d77254e7d" target="_top" xlink:title="JS_FreeValue">
<polygon fill="none" stroke="#ff0000" points="482,-442.5 482,-461.5 560,-461.5 560,-442.5 482,-442.5"/>
<text text-anchor="middle" x="521" y="-449.5" font-family="Helvetica,sans-Serif" font-size="10.00" fill="#000000">JS_FreeValue</text>
</a>
</g>
</g>
<!-- Node412051&#45;&gt;Node411941 -->
<g id="edge11" class="edge">
<title>Node412051&#45;&gt;Node411941</title>
<path fill="none" stroke="#191970" d="M416.0625,-690.4227C420.5697,-687.9644 424.6986,-684.8771 428,-681 489.3921,-608.902 402.3169,-542.8492 464,-471 466.5268,-468.0568 469.5223,-465.5677 472.7969,-463.463"/>
<polygon fill="#191970" stroke="#191970" points="474.6919,-466.4243 481.9871,-458.7412 471.4929,-460.198 474.6919,-466.4243"/>
</g>
<!-- Node412051&#45;&gt;Node411978 -->
<g id="edge13" class="edge">
<title>Node412051&#45;&gt;Node411978</title>
<path fill="none" stroke="#191970" d="M428.2184,-703.3769C442.788,-704.2599 458.3747,-705.2045 472.5332,-706.0626"/>
<polygon fill="#191970" stroke="#191970" points="472.3619,-709.5586 482.5554,-706.67 472.7855,-702.5714 472.3619,-709.5586"/>
</g>
<!-- Node412362&#45;&gt;Node411977 -->
<g id="edge15" class="edge">
<title>Node412362&#45;&gt;Node411977</title>
<path fill="none" stroke="#191970" d="M383.844,-652.4139C395.9332,-641.7632 415.0753,-623.6023 428,-605 449.326,-574.3057 439.7349,-557.4279 464,-529 472.1281,-519.4775 483.1081,-511.2349 493.2615,-504.8124"/>
<polygon fill="#191970" stroke="#191970" points="495.0988,-507.7917 501.8788,-499.6504 491.5016,-501.7867 495.0988,-507.7917"/>
</g>
<!-- Node412363&#45;&gt;Node411985 -->
<g id="edge23" class="edge">
<title>Node412363&#45;&gt;Node411985</title>
<path fill="none" stroke="#191970" d="M239.0313,-557.6492C255.5965,-570.4405 286.8169,-592.811 317,-605 367.7986,-625.5142 429.9222,-636.4576 472.1732,-641.9734"/>
<polygon fill="#191970" stroke="#191970" points="471.844,-645.4594 482.2015,-643.2294 472.714,-638.5137 471.844,-645.4594"/>
</g>
<!-- Node411999 -->
<g id="node16" class="node">
<title>Node411999</title>
<g id="a_node16"><a xlink:href="quickjs_8c.html#ad303a9bc56766627b5fca41574933930" target="_top" xlink:title="js_alloc_string">
<polygon fill="none" stroke="#ff0000" points="481.5,-538.5 481.5,-557.5 560.5,-557.5 560.5,-538.5 481.5,-538.5"/>
<text text-anchor="middle" x="521" y="-545.5" font-family="Helvetica,sans-Serif" font-size="10.00" fill="#000000">js_alloc_string</text>
</a>
</g>
</g>
<!-- Node412363&#45;&gt;Node411999 -->
<g id="edge22" class="edge">
<title>Node412363&#45;&gt;Node411999</title>
<path fill="none" stroke="#191970" d="M264.2353,-548C316.7098,-548 412.5395,-548 471.1224,-548"/>
<polygon fill="#191970" stroke="#191970" points="471.2544,-551.5001 481.2543,-548 471.2543,-544.5001 471.2544,-551.5001"/>
</g>
<!-- Node412360 -->
<g id="node17" class="node">
<title>Node412360</title>
<g id="a_node17"><a xlink:href="quickjs_8c.html#a960b48be1175b0982ecc03505711fc56" target="_top" xlink:title="js_new_string16">
<polygon fill="none" stroke="#000000" points="329,-500.5 329,-519.5 416,-519.5 416,-500.5 329,-500.5"/>
<text text-anchor="middle" x="372.5" y="-507.5" font-family="Helvetica,sans-Serif" font-size="10.00" fill="#000000">js_new_string16</text>
</a>
</g>
</g>
<!-- Node412363&#45;&gt;Node412360 -->
<g id="edge24" class="edge">
<title>Node412363&#45;&gt;Node412360</title>
<path fill="none" stroke="#191970" d="M263.7158,-538.411C282.6566,-533.4642 305.9572,-527.3789 326.1285,-522.1108"/>
<polygon fill="#191970" stroke="#191970" points="327.2572,-525.4335 336.0482,-519.5201 325.4883,-518.6606 327.2572,-525.4335"/>
</g>
<!-- Node412007 -->
<g id="node18" class="node">
<title>Node412007</title>
<g id="a_node18"><a xlink:href="quickjs_8c.html#aa923510185fe24e3083baf7405b09f51" target="_top" xlink:title="js_new_string8">
<polygon fill="none" stroke="#ff0000" points="331.5,-576.5 331.5,-595.5 413.5,-595.5 413.5,-576.5 331.5,-576.5"/>
<text text-anchor="middle" x="372.5" y="-583.5" font-family="Helvetica,sans-Serif" font-size="10.00" fill="#000000">js_new_string8</text>
</a>
</g>
</g>
<!-- Node412363&#45;&gt;Node412007 -->
<g id="edge26" class="edge">
<title>Node412363&#45;&gt;Node412007</title>
<path fill="none" stroke="#191970" d="M263.7158,-557.589C282.6566,-562.5358 305.9572,-568.6211 326.1285,-573.8892"/>
<polygon fill="#191970" stroke="#191970" points="325.4883,-577.3394 336.0482,-576.4799 327.2572,-570.5665 325.4883,-577.3394"/>
</g>
<!-- Node412360&#45;&gt;Node411999 -->
<g id="edge25" class="edge">
<title>Node412360&#45;&gt;Node411999</title>
<path fill="none" stroke="#191970" d="M409.9728,-519.589C429.3925,-524.5583 453.3025,-530.6767 473.9542,-535.9613"/>
<polygon fill="#191970" stroke="#191970" points="473.2411,-539.3916 483.7966,-538.4799 474.9765,-532.6101 473.2411,-539.3916"/>
</g>
<!-- Node412007&#45;&gt;Node411999 -->
<g id="edge27" class="edge">
<title>Node412007&#45;&gt;Node411999</title>
<path fill="none" stroke="#191970" d="M409.9728,-576.411C429.3925,-571.4417 453.3025,-565.3233 473.9542,-560.0387"/>
<polygon fill="#191970" stroke="#191970" points="474.9765,-563.3899 483.7966,-557.5201 473.2411,-556.6084 474.9765,-563.3899"/>
</g>
<!-- Node412364&#45;&gt;Node411977 -->
<g id="edge32" class="edge">
<title>Node412364&#45;&gt;Node411977</title>
<path fill="none" stroke="#191970" d="M415.5494,-394.0119C420.0354,-396.5987 424.2995,-399.58 428,-403 453.1135,-426.2098 437.9076,-448.8964 464,-471 465.9848,-472.6814 468.1238,-474.2155 470.3681,-475.6151"/>
<polygon fill="#191970" stroke="#191970" points="468.9614,-478.8294 479.4432,-480.3732 472.212,-472.6298 468.9614,-478.8294"/>
</g>
<!-- Node412364&#45;&gt;Node411941 -->
<g id="edge31" class="edge">
<title>Node412364&#45;&gt;Node411941</title>
<path fill="none" stroke="#191970" d="M411.4372,-394.1376C417.1288,-396.8336 422.8138,-399.81 428,-403 445.7401,-413.9118 445.8052,-422.8645 464,-433 467.7419,-435.0844 471.7499,-436.989 475.8423,-438.7178"/>
<polygon fill="#191970" stroke="#191970" points="474.8699,-442.0942 485.4593,-442.4346 477.3934,-435.5649 474.8699,-442.0942"/>
</g>
<!-- Node412364&#45;&gt;Node412256 -->
<g id="edge34" class="edge">
<title>Node412364&#45;&gt;Node412256</title>
<path fill="none" stroke="#191970" d="M425.2737,-364.4295C442.1187,-359.7787 460.5774,-354.6823 476.7523,-350.2165"/>
<polygon fill="#191970" stroke="#191970" points="477.7857,-353.5622 486.4936,-347.527 475.9227,-346.8147 477.7857,-353.5622"/>
</g>
<!-- Node412001 -->
<g id="node22" class="node">
<title>Node412001</title>
<g id="a_node22"><a xlink:href="quickjs_8c.html#a7bcb8e1a20cbc8374a5f9ba4a2088cec" target="_top" xlink:title="JS_ToString">
<polygon fill="none" stroke="#ff0000" points="485.5,-366.5 485.5,-385.5 556.5,-385.5 556.5,-366.5 485.5,-366.5"/>
<text text-anchor="middle" x="521" y="-373.5" font-family="Helvetica,sans-Serif" font-size="10.00" fill="#000000">JS_ToString</text>
</a>
</g>
</g>
<!-- Node412364&#45;&gt;Node412001 -->
<g id="edge33" class="edge">
<title>Node412364&#45;&gt;Node412001</title>
<path fill="none" stroke="#191970" d="M425.2737,-377.9339C441.5495,-377.6051 459.3317,-377.2458 475.1049,-376.9272"/>
<polygon fill="#191970" stroke="#191970" points="475.2168,-380.4257 485.144,-376.7244 475.0753,-373.4272 475.2168,-380.4257"/>
</g>
<!-- Node412016 -->
<g id="node23" class="node">
<title>Node412016</title>
<g id="a_node23"><a xlink:href="quickjs_8c.html#a85744d3012cd123d2c7d27ef7a4e7ddf" target="_top" xlink:title="string_buffer_set_error">
<polygon fill="none" stroke="#ff0000" points="464,-404.5 464,-423.5 578,-423.5 578,-404.5 464,-404.5"/>
<text text-anchor="middle" x="521" y="-411.5" font-family="Helvetica,sans-Serif" font-size="10.00" fill="#000000">string_buffer_set_error</text>
</a>
</g>
</g>
<!-- Node412364&#45;&gt;Node412016 -->
<g id="edge35" class="edge">
<title>Node412364&#45;&gt;Node412016</title>
<path fill="none" stroke="#191970" d="M425.2737,-391.4382C440.0398,-394.9185 456.0458,-398.6909 470.6666,-402.1369"/>
<polygon fill="#191970" stroke="#191970" points="469.9989,-405.5754 480.5352,-404.4628 471.6048,-398.762 469.9989,-405.5754"/>
</g>
<!-- Node412365&#45;&gt;Node411977 -->
<g id="edge38" class="edge">
<title>Node412365&#45;&gt;Node411977</title>
<path fill="none" stroke="#191970" d="M402.1924,-443.039C419.9079,-451.7374 442.9774,-462.5903 464,-471 469.2662,-473.1066 474.8668,-475.1756 480.4222,-477.1277"/>
<polygon fill="#191970" stroke="#191970" points="479.6966,-480.5783 490.2911,-480.4985 481.9592,-473.9541 479.6966,-480.5783"/>
</g>
<!-- Node412365&#45;&gt;Node411941 -->
<g id="edge37" class="edge">
<title>Node412365&#45;&gt;Node411941</title>
<path fill="none" stroke="#191970" d="M425.2737,-436.5291C440.4462,-438.9812 456.9278,-441.6449 471.8706,-444.0599"/>
<polygon fill="#191970" stroke="#191970" points="471.5045,-447.5461 481.9348,-445.6864 472.6214,-440.6357 471.5045,-447.5461"/>
</g>
<!-- Node412365&#45;&gt;Node412256 -->
<g id="edge39" class="edge">
<title>Node412365&#45;&gt;Node412256</title>
<path fill="none" stroke="#191970" d="M412.378,-412.9042C417.8791,-410.018 423.2598,-406.7169 428,-403 448.4293,-386.9807 442.7845,-371.9625 464,-357 466.7278,-355.0762 469.6643,-353.3364 472.7146,-351.7648"/>
<polygon fill="#191970" stroke="#191970" points="474.428,-354.832 482.1126,-347.5384 471.5568,-348.4479 474.428,-354.832"/>
</g>
<!-- Node412365&#45;&gt;Node412016 -->
<g id="edge40" class="edge">
<title>Node412365&#45;&gt;Node412016</title>
<path fill="none" stroke="#191970" d="M425.2737,-423.0247C434.4569,-422.1589 444.1197,-421.248 453.6306,-420.3513"/>
<polygon fill="#191970" stroke="#191970" points="454.2342,-423.81 463.8615,-419.3868 453.5771,-416.8409 454.2342,-423.81"/>
</g>
</g>
</svg>
        <g id="navigator" transform="translate(0 0)" fill="#404254">
                <rect fill="#f2f5e9" fill-opacity="0.5" stroke="#606060" stroke-width=".5" x="0" y="0" width="60" height="60"/>
                <use id="zoomplus" xlink:href="#zoomPlus" x="17" y="9" onmousedown="handleZoom(evt,'in')"/>
                <use id="zoomminus" xlink:href="#zoomMin" x="42" y="9" onmousedown="handleZoom(evt,'out')"/>
                <use id="reset" xlink:href="#resetDef" x="30" y="36" onmousedown="handleReset()"/>
                <g id="arrowUp" xlink:href="#dirArrow" transform="translate(30 24)" onmousedown="handlePan(0,-1)">
                  <use xlink:href="#rim" fill="#404040">
                        <set attributeName="fill" to="#808080" begin="arrowUp.mouseover" end="arrowUp.mouseout"/>
                  </use>
                  <path fill="none" stroke="white" stroke-width="1.5" d="M0,-3.0v7 M-2.5,-0.5L0,-3.0L2.5,-0.5"/>
                </g>
                <g id="arrowRight" xlink:href="#dirArrow" transform="rotate(90) translate(36 -43)" onmousedown="handlePan(1,0)">
                  <use xlink:href="#rim" fill="#404040">
                        <set attributeName="fill" to="#808080" begin="arrowRight.mouseover" end="arrowRight.mouseout"/>
                  </use>
                  <path fill="none" stroke="white" stroke-width="1.5" d="M0,-3.0v7 M-2.5,-0.5L0,-3.0L2.5,-0.5"/>
                </g>
                <g id="arrowDown" xlink:href="#dirArrow" transform="rotate(180) translate(-30 -48)" onmousedown="handlePan(0,1)">
                  <use xlink:href="#rim" fill="#404040">
                        <set attributeName="fill" to="#808080" begin="arrowDown.mouseover" end="arrowDown.mouseout"/>
                  </use>
                  <path fill="none" stroke="white" stroke-width="1.5" d="M0,-3.0v7 M-2.5,-0.5L0,-3.0L2.5,-0.5"/>
                </g>
                <g id="arrowLeft" xlink:href="#dirArrow" transform="rotate(270) translate(-36 17)" onmousedown="handlePan(-1,0)">
                  <use xlink:href="#rim" fill="#404040">
                        <set attributeName="fill" to="#808080" begin="arrowLeft.mouseover" end="arrowLeft.mouseout"/>
                  </use>
                  <path fill="none" stroke="white" stroke-width="1.5" d="M0,-3.0v7 M-2.5,-0.5L0,-3.0L2.5,-0.5"/>
                </g>
        </g>
        <svg viewBox="0 0 15 15" width="100%" height="30px" preserveAspectRatio="xMaxYMin meet">
         <g id="arrow_out" transform="scale(0.3 0.3)">
          <a xlink:href="quickjs_8c_adb4d2990e6bf3f99633512ad2054b47a_cgraph_org.svg" target="_base">
           <rect id="button" ry="5" rx="5" y="6" x="6" height="38" width="38"
                fill="#f2f5e9" fill-opacity="0.5" stroke="#606060" stroke-width="1.0"/>
           <path id="arrow"
             d="M 11.500037,31.436501 C 11.940474,20.09759 22.043105,11.32322 32.158766,21.979434 L 37.068811,17.246167 C 37.068811,17.246167 37.088388,32 37.088388,32 L 22.160133,31.978069 C 22.160133,31.978069 26.997745,27.140456 26.997745,27.140456 C 18.528582,18.264221 13.291696,25.230495 11.500037,31.436501 z"
             style="fill:#404040;"/>
          </a>
         </g>
        </svg>
</svg>
