<?xml version="1.0" encoding="UTF-8" standalone="no"?>
<!DOCTYPE svg PUBLIC "-//W3C//DTD SVG 1.1//EN"
 "http://www.w3.org/Graphics/SVG/1.1/DTD/svg11.dtd">
<!-- Generated by graphviz version 2.40.1 (20161225.0304)
 -->
<!-- Title: JS_AtomIsNumericIndex Pages: 1 -->
<svg width="932pt" height="638pt"
 viewBox="0.00 0.00 932.00 637.64" xmlns="http://www.w3.org/2000/svg" xmlns:xlink="http://www.w3.org/1999/xlink">
<g id="graph0" class="graph" transform="scale(1 1) rotate(0) translate(4 633.6401)">
<title>JS_AtomIsNumericIndex</title>
<!-- Node92911 -->
<g id="node1" class="node">
<title>Node92911</title>
<polygon fill="#bfbfbf" stroke="#000000" points="0,-487.5 0,-506.5 126,-506.5 126,-487.5 0,-487.5"/>
<text text-anchor="middle" x="63" y="-494.5" font-family="Helvetica,sans-Serif" font-size="10.00" fill="#000000">JS_AtomIsNumericIndex</text>
</g>
<!-- Node92912 -->
<g id="node2" class="node">
<title>Node92912</title>
<g id="a_node2"><a xlink:href="quickjs_8c.html#ad5565bb5cfd5321f181573257f3b0c91" target="_top" xlink:title="JS_CreateProperty">
<polygon fill="none" stroke="#000000" points="171.5,-364.5 171.5,-383.5 271.5,-383.5 271.5,-364.5 171.5,-364.5"/>
<text text-anchor="middle" x="221.5" y="-371.5" font-family="Helvetica,sans-Serif" font-size="10.00" fill="#000000">JS_CreateProperty</text>
</a>
</g>
</g>
<!-- Node92911&#45;&gt;Node92912 -->
<g id="edge1" class="edge">
<title>Node92911&#45;&gt;Node92912</title>
<path fill="none" stroke="#191970" d="M83.5847,-481.0257C116.9841,-455.107 181.9755,-404.672 209.1205,-383.6068"/>
<polygon fill="#191970" stroke="#191970" points="81.1917,-478.4525 75.4372,-487.3484 85.4833,-483.9827 81.1917,-478.4525"/>
</g>
<!-- Node93030 -->
<g id="node6" class="node">
<title>Node93030</title>
<g id="a_node6"><a xlink:href="quickjs_8c.html#ad7f03358a8088ca920ab308225c6b2e6" target="_top" xlink:title="JS_SetPropertyInternal">
<polygon fill="none" stroke="#ff0000" points="500.5,-.5 500.5,-19.5 618.5,-19.5 618.5,-.5 500.5,-.5"/>
<text text-anchor="middle" x="559.5" y="-7.5" font-family="Helvetica,sans-Serif" font-size="10.00" fill="#000000">JS_SetPropertyInternal</text>
</a>
</g>
</g>
<!-- Node92911&#45;&gt;Node93030 -->
<g id="edge37" class="edge">
<title>Node92911&#45;&gt;Node93030</title>
<path fill="none" stroke="#191970" d="M68.8658,-477.4273C90.0821,-410.1004 169.4672,-186.0959 317,-75 370.7081,-34.5564 447.7342,-19.2521 500.4793,-13.4754"/>
<polygon fill="#191970" stroke="#191970" points="65.4642,-476.581 65.8615,-487.1684 72.1533,-478.644 65.4642,-476.581"/>
</g>
<!-- Node93088 -->
<g id="node18" class="node">
<title>Node93088</title>
<g id="a_node18"><a xlink:href="quickjs_8c.html#ad13892c0a0f11781b566808876658099" target="_top" xlink:title="JS_GetOwnPropertyInternal">
<polygon fill="none" stroke="#ff0000" points="317,-487.5 317,-506.5 456,-506.5 456,-487.5 317,-487.5"/>
<text text-anchor="middle" x="386.5" y="-494.5" font-family="Helvetica,sans-Serif" font-size="10.00" fill="#000000">JS_GetOwnPropertyInternal</text>
</a>
</g>
</g>
<!-- Node92911&#45;&gt;Node93088 -->
<g id="edge28" class="edge">
<title>Node92911&#45;&gt;Node93088</title>
<path fill="none" stroke="#191970" d="M136.3531,-497C190.446,-497 263.5756,-497 316.7875,-497"/>
<polygon fill="#191970" stroke="#191970" points="136.1421,-493.5001 126.142,-497 136.142,-500.5001 136.1421,-493.5001"/>
</g>
<!-- Node93104 -->
<g id="node19" class="node">
<title>Node93104</title>
<g id="a_node19"><a xlink:href="quickjs_8c.html#a9d6d0a9704951d01c128975e0d2213f8" target="_top" xlink:title="JS_HasProperty">
<polygon fill="none" stroke="#ff0000" points="515,-606.5 515,-625.5 604,-625.5 604,-606.5 515,-606.5"/>
<text text-anchor="middle" x="559.5" y="-613.5" font-family="Helvetica,sans-Serif" font-size="10.00" fill="#000000">JS_HasProperty</text>
</a>
</g>
</g>
<!-- Node92911&#45;&gt;Node93104 -->
<g id="edge36" class="edge">
<title>Node92911&#45;&gt;Node93104</title>
<path fill="none" stroke="#191970" d="M78.8004,-514.2089C96.9226,-532.7044 128.4806,-561.2893 162,-575 282.2378,-624.1818 439.2482,-623.3515 514.9082,-619.3585"/>
<polygon fill="#191970" stroke="#191970" points="81.1106,-511.5601 71.6749,-506.7416 76.0463,-516.3926 81.1106,-511.5601"/>
</g>
<!-- Node93077 -->
<g id="node20" class="node">
<title>Node93077</title>
<g id="a_node20"><a xlink:href="quickjs_8c.html#a5762c57ae0c9937e986040c01222833a" target="_top" xlink:title="JS_GetPropertyInternal">
<polygon fill="none" stroke="#ff0000" points="162,-546.5 162,-565.5 281,-565.5 281,-546.5 162,-546.5"/>
<text text-anchor="middle" x="221.5" y="-553.5" font-family="Helvetica,sans-Serif" font-size="10.00" fill="#000000">JS_GetPropertyInternal</text>
</a>
</g>
</g>
<!-- Node92911&#45;&gt;Node93077 -->
<g id="edge34" class="edge">
<title>Node92911&#45;&gt;Node93077</title>
<path fill="none" stroke="#191970" d="M98.3611,-510.1628C127.9637,-521.1821 169.4992,-536.6432 195.9552,-546.4912"/>
<polygon fill="#191970" stroke="#191970" points="99.4113,-506.8192 88.8185,-506.6107 96.9693,-513.3794 99.4113,-506.8192"/>
</g>
<!-- Node92913 -->
<g id="node3" class="node">
<title>Node92913</title>
<g id="a_node3"><a xlink:href="quickjs_8c.html#ab50618f1bf78e444caa6da0e3e2785d7" target="_top" xlink:title="JS_DefineProperty">
<polygon fill="none" stroke="#000000" points="337,-278.5 337,-297.5 436,-297.5 436,-278.5 337,-278.5"/>
<text text-anchor="middle" x="386.5" y="-285.5" font-family="Helvetica,sans-Serif" font-size="10.00" fill="#000000">JS_DefineProperty</text>
</a>
</g>
</g>
<!-- Node92912&#45;&gt;Node92913 -->
<g id="edge2" class="edge">
<title>Node92912&#45;&gt;Node92913</title>
<path fill="none" stroke="#191970" d="M248.6573,-359.8453C282.4068,-342.2546 339.0869,-312.7123 368.1298,-297.5748"/>
<polygon fill="#191970" stroke="#191970" points="247.0384,-356.7421 239.7883,-364.4679 250.2738,-362.9496 247.0384,-356.7421"/>
</g>
<!-- Node92914 -->
<g id="node4" class="node">
<title>Node92914</title>
<g id="a_node4"><a xlink:href="quickjs_8c.html#a638e637d492ee889691691baba33c4bd" target="_top" xlink:title="JS_SetPropertyGeneric">
<polygon fill="none" stroke="#ff0000" points="500,-530.5 500,-549.5 619,-549.5 619,-530.5 500,-530.5"/>
<text text-anchor="middle" x="559.5" y="-537.5" font-family="Helvetica,sans-Serif" font-size="10.00" fill="#000000">JS_SetPropertyGeneric</text>
</a>
</g>
</g>
<!-- Node92912&#45;&gt;Node92914 -->
<g id="edge26" class="edge">
<title>Node92912&#45;&gt;Node92914</title>
<path fill="none" stroke="#191970" d="M228.2046,-393.2387C240.3742,-424.9506 269.3432,-487.5176 317,-516 372.3802,-549.0984 447.8342,-551.2798 499.7936,-547.6336"/>
<polygon fill="#191970" stroke="#191970" points="231.4555,-391.9381 224.7187,-383.7609 224.8857,-394.3544 231.4555,-391.9381"/>
</g>
<!-- Node92912&#45;&gt;Node93030 -->
<g id="edge27" class="edge">
<title>Node92912&#45;&gt;Node93030</title>
<path fill="none" stroke="#191970" d="M235.3661,-356.3331C271.6315,-310.1244 372.2781,-181.8639 456,-75 472.0106,-54.5638 470.4361,-43.4559 492,-29 497.7639,-25.136 504.3075,-22.0507 510.9977,-19.589"/>
<polygon fill="#191970" stroke="#191970" points="232.4162,-354.4227 228.9955,-364.4502 237.9228,-358.7445 232.4162,-354.4227"/>
</g>
<!-- Node92913&#45;&gt;Node92914 -->
<g id="edge3" class="edge">
<title>Node92913&#45;&gt;Node92914</title>
<path fill="none" stroke="#191970" d="M392.8282,-307.1763C409.7599,-357.4181 457.1761,-491.0677 492,-521 496.5239,-524.8884 501.7889,-527.9844 507.3456,-530.4488"/>
<polygon fill="#191970" stroke="#191970" points="396.097,-305.915 389.6105,-297.5379 389.4573,-308.1316 396.097,-305.915"/>
</g>
<!-- Node92915 -->
<g id="node5" class="node">
<title>Node92915</title>
<g id="a_node5"><a xlink:href="quickjs_8c.html#ac2894ff4edcdb4e6841bcce9c76081e3" target="_top" xlink:title="JS_CallInternal">
<polygon fill="none" stroke="#ff0000" points="841,-379.5 841,-398.5 924,-398.5 924,-379.5 841,-379.5"/>
<text text-anchor="middle" x="882.5" y="-386.5" font-family="Helvetica,sans-Serif" font-size="10.00" fill="#000000">JS_CallInternal</text>
</a>
</g>
</g>
<!-- Node92913&#45;&gt;Node92915 -->
<g id="edge18" class="edge">
<title>Node92913&#45;&gt;Node92915</title>
<path fill="none" stroke="#191970" d="M443.1574,-299.5371C543.9443,-320.0602 752.1183,-362.4505 840.9059,-380.5302"/>
<polygon fill="#191970" stroke="#191970" points="443.6598,-296.0676 433.1625,-297.5018 442.263,-302.9269 443.6598,-296.0676"/>
</g>
<!-- Node92913&#45;&gt;Node93030 -->
<g id="edge6" class="edge">
<title>Node92913&#45;&gt;Node93030</title>
<path fill="none" stroke="#191970" d="M406.7699,-272.0466C422.6926,-258.3734 444.1002,-237.2465 456,-214 494.1687,-139.437 435.2529,-90.6138 492,-29 495.5464,-25.1494 499.8059,-22.0564 504.4388,-19.5749"/>
<polygon fill="#191970" stroke="#191970" points="404.4737,-269.4041 399.0228,-278.4892 408.9495,-274.7862 404.4737,-269.4041"/>
</g>
<!-- Node93466 -->
<g id="node7" class="node">
<title>Node93466</title>
<g id="a_node7"><a xlink:href="quickjs_8c.html#a0a8765bd4012467d9139bc24aabcb3ca" target="_top" xlink:title="JS_DefinePropertyValue">
<polygon fill="none" stroke="#ff0000" points="497.5,-38.5 497.5,-57.5 621.5,-57.5 621.5,-38.5 497.5,-38.5"/>
<text text-anchor="middle" x="559.5" y="-45.5" font-family="Helvetica,sans-Serif" font-size="10.00" fill="#000000">JS_DefinePropertyValue</text>
</a>
</g>
</g>
<!-- Node92913&#45;&gt;Node93466 -->
<g id="edge8" class="edge">
<title>Node92913&#45;&gt;Node93466</title>
<path fill="none" stroke="#191970" d="M406.475,-271.8912C422.2258,-258.1273 443.546,-236.9543 456,-214 488.0774,-154.8774 445.2577,-115.3694 492,-67 495.7224,-63.1481 500.1592,-60.0589 504.9549,-57.5842"/>
<polygon fill="#191970" stroke="#191970" points="404.1836,-269.2452 398.8225,-278.3836 408.7122,-274.583 404.1836,-269.2452"/>
</g>
<!-- Node93487 -->
<g id="node8" class="node">
<title>Node93487</title>
<g id="a_node8"><a xlink:href="quickjs_8c.html#a04d312757919ff6b4d79cd0c2c3e5bb2" target="_top" xlink:title="js_build_arguments">
<polygon fill="none" stroke="#000000" points="683.5,-202.5 683.5,-221.5 784.5,-221.5 784.5,-202.5 683.5,-202.5"/>
<text text-anchor="middle" x="734" y="-209.5" font-family="Helvetica,sans-Serif" font-size="10.00" fill="#000000">js_build_arguments</text>
</a>
</g>
</g>
<!-- Node92913&#45;&gt;Node93487 -->
<g id="edge17" class="edge">
<title>Node92913&#45;&gt;Node93487</title>
<path fill="none" stroke="#191970" d="M407.9877,-272.8893C428.5191,-259.3267 460.8653,-240.1844 492,-231 556.0676,-212.1008 633.5686,-209.3208 683.3093,-209.9446"/>
<polygon fill="#191970" stroke="#191970" points="406.0187,-269.9956 399.6912,-278.4934 409.937,-275.7962 406.0187,-269.9956"/>
</g>
<!-- Node92946 -->
<g id="node9" class="node">
<title>Node92946</title>
<g id="a_node9"><a xlink:href="quickjs_8c.html#a4c9489297c684663f30e517204a9ec14" target="_top" xlink:title="JS_AddIntrinsicBaseObjects">
<polygon fill="none" stroke="#ff0000" points="663,-278.5 663,-297.5 805,-297.5 805,-278.5 663,-278.5"/>
<text text-anchor="middle" x="734" y="-285.5" font-family="Helvetica,sans-Serif" font-size="10.00" fill="#000000">JS_AddIntrinsicBaseObjects</text>
</a>
</g>
</g>
<!-- Node92913&#45;&gt;Node92946 -->
<g id="edge25" class="edge">
<title>Node92913&#45;&gt;Node92946</title>
<path fill="none" stroke="#191970" d="M446.3831,-288C506.4969,-288 599.1034,-288 662.9102,-288"/>
<polygon fill="#191970" stroke="#191970" points="446.2883,-284.5001 436.2883,-288 446.2882,-291.5001 446.2883,-284.5001"/>
</g>
<!-- Node93512 -->
<g id="node10" class="node">
<title>Node93512</title>
<g id="a_node10"><a xlink:href="quickjs_8c.html#abfb24c507e9a341c0a98e61d86fd8663" target="_top" xlink:title="JS_DefinePropertyGetSet">
<polygon fill="none" stroke="#000000" points="494.5,-240.5 494.5,-259.5 624.5,-259.5 624.5,-240.5 494.5,-240.5"/>
<text text-anchor="middle" x="559.5" y="-247.5" font-family="Helvetica,sans-Serif" font-size="10.00" fill="#000000">JS_DefinePropertyGetSet</text>
</a>
</g>
</g>
<!-- Node92913&#45;&gt;Node93512 -->
<g id="edge13" class="edge">
<title>Node92913&#45;&gt;Node93512</title>
<path fill="none" stroke="#191970" d="M440.0051,-276.2474C464.4673,-270.8742 493.0707,-264.5914 516.1587,-259.5201"/>
<polygon fill="#191970" stroke="#191970" points="439.1714,-272.847 430.1552,-278.411 440.6733,-279.684 439.1714,-272.847"/>
</g>
<!-- Node93513 -->
<g id="node11" class="node">
<title>Node93513</title>
<g id="a_node11"><a xlink:href="quickjs_8c.html#afda32fadaf7f938b5d1a2458a596a4b9" target="_top" xlink:title="JS_DefineGlobalFunction">
<polygon fill="none" stroke="#000000" points="670,-411.5 670,-430.5 798,-430.5 798,-411.5 670,-411.5"/>
<text text-anchor="middle" x="734" y="-418.5" font-family="Helvetica,sans-Serif" font-size="10.00" fill="#000000">JS_DefineGlobalFunction</text>
</a>
</g>
</g>
<!-- Node92913&#45;&gt;Node93513 -->
<g id="edge14" class="edge">
<title>Node92913&#45;&gt;Node93513</title>
<path fill="none" stroke="#191970" d="M393.7094,-307.3264C407.191,-340.2812 439.6787,-406.3635 492,-433 562.6633,-468.9744 660.4712,-445.4647 707.1369,-430.566"/>
<polygon fill="#191970" stroke="#191970" points="396.9136,-305.9103 389.9991,-297.8828 390.3984,-308.4701 396.9136,-305.9103"/>
</g>
<!-- Node93514 -->
<g id="node12" class="node">
<title>Node93514</title>
<g id="a_node12"><a xlink:href="quickjs_8c.html#a9105ee38f5a557a7922fe6cfee0f9bb2" target="_top" xlink:title="js_arguments_define\l_own_property">
<polygon fill="none" stroke="#000000" points="506,-153 506,-183 613,-183 613,-153 506,-153"/>
<text text-anchor="start" x="514" y="-171" font-family="Helvetica,sans-Serif" font-size="10.00" fill="#000000">js_arguments_define</text>
<text text-anchor="middle" x="559.5" y="-160" font-family="Helvetica,sans-Serif" font-size="10.00" fill="#000000">_own_property</text>
</a>
</g>
</g>
<!-- Node92913&#45;&gt;Node93514 -->
<g id="edge16" class="edge">
<title>Node92913&#45;&gt;Node93514</title>
<path fill="none" stroke="#191970" d="M403.2433,-271.0057C423.0921,-251.5343 457.8064,-219.5451 492,-198 500.7884,-192.4625 510.773,-187.4258 520.317,-183.1274"/>
<polygon fill="#191970" stroke="#191970" points="400.5497,-268.7483 395.926,-278.281 405.4852,-273.7123 400.5497,-268.7483"/>
</g>
<!-- Node93113 -->
<g id="node13" class="node">
<title>Node93113</title>
<g id="a_node13"><a xlink:href="quickjs_8c.html#af40540b5f7e973f44e4e89d87938bfc6" target="_top" xlink:title="JS_DefinePropertyDesc">
<polygon fill="none" stroke="#ff0000" points="498.5,-114.5 498.5,-133.5 620.5,-133.5 620.5,-114.5 498.5,-114.5"/>
<text text-anchor="middle" x="559.5" y="-121.5" font-family="Helvetica,sans-Serif" font-size="10.00" fill="#000000">JS_DefinePropertyDesc</text>
</a>
</g>
</g>
<!-- Node92913&#45;&gt;Node93113 -->
<g id="edge19" class="edge">
<title>Node92913&#45;&gt;Node93113</title>
<path fill="none" stroke="#191970" d="M405.0227,-271.148C419.9917,-256.8963 440.9708,-235.4278 456,-214 476.3162,-185.0344 464.6673,-165.465 492,-143 496.7025,-139.135 502.1431,-136.0549 507.8539,-133.6006"/>
<polygon fill="#191970" stroke="#191970" points="402.3133,-268.8899 397.4009,-278.2771 407.095,-274.0022 402.3133,-268.8899"/>
</g>
<!-- Node93419 -->
<g id="node14" class="node">
<title>Node93419</title>
<g id="a_node14"><a xlink:href="quickjs_8c.html#ad47910027b4f50d5ff3239df19de556d" target="_top" xlink:title="js_object___defineGetter__">
<polygon fill="none" stroke="#000000" points="492,-76.5 492,-95.5 627,-95.5 627,-76.5 492,-76.5"/>
<text text-anchor="middle" x="559.5" y="-83.5" font-family="Helvetica,sans-Serif" font-size="10.00" fill="#000000">js_object___defineGetter__</text>
</a>
</g>
</g>
<!-- Node92913&#45;&gt;Node93419 -->
<g id="edge20" class="edge">
<title>Node92913&#45;&gt;Node93419</title>
<path fill="none" stroke="#191970" d="M406.1605,-271.4749C421.6193,-257.551 442.6977,-236.3677 456,-214 482.078,-170.1502 455.1289,-140.2617 492,-105 496.0472,-101.1294 500.8194,-98.0364 505.9253,-95.5664"/>
<polygon fill="#191970" stroke="#191970" points="403.4461,-269.2 398.2355,-278.425 408.0616,-274.4629 403.4461,-269.2"/>
</g>
<!-- Node93101 -->
<g id="node15" class="node">
<title>Node93101</title>
<g id="a_node15"><a xlink:href="quickjs_8c.html#a3b1f61e0c2e39eb52d8b1c5c8713873e" target="_top" xlink:title="js_object_seal">
<polygon fill="none" stroke="#000000" points="520,-404.5 520,-423.5 599,-423.5 599,-404.5 520,-404.5"/>
<text text-anchor="middle" x="559.5" y="-411.5" font-family="Helvetica,sans-Serif" font-size="10.00" fill="#000000">js_object_seal</text>
</a>
</g>
</g>
<!-- Node92913&#45;&gt;Node93101 -->
<g id="edge21" class="edge">
<title>Node92913&#45;&gt;Node93101</title>
<path fill="none" stroke="#191970" d="M399.605,-305.8986C417.7791,-329.4673 452.8521,-370.6448 492,-394 500.502,-399.0722 510.3815,-402.9369 519.9155,-405.8505"/>
<polygon fill="#191970" stroke="#191970" points="402.3116,-303.6749 393.4937,-297.8017 396.7244,-307.8919 402.3116,-303.6749"/>
</g>
<!-- Node93358 -->
<g id="node16" class="node">
<title>Node93358</title>
<g id="a_node16"><a xlink:href="quickjs_8c.html#a1fdb56277638da2aef63b9be0c12895f" target="_top" xlink:title="js_string_define_own\l_property">
<polygon fill="none" stroke="#000000" points="505.5,-355 505.5,-385 613.5,-385 613.5,-355 505.5,-355"/>
<text text-anchor="start" x="513.5" y="-373" font-family="Helvetica,sans-Serif" font-size="10.00" fill="#000000">js_string_define_own</text>
<text text-anchor="middle" x="559.5" y="-362" font-family="Helvetica,sans-Serif" font-size="10.00" fill="#000000">_property</text>
</a>
</g>
</g>
<!-- Node92913&#45;&gt;Node93358 -->
<g id="edge23" class="edge">
<title>Node92913&#45;&gt;Node93358</title>
<path fill="none" stroke="#191970" d="M414.5254,-302.191C435.7011,-312.8214 465.5411,-327.6055 492,-340 502.5678,-344.9504 514.1518,-350.1721 524.6941,-354.8468"/>
<polygon fill="#191970" stroke="#191970" points="415.9549,-298.9922 405.449,-297.6225 412.8077,-305.2449 415.9549,-298.9922"/>
</g>
<!-- Node93122 -->
<g id="node17" class="node">
<title>Node93122</title>
<g id="a_node17"><a xlink:href="quickjs_8c.html#a7e5b77a4851eee6f666581d051979392" target="_top" xlink:title="js_proxy_define_own\l_property">
<polygon fill="none" stroke="#000000" points="505.5,-481 505.5,-511 613.5,-511 613.5,-481 505.5,-481"/>
<text text-anchor="start" x="513.5" y="-499" font-family="Helvetica,sans-Serif" font-size="10.00" fill="#000000">js_proxy_define_own</text>
<text text-anchor="middle" x="559.5" y="-488" font-family="Helvetica,sans-Serif" font-size="10.00" fill="#000000">_property</text>
</a>
</g>
</g>
<!-- Node92913&#45;&gt;Node93122 -->
<g id="edge24" class="edge">
<title>Node92913&#45;&gt;Node93122</title>
<path fill="none" stroke="#191970" d="M393.4883,-307.6557C407.1627,-343.5824 440.6755,-420.3459 492,-466 498.7073,-471.9662 506.7933,-476.9127 515.0027,-480.9511"/>
<polygon fill="#191970" stroke="#191970" points="396.6318,-306.0645 389.8837,-297.8967 390.0654,-308.49 396.6318,-306.0645"/>
</g>
<!-- Node92914&#45;&gt;Node92915 -->
<g id="edge4" class="edge">
<title>Node92914&#45;&gt;Node92915</title>
<path fill="none" stroke="#191970" d="M607.0848,-527.5929C613.8233,-525.5504 620.6243,-523.3325 627,-521 708.6261,-491.1379 728.913,-482.0159 805,-440 828.4058,-427.0751 854.0437,-409.4682 869.1775,-398.6857"/>
<polygon fill="#191970" stroke="#191970" points="605.9278,-524.2846 597.3137,-530.4529 607.8942,-531.0028 605.9278,-524.2846"/>
</g>
<!-- Node92915&#45;&gt;Node92915 -->
<g id="edge5" class="edge">
<title>Node92915&#45;&gt;Node92915</title>
<path fill="none" stroke="#191970" d="M854.8742,-407.6539C856.0289,-412.9368 865.2375,-417 882.5,-417 908.8047,-417 916.4084,-407.5653 905.3111,-398.7571"/>
<polygon fill="#191970" stroke="#191970" points="858.0076,-409.2176 859.6889,-398.7571 851.8512,-405.886 858.0076,-409.2176"/>
</g>
<!-- Node93030&#45;&gt;Node92915 -->
<g id="edge7" class="edge">
<title>Node93030&#45;&gt;Node92915</title>
<path fill="none" stroke="#191970" d="M628.567,-11.9126C683.7633,-17.1977 759.2234,-33.4633 805,-81 848.3147,-125.9801 875.6505,-332.4721 881.3753,-379.4647"/>
<polygon fill="#191970" stroke="#191970" points="628.7711,-8.4173 618.5082,-11.0485 628.1719,-15.3916 628.7711,-8.4173"/>
</g>
<!-- Node93466&#45;&gt;Node92915 -->
<g id="edge11" class="edge">
<title>Node93466&#45;&gt;Node92915</title>
<path fill="none" stroke="#191970" d="M611.6229,-60.716C616.9107,-62.5829 622.1243,-64.6737 627,-67 714.4784,-108.7384 745.1396,-116.7681 805,-193 853.1347,-254.2993 874.8217,-349.2788 880.7491,-379.4565"/>
<polygon fill="#191970" stroke="#191970" points="612.6743,-57.3775 602.0817,-57.5948 610.4978,-64.0305 612.6743,-57.3775"/>
</g>
<!-- Node93466&#45;&gt;Node93487 -->
<g id="edge9" class="edge">
<title>Node93466&#45;&gt;Node93487</title>
<path fill="none" stroke="#191970" d="M621.3649,-62.6221C623.3467,-63.9571 625.2347,-65.4128 627,-67 659.0359,-95.8045 637.0615,-122.6024 663,-157 677.7388,-176.5454 701.1036,-192.8034 716.9707,-202.4549"/>
<polygon fill="#191970" stroke="#191970" points="622.6059,-59.3076 612.1649,-57.5087 619.2052,-65.4261 622.6059,-59.3076"/>
</g>
<!-- Node93466&#45;&gt;Node92946 -->
<g id="edge12" class="edge">
<title>Node93466&#45;&gt;Node92946</title>
<path fill="none" stroke="#191970" d="M623.0619,-63.3307C624.4479,-64.4699 625.7652,-65.691 627,-67 678.2071,-121.2828 623.6637,-167.5851 663,-231 676.0818,-252.0894 699.822,-268.7499 716.2272,-278.4817"/>
<polygon fill="#191970" stroke="#191970" points="624.7415,-60.2459 614.4662,-57.6635 620.8884,-66.09 624.7415,-60.2459"/>
</g>
<!-- Node93487&#45;&gt;Node92915 -->
<g id="edge10" class="edge">
<title>Node93487&#45;&gt;Node92915</title>
<path fill="none" stroke="#191970" d="M757.0169,-227.5477C771.749,-238.1725 790.7091,-253.1555 805,-269 838.0547,-305.6482 866.5501,-357.8315 877.6007,-379.2525"/>
<polygon fill="#191970" stroke="#191970" points="758.6608,-224.4246 748.47,-221.5268 754.6294,-230.1472 758.6608,-224.4246"/>
</g>
<!-- Node93513&#45;&gt;Node92915 -->
<g id="edge15" class="edge">
<title>Node93513&#45;&gt;Node92915</title>
<path fill="none" stroke="#191970" d="M788.1621,-409.3287C805.5271,-405.5868 824.4771,-401.5032 840.8073,-397.9843"/>
<polygon fill="#191970" stroke="#191970" points="787.1911,-405.9575 778.1528,-411.4856 788.6658,-412.8004 787.1911,-405.9575"/>
</g>
<!-- Node93101&#45;&gt;Node92946 -->
<g id="edge22" class="edge">
<title>Node93101&#45;&gt;Node92946</title>
<path fill="none" stroke="#191970" d="M608.9469,-402.4612C615.2293,-400.106 621.4088,-397.3089 627,-394 671.556,-367.6311 711.1974,-318.6418 726.8729,-297.7971"/>
<polygon fill="#191970" stroke="#191970" points="607.4091,-399.2866 599.0594,-405.8084 609.6537,-405.9169 607.4091,-399.2866"/>
</g>
<!-- Node93088&#45;&gt;Node92914 -->
<g id="edge33" class="edge">
<title>Node93088&#45;&gt;Node92914</title>
<path fill="none" stroke="#191970" d="M434.6452,-508.9667C461.972,-515.7589 495.7027,-524.1429 521.213,-530.4836"/>
<polygon fill="#191970" stroke="#191970" points="435.4433,-505.5587 424.8943,-506.5431 433.7547,-512.352 435.4433,-505.5587"/>
</g>
<!-- Node93088&#45;&gt;Node93101 -->
<g id="edge31" class="edge">
<title>Node93088&#45;&gt;Node93101</title>
<path fill="none" stroke="#191970" d="M415.6236,-483.0274C450.843,-466.1302 509.1773,-438.1433 539.6204,-423.5376"/>
<polygon fill="#191970" stroke="#191970" points="413.8474,-479.9976 406.3453,-487.4788 416.8753,-486.3088 413.8474,-479.9976"/>
</g>
<!-- Node93088&#45;&gt;Node93122 -->
<g id="edge32" class="edge">
<title>Node93088&#45;&gt;Node93122</title>
<path fill="none" stroke="#191970" d="M466.3915,-496.5382C479.5796,-496.462 492.9738,-496.3845 505.3382,-496.3131"/>
<polygon fill="#191970" stroke="#191970" points="466.3466,-493.0383 456.3671,-496.5961 466.3872,-500.0382 466.3466,-493.0383"/>
</g>
<!-- Node93088&#45;&gt;Node93104 -->
<g id="edge29" class="edge">
<title>Node93088&#45;&gt;Node93104</title>
<path fill="none" stroke="#191970" d="M408.7894,-512.332C445.0206,-537.254 515.647,-585.8352 545.5691,-606.4175"/>
<polygon fill="#191970" stroke="#191970" points="410.5875,-509.3208 400.3649,-506.5371 406.6204,-515.0881 410.5875,-509.3208"/>
</g>
<!-- Node93104&#45;&gt;Node92915 -->
<g id="edge30" class="edge">
<title>Node93104&#45;&gt;Node92915</title>
<path fill="none" stroke="#191970" d="M614.4939,-625.9772C668.5476,-632.5515 750.6262,-633.4878 805,-592 869.7805,-542.5719 880.4172,-432.0352 882.1597,-398.6992"/>
<polygon fill="#191970" stroke="#191970" points="614.7789,-622.4846 604.4069,-624.6457 613.8628,-629.4244 614.7789,-622.4846"/>
</g>
<!-- Node93077&#45;&gt;Node92915 -->
<g id="edge35" class="edge">
<title>Node93077&#45;&gt;Node92915</title>
<path fill="none" stroke="#191970" d="M291.3886,-564.755C372.8047,-573.0638 510.9721,-581.2866 627,-559 710.6433,-542.9338 736.8404,-539.0744 805,-488 839.2366,-462.3453 866.4775,-417.9424 877.366,-398.5378"/>
<polygon fill="#191970" stroke="#191970" points="291.5707,-561.2549 281.2597,-563.6908 290.8392,-568.2166 291.5707,-561.2549"/>
</g>
</g>
</svg>
