<?xml version="1.0" encoding="UTF-8" standalone="no"?>
<!DOCTYPE svg PUBLIC "-//W3C//DTD SVG 1.1//EN"
 "http://www.w3.org/Graphics/SVG/1.1/DTD/svg11.dtd">
<!-- Generated by graphviz version 2.40.1 (20161225.0304)
 -->
<!-- Title: js_typed_array_from Pages: 1 -->
<svg width="1136pt" height="1329pt"
 viewBox="0.00 0.00 1136.00 1328.65" xmlns="http://www.w3.org/2000/svg" xmlns:xlink="http://www.w3.org/1999/xlink">
<g id="graph0" class="graph" transform="scale(1 1) rotate(0) translate(4 1324.6496)">
<title>js_typed_array_from</title>
<!-- Node475702 -->
<g id="node1" class="node">
<title>Node475702</title>
<polygon fill="#bfbfbf" stroke="#000000" points="0,-807.1496 0,-826.1496 105,-826.1496 105,-807.1496 0,-807.1496"/>
<text text-anchor="middle" x="52.5" y="-814.1496" font-family="Helvetica,sans-Serif" font-size="10.00" fill="#000000">js_typed_array_from</text>
</g>
<!-- Node475703 -->
<g id="node2" class="node">
<title>Node475703</title>
<g id="a_node2"><a xlink:href="quickjs_8c.html#a59a7e992f228759bf0a56f0aae4f3cc3" target="_top" xlink:title="check_function">
<polygon fill="none" stroke="#000000" points="172.5,-1301.1496 172.5,-1320.1496 255.5,-1320.1496 255.5,-1301.1496 172.5,-1301.1496"/>
<text text-anchor="middle" x="214" y="-1308.1496" font-family="Helvetica,sans-Serif" font-size="10.00" fill="#000000">check_function</text>
</a>
</g>
</g>
<!-- Node475702&#45;&gt;Node475703 -->
<g id="edge1" class="edge">
<title>Node475702&#45;&gt;Node475703</title>
<path fill="none" stroke="#191970" d="M53.0138,-826.3578C56.4128,-887.0624 77.5167,-1214.2157 141,-1286.6496 146.8777,-1293.3561 154.663,-1298.1966 162.9588,-1301.6883"/>
<polygon fill="#191970" stroke="#191970" points="161.8731,-1305.017 172.4677,-1305.085 164.2279,-1298.4249 161.8731,-1305.017"/>
</g>
<!-- Node475705 -->
<g id="node4" class="node">
<title>Node475705</title>
<g id="a_node4"><a xlink:href="quickjs_8c.html#a1a4c02a29525d5cb2085dd8bca3af350" target="_top" xlink:title="JS_Call">
<polygon fill="none" stroke="#000000" points="188.5,-636.1496 188.5,-655.1496 239.5,-655.1496 239.5,-636.1496 188.5,-636.1496"/>
<text text-anchor="middle" x="214" y="-643.1496" font-family="Helvetica,sans-Serif" font-size="10.00" fill="#000000">JS_Call</text>
</a>
</g>
</g>
<!-- Node475702&#45;&gt;Node475705 -->
<g id="edge3" class="edge">
<title>Node475702&#45;&gt;Node475705</title>
<path fill="none" stroke="#191970" d="M61.6457,-806.966C87.9617,-779.102 164.1327,-698.4503 197.7401,-662.866"/>
<polygon fill="#191970" stroke="#191970" points="200.6329,-664.9004 204.9546,-655.2271 195.5438,-660.0941 200.6329,-664.9004"/>
</g>
<!-- Node475758 -->
<g id="node7" class="node">
<title>Node475758</title>
<g id="a_node7"><a xlink:href="quickjs_8h.html#afaa20c47565bc704c6c85f3d77254e7d" target="_top" xlink:title="JS_FreeValue">
<polygon fill="none" stroke="#ff0000" points="1050,-864.1496 1050,-883.1496 1128,-883.1496 1128,-864.1496 1050,-864.1496"/>
<text text-anchor="middle" x="1089" y="-871.1496" font-family="Helvetica,sans-Serif" font-size="10.00" fill="#000000">JS_FreeValue</text>
</a>
</g>
</g>
<!-- Node475702&#45;&gt;Node475758 -->
<g id="edge55" class="edge">
<title>Node475702&#45;&gt;Node475758</title>
<path fill="none" stroke="#191970" d="M53.2992,-826.3034C58.0502,-881.3827 84.3184,-1155.4956 141,-1213.6496 216.4638,-1291.0738 268.883,-1272.6496 377,-1272.6496 377,-1272.6496 377,-1272.6496 841.5,-1272.6496 1021.7509,-1272.6496 1075.2705,-974.9566 1086.5073,-893.8469"/>
<polygon fill="#191970" stroke="#191970" points="1090.0326,-893.8841 1087.8684,-883.5126 1083.0925,-892.9699 1090.0326,-893.8841"/>
</g>
<!-- Node475737 -->
<g id="node10" class="node">
<title>Node475737</title>
<g id="a_node10"><a xlink:href="quickjs_8h.html#a775522f2d084fc8fa0fcb33f390006b4" target="_top" xlink:title="JS_DupValue">
<polygon fill="none" stroke="#000000" points="937,-807.1496 937,-826.1496 1014,-826.1496 1014,-807.1496 937,-807.1496"/>
<text text-anchor="middle" x="975.5" y="-814.1496" font-family="Helvetica,sans-Serif" font-size="10.00" fill="#000000">JS_DupValue</text>
</a>
</g>
</g>
<!-- Node475702&#45;&gt;Node475737 -->
<g id="edge53" class="edge">
<title>Node475702&#45;&gt;Node475737</title>
<path fill="none" stroke="#191970" d="M52.78,-826.2161C54.4109,-863.6891 65.5169,-1001.901 141,-1072.6496 236.4272,-1162.0914 300.2113,-1123.3566 431,-1122.6496 501.1544,-1122.2704 692.0188,-1146.4582 746,-1101.6496 783.9597,-1070.1403 755.1331,-1038.0253 782,-996.6496 829.3894,-923.6689 912.7651,-860.0298 952.7968,-831.9465"/>
<polygon fill="#191970" stroke="#191970" points="954.8725,-834.7664 961.1016,-826.1961 950.8876,-829.0113 954.8725,-834.7664"/>
</g>
<!-- Node476094 -->
<g id="node11" class="node">
<title>Node476094</title>
<g id="a_node11"><a xlink:href="quickjs_8c.html#ac71df7cd121a3af9abf57897c58e75c2" target="_top" xlink:title="js_for_of_start">
<polygon fill="none" stroke="#ff0000" points="502,-769.1496 502,-788.1496 581,-788.1496 581,-769.1496 502,-769.1496"/>
<text text-anchor="middle" x="541.5" y="-776.1496" font-family="Helvetica,sans-Serif" font-size="10.00" fill="#000000">js_for_of_start</text>
</a>
</g>
</g>
<!-- Node475702&#45;&gt;Node476094 -->
<g id="edge54" class="edge">
<title>Node475702&#45;&gt;Node476094</title>
<path fill="none" stroke="#191970" d="M105.2962,-812.5469C200.2963,-805.1645 398.7736,-789.7409 491.614,-782.5263"/>
<polygon fill="#191970" stroke="#191970" points="492.1667,-785.994 501.8654,-781.7296 491.6243,-779.015 492.1667,-785.994"/>
</g>
<!-- Node475769 -->
<g id="node12" class="node">
<title>Node475769</title>
<g id="a_node12"><a xlink:href="quickjs_8h.html#a89b7c8686c7eee70b86be722ee4730ad" target="_top" xlink:title="JS_GetProperty">
<polygon fill="none" stroke="#000000" points="656,-731.1496 656,-750.1496 742,-750.1496 742,-731.1496 656,-731.1496"/>
<text text-anchor="middle" x="699" y="-738.1496" font-family="Helvetica,sans-Serif" font-size="10.00" fill="#000000">JS_GetProperty</text>
</a>
</g>
</g>
<!-- Node475702&#45;&gt;Node475769 -->
<g id="edge61" class="edge">
<title>Node475702&#45;&gt;Node475769</title>
<path fill="none" stroke="#191970" d="M84.6072,-807.0619C101.2936,-802.3968 122.0985,-797.0714 141,-793.6496 324.5763,-760.4168 546.1414,-747.2352 645.8409,-742.7106"/>
<polygon fill="#191970" stroke="#191970" points="646.1255,-746.2015 655.9608,-742.2622 645.8156,-739.2084 646.1255,-746.2015"/>
</g>
<!-- Node475777 -->
<g id="node14" class="node">
<title>Node475777</title>
<g id="a_node14"><a xlink:href="quickjs_8h.html#a2050bc428da1c65ac7eb87c3fa3b0392" target="_top" xlink:title="JS_NewInt32">
<polygon fill="none" stroke="#000000" points="937.5,-238.1496 937.5,-257.1496 1013.5,-257.1496 1013.5,-238.1496 937.5,-238.1496"/>
<text text-anchor="middle" x="975.5" y="-245.1496" font-family="Helvetica,sans-Serif" font-size="10.00" fill="#000000">JS_NewInt32</text>
</a>
</g>
</g>
<!-- Node475702&#45;&gt;Node475777 -->
<g id="edge77" class="edge">
<title>Node475702&#45;&gt;Node475777</title>
<path fill="none" stroke="#191970" d="M52.6737,-806.6974C54.1349,-732.3648 66.2517,-263.5969 141,-147.6496 207.9562,-43.7892 253.4277,-.6496 377,-.6496 377,-.6496 377,-.6496 699,-.6496 791.9303,-.6496 833.9969,9.7447 901,-54.6496 939.9207,-92.055 916.8628,-120.565 937,-170.6496 945.2325,-191.1252 956.7764,-213.5971 965.073,-228.9506"/>
<polygon fill="#191970" stroke="#191970" points="962.1131,-230.8326 969.9886,-237.9197 968.2516,-227.4682 962.1131,-230.8326"/>
</g>
<!-- Node475776 -->
<g id="node15" class="node">
<title>Node475776</title>
<g id="a_node15"><a xlink:href="quickjs_8h.html#ad80a83d73e9b7d872b88fbf2943aebe9" target="_top" xlink:title="JS_IsException">
<polygon fill="none" stroke="#000000" points="656,-921.1496 656,-940.1496 742,-940.1496 742,-921.1496 656,-921.1496"/>
<text text-anchor="middle" x="699" y="-928.1496" font-family="Helvetica,sans-Serif" font-size="10.00" fill="#000000">JS_IsException</text>
</a>
</g>
</g>
<!-- Node475702&#45;&gt;Node475776 -->
<g id="edge69" class="edge">
<title>Node475702&#45;&gt;Node475776</title>
<path fill="none" stroke="#191970" d="M62.4665,-826.2605C77.9506,-840.6256 109.3137,-867.5161 141,-881.6496 276.1703,-941.942 319.7743,-934.4583 467,-949.6496 532.8725,-956.4466 550.1965,-957.0852 616,-949.6496 628.9814,-948.1828 642.8914,-945.4644 655.5419,-942.5334"/>
<polygon fill="#191970" stroke="#191970" points="656.4774,-945.9081 665.3755,-940.157 654.8331,-939.104 656.4774,-945.9081"/>
</g>
<!-- Node475827 -->
<g id="node18" class="node">
<title>Node475827</title>
<g id="a_node18"><a xlink:href="quickjs_8h.html#a4e407128a9605afb77523e49e9a627fd" target="_top" xlink:title="JS_IsUndefined">
<polygon fill="none" stroke="#000000" points="656,-1073.1496 656,-1092.1496 742,-1092.1496 742,-1073.1496 656,-1073.1496"/>
<text text-anchor="middle" x="699" y="-1080.1496" font-family="Helvetica,sans-Serif" font-size="10.00" fill="#000000">JS_IsUndefined</text>
</a>
</g>
</g>
<!-- Node475702&#45;&gt;Node475827 -->
<g id="edge70" class="edge">
<title>Node475702&#45;&gt;Node475827</title>
<path fill="none" stroke="#191970" d="M53.5243,-826.3381C57.5906,-859.6797 75.7039,-970.5957 141,-1024.6496 289.0867,-1147.24 540.5368,-1115.2695 647.9236,-1094.2014"/>
<polygon fill="#191970" stroke="#191970" points="648.7449,-1097.6064 657.8578,-1092.2021 647.3638,-1090.7439 648.7449,-1097.6064"/>
</g>
<!-- Node475993 -->
<g id="node19" class="node">
<title>Node475993</title>
<g id="a_node19"><a xlink:href="quickjs_8c.html#abb88b24dc63d82fcc312bba0cf93c3d7" target="_top" xlink:title="JS_IteratorClose">
<polygon fill="none" stroke="#ff0000" points="496.5,-1035.1496 496.5,-1054.1496 586.5,-1054.1496 586.5,-1035.1496 496.5,-1035.1496"/>
<text text-anchor="middle" x="541.5" y="-1042.1496" font-family="Helvetica,sans-Serif" font-size="10.00" fill="#000000">JS_IteratorClose</text>
</a>
</g>
</g>
<!-- Node475702&#45;&gt;Node475993 -->
<g id="edge71" class="edge">
<title>Node475702&#45;&gt;Node475993</title>
<path fill="none" stroke="#191970" d="M54.5333,-826.5366C61.1232,-855.8567 84.8064,-942.7619 141,-982.6496 245.2654,-1056.6601 403.3203,-1056.8375 486.2559,-1050.7108"/>
<polygon fill="#191970" stroke="#191970" points="486.7851,-1054.1797 496.475,-1049.8953 486.2282,-1047.2019 486.7851,-1054.1797"/>
</g>
<!-- Node475975 -->
<g id="node20" class="node">
<title>Node475975</title>
<g id="a_node20"><a xlink:href="quickjs_8c.html#ad4ba09e4c7ab9f28c144182e1aacf1f6" target="_top" xlink:title="JS_NewArray">
<polygon fill="none" stroke="#ff0000" points="503,-485.1496 503,-504.1496 580,-504.1496 580,-485.1496 503,-485.1496"/>
<text text-anchor="middle" x="541.5" y="-492.1496" font-family="Helvetica,sans-Serif" font-size="10.00" fill="#000000">JS_NewArray</text>
</a>
</g>
</g>
<!-- Node475702&#45;&gt;Node475975 -->
<g id="edge76" class="edge">
<title>Node475702&#45;&gt;Node475975</title>
<path fill="none" stroke="#191970" d="M54.2519,-806.7309C60.2856,-775.4955 83.1085,-678.1873 141,-626.6496 243.5173,-535.3841 410.6801,-506.9988 492.8185,-498.3421"/>
<polygon fill="#191970" stroke="#191970" points="493.2771,-501.8138 502.8793,-497.3362 492.5807,-494.8485 493.2771,-501.8138"/>
</g>
<!-- Node475979 -->
<g id="node21" class="node">
<title>Node475979</title>
<g id="a_node21"><a xlink:href="quickjs_8c.html#a710289a14c2810467e5b448d3c28bd55" target="_top" xlink:title="JS_ToObject">
<polygon fill="none" stroke="#ff0000" points="504.5,-807.1496 504.5,-826.1496 578.5,-826.1496 578.5,-807.1496 504.5,-807.1496"/>
<text text-anchor="middle" x="541.5" y="-814.1496" font-family="Helvetica,sans-Serif" font-size="10.00" fill="#000000">JS_ToObject</text>
</a>
</g>
</g>
<!-- Node475702&#45;&gt;Node475979 -->
<g id="edge84" class="edge">
<title>Node475702&#45;&gt;Node475979</title>
<path fill="none" stroke="#191970" d="M105.2962,-816.6496C201.2475,-816.6496 402.7585,-816.6496 494.3707,-816.6496"/>
<polygon fill="#191970" stroke="#191970" points="494.4608,-820.1497 504.4608,-816.6496 494.4607,-813.1497 494.4608,-820.1497"/>
</g>
<!-- Node476134 -->
<g id="node22" class="node">
<title>Node476134</title>
<g id="a_node22"><a xlink:href="quickjs_8c.html#a57a83f0615206965524d78bf89bbf777" target="_top" xlink:title="JS_DefinePropertyValueInt64">
<polygon fill="none" stroke="#000000" points="141,-219.1496 141,-238.1496 287,-238.1496 287,-219.1496 141,-219.1496"/>
<text text-anchor="middle" x="214" y="-226.1496" font-family="Helvetica,sans-Serif" font-size="10.00" fill="#000000">JS_DefinePropertyValueInt64</text>
</a>
</g>
</g>
<!-- Node475702&#45;&gt;Node476134 -->
<g id="edge49" class="edge">
<title>Node475702&#45;&gt;Node476134</title>
<path fill="none" stroke="#191970" d="M53.4507,-806.9779C59.6533,-744.9853 95.5246,-403.0373 141,-309.6496 153.678,-283.6142 177.2694,-259.7721 194.2052,-244.798"/>
<polygon fill="#191970" stroke="#191970" points="196.5978,-247.357 201.9076,-238.1887 192.0393,-242.0446 196.5978,-247.357"/>
</g>
<!-- Node475974 -->
<g id="node23" class="node">
<title>Node475974</title>
<g id="a_node23"><a xlink:href="quickjs_8h.html#a6acbc709e59969eac6775f9b253b438f" target="_top" xlink:title="JS_NewInt64">
<polygon fill="none" stroke="#ff0000" points="339,-143.1496 339,-162.1496 415,-162.1496 415,-143.1496 339,-143.1496"/>
<text text-anchor="middle" x="377" y="-150.1496" font-family="Helvetica,sans-Serif" font-size="10.00" fill="#000000">JS_NewInt64</text>
</a>
</g>
</g>
<!-- Node475702&#45;&gt;Node475974 -->
<g id="edge78" class="edge">
<title>Node475702&#45;&gt;Node475974</title>
<path fill="none" stroke="#191970" d="M53.2609,-806.9642C59.1732,-732.7654 98.6654,-256.0795 141,-209.6496 188.4904,-157.5652 274.6364,-149.2041 328.6737,-149.6688"/>
<polygon fill="#191970" stroke="#191970" points="328.6379,-153.1686 338.7026,-149.8592 328.7709,-146.1699 328.6379,-153.1686"/>
</g>
<!-- Node475984 -->
<g id="node24" class="node">
<title>Node475984</title>
<g id="a_node24"><a xlink:href="quickjs_8c.html#a5f848f76409193212a44e6221e430919" target="_top" xlink:title="js_get_length64">
<polygon fill="none" stroke="#000000" points="499,-921.1496 499,-940.1496 584,-940.1496 584,-921.1496 499,-921.1496"/>
<text text-anchor="middle" x="541.5" y="-928.1496" font-family="Helvetica,sans-Serif" font-size="10.00" fill="#000000">js_get_length64</text>
</a>
</g>
</g>
<!-- Node475702&#45;&gt;Node475984 -->
<g id="edge56" class="edge">
<title>Node475702&#45;&gt;Node475984</title>
<path fill="none" stroke="#191970" d="M74.3304,-826.2307C92.029,-833.7058 117.7602,-843.9172 141,-850.6496 263.5351,-886.1474 411.6593,-911.2645 488.8766,-923.0582"/>
<polygon fill="#191970" stroke="#191970" points="488.4286,-926.5302 498.8397,-924.5659 489.476,-919.609 488.4286,-926.5302"/>
</g>
<!-- Node476135 -->
<g id="node26" class="node">
<title>Node476135</title>
<g id="a_node26"><a xlink:href="quickjs_8c.html#a7bb763b31e1c40a04aa0c1d5db0f1191" target="_top" xlink:title="JS_GetPropertyInt64">
<polygon fill="none" stroke="#000000" points="323,-390.1496 323,-409.1496 431,-409.1496 431,-390.1496 323,-390.1496"/>
<text text-anchor="middle" x="377" y="-397.1496" font-family="Helvetica,sans-Serif" font-size="10.00" fill="#000000">JS_GetPropertyInt64</text>
</a>
</g>
</g>
<!-- Node475702&#45;&gt;Node476135 -->
<g id="edge62" class="edge">
<title>Node475702&#45;&gt;Node476135</title>
<path fill="none" stroke="#191970" d="M52.8937,-806.9547C54.9711,-767.5748 67.5869,-617.4199 141,-527.6496 191.3128,-466.1267 279.3005,-429.7744 332.4554,-412.3562"/>
<polygon fill="#191970" stroke="#191970" points="333.8158,-415.5961 342.2792,-409.2227 331.6885,-408.9271 333.8158,-415.5961"/>
</g>
<!-- Node475994 -->
<g id="node28" class="node">
<title>Node475994</title>
<g id="a_node28"><a xlink:href="quickjs_8c.html#a44f6eee98516c994a594533cfa8618ed" target="_top" xlink:title="JS_IteratorNext">
<polygon fill="none" stroke="#ff0000" points="498.5,-845.1496 498.5,-864.1496 584.5,-864.1496 584.5,-845.1496 498.5,-845.1496"/>
<text text-anchor="middle" x="541.5" y="-852.1496" font-family="Helvetica,sans-Serif" font-size="10.00" fill="#000000">JS_IteratorNext</text>
</a>
</g>
</g>
<!-- Node475702&#45;&gt;Node475994 -->
<g id="edge72" class="edge">
<title>Node475702&#45;&gt;Node475994</title>
<path fill="none" stroke="#191970" d="M105.269,-825.8564C117.0033,-827.6636 129.4017,-829.3878 141,-830.6496 264.8408,-844.1234 411.1081,-850.4846 488.0309,-853.0951"/>
<polygon fill="#191970" stroke="#191970" points="488.3048,-856.606 498.4152,-853.439 488.5365,-849.6099 488.3048,-856.606"/>
</g>
<!-- Node476137 -->
<g id="node29" class="node">
<title>Node476137</title>
<g id="a_node29"><a xlink:href="quickjs_8c.html#a51b06daa618640e531fe808770553b96" target="_top" xlink:title="JS_SetPropertyInt64">
<polygon fill="none" stroke="#ff0000" points="323.5,-181.1496 323.5,-200.1496 430.5,-200.1496 430.5,-181.1496 323.5,-181.1496"/>
<text text-anchor="middle" x="377" y="-188.1496" font-family="Helvetica,sans-Serif" font-size="10.00" fill="#000000">JS_SetPropertyInt64</text>
</a>
</g>
</g>
<!-- Node475702&#45;&gt;Node476137 -->
<g id="edge79" class="edge">
<title>Node475702&#45;&gt;Node476137</title>
<path fill="none" stroke="#191970" d="M52.7585,-806.8949C54.3557,-761.0399 65.5208,-563.4218 141,-426.6496 196.3645,-326.3265 307.0202,-240.1714 354.5071,-206.1607"/>
<polygon fill="#191970" stroke="#191970" points="356.7273,-208.8773 362.8697,-200.2447 352.6846,-203.1627 356.7273,-208.8773"/>
</g>
<!-- Node476138 -->
<g id="node30" class="node">
<title>Node476138</title>
<g id="a_node30"><a xlink:href="quickjs_8c.html#a8c18ce4b7a8c97ab520d4d37a1c6fc72" target="_top" xlink:title="js_typed_array_create">
<polygon fill="none" stroke="#ff0000" points="485,-1187.1496 485,-1206.1496 598,-1206.1496 598,-1187.1496 485,-1187.1496"/>
<text text-anchor="middle" x="541.5" y="-1194.1496" font-family="Helvetica,sans-Serif" font-size="10.00" fill="#000000">js_typed_array_create</text>
</a>
</g>
</g>
<!-- Node475702&#45;&gt;Node476138 -->
<g id="edge85" class="edge">
<title>Node475702&#45;&gt;Node476138</title>
<path fill="none" stroke="#191970" d="M53.4072,-826.481C58.4708,-879.0332 85.0448,-1126.1379 141,-1172.6496 244.2526,-1258.4765 419.0751,-1228.6628 499.1522,-1208.6937"/>
<polygon fill="#191970" stroke="#191970" points="500.0769,-1212.0699 508.8939,-1206.1953 498.3379,-1205.2894 500.0769,-1212.0699"/>
</g>
<!-- Node475704 -->
<g id="node3" class="node">
<title>Node475704</title>
<g id="a_node3"><a xlink:href="quickjs_8c.html#a1ca9cdb1fa2ffc3e6506e92b200e490f" target="_top" xlink:title="JS_IsFunction">
<polygon fill="none" stroke="#000000" points="337,-1301.1496 337,-1320.1496 417,-1320.1496 417,-1301.1496 337,-1301.1496"/>
<text text-anchor="middle" x="377" y="-1308.1496" font-family="Helvetica,sans-Serif" font-size="10.00" fill="#000000">JS_IsFunction</text>
</a>
</g>
</g>
<!-- Node475703&#45;&gt;Node475704 -->
<g id="edge2" class="edge">
<title>Node475703&#45;&gt;Node475704</title>
<path fill="none" stroke="#191970" d="M255.5535,-1310.6496C277.2292,-1310.6496 303.9131,-1310.6496 326.7429,-1310.6496"/>
<polygon fill="#191970" stroke="#191970" points="326.9292,-1314.1497 336.9292,-1310.6496 326.9292,-1307.1497 326.9292,-1314.1497"/>
</g>
<!-- Node475706 -->
<g id="node5" class="node">
<title>Node475706</title>
<g id="a_node5"><a xlink:href="quickjs_8c.html#ac2894ff4edcdb4e6841bcce9c76081e3" target="_top" xlink:title="JS_CallInternal">
<polygon fill="none" stroke="#ff0000" points="335.5,-636.1496 335.5,-655.1496 418.5,-655.1496 418.5,-636.1496 335.5,-636.1496"/>
<text text-anchor="middle" x="377" y="-643.1496" font-family="Helvetica,sans-Serif" font-size="10.00" fill="#000000">JS_CallInternal</text>
</a>
</g>
</g>
<!-- Node475705&#45;&gt;Node475706 -->
<g id="edge4" class="edge">
<title>Node475705&#45;&gt;Node475706</title>
<path fill="none" stroke="#191970" d="M239.8278,-640.5609C262.6936,-638.8993 296.7587,-638.4842 325.2204,-639.3155"/>
<polygon fill="#191970" stroke="#191970" points="325.3036,-642.8206 335.4217,-639.6782 325.5524,-635.825 325.3036,-642.8206"/>
</g>
<!-- Node475706&#45;&gt;Node475705 -->
<g id="edge5" class="edge">
<title>Node475706&#45;&gt;Node475705</title>
<path fill="none" stroke="#191970" d="M335.4217,-651.6211C309.0604,-652.7387 275.2989,-652.6531 250.0709,-651.3644"/>
<polygon fill="#191970" stroke="#191970" points="250.0227,-647.855 239.8278,-650.7384 249.5957,-654.842 250.0227,-647.855"/>
</g>
<!-- Node475706&#45;&gt;Node475706 -->
<g id="edge9" class="edge">
<title>Node475706&#45;&gt;Node475706</title>
<path fill="none" stroke="#191970" d="M352.0311,-655.4067C339.8841,-664.2149 348.207,-673.6496 377,-673.6496 396.3453,-673.6496 406.4501,-669.3907 407.3144,-663.9242"/>
<polygon fill="#191970" stroke="#191970" points="410.2492,-662.0163 401.9689,-655.4067 404.3201,-665.7374 410.2492,-662.0163"/>
</g>
<!-- Node475825 -->
<g id="node6" class="node">
<title>Node475825</title>
<g id="a_node6"><a xlink:href="quickjs_8c.html#a75f6ee5e4235a7dc99889f3d2eb2c147" target="_top" xlink:title="JS_CallFree">
<polygon fill="none" stroke="#000000" points="940,-674.1496 940,-693.1496 1011,-693.1496 1011,-674.1496 940,-674.1496"/>
<text text-anchor="middle" x="975.5" y="-681.1496" font-family="Helvetica,sans-Serif" font-size="10.00" fill="#000000">JS_CallFree</text>
</a>
</g>
</g>
<!-- Node475706&#45;&gt;Node475825 -->
<g id="edge6" class="edge">
<title>Node475706&#45;&gt;Node475825</title>
<path fill="none" stroke="#191970" d="M403.763,-636.1224C421.6547,-633.6144 445.7254,-632.2402 467,-631.6496 660.1092,-626.2896 710.7032,-622.3778 901,-655.6496 919.5888,-658.8997 940.3671,-664.3547 955.2475,-670.1038"/>
<polygon fill="#191970" stroke="#191970" points="953.9398,-673.3515 964.5076,-674.1075 956.7178,-666.9263 953.9398,-673.3515"/>
</g>
<!-- Node475706&#45;&gt;Node475758 -->
<g id="edge24" class="edge">
<title>Node475706&#45;&gt;Node475758</title>
<path fill="none" stroke="#191970" d="M392.4024,-636.0153C437.6106,-608.6888 574.5852,-532.6496 699,-532.6496 699,-532.6496 699,-532.6496 841.5,-532.6496 1001.2042,-532.6496 1068.5171,-780.656 1084.8724,-853.6622"/>
<polygon fill="#191970" stroke="#191970" points="1081.5325,-854.7771 1087.0661,-863.8119 1088.3745,-853.2982 1081.5325,-854.7771"/>
</g>
<!-- Node475973 -->
<g id="node8" class="node">
<title>Node475973</title>
<g id="a_node8"><a xlink:href="quickjs_8c.html#a0c61bd5a64c743e81188bb528b78e715" target="_top" xlink:title="JS_DefinePropertyValueValue">
<polygon fill="none" stroke="#ff0000" points="467,-219.1496 467,-238.1496 616,-238.1496 616,-219.1496 467,-219.1496"/>
<text text-anchor="middle" x="541.5" y="-226.1496" font-family="Helvetica,sans-Serif" font-size="10.00" fill="#000000">JS_DefinePropertyValueValue</text>
</a>
</g>
</g>
<!-- Node475706&#45;&gt;Node475973 -->
<g id="edge10" class="edge">
<title>Node475706&#45;&gt;Node475973</title>
<path fill="none" stroke="#191970" d="M379.2948,-635.8865C392.3727,-580.3431 457.2513,-306.1129 467,-290.6496 479.2663,-271.193 499.6728,-254.8381 516.0298,-243.8196"/>
<polygon fill="#191970" stroke="#191970" points="518.1272,-246.6313 524.623,-238.2614 514.3255,-240.7537 518.1272,-246.6313"/>
</g>
<!-- Node475757 -->
<g id="node9" class="node">
<title>Node475757</title>
<g id="a_node9"><a xlink:href="quickjs_8c.html#ab7fc45a99935a1c0ba50b0216d9401a9" target="_top" xlink:title="JS_FreeAtom">
<polygon fill="none" stroke="#ff0000" points="660.5,-257.1496 660.5,-276.1496 737.5,-276.1496 737.5,-257.1496 660.5,-257.1496"/>
<text text-anchor="middle" x="699" y="-264.1496" font-family="Helvetica,sans-Serif" font-size="10.00" fill="#000000">JS_FreeAtom</text>
</a>
</g>
</g>
<!-- Node475706&#45;&gt;Node475757 -->
<g id="edge23" class="edge">
<title>Node475706&#45;&gt;Node475757</title>
<path fill="none" stroke="#191970" d="M379.1584,-635.9214C390.515,-585.0899 443.7049,-351.469 467,-328.6496 515.9004,-280.7479 549.9036,-307.4568 616,-289.6496 628.7595,-286.2121 642.6009,-282.4069 655.2566,-278.8976"/>
<polygon fill="#191970" stroke="#191970" points="656.4111,-282.2095 665.1086,-276.1594 654.5366,-275.4651 656.4111,-282.2095"/>
</g>
<!-- Node475706&#45;&gt;Node475737 -->
<g id="edge13" class="edge">
<title>Node475706&#45;&gt;Node475737</title>
<path fill="none" stroke="#191970" d="M418.8693,-649.101C466.9176,-653.5975 547.8646,-662.8166 616,-678.6496 675.277,-692.4242 693.2798,-691.2508 746,-721.6496 764.5452,-732.343 763.4298,-742.9998 782,-753.6496 827.911,-779.9792 886.3502,-797.0671 926.9339,-806.7132"/>
<polygon fill="#191970" stroke="#191970" points="926.3171,-810.1629 936.8486,-809.0064 927.8945,-803.3429 926.3171,-810.1629"/>
</g>
<!-- Node475706&#45;&gt;Node476094 -->
<g id="edge14" class="edge">
<title>Node475706&#45;&gt;Node476094</title>
<path fill="none" stroke="#191970" d="M388.8304,-655.2147C416.6749,-677.7272 486.6089,-734.2696 521.3153,-762.3301"/>
<polygon fill="#191970" stroke="#191970" points="519.3561,-765.2469 529.3329,-768.8124 523.7572,-759.8035 519.3561,-765.2469"/>
</g>
<!-- Node475706&#45;&gt;Node475769 -->
<g id="edge25" class="edge">
<title>Node475706&#45;&gt;Node475769</title>
<path fill="none" stroke="#191970" d="M401.2421,-655.2143C419.2413,-662.15 444.4679,-671.524 467,-678.6496 529.0312,-698.2666 601.6431,-717.0054 648.8872,-728.6475"/>
<polygon fill="#191970" stroke="#191970" points="648.3171,-732.1113 658.8629,-731.0931 649.9839,-725.3126 648.3171,-732.1113"/>
</g>
<!-- Node475770 -->
<g id="node13" class="node">
<title>Node475770</title>
<g id="a_node13"><a xlink:href="quickjs_8c.html#a5762c57ae0c9937e986040c01222833a" target="_top" xlink:title="JS_GetPropertyInternal">
<polygon fill="none" stroke="#ff0000" points="782,-674.1496 782,-693.1496 901,-693.1496 901,-674.1496 782,-674.1496"/>
<text text-anchor="middle" x="841.5" y="-681.1496" font-family="Helvetica,sans-Serif" font-size="10.00" fill="#000000">JS_GetPropertyInternal</text>
</a>
</g>
</g>
<!-- Node475706&#45;&gt;Node475770 -->
<g id="edge26" class="edge">
<title>Node475706&#45;&gt;Node475770</title>
<path fill="none" stroke="#191970" d="M418.5307,-644.9561C466.2682,-644.5212 546.9307,-644.8958 616,-650.6496 671.5358,-655.2761 734.2215,-664.801 779.3786,-672.4338"/>
<polygon fill="#191970" stroke="#191970" points="778.8663,-675.8969 789.3128,-674.1302 780.0447,-668.9968 778.8663,-675.8969"/>
</g>
<!-- Node475706&#45;&gt;Node475777 -->
<g id="edge44" class="edge">
<title>Node475706&#45;&gt;Node475777</title>
<path fill="none" stroke="#191970" d="M378.7531,-635.895C387.0916,-590.5583 424.1178,-400.9802 467,-361.6496 475.6132,-353.7498 801.7907,-284.2939 927.1274,-257.8299"/>
<polygon fill="#191970" stroke="#191970" points="928.1484,-261.1916 937.2102,-255.7022 926.703,-254.3424 928.1484,-261.1916"/>
</g>
<!-- Node475706&#45;&gt;Node475776 -->
<g id="edge33" class="edge">
<title>Node475706&#45;&gt;Node475776</title>
<path fill="none" stroke="#191970" d="M377.7415,-655.1956C380.9914,-690.1971 397.1243,-812.6259 467,-873.6496 470.4682,-876.6785 580.8219,-902.9472 648.0615,-918.7466"/>
<polygon fill="#191970" stroke="#191970" points="647.5203,-922.2146 658.0555,-921.0924 649.12,-915.3998 647.5203,-922.2146"/>
</g>
<!-- Node475834 -->
<g id="node16" class="node">
<title>Node475834</title>
<g id="a_node16"><a xlink:href="quickjs_8c.html#a90d6e607f6917d817c1e997bd2e6ed07" target="_top" xlink:title="JS_GetPropertyValue">
<polygon fill="none" stroke="#ff0000" points="486,-371.1496 486,-390.1496 597,-390.1496 597,-371.1496 486,-371.1496"/>
<text text-anchor="middle" x="541.5" y="-378.1496" font-family="Helvetica,sans-Serif" font-size="10.00" fill="#000000">JS_GetPropertyValue</text>
</a>
</g>
</g>
<!-- Node475706&#45;&gt;Node475834 -->
<g id="edge27" class="edge">
<title>Node475706&#45;&gt;Node475834</title>
<path fill="none" stroke="#191970" d="M379.2876,-636.0495C387.103,-604.7732 415.1729,-504.0114 467,-437.6496 480.3232,-420.5901 499.8942,-405.8799 515.6339,-395.6781"/>
<polygon fill="#191970" stroke="#191970" points="517.7584,-398.4777 524.3823,-390.2088 514.0476,-392.5422 517.7584,-398.4777"/>
</g>
<!-- Node475826 -->
<g id="node17" class="node">
<title>Node475826</title>
<g id="a_node17"><a xlink:href="quickjs_8h.html#a149f24b67e745bad93573b3b4c80db4c" target="_top" xlink:title="JS_IsNull">
<polygon fill="none" stroke="#000000" points="669.5,-959.1496 669.5,-978.1496 728.5,-978.1496 728.5,-959.1496 669.5,-959.1496"/>
<text text-anchor="middle" x="699" y="-966.1496" font-family="Helvetica,sans-Serif" font-size="10.00" fill="#000000">JS_IsNull</text>
</a>
</g>
</g>
<!-- Node475706&#45;&gt;Node475826 -->
<g id="edge34" class="edge">
<title>Node475706&#45;&gt;Node475826</title>
<path fill="none" stroke="#191970" d="M378.3826,-655.2637C385.3974,-702.6158 418.6217,-910.3404 467,-949.6496 521.4307,-993.8767 608.6807,-986.8717 659.2393,-977.7709"/>
<polygon fill="#191970" stroke="#191970" points="659.9793,-981.1929 669.1435,-975.8762 658.664,-974.3176 659.9793,-981.1929"/>
</g>
<!-- Node475706&#45;&gt;Node475827 -->
<g id="edge35" class="edge">
<title>Node475706&#45;&gt;Node475827</title>
<path fill="none" stroke="#191970" d="M377.5635,-655.2123C381.1326,-712.2592 402.5536,-1007.1009 467,-1063.6496 516.8366,-1107.379 598.0812,-1102.8623 650.0084,-1093.9782"/>
<polygon fill="#191970" stroke="#191970" points="650.7765,-1097.3959 659.985,-1092.1561 649.5188,-1090.5098 650.7765,-1097.3959"/>
</g>
<!-- Node475706&#45;&gt;Node475993 -->
<g id="edge36" class="edge">
<title>Node475706&#45;&gt;Node475993</title>
<path fill="none" stroke="#191970" d="M378.0534,-655.4074C383.9921,-708.7187 414.8939,-964.4191 467,-1020.6496 472.4551,-1026.5365 479.3585,-1030.9845 486.7517,-1034.3442"/>
<polygon fill="#191970" stroke="#191970" points="485.717,-1037.6968 496.3062,-1038.0442 488.2449,-1031.1691 485.717,-1037.6968"/>
</g>
<!-- Node475706&#45;&gt;Node475975 -->
<g id="edge43" class="edge">
<title>Node475706&#45;&gt;Node475975</title>
<path fill="none" stroke="#191970" d="M382.6845,-636.0684C398.6527,-609.4314 444.2309,-535.3546 467,-518.6496 474.8063,-512.9224 484.0382,-508.5241 493.2975,-505.1587"/>
<polygon fill="#191970" stroke="#191970" points="494.4849,-508.4528 502.898,-502.0129 492.3053,-501.8007 494.4849,-508.4528"/>
</g>
<!-- Node475706&#45;&gt;Node475979 -->
<g id="edge45" class="edge">
<title>Node475706&#45;&gt;Node475979</title>
<path fill="none" stroke="#191970" d="M379.7997,-655.2526C388.1775,-682.2279 415.7025,-759.2202 467,-797.6496 474.9286,-803.5894 484.5218,-807.682 494.148,-810.4994"/>
<polygon fill="#191970" stroke="#191970" points="493.5723,-813.9632 504.1231,-812.9976 495.273,-807.1729 493.5723,-813.9632"/>
</g>
<!-- Node475825&#45;&gt;Node475706 -->
<g id="edge7" class="edge">
<title>Node475825&#45;&gt;Node475706</title>
<path fill="none" stroke="#191970" d="M939.7423,-681.857C927.539,-679.1475 913.7541,-675.8796 901,-673.6496 710.7032,-640.3778 660.1092,-644.2896 467,-649.6496 454.6566,-649.9923 441.372,-650.5987 428.8991,-651.0102"/>
<polygon fill="#191970" stroke="#191970" points="428.5482,-647.5186 418.6512,-651.3 428.7461,-654.5158 428.5482,-647.5186"/>
</g>
<!-- Node475825&#45;&gt;Node475758 -->
<g id="edge8" class="edge">
<title>Node475825&#45;&gt;Node475758</title>
<path fill="none" stroke="#191970" d="M981.5789,-693.2677C989.2325,-705.4163 1002.7421,-726.9897 1014,-745.6496 1037.3743,-784.3927 1063.9877,-830.241 1078.3868,-855.197"/>
<polygon fill="#191970" stroke="#191970" points="1075.4139,-857.0482 1083.4391,-863.9654 1081.4791,-853.5534 1075.4139,-857.0482"/>
</g>
<!-- Node475973&#45;&gt;Node475758 -->
<g id="edge12" class="edge">
<title>Node475973&#45;&gt;Node475758</title>
<path fill="none" stroke="#191970" d="M565.1612,-219.1214C641.3683,-190.1607 883.05,-112.0441 1014,-228.6496 1061.9802,-271.374 1083.98,-749.4293 1088.2244,-853.6607"/>
<polygon fill="#191970" stroke="#191970" points="1084.7315,-853.9116 1088.6273,-863.7642 1091.7259,-853.6326 1084.7315,-853.9116"/>
</g>
<!-- Node475973&#45;&gt;Node475757 -->
<g id="edge11" class="edge">
<title>Node475973&#45;&gt;Node475757</title>
<path fill="none" stroke="#191970" d="M581.2439,-238.2387C602.2648,-243.3104 628.2465,-249.579 650.4522,-254.9365"/>
<polygon fill="#191970" stroke="#191970" points="649.8158,-258.3833 660.3577,-257.3264 651.4576,-251.5786 649.8158,-258.3833"/>
</g>
<!-- Node476094&#45;&gt;Node475758 -->
<g id="edge15" class="edge">
<title>Node476094&#45;&gt;Node475758</title>
<path fill="none" stroke="#191970" d="M581.3159,-785.5583C679.4104,-802.5793 932.5164,-846.4972 1039.7856,-865.1102"/>
<polygon fill="#191970" stroke="#191970" points="1039.25,-868.5694 1049.7012,-866.8307 1040.4468,-861.6725 1039.25,-868.5694"/>
</g>
<!-- Node476094&#45;&gt;Node475769 -->
<g id="edge16" class="edge">
<title>Node476094&#45;&gt;Node475769</title>
<path fill="none" stroke="#191970" d="M581.2439,-769.0606C602.0277,-764.0461 627.6611,-757.8616 649.6995,-752.5444"/>
<polygon fill="#191970" stroke="#191970" points="650.6417,-755.9175 659.5419,-750.1697 648.9999,-749.1128 650.6417,-755.9175"/>
</g>
<!-- Node476094&#45;&gt;Node475776 -->
<g id="edge22" class="edge">
<title>Node476094&#45;&gt;Node475776</title>
<path fill="none" stroke="#191970" d="M581.0743,-782.9495C593.136,-785.7158 605.8711,-790.2445 616,-797.6496 656.1159,-826.9782 681.2286,-882.1229 692.3337,-911.342"/>
<polygon fill="#191970" stroke="#191970" points="689.0815,-912.6402 695.7931,-920.8381 695.6587,-910.2441 689.0815,-912.6402"/>
</g>
<!-- Node475769&#45;&gt;Node475770 -->
<g id="edge17" class="edge">
<title>Node475769&#45;&gt;Node475770</title>
<path fill="none" stroke="#191970" d="M722.8513,-731.1091C746.1762,-721.7792 781.904,-707.488 808.0606,-697.0254"/>
<polygon fill="#191970" stroke="#191970" points="809.586,-700.1849 817.5709,-693.2213 806.9862,-693.6856 809.586,-700.1849"/>
</g>
<!-- Node475770&#45;&gt;Node475825 -->
<g id="edge18" class="edge">
<title>Node475770&#45;&gt;Node475825</title>
<path fill="none" stroke="#191970" d="M901.0547,-683.6496C910.704,-683.6496 920.5619,-683.6496 929.8144,-683.6496"/>
<polygon fill="#191970" stroke="#191970" points="929.9601,-687.1497 939.9601,-683.6496 929.9601,-680.1497 929.9601,-687.1497"/>
</g>
<!-- Node475770&#45;&gt;Node475758 -->
<g id="edge20" class="edge">
<title>Node475770&#45;&gt;Node475758</title>
<path fill="none" stroke="#191970" d="M869.8359,-693.157C879.9707,-697.0507 891.2821,-701.982 901,-707.6496 973.8146,-750.1165 1044.0136,-823.2859 1073.9119,-856.436"/>
<polygon fill="#191970" stroke="#191970" points="1071.3535,-858.8258 1080.622,-863.9586 1076.5774,-854.1662 1071.3535,-858.8258"/>
</g>
<!-- Node475770&#45;&gt;Node475737 -->
<g id="edge19" class="edge">
<title>Node475770&#45;&gt;Node475737</title>
<path fill="none" stroke="#191970" d="M876.5219,-693.168C885.2035,-696.7055 894.0118,-701.4281 901,-707.6496 925.956,-729.8677 917.7276,-746.3546 937,-773.6496 943.3666,-782.6665 951.3826,-791.8852 958.4498,-799.4625"/>
<polygon fill="#191970" stroke="#191970" points="956.1788,-802.1515 965.6231,-806.9533 961.2346,-797.3101 956.1788,-802.1515"/>
</g>
<!-- Node475770&#45;&gt;Node475777 -->
<g id="edge21" class="edge">
<title>Node475770&#45;&gt;Node475777</title>
<path fill="none" stroke="#191970" d="M881.3763,-674.0591C888.8237,-670.6174 895.8673,-665.9561 901,-659.6496 951.1949,-597.9757 970.0089,-340.775 974.4173,-267.3185"/>
<polygon fill="#191970" stroke="#191970" points="977.9212,-267.3501 975.0037,-257.1649 970.9329,-266.9464 977.9212,-267.3501"/>
</g>
<!-- Node475834&#45;&gt;Node475758 -->
<g id="edge30" class="edge">
<title>Node475834&#45;&gt;Node475758</title>
<path fill="none" stroke="#191970" d="M584.6567,-390.2283C594.9839,-392.7538 605.9325,-395.6256 616,-398.6496 632.2921,-403.5434 635.8362,-406.3475 652,-411.6496 811.4125,-463.9414 900.1577,-395.4153 1014,-518.6496 1060.1646,-568.6228 1081.8205,-787.0034 1087.4605,-854.0208"/>
<polygon fill="#191970" stroke="#191970" points="1083.9787,-854.388 1088.2802,-864.0703 1090.9555,-853.8188 1083.9787,-854.388"/>
</g>
<!-- Node475834&#45;&gt;Node475757 -->
<g id="edge29" class="edge">
<title>Node475834&#45;&gt;Node475757</title>
<path fill="none" stroke="#191970" d="M554.6575,-371.1262C581.8046,-351.4768 644.2526,-306.2764 677.4061,-282.2796"/>
<polygon fill="#191970" stroke="#191970" points="679.4976,-285.0863 685.5461,-276.3877 675.3932,-279.4158 679.4976,-285.0863"/>
</g>
<!-- Node475834&#45;&gt;Node475737 -->
<g id="edge28" class="edge">
<title>Node475834&#45;&gt;Node475737</title>
<path fill="none" stroke="#191970" d="M597.3325,-388.3714C604.0548,-390.9143 610.4815,-394.2586 616,-398.6496 643.996,-420.9258 635.2509,-439.0353 652,-470.6496 707.3335,-575.0928 699.3328,-618.173 782,-702.6496 807.6402,-728.8511 900.0181,-778.0703 947.2547,-802.3545"/>
<polygon fill="#191970" stroke="#191970" points="945.8417,-805.563 956.3382,-807.0028 949.0306,-799.3316 945.8417,-805.563"/>
</g>
<!-- Node475834&#45;&gt;Node475769 -->
<g id="edge31" class="edge">
<title>Node475834&#45;&gt;Node475769</title>
<path fill="none" stroke="#191970" d="M595.9731,-390.2247C603.5843,-393.6716 610.6268,-398.338 616,-404.6496 684.7789,-485.4404 621.1145,-539.1422 652,-640.6496 661.0762,-670.4793 677.5738,-702.7423 688.41,-722.3237"/>
<polygon fill="#191970" stroke="#191970" points="685.3931,-724.0992 693.3545,-731.0897 691.4901,-720.6602 685.3931,-724.0992"/>
</g>
<!-- Node475834&#45;&gt;Node475777 -->
<g id="edge32" class="edge">
<title>Node475834&#45;&gt;Node475777</title>
<path fill="none" stroke="#191970" d="M590.9767,-390.1831C664.0671,-401.5803 802.8229,-412.7253 901,-356.6496 936.1617,-336.5664 958.2723,-292.2944 968.6,-266.7818"/>
<polygon fill="#191970" stroke="#191970" points="971.8786,-268.0072 972.2011,-257.4173 965.345,-265.4947 971.8786,-268.0072"/>
</g>
<!-- Node475993&#45;&gt;Node475825 -->
<g id="edge37" class="edge">
<title>Node475993&#45;&gt;Node475825</title>
<path fill="none" stroke="#191970" d="M586.7856,-1037.3318C639.9413,-1027.8619 723.6912,-1009.9063 746,-987.6496 787.8361,-945.9113 750.9378,-909.9238 782,-859.6496 826.9365,-786.92 910.4272,-725.9783 951.4647,-698.8198"/>
<polygon fill="#191970" stroke="#191970" points="953.5469,-701.6405 960.0122,-693.247 949.7238,-695.7767 953.5469,-701.6405"/>
</g>
<!-- Node475993&#45;&gt;Node475758 -->
<g id="edge38" class="edge">
<title>Node475993&#45;&gt;Node475758</title>
<path fill="none" stroke="#191970" d="M586.6268,-1051.6653C675.8198,-1063.0988 877.8153,-1076.6818 1014,-991.6496 1050.8994,-968.6101 1072.8909,-920.0009 1082.764,-892.9124"/>
<polygon fill="#191970" stroke="#191970" points="1086.1025,-893.9675 1086.0617,-883.3728 1079.4866,-891.6805 1086.1025,-893.9675"/>
</g>
<!-- Node475993&#45;&gt;Node475769 -->
<g id="edge39" class="edge">
<title>Node475993&#45;&gt;Node475769</title>
<path fill="none" stroke="#191970" d="M550.5633,-1035.0721C565.7216,-1018.6597 596.4728,-983.6336 616,-949.6496 653.7079,-884.025 681.9031,-797.9373 693.3688,-760.0127"/>
<polygon fill="#191970" stroke="#191970" points="696.7746,-760.8385 696.2682,-750.2558 690.0646,-758.8445 696.7746,-760.8385"/>
</g>
<!-- Node475993&#45;&gt;Node475776 -->
<g id="edge40" class="edge">
<title>Node475993&#45;&gt;Node475776</title>
<path fill="none" stroke="#191970" d="M553.5185,-1034.944C568.369,-1022.8838 594.3297,-1001.5799 616,-982.6496 632.3464,-968.3701 633.6456,-961.2353 652,-949.6496 654.9166,-947.8087 658.0415,-946.0861 661.2427,-944.4888"/>
<polygon fill="#191970" stroke="#191970" points="662.7156,-947.664 670.3567,-940.3248 659.8066,-941.297 662.7156,-947.664"/>
</g>
<!-- Node475993&#45;&gt;Node475826 -->
<g id="edge41" class="edge">
<title>Node475993&#45;&gt;Node475826</title>
<path fill="none" stroke="#191970" d="M580.0597,-1035.0344C591.9411,-1031.3388 604.8279,-1026.5564 616,-1020.6496 633.9194,-1011.1756 634.8976,-1003.5295 652,-992.6496 657.2494,-989.3102 663.0209,-986.0537 668.6682,-983.0711"/>
<polygon fill="#191970" stroke="#191970" points="670.6214,-986.004 677.9408,-978.3439 667.442,-979.7677 670.6214,-986.004"/>
</g>
<!-- Node475993&#45;&gt;Node475827 -->
<g id="edge42" class="edge">
<title>Node475993&#45;&gt;Node475827</title>
<path fill="none" stroke="#191970" d="M581.2439,-1054.2387C602.0277,-1059.2532 627.6611,-1065.4377 649.6995,-1070.7549"/>
<polygon fill="#191970" stroke="#191970" points="648.9999,-1074.1865 659.5419,-1073.1296 650.6417,-1067.3817 648.9999,-1074.1865"/>
</g>
<!-- Node475979&#45;&gt;Node475737 -->
<g id="edge46" class="edge">
<title>Node475979&#45;&gt;Node475737</title>
<path fill="none" stroke="#191970" d="M578.7268,-822.5536C600.1037,-825.6456 627.4903,-829.1032 652,-830.6496 749.2564,-836.7862 863.1328,-828.1926 926.5261,-822.0041"/>
<polygon fill="#191970" stroke="#191970" points="927.0294,-825.4714 936.6325,-820.9959 926.3344,-818.506 927.0294,-825.4714"/>
</g>
<!-- Node475979&#45;&gt;Node475777 -->
<g id="edge48" class="edge">
<title>Node475979&#45;&gt;Node475777</title>
<path fill="none" stroke="#191970" d="M578.8621,-816.1254C624.0323,-813.5024 699.7342,-802.4473 746,-759.6496 779.1455,-728.9888 764.4859,-706.2666 782,-664.6496 847.7097,-508.5108 937.4774,-324.6235 966.237,-266.3388"/>
<polygon fill="#191970" stroke="#191970" points="969.445,-267.7474 970.7391,-257.2319 963.1699,-264.6452 969.445,-267.7474"/>
</g>
<!-- Node475979&#45;&gt;Node475776 -->
<g id="edge47" class="edge">
<title>Node475979&#45;&gt;Node475776</title>
<path fill="none" stroke="#191970" d="M578.8714,-821.5995C591.3269,-824.4088 604.8564,-828.7988 616,-835.6496 632.6998,-845.9163 666.6303,-888.2787 685.5273,-912.8287"/>
<polygon fill="#191970" stroke="#191970" points="682.8979,-915.1524 691.7493,-920.9751 688.4609,-910.9035 682.8979,-915.1524"/>
</g>
<!-- Node476134&#45;&gt;Node475973 -->
<g id="edge50" class="edge">
<title>Node476134&#45;&gt;Node475973</title>
<path fill="none" stroke="#191970" d="M287.0898,-228.6496C337.2829,-228.6496 404.0709,-228.6496 456.6213,-228.6496"/>
<polygon fill="#191970" stroke="#191970" points="456.9324,-232.1497 466.9323,-228.6496 456.9323,-225.1497 456.9324,-232.1497"/>
</g>
<!-- Node476134&#45;&gt;Node475974 -->
<g id="edge51" class="edge">
<title>Node476134&#45;&gt;Node475974</title>
<path fill="none" stroke="#191970" d="M230.6251,-218.996C251.6898,-206.9902 289.3149,-186.2933 323,-171.6496 327.7765,-169.5732 332.8604,-167.5507 337.9256,-165.647"/>
<polygon fill="#191970" stroke="#191970" points="339.3525,-168.8525 347.5576,-162.1497 336.9634,-162.2728 339.3525,-168.8525"/>
</g>
<!-- Node475974&#45;&gt;Node475777 -->
<g id="edge52" class="edge">
<title>Node475974&#45;&gt;Node475777</title>
<path fill="none" stroke="#191970" d="M391.5273,-143.0701C408.7191,-132.3381 438.6057,-115.5431 467,-108.6496 654.444,-63.1426 736.7892,-7.4521 901,-108.6496 944.369,-135.3765 964.0507,-196.6793 971.5677,-228.1796"/>
<polygon fill="#191970" stroke="#191970" points="968.1573,-228.9674 973.7381,-237.9732 974.9915,-227.4528 968.1573,-228.9674"/>
</g>
<!-- Node475984&#45;&gt;Node475769 -->
<g id="edge57" class="edge">
<title>Node475984&#45;&gt;Node475769</title>
<path fill="none" stroke="#191970" d="M557.0791,-921.1341C573.1336,-910.8115 598.2533,-893.1711 616,-873.6496 648.7937,-837.5764 676.3299,-786.8726 689.9116,-759.6711"/>
<polygon fill="#191970" stroke="#191970" points="693.1597,-760.9962 694.4155,-750.4761 686.8734,-757.917 693.1597,-760.9962"/>
</g>
<!-- Node475984&#45;&gt;Node475776 -->
<g id="edge58" class="edge">
<title>Node475984&#45;&gt;Node475776</title>
<path fill="none" stroke="#191970" d="M584.1218,-930.6496C603.0511,-930.6496 625.536,-930.6496 645.5732,-930.6496"/>
<polygon fill="#191970" stroke="#191970" points="645.7965,-934.1497 655.7964,-930.6496 645.7964,-927.1497 645.7965,-934.1497"/>
</g>
<!-- Node475985 -->
<g id="node25" class="node">
<title>Node475985</title>
<g id="a_node25"><a xlink:href="quickjs_8c.html#a07acd485a57197356906928a788a0644" target="_top" xlink:title="JS_ToLengthFree">
<polygon fill="none" stroke="#ff0000" points="652,-1149.1496 652,-1168.1496 746,-1168.1496 746,-1149.1496 652,-1149.1496"/>
<text text-anchor="middle" x="699" y="-1156.1496" font-family="Helvetica,sans-Serif" font-size="10.00" fill="#000000">JS_ToLengthFree</text>
</a>
</g>
</g>
<!-- Node475984&#45;&gt;Node475985 -->
<g id="edge59" class="edge">
<title>Node475984&#45;&gt;Node475985</title>
<path fill="none" stroke="#191970" d="M550.3273,-940.368C565.1377,-956.9877 595.3897,-992.3114 616,-1025.6496 635.6537,-1057.4407 631.9583,-1070.1018 652,-1101.6496 661.0978,-1115.9707 673.3427,-1130.7109 683.0531,-1141.6133"/>
<polygon fill="#191970" stroke="#191970" points="680.5732,-1144.0884 689.8907,-1149.1318 685.7519,-1139.3788 680.5732,-1144.0884"/>
</g>
<!-- Node475985&#45;&gt;Node475758 -->
<g id="edge60" class="edge">
<title>Node475985&#45;&gt;Node475758</title>
<path fill="none" stroke="#191970" d="M746.0398,-1155.9601C813.602,-1149.6727 938.2927,-1128.6875 1014,-1058.6496 1063.1077,-1013.2194 1080.8001,-931.1172 1086.5327,-893.4762"/>
<polygon fill="#191970" stroke="#191970" points="1090.0353,-893.6991 1087.9493,-883.3117 1083.1023,-892.7328 1090.0353,-893.6991"/>
</g>
<!-- Node476135&#45;&gt;Node475757 -->
<g id="edge63" class="edge">
<title>Node476135&#45;&gt;Node475757</title>
<path fill="none" stroke="#191970" d="M381.6568,-389.9435C392.8349,-367.8542 423.5201,-313.9439 467,-290.6496 524.3152,-259.9432 601.0086,-258.3156 650.2191,-261.3686"/>
<polygon fill="#191970" stroke="#191970" points="650.0636,-264.8662 660.2861,-262.0823 650.5587,-257.8837 650.0636,-264.8662"/>
</g>
<!-- Node476135&#45;&gt;Node475769 -->
<g id="edge64" class="edge">
<title>Node476135&#45;&gt;Node475769</title>
<path fill="none" stroke="#191970" d="M431.1691,-401.1608C493.489,-404.0781 590.5235,-412.6236 616,-437.6496 681.3675,-501.8613 624.2711,-553.316 652,-640.6496 661.4356,-670.3676 677.8362,-702.6607 688.5537,-722.2791"/>
<polygon fill="#191970" stroke="#191970" points="685.5197,-724.0247 693.4383,-731.0637 691.6375,-720.623 685.5197,-724.0247"/>
</g>
<!-- Node476135&#45;&gt;Node475777 -->
<g id="edge68" class="edge">
<title>Node476135&#45;&gt;Node475777</title>
<path fill="none" stroke="#191970" d="M378.0834,-389.8193C382.2792,-357.1054 400.6884,-251.6137 467,-209.6496 622.9893,-110.9347 862.2392,-198.2476 945.6145,-234.028"/>
<polygon fill="#191970" stroke="#191970" points="944.4282,-237.329 954.9934,-238.1201 947.2275,-230.9131 944.4282,-237.329"/>
</g>
<!-- Node476135&#45;&gt;Node475834 -->
<g id="edge65" class="edge">
<title>Node476135&#45;&gt;Node475834</title>
<path fill="none" stroke="#191970" d="M431.3194,-393.3757C445.5383,-391.7334 461.021,-389.9451 475.7653,-388.2421"/>
<polygon fill="#191970" stroke="#191970" points="476.2979,-391.704 485.8302,-387.0796 475.4946,-384.7502 476.2979,-391.704"/>
</g>
<!-- Node476136 -->
<g id="node27" class="node">
<title>Node476136</title>
<g id="a_node27"><a xlink:href="quickjs_8c.html#aa641af3a921335927dab07dc83285917" target="_top" xlink:title="JS_NewAtomInt64">
<polygon fill="none" stroke="#ff0000" points="492,-447.1496 492,-466.1496 591,-466.1496 591,-447.1496 492,-447.1496"/>
<text text-anchor="middle" x="541.5" y="-454.1496" font-family="Helvetica,sans-Serif" font-size="10.00" fill="#000000">JS_NewAtomInt64</text>
</a>
</g>
</g>
<!-- Node476135&#45;&gt;Node476136 -->
<g id="edge66" class="edge">
<title>Node476135&#45;&gt;Node476136</title>
<path fill="none" stroke="#191970" d="M402.1205,-409.1646C420.1186,-415.9072 444.9697,-425.0656 467,-432.6496 478.1301,-436.4812 490.2581,-440.4678 501.4342,-444.0657"/>
<polygon fill="#191970" stroke="#191970" points="500.3707,-447.4001 510.9616,-447.1138 502.5037,-440.733 500.3707,-447.4001"/>
</g>
<!-- Node476136&#45;&gt;Node475776 -->
<g id="edge67" class="edge">
<title>Node476136&#45;&gt;Node475776</title>
<path fill="none" stroke="#191970" d="M591.0077,-460.5802C600.4764,-463.5365 609.4603,-468.2471 616,-475.6496 658.1188,-523.3259 639.5386,-697.266 652,-759.6496 663.1674,-815.5555 682.7693,-880.0505 692.7615,-911.4605"/>
<polygon fill="#191970" stroke="#191970" points="689.4746,-912.6723 695.8656,-921.1225 696.1391,-910.5312 689.4746,-912.6723"/>
</g>
<!-- Node475994&#45;&gt;Node475758 -->
<g id="edge73" class="edge">
<title>Node475994&#45;&gt;Node475758</title>
<path fill="none" stroke="#191970" d="M584.6326,-862.4669C594.9606,-864.5774 605.9157,-867.0146 616,-869.6496 674.7459,-885.0002 697.2572,-875.4439 746,-911.6496 768.5651,-928.4108 757.1015,-950.604 782,-963.6496 873.3337,-1011.5042 920.6237,-1007.3848 1014,-963.6496 1045.3065,-948.9865 1068.1029,-914.1207 1079.8893,-892.3428"/>
<polygon fill="#191970" stroke="#191970" points="1083.0406,-893.8682 1084.5209,-883.3773 1076.8215,-890.6554 1083.0406,-893.8682"/>
</g>
<!-- Node475994&#45;&gt;Node475769 -->
<g id="edge74" class="edge">
<title>Node475994&#45;&gt;Node475769</title>
<path fill="none" stroke="#191970" d="M584.6538,-848.2956C595.4127,-845.4889 606.562,-841.4519 616,-835.6496 647.8546,-816.0663 674.1377,-780.3487 688.1121,-758.7284"/>
<polygon fill="#191970" stroke="#191970" points="691.1409,-760.4863 693.4855,-750.1542 685.2094,-756.7691 691.1409,-760.4863"/>
</g>
<!-- Node475994&#45;&gt;Node475776 -->
<g id="edge75" class="edge">
<title>Node475994&#45;&gt;Node475776</title>
<path fill="none" stroke="#191970" d="M580.0597,-864.2649C591.9411,-867.9605 604.8279,-872.7429 616,-878.6496 633.9194,-888.1237 634.8976,-895.7698 652,-906.6496 657.2494,-909.9891 663.0209,-913.2456 668.6682,-916.2282"/>
<polygon fill="#191970" stroke="#191970" points="667.442,-919.5316 677.9408,-920.9554 670.6214,-913.2953 667.442,-919.5316"/>
</g>
<!-- Node476137&#45;&gt;Node475758 -->
<g id="edge81" class="edge">
<title>Node476137&#45;&gt;Node475758</title>
<path fill="none" stroke="#191970" d="M415.1581,-181.1295C420.8404,-178.6428 426.3437,-175.5319 431,-171.6496 455.7693,-150.9982 439.1075,-124.8363 467,-108.6496 594.1762,-34.8464 927.8123,-88.0995 1014,-180.6496 1061.2464,-231.3838 1084.0033,-746.5494 1088.2572,-854.0537"/>
<polygon fill="#191970" stroke="#191970" points="1084.7633,-854.2827 1088.6488,-864.1393 1091.7581,-854.011 1084.7633,-854.2827"/>
</g>
<!-- Node476137&#45;&gt;Node475757 -->
<g id="edge80" class="edge">
<title>Node476137&#45;&gt;Node475757</title>
<path fill="none" stroke="#191970" d="M430.8532,-187.1256C480.4,-185.6807 555.1881,-188.1004 616,-209.6496 640.7458,-218.4186 665.0234,-236.5169 680.8652,-249.98"/>
<polygon fill="#191970" stroke="#191970" points="678.9218,-252.9311 688.7476,-256.8939 683.5377,-247.6685 678.9218,-252.9311"/>
</g>
<!-- Node476137&#45;&gt;Node475777 -->
<g id="edge83" class="edge">
<title>Node476137&#45;&gt;Node475777</title>
<path fill="none" stroke="#191970" d="M410.7927,-181.1229C417.7133,-178.5287 424.7778,-175.3806 431,-171.6496 449.6151,-160.4878 446.7714,-146.5182 467,-138.6496 556.8838,-103.6863 815.7059,-93.6336 901,-138.6496 936.9896,-157.6441 958.8922,-202.7173 968.9373,-228.5619"/>
<polygon fill="#191970" stroke="#191970" points="965.6831,-229.8535 972.4198,-238.0307 972.2528,-227.4372 965.6831,-229.8535"/>
</g>
<!-- Node476137&#45;&gt;Node476136 -->
<g id="edge82" class="edge">
<title>Node476137&#45;&gt;Node476136</title>
<path fill="none" stroke="#191970" d="M379.2753,-200.2964C387.0532,-231.7242 415.0211,-332.9737 467,-399.6496 480.3083,-416.7208 499.8799,-431.4306 515.6236,-441.6293"/>
<polygon fill="#191970" stroke="#191970" points="514.0392,-444.7663 524.3746,-447.0965 517.7482,-438.8297 514.0392,-444.7663"/>
</g>
<!-- Node476138&#45;&gt;Node475758 -->
<g id="edge87" class="edge">
<title>Node476138&#45;&gt;Node475758</title>
<path fill="none" stroke="#191970" d="M598.1522,-1203.9583C698.9409,-1213.4219 908.6784,-1216.4596 1014,-1096.6496 1067.3589,-1035.9505 1083.0386,-935.8682 1087.4084,-893.5394"/>
<polygon fill="#191970" stroke="#191970" points="1090.9077,-893.7083 1088.3455,-883.428 1083.9376,-893.0623 1090.9077,-893.7083"/>
</g>
<!-- Node476138&#45;&gt;Node475737 -->
<g id="edge86" class="edge">
<title>Node476138&#45;&gt;Node475737</title>
<path fill="none" stroke="#191970" d="M598.1685,-1204.2074C641.7246,-1207.1426 701.7325,-1204.7038 746,-1177.6496 881.4012,-1094.8989 950.6564,-898.7959 969.857,-836.2078"/>
<polygon fill="#191970" stroke="#191970" points="973.2686,-837.015 972.7776,-826.4315 966.5615,-835.0112 973.2686,-837.015"/>
</g>
<!-- Node476138&#45;&gt;Node475776 -->
<g id="edge88" class="edge">
<title>Node476138&#45;&gt;Node475776</title>
<path fill="none" stroke="#191970" d="M547.8258,-1186.9945C561.6715,-1165.5427 595.0913,-1111.9888 616,-1063.6496 637.0935,-1014.8831 615.9284,-988.6619 652,-949.6496 653.3444,-948.1957 654.8155,-946.8505 656.3808,-945.6062"/>
<polygon fill="#191970" stroke="#191970" points="658.3058,-948.5296 664.8396,-940.1893 654.5309,-942.6347 658.3058,-948.5296"/>
</g>
<!-- Node476138&#45;&gt;Node475985 -->
<g id="edge89" class="edge">
<title>Node476138&#45;&gt;Node475985</title>
<path fill="none" stroke="#191970" d="M581.2439,-1187.0606C602.0277,-1182.0461 627.6611,-1175.8616 649.6995,-1170.5444"/>
<polygon fill="#191970" stroke="#191970" points="650.6417,-1173.9175 659.5419,-1168.1697 648.9999,-1167.1128 650.6417,-1173.9175"/>
</g>
</g>
</svg>
