<?xml version="1.0" encoding="UTF-8" standalone="no"?>
<!DOCTYPE svg PUBLIC "-//W3C//DTD SVG 1.1//EN"
 "http://www.w3.org/Graphics/SVG/1.1/DTD/svg11.dtd">
<!-- Generated by graphviz version 2.40.1 (20161225.0304)
 -->
<!-- Title: bc_idx_to_atom Pages: 1 -->
<svg width="691pt" height="72pt"
 viewBox="0.00 0.00 691.00 72.24" xmlns="http://www.w3.org/2000/svg" xmlns:xlink="http://www.w3.org/1999/xlink">
<g id="graph0" class="graph" transform="scale(1 1) rotate(0) translate(4 68.2423)">
<title>bc_idx_to_atom</title>
<!-- Node357304 -->
<g id="node1" class="node">
<title>Node357304</title>
<polygon fill="#bfbfbf" stroke="#000000" points="0,-19.5 0,-38.5 86,-38.5 86,-19.5 0,-19.5"/>
<text text-anchor="middle" x="43" y="-26.5" font-family="Helvetica,sans-Serif" font-size="10.00" fill="#000000">bc_idx_to_atom</text>
</g>
<!-- Node357305 -->
<g id="node2" class="node">
<title>Node357305</title>
<g id="a_node2"><a xlink:href="quickjs_8c.html#a267b1caf06e54dfdf809cd51602400b4" target="_top" xlink:title="bc_get_atom">
<polygon fill="none" stroke="#000000" points="153.5,-.5 153.5,-19.5 226.5,-19.5 226.5,-.5 153.5,-.5"/>
<text text-anchor="middle" x="190" y="-7.5" font-family="Helvetica,sans-Serif" font-size="10.00" fill="#000000">bc_get_atom</text>
</a>
</g>
</g>
<!-- Node357304&#45;&gt;Node357305 -->
<g id="edge1" class="edge">
<title>Node357304&#45;&gt;Node357305</title>
<path fill="none" stroke="#191970" d="M96.3173,-22.1086C115.2882,-19.6566 136.2036,-16.9533 153.4504,-14.7241"/>
<polygon fill="#191970" stroke="#191970" points="95.7786,-18.6491 86.3098,-23.4021 96.676,-25.5913 95.7786,-18.6491"/>
</g>
<!-- Node357317 -->
<g id="node7" class="node">
<title>Node357317</title>
<g id="a_node7"><a xlink:href="quickjs_8c.html#ab64e04b510d4c4073aa468fc0a3ac0b1" target="_top" xlink:title="JS_ReadFunctionBytecode">
<polygon fill="none" stroke="#000000" points="122,-38.5 122,-57.5 258,-57.5 258,-38.5 122,-38.5"/>
<text text-anchor="middle" x="190" y="-45.5" font-family="Helvetica,sans-Serif" font-size="10.00" fill="#000000">JS_ReadFunctionBytecode</text>
</a>
</g>
</g>
<!-- Node357304&#45;&gt;Node357317 -->
<g id="edge11" class="edge">
<title>Node357304&#45;&gt;Node357317</title>
<path fill="none" stroke="#191970" d="M96.2549,-35.8833C104.5874,-36.9603 113.2963,-38.0859 121.9059,-39.1987"/>
<polygon fill="#191970" stroke="#191970" points="96.676,-32.4087 86.3098,-34.5979 95.7786,-39.3509 96.676,-32.4087"/>
</g>
<!-- Node357306 -->
<g id="node3" class="node">
<title>Node357306</title>
<g id="a_node3"><a xlink:href="quickjs_8c.html#a367627778ac537f4bb1f0fd07a2dee1b" target="_top" xlink:title="JS_ReadFunctionTag">
<polygon fill="none" stroke="#000000" points="294,-19.5 294,-38.5 405,-38.5 405,-19.5 294,-19.5"/>
<text text-anchor="middle" x="349.5" y="-26.5" font-family="Helvetica,sans-Serif" font-size="10.00" fill="#000000">JS_ReadFunctionTag</text>
</a>
</g>
</g>
<!-- Node357305&#45;&gt;Node357306 -->
<g id="edge2" class="edge">
<title>Node357305&#45;&gt;Node357306</title>
<path fill="none" stroke="#191970" d="M236.5461,-15.5447C254.5245,-17.6863 275.2435,-20.1544 293.9884,-22.3873"/>
<polygon fill="#191970" stroke="#191970" points="236.9363,-12.0665 226.5925,-14.359 236.1083,-19.0174 236.9363,-12.0665"/>
</g>
<!-- Node357308 -->
<g id="node5" class="node">
<title>Node357308</title>
<g id="a_node5"><a xlink:href="quickjs_8c.html#a21c7b14be807f7ce7f71c19e2e80380c" target="_top" xlink:title="JS_ReadModule">
<polygon fill="none" stroke="#000000" points="587.5,-38.5 587.5,-57.5 676.5,-57.5 676.5,-38.5 587.5,-38.5"/>
<text text-anchor="middle" x="632" y="-45.5" font-family="Helvetica,sans-Serif" font-size="10.00" fill="#000000">JS_ReadModule</text>
</a>
</g>
</g>
<!-- Node357305&#45;&gt;Node357308 -->
<g id="edge9" class="edge">
<title>Node357305&#45;&gt;Node357308</title>
<path fill="none" stroke="#191970" d="M236.5976,-21.5931C243.8483,-23.8046 251.1888,-26.2871 258,-29 274.8075,-35.6945 276.439,-43.6502 294,-48 396.5266,-73.3956 521.9772,-63.0787 587.4274,-54.7147"/>
<polygon fill="#191970" stroke="#191970" points="237.404,-18.1827 226.8243,-18.7491 235.4481,-24.9039 237.404,-18.1827"/>
</g>
<!-- Node357309 -->
<g id="node6" class="node">
<title>Node357309</title>
<g id="a_node6"><a xlink:href="quickjs_8c.html#ad0e3230c3896c2048283a9302f184fb4" target="_top" xlink:title="JS_ReadObjectTag">
<polygon fill="none" stroke="#000000" points="581,-.5 581,-19.5 683,-19.5 683,-.5 581,-.5"/>
<text text-anchor="middle" x="632" y="-7.5" font-family="Helvetica,sans-Serif" font-size="10.00" fill="#000000">JS_ReadObjectTag</text>
</a>
</g>
</g>
<!-- Node357305&#45;&gt;Node357309 -->
<g id="edge10" class="edge">
<title>Node357305&#45;&gt;Node357309</title>
<path fill="none" stroke="#191970" d="M236.7422,-10C320.1809,-10 494.1175,-10 580.7198,-10"/>
<polygon fill="#191970" stroke="#191970" points="236.5468,-6.5001 226.5468,-10 236.5467,-13.5001 236.5468,-6.5001"/>
</g>
<!-- Node357307 -->
<g id="node4" class="node">
<title>Node357307</title>
<g id="a_node4"><a xlink:href="quickjs_8c.html#a4b8ef2bb3b35e4a5f6ed8bd837a50e7c" target="_top" xlink:title="JS_ReadObjectRec">
<polygon fill="none" stroke="#ff0000" points="441,-19.5 441,-38.5 545,-38.5 545,-19.5 441,-19.5"/>
<text text-anchor="middle" x="493" y="-26.5" font-family="Helvetica,sans-Serif" font-size="10.00" fill="#000000">JS_ReadObjectRec</text>
</a>
</g>
</g>
<!-- Node357306&#45;&gt;Node357307 -->
<g id="edge3" class="edge">
<title>Node357306&#45;&gt;Node357307</title>
<path fill="none" stroke="#191970" d="M415.6073,-22.2686C424.0509,-22.2129 432.5993,-22.2824 440.7809,-22.4774"/>
<polygon fill="#191970" stroke="#191970" points="415.3463,-18.7715 405.3917,-22.3987 415.4356,-25.771 415.3463,-18.7715"/>
</g>
<!-- Node357307&#45;&gt;Node357306 -->
<g id="edge4" class="edge">
<title>Node357307&#45;&gt;Node357306</title>
<path fill="none" stroke="#191970" d="M430.6509,-35.6982C422.249,-35.7912 413.6721,-35.7589 405.3917,-35.6013"/>
<polygon fill="#191970" stroke="#191970" points="430.8431,-39.1955 440.7809,-35.5226 430.7217,-32.1966 430.8431,-39.1955"/>
</g>
<!-- Node357307&#45;&gt;Node357308 -->
<g id="edge5" class="edge">
<title>Node357307&#45;&gt;Node357308</title>
<path fill="none" stroke="#191970" d="M555.3824,-30.8087C571.9787,-32.9296 589.1221,-35.6433 602.9734,-38.4251"/>
<polygon fill="#191970" stroke="#191970" points="555.5023,-27.2977 545.1539,-29.5694 554.6603,-34.2469 555.5023,-27.2977"/>
</g>
<!-- Node357307&#45;&gt;Node357309 -->
<g id="edge7" class="edge">
<title>Node357307&#45;&gt;Node357309</title>
<path fill="none" stroke="#191970" d="M531.8559,-17.5595C547.0088,-14.8329 564.5918,-12.293 580.7567,-10.4659"/>
<polygon fill="#191970" stroke="#191970" points="530.9715,-14.1648 521.8009,-19.4705 532.2786,-21.0417 530.9715,-14.1648"/>
</g>
<!-- Node357308&#45;&gt;Node357307 -->
<g id="edge6" class="edge">
<title>Node357308&#45;&gt;Node357307</title>
<path fill="none" stroke="#191970" d="M577.3181,-47.1372C558.3527,-44.9037 537.8433,-41.7606 521.8009,-38.5295"/>
<polygon fill="#191970" stroke="#191970" points="577.0348,-50.6272 587.3592,-48.2486 577.805,-43.6697 577.0348,-50.6272"/>
</g>
<!-- Node357309&#45;&gt;Node357307 -->
<g id="edge8" class="edge">
<title>Node357309&#45;&gt;Node357307</title>
<path fill="none" stroke="#191970" d="M593.1032,-21.4479C578.2437,-24.1206 561.052,-26.6133 545.1539,-28.4306"/>
<polygon fill="#191970" stroke="#191970" points="593.8013,-24.878 602.9734,-19.5749 592.4962,-18.0007 593.8013,-24.878"/>
</g>
<!-- Node357317&#45;&gt;Node357306 -->
<g id="edge12" class="edge">
<title>Node357317&#45;&gt;Node357306</title>
<path fill="none" stroke="#191970" d="M268.166,-38.6887C276.7666,-37.6642 285.3917,-36.6367 293.6411,-35.654"/>
<polygon fill="#191970" stroke="#191970" points="267.6208,-35.2288 258.105,-39.8872 268.4488,-42.1797 267.6208,-35.2288"/>
</g>
</g>
</svg>
