<?xml version="1.0" encoding="UTF-8" standalone="no"?>
<!DOCTYPE svg PUBLIC "-//W3C//DTD SVG 1.1//EN"
 "http://www.w3.org/Graphics/SVG/1.1/DTD/svg11.dtd">
<!-- Generated by graphviz version 2.40.1 (20161225.0304)
 -->
<!-- Title: JS_DefinePrivateField Pages: 1 -->
<!--zoomable 383 -->
<svg id="main" version="1.1" xmlns="http://www.w3.org/2000/svg" xmlns:xlink="http://www.w3.org/1999/xlink" xml:space="preserve" onload="init(evt)">
<style type="text/css"><![CDATA[
.edge:hover path { stroke: red; }
.edge:hover polygon { stroke: red; fill: red; }
]]></style>
<script type="text/javascript"><![CDATA[
var edges = document.getElementsByTagName('g');
if (edges && edges.length) {
  for (var i=0;i<edges.length;i++) {
    if (edges[i].id.substr(0,4)=='edge') {
      edges[i].setAttribute('class','edge');
    }
  }
}
]]></script>
        <defs>
                <circle id="rim" cx="0" cy="0" r="7"/>
                <circle id="rim2" cx="0" cy="0" r="3.5"/>
                <g id="zoomPlus">
                        <use xlink:href="#rim" fill="#404040">
                                <set attributeName="fill" to="#808080" begin="zoomplus.mouseover" end="zoomplus.mouseout"/>
                        </use>
                        <path d="M-4,0h8M0,-4v8" fill="none" stroke="white" stroke-width="1.5" pointer-events="none"/>
                </g>
                <g id="zoomMin">
                        <use xlink:href="#rim" fill="#404040">
                                <set attributeName="fill" to="#808080" begin="zoomminus.mouseover" end="zoomminus.mouseout"/>
                        </use>
                        <path d="M-4,0h8" fill="none" stroke="white" stroke-width="1.5" pointer-events="none"/>
                </g>
                <g id="dirArrow">
                        <path fill="none" stroke="white" stroke-width="1.5" d="M0,-3.0v7 M-2.5,-0.5L0,-3.0L2.5,-0.5"/>
                </g>
               <g id="resetDef">
                       <use xlink:href="#rim2" fill="#404040">
                               <set attributeName="fill" to="#808080" begin="reset.mouseover" end="reset.mouseout"/>
                       </use>
               </g>
        </defs>

<script type="text/javascript">
var viewWidth = 907;
var viewHeight = 383;
var sectionId = 'dynsection-544';
</script>
<script xlink:href="svgpan.js"/>
<svg id="graph" class="graph">
<g id="viewport">
<title>JS_DefinePrivateField</title>
<!-- Node180630 -->
<g id="node1" class="node">
<title>Node180630</title>
<polygon fill="#bfbfbf" stroke="#000000" points="0,-136.3406 0,-155.3406 114,-155.3406 114,-136.3406 0,-136.3406"/>
<text text-anchor="middle" x="57" y="-143.3406" font-family="Helvetica,sans-Serif" font-size="10.00" fill="#000000">JS_DefinePrivateField</text>
</g>
<!-- Node180631 -->
<g id="node2" class="node">
<title>Node180631</title>
<g id="a_node2"><a xlink:href="quickjs_8c.html#a74547db03bf739a52c83a326b32db997" target="_top" xlink:title="add_property">
<polygon fill="none" stroke="#000000" points="193.5,-193.3406 193.5,-212.3406 266.5,-212.3406 266.5,-193.3406 193.5,-193.3406"/>
<text text-anchor="middle" x="230" y="-200.3406" font-family="Helvetica,sans-Serif" font-size="10.00" fill="#000000">add_property</text>
</a>
</g>
</g>
<!-- Node180630&#45;&gt;Node180631 -->
<g id="edge1" class="edge">
<title>Node180630&#45;&gt;Node180631</title>
<path fill="none" stroke="#191970" d="M77.7104,-155.3849C96.3345,-163.7055 124.5907,-175.6862 150,-183.8406 160.7189,-187.2806 172.4253,-190.4041 183.4937,-193.0798"/>
<polygon fill="#191970" stroke="#191970" points="182.8979,-196.5349 193.4326,-195.4074 184.4941,-189.7193 182.8979,-196.5349"/>
</g>
<!-- Node180688 -->
<g id="node23" class="node">
<title>Node180688</title>
<g id="a_node23"><a xlink:href="quickjs_8c.html#a06b76f5124fd985e35f4c652fd018d6d" target="_top" xlink:title="find_own_property">
<polygon fill="none" stroke="#000000" points="360.5,-331.3406 360.5,-350.3406 456.5,-350.3406 456.5,-331.3406 360.5,-331.3406"/>
<text text-anchor="middle" x="408.5" y="-338.3406" font-family="Helvetica,sans-Serif" font-size="10.00" fill="#000000">find_own_property</text>
</a>
</g>
</g>
<!-- Node180630&#45;&gt;Node180688 -->
<g id="edge35" class="edge">
<title>Node180630&#45;&gt;Node180688</title>
<path fill="none" stroke="#191970" d="M66.9426,-155.4202C83.2841,-170.8162 117.2819,-201.4061 150,-221.8406 224.8379,-268.5816 321.0666,-308.0227 372.4174,-327.6008"/>
<polygon fill="#191970" stroke="#191970" points="371.478,-330.9873 382.0696,-331.2479 373.9522,-324.4392 371.478,-330.9873"/>
</g>
<!-- Node180680 -->
<g id="node24" class="node">
<title>Node180680</title>
<g id="a_node24"><a xlink:href="quickjs_8h.html#afaa20c47565bc704c6c85f3d77254e7d" target="_top" xlink:title="JS_FreeValue">
<polygon fill="none" stroke="#ff0000" points="191,-155.3406 191,-174.3406 269,-174.3406 269,-155.3406 191,-155.3406"/>
<text text-anchor="middle" x="230" y="-162.3406" font-family="Helvetica,sans-Serif" font-size="10.00" fill="#000000">JS_FreeValue</text>
</a>
</g>
</g>
<!-- Node180630&#45;&gt;Node180680 -->
<g id="edge37" class="edge">
<title>Node180630&#45;&gt;Node180680</title>
<path fill="none" stroke="#191970" d="M114.1261,-152.1146C135.6801,-154.4818 159.9952,-157.1522 180.766,-159.4334"/>
<polygon fill="#191970" stroke="#191970" points="180.6374,-162.9403 190.9597,-160.553 181.4016,-155.9821 180.6374,-162.9403"/>
</g>
<!-- Node180689 -->
<g id="node25" class="node">
<title>Node180689</title>
<g id="a_node25"><a xlink:href="quickjs_8c.html#a11498940707b6928b86da6844ef8f2a1" target="_top" xlink:title="js_symbol_to_atom">
<polygon fill="none" stroke="#000000" points="179.5,-117.3406 179.5,-136.3406 280.5,-136.3406 280.5,-117.3406 179.5,-117.3406"/>
<text text-anchor="middle" x="230" y="-124.3406" font-family="Helvetica,sans-Serif" font-size="10.00" fill="#000000">js_symbol_to_atom</text>
</a>
</g>
</g>
<!-- Node180630&#45;&gt;Node180689 -->
<g id="edge38" class="edge">
<title>Node180630&#45;&gt;Node180689</title>
<path fill="none" stroke="#191970" d="M114.1261,-139.5667C131.8148,-137.624 151.3631,-135.477 169.2859,-133.5086"/>
<polygon fill="#191970" stroke="#191970" points="169.7798,-136.9755 179.3379,-132.4047 169.0155,-130.0174 169.7798,-136.9755"/>
</g>
<!-- Node180690 -->
<g id="node26" class="node">
<title>Node180690</title>
<g id="a_node26"><a xlink:href="quickjs_8c.html#a726b00d108e0a0f4d958c36c2e426a64" target="_top" xlink:title="JS_ThrowTypeErrorNotAnObject">
<polygon fill="none" stroke="#000000" points="150,-79.3406 150,-98.3406 310,-98.3406 310,-79.3406 150,-79.3406"/>
<text text-anchor="middle" x="230" y="-86.3406" font-family="Helvetica,sans-Serif" font-size="10.00" fill="#000000">JS_ThrowTypeErrorNotAnObject</text>
</a>
</g>
</g>
<!-- Node180630&#45;&gt;Node180690 -->
<g id="edge39" class="edge">
<title>Node180630&#45;&gt;Node180690</title>
<path fill="none" stroke="#191970" d="M77.7104,-136.2964C96.3345,-127.9757 124.5907,-115.9951 150,-107.8406 157.8273,-105.3287 166.1812,-102.9854 174.4288,-100.862"/>
<polygon fill="#191970" stroke="#191970" points="175.5336,-104.194 184.3936,-98.3845 173.8446,-97.4008 175.5336,-104.194"/>
</g>
<!-- Node180691 -->
<g id="node27" class="node">
<title>Node180691</title>
<g id="a_node27"><a xlink:href="quickjs_8c.html#abda92b710bb8f585930b1072d9d69917" target="_top" xlink:title="JS_ThrowTypeErrorNotASymbol">
<polygon fill="none" stroke="#000000" points="150.5,-41.3406 150.5,-60.3406 309.5,-60.3406 309.5,-41.3406 150.5,-41.3406"/>
<text text-anchor="middle" x="230" y="-48.3406" font-family="Helvetica,sans-Serif" font-size="10.00" fill="#000000">JS_ThrowTypeErrorNotASymbol</text>
</a>
</g>
</g>
<!-- Node180630&#45;&gt;Node180691 -->
<g id="edge40" class="edge">
<title>Node180630&#45;&gt;Node180691</title>
<path fill="none" stroke="#191970" d="M65.7612,-136.2799C81.1761,-120.0577 114.8596,-87.2142 150,-69.8406 154.8787,-67.4286 160.0786,-65.3135 165.3958,-63.4606"/>
<polygon fill="#191970" stroke="#191970" points="166.5744,-66.7587 175.0495,-60.4007 164.4593,-60.0859 166.5744,-66.7587"/>
</g>
<!-- Node180632 -->
<g id="node3" class="node">
<title>Node180632</title>
<g id="a_node3"><a xlink:href="quickjs_8c.html#a3cadcaa2bd1e3f9359f1c006f396cfa0" target="_top" xlink:title="add_shape_property">
<polygon fill="none" stroke="#000000" points="356.5,-136.3406 356.5,-155.3406 460.5,-155.3406 460.5,-136.3406 356.5,-136.3406"/>
<text text-anchor="middle" x="408.5" y="-143.3406" font-family="Helvetica,sans-Serif" font-size="10.00" fill="#000000">add_shape_property</text>
</a>
</g>
</g>
<!-- Node180631&#45;&gt;Node180632 -->
<g id="edge2" class="edge">
<title>Node180631&#45;&gt;Node180632</title>
<path fill="none" stroke="#191970" d="M266.5207,-195.2593C280.2628,-192.1217 295.9562,-188.1954 310,-183.8406 332.6603,-176.8139 357.587,-167.1782 376.6953,-159.3682"/>
<polygon fill="#191970" stroke="#191970" points="378.2104,-162.5292 386.1144,-155.474 375.5358,-156.0603 378.2104,-162.5292"/>
</g>
<!-- Node180637 -->
<g id="node7" class="node">
<title>Node180637</title>
<g id="a_node7"><a xlink:href="quickjs_8c.html#a82dbe63adeac7849406fd48d96f39f7b" target="_top" xlink:title="js_shape_hash_link">
<polygon fill="none" stroke="#000000" points="515.5,-51.3406 515.5,-70.3406 617.5,-70.3406 617.5,-51.3406 515.5,-51.3406"/>
<text text-anchor="middle" x="566.5" y="-58.3406" font-family="Helvetica,sans-Serif" font-size="10.00" fill="#000000">js_shape_hash_link</text>
</a>
</g>
</g>
<!-- Node180631&#45;&gt;Node180637 -->
<g id="edge34" class="edge">
<title>Node180631&#45;&gt;Node180637</title>
<path fill="none" stroke="#191970" d="M266.7202,-200.1183C281.2568,-197.5846 297.4552,-192.8027 310,-183.8406 334.3804,-166.4231 322.1317,-144.9537 346,-126.8406 392.559,-91.5082 457.8964,-75.005 505.3548,-67.3489"/>
<polygon fill="#191970" stroke="#191970" points="506.14,-70.7697 515.4983,-65.8025 505.085,-63.8496 506.14,-70.7697"/>
</g>
<!-- Node180656 -->
<g id="node16" class="node">
<title>Node180656</title>
<g id="a_node16"><a xlink:href="quickjs_8c.html#ac0c5dbb01d6082796c44b1c7f7c170f1" target="_top" xlink:title="find_hashed_shape_prop">
<polygon fill="none" stroke="#000000" points="346,-13.3406 346,-32.3406 471,-32.3406 471,-13.3406 346,-13.3406"/>
<text text-anchor="middle" x="408.5" y="-20.3406" font-family="Helvetica,sans-Serif" font-size="10.00" fill="#000000">find_hashed_shape_prop</text>
</a>
</g>
</g>
<!-- Node180631&#45;&gt;Node180656 -->
<g id="edge16" class="edge">
<title>Node180631&#45;&gt;Node180656</title>
<path fill="none" stroke="#191970" d="M266.8042,-201.8983C281.8741,-199.6996 298.4486,-194.687 310,-183.8406 349.9719,-146.3084 313.6019,-110.0761 346,-65.8406 354.558,-54.1557 367.2965,-44.575 379.0447,-37.447"/>
<polygon fill="#191970" stroke="#191970" points="380.7989,-40.4758 387.7499,-32.4799 377.3297,-34.3958 380.7989,-40.4758"/>
</g>
<!-- Node180657 -->
<g id="node17" class="node">
<title>Node180657</title>
<g id="a_node17"><a xlink:href="quickjs_8c.html#a8e34657169da77ae6a386311351ed3de" target="_top" xlink:title="js_clone_shape">
<polygon fill="none" stroke="#000000" points="524.5,-203.3406 524.5,-222.3406 608.5,-222.3406 608.5,-203.3406 524.5,-203.3406"/>
<text text-anchor="middle" x="566.5" y="-210.3406" font-family="Helvetica,sans-Serif" font-size="10.00" fill="#000000">js_clone_shape</text>
</a>
</g>
</g>
<!-- Node180631&#45;&gt;Node180657 -->
<g id="edge19" class="edge">
<title>Node180631&#45;&gt;Node180657</title>
<path fill="none" stroke="#191970" d="M266.652,-203.9298C326.5189,-205.7089 445.4845,-209.2443 514.2038,-211.2865"/>
<polygon fill="#191970" stroke="#191970" points="514.2752,-214.7901 524.3748,-211.5888 514.4832,-207.7932 514.2752,-214.7901"/>
</g>
<!-- Node180660 -->
<g id="node20" class="node">
<title>Node180660</title>
<g id="a_node20"><a xlink:href="quickjs_8c.html#aed229eb80b3b03a2275471dee93c69d6" target="_top" xlink:title="js_dup_shape">
<polygon fill="none" stroke="#000000" points="370,-269.3406 370,-288.3406 447,-288.3406 447,-269.3406 370,-269.3406"/>
<text text-anchor="middle" x="408.5" y="-276.3406" font-family="Helvetica,sans-Serif" font-size="10.00" fill="#000000">js_dup_shape</text>
</a>
</g>
</g>
<!-- Node180631&#45;&gt;Node180660 -->
<g id="edge28" class="edge">
<title>Node180631&#45;&gt;Node180660</title>
<path fill="none" stroke="#191970" d="M247.2873,-212.4362C269.611,-224.5684 309.8916,-245.5888 346,-259.8406 351.6091,-262.0545 357.5845,-264.1684 363.5319,-266.1283"/>
<polygon fill="#191970" stroke="#191970" points="362.8549,-269.5854 373.4451,-269.2719 364.9709,-262.9128 362.8549,-269.5854"/>
</g>
<!-- Node180661 -->
<g id="node21" class="node">
<title>Node180661</title>
<g id="a_node21"><a xlink:href="quickjs_8c.html#a3a9f27520d96cf58aa5bd7359e9cddee" target="_top" xlink:title="js_free_shape">
<polygon fill="none" stroke="#000000" points="370,-231.3406 370,-250.3406 447,-250.3406 447,-231.3406 370,-231.3406"/>
<text text-anchor="middle" x="408.5" y="-238.3406" font-family="Helvetica,sans-Serif" font-size="10.00" fill="#000000">js_free_shape</text>
</a>
</g>
</g>
<!-- Node180631&#45;&gt;Node180661 -->
<g id="edge29" class="edge">
<title>Node180631&#45;&gt;Node180661</title>
<path fill="none" stroke="#191970" d="M266.5529,-210.6222C293.4686,-216.3521 330.3463,-224.2029 359.7673,-230.4661"/>
<polygon fill="#191970" stroke="#191970" points="359.3247,-233.9503 369.8343,-232.6093 360.7823,-227.1037 359.3247,-233.9503"/>
</g>
<!-- Node180633 -->
<g id="node4" class="node">
<title>Node180633</title>
<g id="a_node4"><a xlink:href="quickjs_8c.html#a288254c06a39c9fca740a7abdad2834e" target="_top" xlink:title="__JS_AtomIsTaggedInt">
<polygon fill="none" stroke="#000000" points="507,-127.3406 507,-146.3406 626,-146.3406 626,-127.3406 507,-127.3406"/>
<text text-anchor="middle" x="566.5" y="-134.3406" font-family="Helvetica,sans-Serif" font-size="10.00" fill="#000000">__JS_AtomIsTaggedInt</text>
</a>
</g>
</g>
<!-- Node180632&#45;&gt;Node180633 -->
<g id="edge3" class="edge">
<title>Node180632&#45;&gt;Node180633</title>
<path fill="none" stroke="#191970" d="M460.673,-142.8687C472.2599,-142.2087 484.7206,-141.4989 496.8805,-140.8063"/>
<polygon fill="#191970" stroke="#191970" points="497.2135,-144.2931 506.9983,-140.23 496.8154,-137.3044 497.2135,-144.2931"/>
</g>
<!-- Node180634 -->
<g id="node5" class="node">
<title>Node180634</title>
<g id="a_node5"><a xlink:href="quickjs_8c.html#a643df594b75933007bcdbb071b5ea8c5" target="_top" xlink:title="get_shape_prop">
<polygon fill="none" stroke="#000000" points="675.5,-355.3406 675.5,-374.3406 761.5,-374.3406 761.5,-355.3406 675.5,-355.3406"/>
<text text-anchor="middle" x="718.5" y="-362.3406" font-family="Helvetica,sans-Serif" font-size="10.00" fill="#000000">get_shape_prop</text>
</a>
</g>
</g>
<!-- Node180632&#45;&gt;Node180634 -->
<g id="edge4" class="edge">
<title>Node180632&#45;&gt;Node180634</title>
<path fill="none" stroke="#191970" d="M417.9998,-155.454C431.2198,-169.2269 455.3053,-195.7961 471,-221.8406 492.3867,-257.3307 475.8155,-280.5557 507,-307.8406 513.2525,-313.3112 609.5429,-337.8786 670.0197,-352.9184"/>
<polygon fill="#191970" stroke="#191970" points="669.2167,-356.3252 679.7653,-355.3367 670.9026,-349.5313 669.2167,-356.3252"/>
</g>
<!-- Node180635 -->
<g id="node6" class="node">
<title>Node180635</title>
<g id="a_node6"><a xlink:href="quickjs_8c.html#abbf44eaeace1104a6bef718fbf5700fe" target="_top" xlink:title="JS_DupAtom">
<polygon fill="none" stroke="#ff0000" points="681,-51.3406 681,-70.3406 756,-70.3406 756,-51.3406 681,-51.3406"/>
<text text-anchor="middle" x="718.5" y="-58.3406" font-family="Helvetica,sans-Serif" font-size="10.00" fill="#000000">JS_DupAtom</text>
</a>
</g>
</g>
<!-- Node180632&#45;&gt;Node180635 -->
<g id="edge5" class="edge">
<title>Node180632&#45;&gt;Node180635</title>
<path fill="none" stroke="#191970" d="M441.7514,-136.2659C460.8286,-130.8033 485.2403,-123.8652 507,-117.8406 564.0023,-102.0584 629.8085,-84.4137 672.681,-72.995"/>
<polygon fill="#191970" stroke="#191970" points="673.77,-76.3271 682.5335,-70.3729 671.9697,-69.5625 673.77,-76.3271"/>
</g>
<!-- Node180632&#45;&gt;Node180637 -->
<g id="edge6" class="edge">
<title>Node180632&#45;&gt;Node180637</title>
<path fill="none" stroke="#191970" d="M422.4124,-136.1624C441.1005,-123.413 475.5998,-100.7491 507,-84.8406 514.4878,-81.047 522.7232,-77.4072 530.6171,-74.1593"/>
<polygon fill="#191970" stroke="#191970" points="532.0166,-77.3692 540.0035,-70.408 529.4187,-70.8691 532.0166,-77.3692"/>
</g>
<!-- Node180639 -->
<g id="node9" class="node">
<title>Node180639</title>
<g id="a_node9"><a xlink:href="quickjs_8c.html#ae5e76f4be6214208cc91f10a192fc810" target="_top" xlink:title="js_shape_hash_unlink">
<polygon fill="none" stroke="#000000" points="662,-317.3406 662,-336.3406 775,-336.3406 775,-317.3406 662,-317.3406"/>
<text text-anchor="middle" x="718.5" y="-324.3406" font-family="Helvetica,sans-Serif" font-size="10.00" fill="#000000">js_shape_hash_unlink</text>
</a>
</g>
</g>
<!-- Node180632&#45;&gt;Node180639 -->
<g id="edge8" class="edge">
<title>Node180632&#45;&gt;Node180639</title>
<path fill="none" stroke="#191970" d="M417.0209,-155.5391C432.9897,-173.1535 469.2307,-210.544 507,-231.8406 555.3617,-259.1099 578.9827,-240.3136 626,-269.8406 645.7016,-282.2133 642.3937,-295.3175 662,-307.8406 665.1507,-309.853 668.5372,-311.6758 672.0303,-313.3225"/>
<polygon fill="#191970" stroke="#191970" points="670.862,-316.628 681.4369,-317.279 673.576,-310.1756 670.862,-316.628"/>
</g>
<!-- Node180640 -->
<g id="node10" class="node">
<title>Node180640</title>
<g id="a_node10"><a xlink:href="quickjs_8c.html#aa80740ff93b724ea7e0c280826f4a25a" target="_top" xlink:title="resize_properties">
<polygon fill="none" stroke="#ff0000" points="521,-165.3406 521,-184.3406 612,-184.3406 612,-165.3406 521,-165.3406"/>
<text text-anchor="middle" x="566.5" y="-172.3406" font-family="Helvetica,sans-Serif" font-size="10.00" fill="#000000">resize_properties</text>
</a>
</g>
</g>
<!-- Node180632&#45;&gt;Node180640 -->
<g id="edge10" class="edge">
<title>Node180632&#45;&gt;Node180640</title>
<path fill="none" stroke="#191970" d="M460.673,-155.4167C476.7514,-158.3678 494.5122,-161.6277 510.8174,-164.6204"/>
<polygon fill="#191970" stroke="#191970" points="510.2859,-168.0812 520.7534,-166.4441 511.5496,-161.1962 510.2859,-168.0812"/>
</g>
<!-- Node180655 -->
<g id="node15" class="node">
<title>Node180655</title>
<g id="a_node15"><a xlink:href="quickjs_8c.html#a11f047846c1027dc6066a5f1b2ef292a" target="_top" xlink:title="shape_hash">
<polygon fill="none" stroke="#000000" points="532,-13.3406 532,-32.3406 601,-32.3406 601,-13.3406 532,-13.3406"/>
<text text-anchor="middle" x="566.5" y="-20.3406" font-family="Helvetica,sans-Serif" font-size="10.00" fill="#000000">shape_hash</text>
</a>
</g>
</g>
<!-- Node180632&#45;&gt;Node180655 -->
<g id="edge15" class="edge">
<title>Node180632&#45;&gt;Node180655</title>
<path fill="none" stroke="#191970" d="M414.9562,-136.2774C429.1829,-115.9212 465.3032,-68.0302 507,-41.8406 511.7061,-38.8847 516.9126,-36.3509 522.2305,-34.1885"/>
<polygon fill="#191970" stroke="#191970" points="523.6421,-37.3993 531.839,-30.6866 521.2451,-30.8225 523.6421,-37.3993"/>
</g>
<!-- Node180638 -->
<g id="node8" class="node">
<title>Node180638</title>
<g id="a_node8"><a xlink:href="quickjs_8c.html#a8291bf195606b5d1b0faed795b6dc3ff" target="_top" xlink:title="get_shape_hash">
<polygon fill="none" stroke="#000000" points="811,-13.3406 811,-32.3406 899,-32.3406 899,-13.3406 811,-13.3406"/>
<text text-anchor="middle" x="855" y="-20.3406" font-family="Helvetica,sans-Serif" font-size="10.00" fill="#000000">get_shape_hash</text>
</a>
</g>
</g>
<!-- Node180637&#45;&gt;Node180638 -->
<g id="edge7" class="edge">
<title>Node180637&#45;&gt;Node180638</title>
<path fill="none" stroke="#191970" d="M609.605,-51.3305C625.9529,-47.9701 644.7765,-44.3954 662,-41.8406 708.6231,-34.9249 761.9686,-29.8911 800.7427,-26.7491"/>
<polygon fill="#191970" stroke="#191970" points="801.0819,-30.2333 810.7732,-25.9521 800.5273,-23.2553 801.0819,-30.2333"/>
</g>
<!-- Node180639&#45;&gt;Node180638 -->
<g id="edge9" class="edge">
<title>Node180639&#45;&gt;Node180638</title>
<path fill="none" stroke="#191970" d="M761.8907,-317.3046C766.7601,-314.841 771.2925,-311.7411 775,-307.8406 812.342,-268.554 842.461,-100.5135 851.9074,-42.572"/>
<polygon fill="#191970" stroke="#191970" points="855.3914,-42.9502 853.517,-32.5225 848.4795,-41.843 855.3914,-42.9502"/>
</g>
<!-- Node180641 -->
<g id="node11" class="node">
<title>Node180641</title>
<g id="a_node11"><a xlink:href="quickjs_8c.html#a7da0cfa6f27af0e1b9599d7f359edbe2" target="_top" xlink:title="get_alloc_from_shape">
<polygon fill="none" stroke="#000000" points="662.5,-203.3406 662.5,-222.3406 774.5,-222.3406 774.5,-203.3406 662.5,-203.3406"/>
<text text-anchor="middle" x="718.5" y="-210.3406" font-family="Helvetica,sans-Serif" font-size="10.00" fill="#000000">get_alloc_from_shape</text>
</a>
</g>
</g>
<!-- Node180640&#45;&gt;Node180641 -->
<g id="edge11" class="edge">
<title>Node180640&#45;&gt;Node180641</title>
<path fill="none" stroke="#191970" d="M604.856,-184.4296C624.8237,-189.4215 649.4295,-195.573 670.6334,-200.874"/>
<polygon fill="#191970" stroke="#191970" points="669.8695,-204.2906 680.4198,-203.3206 671.5673,-197.4996 669.8695,-204.2906"/>
</g>
<!-- Node180642 -->
<g id="node12" class="node">
<title>Node180642</title>
<g id="a_node12"><a xlink:href="quickjs_8c.html#a8b6c89e0f589df709eb31a92b7fac32a" target="_top" xlink:title="get_shape_from_alloc">
<polygon fill="none" stroke="#000000" points="662.5,-127.3406 662.5,-146.3406 774.5,-146.3406 774.5,-127.3406 662.5,-127.3406"/>
<text text-anchor="middle" x="718.5" y="-134.3406" font-family="Helvetica,sans-Serif" font-size="10.00" fill="#000000">get_shape_from_alloc</text>
</a>
</g>
</g>
<!-- Node180640&#45;&gt;Node180642 -->
<g id="edge12" class="edge">
<title>Node180640&#45;&gt;Node180642</title>
<path fill="none" stroke="#191970" d="M604.856,-165.2516C624.8237,-160.2597 649.4295,-154.1082 670.6334,-148.8073"/>
<polygon fill="#191970" stroke="#191970" points="671.5673,-152.1816 680.4198,-146.3607 669.8695,-145.3906 671.5673,-152.1816"/>
</g>
<!-- Node180643 -->
<g id="node13" class="node">
<title>Node180643</title>
<g id="a_node13"><a xlink:href="quickjs_8c.html#ab54e821a9b1b55dc16c4494bd410b698" target="_top" xlink:title="get_shape_size">
<polygon fill="none" stroke="#000000" points="676,-89.3406 676,-108.3406 761,-108.3406 761,-89.3406 676,-89.3406"/>
<text text-anchor="middle" x="718.5" y="-96.3406" font-family="Helvetica,sans-Serif" font-size="10.00" fill="#000000">get_shape_size</text>
</a>
</g>
</g>
<!-- Node180640&#45;&gt;Node180643 -->
<g id="edge13" class="edge">
<title>Node180640&#45;&gt;Node180643</title>
<path fill="none" stroke="#191970" d="M606.1591,-165.268C613.0487,-162.7533 619.9392,-159.6468 626,-155.8406 645.7016,-143.468 642.3937,-130.3637 662,-117.8406 665.1507,-115.8282 668.5372,-114.0054 672.0303,-112.3588"/>
<polygon fill="#191970" stroke="#191970" points="673.576,-115.5057 681.4369,-108.4023 670.862,-109.0532 673.576,-115.5057"/>
</g>
<!-- Node180646 -->
<g id="node14" class="node">
<title>Node180646</title>
<g id="a_node14"><a xlink:href="quickjs_8c.html#a78b7f6b85f2739b551ff54f16156128b" target="_top" xlink:title="js_malloc">
<polygon fill="none" stroke="#ff0000" points="689.5,-165.3406 689.5,-184.3406 747.5,-184.3406 747.5,-165.3406 689.5,-165.3406"/>
<text text-anchor="middle" x="718.5" y="-172.3406" font-family="Helvetica,sans-Serif" font-size="10.00" fill="#000000">js_malloc</text>
</a>
</g>
</g>
<!-- Node180640&#45;&gt;Node180646 -->
<g id="edge14" class="edge">
<title>Node180640&#45;&gt;Node180646</title>
<path fill="none" stroke="#191970" d="M612.105,-174.8406C633.4023,-174.8406 658.5122,-174.8406 678.9887,-174.8406"/>
<polygon fill="#191970" stroke="#191970" points="679.2295,-178.3407 689.2294,-174.8406 679.2294,-171.3407 679.2295,-178.3407"/>
</g>
<!-- Node180656&#45;&gt;Node180638 -->
<g id="edge17" class="edge">
<title>Node180656&#45;&gt;Node180638</title>
<path fill="none" stroke="#191970" d="M448.5049,-13.3301C466.3019,-9.5649 487.5826,-5.6963 507,-3.8406 610.6971,6.0693 732.3089,-5.9429 800.8411,-14.8735"/>
<polygon fill="#191970" stroke="#191970" points="800.5917,-18.3711 810.966,-16.2211 801.5153,-11.4323 800.5917,-18.3711"/>
</g>
<!-- Node180656&#45;&gt;Node180655 -->
<g id="edge18" class="edge">
<title>Node180656&#45;&gt;Node180655</title>
<path fill="none" stroke="#191970" d="M471.3998,-22.8406C488.1809,-22.8406 505.9741,-22.8406 521.5744,-22.8406"/>
<polygon fill="#191970" stroke="#191970" points="521.9849,-26.3407 531.9849,-22.8406 521.9849,-19.3407 521.9849,-26.3407"/>
</g>
<!-- Node180657&#45;&gt;Node180634 -->
<g id="edge23" class="edge">
<title>Node180657&#45;&gt;Node180634</title>
<path fill="none" stroke="#191970" d="M579.1938,-222.6486C592.221,-233.2097 612.4481,-251.042 626,-269.8406 647.8567,-300.1593 634.0594,-321.016 662,-345.8406 663.76,-347.4044 665.6534,-348.8402 667.6426,-350.1586"/>
<polygon fill="#191970" stroke="#191970" points="666.4104,-353.4748 676.8608,-355.2185 669.7788,-347.3385 666.4104,-353.4748"/>
</g>
<!-- Node180657&#45;&gt;Node180635 -->
<g id="edge25" class="edge">
<title>Node180657&#45;&gt;Node180635</title>
<path fill="none" stroke="#191970" d="M608.7396,-204.9764C615.1246,-202.2867 621.1771,-198.679 626,-193.8406 663.5102,-156.2096 624.7789,-117.7577 662,-79.8406 664.8545,-76.9327 668.1676,-74.4698 671.7306,-72.3839"/>
<polygon fill="#191970" stroke="#191970" points="673.4867,-75.4232 680.9833,-67.9364 670.4541,-69.1141 673.4867,-75.4232"/>
</g>
<!-- Node180657&#45;&gt;Node180641 -->
<g id="edge21" class="edge">
<title>Node180657&#45;&gt;Node180641</title>
<path fill="none" stroke="#191970" d="M608.8405,-212.8406C622.3298,-212.8406 637.5921,-212.8406 652.3503,-212.8406"/>
<polygon fill="#191970" stroke="#191970" points="652.4591,-216.3407 662.4591,-212.8406 652.459,-209.3407 652.4591,-216.3407"/>
</g>
<!-- Node180657&#45;&gt;Node180642 -->
<g id="edge22" class="edge">
<title>Node180657&#45;&gt;Node180642</title>
<path fill="none" stroke="#191970" d="M606.1591,-203.268C613.0487,-200.7533 619.9392,-197.6468 626,-193.8406 645.7016,-181.468 642.3937,-168.3637 662,-155.8406 665.1507,-153.8282 668.5372,-152.0054 672.0303,-150.3588"/>
<polygon fill="#191970" stroke="#191970" points="673.576,-153.5057 681.4369,-146.4023 670.862,-147.0532 673.576,-153.5057"/>
</g>
<!-- Node180657&#45;&gt;Node180643 -->
<g id="edge24" class="edge">
<title>Node180657&#45;&gt;Node180643</title>
<path fill="none" stroke="#191970" d="M608.503,-204.2709C614.841,-201.6645 620.94,-198.2675 626,-193.8406 654.1298,-169.2306 634.0594,-142.6652 662,-117.8406 663.76,-116.2769 665.6534,-114.841 667.6426,-113.5227"/>
<polygon fill="#191970" stroke="#191970" points="669.7788,-116.3428 676.8608,-108.4627 666.4104,-110.2064 669.7788,-116.3428"/>
</g>
<!-- Node180657&#45;&gt;Node180646 -->
<g id="edge27" class="edge">
<title>Node180657&#45;&gt;Node180646</title>
<path fill="none" stroke="#191970" d="M604.856,-203.2516C627.6858,-197.5442 656.5785,-190.321 679.5178,-184.5862"/>
<polygon fill="#191970" stroke="#191970" points="680.4191,-187.9687 689.2716,-182.1477 678.7213,-181.1777 680.4191,-187.9687"/>
</g>
<!-- Node180658 -->
<g id="node18" class="node">
<title>Node180658</title>
<g id="a_node18"><a xlink:href="quickjs_8c.html#a9780456a71703c53244b88831bc8fb7a" target="_top" xlink:title="add_gc_object">
<polygon fill="none" stroke="#ff0000" points="678.5,-241.3406 678.5,-260.3406 758.5,-260.3406 758.5,-241.3406 678.5,-241.3406"/>
<text text-anchor="middle" x="718.5" y="-248.3406" font-family="Helvetica,sans-Serif" font-size="10.00" fill="#000000">add_gc_object</text>
</a>
</g>
</g>
<!-- Node180657&#45;&gt;Node180658 -->
<g id="edge20" class="edge">
<title>Node180657&#45;&gt;Node180658</title>
<path fill="none" stroke="#191970" d="M604.856,-222.4296C624.8237,-227.4215 649.4295,-233.573 670.6334,-238.874"/>
<polygon fill="#191970" stroke="#191970" points="669.8695,-242.2906 680.4198,-241.3206 671.5673,-235.4996 669.8695,-242.2906"/>
</g>
<!-- Node180659 -->
<g id="node19" class="node">
<title>Node180659</title>
<g id="a_node19"><a xlink:href="quickjs_8h.html#a775522f2d084fc8fa0fcb33f390006b4" target="_top" xlink:title="JS_DupValue">
<polygon fill="none" stroke="#000000" points="680,-279.3406 680,-298.3406 757,-298.3406 757,-279.3406 680,-279.3406"/>
<text text-anchor="middle" x="718.5" y="-286.3406" font-family="Helvetica,sans-Serif" font-size="10.00" fill="#000000">JS_DupValue</text>
</a>
</g>
</g>
<!-- Node180657&#45;&gt;Node180659 -->
<g id="edge26" class="edge">
<title>Node180657&#45;&gt;Node180659</title>
<path fill="none" stroke="#191970" d="M596.2704,-222.4447C606.1056,-226.2355 616.8613,-231.077 626,-236.8406 644.3589,-248.4192 643.3076,-258.8086 662,-269.8406 665.4605,-271.883 669.171,-273.7429 672.9762,-275.4287"/>
<polygon fill="#191970" stroke="#191970" points="671.9567,-278.7908 682.5409,-279.2654 674.5628,-272.294 671.9567,-278.7908"/>
</g>
<!-- Node180662 -->
<g id="node22" class="node">
<title>Node180662</title>
<g id="a_node22"><a xlink:href="quickjs_8c.html#a6f921a6312ada5c7da7b485e24d37f54" target="_top" xlink:title="js_free_shape0">
<polygon fill="none" stroke="#ff0000" points="525,-279.3406 525,-298.3406 608,-298.3406 608,-279.3406 525,-279.3406"/>
<text text-anchor="middle" x="566.5" y="-286.3406" font-family="Helvetica,sans-Serif" font-size="10.00" fill="#000000">js_free_shape0</text>
</a>
</g>
</g>
<!-- Node180661&#45;&gt;Node180662 -->
<g id="edge30" class="edge">
<title>Node180661&#45;&gt;Node180662</title>
<path fill="none" stroke="#191970" d="M440.0939,-250.4388C464.5292,-257.8622 498.5666,-268.2026 525.166,-276.2835"/>
<polygon fill="#191970" stroke="#191970" points="524.3752,-279.7011 534.9608,-279.2591 526.41,-273.0034 524.3752,-279.7011"/>
</g>
<!-- Node180662&#45;&gt;Node180634 -->
<g id="edge32" class="edge">
<title>Node180662&#45;&gt;Node180634</title>
<path fill="none" stroke="#191970" d="M596.2704,-298.4447C606.1056,-302.2355 616.8613,-307.077 626,-312.8406 644.3589,-324.4192 643.3076,-334.8086 662,-345.8406 665.4605,-347.883 669.171,-349.7429 672.9762,-351.4287"/>
<polygon fill="#191970" stroke="#191970" points="671.9567,-354.7908 682.5409,-355.2654 674.5628,-348.294 671.9567,-354.7908"/>
</g>
<!-- Node180662&#45;&gt;Node180639 -->
<g id="edge33" class="edge">
<title>Node180662&#45;&gt;Node180639</title>
<path fill="none" stroke="#191970" d="M604.856,-298.4296C624.8237,-303.4215 649.4295,-309.573 670.6334,-314.874"/>
<polygon fill="#191970" stroke="#191970" points="669.8695,-318.2906 680.4198,-317.3206 671.5673,-311.4996 669.8695,-318.2906"/>
</g>
<!-- Node180662&#45;&gt;Node180641 -->
<g id="edge31" class="edge">
<title>Node180662&#45;&gt;Node180641</title>
<path fill="none" stroke="#191970" d="M580.5372,-279.1541C598.71,-266.9256 631.6546,-245.8038 662,-231.8406 666.6404,-229.7054 671.5918,-227.6872 676.5618,-225.8203"/>
<polygon fill="#191970" stroke="#191970" points="677.8254,-229.0856 686.0653,-222.4256 675.4706,-222.4935 677.8254,-229.0856"/>
</g>
<!-- Node180688&#45;&gt;Node180634 -->
<g id="edge36" class="edge">
<title>Node180688&#45;&gt;Node180634</title>
<path fill="none" stroke="#191970" d="M456.5974,-344.5643C513.0695,-348.9363 606.4546,-356.1661 665.1182,-360.7078"/>
<polygon fill="#191970" stroke="#191970" points="665.0536,-364.2132 675.2939,-361.4956 665.594,-357.2341 665.0536,-364.2132"/>
</g>
</g>
</svg>
        <g id="navigator" transform="translate(0 0)" fill="#404254">
                <rect fill="#f2f5e9" fill-opacity="0.5" stroke="#606060" stroke-width=".5" x="0" y="0" width="60" height="60"/>
                <use id="zoomplus" xlink:href="#zoomPlus" x="17" y="9" onmousedown="handleZoom(evt,'in')"/>
                <use id="zoomminus" xlink:href="#zoomMin" x="42" y="9" onmousedown="handleZoom(evt,'out')"/>
                <use id="reset" xlink:href="#resetDef" x="30" y="36" onmousedown="handleReset()"/>
                <g id="arrowUp" xlink:href="#dirArrow" transform="translate(30 24)" onmousedown="handlePan(0,-1)">
                  <use xlink:href="#rim" fill="#404040">
                        <set attributeName="fill" to="#808080" begin="arrowUp.mouseover" end="arrowUp.mouseout"/>
                  </use>
                  <path fill="none" stroke="white" stroke-width="1.5" d="M0,-3.0v7 M-2.5,-0.5L0,-3.0L2.5,-0.5"/>
                </g>
                <g id="arrowRight" xlink:href="#dirArrow" transform="rotate(90) translate(36 -43)" onmousedown="handlePan(1,0)">
                  <use xlink:href="#rim" fill="#404040">
                        <set attributeName="fill" to="#808080" begin="arrowRight.mouseover" end="arrowRight.mouseout"/>
                  </use>
                  <path fill="none" stroke="white" stroke-width="1.5" d="M0,-3.0v7 M-2.5,-0.5L0,-3.0L2.5,-0.5"/>
                </g>
                <g id="arrowDown" xlink:href="#dirArrow" transform="rotate(180) translate(-30 -48)" onmousedown="handlePan(0,1)">
                  <use xlink:href="#rim" fill="#404040">
                        <set attributeName="fill" to="#808080" begin="arrowDown.mouseover" end="arrowDown.mouseout"/>
                  </use>
                  <path fill="none" stroke="white" stroke-width="1.5" d="M0,-3.0v7 M-2.5,-0.5L0,-3.0L2.5,-0.5"/>
                </g>
                <g id="arrowLeft" xlink:href="#dirArrow" transform="rotate(270) translate(-36 17)" onmousedown="handlePan(-1,0)">
                  <use xlink:href="#rim" fill="#404040">
                        <set attributeName="fill" to="#808080" begin="arrowLeft.mouseover" end="arrowLeft.mouseout"/>
                  </use>
                  <path fill="none" stroke="white" stroke-width="1.5" d="M0,-3.0v7 M-2.5,-0.5L0,-3.0L2.5,-0.5"/>
                </g>
        </g>
        <svg viewBox="0 0 15 15" width="100%" height="30px" preserveAspectRatio="xMaxYMin meet">
         <g id="arrow_out" transform="scale(0.3 0.3)">
          <a xlink:href="quickjs_8c_a3865abec9986277dbff58ea314f3d82e_cgraph_org.svg" target="_base">
           <rect id="button" ry="5" rx="5" y="6" x="6" height="38" width="38"
                fill="#f2f5e9" fill-opacity="0.5" stroke="#606060" stroke-width="1.0"/>
           <path id="arrow"
             d="M 11.500037,31.436501 C 11.940474,20.09759 22.043105,11.32322 32.158766,21.979434 L 37.068811,17.246167 C 37.068811,17.246167 37.088388,32 37.088388,32 L 22.160133,31.978069 C 22.160133,31.978069 26.997745,27.140456 26.997745,27.140456 C 18.528582,18.264221 13.291696,25.230495 11.500037,31.436501 z"
             style="fill:#404040;"/>
          </a>
         </g>
        </svg>
</svg>
