<?xml version="1.0" encoding="UTF-8" standalone="no"?>
<!DOCTYPE svg PUBLIC "-//W3C//DTD SVG 1.1//EN"
 "http://www.w3.org/Graphics/SVG/1.1/DTD/svg11.dtd">
<!-- Generated by graphviz version 2.40.1 (20161225.0304)
 -->
<!-- Title: js_parse_coalesce_expr Pages: 1 -->
<svg width="1047pt" height="786pt"
 viewBox="0.00 0.00 1047.00 786.00" xmlns="http://www.w3.org/2000/svg" xmlns:xlink="http://www.w3.org/1999/xlink">
<g id="graph0" class="graph" transform="scale(1 1) rotate(0) translate(4 782)">
<title>js_parse_coalesce_expr</title>
<!-- Node322538 -->
<g id="node1" class="node">
<title>Node322538</title>
<polygon fill="#bfbfbf" stroke="#000000" points="0,-407.5 0,-426.5 122,-426.5 122,-407.5 0,-407.5"/>
<text text-anchor="middle" x="61" y="-414.5" font-family="Helvetica,sans-Serif" font-size="10.00" fill="#000000">js_parse_coalesce_expr</text>
</g>
<!-- Node322539 -->
<g id="node2" class="node">
<title>Node322539</title>
<g id="a_node2"><a xlink:href="quickjs_8c.html#a6b3c67655a0facc68b271ce3d401deb3" target="_top" xlink:title="emit_goto">
<polygon fill="none" stroke="#000000" points="472,-616.5 472,-635.5 531,-635.5 531,-616.5 472,-616.5"/>
<text text-anchor="middle" x="501.5" y="-623.5" font-family="Helvetica,sans-Serif" font-size="10.00" fill="#000000">emit_goto</text>
</a>
</g>
</g>
<!-- Node322538&#45;&gt;Node322539 -->
<g id="edge1" class="edge">
<title>Node322538&#45;&gt;Node322539</title>
<path fill="none" stroke="#191970" d="M68.3349,-426.8511C95.8082,-462.8077 197.1002,-587.1082 315,-630 363.1929,-647.5325 423.1224,-641.845 461.8302,-634.955"/>
<polygon fill="#191970" stroke="#191970" points="462.4989,-638.3907 471.6752,-633.0948 461.1992,-631.5124 462.4989,-638.3907"/>
</g>
<!-- Node322540 -->
<g id="node3" class="node">
<title>Node322540</title>
<g id="a_node3"><a xlink:href="quickjs_8c.html#a832fb9c17eacb588e93f333cf8b76522" target="_top" xlink:title="emit_op">
<polygon fill="none" stroke="#000000" points="865.5,-464.5 865.5,-483.5 916.5,-483.5 916.5,-464.5 865.5,-464.5"/>
<text text-anchor="middle" x="891" y="-471.5" font-family="Helvetica,sans-Serif" font-size="10.00" fill="#000000">emit_op</text>
</a>
</g>
</g>
<!-- Node322538&#45;&gt;Node322540 -->
<g id="edge14" class="edge">
<title>Node322538&#45;&gt;Node322540</title>
<path fill="none" stroke="#191970" d="M62.1143,-426.6624C66.8155,-463.3517 88.1282,-595.8517 158,-673 228.4494,-750.786 264.5535,-778 369.5,-778 369.5,-778 369.5,-778 635,-778 723.0684,-778 758.3882,-766.8266 818,-702 874.0407,-641.0569 887.068,-536.9081 890.09,-493.6917"/>
<polygon fill="#191970" stroke="#191970" points="893.5879,-493.8291 890.6841,-483.64 886.6001,-493.4161 893.5879,-493.8291"/>
</g>
<!-- Node322548 -->
<g id="node9" class="node">
<title>Node322548</title>
<g id="a_node9"><a xlink:href="quickjs_8c.html#a0dd0929b9f2ff5983b0027b7cce5c447" target="_top" xlink:title="new_label">
<polygon fill="none" stroke="#000000" points="742.5,-673.5 742.5,-692.5 802.5,-692.5 802.5,-673.5 742.5,-673.5"/>
<text text-anchor="middle" x="772.5" y="-680.5" font-family="Helvetica,sans-Serif" font-size="10.00" fill="#000000">new_label</text>
</a>
</g>
</g>
<!-- Node322538&#45;&gt;Node322548 -->
<g id="edge53" class="edge">
<title>Node322538&#45;&gt;Node322548</title>
<path fill="none" stroke="#191970" d="M64.5119,-426.6667C84.7192,-480.41 191.5356,-740 369.5,-740 369.5,-740 369.5,-740 501.5,-740 586.5728,-740 608.5116,-733.8096 691,-713 707.9094,-708.7342 726.176,-702.1991 741.1217,-696.316"/>
<polygon fill="#191970" stroke="#191970" points="742.4463,-699.5557 750.4159,-692.5745 739.8322,-693.0621 742.4463,-699.5557"/>
</g>
<!-- Node322550 -->
<g id="node11" class="node">
<title>Node322550</title>
<g id="a_node11"><a xlink:href="quickjs_8c.html#a555f0d4061c655933eb187026d0796af" target="_top" xlink:title="emit_label">
<polygon fill="none" stroke="#000000" points="742,-160.5 742,-179.5 803,-179.5 803,-160.5 742,-160.5"/>
<text text-anchor="middle" x="772.5" y="-167.5" font-family="Helvetica,sans-Serif" font-size="10.00" fill="#000000">emit_label</text>
</a>
</g>
</g>
<!-- Node322538&#45;&gt;Node322550 -->
<g id="edge11" class="edge">
<title>Node322538&#45;&gt;Node322550</title>
<path fill="none" stroke="#191970" d="M64.2181,-407.1623C83.1847,-351.2518 185.8831,-76 369.5,-76 369.5,-76 369.5,-76 501.5,-76 597.2402,-76 702.0219,-129.0155 748.268,-155.4176"/>
<polygon fill="#191970" stroke="#191970" points="746.5649,-158.476 756.9705,-160.4695 750.0793,-152.4221 746.5649,-158.476"/>
</g>
<!-- Node322551 -->
<g id="node12" class="node">
<title>Node322551</title>
<g id="a_node12"><a xlink:href="quickjs_8c.html#ab1c84e1eb8a5f06b9257c3c9b5a6f024" target="_top" xlink:title="js_parse_expr_binary">
<polygon fill="none" stroke="#000000" points="315,-180.5 315,-199.5 424,-199.5 424,-180.5 315,-180.5"/>
<text text-anchor="middle" x="369.5" y="-187.5" font-family="Helvetica,sans-Serif" font-size="10.00" fill="#000000">js_parse_expr_binary</text>
</a>
</g>
</g>
<!-- Node322538&#45;&gt;Node322551 -->
<g id="edge15" class="edge">
<title>Node322538&#45;&gt;Node322551</title>
<path fill="none" stroke="#191970" d="M74.2559,-407.2461C122.4135,-371.8108 288.3967,-249.6773 347.9877,-205.8291"/>
<polygon fill="#191970" stroke="#191970" points="350.3134,-208.4633 356.2935,-199.7176 346.1647,-202.8252 350.3134,-208.4633"/>
</g>
<!-- Node322643 -->
<g id="node16" class="node">
<title>Node322643</title>
<g id="a_node16"><a xlink:href="quickjs_8c.html#a75a3798e2045f6e403c1ef467126d1fb" target="_top" xlink:title="next_token">
<polygon fill="none" stroke="#ff0000" points="740,-84.5 740,-103.5 805,-103.5 805,-84.5 740,-84.5"/>
<text text-anchor="middle" x="772.5" y="-91.5" font-family="Helvetica,sans-Serif" font-size="10.00" fill="#000000">next_token</text>
</a>
</g>
</g>
<!-- Node322538&#45;&gt;Node322643 -->
<g id="edge54" class="edge">
<title>Node322538&#45;&gt;Node322643</title>
<path fill="none" stroke="#191970" d="M61.2732,-407.4703C62.95,-365.9703 74.8157,-198.7638 158,-102 226.0318,-22.8623 265.1395,0 369.5,0 369.5,0 369.5,0 501.5,0 597.2402,0 702.0219,-53.0155 748.268,-79.4176"/>
<polygon fill="#191970" stroke="#191970" points="746.5649,-82.476 756.9705,-84.4695 750.0793,-76.4221 746.5649,-82.476"/>
</g>
<!-- Node323099 -->
<g id="node19" class="node">
<title>Node323099</title>
<g id="a_node19"><a xlink:href="quickjs_8c.html#a2af8c0e05d949d0ae23d94c8e73e5494" target="_top" xlink:title="js_parse_logical_and_or">
<polygon fill="none" stroke="#000000" points="158,-407.5 158,-426.5 279,-426.5 279,-407.5 158,-407.5"/>
<text text-anchor="middle" x="218.5" y="-414.5" font-family="Helvetica,sans-Serif" font-size="10.00" fill="#000000">js_parse_logical_and_or</text>
</a>
</g>
</g>
<!-- Node322538&#45;&gt;Node323099 -->
<g id="edge45" class="edge">
<title>Node322538&#45;&gt;Node323099</title>
<path fill="none" stroke="#191970" d="M122.3446,-417C130.6345,-417 139.1952,-417 147.6339,-417"/>
<polygon fill="#191970" stroke="#191970" points="147.8405,-420.5001 157.8405,-417 147.8404,-413.5001 147.8405,-420.5001"/>
</g>
<!-- Node322539&#45;&gt;Node322540 -->
<g id="edge2" class="edge">
<title>Node322539&#45;&gt;Node322540</title>
<path fill="none" stroke="#191970" d="M531.0135,-627.202C600.2567,-629.4851 770.8494,-631.8303 818,-602 857.4899,-577.0163 877.7915,-522.5176 886.1824,-493.3436"/>
<polygon fill="#191970" stroke="#191970" points="889.6079,-494.0829 888.8302,-483.5167 882.849,-492.2617 889.6079,-494.0829"/>
</g>
<!-- Node322545 -->
<g id="node6" class="node">
<title>Node322545</title>
<g id="a_node6"><a xlink:href="quickjs_8c.html#aa4ce3850b0d5830d9a617fbbdaddfa79" target="_top" xlink:title="emit_u32">
<polygon fill="none" stroke="#000000" points="863,-312.5 863,-331.5 919,-331.5 919,-312.5 863,-312.5"/>
<text text-anchor="middle" x="891" y="-319.5" font-family="Helvetica,sans-Serif" font-size="10.00" fill="#000000">emit_u32</text>
</a>
</g>
</g>
<!-- Node322539&#45;&gt;Node322545 -->
<g id="edge5" class="edge">
<title>Node322539&#45;&gt;Node322545</title>
<path fill="none" stroke="#191970" d="M503.077,-616.2414C508.2793,-587.2285 527.5948,-500.6873 579,-455 589.4142,-445.7442 805.6765,-385.5007 818,-379 838.6863,-368.0879 859.4319,-351.1748 873.4913,-338.6026"/>
<polygon fill="#191970" stroke="#191970" points="875.9319,-341.1136 880.9456,-331.7802 871.2058,-335.9498 875.9319,-341.1136"/>
</g>
<!-- Node322546 -->
<g id="node7" class="node">
<title>Node322546</title>
<g id="a_node7"><a xlink:href="quickjs_8c.html#ac9b65f8f0ed192fa6be0984d92550f34" target="_top" xlink:title="js_is_live_code">
<polygon fill="none" stroke="#000000" points="593.5,-388.5 593.5,-407.5 676.5,-407.5 676.5,-388.5 593.5,-388.5"/>
<text text-anchor="middle" x="635" y="-395.5" font-family="Helvetica,sans-Serif" font-size="10.00" fill="#000000">js_is_live_code</text>
</a>
</g>
</g>
<!-- Node322539&#45;&gt;Node322546 -->
<g id="edge7" class="edge">
<title>Node322539&#45;&gt;Node322546</title>
<path fill="none" stroke="#191970" d="M502.5421,-616.054C506.4298,-583.7541 522.8816,-480.5163 579,-422 582.6584,-418.1853 587.0222,-414.9454 591.6766,-412.2012"/>
<polygon fill="#191970" stroke="#191970" points="593.5549,-415.1724 600.8764,-407.5143 590.3773,-408.9352 593.5549,-415.1724"/>
</g>
<!-- Node322539&#45;&gt;Node322548 -->
<g id="edge9" class="edge">
<title>Node322539&#45;&gt;Node322548</title>
<path fill="none" stroke="#191970" d="M531.0176,-632.2085C579.7328,-642.4549 677.0383,-662.9213 732.0968,-674.5019"/>
<polygon fill="#191970" stroke="#191970" points="731.6852,-677.9918 742.1915,-676.6251 733.126,-671.1417 731.6852,-677.9918"/>
</g>
<!-- Node322541 -->
<g id="node4" class="node">
<title>Node322541</title>
<g id="a_node4"><a xlink:href="cutils_8h.html#a8ba08f82c43549fcb3c939229498354d" target="_top" xlink:title="dbuf_put_u32">
<polygon fill="none" stroke="#ff0000" points="964,-407.5 964,-426.5 1039,-426.5 1039,-407.5 964,-407.5"/>
<text text-anchor="middle" x="1001.5" y="-414.5" font-family="Helvetica,sans-Serif" font-size="10.00" fill="#000000">dbuf_put_u32</text>
</a>
</g>
</g>
<!-- Node322540&#45;&gt;Node322541 -->
<g id="edge3" class="edge">
<title>Node322540&#45;&gt;Node322541</title>
<path fill="none" stroke="#191970" d="M909.7448,-464.3307C927.3926,-455.2273 954.0348,-441.4843 974.0714,-431.1487"/>
<polygon fill="#191970" stroke="#191970" points="975.7493,-434.2215 983.032,-426.5265 972.5402,-428.0004 975.7493,-434.2215"/>
</g>
<!-- Node322544 -->
<g id="node5" class="node">
<title>Node322544</title>
<g id="a_node5"><a xlink:href="cutils_8h.html#aeed81d4787ccdbd55baa9b5fd6717e88" target="_top" xlink:title="dbuf_putc">
<polygon fill="none" stroke="#ff0000" points="972,-464.5 972,-483.5 1031,-483.5 1031,-464.5 972,-464.5"/>
<text text-anchor="middle" x="1001.5" y="-471.5" font-family="Helvetica,sans-Serif" font-size="10.00" fill="#000000">dbuf_putc</text>
</a>
</g>
</g>
<!-- Node322540&#45;&gt;Node322544 -->
<g id="edge4" class="edge">
<title>Node322540&#45;&gt;Node322544</title>
<path fill="none" stroke="#191970" d="M916.6287,-474C929.9934,-474 946.6413,-474 961.6436,-474"/>
<polygon fill="#191970" stroke="#191970" points="961.7063,-477.5001 971.7063,-474 961.7063,-470.5001 961.7063,-477.5001"/>
</g>
<!-- Node322545&#45;&gt;Node322541 -->
<g id="edge6" class="edge">
<title>Node322545&#45;&gt;Node322541</title>
<path fill="none" stroke="#191970" d="M902.4092,-331.8089C921.3659,-348.1065 959.5401,-380.9258 982.5781,-400.7323"/>
<polygon fill="#191970" stroke="#191970" points="980.4528,-403.5208 990.3174,-407.386 985.0162,-398.2127 980.4528,-403.5208"/>
</g>
<!-- Node322547 -->
<g id="node8" class="node">
<title>Node322547</title>
<g id="a_node8"><a xlink:href="quickjs_8c.html#a54ae8eded33038911c0fde73470ed951" target="_top" xlink:title="get_prev_opcode">
<polygon fill="none" stroke="#000000" points="727,-350.5 727,-369.5 818,-369.5 818,-350.5 727,-350.5"/>
<text text-anchor="middle" x="772.5" y="-357.5" font-family="Helvetica,sans-Serif" font-size="10.00" fill="#000000">get_prev_opcode</text>
</a>
</g>
</g>
<!-- Node322546&#45;&gt;Node322547 -->
<g id="edge8" class="edge">
<title>Node322546&#45;&gt;Node322547</title>
<path fill="none" stroke="#191970" d="M669.6971,-388.411C687.3656,-383.5281 709.0485,-377.5357 727.939,-372.315"/>
<polygon fill="#191970" stroke="#191970" points="729.1077,-375.6233 737.814,-369.5859 727.243,-368.8762 729.1077,-375.6233"/>
</g>
<!-- Node322549 -->
<g id="node10" class="node">
<title>Node322549</title>
<g id="a_node10"><a xlink:href="quickjs_8c.html#a217c750ab1ff788ada118a7f6736cb6e" target="_top" xlink:title="new_label_fd">
<polygon fill="none" stroke="#000000" points="854,-673.5 854,-692.5 928,-692.5 928,-673.5 854,-673.5"/>
<text text-anchor="middle" x="891" y="-680.5" font-family="Helvetica,sans-Serif" font-size="10.00" fill="#000000">new_label_fd</text>
</a>
</g>
</g>
<!-- Node322548&#45;&gt;Node322549 -->
<g id="edge10" class="edge">
<title>Node322548&#45;&gt;Node322549</title>
<path fill="none" stroke="#191970" d="M802.7092,-683C815.0585,-683 829.6439,-683 843.3645,-683"/>
<polygon fill="#191970" stroke="#191970" points="843.6368,-686.5001 853.6368,-683 843.6367,-679.5001 843.6368,-686.5001"/>
</g>
<!-- Node322550&#45;&gt;Node322540 -->
<g id="edge12" class="edge">
<title>Node322550&#45;&gt;Node322540</title>
<path fill="none" stroke="#191970" d="M799.7932,-179.6847C806.5884,-183.2505 813.274,-187.9456 818,-194 859.3889,-247.0227 836.984,-275.9239 854,-341 864.6104,-381.5782 878.0045,-428.8294 885.4182,-454.6681"/>
<polygon fill="#191970" stroke="#191970" points="882.075,-455.7067 888.2038,-464.349 888.802,-453.771 882.075,-455.7067"/>
</g>
<!-- Node322550&#45;&gt;Node322545 -->
<g id="edge13" class="edge">
<title>Node322550&#45;&gt;Node322545</title>
<path fill="none" stroke="#191970" d="M796.8534,-179.6557C804.2298,-183.3759 811.9669,-188.1623 818,-194 850.9473,-225.8801 873.5399,-275.853 884.1292,-302.9641"/>
<polygon fill="#191970" stroke="#191970" points="880.905,-304.3338 887.7077,-312.4562 887.455,-301.8644 880.905,-304.3338"/>
</g>
<!-- Node322551&#45;&gt;Node322540 -->
<g id="edge16" class="edge">
<title>Node322551&#45;&gt;Node322540</title>
<path fill="none" stroke="#191970" d="M371.8387,-199.6588C383.7634,-246.4674 442.6324,-450.3805 579,-522 673.0546,-571.3969 716.8099,-558.3555 818,-526 839.6016,-519.0929 860.2686,-503.1952 874.0631,-490.7832"/>
<polygon fill="#191970" stroke="#191970" points="876.807,-493.0086 881.7109,-483.617 872.0207,-487.9006 876.807,-493.0086"/>
</g>
<!-- Node322551&#45;&gt;Node322551 -->
<g id="edge17" class="edge">
<title>Node322551&#45;&gt;Node322551</title>
<path fill="none" stroke="#191970" d="M349.155,-199.7571C339.2574,-208.5653 346.0391,-218 369.5,-218 384.5297,-218 392.7142,-214.128 394.0535,-209.0292"/>
<polygon fill="#191970" stroke="#191970" points="397.1652,-207.4164 389.845,-199.7571 390.791,-210.3096 397.1652,-207.4164"/>
</g>
<!-- Node322552 -->
<g id="node13" class="node">
<title>Node322552</title>
<g id="a_node13"><a xlink:href="quickjs_8c.html#af99673e7430294cf15dc24dc5dac227f" target="_top" xlink:title="js_parse_unary">
<polygon fill="none" stroke="#000000" points="460,-312.5 460,-331.5 543,-331.5 543,-312.5 460,-312.5"/>
<text text-anchor="middle" x="501.5" y="-319.5" font-family="Helvetica,sans-Serif" font-size="10.00" fill="#000000">js_parse_unary</text>
</a>
</g>
</g>
<!-- Node322551&#45;&gt;Node322552 -->
<g id="edge18" class="edge">
<title>Node322551&#45;&gt;Node322552</title>
<path fill="none" stroke="#191970" d="M379.4215,-199.9215C401.8914,-222.3914 456.8731,-277.3731 484.733,-305.233"/>
<polygon fill="#191970" stroke="#191970" points="482.2762,-307.7259 491.8222,-312.3222 487.2259,-302.7762 482.2762,-307.7259"/>
</g>
<!-- Node322551&#45;&gt;Node322643 -->
<g id="edge44" class="edge">
<title>Node322551&#45;&gt;Node322643</title>
<path fill="none" stroke="#191970" d="M406.9119,-180.4779C448.7795,-169.8769 518.6608,-152.3472 579,-138 630.8431,-125.673 690.679,-112.1791 729.9226,-103.4287"/>
<polygon fill="#191970" stroke="#191970" points="730.9292,-106.7903 739.9295,-101.2006 729.4079,-99.9576 730.9292,-106.7903"/>
</g>
<!-- Node322552&#45;&gt;Node322540 -->
<g id="edge19" class="edge">
<title>Node322552&#45;&gt;Node322540</title>
<path fill="none" stroke="#191970" d="M502.3863,-331.6688C505.7465,-361.9834 520.6494,-455.3818 579,-493 666.922,-549.6827 799.3409,-510.2278 859.3913,-487.2791"/>
<polygon fill="#191970" stroke="#191970" points="860.6945,-490.5276 868.7274,-483.6194 858.1398,-484.0105 860.6945,-490.5276"/>
</g>
<!-- Node322552&#45;&gt;Node322547 -->
<g id="edge25" class="edge">
<title>Node322552&#45;&gt;Node322547</title>
<path fill="none" stroke="#191970" d="M536.0006,-331.5754C549.3448,-334.9841 564.7982,-338.5746 579,-341 625.1216,-348.8767 678.0271,-353.7939 716.8483,-356.6473"/>
<polygon fill="#191970" stroke="#191970" points="716.68,-360.1441 726.9034,-357.3634 717.1773,-353.1618 716.68,-360.1441"/>
</g>
<!-- Node322552&#45;&gt;Node322552 -->
<g id="edge38" class="edge">
<title>Node322552&#45;&gt;Node322552</title>
<path fill="none" stroke="#191970" d="M481.155,-331.7571C471.2574,-340.5653 478.0391,-350 501.5,-350 516.5297,-350 524.7142,-346.128 526.0535,-341.0292"/>
<polygon fill="#191970" stroke="#191970" points="529.1652,-339.4164 521.845,-331.7571 522.791,-342.3096 529.1652,-339.4164"/>
</g>
<!-- Node322553 -->
<g id="node14" class="node">
<title>Node322553</title>
<g id="a_node14"><a xlink:href="quickjs_8c.html#a069baa06a1214006c4ec473875de010e" target="_top" xlink:title="get_lvalue">
<polygon fill="none" stroke="#ff0000" points="604.5,-464.5 604.5,-483.5 665.5,-483.5 665.5,-464.5 604.5,-464.5"/>
<text text-anchor="middle" x="635" y="-471.5" font-family="Helvetica,sans-Serif" font-size="10.00" fill="#000000">get_lvalue</text>
</a>
</g>
</g>
<!-- Node322552&#45;&gt;Node322553 -->
<g id="edge20" class="edge">
<title>Node322552&#45;&gt;Node322553</title>
<path fill="none" stroke="#191970" d="M508.9173,-331.6804C522.3971,-349.1369 552.018,-386.8753 579,-417 591.4835,-430.9375 606.3573,-446.0107 617.6375,-457.1543"/>
<polygon fill="#191970" stroke="#191970" points="615.2094,-459.6752 624.7993,-464.179 620.1111,-454.6779 615.2094,-459.6752"/>
</g>
<!-- Node322562 -->
<g id="node15" class="node">
<title>Node322562</title>
<g id="a_node15"><a xlink:href="quickjs_8c.html#a2ecfb6abb190101748202a8aa5821fba" target="_top" xlink:title="js_parse_delete">
<polygon fill="none" stroke="#ff0000" points="592.5,-312.5 592.5,-331.5 677.5,-331.5 677.5,-312.5 592.5,-312.5"/>
<text text-anchor="middle" x="635" y="-319.5" font-family="Helvetica,sans-Serif" font-size="10.00" fill="#000000">js_parse_delete</text>
</a>
</g>
</g>
<!-- Node322552&#45;&gt;Node322562 -->
<g id="edge26" class="edge">
<title>Node322552&#45;&gt;Node322562</title>
<path fill="none" stroke="#191970" d="M543.0084,-315.6987C555.3292,-315.2399 568.9956,-315.1329 581.9436,-315.3779"/>
<polygon fill="#191970" stroke="#191970" points="582.0444,-318.8817 592.1342,-315.6497 582.2311,-311.8842 582.0444,-318.8817"/>
</g>
<!-- Node322552&#45;&gt;Node322643 -->
<g id="edge39" class="edge">
<title>Node322552&#45;&gt;Node322643</title>
<path fill="none" stroke="#191970" d="M506.3392,-312.1869C517.0654,-291.1911 544.6306,-241.2072 579,-209 628.4979,-162.616 699.8357,-126.2611 740.6382,-107.6605"/>
<polygon fill="#191970" stroke="#191970" points="742.1451,-110.8206 749.8357,-103.5332 739.2792,-104.4341 742.1451,-110.8206"/>
</g>
<!-- Node322675 -->
<g id="node17" class="node">
<title>Node322675</title>
<g id="a_node17"><a xlink:href="quickjs_8c.html#acdcc62310b4f6f73fa7bc7267b18b1d4" target="_top" xlink:title="js_parse_postfix_expr">
<polygon fill="none" stroke="#ff0000" points="579,-256.5 579,-275.5 691,-275.5 691,-256.5 579,-256.5"/>
<text text-anchor="middle" x="635" y="-263.5" font-family="Helvetica,sans-Serif" font-size="10.00" fill="#000000">js_parse_postfix_expr</text>
</a>
</g>
</g>
<!-- Node322552&#45;&gt;Node322675 -->
<g id="edge31" class="edge">
<title>Node322552&#45;&gt;Node322675</title>
<path fill="none" stroke="#191970" d="M524.4495,-312.3733C546.0719,-303.3032 578.6728,-289.6279 602.8753,-279.4755"/>
<polygon fill="#191970" stroke="#191970" points="604.4823,-282.5969 612.35,-275.5011 601.7746,-276.1419 604.4823,-282.5969"/>
</g>
<!-- Node323016 -->
<g id="node18" class="node">
<title>Node323016</title>
<g id="a_node18"><a xlink:href="quickjs_8c.html#ab4795d29c6811027d6efbcf1ca715b1e" target="_top" xlink:title="put_lvalue">
<polygon fill="none" stroke="#ff0000" points="604.5,-218.5 604.5,-237.5 665.5,-237.5 665.5,-218.5 604.5,-218.5"/>
<text text-anchor="middle" x="635" y="-225.5" font-family="Helvetica,sans-Serif" font-size="10.00" fill="#000000">put_lvalue</text>
</a>
</g>
</g>
<!-- Node322552&#45;&gt;Node323016 -->
<g id="edge40" class="edge">
<title>Node322552&#45;&gt;Node323016</title>
<path fill="none" stroke="#191970" d="M509.0472,-312.3139C521.8322,-296.5152 549.2746,-265.1452 579,-247 583.8196,-244.058 589.1531,-241.5031 594.5573,-239.3048"/>
<polygon fill="#191970" stroke="#191970" points="596.0929,-242.4691 604.2653,-235.7264 593.6719,-235.901 596.0929,-242.4691"/>
</g>
<!-- Node322553&#45;&gt;Node322540 -->
<g id="edge21" class="edge">
<title>Node322553&#45;&gt;Node322540</title>
<path fill="none" stroke="#191970" d="M665.6253,-474C713.204,-474 804.6492,-474 855.204,-474"/>
<polygon fill="#191970" stroke="#191970" points="855.3408,-477.5001 865.3408,-474 855.3407,-470.5001 855.3408,-477.5001"/>
</g>
<!-- Node322553&#45;&gt;Node322545 -->
<g id="edge22" class="edge">
<title>Node322553&#45;&gt;Node322545</title>
<path fill="none" stroke="#191970" d="M665.5478,-469.0641C703.9267,-461.7129 770.5048,-445.0533 818,-412 845.5135,-392.8526 868.1352,-360.5062 880.5783,-340.252"/>
<polygon fill="#191970" stroke="#191970" points="883.5974,-342.0227 885.7034,-331.6393 877.5819,-338.4431 883.5974,-342.0227"/>
</g>
<!-- Node322553&#45;&gt;Node322547 -->
<g id="edge23" class="edge">
<title>Node322553&#45;&gt;Node322547</title>
<path fill="none" stroke="#191970" d="M646.7232,-464.2804C670.3669,-444.6777 723.9799,-400.2276 752.9879,-376.1773"/>
<polygon fill="#191970" stroke="#191970" points="755.3421,-378.772 760.8065,-369.695 750.8743,-373.3832 755.3421,-378.772"/>
</g>
<!-- Node322553&#45;&gt;Node322548 -->
<g id="edge24" class="edge">
<title>Node322553&#45;&gt;Node322548</title>
<path fill="none" stroke="#191970" d="M641.2654,-483.5234C662.561,-515.8927 732.3914,-622.0349 760.5604,-664.8519"/>
<polygon fill="#191970" stroke="#191970" points="757.7776,-666.9902 766.1978,-673.4207 763.6256,-663.1428 757.7776,-666.9902"/>
</g>
<!-- Node322562&#45;&gt;Node322540 -->
<g id="edge27" class="edge">
<title>Node322562&#45;&gt;Node322540</title>
<path fill="none" stroke="#191970" d="M677.5722,-315.8482C717.2366,-312.4049 776.3553,-313.3489 818,-341 858.2589,-367.7309 878.3072,-424.4589 886.4358,-454.4581"/>
<polygon fill="#191970" stroke="#191970" points="883.0547,-455.364 888.9067,-464.196 889.8397,-453.6423 883.0547,-455.364"/>
</g>
<!-- Node322562&#45;&gt;Node322547 -->
<g id="edge28" class="edge">
<title>Node322562&#45;&gt;Node322547</title>
<path fill="none" stroke="#191970" d="M669.6971,-331.589C687.3656,-336.4719 709.0485,-342.4643 727.939,-347.685"/>
<polygon fill="#191970" stroke="#191970" points="727.243,-351.1238 737.814,-350.4141 729.1077,-344.3767 727.243,-351.1238"/>
</g>
<!-- Node322562&#45;&gt;Node322552 -->
<g id="edge29" class="edge">
<title>Node322562&#45;&gt;Node322552</title>
<path fill="none" stroke="#191970" d="M592.1342,-328.3503C579.7177,-328.7833 566.0312,-328.8645 553.1385,-328.5938"/>
<polygon fill="#191970" stroke="#191970" points="553.1053,-325.0915 543.0084,-328.3013 552.9032,-332.0886 553.1053,-325.0915"/>
</g>
<!-- Node322562&#45;&gt;Node322643 -->
<g id="edge30" class="edge">
<title>Node322562&#45;&gt;Node322643</title>
<path fill="none" stroke="#191970" d="M677.608,-312.8397C682.621,-310.3173 687.2695,-307.101 691,-303 737.716,-251.6447 696.6083,-213.4187 727,-151 734.244,-136.1222 745.9496,-121.5799 755.6737,-110.9078"/>
<polygon fill="#191970" stroke="#191970" points="758.2928,-113.2321 762.6167,-103.5598 753.2048,-108.4246 758.2928,-113.2321"/>
</g>
<!-- Node322675&#45;&gt;Node322540 -->
<g id="edge33" class="edge">
<title>Node322675&#45;&gt;Node322540</title>
<path fill="none" stroke="#191970" d="M691.1642,-267.5612C730.6606,-271.4111 782.5779,-282.3549 818,-312 862.6338,-349.3546 881.1287,-419.6418 887.7698,-454.0292"/>
<polygon fill="#191970" stroke="#191970" points="884.3852,-454.986 889.5881,-464.2153 891.2762,-453.7558 884.3852,-454.986"/>
</g>
<!-- Node322675&#45;&gt;Node322545 -->
<g id="edge34" class="edge">
<title>Node322675&#45;&gt;Node322545</title>
<path fill="none" stroke="#191970" d="M691.3026,-258.8102C728.2579,-256.1124 777.1316,-256.4383 818,-270 839.5249,-277.1428 860.2025,-293.0077 874.0204,-305.3479"/>
<polygon fill="#191970" stroke="#191970" points="871.975,-308.2249 881.6838,-312.4664 876.739,-303.0962 871.975,-308.2249"/>
</g>
<!-- Node322675&#45;&gt;Node322547 -->
<g id="edge35" class="edge">
<title>Node322675&#45;&gt;Node322547</title>
<path fill="none" stroke="#191970" d="M649.8092,-275.632C661.1393,-283.038 677.1235,-293.5657 691,-303 711.3608,-316.8428 734.3253,-332.9492 750.6759,-344.5026"/>
<polygon fill="#191970" stroke="#191970" points="748.8363,-347.4886 759.0206,-350.4095 752.8807,-341.7751 748.8363,-347.4886"/>
</g>
<!-- Node322675&#45;&gt;Node322550 -->
<g id="edge32" class="edge">
<title>Node322675&#45;&gt;Node322550</title>
<path fill="none" stroke="#191970" d="M670.6838,-256.4653C677.6675,-253.8966 684.7557,-250.7605 691,-247 717.7975,-230.8618 743.0673,-204.6419 758.1674,-187.3574"/>
<polygon fill="#191970" stroke="#191970" points="760.8959,-189.5519 764.7254,-179.6733 755.5714,-185.0076 760.8959,-189.5519"/>
</g>
<!-- Node322675&#45;&gt;Node322643 -->
<g id="edge37" class="edge">
<title>Node322675&#45;&gt;Node322643</title>
<path fill="none" stroke="#191970" d="M677.1387,-256.385C682.2246,-253.9332 687.0183,-250.8576 691,-247 723.7277,-215.2928 704.5078,-190.6301 727,-151 735.1679,-136.6086 746.8541,-122.0561 756.3378,-111.2575"/>
<polygon fill="#191970" stroke="#191970" points="758.9683,-113.5667 763.0659,-103.7963 753.7698,-108.8789 758.9683,-113.5667"/>
</g>
<!-- Node322675&#45;&gt;Node322675 -->
<g id="edge36" class="edge">
<title>Node322675&#45;&gt;Node322675</title>
<path fill="none" stroke="#191970" d="M614.655,-275.7571C604.7574,-284.5653 611.5391,-294 635,-294 650.0297,-294 658.2142,-290.128 659.5535,-285.0292"/>
<polygon fill="#191970" stroke="#191970" points="662.6652,-283.4164 655.345,-275.7571 656.291,-286.3096 662.6652,-283.4164"/>
</g>
<!-- Node323016&#45;&gt;Node322540 -->
<g id="edge42" class="edge">
<title>Node323016&#45;&gt;Node322540</title>
<path fill="none" stroke="#191970" d="M665.5603,-226.5745C705.4973,-226.398 775.3543,-232.1131 818,-270 832.4445,-282.8327 870.7253,-406.4709 885.2769,-454.7876"/>
<polygon fill="#191970" stroke="#191970" points="881.9273,-455.8029 888.1508,-464.3772 888.6327,-453.7933 881.9273,-455.8029"/>
</g>
<!-- Node323016&#45;&gt;Node322545 -->
<g id="edge43" class="edge">
<title>Node323016&#45;&gt;Node322545</title>
<path fill="none" stroke="#191970" d="M665.547,-218.5731C674.3506,-214.926 683.5734,-210.1234 691,-204 712.9706,-185.8849 701.8358,-164.3277 727,-151 762.7411,-132.0705 784.251,-128.7119 818,-151 869.9944,-185.3376 885.0831,-265.1157 889.3601,-302.2845"/>
<polygon fill="#191970" stroke="#191970" points="885.8894,-302.7531 890.3692,-312.3542 892.8545,-302.055 885.8894,-302.7531"/>
</g>
<!-- Node323016&#45;&gt;Node322550 -->
<g id="edge41" class="edge">
<title>Node323016&#45;&gt;Node322550</title>
<path fill="none" stroke="#191970" d="M657.7053,-218.4225C680.2959,-208.8934 715.1618,-194.1863 740.5431,-183.48"/>
<polygon fill="#191970" stroke="#191970" points="741.9074,-186.7032 749.7609,-179.5917 739.1868,-180.2535 741.9074,-186.7032"/>
</g>
<!-- Node323099&#45;&gt;Node322539 -->
<g id="edge46" class="edge">
<title>Node323099&#45;&gt;Node322539</title>
<path fill="none" stroke="#191970" d="M220.3056,-426.7239C226.7028,-458.1727 251.415,-557.6546 315,-602 358.2299,-632.1494 421.1085,-633.8166 461.6596,-630.9352"/>
<polygon fill="#191970" stroke="#191970" points="462.0403,-634.4157 471.7141,-630.0952 461.4574,-627.44 462.0403,-634.4157"/>
</g>
<!-- Node323099&#45;&gt;Node322540 -->
<g id="edge48" class="edge">
<title>Node323099&#45;&gt;Node322540</title>
<path fill="none" stroke="#191970" d="M226.6478,-426.6837C258.0532,-462.8576 375.7838,-588 501.5,-588 501.5,-588 501.5,-588 635,-588 717.8075,-588 745.6057,-593.2015 818,-553 844.536,-538.2642 866.8035,-510.3939 879.5255,-492.0081"/>
<polygon fill="#191970" stroke="#191970" points="882.4901,-493.8709 885.1308,-483.6105 876.668,-489.9847 882.4901,-493.8709"/>
</g>
<!-- Node323099&#45;&gt;Node322548 -->
<g id="edge51" class="edge">
<title>Node323099&#45;&gt;Node322548</title>
<path fill="none" stroke="#191970" d="M219.6252,-426.6496C224.1704,-460.8752 244.4611,-577.2252 315,-630 441.8892,-724.9342 646.5188,-704.6405 732.4626,-690.635"/>
<polygon fill="#191970" stroke="#191970" points="733.0645,-694.083 742.342,-688.9663 731.8987,-687.1807 733.0645,-694.083"/>
</g>
<!-- Node323099&#45;&gt;Node322550 -->
<g id="edge47" class="edge">
<title>Node323099&#45;&gt;Node322550</title>
<path fill="none" stroke="#191970" d="M231.4593,-407.3913C276.7268,-374.3101 432.9898,-264.1424 579,-209 629.7656,-189.8278 691.7634,-179.4519 731.6747,-174.3258"/>
<polygon fill="#191970" stroke="#191970" points="732.3248,-177.7723 741.8214,-173.0748 731.4682,-170.8249 732.3248,-177.7723"/>
</g>
<!-- Node323099&#45;&gt;Node322551 -->
<g id="edge49" class="edge">
<title>Node323099&#45;&gt;Node322551</title>
<path fill="none" stroke="#191970" d="M246.9852,-407.392C258.4972,-402.1624 270.9417,-394.5562 279,-384 321.1254,-328.8166 277.3387,-290.3213 315,-232 321.9667,-221.2116 332.6936,-212.0773 342.794,-205.1104"/>
<polygon fill="#191970" stroke="#191970" points="344.8931,-207.9214 351.3984,-199.5589 341.098,-202.0394 344.8931,-207.9214"/>
</g>
<!-- Node323099&#45;&gt;Node322643 -->
<g id="edge52" class="edge">
<title>Node323099&#45;&gt;Node322643</title>
<path fill="none" stroke="#191970" d="M219.1838,-407.4444C222.351,-370.6528 238.8844,-236.9304 315,-171 434.9059,-67.139 641.1035,-77.5121 729.8459,-87.823"/>
<polygon fill="#191970" stroke="#191970" points="729.4715,-91.3032 739.8218,-89.0403 730.3195,-84.3547 729.4715,-91.3032"/>
</g>
<!-- Node323099&#45;&gt;Node323099 -->
<g id="edge50" class="edge">
<title>Node323099&#45;&gt;Node323099</title>
<path fill="none" stroke="#191970" d="M195.3806,-426.7571C184.1334,-435.5653 191.8398,-445 218.5,-445 235.9957,-445 245.3288,-440.9368 246.4991,-435.6539"/>
<polygon fill="#191970" stroke="#191970" points="249.4971,-433.8417 241.6194,-426.7571 243.3597,-437.208 249.4971,-433.8417"/>
</g>
</g>
</svg>
