<?xml version="1.0" encoding="UTF-8" standalone="no"?>
<!DOCTYPE svg PUBLIC "-//W3C//DTD SVG 1.1//EN"
 "http://www.w3.org/Graphics/SVG/1.1/DTD/svg11.dtd">
<!-- Generated by graphviz version 2.40.1 (20161225.0304)
 -->
<!-- Title: __attribute__ Pages: 1 -->
<!--zoomable 226 -->
<svg id="main" version="1.1" xmlns="http://www.w3.org/2000/svg" xmlns:xlink="http://www.w3.org/1999/xlink" xml:space="preserve" onload="init(evt)">
<style type="text/css"><![CDATA[
.edge:hover path { stroke: red; }
.edge:hover polygon { stroke: red; fill: red; }
]]></style>
<script type="text/javascript"><![CDATA[
var edges = document.getElementsByTagName('g');
if (edges && edges.length) {
  for (var i=0;i<edges.length;i++) {
    if (edges[i].id.substr(0,4)=='edge') {
      edges[i].setAttribute('class','edge');
    }
  }
}
]]></script>
        <defs>
                <circle id="rim" cx="0" cy="0" r="7"/>
                <circle id="rim2" cx="0" cy="0" r="3.5"/>
                <g id="zoomPlus">
                        <use xlink:href="#rim" fill="#404040">
                                <set attributeName="fill" to="#808080" begin="zoomplus.mouseover" end="zoomplus.mouseout"/>
                        </use>
                        <path d="M-4,0h8M0,-4v8" fill="none" stroke="white" stroke-width="1.5" pointer-events="none"/>
                </g>
                <g id="zoomMin">
                        <use xlink:href="#rim" fill="#404040">
                                <set attributeName="fill" to="#808080" begin="zoomminus.mouseover" end="zoomminus.mouseout"/>
                        </use>
                        <path d="M-4,0h8" fill="none" stroke="white" stroke-width="1.5" pointer-events="none"/>
                </g>
                <g id="dirArrow">
                        <path fill="none" stroke="white" stroke-width="1.5" d="M0,-3.0v7 M-2.5,-0.5L0,-3.0L2.5,-0.5"/>
                </g>
               <g id="resetDef">
                       <use xlink:href="#rim2" fill="#404040">
                               <set attributeName="fill" to="#808080" begin="reset.mouseover" end="reset.mouseout"/>
                       </use>
               </g>
        </defs>

<script type="text/javascript">
var viewWidth = 690;
var viewHeight = 226;
var sectionId = 'dynsection-511';
</script>
<script xlink:href="svgpan.js"/>
<svg id="graph" class="graph">
<g id="viewport">
<title>__attribute__</title>
<!-- Node166198 -->
<g id="node1" class="node">
<title>Node166198</title>
<polygon fill="#bfbfbf" stroke="#000000" points="0,-143.9658 0,-162.9658 73,-162.9658 73,-143.9658 0,-143.9658"/>
<text text-anchor="middle" x="36.5" y="-150.9658" font-family="Helvetica,sans-Serif" font-size="10.00" fill="#000000">__attribute__</text>
</g>
<!-- Node166199 -->
<g id="node2" class="node">
<title>Node166199</title>
<g id="a_node2"><a xlink:href="quickjs_8c.html#a686cf78f8b0361621ee2ba6182195c31" target="_top" xlink:title="is_strict_mode">
<polygon fill="none" stroke="#000000" points="110,-162.9658 110,-181.9658 190,-181.9658 190,-162.9658 110,-162.9658"/>
<text text-anchor="middle" x="150" y="-169.9658" font-family="Helvetica,sans-Serif" font-size="10.00" fill="#000000">is_strict_mode</text>
</a>
</g>
</g>
<!-- Node166198&#45;&gt;Node166199 -->
<g id="edge1" class="edge">
<title>Node166198&#45;&gt;Node166199</title>
<path fill="none" stroke="#191970" d="M73.0369,-159.5821C81.6062,-161.0166 90.8828,-162.5695 99.9298,-164.084"/>
<polygon fill="#191970" stroke="#191970" points="99.556,-167.57 109.9966,-165.7691 100.7117,-160.6661 99.556,-167.57"/>
</g>
<!-- Node166200 -->
<g id="node3" class="node">
<title>Node166200</title>
<g id="a_node3"><a xlink:href="quickjs_8c.html#a1b110b017211230b8b6310e853cd2b54" target="_top" xlink:title="JS_ThrowError">
<polygon fill="none" stroke="#000000" points="109,-124.9658 109,-143.9658 191,-143.9658 191,-124.9658 109,-124.9658"/>
<text text-anchor="middle" x="150" y="-131.9658" font-family="Helvetica,sans-Serif" font-size="10.00" fill="#000000">JS_ThrowError</text>
</a>
</g>
</g>
<!-- Node166198&#45;&gt;Node166200 -->
<g id="edge2" class="edge">
<title>Node166198&#45;&gt;Node166200</title>
<path fill="none" stroke="#191970" d="M73.0369,-147.3494C81.2346,-145.9771 90.0796,-144.4965 98.7516,-143.0448"/>
<polygon fill="#191970" stroke="#191970" points="99.5183,-146.4652 108.8032,-141.3621 98.3626,-139.5613 99.5183,-146.4652"/>
</g>
<!-- Node166201 -->
<g id="node4" class="node">
<title>Node166201</title>
<g id="a_node4"><a xlink:href="quickjs_8c.html#a7a7b507694cc1ecc4e3b5129fed3f5f6" target="_top" xlink:title="JS_GetFunctionBytecode">
<polygon fill="none" stroke="#000000" points="227,-181.9658 227,-200.9658 355,-200.9658 355,-181.9658 227,-181.9658"/>
<text text-anchor="middle" x="291" y="-188.9658" font-family="Helvetica,sans-Serif" font-size="10.00" fill="#000000">JS_GetFunctionBytecode</text>
</a>
</g>
</g>
<!-- Node166200&#45;&gt;Node166201 -->
<g id="edge3" class="edge">
<title>Node166200&#45;&gt;Node166201</title>
<path fill="none" stroke="#191970" d="M173.6002,-144.0063C196.6796,-153.3362 232.0313,-167.6274 257.9126,-178.09"/>
<polygon fill="#191970" stroke="#191970" points="256.7399,-181.391 267.3228,-181.8941 259.3635,-174.9013 256.7399,-181.391"/>
</g>
<!-- Node166203 -->
<g id="node6" class="node">
<title>Node166203</title>
<g id="a_node6"><a xlink:href="quickjs_8c.html#aeafb37b03b5560171754f8c4505b0f6b" target="_top" xlink:title="JS_ThrowError2">
<polygon fill="none" stroke="#000000" points="247.5,-105.9658 247.5,-124.9658 334.5,-124.9658 334.5,-105.9658 247.5,-105.9658"/>
<text text-anchor="middle" x="291" y="-112.9658" font-family="Helvetica,sans-Serif" font-size="10.00" fill="#000000">JS_ThrowError2</text>
</a>
</g>
</g>
<!-- Node166200&#45;&gt;Node166203 -->
<g id="edge5" class="edge">
<title>Node166200&#45;&gt;Node166203</title>
<path fill="none" stroke="#191970" d="M191.1621,-128.9191C205.4277,-126.9968 221.6438,-124.8116 236.7973,-122.7697"/>
<polygon fill="#191970" stroke="#191970" points="237.6383,-126.1881 247.0813,-121.3839 236.7034,-119.2508 237.6383,-126.1881"/>
</g>
<!-- Node166202 -->
<g id="node5" class="node">
<title>Node166202</title>
<g id="a_node5"><a xlink:href="quickjs_8c.html#a76e95dd1ab1d7cb4b9407d2ad41ee119" target="_top" xlink:title="js_class_has_bytecode">
<polygon fill="none" stroke="#000000" points="560.5,-152.9658 560.5,-171.9658 679.5,-171.9658 679.5,-152.9658 560.5,-152.9658"/>
<text text-anchor="middle" x="620" y="-159.9658" font-family="Helvetica,sans-Serif" font-size="10.00" fill="#000000">js_class_has_bytecode</text>
</a>
</g>
</g>
<!-- Node166201&#45;&gt;Node166202 -->
<g id="edge4" class="edge">
<title>Node166201&#45;&gt;Node166202</title>
<path fill="none" stroke="#191970" d="M326.3184,-201.0245C372.0595,-211.8975 453.9868,-226.2275 522,-210.4658 549.4389,-204.1069 578.06,-188.9449 597.2358,-177.3492"/>
<polygon fill="#191970" stroke="#191970" points="599.1995,-180.2497 605.8441,-171.9975 595.5036,-174.3049 599.1995,-180.2497"/>
</g>
<!-- Node166204 -->
<g id="node7" class="node">
<title>Node166204</title>
<g id="a_node7"><a xlink:href="quickjs_8c.html#a61c8dfb5e807af1b6ff7d8ca61576dda" target="_top" xlink:title="build_backtrace">
<polygon fill="none" stroke="#ff0000" points="414,-29.9658 414,-48.9658 499,-48.9658 499,-29.9658 414,-29.9658"/>
<text text-anchor="middle" x="456.5" y="-36.9658" font-family="Helvetica,sans-Serif" font-size="10.00" fill="#000000">build_backtrace</text>
</a>
</g>
</g>
<!-- Node166203&#45;&gt;Node166204 -->
<g id="edge6" class="edge">
<title>Node166203&#45;&gt;Node166204</title>
<path fill="none" stroke="#191970" d="M307.6627,-105.9591C327.2543,-94.9805 360.9211,-76.7315 391,-63.4658 399.7073,-59.6256 409.2403,-55.8817 418.2719,-52.5368"/>
<polygon fill="#191970" stroke="#191970" points="419.6041,-55.7768 427.8125,-49.0781 417.2183,-49.1959 419.6041,-55.7768"/>
</g>
<!-- Node166376 -->
<g id="node8" class="node">
<title>Node166376</title>
<g id="a_node8"><a xlink:href="quickjs_8c.html#a0a8765bd4012467d9139bc24aabcb3ca" target="_top" xlink:title="JS_DefinePropertyValue">
<polygon fill="none" stroke="#ff0000" points="558,-48.9658 558,-67.9658 682,-67.9658 682,-48.9658 558,-48.9658"/>
<text text-anchor="middle" x="620" y="-55.9658" font-family="Helvetica,sans-Serif" font-size="10.00" fill="#000000">JS_DefinePropertyValue</text>
</a>
</g>
</g>
<!-- Node166203&#45;&gt;Node166376 -->
<g id="edge10" class="edge">
<title>Node166203&#45;&gt;Node166376</title>
<path fill="none" stroke="#191970" d="M334.7687,-106.9207C352.2432,-103.569 372.5577,-99.7475 391,-96.4658 444.3024,-86.9809 504.724,-76.9863 550.1146,-69.6289"/>
<polygon fill="#191970" stroke="#191970" points="550.8331,-73.0582 560.1458,-68.0062 549.7152,-66.1481 550.8331,-73.0582"/>
</g>
<!-- Node166267 -->
<g id="node9" class="node">
<title>Node166267</title>
<g id="a_node9"><a xlink:href="quickjs_8c.html#a0ee6a3654a6016393fac5e1c108f403a" target="_top" xlink:title="JS_NewString">
<polygon fill="none" stroke="#ff0000" points="580,-1.9658 580,-20.9658 660,-20.9658 660,-1.9658 580,-1.9658"/>
<text text-anchor="middle" x="620" y="-8.9658" font-family="Helvetica,sans-Serif" font-size="10.00" fill="#000000">JS_NewString</text>
</a>
</g>
</g>
<!-- Node166203&#45;&gt;Node166267 -->
<g id="edge13" class="edge">
<title>Node166203&#45;&gt;Node166267</title>
<path fill="none" stroke="#191970" d="M297.3469,-105.8862C311.387,-85.6522 347.3201,-38.9087 391,-20.4658 448.5404,3.8295 521.6219,1.7129 569.5481,-3.5593"/>
<polygon fill="#191970" stroke="#191970" points="569.3326,-7.0582 579.6755,-4.7616 570.1579,-.107 569.3326,-7.0582"/>
</g>
<!-- Node166260 -->
<g id="node10" class="node">
<title>Node166260</title>
<g id="a_node10"><a xlink:href="quickjs_8h.html#ad80a83d73e9b7d872b88fbf2943aebe9" target="_top" xlink:title="JS_IsException">
<polygon fill="none" stroke="#000000" points="413.5,-181.9658 413.5,-200.9658 499.5,-200.9658 499.5,-181.9658 413.5,-181.9658"/>
<text text-anchor="middle" x="456.5" y="-188.9658" font-family="Helvetica,sans-Serif" font-size="10.00" fill="#000000">JS_IsException</text>
</a>
</g>
</g>
<!-- Node166203&#45;&gt;Node166260 -->
<g id="edge11" class="edge">
<title>Node166203&#45;&gt;Node166260</title>
<path fill="none" stroke="#191970" d="M305.3503,-125.0941C324.2874,-137.4547 358.9764,-158.9189 391,-172.4658 396.449,-174.7708 402.2662,-176.8999 408.1005,-178.8339"/>
<polygon fill="#191970" stroke="#191970" points="407.2838,-182.2459 417.873,-181.9011 409.3801,-175.5671 407.2838,-182.2459"/>
</g>
<!-- Node166431 -->
<g id="node11" class="node">
<title>Node166431</title>
<g id="a_node11"><a xlink:href="quickjs_8c.html#a73738c650f11459db0d7af3dcdf8316b" target="_top" xlink:title="JS_NewObjectProtoClass">
<polygon fill="none" stroke="#ff0000" points="391,-143.9658 391,-162.9658 522,-162.9658 522,-143.9658 391,-143.9658"/>
<text text-anchor="middle" x="456.5" y="-150.9658" font-family="Helvetica,sans-Serif" font-size="10.00" fill="#000000">JS_NewObjectProtoClass</text>
</a>
</g>
</g>
<!-- Node166203&#45;&gt;Node166431 -->
<g id="edge12" class="edge">
<title>Node166203&#45;&gt;Node166431</title>
<path fill="none" stroke="#191970" d="M332.7626,-125.0548C354.7005,-130.0919 381.7803,-136.3096 405.008,-141.6428"/>
<polygon fill="#191970" stroke="#191970" points="404.508,-145.119 415.0377,-143.9457 406.0746,-138.2965 404.508,-145.119"/>
</g>
<!-- Node166476 -->
<g id="node12" class="node">
<title>Node166476</title>
<g id="a_node12"><a xlink:href="quickjs_8c.html#a3ae8a83da71ef07d6e858d172d9c5a81" target="_top" xlink:title="JS_Throw">
<polygon fill="none" stroke="#ff0000" points="426,-105.9658 426,-124.9658 487,-124.9658 487,-105.9658 426,-105.9658"/>
<text text-anchor="middle" x="456.5" y="-112.9658" font-family="Helvetica,sans-Serif" font-size="10.00" fill="#000000">JS_Throw</text>
</a>
</g>
</g>
<!-- Node166203&#45;&gt;Node166476 -->
<g id="edge14" class="edge">
<title>Node166203&#45;&gt;Node166476</title>
<path fill="none" stroke="#191970" d="M334.9165,-115.4658C359.9702,-115.4658 391.166,-115.4658 415.6852,-115.4658"/>
<polygon fill="#191970" stroke="#191970" points="415.7473,-118.9658 425.7472,-115.4658 415.7472,-111.9658 415.7473,-118.9658"/>
</g>
<!-- Node166204&#45;&gt;Node166202 -->
<g id="edge7" class="edge">
<title>Node166204&#45;&gt;Node166202</title>
<path fill="none" stroke="#191970" d="M469.3296,-49.1174C497.3862,-70.2242 564.4323,-120.6626 598.8391,-146.5466"/>
<polygon fill="#191970" stroke="#191970" points="597.1347,-149.6441 607.23,-152.859 601.3429,-144.0503 597.1347,-149.6441"/>
</g>
<!-- Node166204&#45;&gt;Node166376 -->
<g id="edge8" class="edge">
<title>Node166204&#45;&gt;Node166376</title>
<path fill="none" stroke="#191970" d="M499.0309,-44.4082C513.9184,-46.1382 531.0801,-48.1326 547.7122,-50.0653"/>
<polygon fill="#191970" stroke="#191970" points="547.6374,-53.5801 557.9746,-51.2579 548.4455,-46.6269 547.6374,-53.5801"/>
</g>
<!-- Node166204&#45;&gt;Node166267 -->
<g id="edge9" class="edge">
<title>Node166204&#45;&gt;Node166267</title>
<path fill="none" stroke="#191970" d="M499.0309,-32.1822C520.6924,-28.4725 547.1686,-23.9384 569.8228,-20.0588"/>
<polygon fill="#191970" stroke="#191970" points="570.6658,-23.4655 579.9315,-18.3276 569.4841,-16.5659 570.6658,-23.4655"/>
</g>
</g>
</svg>
        <g id="navigator" transform="translate(0 0)" fill="#404254">
                <rect fill="#f2f5e9" fill-opacity="0.5" stroke="#606060" stroke-width=".5" x="0" y="0" width="60" height="60"/>
                <use id="zoomplus" xlink:href="#zoomPlus" x="17" y="9" onmousedown="handleZoom(evt,'in')"/>
                <use id="zoomminus" xlink:href="#zoomMin" x="42" y="9" onmousedown="handleZoom(evt,'out')"/>
                <use id="reset" xlink:href="#resetDef" x="30" y="36" onmousedown="handleReset()"/>
                <g id="arrowUp" xlink:href="#dirArrow" transform="translate(30 24)" onmousedown="handlePan(0,-1)">
                  <use xlink:href="#rim" fill="#404040">
                        <set attributeName="fill" to="#808080" begin="arrowUp.mouseover" end="arrowUp.mouseout"/>
                  </use>
                  <path fill="none" stroke="white" stroke-width="1.5" d="M0,-3.0v7 M-2.5,-0.5L0,-3.0L2.5,-0.5"/>
                </g>
                <g id="arrowRight" xlink:href="#dirArrow" transform="rotate(90) translate(36 -43)" onmousedown="handlePan(1,0)">
                  <use xlink:href="#rim" fill="#404040">
                        <set attributeName="fill" to="#808080" begin="arrowRight.mouseover" end="arrowRight.mouseout"/>
                  </use>
                  <path fill="none" stroke="white" stroke-width="1.5" d="M0,-3.0v7 M-2.5,-0.5L0,-3.0L2.5,-0.5"/>
                </g>
                <g id="arrowDown" xlink:href="#dirArrow" transform="rotate(180) translate(-30 -48)" onmousedown="handlePan(0,1)">
                  <use xlink:href="#rim" fill="#404040">
                        <set attributeName="fill" to="#808080" begin="arrowDown.mouseover" end="arrowDown.mouseout"/>
                  </use>
                  <path fill="none" stroke="white" stroke-width="1.5" d="M0,-3.0v7 M-2.5,-0.5L0,-3.0L2.5,-0.5"/>
                </g>
                <g id="arrowLeft" xlink:href="#dirArrow" transform="rotate(270) translate(-36 17)" onmousedown="handlePan(-1,0)">
                  <use xlink:href="#rim" fill="#404040">
                        <set attributeName="fill" to="#808080" begin="arrowLeft.mouseover" end="arrowLeft.mouseout"/>
                  </use>
                  <path fill="none" stroke="white" stroke-width="1.5" d="M0,-3.0v7 M-2.5,-0.5L0,-3.0L2.5,-0.5"/>
                </g>
        </g>
        <svg viewBox="0 0 15 15" width="100%" height="30px" preserveAspectRatio="xMaxYMin meet">
         <g id="arrow_out" transform="scale(0.3 0.3)">
          <a xlink:href="quickjs_8c_a014abd680db53ab89cb133345742a59c_cgraph_org.svg" target="_base">
           <rect id="button" ry="5" rx="5" y="6" x="6" height="38" width="38"
                fill="#f2f5e9" fill-opacity="0.5" stroke="#606060" stroke-width="1.0"/>
           <path id="arrow"
             d="M 11.500037,31.436501 C 11.940474,20.09759 22.043105,11.32322 32.158766,21.979434 L 37.068811,17.246167 C 37.068811,17.246167 37.088388,32 37.088388,32 L 22.160133,31.978069 C 22.160133,31.978069 26.997745,27.140456 26.997745,27.140456 C 18.528582,18.264221 13.291696,25.230495 11.500037,31.436501 z"
             style="fill:#404040;"/>
          </a>
         </g>
        </svg>
</svg>
