<?xml version="1.0" encoding="UTF-8" standalone="no"?>
<!DOCTYPE svg PUBLIC "-//W3C//DTD SVG 1.1//EN"
 "http://www.w3.org/Graphics/SVG/1.1/DTD/svg11.dtd">
<!-- Generated by graphviz version 2.40.1 (20161225.0304)
 -->
<!-- Title: JSWorkerData Pages: 1 -->
<svg width="291pt" height="233pt"
 viewBox="0.00 0.00 290.50 233.00" xmlns="http://www.w3.org/2000/svg" xmlns:xlink="http://www.w3.org/1999/xlink">
<g id="graph0" class="graph" transform="scale(1 1) rotate(0) translate(4 229)">
<title>JSWorkerData</title>
<!-- Node1 -->
<g id="node1" class="node">
<title>Node1</title>
<polygon fill="#bfbfbf" stroke="#000000" points="40,-.5 40,-19.5 121,-19.5 121,-.5 40,-.5"/>
<text text-anchor="middle" x="80.5" y="-7.5" font-family="Helvetica,sans-Serif" font-size="10.00" fill="#000000">JSWorkerData</text>
</g>
<!-- Node2 -->
<g id="node2" class="node">
<title>Node2</title>
<g id="a_node2"><a xlink:href="structJSWorkerMessageHandler.html" target="_top" xlink:title="JSWorkerMessageHandler">
<polygon fill="none" stroke="#000000" points="105.5,-68.5 105.5,-87.5 239.5,-87.5 239.5,-68.5 105.5,-68.5"/>
<text text-anchor="middle" x="172.5" y="-75.5" font-family="Helvetica,sans-Serif" font-size="10.00" fill="#000000">JSWorkerMessageHandler</text>
</a>
</g>
</g>
<!-- Node2&#45;&gt;Node1 -->
<g id="edge1" class="edge">
<title>Node2&#45;&gt;Node1</title>
<path fill="none" stroke="#9a32cd" stroke-dasharray="5,2" d="M151.1808,-62.2423C133.294,-49.0217 108.3342,-30.5731 93.3603,-19.5054"/>
<polygon fill="#9a32cd" stroke="#9a32cd" points="149.1965,-65.1279 159.3186,-68.2573 153.3572,-59.4987 149.1965,-65.1279"/>
<text text-anchor="middle" x="162" y="-41" font-family="Helvetica,sans-Serif" font-size="10.00" fill="#000000"> msg_handler</text>
</g>
<!-- Node3 -->
<g id="node3" class="node">
<title>Node3</title>
<g id="a_node3"><a xlink:href="structlist__head.html" target="_top" xlink:title="list_head">
<polygon fill="none" stroke="#000000" points="62.5,-204.5 62.5,-223.5 118.5,-223.5 118.5,-204.5 62.5,-204.5"/>
<text text-anchor="middle" x="90.5" y="-211.5" font-family="Helvetica,sans-Serif" font-size="10.00" fill="#000000">list_head</text>
</a>
</g>
</g>
<!-- Node3&#45;&gt;Node2 -->
<g id="edge2" class="edge">
<title>Node3&#45;&gt;Node2</title>
<path fill="none" stroke="#9a32cd" stroke-dasharray="5,2" d="M120.3752,-198.779C125.9719,-194.8839 131.3566,-190.2771 135.5,-185 159.4127,-154.5443 168.4329,-107.5988 171.3205,-87.5775"/>
<polygon fill="#9a32cd" stroke="#9a32cd" points="118.1685,-196.0314 111.5541,-204.308 121.8861,-201.9627 118.1685,-196.0314"/>
<text text-anchor="middle" x="170" y="-143.5" font-family="Helvetica,sans-Serif" font-size="10.00" fill="#000000"> link</text>
</g>
<!-- Node3&#45;&gt;Node3 -->
<g id="edge3" class="edge">
<title>Node3&#45;&gt;Node3</title>
<path fill="none" stroke="#9a32cd" stroke-dasharray="5,2" d="M129.0533,-219.4491C133.5634,-218.4467 136.5,-216.6303 136.5,-214 136.5,-209.6836 128.5919,-207.5591 118.7994,-207.6266"/>
<polygon fill="#9a32cd" stroke="#9a32cd" points="128.4447,-215.9897 118.7994,-220.3734 129.0733,-222.9614 128.4447,-215.9897"/>
<text text-anchor="middle" x="147.5" y="-217" font-family="Helvetica,sans-Serif" font-size="10.00" fill="#000000"> prev</text>
<text text-anchor="middle" x="147.5" y="-206" font-family="Helvetica,sans-Serif" font-size="10.00" fill="#000000">next</text>
</g>
<!-- Node6 -->
<g id="node6" class="node">
<title>Node6</title>
<g id="a_node6"><a xlink:href="structJSWorkerMessagePipe.html" target="_top" xlink:title="JSWorkerMessagePipe">
<polygon fill="none" stroke="#000000" points="0,-136.5 0,-155.5 119,-155.5 119,-136.5 0,-136.5"/>
<text text-anchor="middle" x="59.5" y="-143.5" font-family="Helvetica,sans-Serif" font-size="10.00" fill="#000000">JSWorkerMessagePipe</text>
</a>
</g>
</g>
<!-- Node3&#45;&gt;Node6 -->
<g id="edge7" class="edge">
<title>Node3&#45;&gt;Node6</title>
<path fill="none" stroke="#9a32cd" stroke-dasharray="5,2" d="M81.8188,-194.9574C76,-182.1937 68.5801,-165.9175 63.9333,-155.7247"/>
<polygon fill="#9a32cd" stroke="#9a32cd" points="78.7256,-196.61 86.0585,-204.2573 85.095,-193.7063 78.7256,-196.61"/>
<text text-anchor="middle" x="104.5" y="-177" font-family="Helvetica,sans-Serif" font-size="10.00" fill="#000000"> msg_queue</text>
</g>
<!-- Node4 -->
<g id="node4" class="node">
<title>Node4</title>
<g id="a_node4"><a xlink:href="structJSValue.html" target="_top" xlink:title="JSValue">
<polygon fill="none" stroke="#000000" points="193,-136.5 193,-155.5 246,-155.5 246,-136.5 193,-136.5"/>
<text text-anchor="middle" x="219.5" y="-143.5" font-family="Helvetica,sans-Serif" font-size="10.00" fill="#000000">JSValue</text>
</a>
</g>
</g>
<!-- Node4&#45;&gt;Node2 -->
<g id="edge4" class="edge">
<title>Node4&#45;&gt;Node2</title>
<path fill="none" stroke="#9a32cd" stroke-dasharray="5,2" d="M206.8593,-127.7114C197.9634,-114.8406 186.406,-98.1194 179.2215,-87.7247"/>
<polygon fill="#9a32cd" stroke="#9a32cd" points="204.201,-130.021 212.766,-136.2573 209.9594,-126.0409 204.201,-130.021"/>
<text text-anchor="middle" x="241" y="-110" font-family="Helvetica,sans-Serif" font-size="10.00" fill="#000000"> on_message_func</text>
</g>
<!-- Node5 -->
<g id="node5" class="node">
<title>Node5</title>
<g id="a_node5"><a xlink:href="unionJSValueUnion.html" target="_top" xlink:title="JSValueUnion">
<polygon fill="none" stroke="#000000" points="180,-204.5 180,-223.5 259,-223.5 259,-204.5 180,-204.5"/>
<text text-anchor="middle" x="219.5" y="-211.5" font-family="Helvetica,sans-Serif" font-size="10.00" fill="#000000">JSValueUnion</text>
</a>
</g>
</g>
<!-- Node5&#45;&gt;Node4 -->
<g id="edge5" class="edge">
<title>Node5&#45;&gt;Node4</title>
<path fill="none" stroke="#9a32cd" stroke-dasharray="5,2" d="M219.5,-194.1951C219.5,-181.5514 219.5,-165.7157 219.5,-155.7247"/>
<polygon fill="#9a32cd" stroke="#9a32cd" points="216.0001,-194.2572 219.5,-204.2573 223.0001,-194.2573 216.0001,-194.2572"/>
<text text-anchor="middle" x="224" y="-177" font-family="Helvetica,sans-Serif" font-size="10.00" fill="#000000"> u</text>
</g>
<!-- Node6&#45;&gt;Node1 -->
<g id="edge8" class="edge">
<title>Node6&#45;&gt;Node1</title>
<path fill="none" stroke="#9a32cd" stroke-dasharray="5,2" d="M52.5757,-126.4936C47.8435,-110.3503 43.2909,-86.9198 48.5,-67 53.2087,-48.9937 65.0172,-30.6652 72.8964,-19.817"/>
<polygon fill="#9a32cd" stroke="#9a32cd" points="49.3615,-127.9304 55.7628,-136.3728 56.0235,-125.7812 49.3615,-127.9304"/>
<text text-anchor="middle" x="72.5" y="-81" font-family="Helvetica,sans-Serif" font-size="10.00" fill="#000000"> send_pipe</text>
<text text-anchor="middle" x="72.5" y="-70" font-family="Helvetica,sans-Serif" font-size="10.00" fill="#000000">recv_pipe</text>
</g>
<!-- Node6&#45;&gt;Node2 -->
<g id="edge6" class="edge">
<title>Node6&#45;&gt;Node2</title>
<path fill="none" stroke="#9a32cd" stroke-dasharray="5,2" d="M72.7117,-128.3604C78.9622,-120.9695 86.931,-112.7721 95.5,-107 107.94,-98.6205 123.1288,-92.2362 136.7189,-87.62"/>
<polygon fill="#9a32cd" stroke="#9a32cd" points="69.738,-126.4751 66.2304,-136.4725 75.2069,-130.8445 69.738,-126.4751"/>
<text text-anchor="middle" x="118.5" y="-110" font-family="Helvetica,sans-Serif" font-size="10.00" fill="#000000"> recv_pipe</text>
</g>
</g>
</svg>
