<?xml version="1.0" encoding="UTF-8" standalone="no"?>
<!DOCTYPE svg PUBLIC "-//W3C//DTD SVG 1.1//EN"
 "http://www.w3.org/Graphics/SVG/1.1/DTD/svg11.dtd">
<!-- Generated by graphviz version 2.40.1 (20161225.0304)
 -->
<!-- Title: qjs::js_traits&lt; std::string &gt;::wrap Pages: 1 -->
<!--zoomable 333 -->
<svg id="main" version="1.1" xmlns="http://www.w3.org/2000/svg" xmlns:xlink="http://www.w3.org/1999/xlink" xml:space="preserve" onload="init(evt)">
<style type="text/css"><![CDATA[
.edge:hover path { stroke: red; }
.edge:hover polygon { stroke: red; fill: red; }
]]></style>
<script type="text/javascript"><![CDATA[
var edges = document.getElementsByTagName('g');
if (edges && edges.length) {
  for (var i=0;i<edges.length;i++) {
    if (edges[i].id.substr(0,4)=='edge') {
      edges[i].setAttribute('class','edge');
    }
  }
}
]]></script>
        <defs>
                <circle id="rim" cx="0" cy="0" r="7"/>
                <circle id="rim2" cx="0" cy="0" r="3.5"/>
                <g id="zoomPlus">
                        <use xlink:href="#rim" fill="#404040">
                                <set attributeName="fill" to="#808080" begin="zoomplus.mouseover" end="zoomplus.mouseout"/>
                        </use>
                        <path d="M-4,0h8M0,-4v8" fill="none" stroke="white" stroke-width="1.5" pointer-events="none"/>
                </g>
                <g id="zoomMin">
                        <use xlink:href="#rim" fill="#404040">
                                <set attributeName="fill" to="#808080" begin="zoomminus.mouseover" end="zoomminus.mouseout"/>
                        </use>
                        <path d="M-4,0h8" fill="none" stroke="white" stroke-width="1.5" pointer-events="none"/>
                </g>
                <g id="dirArrow">
                        <path fill="none" stroke="white" stroke-width="1.5" d="M0,-3.0v7 M-2.5,-0.5L0,-3.0L2.5,-0.5"/>
                </g>
               <g id="resetDef">
                       <use xlink:href="#rim2" fill="#404040">
                               <set attributeName="fill" to="#808080" begin="reset.mouseover" end="reset.mouseout"/>
                       </use>
               </g>
        </defs>

<script type="text/javascript">
var viewWidth = 777;
var viewHeight = 333;
var sectionId = 'dynsection-1';
</script>
<script xlink:href="svgpan.js"/>
<svg id="graph" class="graph">
<g id="viewport">
<title>qjs::js_traits&lt; std::string &gt;::wrap</title>
<!-- Node434 -->
<g id="node1" class="node">
<title>Node434</title>
<polygon fill="#bfbfbf" stroke="#000000" points="0,-147 0,-177 92,-177 92,-147 0,-147"/>
<text text-anchor="start" x="8" y="-165" font-family="Helvetica,sans-Serif" font-size="10.00" fill="#000000">qjs::js_traits&lt; std</text>
<text text-anchor="middle" x="46" y="-154" font-family="Helvetica,sans-Serif" font-size="10.00" fill="#000000">::string &gt;::wrap</text>
</g>
<!-- Node435 -->
<g id="node2" class="node">
<title>Node435</title>
<g id="a_node2"><a xlink:href="quickjs_8c.html#ac34cc554aab1e98c45a7f845fff64385" target="_top" xlink:title="JS_NewStringLen">
<polygon fill="none" stroke="#000000" points="128,-152.5 128,-171.5 223,-171.5 223,-152.5 128,-152.5"/>
<text text-anchor="middle" x="175.5" y="-159.5" font-family="Helvetica,sans-Serif" font-size="10.00" fill="#000000">JS_NewStringLen</text>
</a>
</g>
</g>
<!-- Node434&#45;&gt;Node435 -->
<g id="edge1" class="edge">
<title>Node434&#45;&gt;Node435</title>
<path fill="none" stroke="#191970" d="M92.0215,-162C100.3819,-162 109.1981,-162 117.8436,-162"/>
<polygon fill="#191970" stroke="#191970" points="117.8766,-165.5001 127.8766,-162 117.8766,-158.5001 117.8766,-165.5001"/>
</g>
<!-- Node436 -->
<g id="node3" class="node">
<title>Node436</title>
<g id="a_node3"><a xlink:href="quickjs_8c.html#a853f0924d441ea4225488f37c8b69f9a" target="_top" xlink:title="__attribute__">
<polygon fill="none" stroke="#000000" points="696,-190.5 696,-209.5 769,-209.5 769,-190.5 696,-190.5"/>
<text text-anchor="middle" x="732.5" y="-197.5" font-family="Helvetica,sans-Serif" font-size="10.00" fill="#000000">__attribute__</text>
</a>
</g>
</g>
<!-- Node435&#45;&gt;Node436 -->
<g id="edge2" class="edge">
<title>Node435&#45;&gt;Node436</title>
<path fill="none" stroke="#191970" d="M178.078,-171.7512C185.499,-197.5874 209.6111,-267.6916 259,-295 414.5396,-381.0017 637.1563,-259.4356 709.1129,-215.0879"/>
<polygon fill="#191970" stroke="#191970" points="711.2525,-217.8779 717.8742,-209.6073 707.5401,-211.9434 711.2525,-217.8779"/>
</g>
<!-- Node437 -->
<g id="node4" class="node">
<title>Node437</title>
<g id="a_node4"><a xlink:href="quickjs_8c.html#aa923510185fe24e3083baf7405b09f51" target="_top" xlink:title="js_new_string8">
<polygon fill="none" stroke="#000000" points="270.5,-266.5 270.5,-285.5 352.5,-285.5 352.5,-266.5 270.5,-266.5"/>
<text text-anchor="middle" x="311.5" y="-273.5" font-family="Helvetica,sans-Serif" font-size="10.00" fill="#000000">js_new_string8</text>
</a>
</g>
</g>
<!-- Node435&#45;&gt;Node437 -->
<g id="edge3" class="edge">
<title>Node435&#45;&gt;Node437</title>
<path fill="none" stroke="#191970" d="M181.4377,-171.5021C193.6929,-190.383 223.6236,-232.8761 259,-257 261.8492,-258.9429 264.9205,-260.7128 268.0971,-262.3202"/>
<polygon fill="#191970" stroke="#191970" points="266.6756,-265.5185 277.2313,-266.4286 269.5471,-259.1346 266.6756,-265.5185"/>
</g>
<!-- Node447 -->
<g id="node7" class="node">
<title>Node447</title>
<g id="a_node7"><a xlink:href="quickjs_8c.html#accfc3d1dcaa88c88402cb245ccaf4fdb" target="_top" xlink:title="string_buffer_end">
<polygon fill="none" stroke="#000000" points="265.5,-228.5 265.5,-247.5 357.5,-247.5 357.5,-228.5 265.5,-228.5"/>
<text text-anchor="middle" x="311.5" y="-235.5" font-family="Helvetica,sans-Serif" font-size="10.00" fill="#000000">string_buffer_end</text>
</a>
</g>
</g>
<!-- Node435&#45;&gt;Node447 -->
<g id="edge6" class="edge">
<title>Node435&#45;&gt;Node447</title>
<path fill="none" stroke="#191970" d="M187.3452,-171.5148C203.0091,-183.7525 231.814,-205.084 259,-219 262.9906,-221.0427 267.2529,-222.9675 271.5584,-224.7503"/>
<polygon fill="#191970" stroke="#191970" points="270.376,-228.0459 280.9643,-228.417 272.9185,-221.5239 270.376,-228.0459"/>
</g>
<!-- Node450 -->
<g id="node9" class="node">
<title>Node450</title>
<g id="a_node9"><a xlink:href="quickjs_8c.html#a266b4993a59d9e34537386e62b9f3d4f" target="_top" xlink:title="string_buffer_free">
<polygon fill="none" stroke="#000000" points="265.5,-190.5 265.5,-209.5 357.5,-209.5 357.5,-190.5 265.5,-190.5"/>
<text text-anchor="middle" x="311.5" y="-197.5" font-family="Helvetica,sans-Serif" font-size="10.00" fill="#000000">string_buffer_free</text>
</a>
</g>
</g>
<!-- Node435&#45;&gt;Node450 -->
<g id="edge9" class="edge">
<title>Node435&#45;&gt;Node450</title>
<path fill="none" stroke="#191970" d="M209.8185,-171.589C227.2943,-176.4719 248.7407,-182.4643 267.4251,-187.685"/>
<polygon fill="#191970" stroke="#191970" points="266.6194,-191.0938 277.1924,-190.4141 268.5032,-184.3521 266.6194,-191.0938"/>
</g>
<!-- Node451 -->
<g id="node10" class="node">
<title>Node451</title>
<g id="a_node10"><a xlink:href="quickjs_8c.html#a9c11961b0adafedd064b294612d0c2f3" target="_top" xlink:title="string_buffer_init">
<polygon fill="none" stroke="#000000" points="267,-152.5 267,-171.5 356,-171.5 356,-152.5 267,-152.5"/>
<text text-anchor="middle" x="311.5" y="-159.5" font-family="Helvetica,sans-Serif" font-size="10.00" fill="#000000">string_buffer_init</text>
</a>
</g>
</g>
<!-- Node435&#45;&gt;Node451 -->
<g id="edge11" class="edge">
<title>Node435&#45;&gt;Node451</title>
<path fill="none" stroke="#191970" d="M223.0662,-162C233.9743,-162 245.6558,-162 256.8366,-162"/>
<polygon fill="#191970" stroke="#191970" points="256.9274,-165.5001 266.9273,-162 256.9273,-158.5001 256.9274,-165.5001"/>
</g>
<!-- Node453 -->
<g id="node12" class="node">
<title>Node453</title>
<g id="a_node12"><a xlink:href="quickjs_8c.html#a9b8fb6b5ce638616691f7bf7881fa57d" target="_top" xlink:title="string_buffer_putc16">
<polygon fill="none" stroke="#000000" points="259,-114.5 259,-133.5 364,-133.5 364,-114.5 259,-114.5"/>
<text text-anchor="middle" x="311.5" y="-121.5" font-family="Helvetica,sans-Serif" font-size="10.00" fill="#000000">string_buffer_putc16</text>
</a>
</g>
</g>
<!-- Node435&#45;&gt;Node453 -->
<g id="edge14" class="edge">
<title>Node435&#45;&gt;Node453</title>
<path fill="none" stroke="#191970" d="M209.8185,-152.411C227.2943,-147.5281 248.7407,-141.5357 267.4251,-136.315"/>
<polygon fill="#191970" stroke="#191970" points="268.5032,-139.6479 277.1924,-133.5859 266.6194,-132.9062 268.5032,-139.6479"/>
</g>
<!-- Node460 -->
<g id="node15" class="node">
<title>Node460</title>
<g id="a_node15"><a xlink:href="quickjs_8c.html#a874fcee73f61cc997ec1d10cc6711554" target="_top" xlink:title="string_buffer_putc8">
<polygon fill="none" stroke="#000000" points="410,-76.5 410,-95.5 510,-95.5 510,-76.5 410,-76.5"/>
<text text-anchor="middle" x="460" y="-83.5" font-family="Helvetica,sans-Serif" font-size="10.00" fill="#000000">string_buffer_putc8</text>
</a>
</g>
</g>
<!-- Node435&#45;&gt;Node460 -->
<g id="edge18" class="edge">
<title>Node435&#45;&gt;Node460</title>
<path fill="none" stroke="#191970" d="M185.8476,-152.3058C200.7248,-139.0248 229.6153,-115.6136 259,-105 304.2831,-88.6441 358.8392,-84.37 399.6804,-83.9213"/>
<polygon fill="#191970" stroke="#191970" points="399.7672,-87.4211 409.7543,-83.8846 399.7416,-80.4211 399.7672,-87.4211"/>
</g>
<!-- Node461 -->
<g id="node16" class="node">
<title>Node461</title>
<g id="a_node16"><a xlink:href="quickjs_8c.html#a0b130652cf11eb0eb9f7e3ee6c5d7c6a" target="_top" xlink:title="string_buffer_write8">
<polygon fill="none" stroke="#000000" points="409,-38.5 409,-57.5 511,-57.5 511,-38.5 409,-38.5"/>
<text text-anchor="middle" x="460" y="-45.5" font-family="Helvetica,sans-Serif" font-size="10.00" fill="#000000">string_buffer_write8</text>
</a>
</g>
</g>
<!-- Node435&#45;&gt;Node461 -->
<g id="edge20" class="edge">
<title>Node435&#45;&gt;Node461</title>
<path fill="none" stroke="#191970" d="M182.2521,-152.3413C195.0229,-134.899 224.5457,-98.3486 259,-81 302.3849,-59.1546 357.0798,-51.2513 398.4574,-48.6178"/>
<polygon fill="#191970" stroke="#191970" points="398.8823,-52.0999 408.6752,-48.0566 398.4983,-45.1104 398.8823,-52.0999"/>
</g>
<!-- Node462 -->
<g id="node17" class="node">
<title>Node462</title>
<g id="a_node17"><a xlink:href="cutils_8h.html#a69529af6d6911dd0ead90eef221b2e10" target="_top" xlink:title="unicode_from_utf8">
<polygon fill="none" stroke="#000000" points="263,-.5 263,-19.5 360,-19.5 360,-.5 263,-.5"/>
<text text-anchor="middle" x="311.5" y="-7.5" font-family="Helvetica,sans-Serif" font-size="10.00" fill="#000000">unicode_from_utf8</text>
</a>
</g>
</g>
<!-- Node435&#45;&gt;Node462 -->
<g id="edge22" class="edge">
<title>Node435&#45;&gt;Node462</title>
<path fill="none" stroke="#191970" d="M179.5063,-152.3312C189.5937,-129.0366 218.1811,-69.1402 259,-34 263.4764,-30.1464 268.6743,-26.7951 274.0242,-23.9191"/>
<polygon fill="#191970" stroke="#191970" points="275.6063,-27.0417 283.0708,-19.5229 272.5467,-20.7457 275.6063,-27.0417"/>
</g>
<!-- Node438 -->
<g id="node5" class="node">
<title>Node438</title>
<g id="a_node5"><a xlink:href="quickjs_8c.html#ad303a9bc56766627b5fca41574933930" target="_top" xlink:title="js_alloc_string">
<polygon fill="none" stroke="#ff0000" points="568.5,-209.5 568.5,-228.5 647.5,-228.5 647.5,-209.5 568.5,-209.5"/>
<text text-anchor="middle" x="608" y="-216.5" font-family="Helvetica,sans-Serif" font-size="10.00" fill="#000000">js_alloc_string</text>
</a>
</g>
</g>
<!-- Node437&#45;&gt;Node438 -->
<g id="edge4" class="edge">
<title>Node437&#45;&gt;Node438</title>
<path fill="none" stroke="#191970" d="M352.5028,-276.0639C395.0212,-275.2525 463.1122,-271.4806 520,-257 541.3003,-251.5781 564.0459,-241.6358 581.0756,-233.2808"/>
<polygon fill="#191970" stroke="#191970" points="583.0307,-236.215 590.3878,-228.5911 579.8821,-229.9631 583.0307,-236.215"/>
</g>
<!-- Node441 -->
<g id="node6" class="node">
<title>Node441</title>
<g id="a_node6"><a xlink:href="quickjs_8c.html#a260bfa297ff6cb5bd18e229afaa54663" target="_top" xlink:title="JS_AtomToString">
<polygon fill="none" stroke="#ff0000" points="413,-228.5 413,-247.5 507,-247.5 507,-228.5 413,-228.5"/>
<text text-anchor="middle" x="460" y="-235.5" font-family="Helvetica,sans-Serif" font-size="10.00" fill="#000000">JS_AtomToString</text>
</a>
</g>
</g>
<!-- Node437&#45;&gt;Node441 -->
<g id="edge5" class="edge">
<title>Node437&#45;&gt;Node441</title>
<path fill="none" stroke="#191970" d="M348.9728,-266.411C368.3925,-261.4417 392.3025,-255.3233 412.9542,-250.0387"/>
<polygon fill="#191970" stroke="#191970" points="413.9765,-253.3899 422.7966,-247.5201 412.2411,-246.6084 413.9765,-253.3899"/>
</g>
<!-- Node447&#45;&gt;Node441 -->
<g id="edge7" class="edge">
<title>Node447&#45;&gt;Node441</title>
<path fill="none" stroke="#191970" d="M357.6723,-238C371.9229,-238 387.7917,-238 402.6978,-238"/>
<polygon fill="#191970" stroke="#191970" points="402.832,-241.5001 412.832,-238 402.8319,-234.5001 402.832,-241.5001"/>
</g>
<!-- Node448 -->
<g id="node8" class="node">
<title>Node448</title>
<g id="a_node8"><a xlink:href="quickjs_8c.html#a80e54dcf9ac687d4ccc2f90273565f30" target="_top" xlink:title="js_free">
<polygon fill="none" stroke="#ff0000" points="437,-190.5 437,-209.5 483,-209.5 483,-190.5 437,-190.5"/>
<text text-anchor="middle" x="460" y="-197.5" font-family="Helvetica,sans-Serif" font-size="10.00" fill="#000000">js_free</text>
</a>
</g>
</g>
<!-- Node447&#45;&gt;Node448 -->
<g id="edge8" class="edge">
<title>Node447&#45;&gt;Node448</title>
<path fill="none" stroke="#191970" d="M348.9728,-228.411C373.0732,-222.2439 404.0894,-214.3071 427.2109,-208.3905"/>
<polygon fill="#191970" stroke="#191970" points="428.0888,-211.7787 436.9089,-205.9088 426.3534,-204.9972 428.0888,-211.7787"/>
</g>
<!-- Node450&#45;&gt;Node448 -->
<g id="edge10" class="edge">
<title>Node450&#45;&gt;Node448</title>
<path fill="none" stroke="#191970" d="M357.6723,-200C380.0034,-200 406.3081,-200 426.6553,-200"/>
<polygon fill="#191970" stroke="#191970" points="426.7,-203.5001 436.6999,-200 426.6999,-196.5001 426.7,-203.5001"/>
</g>
<!-- Node452 -->
<g id="node11" class="node">
<title>Node452</title>
<g id="a_node11"><a xlink:href="quickjs_8c.html#ac43dee2ed14e80248f1af195bd3d8181" target="_top" xlink:title="string_buffer_init2">
<polygon fill="none" stroke="#000000" points="413,-152.5 413,-171.5 507,-171.5 507,-152.5 413,-152.5"/>
<text text-anchor="middle" x="460" y="-159.5" font-family="Helvetica,sans-Serif" font-size="10.00" fill="#000000">string_buffer_init2</text>
</a>
</g>
</g>
<!-- Node451&#45;&gt;Node452 -->
<g id="edge12" class="edge">
<title>Node451&#45;&gt;Node452</title>
<path fill="none" stroke="#191970" d="M356.0549,-162C370.772,-162 387.3527,-162 402.8769,-162"/>
<polygon fill="#191970" stroke="#191970" points="402.8958,-165.5001 412.8957,-162 402.8957,-158.5001 402.8958,-165.5001"/>
</g>
<!-- Node452&#45;&gt;Node438 -->
<g id="edge13" class="edge">
<title>Node452&#45;&gt;Node438</title>
<path fill="none" stroke="#191970" d="M492.277,-171.5633C501.3115,-174.4177 511.0938,-177.6766 520,-181 539.6802,-188.3438 561.3475,-197.6841 578.2576,-205.2667"/>
<polygon fill="#191970" stroke="#191970" points="577.0597,-208.5662 587.6134,-209.4997 579.9453,-202.1886 577.0597,-208.5662"/>
</g>
<!-- Node454 -->
<g id="node13" class="node">
<title>Node454</title>
<g id="a_node13"><a xlink:href="quickjs_8c.html#a08e52b8382e2347db73c950c39af413c" target="_top" xlink:title="string_buffer_putc_slow">
<polygon fill="none" stroke="#ff0000" points="400,-114.5 400,-133.5 520,-133.5 520,-114.5 400,-114.5"/>
<text text-anchor="middle" x="460" y="-121.5" font-family="Helvetica,sans-Serif" font-size="10.00" fill="#000000">string_buffer_putc_slow</text>
</a>
</g>
</g>
<!-- Node453&#45;&gt;Node454 -->
<g id="edge15" class="edge">
<title>Node453&#45;&gt;Node454</title>
<path fill="none" stroke="#191970" d="M364.2737,-124C372.5425,-124 381.2001,-124 389.7856,-124"/>
<polygon fill="#191970" stroke="#191970" points="389.8034,-127.5001 399.8034,-124 389.8034,-120.5001 389.8034,-127.5001"/>
</g>
<!-- Node455 -->
<g id="node14" class="node">
<title>Node455</title>
<g id="a_node14"><a xlink:href="quickjs_8c.html#a317ccdca83843c76330ace89fb055b56" target="_top" xlink:title="string_buffer_realloc">
<polygon fill="none" stroke="#ff0000" points="556,-95.5 556,-114.5 660,-114.5 660,-95.5 556,-95.5"/>
<text text-anchor="middle" x="608" y="-102.5" font-family="Helvetica,sans-Serif" font-size="10.00" fill="#000000">string_buffer_realloc</text>
</a>
</g>
</g>
<!-- Node454&#45;&gt;Node455 -->
<g id="edge16" class="edge">
<title>Node454&#45;&gt;Node455</title>
<path fill="none" stroke="#191970" d="M520.1973,-116.272C528.6178,-115.191 537.2855,-114.0782 545.7432,-112.9924"/>
<polygon fill="#191970" stroke="#191970" points="546.4519,-116.4303 555.9248,-111.6853 545.5605,-109.4872 546.4519,-116.4303"/>
</g>
<!-- Node455&#45;&gt;Node436 -->
<g id="edge17" class="edge">
<title>Node455&#45;&gt;Node436</title>
<path fill="none" stroke="#191970" d="M620.8548,-114.8089C642.4006,-131.2494 685.9801,-164.5029 711.8599,-184.2505"/>
<polygon fill="#191970" stroke="#191970" points="709.8275,-187.1022 719.9006,-190.386 714.0738,-181.5373 709.8275,-187.1022"/>
</g>
<!-- Node460&#45;&gt;Node455 -->
<g id="edge19" class="edge">
<title>Node460&#45;&gt;Node455</title>
<path fill="none" stroke="#191970" d="M510.106,-92.4325C521.6367,-93.9128 534.0344,-95.5044 546.0018,-97.0408"/>
<polygon fill="#191970" stroke="#191970" points="545.5605,-100.5128 555.9248,-98.3147 546.4519,-93.5697 545.5605,-100.5128"/>
</g>
<!-- Node461&#45;&gt;Node455 -->
<g id="edge21" class="edge">
<title>Node461&#45;&gt;Node455</title>
<path fill="none" stroke="#191970" d="M492.277,-57.5633C501.3115,-60.4177 511.0938,-63.6766 520,-67 539.6802,-74.3438 561.3475,-83.6841 578.2576,-91.2667"/>
<polygon fill="#191970" stroke="#191970" points="577.0597,-94.5662 587.6134,-95.4997 579.9453,-88.1886 577.0597,-94.5662"/>
</g>
</g>
</svg>
        <g id="navigator" transform="translate(0 0)" fill="#404254">
                <rect fill="#f2f5e9" fill-opacity="0.5" stroke="#606060" stroke-width=".5" x="0" y="0" width="60" height="60"/>
                <use id="zoomplus" xlink:href="#zoomPlus" x="17" y="9" onmousedown="handleZoom(evt,'in')"/>
                <use id="zoomminus" xlink:href="#zoomMin" x="42" y="9" onmousedown="handleZoom(evt,'out')"/>
                <use id="reset" xlink:href="#resetDef" x="30" y="36" onmousedown="handleReset()"/>
                <g id="arrowUp" xlink:href="#dirArrow" transform="translate(30 24)" onmousedown="handlePan(0,-1)">
                  <use xlink:href="#rim" fill="#404040">
                        <set attributeName="fill" to="#808080" begin="arrowUp.mouseover" end="arrowUp.mouseout"/>
                  </use>
                  <path fill="none" stroke="white" stroke-width="1.5" d="M0,-3.0v7 M-2.5,-0.5L0,-3.0L2.5,-0.5"/>
                </g>
                <g id="arrowRight" xlink:href="#dirArrow" transform="rotate(90) translate(36 -43)" onmousedown="handlePan(1,0)">
                  <use xlink:href="#rim" fill="#404040">
                        <set attributeName="fill" to="#808080" begin="arrowRight.mouseover" end="arrowRight.mouseout"/>
                  </use>
                  <path fill="none" stroke="white" stroke-width="1.5" d="M0,-3.0v7 M-2.5,-0.5L0,-3.0L2.5,-0.5"/>
                </g>
                <g id="arrowDown" xlink:href="#dirArrow" transform="rotate(180) translate(-30 -48)" onmousedown="handlePan(0,1)">
                  <use xlink:href="#rim" fill="#404040">
                        <set attributeName="fill" to="#808080" begin="arrowDown.mouseover" end="arrowDown.mouseout"/>
                  </use>
                  <path fill="none" stroke="white" stroke-width="1.5" d="M0,-3.0v7 M-2.5,-0.5L0,-3.0L2.5,-0.5"/>
                </g>
                <g id="arrowLeft" xlink:href="#dirArrow" transform="rotate(270) translate(-36 17)" onmousedown="handlePan(-1,0)">
                  <use xlink:href="#rim" fill="#404040">
                        <set attributeName="fill" to="#808080" begin="arrowLeft.mouseover" end="arrowLeft.mouseout"/>
                  </use>
                  <path fill="none" stroke="white" stroke-width="1.5" d="M0,-3.0v7 M-2.5,-0.5L0,-3.0L2.5,-0.5"/>
                </g>
        </g>
        <svg viewBox="0 0 15 15" width="100%" height="30px" preserveAspectRatio="xMaxYMin meet">
         <g id="arrow_out" transform="scale(0.3 0.3)">
          <a xlink:href="structqjs_1_1js__traits_3_01std_1_1string_01_4_ac5b51c364766cc6e173eb6fb473bca98_cgraph_org.svg" target="_base">
           <rect id="button" ry="5" rx="5" y="6" x="6" height="38" width="38"
                fill="#f2f5e9" fill-opacity="0.5" stroke="#606060" stroke-width="1.0"/>
           <path id="arrow"
             d="M 11.500037,31.436501 C 11.940474,20.09759 22.043105,11.32322 32.158766,21.979434 L 37.068811,17.246167 C 37.068811,17.246167 37.088388,32 37.088388,32 L 22.160133,31.978069 C 22.160133,31.978069 26.997745,27.140456 26.997745,27.140456 C 18.528582,18.264221 13.291696,25.230495 11.500037,31.436501 z"
             style="fill:#404040;"/>
          </a>
         </g>
        </svg>
</svg>
