<?xml version="1.0" encoding="UTF-8" standalone="no"?>
<!DOCTYPE svg PUBLIC "-//W3C//DTD SVG 1.1//EN"
 "http://www.w3.org/Graphics/SVG/1.1/DTD/svg11.dtd">
<!-- Generated by graphviz version 2.40.1 (20161225.0304)
 -->
<!-- Title: qjs::js_property_traits&lt; const char * &gt;::get_property Pages: 1 -->
<svg width="530pt" height="142pt"
 viewBox="0.00 0.00 530.00 142.00" xmlns="http://www.w3.org/2000/svg" xmlns:xlink="http://www.w3.org/1999/xlink">
<g id="graph0" class="graph" transform="scale(1 1) rotate(0) translate(4 138)">
<title>qjs::js_property_traits&lt; const char * &gt;::get_property</title>
<!-- Node434 -->
<g id="node1" class="node">
<title>Node434</title>
<polygon fill="#bfbfbf" stroke="#000000" points="0,-27.5 0,-68.5 110,-68.5 110,-27.5 0,-27.5"/>
<text text-anchor="start" x="8" y="-56.5" font-family="Helvetica,sans-Serif" font-size="10.00" fill="#000000">qjs::js_property_traits</text>
<text text-anchor="start" x="8" y="-45.5" font-family="Helvetica,sans-Serif" font-size="10.00" fill="#000000">&lt; const char * &gt;::get</text>
<text text-anchor="middle" x="55" y="-34.5" font-family="Helvetica,sans-Serif" font-size="10.00" fill="#000000">_property</text>
</g>
<!-- Node435 -->
<g id="node2" class="node">
<title>Node435</title>
<g id="a_node2"><a xlink:href="quickjs_8c.html#a04f589361a4fbc30d997402e92a50de2" target="_top" xlink:title="JS_GetPropertyStr">
<polygon fill="none" stroke="#000000" points="146,-38.5 146,-57.5 245,-57.5 245,-38.5 146,-38.5"/>
<text text-anchor="middle" x="195.5" y="-45.5" font-family="Helvetica,sans-Serif" font-size="10.00" fill="#000000">JS_GetPropertyStr</text>
</a>
</g>
</g>
<!-- Node434&#45;&gt;Node435 -->
<g id="edge1" class="edge">
<title>Node434&#45;&gt;Node435</title>
<path fill="none" stroke="#191970" d="M110.1261,-48C118.4338,-48 127.0377,-48 135.4428,-48"/>
<polygon fill="#191970" stroke="#191970" points="135.5632,-51.5001 145.5632,-48 135.5631,-44.5001 135.5632,-51.5001"/>
</g>
<!-- Node436 -->
<g id="node3" class="node">
<title>Node436</title>
<g id="a_node3"><a xlink:href="quickjs_8c.html#ab7fc45a99935a1c0ba50b0216d9401a9" target="_top" xlink:title="JS_FreeAtom">
<polygon fill="none" stroke="#000000" points="285.5,-76.5 285.5,-95.5 362.5,-95.5 362.5,-76.5 285.5,-76.5"/>
<text text-anchor="middle" x="324" y="-83.5" font-family="Helvetica,sans-Serif" font-size="10.00" fill="#000000">JS_FreeAtom</text>
</a>
</g>
</g>
<!-- Node435&#45;&gt;Node436 -->
<g id="edge2" class="edge">
<title>Node435&#45;&gt;Node436</title>
<path fill="none" stroke="#191970" d="M227.926,-57.589C244.2097,-62.4044 264.1421,-68.2988 281.622,-73.468"/>
<polygon fill="#191970" stroke="#191970" points="281.0024,-76.9345 291.5844,-76.4141 282.9875,-70.2219 281.0024,-76.9345"/>
</g>
<!-- Node442 -->
<g id="node6" class="node">
<title>Node442</title>
<g id="a_node6"><a xlink:href="quickjs_8h.html#a89b7c8686c7eee70b86be722ee4730ad" target="_top" xlink:title="JS_GetProperty">
<polygon fill="none" stroke="#000000" points="281,-38.5 281,-57.5 367,-57.5 367,-38.5 281,-38.5"/>
<text text-anchor="middle" x="324" y="-45.5" font-family="Helvetica,sans-Serif" font-size="10.00" fill="#000000">JS_GetProperty</text>
</a>
</g>
</g>
<!-- Node435&#45;&gt;Node442 -->
<g id="edge5" class="edge">
<title>Node435&#45;&gt;Node442</title>
<path fill="none" stroke="#191970" d="M245.1815,-48C253.5163,-48 262.1964,-48 270.6198,-48"/>
<polygon fill="#191970" stroke="#191970" points="270.7267,-51.5001 280.7267,-48 270.7266,-44.5001 270.7267,-51.5001"/>
</g>
<!-- Node795 -->
<g id="node8" class="node">
<title>Node795</title>
<g id="a_node8"><a xlink:href="quickjs_8c.html#aa2ef5af1544a3012f91a80c98c326b8f" target="_top" xlink:title="JS_NewAtom">
<polygon fill="none" stroke="#ff0000" points="285.5,-.5 285.5,-19.5 362.5,-19.5 362.5,-.5 285.5,-.5"/>
<text text-anchor="middle" x="324" y="-7.5" font-family="Helvetica,sans-Serif" font-size="10.00" fill="#000000">JS_NewAtom</text>
</a>
</g>
</g>
<!-- Node435&#45;&gt;Node795 -->
<g id="edge7" class="edge">
<title>Node435&#45;&gt;Node795</title>
<path fill="none" stroke="#191970" d="M227.926,-38.411C244.2097,-33.5956 264.1421,-27.7012 281.622,-22.532"/>
<polygon fill="#191970" stroke="#191970" points="282.9875,-25.7781 291.5844,-19.5859 281.0024,-19.0655 282.9875,-25.7781"/>
</g>
<!-- Node437 -->
<g id="node4" class="node">
<title>Node437</title>
<g id="a_node4"><a xlink:href="quickjs_8c.html#a7f6796ee7a195631366f57c713a33f65" target="_top" xlink:title="__JS_AtomIsConst">
<polygon fill="none" stroke="#000000" points="411.5,-114.5 411.5,-133.5 513.5,-133.5 513.5,-114.5 411.5,-114.5"/>
<text text-anchor="middle" x="462.5" y="-121.5" font-family="Helvetica,sans-Serif" font-size="10.00" fill="#000000">__JS_AtomIsConst</text>
</a>
</g>
</g>
<!-- Node436&#45;&gt;Node437 -->
<g id="edge3" class="edge">
<title>Node436&#45;&gt;Node437</title>
<path fill="none" stroke="#191970" d="M358.9494,-95.589C376.8284,-100.4944 398.7884,-106.5196 417.8778,-111.7571"/>
<polygon fill="#191970" stroke="#191970" points="416.9921,-115.1434 427.5618,-114.4141 418.8443,-108.3928 416.9921,-115.1434"/>
</g>
<!-- Node438 -->
<g id="node5" class="node">
<title>Node438</title>
<g id="a_node5"><a xlink:href="quickjs_8c.html#a0bbd9e3ecd55e3ea6c9d44bfda382095" target="_top" xlink:title="__JS_FreeAtom">
<polygon fill="none" stroke="#ff0000" points="419,-76.5 419,-95.5 506,-95.5 506,-76.5 419,-76.5"/>
<text text-anchor="middle" x="462.5" y="-83.5" font-family="Helvetica,sans-Serif" font-size="10.00" fill="#000000">__JS_FreeAtom</text>
</a>
</g>
</g>
<!-- Node436&#45;&gt;Node438 -->
<g id="edge4" class="edge">
<title>Node436&#45;&gt;Node438</title>
<path fill="none" stroke="#191970" d="M362.58,-86C376.7572,-86 393.0837,-86 408.3756,-86"/>
<polygon fill="#191970" stroke="#191970" points="408.758,-89.5001 418.758,-86 408.7579,-82.5001 408.758,-89.5001"/>
</g>
<!-- Node443 -->
<g id="node7" class="node">
<title>Node443</title>
<g id="a_node7"><a xlink:href="quickjs_8c.html#a5762c57ae0c9937e986040c01222833a" target="_top" xlink:title="JS_GetPropertyInternal">
<polygon fill="none" stroke="#ff0000" points="403,-38.5 403,-57.5 522,-57.5 522,-38.5 403,-38.5"/>
<text text-anchor="middle" x="462.5" y="-45.5" font-family="Helvetica,sans-Serif" font-size="10.00" fill="#000000">JS_GetPropertyInternal</text>
</a>
</g>
</g>
<!-- Node442&#45;&gt;Node443 -->
<g id="edge6" class="edge">
<title>Node442&#45;&gt;Node443</title>
<path fill="none" stroke="#191970" d="M367.0631,-48C375.2247,-48 383.9555,-48 392.6981,-48"/>
<polygon fill="#191970" stroke="#191970" points="392.9331,-51.5001 402.933,-48 392.933,-44.5001 392.9331,-51.5001"/>
</g>
</g>
</svg>
