<?xml version="1.0" encoding="UTF-8" standalone="no"?>
<!DOCTYPE svg PUBLIC "-//W3C//DTD SVG 1.1//EN"
 "http://www.w3.org/Graphics/SVG/1.1/DTD/svg11.dtd">
<!-- Generated by graphviz version 2.40.1 (20161225.0304)
 -->
<!-- Title: qjs::js_traits&lt; std::function&lt; R(Args...)&gt; &gt;::unwrap Pages: 1 -->
<!--zoomable 1017 -->
<svg id="main" version="1.1" xmlns="http://www.w3.org/2000/svg" xmlns:xlink="http://www.w3.org/1999/xlink" xml:space="preserve" onload="init(evt)">
<style type="text/css"><![CDATA[
.edge:hover path { stroke: red; }
.edge:hover polygon { stroke: red; fill: red; }
]]></style>
<script type="text/javascript"><![CDATA[
var edges = document.getElementsByTagName('g');
if (edges && edges.length) {
  for (var i=0;i<edges.length;i++) {
    if (edges[i].id.substr(0,4)=='edge') {
      edges[i].setAttribute('class','edge');
    }
  }
}
]]></script>
        <defs>
                <circle id="rim" cx="0" cy="0" r="7"/>
                <circle id="rim2" cx="0" cy="0" r="3.5"/>
                <g id="zoomPlus">
                        <use xlink:href="#rim" fill="#404040">
                                <set attributeName="fill" to="#808080" begin="zoomplus.mouseover" end="zoomplus.mouseout"/>
                        </use>
                        <path d="M-4,0h8M0,-4v8" fill="none" stroke="white" stroke-width="1.5" pointer-events="none"/>
                </g>
                <g id="zoomMin">
                        <use xlink:href="#rim" fill="#404040">
                                <set attributeName="fill" to="#808080" begin="zoomminus.mouseover" end="zoomminus.mouseout"/>
                        </use>
                        <path d="M-4,0h8" fill="none" stroke="white" stroke-width="1.5" pointer-events="none"/>
                </g>
                <g id="dirArrow">
                        <path fill="none" stroke="white" stroke-width="1.5" d="M0,-3.0v7 M-2.5,-0.5L0,-3.0L2.5,-0.5"/>
                </g>
               <g id="resetDef">
                       <use xlink:href="#rim2" fill="#404040">
                               <set attributeName="fill" to="#808080" begin="reset.mouseover" end="reset.mouseout"/>
                       </use>
               </g>
        </defs>

<script type="text/javascript">
var viewWidth = 654;
var viewHeight = 1017;
var sectionId = 'dynsection-0';
</script>
<script xlink:href="svgpan.js"/>
<svg id="graph" class="graph">
<g id="viewport">
<title>qjs::js_traits&lt; std::function&lt; R(Args...)&gt; &gt;::unwrap</title>
<!-- Node0 -->
<g id="node1" class="node">
<title>Node0</title>
<polygon fill="#bfbfbf" stroke="#000000" points="0,-464.5 0,-505.5 109,-505.5 109,-464.5 0,-464.5"/>
<text text-anchor="start" x="8" y="-493.5" font-family="Helvetica,sans-Serif" font-size="10.00" fill="#000000">qjs::js_traits&lt; std</text>
<text text-anchor="start" x="8" y="-482.5" font-family="Helvetica,sans-Serif" font-size="10.00" fill="#000000">::function&lt; R(Args...)</text>
<text text-anchor="middle" x="54.5" y="-471.5" font-family="Helvetica,sans-Serif" font-size="10.00" fill="#000000">&gt; &gt;::unwrap</text>
</g>
<!-- Node1 -->
<g id="node2" class="node">
<title>Node1</title>
<g id="a_node2"><a xlink:href="quickjs_8c.html#a1a4c02a29525d5cb2085dd8bca3af350" target="_top" xlink:title="JS_Call">
<polygon fill="none" stroke="#000000" points="145,-475.5 145,-494.5 196,-494.5 196,-475.5 145,-475.5"/>
<text text-anchor="middle" x="170.5" y="-482.5" font-family="Helvetica,sans-Serif" font-size="10.00" fill="#000000">JS_Call</text>
</a>
</g>
</g>
<!-- Node0&#45;&gt;Node1 -->
<g id="edge1" class="edge">
<title>Node0&#45;&gt;Node1</title>
<path fill="none" stroke="#191970" d="M109.1033,-485C117.7654,-485 126.5288,-485 134.6173,-485"/>
<polygon fill="#191970" stroke="#191970" points="134.7964,-488.5001 144.7963,-485 134.7963,-481.5001 134.7964,-488.5001"/>
</g>
<!-- Node2 -->
<g id="node3" class="node">
<title>Node2</title>
<g id="a_node3"><a xlink:href="quickjs_8c.html#ac2894ff4edcdb4e6841bcce9c76081e3" target="_top" xlink:title="JS_CallInternal">
<polygon fill="none" stroke="#ff0000" points="232,-475.5 232,-494.5 315,-494.5 315,-475.5 232,-475.5"/>
<text text-anchor="middle" x="273.5" y="-482.5" font-family="Helvetica,sans-Serif" font-size="10.00" fill="#000000">JS_CallInternal</text>
</a>
</g>
</g>
<!-- Node1&#45;&gt;Node2 -->
<g id="edge2" class="edge">
<title>Node1&#45;&gt;Node2</title>
<path fill="none" stroke="#191970" d="M196.2256,-479.0658C203.9345,-478.5331 212.6815,-478.2613 221.4498,-478.2503"/>
<polygon fill="#191970" stroke="#191970" points="221.6557,-481.7526 231.6918,-478.3574 221.729,-474.753 221.6557,-481.7526"/>
</g>
<!-- Node2&#45;&gt;Node1 -->
<g id="edge37" class="edge">
<title>Node2&#45;&gt;Node1</title>
<path fill="none" stroke="#191970" d="M231.6918,-491.6426C223.2502,-491.8317 214.4481,-491.7711 206.2376,-491.4608"/>
<polygon fill="#191970" stroke="#191970" points="206.3956,-487.9643 196.2256,-490.9342 206.0279,-494.9547 206.3956,-487.9643"/>
</g>
<!-- Node2&#45;&gt;Node2 -->
<g id="edge40" class="edge">
<title>Node2&#45;&gt;Node2</title>
<path fill="none" stroke="#191970" d="M257.7788,-494.7571C250.1307,-503.5653 255.3711,-513 273.5,-513 284.8306,-513 291.1266,-509.3146 292.388,-504.4"/>
<polygon fill="#191970" stroke="#191970" points="295.6666,-503.1658 289.2212,-494.7571 289.0161,-505.3499 295.6666,-503.1658"/>
</g>
<!-- Node3 -->
<g id="node4" class="node">
<title>Node3</title>
<g id="a_node4"><a xlink:href="quickjs_8c.html#a853f0924d441ea4225488f37c8b69f9a" target="_top" xlink:title="__attribute__">
<polygon fill="none" stroke="#000000" points="550,-855.5 550,-874.5 623,-874.5 623,-855.5 550,-855.5"/>
<text text-anchor="middle" x="586.5" y="-862.5" font-family="Helvetica,sans-Serif" font-size="10.00" fill="#000000">__attribute__</text>
</a>
</g>
</g>
<!-- Node2&#45;&gt;Node3 -->
<g id="edge3" class="edge">
<title>Node2&#45;&gt;Node3</title>
<path fill="none" stroke="#191970" d="M274.413,-494.5211C279.2875,-543.3665 303.8069,-765.3393 351,-812 377.2698,-837.9734 479.0482,-853.3088 539.8744,-860.34"/>
<polygon fill="#191970" stroke="#191970" points="539.669,-863.8389 549.9973,-861.4774 540.4506,-856.8826 539.669,-863.8389"/>
</g>
<!-- Node4 -->
<g id="node5" class="node">
<title>Node4</title>
<g id="a_node5"><a xlink:href="quickjs_8c.html#a877fcb7651d95b411ce70e62b7f4a1f0" target="_top" xlink:title="__JS_AtomFromUInt32">
<polygon fill="none" stroke="#000000" points="527,-722.5 527,-741.5 646,-741.5 646,-722.5 527,-722.5"/>
<text text-anchor="middle" x="586.5" y="-729.5" font-family="Helvetica,sans-Serif" font-size="10.00" fill="#000000">__JS_AtomFromUInt32</text>
</a>
</g>
</g>
<!-- Node2&#45;&gt;Node4 -->
<g id="edge4" class="edge">
<title>Node2&#45;&gt;Node4</title>
<path fill="none" stroke="#191970" d="M274.4099,-494.6723C279.1069,-542.3031 302.2936,-751.1527 351,-789 416.725,-840.0716 521.5392,-778.1421 565.752,-747.383"/>
<polygon fill="#191970" stroke="#191970" points="567.8768,-750.1668 573.9945,-741.5167 563.8178,-744.4638 567.8768,-750.1668"/>
</g>
<!-- Node5 -->
<g id="node6" class="node">
<title>Node5</title>
<g id="a_node6"><a xlink:href="quickjs_8h.html#a9bf98b18de88b4199910a43e933eb97d" target="_top" xlink:title="__JS_NewFloat64">
<polygon fill="none" stroke="#000000" points="372.5,-912.5 372.5,-931.5 469.5,-931.5 469.5,-912.5 372.5,-912.5"/>
<text text-anchor="middle" x="421" y="-919.5" font-family="Helvetica,sans-Serif" font-size="10.00" fill="#000000">__JS_NewFloat64</text>
</a>
</g>
</g>
<!-- Node2&#45;&gt;Node5 -->
<g id="edge5" class="edge">
<title>Node2&#45;&gt;Node5</title>
<path fill="none" stroke="#191970" d="M273.9379,-494.754C276.6874,-551.664 293.3594,-840.4456 351,-903 354.3946,-906.684 358.4245,-909.6818 362.8103,-912.1177"/>
<polygon fill="#191970" stroke="#191970" points="361.6688,-915.4426 372.2231,-916.3686 364.5499,-909.063 361.6688,-915.4426"/>
</g>
<!-- Node6 -->
<g id="node7" class="node">
<title>Node6</title>
<g id="a_node7"><a xlink:href="quickjs_8c.html#a74547db03bf739a52c83a326b32db997" target="_top" xlink:title="add_property">
<polygon fill="none" stroke="#ff0000" points="550,-171.5 550,-190.5 623,-190.5 623,-171.5 550,-171.5"/>
<text text-anchor="middle" x="586.5" y="-178.5" font-family="Helvetica,sans-Serif" font-size="10.00" fill="#000000">add_property</text>
</a>
</g>
</g>
<!-- Node2&#45;&gt;Node6 -->
<g id="edge6" class="edge">
<title>Node2&#45;&gt;Node6</title>
<path fill="none" stroke="#191970" d="M273.8957,-475.1983C276.3252,-420.5175 291.1576,-153.8695 351,-105 399.1938,-65.6431 432.259,-84.4792 491,-105 524.282,-116.6269 554.6414,-145.2426 571.819,-163.8533"/>
<polygon fill="#191970" stroke="#191970" points="569.2692,-166.2525 578.5457,-171.3708 574.4857,-161.5847 569.2692,-166.2525"/>
</g>
<!-- Node62 -->
<g id="node8" class="node">
<title>Node62</title>
<g id="a_node8"><a xlink:href="quickjs_8c.html#a4956f45ffd2849b96dc051277264f87a" target="_top" xlink:title="build_arg_list">
<polygon fill="none" stroke="#ff0000" points="384,-950.5 384,-969.5 458,-969.5 458,-950.5 384,-950.5"/>
<text text-anchor="middle" x="421" y="-957.5" font-family="Helvetica,sans-Serif" font-size="10.00" fill="#000000">build_arg_list</text>
</a>
</g>
</g>
<!-- Node2&#45;&gt;Node62 -->
<g id="edge7" class="edge">
<title>Node2&#45;&gt;Node62</title>
<path fill="none" stroke="#191970" d="M273.7771,-494.8391C275.6666,-554.9312 288.528,-872.1752 351,-941 357.0878,-947.7068 365.2808,-952.1448 373.9155,-955.0593"/>
<polygon fill="#191970" stroke="#191970" points="373.1948,-958.4905 383.7632,-957.7424 375.035,-951.7367 373.1948,-958.4905"/>
</g>
<!-- Node63 -->
<g id="node9" class="node">
<title>Node63</title>
<g id="a_node9"><a xlink:href="quickjs_8c.html#ac864482356b3efc2d0b0a509fcfa4c7c" target="_top" xlink:title="free_arg_list">
<polygon fill="none" stroke="#ff0000" points="551.5,-969.5 551.5,-988.5 621.5,-988.5 621.5,-969.5 551.5,-969.5"/>
<text text-anchor="middle" x="586.5" y="-976.5" font-family="Helvetica,sans-Serif" font-size="10.00" fill="#000000">free_arg_list</text>
</a>
</g>
</g>
<!-- Node2&#45;&gt;Node63 -->
<g id="edge12" class="edge">
<title>Node2&#45;&gt;Node63</title>
<path fill="none" stroke="#191970" d="M274.2636,-494.5865C279.6147,-560.5842 312.4065,-945.9891 351,-979 406.9261,-1026.8363 500.6337,-1007.4028 551.3436,-991.6481"/>
<polygon fill="#191970" stroke="#191970" points="552.447,-994.9699 560.8883,-988.5673 550.2967,-988.3083 552.447,-994.9699"/>
</g>
<!-- Node159 -->
<g id="node10" class="node">
<title>Node159</title>
<g id="a_node10"><a xlink:href="quickjs_8c.html#a61c8dfb5e807af1b6ff7d8ca61576dda" target="_top" xlink:title="build_backtrace">
<polygon fill="none" stroke="#ff0000" points="378.5,-760.5 378.5,-779.5 463.5,-779.5 463.5,-760.5 378.5,-760.5"/>
<text text-anchor="middle" x="421" y="-767.5" font-family="Helvetica,sans-Serif" font-size="10.00" fill="#000000">build_backtrace</text>
</a>
</g>
</g>
<!-- Node2&#45;&gt;Node159 -->
<g id="edge9" class="edge">
<title>Node2&#45;&gt;Node159</title>
<path fill="none" stroke="#191970" d="M275.028,-494.6606C282.0531,-537.9086 312.5562,-713.2595 351,-751 355.9508,-755.8602 362.0127,-759.5084 368.4782,-762.2413"/>
<polygon fill="#191970" stroke="#191970" points="367.5625,-765.6288 378.1573,-765.6248 369.8724,-759.0209 367.5625,-765.6288"/>
</g>
<!-- Node247 -->
<g id="node11" class="node">
<title>Node247</title>
<g id="a_node11"><a xlink:href="quickjs_8c.html#a344894112559c2ba75043fd10bcfa02f" target="_top" xlink:title="close_lexical_var">
<polygon fill="none" stroke="#ff0000" points="375,-722.5 375,-741.5 467,-741.5 467,-722.5 375,-722.5"/>
<text text-anchor="middle" x="421" y="-729.5" font-family="Helvetica,sans-Serif" font-size="10.00" fill="#000000">close_lexical_var</text>
</a>
</g>
</g>
<!-- Node2&#45;&gt;Node247 -->
<g id="edge10" class="edge">
<title>Node2&#45;&gt;Node247</title>
<path fill="none" stroke="#191970" d="M275.5044,-494.5794C283.8847,-533.7682 317.2508,-681.3005 351,-713 355.1304,-716.8795 359.9716,-719.9822 365.1461,-722.4613"/>
<polygon fill="#191970" stroke="#191970" points="364.1535,-725.8334 374.7387,-726.2834 366.7445,-719.3305 364.1535,-725.8334"/>
</g>
<!-- Node248 -->
<g id="node12" class="node">
<title>Node248</title>
<g id="a_node12"><a xlink:href="quickjs_8c.html#a1782043fce951bd4f0d91c7796b31e24" target="_top" xlink:title="close_var_refs">
<polygon fill="none" stroke="#ff0000" points="381,-684.5 381,-703.5 461,-703.5 461,-684.5 381,-684.5"/>
<text text-anchor="middle" x="421" y="-691.5" font-family="Helvetica,sans-Serif" font-size="10.00" fill="#000000">close_var_refs</text>
</a>
</g>
</g>
<!-- Node2&#45;&gt;Node248 -->
<g id="edge11" class="edge">
<title>Node2&#45;&gt;Node248</title>
<path fill="none" stroke="#191970" d="M274.741,-494.6157C279.1543,-524.9046 296.8403,-619.3228 351,-670 356.8045,-675.4312 363.8924,-679.6391 371.3042,-682.8976"/>
<polygon fill="#191970" stroke="#191970" points="370.2033,-686.2239 380.7935,-686.538 372.7106,-679.6884 370.2033,-686.2239"/>
</g>
<!-- Node51 -->
<g id="node13" class="node">
<title>Node51</title>
<g id="a_node13"><a xlink:href="quickjs_8c.html#a9e7b4bccf927d811b0f99b40b08c0472" target="_top" xlink:title="free_var_ref">
<polygon fill="none" stroke="#ff0000" points="552.5,-532.5 552.5,-551.5 620.5,-551.5 620.5,-532.5 552.5,-532.5"/>
<text text-anchor="middle" x="586.5" y="-539.5" font-family="Helvetica,sans-Serif" font-size="10.00" fill="#000000">free_var_ref</text>
</a>
</g>
</g>
<!-- Node2&#45;&gt;Node51 -->
<g id="edge13" class="edge">
<title>Node2&#45;&gt;Node51</title>
<path fill="none" stroke="#191970" d="M274.9698,-494.8119C279.7872,-523.0396 297.9578,-604.5056 351,-637 404.0576,-669.5038 433.483,-660.736 491,-637 528.6199,-621.4751 559.2239,-583.1578 574.9663,-560.2097"/>
<polygon fill="#191970" stroke="#191970" points="577.9995,-561.9686 580.6064,-551.6995 572.1645,-558.1016 577.9995,-561.9686"/>
</g>
<!-- Node250 -->
<g id="node14" class="node">
<title>Node250</title>
<g id="a_node14"><a xlink:href="cutils_8h.html#a7c82a3ee025fee89db5b11ff5b7691b8" target="_top" xlink:title="get_i16">
<polygon fill="none" stroke="#000000" points="397,-608.5 397,-627.5 445,-627.5 445,-608.5 397,-608.5"/>
<text text-anchor="middle" x="421" y="-615.5" font-family="Helvetica,sans-Serif" font-size="10.00" fill="#000000">get_i16</text>
</a>
</g>
</g>
<!-- Node2&#45;&gt;Node250 -->
<g id="edge14" class="edge">
<title>Node2&#45;&gt;Node250</title>
<path fill="none" stroke="#191970" d="M277.271,-494.658C286.3938,-516.723 311.8326,-571.0741 351,-599 361.4935,-606.4818 374.7845,-611.0181 386.9592,-613.7682"/>
<polygon fill="#191970" stroke="#191970" points="386.3539,-617.216 396.8373,-615.6837 387.6865,-610.344 386.3539,-617.216"/>
</g>
<!-- Node251 -->
<g id="node15" class="node">
<title>Node251</title>
<g id="a_node15"><a xlink:href="cutils_8h.html#a288ee4e688944e23500af2ecc813c306" target="_top" xlink:title="get_i8">
<polygon fill="none" stroke="#000000" points="399.5,-570.5 399.5,-589.5 442.5,-589.5 442.5,-570.5 399.5,-570.5"/>
<text text-anchor="middle" x="421" y="-577.5" font-family="Helvetica,sans-Serif" font-size="10.00" fill="#000000">get_i8</text>
</a>
</g>
</g>
<!-- Node2&#45;&gt;Node251 -->
<g id="edge15" class="edge">
<title>Node2&#45;&gt;Node251</title>
<path fill="none" stroke="#191970" d="M280.4929,-494.5099C292.8734,-510.6553 320.2606,-543.3861 351,-561 362.6941,-567.7008 376.8458,-572.1197 389.356,-574.9935"/>
<polygon fill="#191970" stroke="#191970" points="388.8879,-578.4705 399.3885,-577.0603 390.3004,-571.6145 388.8879,-578.4705"/>
</g>
<!-- Node252 -->
<g id="node16" class="node">
<title>Node252</title>
<g id="a_node16"><a xlink:href="cutils_8h.html#ad587834d17e95461893d59661e5e9676" target="_top" xlink:title="get_u16">
<polygon fill="none" stroke="#000000" points="395.5,-532.5 395.5,-551.5 446.5,-551.5 446.5,-532.5 395.5,-532.5"/>
<text text-anchor="middle" x="421" y="-539.5" font-family="Helvetica,sans-Serif" font-size="10.00" fill="#000000">get_u16</text>
</a>
</g>
</g>
<!-- Node2&#45;&gt;Node252 -->
<g id="edge16" class="edge">
<title>Node2&#45;&gt;Node252</title>
<path fill="none" stroke="#191970" d="M290.6229,-494.5772C306.0538,-502.9195 329.5461,-514.9134 351,-523 362.0063,-527.1486 374.2999,-530.7992 385.4762,-533.763"/>
<polygon fill="#191970" stroke="#191970" points="384.8019,-537.2031 395.357,-536.2863 386.534,-530.4207 384.8019,-537.2031"/>
</g>
<!-- Node47 -->
<g id="node17" class="node">
<title>Node47</title>
<g id="a_node17"><a xlink:href="cutils_8h.html#a941262a5f72fda2ec43ae7911e97a0dc" target="_top" xlink:title="get_u32">
<polygon fill="none" stroke="#000000" points="395.5,-494.5 395.5,-513.5 446.5,-513.5 446.5,-494.5 395.5,-494.5"/>
<text text-anchor="middle" x="421" y="-501.5" font-family="Helvetica,sans-Serif" font-size="10.00" fill="#000000">get_u32</text>
</a>
</g>
</g>
<!-- Node2&#45;&gt;Node47 -->
<g id="edge17" class="edge">
<title>Node2&#45;&gt;Node47</title>
<path fill="none" stroke="#191970" d="M315.373,-490.3938C337.3771,-493.2282 364.069,-496.6665 385.1154,-499.3776"/>
<polygon fill="#191970" stroke="#191970" points="384.8842,-502.8766 395.2495,-500.683 385.7786,-495.934 384.8842,-502.8766"/>
</g>
<!-- Node253 -->
<g id="node18" class="node">
<title>Node253</title>
<g id="a_node18"><a xlink:href="quickjs_8c.html#a37fe43b6649456a848bd54846450b995" target="_top" xlink:title="get_var_ref">
<polygon fill="none" stroke="#ff0000" points="554,-342.5 554,-361.5 619,-361.5 619,-342.5 554,-342.5"/>
<text text-anchor="middle" x="586.5" y="-349.5" font-family="Helvetica,sans-Serif" font-size="10.00" fill="#000000">get_var_ref</text>
</a>
</g>
</g>
<!-- Node2&#45;&gt;Node253 -->
<g id="edge18" class="edge">
<title>Node2&#45;&gt;Node253</title>
<path fill="none" stroke="#191970" d="M273.9352,-475.2282C275.9742,-442.6994 287.4305,-337.7248 351,-295 402.6423,-260.2915 431.0163,-278.4602 491,-295 519.7933,-302.9394 548.6586,-322.0957 566.9959,-336.0145"/>
<polygon fill="#191970" stroke="#191970" points="565.0718,-338.9529 575.1058,-342.3545 569.3832,-333.4381 565.0718,-338.9529"/>
</g>
<!-- Node196 -->
<g id="node19" class="node">
<title>Node196</title>
<g id="a_node19"><a xlink:href="list_8h.html#a663527a4d757540b2177bef0db1ce5c0" target="_top" xlink:title="init_list_head">
<polygon fill="none" stroke="#000000" points="384,-418.5 384,-437.5 458,-437.5 458,-418.5 384,-418.5"/>
<text text-anchor="middle" x="421" y="-425.5" font-family="Helvetica,sans-Serif" font-size="10.00" fill="#000000">init_list_head</text>
</a>
</g>
</g>
<!-- Node2&#45;&gt;Node196 -->
<g id="edge19" class="edge">
<title>Node2&#45;&gt;Node196</title>
<path fill="none" stroke="#191970" d="M290.6229,-475.4228C306.0538,-467.0805 329.5461,-455.0866 351,-447 358.3737,-444.2206 366.3253,-441.6648 374.1315,-439.3892"/>
<polygon fill="#191970" stroke="#191970" points="375.1994,-442.7249 383.8873,-436.661 373.3142,-435.9835 375.1994,-442.7249"/>
</g>
<!-- Node254 -->
<g id="node20" class="node">
<title>Node254</title>
<g id="a_node20"><a xlink:href="quickjs_8c.html#a2bb0a2ca3b8320f3ff778c65034fce49" target="_top" xlink:title="is_backtrace_needed">
<polygon fill="none" stroke="#ff0000" points="366.5,-380.5 366.5,-399.5 475.5,-399.5 475.5,-380.5 366.5,-380.5"/>
<text text-anchor="middle" x="421" y="-387.5" font-family="Helvetica,sans-Serif" font-size="10.00" fill="#000000">is_backtrace_needed</text>
</a>
</g>
</g>
<!-- Node2&#45;&gt;Node254 -->
<g id="edge20" class="edge">
<title>Node2&#45;&gt;Node254</title>
<path fill="none" stroke="#191970" d="M280.4929,-475.4901C292.8734,-459.3447 320.2606,-426.6139 351,-409 354.9163,-406.756 359.1081,-404.7678 363.4217,-403.008"/>
<polygon fill="#191970" stroke="#191970" points="364.8075,-406.228 372.9994,-399.5091 362.4055,-399.653 364.8075,-406.228"/>
</g>
<!-- Node180 -->
<g id="node21" class="node">
<title>Node180</title>
<g id="a_node21"><a xlink:href="quickjs_8c.html#a686cf78f8b0361621ee2ba6182195c31" target="_top" xlink:title="is_strict_mode">
<polygon fill="none" stroke="#000000" points="381,-342.5 381,-361.5 461,-361.5 461,-342.5 381,-342.5"/>
<text text-anchor="middle" x="421" y="-349.5" font-family="Helvetica,sans-Serif" font-size="10.00" fill="#000000">is_strict_mode</text>
</a>
</g>
</g>
<!-- Node2&#45;&gt;Node180 -->
<g id="edge21" class="edge">
<title>Node2&#45;&gt;Node180</title>
<path fill="none" stroke="#191970" d="M277.271,-475.342C286.3938,-453.277 311.8326,-398.9259 351,-371 356.9917,-366.728 363.8955,-363.4162 370.9828,-360.849"/>
<polygon fill="#191970" stroke="#191970" points="372.2067,-364.1331 380.6925,-357.7895 370.1029,-357.4567 372.2067,-364.1331"/>
</g>
<!-- Node256 -->
<g id="node22" class="node">
<title>Node256</title>
<g id="a_node22"><a xlink:href="quickjs_8c.html#ae8ff05447c0d51fe277baccf616dc7c6" target="_top" xlink:title="js_add_slow">
<polygon fill="none" stroke="#ff0000" points="385.5,-304.5 385.5,-323.5 456.5,-323.5 456.5,-304.5 385.5,-304.5"/>
<text text-anchor="middle" x="421" y="-311.5" font-family="Helvetica,sans-Serif" font-size="10.00" fill="#000000">js_add_slow</text>
</a>
</g>
</g>
<!-- Node2&#45;&gt;Node256 -->
<g id="edge22" class="edge">
<title>Node2&#45;&gt;Node256</title>
<path fill="none" stroke="#191970" d="M275.5184,-475.4579C281.7001,-448.6428 302.9464,-372.0314 351,-333 358.0307,-327.2893 366.6368,-323.2878 375.3779,-320.4857"/>
<polygon fill="#191970" stroke="#191970" points="376.4979,-323.8083 385.2276,-317.8047 374.6594,-317.0541 376.4979,-323.8083"/>
</g>
<!-- Node263 -->
<g id="node23" class="node">
<title>Node263</title>
<g id="a_node23"><a xlink:href="quickjs_8c.html#a6a21784a40b8684f2e779bd460dd13b2" target="_top" xlink:title="JS_AddBrand">
<polygon fill="none" stroke="#ff0000" points="382.5,-114.5 382.5,-133.5 459.5,-133.5 459.5,-114.5 382.5,-114.5"/>
<text text-anchor="middle" x="421" y="-121.5" font-family="Helvetica,sans-Serif" font-size="10.00" fill="#000000">JS_AddBrand</text>
</a>
</g>
</g>
<!-- Node2&#45;&gt;Node263 -->
<g id="edge23" class="edge">
<title>Node2&#45;&gt;Node263</title>
<path fill="none" stroke="#191970" d="M274.3548,-475.4191C279.0195,-425.2382 302.9705,-193.1003 351,-143 356.8877,-136.8585 364.5432,-132.6353 372.6235,-129.7456"/>
<polygon fill="#191970" stroke="#191970" points="373.6123,-133.1031 382.2236,-126.9309 371.6428,-126.3859 373.6123,-133.1031"/>
</g>
<!-- Node266 -->
<g id="node24" class="node">
<title>Node266</title>
<g id="a_node24"><a xlink:href="quickjs_8c.html#a43208b0746998d2b6b9b8bd1ef8b5f99" target="_top" xlink:title="js_append_enumerate">
<polygon fill="none" stroke="#ff0000" points="365,-874.5 365,-893.5 477,-893.5 477,-874.5 365,-874.5"/>
<text text-anchor="middle" x="421" y="-881.5" font-family="Helvetica,sans-Serif" font-size="10.00" fill="#000000">js_append_enumerate</text>
</a>
</g>
</g>
<!-- Node2&#45;&gt;Node266 -->
<g id="edge25" class="edge">
<title>Node2&#45;&gt;Node266</title>
<path fill="none" stroke="#191970" d="M274.2253,-494.7281C278.3723,-547.8816 300.6851,-802.8808 351,-860 354.4154,-863.8772 358.4853,-867.1286 362.9199,-869.855"/>
<polygon fill="#191970" stroke="#191970" points="361.3333,-872.9748 371.821,-874.4776 364.5595,-866.7626 361.3333,-872.9748"/>
</g>
<!-- Node95 -->
<g id="node25" class="node">
<title>Node95</title>
<g id="a_node25"><a xlink:href="quickjs_8c.html#a260bfa297ff6cb5bd18e229afaa54663" target="_top" xlink:title="JS_AtomToString">
<polygon fill="none" stroke="#ff0000" points="374,-190.5 374,-209.5 468,-209.5 468,-190.5 374,-190.5"/>
<text text-anchor="middle" x="421" y="-197.5" font-family="Helvetica,sans-Serif" font-size="10.00" fill="#000000">JS_AtomToString</text>
</a>
</g>
</g>
<!-- Node2&#45;&gt;Node95 -->
<g id="edge27" class="edge">
<title>Node2&#45;&gt;Node95</title>
<path fill="none" stroke="#191970" d="M275.028,-475.3394C282.0531,-432.0914 312.5562,-256.7405 351,-219 354.9314,-215.1405 359.5635,-212.0453 364.542,-209.5658"/>
<polygon fill="#191970" stroke="#191970" points="365.8982,-212.7925 373.8008,-205.7356 363.2223,-206.3241 365.8982,-212.7925"/>
</g>
<!-- Node294 -->
<g id="node26" class="node">
<title>Node294</title>
<g id="a_node26"><a xlink:href="quickjs_8c.html#afa67965c1017685fc6783776d6d0d4d7" target="_top" xlink:title="JS_AtomToValue">
<polygon fill="none" stroke="#ff0000" points="374.5,-152.5 374.5,-171.5 467.5,-171.5 467.5,-152.5 374.5,-152.5"/>
<text text-anchor="middle" x="421" y="-159.5" font-family="Helvetica,sans-Serif" font-size="10.00" fill="#000000">JS_AtomToValue</text>
</a>
</g>
</g>
<!-- Node2&#45;&gt;Node294 -->
<g id="edge28" class="edge">
<title>Node2&#45;&gt;Node294</title>
<path fill="none" stroke="#191970" d="M274.6644,-475.2608C280.4788,-428.2031 307.8171,-224.8542 351,-181 354.9759,-176.9623 359.7169,-173.757 364.8313,-171.2163"/>
<polygon fill="#191970" stroke="#191970" points="366.4226,-174.347 374.3557,-167.3244 363.7747,-167.8671 366.4226,-174.347"/>
</g>
<!-- Node295 -->
<g id="node27" class="node">
<title>Node295</title>
<g id="a_node27"><a xlink:href="quickjs_8c.html#a04d312757919ff6b4d79cd0c2c3e5bb2" target="_top" xlink:title="js_build_arguments">
<polygon fill="none" stroke="#ff0000" points="370.5,-228.5 370.5,-247.5 471.5,-247.5 471.5,-228.5 370.5,-228.5"/>
<text text-anchor="middle" x="421" y="-235.5" font-family="Helvetica,sans-Serif" font-size="10.00" fill="#000000">js_build_arguments</text>
</a>
</g>
</g>
<!-- Node2&#45;&gt;Node295 -->
<g id="edge29" class="edge">
<title>Node2&#45;&gt;Node295</title>
<path fill="none" stroke="#191970" d="M273.96,-475.42C276.1126,-441.3522 287.9779,-324.7593 351,-262 354.9827,-258.0339 359.6486,-254.7225 364.6478,-251.9577"/>
<polygon fill="#191970" stroke="#191970" points="366.3997,-255.0004 373.9308,-247.5484 363.3963,-248.6775 366.3997,-255.0004"/>
</g>
<!-- Node296 -->
<g id="node28" class="node">
<title>Node296</title>
<g id="a_node28"><a xlink:href="quickjs_8c.html#a1c459034f2971c4abc3a8d6d4693ef5f" target="_top" xlink:title="js_build_mapped_arguments">
<polygon fill="none" stroke="#ff0000" points="351,-456.5 351,-475.5 491,-475.5 491,-456.5 351,-456.5"/>
<text text-anchor="middle" x="421" y="-463.5" font-family="Helvetica,sans-Serif" font-size="10.00" fill="#000000">js_build_mapped_arguments</text>
</a>
</g>
</g>
<!-- Node2&#45;&gt;Node296 -->
<g id="edge31" class="edge">
<title>Node2&#45;&gt;Node296</title>
<path fill="none" stroke="#191970" d="M315.373,-479.6062C323.4177,-478.5699 332.0889,-477.4529 340.8818,-476.3203"/>
<polygon fill="#191970" stroke="#191970" points="341.3632,-479.7873 350.8341,-475.0383 340.4688,-472.8447 341.3632,-479.7873"/>
</g>
<!-- Node297 -->
<g id="node29" class="node">
<title>Node297</title>
<g id="a_node29"><a xlink:href="quickjs_8c.html#a72f4829a5b32f5445fe3f2a59efeb8ea" target="_top" xlink:title="js_build_rest">
<polygon fill="none" stroke="#ff0000" points="385.5,-38.5 385.5,-57.5 456.5,-57.5 456.5,-38.5 385.5,-38.5"/>
<text text-anchor="middle" x="421" y="-45.5" font-family="Helvetica,sans-Serif" font-size="10.00" fill="#000000">js_build_rest</text>
</a>
</g>
</g>
<!-- Node2&#45;&gt;Node297 -->
<g id="edge36" class="edge">
<title>Node2&#45;&gt;Node297</title>
<path fill="none" stroke="#191970" d="M274.0167,-475.416C277.2143,-419.4902 296.0042,-135.5972 351,-72 357.424,-64.5713 366.2534,-59.4391 375.4787,-55.8943"/>
<polygon fill="#191970" stroke="#191970" points="376.7263,-59.1691 385.1515,-52.7452 374.5593,-52.5129 376.7263,-59.1691"/>
</g>
<!-- Node298 -->
<g id="node30" class="node">
<title>Node298</title>
<g id="a_node30"><a xlink:href="quickjs_8c.html#ad35594576a14c10812efaf958c99af8a" target="_top" xlink:title="JS_CallConstructorInternal">
<polygon fill="none" stroke="#ff0000" points="354,-.5 354,-19.5 488,-19.5 488,-.5 354,-.5"/>
<text text-anchor="middle" x="421" y="-7.5" font-family="Helvetica,sans-Serif" font-size="10.00" fill="#000000">JS_CallConstructorInternal</text>
</a>
</g>
</g>
<!-- Node2&#45;&gt;Node298 -->
<g id="edge38" class="edge">
<title>Node2&#45;&gt;Node298</title>
<path fill="none" stroke="#191970" d="M273.709,-475.284C275.2874,-416.3566 286.9084,-110.9826 347.5154,-25.13"/>
<polygon fill="#191970" stroke="#191970" points="350.4364,-27.0809 353.9347,-17.0803 344.9635,-22.7165 350.4364,-27.0809"/>
</g>
<!-- Node62&#45;&gt;Node63 -->
<g id="edge8" class="edge">
<title>Node62&#45;&gt;Node63</title>
<path fill="none" stroke="#191970" d="M458.1414,-964.264C482.7928,-967.094 515.2972,-970.8257 541.4282,-973.8256"/>
<polygon fill="#191970" stroke="#191970" points="541.1302,-977.3143 551.4642,-974.9778 541.9286,-970.36 541.1302,-977.3143"/>
</g>
<!-- Node263&#45;&gt;Node6 -->
<g id="edge24" class="edge">
<title>Node263&#45;&gt;Node6</title>
<path fill="none" stroke="#191970" d="M459.3817,-133.5747C469.7178,-136.3819 480.8461,-139.614 491,-143 512.6669,-150.2252 536.5411,-159.7249 554.999,-167.4184"/>
<polygon fill="#191970" stroke="#191970" points="553.8072,-170.7141 564.3818,-171.3678 556.5229,-164.2623 553.8072,-170.7141"/>
</g>
<!-- Node266&#45;&gt;Node3 -->
<g id="edge26" class="edge">
<title>Node266&#45;&gt;Node3</title>
<path fill="none" stroke="#191970" d="M477.0308,-877.5675C497.3799,-875.2313 520.144,-872.6179 539.6206,-870.3819"/>
<polygon fill="#191970" stroke="#191970" points="540.2347,-873.8345 549.7702,-869.2167 539.4362,-866.8802 540.2347,-873.8345"/>
</g>
<!-- Node295&#45;&gt;Node6 -->
<g id="edge30" class="edge">
<title>Node295&#45;&gt;Node6</title>
<path fill="none" stroke="#191970" d="M459.3817,-228.4253C469.7178,-225.6181 480.8461,-222.386 491,-219 512.6669,-211.7748 536.5411,-202.2751 554.999,-194.5816"/>
<polygon fill="#191970" stroke="#191970" points="556.5229,-197.7377 564.3818,-190.6322 553.8072,-191.2859 556.5229,-197.7377"/>
</g>
<!-- Node296&#45;&gt;Node4 -->
<g id="edge32" class="edge">
<title>Node296&#45;&gt;Node4</title>
<path fill="none" stroke="#191970" d="M476.345,-475.5519C481.6801,-478.0246 486.6969,-481.1223 491,-485 508.9708,-501.1944 561.9428,-657.7128 580.2172,-712.8761"/>
<polygon fill="#191970" stroke="#191970" points="576.9309,-714.0866 583.3887,-722.4858 583.5782,-711.8927 576.9309,-714.0866"/>
</g>
<!-- Node296&#45;&gt;Node6 -->
<g id="edge33" class="edge">
<title>Node296&#45;&gt;Node6</title>
<path fill="none" stroke="#191970" d="M477.2838,-456.3852C482.312,-453.9164 487.003,-450.8371 491,-447 529.3299,-410.2042 509.3061,-383.1003 527,-333 544.0708,-284.6639 566.7247,-228.7448 578.5484,-200.0928"/>
<polygon fill="#191970" stroke="#191970" points="581.9206,-201.0974 582.5154,-190.5193 575.4538,-198.4177 581.9206,-201.0974"/>
</g>
<!-- Node296&#45;&gt;Node51 -->
<g id="edge34" class="edge">
<title>Node296&#45;&gt;Node51</title>
<path fill="none" stroke="#191970" d="M463.4592,-475.5271C472.6994,-478.1492 482.307,-481.3085 491,-485 517.7281,-496.3501 546.011,-514.0361 564.7976,-526.6968"/>
<polygon fill="#191970" stroke="#191970" points="562.9809,-529.6947 573.2089,-532.4585 566.9368,-523.9197 562.9809,-529.6947"/>
</g>
<!-- Node296&#45;&gt;Node253 -->
<g id="edge35" class="edge">
<title>Node296&#45;&gt;Node253</title>
<path fill="none" stroke="#191970" d="M469.3935,-456.4111C476.893,-453.933 484.3489,-450.8428 491,-447 525.7048,-426.9489 556.7446,-391.1661 573.472,-369.7027"/>
<polygon fill="#191970" stroke="#191970" points="576.2722,-371.8026 579.543,-361.7252 570.7018,-367.5633 576.2722,-371.8026"/>
</g>
<!-- Node298&#45;&gt;Node2 -->
<g id="edge39" class="edge">
<title>Node298&#45;&gt;Node2</title>
<path fill="none" stroke="#191970" d="M388.8283,-19.5254C375.3233,-22.527 360.5638,-27.4637 351,-38 292.3485,-102.6159 277.4252,-386.1962 274.2557,-464.8592"/>
<polygon fill="#191970" stroke="#191970" points="270.7413,-465.1696 273.8561,-475.2962 277.7362,-465.4375 270.7413,-465.1696"/>
</g>
</g>
</svg>
        <g id="navigator" transform="translate(0 0)" fill="#404254">
                <rect fill="#f2f5e9" fill-opacity="0.5" stroke="#606060" stroke-width=".5" x="0" y="0" width="60" height="60"/>
                <use id="zoomplus" xlink:href="#zoomPlus" x="17" y="9" onmousedown="handleZoom(evt,'in')"/>
                <use id="zoomminus" xlink:href="#zoomMin" x="42" y="9" onmousedown="handleZoom(evt,'out')"/>
                <use id="reset" xlink:href="#resetDef" x="30" y="36" onmousedown="handleReset()"/>
                <g id="arrowUp" xlink:href="#dirArrow" transform="translate(30 24)" onmousedown="handlePan(0,-1)">
                  <use xlink:href="#rim" fill="#404040">
                        <set attributeName="fill" to="#808080" begin="arrowUp.mouseover" end="arrowUp.mouseout"/>
                  </use>
                  <path fill="none" stroke="white" stroke-width="1.5" d="M0,-3.0v7 M-2.5,-0.5L0,-3.0L2.5,-0.5"/>
                </g>
                <g id="arrowRight" xlink:href="#dirArrow" transform="rotate(90) translate(36 -43)" onmousedown="handlePan(1,0)">
                  <use xlink:href="#rim" fill="#404040">
                        <set attributeName="fill" to="#808080" begin="arrowRight.mouseover" end="arrowRight.mouseout"/>
                  </use>
                  <path fill="none" stroke="white" stroke-width="1.5" d="M0,-3.0v7 M-2.5,-0.5L0,-3.0L2.5,-0.5"/>
                </g>
                <g id="arrowDown" xlink:href="#dirArrow" transform="rotate(180) translate(-30 -48)" onmousedown="handlePan(0,1)">
                  <use xlink:href="#rim" fill="#404040">
                        <set attributeName="fill" to="#808080" begin="arrowDown.mouseover" end="arrowDown.mouseout"/>
                  </use>
                  <path fill="none" stroke="white" stroke-width="1.5" d="M0,-3.0v7 M-2.5,-0.5L0,-3.0L2.5,-0.5"/>
                </g>
                <g id="arrowLeft" xlink:href="#dirArrow" transform="rotate(270) translate(-36 17)" onmousedown="handlePan(-1,0)">
                  <use xlink:href="#rim" fill="#404040">
                        <set attributeName="fill" to="#808080" begin="arrowLeft.mouseover" end="arrowLeft.mouseout"/>
                  </use>
                  <path fill="none" stroke="white" stroke-width="1.5" d="M0,-3.0v7 M-2.5,-0.5L0,-3.0L2.5,-0.5"/>
                </g>
        </g>
        <svg viewBox="0 0 15 15" width="100%" height="30px" preserveAspectRatio="xMaxYMin meet">
         <g id="arrow_out" transform="scale(0.3 0.3)">
          <a xlink:href="structqjs_1_1js__traits_3_01std_1_1function_3_01R_07Args_8_8_8_08_4_01_4_abc36cacd670b6b5f1773734a0586a02b_cgraph_org.svg" target="_base">
           <rect id="button" ry="5" rx="5" y="6" x="6" height="38" width="38"
                fill="#f2f5e9" fill-opacity="0.5" stroke="#606060" stroke-width="1.0"/>
           <path id="arrow"
             d="M 11.500037,31.436501 C 11.940474,20.09759 22.043105,11.32322 32.158766,21.979434 L 37.068811,17.246167 C 37.068811,17.246167 37.088388,32 37.088388,32 L 22.160133,31.978069 C 22.160133,31.978069 26.997745,27.140456 26.997745,27.140456 C 18.528582,18.264221 13.291696,25.230495 11.500037,31.436501 z"
             style="fill:#404040;"/>
          </a>
         </g>
        </svg>
</svg>
