<?xml version="1.0" encoding="UTF-8" standalone="no"?>
<!DOCTYPE svg PUBLIC "-//W3C//DTD SVG 1.1//EN"
 "http://www.w3.org/Graphics/SVG/1.1/DTD/svg11.dtd">
<!-- Generated by graphviz version 2.40.1 (20161225.0304)
 -->
<!-- Title: qjs::js_property_traits&lt; const char * &gt;::get_property Pages: 1 -->
<!--zoomable 142 -->
<svg id="main" version="1.1" xmlns="http://www.w3.org/2000/svg" xmlns:xlink="http://www.w3.org/1999/xlink" xml:space="preserve" onload="init(evt)">
<style type="text/css"><![CDATA[
.edge:hover path { stroke: red; }
.edge:hover polygon { stroke: red; fill: red; }
]]></style>
<script type="text/javascript"><![CDATA[
var edges = document.getElementsByTagName('g');
if (edges && edges.length) {
  for (var i=0;i<edges.length;i++) {
    if (edges[i].id.substr(0,4)=='edge') {
      edges[i].setAttribute('class','edge');
    }
  }
}
]]></script>
        <defs>
                <circle id="rim" cx="0" cy="0" r="7"/>
                <circle id="rim2" cx="0" cy="0" r="3.5"/>
                <g id="zoomPlus">
                        <use xlink:href="#rim" fill="#404040">
                                <set attributeName="fill" to="#808080" begin="zoomplus.mouseover" end="zoomplus.mouseout"/>
                        </use>
                        <path d="M-4,0h8M0,-4v8" fill="none" stroke="white" stroke-width="1.5" pointer-events="none"/>
                </g>
                <g id="zoomMin">
                        <use xlink:href="#rim" fill="#404040">
                                <set attributeName="fill" to="#808080" begin="zoomminus.mouseover" end="zoomminus.mouseout"/>
                        </use>
                        <path d="M-4,0h8" fill="none" stroke="white" stroke-width="1.5" pointer-events="none"/>
                </g>
                <g id="dirArrow">
                        <path fill="none" stroke="white" stroke-width="1.5" d="M0,-3.0v7 M-2.5,-0.5L0,-3.0L2.5,-0.5"/>
                </g>
               <g id="resetDef">
                       <use xlink:href="#rim2" fill="#404040">
                               <set attributeName="fill" to="#808080" begin="reset.mouseover" end="reset.mouseout"/>
                       </use>
               </g>
        </defs>

<script type="text/javascript">
var viewWidth = 530;
var viewHeight = 142;
var sectionId = 'dynsection-1';
</script>
<script xlink:href="svgpan.js"/>
<svg id="graph" class="graph">
<g id="viewport">
<title>qjs::js_property_traits&lt; const char * &gt;::get_property</title>
<!-- Node434 -->
<g id="node1" class="node">
<title>Node434</title>
<polygon fill="#bfbfbf" stroke="#000000" points="0,-27.5 0,-68.5 110,-68.5 110,-27.5 0,-27.5"/>
<text text-anchor="start" x="8" y="-56.5" font-family="Helvetica,sans-Serif" font-size="10.00" fill="#000000">qjs::js_property_traits</text>
<text text-anchor="start" x="8" y="-45.5" font-family="Helvetica,sans-Serif" font-size="10.00" fill="#000000">&lt; const char * &gt;::get</text>
<text text-anchor="middle" x="55" y="-34.5" font-family="Helvetica,sans-Serif" font-size="10.00" fill="#000000">_property</text>
</g>
<!-- Node435 -->
<g id="node2" class="node">
<title>Node435</title>
<g id="a_node2"><a xlink:href="quickjs_8c.html#a04f589361a4fbc30d997402e92a50de2" target="_top" xlink:title="JS_GetPropertyStr">
<polygon fill="none" stroke="#000000" points="146,-38.5 146,-57.5 245,-57.5 245,-38.5 146,-38.5"/>
<text text-anchor="middle" x="195.5" y="-45.5" font-family="Helvetica,sans-Serif" font-size="10.00" fill="#000000">JS_GetPropertyStr</text>
</a>
</g>
</g>
<!-- Node434&#45;&gt;Node435 -->
<g id="edge1" class="edge">
<title>Node434&#45;&gt;Node435</title>
<path fill="none" stroke="#191970" d="M110.1261,-48C118.4338,-48 127.0377,-48 135.4428,-48"/>
<polygon fill="#191970" stroke="#191970" points="135.5632,-51.5001 145.5632,-48 135.5631,-44.5001 135.5632,-51.5001"/>
</g>
<!-- Node436 -->
<g id="node3" class="node">
<title>Node436</title>
<g id="a_node3"><a xlink:href="quickjs_8c.html#ab7fc45a99935a1c0ba50b0216d9401a9" target="_top" xlink:title="JS_FreeAtom">
<polygon fill="none" stroke="#000000" points="285.5,-76.5 285.5,-95.5 362.5,-95.5 362.5,-76.5 285.5,-76.5"/>
<text text-anchor="middle" x="324" y="-83.5" font-family="Helvetica,sans-Serif" font-size="10.00" fill="#000000">JS_FreeAtom</text>
</a>
</g>
</g>
<!-- Node435&#45;&gt;Node436 -->
<g id="edge2" class="edge">
<title>Node435&#45;&gt;Node436</title>
<path fill="none" stroke="#191970" d="M227.926,-57.589C244.2097,-62.4044 264.1421,-68.2988 281.622,-73.468"/>
<polygon fill="#191970" stroke="#191970" points="281.0024,-76.9345 291.5844,-76.4141 282.9875,-70.2219 281.0024,-76.9345"/>
</g>
<!-- Node442 -->
<g id="node6" class="node">
<title>Node442</title>
<g id="a_node6"><a xlink:href="quickjs_8h.html#a89b7c8686c7eee70b86be722ee4730ad" target="_top" xlink:title="JS_GetProperty">
<polygon fill="none" stroke="#000000" points="281,-38.5 281,-57.5 367,-57.5 367,-38.5 281,-38.5"/>
<text text-anchor="middle" x="324" y="-45.5" font-family="Helvetica,sans-Serif" font-size="10.00" fill="#000000">JS_GetProperty</text>
</a>
</g>
</g>
<!-- Node435&#45;&gt;Node442 -->
<g id="edge5" class="edge">
<title>Node435&#45;&gt;Node442</title>
<path fill="none" stroke="#191970" d="M245.1815,-48C253.5163,-48 262.1964,-48 270.6198,-48"/>
<polygon fill="#191970" stroke="#191970" points="270.7267,-51.5001 280.7267,-48 270.7266,-44.5001 270.7267,-51.5001"/>
</g>
<!-- Node795 -->
<g id="node8" class="node">
<title>Node795</title>
<g id="a_node8"><a xlink:href="quickjs_8c.html#aa2ef5af1544a3012f91a80c98c326b8f" target="_top" xlink:title="JS_NewAtom">
<polygon fill="none" stroke="#ff0000" points="285.5,-.5 285.5,-19.5 362.5,-19.5 362.5,-.5 285.5,-.5"/>
<text text-anchor="middle" x="324" y="-7.5" font-family="Helvetica,sans-Serif" font-size="10.00" fill="#000000">JS_NewAtom</text>
</a>
</g>
</g>
<!-- Node435&#45;&gt;Node795 -->
<g id="edge7" class="edge">
<title>Node435&#45;&gt;Node795</title>
<path fill="none" stroke="#191970" d="M227.926,-38.411C244.2097,-33.5956 264.1421,-27.7012 281.622,-22.532"/>
<polygon fill="#191970" stroke="#191970" points="282.9875,-25.7781 291.5844,-19.5859 281.0024,-19.0655 282.9875,-25.7781"/>
</g>
<!-- Node437 -->
<g id="node4" class="node">
<title>Node437</title>
<g id="a_node4"><a xlink:href="quickjs_8c.html#a7f6796ee7a195631366f57c713a33f65" target="_top" xlink:title="__JS_AtomIsConst">
<polygon fill="none" stroke="#000000" points="411.5,-114.5 411.5,-133.5 513.5,-133.5 513.5,-114.5 411.5,-114.5"/>
<text text-anchor="middle" x="462.5" y="-121.5" font-family="Helvetica,sans-Serif" font-size="10.00" fill="#000000">__JS_AtomIsConst</text>
</a>
</g>
</g>
<!-- Node436&#45;&gt;Node437 -->
<g id="edge3" class="edge">
<title>Node436&#45;&gt;Node437</title>
<path fill="none" stroke="#191970" d="M358.9494,-95.589C376.8284,-100.4944 398.7884,-106.5196 417.8778,-111.7571"/>
<polygon fill="#191970" stroke="#191970" points="416.9921,-115.1434 427.5618,-114.4141 418.8443,-108.3928 416.9921,-115.1434"/>
</g>
<!-- Node438 -->
<g id="node5" class="node">
<title>Node438</title>
<g id="a_node5"><a xlink:href="quickjs_8c.html#a0bbd9e3ecd55e3ea6c9d44bfda382095" target="_top" xlink:title="__JS_FreeAtom">
<polygon fill="none" stroke="#ff0000" points="419,-76.5 419,-95.5 506,-95.5 506,-76.5 419,-76.5"/>
<text text-anchor="middle" x="462.5" y="-83.5" font-family="Helvetica,sans-Serif" font-size="10.00" fill="#000000">__JS_FreeAtom</text>
</a>
</g>
</g>
<!-- Node436&#45;&gt;Node438 -->
<g id="edge4" class="edge">
<title>Node436&#45;&gt;Node438</title>
<path fill="none" stroke="#191970" d="M362.58,-86C376.7572,-86 393.0837,-86 408.3756,-86"/>
<polygon fill="#191970" stroke="#191970" points="408.758,-89.5001 418.758,-86 408.7579,-82.5001 408.758,-89.5001"/>
</g>
<!-- Node443 -->
<g id="node7" class="node">
<title>Node443</title>
<g id="a_node7"><a xlink:href="quickjs_8c.html#a5762c57ae0c9937e986040c01222833a" target="_top" xlink:title="JS_GetPropertyInternal">
<polygon fill="none" stroke="#ff0000" points="403,-38.5 403,-57.5 522,-57.5 522,-38.5 403,-38.5"/>
<text text-anchor="middle" x="462.5" y="-45.5" font-family="Helvetica,sans-Serif" font-size="10.00" fill="#000000">JS_GetPropertyInternal</text>
</a>
</g>
</g>
<!-- Node442&#45;&gt;Node443 -->
<g id="edge6" class="edge">
<title>Node442&#45;&gt;Node443</title>
<path fill="none" stroke="#191970" d="M367.0631,-48C375.2247,-48 383.9555,-48 392.6981,-48"/>
<polygon fill="#191970" stroke="#191970" points="392.9331,-51.5001 402.933,-48 392.933,-44.5001 392.9331,-51.5001"/>
</g>
</g>
</svg>
        <g id="navigator" transform="translate(0 0)" fill="#404254">
                <rect fill="#f2f5e9" fill-opacity="0.5" stroke="#606060" stroke-width=".5" x="0" y="0" width="60" height="60"/>
                <use id="zoomplus" xlink:href="#zoomPlus" x="17" y="9" onmousedown="handleZoom(evt,'in')"/>
                <use id="zoomminus" xlink:href="#zoomMin" x="42" y="9" onmousedown="handleZoom(evt,'out')"/>
                <use id="reset" xlink:href="#resetDef" x="30" y="36" onmousedown="handleReset()"/>
                <g id="arrowUp" xlink:href="#dirArrow" transform="translate(30 24)" onmousedown="handlePan(0,-1)">
                  <use xlink:href="#rim" fill="#404040">
                        <set attributeName="fill" to="#808080" begin="arrowUp.mouseover" end="arrowUp.mouseout"/>
                  </use>
                  <path fill="none" stroke="white" stroke-width="1.5" d="M0,-3.0v7 M-2.5,-0.5L0,-3.0L2.5,-0.5"/>
                </g>
                <g id="arrowRight" xlink:href="#dirArrow" transform="rotate(90) translate(36 -43)" onmousedown="handlePan(1,0)">
                  <use xlink:href="#rim" fill="#404040">
                        <set attributeName="fill" to="#808080" begin="arrowRight.mouseover" end="arrowRight.mouseout"/>
                  </use>
                  <path fill="none" stroke="white" stroke-width="1.5" d="M0,-3.0v7 M-2.5,-0.5L0,-3.0L2.5,-0.5"/>
                </g>
                <g id="arrowDown" xlink:href="#dirArrow" transform="rotate(180) translate(-30 -48)" onmousedown="handlePan(0,1)">
                  <use xlink:href="#rim" fill="#404040">
                        <set attributeName="fill" to="#808080" begin="arrowDown.mouseover" end="arrowDown.mouseout"/>
                  </use>
                  <path fill="none" stroke="white" stroke-width="1.5" d="M0,-3.0v7 M-2.5,-0.5L0,-3.0L2.5,-0.5"/>
                </g>
                <g id="arrowLeft" xlink:href="#dirArrow" transform="rotate(270) translate(-36 17)" onmousedown="handlePan(-1,0)">
                  <use xlink:href="#rim" fill="#404040">
                        <set attributeName="fill" to="#808080" begin="arrowLeft.mouseover" end="arrowLeft.mouseout"/>
                  </use>
                  <path fill="none" stroke="white" stroke-width="1.5" d="M0,-3.0v7 M-2.5,-0.5L0,-3.0L2.5,-0.5"/>
                </g>
        </g>
        <svg viewBox="0 0 15 15" width="100%" height="30px" preserveAspectRatio="xMaxYMin meet">
         <g id="arrow_out" transform="scale(0.3 0.3)">
          <a xlink:href="structqjs_1_1js__property__traits_3_01const_01char_01_5_01_4_a0a01071b0c80a16dbd7d0fa538534116_cgraph_org.svg" target="_base">
           <rect id="button" ry="5" rx="5" y="6" x="6" height="38" width="38"
                fill="#f2f5e9" fill-opacity="0.5" stroke="#606060" stroke-width="1.0"/>
           <path id="arrow"
             d="M 11.500037,31.436501 C 11.940474,20.09759 22.043105,11.32322 32.158766,21.979434 L 37.068811,17.246167 C 37.068811,17.246167 37.088388,32 37.088388,32 L 22.160133,31.978069 C 22.160133,31.978069 26.997745,27.140456 26.997745,27.140456 C 18.528582,18.264221 13.291696,25.230495 11.500037,31.436501 z"
             style="fill:#404040;"/>
          </a>
         </g>
        </svg>
</svg>
