<?xml version="1.0" encoding="UTF-8" standalone="no"?>
<!DOCTYPE svg PUBLIC "-//W3C//DTD SVG 1.1//EN"
 "http://www.w3.org/Graphics/SVG/1.1/DTD/svg11.dtd">
<!-- Generated by graphviz version 2.40.1 (20161225.0304)
 -->
<!-- Title: WorkerFuncArgs Pages: 1 -->
<svg width="136pt" height="175pt"
 viewBox="0.00 0.00 135.50 175.00" xmlns="http://www.w3.org/2000/svg" xmlns:xlink="http://www.w3.org/1999/xlink">
<g id="graph0" class="graph" transform="scale(1 1) rotate(0) translate(4 171)">
<title>WorkerFuncArgs</title>
<!-- Node1 -->
<g id="node1" class="node">
<title>Node1</title>
<polygon fill="#bfbfbf" stroke="#000000" points="14.5,-.5 14.5,-19.5 104.5,-19.5 104.5,-.5 14.5,-.5"/>
<text text-anchor="middle" x="59.5" y="-7.5" font-family="Helvetica,sans-Serif" font-size="10.00" fill="#000000">WorkerFuncArgs</text>
</g>
<!-- Node2 -->
<g id="node2" class="node">
<title>Node2</title>
<g id="a_node2"><a xlink:href="structJSWorkerMessagePipe.html" target="_top" xlink:title="JSWorkerMessagePipe">
<polygon fill="none" stroke="#000000" points="0,-78.5 0,-97.5 119,-97.5 119,-78.5 0,-78.5"/>
<text text-anchor="middle" x="59.5" y="-85.5" font-family="Helvetica,sans-Serif" font-size="10.00" fill="#000000">JSWorkerMessagePipe</text>
</a>
</g>
</g>
<!-- Node2&#45;&gt;Node1 -->
<g id="edge1" class="edge">
<title>Node2&#45;&gt;Node1</title>
<path fill="none" stroke="#9a32cd" stroke-dasharray="5,2" d="M59.5,-68.2866C59.5,-52.7395 59.5,-31.7276 59.5,-19.6426"/>
<polygon fill="#9a32cd" stroke="#9a32cd" points="56.0001,-68.4356 59.5,-78.4357 63.0001,-68.4357 56.0001,-68.4356"/>
<text text-anchor="middle" x="83.5" y="-52" font-family="Helvetica,sans-Serif" font-size="10.00" fill="#000000"> send_pipe</text>
<text text-anchor="middle" x="83.5" y="-41" font-family="Helvetica,sans-Serif" font-size="10.00" fill="#000000">recv_pipe</text>
</g>
<!-- Node3 -->
<g id="node3" class="node">
<title>Node3</title>
<g id="a_node3"><a xlink:href="structlist__head.html" target="_top" xlink:title="list_head">
<polygon fill="none" stroke="#000000" points="31.5,-146.5 31.5,-165.5 87.5,-165.5 87.5,-146.5 31.5,-146.5"/>
<text text-anchor="middle" x="59.5" y="-153.5" font-family="Helvetica,sans-Serif" font-size="10.00" fill="#000000">list_head</text>
</a>
</g>
</g>
<!-- Node3&#45;&gt;Node2 -->
<g id="edge2" class="edge">
<title>Node3&#45;&gt;Node2</title>
<path fill="none" stroke="#9a32cd" stroke-dasharray="5,2" d="M59.5,-136.1951C59.5,-123.5514 59.5,-107.7157 59.5,-97.7247"/>
<polygon fill="#9a32cd" stroke="#9a32cd" points="56.0001,-136.2572 59.5,-146.2573 63.0001,-136.2573 56.0001,-136.2572"/>
<text text-anchor="middle" x="86.5" y="-119" font-family="Helvetica,sans-Serif" font-size="10.00" fill="#000000"> msg_queue</text>
</g>
<!-- Node3&#45;&gt;Node3 -->
<g id="edge3" class="edge">
<title>Node3&#45;&gt;Node3</title>
<path fill="none" stroke="#9a32cd" stroke-dasharray="5,2" d="M98.0533,-161.4491C102.5634,-160.4467 105.5,-158.6303 105.5,-156 105.5,-151.6836 97.5919,-149.5591 87.7994,-149.6266"/>
<polygon fill="#9a32cd" stroke="#9a32cd" points="97.4447,-157.9897 87.7994,-162.3734 98.0733,-164.9614 97.4447,-157.9897"/>
<text text-anchor="middle" x="116.5" y="-159" font-family="Helvetica,sans-Serif" font-size="10.00" fill="#000000"> prev</text>
<text text-anchor="middle" x="116.5" y="-148" font-family="Helvetica,sans-Serif" font-size="10.00" fill="#000000">next</text>
</g>
</g>
</svg>
