<?xml version="1.0" encoding="UTF-8" standalone="no"?>
<!DOCTYPE svg PUBLIC "-//W3C//DTD SVG 1.1//EN"
 "http://www.w3.org/Graphics/SVG/1.1/DTD/svg11.dtd">
<!-- Generated by graphviz version 2.40.1 (20161225.0304)
 -->
<!-- Title: JSMapIteratorData Pages: 1 -->
<svg width="227pt" height="255pt"
 viewBox="0.00 0.00 226.50 255.00" xmlns="http://www.w3.org/2000/svg" xmlns:xlink="http://www.w3.org/1999/xlink">
<g id="graph0" class="graph" transform="scale(1 1) rotate(0) translate(4 251)">
<title>JSMapIteratorData</title>
<!-- Node1 -->
<g id="node1" class="node">
<title>Node1</title>
<polygon fill="#bfbfbf" stroke="#000000" points="72.5,-.5 72.5,-19.5 171.5,-19.5 171.5,-.5 72.5,-.5"/>
<text text-anchor="middle" x="122" y="-7.5" font-family="Helvetica,sans-Serif" font-size="10.00" fill="#000000">JSMapIteratorData</text>
</g>
<!-- Node2 -->
<g id="node2" class="node">
<title>Node2</title>
<g id="a_node2"><a xlink:href="structJSMapRecord.html" target="_top" xlink:title="JSMapRecord">
<polygon fill="none" stroke="#000000" points="1.5,-67.5 1.5,-86.5 80.5,-86.5 80.5,-67.5 1.5,-67.5"/>
<text text-anchor="middle" x="41" y="-74.5" font-family="Helvetica,sans-Serif" font-size="10.00" fill="#000000">JSMapRecord</text>
</a>
</g>
</g>
<!-- Node2&#45;&gt;Node1 -->
<g id="edge1" class="edge">
<title>Node2&#45;&gt;Node1</title>
<path fill="none" stroke="#9a32cd" stroke-dasharray="5,2" d="M60.586,-60.7992C76.1648,-47.9131 97.4332,-30.3207 110.4162,-19.5817"/>
<polygon fill="#9a32cd" stroke="#9a32cd" points="58.0801,-58.3298 52.6053,-67.4005 62.5417,-63.7237 58.0801,-58.3298"/>
<text text-anchor="middle" x="111.5" y="-41" font-family="Helvetica,sans-Serif" font-size="10.00" fill="#000000"> cur_record</text>
</g>
<!-- Node2&#45;&gt;Node2 -->
<g id="edge6" class="edge">
<title>Node2&#45;&gt;Node2</title>
<path fill="none" stroke="#9a32cd" stroke-dasharray="5,2" d="M90.7074,-81.8464C95.4783,-80.8616 98.5,-79.2461 98.5,-77 98.5,-73.4063 90.7644,-71.4269 80.5057,-71.0619"/>
<polygon fill="#9a32cd" stroke="#9a32cd" points="90.0765,-78.3939 80.5057,-82.9381 90.8214,-85.3541 90.0765,-78.3939"/>
<text text-anchor="middle" x="132" y="-74.5" font-family="Helvetica,sans-Serif" font-size="10.00" fill="#000000"> next_weak_ref</text>
</g>
<!-- Node3 -->
<g id="node3" class="node">
<title>Node3</title>
<g id="a_node3"><a xlink:href="structlist__head.html" target="_top" xlink:title="list_head">
<polygon fill="none" stroke="#000000" points="0,-226.5 0,-245.5 56,-245.5 56,-226.5 0,-226.5"/>
<text text-anchor="middle" x="28" y="-233.5" font-family="Helvetica,sans-Serif" font-size="10.00" fill="#000000">list_head</text>
</a>
</g>
</g>
<!-- Node3&#45;&gt;Node2 -->
<g id="edge2" class="edge">
<title>Node3&#45;&gt;Node2</title>
<path fill="none" stroke="#9a32cd" stroke-dasharray="5,2" d="M19.7173,-217.0968C12.7105,-198.6617 4.6032,-169.8485 10,-145 14.7915,-122.9388 27.3908,-99.4527 34.9706,-86.6705"/>
<polygon fill="#9a32cd" stroke="#9a32cd" points="16.4958,-218.4663 23.5045,-226.4117 22.9804,-215.8298 16.4958,-218.4663"/>
<text text-anchor="middle" x="31" y="-159" font-family="Helvetica,sans-Serif" font-size="10.00" fill="#000000"> link</text>
<text text-anchor="middle" x="31" y="-148" font-family="Helvetica,sans-Serif" font-size="10.00" fill="#000000">hash_link</text>
</g>
<!-- Node3&#45;&gt;Node3 -->
<g id="edge3" class="edge">
<title>Node3&#45;&gt;Node3</title>
<path fill="none" stroke="#9a32cd" stroke-dasharray="5,2" d="M66.5533,-242.4107C71.0634,-241.2314 74,-239.0945 74,-236 74,-230.9219 66.0919,-228.4225 56.2994,-228.5018"/>
<polygon fill="#9a32cd" stroke="#9a32cd" points="65.8745,-238.963 56.2994,-243.4982 66.6128,-245.9239 65.8745,-238.963"/>
<text text-anchor="middle" x="85" y="-239" font-family="Helvetica,sans-Serif" font-size="10.00" fill="#000000"> prev</text>
<text text-anchor="middle" x="85" y="-228" font-family="Helvetica,sans-Serif" font-size="10.00" fill="#000000">next</text>
</g>
<!-- Node6 -->
<g id="node6" class="node">
<title>Node6</title>
<g id="a_node6"><a xlink:href="structJSMapState.html" target="_top" xlink:title="JSMapState">
<polygon fill="none" stroke="#000000" points="61.5,-146.5 61.5,-165.5 132.5,-165.5 132.5,-146.5 61.5,-146.5"/>
<text text-anchor="middle" x="97" y="-153.5" font-family="Helvetica,sans-Serif" font-size="10.00" fill="#000000">JSMapState</text>
</a>
</g>
</g>
<!-- Node3&#45;&gt;Node6 -->
<g id="edge8" class="edge">
<title>Node3&#45;&gt;Node6</title>
<path fill="none" stroke="#9a32cd" stroke-dasharray="5,2" d="M43.087,-218.5078C56.9996,-202.3772 77.1566,-179.0068 88.47,-165.8898"/>
<polygon fill="#9a32cd" stroke="#9a32cd" points="40.3417,-216.332 36.4608,-226.1904 45.6424,-220.9039 40.3417,-216.332"/>
<text text-anchor="middle" x="95" y="-199" font-family="Helvetica,sans-Serif" font-size="10.00" fill="#000000"> records</text>
<text text-anchor="middle" x="95" y="-188" font-family="Helvetica,sans-Serif" font-size="10.00" fill="#000000">hash_table</text>
</g>
<!-- Node4 -->
<g id="node4" class="node">
<title>Node4</title>
<g id="a_node4"><a xlink:href="structJSValue.html" target="_top" xlink:title="JSValue">
<polygon fill="none" stroke="#000000" points="152.5,-146.5 152.5,-165.5 205.5,-165.5 205.5,-146.5 152.5,-146.5"/>
<text text-anchor="middle" x="179" y="-153.5" font-family="Helvetica,sans-Serif" font-size="10.00" fill="#000000">JSValue</text>
</a>
</g>
</g>
<!-- Node4&#45;&gt;Node1 -->
<g id="edge9" class="edge">
<title>Node4&#45;&gt;Node1</title>
<path fill="none" stroke="#9a32cd" stroke-dasharray="5,2" d="M181.5732,-136.2413C183.1626,-117.6235 183.3843,-89.3302 174,-67 165.6966,-47.2417 147.4599,-29.9157 134.9501,-19.6996"/>
<polygon fill="#9a32cd" stroke="#9a32cd" points="178.0654,-136.1275 180.4804,-146.4434 185.0256,-136.873 178.0654,-136.1275"/>
<text text-anchor="middle" x="187" y="-74.5" font-family="Helvetica,sans-Serif" font-size="10.00" fill="#000000"> obj</text>
</g>
<!-- Node4&#45;&gt;Node2 -->
<g id="edge4" class="edge">
<title>Node4&#45;&gt;Node2</title>
<path fill="none" stroke="#9a32cd" stroke-dasharray="5,2" d="M157.5788,-140.5147C142.433,-129.8918 121.4441,-115.8166 102,-105 89.7803,-98.2023 75.6133,-91.6251 64.0095,-86.5553"/>
<polygon fill="#9a32cd" stroke="#9a32cd" points="155.5836,-143.3905 165.7655,-146.3197 159.6326,-137.6803 155.5836,-143.3905"/>
<text text-anchor="middle" x="149" y="-119" font-family="Helvetica,sans-Serif" font-size="10.00" fill="#000000"> key</text>
<text text-anchor="middle" x="149" y="-108" font-family="Helvetica,sans-Serif" font-size="10.00" fill="#000000">value</text>
</g>
<!-- Node5 -->
<g id="node5" class="node">
<title>Node5</title>
<g id="a_node5"><a xlink:href="unionJSValueUnion.html" target="_top" xlink:title="JSValueUnion">
<polygon fill="none" stroke="#000000" points="139.5,-226.5 139.5,-245.5 218.5,-245.5 218.5,-226.5 139.5,-226.5"/>
<text text-anchor="middle" x="179" y="-233.5" font-family="Helvetica,sans-Serif" font-size="10.00" fill="#000000">JSValueUnion</text>
</a>
</g>
</g>
<!-- Node5&#45;&gt;Node4 -->
<g id="edge5" class="edge">
<title>Node5&#45;&gt;Node4</title>
<path fill="none" stroke="#9a32cd" stroke-dasharray="5,2" d="M179,-215.7811C179,-199.8354 179,-178.2847 179,-165.8898"/>
<polygon fill="#9a32cd" stroke="#9a32cd" points="175.5001,-216.1904 179,-226.1904 182.5001,-216.1905 175.5001,-216.1904"/>
<text text-anchor="middle" x="183.5" y="-193.5" font-family="Helvetica,sans-Serif" font-size="10.00" fill="#000000"> u</text>
</g>
<!-- Node6&#45;&gt;Node2 -->
<g id="edge7" class="edge">
<title>Node6&#45;&gt;Node2</title>
<path fill="none" stroke="#9a32cd" stroke-dasharray="5,2" d="M84.1289,-137.8425C72.8661,-121.954 56.9363,-99.4815 47.9229,-86.7662"/>
<polygon fill="#9a32cd" stroke="#9a32cd" points="81.4948,-140.1789 90.1333,-146.313 87.2056,-136.1307 81.4948,-140.1789"/>
<text text-anchor="middle" x="87" y="-113.5" font-family="Helvetica,sans-Serif" font-size="10.00" fill="#000000"> map</text>
</g>
</g>
</svg>
