<?xml version="1.0" encoding="UTF-8" standalone="no"?>
<!DOCTYPE svg PUBLIC "-//W3C//DTD SVG 1.1//EN"
 "http://www.w3.org/Graphics/SVG/1.1/DTD/svg11.dtd">
<!-- Generated by graphviz version 2.40.1 (20161225.0304)
 -->
<!-- Title: JSReqModuleEntry Pages: 1 -->
<!--zoomable 342 -->
<svg id="main" version="1.1" xmlns="http://www.w3.org/2000/svg" xmlns:xlink="http://www.w3.org/1999/xlink" xml:space="preserve" onload="init(evt)">
<style type="text/css"><![CDATA[
.edge:hover path { stroke: red; }
.edge:hover polygon { stroke: red; fill: red; }
]]></style>
<script type="text/javascript"><![CDATA[
var edges = document.getElementsByTagName('g');
if (edges && edges.length) {
  for (var i=0;i<edges.length;i++) {
    if (edges[i].id.substr(0,4)=='edge') {
      edges[i].setAttribute('class','edge');
    }
  }
}
]]></script>
        <defs>
                <circle id="rim" cx="0" cy="0" r="7"/>
                <circle id="rim2" cx="0" cy="0" r="3.5"/>
                <g id="zoomPlus">
                        <use xlink:href="#rim" fill="#404040">
                                <set attributeName="fill" to="#808080" begin="zoomplus.mouseover" end="zoomplus.mouseout"/>
                        </use>
                        <path d="M-4,0h8M0,-4v8" fill="none" stroke="white" stroke-width="1.5" pointer-events="none"/>
                </g>
                <g id="zoomMin">
                        <use xlink:href="#rim" fill="#404040">
                                <set attributeName="fill" to="#808080" begin="zoomminus.mouseover" end="zoomminus.mouseout"/>
                        </use>
                        <path d="M-4,0h8" fill="none" stroke="white" stroke-width="1.5" pointer-events="none"/>
                </g>
                <g id="dirArrow">
                        <path fill="none" stroke="white" stroke-width="1.5" d="M0,-3.0v7 M-2.5,-0.5L0,-3.0L2.5,-0.5"/>
                </g>
               <g id="resetDef">
                       <use xlink:href="#rim2" fill="#404040">
                               <set attributeName="fill" to="#808080" begin="reset.mouseover" end="reset.mouseout"/>
                       </use>
               </g>
        </defs>

<script type="text/javascript">
var viewWidth = 700;
var viewHeight = 342;
var sectionId = 'dynsection-0';
</script>
<script xlink:href="svgpan.js"/>
<svg id="graph" class="graph">
<g id="viewport">
<title>JSReqModuleEntry</title>
<!-- Node1 -->
<g id="node1" class="node">
<title>Node1</title>
<polygon fill="#bfbfbf" stroke="#000000" points="0,-68.5 0,-87.5 101,-87.5 101,-68.5 0,-68.5"/>
<text text-anchor="middle" x="50.5" y="-75.5" font-family="Helvetica,sans-Serif" font-size="10.00" fill="#000000">JSReqModuleEntry</text>
</g>
<!-- Node2 -->
<g id="node2" class="node">
<title>Node2</title>
<g id="a_node2"><a xlink:href="structJSModuleDef.html" target="_top" xlink:title="JSModuleDef">
<polygon fill="none" stroke="#000000" points="235.5,-.5 235.5,-19.5 311.5,-19.5 311.5,-.5 235.5,-.5"/>
<text text-anchor="middle" x="273.5" y="-7.5" font-family="Helvetica,sans-Serif" font-size="10.00" fill="#000000">JSModuleDef</text>
</a>
</g>
</g>
<!-- Node1&#45;&gt;Node2 -->
<g id="edge8" class="edge">
<title>Node1&#45;&gt;Node2</title>
<path fill="none" stroke="#9a32cd" stroke-dasharray="5,2" d="M40.4337,-58.9372C38.0503,-51.6269 37.4627,-43.6847 42.5,-38 55.0586,-23.8272 173.1389,-15.395 235.4311,-11.8971"/>
<polygon fill="#9a32cd" stroke="#9a32cd" points="37.2702,-60.4404 44.4376,-68.2429 43.7003,-57.6738 37.2702,-60.4404"/>
<text text-anchor="middle" x="86.5" y="-41" font-family="Helvetica,sans-Serif" font-size="10.00" fill="#000000"> req_module_entries</text>
</g>
<!-- Node2&#45;&gt;Node1 -->
<g id="edge1" class="edge">
<title>Node2&#45;&gt;Node1</title>
<path fill="none" stroke="#9a32cd" stroke-dasharray="5,2" d="M225.512,-19.5334C204.6558,-24.2257 180.1023,-30.4968 158.5,-38 147.4159,-41.8499 145.3919,-44.6358 134.5,-49 116.7418,-56.1154 96.4788,-63.1417 80.304,-68.4958"/>
<polygon fill="#9a32cd" stroke="#9a32cd" points="226.407,-22.9204 235.4244,-17.3582 224.9066,-16.083 226.407,-22.9204"/>
<text text-anchor="middle" x="176" y="-41" font-family="Helvetica,sans-Serif" font-size="10.00" fill="#000000"> module</text>
</g>
<!-- Node3 -->
<g id="node3" class="node">
<title>Node3</title>
<g id="a_node3"><a xlink:href="structlist__head.html" target="_top" xlink:title="list_head">
<polygon fill="none" stroke="#000000" points="124.5,-68.5 124.5,-87.5 180.5,-87.5 180.5,-68.5 124.5,-68.5"/>
<text text-anchor="middle" x="152.5" y="-75.5" font-family="Helvetica,sans-Serif" font-size="10.00" fill="#000000">list_head</text>
</a>
</g>
</g>
<!-- Node3&#45;&gt;Node2 -->
<g id="edge2" class="edge">
<title>Node3&#45;&gt;Node2</title>
<path fill="none" stroke="#9a32cd" stroke-dasharray="5,2" d="M175.1161,-62.7437C186.9468,-54.9942 201.7869,-45.6298 215.5,-38 227.4205,-31.3676 241.1517,-24.6976 252.2606,-19.5321"/>
<polygon fill="#9a32cd" stroke="#9a32cd" points="173.1303,-59.8609 166.7241,-68.2996 176.9945,-65.6976 173.1303,-59.8609"/>
<text text-anchor="middle" x="225" y="-41" font-family="Helvetica,sans-Serif" font-size="10.00" fill="#000000"> link</text>
</g>
<!-- Node3&#45;&gt;Node3 -->
<g id="edge3" class="edge">
<title>Node3&#45;&gt;Node3</title>
<path fill="none" stroke="#9a32cd" stroke-dasharray="5,2" d="M191.0533,-83.4491C195.5634,-82.4467 198.5,-80.6303 198.5,-78 198.5,-73.6836 190.5919,-71.5591 180.7994,-71.6266"/>
<polygon fill="#9a32cd" stroke="#9a32cd" points="190.4447,-79.9897 180.7994,-84.3734 191.0733,-86.9614 190.4447,-79.9897"/>
<text text-anchor="middle" x="209.5" y="-81" font-family="Helvetica,sans-Serif" font-size="10.00" fill="#000000"> prev</text>
<text text-anchor="middle" x="209.5" y="-70" font-family="Helvetica,sans-Serif" font-size="10.00" fill="#000000">next</text>
</g>
<!-- Node4 -->
<g id="node4" class="node">
<title>Node4</title>
<g id="a_node4"><a xlink:href="structJSValue.html" target="_top" xlink:title="JSValue">
<polygon fill="none" stroke="#000000" points="238,-247.5 238,-266.5 291,-266.5 291,-247.5 238,-247.5"/>
<text text-anchor="middle" x="264.5" y="-254.5" font-family="Helvetica,sans-Serif" font-size="10.00" fill="#000000">JSValue</text>
</a>
</g>
</g>
<!-- Node4&#45;&gt;Node2 -->
<g id="edge4" class="edge">
<title>Node4&#45;&gt;Node2</title>
<path fill="none" stroke="#9a32cd" stroke-dasharray="5,2" d="M259.1736,-237.1774C252.152,-208.4447 241.3674,-153.5662 247.5,-107 251.8025,-74.3304 263.9236,-37.0288 269.9736,-19.7415"/>
<polygon fill="#9a32cd" stroke="#9a32cd" points="255.8566,-238.3341 261.7225,-247.1568 262.6389,-236.6017 255.8566,-238.3341"/>
<text text-anchor="middle" x="280.5" y="-143" font-family="Helvetica,sans-Serif" font-size="10.00" fill="#000000"> func_obj</text>
<text text-anchor="middle" x="280.5" y="-132" font-family="Helvetica,sans-Serif" font-size="10.00" fill="#000000">meta_obj</text>
<text text-anchor="middle" x="280.5" y="-121" font-family="Helvetica,sans-Serif" font-size="10.00" fill="#000000">eval_exception</text>
<text text-anchor="middle" x="280.5" y="-110" font-family="Helvetica,sans-Serif" font-size="10.00" fill="#000000">module_ns</text>
</g>
<!-- Node10 -->
<g id="node10" class="node">
<title>Node10</title>
<g id="a_node10"><a xlink:href="structJSVarRef.html" target="_top" xlink:title="JSVarRef">
<polygon fill="none" stroke="#ff0000" points="292,-169.5 292,-188.5 351,-188.5 351,-169.5 292,-169.5"/>
<text text-anchor="middle" x="321.5" y="-176.5" font-family="Helvetica,sans-Serif" font-size="10.00" fill="#000000">JSVarRef</text>
</a>
</g>
</g>
<!-- Node4&#45;&gt;Node10 -->
<g id="edge12" class="edge">
<title>Node4&#45;&gt;Node10</title>
<path fill="none" stroke="#9a32cd" stroke-dasharray="5,2" d="M277.601,-239.0723C289.0648,-223.385 305.2791,-201.197 314.4535,-188.6426"/>
<polygon fill="#9a32cd" stroke="#9a32cd" points="274.5636,-237.2967 271.4893,-247.4357 280.2154,-241.4268 274.5636,-237.2967"/>
<text text-anchor="middle" x="315.5" y="-221" font-family="Helvetica,sans-Serif" font-size="10.00" fill="#000000"> pvalue</text>
<text text-anchor="middle" x="315.5" y="-210" font-family="Helvetica,sans-Serif" font-size="10.00" fill="#000000">value</text>
</g>
<!-- Node5 -->
<g id="node5" class="node">
<title>Node5</title>
<g id="a_node5"><a xlink:href="unionJSValueUnion.html" target="_top" xlink:title="JSValueUnion">
<polygon fill="none" stroke="#000000" points="225,-314.5 225,-333.5 304,-333.5 304,-314.5 225,-314.5"/>
<text text-anchor="middle" x="264.5" y="-321.5" font-family="Helvetica,sans-Serif" font-size="10.00" fill="#000000">JSValueUnion</text>
</a>
</g>
</g>
<!-- Node5&#45;&gt;Node4 -->
<g id="edge5" class="edge">
<title>Node5&#45;&gt;Node4</title>
<path fill="none" stroke="#9a32cd" stroke-dasharray="5,2" d="M264.5,-304.1079C264.5,-291.714 264.5,-276.3263 264.5,-266.5817"/>
<polygon fill="#9a32cd" stroke="#9a32cd" points="261.0001,-304.4005 264.5,-314.4005 268.0001,-304.4006 261.0001,-304.4005"/>
<text text-anchor="middle" x="269" y="-288" font-family="Helvetica,sans-Serif" font-size="10.00" fill="#000000"> u</text>
</g>
<!-- Node6 -->
<g id="node6" class="node">
<title>Node6</title>
<g id="a_node6"><a xlink:href="structJSRefCountHeader.html" target="_top" xlink:title="JSRefCountHeader">
<polygon fill="none" stroke="#000000" points="374.5,-68.5 374.5,-87.5 476.5,-87.5 476.5,-68.5 374.5,-68.5"/>
<text text-anchor="middle" x="425.5" y="-75.5" font-family="Helvetica,sans-Serif" font-size="10.00" fill="#000000">JSRefCountHeader</text>
</a>
</g>
</g>
<!-- Node6&#45;&gt;Node2 -->
<g id="edge6" class="edge">
<title>Node6&#45;&gt;Node2</title>
<path fill="none" stroke="#9a32cd" stroke-dasharray="5,2" d="M405.4273,-62.1429C394.4235,-54.044 380.2554,-44.545 366.5,-38 349.1423,-29.741 328.8017,-23.2851 311.5768,-18.6643"/>
<polygon fill="#9a32cd" stroke="#9a32cd" points="403.4188,-65.0122 413.5053,-68.2548 407.6424,-59.43 403.4188,-65.0122"/>
<text text-anchor="middle" x="401" y="-41" font-family="Helvetica,sans-Serif" font-size="10.00" fill="#000000"> header</text>
</g>
<!-- Node7 -->
<g id="node7" class="node">
<title>Node7</title>
<g id="a_node7"><a xlink:href="structJSStarExportEntry.html" target="_top" xlink:title="JSStarExportEntry">
<polygon fill="none" stroke="#000000" points="494.5,-68.5 494.5,-87.5 592.5,-87.5 592.5,-68.5 494.5,-68.5"/>
<text text-anchor="middle" x="543.5" y="-75.5" font-family="Helvetica,sans-Serif" font-size="10.00" fill="#000000">JSStarExportEntry</text>
</a>
</g>
</g>
<!-- Node7&#45;&gt;Node2 -->
<g id="edge7" class="edge">
<title>Node7&#45;&gt;Node2</title>
<path fill="none" stroke="#9a32cd" stroke-dasharray="5,2" d="M508.1515,-65.0602C483.9864,-56.5492 451.0971,-45.6174 421.5,-38 384.5256,-28.4839 341.5872,-20.715 311.5136,-15.7955"/>
<polygon fill="#9a32cd" stroke="#9a32cd" points="507.0168,-68.3714 517.6115,-68.4252 509.3628,-61.7762 507.0168,-68.3714"/>
<text text-anchor="middle" x="502" y="-41" font-family="Helvetica,sans-Serif" font-size="10.00" fill="#000000"> star_export_entries</text>
</g>
<!-- Node8 -->
<g id="node8" class="node">
<title>Node8</title>
<g id="a_node8"><a xlink:href="structJSImportEntry.html" target="_top" xlink:title="JSImportEntry">
<polygon fill="none" stroke="#000000" points="611.5,-68.5 611.5,-87.5 691.5,-87.5 691.5,-68.5 611.5,-68.5"/>
<text text-anchor="middle" x="651.5" y="-75.5" font-family="Helvetica,sans-Serif" font-size="10.00" fill="#000000">JSImportEntry</text>
</a>
</g>
</g>
<!-- Node8&#45;&gt;Node2 -->
<g id="edge9" class="edge">
<title>Node8&#45;&gt;Node2</title>
<path fill="none" stroke="#9a32cd" stroke-dasharray="5,2" d="M622.5078,-64.1765C602.4596,-55.2342 574.9207,-44.1513 549.5,-38 505.3801,-27.3239 376.5922,-17.189 311.7441,-12.5867"/>
<polygon fill="#9a32cd" stroke="#9a32cd" points="621.1543,-67.4059 631.7058,-68.3635 624.0544,-61.0349 621.1543,-67.4059"/>
<text text-anchor="middle" x="616" y="-41" font-family="Helvetica,sans-Serif" font-size="10.00" fill="#000000"> import_entries</text>
</g>
<!-- Node9 -->
<g id="node9" class="node">
<title>Node9</title>
<g id="a_node9"><a xlink:href="structJSExportEntry.html" target="_top" xlink:title="JSExportEntry">
<polygon fill="none" stroke="#000000" points="276.5,-68.5 276.5,-87.5 356.5,-87.5 356.5,-68.5 276.5,-68.5"/>
<text text-anchor="middle" x="316.5" y="-75.5" font-family="Helvetica,sans-Serif" font-size="10.00" fill="#000000">JSExportEntry</text>
</a>
</g>
</g>
<!-- Node9&#45;&gt;Node2 -->
<g id="edge10" class="edge">
<title>Node9&#45;&gt;Node2</title>
<path fill="none" stroke="#9a32cd" stroke-dasharray="5,2" d="M304.9351,-59.7114C296.7963,-46.8406 286.2225,-30.1194 279.6494,-19.7247"/>
<polygon fill="#9a32cd" stroke="#9a32cd" points="302.0363,-61.6759 310.3391,-68.2573 307.9527,-57.9347 302.0363,-61.6759"/>
<text text-anchor="middle" x="330" y="-41" font-family="Helvetica,sans-Serif" font-size="10.00" fill="#000000"> export_entries</text>
</g>
<!-- Node10&#45;&gt;Node9 -->
<g id="edge11" class="edge">
<title>Node10&#45;&gt;Node9</title>
<path fill="none" stroke="#9a32cd" stroke-dasharray="5,2" d="M320.5235,-159.2744C319.4531,-137.6522 317.7804,-103.8644 316.9707,-87.5075"/>
<polygon fill="#9a32cd" stroke="#9a32cd" points="317.0303,-159.501 321.0206,-169.3157 324.0218,-159.1548 317.0303,-159.501"/>
<text text-anchor="middle" x="336.5" y="-126.5" font-family="Helvetica,sans-Serif" font-size="10.00" fill="#000000"> var_ref</text>
</g>
</g>
</svg>
        <g id="navigator" transform="translate(0 0)" fill="#404254">
                <rect fill="#f2f5e9" fill-opacity="0.5" stroke="#606060" stroke-width=".5" x="0" y="0" width="60" height="60"/>
                <use id="zoomplus" xlink:href="#zoomPlus" x="17" y="9" onmousedown="handleZoom(evt,'in')"/>
                <use id="zoomminus" xlink:href="#zoomMin" x="42" y="9" onmousedown="handleZoom(evt,'out')"/>
                <use id="reset" xlink:href="#resetDef" x="30" y="36" onmousedown="handleReset()"/>
                <g id="arrowUp" xlink:href="#dirArrow" transform="translate(30 24)" onmousedown="handlePan(0,-1)">
                  <use xlink:href="#rim" fill="#404040">
                        <set attributeName="fill" to="#808080" begin="arrowUp.mouseover" end="arrowUp.mouseout"/>
                  </use>
                  <path fill="none" stroke="white" stroke-width="1.5" d="M0,-3.0v7 M-2.5,-0.5L0,-3.0L2.5,-0.5"/>
                </g>
                <g id="arrowRight" xlink:href="#dirArrow" transform="rotate(90) translate(36 -43)" onmousedown="handlePan(1,0)">
                  <use xlink:href="#rim" fill="#404040">
                        <set attributeName="fill" to="#808080" begin="arrowRight.mouseover" end="arrowRight.mouseout"/>
                  </use>
                  <path fill="none" stroke="white" stroke-width="1.5" d="M0,-3.0v7 M-2.5,-0.5L0,-3.0L2.5,-0.5"/>
                </g>
                <g id="arrowDown" xlink:href="#dirArrow" transform="rotate(180) translate(-30 -48)" onmousedown="handlePan(0,1)">
                  <use xlink:href="#rim" fill="#404040">
                        <set attributeName="fill" to="#808080" begin="arrowDown.mouseover" end="arrowDown.mouseout"/>
                  </use>
                  <path fill="none" stroke="white" stroke-width="1.5" d="M0,-3.0v7 M-2.5,-0.5L0,-3.0L2.5,-0.5"/>
                </g>
                <g id="arrowLeft" xlink:href="#dirArrow" transform="rotate(270) translate(-36 17)" onmousedown="handlePan(-1,0)">
                  <use xlink:href="#rim" fill="#404040">
                        <set attributeName="fill" to="#808080" begin="arrowLeft.mouseover" end="arrowLeft.mouseout"/>
                  </use>
                  <path fill="none" stroke="white" stroke-width="1.5" d="M0,-3.0v7 M-2.5,-0.5L0,-3.0L2.5,-0.5"/>
                </g>
        </g>
        <svg viewBox="0 0 15 15" width="100%" height="30px" preserveAspectRatio="xMaxYMin meet">
         <g id="arrow_out" transform="scale(0.3 0.3)">
          <a xlink:href="structJSReqModuleEntry__coll__graph_org.svg" target="_base">
           <rect id="button" ry="5" rx="5" y="6" x="6" height="38" width="38"
                fill="#f2f5e9" fill-opacity="0.5" stroke="#606060" stroke-width="1.0"/>
           <path id="arrow"
             d="M 11.500037,31.436501 C 11.940474,20.09759 22.043105,11.32322 32.158766,21.979434 L 37.068811,17.246167 C 37.068811,17.246167 37.088388,32 37.088388,32 L 22.160133,31.978069 C 22.160133,31.978069 26.997745,27.140456 26.997745,27.140456 C 18.528582,18.264221 13.291696,25.230495 11.500037,31.436501 z"
             style="fill:#404040;"/>
          </a>
         </g>
        </svg>
</svg>
